# SSTK version 0.8.0
# 21
mtllib original-21.mtl
o Group20/mesh33/mesh33-geometry#mesh33-geometry
v 0.650336 -0.087794 -0.104942
v 0.723843 -0.086184 -0.039183
v 0.718065 -0.088518 -0.110413
v 0.722637 -0.08615 -0.039086
v 0.72503 -0.086402 -0.039272
v 0.648189 -0.367256 -0.095609
v 0.656114 -0.085459 -0.033713
v 0.653967 -0.364921 -0.02438
v 0.719252 -0.088737 -0.110502
v 0.72617 -0.086799 -0.039352
v 0.720392 -0.089134 -0.110581
v 0.714712 -0.367946 -0.100983
v 0.727237 -0.087366 -0.03942
v 0.721459 -0.0897 -0.110649
v 0.72049 -0.365612 -0.029753
v 0.715894 -0.367873 -0.101081
v 0.728207 -0.088089 -0.039475
v 0.722429 -0.090423 -0.110704
v 0.721672 -0.365539 -0.029852
v 0.717054 -0.367632 -0.101183
v 0.729055 -0.088951 -0.039515
v 0.723277 -0.091285 -0.110745
v 0.722832 -0.365297 -0.029953
v 0.718166 -0.367227 -0.101287
v 0.729762 -0.089933 -0.03954
v 0.723984 -0.092267 -0.11077
v 0.723944 -0.364892 -0.030057
v 0.719209 -0.366667 -0.10139
v 0.730312 -0.09101 -0.03955
v 0.724534 -0.093345 -0.110779
v 0.724987 -0.364332 -0.03016
v 0.720161 -0.365963 -0.10149
v 0.730693 -0.092159 -0.039543
v 0.724915 -0.094494 -0.110773
v 0.725939 -0.363628 -0.03026
v 0.721003 -0.365129 -0.101585
v 0.730894 -0.093353 -0.03952
v 0.725116 -0.095687 -0.11075
v 0.726781 -0.362795 -0.030356
v 0.721717 -0.364183 -0.101674
v 0.730911 -0.094562 -0.039482
v 0.725133 -0.096897 -0.110712
v 0.727495 -0.361849 -0.030445
v 0.722288 -0.363145 -0.101755
v 0.730745 -0.09576 -0.039429
v 0.722827 -0.11168 -0.11004
v 0.728066 -0.36081 -0.030525
v 0.722706 -0.362034 -0.101825
v 0.728605 -0.109345 -0.03881
v 0.719815 -0.134868 -0.109036
v 0.728484 -0.3597 -0.030595
v 0.722961 -0.360875 -0.101884
v 0.725593 -0.132533 -0.037806
v 0.71743 -0.15813 -0.10808
v 0.728739 -0.358541 -0.030654
v 0.723049 -0.359691 -0.10193
v 0.723208 -0.155796 -0.03685
v 0.715674 -0.181451 -0.107173
v 0.728827 -0.357357 -0.0307
v 0.722966 -0.358506 -0.101962
v 0.721452 -0.179116 -0.035943
v 0.714548 -0.204812 -0.106316
v 0.728744 -0.356172 -0.030732
v 0.721036 -0.344878 -0.102252
v 0.720326 -0.202478 -0.035086
v 0.714053 -0.228197 -0.105509
v 0.726814 -0.342544 -0.031022
v 0.718381 -0.321631 -0.102798
v 0.719831 -0.225863 -0.03428
v 0.714189 -0.251589 -0.104754
v 0.724159 -0.319297 -0.031569
v 0.716353 -0.298323 -0.103398
v 0.719967 -0.249254 -0.033524
v 0.714956 -0.27497 -0.10405
v 0.722131 -0.295988 -0.032168
v 0.720734 -0.272635 -0.03282
vn 0.007900295343765296 0.99940810816341 -0.033481616907116644
vn 0.17716551615276108 0.983077667771462 -0.04659054641608024
vn -0.0808093975084132 -0.03264911588733838 -0.9961946980917449
vn 0.0808093975084132 0.03264911588733838 0.9961946980917449
vn -0.996700015116221 0.010343998052054864 0.08051137541754083
vn 0.3246506790300568 0.9440981465990007 -0.057276750899946514
vn -0.007676010790272095 -0.9994133463868063 0.03337726654885617
vn 0.46454330338031063 0.883040673262774 -0.06662348420891533
vn 0.1347443461136434 -0.9906463121241489 0.021537071881526114
vn 0.06369744909349628 -0.9975895219859752 0.02752781507447937
vn 0.5935719117207096 0.8013333973025886 -0.07441217631351761
vn 0.2744021933369062 -0.961570472939912 0.009255369361006505
vn 0.7087199290094095 0.7008866754619721 -0.08046073815695329
vn 0.408434977449339 -0.9127817514944416 -0.0032161055171151137
vn 0.807294777310873 0.5840490483796661 -0.08462772366898656
vn 0.5340951966314539 -0.8452800027573516 -0.01562171161366448
vn 0.8869902944054296 0.45355403281299683 -0.08681564922084052
vn 0.6488051250541201 -0.7604500206208484 -0.02770696376831472
vn 0.9459435181608788 0.31245238301830136 -0.08697337981016795
vn 0.7502144279845195 -0.6600301291371906 -0.03922423581159654
vn 0.9827758198097958 0.16404314527024225 -0.08509720610590003
vn 0.8362437433994948 -0.5460793536914831 -0.04993737174794289
vn 0.9966254639384927 0.011798535279512384 -0.08123102359715782
vn 0.9051299399652566 -0.42093281440555647 -0.05962681892494639
vn 0.984707951717906 -0.1573357753392784 -0.0748044358438331
vn 0.9866300695794835 -0.1445167524385188 -0.07533932615976446
vn 0.9554597831148444 -0.28715821298936156 -0.06809378505334286
vn 0.9900370271473867 -0.11825607285783712 -0.07643419463438197
vn 0.9862024788508107 -0.1474954748195284 -0.07516485625794896
vn 0.9927945953615821 -0.09135936854103013 -0.07753939128350425
vn 0.9967272384685044 -0.004810089609192517 -0.08069495109918963
vn 0.9948252844126033 -0.06439409799595122 -0.0785878720711459
vn 0.9943241880296217 0.06675359741098702 -0.08284543639769835
vn 0.9961273566425054 -0.03738333184307254 -0.0795787399292391
vn 0.988625281911036 0.12456836217437907 -0.08427796338021783
vn 0.9868185581608844 0.13797433829393366 -0.08457077061032564
vn 0.996700015116221 -0.010343998052054864 -0.08051137541754083
vn 0.9916955981219163 0.09768916395386872 -0.08364608724626087
vn 0.996542766927274 0.016702910889943308 -0.08138505054821626
vn 0.9940395985209819 0.07073951430245992 -0.08295298480764454
vn 0.995655782462977 0.043736395611937276 -0.08219909091293735
vn -0.007900295343765296 -0.99940810816341 0.033481616907116644
vn -0.17716551615276108 -0.983077667771462 0.04659054641608024
vn -0.3246506790300568 -0.9440981465990007 0.057276750899946514
vn 0.007676010790272095 0.9994133463868063 -0.03337726654885617
vn -0.46454330338031063 -0.883040673262774 0.06662348420891533
vn -0.06369744909349628 0.9975895219859752 -0.02752781507447937
vn -0.1347443461136434 0.9906463121241489 -0.021537071881526114
vn -0.5935719117207096 -0.8013333973025886 0.07441217631351761
vn -0.2744021933369062 0.961570472939912 -0.009255369361006505
vn -0.7087199290094095 -0.7008866754619721 0.08046073815695329
vn -0.408434977449339 0.9127817514944416 0.0032161055171151137
vn -0.807294777310873 -0.5840490483796661 0.08462772366898656
vn -0.5340951966314539 0.8452800027573516 0.01562171161366448
vn -0.8869902944054296 -0.45355403281299683 0.08681564922084052
vn -0.6488051250541201 0.7604500206208484 0.02770696376831472
vn -0.9459435181608788 -0.31245238301830136 0.08697337981016795
vn -0.7502144279845195 0.6600301291371906 0.03922423581159654
vn -0.9827758198097958 -0.16404314527024225 0.08509720610590003
vn -0.8362437433994948 0.5460793536914831 0.04993737174794289
vn -0.9966254639384927 -0.011798535279512384 0.08123102359715782
vn -0.9051299399652566 0.42093281440555647 0.05962681892494639
vn -0.984707951717906 0.1573357753392784 0.0748044358438331
vn -0.9866300695794835 0.1445167524385188 0.07533932615976446
vn -0.9554597831148444 0.28715821298936156 0.06809378505334286
vn -0.9900370271473867 0.11825607285783712 0.07643419463438197
vn -0.9862024788508107 0.1474954748195284 0.07516485625794896
vn -0.9927945953615821 0.09135936854103013 0.07753939128350425
vn -0.9967272384685044 0.004810089609192517 0.08069495109918963
vn -0.9948252844126033 0.06439409799595122 0.0785878720711459
vn -0.9943241880296217 -0.06675359741098702 0.08284543639769835
vn -0.9961273566425054 0.03738333184307254 0.0795787399292391
vn -0.988625281911036 -0.12456836217437907 0.08427796338021783
vn -0.9868185581608844 -0.13797433829393366 0.08457077061032564
vn -0.9916955981219163 -0.09768916395386872 0.08364608724626087
vn -0.996542766927274 -0.016702910889943308 0.08138505054821626
vn -0.9940395985209819 -0.07073951430245992 0.08295298480764454
vn -0.995655782462977 -0.043736395611937276 0.08219909091293735
usemtl material_0_0
f 1//1 2//1 3//1
f 2//1 1//1 4//1
f 5//2 3//2 2//2
f 3//3 6//3 1//3
f 4//1 1//1 7//1
f 4//4 8//4 2//4
f 3//2 5//2 9//2
f 2//4 8//4 5//4
f 6//3 3//3 9//3
f 8//5 1//5 6//5
f 1//5 8//5 7//5
f 8//4 4//4 7//4
f 10//6 9//6 5//6
f 5//4 8//4 10//4
f 6//3 9//3 11//3
f 12//7 8//7 6//7
f 9//6 10//6 11//6
f 10//4 8//4 13//4
f 6//3 11//3 14//3
f 8//7 12//7 15//7
f 6//3 16//3 12//3
f 13//8 11//8 10//8
f 13//4 8//4 17//4
f 11//8 13//8 14//8
f 6//3 14//3 18//3
f 16//9 15//10 12//10
f 19//4 8//4 15//4
f 6//3 20//3 16//3
f 17//4 8//4 21//4
f 17//11 14//11 13//11
f 14//11 17//11 18//11
f 6//3 18//3 22//3
f 15//10 16//9 19//9
f 23//4 8//4 19//4
f 6//3 24//3 20//3
f 20//12 19//9 16//9
f 21//4 8//4 25//4
f 21//13 18//13 17//13
f 18//13 21//13 22//13
f 6//3 22//3 26//3
f 27//4 8//4 23//4
f 19//9 20//12 23//12
f 6//3 28//3 24//3
f 24//14 23//12 20//12
f 25//4 8//4 29//4
f 26//15 21//15 25//15
f 21//15 26//15 22//15
f 6//3 26//3 30//3
f 31//4 8//4 27//4
f 23//12 24//14 27//14
f 6//3 32//3 28//3
f 28//16 27//14 24//14
f 29//4 8//4 33//4
f 30//17 25//17 29//17
f 25//17 30//17 26//17
f 6//3 30//3 34//3
f 35//4 8//4 31//4
f 27//14 28//16 31//16
f 6//3 36//3 32//3
f 32//18 31//16 28//16
f 33//4 8//4 37//4
f 34//19 29//19 33//19
f 29//19 34//19 30//19
f 6//3 34//3 38//3
f 39//4 8//4 35//4
f 31//16 32//18 35//18
f 6//3 40//3 36//3
f 39//20 32//18 36//20
f 37//4 8//4 41//4
f 38//21 33//21 37//21
f 33//21 38//21 34//21
f 6//3 38//3 42//3
f 43//4 8//4 39//4
f 32//18 39//20 35//18
f 6//3 44//3 40//3
f 43//22 36//20 40//22
f 36//20 43//22 39//20
f 41//4 8//4 45//4
f 42//23 37//23 41//23
f 37//23 42//23 38//23
f 6//3 42//3 46//3
f 47//4 8//4 43//4
f 6//3 48//3 44//3
f 47//24 40//22 44//24
f 40//22 47//24 43//22
f 45//4 8//4 49//4
f 45//25 46//26 41//25
f 41//25 46//26 42//25
f 6//3 46//3 50//3
f 51//4 8//4 47//4
f 6//3 52//3 48//3
f 51//27 44//24 48//27
f 44//24 51//27 47//24
f 49//4 8//4 53//4
f 46//26 45//25 49//26
f 49//26 50//28 46//26
f 6//3 50//3 54//3
f 55//4 8//4 51//4
f 6//3 56//3 52//3
f 55//29 48//27 52//29
f 48//27 55//29 51//27
f 53//4 8//4 57//4
f 50//28 49//26 53//28
f 53//28 54//30 50//28
f 6//3 54//3 58//3
f 59//4 8//4 55//4
f 6//3 60//3 56//3
f 59//31 52//29 56//31
f 52//29 59//31 55//29
f 57//4 8//4 61//4
f 54//30 53//28 57//30
f 57//30 58//32 54//30
f 6//3 58//3 62//3
f 63//4 8//4 59//4
f 6//3 64//3 60//3
f 63//33 56//31 60//33
f 56//31 63//33 59//31
f 61//4 8//4 65//4
f 58//32 57//30 61//32
f 61//32 62//34 58//32
f 6//3 62//3 66//3
f 67//4 8//4 63//4
f 6//3 68//3 64//3
f 67//35 60//36 64//35
f 60//36 67//35 63//36
f 65//4 8//4 69//4
f 62//34 61//32 65//34
f 65//34 66//37 62//34
f 6//3 66//3 70//3
f 71//4 8//4 67//4
f 6//3 72//3 68//3
f 71//38 64//35 68//38
f 64//35 71//38 67//35
f 69//4 8//4 73//4
f 66//37 65//34 69//37
f 69//37 70//39 66//37
f 6//3 70//3 74//3
f 75//4 8//4 71//4
f 6//3 74//3 72//3
f 75//40 68//38 72//40
f 68//38 75//40 71//38
f 73//4 8//4 76//4
f 70//39 69//37 73//39
f 73//39 74//41 70//39
f 76//4 8//4 75//4
f 76//41 72//40 74//41
f 72//40 76//41 75//40
f 74//41 73//39 76//41
usemtl material_1_0
f 3//42 2//42 1//42
f 4//42 1//42 2//42
f 2//43 3//43 5//43
f 1//4 6//4 3//4
f 7//42 1//42 4//42
f 2//3 8//3 4//3
f 9//43 5//43 3//43
f 5//3 8//3 2//3
f 9//4 3//4 6//4
f 6//37 1//37 8//37
f 7//37 8//37 1//37
f 7//3 4//3 8//3
f 5//44 9//44 10//44
f 10//3 8//3 5//3
f 11//4 9//4 6//4
f 6//45 8//45 12//45
f 11//44 10//44 9//44
f 13//3 8//3 10//3
f 14//4 11//4 6//4
f 15//45 12//45 8//45
f 12//4 16//4 6//4
f 10//46 11//46 13//46
f 17//3 8//3 13//3
f 14//46 13//46 11//46
f 18//4 14//4 6//4
f 12//47 15//47 16//48
f 15//3 8//3 19//3
f 16//4 20//4 6//4
f 21//3 8//3 17//3
f 13//49 14//49 17//49
f 18//49 17//49 14//49
f 22//4 18//4 6//4
f 19//48 16//48 15//47
f 19//3 8//3 23//3
f 20//4 24//4 6//4
f 16//48 19//48 20//50
f 25//3 8//3 21//3
f 17//51 18//51 21//51
f 22//51 21//51 18//51
f 26//4 22//4 6//4
f 23//3 8//3 27//3
f 23//50 20//50 19//48
f 24//4 28//4 6//4
f 20//50 23//50 24//52
f 29//3 8//3 25//3
f 25//53 21//53 26//53
f 22//53 26//53 21//53
f 30//4 26//4 6//4
f 27//3 8//3 31//3
f 27//52 24//52 23//50
f 28//4 32//4 6//4
f 24//52 27//52 28//54
f 33//3 8//3 29//3
f 29//55 25//55 30//55
f 26//55 30//55 25//55
f 34//4 30//4 6//4
f 31//3 8//3 35//3
f 31//54 28//54 27//52
f 32//4 36//4 6//4
f 28//54 31//54 32//56
f 37//3 8//3 33//3
f 33//57 29//57 34//57
f 30//57 34//57 29//57
f 38//4 34//4 6//4
f 35//3 8//3 39//3
f 35//56 32//56 31//54
f 36//4 40//4 6//4
f 36//58 32//56 39//58
f 41//3 8//3 37//3
f 37//59 33//59 38//59
f 34//59 38//59 33//59
f 42//4 38//4 6//4
f 39//3 8//3 43//3
f 35//56 39//58 32//56
f 40//4 44//4 6//4
f 40//60 36//58 43//60
f 39//58 43//60 36//58
f 45//3 8//3 41//3
f 41//61 37//61 42//61
f 38//61 42//61 37//61
f 46//4 42//4 6//4
f 43//3 8//3 47//3
f 44//4 48//4 6//4
f 44//62 40//60 47//62
f 43//60 47//62 40//60
f 49//3 8//3 45//3
f 41//63 46//64 45//63
f 42//63 46//64 41//63
f 50//4 46//4 6//4
f 47//3 8//3 51//3
f 48//4 52//4 6//4
f 48//65 44//62 51//65
f 47//62 51//65 44//62
f 53//3 8//3 49//3
f 49//64 45//63 46//64
f 46//64 50//66 49//64
f 54//4 50//4 6//4
f 51//3 8//3 55//3
f 52//4 56//4 6//4
f 52//67 48//65 55//67
f 51//65 55//67 48//65
f 57//3 8//3 53//3
f 53//66 49//64 50//66
f 50//66 54//68 53//66
f 58//4 54//4 6//4
f 55//3 8//3 59//3
f 56//4 60//4 6//4
f 56//69 52//67 59//69
f 55//67 59//69 52//67
f 61//3 8//3 57//3
f 57//68 53//66 54//68
f 54//68 58//70 57//68
f 62//4 58//4 6//4
f 59//3 8//3 63//3
f 60//4 64//4 6//4
f 60//71 56//69 63//71
f 59//69 63//71 56//69
f 65//3 8//3 61//3
f 61//70 57//68 58//70
f 58//70 62//72 61//70
f 66//4 62//4 6//4
f 63//3 8//3 67//3
f 64//4 68//4 6//4
f 64//73 60//74 67//73
f 63//74 67//73 60//74
f 69//3 8//3 65//3
f 65//72 61//70 62//72
f 62//72 66//5 65//72
f 70//4 66//4 6//4
f 67//3 8//3 71//3
f 68//4 72//4 6//4
f 68//75 64//73 71//75
f 67//73 71//75 64//73
f 73//3 8//3 69//3
f 69//5 65//72 66//5
f 66//5 70//76 69//5
f 74//4 70//4 6//4
f 71//3 8//3 75//3
f 72//4 74//4 6//4
f 72//77 68//75 75//77
f 71//75 75//77 68//75
f 76//3 8//3 73//3
f 73//76 69//5 70//76
f 70//76 74//78 73//76
f 75//3 8//3 76//3
f 74//78 72//77 76//78
f 75//77 76//78 72//77
f 76//78 73//76 74//78
