# SSTK version 0.8.0
# 19
mtllib original-19.mtl
o Group18/mesh31/mesh31-geometry#mesh31-geometry
v 0.351534 -0.351523 -0.077417
v 0.647946 -0.356736 -0.099971
v 0.647857 -0.354598 -0.101353
v 0.351623 -0.353661 -0.076035
v 0.648824 -0.182341 -0.111509
v 0.351458 -0.349291 -0.078641
v 0.352501 -0.179266 -0.087573
v 0.648049 -0.358768 -0.098439
v 0.647781 -0.352366 -0.102577
v 0.351726 -0.355693 -0.074503
v 0.648164 -0.360684 -0.096765
v 0.647719 -0.350051 -0.103638
v 0.351397 -0.346976 -0.079701
v 0.351841 -0.357609 -0.072829
v 0.648402 -0.339567 -0.096534
v 0.647672 -0.347666 -0.104529
v 0.351349 -0.344591 -0.080593
v 0.353289 -0.178947 -0.077859
v 0.649612 -0.182023 -0.101795
v 0.648292 -0.362474 -0.094958
v 0.647639 -0.345222 -0.105246
v 0.351317 -0.342147 -0.08131
v 0.352079 -0.336492 -0.072598
v 0.64843 -0.364128 -0.093026
v 0.647622 -0.342733 -0.105786
v 0.351299 -0.339658 -0.08185
v 0.351955 -0.352733 -0.072055
v 0.647631 -0.337671 -0.106322
v 0.351969 -0.359399 -0.071021
v 0.648963 -0.366943 -0.086068
v 0.647619 -0.340212 -0.106145
v 0.351296 -0.337136 -0.082209
v 0.357857 -0.334157 -0.001368
v 0.65418 -0.337233 -0.025304
v 0.351308 -0.334595 -0.082385
v 0.649528 -0.36891 -0.078828
v 0.352108 -0.361053 -0.06909
v 0.357733 -0.350399 -0.000826
v 0.654003 -0.352067 -0.025587
v 0.650116 -0.370002 -0.071406
v 0.352641 -0.363868 -0.062132
v 0.357757 -0.347366 -0.000919
v 0.357989 -0.334104 0.000251
v 0.654079 -0.350442 -0.024855
v 0.653918 -0.353633 -0.026438
v 0.650719 -0.370204 -0.063909
v 0.353205 -0.365835 -0.054891
v 0.357823 -0.345691 -0.000311
v 0.654311 -0.33718 -0.023685
v 0.35788 -0.343974 0.000171
v 0.654146 -0.348766 -0.024247
v 0.357681 -0.348992 -0.001651
v 0.653825 -0.35513 -0.027404
v 0.357596 -0.350557 -0.002502
v 0.65133 -0.369512 -0.056441
v 0.353793 -0.366927 -0.04747
v 0.654249 -0.3453 -0.023414
v 0.357926 -0.342225 0.000522
v 0.654202 -0.347049 -0.023766
v 0.653723 -0.35655 -0.028479
v 0.357502 -0.352055 -0.003468
v 0.651938 -0.367936 -0.049109
v 0.354397 -0.367128 -0.039972
v 0.653614 -0.357885 -0.029657
v 0.3574 -0.353475 -0.004542
v 0.652537 -0.365499 -0.042015
v 0.355007 -0.366436 -0.032505
v 0.653498 -0.359128 -0.030932
v 0.357291 -0.35481 -0.005721
v 0.653116 -0.362235 -0.035261
v 0.355616 -0.364861 -0.025173
v 0.653376 -0.360272 -0.032296
v 0.357176 -0.356053 -0.006995
v 0.653249 -0.361309 -0.033741
v 0.356214 -0.362424 -0.018079
v 0.357053 -0.357196 -0.008359
v 0.356794 -0.35916 -0.011324
v 0.356926 -0.358234 -0.009805
vt 10.499902 -7.145773
vt 6.245408 -7.097177
vt 6.245408 -7.145773
vt 10.499902 -7.097176
vt 13.69684 2.712882
vt 13.778827 -0.620155
vt 13.715643 2.671251
vt 6.245408 -5.896386
vt 10.499902 -5.944983
vt 10.499902 -5.896386
vt -13.715643 2.671251
vt -13.69684 2.712882
vt -13.778827 -0.620155
vt 10.499902 -8.309384
vt 6.245408 -8.260787
vt 6.245408 -8.309384
vt 13.675832 2.752594
vt 13.732141 2.627918
vt 6.245408 -5.944983
vt -13.732142 2.627918
vt -13.675832 2.752594
vt 10.499902 -8.260787
vt 13.652728 2.79018
vt 13.746251 2.58311
vt 6.245408 -4.664685
vt 10.499902 -4.713282
vt 10.499902 -4.664685
vt -13.746251 2.58311
vt -13.652728 2.79018
vt 10.499902 -9.429739
vt 6.245408 -9.381142
vt 6.245408 -9.429739
vt 13.639292 2.38761
vt 13.757896 2.537061
vt 6.245408 -4.713282
vt -13.757896 2.537061
vt -13.639293 -0.620155
vt 10.499902 -9.381142
vt 13.639292 -0.620155
vt 13.627649 2.825443
vt 13.767018 2.49001
vt 10.499902 -3.4571
vt 6.245408 -3.408503
vt 6.245408 -3.4571
vt 10.499902 -3.408503
vt -13.767018 2.49001
vt -13.639293 2.38761
vt 10.499902 18.37177
vt 10.499902 18.185723
vt 6.245408 18.37177
vt 10.499902 -10.50099
vt 6.245408 -10.452394
vt 6.245408 -10.500991
vt -6.245409 2.38761
vt -10.499902 -0.620155
vt -6.245409 -0.620155
vt 6.245408 18.185723
vt 13.600726 2.8582
vt 13.773567 2.442205
vt 10.499902 -2.182997
vt 6.245408 -2.1344
vt 6.245408 -2.182997
vt 10.499902 -2.1344
vt -13.773567 2.442205
vt -13.639293 2.697688
vt -10.499902 2.38761
vt 10.499902 -0.620155
vt 6.245408 2.345328
vt 6.245408 -0.620155
vt 10.499902 -10.452394
vt 13.502237 2.916226
vt 10.499902 -11.517545
vt 6.245408 -11.468948
vt 6.245408 -11.517545
vt 13.77751 2.393893
vt 10.499902 -0.897623
vt 6.245408 -0.849026
vt 6.245408 -0.897623
vt 10.499902 -0.849026
vt -13.777511 2.393893
vt -13.627649 2.825443
vt -12.616085 2.38761
vt 6.245408 16.821446
vt 10.499902 2.345328
vt 13.778827 2.345328
vt 13.399282 2.958268
vt -6.245408 -15.288377
vt -10.499902 -15.431944
vt -6.245408 -15.431944
vt 10.499902 -11.468948
vt 10.499902 0.39231
vt 6.245408 0.440907
vt 6.245408 0.39231
vt 10.499902 0.440907
vt -13.778827 2.345328
vt -13.600726 2.8582
vt -12.616085 2.697688
vt 10.499902 16.821446
vt 12.627247 2.670336
vt 12.616085 2.38761
vt 10.499902 1.680069
vt 6.245408 1.728665
vt 6.245408 1.680069
vt 13.293313 2.983733
vt -6.245408 -16.216213
vt -10.499902 -16.35978
vt -6.245408 -16.35978
vt -10.499902 -15.288377
vt 10.499902 1.728665
vt -13.502237 2.916226
vt -12.615969 2.639797
vt 10.499902 16.790439
vt 12.615969 2.639797
vt 12.640211 2.699662
vt 13.185828 2.992261
vt -6.245408 -16.914139
vt -10.499902 -17.057707
vt -6.245408 -17.057707
vt -10.499902 -16.216213
vt -13.399282 2.958268
vt -12.606439 2.608217
vt 6.245408 16.790438
vt -12.598711 2.575773
vt -12.592829 2.38761
vt 12.606439 2.608217
vt -10.499902 9.833387
vt -6.245408 9.799346
vt -6.245408 9.833387
vt 12.654787 2.727609
vt -10.499902 10.883493
vt -6.245408 10.849452
vt -6.245408 10.883493
vt 13.078343 2.983733
vt -6.245408 -17.372304
vt -10.499902 -17.515872
vt -6.245408 -17.515872
vt -10.499902 -16.914139
vt -13.293313 2.983733
vt -6.245408 8.694012
vt -10.499902 8.728052
vt -10.499902 8.694012
vt 12.592829 2.542649
vt 12.592829 2.38761
vt -6.245408 2.542638
vt -10.499902 2.387599
vt -6.245408 2.387599
vt -12.592829 2.542649
vt 12.598711 2.575774
vt -6.245408 8.728052
vt -10.499902 9.799346
vt -10.499902 10.849452
vt 12.670892 2.754022
vt -10.499902 11.872462
vt -6.245408 11.838422
vt -6.245408 11.872462
vt -10.499902 11.838422
vt 12.972374 2.958268
vt 6.245408 17.584241
vt 10.499902 17.727808
vt 6.245408 17.727808
vt -10.499902 -17.372304
vt -13.185828 2.992261
vt -6.245408 7.539667
vt -10.499902 7.573707
vt -10.499902 7.539667
vt -6.245408 7.573707
vt -10.499902 2.542638
vt -6.245408 6.342807
vt -10.499902 6.376847
vt -10.499902 6.342807
vt 12.688438 2.77875
vt -10.499902 12.79473
vt -6.245408 12.76069
vt -6.245408 12.79473
vt -10.499902 12.76069
vt -12.640211 2.699662
vt -12.654787 2.727609
vt 12.869419 2.916226
vt 6.245408 17.546957
vt 10.499902 17.690525
vt 6.245408 17.690525
vt 10.499902 17.584241
vt -13.078343 2.983733
vt -6.245408 6.376847
vt 12.707324 2.801655
vt -10.499902 13.645109
vt -6.245408 13.611068
vt -6.245408 13.645109
vt -10.499902 13.611068
vt -12.670893 2.754022
vt 12.77093 2.8582
vt 6.245408 17.26098
vt 10.499902 17.404548
vt 6.245408 17.404548
vt 10.499902 17.546957
vt -12.972374 2.958268
vt 12.727444 2.822609
vt -10.499902 14.418813
vt -6.245408 14.384773
vt -6.245408 14.418813
vt -10.499902 14.384773
vt -12.688438 2.77875
vt 12.748686 2.841492
vt 6.245408 16.730346
vt 10.499902 16.873914
vt 6.245408 16.873914
vt 10.499902 17.26098
vt -12.869419 2.916226
vt -10.499902 15.11149
vt -6.245408 15.07745
vt -6.245408 15.11149
vt -10.499902 15.07745
vt -12.707324 2.801655
vt 6.245408 16.204612
vt 10.499902 16.238652
vt 6.245408 16.238652
vt 10.499902 16.730346
vt -12.77093 2.8582
vt -10.499902 15.719243
vt -6.245408 15.685203
vt -6.245408 15.719243
vt -10.499902 15.685203
vt -12.727444 2.822609
vt 10.499902 16.204612
vt -12.748686 2.841492
vn 0.07440696536404233 0.5128673348512806 0.8552372187573799
vn 0.07186994308495016 0.5735121936513254 0.8160382803607995
vn -0.07440696536404233 -0.5128673348512806 -0.8552372187573799
vn -0.07186994308495016 -0.5735121936513254 -0.8160382803607995
vn -0.996700015116221 0.010343998052054864 0.08051137541754083
vn 0.996700015116221 -0.010343998052054864 -0.08051137541754083
vn 0.07655552257764946 0.4495449606975583 0.88997111204482
vn -0.07655552257764946 -0.4495449606975583 -0.88997111204482
vn 0.06895766927264611 0.631163471173252 0.7725784830714714
vn -0.06895766927264611 -0.631163471173252 -0.7725784830714714
vn 0.07830441251393015 0.3838750716288073 0.9200588830954389
vn -0.07830441251393015 -0.3838750716288073 -0.9200588830954389
vn 0.06568543022407786 0.685518646057915 0.7250859329508476
vn -0.06568543022407786 -0.685518646057915 -0.7250859329508476
vn 0.07964448166468223 0.3162012559909106 0.945343071191689
vn -0.07964448166468223 -0.3162012559909106 -0.945343071191689
vn 0.007676010790272095 0.9994133463868063 -0.03337726654885617
vn 0.06207020733976109 0.7362956550474673 0.673807092363252
vn -0.06207020733976109 -0.7362956550474673 -0.673807092363252
vn -0.0808093975084132 -0.03264911588733838 -0.9961946980917449
vn 0.0808093975084132 0.03264911588733838 0.9961946980917449
vn 0.08056874099176448 0.2468765503815491 0.9656917970277621
vn -0.08056874099176448 -0.2468765503815491 -0.9656917970277621
vn 0.08093489013414387 0.0507001837790594 0.9954290707648353
vn -0.08093489013414387 -0.0507001837790594 -0.9954290707648353
vn 0.06349497082145347 -0.5185777407355291 0.8526696403027476
vn -0.06349497082145347 0.5185777407355291 -0.8526696403027476
vn 0.08107236297370582 0.17626315196009945 0.9809987631097965
vn -0.08107236297370582 -0.17626315196009945 -0.9809987631097965
vn -0.007676010790272095 -0.9994133463868063 0.03337726654885617
vn -0.03540529248880564 -0.9479263322407463 -0.31651561400409356
vn 0.08115272160817384 0.10472949833336612 0.9911841241436565
vn -0.08115272160817384 -0.10472949833336612 -0.9911841241436565
vn -0.026492468305781818 -0.9789884514281909 -0.20218744049346843
vn -0.017205672445476 -0.9962319550330835 -0.08500503871335671
vn -0.06745972867742435 0.4460954171731224 -0.8924393894175144
vn -0.07065397530473665 0.3777610847142408 -0.9232034329708473
vn 0.06745972867742435 -0.4460954171731224 0.8924393894175144
vn 0.07065397530473665 -0.3777610847142408 0.9232034329708473
vn -0.06388593053506997 0.511920075124782 -0.8566542036107135
vn 0.06388593053506997 -0.511920075124782 0.8566542036107135
vn -0.0734506958357805 0.30730171799240963 -0.9487732339184918
vn 0.0734506958357805 -0.30730171799240963 0.9487732339184918
vn -0.07937372690788946 0.08348719735659135 -0.9933426897875139
vn -0.08080940518438358 -0.03265011530066844 -0.9961946647139802
vn 0.08080940518438358 0.03265011530066844 0.9961946647139802
vn 0.07937372690788946 -0.08348719735659135 0.9933426897875139
vn -0.059952724967715754 0.5748641012382547 -0.8160495915546305
vn 0.059952724967715754 -0.5748641012382547 0.8160495915546305
vn 0.001962000105338983 -0.9884877126343333 0.15128844148357926
vn -0.07583417783047075 0.23511319687808344 -0.9690051404025389
vn 0.07583417783047075 -0.23511319687808344 0.9690051404025389
vn -0.05568223069138276 0.634573661532897 -0.7708539143534033
vn 0.05568223069138276 -0.634573661532897 0.7708539143534033
vn 0.011572314188028968 -0.9636092810199797 0.2670641029350278
vn -0.051098407502717914 0.6907136559330413 -0.7213207318927541
vn 0.051098407502717914 -0.6907136559330413 0.7213207318927541
vn 0.021019257362017867 -0.9251293343200695 0.37906978988103796
vn -0.04622714367253225 0.7429670074599846 -0.6677297934148471
vn 0.04622714367253225 -0.7429670074599846 0.6677297934148471
vn 0.029341608516744493 -0.8788721210515451 0.47615424480729773
vn -0.04109575396378255 0.7910407308678088 -0.6103816028635457
vn 0.04109575396378255 -0.7910407308678088 0.6103816028635457
vn -0.07288497164584773 -0.5506629632370134 -0.8315395852436706
vn 0.07288497164584773 0.5506629632370134 0.8315395852436706
vn 0.03540529248880564 0.9479263322407463 0.31651561400409356
vn 0.026492468305781818 0.9789884514281909 0.20218744049346843
vn 0.017205672445476 0.9962319550330835 0.08500503871335671
vn -0.001962000105338983 0.9884877126343333 -0.15128844148357926
vn -0.011572314188028968 0.9636092810199797 -0.2670641029350278
vn -0.021019257362017867 0.9251293343200695 -0.37906978988103796
vn -0.029341608516744493 0.8788721210515451 -0.47615424480729773
usemtl material_0_0
f 1/1/1 2/2/2 3/3/1
f 2/2/2 1/1/1 4/4/2
f 3/3/3 2/2/4 1/1/3
f 4/4/4 1/1/3 2/2/4
f 2/5/5 5/6/5 3/7/5
f 3/7/6 5/6/6 2/5/6
f 3/8/1 6/9/7 1/10/1
f 1/10/3 6/9/8 3/8/3
f 1/11/5 4/12/5 7/13/5
f 4/14/2 8/15/9 2/16/2
f 2/16/4 8/15/10 4/14/4
f 8/17/5 5/6/5 2/5/5
f 2/5/6 5/6/6 8/17/6
f 3/7/5 5/6/5 9/18/5
f 9/18/6 5/6/6 3/7/6
f 6/9/7 3/8/1 9/19/7
f 9/19/8 3/8/3 6/9/8
f 6/20/5 1/11/5 7/13/5
f 4/12/5 10/21/5 7/13/5
f 8/15/9 4/14/2 10/22/9
f 10/22/10 4/14/4 8/15/10
f 11/23/5 5/6/5 8/17/5
f 8/17/6 5/6/6 11/23/6
f 9/18/5 5/6/5 12/24/5
f 12/24/6 5/6/6 9/18/6
f 9/25/7 13/26/11 6/27/7
f 6/27/8 13/26/12 9/25/8
f 13/28/5 6/20/5 7/13/5
f 10/21/5 14/29/5 7/13/5
f 10/30/9 11/31/13 8/32/9
f 8/32/10 11/31/14 10/30/10
f 15/33/5 5/6/5 11/23/5
f 11/23/6 5/6/6 15/33/6
f 12/24/5 5/6/5 16/34/5
f 16/34/6 5/6/6 12/24/6
f 13/26/11 9/25/7 12/35/11
f 12/35/12 9/25/8 13/26/12
f 17/36/5 13/28/5 7/13/5
f 7/13/5 14/29/5 18/37/5
f 11/31/13 10/30/9 14/38/13
f 14/38/14 10/30/10 11/31/14
f 5/6/5 15/33/5 19/39/5
f 19/39/6 15/33/6 5/6/6
f 20/40/5 15/33/5 11/23/5
f 11/23/6 15/33/6 20/40/6
f 16/34/5 5/6/5 21/41/5
f 21/41/6 5/6/6 16/34/6
f 17/42/15 12/43/11 16/44/15
f 16/44/16 12/43/12 17/42/16
f 12/43/11 17/42/15 13/45/11
f 13/45/12 17/42/16 12/43/12
f 22/46/5 17/36/5 7/13/5
f 18/37/5 14/29/5 23/47/5
f 7/48/17 18/49/17 5/50/17
f 14/51/13 20/52/18 11/53/13
f 11/53/14 20/52/19 14/51/14
f 15/54/20 18/55/20 19/56/20
f 19/56/21 18/55/21 15/54/21
f 19/57/17 5/50/17 18/49/17
f 24/58/5 15/33/5 20/40/5
f 20/40/6 15/33/6 24/58/6
f 21/41/5 5/6/5 25/59/5
f 25/59/6 5/6/6 21/41/6
f 22/60/22 16/61/15 21/62/22
f 21/62/23 16/61/16 22/60/23
f 16/61/15 22/60/22 17/63/15
f 17/63/16 22/60/23 16/61/16
f 26/64/5 22/46/5 7/13/5
f 23/47/5 14/29/5 27/65/5
f 18/55/20 15/54/20 23/66/20
f 23/66/21 15/54/21 18/55/21
f 7/67/21 28/68/24 5/69/21
f 5/69/20 28/68/25 7/67/20
f 20/52/18 14/51/13 29/70/18
f 29/70/19 14/51/14 20/52/19
f 30/71/5 15/33/5 24/58/5
f 24/58/6 15/33/6 30/71/6
f 29/72/18 24/73/26 20/74/18
f 20/74/19 24/73/27 29/72/19
f 25/59/5 5/6/5 31/75/5
f 31/75/6 5/6/6 25/59/6
f 26/76/28 21/77/22 25/78/28
f 25/78/29 21/77/23 26/76/29
f 21/77/22 26/76/28 22/79/22
f 22/79/23 26/76/29 21/77/23
f 32/80/5 26/64/5 7/13/5
f 14/29/5 29/81/5 27/65/5
f 33/82/6 27/65/6 23/47/6
f 23/47/5 27/65/5 33/82/5
f 34/83/30 23/49/30 15/57/30
f 15/57/17 23/49/17 34/83/17
f 28/68/24 7/67/21 35/84/24
f 35/84/25 7/67/20 28/68/25
f 31/75/5 5/6/5 28/85/5
f 28/85/6 5/6/6 31/75/6
f 36/86/5 15/33/5 30/71/5
f 30/71/6 15/33/6 36/86/6
f 30/87/31 37/88/26 24/89/26
f 24/73/26 29/72/18 37/90/26
f 37/90/27 29/72/19 24/73/27
f 32/91/32 25/92/28 31/93/32
f 31/93/33 25/92/29 32/91/33
f 25/92/28 32/91/32 26/94/28
f 26/94/29 32/91/33 25/92/29
f 35/95/5 32/80/5 7/13/5
f 29/81/5 37/96/5 27/65/5
f 33/82/6 38/97/6 27/65/6
f 27/65/5 38/97/5 33/82/5
f 23/49/30 34/83/30 33/98/30
f 33/98/17 34/83/17 23/49/17
f 39/99/5 34/100/5 15/33/5
f 15/33/6 34/100/6 39/99/6
f 35/101/24 31/102/32 28/103/24
f 28/103/25 31/102/33 35/101/25
f 40/104/5 15/33/5 36/86/5
f 36/86/6 15/33/6 40/104/6
f 36/105/34 41/106/31 30/107/31
f 37/88/26 30/87/31 41/108/31
f 31/102/32 35/101/24 32/109/32
f 32/109/33 35/101/25 31/102/33
f 37/96/5 41/110/5 27/65/5
f 38/97/6 33/82/6 42/111/6
f 42/111/5 33/82/5 38/97/5
f 34/83/30 43/112/30 33/98/30
f 33/98/17 43/112/17 34/83/17
f 44/113/5 34/100/5 39/99/5
f 39/99/6 34/100/6 44/113/6
f 39/99/5 15/33/5 45/114/5
f 45/114/6 15/33/6 39/99/6
f 46/115/5 15/33/5 40/104/5
f 40/104/6 15/33/6 46/115/6
f 40/116/35 47/117/34 36/118/34
f 41/106/31 36/105/34 47/119/34
f 41/110/5 47/120/5 27/65/5
f 42/111/5 48/121/5 33/82/5
f 43/112/30 34/83/30 49/122/30
f 49/122/17 34/83/17 43/112/17
f 33/82/5 50/123/5 43/124/5
f 51/125/5 34/100/5 44/113/5
f 44/113/6 34/100/6 51/125/6
f 52/126/36 44/127/37 39/128/36
f 39/128/38 44/127/39 52/126/38
f 45/114/5 15/33/5 53/129/5
f 53/129/6 15/33/6 45/114/6
f 54/130/40 39/131/36 45/132/40
f 45/132/41 39/131/38 54/130/41
f 55/133/5 15/33/5 46/115/5
f 46/115/6 15/33/6 55/133/6
f 46/134/30 56/135/35 40/136/35
f 47/117/34 40/116/35 56/137/35
f 47/120/5 56/138/5 27/65/5
f 48/121/5 50/123/5 33/82/5
f 51/139/42 42/140/37 48/141/42
f 48/141/43 42/140/39 51/139/43
f 34/100/5 57/142/5 49/143/5
f 49/143/6 57/142/6 34/100/6
f 57/144/44 43/145/45 49/146/45
f 49/146/46 43/145/46 57/144/47
f 58/147/5 43/124/5 50/123/5
f 59/148/5 34/100/5 51/125/5
f 51/125/6 34/100/6 59/148/6
f 42/140/37 51/139/42 44/149/37
f 44/149/39 51/139/43 42/140/39
f 44/127/37 52/126/36 42/150/37
f 42/150/39 52/126/38 44/127/39
f 39/131/36 54/130/40 52/151/36
f 52/151/38 54/130/41 39/131/38
f 53/129/5 15/33/5 60/152/5
f 60/152/6 15/33/6 53/129/6
f 61/153/48 45/154/40 53/155/48
f 53/155/49 45/154/41 61/153/49
f 45/154/40 61/153/48 54/156/40
f 54/156/41 61/153/49 45/154/41
f 62/157/5 15/33/5 55/133/5
f 55/133/6 15/33/6 62/157/6
f 55/158/50 63/159/30 46/160/30
f 56/135/35 46/134/30 63/161/30
f 56/138/5 63/162/5 27/65/5
f 59/163/51 48/164/42 50/165/51
f 50/165/52 48/164/43 59/163/52
f 48/164/42 59/163/51 51/166/42
f 51/166/43 59/163/52 48/164/43
f 57/142/5 34/100/5 59/148/5
f 59/148/6 34/100/6 57/142/6
f 43/145/45 57/144/44 58/167/44
f 58/167/47 57/144/47 43/145/46
f 57/168/44 50/169/51 58/170/44
f 58/170/47 50/169/52 57/168/47
f 60/152/5 15/33/5 64/171/5
f 64/171/6 15/33/6 60/152/6
f 65/172/53 53/173/48 60/174/53
f 60/174/54 53/173/49 65/172/54
f 53/173/48 65/172/53 61/175/48
f 61/175/49 65/172/54 53/173/49
f 54/176/5 27/65/5 61/177/5
f 66/178/5 15/33/5 62/157/5
f 62/157/6 15/33/6 66/178/6
f 62/179/55 67/180/50 55/181/50
f 63/159/30 55/158/50 67/182/50
f 63/162/5 67/183/5 27/65/5
f 50/169/51 57/168/44 59/184/51
f 59/184/52 57/168/47 50/169/52
f 64/171/5 15/33/5 68/185/5
f 68/185/6 15/33/6 64/171/6
f 69/186/56 60/187/53 64/188/56
f 64/188/57 60/187/54 69/186/57
f 60/187/53 69/186/56 65/189/53
f 65/189/54 69/186/57 60/187/54
f 65/190/5 61/177/5 27/65/5
f 70/191/5 15/33/5 66/178/5
f 66/178/6 15/33/6 70/191/6
f 66/192/58 71/193/55 62/194/55
f 67/180/50 62/179/55 71/195/55
f 67/183/5 71/196/5 27/65/5
f 68/185/5 15/33/5 72/197/5
f 72/197/6 15/33/6 68/185/6
f 73/198/59 64/199/56 68/200/59
f 68/200/60 64/199/57 73/198/60
f 64/199/56 73/198/59 69/201/56
f 69/201/57 73/198/60 64/199/57
f 69/202/5 65/190/5 27/65/5
f 74/203/5 15/33/5 70/191/5
f 70/191/6 15/33/6 74/203/6
f 70/204/61 75/205/58 66/206/58
f 71/193/55 66/192/58 75/207/58
f 71/196/5 75/208/5 27/65/5
f 72/197/5 15/33/5 74/203/5
f 74/203/6 15/33/6 72/197/6
f 76/209/62 68/210/59 72/211/62
f 72/211/63 68/210/60 76/209/63
f 68/210/59 76/209/62 73/212/59
f 73/212/60 76/209/63 68/210/60
f 73/213/5 69/202/5 27/65/5
f 74/214/64 77/215/61 70/216/61
f 75/205/58 70/204/61 77/217/61
f 75/208/5 77/218/5 27/65/5
f 78/219/64 72/220/62 74/221/64
f 74/221/65 72/220/63 78/219/65
f 72/220/62 78/219/64 76/222/62
f 76/222/63 78/219/65 72/220/63
f 76/223/5 73/213/5 27/65/5
f 77/215/61 74/214/64 78/224/64
f 77/218/5 78/225/5 27/65/5
f 78/225/5 76/223/5 27/65/5
usemtl material_1_0
f 7//6 4//6 1//6
f 7//6 1//6 6//6
f 7//6 10//6 4//6
f 7//6 6//6 13//6
f 7//6 14//6 10//6
f 7//6 13//6 17//6
f 18//6 14//6 7//6
f 7//6 17//6 22//6
f 23//6 14//6 18//6
f 5//30 18//30 7//30
f 18//30 5//30 19//30
f 7//6 22//6 26//6
f 27//6 14//6 23//6
f 7//6 26//6 32//6
f 27//6 29//6 14//6
f 24//27 37//27 30//66
f 7//6 32//6 35//6
f 27//6 37//6 29//6
f 30//66 41//66 36//67
f 41//66 30//66 37//27
f 27//6 41//6 37//6
f 36//67 47//67 40//68
f 47//67 36//67 41//66
f 27//6 47//6 41//6
f 33//6 48//6 42//6
f 43//6 50//6 33//6
f 40//68 56//68 46//17
f 56//68 40//68 47//67
f 27//6 56//6 47//6
f 33//6 50//6 48//6
f 50//6 43//6 58//6
f 46//17 63//17 55//69
f 63//17 46//17 56//68
f 27//6 63//6 56//6
f 61//6 27//6 54//6
f 55//69 67//69 62//70
f 67//69 55//69 63//17
f 27//6 67//6 63//6
f 27//6 61//6 65//6
f 62//70 71//70 66//71
f 71//70 62//70 67//69
f 27//6 71//6 67//6
f 27//6 65//6 69//6
f 66//71 75//71 70//72
f 75//71 66//71 71//70
f 27//6 75//6 71//6
f 27//6 69//6 73//6
f 70//72 77//72 74//65
f 77//72 70//72 75//71
f 27//6 77//6 75//6
f 27//6 73//6 76//6
f 78//65 74//65 77//72
f 27//6 78//6 77//6
f 27//6 76//6 78//6
