# SSTK version 0.8.0
# 54
mtllib original-54.mtl
o mesh2/mesh2-geometry/material_4/component_13#mesh2-geometry
v -0.042270 -0.358644 0.069635
v -0.042270 -0.358644 0.076281
v -0.092550 -0.358644 0.069635
v -0.092550 -0.358644 0.076281
v -0.092550 -0.358644 0.069635
v -0.042270 -0.358644 0.076281
v -0.042270 -0.358644 0.069635
v -0.042270 -0.397306 0.069635
v -0.042270 -0.358644 0.076281
v -0.092550 -0.397306 0.069635
v -0.092550 -0.397306 0.076281
v -0.042270 -0.397306 0.069635
v -0.092550 -0.358644 0.076281
v -0.092550 -0.397306 0.076281
v -0.092550 -0.358644 0.069635
v -0.092550 -0.358644 0.076281
v -0.042270 -0.358644 0.076281
v -0.092550 -0.397306 0.076281
v -0.042270 -0.397306 0.076281
v -0.042270 -0.358644 0.076281
v -0.042270 -0.397306 0.069635
v -0.092550 -0.397306 0.069635
v -0.092550 -0.358644 0.069635
v -0.092550 -0.397306 0.076281
v -0.042270 -0.397306 0.076281
v -0.042270 -0.397306 0.069635
v -0.092550 -0.397306 0.076281
v -0.042270 -0.397306 0.076281
v -0.092550 -0.397306 0.076281
v -0.042270 -0.358644 0.076281
v -0.092550 -0.358644 0.069635
v -0.042270 -0.358644 0.076281
v -0.042270 -0.358644 0.069635
v -0.042270 -0.358644 0.076281
v -0.092550 -0.358644 0.069635
v -0.092550 -0.358644 0.076281
v -0.042270 -0.358644 0.076281
v -0.042270 -0.397306 0.069635
v -0.042270 -0.358644 0.069635
v -0.042270 -0.397306 0.069635
v -0.092550 -0.397306 0.076281
v -0.092550 -0.397306 0.069635
v -0.092550 -0.358644 0.069635
v -0.092550 -0.397306 0.076281
v -0.092550 -0.358644 0.076281
v -0.092550 -0.397306 0.076281
v -0.042270 -0.358644 0.076281
v -0.092550 -0.358644 0.076281
v -0.042270 -0.397306 0.069635
v -0.042270 -0.358644 0.076281
v -0.042270 -0.397306 0.076281
v -0.092550 -0.397306 0.076281
v -0.092550 -0.358644 0.069635
v -0.092550 -0.397306 0.069635
v -0.092550 -0.397306 0.076281
v -0.042270 -0.397306 0.069635
v -0.042270 -0.397306 0.076281
v -0.042270 -0.358644 0.076281
v -0.092550 -0.397306 0.076281
v -0.042270 -0.397306 0.076281
vn 0 -1 0
vn -1 0 0
vn 0 1 0
vn 1 0 0
vn 0 0 -1
vn 0 0 1
usemtl material_0_0
f 1//1 2//1 3//1
f 4//1 5//1 6//1
f 7//2 8//2 9//2
f 10//3 11//3 12//3
f 13//4 14//4 15//4
f 16//5 17//5 18//5
f 19//2 20//2 21//2
f 22//4 23//4 24//4
f 25//3 26//3 27//3
f 28//5 29//5 30//5
usemtl material_1_0
f 31//3 32//3 33//3
f 34//3 35//3 36//3
f 37//4 38//4 39//4
f 40//1 41//1 42//1
f 43//2 44//2 45//2
f 46//6 47//6 48//6
f 49//4 50//4 51//4
f 52//2 53//2 54//2
f 55//1 56//1 57//1
f 58//6 59//6 60//6
