# SSTK version 0.8.0
# 65
mtllib original-65.mtl
o mesh2/mesh2-geometry/material_4/component_24#mesh2-geometry
v -0.061090 0.773879 0.069635
v -0.061090 0.817115 0.069635
v -0.061090 0.773879 0.076281
v -0.020869 0.817115 0.069635
v -0.020869 0.773879 0.069635
v -0.020869 0.817115 0.076281
v -0.061090 0.817115 0.076281
v -0.061090 0.773879 0.076281
v -0.061090 0.817115 0.069635
v -0.061090 0.773879 0.069635
v -0.061090 0.773879 0.076281
v -0.020869 0.773879 0.069635
v -0.061090 0.817115 0.076281
v -0.020869 0.817115 0.076281
v -0.061090 0.773879 0.076281
v -0.020869 0.773879 0.076281
v -0.020869 0.817115 0.076281
v -0.020869 0.773879 0.069635
v -0.020869 0.773879 0.076281
v -0.020869 0.773879 0.069635
v -0.061090 0.773879 0.076281
v -0.020869 0.773879 0.076281
v -0.061090 0.773879 0.076281
v -0.020869 0.817115 0.076281
v -0.061090 0.773879 0.076281
v -0.061090 0.817115 0.069635
v -0.061090 0.773879 0.069635
v -0.020869 0.817115 0.076281
v -0.020869 0.773879 0.069635
v -0.020869 0.817115 0.069635
v -0.061090 0.817115 0.069635
v -0.061090 0.773879 0.076281
v -0.061090 0.817115 0.076281
v -0.020869 0.773879 0.069635
v -0.061090 0.773879 0.076281
v -0.061090 0.773879 0.069635
v -0.061090 0.773879 0.076281
v -0.020869 0.817115 0.076281
v -0.061090 0.817115 0.076281
v -0.020869 0.773879 0.069635
v -0.020869 0.817115 0.076281
v -0.020869 0.773879 0.076281
v -0.061090 0.773879 0.076281
v -0.020869 0.773879 0.069635
v -0.020869 0.773879 0.076281
v -0.020869 0.817115 0.076281
v -0.061090 0.773879 0.076281
v -0.020869 0.773879 0.076281
vn 1 0 0
vn -1 0 0
vn 0 1 0
vn 0 0 -1
vn 0 -1 0
vn 0 0 1
usemtl material_0_0
f 1//1 2//1 3//1
f 4//2 5//2 6//2
f 7//1 8//1 9//1
f 10//3 11//3 12//3
f 13//4 14//4 15//4
f 16//2 17//2 18//2
f 19//3 20//3 21//3
f 22//4 23//4 24//4
usemtl material_1_0
f 25//2 26//2 27//2
f 28//1 29//1 30//1
f 31//2 32//2 33//2
f 34//5 35//5 36//5
f 37//6 38//6 39//6
f 40//1 41//1 42//1
f 43//5 44//5 45//5
f 46//6 47//6 48//6
