# SSTK version 0.8.0
# 32
mtllib original-32.mtl
o mesh2/mesh2-geometry/material_2/component_18#mesh2-geometry
v -0.011027 0.817115 0.069635
v 0.028345 0.817115 0.076281
v 0.028345 0.817115 0.069635
v 0.028345 0.817115 0.069635
v 0.028345 0.817115 0.076281
v -0.011027 0.817115 0.069635
v 0.028345 0.817115 0.076281
v -0.011027 0.817115 0.069635
v -0.011027 0.817115 0.076281
v -0.011027 0.817115 0.076281
v -0.011027 0.817115 0.069635
v 0.028345 0.817115 0.076281
vn 0 1 0
vn 0 -1 0
usemtl material_0_0
f 1//1 2//1 3//1
f 4//2 5//2 6//2
f 7//1 8//1 9//1
f 10//2 11//2 12//2
