# SSTK version 0.8.0
# 86
mtllib original-86.mtl
o mesh2/mesh2-geometry/material_7/component_1#mesh2-geometry
v -0.017130 0.474872 0.069635
v -0.017130 0.474872 0.076281
v -0.067410 0.474872 0.069635
v -0.067410 0.355291 0.069635
v -0.067410 0.355291 0.076281
v -0.017130 0.355291 0.069635
v -0.067410 0.474872 0.076281
v -0.067410 0.474872 0.069635
v -0.017130 0.474872 0.076281
v -0.017130 0.474872 0.076281
v -0.017130 0.474872 0.069635
v -0.017130 0.464919 0.075664
v -0.067410 0.355291 0.069635
v -0.067410 0.415081 0.069635
v -0.067410 0.355291 0.076281
v -0.017130 0.355291 0.076281
v -0.017130 0.355291 0.069635
v -0.067410 0.355291 0.076281
v -0.067410 0.474872 0.076281
v -0.067410 0.464919 0.075664
v -0.067410 0.474872 0.069635
v -0.067410 0.474872 0.076281
v -0.017130 0.474872 0.076281
v -0.067410 0.464919 0.075664
v -0.017130 0.355291 0.069635
v -0.017130 0.464919 0.075664
v -0.017130 0.474872 0.069635
v -0.017130 0.464919 0.075664
v -0.067410 0.464919 0.075664
v -0.017130 0.474872 0.076281
v -0.067410 0.415081 0.069635
v -0.067410 0.474872 0.069635
v -0.067410 0.415081 0.074259
v -0.067410 0.365244 0.075664
v -0.067410 0.355291 0.076281
v -0.067410 0.415081 0.069635
v -0.017130 0.355291 0.076281
v -0.017130 0.365244 0.075664
v -0.017130 0.355291 0.069635
v -0.017130 0.355291 0.076281
v -0.067410 0.355291 0.076281
v -0.017130 0.365244 0.075664
v -0.067410 0.464919 0.075664
v -0.067410 0.454959 0.075158
v -0.067410 0.474872 0.069635
v -0.017130 0.454959 0.075158
v -0.017130 0.464919 0.075664
v -0.017130 0.355291 0.069635
v -0.067410 0.464919 0.075664
v -0.017130 0.464919 0.075664
v -0.067410 0.454959 0.075158
v -0.067410 0.425054 0.074315
v -0.067410 0.415081 0.074259
v -0.067410 0.474872 0.069635
v -0.067410 0.415081 0.074259
v -0.067410 0.405109 0.074315
v -0.067410 0.415081 0.069635
v -0.067410 0.365244 0.075664
v -0.017130 0.365244 0.075664
v -0.067410 0.355291 0.076281
v -0.067410 0.375204 0.075158
v -0.067410 0.365244 0.075664
v -0.067410 0.415081 0.069635
v -0.017130 0.375204 0.075158
v -0.017130 0.355291 0.069635
v -0.017130 0.365244 0.075664
v -0.067410 0.454959 0.075158
v -0.067410 0.444994 0.074764
v -0.067410 0.474872 0.069635
v -0.017130 0.454959 0.075158
v -0.067410 0.454959 0.075158
v -0.017130 0.464919 0.075664
v -0.017130 0.444994 0.074764
v -0.017130 0.454959 0.075158
v -0.017130 0.355291 0.069635
v -0.067410 0.425054 0.074315
v -0.017130 0.425054 0.074315
v -0.067410 0.415081 0.074259
v -0.067410 0.435025 0.074483
v -0.067410 0.425054 0.074315
v -0.067410 0.474872 0.069635
v -0.067410 0.405109 0.074315
v -0.067410 0.395138 0.074483
v -0.067410 0.415081 0.069635
v -0.067410 0.415081 0.074259
v -0.017130 0.415081 0.074259
v -0.067410 0.405109 0.074315
v -0.017130 0.365244 0.075664
v -0.067410 0.365244 0.075664
v -0.017130 0.375204 0.075158
v -0.067410 0.375204 0.075158
v -0.017130 0.375204 0.075158
v -0.067410 0.365244 0.075664
v -0.067410 0.385169 0.074764
v -0.067410 0.375204 0.075158
v -0.067410 0.415081 0.069635
v -0.017130 0.385169 0.074764
v -0.017130 0.355291 0.069635
v -0.017130 0.375204 0.075158
v -0.067410 0.444994 0.074764
v -0.067410 0.435025 0.074483
v -0.067410 0.474872 0.069635
v -0.067410 0.454959 0.075158
v -0.017130 0.454959 0.075158
v -0.067410 0.444994 0.074764
v -0.017130 0.444994 0.074764
v -0.067410 0.444994 0.074764
v -0.017130 0.454959 0.075158
v -0.017130 0.435025 0.074483
v -0.017130 0.444994 0.074764
v -0.017130 0.355291 0.069635
v -0.017130 0.415081 0.074259
v -0.067410 0.415081 0.074259
v -0.017130 0.425054 0.074315
v -0.017130 0.425054 0.074315
v -0.067410 0.425054 0.074315
v -0.017130 0.435025 0.074483
v -0.067410 0.435025 0.074483
v -0.017130 0.435025 0.074483
v -0.067410 0.425054 0.074315
v -0.067410 0.395138 0.074483
v -0.067410 0.385169 0.074764
v -0.067410 0.415081 0.069635
v -0.067410 0.405109 0.074315
v -0.017130 0.405109 0.074315
v -0.067410 0.395138 0.074483
v -0.017130 0.405109 0.074315
v -0.067410 0.405109 0.074315
v -0.017130 0.415081 0.074259
v -0.017130 0.375204 0.075158
v -0.067410 0.375204 0.075158
v -0.017130 0.385169 0.074764
v -0.067410 0.385169 0.074764
v -0.017130 0.385169 0.074764
v -0.067410 0.375204 0.075158
v -0.017130 0.395138 0.074483
v -0.017130 0.355291 0.069635
v -0.017130 0.385169 0.074764
v -0.067410 0.444994 0.074764
v -0.017130 0.444994 0.074764
v -0.067410 0.435025 0.074483
v -0.017130 0.435025 0.074483
v -0.067410 0.435025 0.074483
v -0.017130 0.444994 0.074764
v -0.017130 0.425054 0.074315
v -0.017130 0.435025 0.074483
v -0.017130 0.355291 0.069635
v -0.017130 0.415081 0.074259
v -0.017130 0.425054 0.074315
v -0.017130 0.355291 0.069635
v -0.067410 0.395138 0.074483
v -0.017130 0.395138 0.074483
v -0.067410 0.385169 0.074764
v -0.017130 0.395138 0.074483
v -0.067410 0.395138 0.074483
v -0.017130 0.405109 0.074315
v -0.017130 0.415081 0.074259
v -0.017130 0.355291 0.069635
v -0.017130 0.405109 0.074315
v -0.017130 0.385169 0.074764
v -0.067410 0.385169 0.074764
v -0.017130 0.395138 0.074483
v -0.017130 0.405109 0.074315
v -0.017130 0.355291 0.069635
v -0.017130 0.395138 0.074483
v -0.067410 0.474872 0.069635
v -0.017130 0.474872 0.076281
v -0.017130 0.474872 0.069635
v -0.017130 0.355291 0.069635
v -0.067410 0.355291 0.076281
v -0.067410 0.355291 0.069635
v -0.017130 0.474872 0.076281
v -0.067410 0.474872 0.069635
v -0.067410 0.474872 0.076281
v -0.017130 0.464919 0.075664
v -0.017130 0.474872 0.069635
v -0.017130 0.474872 0.076281
v -0.067410 0.355291 0.076281
v -0.067410 0.415081 0.069635
v -0.067410 0.355291 0.069635
v -0.067410 0.355291 0.076281
v -0.017130 0.355291 0.069635
v -0.017130 0.355291 0.076281
v -0.067410 0.474872 0.069635
v -0.067410 0.464919 0.075664
v -0.067410 0.474872 0.076281
v -0.067410 0.464919 0.075664
v -0.017130 0.474872 0.076281
v -0.067410 0.474872 0.076281
v -0.017130 0.474872 0.069635
v -0.017130 0.464919 0.075664
v -0.017130 0.355291 0.069635
v -0.017130 0.474872 0.076281
v -0.067410 0.464919 0.075664
v -0.017130 0.464919 0.075664
v -0.067410 0.415081 0.074259
v -0.067410 0.474872 0.069635
v -0.067410 0.415081 0.069635
v -0.067410 0.415081 0.069635
v -0.067410 0.355291 0.076281
v -0.067410 0.365244 0.075664
v -0.017130 0.355291 0.069635
v -0.017130 0.365244 0.075664
v -0.017130 0.355291 0.076281
v -0.017130 0.365244 0.075664
v -0.067410 0.355291 0.076281
v -0.017130 0.355291 0.076281
v -0.067410 0.474872 0.069635
v -0.067410 0.454959 0.075158
v -0.067410 0.464919 0.075664
v -0.017130 0.355291 0.069635
v -0.017130 0.464919 0.075664
v -0.017130 0.454959 0.075158
v -0.067410 0.454959 0.075158
v -0.017130 0.464919 0.075664
v -0.067410 0.464919 0.075664
v -0.067410 0.474872 0.069635
v -0.067410 0.415081 0.074259
v -0.067410 0.425054 0.074315
v -0.067410 0.415081 0.069635
v -0.067410 0.405109 0.074315
v -0.067410 0.415081 0.074259
v -0.067410 0.355291 0.076281
v -0.017130 0.365244 0.075664
v -0.067410 0.365244 0.075664
v -0.067410 0.415081 0.069635
v -0.067410 0.365244 0.075664
v -0.067410 0.375204 0.075158
v -0.017130 0.365244 0.075664
v -0.017130 0.355291 0.069635
v -0.017130 0.375204 0.075158
v -0.067410 0.474872 0.069635
v -0.067410 0.444994 0.074764
v -0.067410 0.454959 0.075158
v -0.017130 0.464919 0.075664
v -0.067410 0.454959 0.075158
v -0.017130 0.454959 0.075158
v -0.017130 0.355291 0.069635
v -0.017130 0.454959 0.075158
v -0.017130 0.444994 0.074764
v -0.067410 0.415081 0.074259
v -0.017130 0.425054 0.074315
v -0.067410 0.425054 0.074315
v -0.067410 0.474872 0.069635
v -0.067410 0.425054 0.074315
v -0.067410 0.435025 0.074483
v -0.067410 0.415081 0.069635
v -0.067410 0.395138 0.074483
v -0.067410 0.405109 0.074315
v -0.067410 0.405109 0.074315
v -0.017130 0.415081 0.074259
v -0.067410 0.415081 0.074259
v -0.017130 0.375204 0.075158
v -0.067410 0.365244 0.075664
v -0.017130 0.365244 0.075664
v -0.067410 0.365244 0.075664
v -0.017130 0.375204 0.075158
v -0.067410 0.375204 0.075158
v -0.067410 0.415081 0.069635
v -0.067410 0.375204 0.075158
v -0.067410 0.385169 0.074764
v -0.017130 0.375204 0.075158
v -0.017130 0.355291 0.069635
v -0.017130 0.385169 0.074764
v -0.067410 0.474872 0.069635
v -0.067410 0.435025 0.074483
v -0.067410 0.444994 0.074764
v -0.067410 0.444994 0.074764
v -0.017130 0.454959 0.075158
v -0.067410 0.454959 0.075158
v -0.017130 0.454959 0.075158
v -0.067410 0.444994 0.074764
v -0.017130 0.444994 0.074764
v -0.017130 0.355291 0.069635
v -0.017130 0.444994 0.074764
v -0.017130 0.435025 0.074483
v -0.017130 0.425054 0.074315
v -0.067410 0.415081 0.074259
v -0.017130 0.415081 0.074259
v -0.017130 0.435025 0.074483
v -0.067410 0.425054 0.074315
v -0.017130 0.425054 0.074315
v -0.067410 0.425054 0.074315
v -0.017130 0.435025 0.074483
v -0.067410 0.435025 0.074483
v -0.067410 0.415081 0.069635
v -0.067410 0.385169 0.074764
v -0.067410 0.395138 0.074483
v -0.067410 0.395138 0.074483
v -0.017130 0.405109 0.074315
v -0.067410 0.405109 0.074315
v -0.017130 0.415081 0.074259
v -0.067410 0.405109 0.074315
v -0.017130 0.405109 0.074315
v -0.017130 0.385169 0.074764
v -0.067410 0.375204 0.075158
v -0.017130 0.375204 0.075158
v -0.067410 0.375204 0.075158
v -0.017130 0.385169 0.074764
v -0.067410 0.385169 0.074764
v -0.017130 0.385169 0.074764
v -0.017130 0.355291 0.069635
v -0.017130 0.395138 0.074483
v -0.067410 0.435025 0.074483
v -0.017130 0.444994 0.074764
v -0.067410 0.444994 0.074764
v -0.017130 0.444994 0.074764
v -0.067410 0.435025 0.074483
v -0.017130 0.435025 0.074483
v -0.017130 0.355291 0.069635
v -0.017130 0.435025 0.074483
v -0.017130 0.425054 0.074315
v -0.017130 0.355291 0.069635
v -0.017130 0.425054 0.074315
v -0.017130 0.415081 0.074259
v -0.067410 0.385169 0.074764
v -0.017130 0.395138 0.074483
v -0.067410 0.395138 0.074483
v -0.017130 0.405109 0.074315
v -0.067410 0.395138 0.074483
v -0.017130 0.395138 0.074483
v -0.017130 0.405109 0.074315
v -0.017130 0.355291 0.069635
v -0.017130 0.415081 0.074259
v -0.017130 0.395138 0.074483
v -0.067410 0.385169 0.074764
v -0.017130 0.385169 0.074764
v -0.017130 0.395138 0.074483
v -0.017130 0.355291 0.069635
v -0.017130 0.405109 0.074315
vn 0 -1 0
vn 0 1 0
vn -1 0 0
vn 1 0 0
vn 0 0.061958979496853445 -0.9980786967267203
vn 0 0.056333002973580945 -0.9984120355724776
vn 0 -0.061958979496853445 -0.9980786967267203
vn 0 -0.056333002973580945 -0.9984120355724776
vn 0 0.045074982512400504 -0.998983606447827
vn 0 0.011272005608442586 -0.999936468926683
vn 0 0.005636000591091608 -0.9999841176225436
vn 0 -0.005636000591091608 -0.9999841176225436
vn 0 -0.011272005608442586 -0.999936468926683
vn 0 -0.045074982512400504 -0.998983606447827
vn 0 0.03381100838472503 -0.9994282444037731
vn 0 0.022542996669439645 -0.9997458743606605
vn 0 -0.022542996669439645 -0.9997458743606605
vn 0 -0.03381100838472503 -0.9994282444037731
vn 0 -0.056333002973580945 0.9984120355724776
vn 0 -0.061958979496853445 0.9980786967267203
vn 0 0.056333002973580945 0.9984120355724776
vn 0 0.061958979496853445 0.9980786967267203
vn 0 -0.045074982512400504 0.998983606447827
vn 0 -0.005636000591091608 0.9999841176225436
vn 0 -0.011272005608442586 0.999936468926683
vn 0 0.011272005608442586 0.999936468926683
vn 0 0.005636000591091608 0.9999841176225436
vn 0 0.045074982512400504 0.998983606447827
vn 0 -0.03381100838472503 0.9994282444037731
vn 0 -0.022542996669439645 0.9997458743606605
vn 0 0.022542996669439645 0.9997458743606605
vn 0 0.03381100838472503 0.9994282444037731
usemtl material_0_0
f 1//1 2//1 3//1
f 4//2 5//2 6//2
f 7//1 8//1 9//1
f 10//3 11//3 12//3
f 13//4 14//4 15//4
f 16//2 17//2 18//2
f 19//4 20//4 21//4
f 22//5 23//5 24//6
f 25//3 26//3 27//3
f 28//6 29//6 30//5
f 31//4 32//4 33//4
f 34//4 35//4 36//4
f 37//3 38//3 39//3
f 40//7 41//7 42//8
f 43//4 44//4 45//4
f 46//3 47//3 48//3
f 49//6 50//6 51//9
f 52//4 53//4 54//4
f 55//4 56//4 57//4
f 58//8 59//8 60//7
f 61//4 62//4 63//4
f 64//3 65//3 66//3
f 67//4 68//4 69//4
f 70//9 71//9 72//6
f 73//3 74//3 75//3
f 76//10 77//10 78//11
f 79//4 80//4 81//4
f 82//4 83//4 84//4
f 85//12 86//12 87//13
f 88//8 89//8 90//14
f 91//14 92//14 93//8
f 94//4 95//4 96//4
f 97//3 98//3 99//3
f 100//4 101//4 102//4
f 103//9 104//9 105//15
f 106//15 107//15 108//9
f 109//3 110//3 111//3
f 112//11 113//11 114//10
f 115//10 116//10 117//16
f 118//16 119//16 120//10
f 121//4 122//4 123//4
f 124//13 125//13 126//17
f 127//13 128//13 129//12
f 130//14 131//14 132//18
f 133//18 134//18 135//14
f 136//3 137//3 138//3
f 139//15 140//15 141//16
f 142//16 143//16 144//15
f 145//3 146//3 147//3
f 148//3 149//3 150//3
f 151//17 152//17 153//18
f 154//17 155//17 156//13
f 157//3 158//3 159//3
f 160//18 161//18 162//17
f 163//3 164//3 165//3
usemtl material_1_0
f 166//2 167//2 168//2
f 169//1 170//1 171//1
f 172//2 173//2 174//2
f 175//4 176//4 177//4
f 178//3 179//3 180//3
f 181//1 182//1 183//1
f 184//3 185//3 186//3
f 187//19 188//20 189//20
f 190//4 191//4 192//4
f 193//20 194//19 195//19
f 196//3 197//3 198//3
f 199//3 200//3 201//3
f 202//4 203//4 204//4
f 205//21 206//22 207//22
f 208//3 209//3 210//3
f 211//4 212//4 213//4
f 214//23 215//19 216//19
f 217//3 218//3 219//3
f 220//3 221//3 222//3
f 223//22 224//21 225//21
f 226//3 227//3 228//3
f 229//4 230//4 231//4
f 232//3 233//3 234//3
f 235//19 236//23 237//23
f 238//4 239//4 240//4
f 241//24 242//25 243//25
f 244//3 245//3 246//3
f 247//3 248//3 249//3
f 250//26 251//27 252//27
f 253//28 254//21 255//21
f 256//21 257//28 258//28
f 259//3 260//3 261//3
f 262//4 263//4 264//4
f 265//3 266//3 267//3
f 268//29 269//23 270//23
f 271//23 272//29 273//29
f 274//4 275//4 276//4
f 277//25 278//24 279//24
f 280//30 281//25 282//25
f 283//25 284//30 285//30
f 286//3 287//3 288//3
f 289//31 290//26 291//26
f 292//27 293//26 294//26
f 295//32 296//28 297//28
f 298//28 299//32 300//32
f 301//4 302//4 303//4
f 304//30 305//29 306//29
f 307//29 308//30 309//30
f 310//4 311//4 312//4
f 313//4 314//4 315//4
f 316//32 317//31 318//31
f 319//26 320//31 321//31
f 322//4 323//4 324//4
f 325//31 326//32 327//32
f 328//4 329//4 330//4
