# SSTK version 0.8.0
# 81
mtllib original-81.mtl
o mesh2/mesh2-geometry/material_5/component_0#mesh2-geometry
v -0.079970 0.907722 0.069635
v -0.079349 0.912434 0.069635
v -0.079970 0.907722 0.076281
v -0.079349 0.903010 0.069635
v -0.079970 0.907722 0.069635
v -0.079349 0.903010 0.076281
v -0.061765 0.925927 0.069635
v -0.061765 0.925927 0.076281
v -0.066477 0.925306 0.069635
v -0.057053 0.925306 0.069635
v -0.057053 0.925306 0.076281
v -0.061765 0.925927 0.069635
v -0.079349 0.912434 0.069635
v -0.077531 0.916824 0.069635
v -0.079349 0.912434 0.076281
v -0.079349 0.912434 0.076281
v -0.079970 0.907722 0.076281
v -0.079349 0.912434 0.069635
v -0.079970 0.907722 0.076281
v -0.079349 0.903010 0.076281
v -0.079970 0.907722 0.069635
v -0.077531 0.898620 0.069635
v -0.079349 0.903010 0.069635
v -0.077531 0.898620 0.076281
v -0.079349 0.903010 0.076281
v -0.077531 0.898620 0.076281
v -0.079349 0.903010 0.069635
v -0.066477 0.925306 0.076281
v -0.066477 0.925306 0.069635
v -0.061765 0.925927 0.076281
v -0.061765 0.925927 0.076281
v -0.061765 0.925927 0.069635
v -0.057053 0.925306 0.076281
v -0.057053 0.925306 0.076281
v -0.057053 0.925306 0.069635
v -0.052663 0.923488 0.076281
v -0.052663 0.923488 0.069635
v -0.052663 0.923488 0.076281
v -0.057053 0.925306 0.069635
v -0.077531 0.916824 0.069635
v -0.074638 0.920595 0.069635
v -0.077531 0.916824 0.076281
v -0.077531 0.916824 0.076281
v -0.079349 0.912434 0.076281
v -0.077531 0.916824 0.069635
v -0.079970 0.907722 0.076281
v -0.079349 0.912434 0.076281
v -0.043560 0.907722 0.076281
v -0.079349 0.903010 0.076281
v -0.079970 0.907722 0.076281
v -0.043560 0.907722 0.076281
v -0.074638 0.894849 0.069635
v -0.077531 0.898620 0.069635
v -0.074638 0.894849 0.076281
v -0.077531 0.898620 0.076281
v -0.074638 0.894849 0.076281
v -0.077531 0.898620 0.069635
v -0.077531 0.898620 0.076281
v -0.079349 0.903010 0.076281
v -0.044181 0.903010 0.076281
v -0.066477 0.925306 0.069635
v -0.066477 0.925306 0.076281
v -0.070867 0.923488 0.069635
v -0.061765 0.925927 0.076281
v -0.057053 0.925306 0.076281
v -0.066477 0.925306 0.076281
v -0.052663 0.923488 0.076281
v -0.070867 0.923488 0.076281
v -0.057053 0.925306 0.076281
v -0.052663 0.923488 0.076281
v -0.052663 0.923488 0.069635
v -0.048892 0.920595 0.076281
v -0.070867 0.923488 0.069635
v -0.070867 0.923488 0.076281
v -0.074638 0.920595 0.069635
v -0.074638 0.920595 0.076281
v -0.077531 0.916824 0.076281
v -0.074638 0.920595 0.069635
v -0.079349 0.912434 0.076281
v -0.077531 0.916824 0.076281
v -0.044181 0.912434 0.076281
v -0.043560 0.907722 0.076281
v -0.079349 0.912434 0.076281
v -0.044181 0.912434 0.076281
v -0.044181 0.903010 0.076281
v -0.079349 0.903010 0.076281
v -0.043560 0.907722 0.076281
v -0.074638 0.894849 0.069635
v -0.074638 0.894849 0.076281
v -0.070867 0.891956 0.069635
v -0.074638 0.894849 0.076281
v -0.077531 0.898620 0.076281
v -0.048892 0.894849 0.076281
v -0.045999 0.898620 0.076281
v -0.077531 0.898620 0.076281
v -0.044181 0.903010 0.076281
v -0.070867 0.923488 0.076281
v -0.070867 0.923488 0.069635
v -0.066477 0.925306 0.076281
v -0.070867 0.923488 0.076281
v -0.066477 0.925306 0.076281
v -0.057053 0.925306 0.076281
v -0.048892 0.920595 0.076281
v -0.070867 0.923488 0.076281
v -0.052663 0.923488 0.076281
v -0.048892 0.920595 0.069635
v -0.048892 0.920595 0.076281
v -0.052663 0.923488 0.069635
v -0.052663 0.891956 0.069635
v -0.052663 0.891956 0.076281
v -0.048892 0.894849 0.069635
v -0.074638 0.920595 0.076281
v -0.074638 0.920595 0.069635
v -0.070867 0.923488 0.076281
v -0.077531 0.916824 0.076281
v -0.074638 0.920595 0.076281
v -0.048892 0.920595 0.076281
v -0.044181 0.912434 0.076281
v -0.077531 0.916824 0.076281
v -0.045999 0.916824 0.076281
v -0.043560 0.907722 0.076281
v -0.044181 0.912434 0.076281
v -0.043560 0.907722 0.069635
v -0.044181 0.903010 0.076281
v -0.043560 0.907722 0.076281
v -0.044181 0.903010 0.069635
v -0.070867 0.891956 0.076281
v -0.070867 0.891956 0.069635
v -0.074638 0.894849 0.076281
v -0.048892 0.894849 0.076281
v -0.077531 0.898620 0.076281
v -0.045999 0.898620 0.076281
v -0.070867 0.891956 0.076281
v -0.074638 0.894849 0.076281
v -0.048892 0.894849 0.076281
v -0.045999 0.898620 0.076281
v -0.044181 0.903010 0.076281
v -0.045999 0.898620 0.069635
v -0.074638 0.920595 0.076281
v -0.070867 0.923488 0.076281
v -0.048892 0.920595 0.076281
v -0.048892 0.920595 0.069635
v -0.045999 0.916824 0.069635
v -0.048892 0.920595 0.076281
v -0.045999 0.898620 0.069635
v -0.048892 0.894849 0.069635
v -0.045999 0.898620 0.076281
v -0.048892 0.894849 0.076281
v -0.048892 0.894849 0.069635
v -0.052663 0.891956 0.076281
v -0.052663 0.891956 0.076281
v -0.052663 0.891956 0.069635
v -0.057053 0.890138 0.076281
v -0.057053 0.890138 0.069635
v -0.057053 0.890138 0.076281
v -0.052663 0.891956 0.069635
v -0.045999 0.916824 0.076281
v -0.077531 0.916824 0.076281
v -0.048892 0.920595 0.076281
v -0.044181 0.912434 0.076281
v -0.045999 0.916824 0.076281
v -0.044181 0.912434 0.069635
v -0.044181 0.912434 0.069635
v -0.043560 0.907722 0.069635
v -0.044181 0.912434 0.076281
v -0.043560 0.907722 0.069635
v -0.044181 0.903010 0.069635
v -0.043560 0.907722 0.076281
v -0.044181 0.903010 0.069635
v -0.045999 0.898620 0.069635
v -0.044181 0.903010 0.076281
v -0.070867 0.891956 0.069635
v -0.070867 0.891956 0.076281
v -0.066477 0.890138 0.069635
v -0.048892 0.894849 0.076281
v -0.045999 0.898620 0.076281
v -0.048892 0.894849 0.069635
v -0.052663 0.891956 0.076281
v -0.070867 0.891956 0.076281
v -0.048892 0.894849 0.076281
v -0.045999 0.916824 0.076281
v -0.048892 0.920595 0.076281
v -0.045999 0.916824 0.069635
v -0.057053 0.890138 0.076281
v -0.066477 0.890138 0.076281
v -0.052663 0.891956 0.076281
v -0.057053 0.890138 0.076281
v -0.057053 0.890138 0.069635
v -0.061765 0.889517 0.076281
v -0.061765 0.889517 0.069635
v -0.061765 0.889517 0.076281
v -0.057053 0.890138 0.069635
v -0.045999 0.916824 0.069635
v -0.044181 0.912434 0.069635
v -0.045999 0.916824 0.076281
v -0.066477 0.890138 0.069635
v -0.066477 0.890138 0.076281
v -0.061765 0.889517 0.069635
v -0.066477 0.890138 0.076281
v -0.066477 0.890138 0.069635
v -0.070867 0.891956 0.076281
v -0.066477 0.890138 0.076281
v -0.070867 0.891956 0.076281
v -0.052663 0.891956 0.076281
v -0.061765 0.889517 0.076281
v -0.066477 0.890138 0.076281
v -0.057053 0.890138 0.076281
v -0.061765 0.889517 0.076281
v -0.061765 0.889517 0.069635
v -0.066477 0.890138 0.076281
v -0.079970 0.907722 0.076281
v -0.079349 0.912434 0.069635
v -0.079970 0.907722 0.069635
v -0.079349 0.903010 0.076281
v -0.079970 0.907722 0.069635
v -0.079349 0.903010 0.069635
v -0.066477 0.925306 0.069635
v -0.061765 0.925927 0.076281
v -0.061765 0.925927 0.069635
v -0.061765 0.925927 0.069635
v -0.057053 0.925306 0.076281
v -0.057053 0.925306 0.069635
v -0.079349 0.912434 0.076281
v -0.077531 0.916824 0.069635
v -0.079349 0.912434 0.069635
v -0.079349 0.912434 0.069635
v -0.079970 0.907722 0.076281
v -0.079349 0.912434 0.076281
v -0.079970 0.907722 0.069635
v -0.079349 0.903010 0.076281
v -0.079970 0.907722 0.076281
v -0.077531 0.898620 0.076281
v -0.079349 0.903010 0.069635
v -0.077531 0.898620 0.069635
v -0.079349 0.903010 0.069635
v -0.077531 0.898620 0.076281
v -0.079349 0.903010 0.076281
v -0.061765 0.925927 0.076281
v -0.066477 0.925306 0.069635
v -0.066477 0.925306 0.076281
v -0.057053 0.925306 0.076281
v -0.061765 0.925927 0.069635
v -0.061765 0.925927 0.076281
v -0.052663 0.923488 0.076281
v -0.057053 0.925306 0.069635
v -0.057053 0.925306 0.076281
v -0.057053 0.925306 0.069635
v -0.052663 0.923488 0.076281
v -0.052663 0.923488 0.069635
v -0.077531 0.916824 0.076281
v -0.074638 0.920595 0.069635
v -0.077531 0.916824 0.069635
v -0.077531 0.916824 0.069635
v -0.079349 0.912434 0.076281
v -0.077531 0.916824 0.076281
v -0.043560 0.907722 0.076281
v -0.079349 0.912434 0.076281
v -0.079970 0.907722 0.076281
v -0.043560 0.907722 0.076281
v -0.079970 0.907722 0.076281
v -0.079349 0.903010 0.076281
v -0.074638 0.894849 0.076281
v -0.077531 0.898620 0.069635
v -0.074638 0.894849 0.069635
v -0.077531 0.898620 0.069635
v -0.074638 0.894849 0.076281
v -0.077531 0.898620 0.076281
v -0.044181 0.903010 0.076281
v -0.079349 0.903010 0.076281
v -0.077531 0.898620 0.076281
v -0.070867 0.923488 0.069635
v -0.066477 0.925306 0.076281
v -0.066477 0.925306 0.069635
v -0.066477 0.925306 0.076281
v -0.057053 0.925306 0.076281
v -0.061765 0.925927 0.076281
v -0.057053 0.925306 0.076281
v -0.070867 0.923488 0.076281
v -0.052663 0.923488 0.076281
v -0.048892 0.920595 0.076281
v -0.052663 0.923488 0.069635
v -0.052663 0.923488 0.076281
v -0.074638 0.920595 0.069635
v -0.070867 0.923488 0.076281
v -0.070867 0.923488 0.069635
v -0.074638 0.920595 0.069635
v -0.077531 0.916824 0.076281
v -0.074638 0.920595 0.076281
v -0.044181 0.912434 0.076281
v -0.077531 0.916824 0.076281
v -0.079349 0.912434 0.076281
v -0.044181 0.912434 0.076281
v -0.079349 0.912434 0.076281
v -0.043560 0.907722 0.076281
v -0.043560 0.907722 0.076281
v -0.079349 0.903010 0.076281
v -0.044181 0.903010 0.076281
v -0.070867 0.891956 0.069635
v -0.074638 0.894849 0.076281
v -0.074638 0.894849 0.069635
v -0.048892 0.894849 0.076281
v -0.077531 0.898620 0.076281
v -0.074638 0.894849 0.076281
v -0.044181 0.903010 0.076281
v -0.077531 0.898620 0.076281
v -0.045999 0.898620 0.076281
v -0.066477 0.925306 0.076281
v -0.070867 0.923488 0.069635
v -0.070867 0.923488 0.076281
v -0.057053 0.925306 0.076281
v -0.066477 0.925306 0.076281
v -0.070867 0.923488 0.076281
v -0.052663 0.923488 0.076281
v -0.070867 0.923488 0.076281
v -0.048892 0.920595 0.076281
v -0.052663 0.923488 0.069635
v -0.048892 0.920595 0.076281
v -0.048892 0.920595 0.069635
v -0.048892 0.894849 0.069635
v -0.052663 0.891956 0.076281
v -0.052663 0.891956 0.069635
v -0.070867 0.923488 0.076281
v -0.074638 0.920595 0.069635
v -0.074638 0.920595 0.076281
v -0.048892 0.920595 0.076281
v -0.074638 0.920595 0.076281
v -0.077531 0.916824 0.076281
v -0.045999 0.916824 0.076281
v -0.077531 0.916824 0.076281
v -0.044181 0.912434 0.076281
v -0.043560 0.907722 0.069635
v -0.044181 0.912434 0.076281
v -0.043560 0.907722 0.076281
v -0.044181 0.903010 0.069635
v -0.043560 0.907722 0.076281
v -0.044181 0.903010 0.076281
v -0.074638 0.894849 0.076281
v -0.070867 0.891956 0.069635
v -0.070867 0.891956 0.076281
v -0.045999 0.898620 0.076281
v -0.077531 0.898620 0.076281
v -0.048892 0.894849 0.076281
v -0.048892 0.894849 0.076281
v -0.074638 0.894849 0.076281
v -0.070867 0.891956 0.076281
v -0.045999 0.898620 0.069635
v -0.044181 0.903010 0.076281
v -0.045999 0.898620 0.076281
v -0.048892 0.920595 0.076281
v -0.070867 0.923488 0.076281
v -0.074638 0.920595 0.076281
v -0.048892 0.920595 0.076281
v -0.045999 0.916824 0.069635
v -0.048892 0.920595 0.069635
v -0.045999 0.898620 0.076281
v -0.048892 0.894849 0.069635
v -0.045999 0.898620 0.069635
v -0.052663 0.891956 0.076281
v -0.048892 0.894849 0.069635
v -0.048892 0.894849 0.076281
v -0.057053 0.890138 0.076281
v -0.052663 0.891956 0.069635
v -0.052663 0.891956 0.076281
v -0.052663 0.891956 0.069635
v -0.057053 0.890138 0.076281
v -0.057053 0.890138 0.069635
v -0.048892 0.920595 0.076281
v -0.077531 0.916824 0.076281
v -0.045999 0.916824 0.076281
v -0.044181 0.912434 0.069635
v -0.045999 0.916824 0.076281
v -0.044181 0.912434 0.076281
v -0.044181 0.912434 0.076281
v -0.043560 0.907722 0.069635
v -0.044181 0.912434 0.069635
v -0.043560 0.907722 0.076281
v -0.044181 0.903010 0.069635
v -0.043560 0.907722 0.069635
v -0.044181 0.903010 0.076281
v -0.045999 0.898620 0.069635
v -0.044181 0.903010 0.069635
v -0.066477 0.890138 0.069635
v -0.070867 0.891956 0.076281
v -0.070867 0.891956 0.069635
v -0.048892 0.894849 0.069635
v -0.045999 0.898620 0.076281
v -0.048892 0.894849 0.076281
v -0.048892 0.894849 0.076281
v -0.070867 0.891956 0.076281
v -0.052663 0.891956 0.076281
v -0.045999 0.916824 0.069635
v -0.048892 0.920595 0.076281
v -0.045999 0.916824 0.076281
v -0.052663 0.891956 0.076281
v -0.066477 0.890138 0.076281
v -0.057053 0.890138 0.076281
v -0.061765 0.889517 0.076281
v -0.057053 0.890138 0.069635
v -0.057053 0.890138 0.076281
v -0.057053 0.890138 0.069635
v -0.061765 0.889517 0.076281
v -0.061765 0.889517 0.069635
v -0.045999 0.916824 0.076281
v -0.044181 0.912434 0.069635
v -0.045999 0.916824 0.069635
v -0.061765 0.889517 0.069635
v -0.066477 0.890138 0.076281
v -0.066477 0.890138 0.069635
v -0.070867 0.891956 0.076281
v -0.066477 0.890138 0.069635
v -0.066477 0.890138 0.076281
v -0.052663 0.891956 0.076281
v -0.070867 0.891956 0.076281
v -0.066477 0.890138 0.076281
v -0.057053 0.890138 0.076281
v -0.066477 0.890138 0.076281
v -0.061765 0.889517 0.076281
v -0.066477 0.890138 0.076281
v -0.061765 0.889517 0.069635
v -0.061765 0.889517 0.076281
vn 1 0 0
vn 0.9659258451755843 -0.25881897461707354 0
vn 0.9659258451755841 0.258818974617074 0
vn 0 -1 0
vn 0.258818974617074 -0.9659258451755841 0
vn -0.25881897461707354 -0.9659258451755843 0
vn 0.8660252955903435 -0.5000001873976231 0
vn 0.8660252955903432 0.5000001873976235 0
vn -0.5000001873976231 -0.8660252955903435 0
vn 0.7071067811865477 -0.7071067811865475 0
vn 0 0 -1
vn 0.7071067811865475 0.7071067811865477 0
vn 0.5000001873976235 -0.8660252955903432 0
vn -0.7071067811865475 -0.7071067811865477 0
vn 0.5000001873976231 0.8660252955903435 0
vn -0.5000001873976235 0.8660252955903432 0
vn -0.7071067811865477 0.7071067811865475 0
vn -1 0 0
vn -0.9659258451755841 -0.258818974617074 0
vn -0.9659258451755843 0.25881897461707354 0
vn -0.8660252955903435 0.5000001873976231 0
vn -0.8660252955903432 -0.5000001873976235 0
vn -0.258818974617074 0.9659258451755841 0
vn 0.25881897461707354 0.9659258451755843 0
vn 0 1 0
vn 0 0 1
usemtl material_0_0
f 1//1 2//2 3//1
f 4//3 5//1 6//3
f 7//4 8//4 9//5
f 10//6 11//6 12//4
f 13//2 14//7 15//2
f 16//2 17//1 18//2
f 19//1 20//3 21//1
f 22//8 23//3 24//8
f 25//3 26//8 27//3
f 28//5 29//5 30//4
f 31//4 32//4 33//6
f 34//6 35//6 36//9
f 37//9 38//9 39//6
f 40//7 41//10 42//7
f 43//7 44//2 45//7
f 46//11 47//11 48//11
f 49//11 50//11 51//11
f 52//12 53//8 54//12
f 55//8 56//12 57//8
f 58//11 59//11 60//11
f 61//5 62//5 63//13
f 64//11 65//11 66//11
f 67//11 68//11 69//11
f 70//9 71//9 72//14
f 73//13 74//13 75//10
f 76//10 77//7 78//10
f 79//11 80//11 81//11
f 82//11 83//11 84//11
f 85//11 86//11 87//11
f 88//12 89//12 90//15
f 91//11 92//11 93//11
f 94//11 95//11 96//11
f 97//13 98//13 99//5
f 100//11 101//11 102//11
f 103//11 104//11 105//11
f 106//14 107//14 108//9
f 109//16 110//16 111//17
f 112//10 113//10 114//13
f 115//11 116//11 117//11
f 118//11 119//11 120//11
f 121//18 122//19 123//18
f 124//20 125//18 126//20
f 127//15 128//15 129//12
f 130//11 131//11 132//11
f 133//11 134//11 135//11
f 136//21 137//20 138//21
f 139//11 140//11 141//11
f 142//14 143//22 144//14
f 145//21 146//17 147//21
f 148//17 149//17 150//16
f 151//16 152//16 153//23
f 154//23 155//23 156//16
f 157//11 158//11 159//11
f 160//19 161//22 162//19
f 163//19 164//18 165//19
f 166//18 167//20 168//18
f 169//20 170//21 171//20
f 172//15 173//15 174//24
f 175//17 176//21 177//17
f 178//11 179//11 180//11
f 181//22 182//14 183//22
f 184//11 185//11 186//11
f 187//23 188//23 189//25
f 190//25 191//25 192//23
f 193//22 194//19 195//22
f 196//24 197//24 198//25
f 199//24 200//24 201//15
f 202//11 203//11 204//11
f 205//11 206//11 207//11
f 208//25 209//25 210//24
usemtl material_1_0
f 211//18 212//20 213//18
f 214//19 215//18 216//19
f 217//23 218//25 219//25
f 220//25 221//24 222//24
f 223//20 224//21 225//20
f 226//20 227//18 228//20
f 229//18 230//19 231//18
f 232//22 233//19 234//22
f 235//19 236//22 237//19
f 238//25 239//23 240//23
f 241//24 242//25 243//25
f 244//15 245//24 246//24
f 247//24 248//15 249//15
f 250//21 251//17 252//21
f 253//21 254//20 255//21
f 256//26 257//26 258//26
f 259//26 260//26 261//26
f 262//14 263//22 264//14
f 265//22 266//14 267//22
f 268//26 269//26 270//26
f 271//16 272//23 273//23
f 274//26 275//26 276//26
f 277//26 278//26 279//26
f 280//12 281//15 282//15
f 283//17 284//16 285//16
f 286//17 287//21 288//17
f 289//26 290//26 291//26
f 292//26 293//26 294//26
f 295//26 296//26 297//26
f 298//9 299//14 300//14
f 301//26 302//26 303//26
f 304//26 305//26 306//26
f 307//23 308//16 309//16
f 310//26 311//26 312//26
f 313//26 314//26 315//26
f 316//15 317//12 318//12
f 319//10 320//13 321//13
f 322//16 323//17 324//17
f 325//26 326//26 327//26
f 328//26 329//26 330//26
f 331//1 332//3 333//1
f 334//2 335//1 336//2
f 337//14 338//9 339//9
f 340//26 341//26 342//26
f 343//26 344//26 345//26
f 346//7 347//2 348//7
f 349//26 350//26 351//26
f 352//12 353//8 354//12
f 355//7 356//10 357//7
f 358//13 359//10 360//10
f 361//5 362//13 363//13
f 364//13 365//5 366//5
f 367//26 368//26 369//26
f 370//3 371//8 372//3
f 373//3 374//1 375//3
f 376//1 377//2 378//1
f 379//2 380//7 381//2
f 382//6 383//9 384//9
f 385//10 386//7 387//10
f 388//26 389//26 390//26
f 391//8 392//12 393//8
f 394//26 395//26 396//26
f 397//4 398//5 399//5
f 400//5 401//4 402//4
f 403//8 404//3 405//8
f 406//4 407//6 408//6
f 409//9 410//6 411//6
f 412//26 413//26 414//26
f 415//26 416//26 417//26
f 418//6 419//4 420//4
