# SSTK version 0.8.0
# 47
mtllib original-47.mtl
o mesh2/mesh2-geometry/material_4/component_6#mesh2-geometry
v 0.108569 0.192891 0.069635
v 0.108569 0.142611 0.069635
v 0.108569 0.192891 0.076281
v 0.108569 0.142611 0.076281
v 0.108569 0.192891 0.076281
v 0.108569 0.142611 0.069635
v 0.108569 0.192891 0.069635
v 0.108569 0.192891 0.076281
v 0.058289 0.192891 0.069635
v 0.108569 0.142611 0.076281
v 0.058289 0.179418 0.076281
v 0.108569 0.192891 0.076281
v 0.108569 0.142611 0.076281
v 0.108569 0.142611 0.069635
v 0.095097 0.142611 0.076281
v 0.058289 0.192891 0.076281
v 0.058289 0.192891 0.069635
v 0.108569 0.192891 0.076281
v 0.058289 0.192891 0.076281
v 0.108569 0.192891 0.076281
v 0.058289 0.179418 0.076281
v 0.079116 0.163437 0.076281
v 0.058289 0.179418 0.076281
v 0.108569 0.142611 0.076281
v 0.095097 0.142611 0.069635
v 0.095097 0.142611 0.076281
v 0.108569 0.142611 0.069635
v 0.095097 0.142611 0.076281
v 0.083429 0.157816 0.076281
v 0.108569 0.142611 0.076281
v 0.058289 0.192891 0.076281
v 0.058289 0.179418 0.076281
v 0.058289 0.192891 0.069635
v 0.079116 0.163437 0.076281
v 0.079116 0.163437 0.069635
v 0.058289 0.179418 0.076281
v 0.083429 0.157816 0.076281
v 0.079116 0.163437 0.076281
v 0.108569 0.142611 0.076281
v 0.095097 0.142611 0.069635
v 0.083429 0.157816 0.069635
v 0.095097 0.142611 0.076281
v 0.083429 0.157816 0.076281
v 0.095097 0.142611 0.076281
v 0.083429 0.157816 0.069635
v 0.058289 0.179418 0.069635
v 0.058289 0.192891 0.069635
v 0.058289 0.179418 0.076281
v 0.058289 0.179418 0.069635
v 0.058289 0.179418 0.076281
v 0.079116 0.163437 0.069635
v 0.079116 0.163437 0.076281
v 0.083429 0.157816 0.076281
v 0.079116 0.163437 0.069635
v 0.083429 0.157816 0.069635
v 0.079116 0.163437 0.069635
v 0.083429 0.157816 0.076281
v 0.108569 0.192891 0.076281
v 0.108569 0.142611 0.069635
v 0.108569 0.192891 0.069635
v 0.108569 0.142611 0.069635
v 0.108569 0.192891 0.076281
v 0.108569 0.142611 0.076281
v 0.058289 0.192891 0.069635
v 0.108569 0.192891 0.076281
v 0.108569 0.192891 0.069635
v 0.108569 0.192891 0.076281
v 0.058289 0.179418 0.076281
v 0.108569 0.142611 0.076281
v 0.095097 0.142611 0.076281
v 0.108569 0.142611 0.069635
v 0.108569 0.142611 0.076281
v 0.108569 0.192891 0.076281
v 0.058289 0.192891 0.069635
v 0.058289 0.192891 0.076281
v 0.058289 0.179418 0.076281
v 0.108569 0.192891 0.076281
v 0.058289 0.192891 0.076281
v 0.108569 0.142611 0.076281
v 0.058289 0.179418 0.076281
v 0.079116 0.163437 0.076281
v 0.108569 0.142611 0.069635
v 0.095097 0.142611 0.076281
v 0.095097 0.142611 0.069635
v 0.108569 0.142611 0.076281
v 0.083429 0.157816 0.076281
v 0.095097 0.142611 0.076281
v 0.058289 0.192891 0.069635
v 0.058289 0.179418 0.076281
v 0.058289 0.192891 0.076281
v 0.058289 0.179418 0.076281
v 0.079116 0.163437 0.069635
v 0.079116 0.163437 0.076281
v 0.108569 0.142611 0.076281
v 0.079116 0.163437 0.076281
v 0.083429 0.157816 0.076281
v 0.095097 0.142611 0.076281
v 0.083429 0.157816 0.069635
v 0.095097 0.142611 0.069635
v 0.083429 0.157816 0.069635
v 0.095097 0.142611 0.076281
v 0.083429 0.157816 0.076281
v 0.058289 0.179418 0.076281
v 0.058289 0.192891 0.069635
v 0.058289 0.179418 0.069635
v 0.079116 0.163437 0.069635
v 0.058289 0.179418 0.076281
v 0.058289 0.179418 0.069635
v 0.079116 0.163437 0.069635
v 0.083429 0.157816 0.076281
v 0.079116 0.163437 0.076281
v 0.083429 0.157816 0.076281
v 0.079116 0.163437 0.069635
v 0.083429 0.157816 0.069635
vn -1 0 0
vn 0 -1 0
vn 0 0 -1
vn 0 1 0
vn 1 0 0
vn 0.8968726707467167 0.44228883375872297 0
vn 0.7071067811865475 0.7071067811865477 0
vn 0.7933534231507682 0.6087613210240594 0
vn 0 0 1
vn -0.8968726707467167 -0.44228883375872297 0
vn -0.7071067811865475 -0.7071067811865477 0
vn -0.7933534231507682 -0.6087613210240594 0
usemtl material_0_0
f 1//1 2//1 3//1
f 4//1 5//1 6//1
f 7//2 8//2 9//2
f 10//3 11//3 12//3
f 13//4 14//4 15//4
f 16//2 17//2 18//2
f 19//3 20//3 21//3
f 22//3 23//3 24//3
f 25//4 26//4 27//4
f 28//3 29//3 30//3
f 31//5 32//6 33//5
f 34//7 35//7 36//6
f 37//3 38//3 39//3
f 40//8 41//8 42//8
f 43//8 44//8 45//8
f 46//6 47//5 48//6
f 49//6 50//6 51//7
f 52//7 53//8 54//7
f 55//8 56//7 57//8
usemtl material_1_0
f 58//5 59//5 60//5
f 61//5 62//5 63//5
f 64//4 65//4 66//4
f 67//9 68//9 69//9
f 70//2 71//2 72//2
f 73//4 74//4 75//4
f 76//9 77//9 78//9
f 79//9 80//9 81//9
f 82//2 83//2 84//2
f 85//9 86//9 87//9
f 88//1 89//10 90//1
f 91//10 92//11 93//11
f 94//9 95//9 96//9
f 97//12 98//12 99//12
f 100//12 101//12 102//12
f 103//10 104//1 105//10
f 106//11 107//10 108//10
f 109//11 110//12 111//11
f 112//12 113//11 114//12
