# SSTK version 0.8.0
# 13
mtllib original-13.mtl
o mesh2/mesh2-geometry/material_1/component_1#mesh2-geometry
v -0.017130 0.325396 0.069635
v 0.033150 0.325396 0.076281
v 0.033150 0.325396 0.069635
v 0.033150 0.325396 0.076281
v 0.033150 0.295500 0.069635
v 0.033150 0.325396 0.069635
v 0.033150 0.295500 0.076281
v 0.033150 0.265605 0.069635
v 0.033150 0.295500 0.069635
v 0.033150 0.265605 0.069635
v -0.017130 0.265605 0.076281
v -0.017130 0.265605 0.069635
v 0.033150 0.325396 0.076281
v -0.017130 0.325396 0.069635
v -0.017130 0.325396 0.076281
v 0.033150 0.295500 0.069635
v 0.033150 0.325396 0.076281
v 0.033150 0.295500 0.076281
v 0.033150 0.265605 0.069635
v 0.033150 0.295500 0.076281
v 0.033150 0.265605 0.076281
v -0.017130 0.265605 0.076281
v 0.033150 0.265605 0.069635
v 0.033150 0.265605 0.076281
v -0.017130 0.265605 0.076281
v -0.017130 0.325396 0.069635
v -0.017130 0.265605 0.069635
v -0.017130 0.325396 0.069635
v -0.017130 0.265605 0.076281
v -0.017130 0.325396 0.076281
v -0.017130 0.265605 0.076281
v 0.033150 0.325396 0.076281
v -0.017130 0.325396 0.076281
v 0.033150 0.325396 0.076281
v -0.017130 0.265605 0.076281
v 0.033150 0.295500 0.076281
v 0.033150 0.295500 0.076281
v -0.017130 0.265605 0.076281
v 0.033150 0.265605 0.076281
v 0.033150 0.325396 0.069635
v 0.033150 0.325396 0.076281
v -0.017130 0.325396 0.069635
v 0.033150 0.325396 0.069635
v 0.033150 0.295500 0.069635
v 0.033150 0.325396 0.076281
v 0.033150 0.295500 0.069635
v 0.033150 0.265605 0.069635
v 0.033150 0.295500 0.076281
v -0.017130 0.265605 0.069635
v -0.017130 0.265605 0.076281
v 0.033150 0.265605 0.069635
v -0.017130 0.325396 0.076281
v -0.017130 0.325396 0.069635
v 0.033150 0.325396 0.076281
v 0.033150 0.295500 0.076281
v 0.033150 0.325396 0.076281
v 0.033150 0.295500 0.069635
v 0.033150 0.265605 0.076281
v 0.033150 0.295500 0.076281
v 0.033150 0.265605 0.069635
v 0.033150 0.265605 0.076281
v 0.033150 0.265605 0.069635
v -0.017130 0.265605 0.076281
v -0.017130 0.265605 0.069635
v -0.017130 0.325396 0.069635
v -0.017130 0.265605 0.076281
v -0.017130 0.325396 0.076281
v -0.017130 0.265605 0.076281
v -0.017130 0.325396 0.069635
v -0.017130 0.325396 0.076281
v 0.033150 0.325396 0.076281
v -0.017130 0.265605 0.076281
v 0.033150 0.295500 0.076281
v -0.017130 0.265605 0.076281
v 0.033150 0.325396 0.076281
v 0.033150 0.265605 0.076281
v -0.017130 0.265605 0.076281
v 0.033150 0.295500 0.076281
vn 0 1 0
vn 1 0 0
vn 0 -1 0
vn -1 0 0
vn 0 0 1
vn 0 0 -1
usemtl material_0_0
f 1//1 2//1 3//1
f 4//2 5//2 6//2
f 7//2 8//2 9//2
f 10//3 11//3 12//3
f 13//1 14//1 15//1
f 16//2 17//2 18//2
f 19//2 20//2 21//2
f 22//3 23//3 24//3
f 25//4 26//4 27//4
f 28//4 29//4 30//4
f 31//5 32//5 33//5
f 34//5 35//5 36//5
f 37//5 38//5 39//5
usemtl material_1_0
f 40//3 41//3 42//3
f 43//4 44//4 45//4
f 46//4 47//4 48//4
f 49//1 50//1 51//1
f 52//3 53//3 54//3
f 55//4 56//4 57//4
f 58//4 59//4 60//4
f 61//1 62//1 63//1
f 64//2 65//2 66//2
f 67//2 68//2 69//2
f 70//6 71//6 72//6
f 73//6 74//6 75//6
f 76//6 77//6 78//6
