# SSTK version 0.8.0
# 70
mtllib original-70.mtl
o mesh2/mesh2-geometry/material_4/component_29#mesh2-geometry
v 0.068201 0.075814 0.069635
v 0.061875 0.060798 0.069635
v 0.068201 0.075814 0.076281
v 0.061875 0.060798 0.076281
v 0.068201 0.075814 0.076281
v 0.061875 0.060798 0.069635
v 0.068201 0.075814 0.069635
v 0.068201 0.075814 0.076281
v 0.054174 0.079962 0.069635
v 0.061875 0.060798 0.069635
v 0.051878 0.047931 0.069635
v 0.061875 0.060798 0.076281
v 0.038891 0.038090 0.069635
v 0.038891 0.038090 0.076281
v 0.051878 0.047931 0.069635
v 0.061875 0.060798 0.076281
v 0.049400 0.068435 0.076281
v 0.068201 0.075814 0.076281
v 0.054174 0.079962 0.076281
v 0.054174 0.079962 0.069635
v 0.068201 0.075814 0.076281
v 0.051878 0.047931 0.076281
v 0.061875 0.060798 0.076281
v 0.051878 0.047931 0.069635
v 0.051878 0.047931 0.076281
v 0.051878 0.047931 0.069635
v 0.038891 0.038090 0.076281
v 0.038891 0.038090 0.076281
v 0.038891 0.038090 0.069635
v 0.023801 0.031946 0.076281
v 0.054174 0.079962 0.076281
v 0.068201 0.075814 0.076281
v 0.049400 0.068435 0.076281
v 0.041804 0.058537 0.076281
v 0.049400 0.068435 0.076281
v 0.061875 0.060798 0.076281
v 0.054174 0.079962 0.076281
v 0.049400 0.068435 0.076281
v 0.054174 0.079962 0.069635
v 0.051878 0.047931 0.076281
v 0.041804 0.058537 0.076281
v 0.061875 0.060798 0.076281
v 0.023801 0.031946 0.069635
v 0.023801 0.031946 0.076281
v 0.038891 0.038090 0.069635
v 0.038891 0.038090 0.076281
v 0.020379 0.046167 0.076281
v 0.051878 0.047931 0.076281
v 0.023801 0.031946 0.076281
v 0.020379 0.046167 0.076281
v 0.038891 0.038090 0.076281
v 0.049400 0.068435 0.076281
v 0.041804 0.058537 0.076281
v 0.049400 0.068435 0.069635
v 0.049400 0.068435 0.069635
v 0.054174 0.079962 0.069635
v 0.049400 0.068435 0.076281
v 0.033150 0.051896 0.076281
v 0.041804 0.058537 0.076281
v 0.051878 0.047931 0.076281
v 0.023801 0.031946 0.069635
v 0.020379 0.046167 0.069635
v 0.023801 0.031946 0.076281
v 0.020379 0.046167 0.076281
v 0.031906 0.050941 0.076281
v 0.051878 0.047931 0.076281
v 0.020379 0.046167 0.076281
v 0.023801 0.031946 0.076281
v 0.020379 0.046167 0.069635
v 0.041804 0.058537 0.069635
v 0.049400 0.068435 0.069635
v 0.041804 0.058537 0.076281
v 0.033150 0.051896 0.076281
v 0.033150 0.051896 0.069635
v 0.041804 0.058537 0.076281
v 0.031906 0.050941 0.076281
v 0.033150 0.051896 0.076281
v 0.051878 0.047931 0.076281
v 0.020379 0.046167 0.076281
v 0.020379 0.046167 0.069635
v 0.031906 0.050941 0.076281
v 0.041804 0.058537 0.069635
v 0.041804 0.058537 0.076281
v 0.033150 0.051896 0.069635
v 0.033150 0.051896 0.069635
v 0.033150 0.051896 0.076281
v 0.031906 0.050941 0.069635
v 0.031906 0.050941 0.076281
v 0.031906 0.050941 0.069635
v 0.033150 0.051896 0.076281
v 0.031906 0.050941 0.069635
v 0.031906 0.050941 0.076281
v 0.020379 0.046167 0.069635
v 0.068201 0.075814 0.076281
v 0.061875 0.060798 0.069635
v 0.068201 0.075814 0.069635
v 0.061875 0.060798 0.069635
v 0.068201 0.075814 0.076281
v 0.061875 0.060798 0.076281
v 0.054174 0.079962 0.069635
v 0.068201 0.075814 0.076281
v 0.068201 0.075814 0.069635
v 0.061875 0.060798 0.076281
v 0.051878 0.047931 0.069635
v 0.061875 0.060798 0.069635
v 0.051878 0.047931 0.069635
v 0.038891 0.038090 0.076281
v 0.038891 0.038090 0.069635
v 0.068201 0.075814 0.076281
v 0.049400 0.068435 0.076281
v 0.061875 0.060798 0.076281
v 0.068201 0.075814 0.076281
v 0.054174 0.079962 0.069635
v 0.054174 0.079962 0.076281
v 0.051878 0.047931 0.069635
v 0.061875 0.060798 0.076281
v 0.051878 0.047931 0.076281
v 0.038891 0.038090 0.076281
v 0.051878 0.047931 0.069635
v 0.051878 0.047931 0.076281
v 0.023801 0.031946 0.076281
v 0.038891 0.038090 0.069635
v 0.038891 0.038090 0.076281
v 0.049400 0.068435 0.076281
v 0.068201 0.075814 0.076281
v 0.054174 0.079962 0.076281
v 0.061875 0.060798 0.076281
v 0.049400 0.068435 0.076281
v 0.041804 0.058537 0.076281
v 0.054174 0.079962 0.069635
v 0.049400 0.068435 0.076281
v 0.054174 0.079962 0.076281
v 0.061875 0.060798 0.076281
v 0.041804 0.058537 0.076281
v 0.051878 0.047931 0.076281
v 0.038891 0.038090 0.069635
v 0.023801 0.031946 0.076281
v 0.023801 0.031946 0.069635
v 0.051878 0.047931 0.076281
v 0.020379 0.046167 0.076281
v 0.038891 0.038090 0.076281
v 0.038891 0.038090 0.076281
v 0.020379 0.046167 0.076281
v 0.023801 0.031946 0.076281
v 0.049400 0.068435 0.069635
v 0.041804 0.058537 0.076281
v 0.049400 0.068435 0.076281
v 0.049400 0.068435 0.076281
v 0.054174 0.079962 0.069635
v 0.049400 0.068435 0.069635
v 0.051878 0.047931 0.076281
v 0.041804 0.058537 0.076281
v 0.033150 0.051896 0.076281
v 0.023801 0.031946 0.076281
v 0.020379 0.046167 0.069635
v 0.023801 0.031946 0.069635
v 0.051878 0.047931 0.076281
v 0.031906 0.050941 0.076281
v 0.020379 0.046167 0.076281
v 0.020379 0.046167 0.069635
v 0.023801 0.031946 0.076281
v 0.020379 0.046167 0.076281
v 0.041804 0.058537 0.076281
v 0.049400 0.068435 0.069635
v 0.041804 0.058537 0.069635
v 0.041804 0.058537 0.076281
v 0.033150 0.051896 0.069635
v 0.033150 0.051896 0.076281
v 0.051878 0.047931 0.076281
v 0.033150 0.051896 0.076281
v 0.031906 0.050941 0.076281
v 0.031906 0.050941 0.076281
v 0.020379 0.046167 0.069635
v 0.020379 0.046167 0.076281
v 0.033150 0.051896 0.069635
v 0.041804 0.058537 0.076281
v 0.041804 0.058537 0.069635
v 0.031906 0.050941 0.069635
v 0.033150 0.051896 0.076281
v 0.033150 0.051896 0.069635
v 0.033150 0.051896 0.076281
v 0.031906 0.050941 0.069635
v 0.031906 0.050941 0.076281
v 0.020379 0.046167 0.069635
v 0.031906 0.050941 0.076281
v 0.031906 0.050941 0.069635
vn -0.9215561695513091 0.3882450596748385 0
vn -0.862995889228994 0.5052109412649907 0
vn -0.2835789513784241 -0.9589488924521022 0
vn 0.43071701819326574 -0.902487036050215 0
vn -0.7028319366886353 0.7113559367647831 0
vn -0.4947707509699497 0.86902353477028 0
vn 0 0 -1
vn 0.45647110560538423 0.8897382366445751 0
vn 0.8660252955903435 -0.5000001873976231 0
vn 0.7071067811865477 -0.7071067811865475 0
vn 0.972263570611591 0.2338878989208294 0
vn 0.6087613210240594 -0.7933534231507682 0
vn 0.382682912343787 -0.9238797479109916 0
vn 0.5000001873976235 -0.8660252955903432 0
vn 0.9215561695513091 -0.3882450596748385 0
vn 0.862995889228994 -0.5052109412649907 0
vn -0.43071701819326574 0.902487036050215 0
vn 0.2835789513784241 0.9589488924521022 0
vn 0.7028319366886353 -0.7113559367647831 0
vn 0.4947707509699497 -0.86902353477028 0
vn 0 0 1
vn -0.45647110560538423 -0.8897382366445751 0
vn -0.8660252955903435 0.5000001873976231 0
vn -0.7071067811865477 0.7071067811865475 0
vn -0.972263570611591 -0.2338878989208294 0
vn -0.6087613210240594 0.7933534231507682 0
vn -0.5000001873976235 0.8660252955903432 0
vn -0.382682912343787 0.9238797479109916 0
usemtl material_0_0
f 1//1 2//2 3//1
f 4//2 5//1 6//2
f 7//3 8//3 9//4
f 10//2 11//5 12//2
f 13//6 14//6 15//5
f 16//7 17//7 18//7
f 19//4 20//4 21//3
f 22//5 23//2 24//5
f 25//5 26//5 27//6
f 28//6 29//6 30//8
f 31//7 32//7 33//7
f 34//7 35//7 36//7
f 37//4 38//9 39//4
f 40//7 41//7 42//7
f 43//8 44//8 45//6
f 46//7 47//7 48//7
f 49//7 50//7 51//7
f 52//9 53//10 54//9
f 55//9 56//4 57//9
f 58//7 59//7 60//7
f 61//8 62//11 63//8
f 64//7 65//7 66//7
f 67//11 68//8 69//11
f 70//10 71//9 72//10
f 73//12 74//12 75//10
f 76//7 77//7 78//7
f 79//13 80//13 81//14
f 82//10 83//10 84//12
f 85//12 86//12 87//14
f 88//14 89//14 90//12
f 91//14 92//14 93//13
usemtl material_1_0
f 94//15 95//16 96//15
f 97//16 98//15 99//16
f 100//17 101//18 102//18
f 103//16 104//19 105//16
f 106//19 107//20 108//20
f 109//21 110//21 111//21
f 112//18 113//17 114//17
f 115//19 116//16 117//19
f 118//20 119//19 120//19
f 121//22 122//20 123//20
f 124//21 125//21 126//21
f 127//21 128//21 129//21
f 130//17 131//23 132//17
f 133//21 134//21 135//21
f 136//20 137//22 138//22
f 139//21 140//21 141//21
f 142//21 143//21 144//21
f 145//23 146//24 147//23
f 148//23 149//17 150//23
f 151//21 152//21 153//21
f 154//22 155//25 156//22
f 157//21 158//21 159//21
f 160//25 161//22 162//25
f 163//24 164//23 165//24
f 166//24 167//26 168//26
f 169//21 170//21 171//21
f 172//27 173//28 174//28
f 175//26 176//24 177//24
f 178//27 179//26 180//26
f 181//26 182//27 183//27
f 184//28 185//27 186//27
