# SSTK version 0.8.0
# 80
mtllib original-80.mtl
o mesh2/mesh2-geometry/material_4/component_39#mesh2-geometry
v 0.020580 0.459924 0.069635
v 0.020580 0.459924 0.076281
v -0.004560 0.459924 0.069635
v 0.020580 0.459924 0.069635
v 0.020580 0.444977 0.069635
v 0.020580 0.459924 0.076281
v -0.004560 0.444977 0.069635
v -0.004560 0.459924 0.069635
v -0.004560 0.444977 0.076281
v -0.004560 0.459924 0.076281
v -0.004560 0.459924 0.069635
v 0.020580 0.459924 0.076281
v 0.020580 0.444977 0.076281
v 0.020580 0.459924 0.076281
v 0.020580 0.444977 0.069635
v -0.004560 0.444977 0.069635
v -0.004560 0.444977 0.076281
v 0.020580 0.444977 0.069635
v -0.004560 0.459924 0.076281
v -0.004560 0.444977 0.076281
v -0.004560 0.459924 0.069635
v -0.004560 0.459924 0.076281
v 0.020580 0.459924 0.076281
v -0.004560 0.444977 0.076281
v 0.020580 0.444977 0.076281
v -0.004560 0.444977 0.076281
v 0.020580 0.459924 0.076281
v 0.020580 0.444977 0.076281
v 0.020580 0.444977 0.069635
v -0.004560 0.444977 0.076281
v -0.004560 0.459924 0.069635
v 0.020580 0.459924 0.076281
v 0.020580 0.459924 0.069635
v 0.020580 0.459924 0.076281
v 0.020580 0.444977 0.069635
v 0.020580 0.459924 0.069635
v -0.004560 0.444977 0.076281
v -0.004560 0.459924 0.069635
v -0.004560 0.444977 0.069635
v 0.020580 0.459924 0.076281
v -0.004560 0.459924 0.069635
v -0.004560 0.459924 0.076281
v 0.020580 0.444977 0.069635
v 0.020580 0.459924 0.076281
v 0.020580 0.444977 0.076281
v 0.020580 0.444977 0.069635
v -0.004560 0.444977 0.076281
v -0.004560 0.444977 0.069635
v -0.004560 0.459924 0.069635
v -0.004560 0.444977 0.076281
v -0.004560 0.459924 0.076281
v -0.004560 0.444977 0.076281
v 0.020580 0.459924 0.076281
v -0.004560 0.459924 0.076281
v 0.020580 0.459924 0.076281
v -0.004560 0.444977 0.076281
v 0.020580 0.444977 0.076281
v -0.004560 0.444977 0.076281
v 0.020580 0.444977 0.069635
v 0.020580 0.444977 0.076281
vn 0 -1 0
vn -1 0 0
vn 1 0 0
vn 0 1 0
vn 0 0 -1
vn 0 0 1
usemtl material_0_0
f 1//1 2//1 3//1
f 4//2 5//2 6//2
f 7//3 8//3 9//3
f 10//1 11//1 12//1
f 13//2 14//2 15//2
f 16//4 17//4 18//4
f 19//3 20//3 21//3
f 22//5 23//5 24//5
f 25//5 26//5 27//5
f 28//4 29//4 30//4
usemtl material_1_0
f 31//4 32//4 33//4
f 34//3 35//3 36//3
f 37//2 38//2 39//2
f 40//4 41//4 42//4
f 43//3 44//3 45//3
f 46//1 47//1 48//1
f 49//2 50//2 51//2
f 52//6 53//6 54//6
f 55//6 56//6 57//6
f 58//1 59//1 60//1
