# SSTK version 0.8.0
# 20
mtllib original-20.mtl
o mesh2/mesh2-geometry/material_2/component_6#mesh2-geometry
v -0.035973 0.990113 0.040464
v -0.035911 0.971785 0.036447
v -0.035911 0.994374 0.036447
v -0.035911 0.994374 0.036447
v -0.035911 0.971785 0.036447
v -0.035973 0.990113 0.040464
v -0.035911 0.971785 0.036447
v -0.035973 0.990113 0.040464
v -0.035950 0.973646 0.038975
v -0.035950 0.973646 0.038975
v -0.035973 0.990113 0.040464
v -0.035911 0.971785 0.036447
v -0.035950 0.973646 0.038975
v -0.035973 0.990113 0.040464
v -0.035995 0.978747 0.041850
v -0.035995 0.978747 0.041850
v -0.035973 0.990113 0.040464
v -0.035950 0.973646 0.038975
v -0.035995 0.978747 0.041850
v -0.035973 0.990113 0.040464
v -0.036003 0.984579 0.042377
v -0.036003 0.984579 0.042377
v -0.035973 0.990113 0.040464
v -0.035995 0.978747 0.041850
vn 0.9998818592240201 0 0.015370998494463068
vn -0.9998818592240201 0 -0.015370998494463068
usemtl material_0_0
f 1//1 2//1 3//1
f 4//2 5//2 6//2
f 7//1 8//1 9//1
f 10//2 11//2 12//2
f 13//1 14//1 15//1
f 16//2 17//2 18//2
f 19//1 20//1 21//1
f 22//2 23//2 24//2
