# SSTK version 0.8.0
# 60
mtllib original-60.mtl
o mesh2/mesh2-geometry/material_4/component_19#mesh2-geometry
v -0.020869 0.644170 0.069635
v -0.020869 0.644170 0.076281
v -0.061090 0.644170 0.069635
v -0.061090 0.644170 0.076281
v -0.061090 0.644170 0.069635
v -0.020869 0.644170 0.076281
v -0.020869 0.644170 0.069635
v -0.020869 0.600934 0.069635
v -0.020869 0.644170 0.076281
v -0.061090 0.644170 0.076281
v -0.061090 0.600934 0.076281
v -0.061090 0.644170 0.069635
v -0.061090 0.644170 0.076281
v -0.020869 0.644170 0.076281
v -0.061090 0.600934 0.076281
v -0.020869 0.600934 0.076281
v -0.020869 0.644170 0.076281
v -0.020869 0.600934 0.069635
v -0.061090 0.600934 0.069635
v -0.061090 0.644170 0.069635
v -0.061090 0.600934 0.076281
v -0.020869 0.600934 0.076281
v -0.061090 0.600934 0.076281
v -0.020869 0.644170 0.076281
v -0.020869 0.600934 0.076281
v -0.020869 0.600934 0.069635
v -0.061090 0.600934 0.076281
v -0.061090 0.600934 0.069635
v -0.061090 0.600934 0.076281
v -0.020869 0.600934 0.069635
v -0.061090 0.644170 0.069635
v -0.020869 0.644170 0.076281
v -0.020869 0.644170 0.069635
v -0.020869 0.644170 0.076281
v -0.061090 0.644170 0.069635
v -0.061090 0.644170 0.076281
v -0.020869 0.644170 0.076281
v -0.020869 0.600934 0.069635
v -0.020869 0.644170 0.069635
v -0.061090 0.644170 0.069635
v -0.061090 0.600934 0.076281
v -0.061090 0.644170 0.076281
v -0.061090 0.600934 0.076281
v -0.020869 0.644170 0.076281
v -0.061090 0.644170 0.076281
v -0.020869 0.600934 0.069635
v -0.020869 0.644170 0.076281
v -0.020869 0.600934 0.076281
v -0.061090 0.600934 0.076281
v -0.061090 0.644170 0.069635
v -0.061090 0.600934 0.069635
v -0.020869 0.644170 0.076281
v -0.061090 0.600934 0.076281
v -0.020869 0.600934 0.076281
v -0.061090 0.600934 0.076281
v -0.020869 0.600934 0.069635
v -0.020869 0.600934 0.076281
v -0.020869 0.600934 0.069635
v -0.061090 0.600934 0.076281
v -0.061090 0.600934 0.069635
vn 0 -1 0
vn -1 0 0
vn 1 0 0
vn 0 0 -1
vn 0 1 0
vn 0 0 1
usemtl material_0_0
f 1//1 2//1 3//1
f 4//1 5//1 6//1
f 7//2 8//2 9//2
f 10//3 11//3 12//3
f 13//4 14//4 15//4
f 16//2 17//2 18//2
f 19//3 20//3 21//3
f 22//4 23//4 24//4
f 25//5 26//5 27//5
f 28//5 29//5 30//5
usemtl material_1_0
f 31//5 32//5 33//5
f 34//5 35//5 36//5
f 37//3 38//3 39//3
f 40//2 41//2 42//2
f 43//6 44//6 45//6
f 46//3 47//3 48//3
f 49//2 50//2 51//2
f 52//6 53//6 54//6
f 55//1 56//1 57//1
f 58//1 59//1 60//1
