# SSTK version 0.8.0
# 72
mtllib original-72.mtl
o mesh2/mesh2-geometry/material_4/component_31#mesh2-geometry
v -0.017130 -0.281321 0.069635
v -0.017130 -0.281321 0.076281
v 0.033150 -0.281321 0.069635
v 0.033150 -0.242659 0.069635
v 0.033150 -0.242659 0.076281
v -0.017130 -0.242659 0.069635
v 0.033150 -0.242659 0.069635
v 0.033150 -0.281321 0.069635
v 0.033150 -0.242659 0.076281
v 0.033150 -0.281321 0.076281
v 0.033150 -0.281321 0.069635
v -0.017130 -0.281321 0.076281
v -0.017130 -0.281321 0.069635
v -0.017130 -0.242659 0.069635
v -0.017130 -0.281321 0.076281
v -0.017130 -0.242659 0.076281
v -0.017130 -0.242659 0.069635
v 0.033150 -0.242659 0.076281
v 0.033150 -0.281321 0.076281
v 0.033150 -0.242659 0.076281
v 0.033150 -0.281321 0.069635
v 0.033150 -0.281321 0.076281
v -0.017130 -0.281321 0.076281
v 0.033150 -0.242659 0.076281
v -0.017130 -0.242659 0.076281
v -0.017130 -0.281321 0.076281
v -0.017130 -0.242659 0.069635
v -0.017130 -0.242659 0.076281
v 0.033150 -0.242659 0.076281
v -0.017130 -0.281321 0.076281
v 0.033150 -0.281321 0.069635
v -0.017130 -0.281321 0.076281
v -0.017130 -0.281321 0.069635
v -0.017130 -0.242659 0.069635
v 0.033150 -0.242659 0.076281
v 0.033150 -0.242659 0.069635
v 0.033150 -0.242659 0.076281
v 0.033150 -0.281321 0.069635
v 0.033150 -0.242659 0.069635
v -0.017130 -0.281321 0.076281
v 0.033150 -0.281321 0.069635
v 0.033150 -0.281321 0.076281
v -0.017130 -0.281321 0.076281
v -0.017130 -0.242659 0.069635
v -0.017130 -0.281321 0.069635
v 0.033150 -0.242659 0.076281
v -0.017130 -0.242659 0.069635
v -0.017130 -0.242659 0.076281
v 0.033150 -0.281321 0.069635
v 0.033150 -0.242659 0.076281
v 0.033150 -0.281321 0.076281
v 0.033150 -0.242659 0.076281
v -0.017130 -0.281321 0.076281
v 0.033150 -0.281321 0.076281
v -0.017130 -0.242659 0.069635
v -0.017130 -0.281321 0.076281
v -0.017130 -0.242659 0.076281
v -0.017130 -0.281321 0.076281
v 0.033150 -0.242659 0.076281
v -0.017130 -0.242659 0.076281
vn 0 1 0
vn 0 -1 0
vn -1 0 0
vn 1 0 0
vn 0 0 -1
vn 0 0 1
usemtl material_0_0
f 1//1 2//1 3//1
f 4//2 5//2 6//2
f 7//3 8//3 9//3
f 10//1 11//1 12//1
f 13//4 14//4 15//4
f 16//2 17//2 18//2
f 19//3 20//3 21//3
f 22//5 23//5 24//5
f 25//4 26//4 27//4
f 28//5 29//5 30//5
usemtl material_1_0
f 31//2 32//2 33//2
f 34//1 35//1 36//1
f 37//4 38//4 39//4
f 40//2 41//2 42//2
f 43//3 44//3 45//3
f 46//1 47//1 48//1
f 49//4 50//4 51//4
f 52//6 53//6 54//6
f 55//3 56//3 57//3
f 58//6 59//6 60//6
