# SSTK version 0.8.0
# 31
mtllib original-31.mtl
o mesh2/mesh2-geometry/material_2/component_17#mesh2-geometry
v 0.011694 0.977479 0.043664
v 0.011694 0.994374 0.043371
v 0.011694 0.977123 0.043371
v 0.011694 0.977123 0.043371
v 0.011694 0.994374 0.043371
v 0.011694 0.977479 0.043664
v 0.011694 0.994374 0.043371
v 0.011694 0.977479 0.043664
v 0.011694 0.988898 0.045496
v 0.011694 0.988898 0.045496
v 0.011694 0.977479 0.043664
v 0.011694 0.994374 0.043371
v 0.011694 0.988898 0.045496
v 0.011694 0.977479 0.043664
v 0.011694 0.983025 0.045598
v 0.011694 0.983025 0.045598
v 0.011694 0.977479 0.043664
v 0.011694 0.988898 0.045496
vn -1 0 0
vn -0.46705502544852767 0.0005950000318726785 -0.8842280526980791
vn -0.33732681566989475 -0.00046799975235345826 -0.941387486854505
vn 0.33732681566989475 0.00046799975235345826 0.941387486854505
vn 0.46705502544852767 -0.0005950000318726785 0.8842280526980791
vn 1 0 0
usemtl material_0_0
f 1//1 2//2 3//3
f 4//4 5//5 6//6
f 7//2 8//1 9//1
f 10//6 11//6 12//5
f 13//1 14//1 15//1
f 16//6 17//6 18//6
