# SSTK version 0.8.0
# 3
mtllib original-3.mtl
o mesh1/mesh1-geometry/material_0#mesh1-geometry
v 0.040301 -0.669764 -0.120257
v -0.026738 -0.680095 -0.121002
v -0.026738 -0.669764 -0.120257
v -0.026738 -0.680095 -0.121002
v 0.040301 -0.669764 -0.120257
v 0.040301 -0.680095 -0.121002
v -0.026738 -0.669764 -0.120257
v 0.040301 -0.668787 -0.133803
v 0.040301 -0.669764 -0.120257
v 0.040301 -0.680095 -0.121002
v -0.026738 -0.679118 -0.134548
v -0.026738 -0.680095 -0.121002
v 0.040301 -0.668787 -0.133803
v -0.026738 -0.669764 -0.120257
v -0.026738 -0.668787 -0.133803
v -0.026738 -0.679118 -0.134548
v 0.040301 -0.680095 -0.121002
v 0.040301 -0.679118 -0.134548
v -0.060258 -0.448903 -0.117948
v 0.040301 -0.668787 -0.133803
v -0.026738 -0.668787 -0.133803
v 0.040301 -0.689450 -0.135293
v -0.026738 -0.679118 -0.134548
v 0.040301 -0.679118 -0.134548
v -0.026738 -0.691777 -0.103013
v -0.026738 -0.689450 -0.135293
v -0.026738 -0.690738 -0.117424
v -0.060258 -0.448903 -0.117948
v 0.073821 -0.689450 -0.135293
v 0.040301 -0.668787 -0.133803
v -0.026738 -0.668787 -0.133803
v -0.060258 -0.689450 -0.135293
v -0.060258 -0.448903 -0.117948
v 0.040301 -0.690738 -0.117424
v 0.073821 -0.689450 -0.135293
v 0.040301 -0.691777 -0.103013
v -0.026738 -0.690738 -0.117424
v 0.040301 -0.689450 -0.135293
v 0.040301 -0.690738 -0.117424
v -0.026738 -0.679118 -0.134548
v 0.040301 -0.689450 -0.135293
v -0.026738 -0.689450 -0.135293
v 0.040301 -0.679118 -0.134548
v 0.073821 -0.689450 -0.135293
v 0.040301 -0.689450 -0.135293
v 0.040301 -0.689450 -0.135293
v -0.026738 -0.690738 -0.117424
v -0.026738 -0.689450 -0.135293
v -0.060258 -0.689450 -0.135293
v -0.026738 -0.679118 -0.134548
v -0.026738 -0.689450 -0.135293
v -0.060258 -0.691777 -0.103013
v -0.026738 -0.689450 -0.135293
v -0.026738 -0.691777 -0.103013
v 0.073821 -0.689450 -0.135293
v -0.060258 -0.448903 -0.117948
v 0.073821 -0.448903 -0.117948
v 0.040301 -0.668787 -0.133803
v 0.073821 -0.689450 -0.135293
v 0.040301 -0.679118 -0.134548
v -0.060258 -0.689450 -0.135293
v -0.026738 -0.668787 -0.133803
v -0.026738 -0.679118 -0.134548
v -0.060258 -0.691777 -0.103013
v -0.060258 -0.448903 -0.117948
v -0.060258 -0.689450 -0.135293
v 0.073821 -0.689450 -0.135293
v 0.040301 -0.690738 -0.117424
v 0.040301 -0.689450 -0.135293
v 0.040301 -0.691777 -0.103013
v 0.073821 -0.689450 -0.135293
v 0.073821 -0.691777 -0.103013
v -0.026738 -0.689450 -0.135293
v -0.060258 -0.691777 -0.103013
v -0.060258 -0.689450 -0.135293
v -0.060258 -0.448903 -0.117948
v 0.073821 -0.451231 -0.085668
v 0.073821 -0.448903 -0.117948
v 0.073821 -0.448903 -0.117948
v 0.073821 -0.691777 -0.103013
v 0.073821 -0.689450 -0.135293
v -0.060258 -0.448903 -0.117948
v -0.060258 -0.691777 -0.103013
v -0.060258 -0.451231 -0.085668
v 0.073821 -0.451231 -0.085668
v -0.060258 -0.448903 -0.117948
v -0.060258 -0.451231 -0.085668
v 0.073821 -0.691777 -0.103013
v 0.073821 -0.448903 -0.117948
v 0.073821 -0.451231 -0.085668
v -0.026738 -0.669764 -0.120257
v -0.026738 -0.680095 -0.121002
v 0.040301 -0.669764 -0.120257
v 0.040301 -0.680095 -0.121002
v 0.040301 -0.669764 -0.120257
v -0.026738 -0.680095 -0.121002
v 0.040301 -0.669764 -0.120257
v 0.040301 -0.668787 -0.133803
v -0.026738 -0.669764 -0.120257
v -0.026738 -0.680095 -0.121002
v -0.026738 -0.679118 -0.134548
v 0.040301 -0.680095 -0.121002
v -0.026738 -0.668787 -0.133803
v -0.026738 -0.669764 -0.120257
v 0.040301 -0.668787 -0.133803
v 0.040301 -0.679118 -0.134548
v 0.040301 -0.680095 -0.121002
v -0.026738 -0.679118 -0.134548
v -0.026738 -0.668787 -0.133803
v 0.040301 -0.668787 -0.133803
v -0.060258 -0.448903 -0.117948
v 0.040301 -0.679118 -0.134548
v -0.026738 -0.679118 -0.134548
v 0.040301 -0.689450 -0.135293
v -0.026738 -0.690738 -0.117424
v -0.026738 -0.689450 -0.135293
v -0.026738 -0.691777 -0.103013
v 0.040301 -0.668787 -0.133803
v 0.073821 -0.689450 -0.135293
v -0.060258 -0.448903 -0.117948
v -0.060258 -0.448903 -0.117948
v -0.060258 -0.689450 -0.135293
v -0.026738 -0.668787 -0.133803
v 0.040301 -0.691777 -0.103013
v 0.073821 -0.689450 -0.135293
v 0.040301 -0.690738 -0.117424
v 0.040301 -0.690738 -0.117424
v 0.040301 -0.689450 -0.135293
v -0.026738 -0.690738 -0.117424
v -0.026738 -0.689450 -0.135293
v 0.040301 -0.689450 -0.135293
v -0.026738 -0.679118 -0.134548
v 0.040301 -0.689450 -0.135293
v 0.073821 -0.689450 -0.135293
v 0.040301 -0.679118 -0.134548
v -0.026738 -0.689450 -0.135293
v -0.026738 -0.690738 -0.117424
v 0.040301 -0.689450 -0.135293
v -0.026738 -0.689450 -0.135293
v -0.026738 -0.679118 -0.134548
v -0.060258 -0.689450 -0.135293
v -0.026738 -0.691777 -0.103013
v -0.026738 -0.689450 -0.135293
v -0.060258 -0.691777 -0.103013
v 0.073821 -0.448903 -0.117948
v -0.060258 -0.448903 -0.117948
v 0.073821 -0.689450 -0.135293
v 0.040301 -0.679118 -0.134548
v 0.073821 -0.689450 -0.135293
v 0.040301 -0.668787 -0.133803
v -0.026738 -0.679118 -0.134548
v -0.026738 -0.668787 -0.133803
v -0.060258 -0.689450 -0.135293
v -0.060258 -0.689450 -0.135293
v -0.060258 -0.448903 -0.117948
v -0.060258 -0.691777 -0.103013
v 0.040301 -0.689450 -0.135293
v 0.040301 -0.690738 -0.117424
v 0.073821 -0.689450 -0.135293
v 0.073821 -0.691777 -0.103013
v 0.073821 -0.689450 -0.135293
v 0.040301 -0.691777 -0.103013
v -0.060258 -0.689450 -0.135293
v -0.060258 -0.691777 -0.103013
v -0.026738 -0.689450 -0.135293
v 0.073821 -0.448903 -0.117948
v 0.073821 -0.451231 -0.085668
v -0.060258 -0.448903 -0.117948
v 0.073821 -0.689450 -0.135293
v 0.073821 -0.691777 -0.103013
v 0.073821 -0.448903 -0.117948
v -0.060258 -0.451231 -0.085668
v -0.060258 -0.691777 -0.103013
v -0.060258 -0.448903 -0.117948
v -0.060258 -0.451231 -0.085668
v -0.060258 -0.448903 -0.117948
v 0.073821 -0.451231 -0.085668
v 0.073821 -0.451231 -0.085668
v 0.073821 -0.448903 -0.117948
v 0.073821 -0.691777 -0.103013
vn 0 0.07192201545532538 -0.9974102584658151
vn 0 -0.9974102584658151 -0.07192201545532538
vn 0 0.9974102584658151 0.07192201545532538
vn -1 0 0
vn 1 0 0
vn 0 -0.07192201545532538 0.9974102584658151
usemtl material_0_0
f 1//1 2//1 3//1
f 4//1 5//1 6//1
f 7//2 8//2 9//2
f 10//3 11//3 12//3
f 13//2 14//2 15//2
f 16//3 17//3 18//3
f 19//1 20//1 21//1
f 22//1 23//1 24//1
f 25//2 26//2 27//2
f 28//1 29//1 30//1
f 31//1 32//1 33//1
f 34//2 35//2 36//2
f 37//2 38//2 39//2
f 40//1 41//1 42//1
f 43//1 44//1 45//1
f 46//2 47//2 48//2
f 49//1 50//1 51//1
f 52//2 53//2 54//2
f 55//1 56//1 57//1
f 58//1 59//1 60//1
f 61//1 62//1 63//1
f 64//4 65//4 66//4
f 67//2 68//2 69//2
f 70//2 71//2 72//2
f 73//2 74//2 75//2
f 76//3 77//3 78//3
f 79//5 80//5 81//5
f 82//4 83//4 84//4
f 85//3 86//3 87//3
f 88//5 89//5 90//5
usemtl material_1_0
f 91//6 92//6 93//6
f 94//6 95//6 96//6
f 97//3 98//3 99//3
f 100//2 101//2 102//2
f 103//3 104//3 105//3
f 106//2 107//2 108//2
f 109//6 110//6 111//6
f 112//6 113//6 114//6
f 115//3 116//3 117//3
f 118//6 119//6 120//6
f 121//6 122//6 123//6
f 124//3 125//3 126//3
f 127//3 128//3 129//3
f 130//6 131//6 132//6
f 133//6 134//6 135//6
f 136//3 137//3 138//3
f 139//6 140//6 141//6
f 142//3 143//3 144//3
f 145//6 146//6 147//6
f 148//6 149//6 150//6
f 151//6 152//6 153//6
f 154//5 155//5 156//5
f 157//3 158//3 159//3
f 160//3 161//3 162//3
f 163//3 164//3 165//3
f 166//2 167//2 168//2
f 169//4 170//4 171//4
f 172//5 173//5 174//5
f 175//2 176//2 177//2
f 178//4 179//4 180//4
