# SSTK version 0.8.0
# 39
mtllib original-39.mtl
o mesh2/mesh2-geometry/material_3/component_0#mesh2-geometry
v 0.140861 -0.770851 -0.128410
v 0.140861 -0.918666 -0.117667
v 0.140861 -0.929996 -0.152639
v 0.140861 -0.918666 -0.117667
v 0.140861 -0.770851 -0.128410
v 0.140861 -0.611374 -0.106472
v 0.140861 -0.918666 -0.117667
v 0.140861 -0.611374 -0.106472
v 0.140861 -0.903153 -0.084339
v 0.140861 -0.903153 -0.084339
v 0.140861 -0.611374 -0.106472
v 0.140861 -0.451598 -0.086831
v 0.140861 -0.903153 -0.084339
v 0.140861 -0.451598 -0.086831
v 0.140861 -0.291556 -0.069489
v 0.140861 -0.903153 -0.084339
v 0.140861 -0.291556 -0.069489
v 0.140861 -0.883687 -0.053154
v 0.140861 -0.883687 -0.053154
v 0.140861 -0.291556 -0.069489
v 0.140861 -0.131281 -0.054450
v 0.140861 -0.883687 -0.053154
v 0.140861 -0.131281 -0.054450
v 0.140861 0.029194 -0.041718
v 0.140861 -0.883687 -0.053154
v 0.140861 0.029194 -0.041718
v 0.140861 -0.860561 -0.024578
v 0.140861 -0.860561 -0.024578
v 0.140861 0.029194 -0.041718
v 0.140861 0.189835 -0.031295
v 0.140861 -0.860561 -0.024578
v 0.140861 0.350609 -0.023183
v 0.140861 -0.834120 0.000962
v 0.140861 -0.860561 -0.024578
v 0.140861 0.189835 -0.031295
v 0.140861 0.350609 -0.023183
v 0.140861 -0.834120 0.000962
v 0.140861 0.350609 -0.023183
v 0.140861 0.511484 -0.017384
v 0.140861 -0.834120 0.000962
v 0.140861 0.994374 0.069635
v 0.140861 -0.804760 0.023083
v 0.140861 -0.834120 0.000962
v 0.140861 0.511484 -0.017384
v 0.140861 0.672425 -0.013900
v 0.140861 0.833399 -0.012730
v 0.140861 0.994374 0.069635
v 0.140861 -0.834120 0.000962
v 0.140861 -0.804760 0.023083
v 0.140861 0.994374 0.069635
v 0.140861 -0.772919 0.041456
v 0.140861 -0.834120 0.000962
v 0.140861 0.672425 -0.013900
v 0.140861 0.833399 -0.012730
v 0.140861 0.940189 -0.013490
v 0.140861 0.994374 0.069635
v 0.140861 0.833399 -0.012730
v 0.140861 -0.772919 0.041456
v 0.140861 0.994374 0.069635
v 0.140861 -0.739073 0.055805
v 0.140861 0.967281 -0.013682
v 0.140861 0.994374 0.069635
v 0.140861 0.940189 -0.013490
v 0.140861 -0.739073 0.055805
v 0.140861 0.994374 0.069635
v 0.140861 -0.703730 0.065915
v 0.140861 0.994374 0.069635
v 0.140861 0.967281 -0.013682
v 0.140861 0.994374 -0.013875
v 0.140861 -0.703730 0.065915
v 0.140861 0.994374 0.069635
v 0.140861 -0.594058 0.069635
v 0.140861 -0.703730 0.065915
v 0.140861 -0.594058 0.069635
v 0.140861 -0.667416 0.071636
v 0.140861 -0.667416 0.071636
v 0.140861 -0.594058 0.069635
v 0.140861 -0.630676 0.072883
v 0.140861 -0.929996 -0.152639
v 0.140861 -0.918666 -0.117667
v 0.140861 -0.770851 -0.128410
v 0.140861 -0.611374 -0.106472
v 0.140861 -0.770851 -0.128410
v 0.140861 -0.918666 -0.117667
v 0.140861 -0.903153 -0.084339
v 0.140861 -0.611374 -0.106472
v 0.140861 -0.918666 -0.117667
v 0.140861 -0.451598 -0.086831
v 0.140861 -0.611374 -0.106472
v 0.140861 -0.903153 -0.084339
v 0.140861 -0.291556 -0.069489
v 0.140861 -0.451598 -0.086831
v 0.140861 -0.903153 -0.084339
v 0.140861 -0.883687 -0.053154
v 0.140861 -0.291556 -0.069489
v 0.140861 -0.903153 -0.084339
v 0.140861 -0.131281 -0.054450
v 0.140861 -0.291556 -0.069489
v 0.140861 -0.883687 -0.053154
v 0.140861 0.029194 -0.041718
v 0.140861 -0.131281 -0.054450
v 0.140861 -0.883687 -0.053154
v 0.140861 -0.860561 -0.024578
v 0.140861 0.029194 -0.041718
v 0.140861 -0.883687 -0.053154
v 0.140861 0.189835 -0.031295
v 0.140861 0.029194 -0.041718
v 0.140861 -0.860561 -0.024578
v 0.140861 -0.834120 0.000962
v 0.140861 0.350609 -0.023183
v 0.140861 -0.860561 -0.024578
v 0.140861 0.350609 -0.023183
v 0.140861 0.189835 -0.031295
v 0.140861 -0.860561 -0.024578
v 0.140861 0.511484 -0.017384
v 0.140861 0.350609 -0.023183
v 0.140861 -0.834120 0.000962
v 0.140861 -0.804760 0.023083
v 0.140861 0.994374 0.069635
v 0.140861 -0.834120 0.000962
v 0.140861 0.672425 -0.013900
v 0.140861 0.511484 -0.017384
v 0.140861 -0.834120 0.000962
v 0.140861 -0.834120 0.000962
v 0.140861 0.994374 0.069635
v 0.140861 0.833399 -0.012730
v 0.140861 -0.772919 0.041456
v 0.140861 0.994374 0.069635
v 0.140861 -0.804760 0.023083
v 0.140861 0.833399 -0.012730
v 0.140861 0.672425 -0.013900
v 0.140861 -0.834120 0.000962
v 0.140861 0.833399 -0.012730
v 0.140861 0.994374 0.069635
v 0.140861 0.940189 -0.013490
v 0.140861 -0.739073 0.055805
v 0.140861 0.994374 0.069635
v 0.140861 -0.772919 0.041456
v 0.140861 0.940189 -0.013490
v 0.140861 0.994374 0.069635
v 0.140861 0.967281 -0.013682
v 0.140861 -0.703730 0.065915
v 0.140861 0.994374 0.069635
v 0.140861 -0.739073 0.055805
v 0.140861 0.994374 -0.013875
v 0.140861 0.967281 -0.013682
v 0.140861 0.994374 0.069635
v 0.140861 -0.594058 0.069635
v 0.140861 0.994374 0.069635
v 0.140861 -0.703730 0.065915
v 0.140861 -0.667416 0.071636
v 0.140861 -0.594058 0.069635
v 0.140861 -0.703730 0.065915
v 0.140861 -0.630676 0.072883
v 0.140861 -0.594058 0.069635
v 0.140861 -0.667416 0.071636
vn 1 0 0
vn -1 0 0
usemtl material_0_0
f 1//1 2//1 3//1
f 4//1 5//1 6//1
f 7//1 8//1 9//1
f 10//1 11//1 12//1
f 13//1 14//1 15//1
f 16//1 17//1 18//1
f 19//1 20//1 21//1
f 22//1 23//1 24//1
f 25//1 26//1 27//1
f 28//1 29//1 30//1
f 31//1 32//1 33//1
f 34//1 35//1 36//1
f 37//1 38//1 39//1
f 40//1 41//1 42//1
f 43//1 44//1 45//1
f 46//1 47//1 48//1
f 49//1 50//1 51//1
f 52//1 53//1 54//1
f 55//1 56//1 57//1
f 58//1 59//1 60//1
f 61//1 62//1 63//1
f 64//1 65//1 66//1
f 67//1 68//1 69//1
f 70//1 71//1 72//1
f 73//1 74//1 75//1
f 76//1 77//1 78//1
usemtl material_1_0
f 79//2 80//2 81//2
f 82//2 83//2 84//2
f 85//2 86//2 87//2
f 88//2 89//2 90//2
f 91//2 92//2 93//2
f 94//2 95//2 96//2
f 97//2 98//2 99//2
f 100//2 101//2 102//2
f 103//2 104//2 105//2
f 106//2 107//2 108//2
f 109//2 110//2 111//2
f 112//2 113//2 114//2
f 115//2 116//2 117//2
f 118//2 119//2 120//2
f 121//2 122//2 123//2
f 124//2 125//2 126//2
f 127//2 128//2 129//2
f 130//2 131//2 132//2
f 133//2 134//2 135//2
f 136//2 137//2 138//2
f 139//2 140//2 141//2
f 142//2 143//2 144//2
f 145//2 146//2 147//2
f 148//2 149//2 150//2
f 151//2 152//2 153//2
f 154//2 155//2 156//2
