# SSTK version 0.8.0
# 61
mtllib original-61.mtl
o mesh2/mesh2-geometry/material_4/component_20#mesh2-geometry
v 0.108569 -0.184666 0.069635
v 0.108569 -0.223328 0.069635
v 0.108569 -0.184666 0.076281
v 0.108569 -0.223328 0.076281
v 0.108569 -0.184666 0.076281
v 0.108569 -0.223328 0.069635
v 0.108569 -0.184666 0.069635
v 0.108569 -0.184666 0.076281
v 0.058289 -0.184666 0.069635
v 0.108569 -0.223328 0.076281
v 0.058289 -0.223328 0.076281
v 0.108569 -0.184666 0.076281
v 0.108569 -0.223328 0.076281
v 0.108569 -0.223328 0.069635
v 0.058289 -0.223328 0.076281
v 0.058289 -0.184666 0.076281
v 0.058289 -0.184666 0.069635
v 0.108569 -0.184666 0.076281
v 0.058289 -0.223328 0.069635
v 0.058289 -0.223328 0.076281
v 0.108569 -0.223328 0.069635
v 0.058289 -0.184666 0.076281
v 0.108569 -0.184666 0.076281
v 0.058289 -0.223328 0.076281
v 0.058289 -0.184666 0.076281
v 0.058289 -0.223328 0.076281
v 0.058289 -0.184666 0.069635
v 0.058289 -0.223328 0.069635
v 0.058289 -0.184666 0.069635
v 0.058289 -0.223328 0.076281
v 0.108569 -0.184666 0.076281
v 0.108569 -0.223328 0.069635
v 0.108569 -0.184666 0.069635
v 0.108569 -0.223328 0.069635
v 0.108569 -0.184666 0.076281
v 0.108569 -0.223328 0.076281
v 0.058289 -0.184666 0.069635
v 0.108569 -0.184666 0.076281
v 0.108569 -0.184666 0.069635
v 0.108569 -0.184666 0.076281
v 0.058289 -0.223328 0.076281
v 0.108569 -0.223328 0.076281
v 0.058289 -0.223328 0.076281
v 0.108569 -0.223328 0.069635
v 0.108569 -0.223328 0.076281
v 0.108569 -0.184666 0.076281
v 0.058289 -0.184666 0.069635
v 0.058289 -0.184666 0.076281
v 0.108569 -0.223328 0.069635
v 0.058289 -0.223328 0.076281
v 0.058289 -0.223328 0.069635
v 0.058289 -0.223328 0.076281
v 0.108569 -0.184666 0.076281
v 0.058289 -0.184666 0.076281
v 0.058289 -0.184666 0.069635
v 0.058289 -0.223328 0.076281
v 0.058289 -0.184666 0.076281
v 0.058289 -0.223328 0.076281
v 0.058289 -0.184666 0.069635
v 0.058289 -0.223328 0.069635
vn -1 0 0
vn 0 -1 0
vn 0 0 -1
vn 0 1 0
vn 1 0 0
vn 0 0 1
usemtl material_0_0
f 1//1 2//1 3//1
f 4//1 5//1 6//1
f 7//2 8//2 9//2
f 10//3 11//3 12//3
f 13//4 14//4 15//4
f 16//2 17//2 18//2
f 19//4 20//4 21//4
f 22//3 23//3 24//3
f 25//5 26//5 27//5
f 28//5 29//5 30//5
usemtl material_1_0
f 31//5 32//5 33//5
f 34//5 35//5 36//5
f 37//4 38//4 39//4
f 40//6 41//6 42//6
f 43//2 44//2 45//2
f 46//4 47//4 48//4
f 49//2 50//2 51//2
f 52//6 53//6 54//6
f 55//1 56//1 57//1
f 58//1 59//1 60//1
