# SSTK version 0.8.0
# 55
mtllib original-55.mtl
o mesh2/mesh2-geometry/material_4/component_14#mesh2-geometry
v 0.028345 0.817115 0.069635
v 0.028345 0.773879 0.069635
v 0.028345 0.817115 0.076281
v 0.028345 0.773879 0.076281
v 0.028345 0.817115 0.076281
v 0.028345 0.773879 0.069635
v -0.011027 0.817115 0.076281
v -0.011027 0.773879 0.076281
v -0.011027 0.817115 0.069635
v -0.011027 0.817115 0.076281
v 0.028345 0.817115 0.076281
v -0.011027 0.773879 0.076281
v 0.028345 0.773879 0.076281
v -0.011027 0.773879 0.076281
v 0.028345 0.817115 0.076281
v 0.028345 0.773879 0.076281
v 0.028345 0.773879 0.069635
v -0.011027 0.773879 0.076281
v -0.011027 0.773879 0.069635
v -0.011027 0.773879 0.076281
v 0.028345 0.773879 0.069635
v -0.011027 0.773879 0.069635
v -0.011027 0.817115 0.069635
v -0.011027 0.773879 0.076281
v 0.028345 0.817115 0.076281
v 0.028345 0.773879 0.069635
v 0.028345 0.817115 0.069635
v 0.028345 0.773879 0.069635
v 0.028345 0.817115 0.076281
v 0.028345 0.773879 0.076281
v -0.011027 0.817115 0.069635
v -0.011027 0.773879 0.076281
v -0.011027 0.817115 0.076281
v -0.011027 0.773879 0.076281
v 0.028345 0.817115 0.076281
v -0.011027 0.817115 0.076281
v 0.028345 0.817115 0.076281
v -0.011027 0.773879 0.076281
v 0.028345 0.773879 0.076281
v -0.011027 0.773879 0.076281
v 0.028345 0.773879 0.069635
v 0.028345 0.773879 0.076281
v 0.028345 0.773879 0.069635
v -0.011027 0.773879 0.076281
v -0.011027 0.773879 0.069635
v -0.011027 0.773879 0.076281
v -0.011027 0.817115 0.069635
v -0.011027 0.773879 0.069635
vn -1 0 0
vn 1 0 0
vn 0 0 -1
vn 0 1 0
vn 0 0 1
vn 0 -1 0
usemtl material_0_0
f 1//1 2//1 3//1
f 4//1 5//1 6//1
f 7//2 8//2 9//2
f 10//3 11//3 12//3
f 13//3 14//3 15//3
f 16//4 17//4 18//4
f 19//4 20//4 21//4
f 22//2 23//2 24//2
usemtl material_1_0
f 25//2 26//2 27//2
f 28//2 29//2 30//2
f 31//1 32//1 33//1
f 34//5 35//5 36//5
f 37//5 38//5 39//5
f 40//6 41//6 42//6
f 43//6 44//6 45//6
f 46//1 47//1 48//1
