# SSTK version 0.8.0
# 34
mtllib original-34.mtl
o mesh2/mesh2-geometry/material_2/component_20#mesh2-geometry
v 0.045203 0.994374 0.018061
v 0.045203 0.973538 0.018061
v 0.045199 0.974093 0.018080
v 0.045199 0.974093 0.018080
v 0.045203 0.973538 0.018061
v 0.045203 0.994374 0.018061
v 0.045203 0.994374 0.018061
v 0.045167 0.978104 0.014977
v 0.045203 0.973538 0.018061
v 0.045203 0.973538 0.018061
v 0.045167 0.978104 0.014977
v 0.045203 0.994374 0.018061
v 0.045166 0.989506 0.014885
v 0.045167 0.978104 0.014977
v 0.045203 0.994374 0.018061
v 0.045203 0.994374 0.018061
v 0.045167 0.978104 0.014977
v 0.045166 0.989506 0.014885
v 0.045167 0.978104 0.014977
v 0.045166 0.989506 0.014885
v 0.045154 0.983796 0.013803
v 0.045154 0.983796 0.013803
v 0.045166 0.989506 0.014885
v 0.045167 0.978104 0.014977
vn -0.5722466921565129 0.00011099993598521057 0.8200815270416371
vn 0.5722466921565129 -0.00011099993598521057 -0.8200815270416371
vn -0.9999368376562684 0.00007499999154376377 0.011238997863797846
vn 0.9999368376562684 -0.00007499999154376377 -0.011238997863797846
usemtl material_0_0
f 1//1 2//1 3//1
f 4//2 5//2 6//2
f 7//1 8//3 9//1
f 10//2 11//4 12//2
f 13//3 14//3 15//1
f 16//2 17//4 18//4
f 19//3 20//3 21//3
f 22//4 23//4 24//4
