# SSTK version 0.8.0
# 64
mtllib original-64.mtl
o mesh2/mesh2-geometry/material_4/component_23#mesh2-geometry
v -0.092550 -0.008228 0.069635
v -0.092550 0.042052 0.069635
v -0.092550 -0.008228 0.076281
v -0.092550 0.042052 0.076281
v -0.092550 -0.008228 0.076281
v -0.092550 0.042052 0.069635
v -0.092550 -0.008228 0.069635
v -0.092550 -0.008228 0.076281
v -0.042270 -0.008228 0.069635
v -0.092550 0.042052 0.076281
v -0.079077 0.042052 0.076281
v -0.092550 -0.008228 0.076281
v -0.092550 0.042052 0.076281
v -0.092550 0.042052 0.069635
v -0.079077 0.042052 0.076281
v -0.042270 -0.008228 0.076281
v -0.042270 -0.008228 0.069635
v -0.092550 -0.008228 0.076281
v -0.067410 0.026846 0.076281
v -0.092550 -0.008228 0.076281
v -0.079077 0.042052 0.076281
v -0.079077 0.042052 0.069635
v -0.079077 0.042052 0.076281
v -0.092550 0.042052 0.069635
v -0.042270 -0.008228 0.076281
v -0.042270 0.005244 0.076281
v -0.042270 -0.008228 0.069635
v -0.042270 -0.008228 0.076281
v -0.092550 -0.008228 0.076281
v -0.042270 0.005244 0.076281
v -0.042270 0.005244 0.069635
v -0.042270 -0.008228 0.069635
v -0.042270 0.005244 0.076281
v -0.063096 0.021225 0.076281
v -0.092550 -0.008228 0.076281
v -0.067410 0.026846 0.076281
v -0.067410 0.026846 0.076281
v -0.079077 0.042052 0.076281
v -0.067410 0.026846 0.069635
v -0.079077 0.042052 0.069635
v -0.067410 0.026846 0.069635
v -0.079077 0.042052 0.076281
v -0.042270 0.005244 0.076281
v -0.092550 -0.008228 0.076281
v -0.063096 0.021225 0.076281
v -0.042270 0.005244 0.069635
v -0.042270 0.005244 0.076281
v -0.063096 0.021225 0.069635
v -0.063096 0.021225 0.076281
v -0.067410 0.026846 0.076281
v -0.063096 0.021225 0.069635
v -0.067410 0.026846 0.069635
v -0.063096 0.021225 0.069635
v -0.067410 0.026846 0.076281
v -0.063096 0.021225 0.076281
v -0.063096 0.021225 0.069635
v -0.042270 0.005244 0.076281
v -0.092550 -0.008228 0.076281
v -0.092550 0.042052 0.069635
v -0.092550 -0.008228 0.069635
v -0.092550 0.042052 0.069635
v -0.092550 -0.008228 0.076281
v -0.092550 0.042052 0.076281
v -0.042270 -0.008228 0.069635
v -0.092550 -0.008228 0.076281
v -0.092550 -0.008228 0.069635
v -0.092550 -0.008228 0.076281
v -0.079077 0.042052 0.076281
v -0.092550 0.042052 0.076281
v -0.079077 0.042052 0.076281
v -0.092550 0.042052 0.069635
v -0.092550 0.042052 0.076281
v -0.092550 -0.008228 0.076281
v -0.042270 -0.008228 0.069635
v -0.042270 -0.008228 0.076281
v -0.079077 0.042052 0.076281
v -0.092550 -0.008228 0.076281
v -0.067410 0.026846 0.076281
v -0.092550 0.042052 0.069635
v -0.079077 0.042052 0.076281
v -0.079077 0.042052 0.069635
v -0.042270 -0.008228 0.069635
v -0.042270 0.005244 0.076281
v -0.042270 -0.008228 0.076281
v -0.042270 0.005244 0.076281
v -0.092550 -0.008228 0.076281
v -0.042270 -0.008228 0.076281
v -0.042270 0.005244 0.076281
v -0.042270 -0.008228 0.069635
v -0.042270 0.005244 0.069635
v -0.067410 0.026846 0.076281
v -0.092550 -0.008228 0.076281
v -0.063096 0.021225 0.076281
v -0.067410 0.026846 0.069635
v -0.079077 0.042052 0.076281
v -0.067410 0.026846 0.076281
v -0.079077 0.042052 0.076281
v -0.067410 0.026846 0.069635
v -0.079077 0.042052 0.069635
v -0.063096 0.021225 0.076281
v -0.092550 -0.008228 0.076281
v -0.042270 0.005244 0.076281
v -0.063096 0.021225 0.069635
v -0.042270 0.005244 0.076281
v -0.042270 0.005244 0.069635
v -0.063096 0.021225 0.069635
v -0.067410 0.026846 0.076281
v -0.063096 0.021225 0.076281
v -0.067410 0.026846 0.076281
v -0.063096 0.021225 0.069635
v -0.067410 0.026846 0.069635
v -0.042270 0.005244 0.076281
v -0.063096 0.021225 0.069635
v -0.063096 0.021225 0.076281
vn 1 0 0
vn 0 1 0
vn 0 0 -1
vn 0 -1 0
vn -1 0 0
vn -0.7933534231507682 -0.6087613210240594 0
vn -0.608761321024059 -0.7933534231507684 0
vn -0.7071067811865475 -0.7071067811865477 0
vn 0 0 1
vn 0.7933534231507682 0.6087613210240594 0
vn 0.7071067811865475 0.7071067811865477 0
vn 0.608761321024059 0.7933534231507684 0
usemtl material_0_0
f 1//1 2//1 3//1
f 4//1 5//1 6//1
f 7//2 8//2 9//2
f 10//3 11//3 12//3
f 13//4 14//4 15//4
f 16//2 17//2 18//2
f 19//3 20//3 21//3
f 22//4 23//4 24//4
f 25//5 26//5 27//5
f 28//3 29//3 30//3
f 31//5 32//5 33//5
f 34//3 35//3 36//3
f 37//6 38//6 39//6
f 40//6 41//6 42//6
f 43//3 44//3 45//3
f 46//7 47//7 48//8
f 49//8 50//6 51//8
f 52//6 53//8 54//6
f 55//8 56//8 57//7
usemtl material_1_0
f 58//5 59//5 60//5
f 61//5 62//5 63//5
f 64//4 65//4 66//4
f 67//9 68//9 69//9
f 70//2 71//2 72//2
f 73//4 74//4 75//4
f 76//9 77//9 78//9
f 79//2 80//2 81//2
f 82//1 83//1 84//1
f 85//9 86//9 87//9
f 88//1 89//1 90//1
f 91//9 92//9 93//9
f 94//10 95//10 96//10
f 97//10 98//10 99//10
f 100//9 101//9 102//9
f 103//11 104//12 105//12
f 106//11 107//10 108//11
f 109//10 110//11 111//10
f 112//12 113//11 114//11
