# SSTK version 0.8.0
# 20
mtllib original-20.mtl
o #ID139
v -0.387982 0.410145 -0.174333
v -0.394614 -0.375347 -0.129206
v -0.393733 -0.374574 -0.185252
v -0.388863 0.409372 -0.118287
v -0.621438 0.418752 -0.669922
v -0.537519 0.414748 -0.426343
v 0.553120 0.409889 -0.651590
v -0.565685 0.414804 -0.415582
v -0.590001 0.414740 -0.398143
v -0.608810 0.414559 -0.375216
v -0.620829 0.414273 -0.348363
v -0.625239 0.413903 -0.319413
v -0.627796 0.413168 -0.265263
v -0.507421 0.414574 -0.429694
v -0.621740 0.413472 -0.290340
v -0.610571 0.413012 -0.263124
v -0.626821 0.412900 -0.246551
v -0.592492 0.412552 -0.239621
v -0.623326 0.412618 -0.228119
v -0.568736 0.412125 -0.221433
v -0.617370 0.412326 -0.210282
v -0.540921 0.411759 -0.209798
v -0.609055 0.412030 -0.193347
v -0.510943 0.411480 -0.205509
v -0.571569 0.411162 -0.150740
v -0.387982 0.410145 -0.174333
v -0.585957 0.411443 -0.163319
v -0.388863 0.409372 -0.118287
v -0.555606 0.410897 -0.140081
v -0.538340 0.410651 -0.131524
v -0.520069 0.410430 -0.125216
v -0.501103 0.410236 -0.121264
v -0.481768 0.410073 -0.119737
v -0.397536 0.411780 -0.286840
v -0.121677 0.410396 -0.332636
v -0.393125 0.412151 -0.315790
v -0.124229 0.408155 -0.170216
v -0.409554 0.411495 -0.259987
v -0.428363 0.411314 -0.237060
v -0.452679 0.411249 -0.219621
v -0.480846 0.411306 -0.208860
v -0.598525 0.411734 -0.177603
v 0.158766 0.408280 -0.328259
v 0.545392 0.403102 -0.159765
v -0.477443 0.414294 -0.425406
v -0.462905 0.414103 -0.419324
v -0.449628 0.413928 -0.413770
v -0.425872 0.413501 -0.395582
v -0.407793 0.413042 -0.372079
v -0.396624 0.412581 -0.344864
v -0.395667 0.412463 -0.336912
v 0.156214 0.406038 -0.165839
vn 0.999849762767039 -0.007544930728687257 0.015605316882252853
vn 0.007327982724737936 0.9998763593322397 0.013912825654468297
usemtl material_0_0
f 1//1 2//1 3//1
f 2//1 1//1 4//1
f 5//2 6//2 7//2
f 6//2 5//2 8//2
f 8//2 5//2 9//2
f 9//2 5//2 10//2
f 10//2 5//2 11//2
f 11//2 5//2 12//2
f 12//2 5//2 13//2
f 7//2 6//2 14//2
f 12//2 13//2 15//2
f 15//2 13//2 16//2
f 16//2 13//2 17//2
f 16//2 17//2 18//2
f 18//2 17//2 19//2
f 18//2 19//2 20//2
f 20//2 19//2 21//2
f 20//2 21//2 22//2
f 22//2 21//2 23//2
f 22//2 23//2 24//2
f 25//2 26//2 27//2
f 26//2 25//2 28//2
f 28//2 25//2 29//2
f 28//2 29//2 30//2
f 28//2 30//2 31//2
f 28//2 31//2 32//2
f 28//2 32//2 33//2
f 34//2 35//2 36//2
f 35//2 34//2 37//2
f 37//2 34//2 38//2
f 37//2 38//2 39//2
f 37//2 39//2 40//2
f 37//2 40//2 41//2
f 37//2 41//2 24//2
f 37//2 24//2 23//2
f 37//2 23//2 26//2
f 26//2 23//2 42//2
f 26//2 42//2 27//2
f 7//2 43//2 44//2
f 43//2 7//2 45//2
f 45//2 7//2 14//2
f 43//2 45//2 46//2
f 43//2 46//2 47//2
f 43//2 47//2 48//2
f 43//2 48//2 49//2
f 43//2 49//2 50//2
f 43//2 50//2 51//2
f 43//2 51//2 35//2
f 35//2 51//2 36//2
f 44//2 43//2 52//2
