# SSTK version 0.8.0
# 12
mtllib original-12.mtl
o #ID64
v -0.222065 -0.234502 0.903924
v -0.269461 -0.163183 0.848093
v -0.221185 -0.233729 0.847878
v -0.270342 -0.163956 0.904139
v -0.297199 -0.082986 0.848764
v -0.298080 -0.083759 0.904810
v -0.221185 -0.233729 0.847878
v -0.265055 -0.159313 0.567670
v -0.216778 -0.229859 0.567455
v -0.269461 -0.163183 0.848093
v -0.155660 -0.289814 0.848134
v -0.156540 -0.290588 0.904180
v -0.302509 0.001399 0.849845
v -0.303390 0.000625 0.905891
v -0.292793 -0.079116 0.568341
v -0.297199 -0.082986 0.848764
v -0.151254 -0.285945 0.567710
v -0.155660 -0.289814 0.848134
v -0.077352 -0.327618 0.848842
v -0.078233 -0.328392 0.904888
v -0.285029 0.084219 0.851262
v -0.285909 0.083446 0.907309
v -0.298103 0.005268 0.569422
v -0.302509 0.001399 0.849845
v -0.072946 -0.323749 0.568419
v -0.077352 -0.327618 0.848842
v 0.008402 -0.344564 0.849956
v 0.007522 -0.345337 0.906002
v -0.245949 0.159832 0.852920
v -0.246829 0.159058 0.908966
v -0.280623 0.088089 0.570839
v -0.285029 0.084219 0.851262
v 0.012808 -0.340694 0.569532
v 0.008402 -0.344564 0.849956
v 0.095759 -0.339497 0.851398
v 0.094878 -0.340270 0.907444
v -0.187933 0.223083 0.854704
v -0.188814 0.222310 0.910750
v -0.241543 0.163701 0.572497
v -0.245949 0.159832 0.852920
v 0.100165 -0.335627 0.570975
v 0.095759 -0.339497 0.851398
v 0.177883 -0.313536 0.909118
v 0.178764 -0.312762 0.853071
v -0.115816 0.268890 0.912540
v -0.114935 0.269664 0.856494
v -0.183527 0.226953 0.574281
v -0.187933 0.223083 0.854704
v 0.178764 -0.312762 0.853071
v 0.183170 -0.308893 0.572648
v 0.250881 -0.266955 0.910907
v 0.251762 -0.266182 0.854861
v -0.032810 0.295625 0.914213
v -0.031930 0.296398 0.858167
v -0.114935 0.269664 0.856494
v -0.110529 0.273533 0.576071
v 0.251762 -0.266182 0.854861
v 0.256168 -0.262312 0.574438
v 0.309778 -0.202930 0.856646
v 0.308897 -0.203704 0.912691
v 0.055427 0.301465 0.859610
v 0.054546 0.300692 0.915656
v -0.031930 0.296398 0.858167
v -0.027523 0.300268 0.577744
v 0.314184 -0.199061 0.576222
v 0.309778 -0.202930 0.856646
v 0.348858 -0.127318 0.858303
v 0.347977 -0.128091 0.914349
v 0.141181 0.284519 0.860723
v 0.140300 0.283746 0.916769
v 0.059833 0.305335 0.579186
v 0.055427 0.301465 0.859610
v 0.353264 -0.123448 0.577880
v 0.348858 -0.127318 0.858303
v 0.366338 -0.044498 0.859721
v 0.365458 -0.045271 0.915767
v 0.219489 0.246715 0.861432
v 0.218608 0.245942 0.917478
v 0.145587 0.288389 0.580300
v 0.141181 0.284519 0.860723
v 0.370744 -0.040628 0.579297
v 0.366338 -0.044498 0.859721
v 0.361028 0.039887 0.860802
v 0.360148 0.039113 0.916848
v 0.285014 0.190630 0.861687
v 0.284133 0.189856 0.917733
v 0.223895 0.250585 0.581008
v 0.219489 0.246715 0.861432
v 0.365435 0.043757 0.580378
v 0.333290 0.120084 0.861472
v 0.332410 0.119311 0.917518
v 0.289420 0.194499 0.581264
v 0.285014 0.190630 0.861687
v 0.337696 0.123954 0.581049
v 0.333290 0.120084 0.861472
vt -2.448944 0.2856761
vt -2.471545 0.3537411
vt -2.48059 0.2931263
vt -2.4399 0.3462909
vt -2.307168 1.265243
vt -2.330031 1.332763
vt -2.338835 1.272548
vt -2.298364 1.325458
vt 0.7109879 -0.1842925
vt 0.6539684 -0.3840031
vt 0.7043431 -0.3864803
vt 0.6606132 -0.1818153
vt -2.63319 -0.7063659
vt -2.592073 -0.6530738
vt -2.62367 -0.6453016
vt -2.601593 -0.7141381
vt -2.181441 2.146879
vt -2.204424 2.214137
vt -2.213118 2.154119
vt -2.172748 2.206897
vt 0.6600592 -0.155113
vt 0.6041926 -0.3553418
vt 0.6545808 -0.3573547
vt 0.6096711 -0.1531001
vt 0.7530553 -0.4358009
vt 0.7119607 -0.2302643
vt 0.70272 -0.4322937
vt 0.762296 -0.2337714
vt -2.810191 -1.652113
vt -2.767965 -1.599596
vt -2.799402 -1.59086
vt -2.778754 -1.66085
vt -2.079561 2.857127
vt -2.102555 2.924443
vt -2.11124 2.864351
vt -2.070876 2.917219
vt 0.6094559 -0.1335042
vt 0.5541155 -0.3339622
vt 0.6045089 -0.3357668
vt 0.5590625 -0.1316996
vt 0.7954098 -0.5626674
vt 0.762331 -0.3548518
vt 0.7452725 -0.5560865
vt 0.8124683 -0.3614327
vt -3.84085 -2.004663
vt -3.783268 -1.985128
vt -3.807113 -1.957954
vt -3.817004 -2.031837
vt -2.007806 3.339855
vt -2.030714 3.407526
vt -2.039481 3.347106
vt -1.999039 3.400276
vt 0.5591392 -0.1146265
vt 0.5039365 -0.3151357
vt 0.5543311 -0.3168937
vt 0.5087446 -0.1128685
vt -0.2848489 -2.517523
vt -0.158558 -2.376228
vt -0.3057539 -2.460133
vt -0.137653 -2.433618
vt -2.535775 2.900821
vt -2.572939 2.842147
vt -2.54091 2.838015
vt -2.567803 2.904953
vt -1.968968 3.564817
vt -1.991694 3.633055
vt -2.000631 3.572148
vt -1.960031 3.625725
vt 0.5091502 -0.09557763
vt 0.4537491 -0.2959848
vt 0.5041416 -0.2978367
vt 0.4587577 -0.09372574
vt 0.8936616 -0.02183925
vt 0.8233893 0.1710015
vt 0.8436438 -0.02975353
vt 0.8734071 0.1789158
vt -2.434989 3.409666
vt -2.409789 3.341894
vt -2.403082 3.404251
vt -2.441696 3.347309
vt -1.993124 3.534788
vt -1.952261 3.58869
vt -1.9839 3.596189
vt -1.961485 3.527289
vt 0.4596608 -0.07333557
vt 0.4036483 -0.2734531
vt 0.4540343 -0.2755686
vt 0.4092748 -0.07122005
vt 0.9451205 0.01676134
vt 0.9048109 -0.1890887
vt 0.9551301 -0.1852037
vt 0.8948012 0.01287641
vt -2.374837 3.692419
vt -2.350105 3.624782
vt -2.342973 3.686621
vt -2.381969 3.63058
vt -2.009038 3.247965
vt -1.967698 3.301804
vt -1.999278 3.309683
vt -1.977458 3.240086
vt 0.4042207 -0.2446538
vt 0.3608099 -0.03982334
vt 0.353851 -0.2419906
vt 0.4111795 -0.04248661
vt 1.000396 -0.0391824
vt 0.9569849 -0.2440129
vt 1.007355 -0.2413496
vt 0.9500261 -0.04184567
vt -2.325888 3.719497
vt -2.365008 3.664209
vt -2.333164 3.658241
vt -2.357732 3.725464
vt -1.982633 2.716339
vt -2.002634 2.786983
vt -2.013996 2.725481
vt -1.971271 2.777841
vt 0.3555598 -0.1896987
vt 0.3152502 0.01615133
vt 0.3052405 -0.1858137
vt 0.3655694 0.0122664
vt 1.058392 -0.2728983
vt 1.002379 -0.07278085
vt 1.008005 -0.2750139
vt 1.052765 -0.07066533
vt -2.347575 3.487121
vt -2.386721 3.432443
vt -2.354886 3.426395
vt -2.379409 3.493169
vt -2.082128 -2.346537
vt -2.032704 -2.388479
vt -2.052554 -2.330549
vt -2.062278 -2.404467
vt 0.3361519 0.1707291
vt 0.2658796 -0.02211165
vt 0.3158974 -0.03002593
vt 0.2861342 0.1786434
vt 1.109124 -0.2955909
vt 1.053723 -0.09518367
vt 1.058732 -0.2974428
vt 1.104116 -0.09333178
vt -2.405182 2.994187
vt -2.444317 2.939881
vt -2.412486 2.933806
vt -2.437013 3.000263
vt -2.946018 -1.575261
vt -2.919639 -1.642144
vt -2.914026 -1.579807
vt -2.951632 -1.637599
vt 1.220132 -2.381769
vt 1.346423 -2.523065
vt 1.367328 -2.465675
vt 1.199227 -2.439159
vt 1.159771 -0.3149547
vt 1.104568 -0.1144455
vt 1.109376 -0.3167127
vt 1.154962 -0.1126874
vt -2.493284 2.272344
vt -2.532393 2.218089
vt -2.50056 2.212029
vt -2.525117 2.278403
vt -2.868565 -0.6115571
vt -2.843435 -0.6787212
vt -2.83667 -0.6170799
vt -2.87533 -0.6731983
vt 0.1956189 -0.3561936
vt 0.1625401 -0.5640091
vt 0.2126774 -0.5574282
vt 0.1454816 -0.3627745
vt 1.210425 -0.3340287
vt 1.155085 -0.1335707
vt 1.160032 -0.3358333
vt 1.205478 -0.1317662
vt -2.60302 1.379633
vt -2.642085 1.32508
vt -2.610243 1.319087
vt -2.634861 1.385626
vt -2.722554 0.3908587
vt -2.761511 0.3356839
vt -2.729653 0.3298364
vt -2.754413 0.3967061
vt 0.1451224 -0.2311753
vt 0.1040278 -0.4367119
vt 0.1543631 -0.4332048
vt 0.09478715 -0.2346825
vt 0.05121252 -0.3556757
vt -0.004654128 -0.1554468
vt 0.0008243453 -0.3576885
vt 0.04573405 -0.153434
vt 0.1022731 -0.3846151
vt 0.04525359 -0.1849045
vt 0.05189838 -0.3870923
vt 0.09562833 -0.1824273
vn -0.7440093848936981 -0.6678420420617983 -0.020905550574627355
vn -0.8929829108792662 -0.44963547716644836 -0.020235082181522476
vn -0.9803536638523862 -0.19641434143799888 -0.018113537718512287
vn -0.54685687502905 -0.8369837856186524 -0.020142016903274728
vn -0.9972439230862268 0.0727289360456261 -0.014664914908145001
vn -0.31664234509459976 -0.9483730210221373 -0.018062067720418684
vn -0.9418005568666201 0.3360185643943571 -0.0101604856222234
vn -0.06830273070070618 -0.9975542818549674 -0.014838858839112219
vn -0.8197873020296648 0.5726464854788926 -0.004978162270907501
vn 0.1838909426272442 -0.9828886942573581 -0.010674077043434585
vn -0.6428915085825021 0.7659571061036076 0.00046883035493337967
vn 0.4258362556604554 -0.9047816885036488 -0.005794783306514432
vn -0.4258362556604554 0.9047816885036488 0.005794783306514432
vn 0.6428915085825021 -0.7659571061036076 -0.00046883035493337967
vn -0.1838909426272442 0.9828886942573581 0.010674077043434585
vn 0.8197873020296648 -0.5726464854788926 0.004978162270907501
vn 0.06830273070070618 0.9975542818549674 0.014838858839112219
vn 0.9418005568666201 -0.3360185643943571 0.0101604856222234
vn 0.31664234509459976 0.9483730210221373 0.018062067720418684
vn 0.9972439230862268 -0.0727289360456261 0.014664914908145001
vn 0.54685687502905 0.8369837856186524 0.020142016903274728
vn 0.9803536638523862 0.19641434143799888 0.018113537718512287
vn 0.7440093848936981 0.6678420420617983 0.020905550574627355
vn 0.8929829108792662 0.44963547716644836 0.020235082181522476
usemtl material_0_0
f 1/1/1 2/2/2 3/3/1
f 2/2/2 1/1/1 4/4/2
f 4/5/2 5/6/3 2/7/2
f 5/6/3 4/5/2 6/8/3
f 7/9/1 8/10/2 9/11/1
f 8/10/2 7/9/1 10/12/2
f 11/13/4 1/14/1 3/15/1
f 1/14/1 11/13/4 12/16/4
f 6/17/3 13/18/5 5/19/3
f 13/18/5 6/17/3 14/20/5
f 10/21/2 15/22/3 8/23/2
f 15/22/3 10/21/2 16/24/3
f 17/25/4 7/26/1 9/27/1
f 7/26/1 17/25/4 18/28/4
f 19/29/6 12/30/4 11/31/4
f 12/30/4 19/29/6 20/32/6
f 14/33/5 21/34/7 13/35/5
f 21/34/7 14/33/5 22/36/7
f 16/37/3 23/38/5 15/39/3
f 23/38/5 16/37/3 24/40/5
f 25/41/6 18/42/4 17/43/4
f 18/42/4 25/41/6 26/44/6
f 27/45/8 20/46/6 19/47/6
f 20/46/6 27/45/8 28/48/8
f 22/49/7 29/50/9 21/51/7
f 29/50/9 22/49/7 30/52/9
f 24/53/5 31/54/7 23/55/5
f 31/54/7 24/53/5 32/56/7
f 33/57/8 26/58/6 25/59/6
f 26/58/6 33/57/8 34/60/8
f 35/61/10 28/62/8 27/63/8
f 28/62/8 35/61/10 36/64/10
f 30/65/9 37/66/11 29/67/9
f 37/66/11 30/65/9 38/68/11
f 32/69/7 39/70/9 31/71/7
f 39/70/9 32/69/7 40/72/9
f 41/73/10 34/74/8 33/75/8
f 34/74/8 41/73/10 42/76/10
f 43/77/12 35/78/10 44/79/12
f 35/78/10 43/77/12 36/80/10
f 37/81/11 45/82/13 46/83/13
f 45/82/13 37/81/11 38/84/11
f 40/85/9 47/86/11 39/87/9
f 47/86/11 40/85/9 48/88/11
f 49/89/12 41/90/10 50/91/12
f 41/90/10 49/89/12 42/92/10
f 51/93/14 44/94/12 52/95/14
f 44/94/12 51/93/14 43/96/12
f 46/97/13 53/98/15 54/99/15
f 53/98/15 46/97/13 45/100/13
f 47/101/11 55/102/13 56/103/13
f 55/102/13 47/101/11 48/104/11
f 57/105/14 50/106/12 58/107/14
f 50/106/12 57/105/14 49/108/12
f 59/109/16 51/110/14 52/111/14
f 51/110/14 59/109/16 60/112/16
f 53/113/15 61/114/17 54/115/15
f 61/114/17 53/113/15 62/116/17
f 56/117/13 63/118/15 64/119/15
f 63/118/15 56/117/13 55/120/13
f 65/121/16 57/122/14 58/123/14
f 57/122/14 65/121/16 66/124/16
f 67/125/18 60/126/16 59/127/16
f 60/126/16 67/125/18 68/128/18
f 62/129/17 69/130/19 61/131/17
f 69/130/19 62/129/17 70/132/19
f 63/133/15 71/134/17 64/135/15
f 71/134/17 63/133/15 72/136/17
f 73/137/18 66/138/16 65/139/16
f 66/138/16 73/137/18 74/140/18
f 75/141/20 68/142/18 67/143/18
f 68/142/18 75/141/20 76/144/20
f 70/145/19 77/146/21 69/147/19
f 77/146/21 70/145/19 78/148/21
f 72/149/17 79/150/19 71/151/17
f 79/150/19 72/149/17 80/152/19
f 81/153/20 74/154/18 73/155/18
f 74/154/18 81/153/20 82/156/20
f 83/157/22 76/158/20 75/159/20
f 76/158/20 83/157/22 84/160/22
f 78/161/21 85/162/23 77/163/21
f 85/162/23 78/161/21 86/164/23
f 80/165/19 87/166/21 79/167/19
f 87/166/21 80/165/19 88/168/21
f 89/169/22 82/170/20 81/171/20
f 82/170/20 89/169/22 83/172/22
f 90/173/24 84/174/22 83/175/22
f 84/174/22 90/173/24 91/176/24
f 85/177/23 91/178/24 90/179/24
f 91/178/24 85/177/23 86/180/23
f 88/181/21 92/182/23 87/183/21
f 92/182/23 88/181/21 93/184/23
f 94/185/24 83/186/22 89/187/22
f 83/186/22 94/185/24 95/188/24
f 92/189/23 95/190/24 94/191/24
f 95/190/24 92/189/23 93/192/23
