# SSTK version 0.8.0
# 8
mtllib original-8.mtl
o #ID29
v 0.670327 -0.375758 -0.660590
v -0.633547 -0.371551 -0.276183
v -0.627189 -0.365967 -0.680841
v 0.662599 -0.382545 -0.168765
v -0.632572 -0.371819 -0.257470
v -0.629077 -0.372101 -0.239038
v -0.623121 -0.372393 -0.221201
v -0.614807 -0.372689 -0.204266
v -0.393733 -0.374574 -0.185252
v -0.604276 -0.372986 -0.188522
v -0.591709 -0.373276 -0.174238
v -0.577320 -0.373557 -0.161659
v -0.394614 -0.375347 -0.129206
v -0.561357 -0.373822 -0.151000
v -0.544091 -0.374068 -0.142443
v -0.525820 -0.374289 -0.136135
v -0.506854 -0.374483 -0.132183
v -0.487519 -0.374646 -0.130656
vn -0.007327982724737936 -0.9998763593322397 -0.013912825654468297
usemtl material_0_0
f 1//1 2//1 3//1
f 2//1 1//1 4//1
f 2//1 4//1 5//1
f 5//1 4//1 6//1
f 6//1 4//1 7//1
f 7//1 4//1 8//1
f 8//1 4//1 9//1
f 8//1 9//1 10//1
f 10//1 9//1 11//1
f 9//1 12//1 11//1
f 12//1 9//1 13//1
f 12//1 13//1 14//1
f 14//1 13//1 15//1
f 15//1 13//1 16//1
f 16//1 13//1 17//1
f 17//1 13//1 18//1
