# SSTK version 0.8.0
# 22
mtllib original-22.mtl
o #ID151
v -0.195957 -0.064087 0.850616
v -0.187530 0.051682 0.852345
v -0.199633 -0.005661 0.851364
v -0.160472 0.104035 0.853493
v -0.176752 -0.119614 0.850151
v -0.120303 0.147829 0.854728
v -0.143326 -0.168458 0.850002
v -0.069761 0.180080 0.855968
v -0.097958 -0.207290 0.850179
v -0.012290 0.198591 0.857126
v -0.043739 -0.233465 0.850670
v 0.048194 0.202099 0.858125
v 0.015635 -0.245198 0.851441
v 0.107568 0.190366 0.858896
v 0.076119 -0.241690 0.852439
v 0.161787 0.164191 0.859387
v 0.133590 -0.223179 0.853598
v 0.207155 0.125359 0.859563
v 0.184132 -0.190928 0.854837
v 0.240581 0.076515 0.859415
v 0.224301 -0.147134 0.856073
v 0.259786 0.020988 0.858950
v 0.251359 -0.094781 0.857220
v 0.263463 -0.037438 0.858202
vt -0.9405278 0.306501
vt -0.9642224 0.5563425
vt -0.9675652 0.4295392
vt -0.9307272 0.6782694
vt -0.8849528 0.1956126
vt -0.8693623 0.7870107
vt -0.8046274 0.1044309
vt -0.7843095 0.8751559
vt -0.7050258 0.0391698
vt -0.6813651 0.9366981
vt -0.5929357 0.004276765
vt -0.5675446 0.9674433
vt -0.4759957 0.002129675
vt -0.4506046 0.9652962
vt -0.3621752 0.03287485
vt -0.3385145 0.9304032
vt -0.2592308 0.09441706
vt -0.2389129 0.8651421
vt -0.1741781 0.1825623
vt -0.1585876 0.7739604
vt -0.1128131 0.2913036
vt -0.1030125 0.663072
vt -0.07931793 0.4132305
vt -0.07597514 0.5400337
vn -0.0157083891672654 -0.013796383966919946 0.99978142926302
usemtl material_0_0
f 1/1/1 2/2/1 3/3/1
f 2/2/1 1/1/1 4/4/1
f 4/4/1 1/1/1 5/5/1
f 4/4/1 5/5/1 6/6/1
f 6/6/1 5/5/1 7/7/1
f 6/6/1 7/7/1 8/8/1
f 8/8/1 7/7/1 9/9/1
f 8/8/1 9/9/1 10/10/1
f 10/10/1 9/9/1 11/11/1
f 10/10/1 11/11/1 12/12/1
f 12/12/1 11/11/1 13/13/1
f 12/12/1 13/13/1 14/14/1
f 14/14/1 13/13/1 15/15/1
f 14/14/1 15/15/1 16/16/1
f 16/16/1 15/15/1 17/17/1
f 16/16/1 17/17/1 18/18/1
f 18/18/1 17/17/1 19/19/1
f 18/18/1 19/19/1 20/20/1
f 20/20/1 19/19/1 21/21/1
f 20/20/1 21/21/1 22/22/1
f 22/22/1 21/21/1 23/23/1
f 22/22/1 23/23/1 24/24/1
