# SSTK version 0.8.0
# 14
mtllib original-14.mtl
o #ID90
v 0.349442 0.134271 -0.166554
v 0.365435 0.043757 0.580378
v 0.377181 0.054073 -0.167224
v 0.337696 0.123954 0.581049
v 0.301166 0.204816 -0.166338
v 0.289420 0.194499 0.581264
v 0.370744 -0.040628 0.579297
v 0.382490 -0.030311 -0.168306
v 0.223895 0.250585 0.581008
v 0.235641 0.260902 -0.166594
v 0.353264 -0.123448 0.577880
v 0.365010 -0.113132 -0.169723
v 0.145587 0.288389 0.580300
v 0.157333 0.298706 -0.167303
v 0.314184 -0.199061 0.576222
v 0.325930 -0.188744 -0.171380
v 0.059833 0.305335 0.579186
v 0.071579 0.315651 -0.168416
v 0.256168 -0.262312 0.574438
v 0.267914 -0.251996 -0.173165
v -0.027523 0.300268 0.577744
v -0.015777 0.310584 -0.169859
v 0.194916 -0.298576 -0.174954
v 0.183170 -0.308893 0.572648
v -0.098783 0.283850 -0.171532
v -0.110529 0.273533 0.576071
v 0.111911 -0.325311 -0.176628
v 0.100165 -0.335627 0.570975
v -0.171781 0.237269 -0.173322
v -0.183527 0.226953 0.574281
v 0.012808 -0.340694 0.569532
v 0.024554 -0.330378 -0.178070
v -0.241543 0.163701 0.572497
v -0.229797 0.174018 -0.175106
v -0.072946 -0.323749 0.568419
v -0.061200 -0.313432 -0.179184
v -0.280623 0.088089 0.570839
v -0.268876 0.098405 -0.176763
v -0.151254 -0.285945 0.567710
v -0.139507 -0.275628 -0.179892
v -0.298103 0.005268 0.569422
v -0.286357 0.015585 -0.178181
v -0.216778 -0.229859 0.567455
v -0.205032 -0.219542 -0.180148
v -0.292793 -0.079116 0.568341
v -0.281047 -0.068799 -0.179262
v -0.253309 -0.148997 -0.179933
v -0.265055 -0.159313 0.567670
vn 0.8929829108792662 0.44963547716644836 0.020235082181522476
vn 0.9803536638523862 0.19641434143799888 0.018113537718512287
vn 0.7440093848936981 0.6678420420617983 0.020905550574627355
vn 0.9972439230862268 -0.0727289360456261 0.014664914908145001
vn 0.54685687502905 0.8369837856186524 0.020142016903274728
vn 0.9418005568666201 -0.3360185643943571 0.0101604856222234
vn 0.31664234509459976 0.9483730210221373 0.018062067720418684
vn 0.8197873020296648 -0.5726464854788926 0.004978162270907501
vn 0.06830273070070618 0.9975542818549674 0.014838858839112219
vn 0.6428915085825021 -0.7659571061036076 -0.00046883035493337967
vn -0.1838909426272442 0.9828886942573581 0.010674077043434585
vn 0.4258362556604554 -0.9047816885036488 -0.005794783306514432
vn -0.4258362556604554 0.9047816885036488 0.005794783306514432
vn 0.1838909426272442 -0.9828886942573581 -0.010674077043434585
vn -0.6428915085825021 0.7659571061036076 0.00046883035493337967
vn -0.06830273070070618 -0.9975542818549674 -0.014838858839112219
vn -0.8197873020296648 0.5726464854788926 -0.004978162270907501
vn -0.31664234509459976 -0.9483730210221373 -0.018062067720418684
vn -0.9418005568666201 0.3360185643943571 -0.0101604856222234
vn -0.54685687502905 -0.8369837856186524 -0.020142016903274728
vn -0.9972439230862268 0.0727289360456261 -0.014664914908145001
vn -0.7440093848936981 -0.6678420420617983 -0.020905550574627355
vn -0.9803536638523862 -0.19641434143799888 -0.018113537718512287
vn -0.8929829108792662 -0.44963547716644836 -0.020235082181522476
usemtl material_0_0
f 1//1 2//2 3//2
f 2//2 1//1 4//1
f 5//3 4//1 1//1
f 4//1 5//3 6//3
f 3//2 7//4 8//4
f 7//4 3//2 2//2
f 9//5 5//3 10//5
f 5//3 9//5 6//3
f 8//4 11//6 12//6
f 11//6 8//4 7//4
f 13//7 10//5 14//7
f 10//5 13//7 9//5
f 12//6 15//8 16//8
f 15//8 12//6 11//6
f 17//9 14//7 18//9
f 14//7 17//9 13//7
f 16//8 19//10 20//10
f 19//10 16//8 15//8
f 21//11 18//9 22//11
f 18//9 21//11 17//9
f 19//10 23//12 20//10
f 23//12 19//10 24//12
f 25//13 21//11 22//11
f 21//11 25//13 26//13
f 24//12 27//14 23//12
f 27//14 24//12 28//14
f 29//15 26//13 25//13
f 26//13 29//15 30//15
f 27//14 31//16 32//16
f 31//16 27//14 28//14
f 33//17 29//15 34//17
f 29//15 33//17 30//15
f 32//16 35//18 36//18
f 35//18 32//16 31//16
f 37//19 34//17 38//19
f 34//17 37//19 33//17
f 36//18 39//20 40//20
f 39//20 36//18 35//18
f 41//21 38//19 42//21
f 38//19 41//21 37//19
f 40//20 43//22 44//22
f 43//22 40//20 39//20
f 45//23 42//21 46//23
f 42//21 45//23 41//21
f 43//22 47//24 44//22
f 47//24 43//22 48//24
f 48//24 46//23 47//24
f 46//23 48//24 45//23
