# SSTK version 0.8.0
# 21
mtllib original-21.mtl
o #ID145
v -0.523350 0.413887 -0.371972
v -0.493313 0.413660 -0.371503
v -0.508301 0.413800 -0.373648
v -0.537434 0.413916 -0.366592
v -0.479405 0.413478 -0.365686
v -0.549592 0.413883 -0.357873
v -0.467527 0.413264 -0.356592
v -0.558996 0.413793 -0.346409
v -0.463963 0.413173 -0.351959
v -0.547861 0.413612 -0.339287
v -0.565005 0.413650 -0.332982
v -0.548741 0.412839 -0.283242
v -0.567211 0.413465 -0.318507
v -0.565461 0.413249 -0.303971
v -0.559876 0.413019 -0.290363
v -0.550837 0.412789 -0.278611
v -0.476802 0.412296 -0.282132
v -0.538959 0.412576 -0.269517
v -0.475491 0.412280 -0.281680
v -0.474079 0.412260 -0.280980
v -0.472574 0.412235 -0.279975
v -0.471012 0.412205 -0.278610
v -0.469459 0.412168 -0.276844
v -0.480930 0.412138 -0.268611
v -0.525052 0.412393 -0.263700
v -0.495014 0.412166 -0.263231
v -0.510063 0.412253 -0.261556
v -0.464183 0.412981 -0.337982
v -0.480930 0.412138 -0.268611
v -0.468001 0.412127 -0.274664
v -0.469459 0.412168 -0.276844
v -0.466736 0.412082 -0.272088
v -0.465763 0.412035 -0.269173
v -0.495014 0.412166 -0.263231
v -0.465163 0.411986 -0.266012
v -0.608810 0.414559 -0.375216
v -0.523350 0.413887 -0.371972
v -0.508301 0.413800 -0.373648
v -0.620829 0.414273 -0.348363
v -0.537434 0.413916 -0.366592
v -0.549592 0.413883 -0.357873
v -0.558996 0.413793 -0.346409
v -0.625239 0.413903 -0.319413
v -0.565005 0.413650 -0.332982
v -0.567211 0.413465 -0.318507
v -0.621740 0.413472 -0.290340
v -0.565461 0.413249 -0.303971
v -0.559876 0.413019 -0.290363
v -0.610571 0.413012 -0.263124
v -0.550837 0.412789 -0.278611
v -0.538959 0.412576 -0.269517
v -0.525052 0.412393 -0.263700
v -0.592492 0.412552 -0.239621
v -0.510063 0.412253 -0.261556
v -0.409554 0.411495 -0.259987
v -0.428363 0.411314 -0.237060
v -0.568736 0.412125 -0.221433
v -0.452679 0.411249 -0.219621
v -0.540921 0.411759 -0.209798
v -0.480846 0.411306 -0.208860
v -0.510943 0.411480 -0.205509
v -0.452903 0.412804 -0.331233
v -0.395667 0.412463 -0.336912
v -0.455618 0.412916 -0.337848
v -0.393125 0.412151 -0.315790
v -0.451154 0.412589 -0.316696
v -0.453359 0.412404 -0.302221
v -0.397536 0.411780 -0.286840
v -0.459368 0.412261 -0.288794
v -0.465065 0.412206 -0.281850
v -0.465279 0.412018 -0.268233
v -0.537519 0.414748 -0.426343
v -0.477443 0.414294 -0.425406
v -0.507421 0.414574 -0.429694
v -0.565685 0.414804 -0.415582
v -0.462905 0.414103 -0.419324
v -0.590001 0.414740 -0.398143
v -0.493313 0.413660 -0.371503
v -0.479405 0.413478 -0.365686
v -0.467527 0.413264 -0.356592
v -0.463963 0.413173 -0.351959
v -0.548741 0.412839 -0.283242
v -0.464183 0.412981 -0.337982
v -0.547861 0.413612 -0.339287
v -0.476802 0.412296 -0.282132
v -0.465065 0.412206 -0.281850
v -0.475491 0.412280 -0.281680
v -0.474079 0.412260 -0.280980
v -0.472574 0.412235 -0.279975
v -0.468772 0.412170 -0.277331
v -0.471012 0.412205 -0.278610
v -0.469459 0.412168 -0.276844
v -0.464183 0.412981 -0.337982
v -0.458488 0.413034 -0.344840
v -0.463963 0.413173 -0.351959
v -0.455618 0.412916 -0.337848
v -0.465065 0.412206 -0.281850
v -0.466736 0.412082 -0.272088
v -0.465279 0.412018 -0.268233
v -0.468772 0.412170 -0.277331
v -0.468001 0.412127 -0.274664
v -0.469459 0.412168 -0.276844
v -0.465763 0.412035 -0.269173
v -0.465163 0.411986 -0.266012
v -0.463963 0.413173 -0.351959
v -0.449628 0.413928 -0.413770
v -0.462905 0.414103 -0.419324
v -0.425872 0.413501 -0.395582
v -0.407793 0.413042 -0.372079
v -0.396624 0.412581 -0.344864
v -0.458488 0.413034 -0.344840
v -0.455618 0.412916 -0.337848
v -0.395667 0.412463 -0.336912
v -0.465065 0.412206 -0.281850
v -0.455618 0.412916 -0.337848
v -0.464183 0.412981 -0.337982
v -0.452903 0.412804 -0.331233
v -0.451154 0.412589 -0.316696
v -0.453359 0.412404 -0.302221
v -0.459368 0.412261 -0.288794
vn 0.007327982724737936 0.9998763593322397 0.013912825654468297
usemtl material_0_0
f 1//1 2//1 3//1
f 2//1 1//1 4//1
f 2//1 4//1 5//1
f 5//1 4//1 6//1
f 5//1 6//1 7//1
f 7//1 6//1 8//1
f 7//1 8//1 9//1
f 9//1 8//1 10//1
f 10//1 8//1 11//1
f 10//1 11//1 12//1
f 12//1 11//1 13//1
f 12//1 13//1 14//1
f 12//1 14//1 15//1
f 12//1 15//1 16//1
f 12//1 16//1 17//1
f 17//1 16//1 18//1
f 17//1 18//1 19//1
f 19//1 18//1 20//1
f 20//1 18//1 21//1
f 21//1 18//1 22//1
f 22//1 18//1 23//1
f 23//1 18//1 24//1
f 24//1 18//1 25//1
f 24//1 25//1 26//1
f 26//1 25//1 27//1
f 28//1 9//1 10//1
f 29//1 30//1 31//1
f 30//1 29//1 32//1
f 32//1 29//1 33//1
f 33//1 29//1 34//1
f 33//1 34//1 35//1
f 36//1 37//1 38//1
f 37//1 36//1 39//1
f 37//1 39//1 40//1
f 40//1 39//1 41//1
f 41//1 39//1 42//1
f 42//1 39//1 43//1
f 42//1 43//1 44//1
f 44//1 43//1 45//1
f 45//1 43//1 46//1
f 45//1 46//1 47//1
f 47//1 46//1 48//1
f 48//1 46//1 49//1
f 48//1 49//1 50//1
f 50//1 49//1 51//1
f 51//1 49//1 52//1
f 52//1 49//1 53//1
f 52//1 53//1 54//1
f 54//1 53//1 55//1
f 55//1 53//1 56//1
f 56//1 53//1 57//1
f 56//1 57//1 58//1
f 58//1 57//1 59//1
f 58//1 59//1 60//1
f 60//1 59//1 61//1
f 62//1 63//1 64//1
f 63//1 62//1 65//1
f 65//1 62//1 66//1
f 65//1 66//1 67//1
f 65//1 67//1 68//1
f 68//1 67//1 69//1
f 68//1 69//1 70//1
f 68//1 70//1 71//1
f 68//1 71//1 55//1
f 55//1 71//1 35//1
f 55//1 35//1 34//1
f 55//1 34//1 54//1
f 72//1 73//1 74//1
f 73//1 72//1 75//1
f 73//1 75//1 76//1
f 76//1 75//1 77//1
f 76//1 77//1 78//1
f 76//1 78//1 79//1
f 76//1 79//1 80//1
f 76//1 80//1 81//1
f 78//1 77//1 38//1
f 38//1 77//1 36//1
f 82//1 83//1 84//1
f 83//1 82//1 85//1
f 83//1 85//1 86//1
f 86//1 85//1 87//1
f 86//1 87//1 88//1
f 86//1 88//1 89//1
f 86//1 89//1 90//1
f 90//1 89//1 91//1
f 90//1 91//1 92//1
f 93//1 94//1 95//1
f 94//1 93//1 96//1
f 97//1 98//1 99//1
f 98//1 97//1 100//1
f 98//1 100//1 101//1
f 101//1 100//1 102//1
f 99//1 98//1 103//1
f 99//1 103//1 104//1
f 105//1 106//1 107//1
f 106//1 105//1 108//1
f 108//1 105//1 109//1
f 109//1 105//1 110//1
f 110//1 105//1 111//1
f 110//1 111//1 112//1
f 110//1 112//1 113//1
f 114//1 115//1 116//1
f 115//1 114//1 117//1
f 117//1 114//1 118//1
f 118//1 114//1 119//1
f 119//1 114//1 120//1
