# SSTK version 0.8.0
# 18
mtllib original-18.mtl
o #ID120
v 0.057483 0.341034 0.916259
v 0.159234 0.326615 0.581042
v 0.062769 0.345677 0.579789
v 0.153947 0.321972 0.917511
v -0.040784 0.335334 0.914636
v -0.035497 0.339978 0.578166
v 0.247321 0.284090 0.581839
v 0.242035 0.279447 0.918308
v -0.128870 0.309904 0.576284
v -0.134156 0.305261 0.912754
v 0.321030 0.220999 0.582126
v 0.315743 0.216356 0.918596
v -0.210985 0.257506 0.574271
v -0.216271 0.252863 0.910741
v 0.370049 0.137000 0.918354
v 0.375336 0.141643 0.581885
v -0.281533 0.181711 0.908733
v -0.276246 0.186355 0.572264
v 0.401252 0.046786 0.917599
v 0.406539 0.051429 0.581130
v -0.325493 0.096655 0.906869
v -0.320207 0.101299 0.570400
v 0.407225 -0.048137 0.916383
v 0.412511 -0.043494 0.579914
v -0.345157 0.003492 0.905274
v -0.339871 0.008134 0.568805
v 0.387561 -0.141301 0.914789
v 0.392848 -0.136658 0.578319
v -0.339184 -0.091432 0.904058
v -0.333898 -0.086789 0.567589
v 0.343601 -0.226357 0.912924
v 0.348887 -0.221714 0.576455
v -0.307981 -0.181646 0.903304
v -0.302695 -0.177002 0.566834
v 0.278339 -0.297508 0.910917
v 0.283625 -0.292865 0.574448
v -0.253675 -0.261002 0.903062
v -0.248389 -0.256359 0.566592
v 0.201511 -0.345263 0.572434
v 0.196224 -0.349906 0.908904
v -0.174680 -0.319449 0.566880
v -0.179967 -0.324092 0.903349
v 0.108138 -0.375337 0.570552
v 0.102852 -0.379980 0.907022
v -0.086592 -0.361975 0.567677
v -0.091879 -0.366618 0.904147
v 0.004585 -0.385680 0.905399
v 0.009872 -0.381037 0.568930
vn 0.06830273070070618 0.9975542818549674 0.014838858839112219
vn 0.31664234509459976 0.9483730210221373 0.018062067720418684
vn -0.1838909426272442 0.9828886942573581 0.010674077043434585
vn 0.54685687502905 0.8369837856186524 0.020142016903274728
vn -0.4258362556604554 0.9047816885036488 0.005794783306514432
vn 0.7440093848936981 0.6678420420617983 0.020905550574627355
vn -0.6428915085825021 0.7659571061036076 0.00046883035493337967
vn 0.8929829108792662 0.44963547716644836 0.020235082181522476
vn -0.8197873020296648 0.5726464854788926 -0.004978162270907501
vn 0.9803536638523862 0.19641434143799888 0.018113537718512287
vn -0.9418005568666201 0.3360185643943571 -0.0101604856222234
vn 0.9972439230862268 -0.0727289360456261 0.014664914908145001
vn -0.9972439230862268 0.0727289360456261 -0.014664914908145001
vn 0.9418005568666201 -0.3360185643943571 0.0101604856222234
vn -0.9803536638523862 -0.19641434143799888 -0.018113537718512287
vn 0.8197873020296648 -0.5726464854788926 0.004978162270907501
vn -0.8929829108792662 -0.44963547716644836 -0.020235082181522476
vn 0.6428915085825021 -0.7659571061036076 -0.00046883035493337967
vn -0.7440093848936981 -0.6678420420617983 -0.020905550574627355
vn 0.4258362556604554 -0.9047816885036488 -0.005794783306514432
vn -0.54685687502905 -0.8369837856186524 -0.020142016903274728
vn 0.1838909426272442 -0.9828886942573581 -0.010674077043434585
vn -0.31664234509459976 -0.9483730210221373 -0.018062067720418684
vn -0.06830273070070618 -0.9975542818549674 -0.014838858839112219
usemtl material_0_0
f 1//1 2//2 3//1
f 2//2 1//1 4//2
f 5//3 3//1 6//3
f 3//1 5//3 1//1
f 4//2 7//4 2//2
f 7//4 4//2 8//4
f 9//5 5//3 6//3
f 5//3 9//5 10//5
f 8//4 11//6 7//4
f 11//6 8//4 12//6
f 13//7 10//5 9//5
f 10//5 13//7 14//7
f 11//6 15//8 16//8
f 15//8 11//6 12//6
f 17//9 13//7 18//9
f 13//7 17//9 14//7
f 16//8 19//10 20//10
f 19//10 16//8 15//8
f 21//11 18//9 22//11
f 18//9 21//11 17//9
f 20//10 23//12 24//12
f 23//12 20//10 19//10
f 25//13 22//11 26//13
f 22//11 25//13 21//11
f 24//12 27//14 28//14
f 27//14 24//12 23//12
f 29//15 26//13 30//15
f 26//13 29//15 25//13
f 28//14 31//16 32//16
f 31//16 28//14 27//14
f 33//17 30//15 34//17
f 30//15 33//17 29//15
f 32//16 35//18 36//18
f 35//18 32//16 31//16
f 37//19 34//17 38//19
f 34//17 37//19 33//17
f 35//18 39//20 36//18
f 39//20 35//18 40//20
f 41//21 37//19 38//19
f 37//19 41//21 42//21
f 40//20 43//22 39//20
f 43//22 40//20 44//22
f 45//23 42//21 41//21
f 42//21 45//23 46//23
f 43//22 47//24 48//24
f 47//24 43//22 44//22
f 48//24 46//23 45//23
f 46//23 48//24 47//24
