# SSTK version 0.8.0
# 15
mtllib original-15.mtl
o #ID402
v -0.114158 0.001417 -0.499003
v -0.223079 0.001421 -0.503323
v -0.222434 0.001511 -0.502747
v -0.22563 0.01932 -0.453562
v -0.222346 0.001481 -0.500918
v -0.22563 0.01932 -0.453562
v -0.222346 0.001481 -0.500918
v -0.222434 0.001511 -0.502747
vt 0.03139158 -0.05393702
vt 0.01973376 -0.05393986
vt 0.01980581 -0.05400732
vt 0.0426144 -0.03642363
vt 0.04251997 -0.0363949
vt 0.04525211 -0.04212444
vt -0.02771882 0.05719678
vt -0.01615324 0.05650933
vt -0.01615814 0.05673176
vt 0.06267956 0.007045595
vt 0.05694307 0.009035857
vt 0.05672061 0.00903248
vn 0.0017285759729423283 0.9996856282127502 -0.025013131950736147
vn 0.08903753170341415 0.9641488420789035 -0.24997865562098084
vn 0.06410473356637332 0.9810682893510223 -0.18274461623873636
vn 0.16208183116390215 0.931151344094238 -0.3266292307771155
vn 0.0002922328816908049 0.99986334420876 0.01652898991523151
vn 0.9575317921155732 0.2853810758702226 -0.04111579529928958
usemtl material_0_0
f 1/1/1 2/2/2 3/3/3
f 3/4/3 2/5/2 4/6/4
f 1/7/1 3/8/3 5/9/5
f 6/10/6 7/11/6 8/12/6
