# SSTK version 0.8.0
# 18
mtllib original-18.mtl
o #ID429
v -0.235664 -0.07529 0.658507
v -0.235664 -0.07529 0.645709
v -0.236621 -0.07529 0.652108
v -0.232857 -0.07529 0.664471
v -0.232857 -0.07529 0.639745
v -0.228392 -0.07529 0.669592
v -0.228392 -0.07529 0.634624
v -0.222573 -0.07529 0.673521
v -0.222573 -0.07529 0.630695
v -0.215796 -0.07529 0.675991
v -0.215796 -0.07529 0.628225
v -0.208524 -0.07529 0.676834
v -0.208524 -0.07529 0.627383
v -0.201252 -0.07529 0.675991
v -0.201252 -0.07529 0.628225
v -0.194476 -0.07529 0.673521
v -0.194476 -0.07529 0.630695
v -0.188656 -0.07529 0.669592
v -0.188656 -0.07529 0.634624
v -0.184191 -0.07529 0.664471
v -0.184191 -0.07529 0.639745
v -0.181384 -0.07529 0.658507
v -0.181384 -0.07529 0.645709
v -0.180427 -0.07529 0.652108
v -0.180427 -0.07529 0.652108
v -0.181384 -0.07529 0.658507
v -0.181384 -0.07529 0.645709
v -0.184191 -0.07529 0.639745
v -0.184191 -0.07529 0.664471
v -0.188656 -0.07529 0.634624
v -0.188656 -0.07529 0.669592
v -0.194476 -0.07529 0.630695
v -0.194476 -0.07529 0.673521
v -0.201252 -0.07529 0.628225
v -0.201252 -0.07529 0.675991
v -0.208524 -0.07529 0.627383
v -0.208524 -0.07529 0.676834
v -0.215796 -0.07529 0.628225
v -0.215796 -0.07529 0.675991
v -0.222573 -0.07529 0.630695
v -0.222573 -0.07529 0.673521
v -0.228392 -0.07529 0.634624
v -0.228392 -0.07529 0.669592
v -0.232857 -0.07529 0.639745
v -0.232857 -0.07529 0.664471
v -0.235664 -0.07529 0.645709
v -0.235664 -0.07529 0.658507
v -0.236621 -0.07529 0.652108
v -0.184191 -0.07529 0.664471
v -0.181384 -0.065062 0.658507
v -0.181384 -0.07529 0.658507
v -0.184191 -0.065062 0.664471
v -0.184191 -0.065062 0.664471
v -0.184191 -0.07529 0.664471
v -0.181384 -0.065062 0.658507
v -0.181384 -0.07529 0.658507
v -0.180427 -0.065062 0.652108
v -0.180427 -0.07529 0.652108
v -0.180427 -0.065062 0.652108
v -0.180427 -0.07529 0.652108
v -0.181384 -0.065062 0.645709
v -0.181384 -0.07529 0.645709
v -0.181384 -0.065062 0.645709
v -0.181384 -0.07529 0.645709
v -0.184191 -0.065062 0.639745
v -0.184191 -0.07529 0.639745
v -0.184191 -0.065062 0.639745
v -0.184191 -0.07529 0.639745
v -0.188656 -0.065062 0.634624
v -0.188656 -0.07529 0.634624
v -0.188656 -0.065062 0.634624
v -0.188656 -0.07529 0.634624
v -0.194476 -0.07529 0.630695
v -0.194476 -0.065062 0.630695
v -0.194476 -0.07529 0.630695
v -0.194476 -0.065062 0.630695
v -0.201252 -0.07529 0.628225
v -0.201252 -0.065062 0.628225
v -0.201252 -0.07529 0.628225
v -0.201252 -0.065062 0.628225
v -0.208524 -0.07529 0.627383
v -0.208524 -0.065062 0.627383
v -0.208524 -0.07529 0.627383
v -0.208524 -0.065062 0.627383
v -0.215796 -0.07529 0.628225
v -0.215796 -0.065062 0.628225
v -0.215796 -0.07529 0.628225
v -0.215796 -0.065062 0.628225
v -0.222573 -0.07529 0.630695
v -0.222573 -0.065062 0.630695
v -0.222573 -0.07529 0.630695
v -0.222573 -0.065062 0.630695
v -0.228392 -0.07529 0.634624
v -0.228392 -0.065062 0.634624
v -0.228392 -0.07529 0.634624
v -0.228392 -0.065062 0.634624
v -0.232857 -0.065062 0.639745
v -0.232857 -0.07529 0.639745
v -0.232857 -0.07529 0.639745
v -0.232857 -0.065062 0.639745
v -0.235664 -0.065062 0.645709
v -0.235664 -0.07529 0.645709
v -0.235664 -0.07529 0.645709
v -0.235664 -0.065062 0.645709
v -0.236621 -0.065062 0.652108
v -0.236621 -0.07529 0.652108
v -0.236621 -0.07529 0.652108
v -0.236621 -0.065062 0.652108
v -0.235664 -0.065062 0.658507
v -0.235664 -0.07529 0.658507
v -0.235664 -0.07529 0.658507
v -0.235664 -0.065062 0.658507
v -0.232857 -0.065062 0.664471
v -0.232857 -0.07529 0.664471
v -0.232857 -0.07529 0.664471
v -0.232857 -0.065062 0.664471
v -0.228392 -0.065062 0.669592
v -0.228392 -0.07529 0.669592
v -0.228392 -0.07529 0.669592
v -0.228392 -0.065062 0.669592
v -0.222573 -0.07529 0.673521
v -0.222573 -0.065062 0.673521
v -0.222573 -0.07529 0.673521
v -0.222573 -0.065062 0.673521
v -0.215796 -0.07529 0.675991
v -0.215796 -0.065062 0.675991
v -0.215796 -0.07529 0.675991
v -0.215796 -0.065062 0.675991
v -0.208524 -0.07529 0.676834
v -0.208524 -0.065062 0.676834
v -0.208524 -0.07529 0.676834
v -0.208524 -0.065062 0.676834
v -0.201252 -0.07529 0.675991
v -0.201252 -0.065062 0.675991
v -0.201252 -0.07529 0.675991
v -0.201252 -0.065062 0.675991
v -0.194476 -0.07529 0.673521
v -0.194476 -0.065062 0.673521
v -0.194476 -0.07529 0.673521
v -0.194476 -0.065062 0.673521
v -0.188656 -0.07529 0.669592
v -0.188656 -0.065062 0.669592
v -0.188656 -0.07529 0.669592
v -0.188656 -0.065062 0.669592
vt -0.007258409 0.06547503
vt -0.007224287 0.06573421
vt -0.007224287 0.06521585
vt -0.007124247 0.06497433
vt -0.007124247 0.06597573
vt -0.006965105 0.06476693
vt -0.006965105 0.06618313
vt -0.006757709 0.06460779
vt -0.006757709 0.06634227
vt -0.00651619 0.06450775
vt -0.00651619 0.06644231
vt -0.006257009 0.06447363
vt -0.006257009 0.06647643
vt -0.005997827 0.06450775
vt -0.005997827 0.06644231
vt -0.005756309 0.06460779
vt -0.005756309 0.06634227
vt -0.005548912 0.06476693
vt -0.005548912 0.06618313
vt -0.005389771 0.06497433
vt -0.005389771 0.06597573
vt -0.005289731 0.06521585
vt -0.005289731 0.06573421
vt -0.005255609 0.06547503
vt 1.457168e-16 0
vt 1.457168e-16 0.0003645378
vt 0.0002621659 0
vt 0.0002621659 0.0003645378
vt 0.0005243318 0
vt 0.0005243318 0.0003645378
vt 0.0007864977 0
vt 0.0007864977 0.0003645378
vt 0.001048664 0
vt 0.001048664 0.0003645378
vt 0.001048664 -8.673617e-19
vt 0.001310829 -8.673617e-19
vt 0.001310829 0.0003645378
vt 0.001572995 0.0003645378
vt 0.001310829 0
vt 0.001572995 0
vt 0.001835161 0.0003645378
vt 0.001835161 0
vt 0.002097327 0.0003645378
vt 0.002097327 0
vt 0.002359493 0.0003645378
vt 0.002359493 0
vt 0.002621659 0.0003645378
vt 0.002621659 0
vt 0.002883825 0.0003645378
vt 0.002883825 0
vt 0.003145991 0.0003645378
vt 0.003145991 0
vt 0.003408157 0.0003645378
vt 0.003408157 0
vt 0.003670323 0.0003645378
vt 0.003670323 -8.673617e-19
vt 0.003408157 -8.673617e-19
vt 0.003932488 0.0003645378
vt 0.003932488 -8.673617e-19
vt 0.004194654 0.0003645378
vt 0.004194654 0
vt 0.003932488 0
vt 0.00445682 0.0003645378
vt 0.00445682 0
vt 0.004718986 0.0003645378
vt 0.004718986 0
vt 0.004981152 0.0003645378
vt 0.004981152 0
vt 0.005243318 0.0003645378
vt 0.005243318 0
vt 0.005505484 0.0003645378
vt 0.005505484 0
vt 0.00576765 0.0003645378
vt 0.00576765 0
vt 0.006029816 0.0003645378
vt 0.006029816 0
vt 0.006291982 0
vt 0.006291982 0.0003645378
vn 0.0 1.0 0.0
vn -0.8361131605395377 0.0 -0.5485570004772389
vn -0.9566366076293173 0.0 -0.2912840554226605
vn -1.0 0.0 0.0
vn -0.9566366076293173 0.0 0.2912840554226605
vn -0.8361131605395377 0.0 0.5485570004772389
vn -0.6606278948920246 0.0 0.7507135169227553
vn -0.45295881086666345 0.0 0.8915314440098332
vn -0.22950148128267628 0.0 0.9733083119387492
vn 0.0 0.0 1.0
vn 0.22950148128267628 0.0 0.9733083119387492
vn 0.45295881086666345 0.0 0.8915314440098332
vn 0.6606278948920246 0.0 0.7507135169227553
vn 0.8361131605395377 0.0 0.5485570004772389
vn 0.9566366076293173 0.0 0.2912840554226605
vn 1.0 0.0 0.0
vn 0.9566366076293173 0.0 -0.2912840554226605
vn 0.8361131605395377 0.0 -0.5485570004772389
vn 0.6606278948920246 0.0 -0.7507135169227553
vn 0.45295881086666345 0.0 -0.8915314440098332
vn 0.22950148128267628 0.0 -0.9733083119387492
vn 0.0 0.0 -1.0
vn -0.22950148128267628 0.0 -0.9733083119387492
vn -0.45295881086666345 0.0 -0.8915314440098332
vn -0.6606278948920246 0.0 -0.7507135169227553
vn 0.0 -1.0 0.0
usemtl material_0_0
f 1//1 2//1 3//1
f 2//1 1//1 4//1
f 2//1 4//1 5//1
f 5//1 4//1 6//1
f 5//1 6//1 7//1
f 7//1 6//1 8//1
f 7//1 8//1 9//1
f 9//1 8//1 10//1
f 9//1 10//1 11//1
f 11//1 10//1 12//1
f 11//1 12//1 13//1
f 13//1 12//1 14//1
f 13//1 14//1 15//1
f 15//1 14//1 16//1
f 15//1 16//1 17//1
f 17//1 16//1 18//1
f 17//1 18//1 19//1
f 19//1 18//1 20//1
f 19//1 20//1 21//1
f 21//1 20//1 22//1
f 21//1 22//1 23//1
f 23//1 22//1 24//1
f 49//2 50//3 51//3
f 50//3 49//2 52//2
f 51//3 57//4 58//4
f 57//4 51//3 50//3
f 58//4 61//5 62//5
f 61//5 58//4 57//4
f 62//5 65//6 66//6
f 65//6 62//5 61//5
f 66//6 69//7 70//7
f 69//7 66//6 65//6
f 73//8 69//7 74//8
f 69//7 73//8 70//7
f 77//9 74//8 78//9
f 74//8 77//9 73//8
f 81//10 78//9 82//10
f 78//9 81//10 77//9
f 85//11 82//10 86//11
f 82//10 85//11 81//10
f 89//12 86//11 90//12
f 86//11 89//12 85//11
f 93//13 90//12 94//13
f 90//12 93//13 89//12
f 97//14 93//13 94//13
f 93//13 97//14 98//14
f 101//15 98//14 97//14
f 98//14 101//15 102//15
f 105//16 102//15 101//15
f 102//15 105//16 106//16
f 109//17 106//16 105//16
f 106//16 109//17 110//17
f 113//18 110//17 109//17
f 110//17 113//18 114//18
f 117//19 114//18 113//18
f 114//18 117//19 118//19
f 121//20 117//19 122//20
f 117//19 121//20 118//19
f 125//21 122//20 126//21
f 122//20 125//21 121//20
f 129//22 126//21 130//22
f 126//21 129//22 125//21
f 133//23 130//22 134//23
f 130//22 133//23 129//22
f 137//24 134//23 138//24
f 134//23 137//24 133//23
f 141//25 138//24 142//25
f 138//24 141//25 137//24
f 141//25 52//2 49//2
f 52//2 141//25 142//25
usemtl material_1_0
f 25/1/26 26/2/26 27/3/26
f 27/3/26 26/2/26 28/4/26
f 26/2/26 29/5/26 28/4/26
f 28/4/26 29/5/26 30/6/26
f 29/5/26 31/7/26 30/6/26
f 30/6/26 31/7/26 32/8/26
f 31/7/26 33/9/26 32/8/26
f 32/8/26 33/9/26 34/10/26
f 33/9/26 35/11/26 34/10/26
f 34/10/26 35/11/26 36/12/26
f 35/11/26 37/13/26 36/12/26
f 36/12/26 37/13/26 38/14/26
f 37/13/26 39/15/26 38/14/26
f 38/14/26 39/15/26 40/16/26
f 39/15/26 41/17/26 40/16/26
f 40/16/26 41/17/26 42/18/26
f 41/17/26 43/19/26 42/18/26
f 42/18/26 43/19/26 44/20/26
f 43/19/26 45/21/26 44/20/26
f 44/20/26 45/21/26 46/22/26
f 45/21/26 47/23/26 46/22/26
f 48/24/26 46/22/26 47/23/26
f 53/25/14 54/26/14 55/27/15
f 56/28/15 55/27/15 54/26/14
f 55/27/15 56/28/15 59/29/16
f 60/30/16 59/29/16 56/28/15
f 59/29/16 60/30/16 63/31/17
f 64/32/17 63/31/17 60/30/16
f 63/31/17 64/32/17 67/33/18
f 68/34/18 67/33/18 64/32/17
f 67/35/18 68/34/18 71/36/19
f 72/37/19 71/36/19 68/34/18
f 72/37/19 75/38/20 71/39/19
f 76/40/20 71/39/19 75/38/20
f 75/38/20 79/41/21 76/40/20
f 80/42/21 76/40/20 79/41/21
f 79/41/21 83/43/22 80/42/21
f 84/44/22 80/42/21 83/43/22
f 83/43/22 87/45/23 84/44/22
f 88/46/23 84/44/22 87/45/23
f 87/45/23 91/47/24 88/46/23
f 92/48/24 88/46/23 91/47/24
f 91/47/24 95/49/25 92/48/24
f 96/50/25 92/48/24 95/49/25
f 99/51/2 100/52/2 95/49/25
f 96/50/25 95/49/25 100/52/2
f 103/53/3 104/54/3 99/51/2
f 100/52/2 99/51/2 104/54/3
f 107/55/4 108/56/4 103/53/3
f 104/57/3 103/53/3 108/56/4
f 111/58/5 112/59/5 107/55/4
f 108/56/4 107/55/4 112/59/5
f 115/60/6 116/61/6 111/58/5
f 112/62/5 111/58/5 116/61/6
f 119/63/7 120/64/7 115/60/6
f 116/61/6 115/60/6 120/64/7
f 119/63/7 123/65/8 120/64/7
f 124/66/8 120/64/7 123/65/8
f 123/65/8 127/67/9 124/66/8
f 128/68/9 124/66/8 127/67/9
f 127/67/9 131/69/10 128/68/9
f 132/70/10 128/68/9 131/69/10
f 131/69/10 135/71/11 132/70/10
f 136/72/11 132/70/10 135/71/11
f 135/71/11 139/73/12 136/72/11
f 140/74/12 136/72/11 139/73/12
f 139/73/12 143/75/13 140/74/12
f 144/76/13 140/74/12 143/75/13
f 144/76/13 143/75/13 53/77/14
f 54/78/14 53/77/14 143/75/13
