# SSTK version 0.8.0
# 12
mtllib original-12.mtl
o #ID384
v -0.275685 0.047448 0.617986
v -0.264719 0.03722 0.605409
v -0.264719 0.047448 0.605409
v -0.275685 0.03722 0.617986
v -0.283433 0.047448 0.634445
v -0.283433 0.03722 0.634445
v -0.264719 0.047448 0.605409
v -0.263361 0.03722 0.603852
v -0.263361 0.047448 0.603852
v -0.264719 0.03722 0.605409
v -0.284754 0.047448 0.643277
v -0.284754 0.03722 0.643277
v -0.2473 0.047448 0.593006
v -0.2473 0.03722 0.593006
v -0.228596 0.047448 0.586188
v -0.228596 0.03722 0.586188
v -0.208524 0.047448 0.583863
v -0.208524 0.03722 0.583863
v -0.188452 0.047448 0.586188
v -0.188452 0.03722 0.586188
v -0.169749 0.047448 0.593006
v -0.169749 0.03722 0.593006
v -0.153687 0.047448 0.603852
v -0.153687 0.03722 0.603852
v -0.141363 0.03722 0.617986
v -0.141363 0.047448 0.617986
v -0.133615 0.03722 0.634445
v -0.133615 0.047448 0.634445
vn 0.8361131605395377 0.0 0.5485570004772389
vn 0.7537101489771213 0.0 0.657206977541235
vn 0.9566366076293173 0.0 0.2912840554226605
vn 0.6606278948920246 0.0 0.7507135169227553
vn 0.9889935710031009 0.0 0.14795849591873547
vn 0.45295881086666345 0.0 0.8915314440098332
vn 0.22950148128267628 0.0 0.9733083119387492
vn 0.0 0.0 1.0
vn -0.22950148128267628 0.0 0.9733083119387492
vn -0.45295881086666345 0.0 0.8915314440098332
vn -0.6606278948920246 0.0 0.7507135169227553
vn -0.8361131605395377 0.0 0.5485570004772389
vn -0.9047807128956808 0.0 0.4258777542581717
usemtl material_0_0
f 1//1 2//2 3//2
f 2//2 1//1 4//1
f 5//3 4//1 1//1
f 4//1 5//3 6//3
f 7//2 8//4 9//4
f 8//4 7//2 10//2
f 11//5 6//3 5//3
f 6//3 11//5 12//5
f 8//4 13//6 9//4
f 13//6 8//4 14//6
f 14//6 15//7 13//6
f 15//7 14//6 16//7
f 16//7 17//8 15//7
f 17//8 16//7 18//8
f 18//8 19//9 17//8
f 19//9 18//8 20//9
f 20//9 21//10 19//9
f 21//10 20//9 22//10
f 22//10 23//11 21//10
f 23//11 22//10 24//11
f 25//12 23//11 24//11
f 23//11 25//12 26//12
f 27//13 26//12 25//12
f 26//12 27//13 28//13
