# SSTK version 0.8.0
# 23
mtllib original-23.mtl
o #ID475
v -0.235664 0.052562 0.658507
v -0.236171 0.052562 0.6491
v -0.236621 0.052562 0.652108
v -0.235664 0.052562 0.645709
v -0.232857 0.052562 0.664471
v -0.234519 0.052562 0.643277
v -0.232857 0.052562 0.639745
v -0.228392 0.052562 0.669592
v -0.228392 0.052562 0.634624
v -0.222573 0.052562 0.673521
v -0.222573 0.052562 0.630695
v -0.215796 0.052562 0.675991
v -0.215796 0.052562 0.628225
v -0.208524 0.052562 0.676834
v -0.208524 0.052562 0.627383
v -0.201252 0.052562 0.675991
v -0.201252 0.052562 0.628225
v -0.194476 0.052562 0.673521
v -0.194476 0.052562 0.630695
v -0.188656 0.052562 0.669592
v -0.188656 0.052562 0.634624
v -0.184191 0.052562 0.664471
v -0.184191 0.052562 0.639745
v -0.181384 0.052562 0.658507
v -0.182529 0.052562 0.643277
v -0.181384 0.052562 0.645709
v -0.180639 0.052562 0.650688
v -0.180427 0.052562 0.652108
vt -0.005289731 0.06573421
vt -0.005271646 0.06535321
vt -0.005255609 0.06547503
vt -0.005289731 0.06521585
vt -0.005389771 0.06597573
vt -0.005330532 0.06511735
vt -0.005389771 0.06497433
vt -0.005548912 0.06618313
vt -0.005548912 0.06476693
vt -0.005756309 0.06634227
vt -0.005756309 0.06460779
vt -0.005997827 0.06644231
vt -0.005997827 0.06450775
vt -0.006257009 0.06647643
vt -0.006257009 0.06447363
vt -0.00651619 0.06644231
vt -0.00651619 0.06450775
vt -0.006757709 0.06634227
vt -0.006757709 0.06460779
vt -0.006965105 0.06618313
vt -0.006965105 0.06476693
vt -0.007124247 0.06597573
vt -0.007124247 0.06497433
vt -0.007224287 0.06573421
vt -0.007183486 0.06511735
vt -0.007224287 0.06521585
vt -0.007250837 0.06541752
vt -0.007258409 0.06547503
vn 0.0 1.0 0.0
usemtl material_0_0
f 1/1/1 2/2/1 3/3/1
f 2/2/1 1/1/1 4/4/1
f 4/4/1 1/1/1 5/5/1
f 4/4/1 5/5/1 6/6/1
f 6/6/1 5/5/1 7/7/1
f 7/7/1 5/5/1 8/8/1
f 7/7/1 8/8/1 9/9/1
f 9/9/1 8/8/1 10/10/1
f 9/9/1 10/10/1 11/11/1
f 11/11/1 10/10/1 12/12/1
f 11/11/1 12/12/1 13/13/1
f 13/13/1 12/12/1 14/14/1
f 13/13/1 14/14/1 15/15/1
f 15/15/1 14/14/1 16/16/1
f 15/15/1 16/16/1 17/17/1
f 17/17/1 16/16/1 18/18/1
f 17/17/1 18/18/1 19/19/1
f 19/19/1 18/18/1 20/20/1
f 19/19/1 20/20/1 21/21/1
f 21/21/1 20/20/1 22/22/1
f 21/21/1 22/22/1 23/23/1
f 23/23/1 22/22/1 24/24/1
f 23/23/1 24/24/1 25/25/1
f 25/25/1 24/24/1 26/26/1
f 26/26/1 24/24/1 27/27/1
f 27/27/1 24/24/1 28/28/1
