# SSTK version 0.8.0
# 11
mtllib original-11.mtl
o Drill_Hole11/Drill_Hole/mesh1/mesh1-geometry#mesh1-geometry
v 0.150801 -0.126425 0.577047
v 0.151351 -0.126425 0.563243
v 0.150167 -0.126425 0.570109
v 0.153209 -0.126425 0.583585
v 0.154271 -0.126425 0.556918
v 0.157228 -0.126425 0.589277
v 0.158729 -0.126425 0.551563
v 0.162582 -0.126425 0.593735
v 0.164420 -0.126425 0.547545
v 0.168908 -0.126425 0.596655
v 0.170958 -0.126425 0.545137
v 0.175773 -0.126425 0.597838
v 0.177896 -0.126425 0.544503
v 0.182712 -0.126425 0.597204
v 0.184762 -0.126425 0.545686
v 0.189249 -0.126425 0.594796
v 0.191088 -0.126425 0.548607
v 0.194941 -0.126425 0.590778
v 0.196442 -0.126425 0.553064
v 0.199399 -0.126425 0.585424
v 0.200460 -0.126425 0.558756
v 0.202319 -0.126425 0.579098
v 0.202868 -0.126425 0.565294
v 0.203502 -0.126425 0.572232
vn 0 1 0
vn 0 -1 0
usemtl material_0_0
f 1//1 2//1 3//1
f 2//1 1//1 4//1
f 3//2 2//2 1//2
f 4//2 1//2 2//2
f 2//1 4//1 5//1
f 5//2 4//2 2//2
f 5//1 4//1 6//1
f 6//2 4//2 5//2
f 5//1 6//1 7//1
f 7//2 6//2 5//2
f 7//1 6//1 8//1
f 8//2 6//2 7//2
f 7//1 8//1 9//1
f 9//2 8//2 7//2
f 9//1 8//1 10//1
f 10//2 8//2 9//2
f 9//1 10//1 11//1
f 11//2 10//2 9//2
f 11//1 10//1 12//1
f 12//2 10//2 11//2
f 11//1 12//1 13//1
f 13//2 12//2 11//2
f 13//1 12//1 14//1
f 14//2 12//2 13//2
f 13//1 14//1 15//1
f 15//2 14//2 13//2
f 15//1 14//1 16//1
f 16//2 14//2 15//2
f 15//1 16//1 17//1
f 17//2 16//2 15//2
f 17//1 16//1 18//1
f 18//2 16//2 17//2
f 17//1 18//1 19//1
f 19//2 18//2 17//2
f 19//1 18//1 20//1
f 20//2 18//2 19//2
f 19//1 20//1 21//1
f 21//2 20//2 19//2
f 21//1 20//1 22//1
f 22//2 20//2 21//2
f 21//1 22//1 23//1
f 23//2 22//2 21//2
f 23//1 22//1 24//1
f 24//2 22//2 23//2
