# SSTK version 0.8.0
# 13
mtllib original-13.mtl
o Knife_Piece2/Knife_Piece/mesh2/mesh2-geometry#mesh2-geometry
v -0.112217 -0.082988 -0.531682
v -0.112217 0.001641 -0.482821
v -0.112217 -0.107066 -0.489978
v -0.112217 0.092452 -0.430391
v -0.112217 0.179701 -0.380018
v -0.112217 -0.022437 -0.441118
v -0.112217 0.068374 -0.388688
v -0.112217 -0.099141 -0.669637
v -0.112217 -0.154839 -0.573165
v -0.112217 0.305134 -0.348530
v -0.112217 0.300739 -0.352246
v -0.112217 0.759238 -0.045624
v -0.112217 0.297456 -0.356973
v -0.112217 0.310341 -0.346078
v -0.112217 0.275969 -0.324438
v -0.112217 0.295507 -0.362389
v -0.112217 0.316006 -0.345058
v -0.112217 0.989188 0.121542
v -0.112217 0.155623 -0.338314
v -0.112217 0.295027 -0.368124
v -0.112217 0.321741 -0.345538
v -0.112217 0.963715 0.125194
v -0.112217 0.296048 -0.373788
v -0.112217 0.327157 -0.347486
v -0.112217 0.251891 -0.282734
v -0.112217 0.298500 -0.378995
v -0.112217 0.331884 -0.350770
v -0.112217 0.938053 0.127095
v -0.112217 0.008036 -0.591722
v -0.112217 0.334777 -0.354193
v -0.112217 0.912320 0.127237
v -0.112217 -0.028224 -0.618082
v -0.112217 0.299322 -0.379968
v -0.112217 0.335599 -0.355165
v -0.112217 0.886638 0.125620
v -0.112217 -0.080956 -0.656417
v -0.112217 -0.010094 -0.604902
v -0.112217 0.338051 -0.360372
v -0.112217 0.861126 0.122250
v -0.108155 -0.080956 -0.656417
v -0.108155 0.008036 -0.591722
v -0.112217 0.302216 -0.383390
v -0.112217 0.835905 0.117144
v -0.108155 -0.099141 -0.669637
v -0.112217 -0.072591 -0.660393
v -0.108155 -0.010094 -0.604902
v -0.112217 0.009097 -0.605360
v -0.112217 0.339072 -0.366036
v -0.112217 0.811092 0.110324
v -0.108155 -0.086496 -0.674853
v -0.108155 -0.072591 -0.660393
v -0.108155 -0.008891 -0.614086
v -0.108155 0.009097 -0.605360
v -0.112217 0.306942 -0.386674
v -0.112217 0.786803 0.101825
v -0.112217 -0.086496 -0.674853
v -0.108155 -0.063615 -0.662674
v -0.112217 -0.008891 -0.614086
v -0.112217 0.007625 -0.618959
v -0.112217 0.338592 -0.371772
v -0.112217 0.697118 0.051928
v -0.112217 -0.073107 -0.677648
v -0.112217 -0.063615 -0.662674
v -0.108155 -0.009491 -0.623328
v -0.108155 0.007625 -0.618959
v -0.112217 0.312358 -0.388622
v -0.112217 0.763152 0.091684
v -0.108155 -0.073107 -0.677648
v -0.108155 -0.054366 -0.663172
v -0.112217 -0.009491 -0.623328
v -0.108155 0.003671 -0.632053
v -0.112217 0.336643 -0.377187
v -0.112217 0.718204 0.066677
v -0.112217 -0.059431 -0.677927
v -0.112217 -0.054366 -0.663172
v -0.108155 -0.011870 -0.632279
v -0.112217 0.003671 -0.632053
v -0.112217 0.318093 -0.389102
v -0.112217 0.740251 0.079950
v -0.108155 -0.059431 -0.677927
v -0.108155 -0.045196 -0.661870
v -0.112217 -0.011870 -0.632279
v -0.108155 -0.002629 -0.644195
v -0.108155 -0.015938 -0.640600
v -0.112217 0.333360 -0.381914
v -0.112217 -0.045939 -0.675679
v -0.112217 -0.045196 -0.661870
v -0.112217 -0.015938 -0.640600
v -0.112217 -0.002629 -0.644195
v -0.108155 -0.021541 -0.647974
v -0.112217 0.323758 -0.388082
v -0.108155 -0.045939 -0.675679
v -0.108155 -0.036453 -0.658815
v -0.108155 -0.011059 -0.654966
v -0.108155 -0.028467 -0.654124
v -0.112217 -0.021541 -0.647974
v -0.112217 0.328965 -0.385630
v -0.112217 -0.033092 -0.670983
v -0.112217 -0.036453 -0.658815
v -0.112217 -0.011059 -0.654966
v -0.112217 -0.028467 -0.654124
v -0.108155 -0.033092 -0.670983
v -0.108155 -0.021331 -0.663999
v -0.112217 -0.021331 -0.663999
vt 4.084646 7.037402
vt 4.084646 15.326316
vt 0 7.037402
vt 4.084646 24.220739
vt 4.084646 32.766275
vt 0 15.326316
vt 0 24.220739
vt 13.533465 0
vt 4.084646 0
vt 7.091371 43.315799
vt 7.177938 42.835347
vt 4.099516 89.519962
vt 7.385906 42.393671
vt 7.132104 43.802285
vt 4.084646 42.19517
vt 7.701102 42.020871
vt 7.29736 44.261652
vt 1.572269 113.501338
vt 0 32.766275
vt 8.102045 41.742352
vt 7.575879 44.662595
vt 0.223693 111.785045
vt 8.561412 41.577096
vt 7.948679 44.977791
vt 0 42.19517
vt 9.047898 41.536363
vt 8.390355 45.185758
vt -1.00437 109.980557
vt 12.355539 11.177492
vt 8.764516 45.253174
vt -2.106172 108.096319
vt 12.754048 7.395987
vt 9.154189 41.555515
vt 8.870807 45.272326
vt -3.076556 106.141153
vt 13.333598 1.89656
vt 12.554793 9.286739
vt 9.357293 45.231593
vt -3.910978 104.124211
vt 0 -1.418353
vt 0.344488 0.488709
vt 0 0.488709
vt 0 7.919812
vt 0.344488 9.821034
vt 0 9.821034
vt 9.52835 41.62293
vt -4.605534 102.054933
vt 0.344488 -1.418353
vt 0.344488 12.055209
vt 0 12.840816
vt 0 12.055209
vt 0.344488 7.919812
vt -0.344488 -6.325691
vt 0 -7.485924
vt 0 -6.325691
vt 9.81666 45.066337
vt -5.156971 99.943006
vt 0 10.72466
vt -0.344488 11.884893
vt -0.344488 10.72466
vt 13.980474 2.342351
vt 0.344488 12.840816
vt 0 -8.035712
vt 0.344488 -8.821319
vt 0.344488 -8.035712
vt 13.402287 10.677034
vt -0.344488 -7.485924
vt 9.970026 41.830898
vt -5.562708 97.798316
vt 0 11.884893
vt 14.452897 0.707662
vt 0.344488 12.219761
vt 0 11.434154
vt 0.344488 11.434154
vt 0 -8.821319
vt 13.280385 8.985584
vt -0.344488 -4.515924
vt 0 -5.676157
vt 0 -4.515924
vt 10.217603 44.787818
vt -5.701073 89.094022
vt 0 11.319599
vt -0.344488 10.159366
vt 0 10.159366
vt 14.528722 2.905025
vt 0 12.219761
vt 0 -6.059887
vt 0.344488 -6.845493
vt 0.344488 -6.059887
vt 13.93388 8.549555
vt -0.344488 -5.676157
vt 10.342826 42.146094
vt -5.820847 95.630902
vt -0.344488 11.319599
vt 15.226104 1.5727
vt 0.344488 11.150502
vt 0 10.364895
vt 0.344488 10.364895
vt 0 -6.845493
vt 14.338828 9.992174
vt -0.344488 -3.691683
vt 0 -2.53145
vt -0.344488 -2.53145
vt 10.532799 44.415018
vt -5.890192 91.268545
vt 0 10.386124
vt -0.344488 9.225891
vt 0 9.225891
vt 14.957565 3.563258
vt 0 11.150502
vt 0 -3.839524
vt 0.344488 -4.625131
vt 0.344488 -3.839524
vt 14.490514 7.995174
vt 0 -3.691683
vt 15.133054 9.146393
vt 10.621345 42.547037
vt -5.930179 93.45091
vt -0.344488 10.386124
vt 15.250752 4.292106
vt 0.344488 9.673559
vt 0 8.887952
vt 0.344488 8.887952
vt 0 -4.625131
vt -0.344488 -1.600535
vt 0 -0.440302
vt -0.344488 -0.440302
vt 14.92919 7.343453
vt 10.740766 43.973342
vt 0 9.116472
vt -0.344488 7.956239
vt 0 7.956239
vt 15.826577 2.56546
vt 0 9.673559
vt 0 -2.244377
vt 0.344488 -1.45877
vt 0 -1.45877
vt 0 -1.600535
vt 15.233285 6.619088
vt 15.757736 8.168685
vt 0.344488 -2.244377
vt 10.786601 43.006404
vt -0.344488 9.116472
vt 15.397172 5.063947
vt 0.344488 7.844904
vt 0 7.059297
vt 0.344488 7.059297
vt -0.344488 0.525595
vt 0 1.685828
vt -0.344488 1.685828
vt 15.391275 5.849532
vt 0 0.206547
vt 0.344488 0.992153
vt 0 0.992153
vt 0.344488 0.206547
vt 10.827334 43.49289
vt 0 7.55417
vt -0.344488 6.393937
vt 0 6.393937
vt 16.191459 7.09257
vt 16.233731 3.651907
vt 0 7.844904
vt 0 0.525595
vt 0.344488 3.420363
vt 0 2.634757
vt 0.344488 2.634757
vt 0 3.420363
vt -0.344488 7.55417
vt 16.419354 5.954939
vt 0.344488 5.733838
vt 0 4.948231
vt 0.344488 4.948231
vt -0.344488 2.613818
vt 0 3.774051
vt -0.344488 3.774051
vt 0 5.733838
vt 0 5.752777
vt -0.344488 4.592544
vt 0 4.592544
vt 16.433607 4.794793
vt 0 2.613818
vt -0.344488 5.752777
vn 1 0 0
vn -1 0 0
vn 0 -0.58800928219472 0.808854179721444
vn 0 0.58800928219472 -0.808854179721444
vn 0 0.42936839000549504 0.9031294401491344
vn 0 0.33942378956941593 0.9406335583394507
vn 0 -0.42936839000549504 -0.9031294401491344
vn 0 -0.33942378956941593 -0.9406335583394507
vn 0 0.9969891723708507 0.07754089356775723
vn 0 0.9998861259212305 -0.015090897595352804
vn 0 -0.9969891723708507 -0.07754089356775723
vn 0 -0.9998861259212305 0.015090897595352804
vn 0 -0.38131969446174513 -0.9244432327707317
vn 0 -0.29409898103443577 -0.9557749679472185
vn 0 0.38131969446174513 0.9244432327707317
vn 0 0.29409898103443577 0.9557749679472185
vn 0 -0.9915374039947245 -0.12982132521046977
vn 0 -0.9994654184405769 -0.03269368962663086
vn 0 0.9915374039947245 0.12982132521046977
vn 0 0.9994654184405769 0.03269368962663086
vn 0 0.1507471330051237 0.988572355414987
vn 0 -0.1507471330051237 -0.988572355414987
vn 0 0.9799644609559713 -0.19917242596120732
vn 0 -0.9799644609559713 0.19917242596120732
vn 0 -0.11285008220756271 -0.99361202636932
vn 0 0.11285008220756271 0.99361202636932
vn 0 -0.9868613256748705 0.1615695636165342
vn 0 0.9868613256748705 -0.1615695636165342
vn 0 -0.043642348018150354 0.9990472188337559
vn 0 0.043642348018150354 -0.9990472188337559
vn 0 0.9264468736795358 -0.3764255440979188
vn 0 -0.9264468736795358 0.3764255440979188
vn 0 0.07226730346669333 -0.9973853000970352
vn 0 -0.07226730346669333 0.9973853000970352
vn 0 -0.936858302767794 0.349709194238654
vn 0 0.936858302767794 -0.349709194238654
vn 0 -0.2363771482758763 0.9716613832879046
vn 0 0.2363771482758763 -0.9716613832879046
vn 0 0.8411680233916052 -0.5407738496113321
vn 0 -0.8411680233916052 0.5407738496113321
vn 0 0.25490765699932716 -0.9669654008304089
vn 0 -0.25490765699932716 0.9669654008304089
vn 0 -0.8513511526472843 0.5245962398703788
vn 0 0.8513511526472843 -0.5245962398703788
vn 0 -0.4201551282984878 0.9074522952555034
vn 0 0.4201551282984878 -0.9074522952555034
vn 0 0.7270517149807478 -0.686582699857456
vn 0 -0.7270517149807478 0.686582699857456
vn 0 -0.73358028114206 0.6796028039373709
vn 0 0.73358028114206 -0.6796028039373709
vn 0 0.4288090182101763 -0.9033951659720262
vn 0 -0.4288090182101763 0.9033951659720262
usemtl material_0_0
f 1/1/1 2/2/1 3/3/1
f 2/2/1 1/1/1 4/4/1
f 3/3/2 2/2/2 1/1/2
f 4/4/2 1/1/2 2/2/2
f 5/5/1 4/4/1 1/1/1
f 1/1/2 4/4/2 5/5/2
f 4/4/1 6/6/1 2/2/1
f 2/2/2 6/6/2 4/4/2
f 4/4/1 5/5/1 7/7/1
f 7/7/2 5/5/2 4/4/2
f 1/1/1 8/8/1 5/5/1
f 5/5/2 8/8/2 1/1/2
f 8/8/1 1/1/1 9/9/1
f 9/9/2 1/1/2 8/8/2
f 5/5/1 8/8/1 10/10/1
f 10/10/2 8/8/2 5/5/2
f 10/10/1 8/8/1 11/11/1
f 11/11/2 8/8/2 10/10/2
f 5/5/1 10/10/1 12/12/1
f 12/12/2 10/10/2 5/5/2
f 11/11/1 8/8/1 13/13/1
f 13/13/2 8/8/2 11/11/2
f 11/11/1 14/14/1 10/10/1
f 10/10/2 14/14/2 11/11/2
f 14/14/1 12/12/1 10/10/1
f 10/10/2 12/12/2 14/14/2
f 12/12/1 15/15/1 5/5/1
f 5/5/2 15/15/2 12/12/2
f 13/13/1 8/8/1 16/16/1
f 16/16/2 8/8/2 13/13/2
f 17/17/1 11/11/1 13/13/1
f 13/13/2 11/11/2 17/17/2
f 14/14/1 11/11/1 17/17/1
f 17/17/2 11/11/2 14/14/2
f 17/17/1 12/12/1 14/14/1
f 14/14/2 12/12/2 17/17/2
f 18/18/1 15/15/1 12/12/1
f 12/12/2 15/15/2 18/18/2
f 5/5/1 15/15/1 19/19/1
f 19/19/2 15/15/2 5/5/2
f 16/16/1 8/8/1 20/20/1
f 20/20/2 8/8/2 16/16/2
f 21/21/1 13/13/1 16/16/1
f 16/16/2 13/13/2 21/21/2
f 17/17/1 13/13/1 21/21/1
f 21/21/2 13/13/2 17/17/2
f 21/21/1 12/12/1 17/17/1
f 17/17/2 12/12/2 21/21/2
f 22/22/1 15/15/1 18/18/1
f 18/18/2 15/15/2 22/22/2
f 20/20/1 8/8/1 23/23/1
f 23/23/2 8/8/2 20/20/2
f 24/24/1 16/16/1 20/20/1
f 20/20/2 16/16/2 24/24/2
f 21/21/1 16/16/1 24/24/1
f 24/24/2 16/16/2 21/21/2
f 24/24/1 12/12/1 21/21/1
f 21/21/2 12/12/2 24/24/2
f 22/22/1 25/25/1 15/15/1
f 15/15/2 25/25/2 22/22/2
f 23/23/1 8/8/1 26/26/1
f 26/26/2 8/8/2 23/23/2
f 27/27/1 20/20/1 23/23/1
f 23/23/2 20/20/2 27/27/2
f 24/24/1 20/20/1 27/27/1
f 27/27/2 20/20/2 24/24/2
f 27/27/1 12/12/1 24/24/1
f 24/24/2 12/12/2 27/27/2
f 28/28/1 25/25/1 22/22/1
f 22/22/2 25/25/2 28/28/2
f 26/26/1 8/8/1 29/29/1
f 29/29/2 8/8/2 26/26/2
f 30/30/1 23/23/1 26/26/1
f 26/26/2 23/23/2 30/30/2
f 27/27/1 23/23/1 30/30/1
f 30/30/2 23/23/2 27/27/2
f 12/12/1 27/27/1 30/30/1
f 30/30/2 27/27/2 12/12/2
f 31/31/1 25/25/1 28/28/1
f 28/28/2 25/25/2 31/31/2
f 29/29/1 8/8/1 32/32/1
f 32/32/2 8/8/2 29/29/2
f 26/26/1 29/29/1 33/33/1
f 33/33/2 29/29/2 26/26/2
f 30/30/1 26/26/1 34/34/1
f 34/34/2 26/26/2 30/30/2
f 35/35/1 25/25/1 31/31/1
f 31/31/2 25/25/2 35/35/2
f 32/32/1 8/8/1 36/36/1
f 36/36/2 8/8/2 32/32/2
f 29/29/1 32/32/1 37/37/1
f 37/37/2 32/32/2 29/29/2
f 38/38/1 26/26/1 33/33/1
f 33/33/2 26/26/2 38/38/2
f 34/34/1 26/26/1 38/38/1
f 38/38/2 26/26/2 34/34/2
f 39/39/1 25/25/1 35/35/1
f 35/35/2 25/25/2 39/39/2
f 8/40/3 40/41/3 36/42/3
f 36/42/4 40/41/4 8/40/4
f 37/43/3 41/44/3 29/45/3
f 29/45/4 41/44/4 37/43/4
f 38/38/1 33/33/1 42/46/1
f 42/46/2 33/33/2 38/38/2
f 43/47/1 25/25/1 39/39/1
f 39/39/2 25/25/2 43/47/2
f 40/41/3 8/40/3 44/48/3
f 44/48/4 8/40/4 40/41/4
f 40/49/5 45/50/6 36/51/5
f 36/51/7 45/50/8 40/49/7
f 41/44/3 37/43/3 46/52/3
f 46/52/4 37/43/4 41/44/4
f 41/53/9 47/54/10 29/55/9
f 29/55/11 47/54/12 41/53/11
f 38/38/1 42/46/1 48/56/1
f 48/56/2 42/46/2 38/38/2
f 49/57/1 25/25/1 43/47/1
f 43/47/2 25/25/2 49/57/2
f 8/58/13 50/59/14 44/60/13
f 44/60/15 50/59/16 8/58/15
f 44/8/1 51/61/1 40/36/1
f 40/36/2 51/61/2 44/8/2
f 45/50/6 40/49/5 51/62/6
f 51/62/8 40/49/7 45/50/8
f 37/63/17 52/64/18 46/65/17
f 46/65/19 52/64/20 37/63/19
f 46/37/1 53/66/1 41/29/1
f 41/29/2 53/66/2 46/37/2
f 47/54/10 41/53/9 53/67/10
f 53/67/12 41/53/11 47/54/12
f 48/56/1 42/46/1 54/68/1
f 54/68/2 42/46/2 48/56/2
f 55/69/1 25/25/1 49/57/1
f 49/57/2 25/25/2 55/69/2
f 50/59/14 8/58/13 56/70/14
f 56/70/16 8/58/15 50/59/16
f 51/61/1 44/8/1 50/71/1
f 50/71/2 44/8/2 51/61/2
f 57/72/21 45/73/6 51/74/6
f 51/74/8 45/73/8 57/72/22
f 52/64/18 37/63/17 58/75/18
f 58/75/20 37/63/19 52/64/20
f 53/66/1 46/37/1 52/76/1
f 52/76/2 46/37/2 53/66/2
f 53/77/10 59/78/23 47/79/10
f 47/79/12 59/78/24 53/77/12
f 48/56/1 54/68/1 60/80/1
f 60/80/2 54/68/2 48/56/2
f 55/69/1 61/81/1 25/25/1
f 25/25/2 61/81/2 55/69/2
f 62/82/25 50/83/14 56/84/14
f 56/84/16 50/83/16 62/82/26
f 51/61/1 50/71/1 57/85/1
f 57/85/2 50/71/2 51/61/2
f 45/73/6 57/72/21 63/86/21
f 63/86/22 57/72/22 45/73/8
f 58/87/18 64/88/27 52/89/18
f 52/89/20 64/88/28 58/87/20
f 53/66/1 52/76/1 64/90/1
f 64/90/2 52/76/2 53/66/2
f 59/78/23 53/77/10 65/91/23
f 65/91/24 53/77/12 59/78/24
f 60/80/1 54/68/1 66/92/1
f 66/92/2 54/68/2 60/80/2
f 67/93/1 61/81/1 55/69/1
f 55/69/2 61/81/2 67/93/2
f 50/83/14 62/82/25 68/94/25
f 68/94/26 62/82/26 50/83/16
f 57/85/1 50/71/1 68/95/1
f 68/95/2 50/71/2 57/85/2
f 69/96/29 63/97/21 57/98/21
f 57/98/22 63/97/22 69/96/30
f 64/88/27 58/87/18 70/99/27
f 70/99/28 58/87/20 64/88/28
f 53/66/1 64/90/1 65/100/1
f 65/100/2 64/90/2 53/66/2
f 71/101/31 59/102/23 65/103/23
f 65/103/24 59/102/24 71/101/32
f 60/80/1 66/92/1 72/104/1
f 72/104/2 66/92/2 60/80/2
f 67/93/1 73/105/1 61/81/1
f 61/81/2 73/105/2 67/93/2
f 74/106/33 68/107/25 62/108/25
f 62/108/26 68/107/26 74/106/34
f 57/85/1 68/95/1 69/109/1
f 69/109/2 68/95/2 57/85/2
f 63/97/21 69/96/29 75/110/29
f 75/110/30 69/96/30 63/97/22
f 70/111/27 76/112/35 64/113/27
f 64/113/28 76/112/36 70/111/28
f 65/100/1 64/90/1 76/114/1
f 76/114/2 64/90/2 65/100/2
f 59/102/23 71/101/31 77/115/31
f 77/115/32 71/101/32 59/102/24
f 65/100/1 76/114/1 71/116/1
f 71/116/2 76/114/2 65/100/2
f 72/104/1 66/92/1 78/117/1
f 78/117/2 66/92/2 72/104/2
f 73/105/1 67/93/1 79/118/1
f 79/118/2 67/93/2 73/105/2
f 68/107/25 74/106/33 80/119/33
f 80/119/34 74/106/34 68/107/26
f 69/109/1 68/95/1 81/120/1
f 81/120/2 68/95/2 69/109/2
f 81/121/37 75/122/29 69/123/29
f 69/123/30 75/122/30 81/121/38
f 76/112/35 70/111/27 82/124/35
f 82/124/36 70/111/28 76/112/36
f 83/125/39 77/126/31 71/127/31
f 71/127/32 77/126/32 83/125/40
f 71/116/1 76/114/1 84/128/1
f 84/128/2 76/114/2 71/116/2
f 72/104/1 78/117/1 85/129/1
f 85/129/2 78/117/2 72/104/2
f 86/130/41 80/131/33 74/132/33
f 74/132/34 80/131/34 86/130/42
f 81/120/1 68/95/1 80/133/1
f 80/133/2 68/95/2 81/120/2
f 75/122/29 81/121/37 87/134/37
f 87/134/38 81/121/38 75/122/30
f 88/135/43 76/136/35 82/137/35
f 82/137/36 76/136/36 88/135/44
f 77/126/31 83/125/39 89/138/39
f 89/138/40 83/125/40 77/126/32
f 71/116/1 90/139/1 83/140/1
f 83/140/2 90/139/2 71/116/2
f 76/136/35 88/135/43 84/141/43
f 84/141/44 88/135/44 76/136/36
f 71/116/1 84/128/1 90/139/1
f 90/139/2 84/128/2 71/116/2
f 85/129/1 78/117/1 91/142/1
f 91/142/2 78/117/2 85/129/2
f 80/131/33 86/130/41 92/143/41
f 92/143/42 86/130/42 80/131/34
f 81/120/1 80/133/1 93/144/1
f 93/144/2 80/133/2 81/120/2
f 93/145/45 87/146/37 81/147/37
f 81/147/38 87/146/38 93/145/46
f 94/148/47 89/149/39 83/150/39
f 83/150/40 89/149/40 94/148/48
f 83/140/1 90/139/1 95/151/1
f 95/151/2 90/139/2 83/140/2
f 96/152/49 84/153/43 88/154/43
f 88/154/44 84/153/44 96/152/50
f 84/153/43 96/152/49 90/155/49
f 90/155/50 96/152/50 84/153/44
f 85/129/1 91/142/1 97/156/1
f 97/156/2 91/142/2 85/129/2
f 98/157/51 92/158/41 86/159/41
f 86/159/42 92/158/42 98/157/52
f 94/160/1 80/133/1 92/161/1
f 92/161/2 80/133/2 94/160/2
f 93/144/1 80/133/1 83/140/1
f 83/140/2 80/133/2 93/144/2
f 87/146/37 93/145/45 99/162/45
f 99/162/46 93/145/46 87/146/38
f 89/149/39 94/148/47 100/163/47
f 100/163/48 94/148/48 89/149/40
f 83/140/1 80/133/1 94/160/1
f 94/160/2 80/133/2 83/140/2
f 90/164/49 101/165/3 95/166/3
f 95/166/4 101/165/4 90/164/50
f 83/140/1 95/151/1 93/144/1
f 93/144/2 95/151/2 83/140/2
f 101/165/3 90/164/49 96/167/49
f 96/167/50 90/164/50 101/165/4
f 92/158/41 98/157/51 102/168/51
f 102/168/52 98/157/52 92/158/42
f 94/160/1 92/161/1 103/169/1
f 103/169/2 92/161/2 94/160/2
f 95/170/3 99/171/45 93/172/45
f 93/172/46 99/171/46 95/170/4
f 103/173/4 100/174/47 94/175/47
f 94/175/48 100/174/48 103/173/3
f 99/171/45 95/170/3 101/176/3
f 101/176/4 95/170/4 99/171/46
f 104/177/4 102/178/51 98/179/51
f 98/179/52 102/178/52 104/177/3
f 103/169/1 92/161/1 102/180/1
f 102/180/2 92/161/2 103/169/2
f 100/174/47 103/173/4 104/181/4
f 104/181/3 103/173/3 100/174/48
f 102/178/51 104/177/4 103/182/4
f 103/182/3 104/177/3 102/178/52
