# SSTK version 0.8.0
# 8
mtllib original-8.mtl
o Drill_Hole8/Drill_Hole/mesh1/mesh1-geometry#mesh1-geometry
v 0.041146 -0.126425 0.362378
v 0.041695 -0.126425 0.348574
v 0.040512 -0.126425 0.355440
v 0.043554 -0.126425 0.368916
v 0.044616 -0.126425 0.342248
v 0.047572 -0.126425 0.374608
v 0.049073 -0.126425 0.336894
v 0.052927 -0.126425 0.379065
v 0.054765 -0.126425 0.332876
v 0.059252 -0.126425 0.381986
v 0.061303 -0.126425 0.330468
v 0.066118 -0.126425 0.383169
v 0.068241 -0.126425 0.329834
v 0.073056 -0.126425 0.382535
v 0.075107 -0.126425 0.331017
v 0.079594 -0.126425 0.380127
v 0.081433 -0.126425 0.333937
v 0.085286 -0.126425 0.376109
v 0.086787 -0.126425 0.338395
v 0.089744 -0.126425 0.370754
v 0.090805 -0.126425 0.344087
v 0.092664 -0.126425 0.364429
v 0.093213 -0.126425 0.350625
v 0.093847 -0.126425 0.357563
vn 0 1 0
vn 0 -1 0
usemtl material_0_0
f 1//1 2//1 3//1
f 2//1 1//1 4//1
f 3//2 2//2 1//2
f 4//2 1//2 2//2
f 2//1 4//1 5//1
f 5//2 4//2 2//2
f 5//1 4//1 6//1
f 6//2 4//2 5//2
f 5//1 6//1 7//1
f 7//2 6//2 5//2
f 7//1 6//1 8//1
f 8//2 6//2 7//2
f 7//1 8//1 9//1
f 9//2 8//2 7//2
f 9//1 8//1 10//1
f 10//2 8//2 9//2
f 9//1 10//1 11//1
f 11//2 10//2 9//2
f 11//1 10//1 12//1
f 12//2 10//2 11//2
f 11//1 12//1 13//1
f 13//2 12//2 11//2
f 13//1 12//1 14//1
f 14//2 12//2 13//2
f 13//1 14//1 15//1
f 15//2 14//2 13//2
f 15//1 14//1 16//1
f 16//2 14//2 15//2
f 15//1 16//1 17//1
f 17//2 16//2 15//2
f 17//1 16//1 18//1
f 18//2 16//2 17//2
f 17//1 18//1 19//1
f 19//2 18//2 17//2
f 19//1 18//1 20//1
f 20//2 18//2 19//2
f 19//1 20//1 21//1
f 21//2 20//2 19//2
f 21//1 20//1 22//1
f 22//2 20//2 21//2
f 21//1 22//1 23//1
f 23//2 22//2 21//2
f 23//1 22//1 24//1
f 24//2 22//2 23//2
