# SSTK version 0.8.0
# 21
mtllib original-21.mtl
o mesh45/mesh45-geometry#mesh45-geometry
v 0.020669 -0.014208 0.444076
v 0.024813 -0.014208 0.438880
v 0.057011 -0.014208 0.444076
v 0.020669 -0.014208 0.412277
v 0.053205 -0.014208 0.438880
v 0.057011 0.025541 0.444076
v 0.020669 -0.021022 0.444076
v 0.020669 0.025541 0.412277
v 0.024813 -0.014208 0.415030
v 0.057011 -0.014208 0.412277
v 0.024813 0.020364 0.438880
v 0.020669 0.025541 0.444076
v 0.057011 -0.021022 0.444076
v 0.020669 -0.021022 0.412277
v 0.053205 -0.014208 0.415030
v 0.057011 -0.021022 0.412277
v 0.053205 0.020364 0.438880
v -0.063362 0.025541 0.444076
v 0.057011 0.025541 0.412277
v -0.024748 -0.021022 0.444076
v -0.024748 0.025541 0.444076
v -0.024748 -0.021022 0.412277
v 0.053205 0.020364 0.415030
v 0.024813 0.020364 0.415030
v 0.083038 0.020364 0.495592
v -0.094699 0.025541 0.495592
v 0.092689 0.025541 0.327510
v 0.092689 -0.021022 0.327510
v -0.063362 -0.021022 0.444076
v -0.024748 0.025541 0.412277
v -0.094699 -0.021022 0.327510
v -0.030426 0.020364 0.438500
v 0.083038 0.020364 0.371802
v -0.059954 0.020364 0.438500
v -0.094699 0.025541 0.327510
v 0.092689 0.025541 0.495592
v -0.063362 -0.014208 0.444076
v 0.092689 -0.021022 0.495592
v -0.024748 -0.014208 0.444076
v -0.024748 -0.014208 0.412277
v -0.063362 -0.021022 0.412277
v -0.085044 0.020364 0.371802
v -0.030426 0.020364 0.415786
v 0.083038 -0.015978 0.371802
v -0.085044 0.020364 0.495592
v -0.063362 0.025541 0.412277
v 0.092689 -0.025565 0.327510
v -0.094699 -0.021022 0.495592
v -0.063362 -0.014208 0.412277
v -0.030426 -0.014208 0.438500
v 0.083038 -0.015978 0.495592
v -0.118413 -0.022158 0.327510
v -0.059954 -0.014208 0.438500
v 0.092689 0.028948 0.327510
v -0.094699 -0.025565 0.327510
v -0.059954 0.020364 0.415786
v -0.030426 -0.014208 0.415786
v -0.085044 -0.015978 0.371802
v -0.085044 -0.015978 0.495592
v -0.094699 0.028948 0.327510
v -0.094699 -0.022158 0.327510
v 0.130303 -0.025565 0.254826
v 0.130303 0.028948 0.327510
v -0.059954 -0.014208 0.415786
v -0.118413 -0.022158 0.254826
v -0.118413 0.028948 0.327510
v -0.118413 0.028948 0.254826
v 0.130303 -0.022158 0.254826
v 0.130303 -0.025565 0.327510
v 0.130303 -0.046007 0.254826
v 0.130303 0.028948 0.254826
v -0.212675 0.044848 0.254826
v -0.118413 0.044848 0.254826
v -0.118413 -0.046007 0.254826
v 0.130303 0.044848 0.254826
v 0.220022 0.044848 -0.877455
v -0.212675 -0.046007 0.254826
v 0.220022 -0.046007 0.254826
v -0.212675 -0.046007 -0.877455
v -0.212675 0.044848 -0.877455
v 0.220022 0.044848 0.254826
v 0.194322 0.044848 -0.911981
v 0.220022 -0.046007 -0.877455
v -0.186975 0.044848 -0.911981
v -0.186975 -0.046007 -0.911981
v 0.194322 -0.046007 -0.911981
v 0.163174 0.044848 -0.941684
v 0.163174 -0.046007 -0.941684
v -0.155826 0.044848 -0.941684
v 0.127467 -0.046007 -0.965716
v 0.127467 0.044848 -0.965716
v -0.155826 -0.046007 -0.941684
v -0.120119 -0.046007 -0.965716
v -0.120119 0.044848 -0.965716
v 0.088222 -0.046007 -0.983389
v -0.080874 -0.046007 -0.983389
v 0.088222 0.044848 -0.983389
v -0.080874 0.044848 -0.983389
v 0.046561 -0.046007 -0.994200
v -0.039213 -0.046007 -0.994200
v -0.039213 0.044848 -0.994200
v 0.046561 0.044848 -0.994200
v 0.010576 0.044848 -0.997252
v -0.025783 -0.046007 -0.995339
v -0.025783 0.044848 -0.995339
v 0.010576 -0.046007 -0.997252
v 0.003674 0.044848 -0.997838
v 0.003674 -0.046007 -0.997838
v 0.003674 0.009642 -0.997838
v 0.003674 -0.014208 -0.997838
vn 0 -1 0
vn 0 1 0
vn 0 0 -1
vn 0 0 1
vn -1 0 0
vn 1 0 0
vn -0.3073959072371511 0 -0.9515817128412299
vn 0.3073959072371511 0 0.9515817128412299
vn -0.08452701593461191 0 0.9964211878403579
vn 0.9857103599317107 0 0.1684490615091018
vn 0.8021609063136278 0 -0.597107930262276
vn 0.748818777081925 0 -0.66277480269661
vn -0.8021609063136278 0 0.597107930262276
vn -0.748818777081925 0 0.66277480269661
vn -0.8021609063136278 0 -0.597107930262276
vn -0.748818777081925 0 -0.66277480269661
vn 0.8021609063136278 0 0.597107930262276
vn 0.748818777081925 0 0.66277480269661
vn 0.6264747628827928 0 -0.7794417049856575
vn -0.6264747628827928 0 0.7794417049856575
vn -0.6264747628827928 0 -0.7794417049856575
vn 0.6264747628827928 0 0.7794417049856575
vn 0.48622680370590293 0 -0.873832647225967
vn -0.48622680370590293 0 0.873832647225967
vn -0.48622680370590293 0 -0.873832647225967
vn 0.48622680370590293 0 0.873832647225967
vn 0.33208305290266105 0 -0.9432501502649489
vn -0.33208305290266105 0 0.9432501502649489
vn -0.33208305290266105 0 -0.9432501502649489
vn 0.33208305290266105 0 0.9432501502649489
vn -0.9857103599317107 0 -0.1684490615091018
vn -0.1684490615091018 0 -0.9857103599317107
vn 0.1684490615091018 0 0.9857103599317107
vn 0.08452701593461191 0 -0.9964211878403579
vn -0.08452701593461191 0 -0.9964211878403579
vn 0.08452701593461191 0 0.9964211878403579
usemtl material_0_0
f 1//1 2//1 3//1
f 2//1 1//1 4//1
f 3//2 2//2 1//2
f 4//2 1//2 2//2
f 5//1 3//1 2//1
f 2//2 3//2 5//2
f 1//3 6//3 3//3
f 3//4 6//4 1//4
f 3//3 7//3 1//3
f 1//4 7//4 3//4
f 4//5 1//5 8//5
f 7//6 4//6 1//6
f 1//5 4//5 7//5
f 2//1 4//1 9//1
f 9//2 4//2 2//2
f 3//1 5//1 10//1
f 10//2 5//2 3//2
f 5//4 11//4 2//4
f 2//3 11//3 5//3
f 6//3 1//3 12//3
f 12//4 1//4 6//4
f 3//6 10//6 6//6
f 7//3 3//3 13//3
f 13//4 3//4 7//4
f 12//5 8//5 1//5
f 4//3 8//3 10//3
f 4//6 7//6 14//6
f 14//5 7//5 4//5
f 9//1 4//1 15//1
f 15//2 4//2 9//2
f 11//5 9//5 2//5
f 10//1 5//1 15//1
f 15//2 5//2 10//2
f 16//5 3//5 10//5
f 10//6 3//6 16//6
f 11//4 5//4 17//4
f 17//3 5//3 11//3
f 12//1 6//1 18//1
f 19//6 6//6 10//6
f 3//5 16//5 13//5
f 13//6 16//6 3//6
f 7//2 20//2 13//2
f 12//1 21//1 8//1
f 19//3 10//3 8//3
f 10//1 15//1 4//1
f 4//2 15//2 10//2
f 4//4 16//4 10//4
f 10//3 16//3 4//3
f 14//2 22//2 7//2
f 16//4 4//4 14//4
f 14//3 4//3 16//3
f 9//3 23//3 15//3
f 15//4 23//4 9//4
f 9//5 11//5 24//5
f 23//6 5//6 15//6
f 15//5 5//5 23//5
f 5//6 23//6 17//6
f 17//5 23//5 5//5
f 6//1 26//1 18//1
f 21//1 12//1 18//1
f 19//1 27//1 6//1
f 16//2 13//2 28//2
f 20//2 29//2 13//2
f 20//2 7//2 22//2
f 30//1 8//1 21//1
f 8//1 27//1 19//1
f 14//2 31//2 22//2
f 16//2 31//2 14//2
f 23//3 9//3 24//3
f 24//4 9//4 23//4
f 35//1 18//1 26//1
f 26//1 6//1 36//1
f 21//3 37//3 18//3
f 18//4 37//4 21//4
f 27//1 36//1 6//1
f 28//2 13//2 38//2
f 31//2 16//2 28//2
f 29//2 38//2 13//2
f 29//3 39//3 20//3
f 20//4 39//4 29//4
f 20//6 22//6 39//6
f 30//1 27//1 8//1
f 30//6 21//6 40//6
f 22//2 31//2 41//2
f 33//6 25//6 44//6
f 46//1 18//1 35//1
f 35//6 26//6 31//6
f 26//3 36//3 25//3
f 37//3 21//3 39//3
f 39//4 21//4 37//4
f 18//5 46//5 37//5
f 36//5 27//5 38//5
f 28//5 38//5 27//5
f 31//4 47//4 28//4
f 28//3 47//3 31//3
f 38//2 29//2 48//2
f 39//3 29//3 37//3
f 37//4 29//4 39//4
f 40//6 39//6 22//6
f 46//1 27//1 30//1
f 39//6 40//6 21//6
f 30//3 40//3 46//3
f 41//2 31//2 29//2
f 22//4 49//4 41//4
f 41//3 49//3 22//3
f 34//4 50//4 32//4
f 32//3 50//3 34//3
f 50//6 43//6 32//6
f 32//5 43//5 50//5
f 42//4 44//4 33//4
f 33//3 44//3 42//3
f 51//6 44//6 25//6
f 45//3 26//3 25//3
f 27//1 46//1 35//1
f 48//6 31//6 26//6
f 31//3 52//3 35//3
f 35//4 52//4 31//4
f 38//3 25//3 36//3
f 37//1 53//1 39//1
f 39//2 53//2 37//2
f 49//5 37//5 46//5
f 54//3 28//3 27//3
f 27//4 28//4 54//4
f 47//4 31//4 55//4
f 55//3 31//3 47//3
f 54//3 47//3 28//3
f 28//4 47//4 54//4
f 31//2 48//2 29//2
f 48//3 51//3 38//3
f 29//6 49//6 37//6
f 37//5 49//5 29//5
f 39//1 50//1 40//1
f 40//2 50//2 39//2
f 49//4 22//4 40//4
f 40//3 22//3 49//3
f 49//3 46//3 40//3
f 49//6 29//6 41//6
f 41//5 29//5 49//5
f 50//4 34//4 53//4
f 53//3 34//3 50//3
f 43//6 50//6 57//6
f 57//5 50//5 43//5
f 44//4 42//4 58//4
f 58//3 42//3 44//3
f 25//3 38//3 51//3
f 45//5 42//5 59//5
f 59//3 26//3 45//3
f 35//3 60//3 27//3
f 26//3 59//3 48//3
f 52//3 31//3 61//3
f 61//4 31//4 52//4
f 35//3 52//3 60//3
f 60//4 52//4 35//4
f 53//1 37//1 49//1
f 49//2 37//2 53//2
f 50//1 39//1 53//1
f 53//2 39//2 50//2
f 54//3 27//3 60//3
f 55//4 31//4 61//4
f 61//3 31//3 55//3
f 55//2 47//2 62//2
f 63//3 47//3 54//3
f 54//4 47//4 63//4
f 59//3 51//3 48//3
f 40//1 50//1 57//1
f 57//2 50//2 40//2
f 40//1 57//1 49//1
f 49//2 57//2 40//2
f 43//3 64//3 56//3
f 56//4 64//4 43//4
f 34//5 64//5 53//5
f 64//3 43//3 57//3
f 57//4 43//4 64//4
f 58//5 59//5 42//5
f 64//5 34//5 56//5
f 52//2 61//2 65//2
f 60//3 52//3 66//3
f 66//4 52//4 60//4
f 53//1 49//1 64//1
f 64//2 49//2 53//2
f 60//1 67//1 54//1
f 68//7 55//7 61//7
f 61//8 55//8 68//8
f 69//2 62//2 47//2
f 55//7 68//7 62//7
f 62//8 68//8 55//8
f 47//3 63//3 69//3
f 69//4 63//4 47//4
f 54//1 67//1 63//1
f 64//1 49//1 57//1
f 57//2 49//2 64//2
f 68//2 65//2 61//2
f 67//6 52//6 65//6
f 65//5 52//5 67//5
f 52//6 67//6 66//6
f 66//5 67//5 52//5
f 67//1 60//1 66//1
f 63//5 62//5 69//5
f 62//3 68//3 70//3
f 62//5 63//5 68//5
f 68//3 62//3 65//3
f 63//1 67//1 71//1
f 68//4 67//4 65//4
f 65//3 67//3 68//3
f 65//3 72//3 67//3
f 68//3 71//3 70//3
f 70//3 65//3 62//3
f 68//5 63//5 71//5
f 67//3 73//3 71//3
f 67//4 68//4 71//4
f 71//3 68//3 67//3
f 73//3 67//3 72//3
f 74//3 72//3 65//3
f 71//3 75//3 70//3
f 74//3 65//3 70//3
f 75//3 71//3 73//3
f 72//1 76//1 73//1
f 77//3 72//3 74//3
f 70//3 75//3 78//3
f 70//2 79//2 74//2
f 73//1 76//1 75//1
f 80//1 76//1 72//1
f 77//6 79//6 72//6
f 77//2 74//2 79//2
f 81//3 78//3 75//3
f 78//2 79//2 70//2
f 81//1 75//1 76//1
f 82//1 76//1 80//1
f 80//6 72//6 79//6
f 81//5 76//5 78//5
f 83//2 79//2 78//2
f 84//1 82//1 80//1
f 83//5 78//5 76//5
f 85//2 79//2 83//2
f 87//1 82//1 84//1
f 86//2 85//2 83//2
f 89//1 87//1 84//1
f 88//2 85//2 86//2
f 91//1 87//1 89//1
f 92//2 85//2 88//2
f 90//2 93//2 88//2
f 94//1 91//1 89//1
f 93//2 92//2 88//2
f 96//2 93//2 90//2
f 97//1 91//1 94//1
f 95//2 96//2 90//2
f 98//1 97//1 94//1
f 100//2 96//2 95//2
f 102//1 97//1 98//1
f 99//2 100//2 95//2
f 101//1 102//1 98//1
f 103//9 99//10 102//10
f 104//2 100//2 99//2
f 103//1 102//1 101//1
f 99//10 103//9 106//9
f 106//2 104//2 99//2
f 105//1 103//1 101//1
f 106//9 103//9 107//5
f 108//2 104//2 106//2
f 107//1 103//1 105//1
f 106//9 107//5 108//5
f 108//5 107//5 109//5
f 108//5 109//5 110//5
usemtl material_1_0
f 8//6 1//6 4//6
f 6//5 10//5 3//5
f 1//6 8//6 12//6
f 10//4 8//4 4//4
f 2//6 9//6 11//6
f 18//2 6//2 12//2
f 10//5 6//5 19//5
f 13//1 20//1 7//1
f 8//2 21//2 12//2
f 8//4 10//4 19//4
f 7//1 22//1 14//1
f 24//6 11//6 9//6
f 17//1 25//1 11//1
f 11//2 25//2 17//2
f 18//2 26//2 6//2
f 18//2 12//2 21//2
f 6//2 27//2 19//2
f 28//1 13//1 16//1
f 13//1 29//1 20//1
f 22//1 7//1 20//1
f 21//2 8//2 30//2
f 19//2 27//2 8//2
f 22//1 31//1 14//1
f 14//1 31//1 16//1
f 11//1 32//1 24//1
f 24//2 32//2 11//2
f 33//1 17//1 23//1
f 23//2 17//2 33//2
f 25//1 17//1 33//1
f 33//2 17//2 25//2
f 25//1 34//1 11//1
f 11//2 34//2 25//2
f 26//2 18//2 35//2
f 36//2 6//2 26//2
f 6//2 36//2 27//2
f 38//1 13//1 28//1
f 28//1 16//1 31//1
f 13//1 38//1 29//1
f 8//2 27//2 30//2
f 40//5 21//5 30//5
f 41//1 31//1 22//1
f 24//1 42//1 23//1
f 23//2 42//2 24//2
f 32//1 11//1 34//1
f 34//2 11//2 32//2
f 24//1 32//1 43//1
f 43//2 32//2 24//2
f 33//1 23//1 42//1
f 42//2 23//2 33//2
f 44//5 25//5 33//5
f 45//1 34//1 25//1
f 25//2 34//2 45//2
f 35//2 18//2 46//2
f 31//5 26//5 35//5
f 25//4 36//4 26//4
f 37//6 46//6 18//6
f 38//6 27//6 36//6
f 27//6 38//6 28//6
f 48//1 29//1 38//1
f 30//2 27//2 46//2
f 21//5 40//5 39//5
f 46//4 40//4 30//4
f 29//1 31//1 41//1
f 43//1 42//1 24//1
f 24//2 42//2 43//2
f 25//5 44//5 51//5
f 34//1 45//1 42//1
f 42//2 45//2 34//2
f 25//4 26//4 45//4
f 35//2 46//2 27//2
f 26//5 31//5 48//5
f 36//4 25//4 38//4
f 46//6 37//6 49//6
f 29//1 48//1 31//1
f 38//4 51//4 48//4
f 40//4 46//4 49//4
f 56//1 42//1 43//1
f 43//2 42//2 56//2
f 44//2 59//2 51//2
f 51//4 38//4 25//4
f 59//6 42//6 45//6
f 34//1 42//1 56//1
f 56//2 42//2 34//2
f 45//4 26//4 59//4
f 48//4 59//4 26//4
f 48//4 51//4 59//4
f 53//6 64//6 34//6
f 42//6 59//6 58//6
f 59//2 44//2 58//2
f 56//6 34//6 64//6
usemtl material_2_0
f 39//5 22//5 20//5
f 22//5 39//5 40//5
f 51//1 59//1 44//1
f 27//4 60//4 35//4
f 60//4 27//4 54//4
f 62//1 47//1 55//1
f 58//1 44//1 59//1
f 65//1 61//1 52//1
f 54//2 67//2 60//2
f 47//1 62//1 69//1
f 63//2 67//2 54//2
f 61//1 65//1 68//1
f 66//2 60//2 67//2
f 69//6 62//6 63//6
f 68//6 63//6 62//6
f 71//2 67//2 63//2
f 71//6 63//6 68//6
usemtl material_3_0
f 70//4 68//4 62//4
f 65//4 62//4 68//4
f 67//4 72//4 65//4
f 70//4 71//4 68//4
f 62//4 65//4 70//4
f 71//4 73//4 67//4
f 72//4 67//4 73//4
f 65//4 72//4 74//4
f 70//4 75//4 71//4
f 70//4 65//4 74//4
f 73//4 71//4 75//4
f 73//2 76//2 72//2
f 74//4 72//4 77//4
f 78//4 75//4 70//4
f 74//1 79//1 70//1
f 75//2 76//2 73//2
f 72//2 76//2 80//2
f 72//5 79//5 77//5
f 79//1 74//1 77//1
f 75//4 78//4 81//4
f 70//1 79//1 78//1
f 76//2 75//2 81//2
f 80//2 76//2 82//2
f 79//5 72//5 80//5
f 78//6 76//6 81//6
f 78//1 79//1 83//1
f 83//11 82//12 76//11
f 76//13 82//14 83//13
f 80//2 82//2 84//2
f 80//15 85//16 79//15
f 79//17 85//18 80//17
f 76//6 78//6 83//6
f 83//1 79//1 85//1
f 82//12 83//11 86//12
f 86//14 83//13 82//14
f 84//2 82//2 87//2
f 85//16 80//15 84//16
f 84//18 80//17 85//18
f 83//1 85//1 86//1
f 88//19 82//12 86//12
f 86//14 82//14 88//20
f 82//12 88//19 87//19
f 87//20 88//20 82//14
f 84//2 87//2 89//2
f 89//21 85//16 84//16
f 84//18 85//18 89//22
f 86//1 85//1 88//1
f 90//23 87//19 88//19
f 88//20 87//20 90//24
f 89//2 87//2 91//2
f 85//16 89//21 92//21
f 92//22 89//22 85//18
f 88//1 85//1 92//1
f 87//19 90//23 91//23
f 91//24 90//24 87//20
f 88//1 93//1 90//1
f 89//2 91//2 94//2
f 94//25 92//21 89//21
f 89//22 92//22 94//26
f 88//1 92//1 93//1
f 95//27 91//23 90//23
f 90//24 91//24 95//28
f 90//1 93//1 96//1
f 94//2 91//2 97//2
f 92//21 94//25 93//25
f 93//26 94//26 92//22
f 91//23 95//27 97//27
f 97//28 95//28 91//24
f 90//1 96//1 95//1
f 93//25 98//29 96//29
f 96//30 98//30 93//26
f 94//2 97//2 98//2
f 98//29 93//25 94//25
f 94//26 93//26 98//30
f 99//10 97//27 95//27
f 95//28 97//28 99//31
f 95//1 96//1 100//1
f 101//32 96//29 98//29
f 98//30 96//30 101//33
f 98//2 97//2 102//2
f 97//27 99//10 102//10
f 102//31 99//31 97//28
f 95//1 100//1 99//1
f 96//29 101//32 100//32
f 100//33 101//33 96//30
f 98//2 102//2 101//2
f 102//31 99//31 103//34
f 99//1 100//1 104//1
f 105//35 100//32 101//32
f 101//33 100//33 105//36
f 101//2 102//2 103//2
f 106//34 103//34 99//31
f 105//35 104//35 100//32
f 100//33 104//36 105//36
f 99//1 104//1 106//1
f 101//2 103//2 105//2
f 107//6 103//34 106//34
f 107//5 104//35 105//35
f 105//36 104//36 107//6
f 106//1 104//1 108//1
f 105//2 103//2 107//2
f 108//6 107//6 106//34
f 109//5 104//35 107//5
f 107//6 104//36 109//6
f 104//35 110//5 108//5
f 108//6 110//6 104//36
f 109//6 107//6 108//6
f 110//5 104//35 109//5
f 109//6 104//36 110//6
f 110//6 109//6 108//6
