# SSTK version 0.8.0
# 22
mtllib original-22.mtl
o mesh46/mesh46-geometry#mesh46-geometry
v -0.025783 -0.014208 -0.995339
v -0.015044 -0.014208 -1.011177
v 0.003674 -0.014208 -0.997838
v -0.017631 -0.014208 -1.013163
v -0.012031 -0.014208 -1.009929
v -0.019616 -0.014208 -1.015750
v -0.015044 0.009642 -1.011177
v -0.012031 0.009642 -1.009929
v -0.008798 -0.014208 -1.009504
v -0.020864 -0.014208 -1.018763
v -0.019616 0.009642 -1.015750
v -0.017631 0.009642 -1.013163
v -0.008798 0.009642 -1.009504
v -0.005564 -0.014208 -1.009929
v -0.025783 -0.014208 -1.033952
v -0.020864 0.009642 -1.018763
v -0.025783 0.009642 -0.995339
v 0.003674 0.009642 -0.997838
v -0.005564 0.009642 -1.009929
v -0.002551 -0.014208 -1.011177
v -0.021290 -0.014208 -1.021996
v -0.021290 0.009642 -1.021996
v 0.000036 -0.014208 -1.013163
v -0.002551 0.009642 -1.011177
v -0.025783 0.009642 -1.033952
v -0.020864 -0.014208 -1.025229
v 0.002021 -0.014208 -1.015750
v 0.000036 0.009642 -1.013163
v -0.023045 0.009642 -1.035650
v -0.019616 -0.014208 -1.028242
v -0.020864 0.009642 -1.025229
v 0.010576 -0.014208 -1.033952
v -0.023045 -0.014208 -1.035650
v -0.012031 0.009642 -1.034063
v -0.017631 -0.014208 -1.030830
v -0.019616 0.009642 -1.028242
v 0.002021 0.009642 -1.015750
v 0.010576 -0.014208 -0.997252
v 0.003269 -0.014208 -1.018763
v -0.020149 0.009642 -1.037064
v -0.012031 -0.014208 -1.034063
v -0.015044 0.009642 -1.032815
v -0.008798 0.009642 -1.034489
v -0.015044 -0.014208 -1.032815
v -0.017631 0.009642 -1.030830
v 0.010576 0.009642 -1.033952
v 0.003695 -0.014208 -1.021996
v -0.020149 -0.014208 -1.037064
v 0.004942 0.009642 -1.037064
v -0.008798 -0.014208 -1.034489
v 0.007837 0.009642 -1.035650
v 0.010576 0.009642 -0.997252
v 0.003269 0.009642 -1.018763
v 0.007837 -0.014208 -1.035650
v 0.003269 -0.014208 -1.025229
v -0.017126 0.009642 -1.038178
v 0.001919 0.009642 -1.038178
v -0.005564 -0.014208 -1.034063
v -0.005564 0.009642 -1.034063
v 0.003695 0.009642 -1.021996
v 0.002021 -0.014208 -1.028242
v -0.017126 -0.014208 -1.038178
v 0.004942 -0.014208 -1.037064
v 0.001919 -0.014208 -1.038178
v 0.003269 0.009642 -1.025229
v -0.002551 -0.014208 -1.032815
v 0.000036 -0.014208 -1.030830
v -0.014006 0.009642 -1.038983
v -0.001201 0.009642 -1.038983
v -0.001201 -0.014208 -1.038983
v -0.002551 0.009642 -1.032815
v 0.002021 0.009642 -1.028242
v -0.014006 -0.014208 -1.038983
v 0.000036 0.009642 -1.030830
v -0.010821 0.009642 -1.039468
v -0.004386 0.009642 -1.039468
v -0.004386 -0.014208 -1.039468
v -0.010821 -0.014208 -1.039468
v -0.007604 0.009642 -1.039631
v -0.007604 -0.014208 -1.039631
vn 0 -1 0
vn 0.7071067811865476 0 -0.7071067811865476
vn 0.5000001748438417 0 -0.8660253028382762
vn 0.2588189595935754 0 -0.965925849201117
vn 0.8660253028382762 0 -0.5000001748438417
vn 0 0 -1
vn 0.965925849201117 0 -0.2588189595935754
vn 0 1 0
vn -0.2588189595935754 0 -0.965925849201117
vn -1 0 0
vn 1 0 0
vn -0.5000001748438417 0 -0.8660253028382762
vn -0.7071067811865476 0 -0.7071067811865476
vn -0.4834531353405487 0 -0.8753702450559953
vn -0.5269897690510003 0 -0.8498716275506398
vn 0.965925849201117 0 0.2588189595935754
vn -0.8660253028382762 0 -0.5000001748438417
vn 0.8660253028382762 0 0.5000001748438417
vn -0.3928020248775279 0 -0.919623058242949
vn 0.7071067811865476 0 0.7071067811865476
vn -0.965925849201117 0 -0.2588189595935754
vn 0.5000001748438417 0 0.8660253028382762
vn 0.2588189595935754 0 0.965925849201117
vn 0 0 1
vn 0.4834531353405487 0 -0.8753702450559953
vn 0.5269897690510003 0 -0.8498716275506398
vn -0.29815302627727086 0 -0.9545180841250231
vn -0.2588189595935754 0 0.965925849201117
vn -0.965925849201117 0 0.2588189595935754
vn 0.3928020248775279 0 -0.919623058242949
vn 0.29815302627727086 0 -0.9545180841250231
vn -0.8660253028382762 0 0.5000001748438417
vn -0.20046996883694576 0 -0.9796998477056705
vn 0.20046996883694576 0 -0.9796998477056705
vn -0.5000001748438417 0 0.8660253028382762
vn -0.7071067811865476 0 0.7071067811865476
vn -0.10074799761992932 0 -0.9949119764961997
vn 0.10074799761992932 0 -0.9949119764961997
vn 0.5269897690510003 0 0.8498716275506398
vn 0.4834531353405487 0 0.8753702450559953
vn 0.3928020248775279 0 0.919623058242949
vn -0.5269897690510003 0 0.8498716275506398
vn -0.4834531353405487 0 0.8753702450559953
vn 0.29815302627727086 0 0.9545180841250231
vn -0.3928020248775279 0 0.919623058242949
vn -0.29815302627727086 0 0.9545180841250231
vn 0.20046996883694576 0 0.9796998477056705
vn -0.20046996883694576 0 0.9796998477056705
vn 0.10074799761992932 0 0.9949119764961997
vn -0.10074799761992932 0 0.9949119764961997
usemtl material_0_0
f 1//1 2//1 3//1
f 2//1 1//1 4//1
f 3//1 2//1 5//1
f 4//1 1//1 6//1
f 4//2 7//3 2//3
f 2//3 8//4 5//4
f 3//1 5//1 9//1
f 6//1 1//1 10//1
f 11//5 4//2 6//5
f 7//3 4//2 12//2
f 8//4 2//3 7//3
f 13//6 5//4 8//4
f 5//4 13//6 9//6
f 14//1 3//1 9//1
f 10//1 1//1 15//1
f 16//7 6//5 10//7
f 4//2 11//5 12//2
f 6//5 16//7 11//5
f 12//8 17//8 7//8
f 7//8 18//8 8//8
f 8//8 18//8 13//8
f 19//9 9//6 13//6
f 20//1 3//1 14//1
f 9//6 19//9 14//9
f 17//10 15//10 1//10
f 10//1 15//1 21//1
f 10//7 22//11 16//7
f 11//8 17//8 12//8
f 16//8 17//8 11//8
f 7//8 17//8 18//8
f 18//8 19//8 13//8
f 23//1 3//1 20//1
f 14//9 24//12 20//12
f 24//12 14//9 19//9
f 15//10 17//10 25//10
f 21//1 15//1 26//1
f 22//11 10//7 21//11
f 25//8 16//8 22//8
f 17//8 16//8 25//8
f 18//8 24//8 19//8
f 27//1 3//1 23//1
f 20//12 28//13 23//13
f 28//13 20//12 24//12
f 29//14 15//15 25//15
f 26//1 15//1 30//1
f 31//16 21//11 26//16
f 21//11 31//16 22//11
f 25//8 22//8 31//8
f 18//8 28//8 24//8
f 32//1 3//1 27//1
f 28//13 27//17 23//13
f 15//15 29//14 33//14
f 25//8 34//8 29//8
f 30//1 15//1 35//1
f 36//18 26//16 30//18
f 26//16 36//18 31//16
f 25//8 31//8 36//8
f 18//8 37//8 28//8
f 3//1 32//1 38//1
f 32//1 27//1 39//1
f 27//17 28//13 37//17
f 40//19 33//14 29//14
f 41//1 15//1 33//1
f 25//8 42//8 34//8
f 29//8 34//8 43//8
f 35//1 15//1 44//1
f 45//20 30//18 35//20
f 30//18 45//20 36//18
f 25//8 36//8 45//8
f 18//8 46//8 37//8
f 46//11 38//11 32//11
f 37//17 39//21 27//17
f 32//1 39//1 47//1
f 33//14 40//19 48//19
f 29//8 49//8 40//8
f 44//1 15//1 41//1
f 41//1 33//1 50//1
f 25//8 45//8 42//8
f 42//22 41//23 34//23
f 34//23 50//24 43//24
f 29//8 43//8 51//8
f 44//22 45//20 35//20
f 46//8 18//8 52//8
f 37//8 46//8 53//8
f 38//11 46//11 52//11
f 54//25 46//26 32//26
f 39//21 37//17 53//21
f 53//21 47//10 39//21
f 32//1 47//1 55//1
f 56//27 48//19 40//19
f 54//1 33//1 48//1
f 29//8 51//8 49//8
f 40//8 49//8 57//8
f 41//23 42//22 44//22
f 54//1 50//1 33//1
f 50//24 34//23 41//23
f 45//20 44//22 42//22
f 58//28 43//24 50//24
f 59//8 51//8 43//8
f 53//8 46//8 60//8
f 46//26 54//25 51//25
f 32//1 58//1 54//1
f 47//10 53//21 60//10
f 60//10 55//29 47//10
f 32//1 55//1 61//1
f 48//19 56//27 62//27
f 40//8 57//8 56//8
f 54//1 48//1 63//1
f 51//25 63//30 49//30
f 49//30 64//31 57//31
f 54//1 58//1 50//1
f 43//24 58//28 59//28
f 59//8 46//8 51//8
f 60//8 46//8 65//8
f 63//30 51//25 54//25
f 32//1 66//1 58//1
f 55//29 60//10 65//29
f 65//29 61//32 55//29
f 32//1 61//1 67//1
f 68//33 62//27 56//27
f 63//1 48//1 62//1
f 56//8 57//8 69//8
f 64//31 49//30 63//30
f 70//34 57//31 64//31
f 66//35 59//28 58//28
f 71//8 46//8 59//8
f 65//8 46//8 72//8
f 32//1 67//1 66//1
f 61//32 65//29 72//32
f 72//32 67//36 61//32
f 62//27 68//33 73//33
f 56//8 69//8 68//8
f 63//1 62//1 64//1
f 57//31 70//34 69//34
f 64//1 73//1 70//1
f 59//28 66//35 71//35
f 74//8 46//8 71//8
f 72//8 46//8 74//8
f 67//36 71//35 66//35
f 67//36 72//32 74//36
f 75//37 73//33 68//33
f 64//1 62//1 73//1
f 68//8 69//8 76//8
f 77//38 69//34 70//34
f 70//1 73//1 78//1
f 71//35 67//36 74//36
f 73//33 75//37 78//37
f 68//8 76//8 75//8
f 69//34 77//38 76//38
f 70//1 78//1 77//1
f 79//6 78//37 75//37
f 75//8 76//8 79//8
f 80//6 76//38 77//38
f 77//1 78//1 80//1
f 78//37 79//6 80//6
f 76//38 80//6 79//6
usemtl material_1_0
f 3//8 2//8 1//8
f 4//8 1//8 2//8
f 5//8 2//8 3//8
f 6//8 1//8 4//8
f 2//35 7//35 4//36
f 5//28 8//28 2//35
f 9//8 5//8 3//8
f 10//8 1//8 6//8
f 6//32 4//36 11//32
f 12//36 4//36 7//35
f 7//35 2//35 8//28
f 8//28 5//28 13//24
f 9//24 13//24 5//28
f 9//8 3//8 14//8
f 15//8 1//8 10//8
f 10//29 6//32 16//29
f 12//36 11//32 4//36
f 11//32 16//29 6//32
f 7//1 17//1 12//1
f 8//1 18//1 7//1
f 13//1 18//1 8//1
f 13//24 9//24 19//23
f 14//8 3//8 20//8
f 14//23 19//23 9//24
f 1//11 15//11 17//11
f 21//8 15//8 10//8
f 16//29 22//10 10//29
f 12//1 17//1 11//1
f 11//1 17//1 16//1
f 18//1 17//1 7//1
f 13//1 19//1 18//1
f 20//8 3//8 23//8
f 20//22 24//22 14//23
f 19//23 14//23 24//22
f 25//11 17//11 15//11
f 26//8 15//8 21//8
f 21//10 10//29 22//10
f 22//1 16//1 25//1
f 25//1 16//1 17//1
f 19//1 24//1 18//1
f 23//8 3//8 27//8
f 23//20 28//20 20//22
f 24//22 20//22 28//20
f 25//39 15//39 29//40
f 30//8 15//8 26//8
f 26//21 21//10 31//21
f 22//10 31//21 21//10
f 31//1 22//1 25//1
f 24//1 28//1 18//1
f 27//8 3//8 32//8
f 23//20 27//18 28//20
f 33//40 29//40 15//39
f 29//1 34//1 25//1
f 35//8 15//8 30//8
f 30//17 26//21 36//17
f 31//21 36//17 26//21
f 36//1 31//1 25//1
f 28//1 37//1 18//1
f 38//8 32//8 3//8
f 39//8 27//8 32//8
f 37//18 28//20 27//18
f 29//40 33//40 40//41
f 33//8 15//8 41//8
f 34//1 42//1 25//1
f 43//1 34//1 29//1
f 44//8 15//8 35//8
f 35//13 30//17 45//13
f 36//17 45//13 30//17
f 45//1 36//1 25//1
f 37//1 46//1 18//1
f 32//10 38//10 46//10
f 27//18 39//16 37//18
f 47//8 39//8 32//8
f 48//41 40//41 33//40
f 40//1 49//1 29//1
f 41//8 15//8 44//8
f 50//8 33//8 41//8
f 42//1 45//1 25//1
f 34//9 41//9 42//12
f 43//6 50//6 34//9
f 51//1 43//1 29//1
f 35//13 45//13 44//12
f 52//1 18//1 46//1
f 53//1 46//1 37//1
f 52//10 46//10 38//10
f 32//42 46//42 54//43
f 53//16 37//18 39//16
f 39//16 47//11 53//16
f 55//8 47//8 32//8
f 40//41 48//41 56//44
f 48//8 33//8 54//8
f 49//1 51//1 29//1
f 57//1 49//1 40//1
f 44//12 42//12 41//9
f 33//8 50//8 54//8
f 41//9 34//9 50//6
f 42//12 44//12 45//13
f 50//6 43//6 58//4
f 43//1 51//1 59//1
f 60//1 46//1 53//1
f 51//43 54//43 46//42
f 54//8 58//8 32//8
f 60//11 53//16 47//11
f 47//11 55//7 60//11
f 61//8 55//8 32//8
f 62//44 56//44 48//41
f 56//1 57//1 40//1
f 63//8 48//8 54//8
f 49//45 63//45 51//43
f 57//46 64//46 49//45
f 50//8 58//8 54//8
f 59//4 58//4 43//6
f 51//1 46//1 59//1
f 65//1 46//1 60//1
f 54//43 51//43 63//45
f 58//8 66//8 32//8
f 65//7 60//11 55//7
f 55//7 61//5 65//7
f 67//8 61//8 32//8
f 56//44 62//44 68//47
f 62//8 48//8 63//8
f 69//1 57//1 56//1
f 63//45 49//45 64//46
f 64//46 57//46 70//48
f 58//4 59//4 66//3
f 59//1 46//1 71//1
f 72//1 46//1 65//1
f 66//8 67//8 32//8
f 72//5 65//7 61//5
f 61//5 67//2 72//5
f 73//47 68//47 62//44
f 68//1 69//1 56//1
f 64//8 62//8 63//8
f 69//48 70//48 57//46
f 70//8 73//8 64//8
f 71//3 66//3 59//4
f 71//1 46//1 74//1
f 74//1 46//1 72//1
f 66//3 71//3 67//2
f 74//2 72//5 67//2
f 68//47 73//47 75//49
f 73//8 62//8 64//8
f 76//1 69//1 68//1
f 70//48 69//48 77//50
f 78//8 73//8 70//8
f 74//2 67//2 71//3
f 78//49 75//49 73//47
f 75//1 76//1 68//1
f 76//50 77//50 69//48
f 77//8 78//8 70//8
f 75//49 78//49 79//24
f 79//1 76//1 75//1
f 77//50 76//50 80//24
f 80//8 78//8 77//8
f 80//24 79//24 78//49
f 79//24 80//24 76//50
