# SSTK version 0.8.0
# 4
mtllib original-4.mtl
o group_1/ID26#ID26
v -0.575391 0.442634 0.650725
v 0.551203 0.449633 0.644468
v -0.575391 0.449633 0.644468
v 0.551203 0.442634 0.650725
v 0.551203 0.449633 0.644468
v -0.575391 0.199329 0.364518
v -0.575391 0.449633 0.644468
v 0.551203 0.199329 0.364518
v -0.575391 0.442634 0.650725
v -0.575391 0.199329 0.364518
v -0.575391 0.192330 0.370776
v -0.575391 0.449633 0.644468
v 0.551203 0.192330 0.370776
v -0.575391 0.442634 0.650725
v -0.575391 0.192330 0.370776
v 0.551203 0.442634 0.650725
v 0.551203 0.449633 0.644468
v 0.551203 0.192330 0.370776
v 0.551203 0.199329 0.364518
v 0.551203 0.442634 0.650725
v 0.551203 0.192330 0.370776
v -0.575391 0.199329 0.364518
v 0.551203 0.199329 0.364518
v -0.575391 0.192330 0.370776
vt -0.833187 1.006345
vt -2.333187 0.9898477
vt -0.833187 0.9898477
vt -2.333187 1.006345
vt -2.333187 2.564027
vt -0.833187 1.904129
vt -0.833187 2.564027
vt -2.333187 1.904129
vt -1.942744 1.006345
vt -1.442744 0.9898477
vt -1.442744 1.006345
vt -1.942744 0.9898477
vt 2.333187 1.904129
vt 0.833187 2.564027
vt 0.833187 1.904129
vt 2.333187 2.564027
vt 1.942744 0.9898477
vt 1.442744 1.006345
vt 1.442744 0.9898477
vt 1.942744 1.006345
vt 2.333187 1.006345
vt 0.833187 0.9898477
vt 2.333187 0.9898477
vt 0.833187 1.006345
vn 0 0.6665324866252759 0.7454759850411858
vn 0 0.7454759850411858 -0.6665324866252759
vn -1 0 0
vn 0 -0.7454759850411858 0.6665324866252759
vn 1 0 0
vn 0 -0.6665324866252759 -0.7454759850411858
usemtl material_0_0
f 1/1/1 2/2/1 3/3/1
f 2/2/1 1/1/1 4/4/1
f 5/5/2 6/6/2 7/7/2
f 6/6/2 5/5/2 8/8/2
f 9/9/3 10/10/3 11/11/3
f 10/10/3 9/9/3 12/12/3
f 13/13/4 14/14/4 15/15/4
f 14/14/4 13/13/4 16/16/4
f 17/17/5 18/18/5 19/19/5
f 18/18/5 17/17/5 20/20/5
f 21/21/6 22/22/6 23/23/6
f 22/22/6 21/21/6 24/24/6
