# SSTK version 0.8.0
# 4
mtllib original-4.mtl
o Group4/mesh13/mesh13-geometry#mesh13-geometry
v 0.152486 -0.213234 -0.900213
v 0.152486 -0.200613 -0.844661
v 0.152486 -0.21058 -0.871606
v 0.152486 -0.184011 -0.821213
v 0.163155 -0.21058 -0.871606
v 0.163155 -0.213234 -0.900213
v 0.152486 -0.208393 -0.928532
v 0.163155 -0.184011 -0.821213
v 0.163155 -0.200613 -0.844661
v 0.163155 -0.208393 -0.928532
v 0.152486 -0.161906 -0.802861
v 0.163155 -0.161906 -0.802861
v 0.163155 -0.196388 -0.954633
v 0.152486 -0.196388 -0.954633
v 0.152486 -0.135805 -0.790856
v 0.163155 -0.135805 -0.790856
v 0.163155 -0.178037 -0.976738
v 0.152486 -0.178037 -0.976738
v 0.152486 -0.134564 -0.790644
v 0.163155 -0.134564 -0.790644
v 0.163155 -0.154589 -0.99334
v 0.152486 -0.16772 -0.93658
v 0.152486 -0.154589 -0.99334
v 0.152486 -0.114569 -0.885517
v 0.152486 -0.129159 -0.766854
v 0.163155 -0.127644 -1.003307
v 0.163155 -0.129159 -0.766854
v 0.152486 -0.06267 -0.960447
v 0.152486 -0.111474 -0.882947
v 0.152486 -0.116894 -0.8888
v 0.152486 -0.107645 -0.881236
v 0.152486 -0.127644 -1.003307
v 0.163155 0.4219 0.865085
v 0.163155 0.211507 0.732593
v 0.152486 -0.113733 -0.907296
v 0.152486 -0.107819 -0.881266
v 0.152486 -0.117984 -0.900545
v 0.152486 -0.118662 -0.89658
v 0.152486 -0.11829 -0.892574
v 0.152486 0.211507 0.732593
v 0.163155 -0.099037 -1.005961
v 0.152486 -0.099037 -1.005961
v 0.152486 -0.116303 -0.904201
v 0.152486 -0.110449 -0.909621
v 0.152486 0.4219 0.865085
v 0.163155 -0.070718 -1.00112
v 0.152486 -0.070718 -1.00112
v 0.152486 -0.106676 -0.911017
v 0.152486 -0.103853 -0.880588
v 0.163155 0.460558 0.856302
v 0.163155 -0.044616 -0.989115
v 0.152486 -0.021784 -0.969736
v 0.152486 -0.103261 -0.895988
v 0.152486 -0.10267 -0.911388
v 0.152486 -0.099847 -0.88096
v 0.152486 0.450154 0.858666
v 0.163155 0.04238 -0.984313
v 0.163155 -0.022512 -0.970763
v 0.152486 -0.044616 -0.989115
v 0.152486 -0.091852 -0.906315
v 0.152486 -0.098704 -0.91071
v 0.152486 -0.096074 -0.882355
v -0.142689 0.450154 0.858666
v 0.152486 0.031977 -0.98195
v 0.163155 -0.021784 -0.969736
v -0.153358 0.04238 -0.984313
v 0.152486 -0.022512 -0.970763
v 0.152486 -0.091954 -0.906459
v 0.152486 -0.089629 -0.903176
v 0.152486 -0.095049 -0.909029
v 0.152486 -0.09279 -0.88468
v -0.153358 0.460558 0.856302
v -0.142689 0.031977 -0.98195
v 0.152486 -0.088233 -0.899403
v 0.152486 -0.087861 -0.895397
v 0.152486 -0.09022 -0.887776
v -0.142689 0.4219 0.865085
v -0.153358 0.4219 0.865085
v -0.142689 -0.021784 -0.969736
v 0.152486 -0.088539 -0.891431
v -0.153358 -0.021784 -0.969736
v -0.153358 0.211507 0.732593
v -0.153358 -0.022512 -0.970763
v -0.142689 -0.088233 -0.899403
v -0.142689 0.211507 0.732593
v -0.153358 -0.154589 -0.99334
v -0.153358 -0.044616 -0.989115
v -0.142689 -0.022512 -0.970763
v -0.142689 -0.087861 -0.895397
v -0.142689 -0.089629 -0.903176
v -0.153358 -0.134564 -0.790644
v -0.142689 -0.134564 -0.790644
v -0.153358 -0.127644 -1.003307
v -0.153358 -0.070718 -1.00112
v -0.142689 -0.044616 -0.989115
v -0.142689 -0.088539 -0.891431
v -0.142689 -0.091852 -0.906315
v -0.142689 -0.107645 -0.881236
v -0.153358 -0.178037 -0.976738
v -0.153358 -0.099037 -1.005961
v -0.142689 -0.127644 -1.003307
v -0.142689 -0.070718 -1.00112
v -0.142689 -0.09022 -0.887776
v -0.142689 -0.091954 -0.906459
v -0.153358 -0.135805 -0.790856
v -0.142689 -0.107819 -0.881266
v -0.142689 -0.103853 -0.880588
v -0.142689 -0.154589 -0.99334
v -0.142689 -0.099037 -1.005961
v -0.142689 -0.09279 -0.88468
v -0.142689 -0.095049 -0.909029
v -0.142689 -0.135805 -0.790856
v -0.142689 -0.111474 -0.882947
v -0.142689 -0.113733 -0.907296
v -0.142689 -0.103261 -0.895988
v -0.142689 -0.099847 -0.88096
v -0.153358 -0.196388 -0.954633
v -0.142689 -0.178037 -0.976738
v -0.142689 -0.096074 -0.882355
v -0.142689 -0.098704 -0.91071
v -0.153358 -0.161906 -0.802861
v -0.142689 -0.114569 -0.885517
v -0.142689 -0.116303 -0.904201
v -0.142689 -0.110449 -0.909621
v -0.142689 -0.16772 -0.93658
v -0.142689 -0.10267 -0.911388
v -0.142689 -0.161906 -0.802861
v -0.142689 -0.117984 -0.900545
v -0.142689 -0.106676 -0.911017
v -0.153358 -0.208393 -0.928532
v -0.142689 -0.196388 -0.954633
v -0.153358 -0.184011 -0.821213
v -0.142689 -0.116894 -0.8888
v -0.142689 -0.118662 -0.89658
v -0.142689 -0.184011 -0.821213
v -0.142689 -0.11829 -0.892574
v -0.153358 -0.213234 -0.900213
v -0.142689 -0.208393 -0.928532
v -0.142689 -0.200613 -0.844661
v -0.153358 -0.200613 -0.844661
v -0.142689 -0.213234 -0.900213
v -0.153358 -0.21058 -0.871606
v -0.142689 -0.21058 -0.871606
vn 1.0 0.0 0.0
vn -1.0 0.0 0.0
vn 0.0 -0.9751494444220227 0.22154810097001615
vn 0.0 -0.8845808322259924 0.4663869115427348
vn 0.0 0.9751494444220227 -0.22154810097001615
vn 0.0 0.8845808322259924 -0.4663869115427348
vn 0.0 -0.9992629092104736 -0.03838799651220115
vn 0.0 0.9992629092104736 0.03838799651220115
vn 0.0 -0.7337300787362121 0.6794410729104857
vn 0.0 0.7337300787362121 -0.6794410729104857
vn 0.0 -0.9552783445937985 -0.29570810666962183
vn 0.0 0.9552783445937985 0.29570810666962183
vn 0.0 -0.5328761533018305 0.8461932434392537
vn 0.0 0.5328761533018305 -0.8461932434392537
vn 0.0 -0.8461932434392537 -0.5328761533018305
vn 0.0 0.8461932434392537 0.5328761533018305
vn 0.0 -0.29570810666962183 0.9552783445937985
vn 0.0 0.29570810666962183 -0.9552783445937985
vn 0.0 -0.6794410729104857 -0.7337300787362121
vn 0.0 0.6794410729104857 0.7337300787362121
vn 0.0 -0.16848908868172782 0.9857035188103981
vn 0.0 0.16848908868172782 -0.9857035188103981
vn 0.0 -0.4663869115427348 -0.8845808322259924
vn 0.0 0.4663869115427348 0.8845808322259924
vn 0.0 -0.22154810097001615 -0.9751494444220227
vn 0.0 0.22154810097001615 0.9751494444220227
vn 0.0 0.03838799651220115 -0.9992629092104736
vn 0.0 -0.03838799651220115 0.9992629092104736
vn 0.0 0.8161375498153871 -0.5778576812514795
vn 0.0 -0.8161375498153871 0.5778576812514795
usemtl material_0_0
f 1//1 2//1 3//1
f 2//1 1//1 4//1
f 3//2 2//2 1//2
f 4//2 1//2 2//2
f 5//3 2//4 3//3
f 3//5 2//6 5//5
f 6//7 3//3 1//7
f 1//8 3//5 6//8
f 4//1 1//1 7//1
f 7//2 1//2 4//2
f 2//4 8//9 4//9
f 4//10 8//10 2//6
f 2//4 5//3 9//4
f 9//6 5//5 2//6
f 3//3 6//7 5//3
f 5//5 6//8 3//5
f 1//7 10//11 6//7
f 6//8 10//12 1//8
f 10//11 1//7 7//11
f 7//12 1//8 10//12
f 4//1 7//1 11//1
f 11//2 7//2 4//2
f 8//9 2//4 9//4
f 9//6 2//6 8//10
f 12//13 4//9 8//9
f 8//10 4//10 12//14
f 9//2 6//2 5//2
f 5//1 6//1 9//1
f 6//2 8//2 10//2
f 10//1 8//1 6//1
f 7//11 13//15 10//11
f 10//12 13//16 7//12
f 11//1 7//1 14//1
f 14//2 7//2 11//2
f 4//9 12//13 11//13
f 11//14 12//14 4//10
f 6//2 9//2 8//2
f 8//1 9//1 6//1
f 10//2 8//2 12//2
f 12//1 8//1 10//1
f 13//15 7//11 14//15
f 14//16 7//12 13//16
f 10//2 12//2 13//2
f 13//1 12//1 10//1
f 11//1 14//1 15//1
f 15//2 14//2 11//2
f 16//17 11//13 12//13
f 12//14 11//14 16//18
f 14//15 17//19 13//15
f 13//16 17//20 14//16
f 13//2 12//2 16//2
f 16//1 12//1 13//1
f 15//1 14//1 18//1
f 18//2 14//2 15//2
f 11//13 16//17 15//17
f 15//18 16//18 11//14
f 17//19 14//15 18//19
f 18//20 14//16 17//20
f 13//2 16//2 17//2
f 17//1 16//1 13//1
f 15//1 18//1 19//1
f 19//2 18//2 15//2
f 20//21 15//17 16//17
f 16//18 15//18 20//22
f 18//19 21//23 17//19
f 17//20 21//24 18//20
f 17//2 16//2 20//2
f 20//1 16//1 17//1
f 19//1 18//1 22//1
f 22//2 18//2 19//2
f 15//17 20//21 19//21
f 19//22 20//22 15//18
f 21//23 18//19 23//23
f 23//24 18//20 21//24
f 17//2 20//2 21//2
f 21//1 20//1 17//1
f 22//1 18//1 23//1
f 23//2 18//2 22//2
f 19//2 24//2 22//2
f 22//1 24//1 19//1
f 25//5 20//5 19//5
f 19//3 20//3 25//3
f 23//23 26//25 21//23
f 21//24 26//26 23//24
f 21//2 20//2 27//2
f 27//1 20//1 21//1
f 22//1 23//1 28//1
f 28//2 23//2 22//2
f 24//2 19//2 29//2
f 29//1 19//1 24//1
f 22//2 24//2 30//2
f 30//1 24//1 22//1
f 20//5 25//5 27//5
f 27//3 25//3 20//3
f 25//2 31//2 19//2
f 19//1 31//1 25//1
f 26//25 23//23 32//25
f 32//26 23//24 26//26
f 21//2 33//2 26//2
f 26//1 33//1 21//1
f 21//2 27//2 34//2
f 34//1 27//1 21//1
f 28//1 23//1 32//1
f 32//2 23//2 28//2
f 22//2 35//2 28//2
f 28//1 35//1 22//1
f 29//2 19//2 36//2
f 36//1 19//1 29//1
f 37//2 24//2 29//2
f 29//1 24//1 37//1
f 38//2 30//2 24//2
f 24//1 30//1 38//1
f 22//2 30//2 39//2
f 39//1 30//1 22//1
f 34//3 25//3 27//3
f 27//5 25//5 34//5
f 31//2 25//2 40//2
f 40//1 25//1 31//1
f 36//2 19//2 31//2
f 31//1 19//1 36//1
f 32//25 41//27 26//25
f 26//26 41//28 32//26
f 21//2 34//2 33//2
f 33//1 34//1 21//1
f 26//2 33//2 41//2
f 41//1 33//1 26//1
f 28//1 32//1 42//1
f 42//2 32//2 28//2
f 35//2 22//2 43//2
f 43//1 22//1 35//1
f 28//2 35//2 44//2
f 44//1 35//1 28//1
f 43//2 29//2 36//2
f 36//1 29//1 43//1
f 38//2 24//2 37//2
f 37//1 24//1 38//1
f 37//2 29//2 43//2
f 43//1 29//1 37//1
f 30//2 38//2 39//2
f 39//1 38//1 30//1
f 38//2 22//2 39//2
f 39//1 22//1 38//1
f 25//3 34//3 40//3
f 40//5 34//5 25//5
f 31//2 40//2 45//2
f 45//1 40//1 31//1
f 35//2 36//2 31//2
f 31//1 36//1 35//1
f 41//27 32//25 42//27
f 42//28 32//26 41//28
f 45//13 34//13 33//13
f 33//14 34//14 45//14
f 41//2 33//2 46//2
f 46//1 33//1 41//1
f 28//1 42//1 47//1
f 47//2 42//2 28//2
f 43//2 22//2 37//2
f 37//1 22//1 43//1
f 43//2 36//2 35//2
f 35//1 36//1 43//1
f 35//2 31//2 44//2
f 44//1 31//1 35//1
f 28//2 44//2 48//2
f 48//1 44//1 28//1
f 37//2 22//2 38//2
f 38//1 22//1 37//1
f 34//13 45//13 40//13
f 40//14 45//14 34//14
f 31//2 45//2 49//2
f 49//1 45//1 31//1
f 47//18 41//27 42//27
f 42//28 41//28 47//17
f 50//26 45//26 33//26
f 33//25 45//25 50//25
f 46//2 33//2 51//2
f 51//1 33//1 46//1
f 41//27 47//18 46//18
f 46//17 47//17 41//28
f 28//1 47//1 52//1
f 52//2 47//2 28//2
f 44//2 31//2 53//2
f 53//1 31//1 44//1
f 44//2 53//2 48//2
f 48//1 53//1 44//1
f 28//2 48//2 54//2
f 54//1 48//1 28//1
f 49//2 45//2 55//2
f 55//1 45//1 49//1
f 49//2 53//2 31//2
f 31//1 53//1 49//1
f 50//26 56//26 45//26
f 45//25 56//25 50//25
f 57//2 33//2 50//2
f 50//1 33//1 57//1
f 51//2 33//2 58//2
f 58//1 33//1 51//1
f 47//18 51//14 46//18
f 46//17 51//13 47//17
f 52//1 47//1 59//1
f 59//2 47//2 52//2
f 28//2 60//2 52//2
f 52//1 60//1 28//1
f 48//2 53//2 54//2
f 54//1 53//1 48//1
f 28//2 54//2 61//2
f 61//1 54//1 28//1
f 55//2 45//2 62//2
f 62//1 45//1 55//1
f 53//2 49//2 55//2
f 55//1 49//1 53//1
f 50//26 63//26 56//26
f 56//25 63//25 50//25
f 64//2 45//2 56//2
f 56//1 45//1 64//1
f 65//2 33//2 57//2
f 57//1 33//1 65//1
f 66//5 50//5 57//5
f 57//3 50//3 66//3
f 58//2 33//2 65//2
f 65//1 33//1 58//1
f 59//14 58//10 51//14
f 51//13 58//9 59//13
f 51//14 47//18 59//14
f 59//13 47//17 51//13
f 52//1 59//1 67//1
f 67//2 59//2 52//2
f 28//2 68//2 60//2
f 60//1 68//1 28//1
f 69//2 52//2 60//2
f 60//1 52//1 69//1
f 54//2 53//2 60//2
f 60//1 53//1 54//1
f 54//2 60//2 61//2
f 61//1 60//1 54//1
f 28//2 61//2 70//2
f 70//1 61//1 28//1
f 62//2 45//2 71//2
f 71//1 45//1 62//1
f 53//2 55//2 62//2
f 62//1 55//1 53//1
f 63//26 50//26 72//26
f 72//25 50//25 63//25
f 63//3 64//3 56//3
f 56//5 64//5 63//5
f 52//2 45//2 64//2
f 64//1 45//1 52//1
f 52//25 57//25 65//25
f 65//26 57//26 52//26
f 50//5 66//5 72//5
f 72//3 66//3 50//3
f 73//25 66//25 57//25
f 57//26 66//26 73//26
f 67//10 65//29 58//10
f 58//9 65//30 67//9
f 58//10 59//14 67//10
f 67//9 59//13 58//9
f 65//29 67//10 52//29
f 52//30 67//9 65//30
f 28//2 70//2 68//2
f 68//1 70//1 28//1
f 70//2 60//2 68//2
f 68//1 60//1 70//1
f 52//2 69//2 74//2
f 74//1 69//1 52//1
f 60//2 75//2 69//2
f 69//1 75//1 60//1
f 53//2 62//2 60//2
f 60//1 62//1 53//1
f 61//2 60//2 70//2
f 70//1 60//1 61//1
f 71//2 45//2 76//2
f 76//1 45//1 71//1
f 60//2 62//2 71//2
f 71//1 62//1 60//1
f 72//26 77//26 63//26
f 63//25 77//25 72//25
f 64//3 63//3 73//3
f 73//5 63//5 64//5
f 74//2 45//2 52//2
f 52//1 45//1 74//1
f 64//25 57//25 52//25
f 52//26 57//26 64//26
f 66//2 78//2 72//2
f 72//1 78//1 66//1
f 79//25 66//25 73//25
f 73//26 66//26 79//26
f 73//25 57//25 64//25
f 64//26 57//26 73//26
f 69//2 75//2 74//2
f 74//1 75//1 69//1
f 60//2 80//2 75//2
f 75//1 80//1 60//1
f 76//2 45//2 80//2
f 80//1 45//1 76//1
f 60//2 71//2 76//2
f 76//1 71//1 60//1
f 77//26 72//26 78//26
f 78//25 72//25 77//25
f 77//1 73//1 63//1
f 63//2 73//2 77//2
f 75//2 45//2 74//2
f 74//1 45//1 75//1
f 81//2 78//2 66//2
f 66//1 78//1 81//1
f 66//25 79//25 81//25
f 81//26 79//26 66//26
f 77//1 79//1 73//1
f 73//2 79//2 77//2
f 60//2 76//2 80//2
f 80//1 76//1 60//1
f 80//2 45//2 75//2
f 75//1 45//1 80//1
f 82//13 77//13 78//13
f 78//14 77//14 82//14
f 83//2 78//2 81//2
f 81//1 78//1 83//1
f 79//29 83//10 81//29
f 81//30 83//9 79//30
f 77//1 84//1 79//1
f 79//2 84//2 77//2
f 77//13 82//13 85//13
f 85//14 82//14 77//14
f 86//2 82//2 78//2
f 78//1 82//1 86//1
f 87//2 78//2 83//2
f 83//1 78//1 87//1
f 83//10 79//29 88//10
f 88//9 79//30 83//9
f 77//1 89//1 84//1
f 84//2 89//2 77//2
f 90//1 79//1 84//1
f 84//2 79//2 90//2
f 91//3 85//3 82//3
f 82//5 85//5 91//5
f 92//1 77//1 85//1
f 85//2 77//2 92//2
f 86//2 91//2 82//2
f 82//1 91//1 86//1
f 86//2 78//2 93//2
f 93//1 78//1 86//1
f 94//2 78//2 87//2
f 87//1 78//1 94//1
f 88//10 87//14 83//10
f 83//9 87//13 88//9
f 95//2 79//2 88//2
f 88//1 79//1 95//1
f 77//1 96//1 89//1
f 89//2 96//2 77//2
f 89//1 90//1 84//1
f 84//2 90//2 89//2
f 79//1 90//1 97//1
f 97//2 90//2 79//2
f 85//3 91//3 92//3
f 92//5 91//5 85//5
f 77//1 92//1 98//1
f 98//2 92//2 77//2
f 99//2 91//2 86//2
f 86//1 91//1 99//1
f 93//2 78//2 100//2
f 100//1 78//1 93//1
f 101//25 86//23 93//25
f 93//26 86//24 101//26
f 100//2 78//2 94//2
f 94//1 78//1 100//1
f 95//14 94//18 87//14
f 87//13 94//17 95//13
f 87//14 88//10 95//14
f 95//13 88//9 87//13
f 102//2 79//2 95//2
f 95//1 79//1 102//1
f 77//1 103//1 96//1
f 96//2 103//2 77//2
f 96//1 97//1 89//1
f 89//2 97//2 96//2
f 89//1 97//1 90//1
f 90//2 97//2 89//2
f 104//1 79//1 97//1
f 97//2 79//2 104//2
f 105//17 92//21 91//21
f 91//22 92//22 105//18
f 92//1 106//1 98//1
f 98//2 106//2 92//2
f 77//1 98//1 107//1
f 107//2 98//2 77//2
f 99//2 105//2 91//2
f 91//1 105//1 99//1
f 108//23 99//19 86//23
f 86//24 99//20 108//24
f 100//27 101//25 93//25
f 93//26 101//26 100//28
f 86//23 101//25 108//23
f 108//24 101//26 86//24
f 94//18 109//27 100//27
f 100//28 109//28 94//17
f 94//18 95//14 102//18
f 102//17 95//13 94//17
f 109//2 79//2 102//2
f 102//1 79//1 109//1
f 77//1 110//1 103//1
f 103//2 110//2 77//2
f 103//1 97//1 96//1
f 96//2 97//2 103//2
f 111//1 79//1 104//1
f 104//2 79//2 111//2
f 97//1 111//1 104//1
f 104//2 111//2 97//2
f 92//21 105//17 112//17
f 112//18 105//18 92//22
f 106//1 92//1 113//1
f 113//2 92//2 106//2
f 106//1 114//1 98//1
f 98//2 114//2 106//2
f 115//1 107//1 98//1
f 98//2 107//2 115//2
f 77//1 107//1 116//1
f 116//2 107//2 77//2
f 117//2 105//2 99//2
f 99//1 105//1 117//1
f 99//19 108//23 118//19
f 118//20 108//24 99//20
f 101//25 100//27 109//27
f 109//28 100//28 101//26
f 108//2 79//2 101//2
f 101//1 79//1 108//1
f 109//27 94//18 102//18
f 102//17 94//17 109//28
f 101//2 79//2 109//2
f 109//1 79//1 101//1
f 77//1 119//1 110//1
f 110//2 119//2 77//2
f 110//1 97//1 103//1
f 103//2 97//2 110//2
f 120//1 79//1 111//1
f 111//2 79//2 120//2
f 97//1 120//1 111//1
f 111//2 120//2 97//2
f 121//13 112//17 105//17
f 105//18 112//18 121//14
f 118//2 112//2 92//2
f 92//1 112//1 118//1
f 113//1 92//1 122//1
f 122//2 92//2 113//2
f 113//1 123//1 106//1
f 106//2 123//2 113//2
f 106//1 123//1 114//1
f 114//2 123//2 106//2
f 98//1 114//1 124//1
f 124//2 114//2 98//2
f 107//1 115//1 116//1
f 116//2 115//2 107//2
f 98//1 124//1 115//1
f 115//2 124//2 98//2
f 77//1 116//1 119//1
f 119//2 116//2 77//2
f 117//2 121//2 105//2
f 105//1 121//1 117//1
f 118//19 117//15 99//19
f 99//20 117//16 118//20
f 118//2 125//2 108//2
f 108//1 125//1 118//1
f 108//2 125//2 79//2
f 79//1 125//1 108//1
f 119//1 97//1 110//1
f 110//2 97//2 119//2
f 126//1 79//1 120//1
f 120//2 79//2 126//2
f 97//1 126//1 120//1
f 120//2 126//2 97//2
f 112//17 121//13 127//13
f 127//14 121//14 112//18
f 118//2 127//2 112//2
f 112//1 127//1 118//1
f 118//2 92//2 125//2
f 125//1 92//1 118//1
f 122//1 92//1 125//1
f 125//2 92//2 122//2
f 122//1 128//1 113//1
f 113//2 128//2 122//2
f 113//1 128//1 123//1
f 123//2 128//2 113//2
f 123//1 125//1 114//1
f 114//2 125//2 123//2
f 114//1 125//1 124//1
f 124//2 125//2 114//2
f 116//1 115//1 119//1
f 119//2 115//2 116//2
f 115//1 124//1 129//1
f 129//2 124//2 115//2
f 130//2 121//2 117//2
f 117//1 121//1 130//1
f 117//15 118//19 131//15
f 131//16 118//20 117//16
f 124//1 125//1 79//1
f 79//2 125//2 124//2
f 119//1 115//1 97//1
f 97//2 115//2 119//2
f 129//1 79//1 126//1
f 126//2 79//2 129//2
f 115//1 126//1 97//1
f 97//2 126//2 115//2
f 132//9 127//13 121//13
f 121//14 127//14 132//10
f 131//2 127//2 118//2
f 118//1 127//1 131//1
f 122//1 125//1 133//1
f 133//2 125//2 122//2
f 122//1 134//1 128//1
f 128//2 134//2 122//2
f 128//1 125//1 123//1
f 123//2 125//2 128//2
f 124//1 79//1 129//1
f 129//2 79//2 124//2
f 115//1 129//1 126//1
f 126//2 129//2 115//2
f 130//2 132//2 121//2
f 121//1 132//1 130//1
f 131//15 130//11 117//15
f 117//16 130//12 131//16
f 127//13 132//9 135//9
f 135//10 132//10 127//14
f 131//2 135//2 127//2
f 127//1 135//1 131//1
f 133//1 125//1 136//1
f 136//2 125//2 133//2
f 133//1 134//1 122//1
f 122//2 134//2 133//2
f 134//1 125//1 128//1
f 128//2 125//2 134//2
f 137//2 132//2 130//2
f 130//1 132//1 137//1
f 130//11 131//15 138//11
f 138//12 131//16 130//12
f 132//9 139//4 135//9
f 135//10 139//6 132//10
f 138//2 135//2 131//2
f 131//1 135//1 138//1
f 125//1 134//1 136//1
f 136//2 134//2 125//2
f 134//1 133//1 136//1
f 136//2 133//2 134//2
f 137//2 140//2 132//2
f 132//1 140//1 137//1
f 130//11 141//7 137//7
f 137//8 141//8 130//12
f 141//7 130//11 138//11
f 138//12 130//12 141//8
f 139//4 132//9 140//4
f 140//6 132//10 139//6
f 138//2 139//2 135//2
f 135//1 139//1 138//1
f 140//2 137//2 142//2
f 142//1 137//1 140//1
f 141//7 142//3 137//7
f 137//8 142//5 141//8
f 141//2 139//2 138//2
f 138//1 139//1 141//1
f 142//3 139//4 140//4
f 140//6 139//6 142//5
f 142//3 141//7 143//3
f 143//5 141//8 142//5
f 139//2 141//2 143//2
f 143//1 141//1 139//1
f 139//4 142//3 143//3
f 143//5 142//5 139//6
