# SSTK version 0.8.0
# 7
mtllib original-7.mtl
o Group7/mesh19/mesh19-geometry#mesh19-geometry
v -0.107977 -0.014408 0.567996
v -0.118202 -0.090256 0.035061
v -0.107977 -0.090256 0.035061
v -0.118202 -0.014408 0.567996
v -0.107977 0.02097 0.019231
v -0.118202 0.096818 0.552166
v -0.118202 0.031093 0.017791
v -0.107977 0.096818 0.552166
v -0.118202 0.083416 0.457998
v -0.062303 0.031093 0.017791
v -0.107977 0.083416 0.457998
v -0.118202 0.093539 0.456557
v -0.062303 0.02097 0.019231
v 0.117774 0.083416 0.457998
v 0.072101 0.031093 0.017791
v -0.062303 0.012898 -0.037485
v 0.127999 0.093539 0.456557
v 0.127999 0.031093 0.017791
v 0.072101 0.023021 -0.038926
v -0.062303 0.023021 -0.038926
v 0.072101 0.02097 0.019231
v 0.127999 0.083416 0.457998
v 0.072101 0.012898 -0.037485
v -0.092938 0.023021 -0.038926
v 0.117774 0.02097 0.019231
v 0.117774 0.096818 0.552166
v 0.102736 0.023021 -0.038926
v 0.102736 0.012898 -0.037485
v -0.092938 0.012898 -0.037485
v 0.127999 0.096818 0.552166
v 0.127999 -0.014408 0.567996
v 0.117774 -0.090256 0.035061
v -0.092938 0.005688 -0.088147
v 0.102736 0.015811 -0.089588
v 0.127999 -0.090256 0.035061
v -0.092938 0.015811 -0.089588
v 0.117774 -0.014408 0.567996
v 0.102736 0.005688 -0.088147
v -0.107977 0.015811 -0.089588
v 0.127999 0.015811 -0.089588
v 0.117774 0.005688 -0.088147
v -0.118202 0.005688 -0.088147
v -0.107977 0.005688 -0.088147
v 0.117774 0.015811 -0.089588
v -0.118202 0.015811 -0.089588
v 0.127999 0.005688 -0.088147
v 0.030701 0.007106 -0.150748
v 0.127999 -0.009271 -0.265823
v -0.020904 -0.000771 -0.133534
v -0.118202 -0.009271 -0.265823
v 0.056504 -0.00783 -0.2557
v -0.020904 0.007106 -0.150748
v 0.127999 -0.017953 -0.254259
v -0.020904 -0.003016 -0.149307
v 0.030701 -0.000771 -0.133534
v -0.118202 -0.017953 -0.254259
v -0.046707 -0.009271 -0.265823
v 0.030701 -0.00783 -0.2557
v -0.020904 -0.00783 -0.2557
v 0.127999 -0.13062 -0.248552
v 0.056504 -0.017953 -0.254259
v 0.056504 -0.009271 -0.265823
v -0.020904 -0.008414 -0.15483
v 0.030701 -0.003016 -0.149307
v 0.030701 -0.008431 -0.139061
v -0.118202 -0.13062 -0.248552
v -0.046707 -0.00783 -0.2557
v 0.030701 -0.017953 -0.254259
v -0.020904 -0.017953 -0.254259
v 0.127999 -0.12918 -0.23843
v 0.056504 -0.13062 -0.248552
v -0.046707 -0.017953 -0.254259
v -0.020904 -0.008431 -0.139061
v 0.030701 -0.008414 -0.15483
v -0.118202 -0.12918 -0.23843
v -0.046707 -0.13062 -0.248552
v 0.056504 -0.12918 -0.23843
v -0.046707 -0.12918 -0.23843
v -0.020904 -0.013282 -0.160825
v 0.030701 -0.013282 -0.160825
v -0.020904 -0.015449 -0.145383
v -0.020904 -0.01758 -0.167242
v 0.030701 -0.015449 -0.145383
v 0.030701 -0.01758 -0.167242
v -0.020904 -0.021744 -0.152427
v -0.020904 -0.021271 -0.174025
v 0.030701 -0.021271 -0.174025
v 0.030701 -0.021744 -0.152427
v -0.020904 -0.026714 -0.188463
v -0.020904 -0.024324 -0.181119
v -0.020904 -0.02724 -0.160109
v 0.030701 -0.026714 -0.188463
v -0.020904 -0.028419 -0.195995
v 0.030701 -0.024324 -0.181119
v 0.030701 -0.02724 -0.160109
v -0.020904 -0.037031 -0.232716
v 0.030701 -0.028419 -0.195995
v -0.020904 -0.031875 -0.168339
v 0.030701 -0.037031 -0.232716
v -0.020904 -0.03932 -0.223552
v -0.020904 -0.029426 -0.203652
v 0.030701 -0.029426 -0.203652
v 0.030701 -0.031875 -0.168339
v 0.030701 -0.03932 -0.223552
v -0.020904 -0.029727 -0.211369
v -0.020904 -0.035593 -0.177023
v -0.020904 -0.040605 -0.214194
v 0.030701 -0.040605 -0.214194
v 0.030701 -0.029727 -0.211369
v -0.020904 -0.029318 -0.219081
v 0.030701 -0.035593 -0.177023
v 0.030701 -0.026393 -0.23423
v 0.030701 -0.029318 -0.219081
v -0.020904 -0.028204 -0.226723
v -0.020904 -0.038352 -0.186057
v -0.020904 -0.040873 -0.204752
v 0.030701 -0.040873 -0.204752
v -0.020904 -0.026393 -0.23423
v 0.030701 -0.028204 -0.226723
v 0.030701 -0.038352 -0.186057
v -0.020904 -0.040118 -0.195336
v 0.030701 -0.040118 -0.195336
vn 0.0 -0.9900236968661758 0.14090095685775397
vn 0.0 0.9900236968661758 -0.14090095685775397
vn 0.0 -0.14090095685775397 -0.9900236968661758
vn 0.0 0.14090095685775397 0.9900236968661758
vn 1.0 0.0 0.0
vn -1.0 0.0 0.0
vn 0.0 -0.5851459817141884 0.8109279746585012
vn 0.0 -0.6281501309806227 0.7780921622462385
vn 0.0 0.5851459817141884 -0.8109279746585012
vn 0.0 0.6281501309806227 -0.7780921622462385
vn 0.0 0.7151757053473126 -0.6989447120344885
vn 0.0 0.7465171697412272 -0.6653661512893093
vn 0.0 -0.7465171697412272 0.6653661512893093
vn 0.0 -0.7151757053473126 0.6989447120344885
vn 0.0 0.8044127475712974 -0.5940708135776377
vn 0.0 -0.8044127475712974 0.5940708135776377
vn 0.0 -0.7085213641226844 0.7056893626672648
vn 0.0 0.7085213641226844 -0.7056893626672648
vn 0.0 0.8555229149807035 -0.5177649485460752
vn 0.0 -0.8555229149807035 0.5177649485460752
vn 0.0 -0.7806017138139006 0.6250287708504314
vn 0.0 0.7806017138139006 -0.6250287708504314
vn 0.0 0.8994168397450697 -0.437091922120498
vn 0.0 -0.8994168397450697 0.437091922120498
vn 0.0 -0.8435479041645281 0.5370539389853055
vn 0.0 0.8435479041645281 -0.5370539389853055
vn 0.0 0.9357247969542911 -0.35273092345986706
vn 0.0 -0.9357247969542911 0.35273092345986706
vn 0.0 0.964139458864448 -0.26539612631040654
vn 0.0 0.9844219755036439 -0.17582199562484552
vn 0.0 -0.9844219755036439 0.17582199562484552
vn 0.0 -0.964139458864448 0.26539612631040654
vn 0.0 -0.8966229030956916 0.4427949521440525
vn 0.0 0.8966229030956916 -0.4427949521440525
vn 0.0 0.9964009710914191 -0.08476499754071316
vn 0.0 -0.9964009710914191 0.08476499754071316
vn 0.0 -0.970194654147982 -0.24232691361604422
vn 0.0 -0.9818812890806223 -0.1894970557907839
vn 0.0 0.9818812890806223 0.1894970557907839
vn 0.0 0.970194654147982 0.24232691361604422
vn 0.0 -0.939205733988328 0.343354902751433
vn 0.0 0.939205733988328 -0.343354902751433
vn 0.0 -0.9966052041715394 -0.08232901686650043
vn 0.0 0.9966052041715394 0.08232901686650043
vn 0.0 0.9999754506520381 0.007007003157797776
vn 0.0 -0.9999754506520381 -0.007007003157797776
vn 0.0 0.9951152479703118 0.0987200245997992
vn 0.0 -0.9951152479703118 -0.0987200245997992
vn 0.0 -0.9707983264732218 0.23989708067584245
vn 0.0 0.9707983264732218 -0.23989708067584245
vn 0.0 -0.9996670729292143 0.02580200188234641
vn 0.0 0.9996670729292143 -0.02580200188234641
vn 0.0 0.9818614009328752 0.1896000774212166
vn 0.0 -0.9818614009328752 -0.1896000774212166
vn 0.0 0.972119013461418 0.23448800324707264
vn 0.0 -0.972119013461418 -0.23448800324707264
vn 0.0 -0.9910311550359351 0.13363102090510492
vn 0.0 0.9910311550359351 -0.13363102090510492
usemtl material_0_0
f 1//1 2//1 3//1
f 2//1 1//1 4//1
f 3//2 2//2 1//2
f 4//2 1//2 2//2
f 3//3 2//3 5//3
f 5//4 2//4 3//4
f 5//5 1//5 3//5
f 3//6 1//6 5//6
f 1//4 6//4 4//4
f 4//3 6//3 1//3
f 4//6 7//6 2//6
f 2//5 7//5 4//5
f 7//3 5//3 2//3
f 2//4 5//4 7//4
f 1//5 5//5 8//5
f 8//6 5//6 1//6
f 6//4 1//4 8//4
f 8//3 1//3 6//3
f 9//6 4//6 6//6
f 6//5 4//5 9//5
f 7//6 4//6 9//6
f 9//5 4//5 7//5
f 5//3 7//3 10//3
f 10//4 7//4 5//4
f 8//5 5//5 11//5
f 11//6 5//6 8//6
f 11//2 6//2 8//2
f 8//1 6//1 11//1
f 6//2 11//2 9//2
f 9//1 11//1 6//1
f 7//6 9//6 12//6
f 12//5 9//5 7//5
f 12//2 10//2 7//2
f 7//1 10//1 12//1
f 5//3 10//3 13//3
f 13//4 10//4 5//4
f 5//1 14//1 11//1
f 11//2 14//2 5//2
f 11//4 12//4 9//4
f 9//3 12//3 11//3
f 10//2 12//2 15//2
f 15//1 12//1 10//1
f 10//6 16//6 13//6
f 13//5 16//5 10//5
f 13//1 14//1 5//1
f 5//2 14//2 13//2
f 17//4 11//4 14//4
f 14//3 11//3 17//3
f 12//4 11//4 17//4
f 17//3 11//3 12//3
f 15//2 12//2 18//2
f 18//1 12//1 15//1
f 19//2 10//2 15//2
f 15//1 10//1 19//1
f 16//6 10//6 20//6
f 20//5 10//5 16//5
f 16//1 21//1 13//1
f 13//2 21//2 16//2
f 21//1 14//1 13//1
f 13//2 14//2 21//2
f 17//4 14//4 22//4
f 22//3 14//3 17//3
f 18//2 12//2 17//2
f 17//1 12//1 18//1
f 18//3 21//3 15//3
f 15//4 21//4 18//4
f 10//2 19//2 20//2
f 20//1 19//1 10//1
f 15//5 23//5 19//5
f 19//6 23//6 15//6
f 24//4 16//4 20//4
f 20//3 16//3 24//3
f 21//1 16//1 23//1
f 23//2 16//2 21//2
f 14//1 21//1 25//1
f 25//2 21//2 14//2
f 26//2 22//2 14//2
f 14//1 22//1 26//1
f 22//5 18//5 17//5
f 17//6 18//6 22//6
f 21//3 18//3 25//3
f 25//4 18//4 21//4
f 23//5 15//5 21//5
f 21//6 15//6 23//6
f 27//2 20//2 19//2
f 19//1 20//1 27//1
f 28//4 19//4 23//4
f 23//3 19//3 28//3
f 16//4 24//4 29//4
f 29//3 24//3 16//3
f 27//2 24//2 20//2
f 20//1 24//1 27//1
f 29//1 23//1 16//1
f 16//2 23//2 29//2
f 25//6 26//6 14//6
f 14//5 26//5 25//5
f 22//2 26//2 30//2
f 30//1 26//1 22//1
f 31//5 18//5 22//5
f 22//6 18//6 31//6
f 25//3 18//3 32//3
f 32//4 18//4 25//4
f 19//4 28//4 27//4
f 27//3 28//3 19//3
f 29//1 28//1 23//1
f 23//2 28//2 29//2
f 24//6 33//6 29//6
f 29//5 33//5 24//5
f 34//2 24//2 27//2
f 27//1 24//1 34//1
f 32//6 26//6 25//6
f 25//5 26//5 32//5
f 26//4 31//4 30//4
f 30//3 31//3 26//3
f 30//5 31//5 22//5
f 22//6 31//6 30//6
f 18//5 31//5 35//5
f 35//6 31//6 18//6
f 32//3 18//3 35//3
f 35//4 18//4 32//4
f 28//5 34//5 27//5
f 27//6 34//6 28//6
f 33//1 28//1 29//1
f 29//2 28//2 33//2
f 33//6 24//6 36//6
f 36//5 24//5 33//5
f 24//2 34//2 36//2
f 36//1 34//1 24//1
f 26//6 32//6 37//6
f 37//5 32//5 26//5
f 31//4 26//4 37//4
f 37//3 26//3 31//3
f 31//1 32//1 35//1
f 35//2 32//2 31//2
f 34//5 28//5 38//5
f 38//6 28//6 34//6
f 28//1 33//1 38//1
f 38//2 33//2 28//2
f 39//4 33//4 36//4
f 36//3 33//3 39//3
f 40//2 36//2 34//2
f 34//1 36//1 40//1
f 32//1 31//1 37//1
f 37//2 31//2 32//2
f 41//4 34//4 38//4
f 38//3 34//3 41//3
f 42//1 38//1 33//1
f 33//2 38//2 42//2
f 33//4 39//4 43//4
f 43//3 39//3 33//3
f 40//2 39//2 36//2
f 36//1 39//1 40//1
f 40//2 34//2 44//2
f 44//1 34//1 40//1
f 34//4 41//4 44//4
f 44//3 41//3 34//3
f 42//1 41//1 38//1
f 38//2 41//2 42//2
f 42//1 33//1 43//1
f 43//2 33//2 42//2
f 45//4 43//4 39//4
f 39//3 43//3 45//3
f 40//2 45//2 39//2
f 39//1 45//1 40//1
f 44//4 46//4 40//4
f 40//3 46//3 44//3
f 46//4 44//4 41//4
f 41//3 44//3 46//3
f 42//1 46//1 41//1
f 41//2 46//2 42//2
f 43//4 45//4 42//4
f 42//3 45//3 43//3
f 40//2 47//2 45//2
f 45//1 47//1 40//1
f 46//5 48//5 40//5
f 40//6 48//6 46//6
f 42//1 49//1 46//1
f 46//2 49//2 42//2
f 50//6 42//6 45//6
f 45//5 42//5 50//5
f 40//2 51//2 47//2
f 47//1 51//1 40//1
f 52//2 45//2 47//2
f 47//1 45//1 52//1
f 53//5 48//5 46//5
f 46//6 48//6 53//6
f 48//2 51//2 40//2
f 40//1 51//1 48//1
f 42//1 54//1 49//1
f 49//2 54//2 42//2
f 55//1 46//1 49//1
f 49//2 46//2 55//2
f 50//6 56//6 42//6
f 42//5 56//5 50//5
f 45//2 57//2 50//2
f 50//1 57//1 45//1
f 47//2 51//2 58//2
f 58//1 51//1 47//1
f 59//2 45//2 52//2
f 52//1 45//1 59//1
f 47//3 54//3 52//3
f 52//4 54//4 47//4
f 53//5 60//5 48//5
f 48//6 60//6 53//6
f 46//1 61//1 53//1
f 53//2 61//2 46//2
f 51//2 48//2 62//2
f 62//1 48//1 51//1
f 56//1 54//1 42//1
f 42//2 54//2 56//2
f 63//6 49//6 54//6
f 54//5 49//5 63//5
f 64//1 46//1 55//1
f 55//2 46//2 64//2
f 49//7 65//8 55//7
f 55//9 65//10 49//9
f 66//6 56//6 50//6
f 50//5 56//5 66//5
f 57//2 45//2 67//2
f 67//1 45//1 57//1
f 57//3 66//3 50//3
f 50//4 66//4 57//4
f 51//3 68//3 58//3
f 58//4 68//4 51//4
f 68//6 47//6 58//6
f 58//5 47//5 68//5
f 67//2 45//2 59//2
f 59//1 45//1 67//1
f 52//5 69//5 59//5
f 59//6 69//6 52//6
f 54//3 47//3 64//3
f 64//4 47//4 54//4
f 69//5 52//5 54//5
f 54//6 52//6 69//6
f 60//5 53//5 70//5
f 70//6 53//6 60//6
f 71//3 48//3 60//3
f 60//4 48//4 71//4
f 61//1 46//1 68//1
f 68//2 46//2 61//2
f 61//4 70//4 53//4
f 53//3 70//3 61//3
f 48//3 71//3 62//3
f 62//4 71//4 48//4
f 62//6 61//6 51//6
f 51//5 61//5 62//5
f 72//1 54//1 56//1
f 56//2 54//2 72//2
f 63//6 73//6 49//6
f 49//5 73//5 63//5
f 54//11 74//12 63//12
f 63//13 74//13 54//14
f 68//1 46//1 64//1
f 64//2 46//2 68//2
f 55//5 74//5 64//5
f 64//6 74//6 55//6
f 65//8 49//7 73//8
f 73//10 49//9 65//10
f 65//5 74//5 55//5
f 55//6 74//6 65//6
f 56//6 66//6 75//6
f 75//5 66//5 56//5
f 72//5 57//5 67//5
f 67//6 57//6 72//6
f 66//3 57//3 76//3
f 76//4 57//4 66//4
f 68//3 51//3 61//3
f 61//4 51//4 68//4
f 47//6 68//6 64//6
f 64//5 68//5 47//5
f 59//3 72//3 67//3
f 67//4 72//4 59//4
f 72//3 59//3 69//3
f 69//4 59//4 72//4
f 74//12 54//11 64//11
f 64//14 54//14 74//13
f 54//1 72//1 69//1
f 69//2 72//2 54//2
f 70//1 71//1 60//1
f 60//2 71//2 70//2
f 70//4 61//4 77//4
f 77//3 61//3 70//3
f 71//6 61//6 62//6
f 62//5 61//5 71//5
f 56//4 78//4 72//4
f 72//3 78//3 56//3
f 79//6 73//6 63//6
f 63//5 73//5 79//5
f 80//15 63//12 74//12
f 74//13 63//13 80//16
f 81//17 65//8 73//8
f 73//10 65//10 81//18
f 65//5 80//5 74//5
f 74//6 80//6 65//6
f 66//1 78//1 75//1
f 75//2 78//2 66//2
f 78//4 56//4 75//4
f 75//3 56//3 78//3
f 78//5 57//5 72//5
f 72//6 57//6 78//6
f 57//5 78//5 76//5
f 76//6 78//6 57//6
f 78//1 66//1 76//1
f 76//2 66//2 78//2
f 71//1 70//1 77//1
f 77//2 70//2 71//2
f 61//6 71//6 77//6
f 77//5 71//5 61//5
f 82//6 73//6 79//6
f 79//5 73//5 82//5
f 63//12 80//15 79//15
f 79//16 80//16 63//13
f 65//8 81//17 83//17
f 83//18 81//18 65//10
f 82//6 81//6 73//6
f 73//5 81//5 82//5
f 65//5 84//5 80//5
f 80//6 84//6 65//6
f 79//15 84//19 82//19
f 82//20 84//20 79//16
f 84//19 79//15 80//15
f 80//16 79//16 84//20
f 85//21 83//17 81//17
f 81//18 83//18 85//22
f 83//5 84//5 65//5
f 65//6 84//6 83//6
f 86//6 81//6 82//6
f 82//5 81//5 86//5
f 87//23 82//19 84//19
f 84//20 82//20 87//24
f 83//17 85//21 88//21
f 88//22 85//22 83//18
f 89//6 85//6 81//6
f 81//5 85//5 89//5
f 83//5 87//5 84//5
f 84//6 87//6 83//6
f 90//6 81//6 86//6
f 86//5 81//5 90//5
f 82//19 87//23 86//23
f 86//24 87//24 82//20
f 91//25 88//21 85//21
f 85//22 88//22 91//26
f 88//5 92//5 83//5
f 83//6 92//6 88//6
f 93//6 85//6 89//6
f 89//5 85//5 93//5
f 89//6 81//6 90//6
f 90//5 81//5 89//5
f 83//5 94//5 87//5
f 87//6 94//6 83//6
f 86//23 94//27 90//27
f 90//28 94//28 86//24
f 94//27 86//23 87//23
f 87//24 86//24 94//28
f 88//21 91//25 95//25
f 95//26 91//26 88//22
f 96//6 91//6 85//6
f 85//5 91//5 96//5
f 88//5 97//5 92//5
f 92//6 97//6 88//6
f 83//5 92//5 94//5
f 94//6 92//6 83//6
f 96//6 85//6 93//6
f 93//5 85//5 96//5
f 89//29 97//30 93//30
f 93//31 97//31 89//32
f 90//27 92//29 89//29
f 89//32 92//32 90//28
f 92//29 90//27 94//27
f 94//28 90//28 92//32
f 98//33 95//25 91//25
f 91//26 95//26 98//34
f 95//5 99//5 88//5
f 88//6 99//6 95//6
f 100//6 91//6 96//6
f 96//5 91//5 100//5
f 88//5 99//5 97//5
f 97//6 99//6 88//6
f 97//30 89//29 92//29
f 92//32 89//32 97//31
f 101//6 96//6 93//6
f 93//5 96//5 101//5
f 102//35 93//30 97//30
f 97//31 93//31 102//36
f 95//25 98//33 103//33
f 103//34 98//34 95//26
f 100//6 98//6 91//6
f 91//5 98//5 100//5
f 95//5 104//5 99//5
f 99//6 104//6 95//6
f 96//37 104//38 100//38
f 100//39 104//39 96//40
f 99//5 102//5 97//5
f 97//6 102//6 99//6
f 105//6 96//6 101//6
f 101//5 96//5 105//5
f 93//30 102//35 101//35
f 101//36 102//36 93//31
f 106//41 103//33 98//33
f 98//34 103//34 106//42
f 103//5 104//5 95//5
f 95//6 104//6 103//6
f 107//6 98//6 100//6
f 100//5 98//5 107//5
f 104//38 96//37 99//37
f 99//40 96//40 104//39
f 108//43 100//38 104//38
f 104//39 100//39 108//44
f 102//5 99//5 109//5
f 109//6 99//6 102//6
f 110//6 96//6 105//6
f 105//5 96//5 110//5
f 101//35 109//45 105//45
f 105//46 109//46 101//36
f 109//45 101//35 102//35
f 102//36 101//36 109//46
f 103//33 106//41 111//41
f 111//42 106//42 103//34
f 107//6 106//6 98//6
f 98//5 106//5 107//5
f 103//5 108//5 104//5
f 104//6 108//6 103//6
f 100//38 108//43 107//43
f 107//44 108//44 100//39
f 96//3 112//3 99//3
f 99//4 112//4 96//4
f 109//5 99//5 113//5
f 113//6 99//6 109//6
f 114//6 96//6 110//6
f 110//5 96//5 114//5
f 105//45 113//47 110//47
f 110//48 113//48 105//46
f 113//47 105//45 109//45
f 109//46 105//46 113//48
f 115//49 111//41 106//41
f 106//42 111//42 115//50
f 111//5 108//5 103//5
f 103//6 108//6 111//6
f 116//6 106//6 107//6
f 107//5 106//5 116//5
f 117//51 107//43 108//43
f 108//44 107//44 117//52
f 112//3 96//3 118//3
f 118//4 96//4 112//4
f 119//5 99//5 112//5
f 112//6 99//6 119//6
f 113//5 99//5 119//5
f 119//6 99//6 113//6
f 96//6 114//6 118//6
f 118//5 114//5 96//5
f 110//47 119//53 114//53
f 114//54 119//54 110//48
f 119//53 110//47 113//47
f 113//48 110//48 119//54
f 111//41 115//49 120//49
f 120//50 115//50 111//42
f 116//6 115//6 106//6
f 106//5 115//5 116//5
f 111//5 117//5 108//5
f 108//6 117//6 111//6
f 107//43 117//51 116//51
f 116//52 117//52 107//44
f 114//53 112//55 118//55
f 118//56 112//56 114//54
f 112//55 114//53 119//53
f 119//54 114//54 112//56
f 121//57 120//49 115//49
f 115//50 120//50 121//58
f 120//5 117//5 111//5
f 111//6 117//6 120//6
f 115//6 116//6 121//6
f 121//5 116//5 115//5
f 122//57 116//51 117//51
f 117//52 116//52 122//58
f 120//49 121//57 122//57
f 122//58 121//58 120//50
f 117//5 120//5 122//5
f 122//6 120//6 117//6
f 116//51 122//57 121//57
f 121//58 122//58 116//52
