# SSTK version 0.8.0
# 6
mtllib original-6.mtl
o Group6/mesh16/mesh16-geometry#mesh16-geometry
v -0.13202 -0.212217 -0.880481
v -0.121795 -0.212518 -0.90921
v -0.13202 -0.212518 -0.90921
v -0.121795 -0.212217 -0.880481
v -0.121795 -0.205373 -0.937037
v -0.13202 0.137261 0.666554
v -0.121795 -0.195971 -0.766329
v -0.13202 -0.205373 -0.937037
v -0.121795 0.127745 0.642145
v -0.13202 -0.195971 -0.766329
v -0.121795 -0.19127 -0.962067
v -0.13202 -0.214268 -0.763725
v -0.13202 -0.19127 -0.962067
v -0.121795 -0.204145 -0.765165
v -0.121795 -0.171169 -0.982593
v -0.13202 -0.007772 0.687195
v -0.13202 -0.171169 -0.982593
v -0.121795 -0.001243 0.660503
v -0.121795 -0.14644 -0.997218
v -0.029024 -0.214268 -0.763725
v 0.004899 -0.007772 0.687195
v -0.13202 -0.14644 -0.997218
v -0.029024 -0.204145 -0.765165
v -0.121795 0.13582 0.656431
v -0.121795 -0.118768 -1.004944
v -0.029024 -0.210385 -0.736437
v -0.121795 0.137261 0.666554
v -0.121795 -0.009212 0.677072
v -0.13202 -0.118768 -1.004944
v -0.029024 -0.200262 -0.737878
v -0.121795 0.133667 0.641302
v -0.121795 0.025451 -0.076606
v -0.121795 -0.011366 0.661943
v 0.004899 0.170482 0.661826
v -0.13202 0.13582 0.656431
v 0.004899 -0.009212 0.677072
v -0.13202 0.027387 -0.080444
v -0.004998 -0.022944 0.508021
v -0.100759 0.127745 0.642145
v -0.13202 0.133667 0.641302
v -0.100759 0.025451 -0.076606
v -0.121795 -0.09004 -1.005245
v -0.004998 -0.023 0.580197
v -0.121795 0.170482 0.661826
v 0.141817 -0.007772 0.687195
v -0.13202 0.023491 -0.107822
v -0.004998 -0.020276 0.526766
v 0.014796 -0.022944 0.508021
v 0.038821 -0.200262 -0.737878
v -0.063397 -0.011366 0.661943
v -0.121795 0.169041 0.651703
v -0.100759 0.137867 0.640704
v -0.13202 0.137867 0.640704
v -0.100759 0.035574 -0.078047
v -0.121795 0.023491 -0.107822
v -0.13202 -0.09004 -1.005245
v 0.014796 -0.023 0.580197
v -0.004998 -0.012365 0.65492
v 0.131593 0.170482 0.661826
v 0.131593 0.137261 0.666554
v 0.131593 -0.009212 0.677072
v 0.014796 -0.020276 0.526766
v -0.004998 -0.008704 0.525119
v 0.131593 -0.001243 0.660503
v -0.004998 0.0002 0.504727
v 0.038821 -0.210385 -0.736437
v -0.063397 -0.001243 0.660503
v 0.131593 0.169041 0.651703
v -0.13202 0.035574 -0.078047
v -0.121795 0.035574 -0.078047
v -0.121795 0.027387 -0.080444
v -0.121795 0.008474 -0.469802
v -0.121795 -0.062213 -0.9981
v 0.131593 -0.011366 0.661943
v -0.004998 -0.012877 0.578757
v 0.141817 0.137261 0.666554
v 0.131593 0.13582 0.656431
v -0.13202 0.07648 -0.174218
v -0.13202 0.008474 -0.469802
v 0.014796 0.0002 0.504727
v 0.038821 -0.214268 -0.763725
v 0.131593 -0.204145 -0.765165
v -0.004998 -0.002242 0.653479
v -0.121795 0.07648 -0.174218
v -0.121795 -0.039506 -0.806928
v -0.13202 -0.062213 -0.9981
v 0.014796 -0.012365 0.65492
v 0.014796 -0.012877 0.578757
v 0.141817 -0.214268 -0.763725
v -0.13202 -0.039506 -0.806928
v 0.014796 -0.008704 0.525119
v -0.004998 0.010267 0.575463
v 0.038821 -0.204145 -0.765165
v 0.131593 0.127745 0.642145
v -0.121795 0.0382 -0.443187
v -0.13202 -0.037183 -0.983996
v -0.121795 -0.035354 -0.809383
v 0.073194 -0.011366 0.661943
v 0.141817 -0.195971 -0.766329
v 0.141817 0.13582 0.656431
v 0.073194 -0.001243 0.660503
v -0.13202 0.0382 -0.443187
v 0.014796 -0.001305 0.57711
v -0.004998 -0.001305 0.57711
v 0.014796 -0.002242 0.653479
v 0.014796 0.010267 0.575463
v 0.131593 -0.195971 -0.766329
v -0.13202 -0.035354 -0.809383
v -0.121795 -0.037183 -0.983996
v -0.13202 -0.015253 -0.82991
v -0.121795 -0.015253 -0.82991
v 0.141817 -0.212217 -0.880481
v 0.141817 0.027387 -0.080444
v 0.141817 0.133667 0.641302
v 0.131593 0.133667 0.641302
v 0.131593 -0.212217 -0.880481
v -0.121795 -0.016656 -0.963895
v -0.13202 -0.00115 -0.854939
v 0.141817 -0.212518 -0.90921
v 0.141817 -0.118768 -1.004944
v 0.110557 0.127745 0.642145
v 0.131593 -0.212518 -0.90921
v -0.13202 -0.016656 -0.963895
v -0.121795 -0.00115 -0.854939
v 0.141817 -0.205373 -0.937037
v 0.141817 -0.14644 -0.997218
v 0.141817 0.023491 -0.107822
v 0.141817 0.035574 -0.078047
v 0.141817 0.137867 0.640704
v 0.110557 0.025451 -0.076606
v 0.131593 -0.205373 -0.937037
v -0.121795 -0.002032 -0.939166
v -0.121795 0.005995 -0.882767
v -0.13202 0.005995 -0.882767
v 0.141817 -0.19127 -0.962067
v 0.141817 -0.171169 -0.982593
v 0.131593 -0.118768 -1.004944
v 0.141817 -0.09004 -1.005245
v 0.131593 0.027387 -0.080444
v 0.131593 0.035574 -0.078047
v 0.110557 0.137867 0.640704
v 0.131593 0.025451 -0.076606
v 0.110557 0.035574 -0.078047
v 0.131593 -0.19127 -0.962067
v -0.13202 -0.002032 -0.939166
v 0.131593 -0.171169 -0.982593
v 0.131593 -0.14644 -0.997218
v 0.141817 0.008474 -0.469802
v 0.131593 0.023491 -0.107822
v -0.13202 0.005694 -0.911495
v -0.121795 0.005694 -0.911495
v 0.131593 -0.09004 -1.005245
v 0.141817 -0.039506 -0.806928
v 0.141817 0.07648 -0.174218
v 0.131593 0.07648 -0.174218
v 0.141817 -0.062213 -0.9981
v 0.131593 0.008474 -0.469802
v 0.141817 0.0382 -0.443187
v 0.131593 -0.062213 -0.9981
v 0.141817 -0.035354 -0.809383
v 0.131593 -0.039506 -0.806928
v 0.131593 0.0382 -0.443187
v 0.131593 -0.037183 -0.983996
v 0.141817 -0.037183 -0.983996
v 0.131593 -0.035354 -0.809383
v 0.141817 -0.015253 -0.82991
v 0.131593 -0.016656 -0.963895
v 0.131593 -0.015253 -0.82991
v 0.141817 -0.00115 -0.854939
v 0.141817 -0.016656 -0.963895
v 0.131593 -0.00115 -0.854939
v 0.131593 -0.002032 -0.939166
v 0.131593 0.005995 -0.882767
v 0.141817 0.005995 -0.882767
v 0.141817 -0.002032 -0.939166
v 0.131593 0.005694 -0.911495
v 0.141817 0.005694 -0.911495
vn 0.0 0.9999451670863516 -0.010472001749824515
vn 0.0 0.9927573177727333 0.12013703845479091
vn 0.0 -0.9927573177727333 -0.12013703845479091
vn 0.0 -0.9999451670863516 0.010472001749824515
vn 0.0 0.9278361433321384 0.3729880576191995
vn 0.0 -0.9278361433321384 -0.3729880576191995
vn -1.0 0.0 0.0
vn 1.0 0.0 0.0
vn 0.0 -0.9900236968661758 0.14090095685775397
vn 0.0 0.9900236968661758 -0.14090095685775397
vn 0.0 0.7996848897934337 0.6004199172546358
vn 0.0 -0.7996848897934337 -0.6004199172546358
vn 0.0 -0.14090095685775397 -0.9900236968661758
vn 0.0 0.14090095685775397 0.9900236968661758
vn 0.0 0.6170359631256235 0.7869349529723753
vn 0.0 -0.6170359631256235 -0.7869349529723753
vn 0.0 0.3923371974221657 0.9198214628496775
vn 0.0 -0.3923371974221657 -0.9198214628496775
vn 0.0 0.26891987482199564 0.9631625516628656
vn 0.0 -0.26891987482199564 -0.9631625516628656
vn 0.0 -0.010472001749824515 -0.9999451670863516
vn 0.0 0.12013703845479091 -0.9927573177727333
vn 0.0 0.010472001749824515 0.9999451670863516
vn 0.0 -0.12013703845479091 0.9927573177727333
vn 0.0 0.3729880576191995 -0.9278361433321384
vn 0.0 -0.3729880576191995 0.9278361433321384
vn 0.0 0.781602611020707 0.623776689565756
vn 0.0 -0.781602611020707 -0.623776689565756
vn 0.1205930580907754 0.13987306737813168 0.9827984734229839
vn -0.1205930580907754 -0.13987306737813168 -0.9827984734229839
vn 0.0 0.28101391066400594 -0.9597036949044857
vn 0.0 -0.28101391066400594 0.9597036949044857
vn 0.0 0.6004199172546358 -0.7996848897934337
vn 0.0 -0.6004199172546358 0.7996848897934337
vn 0.0 0.6670389005945354 -0.7450228889729723
vn 0.0 -0.6670389005945354 0.7450228889729723
vn 0.0 0.5090411195623196 0.8607422021690003
vn 0.0 -0.5090411195623196 -0.8607422021690003
vn -0.12059305809077546 0.13987306737813163 0.9827984734229839
vn 0.12059305809077546 -0.13987306737813163 -0.9827984734229839
vn 0.0 0.7869349529723753 -0.6170359631256235
vn 0.0 -0.7869349529723753 0.6170359631256235
vn 0.0 0.9198214628496775 -0.3923371974221657
vn 0.0 -0.9198214628496775 0.3923371974221657
usemtl material_0_0
f 1//1 2//2 3//2
f 2//2 1//1 4//1
f 3//3 2//3 1//4
f 4//4 1//4 2//3
f 5//5 3//2 2//2
f 2//3 3//3 5//6
f 1//7 6//7 3//7
f 3//8 6//8 1//8
f 7//9 1//9 4//9
f 4//10 1//10 7//10
f 2//7 4//7 7//7
f 7//8 4//8 2//8
f 3//2 5//5 8//5
f 8//6 5//6 3//3
f 2//7 9//7 5//7
f 5//8 9//8 2//8
f 10//7 6//7 1//7
f 1//8 6//8 10//8
f 3//7 6//7 8//7
f 8//8 6//8 3//8
f 1//9 7//9 10//9
f 10//10 7//10 1//10
f 7//7 9//7 2//7
f 2//8 9//8 7//8
f 11//11 8//5 5//5
f 5//6 8//6 11//12
f 5//7 9//7 11//7
f 11//8 9//8 5//8
f 12//7 6//7 10//7
f 10//8 6//8 12//8
f 8//7 6//7 13//7
f 13//8 6//8 8//8
f 7//13 12//13 10//13
f 10//14 12//14 7//14
f 14//7 9//7 7//7
f 7//8 9//8 14//8
f 8//5 11//11 13//11
f 13//12 11//12 8//6
f 11//7 9//7 15//7
f 15//8 9//8 11//8
f 6//7 12//7 16//7
f 16//8 12//8 6//8
f 13//7 6//7 17//7
f 17//8 6//8 13//8
f 12//13 7//13 14//13
f 14//14 7//14 12//14
f 9//7 14//7 18//7
f 18//8 14//8 9//8
f 11//11 17//15 13//11
f 13//12 17//16 11//12
f 15//7 9//7 19//7
f 19//8 9//8 15//8
f 17//15 11//11 15//15
f 15//16 11//12 17//16
f 20//9 16//9 12//9
f 12//10 16//10 20//10
f 21//14 6//14 16//14
f 16//13 6//13 21//13
f 17//7 6//7 22//7
f 22//8 6//8 17//8
f 12//13 14//13 20//13
f 20//14 14//14 12//14
f 18//10 23//10 14//10
f 14//9 23//9 18//9
f 24//8 18//8 9//8
f 9//7 18//7 24//7
f 19//7 9//7 25//7
f 25//8 9//8 19//8
f 19//17 17//15 15//15
f 15//16 17//16 19//18
f 16//9 20//9 26//9
f 26//10 20//10 16//10
f 6//14 21//14 27//14
f 27//13 21//13 6//13
f 16//9 28//9 21//9
f 21//10 28//10 16//10
f 22//7 6//7 29//7
f 29//8 6//8 22//8
f 17//15 19//17 22//17
f 22//18 19//18 17//16
f 20//13 14//13 23//13
f 23//14 14//14 20//14
f 23//10 18//10 30//10
f 30//9 18//9 23//9
f 28//8 18//8 24//8
f 24//7 18//7 28//7
f 24//8 9//8 31//8
f 31//7 9//7 24//7
f 25//7 9//7 32//7
f 32//8 9//8 25//8
f 29//19 19//17 25//19
f 25//20 19//18 29//20
f 23//8 26//8 20//8
f 20//7 26//7 23//7
f 16//9 26//9 33//9
f 33//10 26//10 16//10
f 34//14 27//14 21//14
f 21//13 27//13 34//13
f 27//10 35//10 6//10
f 6//9 35//9 27//9
f 16//9 33//9 28//9
f 28//10 33//10 16//10
f 21//9 28//9 36//9
f 36//10 28//10 21//10
f 29//7 6//7 37//7
f 37//8 6//8 29//8
f 19//17 29//19 22//17
f 22//18 29//20 19//18
f 30//10 18//10 38//10
f 38//9 18//9 30//9
f 26//8 23//8 30//8
f 30//7 23//7 26//7
f 18//8 28//8 33//8
f 33//7 28//7 18//7
f 24//13 36//13 28//13
f 28//14 36//14 24//14
f 39//14 31//14 9//14
f 9//13 31//13 39//13
f 40//10 24//10 31//10
f 31//9 24//9 40//9
f 41//9 9//9 32//9
f 32//10 9//10 41//10
f 25//7 32//7 42//7
f 42//8 32//8 25//8
f 29//21 42//22 25//21
f 25//23 42//24 29//23
f 33//9 26//9 43//9
f 43//10 26//10 33//10
f 27//14 34//14 44//14
f 44//13 34//13 27//13
f 45//14 34//14 21//14
f 21//13 34//13 45//13
f 35//10 27//10 24//10
f 24//9 27//9 35//9
f 37//7 6//7 35//7
f 35//8 6//8 37//8
f 36//9 45//9 21//9
f 21//10 45//10 36//10
f 29//7 37//7 46//7
f 46//8 37//8 29//8
f 38//10 18//10 47//10
f 47//9 18//9 38//9
f 48//10 30//10 38//10
f 38//9 30//9 48//9
f 49//13 26//13 30//13
f 30//14 26//14 49//14
f 50//14 18//14 33//14
f 33//13 18//13 50//13
f 36//13 24//13 51//13
f 51//14 24//14 36//14
f 52//14 31//14 39//14
f 39//13 31//13 52//13
f 9//9 41//9 39//9
f 39//10 41//10 9//10
f 24//10 40//10 35//10
f 35//9 40//9 24//9
f 31//14 53//14 40//14
f 40//13 53//13 31//13
f 32//13 54//13 41//13
f 41//14 54//14 32//14
f 42//7 32//7 55//7
f 55//8 32//8 42//8
f 42//22 29//21 56//22
f 56//24 29//23 42//24
f 43//9 26//9 57//9
f 57//10 26//10 43//10
f 33//9 43//9 58//9
f 58//10 43//10 33//10
f 59//10 44//10 34//10
f 34//9 44//9 59//9
f 51//7 27//7 44//7
f 44//8 27//8 51//8
f 34//14 45//14 60//14
f 60//13 45//13 34//13
f 27//7 51//7 24//7
f 24//8 51//8 27//8
f 40//7 37//7 35//7
f 35//8 37//8 40//8
f 61//9 45//9 36//9
f 36//10 45//10 61//10
f 37//10 55//10 46//10
f 46//9 55//9 37//9
f 46//7 56//7 29//7
f 29//8 56//8 46//8
f 47//10 18//10 62//10
f 62//9 18//9 47//9
f 63//7 38//7 47//7
f 47//8 38//8 63//8
f 64//10 30//10 48//10
f 48//9 30//9 64//9
f 65//13 48//13 38//13
f 38//14 48//14 65//14
f 26//13 49//13 66//13
f 66//14 49//14 26//14
f 64//10 49//10 30//10
f 30//9 49//9 64//9
f 18//14 50//14 67//14
f 67//13 50//13 18//13
f 33//9 58//9 50//9
f 50//10 58//10 33//10
f 36//13 51//13 68//13
f 68//14 51//14 36//14
f 53//14 31//14 52//14
f 52//13 31//13 53//13
f 41//8 52//8 39//8
f 39//7 52//7 41//7
f 69//7 40//7 53//7
f 53//8 40//8 69//8
f 54//13 32//13 70//13
f 70//14 32//14 54//14
f 52//8 41//8 54//8
f 54//7 41//7 52//7
f 32//7 71//7 55//7
f 55//8 71//8 32//8
f 42//7 55//7 72//7
f 72//8 55//8 42//8
f 56//22 73//25 42//22
f 42//24 73//26 56//24
f 26//9 74//9 57//9
f 57//10 74//10 26//10
f 57//14 75//14 43//14
f 43//13 75//13 57//13
f 75//8 58//8 43//8
f 43//7 58//7 75//7
f 59//10 51//10 44//10
f 44//9 51//9 59//9
f 59//14 34//14 60//14
f 60//13 34//13 59//13
f 60//14 45//14 76//14
f 76//13 45//13 60//13
f 37//7 40//7 69//7
f 69//8 40//8 37//8
f 74//9 45//9 61//9
f 61//10 45//10 74//10
f 61//13 36//13 77//13
f 77//14 36//14 61//14
f 55//10 37//10 71//10
f 71//9 37//9 55//9
f 55//27 78//27 46//27
f 46//28 78//28 55//28
f 56//7 46//7 79//7
f 79//8 46//8 56//8
f 62//10 18//10 75//10
f 75//9 18//9 62//9
f 62//14 63//14 47//14
f 47//13 63//13 62//13
f 38//7 63//7 65//7
f 65//8 63//8 38//8
f 64//10 48//10 62//10
f 62//9 48//9 64//9
f 48//13 65//13 80//13
f 80//14 65//14 48//14
f 49//7 81//7 66//7
f 66//8 81//8 49//8
f 66//9 45//9 26//9
f 26//10 45//10 66//10
f 82//10 49//10 64//10
f 64//9 49//9 82//9
f 58//29 67//29 50//29
f 50//30 67//30 58//30
f 83//10 18//10 67//10
f 67//9 18//9 83//9
f 51//10 59//10 68//10
f 68//9 59//9 51//9
f 36//13 68//13 77//13
f 77//14 68//14 36//14
f 54//10 53//10 52//10
f 52//9 53//9 54//9
f 53//10 70//10 69//10
f 69//9 70//9 53//9
f 71//7 32//7 70//7
f 70//8 32//8 71//8
f 70//10 53//10 54//10
f 54//9 53//9 70//9
f 72//7 55//7 84//7
f 84//8 55//8 72//8
f 85//7 42//7 72//7
f 72//8 42//8 85//8
f 73//25 56//22 86//25
f 86//26 56//24 73//26
f 42//7 85//7 73//7
f 73//8 85//8 42//8
f 26//9 45//9 74//9
f 74//10 45//10 26//10
f 57//9 74//9 87//9
f 87//10 74//10 57//10
f 75//14 57//14 88//14
f 88//13 57//13 75//13
f 58//8 75//8 83//8
f 83//7 75//7 58//7
f 60//8 68//8 59//8
f 59//7 68//7 60//7
f 89//8 76//8 45//8
f 45//7 76//7 89//7
f 76//10 77//10 60//10
f 60//9 77//9 76//9
f 70//31 37//31 69//31
f 69//32 37//32 70//32
f 61//7 64//7 74//7
f 74//8 64//8 61//8
f 64//7 61//7 77//7
f 77//8 61//8 64//8
f 37//31 70//31 71//31
f 71//32 70//32 37//32
f 78//27 55//27 84//27
f 84//28 55//28 78//28
f 79//7 46//7 78//7
f 78//8 46//8 79//8
f 90//7 56//7 79//7
f 79//8 56//8 90//8
f 75//10 18//10 83//10
f 83//9 18//9 75//9
f 88//10 62//10 75//10
f 75//9 62//9 88//9
f 63//14 62//14 91//14
f 91//13 62//13 63//13
f 63//7 92//7 65//7
f 65//8 92//8 63//8
f 48//8 91//8 62//8
f 62//7 91//7 48//7
f 64//10 62//10 88//10
f 88//9 62//9 64//9
f 92//10 80//10 65//10
f 65//9 80//9 92//9
f 91//8 48//8 80//8
f 80//7 48//7 91//7
f 81//7 49//7 93//7
f 93//8 49//8 81//8
f 89//9 66//9 81//9
f 81//10 66//10 89//10
f 66//9 89//9 45//9
f 45//10 89//10 66//10
f 49//10 82//10 93//10
f 93//9 82//9 49//9
f 94//7 82//7 64//7
f 64//8 82//8 94//8
f 67//29 58//29 83//29
f 83//30 58//30 67//30
f 68//8 60//8 77//8
f 77//7 60//7 68//7
f 72//7 84//7 95//7
f 95//8 84//8 72//8
f 85//10 79//10 72//10
f 72//9 79//9 85//9
f 56//7 90//7 86//7
f 86//8 90//8 56//8
f 96//33 73//25 86//25
f 86//26 73//26 96//34
f 73//7 85//7 97//7
f 97//8 85//8 73//8
f 98//9 87//9 74//9
f 74//10 87//10 98//10
f 87//7 88//7 57//7
f 57//8 88//8 87//8
f 76//8 89//8 99//8
f 99//7 89//7 76//7
f 77//10 76//10 100//10
f 100//9 76//9 77//9
f 101//14 74//14 64//14
f 64//13 74//13 101//13
f 64//7 77//7 94//7
f 94//8 77//8 64//8
f 84//10 102//10 78//10
f 78//9 102//9 84//9
f 79//7 78//7 102//7
f 102//8 78//8 79//8
f 79//10 85//10 90//10
f 90//9 85//9 79//9
f 103//9 63//9 91//9
f 91//10 63//10 103//10
f 92//7 63//7 104//7
f 104//8 63//8 92//8
f 64//10 88//10 105//10
f 105//9 88//9 64//9
f 80//10 92//10 106//10
f 106//9 92//9 80//9
f 106//8 91//8 80//8
f 80//7 91//7 106//7
f 82//13 81//13 93//13
f 93//14 81//14 82//14
f 81//13 82//13 89//13
f 89//14 82//14 81//14
f 82//7 94//7 107//7
f 107//8 94//8 82//8
f 102//10 84//10 95//10
f 95//9 84//9 102//9
f 72//35 102//35 95//35
f 95//36 102//36 72//36
f 102//35 72//35 79//35
f 79//36 72//36 102//36
f 86//7 90//7 108//7
f 108//8 90//8 86//8
f 73//25 96//33 109//33
f 109//34 96//34 73//26
f 86//7 110//7 96//7
f 96//8 110//8 86//8
f 108//15 85//37 97//15
f 97//16 85//38 108//16
f 73//7 97//7 111//7
f 111//8 97//8 73//8
f 98//39 105//39 87//39
f 87//40 105//40 98//40
f 74//14 101//14 98//14
f 98//13 101//13 74//13
f 88//7 87//7 105//7
f 105//8 87//8 88//8
f 89//13 82//13 99//13
f 99//14 82//14 89//14
f 76//8 99//8 112//8
f 112//7 99//7 76//7
f 76//8 113//8 100//8
f 100//7 113//7 76//7
f 114//10 77//10 100//10
f 100//9 77//9 114//9
f 64//10 105//10 101//10
f 101//9 105//9 64//9
f 94//7 77//7 115//7
f 115//8 77//8 94//8
f 85//37 108//15 90//37
f 90//38 108//16 85//38
f 63//9 103//9 104//9
f 104//10 103//10 63//10
f 91//8 106//8 103//8
f 103//7 106//7 91//7
f 103//14 92//14 104//14
f 104//13 92//13 103//13
f 92//14 103//14 106//14
f 106//13 103//13 92//13
f 107//7 94//7 116//7
f 116//8 94//8 107//8
f 99//13 82//13 107//13
f 107//14 82//14 99//14
f 86//7 108//7 110//7
f 110//8 108//8 86//8
f 96//33 117//41 109//33
f 109//34 117//42 96//34
f 73//7 111//7 109//7
f 109//8 111//8 73//8
f 96//7 110//7 118//7
f 118//8 110//8 96//8
f 97//15 110//11 108//15
f 108//16 110//12 97//16
f 110//11 97//15 111//11
f 111//12 97//16 110//12
f 105//39 98//39 101//39
f 101//40 98//40 105//40
f 99//9 116//9 112//9
f 112//10 116//10 99//10
f 76//8 112//8 119//8
f 119//7 112//7 76//7
f 76//8 120//8 113//8
f 113//7 120//7 76//7
f 113//8 114//8 100//8
f 100//7 114//7 113//7
f 77//10 114//10 115//10
f 115//9 114//9 77//9
f 94//14 115//14 121//14
f 121//13 115//13 94//13
f 116//7 94//7 122//7
f 122//8 94//8 116//8
f 116//9 99//9 107//9
f 107//10 99//10 116//10
f 117//41 96//33 123//41
f 123//42 96//34 117//42
f 109//7 124//7 117//7
f 117//8 124//8 109//8
f 109//7 111//7 124//7
f 124//8 111//8 109//8
f 110//11 124//5 118//5
f 118//6 124//6 110//12
f 96//7 118//7 123//7
f 123//8 118//8 96//8
f 124//5 110//11 111//11
f 111//12 110//12 124//6
f 122//3 112//4 116//4
f 116//1 112//1 122//2
f 112//4 122//3 119//3
f 119//2 122//2 112//1
f 76//8 119//8 125//8
f 125//7 119//7 76//7
f 76//8 126//8 120//8
f 120//7 126//7 76//7
f 113//8 120//8 127//8
f 127//7 120//7 113//7
f 114//8 113//8 128//8
f 128//7 113//7 114//7
f 129//14 115//14 114//14
f 114//13 115//13 129//13
f 129//14 121//14 115//14
f 115//13 121//13 129//13
f 130//9 94//9 121//9
f 121//10 94//10 130//10
f 122//7 94//7 131//7
f 131//8 94//8 122//8
f 123//41 132//43 117//41
f 117//42 132//44 123//42
f 117//7 124//7 133//7
f 133//8 124//8 117//8
f 133//2 118//5 124//5
f 124//6 118//6 133//3
f 123//7 118//7 134//7
f 134//8 118//8 123//8
f 131//6 119//3 122//3
f 122//2 119//2 131//5
f 119//3 131//6 125//6
f 125//5 131//5 119//2
f 76//8 125//8 135//8
f 135//7 125//7 76//7
f 76//8 136//8 126//8
f 126//7 136//7 76//7
f 126//18 137//20 120//20
f 120//19 137//19 126//17
f 138//8 127//8 120//8
f 120//7 127//7 138//7
f 127//10 139//10 113//10
f 113//9 139//9 127//9
f 113//31 140//31 128//31
f 128//32 140//32 113//32
f 114//8 128//8 129//8
f 129//7 128//7 114//7
f 121//14 129//14 141//14
f 141//13 129//13 121//13
f 94//9 130//9 142//9
f 142//10 130//10 94//10
f 121//7 143//7 130//7
f 130//8 143//8 121//8
f 131//7 94//7 144//7
f 144//8 94//8 131//8
f 132//43 123//41 145//43
f 145//44 123//42 132//44
f 117//7 133//7 132//7
f 132//8 133//8 117//8
f 118//5 133//2 134//2
f 134//3 133//3 118//6
f 123//7 134//7 145//7
f 145//8 134//8 123//8
f 144//12 125//6 131//6
f 131//5 125//5 144//11
f 125//6 144//12 135//12
f 135//11 144//11 125//5
f 76//8 135//8 136//8
f 136//7 135//7 76//7
f 146//16 126//18 136//16
f 136//15 126//17 146//15
f 137//20 126//18 147//18
f 147//17 126//17 137//19
f 137//21 138//22 120//21
f 120//23 138//24 137//23
f 127//8 138//8 148//8
f 148//7 138//7 127//7
f 139//10 127//10 149//10
f 149//9 127//9 139//9
f 140//31 113//31 139//31
f 139//32 113//32 140//32
f 140//10 141//10 128//10
f 128//9 141//9 140//9
f 128//10 141//10 129//10
f 129//9 141//9 128//9
f 143//7 121//7 141//7
f 141//8 121//8 143//8
f 143//13 142//13 130//13
f 130//14 142//14 143//14
f 137//7 94//7 142//7
f 142//8 94//8 137//8
f 144//7 94//7 146//7
f 146//8 94//8 144//8
f 150//10 132//43 145//43
f 145//44 132//44 150//9
f 132//7 133//7 151//7
f 151//8 133//8 132//8
f 151//10 134//2 133//2
f 133//3 134//3 151//9
f 145//7 134//7 150//7
f 150//8 134//8 145//8
f 144//12 136//16 135//12
f 135//11 136//15 144//11
f 126//18 146//16 147//18
f 147//17 146//15 126//17
f 136//16 144//12 146//16
f 146//15 144//11 136//15
f 147//7 94//7 137//7
f 137//8 94//8 147//8
f 138//22 137//21 152//22
f 152//24 137//23 138//24
f 148//8 138//8 153//8
f 153//7 138//7 148//7
f 127//8 148//8 154//8
f 154//7 148//7 127//7
f 127//27 155//27 149//27
f 149//28 155//28 127//28
f 142//7 139//7 149//7
f 149//8 139//8 142//8
f 139//7 142//7 140//7
f 140//8 142//8 139//8
f 141//10 140//10 143//10
f 143//9 140//9 141//9
f 142//13 143//13 140//13
f 140//14 143//14 142//14
f 137//7 142//7 152//7
f 152//8 142//8 137//8
f 146//7 94//7 147//7
f 147//8 94//8 146//8
f 132//43 150//10 151//10
f 151//9 150//9 132//44
f 134//2 151//10 150//10
f 150//9 151//9 134//3
f 152//22 156//25 138//22
f 138//24 156//26 152//24
f 156//8 153//8 138//8
f 138//7 153//7 156//7
f 153//10 157//10 148//10
f 148//9 157//9 153//9
f 154//8 148//8 158//8
f 158//7 148//7 154//7
f 155//27 127//27 154//27
f 154//28 127//28 155//28
f 157//7 149//7 155//7
f 155//8 149//8 157//8
f 152//7 142//7 149//7
f 149//8 142//8 152//8
f 156//25 152//22 159//25
f 159//26 152//24 156//26
f 153//8 156//8 160//8
f 160//7 156//7 153//7
f 157//10 153//10 161//10
f 161//9 153//9 157//9
f 162//35 148//35 157//35
f 157//36 148//36 162//36
f 148//35 162//35 158//35
f 158//36 162//36 148//36
f 158//10 155//10 154//10
f 154//9 155//9 158//9
f 152//7 149//7 157//7
f 157//8 149//8 152//8
f 157//7 155//7 162//7
f 162//8 155//8 157//8
f 161//7 159//7 152//7
f 152//8 159//8 161//8
f 163//33 156//25 159//25
f 159//26 156//26 163//34
f 160//8 156//8 164//8
f 164//7 156//7 160//7
f 160//15 161//37 153//37
f 153//38 161//38 160//16
f 152//7 157//7 161//7
f 161//8 157//8 152//8
f 155//10 158//10 162//10
f 162//9 158//9 155//9
f 159//7 161//7 165//7
f 165//8 161//8 159//8
f 156//25 163//33 164//33
f 164//34 163//34 156//26
f 159//7 165//7 163//7
f 163//8 165//8 159//8
f 160//8 164//8 166//8
f 166//7 164//7 160//7
f 161//37 160//15 165//15
f 165//16 160//16 161//38
f 167//41 164//33 163//33
f 163//34 164//34 167//42
f 163//7 165//7 168//7
f 168//8 165//8 163//8
f 166//8 164//8 169//8
f 169//7 164//7 166//7
f 168//11 160//15 166//11
f 166//12 160//16 168//12
f 160//15 168//11 165//15
f 165//16 168//12 160//16
f 164//33 167//41 170//41
f 170//42 167//42 164//34
f 163//7 171//7 167//7
f 167//8 171//8 163//8
f 163//7 168//7 171//7
f 171//8 168//8 163//8
f 169//8 164//8 170//8
f 170//7 164//7 169//7
f 169//5 168//11 166//11
f 166//12 168//12 169//6
f 172//43 170//41 167//41
f 167//42 170//42 172//44
f 167//7 171//7 173//7
f 173//8 171//8 167//8
f 168//11 169//5 171//5
f 171//6 169//6 168//12
f 169//8 170//8 174//8
f 174//7 170//7 169//7
f 170//41 172//43 175//43
f 175//44 172//44 170//42
f 167//7 173//7 172//7
f 172//8 173//8 167//8
f 171//5 174//2 173//2
f 173//3 174//3 171//6
f 174//2 171//5 169//5
f 169//6 171//6 174//3
f 174//8 170//8 175//8
f 175//7 170//7 174//7
f 176//10 175//43 172//43
f 172//44 175//44 176//9
f 172//7 173//7 176//7
f 176//8 173//8 172//8
f 177//10 173//2 174//2
f 174//3 173//3 177//9
f 174//8 175//8 177//8
f 177//7 175//7 174//7
f 175//43 176//10 177//10
f 177//9 176//9 175//44
f 173//2 177//10 176//10
f 176//9 177//9 173//3
