# SSTK version 0.8.0
# 3
mtllib original-3.mtl
o Group3/mesh8/mesh8-geometry#mesh8-geometry
v 0.131323 0.181907 0.645625
v -0.121526 0.336822 0.61043
v -0.121526 0.181907 0.645625
v 0.131323 0.336822 0.61043
v 0.152486 0.390962 0.598129
v -0.142689 0.390962 0.598129
v 0.152486 0.237884 -0.075646
v -0.142689 0.237884 -0.075646
v 0.004899 -0.013525 -0.397903
v 0.015232 -0.014362 -0.398976
v -0.005434 -0.014362 -0.398976
v 0.02486 -0.016815 -0.40212
v -0.015063 -0.016815 -0.40212
v 0.033129 -0.020717 -0.407122
v -0.023331 -0.020717 -0.407122
v 0.039473 -0.025803 -0.413642
v -0.029676 -0.025803 -0.413642
v 0.043461 -0.031726 -0.421233
v -0.033664 -0.031726 -0.421233
v 0.044822 -0.038082 -0.42938
v -0.035024 -0.038082 -0.42938
v 0.044822 -0.044636 -0.437781
v -0.035024 -0.044636 -0.437781
v 0.152486 -0.044636 -0.437781
v -0.142689 -0.044636 -0.437781
v 0.152486 -0.053481 -0.476712
v -0.035024 -0.053481 -0.476712
v 0.044822 -0.053481 -0.476712
v -0.142689 -0.053481 -0.476712
vn 0.0 0.22154810097001615 0.9751494444220227
vn 0.0 -0.22154810097001615 -0.9751494444220227
vn 0.0 -0.9751494444220227 0.22154810097001615
vn 0.0 0.9751494444220227 -0.22154810097001615
vn 0.0 -0.7884446415490999 0.6151057203542424
vn 0.0 0.7884446415490999 -0.6151057203542424
usemtl material_0_0
f 1//1 2//1 3//1
f 4//1 2//1 1//1
f 3//2 2//2 1//2
f 1//2 2//2 4//2
f 5//1 2//1 4//1
f 4//2 2//2 5//2
f 2//1 5//1 6//1
f 6//2 5//2 2//2
f 6//3 7//3 5//3
f 5//4 7//4 6//4
f 7//3 6//3 8//3
f 8//4 6//4 7//4
f 9//5 7//5 8//5
f 8//6 7//6 9//6
f 10//5 7//5 9//5
f 9//6 7//6 10//6
f 8//5 11//5 9//5
f 9//6 11//6 8//6
f 12//5 7//5 10//5
f 10//6 7//6 12//6
f 8//5 13//5 11//5
f 11//6 13//6 8//6
f 14//5 7//5 12//5
f 12//6 7//6 14//6
f 8//5 15//5 13//5
f 13//6 15//6 8//6
f 16//5 7//5 14//5
f 14//6 7//6 16//6
f 8//5 17//5 15//5
f 15//6 17//6 8//6
f 18//5 7//5 16//5
f 16//6 7//6 18//6
f 8//5 19//5 17//5
f 17//6 19//6 8//6
f 20//5 7//5 18//5
f 18//6 7//6 20//6
f 8//5 21//5 19//5
f 19//6 21//6 8//6
f 22//5 7//5 20//5
f 20//6 7//6 22//6
f 8//5 23//5 21//5
f 21//6 23//6 8//6
f 7//5 22//5 24//5
f 24//6 22//6 7//6
f 23//5 8//5 25//5
f 25//6 8//6 23//6
f 22//3 26//3 24//3
f 24//4 26//4 22//4
f 25//3 27//3 23//3
f 23//4 27//4 25//4
f 26//3 22//3 28//3
f 28//4 22//4 26//4
f 27//3 25//3 29//3
f 29//4 25//4 27//4
