# SSTK version 0.8.0
# 87
mtllib original-87.mtl
o mesh52/mesh52-geometry/material_11/component_0#mesh52-geometry
v 0.379360 -0.695920 0.068653
v 0.379360 -0.695920 0.066763
v 0.379360 -0.656116 0.068653
v 0.311202 -0.656116 0.068653
v 0.379360 -0.656116 0.068653
v 0.311202 -0.656116 0.066763
v 0.379360 -0.656116 0.066763
v 0.379360 -0.656116 0.068653
v 0.379360 -0.695920 0.066763
v 0.379360 -0.695920 0.068653
v 0.311202 -0.695920 0.068653
v 0.379360 -0.695920 0.066763
v 0.379360 -0.656116 0.066763
v 0.311202 -0.656116 0.066763
v 0.379360 -0.656116 0.068653
v 0.311202 -0.656116 0.068653
v 0.311202 -0.656116 0.066763
v 0.311202 -0.695920 0.068653
v 0.379360 -0.695920 0.066763
v 0.377416 -0.658060 0.066763
v 0.379360 -0.656116 0.066763
v 0.311202 -0.695920 0.066763
v 0.379360 -0.695920 0.066763
v 0.311202 -0.695920 0.068653
v 0.379360 -0.656116 0.066763
v 0.313146 -0.658060 0.066763
v 0.311202 -0.656116 0.066763
v 0.311202 -0.695920 0.066763
v 0.311202 -0.695920 0.068653
v 0.311202 -0.656116 0.066763
v 0.377416 -0.658060 0.066763
v 0.313146 -0.658060 0.066763
v 0.379360 -0.656116 0.066763
v 0.377416 -0.658060 0.066763
v 0.379360 -0.695920 0.066763
v 0.377416 -0.693976 0.066763
v 0.379360 -0.695920 0.066763
v 0.311202 -0.695920 0.066763
v 0.313146 -0.693976 0.066763
v 0.313146 -0.693976 0.066763
v 0.311202 -0.656116 0.066763
v 0.313146 -0.658060 0.066763
v 0.311202 -0.656116 0.066763
v 0.313146 -0.693976 0.066763
v 0.311202 -0.695920 0.066763
v 0.313146 -0.658060 0.066763
v 0.377416 -0.658060 0.066763
v 0.313146 -0.658060 0.070544
v 0.377416 -0.693976 0.066763
v 0.379360 -0.695920 0.066763
v 0.313146 -0.693976 0.066763
v 0.377416 -0.693976 0.066763
v 0.377416 -0.693976 0.070544
v 0.377416 -0.658060 0.066763
v 0.313146 -0.658060 0.066763
v 0.313146 -0.658060 0.070544
v 0.313146 -0.693976 0.066763
v 0.377416 -0.658060 0.070544
v 0.313146 -0.658060 0.070544
v 0.377416 -0.658060 0.066763
v 0.377416 -0.693976 0.066763
v 0.313146 -0.693976 0.066763
v 0.377416 -0.693976 0.070544
v 0.377416 -0.658060 0.070544
v 0.377416 -0.658060 0.066763
v 0.377416 -0.693976 0.070544
v 0.313146 -0.693976 0.070544
v 0.313146 -0.693976 0.066763
v 0.313146 -0.658060 0.070544
v 0.377416 -0.658060 0.070544
v 0.377416 -0.693976 0.070544
v 0.313146 -0.658060 0.070544
v 0.313146 -0.693976 0.070544
v 0.377416 -0.693976 0.070544
v 0.313146 -0.693976 0.066763
v 0.313146 -0.693976 0.070544
v 0.313146 -0.658060 0.070544
v 0.377416 -0.693976 0.070544
v 0.379360 -0.656116 0.068653
v 0.379360 -0.695920 0.066763
v 0.379360 -0.695920 0.068653
v 0.311202 -0.656116 0.066763
v 0.379360 -0.656116 0.068653
v 0.311202 -0.656116 0.068653
v 0.379360 -0.695920 0.066763
v 0.379360 -0.656116 0.068653
v 0.379360 -0.656116 0.066763
v 0.379360 -0.695920 0.066763
v 0.311202 -0.695920 0.068653
v 0.379360 -0.695920 0.068653
v 0.379360 -0.656116 0.068653
v 0.311202 -0.656116 0.066763
v 0.379360 -0.656116 0.066763
v 0.311202 -0.695920 0.068653
v 0.311202 -0.656116 0.066763
v 0.311202 -0.656116 0.068653
v 0.379360 -0.656116 0.066763
v 0.377416 -0.658060 0.066763
v 0.379360 -0.695920 0.066763
v 0.311202 -0.695920 0.068653
v 0.379360 -0.695920 0.066763
v 0.311202 -0.695920 0.066763
v 0.311202 -0.656116 0.066763
v 0.313146 -0.658060 0.066763
v 0.379360 -0.656116 0.066763
v 0.311202 -0.656116 0.066763
v 0.311202 -0.695920 0.068653
v 0.311202 -0.695920 0.066763
v 0.379360 -0.656116 0.066763
v 0.313146 -0.658060 0.066763
v 0.377416 -0.658060 0.066763
v 0.377416 -0.693976 0.066763
v 0.379360 -0.695920 0.066763
v 0.377416 -0.658060 0.066763
v 0.313146 -0.693976 0.066763
v 0.311202 -0.695920 0.066763
v 0.379360 -0.695920 0.066763
v 0.313146 -0.658060 0.066763
v 0.311202 -0.656116 0.066763
v 0.313146 -0.693976 0.066763
v 0.311202 -0.695920 0.066763
v 0.313146 -0.693976 0.066763
v 0.311202 -0.656116 0.066763
v 0.313146 -0.658060 0.070544
v 0.377416 -0.658060 0.066763
v 0.313146 -0.658060 0.066763
v 0.313146 -0.693976 0.066763
v 0.379360 -0.695920 0.066763
v 0.377416 -0.693976 0.066763
v 0.377416 -0.658060 0.066763
v 0.377416 -0.693976 0.070544
v 0.377416 -0.693976 0.066763
v 0.313146 -0.693976 0.066763
v 0.313146 -0.658060 0.070544
v 0.313146 -0.658060 0.066763
v 0.377416 -0.658060 0.066763
v 0.313146 -0.658060 0.070544
v 0.377416 -0.658060 0.070544
v 0.377416 -0.693976 0.070544
v 0.313146 -0.693976 0.066763
v 0.377416 -0.693976 0.066763
v 0.377416 -0.693976 0.070544
v 0.377416 -0.658060 0.066763
v 0.377416 -0.658060 0.070544
v 0.313146 -0.658060 0.070544
v 0.313146 -0.693976 0.066763
v 0.313146 -0.693976 0.070544
v 0.313146 -0.658060 0.070544
v 0.377416 -0.693976 0.070544
v 0.377416 -0.658060 0.070544
v 0.313146 -0.693976 0.066763
v 0.377416 -0.693976 0.070544
v 0.313146 -0.693976 0.070544
v 0.377416 -0.693976 0.070544
v 0.313146 -0.658060 0.070544
v 0.313146 -0.693976 0.070544
vt 0 0
vn 1 0 0
vn 0 1 0
vn 0 -1 0
vn -1 0 0
vn 0 0 -1
vn 0 0 1
usemtl material_0_0
f 1/1/1 2/1/1 3/1/1
f 4/1/2 5/1/2 6/1/2
f 7/1/1 8/1/1 9/1/1
f 10/1/3 11/1/3 12/1/3
f 13/1/2 14/1/2 15/1/2
f 16/1/4 17/1/4 18/1/4
f 19/1/5 20/1/5 21/1/5
f 22/1/3 23/1/3 24/1/3
f 25/1/5 26/1/5 27/1/5
f 28/1/4 29/1/4 30/1/4
f 31/1/5 32/1/5 33/1/5
f 34/1/5 35/1/5 36/1/5
f 37/1/5 38/1/5 39/1/5
f 40/1/5 41/1/5 42/1/5
f 43/1/5 44/1/5 45/1/5
f 46/1/3 47/1/3 48/1/3
f 49/1/5 50/1/5 51/1/5
f 52/1/4 53/1/4 54/1/4
f 55/1/1 56/1/1 57/1/1
f 58/1/3 59/1/3 60/1/3
f 61/1/2 62/1/2 63/1/2
f 64/1/4 65/1/4 66/1/4
f 67/1/1 68/1/1 69/1/1
f 70/1/5 71/1/5 72/1/5
f 73/1/2 74/1/2 75/1/2
f 76/1/5 77/1/5 78/1/5
usemtl material_1_0
f 79/1/4 80/1/4 81/1/4
f 82/1/3 83/1/3 84/1/3
f 85/1/4 86/1/4 87/1/4
f 88/1/2 89/1/2 90/1/2
f 91/1/3 92/1/3 93/1/3
f 94/1/1 95/1/1 96/1/1
f 97/1/6 98/1/6 99/1/6
f 100/1/2 101/1/2 102/1/2
f 103/1/6 104/1/6 105/1/6
f 106/1/1 107/1/1 108/1/1
f 109/1/6 110/1/6 111/1/6
f 112/1/6 113/1/6 114/1/6
f 115/1/6 116/1/6 117/1/6
f 118/1/6 119/1/6 120/1/6
f 121/1/6 122/1/6 123/1/6
f 124/1/2 125/1/2 126/1/2
f 127/1/6 128/1/6 129/1/6
f 130/1/1 131/1/1 132/1/1
f 133/1/4 134/1/4 135/1/4
f 136/1/2 137/1/2 138/1/2
f 139/1/3 140/1/3 141/1/3
f 142/1/1 143/1/1 144/1/1
f 145/1/4 146/1/4 147/1/4
f 148/1/6 149/1/6 150/1/6
f 151/1/3 152/1/3 153/1/3
f 154/1/6 155/1/6 156/1/6
