# SSTK version 0.8.0
# 64
mtllib original-64.mtl
o mesh52/mesh52-geometry/material_4/component_1#mesh52-geometry
v -0.411235 -0.867745 -0.021826
v -0.411235 -0.867745 0.017870
v -0.411235 -0.754329 -0.021826
v -0.411235 -0.754329 0.017870
v -0.411235 -0.754329 -0.021826
v -0.411235 -0.867745 0.017870
v -0.411235 -0.867745 -0.021826
v -0.411235 -0.754329 -0.021826
v -0.227879 -0.867745 -0.021826
v -0.227879 -0.867745 0.017870
v -0.227879 -0.735426 0.017870
v -0.411235 -0.867745 0.017870
v -0.411235 -0.754329 0.017870
v -0.227879 -0.735426 0.017870
v -0.411235 -0.754329 -0.021826
v -0.411235 -0.754329 0.017870
v -0.411235 -0.867745 0.017870
v -0.227879 -0.735426 0.017870
v -0.227879 -0.735426 -0.021826
v -0.227879 -0.867745 -0.021826
v -0.411235 -0.754329 -0.021826
v -0.227879 -0.867745 0.017870
v -0.227879 -0.867745 -0.021826
v -0.227879 -0.735426 0.017870
v -0.227879 -0.735426 -0.021826
v -0.411235 -0.754329 -0.021826
v -0.227879 -0.735426 0.017870
v -0.227879 -0.735426 -0.021826
v -0.227879 -0.735426 0.017870
v -0.227879 -0.867745 -0.021826
v -0.411235 -0.754329 -0.021826
v -0.411235 -0.867745 0.017870
v -0.411235 -0.867745 -0.021826
v -0.411235 -0.867745 0.017870
v -0.411235 -0.754329 -0.021826
v -0.411235 -0.754329 0.017870
v -0.227879 -0.867745 -0.021826
v -0.411235 -0.754329 -0.021826
v -0.411235 -0.867745 -0.021826
v -0.411235 -0.867745 0.017870
v -0.227879 -0.735426 0.017870
v -0.227879 -0.867745 0.017870
v -0.411235 -0.754329 -0.021826
v -0.227879 -0.735426 0.017870
v -0.411235 -0.754329 0.017870
v -0.227879 -0.735426 0.017870
v -0.411235 -0.867745 0.017870
v -0.411235 -0.754329 0.017870
v -0.411235 -0.754329 -0.021826
v -0.227879 -0.867745 -0.021826
v -0.227879 -0.735426 -0.021826
v -0.227879 -0.735426 0.017870
v -0.227879 -0.867745 -0.021826
v -0.227879 -0.867745 0.017870
v -0.227879 -0.735426 0.017870
v -0.411235 -0.754329 -0.021826
v -0.227879 -0.735426 -0.021826
v -0.227879 -0.867745 -0.021826
v -0.227879 -0.735426 0.017870
v -0.227879 -0.735426 -0.021826
vt 0 0
vn -1 0 0
vn 0 0 -1
vn 0 0 1
vn -0.10254899393702345 0.9947279546903788 0
vn 1 0 0
vn 0.10254899393702345 -0.9947279546903788 0
usemtl material_0_0
f 1/1/1 2/1/1 3/1/1
f 4/1/1 5/1/1 6/1/1
f 7/1/2 8/1/2 9/1/2
f 10/1/3 11/1/3 12/1/3
f 13/1/4 14/1/4 15/1/4
f 16/1/3 17/1/3 18/1/3
f 19/1/2 20/1/2 21/1/2
f 22/1/5 23/1/5 24/1/5
f 25/1/4 26/1/4 27/1/4
f 28/1/5 29/1/5 30/1/5
usemtl material_1_0
f 31/1/5 32/1/5 33/1/5
f 34/1/5 35/1/5 36/1/5
f 37/1/3 38/1/3 39/1/3
f 40/1/2 41/1/2 42/1/2
f 43/1/6 44/1/6 45/1/6
f 46/1/2 47/1/2 48/1/2
f 49/1/3 50/1/3 51/1/3
f 52/1/1 53/1/1 54/1/1
f 55/1/6 56/1/6 57/1/6
f 58/1/1 59/1/1 60/1/1
