# SSTK version 0.8.0
# 66
mtllib original-66.mtl
o mesh52/mesh52-geometry/material_4/component_3#mesh52-geometry
v 0.398045 -0.765670 0.012904
v 0.398045 -0.708962 0.012904
v 0.393592 -0.765670 0.012317
v 0.402497 -0.765670 0.012317
v 0.402497 -0.708962 0.012317
v 0.398045 -0.765670 0.012904
v 0.410209 -0.765670 0.007865
v 0.410209 -0.708962 0.007865
v 0.406646 -0.765670 0.010599
v 0.406646 -0.765670 0.010599
v 0.406646 -0.708962 0.010599
v 0.402497 -0.765670 0.012317
v 0.393592 -0.765670 0.012317
v 0.393592 -0.708962 0.012317
v 0.389443 -0.765670 0.010599
v 0.393592 -0.708962 0.012317
v 0.393592 -0.765670 0.012317
v 0.398045 -0.708962 0.012904
v 0.398045 -0.708962 0.012904
v 0.398045 -0.765670 0.012904
v 0.402497 -0.708962 0.012317
v 0.402497 -0.708962 0.012317
v 0.402497 -0.765670 0.012317
v 0.406646 -0.708962 0.010599
v 0.389443 -0.765670 0.010599
v 0.389443 -0.708962 0.010599
v 0.385880 -0.765670 0.007865
v 0.412943 -0.765670 0.004302
v 0.414662 -0.765670 0.000153
v 0.412943 -0.708962 0.004302
v 0.410209 -0.765670 0.007865
v 0.412943 -0.765670 0.004302
v 0.410209 -0.708962 0.007865
v 0.406646 -0.708962 0.010599
v 0.406646 -0.765670 0.010599
v 0.410209 -0.708962 0.007865
v 0.389443 -0.708962 0.010599
v 0.389443 -0.765670 0.010599
v 0.393592 -0.708962 0.012317
v 0.398045 -0.765670 -0.021503
v 0.398045 -0.708962 -0.021503
v 0.402497 -0.765670 -0.020917
v 0.393592 -0.765670 -0.020917
v 0.393592 -0.708962 -0.020917
v 0.398045 -0.765670 -0.021503
v 0.383146 -0.765670 0.004302
v 0.385880 -0.765670 0.007865
v 0.383146 -0.708962 0.004302
v 0.385880 -0.708962 0.007865
v 0.385880 -0.765670 0.007865
v 0.389443 -0.708962 0.010599
v 0.414662 -0.765670 0.000153
v 0.415248 -0.765670 -0.004300
v 0.414662 -0.708962 0.000153
v 0.414662 -0.708962 0.000153
v 0.412943 -0.708962 0.004302
v 0.414662 -0.765670 0.000153
v 0.412943 -0.708962 0.004302
v 0.410209 -0.708962 0.007865
v 0.412943 -0.765670 0.004302
v 0.402497 -0.708962 -0.020917
v 0.402497 -0.765670 -0.020917
v 0.398045 -0.708962 -0.021503
v 0.398045 -0.708962 -0.021503
v 0.398045 -0.765670 -0.021503
v 0.393592 -0.708962 -0.020917
v 0.393592 -0.708962 -0.020917
v 0.393592 -0.765670 -0.020917
v 0.389443 -0.708962 -0.019198
v 0.389443 -0.765670 -0.019198
v 0.389443 -0.708962 -0.019198
v 0.393592 -0.765670 -0.020917
v 0.381427 -0.765670 0.000153
v 0.383146 -0.765670 0.004302
v 0.381427 -0.708962 0.000153
v 0.385880 -0.708962 0.007865
v 0.383146 -0.708962 0.004302
v 0.385880 -0.765670 0.007865
v 0.383146 -0.708962 0.004302
v 0.381427 -0.708962 0.000153
v 0.383146 -0.765670 0.004302
v 0.414662 -0.765670 -0.008752
v 0.412943 -0.765670 -0.012901
v 0.414662 -0.708962 -0.008752
v 0.415248 -0.765670 -0.004300
v 0.414662 -0.765670 -0.008752
v 0.415248 -0.708962 -0.004300
v 0.415248 -0.708962 -0.004300
v 0.414662 -0.708962 0.000153
v 0.415248 -0.765670 -0.004300
v 0.402497 -0.765670 -0.020917
v 0.402497 -0.708962 -0.020917
v 0.406646 -0.765670 -0.019198
v 0.406646 -0.765670 -0.019198
v 0.406646 -0.708962 -0.019198
v 0.410209 -0.765670 -0.016464
v 0.412943 -0.765670 -0.012901
v 0.410209 -0.765670 -0.016464
v 0.412943 -0.708962 -0.012901
v 0.389443 -0.708962 -0.019198
v 0.389443 -0.765670 -0.019198
v 0.385880 -0.708962 -0.016464
v 0.385880 -0.765670 -0.016464
v 0.385880 -0.708962 -0.016464
v 0.389443 -0.765670 -0.019198
v 0.380841 -0.765670 -0.004300
v 0.381427 -0.765670 0.000153
v 0.380841 -0.708962 -0.004300
v 0.381427 -0.708962 0.000153
v 0.380841 -0.708962 -0.004300
v 0.381427 -0.765670 0.000153
v 0.381427 -0.765670 -0.008752
v 0.380841 -0.765670 -0.004300
v 0.381427 -0.708962 -0.008752
v 0.412943 -0.708962 -0.012901
v 0.414662 -0.708962 -0.008752
v 0.412943 -0.765670 -0.012901
v 0.414662 -0.708962 -0.008752
v 0.415248 -0.708962 -0.004300
v 0.414662 -0.765670 -0.008752
v 0.406646 -0.708962 -0.019198
v 0.406646 -0.765670 -0.019198
v 0.402497 -0.708962 -0.020917
v 0.410209 -0.708962 -0.016464
v 0.410209 -0.765670 -0.016464
v 0.406646 -0.708962 -0.019198
v 0.410209 -0.708962 -0.016464
v 0.412943 -0.708962 -0.012901
v 0.410209 -0.765670 -0.016464
v 0.385880 -0.765670 -0.016464
v 0.383146 -0.765670 -0.012901
v 0.385880 -0.708962 -0.016464
v 0.380841 -0.708962 -0.004300
v 0.381427 -0.708962 -0.008752
v 0.380841 -0.765670 -0.004300
v 0.383146 -0.765670 -0.012901
v 0.381427 -0.765670 -0.008752
v 0.383146 -0.708962 -0.012901
v 0.381427 -0.708962 -0.008752
v 0.383146 -0.708962 -0.012901
v 0.381427 -0.765670 -0.008752
v 0.383146 -0.708962 -0.012901
v 0.385880 -0.708962 -0.016464
v 0.383146 -0.765670 -0.012901
v 0.393592 -0.765670 0.012317
v 0.398045 -0.708962 0.012904
v 0.398045 -0.765670 0.012904
v 0.398045 -0.765670 0.012904
v 0.402497 -0.708962 0.012317
v 0.402497 -0.765670 0.012317
v 0.406646 -0.765670 0.010599
v 0.410209 -0.708962 0.007865
v 0.410209 -0.765670 0.007865
v 0.402497 -0.765670 0.012317
v 0.406646 -0.708962 0.010599
v 0.406646 -0.765670 0.010599
v 0.389443 -0.765670 0.010599
v 0.393592 -0.708962 0.012317
v 0.393592 -0.765670 0.012317
v 0.398045 -0.708962 0.012904
v 0.393592 -0.765670 0.012317
v 0.393592 -0.708962 0.012317
v 0.402497 -0.708962 0.012317
v 0.398045 -0.765670 0.012904
v 0.398045 -0.708962 0.012904
v 0.406646 -0.708962 0.010599
v 0.402497 -0.765670 0.012317
v 0.402497 -0.708962 0.012317
v 0.385880 -0.765670 0.007865
v 0.389443 -0.708962 0.010599
v 0.389443 -0.765670 0.010599
v 0.412943 -0.708962 0.004302
v 0.414662 -0.765670 0.000153
v 0.412943 -0.765670 0.004302
v 0.410209 -0.708962 0.007865
v 0.412943 -0.765670 0.004302
v 0.410209 -0.765670 0.007865
v 0.410209 -0.708962 0.007865
v 0.406646 -0.765670 0.010599
v 0.406646 -0.708962 0.010599
v 0.393592 -0.708962 0.012317
v 0.389443 -0.765670 0.010599
v 0.389443 -0.708962 0.010599
v 0.402497 -0.765670 -0.020917
v 0.398045 -0.708962 -0.021503
v 0.398045 -0.765670 -0.021503
v 0.398045 -0.765670 -0.021503
v 0.393592 -0.708962 -0.020917
v 0.393592 -0.765670 -0.020917
v 0.383146 -0.708962 0.004302
v 0.385880 -0.765670 0.007865
v 0.383146 -0.765670 0.004302
v 0.389443 -0.708962 0.010599
v 0.385880 -0.765670 0.007865
v 0.385880 -0.708962 0.007865
v 0.414662 -0.708962 0.000153
v 0.415248 -0.765670 -0.004300
v 0.414662 -0.765670 0.000153
v 0.414662 -0.765670 0.000153
v 0.412943 -0.708962 0.004302
v 0.414662 -0.708962 0.000153
v 0.412943 -0.765670 0.004302
v 0.410209 -0.708962 0.007865
v 0.412943 -0.708962 0.004302
v 0.398045 -0.708962 -0.021503
v 0.402497 -0.765670 -0.020917
v 0.402497 -0.708962 -0.020917
v 0.393592 -0.708962 -0.020917
v 0.398045 -0.765670 -0.021503
v 0.398045 -0.708962 -0.021503
v 0.389443 -0.708962 -0.019198
v 0.393592 -0.765670 -0.020917
v 0.393592 -0.708962 -0.020917
v 0.393592 -0.765670 -0.020917
v 0.389443 -0.708962 -0.019198
v 0.389443 -0.765670 -0.019198
v 0.381427 -0.708962 0.000153
v 0.383146 -0.765670 0.004302
v 0.381427 -0.765670 0.000153
v 0.385880 -0.765670 0.007865
v 0.383146 -0.708962 0.004302
v 0.385880 -0.708962 0.007865
v 0.383146 -0.765670 0.004302
v 0.381427 -0.708962 0.000153
v 0.383146 -0.708962 0.004302
v 0.414662 -0.708962 -0.008752
v 0.412943 -0.765670 -0.012901
v 0.414662 -0.765670 -0.008752
v 0.415248 -0.708962 -0.004300
v 0.414662 -0.765670 -0.008752
v 0.415248 -0.765670 -0.004300
v 0.415248 -0.765670 -0.004300
v 0.414662 -0.708962 0.000153
v 0.415248 -0.708962 -0.004300
v 0.406646 -0.765670 -0.019198
v 0.402497 -0.708962 -0.020917
v 0.402497 -0.765670 -0.020917
v 0.410209 -0.765670 -0.016464
v 0.406646 -0.708962 -0.019198
v 0.406646 -0.765670 -0.019198
v 0.412943 -0.708962 -0.012901
v 0.410209 -0.765670 -0.016464
v 0.412943 -0.765670 -0.012901
v 0.385880 -0.708962 -0.016464
v 0.389443 -0.765670 -0.019198
v 0.389443 -0.708962 -0.019198
v 0.389443 -0.765670 -0.019198
v 0.385880 -0.708962 -0.016464
v 0.385880 -0.765670 -0.016464
v 0.380841 -0.708962 -0.004300
v 0.381427 -0.765670 0.000153
v 0.380841 -0.765670 -0.004300
v 0.381427 -0.765670 0.000153
v 0.380841 -0.708962 -0.004300
v 0.381427 -0.708962 0.000153
v 0.381427 -0.708962 -0.008752
v 0.380841 -0.765670 -0.004300
v 0.381427 -0.765670 -0.008752
v 0.412943 -0.765670 -0.012901
v 0.414662 -0.708962 -0.008752
v 0.412943 -0.708962 -0.012901
v 0.414662 -0.765670 -0.008752
v 0.415248 -0.708962 -0.004300
v 0.414662 -0.708962 -0.008752
v 0.402497 -0.708962 -0.020917
v 0.406646 -0.765670 -0.019198
v 0.406646 -0.708962 -0.019198
v 0.406646 -0.708962 -0.019198
v 0.410209 -0.765670 -0.016464
v 0.410209 -0.708962 -0.016464
v 0.410209 -0.765670 -0.016464
v 0.412943 -0.708962 -0.012901
v 0.410209 -0.708962 -0.016464
v 0.385880 -0.708962 -0.016464
v 0.383146 -0.765670 -0.012901
v 0.385880 -0.765670 -0.016464
v 0.380841 -0.765670 -0.004300
v 0.381427 -0.708962 -0.008752
v 0.380841 -0.708962 -0.004300
v 0.383146 -0.708962 -0.012901
v 0.381427 -0.765670 -0.008752
v 0.383146 -0.765670 -0.012901
v 0.381427 -0.765670 -0.008752
v 0.383146 -0.708962 -0.012901
v 0.381427 -0.708962 -0.008752
v 0.383146 -0.765670 -0.012901
v 0.385880 -0.708962 -0.016464
v 0.383146 -0.708962 -0.012901
vt 0 0
vn 0 0 1
vn -0.25881897461707376 0 0.9659258451755842
vn 0.25881897461707376 0 0.9659258451755842
vn 0.7071067811865476 0 0.7071067811865476
vn 0.5000001873976233 0 0.8660252955903434
vn -0.5000001873976233 0 0.8660252955903434
vn -0.7071067811865476 0 0.7071067811865476
vn 0.8660252955903434 0 0.5000001873976233
vn 0.9659258451755842 0 0.25881897461707376
vn 0 0 -1
vn 0.25881897461707376 0 -0.9659258451755842
vn -0.25881897461707376 0 -0.9659258451755842
vn -0.8660252955903434 0 0.5000001873976233
vn 1 0 0
vn -0.5000001873976233 0 -0.8660252955903434
vn -0.9659258451755842 0 0.25881897461707376
vn 0.9659258451755842 0 -0.25881897461707376
vn 0.8660252955903434 0 -0.5000001873976233
vn 0.5000001873976233 0 -0.8660252955903434
vn 0.7071067811865476 0 -0.7071067811865476
vn -0.7071067811865476 0 -0.7071067811865476
vn -1 0 0
vn -0.9659258451755842 0 -0.25881897461707376
vn -0.8660252955903434 0 -0.5000001873976233
usemtl material_0_0
f 1/1/1 2/1/1 3/1/2
f 4/1/3 5/1/3 6/1/1
f 7/1/4 8/1/4 9/1/5
f 10/1/5 11/1/5 12/1/3
f 13/1/2 14/1/2 15/1/6
f 16/1/2 17/1/2 18/1/1
f 19/1/1 20/1/1 21/1/3
f 22/1/3 23/1/3 24/1/5
f 25/1/6 26/1/6 27/1/7
f 28/1/8 29/1/9 30/1/8
f 31/1/4 32/1/8 33/1/4
f 34/1/5 35/1/5 36/1/4
f 37/1/6 38/1/6 39/1/2
f 40/1/10 41/1/10 42/1/11
f 43/1/12 44/1/12 45/1/10
f 46/1/13 47/1/7 48/1/13
f 49/1/7 50/1/7 51/1/6
f 52/1/9 53/1/14 54/1/9
f 55/1/9 56/1/8 57/1/9
f 58/1/8 59/1/4 60/1/8
f 61/1/11 62/1/11 63/1/10
f 64/1/10 65/1/10 66/1/12
f 67/1/12 68/1/12 69/1/15
f 70/1/15 71/1/15 72/1/12
f 73/1/16 74/1/13 75/1/16
f 76/1/7 77/1/13 78/1/7
f 79/1/13 80/1/16 81/1/13
f 82/1/17 83/1/18 84/1/17
f 85/1/14 86/1/17 87/1/14
f 88/1/14 89/1/9 90/1/14
f 91/1/11 92/1/11 93/1/19
f 94/1/19 95/1/19 96/1/20
f 97/1/18 98/1/20 99/1/18
f 100/1/15 101/1/15 102/1/21
f 103/1/21 104/1/21 105/1/15
f 106/1/22 107/1/16 108/1/22
f 109/1/16 110/1/22 111/1/16
f 112/1/23 113/1/22 114/1/23
f 115/1/18 116/1/17 117/1/18
f 118/1/17 119/1/14 120/1/17
f 121/1/19 122/1/19 123/1/11
f 124/1/20 125/1/20 126/1/19
f 127/1/20 128/1/18 129/1/20
f 130/1/21 131/1/24 132/1/21
f 133/1/22 134/1/23 135/1/22
f 136/1/24 137/1/23 138/1/24
f 139/1/23 140/1/24 141/1/23
f 142/1/24 143/1/21 144/1/24
usemtl material_1_0
f 145/1/11 146/1/10 147/1/10
f 148/1/10 149/1/12 150/1/12
f 151/1/15 152/1/21 153/1/21
f 154/1/12 155/1/15 156/1/15
f 157/1/19 158/1/11 159/1/11
f 160/1/10 161/1/11 162/1/11
f 163/1/12 164/1/10 165/1/10
f 166/1/15 167/1/12 168/1/12
f 169/1/20 170/1/19 171/1/19
f 172/1/24 173/1/23 174/1/24
f 175/1/21 176/1/24 177/1/21
f 178/1/21 179/1/15 180/1/15
f 181/1/11 182/1/19 183/1/19
f 184/1/2 185/1/1 186/1/1
f 187/1/1 188/1/3 189/1/3
f 190/1/18 191/1/20 192/1/18
f 193/1/19 194/1/20 195/1/20
f 196/1/23 197/1/22 198/1/23
f 199/1/23 200/1/24 201/1/23
f 202/1/24 203/1/21 204/1/24
f 205/1/1 206/1/2 207/1/2
f 208/1/3 209/1/1 210/1/1
f 211/1/5 212/1/3 213/1/3
f 214/1/3 215/1/5 216/1/5
f 217/1/17 218/1/18 219/1/17
f 220/1/20 221/1/18 222/1/20
f 223/1/18 224/1/17 225/1/18
f 226/1/16 227/1/13 228/1/16
f 229/1/22 230/1/16 231/1/22
f 232/1/22 233/1/23 234/1/22
f 235/1/6 236/1/2 237/1/2
f 238/1/7 239/1/6 240/1/6
f 241/1/13 242/1/7 243/1/13
f 244/1/4 245/1/5 246/1/5
f 247/1/5 248/1/4 249/1/4
f 250/1/14 251/1/17 252/1/14
f 253/1/17 254/1/14 255/1/17
f 256/1/9 257/1/14 258/1/9
f 259/1/13 260/1/16 261/1/13
f 262/1/16 263/1/22 264/1/16
f 265/1/2 266/1/6 267/1/6
f 268/1/6 269/1/7 270/1/7
f 271/1/7 272/1/13 273/1/7
f 274/1/4 275/1/8 276/1/4
f 277/1/14 278/1/9 279/1/14
f 280/1/8 281/1/9 282/1/8
f 283/1/9 284/1/8 285/1/9
f 286/1/8 287/1/4 288/1/8
