# SSTK version 0.8.0
# 25
mtllib original-25.mtl
o mesh40/mesh40-geometry#mesh40-geometry
v -0.159214 -0.633200 0.068748
v -0.160696 -0.635435 0.068748
v -0.160696 -0.633200 0.068748
v -0.160646 -0.638443 0.068748
v -0.160574 -0.639675 0.068748
v -0.160861 -0.637358 0.068748
v -0.159214 -0.651313 0.068748
v -0.161220 -0.636420 0.068748
v -0.160646 -0.640912 0.068748
v -0.161525 -0.634310 0.068748
v -0.160696 -0.651313 0.068748
v -0.161722 -0.635630 0.068748
v -0.160696 -0.643806 0.068748
v -0.162355 -0.635003 0.068748
v -0.160860 -0.641999 0.068748
v -0.162530 -0.633510 0.068748
v -0.161217 -0.642935 0.068748
v -0.163106 -0.634555 0.068748
v -0.161514 -0.644966 0.068748
v -0.163727 -0.633032 0.068748
v -0.161716 -0.643721 0.068748
v -0.163974 -0.634286 0.068748
v -0.162347 -0.644342 0.068748
v -0.164960 -0.634196 0.068748
v -0.162536 -0.645798 0.068748
v -0.165130 -0.632872 0.068748
v -0.163098 -0.644787 0.068748
v -0.165945 -0.634285 0.068748
v -0.163759 -0.646299 0.068748
v -0.166395 -0.632985 0.068748
v -0.163969 -0.645053 0.068748
v -0.166809 -0.634552 0.068748
v -0.164960 -0.645142 0.068748
v -0.167519 -0.633325 0.068748
v -0.165178 -0.646466 0.068748
v -0.167554 -0.634996 0.068748
v -0.165930 -0.645052 0.068748
v -0.168179 -0.635618 0.068748
v -0.166432 -0.646353 0.068748
v -0.168500 -0.633890 0.068748
v -0.166787 -0.644784 0.068748
v -0.168673 -0.636404 0.068748
v -0.167530 -0.644336 0.068748
v -0.169026 -0.637343 0.068748
v -0.167546 -0.646014 0.068748
v -0.169238 -0.638433 0.068748
v -0.168161 -0.643708 0.068748
v -0.169339 -0.634682 0.068748
v -0.168519 -0.645448 0.068748
v -0.169309 -0.639675 0.068748
v -0.168663 -0.642919 0.068748
v -0.169351 -0.644656 0.068748
v -0.169022 -0.641983 0.068748
v -0.170012 -0.635673 0.068748
v -0.169237 -0.640902 0.068748
v -0.170018 -0.643666 0.068748
v -0.170492 -0.636836 0.068748
v -0.170495 -0.642506 0.068748
v -0.170780 -0.638170 0.068748
v -0.170781 -0.641176 0.068748
v -0.170876 -0.639675 0.068748
vn 0 0 -1
vn 0 0 1
usemtl material_0_0
f 1//1 2//1 3//1
f 2//1 1//1 4//1
f 3//2 2//2 1//2
f 4//2 1//2 2//2
f 4//1 1//1 5//1
f 5//2 1//2 4//2
f 6//1 2//1 4//1
f 4//2 2//2 6//2
f 7//1 5//1 1//1
f 1//2 5//2 7//2
f 8//1 2//1 6//1
f 6//2 2//2 8//2
f 7//1 9//1 5//1
f 5//2 9//2 7//2
f 8//1 10//1 2//1
f 2//2 10//2 8//2
f 11//1 9//1 7//1
f 7//2 9//2 11//2
f 12//1 10//1 8//1
f 8//2 10//2 12//2
f 13//1 9//1 11//1
f 11//2 9//2 13//2
f 14//1 10//1 12//1
f 12//2 10//2 14//2
f 13//1 15//1 9//1
f 9//2 15//2 13//2
f 14//1 16//1 10//1
f 10//2 16//2 14//2
f 13//1 17//1 15//1
f 15//2 17//2 13//2
f 18//1 16//1 14//1
f 14//2 16//2 18//2
f 19//1 17//1 13//1
f 13//2 17//2 19//2
f 18//1 20//1 16//1
f 16//2 20//2 18//2
f 19//1 21//1 17//1
f 17//2 21//2 19//2
f 22//1 20//1 18//1
f 18//2 20//2 22//2
f 19//1 23//1 21//1
f 21//2 23//2 19//2
f 24//1 20//1 22//1
f 22//2 20//2 24//2
f 25//1 23//1 19//1
f 19//2 23//2 25//2
f 24//1 26//1 20//1
f 20//2 26//2 24//2
f 25//1 27//1 23//1
f 23//2 27//2 25//2
f 28//1 26//1 24//1
f 24//2 26//2 28//2
f 29//1 27//1 25//1
f 25//2 27//2 29//2
f 28//1 30//1 26//1
f 26//2 30//2 28//2
f 29//1 31//1 27//1
f 27//2 31//2 29//2
f 32//1 30//1 28//1
f 28//2 30//2 32//2
f 29//1 33//1 31//1
f 31//2 33//2 29//2
f 32//1 34//1 30//1
f 30//2 34//2 32//2
f 35//1 33//1 29//1
f 29//2 33//2 35//2
f 36//1 34//1 32//1
f 32//2 34//2 36//2
f 35//1 37//1 33//1
f 33//2 37//2 35//2
f 38//1 34//1 36//1
f 36//2 34//2 38//2
f 39//1 37//1 35//1
f 35//2 37//2 39//2
f 38//1 40//1 34//1
f 34//2 40//2 38//2
f 39//1 41//1 37//1
f 37//2 41//2 39//2
f 42//1 40//1 38//1
f 38//2 40//2 42//2
f 39//1 43//1 41//1
f 41//2 43//2 39//2
f 44//1 40//1 42//1
f 42//2 40//2 44//2
f 45//1 43//1 39//1
f 39//2 43//2 45//2
f 46//1 40//1 44//1
f 44//2 40//2 46//2
f 45//1 47//1 43//1
f 43//2 47//2 45//2
f 46//1 48//1 40//1
f 40//2 48//2 46//2
f 49//1 47//1 45//1
f 45//2 47//2 49//2
f 48//1 46//1 50//1
f 50//2 46//2 48//2
f 49//1 51//1 47//1
f 47//2 51//2 49//2
f 52//1 48//1 50//1
f 50//2 48//2 52//2
f 49//1 53//1 51//1
f 51//2 53//2 49//2
f 52//1 54//1 48//1
f 48//2 54//2 52//2
f 52//1 50//1 55//1
f 55//2 50//2 52//2
f 49//1 55//1 53//1
f 53//2 55//2 49//2
f 56//1 54//1 52//1
f 52//2 54//2 56//2
f 52//1 55//1 49//1
f 49//2 55//2 52//2
f 56//1 57//1 54//1
f 54//2 57//2 56//2
f 58//1 57//1 56//1
f 56//2 57//2 58//2
f 58//1 59//1 57//1
f 57//2 59//2 58//2
f 60//1 59//1 58//1
f 58//2 59//2 60//2
f 59//1 60//1 61//1
f 61//2 60//2 59//2
