# SSTK version 0.8.0
# 91
mtllib original-91.mtl
o mesh52/mesh52-geometry/material_13/component_0#mesh52-geometry
v -0.295468 -0.695920 0.066763
v -0.363627 -0.695920 0.066763
v -0.361682 -0.693976 0.066763
v -0.363627 -0.656116 0.066763
v -0.361682 -0.693976 0.066763
v -0.363627 -0.695920 0.066763
v -0.297413 -0.693976 0.066763
v -0.295468 -0.695920 0.066763
v -0.361682 -0.693976 0.066763
v -0.295468 -0.695920 0.066763
v -0.297413 -0.658060 0.066763
v -0.295468 -0.656116 0.066763
v -0.361682 -0.693976 0.066763
v -0.363627 -0.656116 0.066763
v -0.361682 -0.658060 0.066763
v -0.297413 -0.658060 0.066763
v -0.295468 -0.695920 0.066763
v -0.297413 -0.693976 0.066763
v -0.295468 -0.656116 0.066763
v -0.361682 -0.658060 0.066763
v -0.363627 -0.656116 0.066763
v -0.297413 -0.658060 0.066763
v -0.361682 -0.658060 0.066763
v -0.295468 -0.656116 0.066763
v -0.361682 -0.693976 0.066763
v -0.363627 -0.695920 0.066763
v -0.295468 -0.695920 0.066763
v -0.363627 -0.695920 0.066763
v -0.361682 -0.693976 0.066763
v -0.363627 -0.656116 0.066763
v -0.361682 -0.693976 0.066763
v -0.295468 -0.695920 0.066763
v -0.297413 -0.693976 0.066763
v -0.295468 -0.656116 0.066763
v -0.297413 -0.658060 0.066763
v -0.295468 -0.695920 0.066763
v -0.361682 -0.658060 0.066763
v -0.363627 -0.656116 0.066763
v -0.361682 -0.693976 0.066763
v -0.297413 -0.693976 0.066763
v -0.295468 -0.695920 0.066763
v -0.297413 -0.658060 0.066763
v -0.363627 -0.656116 0.066763
v -0.361682 -0.658060 0.066763
v -0.295468 -0.656116 0.066763
v -0.295468 -0.656116 0.066763
v -0.361682 -0.658060 0.066763
v -0.297413 -0.658060 0.066763
vt 0 0
vn 0 0 -1
vn 0 0 1
usemtl material_0_0
f 1/1/1 2/1/1 3/1/1
f 4/1/1 5/1/1 6/1/1
f 7/1/1 8/1/1 9/1/1
f 10/1/1 11/1/1 12/1/1
f 13/1/1 14/1/1 15/1/1
f 16/1/1 17/1/1 18/1/1
f 19/1/1 20/1/1 21/1/1
f 22/1/1 23/1/1 24/1/1
usemtl material_1_0
f 25/1/2 26/1/2 27/1/2
f 28/1/2 29/1/2 30/1/2
f 31/1/2 32/1/2 33/1/2
f 34/1/2 35/1/2 36/1/2
f 37/1/2 38/1/2 39/1/2
f 40/1/2 41/1/2 42/1/2
f 43/1/2 44/1/2 45/1/2
f 46/1/2 47/1/2 48/1/2
