# SSTK version 0.8.0
# 4
mtllib original-4.mtl
o mesh24/mesh24-geometry#mesh24-geometry
v -0.151952 -0.410991 0.068748
v -0.151875 -0.414713 0.068748
v -0.151946 -0.415899 0.068748
v -0.151112 -0.410188 0.068748
v -0.151976 -0.420928 0.068748
v -0.151662 -0.413657 0.068748
v -0.152624 -0.411994 0.068748
v -0.151874 -0.417114 0.068748
v -0.151307 -0.412733 0.068748
v -0.152638 -0.419948 0.068748
v -0.151150 -0.421715 0.068748
v -0.150810 -0.411938 0.068748
v -0.153104 -0.413168 0.068748
v -0.151659 -0.418195 0.068748
v -0.150131 -0.409615 0.068748
v -0.153110 -0.418805 0.068748
v -0.151300 -0.419142 0.068748
v -0.150192 -0.411301 0.068748
v -0.153392 -0.414515 0.068748
v -0.150798 -0.419956 0.068748
v -0.149475 -0.410845 0.068748
v -0.153394 -0.417500 0.068748
v -0.150186 -0.422277 0.068748
v -0.149008 -0.409271 0.068748
v -0.153489 -0.416032 0.068748
v -0.150175 -0.420610 0.068748
v -0.148658 -0.410572 0.068748
v -0.149082 -0.422614 0.068748
v -0.147742 -0.409156 0.068748
v -0.149454 -0.421077 0.068748
v -0.147742 -0.410481 0.068748
v -0.148635 -0.421357 0.068748
v -0.146703 -0.409233 0.068748
v -0.147840 -0.422726 0.068748
v -0.146389 -0.410693 0.068748
v -0.147718 -0.421451 0.068748
v -0.145761 -0.409462 0.068748
v -0.146745 -0.422646 0.068748
v -0.145270 -0.411331 0.068748
v -0.146336 -0.421217 0.068748
v -0.144914 -0.409843 0.068748
v -0.145759 -0.422406 0.068748
v -0.144473 -0.412321 0.068748
v -0.145203 -0.420515 0.068748
v -0.144165 -0.410377 0.068748
v -0.144881 -0.422005 0.068748
v -0.144086 -0.413591 0.068748
v -0.144389 -0.419404 0.068748
v -0.143544 -0.411036 0.068748
v -0.144110 -0.421444 0.068748
v -0.142652 -0.413591 0.068748
v -0.143964 -0.417940 0.068748
v -0.143085 -0.411791 0.068748
v -0.143470 -0.420745 0.068748
v -0.142788 -0.412643 0.068748
v -0.142470 -0.417940 0.068748
v -0.142983 -0.419927 0.068748
v -0.142650 -0.418992 0.068748
vn 0 0 -1
vn 0 0 1
usemtl material_0_0
f 1//1 2//1 3//1
f 2//1 1//1 4//1
f 3//2 2//2 1//2
f 4//2 1//2 2//2
f 5//1 1//1 3//1
f 3//2 1//2 5//2
f 2//1 4//1 6//1
f 6//2 4//2 2//2
f 5//1 7//1 1//1
f 1//2 7//2 5//2
f 5//1 3//1 8//1
f 8//2 3//2 5//2
f 6//1 4//1 9//1
f 9//2 4//2 6//2
f 10//1 7//1 5//1
f 5//2 7//2 10//2
f 5//1 8//1 11//1
f 11//2 8//2 5//2
f 9//1 4//1 12//1
f 12//2 4//2 9//2
f 10//1 13//1 7//1
f 7//2 13//2 10//2
f 11//1 8//1 14//1
f 14//2 8//2 11//2
f 12//1 4//1 15//1
f 15//2 4//2 12//2
f 16//1 13//1 10//1
f 10//2 13//2 16//2
f 11//1 14//1 17//1
f 17//2 14//2 11//2
f 12//1 15//1 18//1
f 18//2 15//2 12//2
f 16//1 19//1 13//1
f 13//2 19//2 16//2
f 11//1 17//1 20//1
f 20//2 17//2 11//2
f 18//1 15//1 21//1
f 21//2 15//2 18//2
f 22//1 19//1 16//1
f 16//2 19//2 22//2
f 11//1 20//1 23//1
f 23//2 20//2 11//2
f 21//1 15//1 24//1
f 24//2 15//2 21//2
f 19//1 22//1 25//1
f 25//2 22//2 19//2
f 23//1 20//1 26//1
f 26//2 20//2 23//2
f 21//1 24//1 27//1
f 27//2 24//2 21//2
f 23//1 26//1 28//1
f 28//2 26//2 23//2
f 27//1 24//1 29//1
f 29//2 24//2 27//2
f 28//1 26//1 30//1
f 30//2 26//2 28//2
f 27//1 29//1 31//1
f 31//2 29//2 27//2
f 28//1 30//1 32//1
f 32//2 30//2 28//2
f 31//1 29//1 33//1
f 33//2 29//2 31//2
f 28//1 32//1 34//1
f 34//2 32//2 28//2
f 31//1 33//1 35//1
f 35//2 33//2 31//2
f 34//1 32//1 36//1
f 36//2 32//2 34//2
f 35//1 33//1 37//1
f 37//2 33//2 35//2
f 34//1 36//1 38//1
f 38//2 36//2 34//2
f 35//1 37//1 39//1
f 39//2 37//2 35//2
f 38//1 36//1 40//1
f 40//2 36//2 38//2
f 39//1 37//1 41//1
f 41//2 37//2 39//2
f 38//1 40//1 42//1
f 42//2 40//2 38//2
f 39//1 41//1 43//1
f 43//2 41//2 39//2
f 42//1 40//1 44//1
f 44//2 40//2 42//2
f 43//1 41//1 45//1
f 45//2 41//2 43//2
f 42//1 44//1 46//1
f 46//2 44//2 42//2
f 43//1 45//1 47//1
f 47//2 45//2 43//2
f 46//1 44//1 48//1
f 48//2 44//2 46//2
f 47//1 45//1 49//1
f 49//2 45//2 47//2
f 46//1 48//1 50//1
f 50//2 48//2 46//2
f 47//1 49//1 51//1
f 51//2 49//2 47//2
f 50//1 48//1 52//1
f 52//2 48//2 50//2
f 51//1 49//1 53//1
f 53//2 49//2 51//2
f 50//1 52//1 54//1
f 54//2 52//2 50//2
f 51//1 53//1 55//1
f 55//2 53//2 51//2
f 54//1 52//1 56//1
f 56//2 52//2 54//2
f 54//1 56//1 57//1
f 57//2 56//2 54//2
f 57//1 56//1 58//1
f 58//2 56//2 57//2
