# SSTK version 0.8.0
# 30
mtllib original-30.mtl
o mesh44/mesh44-geometry#mesh44-geometry
v 0.017056 -0.637472 0.068748
v 0.015562 -0.645113 0.068748
v 0.015562 -0.637472 0.068748
v 0.015611 -0.648320 0.068748
v 0.015611 -0.650385 0.068748
v 0.015495 -0.646050 0.068748
v 0.017056 -0.650385 0.068748
v 0.015293 -0.646882 0.068748
v 0.014957 -0.647608 0.068748
v 0.014789 -0.649389 0.068748
v 0.014487 -0.648229 0.068748
v 0.013901 -0.648726 0.068748
v 0.013807 -0.650142 0.068748
v 0.013216 -0.649081 0.068748
v 0.012645 -0.650589 0.068748
v 0.012434 -0.649294 0.068748
v 0.011553 -0.649365 0.068748
v 0.011286 -0.650738 0.068748
v 0.010261 -0.650666 0.068748
v 0.010095 -0.649161 0.068748
v 0.009549 -0.648907 0.068748
v 0.009371 -0.650450 0.068748
v 0.009124 -0.648551 0.068748
v 0.008805 -0.648074 0.068748
v 0.008618 -0.650092 0.068748
v 0.008577 -0.647457 0.068748
v 0.008395 -0.645805 0.068748
v 0.008000 -0.649589 0.068748
v 0.008395 -0.637472 0.068748
v 0.007519 -0.648944 0.068748
v 0.007175 -0.648158 0.068748
v 0.006969 -0.647229 0.068748
v 0.006900 -0.646158 0.068748
v 0.006900 -0.637472 0.068748
vn 0 0 -1
vn 0 0 1
usemtl material_0_0
f 1//1 2//1 3//1
f 2//1 1//1 4//1
f 3//2 2//2 1//2
f 4//2 1//2 2//2
f 4//1 1//1 5//1
f 5//2 1//2 4//2
f 4//1 6//1 2//1
f 2//2 6//2 4//2
f 5//1 1//1 7//1
f 7//2 1//2 5//2
f 4//1 8//1 6//1
f 6//2 8//2 4//2
f 4//1 9//1 8//1
f 8//2 9//2 4//2
f 10//1 9//1 4//1
f 4//2 9//2 10//2
f 10//1 11//1 9//1
f 9//2 11//2 10//2
f 10//1 12//1 11//1
f 11//2 12//2 10//2
f 13//1 12//1 10//1
f 10//2 12//2 13//2
f 13//1 14//1 12//1
f 12//2 14//2 13//2
f 15//1 14//1 13//1
f 13//2 14//2 15//2
f 15//1 16//1 14//1
f 14//2 16//2 15//2
f 15//1 17//1 16//1
f 16//2 17//2 15//2
f 18//1 17//1 15//1
f 15//2 17//2 18//2
f 19//1 17//1 18//1
f 18//2 17//2 19//2
f 19//1 20//1 17//1
f 17//2 20//2 19//2
f 19//1 21//1 20//1
f 20//2 21//2 19//2
f 22//1 21//1 19//1
f 19//2 21//2 22//2
f 22//1 23//1 21//1
f 21//2 23//2 22//2
f 22//1 24//1 23//1
f 23//2 24//2 22//2
f 25//1 24//1 22//1
f 22//2 24//2 25//2
f 25//1 26//1 24//1
f 24//2 26//2 25//2
f 25//1 27//1 26//1
f 26//2 27//2 25//2
f 28//1 27//1 25//1
f 25//2 27//2 28//2
f 28//1 29//1 27//1
f 27//2 29//2 28//2
f 30//1 29//1 28//1
f 28//2 29//2 30//2
f 31//1 29//1 30//1
f 30//2 29//2 31//2
f 32//1 29//1 31//1
f 31//2 29//2 32//2
f 33//1 29//1 32//1
f 32//2 29//2 33//2
f 29//1 33//1 34//1
f 34//2 33//2 29//2
