# SSTK version 0.8.0
# 63
mtllib original-63.mtl
o mesh52/mesh52-geometry/material_4/component_0#mesh52-geometry
v 0.398045 -0.867745 0.022164
v 0.398045 -0.765670 0.022164
v 0.391195 -0.867745 0.021262
v 0.404894 -0.867745 0.021262
v 0.404894 -0.765670 0.021262
v 0.398045 -0.867745 0.022164
v 0.391195 -0.867745 0.021262
v 0.391195 -0.765670 0.021262
v 0.384813 -0.867745 0.018619
v 0.391195 -0.765670 0.021262
v 0.391195 -0.867745 0.021262
v 0.398045 -0.765670 0.022164
v 0.398045 -0.765670 0.022164
v 0.398045 -0.867745 0.022164
v 0.404894 -0.765670 0.021262
v 0.411277 -0.867745 0.018619
v 0.411277 -0.765670 0.018619
v 0.404894 -0.867745 0.021262
v 0.404894 -0.765670 0.021262
v 0.404894 -0.867745 0.021262
v 0.411277 -0.765670 0.018619
v 0.384813 -0.765670 0.018619
v 0.384813 -0.867745 0.018619
v 0.391195 -0.765670 0.021262
v 0.416757 -0.867745 0.014413
v 0.416757 -0.765670 0.014413
v 0.411277 -0.867745 0.018619
v 0.411277 -0.765670 0.018619
v 0.411277 -0.867745 0.018619
v 0.416757 -0.765670 0.014413
v 0.391195 -0.867745 -0.029862
v 0.391195 -0.765670 -0.029862
v 0.398045 -0.867745 -0.030763
v 0.384813 -0.867745 0.018619
v 0.384813 -0.765670 0.018619
v 0.379332 -0.867745 0.014413
v 0.416757 -0.867745 0.014413
v 0.420963 -0.867745 0.008932
v 0.416757 -0.765670 0.014413
v 0.398045 -0.867745 -0.030763
v 0.398045 -0.765670 -0.030763
v 0.404894 -0.867745 -0.029862
v 0.398045 -0.765670 -0.030763
v 0.398045 -0.867745 -0.030763
v 0.391195 -0.765670 -0.029862
v 0.391195 -0.765670 -0.029862
v 0.391195 -0.867745 -0.029862
v 0.384813 -0.765670 -0.027218
v 0.384813 -0.867745 -0.027218
v 0.384813 -0.765670 -0.027218
v 0.391195 -0.867745 -0.029862
v 0.379332 -0.765670 0.014413
v 0.379332 -0.867745 0.014413
v 0.384813 -0.765670 0.018619
v 0.420963 -0.867745 0.008932
v 0.423607 -0.867745 0.002550
v 0.420963 -0.765670 0.008932
v 0.420963 -0.765670 0.008932
v 0.416757 -0.765670 0.014413
v 0.420963 -0.867745 0.008932
v 0.404894 -0.867745 -0.029862
v 0.404894 -0.765670 -0.029862
v 0.411277 -0.867745 -0.027218
v 0.404894 -0.765670 -0.029862
v 0.404894 -0.867745 -0.029862
v 0.398045 -0.765670 -0.030763
v 0.384813 -0.765670 -0.027218
v 0.384813 -0.867745 -0.027218
v 0.379332 -0.765670 -0.023012
v 0.379332 -0.867745 -0.023012
v 0.379332 -0.765670 -0.023012
v 0.384813 -0.867745 -0.027218
v 0.379332 -0.765670 0.014413
v 0.375126 -0.765670 0.008932
v 0.379332 -0.867745 0.014413
v 0.423607 -0.867745 0.002550
v 0.424509 -0.867745 -0.004300
v 0.423607 -0.765670 0.002550
v 0.423607 -0.765670 0.002550
v 0.420963 -0.765670 0.008932
v 0.423607 -0.867745 0.002550
v 0.411277 -0.867745 -0.027218
v 0.411277 -0.765670 -0.027218
v 0.416757 -0.867745 -0.023012
v 0.411277 -0.765670 -0.027218
v 0.411277 -0.867745 -0.027218
v 0.404894 -0.765670 -0.029862
v 0.379332 -0.867745 -0.023012
v 0.375126 -0.867745 -0.017532
v 0.379332 -0.765670 -0.023012
v 0.375126 -0.867745 0.008932
v 0.379332 -0.867745 0.014413
v 0.375126 -0.765670 0.008932
v 0.424509 -0.867745 -0.004300
v 0.423607 -0.867745 -0.011149
v 0.424509 -0.765670 -0.004300
v 0.424509 -0.765670 -0.004300
v 0.423607 -0.765670 0.002550
v 0.424509 -0.867745 -0.004300
v 0.420963 -0.867745 -0.017532
v 0.416757 -0.867745 -0.023012
v 0.420963 -0.765670 -0.017532
v 0.416757 -0.765670 -0.023012
v 0.416757 -0.867745 -0.023012
v 0.411277 -0.765670 -0.027218
v 0.375126 -0.765670 -0.017532
v 0.379332 -0.765670 -0.023012
v 0.375126 -0.867745 -0.017532
v 0.375126 -0.765670 0.008932
v 0.372483 -0.765670 0.002550
v 0.375126 -0.867745 0.008932
v 0.372483 -0.867745 0.002550
v 0.375126 -0.867745 0.008932
v 0.372483 -0.765670 0.002550
v 0.423607 -0.867745 -0.011149
v 0.420963 -0.867745 -0.017532
v 0.423607 -0.765670 -0.011149
v 0.423607 -0.765670 -0.011149
v 0.424509 -0.765670 -0.004300
v 0.423607 -0.867745 -0.011149
v 0.416757 -0.765670 -0.023012
v 0.420963 -0.765670 -0.017532
v 0.416757 -0.867745 -0.023012
v 0.420963 -0.765670 -0.017532
v 0.423607 -0.765670 -0.011149
v 0.420963 -0.867745 -0.017532
v 0.375126 -0.867745 -0.017532
v 0.372483 -0.867745 -0.011149
v 0.375126 -0.765670 -0.017532
v 0.371581 -0.867745 -0.004300
v 0.372483 -0.867745 0.002550
v 0.371581 -0.765670 -0.004300
v 0.372483 -0.765670 0.002550
v 0.371581 -0.765670 -0.004300
v 0.372483 -0.867745 0.002550
v 0.372483 -0.765670 -0.011149
v 0.375126 -0.765670 -0.017532
v 0.372483 -0.867745 -0.011149
v 0.372483 -0.867745 -0.011149
v 0.371581 -0.867745 -0.004300
v 0.372483 -0.765670 -0.011149
v 0.371581 -0.765670 -0.004300
v 0.372483 -0.765670 -0.011149
v 0.371581 -0.867745 -0.004300
v 0.391195 -0.867745 0.021262
v 0.398045 -0.765670 0.022164
v 0.398045 -0.867745 0.022164
v 0.398045 -0.867745 0.022164
v 0.404894 -0.765670 0.021262
v 0.404894 -0.867745 0.021262
v 0.384813 -0.867745 0.018619
v 0.391195 -0.765670 0.021262
v 0.391195 -0.867745 0.021262
v 0.398045 -0.765670 0.022164
v 0.391195 -0.867745 0.021262
v 0.391195 -0.765670 0.021262
v 0.404894 -0.765670 0.021262
v 0.398045 -0.867745 0.022164
v 0.398045 -0.765670 0.022164
v 0.404894 -0.867745 0.021262
v 0.411277 -0.765670 0.018619
v 0.411277 -0.867745 0.018619
v 0.411277 -0.765670 0.018619
v 0.404894 -0.867745 0.021262
v 0.404894 -0.765670 0.021262
v 0.391195 -0.765670 0.021262
v 0.384813 -0.867745 0.018619
v 0.384813 -0.765670 0.018619
v 0.411277 -0.867745 0.018619
v 0.416757 -0.765670 0.014413
v 0.416757 -0.867745 0.014413
v 0.416757 -0.765670 0.014413
v 0.411277 -0.867745 0.018619
v 0.411277 -0.765670 0.018619
v 0.398045 -0.867745 -0.030763
v 0.391195 -0.765670 -0.029862
v 0.391195 -0.867745 -0.029862
v 0.379332 -0.867745 0.014413
v 0.384813 -0.765670 0.018619
v 0.384813 -0.867745 0.018619
v 0.416757 -0.765670 0.014413
v 0.420963 -0.867745 0.008932
v 0.416757 -0.867745 0.014413
v 0.404894 -0.867745 -0.029862
v 0.398045 -0.765670 -0.030763
v 0.398045 -0.867745 -0.030763
v 0.391195 -0.765670 -0.029862
v 0.398045 -0.867745 -0.030763
v 0.398045 -0.765670 -0.030763
v 0.384813 -0.765670 -0.027218
v 0.391195 -0.867745 -0.029862
v 0.391195 -0.765670 -0.029862
v 0.391195 -0.867745 -0.029862
v 0.384813 -0.765670 -0.027218
v 0.384813 -0.867745 -0.027218
v 0.384813 -0.765670 0.018619
v 0.379332 -0.867745 0.014413
v 0.379332 -0.765670 0.014413
v 0.420963 -0.765670 0.008932
v 0.423607 -0.867745 0.002550
v 0.420963 -0.867745 0.008932
v 0.420963 -0.867745 0.008932
v 0.416757 -0.765670 0.014413
v 0.420963 -0.765670 0.008932
v 0.411277 -0.867745 -0.027218
v 0.404894 -0.765670 -0.029862
v 0.404894 -0.867745 -0.029862
v 0.398045 -0.765670 -0.030763
v 0.404894 -0.867745 -0.029862
v 0.404894 -0.765670 -0.029862
v 0.379332 -0.765670 -0.023012
v 0.384813 -0.867745 -0.027218
v 0.384813 -0.765670 -0.027218
v 0.384813 -0.867745 -0.027218
v 0.379332 -0.765670 -0.023012
v 0.379332 -0.867745 -0.023012
v 0.379332 -0.867745 0.014413
v 0.375126 -0.765670 0.008932
v 0.379332 -0.765670 0.014413
v 0.423607 -0.765670 0.002550
v 0.424509 -0.867745 -0.004300
v 0.423607 -0.867745 0.002550
v 0.423607 -0.867745 0.002550
v 0.420963 -0.765670 0.008932
v 0.423607 -0.765670 0.002550
v 0.416757 -0.867745 -0.023012
v 0.411277 -0.765670 -0.027218
v 0.411277 -0.867745 -0.027218
v 0.404894 -0.765670 -0.029862
v 0.411277 -0.867745 -0.027218
v 0.411277 -0.765670 -0.027218
v 0.379332 -0.765670 -0.023012
v 0.375126 -0.867745 -0.017532
v 0.379332 -0.867745 -0.023012
v 0.375126 -0.765670 0.008932
v 0.379332 -0.867745 0.014413
v 0.375126 -0.867745 0.008932
v 0.424509 -0.765670 -0.004300
v 0.423607 -0.867745 -0.011149
v 0.424509 -0.867745 -0.004300
v 0.424509 -0.867745 -0.004300
v 0.423607 -0.765670 0.002550
v 0.424509 -0.765670 -0.004300
v 0.420963 -0.765670 -0.017532
v 0.416757 -0.867745 -0.023012
v 0.420963 -0.867745 -0.017532
v 0.411277 -0.765670 -0.027218
v 0.416757 -0.867745 -0.023012
v 0.416757 -0.765670 -0.023012
v 0.375126 -0.867745 -0.017532
v 0.379332 -0.765670 -0.023012
v 0.375126 -0.765670 -0.017532
v 0.375126 -0.867745 0.008932
v 0.372483 -0.765670 0.002550
v 0.375126 -0.765670 0.008932
v 0.372483 -0.765670 0.002550
v 0.375126 -0.867745 0.008932
v 0.372483 -0.867745 0.002550
v 0.423607 -0.765670 -0.011149
v 0.420963 -0.867745 -0.017532
v 0.423607 -0.867745 -0.011149
v 0.423607 -0.867745 -0.011149
v 0.424509 -0.765670 -0.004300
v 0.423607 -0.765670 -0.011149
v 0.416757 -0.867745 -0.023012
v 0.420963 -0.765670 -0.017532
v 0.416757 -0.765670 -0.023012
v 0.420963 -0.867745 -0.017532
v 0.423607 -0.765670 -0.011149
v 0.420963 -0.765670 -0.017532
v 0.375126 -0.765670 -0.017532
v 0.372483 -0.867745 -0.011149
v 0.375126 -0.867745 -0.017532
v 0.371581 -0.765670 -0.004300
v 0.372483 -0.867745 0.002550
v 0.371581 -0.867745 -0.004300
v 0.372483 -0.867745 0.002550
v 0.371581 -0.765670 -0.004300
v 0.372483 -0.765670 0.002550
v 0.372483 -0.867745 -0.011149
v 0.375126 -0.765670 -0.017532
v 0.372483 -0.765670 -0.011149
v 0.372483 -0.765670 -0.011149
v 0.371581 -0.867745 -0.004300
v 0.372483 -0.867745 -0.011149
v 0.371581 -0.867745 -0.004300
v 0.372483 -0.765670 -0.011149
v 0.371581 -0.765670 -0.004300
vt 0 0
vn 0 0 1
vn -0.25881897461707376 0 0.9659258451755842
vn 0.25881897461707376 0 0.9659258451755842
vn -0.5000001873976233 0 0.8660252955903434
vn 0.5000001873976233 0 0.8660252955903434
vn 0.7071067811865476 0 0.7071067811865476
vn -0.25881897461707376 0 -0.9659258451755842
vn 0 0 -1
vn -0.7071067811865476 0 0.7071067811865476
vn 0.8660252955903434 0 0.5000001873976233
vn 0.25881897461707376 0 -0.9659258451755842
vn -0.5000001873976233 0 -0.8660252955903434
vn 0.9659258451755842 0 0.25881897461707376
vn 0.5000001873976233 0 -0.8660252955903434
vn -0.7071067811865476 0 -0.7071067811865476
vn -0.8660252955903434 0 0.5000001873976233
vn 1 0 0
vn 0.7071067811865476 0 -0.7071067811865476
vn -0.8660252955903434 0 -0.5000001873976233
vn 0.9659258451755842 0 -0.25881897461707376
vn 0.8660252955903434 0 -0.5000001873976233
vn -0.9659258451755842 0 0.25881897461707376
vn -0.9659258451755842 0 -0.25881897461707376
vn -1 0 0
usemtl material_0_0
f 1/1/1 2/1/1 3/1/2
f 4/1/3 5/1/3 6/1/1
f 7/1/2 8/1/2 9/1/4
f 10/1/2 11/1/2 12/1/1
f 13/1/1 14/1/1 15/1/3
f 16/1/5 17/1/5 18/1/3
f 19/1/3 20/1/3 21/1/5
f 22/1/4 23/1/4 24/1/2
f 25/1/6 26/1/6 27/1/5
f 28/1/5 29/1/5 30/1/6
f 31/1/7 32/1/7 33/1/8
f 34/1/4 35/1/4 36/1/9
f 37/1/6 38/1/10 39/1/6
f 40/1/8 41/1/8 42/1/11
f 43/1/8 44/1/8 45/1/7
f 46/1/7 47/1/7 48/1/12
f 49/1/12 50/1/12 51/1/7
f 52/1/9 53/1/9 54/1/4
f 55/1/10 56/1/13 57/1/10
f 58/1/10 59/1/6 60/1/10
f 61/1/11 62/1/11 63/1/14
f 64/1/11 65/1/11 66/1/8
f 67/1/12 68/1/12 69/1/15
f 70/1/15 71/1/15 72/1/12
f 73/1/9 74/1/16 75/1/9
f 76/1/13 77/1/17 78/1/13
f 79/1/13 80/1/10 81/1/13
f 82/1/14 83/1/14 84/1/18
f 85/1/14 86/1/14 87/1/11
f 88/1/15 89/1/19 90/1/15
f 91/1/16 92/1/9 93/1/16
f 94/1/17 95/1/20 96/1/17
f 97/1/17 98/1/13 99/1/17
f 100/1/21 101/1/18 102/1/21
f 103/1/18 104/1/18 105/1/14
f 106/1/19 107/1/15 108/1/19
f 109/1/16 110/1/22 111/1/16
f 112/1/22 113/1/16 114/1/22
f 115/1/20 116/1/21 117/1/20
f 118/1/20 119/1/17 120/1/20
f 121/1/18 122/1/21 123/1/18
f 124/1/21 125/1/20 126/1/21
f 127/1/19 128/1/23 129/1/19
f 130/1/24 131/1/22 132/1/24
f 133/1/22 134/1/24 135/1/22
f 136/1/23 137/1/19 138/1/23
f 139/1/23 140/1/24 141/1/23
f 142/1/24 143/1/23 144/1/24
usemtl material_1_0
f 145/1/11 146/1/8 147/1/8
f 148/1/8 149/1/7 150/1/7
f 151/1/14 152/1/11 153/1/11
f 154/1/8 155/1/11 156/1/11
f 157/1/7 158/1/8 159/1/8
f 160/1/7 161/1/12 162/1/12
f 163/1/12 164/1/7 165/1/7
f 166/1/11 167/1/14 168/1/14
f 169/1/12 170/1/15 171/1/15
f 172/1/15 173/1/12 174/1/12
f 175/1/1 176/1/3 177/1/3
f 178/1/18 179/1/14 180/1/14
f 181/1/15 182/1/19 183/1/15
f 184/1/2 185/1/1 186/1/1
f 187/1/3 188/1/1 189/1/1
f 190/1/5 191/1/3 192/1/3
f 193/1/3 194/1/5 195/1/5
f 196/1/14 197/1/18 198/1/18
f 199/1/19 200/1/23 201/1/19
f 202/1/19 203/1/15 204/1/19
f 205/1/4 206/1/2 207/1/2
f 208/1/1 209/1/2 210/1/2
f 211/1/6 212/1/5 213/1/5
f 214/1/5 215/1/6 216/1/6
f 217/1/18 218/1/21 219/1/18
f 220/1/23 221/1/24 222/1/23
f 223/1/23 224/1/19 225/1/23
f 226/1/9 227/1/4 228/1/4
f 229/1/2 230/1/4 231/1/4
f 232/1/6 233/1/10 234/1/6
f 235/1/21 236/1/18 237/1/21
f 238/1/24 239/1/22 240/1/24
f 241/1/24 242/1/23 243/1/24
f 244/1/16 245/1/9 246/1/16
f 247/1/4 248/1/9 249/1/9
f 250/1/10 251/1/6 252/1/10
f 253/1/21 254/1/20 255/1/21
f 256/1/20 257/1/21 258/1/20
f 259/1/22 260/1/16 261/1/22
f 262/1/22 263/1/24 264/1/22
f 265/1/9 266/1/16 267/1/9
f 268/1/16 269/1/22 270/1/16
f 271/1/10 272/1/13 273/1/10
f 274/1/17 275/1/20 276/1/17
f 277/1/20 278/1/17 279/1/20
f 280/1/13 281/1/10 282/1/13
f 283/1/13 284/1/17 285/1/13
f 286/1/17 287/1/13 288/1/17
