# SSTK version 0.8.0
# 6
mtllib original-6.mtl
o mesh25/mesh25-geometry#mesh25-geometry
v 0.004107 -0.404685 0.068748
v 0.002612 -0.411901 0.068748
v 0.002612 -0.404685 0.068748
v 0.002663 -0.414904 0.068748
v 0.002734 -0.416141 0.068748
v 0.002448 -0.413816 0.068748
v 0.004107 -0.422580 0.068748
v 0.002092 -0.412878 0.068748
v 0.002663 -0.417383 0.068748
v 0.001812 -0.410784 0.068748
v 0.002612 -0.422580 0.068748
v 0.001592 -0.412089 0.068748
v 0.002612 -0.420393 0.068748
v 0.000961 -0.411465 0.068748
v 0.002450 -0.418472 0.068748
v 0.000796 -0.409982 0.068748
v 0.002095 -0.419408 0.068748
v 0.000210 -0.411019 0.068748
v 0.001770 -0.421500 0.068748
v -0.000426 -0.409499 0.068748
v 0.001598 -0.420192 0.068748
v -0.000661 -0.410751 0.068748
v 0.000969 -0.420812 0.068748
v -0.001652 -0.410662 0.068748
v 0.000723 -0.422294 0.068748
v -0.001846 -0.409338 0.068748
v 0.000218 -0.421254 0.068748
v -0.002636 -0.410751 0.068748
v -0.000517 -0.422772 0.068748
v -0.003101 -0.409452 0.068748
v -0.000656 -0.421519 0.068748
v -0.003501 -0.411016 0.068748
v -0.001652 -0.421608 0.068748
v -0.004219 -0.409795 0.068748
v -0.001943 -0.422932 0.068748
v -0.004246 -0.411458 0.068748
v -0.002622 -0.421518 0.068748
v -0.004871 -0.412077 0.068748
v -0.003181 -0.422818 0.068748
v -0.005200 -0.410366 0.068748
v -0.003478 -0.421249 0.068748
v -0.005365 -0.412862 0.068748
v -0.004222 -0.420801 0.068748
v -0.005718 -0.413801 0.068748
v -0.004282 -0.422476 0.068748
v -0.005930 -0.414894 0.068748
v -0.004853 -0.420174 0.068748
v -0.006043 -0.411166 0.068748
v -0.005246 -0.421907 0.068748
v -0.006001 -0.416141 0.068748
v -0.005355 -0.419385 0.068748
v -0.006074 -0.421110 0.068748
v -0.005714 -0.418449 0.068748
v -0.006721 -0.412163 0.068748
v -0.005929 -0.417368 0.068748
v -0.006738 -0.420116 0.068748
v -0.007205 -0.413324 0.068748
v -0.007212 -0.418956 0.068748
v -0.007495 -0.414650 0.068748
v -0.007497 -0.417631 0.068748
v -0.007592 -0.416141 0.068748
vn 0 0 -1
vn 0 0 1
usemtl material_0_0
f 1//1 2//1 3//1
f 2//1 1//1 4//1
f 3//2 2//2 1//2
f 4//2 1//2 2//2
f 4//1 1//1 5//1
f 5//2 1//2 4//2
f 6//1 2//1 4//1
f 4//2 2//2 6//2
f 7//1 5//1 1//1
f 1//2 5//2 7//2
f 8//1 2//1 6//1
f 6//2 2//2 8//2
f 7//1 9//1 5//1
f 5//2 9//2 7//2
f 8//1 10//1 2//1
f 2//2 10//2 8//2
f 11//1 9//1 7//1
f 7//2 9//2 11//2
f 12//1 10//1 8//1
f 8//2 10//2 12//2
f 13//1 9//1 11//1
f 11//2 9//2 13//2
f 14//1 10//1 12//1
f 12//2 10//2 14//2
f 13//1 15//1 9//1
f 9//2 15//2 13//2
f 14//1 16//1 10//1
f 10//2 16//2 14//2
f 13//1 17//1 15//1
f 15//2 17//2 13//2
f 18//1 16//1 14//1
f 14//2 16//2 18//2
f 19//1 17//1 13//1
f 13//2 17//2 19//2
f 18//1 20//1 16//1
f 16//2 20//2 18//2
f 19//1 21//1 17//1
f 17//2 21//2 19//2
f 22//1 20//1 18//1
f 18//2 20//2 22//2
f 19//1 23//1 21//1
f 21//2 23//2 19//2
f 24//1 20//1 22//1
f 22//2 20//2 24//2
f 25//1 23//1 19//1
f 19//2 23//2 25//2
f 24//1 26//1 20//1
f 20//2 26//2 24//2
f 25//1 27//1 23//1
f 23//2 27//2 25//2
f 28//1 26//1 24//1
f 24//2 26//2 28//2
f 29//1 27//1 25//1
f 25//2 27//2 29//2
f 28//1 30//1 26//1
f 26//2 30//2 28//2
f 29//1 31//1 27//1
f 27//2 31//2 29//2
f 32//1 30//1 28//1
f 28//2 30//2 32//2
f 29//1 33//1 31//1
f 31//2 33//2 29//2
f 32//1 34//1 30//1
f 30//2 34//2 32//2
f 35//1 33//1 29//1
f 29//2 33//2 35//2
f 36//1 34//1 32//1
f 32//2 34//2 36//2
f 35//1 37//1 33//1
f 33//2 37//2 35//2
f 38//1 34//1 36//1
f 36//2 34//2 38//2
f 39//1 37//1 35//1
f 35//2 37//2 39//2
f 38//1 40//1 34//1
f 34//2 40//2 38//2
f 39//1 41//1 37//1
f 37//2 41//2 39//2
f 42//1 40//1 38//1
f 38//2 40//2 42//2
f 39//1 43//1 41//1
f 41//2 43//2 39//2
f 44//1 40//1 42//1
f 42//2 40//2 44//2
f 45//1 43//1 39//1
f 39//2 43//2 45//2
f 46//1 40//1 44//1
f 44//2 40//2 46//2
f 45//1 47//1 43//1
f 43//2 47//2 45//2
f 46//1 48//1 40//1
f 40//2 48//2 46//2
f 49//1 47//1 45//1
f 45//2 47//2 49//2
f 48//1 46//1 50//1
f 50//2 46//2 48//2
f 49//1 51//1 47//1
f 47//2 51//2 49//2
f 52//1 48//1 50//1
f 50//2 48//2 52//2
f 49//1 53//1 51//1
f 51//2 53//2 49//2
f 52//1 54//1 48//1
f 48//2 54//2 52//2
f 52//1 50//1 55//1
f 55//2 50//2 52//2
f 49//1 55//1 53//1
f 53//2 55//2 49//2
f 56//1 54//1 52//1
f 52//2 54//2 56//2
f 52//1 55//1 49//1
f 49//2 55//2 52//2
f 56//1 57//1 54//1
f 54//2 57//2 56//2
f 58//1 57//1 56//1
f 56//2 57//2 58//2
f 58//1 59//1 57//1
f 57//2 59//2 58//2
f 60//1 59//1 58//1
f 58//2 59//2 60//2
f 59//1 60//1 61//1
f 61//2 60//2 59//2
