# SSTK version 0.8.0
# 48
mtllib original-48.mtl
o mesh52/mesh52-geometry/material_1/component_2#mesh52-geometry
v -0.364878 -0.506461 0.068653
v -0.364878 -0.319324 0.066763
v -0.364878 -0.319324 0.068653
v -0.364878 -0.319324 0.068653
v -0.364878 -0.319324 0.066763
v -0.364878 -0.506461 0.068653
v -0.294937 -0.506461 0.066763
v -0.364878 -0.506461 0.068653
v -0.294937 -0.506461 0.068653
v -0.294937 -0.506461 0.068653
v -0.364878 -0.506461 0.068653
v -0.294937 -0.506461 0.066763
v -0.364878 -0.319324 0.066763
v -0.364878 -0.506461 0.068653
v -0.364878 -0.506461 0.066763
v -0.364878 -0.506461 0.066763
v -0.364878 -0.506461 0.068653
v -0.364878 -0.319324 0.066763
v -0.364878 -0.319324 0.066763
v -0.294937 -0.319324 0.068653
v -0.364878 -0.319324 0.068653
v -0.364878 -0.319324 0.068653
v -0.294937 -0.319324 0.068653
v -0.364878 -0.319324 0.066763
v -0.364878 -0.506461 0.068653
v -0.294937 -0.506461 0.066763
v -0.364878 -0.506461 0.066763
v -0.364878 -0.506461 0.066763
v -0.294937 -0.506461 0.066763
v -0.364878 -0.506461 0.068653
v -0.294937 -0.319324 0.068653
v -0.294937 -0.506461 0.066763
v -0.294937 -0.506461 0.068653
v -0.294937 -0.506461 0.068653
v -0.294937 -0.506461 0.066763
v -0.294937 -0.319324 0.068653
v -0.294937 -0.319324 0.068653
v -0.364878 -0.319324 0.066763
v -0.294937 -0.319324 0.066763
v -0.294937 -0.319324 0.066763
v -0.364878 -0.319324 0.066763
v -0.294937 -0.319324 0.068653
v -0.294937 -0.506461 0.066763
v -0.294937 -0.319324 0.068653
v -0.294937 -0.319324 0.066763
v -0.294937 -0.319324 0.066763
v -0.294937 -0.319324 0.068653
v -0.294937 -0.506461 0.066763
vt 0 0
vn 1 0 0
vn -1 0 0
vn 0 1 0
vn 0 -1 0
usemtl material_0_0
f 1/1/1 2/1/1 3/1/1
f 4/1/2 5/1/2 6/1/2
f 7/1/3 8/1/3 9/1/3
f 10/1/4 11/1/4 12/1/4
f 13/1/1 14/1/1 15/1/1
f 16/1/2 17/1/2 18/1/2
f 19/1/4 20/1/4 21/1/4
f 22/1/3 23/1/3 24/1/3
f 25/1/3 26/1/3 27/1/3
f 28/1/4 29/1/4 30/1/4
f 31/1/2 32/1/2 33/1/2
f 34/1/1 35/1/1 36/1/1
f 37/1/4 38/1/4 39/1/4
f 40/1/3 41/1/3 42/1/3
f 43/1/2 44/1/2 45/1/2
f 46/1/1 47/1/1 48/1/1
