# SSTK version 0.8.0
# 11
mtllib original-11.mtl
o mesh29/mesh29-geometry#mesh29-geometry
v 0.186931 -0.411951 0.074419
v 0.186998 -0.414303 0.074419
v 0.186931 -0.415231 0.074419
v 0.187736 -0.410937 0.074419
v 0.186931 -0.422848 0.074419
v 0.187200 -0.413474 0.074419
v 0.186931 -0.404954 0.074419
v 0.187535 -0.412745 0.074419
v 0.185412 -0.422848 0.074419
v 0.188006 -0.412115 0.074419
v 0.185412 -0.404954 0.074419
v 0.188717 -0.410202 0.074419
v 0.188589 -0.411608 0.074419
v 0.189265 -0.411245 0.074419
v 0.189868 -0.409755 0.074419
v 0.190032 -0.411028 0.074419
v 0.191183 -0.409607 0.074419
v 0.190891 -0.410955 0.074419
v 0.192394 -0.411160 0.074419
v 0.192404 -0.409728 0.074419
v 0.192943 -0.411416 0.074419
v 0.193491 -0.410092 0.074419
v 0.193357 -0.411775 0.074419
v 0.193660 -0.412285 0.074419
v 0.194390 -0.410670 0.074419
v 0.193877 -0.412994 0.074419
v 0.194050 -0.415013 0.074419
v 0.194050 -0.422848 0.074419
v 0.195568 -0.422848 0.074419
v 0.195046 -0.411429 0.074419
v 0.195447 -0.412559 0.074419
v 0.195568 -0.414988 0.074419
vn 0 0 -1
vn 0 0 1
usemtl material_0_0
f 1//1 2//1 3//1
f 2//1 1//1 4//1
f 3//2 2//2 1//2
f 4//2 1//2 2//2
f 5//1 1//1 3//1
f 3//2 1//2 5//2
f 2//1 4//1 6//1
f 6//2 4//2 2//2
f 5//1 7//1 1//1
f 1//2 7//2 5//2
f 6//1 4//1 8//1
f 8//2 4//2 6//2
f 9//1 7//1 5//1
f 5//2 7//2 9//2
f 8//1 4//1 10//1
f 10//2 4//2 8//2
f 7//1 9//1 11//1
f 11//2 9//2 7//2
f 10//1 4//1 12//1
f 12//2 4//2 10//2
f 10//1 12//1 13//1
f 13//2 12//2 10//2
f 13//1 12//1 14//1
f 14//2 12//2 13//2
f 14//1 12//1 15//1
f 15//2 12//2 14//2
f 14//1 15//1 16//1
f 16//2 15//2 14//2
f 16//1 15//1 17//1
f 17//2 15//2 16//2
f 16//1 17//1 18//1
f 18//2 17//2 16//2
f 18//1 17//1 19//1
f 19//2 17//2 18//2
f 19//1 17//1 20//1
f 20//2 17//2 19//2
f 19//1 20//1 21//1
f 21//2 20//2 19//2
f 21//1 20//1 22//1
f 22//2 20//2 21//2
f 21//1 22//1 23//1
f 23//2 22//2 21//2
f 23//1 22//1 24//1
f 24//2 22//2 23//2
f 24//1 22//1 25//1
f 25//2 22//2 24//2
f 24//1 25//1 26//1
f 26//2 25//2 24//2
f 26//1 25//1 27//1
f 27//2 25//2 26//2
f 27//1 25//1 28//1
f 28//2 25//2 27//2
f 28//1 25//1 29//1
f 29//2 25//2 28//2
f 29//1 25//1 30//1
f 30//2 25//2 29//2
f 29//1 30//1 31//1
f 31//2 30//2 29//2
f 29//1 31//1 32//1
f 32//2 31//2 29//2
