# SSTK version 0.8.0
# 10
mtllib original-10.mtl
o mesh28/mesh28-geometry#mesh28-geometry
v 0.170482 -0.414924 0.074419
v 0.170480 -0.417905 0.074419
v 0.170385 -0.416410 0.074419
v 0.170767 -0.419233 0.074419
v 0.170772 -0.413600 0.074419
v 0.171246 -0.420392 0.074419
v 0.171256 -0.412439 0.074419
v 0.171915 -0.421384 0.074419
v 0.171934 -0.411441 0.074419
v 0.171976 -0.416410 0.074419
v 0.172047 -0.415167 0.074419
v 0.172049 -0.417623 0.074419
v 0.172775 -0.410638 0.074419
v 0.172751 -0.422179 0.074419
v 0.172259 -0.414077 0.074419
v 0.172266 -0.418698 0.074419
v 0.172612 -0.413139 0.074419
v 0.172629 -0.419636 0.074419
v 0.173106 -0.412352 0.074419
v 0.173136 -0.420437 0.074419
v 0.173751 -0.410065 0.074419
v 0.173729 -0.422746 0.074419
v 0.173731 -0.411730 0.074419
v 0.173771 -0.421077 0.074419
v 0.174476 -0.411286 0.074419
v 0.174847 -0.423087 0.074419
v 0.174862 -0.409721 0.074419
v 0.174514 -0.421535 0.074419
v 0.175340 -0.411020 0.074419
v 0.175365 -0.421809 0.074419
v 0.176107 -0.409607 0.074419
v 0.176107 -0.423200 0.074419
v 0.176325 -0.410931 0.074419
v 0.176325 -0.421901 0.074419
v 0.177507 -0.409768 0.074419
v 0.177490 -0.423041 0.074419
v 0.177311 -0.411020 0.074419
v 0.177306 -0.421810 0.074419
v 0.178179 -0.411289 0.074419
v 0.178172 -0.421539 0.074419
v 0.178718 -0.410250 0.074419
v 0.178700 -0.422563 0.074419
v 0.178930 -0.411737 0.074419
v 0.178922 -0.421087 0.074419
v 0.179745 -0.411052 0.074419
v 0.179740 -0.421762 0.074419
v 0.179563 -0.412364 0.074419
v 0.179557 -0.420455 0.074419
v 0.180065 -0.413155 0.074419
v 0.180062 -0.419660 0.074419
v 0.180589 -0.412170 0.074419
v 0.180614 -0.420637 0.074419
v 0.180424 -0.414092 0.074419
v 0.180422 -0.418721 0.074419
v 0.180639 -0.415177 0.074419
v 0.180639 -0.417637 0.074419
v 0.182084 -0.409935 0.074419
v 0.180614 -0.422229 0.074419
v 0.180589 -0.409935 0.074419
v 0.180711 -0.416410 0.074419
v 0.181212 -0.425795 0.074419
v 0.180540 -0.423295 0.074419
v 0.181696 -0.424771 0.074419
v 0.180535 -0.426638 0.074419
v 0.181987 -0.423566 0.074419
v 0.180321 -0.424221 0.074419
v 0.182084 -0.422180 0.074419
v 0.179954 -0.425008 0.074419
v 0.179668 -0.427298 0.074419
v 0.179441 -0.425654 0.074419
v 0.178783 -0.426159 0.074419
v 0.178617 -0.427768 0.074419
v 0.177979 -0.426520 0.074419
v 0.177381 -0.428051 0.074419
v 0.177030 -0.426736 0.074419
v 0.175961 -0.428145 0.074419
v 0.175937 -0.426809 0.074419
v 0.174483 -0.426651 0.074419
v 0.173918 -0.427891 0.074419
v 0.173379 -0.426177 0.074419
v 0.173060 -0.427574 0.074419
v 0.172649 -0.425408 0.074419
v 0.172316 -0.424367 0.074419
v 0.172310 -0.427130 0.074419
v 0.171693 -0.426577 0.074419
v 0.171234 -0.425932 0.074419
v 0.170931 -0.425195 0.074419
v 0.170786 -0.424367 0.074419
vn 0 0 -1
vn 0 0 1
usemtl material_0_0
f 1//1 2//1 3//1
f 2//1 1//1 4//1
f 3//2 2//2 1//2
f 4//2 1//2 2//2
f 4//1 1//1 5//1
f 5//2 1//2 4//2
f 4//1 5//1 6//1
f 6//2 5//2 4//2
f 6//1 5//1 7//1
f 7//2 5//2 6//2
f 6//1 7//1 8//1
f 8//2 7//2 6//2
f 8//1 7//1 9//1
f 9//2 7//2 8//2
f 8//1 9//1 10//1
f 10//2 9//2 8//2
f 9//1 11//1 10//1
f 10//2 11//2 9//2
f 8//1 10//1 12//1
f 12//2 10//2 8//2
f 11//1 9//1 13//1
f 13//2 9//2 11//2
f 8//1 12//1 14//1
f 14//2 12//2 8//2
f 11//1 13//1 15//1
f 15//2 13//2 11//2
f 14//1 12//1 16//1
f 16//2 12//2 14//2
f 15//1 13//1 17//1
f 17//2 13//2 15//2
f 14//1 16//1 18//1
f 18//2 16//2 14//2
f 17//1 13//1 19//1
f 19//2 13//2 17//2
f 14//1 18//1 20//1
f 20//2 18//2 14//2
f 19//1 13//1 21//1
f 21//2 13//2 19//2
f 14//1 20//1 22//1
f 22//2 20//2 14//2
f 19//1 21//1 23//1
f 23//2 21//2 19//2
f 22//1 20//1 24//1
f 24//2 20//2 22//2
f 23//1 21//1 25//1
f 25//2 21//2 23//2
f 22//1 24//1 26//1
f 26//2 24//2 22//2
f 25//1 21//1 27//1
f 27//2 21//2 25//2
f 26//1 24//1 28//1
f 28//2 24//2 26//2
f 25//1 27//1 29//1
f 29//2 27//2 25//2
f 26//1 28//1 30//1
f 30//2 28//2 26//2
f 29//1 27//1 31//1
f 31//2 27//2 29//2
f 26//1 30//1 32//1
f 32//2 30//2 26//2
f 29//1 31//1 33//1
f 33//2 31//2 29//2
f 32//1 30//1 34//1
f 34//2 30//2 32//2
f 33//1 31//1 35//1
f 35//2 31//2 33//2
f 32//1 34//1 36//1
f 36//2 34//2 32//2
f 33//1 35//1 37//1
f 37//2 35//2 33//2
f 36//1 34//1 38//1
f 38//2 34//2 36//2
f 37//1 35//1 39//1
f 39//2 35//2 37//2
f 36//1 38//1 40//1
f 40//2 38//2 36//2
f 39//1 35//1 41//1
f 41//2 35//2 39//2
f 36//1 40//1 42//1
f 42//2 40//2 36//2
f 39//1 41//1 43//1
f 43//2 41//2 39//2
f 42//1 40//1 44//1
f 44//2 40//2 42//2
f 43//1 41//1 45//1
f 45//2 41//2 43//2
f 42//1 44//1 46//1
f 46//2 44//2 42//2
f 43//1 45//1 47//1
f 47//2 45//2 43//2
f 46//1 44//1 48//1
f 48//2 44//2 46//2
f 47//1 45//1 49//1
f 49//2 45//2 47//2
f 46//1 48//1 50//1
f 50//2 48//2 46//2
f 49//1 45//1 51//1
f 51//2 45//2 49//2
f 46//1 50//1 52//1
f 52//2 50//2 46//2
f 49//1 51//1 53//1
f 53//2 51//2 49//2
f 52//1 50//1 54//1
f 54//2 50//2 52//2
f 53//1 51//1 55//1
f 55//2 51//2 53//2
f 52//1 54//1 56//1
f 56//2 54//2 52//2
f 51//1 57//1 55//1
f 55//2 57//2 51//2
f 52//1 56//1 58//1
f 58//2 56//2 52//2
f 57//1 51//1 59//1
f 59//2 51//2 57//2
f 55//1 57//1 60//1
f 60//2 57//2 55//2
f 61//1 58//1 56//1
f 56//2 58//2 61//2
f 60//1 57//1 61//1
f 61//2 57//2 60//2
f 61//1 62//1 58//1
f 58//2 62//2 61//2
f 61//1 56//1 60//1
f 60//2 56//2 61//2
f 61//1 57//1 63//1
f 63//2 57//2 61//2
f 64//1 62//1 61//1
f 61//2 62//2 64//2
f 63//1 57//1 65//1
f 65//2 57//2 63//2
f 64//1 66//1 62//1
f 62//2 66//2 64//2
f 65//1 57//1 67//1
f 67//2 57//2 65//2
f 64//1 68//1 66//1
f 66//2 68//2 64//2
f 69//1 68//1 64//1
f 64//2 68//2 69//2
f 69//1 70//1 68//1
f 68//2 70//2 69//2
f 69//1 71//1 70//1
f 70//2 71//2 69//2
f 72//1 71//1 69//1
f 69//2 71//2 72//2
f 72//1 73//1 71//1
f 71//2 73//2 72//2
f 74//1 73//1 72//1
f 72//2 73//2 74//2
f 74//1 75//1 73//1
f 73//2 75//2 74//2
f 76//1 75//1 74//1
f 74//2 75//2 76//2
f 76//1 77//1 75//1
f 75//2 77//2 76//2
f 76//1 78//1 77//1
f 77//2 78//2 76//2
f 79//1 78//1 76//1
f 76//2 78//2 79//2
f 79//1 80//1 78//1
f 78//2 80//2 79//2
f 81//1 80//1 79//1
f 79//2 80//2 81//2
f 81//1 82//1 80//1
f 80//2 82//2 81//2
f 81//1 83//1 82//1
f 82//2 83//2 81//2
f 84//1 83//1 81//1
f 81//2 83//2 84//2
f 85//1 83//1 84//1
f 84//2 83//2 85//2
f 86//1 83//1 85//1
f 85//2 83//2 86//2
f 87//1 83//1 86//1
f 86//2 83//2 87//2
f 83//1 87//1 88//1
f 88//2 87//2 83//2
