# SSTK version 0.8.0
# 58
mtllib original-58.mtl
o mesh52/mesh52-geometry/material_1/component_12#mesh52-geometry
v -0.096494 -0.182432 0.074324
v -0.119177 -0.169336 0.076214
v -0.096494 -0.182432 0.076214
v -0.096494 -0.182432 0.076214
v -0.119177 -0.169336 0.076214
v -0.096494 -0.182432 0.074324
v -0.119177 -0.169336 0.074324
v -0.096494 -0.156239 0.076214
v -0.119177 -0.169336 0.076214
v -0.119177 -0.169336 0.076214
v -0.096494 -0.156239 0.076214
v -0.119177 -0.169336 0.074324
v -0.119177 -0.169336 0.076214
v -0.096494 -0.182432 0.074324
v -0.119177 -0.169336 0.074324
v -0.119177 -0.169336 0.074324
v -0.096494 -0.182432 0.074324
v -0.119177 -0.169336 0.076214
v -0.096494 -0.156239 0.076214
v -0.096494 -0.182432 0.074324
v -0.096494 -0.182432 0.076214
v -0.096494 -0.182432 0.076214
v -0.096494 -0.182432 0.074324
v -0.096494 -0.156239 0.076214
v -0.096494 -0.156239 0.076214
v -0.119177 -0.169336 0.074324
v -0.096494 -0.156239 0.074324
v -0.096494 -0.156239 0.074324
v -0.119177 -0.169336 0.074324
v -0.096494 -0.156239 0.076214
v -0.096494 -0.182432 0.074324
v -0.096494 -0.156239 0.076214
v -0.096494 -0.156239 0.074324
v -0.096494 -0.156239 0.074324
v -0.096494 -0.156239 0.076214
v -0.096494 -0.182432 0.074324
vt 0 0
vn 0.5000001873976233 0.8660252955903434 0
vn -0.5000001873976233 -0.8660252955903434 0
vn 0.5000001873976233 -0.8660252955903434 0
vn -0.5000001873976233 0.8660252955903434 0
vn -1 0 0
vn 1 0 0
usemtl material_0_0
f 1/1/1 2/1/1 3/1/1
f 4/1/2 5/1/2 6/1/2
f 7/1/3 8/1/3 9/1/3
f 10/1/4 11/1/4 12/1/4
f 13/1/1 14/1/1 15/1/1
f 16/1/2 17/1/2 18/1/2
f 19/1/5 20/1/5 21/1/5
f 22/1/6 23/1/6 24/1/6
f 25/1/3 26/1/3 27/1/3
f 28/1/4 29/1/4 30/1/4
f 31/1/5 32/1/5 33/1/5
f 34/1/6 35/1/6 36/1/6
