# SSTK version 0.8.0
# 29
mtllib original-29.mtl
o mesh43/mesh43-geometry#mesh43-geometry
v 0.004568 -0.637472 0.068748
v 0.002175 -0.638686 0.068748
v 0.002175 -0.637472 0.068748
v 0.004568 -0.638686 0.068748
v 0.002175 -0.648101 0.068748
v 0.002175 -0.633766 0.068748
v 0.001768 -0.650572 0.068748
v 0.001142 -0.650148 0.068748
v 0.002226 -0.648788 0.068748
v 0.000796 -0.649354 0.068748
v 0.002721 -0.650713 0.068748
v 0.000681 -0.648101 0.068748
v 0.002381 -0.649195 0.068748
v 0.000681 -0.638686 0.068748
v 0.002670 -0.649395 0.068748
v 0.000681 -0.637472 0.068748
v 0.003122 -0.649462 0.068748
v 0.000681 -0.633766 0.068748
v -0.001081 -0.638686 0.068748
v 0.003572 -0.650646 0.068748
v -0.001081 -0.637472 0.068748
v 0.003645 -0.649419 0.068748
v 0.004568 -0.650434 0.068748
v 0.004556 -0.649243 0.068748
vn 0 0 -1
vn 0 0 1
usemtl material_0_0
f 1//1 2//1 3//1
f 2//1 1//1 4//1
f 3//2 2//2 1//2
f 4//2 1//2 2//2
f 5//1 3//1 2//1
f 2//2 3//2 5//2
f 5//1 6//1 3//1
f 3//2 6//2 5//2
f 7//1 6//1 5//1
f 5//2 6//2 7//2
f 8//1 6//1 7//1
f 7//2 6//2 8//2
f 7//1 5//1 9//1
f 9//2 5//2 7//2
f 10//1 6//1 8//1
f 8//2 6//2 10//2
f 7//1 9//1 11//1
f 11//2 9//2 7//2
f 12//1 6//1 10//1
f 10//2 6//2 12//2
f 11//1 9//1 13//1
f 13//2 9//2 11//2
f 14//1 6//1 12//1
f 12//2 6//2 14//2
f 11//1 13//1 15//1
f 15//2 13//2 11//2
f 16//1 6//1 14//1
f 14//2 6//2 16//2
f 11//1 15//1 17//1
f 17//2 15//2 11//2
f 6//1 16//1 18//1
f 18//2 16//2 6//2
f 19//1 16//1 14//1
f 14//2 16//2 19//2
f 11//1 17//1 20//1
f 20//2 17//2 11//2
f 16//1 19//1 21//1
f 21//2 19//2 16//2
f 20//1 17//1 22//1
f 22//2 17//2 20//2
f 20//1 22//1 23//1
f 23//2 22//2 20//2
f 23//1 22//1 24//1
f 24//2 22//2 23//2
