# SSTK version 0.8.0
# 84
mtllib original-84.mtl
o mesh52/mesh52-geometry/material_8/component_3#mesh52-geometry
v -0.362652 -0.504235 0.070544
v -0.362652 -0.321550 0.070544
v -0.297163 -0.504235 0.070544
v -0.297163 -0.321550 0.070544
v -0.297163 -0.504235 0.070544
v -0.362652 -0.321550 0.070544
v -0.297163 -0.504235 0.070544
v -0.362652 -0.321550 0.070544
v -0.362652 -0.504235 0.070544
v -0.362652 -0.321550 0.070544
v -0.297163 -0.504235 0.070544
v -0.297163 -0.321550 0.070544
vt 0 0
vn 0 0 -1
vn 0 0 1
usemtl material_0_0
f 1/1/1 2/1/1 3/1/1
f 4/1/1 5/1/1 6/1/1
usemtl material_1_0
f 7/1/2 8/1/2 9/1/2
f 10/1/2 11/1/2 12/1/2
