# SSTK version 0.8.0
# 90
mtllib original-90.mtl
o mesh52/mesh52-geometry/material_12#mesh52-geometry
v 0.422201 0.011939 0.053531
v -0.395400 0.546105 0.053531
v -0.395400 0.011939 0.053531
v -0.395400 0.546105 0.053531
v 0.422201 0.011939 0.053531
v 0.422201 0.546105 0.053531
v -0.395400 0.011939 0.053531
v 0.422201 0.011939 0.053531
v -0.395400 0.546105 0.053531
v -0.395400 0.011939 0.053531
v -0.395400 0.546105 0.053531
v 0.422201 0.011939 0.053531
v 0.422201 0.546105 0.053531
v -0.395400 0.546105 0.053531
v 0.422201 0.011939 0.053531
v 0.422201 0.546105 0.053531
v 0.422201 0.011939 0.053531
v -0.395400 0.546105 0.053531
vt 0 0
vt 1 0
vt 0 1
vt 1 1
vn 0 0 1
vn 0 0 -1
usemtl material_0_0
f 1/1/1 2/1/1 3/1/1
f 4/1/1 5/1/1 6/1/1
usemtl material_1_2
f 7/1/1 8/2/1 9/3/1
f 9/3/2 8/2/2 7/1/2
f 10/1/2 11/3/2 12/2/2
f 12/2/1 11/3/1 10/1/1
f 13/4/1 14/3/1 15/2/1
f 15/2/2 14/3/2 13/4/2
f 16/4/2 17/2/2 18/3/2
f 18/3/1 17/2/1 16/4/1
