# SSTK version 0.8.0
# 83
mtllib original-83.mtl
o mesh52/mesh52-geometry/material_8/component_2#mesh52-geometry
v -0.135855 -0.108397 0.072278
v 0.153358 -0.108397 0.072278
v -0.132116 -0.112136 0.076214
v 0.149620 -0.112136 0.076214
v -0.132116 -0.112136 0.076214
v 0.153358 -0.108397 0.072278
v -0.132116 -0.112136 0.076214
v -0.132116 -0.229418 0.076214
v -0.135855 -0.108397 0.072278
v 0.153358 -0.233156 0.072278
v 0.149620 -0.229418 0.076214
v 0.153358 -0.108397 0.072278
v -0.135855 -0.233156 0.072278
v -0.135855 -0.108397 0.072278
v -0.132116 -0.229418 0.076214
v 0.149620 -0.112136 0.076214
v 0.003782 -0.124300 0.076214
v -0.132116 -0.112136 0.076214
v 0.149620 -0.112136 0.076214
v 0.153358 -0.108397 0.072278
v 0.149620 -0.229418 0.076214
v -0.132116 -0.112136 0.076214
v -0.119177 -0.169336 0.076214
v -0.132116 -0.229418 0.076214
v 0.153358 -0.233156 0.072278
v -0.135855 -0.233156 0.072278
v 0.149620 -0.229418 0.076214
v -0.132116 -0.229418 0.076214
v 0.149620 -0.229418 0.076214
v -0.135855 -0.233156 0.072278
v -0.096494 -0.156239 0.076214
v -0.132116 -0.112136 0.076214
v 0.003782 -0.124300 0.076214
v 0.016878 -0.146983 0.076214
v 0.003782 -0.124300 0.076214
v 0.149620 -0.112136 0.076214
v 0.149620 -0.229418 0.076214
v 0.016878 -0.146983 0.076214
v 0.149620 -0.112136 0.076214
v -0.096494 -0.182432 0.076214
v -0.132116 -0.229418 0.076214
v -0.119177 -0.169336 0.076214
v -0.119177 -0.169336 0.076214
v -0.132116 -0.112136 0.076214
v -0.096494 -0.156239 0.076214
v 0.149620 -0.229418 0.076214
v -0.132116 -0.229418 0.076214
v -0.096494 -0.182432 0.076214
v -0.009314 -0.146983 0.076214
v -0.096494 -0.156239 0.076214
v 0.003782 -0.124300 0.076214
v 0.016878 -0.146983 0.076214
v 0.149620 -0.229418 0.076214
v -0.009314 -0.146983 0.076214
v -0.096494 -0.156239 0.076214
v 0.149620 -0.229418 0.076214
v -0.096494 -0.182432 0.076214
v -0.009314 -0.146983 0.076214
v 0.149620 -0.229418 0.076214
v -0.096494 -0.156239 0.076214
v -0.132116 -0.112136 0.076214
v 0.153358 -0.108397 0.072278
v -0.135855 -0.108397 0.072278
v 0.153358 -0.108397 0.072278
v -0.132116 -0.112136 0.076214
v 0.149620 -0.112136 0.076214
v -0.135855 -0.108397 0.072278
v -0.132116 -0.229418 0.076214
v -0.132116 -0.112136 0.076214
v 0.153358 -0.108397 0.072278
v 0.149620 -0.229418 0.076214
v 0.153358 -0.233156 0.072278
v -0.132116 -0.229418 0.076214
v -0.135855 -0.108397 0.072278
v -0.135855 -0.233156 0.072278
v -0.132116 -0.112136 0.076214
v 0.003782 -0.124300 0.076214
v 0.149620 -0.112136 0.076214
v 0.149620 -0.229418 0.076214
v 0.153358 -0.108397 0.072278
v 0.149620 -0.112136 0.076214
v -0.132116 -0.229418 0.076214
v -0.119177 -0.169336 0.076214
v -0.132116 -0.112136 0.076214
v 0.149620 -0.229418 0.076214
v -0.135855 -0.233156 0.072278
v 0.153358 -0.233156 0.072278
v -0.135855 -0.233156 0.072278
v 0.149620 -0.229418 0.076214
v -0.132116 -0.229418 0.076214
v 0.003782 -0.124300 0.076214
v -0.132116 -0.112136 0.076214
v -0.096494 -0.156239 0.076214
v 0.149620 -0.112136 0.076214
v 0.003782 -0.124300 0.076214
v 0.016878 -0.146983 0.076214
v 0.149620 -0.112136 0.076214
v 0.016878 -0.146983 0.076214
v 0.149620 -0.229418 0.076214
v -0.119177 -0.169336 0.076214
v -0.132116 -0.229418 0.076214
v -0.096494 -0.182432 0.076214
v -0.096494 -0.156239 0.076214
v -0.132116 -0.112136 0.076214
v -0.119177 -0.169336 0.076214
v -0.096494 -0.182432 0.076214
v -0.132116 -0.229418 0.076214
v 0.149620 -0.229418 0.076214
v 0.003782 -0.124300 0.076214
v -0.096494 -0.156239 0.076214
v -0.009314 -0.146983 0.076214
v -0.009314 -0.146983 0.076214
v 0.149620 -0.229418 0.076214
v 0.016878 -0.146983 0.076214
v -0.096494 -0.182432 0.076214
v 0.149620 -0.229418 0.076214
v -0.096494 -0.156239 0.076214
v -0.096494 -0.156239 0.076214
v 0.149620 -0.229418 0.076214
v -0.009314 -0.146983 0.076214
vt 0 0
vn 0 -0.7251402131224244 -0.6886012426018159
vn 0.7251402131224244 0 -0.6886012426018159
vn -0.7251402131224244 0 -0.6886012426018159
vn 0 0 -1
vn 0 0.7251402131224244 -0.6886012426018159
vn 0 0.7251402131224244 0.6886012426018159
vn -0.7251402131224244 0 0.6886012426018159
vn 0.7251402131224244 0 0.6886012426018159
vn 0 0 1
vn 0 -0.7251402131224244 0.6886012426018159
usemtl material_0_0
f 1/1/1 2/1/1 3/1/1
f 4/1/1 5/1/1 6/1/1
f 7/1/2 8/1/2 9/1/2
f 10/1/3 11/1/3 12/1/3
f 13/1/2 14/1/2 15/1/2
f 16/1/4 17/1/4 18/1/4
f 19/1/3 20/1/3 21/1/3
f 22/1/4 23/1/4 24/1/4
f 25/1/5 26/1/5 27/1/5
f 28/1/5 29/1/5 30/1/5
f 31/1/4 32/1/4 33/1/4
f 34/1/4 35/1/4 36/1/4
f 37/1/4 38/1/4 39/1/4
f 40/1/4 41/1/4 42/1/4
f 43/1/4 44/1/4 45/1/4
f 46/1/4 47/1/4 48/1/4
f 49/1/4 50/1/4 51/1/4
f 52/1/4 53/1/4 54/1/4
f 55/1/4 56/1/4 57/1/4
f 58/1/4 59/1/4 60/1/4
usemtl material_1_0
f 61/1/6 62/1/6 63/1/6
f 64/1/6 65/1/6 66/1/6
f 67/1/7 68/1/7 69/1/7
f 70/1/8 71/1/8 72/1/8
f 73/1/7 74/1/7 75/1/7
f 76/1/9 77/1/9 78/1/9
f 79/1/8 80/1/8 81/1/8
f 82/1/9 83/1/9 84/1/9
f 85/1/10 86/1/10 87/1/10
f 88/1/10 89/1/10 90/1/10
f 91/1/9 92/1/9 93/1/9
f 94/1/9 95/1/9 96/1/9
f 97/1/9 98/1/9 99/1/9
f 100/1/9 101/1/9 102/1/9
f 103/1/9 104/1/9 105/1/9
f 106/1/9 107/1/9 108/1/9
f 109/1/9 110/1/9 111/1/9
f 112/1/9 113/1/9 114/1/9
f 115/1/9 116/1/9 117/1/9
f 118/1/9 119/1/9 120/1/9
