# SSTK version 0.8.0
# 8
mtllib original-8.mtl
o mesh27/mesh27-geometry#mesh27-geometry
v 0.023070 -0.404682 0.068748
v 0.022876 -0.407455 0.068748
v 0.022123 -0.405183 0.068748
v 0.022961 -0.406712 0.068748
v 0.022876 -0.422580 0.068748
v 0.023216 -0.406234 0.068748
v 0.021576 -0.406049 0.068748
v 0.022876 -0.409666 0.068748
v 0.024455 -0.404515 0.068748
v 0.021394 -0.422580 0.068748
v 0.022876 -0.410881 0.068748
v 0.023681 -0.405974 0.068748
v 0.021394 -0.410881 0.068748
v 0.025220 -0.409666 0.068748
v 0.024394 -0.405888 0.068748
v 0.021394 -0.409666 0.068748
v 0.025220 -0.410881 0.068748
v 0.025075 -0.405924 0.068748
v 0.021394 -0.407309 0.068748
v 0.019499 -0.410881 0.068748
v 0.024813 -0.404533 0.068748
v 0.019499 -0.409666 0.068748
v 0.025220 -0.404600 0.068748
v 0.025220 -0.405936 0.068748
vn 0 0 -1
vn 0 0 1
usemtl material_0_0
f 1//1 2//1 3//1
f 2//1 1//1 4//1
f 3//2 2//2 1//2
f 4//2 1//2 2//2
f 5//1 3//1 2//1
f 2//2 3//2 5//2
f 4//1 1//1 6//1
f 6//2 1//2 4//2
f 5//1 7//1 3//1
f 3//2 7//2 5//2
f 5//1 2//1 8//1
f 8//2 2//2 5//2
f 6//1 1//1 9//1
f 9//2 1//2 6//2
f 10//1 7//1 5//1
f 5//2 7//2 10//2
f 5//1 8//1 11//1
f 11//2 8//2 5//2
f 6//1 9//1 12//1
f 12//2 9//2 6//2
f 13//1 7//1 10//1
f 10//2 7//2 13//2
f 14//1 11//1 8//1
f 8//2 11//2 14//2
f 12//1 9//1 15//1
f 15//2 9//2 12//2
f 16//1 7//1 13//1
f 13//2 7//2 16//2
f 11//1 14//1 17//1
f 17//2 14//2 11//2
f 15//1 9//1 18//1
f 18//2 9//2 15//2
f 7//1 16//1 19//1
f 19//2 16//2 7//2
f 20//1 16//1 13//1
f 13//2 16//2 20//2
f 18//1 9//1 21//1
f 21//2 9//2 18//2
f 16//1 20//1 22//1
f 22//2 20//2 16//2
f 18//1 21//1 23//1
f 23//2 21//2 18//2
f 18//1 23//1 24//1
f 24//2 23//2 18//2
