# SSTK version 0.8.0
# 26
mtllib original-26.mtl
o mesh41/mesh41-geometry#mesh41-geometry
v -0.154330 -0.635460 0.068748
v -0.153991 -0.637006 0.068748
v -0.154233 -0.638995 0.068748
v -0.153663 -0.634324 0.068748
v -0.154233 -0.646114 0.068748
v -0.153690 -0.636223 0.068748
v -0.155776 -0.646114 0.068748
v -0.153267 -0.635581 0.068748
v -0.154330 -0.633200 0.068748
v -0.152781 -0.633516 0.068748
v -0.155776 -0.633200 0.068748
v -0.152724 -0.635082 0.068748
v -0.151677 -0.633033 0.068748
v -0.152060 -0.634725 0.068748
v -0.151275 -0.634511 0.068748
v -0.150345 -0.632872 0.068748
v -0.150370 -0.634439 0.068748
v -0.150175 -0.634439 0.068748
v -0.150175 -0.632872 0.068748
vn 0 0 -1
vn 0 0 1
usemtl material_0_0
f 1//1 2//1 3//1
f 2//1 1//1 4//1
f 3//2 2//2 1//2
f 4//2 1//2 2//2
f 5//1 1//1 3//1
f 3//2 1//2 5//2
f 2//1 4//1 6//1
f 6//2 4//2 2//2
f 7//1 1//1 5//1
f 5//2 1//2 7//2
f 6//1 4//1 8//1
f 8//2 4//2 6//2
f 7//1 9//1 1//1
f 1//2 9//2 7//2
f 8//1 4//1 10//1
f 10//2 4//2 8//2
f 9//1 7//1 11//1
f 11//2 7//2 9//2
f 8//1 10//1 12//1
f 12//2 10//2 8//2
f 12//1 10//1 13//1
f 13//2 10//2 12//2
f 12//1 13//1 14//1
f 14//2 13//2 12//2
f 14//1 13//1 15//1
f 15//2 13//2 14//2
f 15//1 13//1 16//1
f 16//2 13//2 15//2
f 15//1 16//1 17//1
f 17//2 16//2 15//2
f 17//1 16//1 18//1
f 18//2 16//2 17//2
f 18//1 16//1 19//1
f 19//2 16//2 18//2
