# SSTK version 0.8.0
# 105
mtllib original-105.mtl
o mesh55/mesh55-geometry/material_0#mesh55-geometry
v 0.105954 -0.182432 0.078105
v 0.128638 -0.169336 0.076214
v 0.105954 -0.182432 0.076214
v 0.128638 -0.169336 0.076214
v 0.105954 -0.182432 0.078105
v 0.128638 -0.169336 0.078105
v 0.105954 -0.182432 0.076214
v 0.128638 -0.169336 0.076214
v 0.105954 -0.182432 0.078105
v 0.128638 -0.169336 0.078105
v 0.105954 -0.182432 0.078105
v 0.128638 -0.169336 0.076214
v 0.105954 -0.156239 0.076214
v 0.105954 -0.182432 0.078105
v 0.105954 -0.182432 0.076214
v 0.105954 -0.182432 0.076214
v 0.105954 -0.182432 0.078105
v 0.105954 -0.156239 0.076214
v 0.128638 -0.169336 0.078105
v 0.105954 -0.156239 0.076214
v 0.128638 -0.169336 0.076214
v 0.128638 -0.169336 0.076214
v 0.105954 -0.156239 0.076214
v 0.128638 -0.169336 0.078105
v 0.105954 -0.182432 0.078105
v 0.105954 -0.156239 0.076214
v 0.105954 -0.156239 0.078105
v 0.105954 -0.156239 0.078105
v 0.105954 -0.156239 0.076214
v 0.105954 -0.182432 0.078105
v 0.105954 -0.156239 0.076214
v 0.128638 -0.169336 0.078105
v 0.105954 -0.156239 0.078105
v 0.105954 -0.156239 0.078105
v 0.128638 -0.169336 0.078105
v 0.105954 -0.156239 0.076214
vn -0.5000001873976233 0.8660252955903434 0
vn 0.5000001873976233 -0.8660252955903434 0
vn 1 0 0
vn -1 0 0
vn -0.5000001873976233 -0.8660252955903434 0
vn 0.5000001873976233 0.8660252955903434 0
usemtl material_0_0
f 1//1 2//1 3//1
f 4//1 5//1 6//1
f 7//2 8//2 9//2
f 10//2 11//2 12//2
f 13//3 14//3 15//3
f 16//4 17//4 18//4
f 19//5 20//5 21//5
f 22//6 23//6 24//6
f 25//3 26//3 27//3
f 28//4 29//4 30//4
f 31//5 32//5 33//5
f 34//6 35//6 36//6
