# SSTK version 0.8.0
# 77
mtllib original-77.mtl
o mesh111/mesh111-geometry#mesh111-geometry
v 0.206777 -0.070975 0.085197
v 0.206777 -0.025933 0.102088
v 0.206777 -0.025933 0.085197
v 0.206777 -0.070975 0.102088
v 0.195516 -0.014672 0.102088
v 0.195516 -0.082235 0.085197
v 0.094172 -0.025933 0.102088
v 0.195516 -0.014672 0.085197
v 0.105432 -0.014672 0.102088
v 0.195516 -0.082235 0.102088
v 0.094172 -0.070975 0.102088
v 0.105432 -0.082235 0.085197
v 0.105432 -0.014672 0.085197
v 0.094172 -0.070975 0.085197
v 0.105432 -0.082235 0.102088
v 0.094172 -0.025933 0.085197
vn -1 0 0
vn -0.7071067811865476 -0.7071067811865478 0
vn -0.7071067811865478 0.7071067811865476 0
vn 0 0 -1
vn 0 -1 0
vn 0 1 0
vn 0.7071067811865478 -0.7071067811865476 0
vn 1 0 0
vn 0.7071067811865476 0.7071067811865478 0
vn 0 0 1
usemtl material_0_0
f 1//1 2//1 3//1
f 2//1 1//1 4//1
f 5//2 3//2 2//2
f 6//3 4//3 1//3
f 7//4 2//4 4//4
f 3//2 5//2 8//2
f 2//4 9//4 5//4
f 4//3 6//3 10//3
f 9//4 2//4 7//4
f 7//4 4//4 11//4
f 9//5 8//5 5//5
f 12//6 10//6 6//6
f 11//4 4//4 10//4
f 7//7 13//7 9//7
f 14//8 7//8 11//8
f 8//5 9//5 13//5
f 10//6 12//6 15//6
f 11//4 10//4 15//4
f 13//7 7//7 16//7
f 7//8 14//8 16//8
f 15//9 14//9 11//9
f 14//9 15//9 12//9
usemtl material_1_0
f 3//8 2//8 1//8
f 4//8 1//8 2//8
f 2//9 3//9 5//9
f 1//7 4//7 6//7
f 4//10 2//10 7//10
f 8//9 5//9 3//9
f 5//10 9//10 2//10
f 10//7 6//7 4//7
f 7//10 2//10 9//10
f 11//10 4//10 7//10
f 5//6 8//6 9//6
f 6//5 10//5 12//5
f 10//10 4//10 11//10
f 9//3 13//3 7//3
f 11//1 7//1 14//1
f 13//6 9//6 8//6
f 15//5 12//5 10//5
f 15//10 10//10 11//10
f 16//3 7//3 13//3
f 16//1 14//1 7//1
f 11//2 14//2 15//2
f 12//2 15//2 14//2
