# SSTK version 0.8.0
# 213
mtllib original-213.mtl
o mesh246/mesh246-geometry/material_0#mesh246-geometry
v -0.211821 0.963133 -0.029356
v 0.209749 0.967840 -0.027408
v 0.208736 0.963133 -0.029356
v 0.208736 0.963133 -0.029356
v 0.209749 0.967840 -0.027408
v -0.211821 0.963133 -0.029356
v 0.209749 0.967840 -0.027408
v -0.211821 0.963133 -0.029356
v -0.212835 0.967840 -0.027408
v -0.211821 0.963133 -0.029356
v 0.208736 0.963133 -0.029356
v 0.181553 0.888577 -0.060165
v -0.212835 0.967840 -0.027408
v -0.211821 0.963133 -0.029356
v 0.209749 0.967840 -0.027408
v 0.181553 0.888577 -0.060165
v 0.208736 0.963133 -0.029356
v -0.211821 0.963133 -0.029356
v -0.211821 0.963133 -0.029356
v 0.181553 0.888577 -0.060165
v -0.184638 0.888577 -0.060165
v -0.184638 0.888577 -0.060165
v 0.181553 0.888577 -0.060165
v -0.211821 0.963133 -0.029356
v 0.191609 0.883859 -0.048769
v -0.184638 0.888577 -0.060165
v 0.181553 0.888577 -0.060165
v 0.181553 0.888577 -0.060165
v -0.184638 0.888577 -0.060165
v 0.191609 0.883859 -0.048769
v -0.184638 0.888577 -0.060165
v 0.191609 0.883859 -0.048769
v -0.194694 0.883859 -0.048769
v -0.194694 0.883859 -0.048769
v 0.191609 0.883859 -0.048769
v -0.184638 0.888577 -0.060165
v 0.203984 0.875515 -0.034739
v -0.201056 0.880031 -0.041551
v 0.197971 0.880031 -0.041551
v 0.209243 0.870358 -0.028388
v -0.212328 0.870358 -0.028388
v 0.212272 0.864615 -0.022577
v 0.209243 0.870358 -0.028388
v -0.207069 0.875515 -0.034739
v 0.203984 0.875515 -0.034739
v 0.209243 0.870358 -0.028388
v 0.203984 0.875515 -0.034739
v 0.208736 0.871135 -0.029356
v 0.208736 0.871135 -0.029356
v 0.203984 0.875515 -0.034739
v 0.209243 0.870358 -0.028388
v 0.212272 0.864615 -0.022577
v -0.212328 0.870358 -0.028388
v 0.209243 0.870358 -0.028388
v 0.197971 0.880031 -0.041551
v -0.201056 0.880031 -0.041551
v 0.203984 0.875515 -0.034739
v 0.203984 0.875515 -0.034739
v -0.207069 0.875515 -0.034739
v 0.209243 0.870358 -0.028388
v 0.197971 0.880031 -0.041551
v -0.194694 0.883859 -0.048769
v 0.191609 0.883859 -0.048769
v 0.191609 0.883859 -0.048769
v -0.194694 0.883859 -0.048769
v 0.197971 0.880031 -0.041551
v -0.194694 0.883859 -0.048769
v 0.197971 0.880031 -0.041551
v -0.201056 0.880031 -0.041551
v -0.201056 0.880031 -0.041551
v 0.197971 0.880031 -0.041551
v -0.194694 0.883859 -0.048769
v -0.201056 0.880031 -0.041551
v 0.203984 0.875515 -0.034739
v -0.207069 0.875515 -0.034739
v -0.207069 0.875515 -0.034739
v 0.203984 0.875515 -0.034739
v -0.201056 0.880031 -0.041551
v -0.211821 0.871135 -0.029356
v 0.209243 0.870358 -0.028388
v -0.212328 0.870358 -0.028388
v -0.212328 0.870358 -0.028388
v 0.209243 0.870358 -0.028388
v -0.211821 0.871135 -0.029356
v -0.207069 0.875515 -0.034739
v -0.211821 0.871135 -0.029356
v 0.209243 0.870358 -0.028388
v -0.215357 0.864615 -0.022577
v -0.218093 0.858332 -0.017341
v 0.212272 0.864615 -0.022577
v 0.215008 0.858332 -0.017341
v 0.212272 0.864615 -0.022577
v -0.218093 0.858332 -0.017341
v -0.212328 0.870358 -0.028388
v 0.212272 0.864615 -0.022577
v -0.215357 0.864615 -0.022577
v -0.215357 0.864615 -0.022577
v 0.212272 0.864615 -0.022577
v -0.212328 0.870358 -0.028388
v 0.209243 0.870358 -0.028388
v -0.211821 0.871135 -0.029356
v -0.207069 0.875515 -0.034739
v -0.220492 0.851575 -0.012736
v 0.215008 0.858332 -0.017341
v 0.217406 0.851575 -0.012736
v 0.217406 0.851575 -0.012736
v 0.215008 0.858332 -0.017341
v -0.220492 0.851575 -0.012736
v 0.212272 0.864615 -0.022577
v -0.218093 0.858332 -0.017341
v -0.215357 0.864615 -0.022577
v -0.218093 0.858332 -0.017341
v 0.212272 0.864615 -0.022577
v 0.215008 0.858332 -0.017341
v 0.215008 0.858332 -0.017341
v -0.220492 0.851575 -0.012736
v -0.218093 0.858332 -0.017341
v 0.217406 0.851575 -0.012736
v -0.222541 0.844414 -0.008817
v -0.220492 0.851575 -0.012736
v -0.222541 0.844414 -0.008817
v 0.217406 0.851575 -0.012736
v 0.219456 0.844414 -0.008817
v -0.220492 0.851575 -0.012736
v -0.222541 0.844414 -0.008817
v 0.217406 0.851575 -0.012736
v 0.219456 0.844414 -0.008817
v 0.217406 0.851575 -0.012736
v -0.222541 0.844414 -0.008817
v -0.218093 0.858332 -0.017341
v -0.220492 0.851575 -0.012736
v 0.215008 0.858332 -0.017341
v 0.219456 0.844414 -0.008817
v -0.224219 0.836892 -0.005596
v -0.222541 0.844414 -0.008817
v -0.222541 0.844414 -0.008817
v -0.224219 0.836892 -0.005596
v 0.219456 0.844414 -0.008817
v 0.221134 0.836892 -0.005596
v 0.219456 0.844414 -0.008817
v -0.224219 0.836892 -0.005596
v -0.224219 0.836892 -0.005596
v 0.219456 0.844414 -0.008817
v 0.221134 0.836892 -0.005596
v -0.225503 0.829099 -0.003119
v 0.221134 0.836892 -0.005596
v 0.222417 0.829099 -0.003119
v 0.222417 0.829099 -0.003119
v 0.221134 0.836892 -0.005596
v -0.225503 0.829099 -0.003119
v 0.221134 0.836892 -0.005596
v -0.225503 0.829099 -0.003119
v -0.224219 0.836892 -0.005596
v -0.224219 0.836892 -0.005596
v -0.225503 0.829099 -0.003119
v 0.221134 0.836892 -0.005596
v -0.226392 0.821116 -0.001419
v 0.222417 0.829099 -0.003119
v 0.223307 0.821116 -0.001419
v 0.223307 0.821116 -0.001419
v 0.222417 0.829099 -0.003119
v -0.226392 0.821116 -0.001419
v -0.227124 0.808864 -0.000011
v 0.223307 0.821116 -0.001419
v 0.224039 0.808864 -0.000011
v 0.224039 0.808864 -0.000011
v 0.223307 0.821116 -0.001419
v -0.227124 0.808864 -0.000011
v 0.222417 0.829099 -0.003119
v -0.226392 0.821116 -0.001419
v -0.225503 0.829099 -0.003119
v -0.225503 0.829099 -0.003119
v -0.226392 0.821116 -0.001419
v 0.222417 0.829099 -0.003119
v 0.223307 0.821116 -0.001419
v -0.227124 0.808864 -0.000011
v -0.226392 0.821116 -0.001419
v -0.226392 0.821116 -0.001419
v -0.227124 0.808864 -0.000011
v 0.223307 0.821116 -0.001419
v -0.236482 -0.765680 0.017927
v 0.224039 0.808864 -0.000011
v -0.227124 0.808864 -0.000011
v -0.227124 0.808864 -0.000011
v 0.224039 0.808864 -0.000011
v -0.236482 -0.765680 0.017927
v 0.251819 0.818605 0.085197
v -0.227124 0.808864 -0.000011
v 0.224039 0.808864 -0.000011
v 0.224039 0.808864 -0.000011
v -0.227124 0.808864 -0.000011
v 0.251819 0.818605 0.085197
v 0.251819 0.818605 0.085197
v 0.224039 0.808864 -0.000011
v 0.237247 0.811758 0.025302
v 0.237247 0.811758 0.025302
v 0.224039 0.808864 -0.000011
v 0.251819 0.818605 0.085197
v 0.224039 0.808864 -0.000011
v -0.236482 -0.765680 0.017927
v 0.233396 -0.765680 0.017927
v 0.233396 -0.765680 0.017927
v -0.236482 -0.765680 0.017927
v 0.224039 0.808864 -0.000011
v 0.251819 0.818605 0.085197
v -0.240333 0.811758 0.025302
v -0.227124 0.808864 -0.000011
v -0.227124 0.808864 -0.000011
v -0.240333 0.811758 0.025302
v 0.251819 0.818605 0.085197
v -0.240333 0.811758 0.025302
v 0.251819 0.818605 0.085197
v -0.254904 0.818605 0.085197
v -0.254904 0.818605 0.085197
v 0.251819 0.818605 0.085197
v -0.240333 0.811758 0.025302
vn 0 0.3818749988157927 -0.924213982408532
vn 0 -0.3818749988157927 0.924213982408532
vn 0 -0.9046491844816265 -0.42615707552113685
vn 0 -0.924213982408532 -0.3818749988157927
vn 0 0.924213982408532 0.3818749988157927
vn 0 0.9046491844816265 0.42615707552113685
vn 0 -0.8057219601559835 -0.5922939497600829
vn 0 -0.8592104733489396 -0.5116222849793498
vn 0 0.7446841039079674 0.667417100010771
vn 0 0.6766691772357121 0.736287188927761
vn 0 -0.7446841039079674 -0.667417100010771
vn 0 -0.7761120365250929 -0.6305950418143746
vn 0 0.7761120365250929 0.6305950418143746
vn 0 0.8057219601559835 0.5922939497600829
vn 0 -0.6766691772357121 -0.736287188927761
vn 0 0.8592104733489396 0.5116222849793498
vn 0 0.6023147579545528 0.7982586876133252
vn 0 -0.5223171654915095 -0.8527512994026542
vn 0 -0.6023147579545528 -0.7982586876133252
vn 0 0.5223171654915095 0.8527512994026542
vn 0 -0.4374261526341589 -0.8992543360983462
vn 0 0.4374261526341589 0.8992543360983462
vn 0 -0.3484370841985095 -0.9373321707672476
vn 0 0.3484370841985095 0.9373321707672476
vn 0 -0.2561830691072027 -0.9666282817623402
vn 0 0.2561830691072027 0.9666282817623402
vn 0 -0.16152899521641714 -0.9868679667029298
vn 0 0.16152899521641714 0.9868679667029298
vn 0 -0.11357800604969523 -0.9935290818802314
vn 0 0.11357800604969523 0.9935290818802314
vn 0 0.011392001700210945 0.9999351090432129
vn 0 -0.011392001700210945 -0.9999351090432129
vn 0 -0.9935290818802314 0.11357800604969523
vn 0 0.9935290818802314 -0.11357800604969523
usemtl material_0_0
f 1//1 2//1 3//1
f 4//2 5//2 6//2
f 7//1 8//1 9//1
f 10//1 11//1 12//1
f 13//2 14//2 15//2
f 16//2 17//2 18//2
f 19//1 20//1 21//1
f 22//2 23//2 24//2
f 25//3 26//4 27//4
f 28//5 29//5 30//6
f 31//4 32//3 33//3
f 34//6 35//6 36//5
f 37//7 38//8 39//8
f 40//9 41//9 42//10
f 43//11 44//7 45//7
f 46//11 47//7 48//12
f 49//13 50//14 51//9
f 52//15 53//11 54//11
f 55//16 56//16 57//14
f 58//14 59//14 60//9
f 61//8 62//3 63//3
f 64//6 65//6 66//16
f 67//3 68//8 69//8
f 70//16 71//16 72//6
f 73//8 74//7 75//7
f 76//14 77//14 78//16
f 79//12 80//11 81//11
f 82//9 83//9 84//13
f 85//14 86//13 87//9
f 88//10 89//17 90//10
f 91//17 92//10 93//17
f 94//11 95//15 96//15
f 97//10 98//10 99//9
f 100//11 101//12 102//7
f 103//18 104//19 105//18
f 106//20 107//17 108//20
f 109//15 110//19 111//15
f 112//19 113//15 114//19
f 115//19 116//18 117//19
f 118//18 119//21 120//18
f 121//21 122//18 123//21
f 124//20 125//22 126//20
f 127//22 128//20 129//22
f 130//17 131//20 132//17
f 133//21 134//23 135//21
f 136//22 137//24 138//22
f 139//24 140//22 141//24
f 142//23 143//21 144//23
f 145//25 146//23 147//25
f 148//26 149//24 150//26
f 151//23 152//25 153//23
f 154//24 155//26 156//24
f 157//27 158//25 159//27
f 160//28 161//26 162//28
f 163//29 164//27 165//29
f 166//30 167//28 168//30
f 169//25 170//27 171//25
f 172//26 173//28 174//26
f 175//27 176//29 177//27
f 178//28 179//30 180//28
f 181//31 182//31 183//31
f 184//32 185//32 186//32
f 187//33 188//33 189//33
f 190//34 191//34 192//34
f 193//33 194//33 195//33
f 196//34 197//34 198//34
f 199//31 200//31 201//31
f 202//32 203//32 204//32
f 205//33 206//33 207//33
f 208//34 209//34 210//34
f 211//33 212//33 213//33
f 214//34 215//34 216//34
