# SSTK version 0.8.0
# 208
mtllib original-208.mtl
o Group34/mesh208/mesh208-geometry/material_2/component_1#mesh208-geometry
v 0.044625 -0.645260 0.102088
v 0.051382 -0.667781 0.102088
v 0.044625 -0.667781 0.102088
v 0.051382 -0.667781 0.102088
v 0.044625 -0.645260 0.102088
v 0.051382 -0.645260 0.102088
v 0.044625 -0.667781 0.102088
v 0.051382 -0.667781 0.102088
v 0.044625 -0.645260 0.102088
v 0.051382 -0.645260 0.102088
v 0.044625 -0.645260 0.102088
v 0.051382 -0.667781 0.102088
vn 0 0 -1
vn 0 0 1
usemtl material_0_0
f 1//1 2//1 3//1
f 4//1 5//1 6//1
usemtl material_1_0
f 7//2 8//2 9//2
f 10//2 11//2 12//2
