# SSTK version 0.8.0
# 19
mtllib original-19.mtl
o mesh27/mesh27-geometry#mesh27-geometry
v 0.206777 0.368185 0.085197
v 0.195516 0.379445 0.102088
v 0.195516 0.379445 0.085197
v 0.206777 0.368185 0.102088
v 0.105432 0.379445 0.102088
v 0.206777 0.323143 0.085197
v 0.105432 0.379445 0.085197
v 0.206777 0.323143 0.102088
v 0.094172 0.368185 0.102088
v 0.195516 0.311882 0.085197
v 0.094172 0.368185 0.085197
v 0.195516 0.311882 0.102088
v 0.094172 0.323143 0.102088
v 0.094172 0.323143 0.085197
v 0.105432 0.311882 0.085197
v 0.105432 0.311882 0.102088
vn -0.7071067811865476 -0.7071067811865478 0
vn 0 -1 0
vn -1 0 0
vn 0 0 -1
vn 0.7071067811865478 -0.7071067811865476 0
vn -0.7071067811865478 0.7071067811865476 0
vn 1 0 0
vn 0 1 0
vn 0.7071067811865476 0.7071067811865478 0
vn 0 0 1
usemtl material_0_0
f 1//1 2//1 3//1
f 2//1 1//1 4//1
f 5//2 3//2 2//2
f 6//3 4//3 1//3
f 4//4 5//4 2//4
f 3//2 5//2 7//2
f 4//3 6//3 8//3
f 5//4 4//4 9//4
f 9//5 7//5 5//5
f 10//6 8//6 6//6
f 9//4 4//4 8//4
f 7//5 9//5 11//5
f 8//6 10//6 12//6
f 9//4 8//4 13//4
f 9//7 14//7 11//7
f 15//8 12//8 10//8
f 13//4 8//4 12//4
f 14//7 9//7 13//7
f 12//8 15//8 16//8
f 13//4 12//4 16//4
f 16//9 14//9 13//9
f 14//9 16//9 15//9
usemtl material_1_0
f 3//9 2//9 1//9
f 4//9 1//9 2//9
f 2//8 3//8 5//8
f 1//7 4//7 6//7
f 2//10 5//10 4//10
f 7//8 5//8 3//8
f 8//7 6//7 4//7
f 9//10 4//10 5//10
f 5//6 7//6 9//6
f 6//5 8//5 10//5
f 8//10 4//10 9//10
f 11//6 9//6 7//6
f 12//5 10//5 8//5
f 13//10 8//10 9//10
f 11//3 14//3 9//3
f 10//2 12//2 15//2
f 12//10 8//10 13//10
f 13//3 9//3 14//3
f 16//2 15//2 12//2
f 16//10 12//10 13//10
f 13//1 14//1 16//1
f 15//1 16//1 14//1
