# SSTK version 0.8.0
# 161
mtllib original-161.mtl
o mesh229/mesh229-geometry#mesh229-geometry
v -0.085996 -0.600218 0.102088
v -0.097257 -0.588958 0.085197
v -0.097257 -0.588958 0.102088
v -0.085996 -0.600218 0.085197
v -0.097257 -0.566437 0.085197
v -0.029694 -0.600218 0.102088
v -0.097257 -0.566437 0.102088
v -0.018433 -0.588958 0.102088
v -0.029694 -0.600218 0.085197
v -0.085996 -0.555176 0.085197
v -0.085996 -0.555176 0.102088
v -0.018433 -0.566437 0.102088
v -0.018433 -0.588958 0.085197
v -0.029694 -0.555176 0.085197
v -0.029694 -0.555176 0.102088
v -0.018433 -0.566437 0.085197
vn 0.7071067811865476 0.7071067811865478 0
vn 1 0 0
vn 0 0 -1
vn 0 1 0
vn 0.7071067811865478 -0.7071067811865476 0
vn -0.7071067811865478 0.7071067811865476 0
vn 0 -1 0
vn -1 0 0
vn -0.7071067811865476 -0.7071067811865478 0
vn 0 0 1
usemtl material_0_0
f 1//1 2//1 3//1
f 2//1 1//1 4//1
f 5//2 3//2 2//2
f 3//3 6//3 1//3
f 6//4 4//4 1//4
f 3//2 5//2 7//2
f 3//3 8//3 6//3
f 4//4 6//4 9//4
f 10//5 7//5 5//5
f 7//3 8//3 3//3
f 8//6 9//6 6//6
f 7//5 10//5 11//5
f 7//3 12//3 8//3
f 9//6 8//6 13//6
f 14//7 11//7 10//7
f 11//3 12//3 7//3
f 12//8 13//8 8//8
f 11//7 14//7 15//7
f 12//3 11//3 15//3
f 13//8 12//8 16//8
f 14//9 12//9 15//9
f 12//9 14//9 16//9
usemtl material_1_0
f 3//9 2//9 1//9
f 4//9 1//9 2//9
f 2//8 3//8 5//8
f 1//10 6//10 3//10
f 1//7 4//7 6//7
f 7//8 5//8 3//8
f 6//10 8//10 3//10
f 9//7 6//7 4//7
f 5//6 7//6 10//6
f 3//10 8//10 7//10
f 6//5 9//5 8//5
f 11//6 10//6 7//6
f 8//10 12//10 7//10
f 13//5 8//5 9//5
f 10//4 11//4 14//4
f 7//10 12//10 11//10
f 8//2 13//2 12//2
f 15//4 14//4 11//4
f 15//10 11//10 12//10
f 16//2 12//2 13//2
f 15//1 12//1 14//1
f 16//1 14//1 12//1
