# SSTK version 0.8.0
# 180
mtllib original-180.mtl
o Group8/mesh50/mesh50-geometry/material_2/component_1#mesh50-geometry
v 0.116693 0.108202 0.097088
v 0.150474 0.088012 0.097865
v 0.105432 0.108202 0.097088
v 0.184256 0.108202 0.097088
v 0.150474 0.088012 0.097865
v 0.116693 0.108202 0.097088
v 0.150474 0.088012 0.097865
v 0.184256 0.108202 0.097088
v 0.195516 0.108202 0.097088
v 0.105432 0.108202 0.097088
v 0.150474 0.088012 0.097865
v 0.116693 0.108202 0.097088
v 0.116693 0.108202 0.097088
v 0.150474 0.088012 0.097865
v 0.184256 0.108202 0.097088
v 0.195516 0.108202 0.097088
v 0.184256 0.108202 0.097088
v 0.150474 0.088012 0.097865
vn 0 -0.04976799124758571 -0.9987608057223614
vn 0 -0.03872200207363508 -0.9992500220442376
vn 0 0.03872200207363508 0.9992500220442376
vn 0 0.04976799124758571 0.9987608057223614
usemtl material_0_0
f 1//1 2//2 3//2
f 4//1 5//2 6//1
f 7//2 8//1 9//2
usemtl material_1_0
f 10//3 11//3 12//4
f 13//4 14//3 15//4
f 16//3 17//4 18//3
