# SSTK version 0.8.0
# 126
mtllib original-126.mtl
o mesh172/mesh172-geometry#mesh172-geometry
v -0.141629 -0.394838 0.102088
v -0.143870 -0.407617 0.102088
v -0.143870 -0.394838 0.102088
v -0.143017 -0.414714 0.102088
v -0.143870 -0.394838 0.103214
v -0.142554 -0.413869 0.102088
v -0.143936 -0.409532 0.102088
v -0.143870 -0.407617 0.103214
v -0.141629 -0.394838 0.103214
v -0.142207 -0.412934 0.102088
v -0.143017 -0.414714 0.103214
v -0.144133 -0.411110 0.102088
v -0.141629 -0.407632 0.103214
v -0.141773 -0.410626 0.102088
v -0.142554 -0.413869 0.103214
v -0.144292 -0.416128 0.102088
v -0.143936 -0.409532 0.103214
v -0.141629 -0.407632 0.102088
v -0.141773 -0.410626 0.103214
v -0.142207 -0.412934 0.103214
v -0.144292 -0.416128 0.103214
v -0.144462 -0.412349 0.102088
v -0.144133 -0.411110 0.103214
v -0.145105 -0.416667 0.102088
v -0.144922 -0.413251 0.102088
v -0.144462 -0.412349 0.103214
v -0.145105 -0.416667 0.103214
v -0.144922 -0.413251 0.103214
v -0.146036 -0.417051 0.102088
v -0.145537 -0.413892 0.102088
v -0.145537 -0.413892 0.103214
v -0.146036 -0.417051 0.103214
v -0.147084 -0.417282 0.102088
v -0.146329 -0.414350 0.102088
v -0.146329 -0.414350 0.103214
v -0.147084 -0.417282 0.103214
v -0.148250 -0.417359 0.102088
v -0.147299 -0.414624 0.102088
v -0.147299 -0.414624 0.103214
v -0.148250 -0.417359 0.103214
v -0.150413 -0.417091 0.102088
v -0.148446 -0.414716 0.102088
v -0.148446 -0.414716 0.103214
v -0.150413 -0.417091 0.103214
v -0.149779 -0.414531 0.102088
v -0.149779 -0.414531 0.103214
v -0.151333 -0.416756 0.102088
v -0.150890 -0.413976 0.102088
v -0.150890 -0.413976 0.103214
v -0.151333 -0.416756 0.103214
v -0.152144 -0.416287 0.102088
v -0.151742 -0.413079 0.102088
v -0.151742 -0.413079 0.103214
v -0.152144 -0.416287 0.103214
v -0.152847 -0.415691 0.102088
v -0.152300 -0.411869 0.102088
v -0.152300 -0.411869 0.103214
v -0.152847 -0.415691 0.103214
v -0.152608 -0.410122 0.102088
v -0.152608 -0.410122 0.103214
v -0.153441 -0.414975 0.102088
v -0.152710 -0.407617 0.102088
v -0.152710 -0.407617 0.103214
v -0.153441 -0.414975 0.103214
v -0.152710 -0.394838 0.102088
v -0.152710 -0.394838 0.103214
v -0.153927 -0.414139 0.103214
v -0.153927 -0.414139 0.102088
v -0.154305 -0.413183 0.102088
v -0.154952 -0.394838 0.103214
v -0.154305 -0.413183 0.103214
v -0.154790 -0.410779 0.102088
v -0.154952 -0.394838 0.102088
v -0.154790 -0.410779 0.103214
v -0.154952 -0.407632 0.102088
v -0.154952 -0.407632 0.103214
vn 0 0 -1
vn 0 0 1
vn -1 0 0
vn 1 0 0
vn 0 1 0
vn 0 -1 0
vn 0.8767234248173428 -0.48099484028058875 0
vn -0.8767234248173428 0.48099484028058875 0
vn -0.9994119217611003 0.03429009538896769 0
vn 0.9994119217611003 -0.03429009538896769 0
vn 0.9376378645997413 -0.3476136287156148 0
vn -0.9376378645997413 0.3476136287156148 0
vn 0.7426058494639479 -0.6697287154825663 0
vn -0.7426058494639479 0.6697287154825663 0
vn -0.992280033454053 0.12401747944714589 0
vn 0.992280033454053 -0.12401747944714589 0
vn 0.9828174405587271 -0.1845802766646337 0
vn -0.9828174405587271 0.1845802766646337 0
vn 0.9988387301012441 -0.048178742716410886 0
vn -0.9988387301012441 0.048178742716410886 0
vn 0.5523483425895428 -0.8336134046658471 0
vn -0.5523483425895428 0.8336134046658471 0
vn -0.9666111472187119 0.25624771232642385 0
vn 0.9666111472187119 -0.25624771232642385 0
vn -0.8907391878366473 0.4545147954160682 0
vn 0.8907391878366473 -0.4545147954160682 0
vn 0.3820504897915793 -0.92414145197043 0
vn -0.3820504897915793 0.92414145197043 0
vn -0.721824977283295 0.6920756477221047 0
vn 0.721824977283295 -0.6920756477221047 0
vn 0.21503962335964097 -0.9766053247783077 0
vn -0.21503962335964097 0.9766053247783077 0
vn -0.5003753401809317 0.8658085925531214 0
vn 0.5003753401809317 -0.8658085925531214 0
vn 0.06584400676545897 -0.9978299287819894 0
vn -0.06584400676545897 0.9978299287819894 0
vn -0.27251998485453904 0.9621501223067437 0
vn 0.27251998485453904 -0.9621501223067437 0
vn -0.12297201986132368 -0.9924101381642703 0
vn 0.12297201986132368 0.9924101381642703 0
vn -0.07954378241699336 0.9968313732416321 0
vn 0.07954378241699336 -0.9968313732416321 0
vn -0.3424878378785432 -0.9395222620594366 0
vn 0.3424878378785432 0.9395222620594366 0
vn 0.13747362644199687 0.9905054275635677 0
vn -0.13747362644199687 -0.9905054275635677 0
vn 0.44703985159323123 0.8945140418615584 0
vn -0.44703985159323123 -0.8945140418615584 0
vn -0.5007561819947842 -0.8655883815035912 0
vn 0.5007561819947842 0.8655883815035912 0
vn 0.7249231798873839 0.6888297200774397 0
vn -0.7249231798873839 -0.6888297200774397 0
vn -0.646937969661765 -0.7625426305524913 0
vn 0.646937969661765 0.7625426305524913 0
vn 0.9082588775625368 0.4184086654562029 0
vn -0.9082588775625368 -0.4184086654562029 0
vn -0.7694615022611684 -0.6386931943726861 0
vn 0.7694615022611684 0.6386931943726861 0
vn 0.9848363973359421 0.17348564921157758 0
vn -0.9848363973359421 -0.17348564921157758 0
vn 0.9991633830342274 0.04089662582166916 0
vn -0.9991633830342274 -0.04089662582166916 0
vn -0.8644989568788979 -0.5026346123729418 0
vn 0.8644989568788979 0.5026346123729418 0
vn -0.9300223485758576 -0.3675029675382849 0
vn 0.9300223485758576 0.3675029675382849 0
vn -0.9802176230175716 -0.19792274130524137 0
vn 0.9802176230175716 0.19792274130524137 0
vn -0.9986817664961981 -0.05132961394782924 0
vn 0.9986817664961981 0.05132961394782924 0
usemtl material_0_0
f 1//1 2//1 3//1
f 2//1 1//1 4//1
f 3//2 2//2 1//2
f 4//2 1//2 2//2
f 2//3 5//3 3//3
f 3//4 5//4 2//4
f 5//5 1//5 3//5
f 3//6 1//6 5//6
f 4//1 1//1 6//1
f 6//2 1//2 4//2
f 4//1 7//1 2//1
f 2//2 7//2 4//2
f 5//3 2//3 8//3
f 8//4 2//4 5//4
f 1//5 5//5 9//5
f 9//6 5//6 1//6
f 6//1 1//1 10//1
f 10//2 1//2 6//2
f 6//7 11//7 4//7
f 4//8 11//8 6//8
f 4//1 12//1 7//1
f 7//2 12//2 4//2
f 7//9 8//9 2//9
f 2//10 8//10 7//10
f 8//2 11//2 5//2
f 5//1 11//1 8//1
f 5//2 11//2 9//2
f 9//1 11//1 5//1
f 13//4 1//4 9//4
f 9//3 1//3 13//3
f 10//1 1//1 14//1
f 14//2 1//2 10//2
f 10//11 15//11 6//11
f 6//12 15//12 10//12
f 11//7 6//7 15//7
f 15//8 6//8 11//8
f 11//13 16//13 4//13
f 4//14 16//14 11//14
f 16//1 12//1 4//1
f 4//2 12//2 16//2
f 12//15 17//15 7//15
f 7//16 17//16 12//16
f 8//9 7//9 17//9
f 17//10 7//10 8//10
f 17//2 11//2 8//2
f 8//1 11//1 17//1
f 9//2 11//2 15//2
f 15//1 11//1 9//1
f 1//4 13//4 18//4
f 18//3 13//3 1//3
f 9//2 19//2 13//2
f 13//1 19//1 9//1
f 14//1 1//1 18//1
f 18//2 1//2 14//2
f 14//17 20//17 10//17
f 10//18 20//18 14//18
f 15//11 10//11 20//11
f 20//12 10//12 15//12
f 16//13 11//13 21//13
f 21//14 11//14 16//14
f 16//1 22//1 12//1
f 12//2 22//2 16//2
f 17//15 12//15 23//15
f 23//16 12//16 17//16
f 23//2 11//2 17//2
f 17//1 11//1 23//1
f 9//2 15//2 20//2
f 20//1 15//1 9//1
f 19//19 18//19 13//19
f 13//20 18//20 19//20
f 9//2 20//2 19//2
f 19//1 20//1 9//1
f 18//19 19//19 14//19
f 14//20 19//20 18//20
f 20//17 14//17 19//17
f 19//18 14//18 20//18
f 23//2 21//2 11//2
f 11//1 21//1 23//1
f 21//21 24//21 16//21
f 16//22 24//22 21//22
f 16//1 25//1 22//1
f 22//2 25//2 16//2
f 22//23 23//23 12//23
f 12//24 23//24 22//24
f 26//2 21//2 23//2
f 23//1 21//1 26//1
f 24//21 21//21 27//21
f 27//22 21//22 24//22
f 24//1 25//1 16//1
f 16//2 25//2 24//2
f 25//25 26//25 22//25
f 22//26 26//26 25//26
f 23//23 22//23 26//23
f 26//24 22//24 23//24
f 28//2 21//2 26//2
f 26//1 21//1 28//1
f 28//2 27//2 21//2
f 21//1 27//1 28//1
f 27//27 29//27 24//27
f 24//28 29//28 27//28
f 24//1 30//1 25//1
f 25//2 30//2 24//2
f 26//25 25//25 28//25
f 28//26 25//26 26//26
f 31//2 27//2 28//2
f 28//1 27//1 31//1
f 29//27 27//27 32//27
f 32//28 27//28 29//28
f 29//1 30//1 24//1
f 24//2 30//2 29//2
f 31//29 25//29 30//29
f 30//30 25//30 31//30
f 25//29 31//29 28//29
f 28//30 31//30 25//30
f 31//2 32//2 27//2
f 27//1 32//1 31//1
f 32//31 33//31 29//31
f 29//32 33//32 32//32
f 29//1 34//1 30//1
f 30//2 34//2 29//2
f 30//33 35//33 31//33
f 31//34 35//34 30//34
f 35//2 32//2 31//2
f 31//1 32//1 35//1
f 33//31 32//31 36//31
f 36//32 32//32 33//32
f 33//1 34//1 29//1
f 29//2 34//2 33//2
f 35//33 30//33 34//33
f 34//34 30//34 35//34
f 35//2 36//2 32//2
f 32//1 36//1 35//1
f 36//35 37//35 33//35
f 33//36 37//36 36//36
f 33//1 38//1 34//1
f 34//2 38//2 33//2
f 34//37 39//37 35//37
f 35//38 39//38 34//38
f 39//2 36//2 35//2
f 35//1 36//1 39//1
f 37//35 36//35 40//35
f 40//36 36//36 37//36
f 37//1 38//1 33//1
f 33//2 38//2 37//2
f 39//37 34//37 38//37
f 38//38 34//38 39//38
f 39//2 40//2 36//2
f 36//1 40//1 39//1
f 40//39 41//39 37//39
f 37//40 41//40 40//40
f 37//1 42//1 38//1
f 38//2 42//2 37//2
f 38//41 43//41 39//41
f 39//42 43//42 38//42
f 43//2 40//2 39//2
f 39//1 40//1 43//1
f 41//39 40//39 44//39
f 44//40 40//40 41//40
f 41//1 45//1 37//1
f 37//2 45//2 41//2
f 37//1 45//1 42//1
f 42//2 45//2 37//2
f 43//41 38//41 42//41
f 42//42 38//42 43//42
f 46//2 40//2 43//2
f 43//1 40//1 46//1
f 46//2 44//2 40//2
f 40//1 44//1 46//1
f 44//43 47//43 41//43
f 41//44 47//44 44//44
f 41//1 48//1 45//1
f 45//2 48//2 41//2
f 46//45 42//45 45//45
f 45//46 42//46 46//46
f 42//45 46//45 43//45
f 43//46 46//46 42//46
f 49//2 44//2 46//2
f 46//1 44//1 49//1
f 47//43 44//43 50//43
f 50//44 44//44 47//44
f 47//1 48//1 41//1
f 41//2 48//2 47//2
f 49//47 45//47 48//47
f 48//48 45//48 49//48
f 45//47 49//47 46//47
f 46//48 49//48 45//48
f 49//2 50//2 44//2
f 44//1 50//1 49//1
f 50//49 51//49 47//49
f 47//50 51//50 50//50
f 47//1 52//1 48//1
f 48//2 52//2 47//2
f 48//51 53//51 49//51
f 49//52 53//52 48//52
f 53//2 50//2 49//2
f 49//1 50//1 53//1
f 51//49 50//49 54//49
f 54//50 50//50 51//50
f 51//1 52//1 47//1
f 47//2 52//2 51//2
f 53//51 48//51 52//51
f 52//52 48//52 53//52
f 53//2 54//2 50//2
f 50//1 54//1 53//1
f 54//53 55//53 51//53
f 51//54 55//54 54//54
f 51//1 56//1 52//1
f 52//2 56//2 51//2
f 56//55 53//55 52//55
f 52//56 53//56 56//56
f 57//2 54//2 53//2
f 53//1 54//1 57//1
f 55//53 54//53 58//53
f 58//54 54//54 55//54
f 55//1 59//1 51//1
f 51//2 59//2 55//2
f 51//1 59//1 56//1
f 56//2 59//2 51//2
f 53//55 56//55 57//55
f 57//56 56//56 53//56
f 60//2 54//2 57//2
f 57//1 54//1 60//1
f 60//2 58//2 54//2
f 54//1 58//1 60//1
f 58//57 61//57 55//57
f 55//58 61//58 58//58
f 55//1 62//1 59//1
f 59//2 62//2 55//2
f 59//59 57//59 56//59
f 56//60 57//60 59//60
f 57//59 59//59 60//59
f 60//60 59//60 57//60
f 58//2 60//2 63//2
f 63//1 60//1 58//1
f 61//57 58//57 64//57
f 64//58 58//58 61//58
f 61//1 65//1 55//1
f 55//2 65//2 61//2
f 55//1 65//1 62//1
f 62//2 65//2 55//2
f 62//61 60//61 59//61
f 59//62 60//62 62//62
f 60//61 62//61 63//61
f 63//62 62//62 60//62
f 66//2 58//2 63//2
f 63//1 58//1 66//1
f 66//2 64//2 58//2
f 58//1 64//1 66//1
f 67//63 61//63 64//63
f 64//64 61//64 67//64
f 68//1 65//1 61//1
f 61//2 65//2 68//2
f 65//4 63//4 62//4
f 62//3 63//3 65//3
f 63//4 65//4 66//4
f 66//3 65//3 63//3
f 66//2 67//2 64//2
f 64//1 67//1 66//1
f 61//63 67//63 68//63
f 68//64 67//64 61//64
f 69//1 65//1 68//1
f 68//2 65//2 69//2
f 65//5 70//5 66//5
f 66//6 70//6 65//6
f 66//2 71//2 67//2
f 67//1 71//1 66//1
f 71//65 68//65 67//65
f 67//66 68//66 71//66
f 72//1 65//1 69//1
f 69//2 65//2 72//2
f 68//65 71//65 69//65
f 69//66 71//66 68//66
f 70//5 65//5 73//5
f 73//6 65//6 70//6
f 70//2 74//2 66//2
f 66//1 74//1 70//1
f 66//2 74//2 71//2
f 71//1 74//1 66//1
f 75//1 65//1 72//1
f 72//2 65//2 75//2
f 69//67 74//67 72//67
f 72//68 74//68 69//68
f 74//67 69//67 71//67
f 71//68 69//68 74//68
f 65//1 75//1 73//1
f 73//2 75//2 65//2
f 75//3 70//3 73//3
f 73//4 70//4 75//4
f 74//2 70//2 76//2
f 76//1 70//1 74//1
f 72//69 76//69 75//69
f 75//70 76//70 72//70
f 76//69 72//69 74//69
f 74//70 72//70 76//70
f 70//3 75//3 76//3
f 76//4 75//4 70//4
