# SSTK version 0.8.0
# 212
mtllib original-212.mtl
o Group36/mesh210/mesh210-geometry/material_2#mesh210-geometry
v 0.150879 -0.562102 0.102088
v 0.184661 -0.595883 0.102088
v 0.150879 -0.595883 0.102088
v 0.184661 -0.595883 0.102088
v 0.150879 -0.562102 0.102088
v 0.184661 -0.562102 0.102088
v 0.150879 -0.595883 0.102088
v 0.184661 -0.595883 0.102088
v 0.150879 -0.562102 0.102088
v 0.184661 -0.562102 0.102088
v 0.150879 -0.562102 0.102088
v 0.184661 -0.595883 0.102088
vn 0 0 -1
vn 0 0 1
usemtl material_0_0
f 1//1 2//1 3//1
f 4//1 5//1 6//1
usemtl material_1_0
f 7//2 8//2 9//2
f 10//2 11//2 12//2
