# SSTK version 0.8.0
# 152
mtllib original-152.mtl
o mesh215/mesh215-geometry#mesh215-geometry
v 0.082911 -0.600218 0.102088
v 0.026609 -0.600218 0.085197
v 0.026609 -0.600218 0.102088
v 0.082911 -0.600218 0.085197
v 0.015348 -0.588958 0.085197
v 0.015348 -0.588958 0.102088
v 0.094172 -0.588958 0.102088
v 0.094172 -0.588958 0.085197
v 0.015348 -0.566437 0.085197
v 0.015348 -0.566437 0.102088
v 0.094172 -0.566437 0.102088
v 0.094172 -0.566437 0.085197
v 0.026609 -0.555176 0.085197
v 0.026609 -0.555176 0.102088
v 0.082911 -0.555176 0.085197
v 0.082911 -0.555176 0.102088
vn 0 1 0
vn 0.7071067811865476 0.7071067811865478 0
vn 0 0 -1
vn -0.7071067811865478 0.7071067811865476 0
vn 1 0 0
vn -1 0 0
vn 0.7071067811865478 -0.7071067811865476 0
vn -0.7071067811865476 -0.7071067811865478 0
vn 0 -1 0
vn 0 0 1
usemtl material_0_0
f 1//1 2//1 3//1
f 2//1 1//1 4//1
f 5//2 3//2 2//2
f 6//3 1//3 3//3
f 7//4 4//4 1//4
f 3//2 5//2 6//2
f 6//3 7//3 1//3
f 4//4 7//4 8//4
f 9//5 6//5 5//5
f 10//3 7//3 6//3
f 11//6 8//6 7//6
f 6//5 9//5 10//5
f 10//3 11//3 7//3
f 8//6 11//6 12//6
f 13//7 10//7 9//7
f 14//3 11//3 10//3
f 11//8 15//8 12//8
f 10//7 13//7 14//7
f 11//3 14//3 16//3
f 15//8 11//8 16//8
f 15//9 14//9 13//9
f 14//9 15//9 16//9
usemtl material_1_0
f 3//9 2//9 1//9
f 4//9 1//9 2//9
f 2//8 3//8 5//8
f 3//10 1//10 6//10
f 1//7 4//7 7//7
f 6//8 5//8 3//8
f 1//10 7//10 6//10
f 8//7 7//7 4//7
f 5//6 6//6 9//6
f 6//10 7//10 10//10
f 7//5 8//5 11//5
f 10//6 9//6 6//6
f 7//10 11//10 10//10
f 12//5 11//5 8//5
f 9//4 10//4 13//4
f 10//10 11//10 14//10
f 12//2 15//2 11//2
f 14//4 13//4 10//4
f 16//10 14//10 11//10
f 16//2 11//2 15//2
f 13//1 14//1 15//1
f 16//1 15//1 14//1
