# SSTK version 0.8.0
# 62
mtllib original-62.mtl
o mesh89/mesh89-geometry#mesh89-geometry
v 0.049130 0.019109 0.085197
v -0.052215 0.019109 0.102088
v -0.052215 0.019109 0.085197
v 0.049130 0.019109 0.102088
v -0.063475 0.007849 0.102088
v 0.060390 0.007849 0.085197
v 0.060390 0.007849 0.102088
v -0.063475 0.007849 0.085197
v -0.063475 -0.093496 0.102088
v 0.060390 -0.093496 0.102088
v -0.063475 -0.093496 0.085197
v 0.060390 -0.093496 0.085197
v -0.052215 -0.104756 0.102088
v 0.049130 -0.104756 0.102088
v 0.049130 -0.104756 0.085197
v -0.052215 -0.104756 0.085197
vn 0 -1 0
vn 0.7071067811865478 -0.7071067811865476 0
vn -0.7071067811865476 -0.7071067811865478 0
vn 0 0 -1
vn 1 0 0
vn -1 0 0
vn 0.7071067811865476 0.7071067811865478 0
vn -0.7071067811865478 0.7071067811865476 0
vn 0 1 0
vn 0 0 1
usemtl material_0_0
f 1//1 2//1 3//1
f 2//1 1//1 4//1
f 5//2 3//2 2//2
f 6//3 4//3 1//3
f 7//4 2//4 4//4
f 3//2 5//2 8//2
f 2//4 7//4 5//4
f 4//3 6//3 7//3
f 9//5 8//5 5//5
f 5//4 7//4 10//4
f 6//6 10//6 7//6
f 8//5 9//5 11//5
f 5//4 10//4 9//4
f 10//6 6//6 12//6
f 13//7 11//7 9//7
f 9//4 10//4 14//4
f 15//8 10//8 12//8
f 11//7 13//7 16//7
f 9//4 14//4 13//4
f 10//8 15//8 14//8
f 14//9 16//9 13//9
f 16//9 14//9 15//9
usemtl material_1_0
f 3//9 2//9 1//9
f 4//9 1//9 2//9
f 2//8 3//8 5//8
f 1//7 4//7 6//7
f 4//10 2//10 7//10
f 8//8 5//8 3//8
f 5//10 7//10 2//10
f 7//7 6//7 4//7
f 5//6 8//6 9//6
f 10//10 7//10 5//10
f 7//5 10//5 6//5
f 11//6 9//6 8//6
f 9//10 10//10 5//10
f 12//5 6//5 10//5
f 9//3 11//3 13//3
f 14//10 10//10 9//10
f 12//2 10//2 15//2
f 16//3 13//3 11//3
f 13//10 14//10 9//10
f 14//2 15//2 10//2
f 13//1 16//1 14//1
f 15//1 14//1 16//1
