# SSTK version 0.8.0
# 14
mtllib original-14.mtl
o mesh13/mesh13-geometry#mesh13-geometry
v 0.119083 0.362802 0.102088
v 0.121589 0.360355 0.102088
v 0.119083 0.340659 0.102088
v 0.127477 0.362802 0.102088
v 0.121589 0.340659 0.102088
v 0.119083 0.362802 0.103214
v 0.127581 0.360355 0.102088
v 0.121589 0.353029 0.102088
v 0.121589 0.340659 0.103214
v 0.119083 0.340659 0.103214
v 0.127477 0.362802 0.103214
v 0.129705 0.362653 0.102088
v 0.127581 0.360355 0.103214
v 0.121589 0.353029 0.103214
v 0.121589 0.350492 0.102088
v 0.121589 0.360355 0.103214
v 0.129403 0.360102 0.102088
v 0.129403 0.360102 0.103214
v 0.126974 0.353029 0.102088
v 0.121589 0.350492 0.103214
v 0.129705 0.362653 0.103214
v 0.130103 0.359786 0.102088
v 0.126974 0.353029 0.103214
v 0.124494 0.350492 0.102088
v 0.124494 0.350492 0.103214
v 0.131326 0.362205 0.102088
v 0.130103 0.359786 0.103214
v 0.128504 0.353133 0.102088
v 0.125889 0.350386 0.102088
v 0.131326 0.362205 0.103214
v 0.130661 0.359343 0.102088
v 0.130661 0.359343 0.103214
v 0.125889 0.350386 0.103214
v 0.128504 0.353133 0.103214
v 0.127032 0.349797 0.102088
v 0.132511 0.361380 0.102088
v 0.131392 0.358191 0.102088
v 0.127032 0.349797 0.103214
v 0.129660 0.353445 0.102088
v 0.128304 0.348317 0.102088
v 0.132511 0.361380 0.103214
v 0.131392 0.358191 0.103214
v 0.128304 0.348317 0.103214
v 0.129660 0.353445 0.103214
v 0.128885 0.350734 0.102088
v 0.133431 0.360098 0.103214
v 0.131636 0.356760 0.102088
v 0.128885 0.350734 0.103214
v 0.130512 0.353985 0.102088
v 0.130159 0.351026 0.102088
v 0.130112 0.345265 0.102088
v 0.131636 0.356760 0.103214
v 0.133431 0.360098 0.102088
v 0.132914 0.352788 0.103214
v 0.132173 0.352053 0.102088
v 0.130112 0.345265 0.103214
v 0.130159 0.351026 0.103214
v 0.130512 0.353985 0.103214
v 0.130396 0.349631 0.102088
v 0.132173 0.352053 0.103214
v 0.134022 0.358509 0.103214
v 0.132914 0.352788 0.102088
v 0.133485 0.353642 0.103214
v 0.131510 0.355727 0.102088
v 0.130396 0.349631 0.103214
v 0.131132 0.354774 0.103214
v 0.131255 0.351466 0.102088
v 0.131255 0.351466 0.103214
v 0.132617 0.340659 0.102088
v 0.131510 0.355727 0.103214
v 0.134022 0.358509 0.102088
v 0.133485 0.353642 0.102088
v 0.132617 0.340659 0.103214
v 0.131132 0.354774 0.102088
v 0.131465 0.348305 0.102088
v 0.134219 0.356760 0.103214
v 0.133893 0.354589 0.103214
v 0.133893 0.354589 0.102088
v 0.131465 0.348305 0.103214
v 0.132475 0.346686 0.102088
v 0.135768 0.340659 0.103214
v 0.134219 0.356760 0.102088
v 0.134137 0.355628 0.103214
v 0.132475 0.346686 0.103214
v 0.135768 0.340659 0.102088
v 0.134137 0.355628 0.102088
vn 0 0 -1
vn 0 0 1
vn -1 0 0
vn 1 0 0
vn 0 1 0
vn 0 -1 0
vn 0.06680550905289663 0.9977660166392637 0
vn -0.06680550905289663 -0.9977660166392637 0
vn -0.1374993411866272 -0.9905018582381576 0
vn 0.1374993411866272 0.9905018582381576 0
vn 0.26613219826235807 0.9639365399485824 0
vn -0.26613219826235807 -0.9639365399485824 0
vn -0.41201442811790595 -0.9111773213939615 0
vn 0.41201442811790595 0.9111773213939615 0
vn -0.06769977163172664 0.9977057386429187 0
vn 0.06769977163172664 -0.9977057386429187 0
vn -0.6214689240851773 -0.7834388147114055 0
vn 0.6214689240851773 0.7834388147114055 0
vn -0.07558980930871619 -0.9971389976972478 0
vn 0.07558980930871619 0.9971389976972478 0
vn 0.5714427743694656 0.820641916807159 0
vn -0.5714427743694656 -0.820641916807159 0
vn -0.2602412313468186 0.965543630038069 0
vn 0.2602412313468186 -0.965543630038069 0
vn -0.45813992730429187 -0.8888800858437645 0
vn 0.45813992730429187 0.8888800858437645 0
vn -0.8442043968956613 -0.5360213953398064 0
vn 0.8442043968956613 0.5360213953398064 0
vn -0.758424035397055 -0.6517614460307134 0
vn 0.758424035397055 0.6517614460307134 0
vn 0.8124015369347685 0.5830983988882372 0
vn -0.8124015369347685 -0.5830983988882372 0
vn -0.5351694687881259 0.8447447186440618 0
vn 0.5351694687881259 -0.8447447186440618 0
vn -0.8602984399119893 -0.5097907357779241 0
vn 0.8602984399119893 0.5097907357779241 0
vn -0.9858031091753863 -0.16790541962706748 0
vn 0.9858031091753863 0.16790541962706748 0
vn 0.22393273030688543 -0.974604603055672 0
vn -0.22393273030688543 0.974604603055672 0
vn 0.9373574219671882 0.3483691482939136 0
vn -0.9373574219671882 -0.3483691482939136 0
vn -0.7864174041413868 0.6176954479867264 0
vn 0.7864174041413868 -0.6176954479867264 0
vn 0.37246861930929487 -0.9280447875128804 0
vn -0.37246861930929487 0.9280447875128804 0
vn 0.5894771137358986 0.8077850780879741 0
vn -0.5894771137358986 -0.8077850780879741 0
vn -0.878492683627984 -0.47775580039608406 0
vn 0.878492683627984 0.47775580039608406 0
vn -0.9926496555531007 0.1210233916658697 0
vn 0.9926496555531007 -0.1210233916658697 0
vn 0.7039824736604863 -0.7102173447465663 0
vn -0.7039824736604863 0.7102173447465663 0
vn 0.8315617647941116 -0.5554322923025836 0
vn -0.8315617647941116 0.5554322923025836 0
vn 0.993715176239747 0.1119381459146449 0
vn -0.993715176239747 -0.1119381459146449 0
vn 0.5386148812780396 -0.8425520812779725 0
vn -0.5386148812780396 0.8425520812779725 0
vn 0.9185080173213843 -0.3954023547177477 0
vn -0.9185080173213843 0.3954023547177477 0
vn 0.7784772239096052 0.6276728541636913 0
vn -0.7784772239096052 -0.6276728541636913 0
vn -0.9296967814035101 0.3683257995958931 0
vn 0.9296967814035101 -0.3683257995958931 0
vn 0.8484510557492468 0.5292738478311474 0
vn -0.8484510557492468 -0.5292738478311474 0
vn 0.9974164002758766 -0.07183679043994186 0
vn -0.9974164002758766 0.07183679043994186 0
vn 0.9734158852921754 -0.22904478658299657 0
vn -0.9734158852921754 0.22904478658299657 0
vn 0.8775360014686964 0.47951075704965374 0
vn -0.8775360014686964 -0.47951075704965374 0
usemtl material_0_0
f 1//1 2//1 3//1
f 2//1 1//1 4//1
f 3//2 2//2 1//2
f 4//2 1//2 2//2
f 2//1 5//1 3//1
f 3//2 5//2 2//2
f 3//3 6//3 1//3
f 1//4 6//4 3//4
f 6//5 4//5 1//5
f 1//6 4//6 6//6
f 2//1 4//1 7//1
f 7//2 4//2 2//2
f 5//1 2//1 8//1
f 8//2 2//2 5//2
f 9//6 3//6 5//6
f 5//5 3//5 9//5
f 6//3 3//3 10//3
f 10//4 3//4 6//4
f 4//5 6//5 11//5
f 11//6 6//6 4//6
f 7//1 4//1 12//1
f 12//2 4//2 7//2
f 13//6 2//6 7//6
f 7//5 2//5 13//5
f 2//4 14//4 8//4
f 8//3 14//3 2//3
f 5//1 8//1 15//1
f 15//2 8//2 5//2
f 3//6 9//6 10//6
f 10//5 9//5 3//5
f 15//4 9//4 5//4
f 5//3 9//3 15//3
f 9//2 6//2 10//2
f 10//1 6//1 9//1
f 6//2 16//2 11//2
f 11//1 16//1 6//1
f 11//7 12//7 4//7
f 4//8 12//8 11//8
f 7//1 12//1 17//1
f 17//2 12//2 7//2
f 2//6 13//6 16//6
f 16//5 13//5 2//5
f 7//9 18//9 13//9
f 13//10 18//10 7//10
f 14//4 2//4 16//4
f 16//3 2//3 14//3
f 14//5 19//5 8//5
f 8//6 19//6 14//6
f 19//1 15//1 8//1
f 8//2 15//2 19//2
f 9//4 15//4 20//4
f 20//3 15//3 9//3
f 6//2 9//2 16//2
f 16//1 9//1 6//1
f 11//2 16//2 13//2
f 13//1 16//1 11//1
f 12//7 11//7 21//7
f 21//8 11//8 12//8
f 17//1 12//1 22//1
f 22//2 12//2 17//2
f 18//9 7//9 17//9
f 17//10 7//10 18//10
f 21//2 13//2 18//2
f 18//1 13//1 21//1
f 16//2 20//2 14//2
f 14//1 20//1 16//1
f 19//5 14//5 23//5
f 23//6 14//6 19//6
f 15//1 19//1 24//1
f 24//2 19//2 15//2
f 15//6 25//6 20//6
f 20//5 25//5 15//5
f 16//2 9//2 20//2
f 20//1 9//1 16//1
f 11//2 13//2 21//2
f 21//1 13//1 11//1
f 21//11 26//11 12//11
f 12//12 26//12 21//12
f 22//1 12//1 26//1
f 26//2 12//2 22//2
f 27//13 17//13 22//13
f 22//14 17//14 27//14
f 17//13 27//13 18//13
f 18//14 27//14 17//14
f 21//2 18//2 27//2
f 27//1 18//1 21//1
f 25//2 14//2 20//2
f 20//1 14//1 25//1
f 14//2 25//2 23//2
f 23//1 25//1 14//1
f 23//15 28//15 19//15
f 19//16 28//16 23//16
f 24//1 19//1 29//1
f 29//2 19//2 24//2
f 25//6 15//6 24//6
f 24//5 15//5 25//5
f 26//11 21//11 30//11
f 30//12 21//12 26//12
f 22//1 26//1 31//1
f 31//2 26//2 22//2
f 22//17 32//17 27//17
f 27//18 32//18 22//18
f 21//2 27//2 30//2
f 30//1 27//1 21//1
f 23//2 25//2 33//2
f 33//1 25//1 23//1
f 28//15 23//15 34//15
f 34//16 23//16 28//16
f 35//1 19//1 28//1
f 28//2 19//2 35//2
f 29//1 19//1 35//1
f 35//2 19//2 29//2
f 33//19 24//19 29//19
f 29//20 24//20 33//20
f 24//19 33//19 25//19
f 25//20 33//20 24//20
f 30//21 36//21 26//21
f 26//22 36//22 30//22
f 31//1 26//1 37//1
f 37//2 26//2 31//2
f 32//17 22//17 31//17
f 31//18 22//18 32//18
f 30//2 27//2 32//2
f 32//1 27//1 30//1
f 23//2 33//2 38//2
f 38//1 33//1 23//1
f 23//2 38//2 34//2
f 34//1 38//1 23//1
f 34//23 39//23 28//23
f 28//24 39//24 34//24
f 35//1 28//1 40//1
f 40//2 28//2 35//2
f 38//25 29//25 35//25
f 35//26 29//26 38//26
f 29//25 38//25 33//25
f 33//26 38//26 29//26
f 36//21 30//21 41//21
f 41//22 30//22 36//22
f 37//1 26//1 36//1
f 36//2 26//2 37//2
f 37//27 32//27 31//27
f 31//28 32//28 37//28
f 30//2 32//2 42//2
f 42//1 32//1 30//1
f 34//2 38//2 43//2
f 43//1 38//1 34//1
f 39//23 34//23 44//23
f 44//24 34//24 39//24
f 39//1 45//1 28//1
f 28//2 45//2 39//2
f 40//1 28//1 45//1
f 45//2 28//2 40//2
f 43//29 35//29 40//29
f 40//30 35//30 43//30
f 35//29 43//29 38//29
f 38//30 43//30 35//30
f 30//2 42//2 41//2
f 41//1 42//1 30//1
f 46//31 36//31 41//31
f 41//32 36//32 46//32
f 37//1 36//1 47//1
f 47//2 36//2 37//2
f 32//27 37//27 42//27
f 42//28 37//28 32//28
f 34//2 43//2 48//2
f 48//1 43//1 34//1
f 48//2 44//2 34//2
f 34//1 44//1 48//1
f 44//33 49//33 39//33
f 39//34 49//34 44//34
f 45//1 39//1 50//1
f 50//2 39//2 45//2
f 40//1 45//1 51//1
f 51//2 45//2 40//2
f 51//35 43//35 40//35
f 40//36 43//36 51//36
f 41//2 42//2 52//2
f 52//1 42//1 41//1
f 36//31 46//31 53//31
f 53//32 46//32 36//32
f 41//2 54//2 46//2
f 46//1 54//1 41//1
f 47//1 36//1 55//1
f 55//2 36//2 47//2
f 47//37 42//37 37//37
f 37//38 42//38 47//38
f 48//2 43//2 56//2
f 56//1 43//1 48//1
f 44//2 48//2 57//2
f 57//1 48//1 44//1
f 49//33 44//33 58//33
f 58//34 44//34 49//34
f 50//1 39//1 49//1
f 49//2 39//2 50//2
f 57//39 45//39 50//39
f 50//40 45//40 57//40
f 51//1 45//1 59//1
f 59//2 45//2 51//2
f 43//35 51//35 56//35
f 56//36 51//36 43//36
f 42//37 47//37 52//37
f 52//38 47//38 42//38
f 41//2 52//2 60//2
f 60//1 52//1 41//1
f 61//41 53//41 46//41
f 46//42 53//42 61//42
f 62//1 36//1 53//1
f 53//2 36//2 62//2
f 41//2 60//2 54//2
f 54//1 60//1 41//1
f 46//2 54//2 63//2
f 63//1 54//1 46//1
f 55//1 36//1 62//1
f 62//2 36//2 55//2
f 55//1 64//1 47//1
f 47//2 64//2 55//2
f 48//2 56//2 65//2
f 65//1 56//1 48//1
f 45//39 57//39 48//39
f 48//40 57//40 45//40
f 44//2 57//2 58//2
f 58//1 57//1 44//1
f 66//43 49//43 58//43
f 58//44 49//44 66//44
f 50//1 49//1 67//1
f 67//2 49//2 50//2
f 50//45 68//45 57//45
f 57//46 68//46 50//46
f 48//47 59//47 45//47
f 45//48 59//48 48//48
f 51//1 59//1 69//1
f 69//2 59//2 51//2
f 69//49 56//49 51//49
f 51//50 56//50 69//50
f 64//51 52//51 47//51
f 47//52 52//52 64//52
f 70//2 60//2 52//2
f 52//1 60//1 70//1
f 53//41 61//41 71//41
f 71//42 61//42 53//42
f 46//2 63//2 61//2
f 61//1 63//1 46//1
f 62//1 53//1 72//1
f 72//2 53//2 62//2
f 55//53 54//53 60//53
f 60//54 54//54 55//54
f 54//55 72//55 63//55
f 63//56 72//56 54//56
f 54//53 55//53 62//53
f 62//54 55//54 54//54
f 67//1 64//1 55//1
f 55//2 64//2 67//2
f 65//2 56//2 73//2
f 73//1 56//1 65//1
f 59//47 48//47 65//47
f 65//48 48//48 59//48
f 58//2 57//2 68//2
f 68//1 57//1 58//1
f 49//43 66//43 74//43
f 74//44 66//44 49//44
f 58//2 68//2 66//2
f 66//1 68//1 58//1
f 67//1 49//1 74//1
f 74//2 49//2 67//2
f 68//45 50//45 67//45
f 67//46 50//46 68//46
f 69//1 59//1 75//1
f 75//2 59//2 69//2
f 56//49 69//49 73//49
f 73//50 69//50 56//50
f 52//51 64//51 70//51
f 70//52 64//52 52//52
f 70//2 68//2 60//2
f 60//1 68//1 70//1
f 76//57 71//57 61//57
f 61//58 71//58 76//58
f 72//1 53//1 71//1
f 71//2 53//2 72//2
f 61//2 63//2 77//2
f 77//1 63//1 61//1
f 72//55 54//55 62//55
f 62//56 54//56 72//56
f 60//59 67//59 55//59
f 55//60 67//60 60//60
f 78//61 63//61 72//61
f 72//62 63//62 78//62
f 67//1 74//1 64//1
f 64//2 74//2 67//2
f 65//2 73//2 79//2
f 79//1 73//1 65//1
f 79//63 59//63 65//63
f 65//64 59//64 79//64
f 70//65 74//65 66//65
f 66//66 74//66 70//66
f 66//2 68//2 70//2
f 70//1 68//1 66//1
f 67//59 60//59 68//59
f 68//60 60//60 67//60
f 59//63 79//63 75//63
f 75//64 79//64 59//64
f 69//1 75//1 80//1
f 80//2 75//2 69//2
f 69//6 81//6 73//6
f 73//5 81//5 69//5
f 74//65 70//65 64//65
f 64//66 70//66 74//66
f 71//57 76//57 82//57
f 82//58 76//58 71//58
f 61//2 83//2 76//2
f 76//1 83//1 61//1
f 72//1 71//1 78//1
f 78//2 71//2 72//2
f 63//61 78//61 77//61
f 77//62 78//62 63//62
f 61//2 77//2 83//2
f 83//1 77//1 61//1
f 79//2 73//2 84//2
f 84//1 73//1 79//1
f 84//67 75//67 79//67
f 79//68 75//68 84//68
f 75//67 84//67 80//67
f 80//68 84//68 75//68
f 69//1 80//1 85//1
f 85//2 80//2 69//2
f 81//6 69//6 85//6
f 85//5 69//5 81//5
f 84//2 73//2 81//2
f 81//1 73//1 84//1
f 83//69 82//69 76//69
f 76//70 82//70 83//70
f 86//1 71//1 82//1
f 82//2 71//2 86//2
f 78//1 71//1 86//1
f 86//2 71//2 78//2
f 86//71 77//71 78//71
f 78//72 77//72 86//72
f 77//71 86//71 83//71
f 83//72 86//72 77//72
f 81//73 80//73 84//73
f 84//74 80//74 81//74
f 80//73 81//73 85//73
f 85//74 81//74 80//74
f 82//69 83//69 86//69
f 86//70 83//70 82//70
