# SSTK version 0.8.0
# 163
mtllib original-163.mtl
o A1/A/mesh230/mesh230-geometry#mesh230-geometry
v -0.173466 -0.487023 0.102088
v -0.178859 -0.509166 0.102088
v -0.181970 -0.509166 0.102088
v -0.176427 -0.502460 0.102088
v -0.178859 -0.509166 0.103214
v -0.173466 -0.487023 0.103214
v -0.175581 -0.500073 0.102088
v -0.181970 -0.509166 0.103214
v -0.170309 -0.487023 0.102088
v -0.173149 -0.493578 0.102088
v -0.167167 -0.502460 0.102088
v -0.176427 -0.502460 0.103214
v -0.170309 -0.487023 0.103214
v -0.171956 -0.489349 0.102088
v -0.175581 -0.500073 0.103214
v -0.168074 -0.500073 0.102088
v -0.167167 -0.502460 0.103214
v -0.171956 -0.489349 0.103214
v -0.161246 -0.509166 0.103214
v -0.170385 -0.493941 0.102088
v -0.172466 -0.491471 0.102088
v -0.173149 -0.493578 0.103214
v -0.161246 -0.509166 0.102088
v -0.164585 -0.509166 0.102088
v -0.170385 -0.493941 0.103214
v -0.168074 -0.500073 0.103214
v -0.172466 -0.491471 0.103214
v -0.164585 -0.509166 0.103214
vn 0 0 -1
vn 0 0 1
vn 0 -1 0
vn 0 1 0
vn -0.9335259006840518 0.35850996185884426 0
vn 0.9335259006840518 -0.35850996185884426 0
vn 0.9401020903189026 -0.34089303275078836 0
vn -0.9401020903189026 0.34089303275078836 0
vn 0.9365080695919171 -0.35064602605650713 0
vn -0.9365080695919171 0.35064602605650713 0
vn 0.9254867799336151 0.37877990993201927 0
vn -0.9254867799336151 -0.37877990993201927 0
vn -0.9331828557798669 -0.3594019444556917 0
vn 0.9331828557798669 0.3594019444556917 0
vn -0.9461638882391281 -0.32368796176598014 0
vn 0.9461638882391281 0.32368796176598014 0
vn 0.9723402171425554 -0.23356905216052973 0
vn -0.9723402171425554 0.23356905216052973 0
vn 0.9512093824827964 -0.30854612406688425 0
vn -0.9512093824827964 0.30854612406688425 0
vn -0.935759842491045 -0.3526379406432815 0
vn 0.935759842491045 0.3526379406432815 0
usemtl material_0_0
f 1//1 2//1 3//1
f 2//1 1//1 4//1
f 3//2 2//2 1//2
f 4//2 1//2 2//2
f 5//3 3//3 2//3
f 2//4 3//4 5//4
f 3//5 6//5 1//5
f 1//6 6//6 3//6
f 4//1 1//1 7//1
f 7//2 1//2 4//2
f 4//7 5//7 2//7
f 2//8 5//8 4//8
f 3//3 5//3 8//3
f 8//4 5//4 3//4
f 6//5 3//5 8//5
f 8//6 3//6 6//6
f 6//4 9//4 1//4
f 1//3 9//3 6//3
f 7//1 1//1 10//1
f 10//2 1//2 7//2
f 7//1 11//1 4//1
f 4//2 11//2 7//2
f 5//7 4//7 12//7
f 12//8 4//8 5//8
f 5//2 6//2 8//2
f 8//1 6//1 5//1
f 9//4 6//4 13//4
f 13//3 6//3 9//3
f 14//1 1//1 9//1
f 9//2 1//2 14//2
f 10//1 1//1 14//1
f 14//2 1//2 10//2
f 10//9 15//9 7//9
f 7//10 15//10 10//10
f 11//1 7//1 16//1
f 16//2 7//2 11//2
f 17//3 4//3 11//3
f 11//4 4//4 17//4
f 4//3 17//3 12//3
f 12//4 17//4 4//4
f 6//2 5//2 12//2
f 12//1 5//1 6//1
f 6//2 18//2 13//2
f 13//1 18//1 6//1
f 19//11 9//11 13//11
f 13//12 9//12 19//12
f 14//1 9//1 20//1
f 20//2 9//2 14//2
f 10//1 14//1 21//1
f 21//2 14//2 10//2
f 15//9 10//9 22//9
f 22//10 10//10 15//10
f 15//4 16//4 7//4
f 7//3 16//3 15//3
f 16//1 23//1 11//1
f 11//2 23//2 16//2
f 24//13 17//13 11//13
f 11//14 17//14 24//14
f 17//2 15//2 12//2
f 12//1 15//1 17//1
f 6//2 12//2 15//2
f 15//1 12//1 6//1
f 6//2 22//2 18//2
f 18//1 22//1 6//1
f 13//2 18//2 25//2
f 25//1 18//1 13//1
f 9//11 19//11 23//11
f 23//12 19//12 9//12
f 13//2 26//2 19//2
f 19//1 26//1 13//1
f 20//1 9//1 16//1
f 16//2 9//2 20//2
f 20//15 18//15 14//15
f 14//16 18//16 20//16
f 14//17 27//17 21//17
f 21//18 27//18 14//18
f 21//19 22//19 10//19
f 10//20 22//20 21//20
f 6//2 15//2 22//2
f 22//1 15//1 6//1
f 16//4 15//4 26//4
f 26//3 15//3 16//3
f 16//1 9//1 23//1
f 23//2 9//2 16//2
f 11//1 23//1 24//1
f 24//2 23//2 11//2
f 17//13 24//13 28//13
f 28//14 24//14 17//14
f 15//2 17//2 26//2
f 26//1 17//1 15//1
f 18//2 22//2 27//2
f 27//1 22//1 18//1
f 18//15 20//15 25//15
f 25//16 20//16 18//16
f 13//2 25//2 26//2
f 26//1 25//1 13//1
f 19//3 24//3 23//3
f 23//4 24//4 19//4
f 19//2 26//2 17//2
f 17//1 26//1 19//1
f 16//21 25//21 20//21
f 20//22 25//22 16//22
f 27//17 14//17 18//17
f 18//18 14//18 27//18
f 22//19 21//19 27//19
f 27//20 21//20 22//20
f 25//21 16//21 26//21
f 26//22 16//22 25//22
f 24//3 19//3 28//3
f 28//4 19//4 24//4
f 19//2 17//2 28//2
f 28//1 17//1 19//1
