# SSTK version 0.8.0
# 86
mtllib original-86.mtl
o mesh121/mesh121-geometry#mesh121-geometry
v -0.198601 0.514571 0.102088
v -0.209862 0.525832 0.085197
v -0.209862 0.525832 0.102088
v -0.198601 0.514571 0.085197
v -0.108517 0.514571 0.102088
v -0.209862 0.570874 0.102088
v -0.108517 0.514571 0.085197
v -0.097257 0.525832 0.102088
v -0.209862 0.570874 0.085197
v -0.097257 0.570874 0.102088
v -0.097257 0.525832 0.085197
v -0.198601 0.582134 0.085197
v -0.097257 0.570874 0.085197
v -0.198601 0.582134 0.102088
v -0.108517 0.582134 0.102088
v -0.108517 0.582134 0.085197
vn 0.7071067811865476 0.7071067811865478 0
vn 0 1 0
vn 1 0 0
vn 0 0 -1
vn -1 0 0
vn -0.7071067811865478 0.7071067811865476 0
vn 0.7071067811865478 -0.7071067811865476 0
vn -0.7071067811865476 -0.7071067811865478 0
vn 0 -1 0
vn 0 0 1
usemtl material_0_0
f 1//1 2//1 3//1
f 2//1 1//1 4//1
f 5//2 4//2 1//2
f 2//3 6//3 3//3
f 3//4 5//4 1//4
f 4//2 5//2 7//2
f 6//4 8//4 3//4
f 3//4 8//4 5//4
f 6//3 2//3 9//3
f 10//5 11//5 8//5
f 8//6 7//6 5//6
f 7//6 8//6 11//6
f 6//4 10//4 8//4
f 12//7 6//7 9//7
f 11//5 10//5 13//5
f 14//4 10//4 6//4
f 6//7 12//7 14//7
f 15//8 13//8 10//8
f 10//4 14//4 15//4
f 16//9 14//9 12//9
f 13//8 15//8 16//8
f 14//9 16//9 15//9
usemtl material_1_0
f 3//8 2//8 1//8
f 4//8 1//8 2//8
f 1//9 4//9 5//9
f 3//5 6//5 2//5
f 1//10 5//10 3//10
f 7//9 5//9 4//9
f 3//10 8//10 6//10
f 5//10 8//10 3//10
f 9//5 2//5 6//5
f 8//3 11//3 10//3
f 5//7 7//7 8//7
f 11//7 8//7 7//7
f 8//10 10//10 6//10
f 9//6 6//6 12//6
f 13//3 10//3 11//3
f 6//10 10//10 14//10
f 14//6 12//6 6//6
f 10//1 13//1 15//1
f 15//10 14//10 10//10
f 12//2 14//2 16//2
f 16//1 15//1 13//1
f 15//2 16//2 14//2
