# SSTK version 0.8.0
# 195
mtllib original-195.mtl
o mesh167/mesh167-geometry/material_1#mesh167-geometry
v 0.105432 -0.442572 0.102088
v 0.094172 -0.431311 0.085197
v 0.094172 -0.431311 0.102088
v 0.094172 -0.431311 0.085197
v 0.105432 -0.442572 0.102088
v 0.105432 -0.442572 0.085197
v 0.094172 -0.431311 0.085197
v 0.094172 -0.386269 0.102088
v 0.094172 -0.431311 0.102088
v 0.094172 -0.431311 0.102088
v 0.195516 -0.442572 0.102088
v 0.105432 -0.442572 0.102088
v 0.195516 -0.442572 0.102088
v 0.105432 -0.442572 0.085197
v 0.105432 -0.442572 0.102088
v 0.094172 -0.386269 0.102088
v 0.094172 -0.431311 0.085197
v 0.094172 -0.386269 0.085197
v 0.094172 -0.386269 0.102088
v 0.206777 -0.431311 0.102088
v 0.094172 -0.431311 0.102088
v 0.094172 -0.431311 0.102088
v 0.206777 -0.431311 0.102088
v 0.195516 -0.442572 0.102088
v 0.105432 -0.442572 0.085197
v 0.195516 -0.442572 0.102088
v 0.150474 -0.442572 0.085197
v 0.105432 -0.375008 0.085197
v 0.094172 -0.386269 0.102088
v 0.094172 -0.386269 0.085197
v 0.094172 -0.386269 0.102088
v 0.206777 -0.386269 0.102088
v 0.206777 -0.431311 0.102088
v 0.206777 -0.431311 0.102088
v 0.195516 -0.442572 0.085197
v 0.195516 -0.442572 0.102088
v 0.150474 -0.442572 0.085197
v 0.195516 -0.442572 0.102088
v 0.195516 -0.442572 0.085197
v 0.195516 -0.442572 0.085197
v 0.206777 -0.431311 0.102088
v 0.206777 -0.431311 0.085197
v 0.094172 -0.386269 0.102088
v 0.105432 -0.375008 0.085197
v 0.105432 -0.375008 0.102088
v 0.105432 -0.375008 0.102088
v 0.206777 -0.386269 0.102088
v 0.094172 -0.386269 0.102088
v 0.206777 -0.386269 0.102088
v 0.206777 -0.431311 0.085197
v 0.206777 -0.431311 0.102088
v 0.206777 -0.431311 0.085197
v 0.206777 -0.386269 0.102088
v 0.206777 -0.386269 0.085197
v 0.195516 -0.375008 0.085197
v 0.105432 -0.375008 0.102088
v 0.105432 -0.375008 0.085197
v 0.206777 -0.386269 0.102088
v 0.105432 -0.375008 0.102088
v 0.195516 -0.375008 0.102088
v 0.195516 -0.375008 0.102088
v 0.206777 -0.386269 0.085197
v 0.206777 -0.386269 0.102088
v 0.105432 -0.375008 0.102088
v 0.195516 -0.375008 0.085197
v 0.195516 -0.375008 0.102088
v 0.206777 -0.386269 0.085197
v 0.195516 -0.375008 0.102088
v 0.195516 -0.375008 0.085197
v 0.094172 -0.431311 0.102088
v 0.094172 -0.431311 0.085197
v 0.105432 -0.442572 0.102088
v 0.105432 -0.442572 0.085197
v 0.105432 -0.442572 0.102088
v 0.094172 -0.431311 0.085197
v 0.094172 -0.431311 0.102088
v 0.094172 -0.386269 0.102088
v 0.094172 -0.431311 0.085197
v 0.105432 -0.442572 0.102088
v 0.195516 -0.442572 0.102088
v 0.094172 -0.431311 0.102088
v 0.105432 -0.442572 0.102088
v 0.105432 -0.442572 0.085197
v 0.195516 -0.442572 0.102088
v 0.094172 -0.386269 0.085197
v 0.094172 -0.431311 0.085197
v 0.094172 -0.386269 0.102088
v 0.094172 -0.431311 0.102088
v 0.206777 -0.431311 0.102088
v 0.094172 -0.386269 0.102088
v 0.195516 -0.442572 0.102088
v 0.206777 -0.431311 0.102088
v 0.094172 -0.431311 0.102088
v 0.150474 -0.442572 0.085197
v 0.195516 -0.442572 0.102088
v 0.105432 -0.442572 0.085197
v 0.094172 -0.386269 0.085197
v 0.094172 -0.386269 0.102088
v 0.105432 -0.375008 0.085197
v 0.206777 -0.431311 0.102088
v 0.206777 -0.386269 0.102088
v 0.094172 -0.386269 0.102088
v 0.195516 -0.442572 0.102088
v 0.195516 -0.442572 0.085197
v 0.206777 -0.431311 0.102088
v 0.195516 -0.442572 0.085197
v 0.195516 -0.442572 0.102088
v 0.150474 -0.442572 0.085197
v 0.206777 -0.431311 0.085197
v 0.206777 -0.431311 0.102088
v 0.195516 -0.442572 0.085197
v 0.105432 -0.375008 0.102088
v 0.105432 -0.375008 0.085197
v 0.094172 -0.386269 0.102088
v 0.094172 -0.386269 0.102088
v 0.206777 -0.386269 0.102088
v 0.105432 -0.375008 0.102088
v 0.206777 -0.431311 0.102088
v 0.206777 -0.431311 0.085197
v 0.206777 -0.386269 0.102088
v 0.206777 -0.386269 0.085197
v 0.206777 -0.386269 0.102088
v 0.206777 -0.431311 0.085197
v 0.105432 -0.375008 0.085197
v 0.105432 -0.375008 0.102088
v 0.195516 -0.375008 0.085197
v 0.195516 -0.375008 0.102088
v 0.105432 -0.375008 0.102088
v 0.206777 -0.386269 0.102088
v 0.206777 -0.386269 0.102088
v 0.206777 -0.386269 0.085197
v 0.195516 -0.375008 0.102088
v 0.195516 -0.375008 0.102088
v 0.195516 -0.375008 0.085197
v 0.105432 -0.375008 0.102088
v 0.195516 -0.375008 0.085197
v 0.195516 -0.375008 0.102088
v 0.206777 -0.386269 0.085197
vn 0.7071067811865475 0.7071067811865477 0
vn 1 0 0
vn 0 0 -1
vn 0 1 0
vn 0.7071067811865477 -0.7071067811865475 0
vn -0.7071067811865477 0.7071067811865475 0
vn -1 0 0
vn 0 -1 0
vn -0.7071067811865475 -0.7071067811865477 0
vn 0 0 1
usemtl material_0_0
f 1//1 2//1 3//1
f 4//1 5//1 6//1
f 7//2 8//2 9//2
f 10//3 11//3 12//3
f 13//4 14//4 15//4
f 16//2 17//2 18//2
f 19//3 20//3 21//3
f 22//3 23//3 24//3
f 25//4 26//4 27//4
f 28//5 29//5 30//5
f 31//3 32//3 33//3
f 34//6 35//6 36//6
f 37//4 38//4 39//4
f 40//6 41//6 42//6
f 43//5 44//5 45//5
f 46//3 47//3 48//3
f 49//7 50//7 51//7
f 52//7 53//7 54//7
f 55//8 56//8 57//8
f 58//3 59//3 60//3
f 61//9 62//9 63//9
f 64//8 65//8 66//8
f 67//9 68//9 69//9
usemtl material_1_0
f 70//9 71//9 72//9
f 73//9 74//9 75//9
f 76//7 77//7 78//7
f 79//10 80//10 81//10
f 82//8 83//8 84//8
f 85//7 86//7 87//7
f 88//10 89//10 90//10
f 91//10 92//10 93//10
f 94//8 95//8 96//8
f 97//6 98//6 99//6
f 100//10 101//10 102//10
f 103//5 104//5 105//5
f 106//8 107//8 108//8
f 109//5 110//5 111//5
f 112//6 113//6 114//6
f 115//10 116//10 117//10
f 118//2 119//2 120//2
f 121//2 122//2 123//2
f 124//4 125//4 126//4
f 127//10 128//10 129//10
f 130//1 131//1 132//1
f 133//4 134//4 135//4
f 136//1 137//1 138//1
