# SSTK version 0.8.0
# 6
mtllib original-6.mtl
o mesh6/mesh6-geometry#mesh6-geometry
v -0.097257 0.672218 0.085197
v -0.198601 0.683479 0.085197
v -0.108517 0.683479 0.085197
v -0.209862 0.672218 0.085197
v -0.097257 0.627176 0.085197
v -0.108517 0.683479 0.102088
v -0.097257 0.672218 0.102088
v -0.198601 0.683479 0.102088
v -0.209862 0.627176 0.085197
v -0.209862 0.672218 0.102088
v -0.097257 0.627176 0.102088
v -0.108517 0.615916 0.085197
v -0.198601 0.615916 0.085197
v -0.198601 0.615916 0.102088
v -0.209862 0.627176 0.102088
v -0.108517 0.615916 0.102088
vn 0 0 -1
vn 0 1 0
vn 0.7071067811865476 0.7071067811865478 0
vn -0.7071067811865478 0.7071067811865476 0
vn 1 0 0
vn -1 0 0
vn 0 -1 0
vn 0 0 1
vn 0.7071067811865478 -0.7071067811865476 0
vn -0.7071067811865476 -0.7071067811865478 0
usemtl material_0_0
f 1//1 2//1 3//1
f 2//1 1//1 4//1
f 4//1 1//1 5//1
f 2//2 6//2 3//2
f 3//3 7//3 1//3
f 4//4 8//4 2//4
f 7//5 5//5 1//5
f 4//1 5//1 9//1
f 6//2 2//2 8//2
f 7//3 3//3 6//3
f 8//4 4//4 10//4
f 9//6 10//6 4//6
f 5//5 7//5 11//5
f 9//1 5//1 12//1
f 9//1 12//1 13//1
f 12//7 14//7 13//7
f 10//8 6//8 8//8
f 6//8 10//8 7//8
f 7//8 10//8 15//8
f 10//6 9//6 15//6
f 7//8 15//8 11//8
f 5//9 16//9 12//9
f 16//9 5//9 11//9
f 14//7 12//7 16//7
f 13//10 15//10 9//10
f 15//10 13//10 14//10
f 11//8 15//8 14//8
f 11//8 14//8 16//8
usemtl material_1_0
f 3//8 2//8 1//8
f 4//8 1//8 2//8
f 5//8 1//8 4//8
f 3//7 6//7 2//7
f 1//10 7//10 3//10
f 2//9 8//9 4//9
f 1//6 5//6 7//6
f 9//8 5//8 4//8
f 8//7 2//7 6//7
f 6//10 3//10 7//10
f 10//9 4//9 8//9
f 4//5 10//5 9//5
f 11//6 7//6 5//6
f 12//8 5//8 9//8
f 13//8 12//8 9//8
f 13//2 14//2 12//2
f 8//1 6//1 10//1
f 7//1 10//1 6//1
f 15//1 10//1 7//1
f 15//5 9//5 10//5
f 11//1 15//1 7//1
f 12//4 16//4 5//4
f 11//4 5//4 16//4
f 16//2 12//2 14//2
f 9//3 15//3 13//3
f 14//3 13//3 15//3
f 14//1 15//1 11//1
f 16//1 14//1 11//1
