# SSTK version 0.8.0
# 72
mtllib original-72.mtl
o mesh100/mesh100-geometry#mesh100-geometry
v 0.103998 -0.041674 0.102088
v 0.104230 -0.047654 0.102088
v 0.104019 -0.049969 0.102088
v 0.105045 -0.040724 0.102088
v 0.104019 -0.049969 0.103214
v 0.103119 -0.057300 0.102088
v 0.103998 -0.041674 0.103214
v 0.104865 -0.045513 0.102088
v 0.104230 -0.047654 0.103214
v 0.104274 -0.052688 0.103214
v 0.103100 -0.042805 0.102088
v 0.104043 -0.058388 0.102088
v 0.105045 -0.040724 0.103214
v 0.105463 -0.044369 0.102088
v 0.104274 -0.052688 0.102088
v 0.104043 -0.058388 0.103214
v 0.102357 -0.056056 0.102088
v 0.103119 -0.057300 0.103214
v 0.106239 -0.039955 0.102088
v 0.103100 -0.042805 0.103214
v 0.104865 -0.045513 0.103214
v 0.105038 -0.054923 0.103214
v 0.105131 -0.059320 0.103214
v 0.102350 -0.044116 0.102088
v 0.102357 -0.056056 0.103214
v 0.105131 -0.059320 0.102088
v 0.106239 -0.039955 0.103214
v 0.106262 -0.043323 0.102088
v 0.105463 -0.044369 0.103214
v 0.105038 -0.054923 0.102088
v 0.101763 -0.054696 0.102088
v 0.101763 -0.054696 0.103214
v 0.107556 -0.039360 0.102088
v 0.102350 -0.044116 0.103214
v 0.105606 -0.055856 0.103214
v 0.101758 -0.045544 0.102088
v 0.105606 -0.055856 0.102088
v 0.106383 -0.060096 0.103214
v 0.106262 -0.043323 0.103214
v 0.107556 -0.039360 0.103214
v 0.107302 -0.042422 0.102088
v 0.101338 -0.053258 0.102088
v 0.101338 -0.053258 0.103214
v 0.101758 -0.045544 0.103214
v 0.106383 -0.060096 0.102088
v 0.108969 -0.038935 0.102088
v 0.108626 -0.041714 0.102088
v 0.107302 -0.042422 0.103214
v 0.106290 -0.056660 0.103214
v 0.101336 -0.047025 0.102088
v 0.106290 -0.056660 0.102088
v 0.107753 -0.060708 0.103214
v 0.108969 -0.038935 0.103214
v 0.108626 -0.041714 0.103214
v 0.107090 -0.057336 0.103214
v 0.101083 -0.051743 0.102088
v 0.101083 -0.051743 0.103214
v 0.101336 -0.047025 0.103214
v 0.107090 -0.057336 0.102088
v 0.107753 -0.060708 0.102088
v 0.110479 -0.038680 0.102088
v 0.110227 -0.041255 0.102088
v 0.110227 -0.041255 0.103214
v 0.101082 -0.048561 0.102088
v 0.109198 -0.061144 0.103214
v 0.108006 -0.057883 0.103214
v 0.110479 -0.038680 0.103214
v 0.108006 -0.057883 0.102088
v 0.100998 -0.050150 0.102088
v 0.100998 -0.050150 0.103214
v 0.101082 -0.048561 0.103214
v 0.109198 -0.061144 0.102088
v 0.112085 -0.038595 0.102088
v 0.112100 -0.041102 0.102088
v 0.112100 -0.041102 0.103214
v 0.110717 -0.061406 0.103214
v 0.110015 -0.058609 0.103214
v 0.110015 -0.058609 0.102088
v 0.112085 -0.038595 0.103214
v 0.110717 -0.061406 0.102088
v 0.114371 -0.038790 0.102088
v 0.113701 -0.041248 0.103214
v 0.112311 -0.061494 0.103214
v 0.112145 -0.058850 0.103214
v 0.112145 -0.058850 0.102088
v 0.114371 -0.038790 0.103214
v 0.113701 -0.041248 0.102088
v 0.112311 -0.061494 0.102088
v 0.116427 -0.039373 0.102088
v 0.115151 -0.041684 0.102088
v 0.115151 -0.041684 0.103214
v 0.114698 -0.061277 0.103214
v 0.114025 -0.058667 0.103214
v 0.114025 -0.058667 0.102088
v 0.116427 -0.039373 0.103214
v 0.114698 -0.061277 0.102088
v 0.118158 -0.040304 0.102088
v 0.116367 -0.042362 0.102088
v 0.116367 -0.042362 0.103214
v 0.117024 -0.060625 0.103214
v 0.115861 -0.058118 0.103214
v 0.115861 -0.058118 0.102088
v 0.118158 -0.040304 0.103214
v 0.117265 -0.043232 0.102088
v 0.117265 -0.043232 0.103214
v 0.117024 -0.060625 0.102088
v 0.119471 -0.041540 0.102088
v 0.117945 -0.044380 0.102088
v 0.119286 -0.059543 0.103214
v 0.117454 -0.057361 0.103214
v 0.117454 -0.057361 0.102088
v 0.117945 -0.044380 0.103214
v 0.119471 -0.041540 0.103214
v 0.118504 -0.045891 0.102088
v 0.119286 -0.059543 0.102088
v 0.118504 -0.045891 0.103214
v 0.120441 -0.043141 0.103214
v 0.121147 -0.045165 0.102088
v 0.121480 -0.058035 0.103214
v 0.118610 -0.056554 0.103214
v 0.118610 -0.056554 0.102088
v 0.121147 -0.045165 0.103214
v 0.120441 -0.043141 0.102088
v 0.121480 -0.058035 0.102088
v 0.121480 -0.049818 0.103214
v 0.118610 -0.052431 0.103214
v 0.121480 -0.049818 0.102088
v 0.118610 -0.052431 0.102088
v 0.112100 -0.049833 0.103214
v 0.112100 -0.052431 0.102088
v 0.112100 -0.052431 0.103214
v 0.112100 -0.049833 0.102088
vn 0 0 -1
vn 0 0 1
vn 0.9958531751536595 -0.09097501600096015 0
vn -0.9958531751536595 0.09097501600096015 0
vn -0.6722239101640026 0.7403479010599131 0
vn 0.6722239101640026 -0.7403479010599131 0
vn 0.9956341970176077 0.09334101847046256 0
vn -0.9956341970176077 -0.09334101847046256 0
vn -0.7829378740080816 0.622099899890448 0
vn 0.7829378740080816 -0.622099899890448 0
vn 0.9587981934145439 -0.28408805730795317 0
vn -0.9587981934145439 0.28408805730795317 0
vn -0.7619802741605519 -0.6476002330066056 0
vn 0.7619802741605519 0.6476002330066056 0
vn -0.5416803565731292 0.8405845533334573 0
vn 0.5416803565731292 -0.8405845533334573 0
vn 0.8860890570880616 -0.46351502986288384 0
vn -0.8860890570880616 0.46351502986288384 0
vn 0.9461768874858554 0.323649961513329 0
vn -0.9461768874858554 -0.323649961513329 0
vn -0.8528898446115868 -0.5220909048800056 0
vn 0.8528898446115868 0.5220909048800056 0
vn -0.8679542565447493 0.49664414679511865 0
vn 0.8679542565447493 -0.49664414679511865 0
vn -0.6506558101825817 -0.7593727784663132 0
vn 0.6506558101825817 0.7593727784663132 0
vn -0.9162595051770688 -0.4005852208615207 0
vn 0.9162595051770688 0.4005852208615207 0
vn -0.41158680280675203 0.9113705633579109 0
vn 0.41158680280675203 -0.9113705633579109 0
vn 0.794805804425339 -0.6068638506714581 0
vn -0.794805804425339 0.6068638506714581 0
vn 0.8541566494093399 0.5200157865582642 0
vn -0.8541566494093399 -0.5200157865582642 0
vn -0.5272588312492563 -0.8497047280494964 0
vn 0.5272588312492563 0.8497047280494964 0
vn -0.9238792538372458 0.3826841051430464 0
vn 0.9238792538372458 -0.3826841051430464 0
vn -0.9590139160493639 -0.28335897519518144 0
vn 0.9590139160493639 0.28335897519518144 0
vn -0.28787591513419275 0.9576677176795985 0
vn 0.28787591513419275 -0.9576677176795985 0
vn 0.6545128750633218 -0.7560508556812462 0
vn -0.6545128750633218 0.7560508556812462 0
vn 0.7618070275526561 0.6478040234294524 0
vn -0.7618070275526561 -0.6478040234294524 0
vn -0.4073929799444515 -0.9132529550414714 0
vn 0.4073929799444515 0.9132529550414714 0
vn -0.9616741056394253 0.2741950301201886 0
vn 0.9616741056394253 -0.2741950301201886 0
vn 0.47169807056509333 -0.881760131909562 0
vn -0.47169807056509333 0.881760131909562 0
vn -0.9861437652065934 -0.165892960502135 0
vn 0.9861437652065934 0.165892960502135 0
vn -0.16649893816521963 0.986041633801461 0
vn 0.16649893816521963 -0.986041633801461 0
vn 0.27546991226284684 -0.9613096938229112 0
vn -0.27546991226284684 0.9613096938229112 0
vn 0.645355975263506 0.7638819707204045 0
vn -0.645355975263506 -0.7638819707204045 0
vn -0.2892698746877389 -0.9572475853185214 0
vn 0.2892698746877389 0.9572475853185214 0
vn -0.9866468803764727 0.1628739802527526 0
vn 0.9866468803764727 -0.1628739802527526 0
vn 0.5129990899487553 0.8583891505091086 0
vn -0.5129990899487553 -0.8583891505091086 0
vn -0.9985799855560399 -0.053272999229432696 0
vn 0.9985799855560399 0.053272999229432696 0
vn -0.05283601071237018 0.9986032024643234 0
vn 0.05283601071237018 -0.9986032024643234 0
vn 0.08138199868108265 -0.9966829838472574 0
vn -0.08138199868108265 0.9966829838472574 0
vn -0.9985898383063493 0.053087991403886946 0
vn 0.9985898383063493 -0.053087991403886946 0
vn -0.16990701696954913 -0.985460098423325 0
vn 0.16990701696954913 0.985460098423325 0
vn 0.3394708471481935 0.9406165764733726 0
vn -0.3394708471481935 -0.9406165764733726 0
vn 0.08474803520823955 0.9964024139514833 0
vn -0.08474803520823955 -0.9964024139514833 0
vn -0.09042998325648322 -0.9959028156041292 0
vn 0.09042998325648322 0.9959028156041292 0
vn -0.05469999094690609 -0.9985028347433011 0
vn 0.05469999094690609 0.9985028347433011 0
vn 0.11275201806101433 0.9936231591620479 0
vn -0.11275201806101433 -0.9936231591620479 0
vn 0.27297106888084577 0.9620222427543182 0
vn -0.27297106888084577 -0.9620222427543182 0
vn -0.2880340504699068 -0.9576201677961358 0
vn 0.2880340504699068 0.9576201677961358 0
vn 0.09060697529972643 -0.9958867285123518 0
vn -0.09060697529972643 0.9958867285123518 0
vn -0.09693101001093829 0.9952911027926751 0
vn 0.09693101001093829 -0.9952911027926751 0
vn 0.47352712629680427 0.880779234917065 0
vn -0.47352712629680427 -0.880779234917065 0
vn -0.48690887401477967 -0.8734527739984912 0
vn 0.48690887401477967 0.8734527739984912 0
vn 0.26965896842064446 -0.9629558872296871 0
vn -0.26965896842064446 0.9629558872296871 0
vn -0.2868049953901834 0.9579889846022434 0
vn 0.2868049953901834 -0.9579889846022434 0
vn 0.6858540818097085 0.7277390868058151 0
vn -0.6858540818097085 -0.7277390868058151 0
vn -0.6956981938354578 -0.7183342001423028 0
vn 0.6956981938354578 0.7183342001423028 0
vn 0.43148221251259294 -0.9021214443107078 0
vn -0.43148221251259294 0.9021214443107078 0
vn -0.42914403338054086 0.9032360702573173 0
vn 0.42914403338054086 -0.9032360702573173 0
vn -0.8604752909745015 -0.5094921722876093 0
vn 0.8604752909745015 0.5094921722876093 0
vn 0.8551709936046038 0.5183459961235494 0
vn -0.8551709936046038 -0.5183459961235494 0
vn -0.9378618231544465 -0.347008934567134 0
vn 0.9378618231544465 0.347008934567134 0
vn 0.5665887895344008 -0.824000693915935 0
vn -0.5665887895344008 0.824000693915935 0
vn -0.5722030097981184 0.8201120140431883 0
vn 0.5722030097981184 -0.8201120140431883 0
vn 0.2645160757287149 -0.9643812760942017 0
vn -0.2645160757287149 0.9643812760942017 0
vn 0.9441872925800826 0.32940910207566126 0
vn -0.9441872925800826 -0.32940910207566126 0
vn 1 0 0
vn -1 0 0
vn -0.0016099995233589068 0.9999987039499275 0
vn 0.0016099995233589068 -0.9999987039499275 0
vn 0 -1 0
vn 0 1 0
usemtl material_0_0
f 1//1 2//1 3//1
f 2//1 1//1 4//1
f 3//2 2//2 1//2
f 4//2 1//2 2//2
f 2//3 5//3 3//3
f 3//4 5//4 2//4
f 6//1 1//1 3//1
f 3//2 1//2 6//2
f 7//5 4//5 1//5
f 1//6 4//6 7//6
f 2//1 4//1 8//1
f 8//2 4//2 2//2
f 5//3 2//3 9//3
f 9//4 2//4 5//4
f 10//7 3//7 5//7
f 5//8 3//8 10//8
f 6//1 11//1 1//1
f 1//2 11//2 6//2
f 6//1 3//1 12//1
f 12//2 3//2 6//2
f 4//5 7//5 13//5
f 13//6 7//6 4//6
f 11//9 7//9 1//9
f 1//10 7//10 11//10
f 8//1 4//1 14//1
f 14//2 4//2 8//2
f 8//11 9//11 2//11
f 2//12 9//12 8//12
f 9//2 7//2 5//2
f 5//1 7//1 9//1
f 3//7 10//7 15//7
f 15//8 10//8 3//8
f 5//2 16//2 10//2
f 10//1 16//1 5//1
f 17//1 11//1 6//1
f 6//2 11//2 17//2
f 12//1 3//1 15//1
f 15//2 3//2 12//2
f 12//13 18//13 6//13
f 6//14 18//14 12//14
f 7//2 9//2 13//2
f 13//1 9//1 7//1
f 13//15 19//15 4//15
f 4//16 19//16 13//16
f 7//9 11//9 20//9
f 20//10 11//10 7//10
f 14//1 4//1 19//1
f 19//2 4//2 14//2
f 14//17 21//17 8//17
f 8//18 21//18 14//18
f 9//11 8//11 21//11
f 21//12 8//12 9//12
f 7//2 18//2 5//2
f 5//1 18//1 7//1
f 22//19 15//19 10//19
f 10//20 15//20 22//20
f 5//2 18//2 16//2
f 16//1 18//1 5//1
f 10//2 16//2 23//2
f 23//1 16//1 10//1
f 17//1 24//1 11//1
f 11//2 24//2 17//2
f 6//21 25//21 17//21
f 17//22 25//22 6//22
f 12//1 15//1 26//1
f 26//2 15//2 12//2
f 18//13 12//13 16//13
f 16//14 12//14 18//14
f 25//21 6//21 18//21
f 18//22 6//22 25//22
f 13//2 9//2 21//2
f 21//1 9//1 13//1
f 19//15 13//15 27//15
f 27//16 13//16 19//16
f 24//23 20//23 11//23
f 11//24 20//24 24//24
f 20//2 18//2 7//2
f 7//1 18//1 20//1
f 14//1 19//1 28//1
f 28//2 19//2 14//2
f 21//17 14//17 29//17
f 29//18 14//18 21//18
f 15//19 22//19 30//19
f 30//20 22//20 15//20
f 10//2 23//2 22//2
f 22//1 23//1 10//1
f 12//25 23//25 16//25
f 16//26 23//26 12//26
f 31//1 24//1 17//1
f 17//2 24//2 31//2
f 32//27 17//27 25//27
f 25//28 17//28 32//28
f 26//1 15//1 30//1
f 30//2 15//2 26//2
f 23//25 12//25 26//25
f 26//26 12//26 23//26
f 20//2 25//2 18//2
f 18//1 25//1 20//1
f 13//2 21//2 29//2
f 29//1 21//1 13//1
f 13//2 29//2 27//2
f 27//1 29//1 13//1
f 27//29 33//29 19//29
f 19//30 33//30 27//30
f 20//23 24//23 34//23
f 34//24 24//24 20//24
f 28//1 19//1 33//1
f 33//2 19//2 28//2
f 28//31 29//31 14//31
f 14//32 29//32 28//32
f 35//33 30//33 22//33
f 22//34 30//34 35//34
f 22//2 23//2 35//2
f 35//1 23//1 22//1
f 31//1 36//1 24//1
f 24//2 36//2 31//2
f 17//27 32//27 31//27
f 31//28 32//28 17//28
f 34//2 32//2 25//2
f 25//1 32//1 34//1
f 26//1 30//1 37//1
f 37//2 30//2 26//2
f 26//35 38//35 23//35
f 23//36 38//36 26//36
f 34//2 25//2 20//2
f 20//1 25//1 34//1
f 27//2 29//2 39//2
f 39//1 29//1 27//1
f 33//29 27//29 40//29
f 40//30 27//30 33//30
f 36//37 34//37 24//37
f 24//38 34//38 36//38
f 28//1 33//1 41//1
f 41//2 33//2 28//2
f 29//31 28//31 39//31
f 39//32 28//32 29//32
f 30//33 35//33 37//33
f 37//34 35//34 30//34
f 35//2 23//2 38//2
f 38//1 23//1 35//1
f 42//1 36//1 31//1
f 31//2 36//2 42//2
f 43//39 31//39 32//39
f 32//40 31//40 43//40
f 44//2 32//2 34//2
f 34//1 32//1 44//1
f 26//1 37//1 45//1
f 45//2 37//2 26//2
f 38//35 26//35 45//35
f 45//36 26//36 38//36
f 27//2 39//2 40//2
f 40//1 39//1 27//1
f 40//41 46//41 33//41
f 33//42 46//42 40//42
f 34//37 36//37 44//37
f 44//38 36//38 34//38
f 41//1 33//1 47//1
f 47//2 33//2 41//2
f 48//43 28//43 41//43
f 41//44 28//44 48//44
f 28//43 48//43 39//43
f 39//44 48//44 28//44
f 49//45 37//45 35//45
f 35//46 37//46 49//46
f 35//2 38//2 49//2
f 49//1 38//1 35//1
f 42//1 50//1 36//1
f 36//2 50//2 42//2
f 31//39 43//39 42//39
f 42//40 43//40 31//40
f 44//2 43//2 32//2
f 32//1 43//1 44//1
f 45//1 37//1 51//1
f 51//2 37//2 45//2
f 45//47 52//47 38//47
f 38//48 52//48 45//48
f 40//2 39//2 48//2
f 48//1 39//1 40//1
f 46//41 40//41 53//41
f 53//42 40//42 46//42
f 47//1 33//1 46//1
f 46//2 33//2 47//2
f 50//49 44//49 36//49
f 36//50 44//50 50//50
f 54//51 41//51 47//51
f 47//52 41//52 54//52
f 41//51 54//51 48//51
f 48//52 54//52 41//52
f 37//45 49//45 51//45
f 51//46 49//46 37//46
f 49//2 38//2 55//2
f 55//1 38//1 49//1
f 56//1 50//1 42//1
f 42//2 50//2 56//2
f 57//53 42//53 43//53
f 43//54 42//54 57//54
f 58//2 43//2 44//2
f 44//1 43//1 58//1
f 45//1 51//1 59//1
f 59//2 51//2 45//2
f 52//47 45//47 60//47
f 60//48 45//48 52//48
f 55//2 38//2 52//2
f 52//1 38//1 55//1
f 40//2 48//2 54//2
f 54//1 48//1 40//1
f 40//2 54//2 53//2
f 53//1 54//1 40//1
f 53//55 61//55 46//55
f 46//56 61//56 53//56
f 47//1 46//1 62//1
f 62//2 46//2 47//2
f 44//49 50//49 58//49
f 58//50 50//50 44//50
f 47//57 63//57 54//57
f 54//58 63//58 47//58
f 49//59 59//59 51//59
f 51//60 59//60 49//60
f 59//59 49//59 55//59
f 55//60 49//60 59//60
f 56//1 64//1 50//1
f 50//2 64//2 56//2
f 42//53 57//53 56//53
f 56//54 57//54 42//54
f 58//2 57//2 43//2
f 43//1 57//1 58//1
f 45//1 59//1 60//1
f 60//2 59//2 45//2
f 60//61 65//61 52//61
f 52//62 65//62 60//62
f 55//2 52//2 66//2
f 66//1 52//1 55//1
f 53//2 54//2 63//2
f 63//1 54//1 53//1
f 61//55 53//55 67//55
f 67//56 53//56 61//56
f 62//1 46//1 61//1
f 61//2 46//2 62//2
f 63//57 47//57 62//57
f 62//58 47//58 63//58
f 64//63 58//63 50//63
f 50//64 58//64 64//64
f 55//65 68//65 59//65
f 59//66 68//66 55//66
f 64//1 56//1 69//1
f 69//2 56//2 64//2
f 70//67 56//67 57//67
f 57//68 56//68 70//68
f 71//2 57//2 58//2
f 58//1 57//1 71//1
f 60//1 59//1 68//1
f 68//2 59//2 60//2
f 65//61 60//61 72//61
f 72//62 60//62 65//62
f 66//2 52//2 65//2
f 65//1 52//1 66//1
f 68//65 55//65 66//65
f 66//66 55//66 68//66
f 53//2 63//2 67//2
f 67//1 63//1 53//1
f 67//69 73//69 61//69
f 61//70 73//70 67//70
f 62//1 61//1 74//1
f 74//2 61//2 62//2
f 62//71 75//71 63//71
f 63//72 75//72 62//72
f 58//63 64//63 71//63
f 71//64 64//64 58//64
f 56//67 70//67 69//67
f 69//68 70//68 56//68
f 69//73 71//73 64//73
f 64//74 71//74 69//74
f 57//2 71//2 70//2
f 70//1 71//1 57//1
f 60//1 68//1 72//1
f 72//2 68//2 60//2
f 72//75 76//75 65//75
f 65//76 76//76 72//76
f 66//2 65//2 77//2
f 77//1 65//1 66//1
f 66//77 78//77 68//77
f 68//78 78//78 66//78
f 67//2 63//2 75//2
f 75//1 63//1 67//1
f 73//69 67//69 79//69
f 79//70 67//70 73//70
f 74//1 61//1 73//1
f 73//2 61//2 74//2
f 75//71 62//71 74//71
f 74//72 62//72 75//72
f 71//73 69//73 70//73
f 70//74 69//74 71//74
f 72//1 68//1 78//1
f 78//2 68//2 72//2
f 76//75 72//75 80//75
f 80//76 72//76 76//76
f 77//2 65//2 76//2
f 76//1 65//1 77//1
f 78//77 66//77 77//77
f 77//78 66//78 78//78
f 67//2 75//2 79//2
f 79//1 75//1 67//1
f 79//79 81//79 73//79
f 73//80 81//80 79//80
f 74//1 73//1 81//1
f 81//2 73//2 74//2
f 74//81 82//81 75//81
f 75//82 82//82 74//82
f 72//1 78//1 80//1
f 80//2 78//2 72//2
f 80//83 83//83 76//83
f 76//84 83//84 80//84
f 77//2 76//2 84//2
f 84//1 76//1 77//1
f 77//85 85//85 78//85
f 78//86 85//86 77//86
f 79//2 75//2 86//2
f 86//1 75//1 79//1
f 81//79 79//79 86//79
f 86//80 79//80 81//80
f 74//1 81//1 87//1
f 87//2 81//2 74//2
f 82//81 74//81 87//81
f 87//82 74//82 82//82
f 86//2 75//2 82//2
f 82//1 75//1 86//1
f 80//1 78//1 85//1
f 85//2 78//2 80//2
f 83//83 80//83 88//83
f 88//84 80//84 83//84
f 84//2 76//2 83//2
f 83//1 76//1 84//1
f 85//85 77//85 84//85
f 84//86 77//86 85//86
f 86//87 89//87 81//87
f 81//88 89//88 86//88
f 87//1 81//1 90//1
f 90//2 81//2 87//2
f 87//89 91//89 82//89
f 82//90 91//90 87//90
f 86//2 82//2 91//2
f 91//1 82//1 86//1
f 80//1 85//1 88//1
f 88//2 85//2 80//2
f 88//91 92//91 83//91
f 83//92 92//92 88//92
f 84//2 83//2 93//2
f 93//1 83//1 84//1
f 84//93 94//93 85//93
f 85//94 94//94 84//94
f 89//87 86//87 95//87
f 95//88 86//88 89//88
f 90//1 81//1 89//1
f 89//2 81//2 90//2
f 91//89 87//89 90//89
f 90//90 87//90 91//90
f 86//2 91//2 95//2
f 95//1 91//1 86//1
f 88//1 85//1 94//1
f 94//2 85//2 88//2
f 92//91 88//91 96//91
f 96//92 88//92 92//92
f 93//2 83//2 92//2
f 92//1 83//1 93//1
f 94//93 84//93 93//93
f 93//94 84//94 94//94
f 95//95 97//95 89//95
f 89//96 97//96 95//96
f 90//1 89//1 98//1
f 98//2 89//2 90//2
f 90//97 99//97 91//97
f 91//98 99//98 90//98
f 95//2 91//2 99//2
f 99//1 91//1 95//1
f 88//1 94//1 96//1
f 96//2 94//2 88//2
f 96//99 100//99 92//99
f 92//100 100//100 96//100
f 93//2 92//2 101//2
f 101//1 92//1 93//1
f 93//101 102//101 94//101
f 94//102 102//102 93//102
f 97//95 95//95 103//95
f 103//96 95//96 97//96
f 104//1 89//1 97//1
f 97//2 89//2 104//2
f 98//1 89//1 104//1
f 104//2 89//2 98//2
f 99//97 90//97 98//97
f 98//98 90//98 99//98
f 95//2 99//2 105//2
f 105//1 99//1 95//1
f 96//1 94//1 102//1
f 102//2 94//2 96//2
f 100//99 96//99 106//99
f 106//100 96//100 100//100
f 101//2 92//2 100//2
f 100//1 92//1 101//1
f 102//101 93//101 101//101
f 101//102 93//102 102//102
f 95//2 105//2 103//2
f 103//1 105//1 95//1
f 103//103 107//103 97//103
f 97//104 107//104 103//104
f 104//1 97//1 108//1
f 108//2 97//2 104//2
f 105//105 98//105 104//105
f 104//106 98//106 105//106
f 98//105 105//105 99//105
f 99//106 105//106 98//106
f 96//1 102//1 106//1
f 106//2 102//2 96//2
f 106//107 109//107 100//107
f 100//108 109//108 106//108
f 101//2 100//2 110//2
f 110//1 100//1 101//1
f 101//109 111//109 102//109
f 102//110 111//110 101//110
f 103//2 105//2 112//2
f 112//1 105//1 103//1
f 107//103 103//103 113//103
f 113//104 103//104 107//104
f 114//1 97//1 107//1
f 107//2 97//2 114//2
f 108//1 97//1 114//1
f 114//2 97//2 108//2
f 108//111 105//111 104//111
f 104//112 105//112 108//112
f 106//1 102//1 111//1
f 111//2 102//2 106//2
f 109//107 106//107 115//107
f 115//108 106//108 109//108
f 110//2 100//2 109//2
f 109//1 100//1 110//1
f 111//109 101//109 110//109
f 110//110 101//110 111//110
f 105//111 108//111 112//111
f 112//112 108//112 105//112
f 103//2 112//2 116//2
f 116//1 112//1 103//1
f 103//2 116//2 113//2
f 113//1 116//1 103//1
f 117//113 107//113 113//113
f 113//114 107//114 117//114
f 114//1 107//1 118//1
f 118//2 107//2 114//2
f 114//115 112//115 108//115
f 108//116 112//116 114//116
f 106//1 111//1 115//1
f 115//2 111//2 106//2
f 115//117 119//117 109//117
f 109//118 119//118 115//118
f 110//2 109//2 120//2
f 120//1 109//1 110//1
f 110//119 121//119 111//119
f 111//120 121//120 110//120
f 112//115 114//115 116//115
f 116//116 114//116 112//116
f 113//2 116//2 122//2
f 122//1 116//1 113//1
f 107//113 117//113 123//113
f 123//114 117//114 107//114
f 113//2 122//2 117//2
f 117//1 122//1 113//1
f 118//1 107//1 123//1
f 123//2 107//2 118//2
f 122//121 114//121 118//121
f 118//122 114//122 122//122
f 115//1 111//1 121//1
f 121//2 111//2 115//2
f 119//117 115//117 124//117
f 124//118 115//118 119//118
f 125//2 109//2 119//2
f 119//1 109//1 125//1
f 120//2 109//2 126//2
f 126//1 109//1 120//1
f 121//119 110//119 120//119
f 120//120 110//120 121//120
f 114//121 122//121 116//121
f 116//122 122//122 114//122
f 122//123 123//123 117//123
f 117//124 123//124 122//124
f 123//123 122//123 118//123
f 118//124 122//124 123//124
f 121//1 127//1 115//1
f 115//2 127//2 121//2
f 115//1 127//1 124//1
f 124//2 127//2 115//2
f 127//125 119//125 124//125
f 124//126 119//126 127//126
f 125//2 126//2 109//2
f 109//1 126//1 125//1
f 119//125 127//125 125//125
f 125//126 127//126 119//126
f 126//126 121//126 120//126
f 120//125 121//125 126//125
f 128//1 127//1 121//1
f 121//2 127//2 128//2
f 129//2 126//2 125//2
f 125//1 126//1 129//1
f 127//127 129//127 125//127
f 125//128 129//128 127//128
f 121//126 126//126 128//126
f 128//125 126//125 121//125
f 130//1 127//1 128//1
f 128//2 127//2 130//2
f 126//2 129//2 131//2
f 131//1 129//1 126//1
f 129//127 127//127 132//127
f 132//128 127//128 129//128
f 126//129 130//129 128//129
f 128//130 130//130 126//130
f 127//1 130//1 132//1
f 132//2 130//2 127//2
f 129//126 130//126 131//126
f 131//125 130//125 129//125
f 130//129 126//129 131//129
f 131//130 126//130 130//130
f 130//126 129//126 132//126
f 132//125 129//125 130//125
