# SSTK version 0.8.0
# 167
mtllib original-167.mtl
o mesh238/mesh238-geometry#mesh238-geometry
v -0.018433 -0.487613 0.102088
v -0.085996 -0.476353 0.102088
v -0.029694 -0.476353 0.102088
v -0.097257 -0.487613 0.102088
v -0.029694 -0.476353 0.085197
v -0.018433 -0.487613 0.085197
v -0.018433 -0.510134 0.102088
v -0.085996 -0.476353 0.085197
v -0.018433 -0.510134 0.085197
v -0.097257 -0.510134 0.102088
v -0.097257 -0.487613 0.085197
v -0.029694 -0.521395 0.085197
v -0.029694 -0.521395 0.102088
v -0.085996 -0.521395 0.102088
v -0.097257 -0.510134 0.085197
v -0.085996 -0.521395 0.085197
vn 0 0 -1
vn 0 -1 0
vn -0.7071067811865476 -0.7071067811865478 0
vn 0.7071067811865478 -0.7071067811865476 0
vn -1 0 0
vn -0.7071067811865478 0.7071067811865476 0
vn 1 0 0
vn 0 1 0
vn 0.7071067811865476 0.7071067811865478 0
vn 0 0 1
usemtl material_0_0
f 1//1 2//1 3//1
f 2//1 1//1 4//1
f 2//2 5//2 3//2
f 3//3 6//3 1//3
f 4//1 1//1 7//1
f 4//4 8//4 2//4
f 5//2 2//2 8//2
f 6//3 3//3 5//3
f 9//5 1//5 6//5
f 1//5 9//5 7//5
f 4//1 7//1 10//1
f 8//4 4//4 11//4
f 12//6 7//6 9//6
f 10//1 7//1 13//1
f 10//7 11//7 4//7
f 7//6 12//6 13//6
f 10//1 13//1 14//1
f 11//7 10//7 15//7
f 16//8 13//8 12//8
f 13//8 16//8 14//8
f 14//9 15//9 10//9
f 15//9 14//9 16//9
usemtl material_1_0
f 3//10 2//10 1//10
f 4//10 1//10 2//10
f 3//8 5//8 2//8
f 1//9 6//9 3//9
f 7//10 1//10 4//10
f 2//6 8//6 4//6
f 8//8 2//8 5//8
f 5//9 3//9 6//9
f 6//7 1//7 9//7
f 7//7 9//7 1//7
f 10//10 7//10 4//10
f 11//6 4//6 8//6
f 9//4 7//4 12//4
f 13//10 7//10 10//10
f 4//5 11//5 10//5
f 13//4 12//4 7//4
f 14//10 13//10 10//10
f 15//5 10//5 11//5
f 12//2 13//2 16//2
f 14//2 16//2 13//2
f 10//3 15//3 14//3
f 16//3 14//3 15//3
