# SSTK version 0.8.0
# 110
mtllib original-110.mtl
o mesh154/mesh154-geometry#mesh154-geometry
v -0.097257 0.424487 0.085197
v -0.097257 0.469529 0.102088
v -0.097257 0.469529 0.085197
v -0.097257 0.424487 0.102088
v -0.108517 0.480790 0.102088
v -0.198601 0.413227 0.085197
v -0.108517 0.413227 0.102088
v -0.108517 0.413227 0.085197
v -0.209862 0.469529 0.102088
v -0.108517 0.480790 0.085197
v -0.198601 0.480790 0.102088
v -0.198601 0.413227 0.102088
v -0.209862 0.424487 0.102088
v -0.209862 0.424487 0.085197
v -0.198601 0.480790 0.085197
v -0.209862 0.469529 0.085197
vn -1 0 0
vn -0.7071067811865476 -0.7071067811865478 0
vn 0 1 0
vn -0.7071067811865478 0.7071067811865476 0
vn 0 0 -1
vn 0 -1 0
vn 1 0 0
vn 0.7071067811865476 0.7071067811865478 0
vn 0.7071067811865478 -0.7071067811865476 0
vn 0 0 1
usemtl material_0_0
f 1//1 2//1 3//1
f 2//1 1//1 4//1
f 5//2 3//2 2//2
f 6//3 7//3 8//3
f 4//4 8//4 7//4
f 8//4 4//4 1//4
f 9//5 2//5 4//5
f 3//2 5//2 10//2
f 2//5 11//5 5//5
f 7//3 6//3 12//3
f 13//5 4//5 7//5
f 11//5 2//5 9//5
f 9//5 4//5 13//5
f 11//6 10//6 5//6
f 14//7 9//7 13//7
f 12//8 14//8 13//8
f 14//8 12//8 6//8
f 13//5 7//5 12//5
f 9//9 15//9 11//9
f 10//6 11//6 15//6
f 9//7 14//7 16//7
f 15//9 9//9 16//9
usemtl material_1_0
f 3//7 2//7 1//7
f 4//7 1//7 2//7
f 2//8 3//8 5//8
f 8//6 7//6 6//6
f 7//9 8//9 4//9
f 1//9 4//9 8//9
f 4//10 2//10 9//10
f 10//8 5//8 3//8
f 5//10 11//10 2//10
f 12//6 6//6 7//6
f 7//10 4//10 13//10
f 9//10 2//10 11//10
f 13//10 4//10 9//10
f 5//3 10//3 11//3
f 13//1 9//1 14//1
f 13//2 14//2 12//2
f 6//2 12//2 14//2
f 12//10 7//10 13//10
f 11//4 15//4 9//4
f 15//3 11//3 10//3
f 16//1 14//1 9//1
f 16//4 9//4 15//4
