# SSTK version 0.8.0
# 202
mtllib original-202.mtl
o Group31/mesh187/mesh187-geometry/material_1#mesh187-geometry
v -0.131038 -0.667781 0.085197
v -0.131038 -0.645260 0.102088
v -0.131038 -0.645260 0.085197
v -0.131038 -0.645260 0.102088
v -0.131038 -0.667781 0.085197
v -0.131038 -0.667781 0.102088
v -0.131038 -0.645260 0.102088
v -0.142299 -0.634000 0.085197
v -0.131038 -0.645260 0.085197
v -0.142299 -0.679042 0.085197
v -0.131038 -0.667781 0.102088
v -0.131038 -0.667781 0.085197
v -0.148830 -0.672624 0.102088
v -0.131038 -0.645260 0.102088
v -0.131038 -0.667781 0.102088
v -0.142299 -0.634000 0.085197
v -0.131038 -0.645260 0.102088
v -0.142299 -0.634000 0.102088
v -0.131038 -0.667781 0.102088
v -0.142299 -0.679042 0.085197
v -0.142299 -0.679042 0.102088
v -0.148830 -0.638842 0.102088
v -0.131038 -0.645260 0.102088
v -0.148830 -0.672624 0.102088
v -0.148830 -0.672624 0.102088
v -0.131038 -0.667781 0.102088
v -0.142299 -0.679042 0.102088
v -0.148830 -0.638842 0.102088
v -0.142299 -0.634000 0.102088
v -0.131038 -0.645260 0.102088
v -0.198601 -0.634000 0.102088
v -0.142299 -0.634000 0.085197
v -0.142299 -0.634000 0.102088
v -0.198601 -0.679042 0.085197
v -0.142299 -0.679042 0.102088
v -0.142299 -0.679042 0.085197
v -0.198601 -0.679042 0.102088
v -0.148830 -0.672624 0.102088
v -0.142299 -0.679042 0.102088
v -0.142299 -0.634000 0.102088
v -0.148830 -0.638842 0.102088
v -0.198601 -0.634000 0.102088
v -0.142299 -0.634000 0.085197
v -0.198601 -0.634000 0.102088
v -0.198601 -0.634000 0.085197
v -0.142299 -0.679042 0.102088
v -0.198601 -0.679042 0.085197
v -0.198601 -0.679042 0.102088
v -0.166396 -0.652005 0.102088
v -0.166396 -0.645249 0.102088
v -0.148830 -0.638842 0.102088
v -0.209862 -0.645260 0.102088
v -0.148830 -0.638842 0.102088
v -0.166396 -0.645249 0.102088
v -0.209862 -0.667781 0.102088
v -0.148830 -0.672624 0.102088
v -0.198601 -0.679042 0.102088
v -0.148830 -0.638842 0.102088
v -0.209862 -0.645260 0.102088
v -0.198601 -0.634000 0.102088
v -0.209862 -0.645260 0.102088
v -0.198601 -0.634000 0.085197
v -0.198601 -0.634000 0.102088
v -0.209862 -0.667781 0.085197
v -0.198601 -0.679042 0.102088
v -0.198601 -0.679042 0.085197
v -0.148830 -0.672624 0.102088
v -0.166396 -0.666205 0.102088
v -0.166396 -0.659449 0.102088
v -0.166396 -0.666205 0.102088
v -0.148830 -0.672624 0.102088
v -0.209862 -0.667781 0.102088
v -0.209862 -0.645260 0.102088
v -0.166396 -0.645249 0.102088
v -0.182161 -0.655733 0.102088
v -0.198601 -0.679042 0.102088
v -0.209862 -0.667781 0.085197
v -0.209862 -0.667781 0.102088
v -0.198601 -0.634000 0.085197
v -0.209862 -0.645260 0.102088
v -0.209862 -0.645260 0.085197
v -0.209862 -0.667781 0.102088
v -0.182161 -0.655733 0.102088
v -0.166396 -0.666205 0.102088
v -0.209862 -0.645260 0.102088
v -0.182161 -0.655733 0.102088
v -0.209862 -0.667781 0.102088
v -0.209862 -0.645260 0.085197
v -0.209862 -0.667781 0.102088
v -0.209862 -0.667781 0.085197
v -0.209862 -0.667781 0.102088
v -0.209862 -0.645260 0.085197
v -0.209862 -0.645260 0.102088
v -0.131038 -0.645260 0.085197
v -0.131038 -0.645260 0.102088
v -0.131038 -0.667781 0.085197
v -0.131038 -0.667781 0.102088
v -0.131038 -0.667781 0.085197
v -0.131038 -0.645260 0.102088
v -0.131038 -0.645260 0.085197
v -0.142299 -0.634000 0.085197
v -0.131038 -0.645260 0.102088
v -0.131038 -0.667781 0.085197
v -0.131038 -0.667781 0.102088
v -0.142299 -0.679042 0.085197
v -0.131038 -0.667781 0.102088
v -0.131038 -0.645260 0.102088
v -0.148830 -0.672624 0.102088
v -0.142299 -0.634000 0.102088
v -0.131038 -0.645260 0.102088
v -0.142299 -0.634000 0.085197
v -0.142299 -0.679042 0.102088
v -0.142299 -0.679042 0.085197
v -0.131038 -0.667781 0.102088
v -0.148830 -0.672624 0.102088
v -0.131038 -0.645260 0.102088
v -0.148830 -0.638842 0.102088
v -0.142299 -0.679042 0.102088
v -0.131038 -0.667781 0.102088
v -0.148830 -0.672624 0.102088
v -0.142299 -0.634000 0.102088
v -0.142299 -0.634000 0.085197
v -0.198601 -0.634000 0.102088
v -0.142299 -0.679042 0.085197
v -0.142299 -0.679042 0.102088
v -0.198601 -0.679042 0.085197
v -0.131038 -0.645260 0.102088
v -0.142299 -0.634000 0.102088
v -0.148830 -0.638842 0.102088
v -0.142299 -0.679042 0.102088
v -0.148830 -0.672624 0.102088
v -0.198601 -0.679042 0.102088
v -0.198601 -0.634000 0.102088
v -0.148830 -0.638842 0.102088
v -0.142299 -0.634000 0.102088
v -0.198601 -0.634000 0.085197
v -0.198601 -0.634000 0.102088
v -0.142299 -0.634000 0.085197
v -0.198601 -0.679042 0.102088
v -0.198601 -0.679042 0.085197
v -0.142299 -0.679042 0.102088
v -0.148830 -0.638842 0.102088
v -0.166396 -0.645249 0.102088
v -0.166396 -0.652005 0.102088
v -0.166396 -0.645249 0.102088
v -0.148830 -0.638842 0.102088
v -0.209862 -0.645260 0.102088
v -0.198601 -0.679042 0.102088
v -0.148830 -0.672624 0.102088
v -0.209862 -0.667781 0.102088
v -0.198601 -0.634000 0.102088
v -0.209862 -0.645260 0.102088
v -0.148830 -0.638842 0.102088
v -0.198601 -0.634000 0.102088
v -0.198601 -0.634000 0.085197
v -0.209862 -0.645260 0.102088
v -0.198601 -0.679042 0.085197
v -0.198601 -0.679042 0.102088
v -0.209862 -0.667781 0.085197
v -0.166396 -0.659449 0.102088
v -0.166396 -0.666205 0.102088
v -0.148830 -0.672624 0.102088
v -0.209862 -0.667781 0.102088
v -0.148830 -0.672624 0.102088
v -0.166396 -0.666205 0.102088
v -0.182161 -0.655733 0.102088
v -0.166396 -0.645249 0.102088
v -0.209862 -0.645260 0.102088
v -0.209862 -0.667781 0.102088
v -0.209862 -0.667781 0.085197
v -0.198601 -0.679042 0.102088
v -0.209862 -0.645260 0.085197
v -0.209862 -0.645260 0.102088
v -0.198601 -0.634000 0.085197
v -0.166396 -0.666205 0.102088
v -0.182161 -0.655733 0.102088
v -0.209862 -0.667781 0.102088
v -0.209862 -0.667781 0.102088
v -0.182161 -0.655733 0.102088
v -0.209862 -0.645260 0.102088
v -0.209862 -0.667781 0.085197
v -0.209862 -0.667781 0.102088
v -0.209862 -0.645260 0.085197
v -0.209862 -0.645260 0.102088
v -0.209862 -0.645260 0.085197
v -0.209862 -0.667781 0.102088
vn -1 0 0
vn -0.7071067811865475 -0.7071067811865477 0
vn -0.7071067811865477 0.7071067811865475 0
vn 0 0 -1
vn 0 -1 0
vn 0 1 0
vn 0.7071067811865477 -0.7071067811865475 0
vn 0.7071067811865475 0.7071067811865477 0
vn 1 0 0
vn 0 0 1
usemtl material_0_0
f 1//1 2//1 3//1
f 4//1 5//1 6//1
f 7//2 8//2 9//2
f 10//3 11//3 12//3
f 13//4 14//4 15//4
f 16//2 17//2 18//2
f 19//3 20//3 21//3
f 22//4 23//4 24//4
f 25//4 26//4 27//4
f 28//4 29//4 30//4
f 31//5 32//5 33//5
f 34//6 35//6 36//6
f 37//4 38//4 39//4
f 40//4 41//4 42//4
f 43//5 44//5 45//5
f 46//6 47//6 48//6
f 49//4 50//4 51//4
f 52//4 53//4 54//4
f 55//4 56//4 57//4
f 58//4 59//4 60//4
f 61//7 62//7 63//7
f 64//8 65//8 66//8
f 67//4 68//4 69//4
f 70//4 71//4 72//4
f 73//4 74//4 75//4
f 76//8 77//8 78//8
f 79//7 80//7 81//7
f 82//4 83//4 84//4
f 85//4 86//4 87//4
f 88//9 89//9 90//9
f 91//9 92//9 93//9
usemtl material_1_0
f 94//9 95//9 96//9
f 97//9 98//9 99//9
f 100//8 101//8 102//8
f 103//7 104//7 105//7
f 106//10 107//10 108//10
f 109//8 110//8 111//8
f 112//7 113//7 114//7
f 115//10 116//10 117//10
f 118//10 119//10 120//10
f 121//6 122//6 123//6
f 124//5 125//5 126//5
f 127//10 128//10 129//10
f 130//10 131//10 132//10
f 133//10 134//10 135//10
f 136//6 137//6 138//6
f 139//5 140//5 141//5
f 142//10 143//10 144//10
f 145//10 146//10 147//10
f 148//10 149//10 150//10
f 151//10 152//10 153//10
f 154//3 155//3 156//3
f 157//2 158//2 159//2
f 160//10 161//10 162//10
f 163//10 164//10 165//10
f 166//10 167//10 168//10
f 169//2 170//2 171//2
f 172//3 173//3 174//3
f 175//10 176//10 177//10
f 178//10 179//10 180//10
f 181//1 182//1 183//1
f 184//1 185//1 186//1
