# SSTK version 0.8.0
# 197
mtllib original-197.mtl
o mesh183/mesh183-geometry/material_1#mesh183-geometry
v -0.198601 -0.442572 0.102088
v -0.209862 -0.431311 0.085197
v -0.209862 -0.431311 0.102088
v -0.209862 -0.431311 0.085197
v -0.198601 -0.442572 0.102088
v -0.198601 -0.442572 0.085197
v -0.108517 -0.442572 0.102088
v -0.198601 -0.442572 0.085197
v -0.198601 -0.442572 0.102088
v -0.209862 -0.431311 0.085197
v -0.209862 -0.386269 0.102088
v -0.209862 -0.431311 0.102088
v -0.209862 -0.431311 0.102088
v -0.108517 -0.442572 0.102088
v -0.198601 -0.442572 0.102088
v -0.198601 -0.442572 0.085197
v -0.108517 -0.442572 0.102088
v -0.153559 -0.442572 0.085197
v -0.209862 -0.386269 0.102088
v -0.097257 -0.431311 0.102088
v -0.209862 -0.431311 0.102088
v -0.209862 -0.431311 0.102088
v -0.097257 -0.431311 0.102088
v -0.108517 -0.442572 0.102088
v -0.209862 -0.386269 0.102088
v -0.209862 -0.431311 0.085197
v -0.209862 -0.386269 0.085197
v -0.153559 -0.442572 0.085197
v -0.108517 -0.442572 0.102088
v -0.108517 -0.442572 0.085197
v -0.209862 -0.386269 0.102088
v -0.097257 -0.386269 0.102088
v -0.097257 -0.431311 0.102088
v -0.097257 -0.431311 0.102088
v -0.108517 -0.442572 0.085197
v -0.108517 -0.442572 0.102088
v -0.198601 -0.375008 0.085197
v -0.209862 -0.386269 0.102088
v -0.209862 -0.386269 0.085197
v -0.108517 -0.442572 0.085197
v -0.097257 -0.431311 0.102088
v -0.097257 -0.431311 0.085197
v -0.097257 -0.386269 0.102088
v -0.097257 -0.431311 0.085197
v -0.097257 -0.431311 0.102088
v -0.198601 -0.375008 0.102088
v -0.097257 -0.386269 0.102088
v -0.209862 -0.386269 0.102088
v -0.209862 -0.386269 0.102088
v -0.198601 -0.375008 0.085197
v -0.198601 -0.375008 0.102088
v -0.097257 -0.431311 0.085197
v -0.097257 -0.386269 0.102088
v -0.097257 -0.386269 0.085197
v -0.097257 -0.386269 0.102088
v -0.198601 -0.375008 0.102088
v -0.108517 -0.375008 0.102088
v -0.108517 -0.375008 0.085197
v -0.198601 -0.375008 0.102088
v -0.198601 -0.375008 0.085197
v -0.108517 -0.375008 0.102088
v -0.097257 -0.386269 0.085197
v -0.097257 -0.386269 0.102088
v -0.198601 -0.375008 0.102088
v -0.108517 -0.375008 0.085197
v -0.108517 -0.375008 0.102088
v -0.097257 -0.386269 0.085197
v -0.108517 -0.375008 0.102088
v -0.108517 -0.375008 0.085197
v -0.209862 -0.431311 0.102088
v -0.209862 -0.431311 0.085197
v -0.198601 -0.442572 0.102088
v -0.198601 -0.442572 0.085197
v -0.198601 -0.442572 0.102088
v -0.209862 -0.431311 0.085197
v -0.198601 -0.442572 0.102088
v -0.198601 -0.442572 0.085197
v -0.108517 -0.442572 0.102088
v -0.209862 -0.431311 0.102088
v -0.209862 -0.386269 0.102088
v -0.209862 -0.431311 0.085197
v -0.198601 -0.442572 0.102088
v -0.108517 -0.442572 0.102088
v -0.209862 -0.431311 0.102088
v -0.153559 -0.442572 0.085197
v -0.108517 -0.442572 0.102088
v -0.198601 -0.442572 0.085197
v -0.209862 -0.431311 0.102088
v -0.097257 -0.431311 0.102088
v -0.209862 -0.386269 0.102088
v -0.108517 -0.442572 0.102088
v -0.097257 -0.431311 0.102088
v -0.209862 -0.431311 0.102088
v -0.209862 -0.386269 0.085197
v -0.209862 -0.431311 0.085197
v -0.209862 -0.386269 0.102088
v -0.108517 -0.442572 0.085197
v -0.108517 -0.442572 0.102088
v -0.153559 -0.442572 0.085197
v -0.097257 -0.431311 0.102088
v -0.097257 -0.386269 0.102088
v -0.209862 -0.386269 0.102088
v -0.108517 -0.442572 0.102088
v -0.108517 -0.442572 0.085197
v -0.097257 -0.431311 0.102088
v -0.209862 -0.386269 0.085197
v -0.209862 -0.386269 0.102088
v -0.198601 -0.375008 0.085197
v -0.097257 -0.431311 0.085197
v -0.097257 -0.431311 0.102088
v -0.108517 -0.442572 0.085197
v -0.097257 -0.431311 0.102088
v -0.097257 -0.431311 0.085197
v -0.097257 -0.386269 0.102088
v -0.209862 -0.386269 0.102088
v -0.097257 -0.386269 0.102088
v -0.198601 -0.375008 0.102088
v -0.198601 -0.375008 0.102088
v -0.198601 -0.375008 0.085197
v -0.209862 -0.386269 0.102088
v -0.097257 -0.386269 0.085197
v -0.097257 -0.386269 0.102088
v -0.097257 -0.431311 0.085197
v -0.108517 -0.375008 0.102088
v -0.198601 -0.375008 0.102088
v -0.097257 -0.386269 0.102088
v -0.198601 -0.375008 0.085197
v -0.198601 -0.375008 0.102088
v -0.108517 -0.375008 0.085197
v -0.097257 -0.386269 0.102088
v -0.097257 -0.386269 0.085197
v -0.108517 -0.375008 0.102088
v -0.108517 -0.375008 0.102088
v -0.108517 -0.375008 0.085197
v -0.198601 -0.375008 0.102088
v -0.108517 -0.375008 0.085197
v -0.108517 -0.375008 0.102088
v -0.097257 -0.386269 0.085197
vn 0.7071067811865475 0.7071067811865477 0
vn 0 1 0
vn 1 0 0
vn 0 0 -1
vn -0.7071067811865477 0.7071067811865475 0
vn 0.7071067811865477 -0.7071067811865475 0
vn -1 0 0
vn 0 -1 0
vn -0.7071067811865475 -0.7071067811865477 0
vn 0 0 1
usemtl material_0_0
f 1//1 2//1 3//1
f 4//1 5//1 6//1
f 7//2 8//2 9//2
f 10//3 11//3 12//3
f 13//4 14//4 15//4
f 16//2 17//2 18//2
f 19//4 20//4 21//4
f 22//4 23//4 24//4
f 25//3 26//3 27//3
f 28//2 29//2 30//2
f 31//4 32//4 33//4
f 34//5 35//5 36//5
f 37//6 38//6 39//6
f 40//5 41//5 42//5
f 43//7 44//7 45//7
f 46//4 47//4 48//4
f 49//6 50//6 51//6
f 52//7 53//7 54//7
f 55//4 56//4 57//4
f 58//8 59//8 60//8
f 61//9 62//9 63//9
f 64//8 65//8 66//8
f 67//9 68//9 69//9
usemtl material_1_0
f 70//9 71//9 72//9
f 73//9 74//9 75//9
f 76//8 77//8 78//8
f 79//7 80//7 81//7
f 82//10 83//10 84//10
f 85//8 86//8 87//8
f 88//10 89//10 90//10
f 91//10 92//10 93//10
f 94//7 95//7 96//7
f 97//8 98//8 99//8
f 100//10 101//10 102//10
f 103//6 104//6 105//6
f 106//5 107//5 108//5
f 109//6 110//6 111//6
f 112//3 113//3 114//3
f 115//10 116//10 117//10
f 118//5 119//5 120//5
f 121//3 122//3 123//3
f 124//10 125//10 126//10
f 127//2 128//2 129//2
f 130//1 131//1 132//1
f 133//2 134//2 135//2
f 136//1 137//1 138//1
