# SSTK version 0.8.0
# 68
mtllib original-68.mtl
o mesh93/mesh93-geometry#mesh93-geometry
v 0.167848 -0.143561 0.102088
v 0.168049 -0.149918 0.102088
v 0.167908 -0.152239 0.102088
v 0.169436 -0.142197 0.102088
v 0.167908 -0.152239 0.103214
v 0.167724 -0.160059 0.102088
v 0.167848 -0.143561 0.103214
v 0.168469 -0.147955 0.102088
v 0.168049 -0.149918 0.103214
v 0.168043 -0.154134 0.103214
v 0.166865 -0.158960 0.102088
v 0.168043 -0.154134 0.102088
v 0.169436 -0.142197 0.103214
v 0.166553 -0.145271 0.102088
v 0.169170 -0.146350 0.102088
v 0.167724 -0.160059 0.103214
v 0.166865 -0.158960 0.103214
v 0.168731 -0.161022 0.102088
v 0.171239 -0.141222 0.102088
v 0.166553 -0.145271 0.103214
v 0.170152 -0.145102 0.102088
v 0.168469 -0.147955 0.103214
v 0.168447 -0.155817 0.103214
v 0.168731 -0.161022 0.103214
v 0.166156 -0.157722 0.102088
v 0.166156 -0.157722 0.103214
v 0.168447 -0.155817 0.102088
v 0.171239 -0.141222 0.103214
v 0.165628 -0.147279 0.102088
v 0.169170 -0.146350 0.103214
v 0.169119 -0.157287 0.102088
v 0.169887 -0.161846 0.103214
v 0.170152 -0.145102 0.103214
v 0.173258 -0.140637 0.102088
v 0.171328 -0.144167 0.102088
v 0.165628 -0.147279 0.103214
v 0.169119 -0.157287 0.103214
v 0.165205 -0.155034 0.102088
v 0.165205 -0.155034 0.103214
v 0.169887 -0.161846 0.102088
v 0.171328 -0.144167 0.103214
v 0.173258 -0.140637 0.103214
v 0.165073 -0.149587 0.102088
v 0.170061 -0.158545 0.103214
v 0.170061 -0.158545 0.102088
v 0.171160 -0.162506 0.103214
v 0.175491 -0.140442 0.102088
v 0.172612 -0.143499 0.102088
v 0.172612 -0.143499 0.103214
v 0.165073 -0.149587 0.103214
v 0.164888 -0.152194 0.102088
v 0.164888 -0.152194 0.103214
v 0.171160 -0.162506 0.102088
v 0.175491 -0.140442 0.103214
v 0.174005 -0.143098 0.102088
v 0.171206 -0.159553 0.102088
v 0.172516 -0.162979 0.103214
v 0.171206 -0.159553 0.103214
v 0.174005 -0.143098 0.103214
v 0.176986 -0.140534 0.102088
v 0.175506 -0.142965 0.102088
v 0.172516 -0.162979 0.102088
v 0.175506 -0.142965 0.103214
v 0.176986 -0.140534 0.103214
v 0.172487 -0.160273 0.102088
v 0.173954 -0.163262 0.103214
v 0.172487 -0.160273 0.103214
v 0.178406 -0.140809 0.102088
v 0.177589 -0.143242 0.102088
v 0.177589 -0.143242 0.103214
v 0.173906 -0.160705 0.102088
v 0.173954 -0.163262 0.102088
v 0.173906 -0.160705 0.103214
v 0.178406 -0.140809 0.103214
v 0.175476 -0.163356 0.103214
v 0.175461 -0.160849 0.103214
v 0.179751 -0.141266 0.102088
v 0.179456 -0.144075 0.102088
v 0.179456 -0.144075 0.103214
v 0.175461 -0.160849 0.102088
v 0.175476 -0.163356 0.102088
v 0.179751 -0.141266 0.103214
v 0.176894 -0.163271 0.103214
v 0.177042 -0.160703 0.103214
v 0.177042 -0.160703 0.102088
v 0.181019 -0.141907 0.102088
v 0.181004 -0.145412 0.102088
v 0.181004 -0.145412 0.103214
v 0.176894 -0.163271 0.102088
v 0.181019 -0.141907 0.103214
v 0.178263 -0.163014 0.103214
v 0.178476 -0.160267 0.102088
v 0.182177 -0.142712 0.102088
v 0.182130 -0.147202 0.102088
v 0.178263 -0.163014 0.102088
v 0.178476 -0.160267 0.103214
v 0.182130 -0.147202 0.103214
v 0.182177 -0.142712 0.103214
v 0.179583 -0.162587 0.103214
v 0.179764 -0.159540 0.102088
v 0.179583 -0.162587 0.102088
v 0.183189 -0.143662 0.102088
v 0.182815 -0.149390 0.102088
v 0.179764 -0.159540 0.103214
v 0.182815 -0.149390 0.103214
v 0.183189 -0.143662 0.103214
v 0.180853 -0.161989 0.103214
v 0.180906 -0.158523 0.102088
v 0.180853 -0.161989 0.102088
v 0.184054 -0.144755 0.103214
v 0.183043 -0.151922 0.102088
v 0.180906 -0.158523 0.103214
v 0.183043 -0.151922 0.103214
v 0.184054 -0.144755 0.102088
v 0.183955 -0.159212 0.103214
v 0.183062 -0.160299 0.102088
v 0.182029 -0.161225 0.103214
v 0.181841 -0.157238 0.103214
v 0.182029 -0.161225 0.102088
v 0.183062 -0.160299 0.103214
v 0.184773 -0.145993 0.103214
v 0.183955 -0.159212 0.102088
v 0.184705 -0.157964 0.103214
v 0.182910 -0.153937 0.102088
v 0.181841 -0.157238 0.102088
v 0.182910 -0.153937 0.103214
v 0.184773 -0.145993 0.102088
v 0.184705 -0.157964 0.102088
v 0.182509 -0.155709 0.102088
v 0.182509 -0.155709 0.103214
v 0.185338 -0.147347 0.103214
v 0.185300 -0.156590 0.103214
v 0.185300 -0.156590 0.102088
v 0.185338 -0.147347 0.102088
v 0.185742 -0.148790 0.103214
v 0.185724 -0.155128 0.103214
v 0.185724 -0.155128 0.102088
v 0.185742 -0.148790 0.102088
v 0.185984 -0.150319 0.103214
v 0.185979 -0.153577 0.103214
v 0.185979 -0.153577 0.102088
v 0.185984 -0.150319 0.102088
v 0.186064 -0.151937 0.103214
v 0.186064 -0.151937 0.102088
vn 0 0 -1
vn 0 0 1
vn 0.998180723199533 -0.0602929832804566 0
vn -0.998180723199533 0.0602929832804566 0
vn -0.6517746971875014 0.758412647643841 0
vn 0.6517746971875014 -0.758412647643841 0
vn 0.9974901048681354 0.07080600744397758 0
vn -0.9974901048681354 -0.07080600744397758 0
vn -0.7970053399989641 0.6039722576519022 0
vn 0.7970053399989641 -0.6039722576519022 0
vn 0.9778127299623847 -0.2094809421487036 0
vn -0.9778127299623847 0.2094809421487036 0
vn -0.7884039084741956 -0.6151579285863202 0
vn 0.7884039084741956 0.6151579285863202 0
vn -0.47554123374521784 0.8796934324002176 0
vn 0.47554123374521784 -0.8796934324002176 0
vn 0.9164479264917147 -0.4001539679036515 0
vn -0.9164479264917147 0.4001539679036515 0
vn 0.972424451545399 0.23321810829485376 0
vn -0.972424451545399 -0.23321810829485376 0
vn -0.8677132322894665 -0.4970651330658452 0
vn 0.8677132322894665 0.4970651330658452 0
vn -0.6906531529779637 -0.7231861601839443 0
vn 0.6906531529779637 0.7231861601839443 0
vn -0.9082716879428792 0.4183808562558679 0
vn 0.9082716879428792 -0.4183808562558679 0
vn 0.7859777400343686 -0.618254795509478 0
vn -0.7859777400343686 0.618254795509478 0
vn -0.5803570828480108 -0.8143621162530507 0
vn 0.5803570828480108 0.8143621162530507 0
vn -0.2783088912445601 0.9604916246663601 0
vn 0.2783088912445601 -0.9604916246663601 0
vn 0.9093641289037384 0.4160010589687783 0
vn -0.9093641289037384 -0.4160010589687783 0
vn -0.9426967060624994 -0.33365089596599856 0
vn 0.9426967060624994 0.33365089596599856 0
vn 0.6224319424561696 -0.7826739276417988 0
vn -0.6224319424561696 0.7826739276417988 0
vn -0.9722681103597287 0.23386902654589004 0
vn 0.9722681103597287 -0.23386902654589004 0
vn 0.8005401555285563 0.5992791164276584 0
vn -0.8005401555285563 -0.5992791164276584 0
vn -0.46085518280976595 -0.8874753520393551 0
vn 0.46085518280976595 0.8874753520393551 0
vn -0.08694798712852528 0.9962128525241472 0
vn 0.08694798712852528 -0.9962128525241472 0
vn 0.4613731080616685 -0.8872062077992443 0
vn -0.4613731080616685 0.8872062077992443 0
vn -0.9938190651423573 -0.11101200727655978 0
vn 0.9938190651423573 0.11101200727655978 0
vn -0.9974906748754486 0.07079797692393416 0
vn 0.9974906748754486 -0.07079797692393416 0
vn 0.6608021332164018 0.7505601513114406 0
vn -0.6608021332164018 -0.7505601513114406 0
vn -0.32882705458052763 -0.9443901567550853 0
vn 0.32882705458052763 0.9443901567550853 0
vn 0.06112301472976203 0.998130240534944 0
vn -0.06112301472976203 -0.998130240534944 0
vn 0.27648413843840763 -0.9610184811916841 0
vn -0.27648413843840763 0.9610184811916841 0
vn 0.08861598795655636 -0.9960658646286817 0
vn -0.08861598795655636 0.9960658646286817 0
vn 0.4897276882002747 0.8718754448945184 0
vn -0.4897276882002747 -0.8718754448945184 0
vn -0.19314407980367368 -0.9811704054020342 0
vn 0.19314407980367368 0.9811704054020342 0
vn 0.18996093229936054 0.9817916500968819 0
vn -0.18996093229936054 -0.9817916500968819 0
vn -0.1321049644161455 -0.9912357330002833 0
vn 0.1321049644161455 0.9912357330002833 0
vn 0.29128811328648424 0.9566353720503964 0
vn -0.29128811328648424 -0.9566353720503964 0
vn -0.06191602248737717 -0.998081362494733 0
vn 0.06191602248737717 0.998081362494733 0
vn 0.3224031546224944 0.9466024539844929 0
vn -0.3224031546224944 -0.9466024539844929 0
vn -0.407251937413527 -0.9133158596416294 0
vn 0.407251937413527 0.9133158596416294 0
vn 0.09217002622472653 0.9957432833143959 0
vn -0.09217002622472653 -0.9957432833143959 0
vn 0.06014398265339532 -0.9981897121041612 0
vn -0.06014398265339532 0.9981897121041612 0
vn -0.09158096628149709 0.9957976333648053 0
vn 0.09158096628149709 -0.9957976333648053 0
vn 0.4509289286087123 0.8925598586894881 0
vn -0.4509289286087123 -0.8925598586894881 0
vn -0.6535238982424157 -0.7569058821452218 0
vn 0.6535238982424157 0.7569058821452218 0
vn 0.1840430349154516 -0.9829181864728669 0
vn -0.1840430349154516 0.9829181864728669 0
vn -0.2908989353161563 0.9567537872576866 0
vn 0.2908989353161563 -0.9567537872576866 0
vn 0.5707410667821308 0.8211300960800275 0
vn -0.5707410667821308 -0.8211300960800275 0
vn -0.8465905507543036 -0.5322447175628189 0
vn 0.8465905507543036 0.5322447175628189 0
vn 0.3079471503986535 -0.9514034646570029 0
vn -0.3079471503986535 0.9514034646570029 0
vn -0.4914581185483129 0.8709012100766379 0
vn 0.4914581185483129 -0.8709012100766379 0
vn 0.6842920518255448 0.7292080552273033 0
vn -0.6842920518255448 -0.7292080552273033 0
vn -0.954289409878364 -0.29888412837419787 0
vn 0.954289409878364 0.29888412837419787 0
vn 0.42584586855587936 -0.9047957207203671 0
vn -0.42584586855587936 0.9047957207203671 0
vn -0.6653592699995198 0.7465233029354853 0
vn 0.6653592699995198 -0.7465233029354853 0
vn 0.7842587931764747 0.6204338363801408 0
vn -0.7842587931764747 -0.6204338363801408 0
vn -0.9959538665063364 -0.08986598795472324 0
vn 0.9959538665063364 0.08986598795472324 0
vn 0.5451067633861036 -0.8383666360911115 0
vn -0.5451067633861036 0.8383666360911115 0
vn -0.8085430461605323 0.5884370335944595 0
vn 0.8085430461605323 -0.5884370335944595 0
vn 0.8647934850934642 0.5021277010282346 0
vn -0.8647934850934642 -0.5021277010282346 0
vn -0.9978109496694192 0.06613099666428648 0
vn 0.9978109496694192 -0.06613099666428648 0
vn 0.7730139816343475 -0.6343889849278695 0
vn -0.7730139816343475 0.6343889849278695 0
vn 0.8570639810606004 -0.5152099886148898 0
vn -0.8570639810606004 0.5152099886148898 0
vn 0.6670832003991614 -0.7449832238011888 0
vn -0.6670832003991614 0.7449832238011888 0
vn -0.9163260340117322 0.40043301486307264 0
vn 0.9163260340117322 -0.40043301486307264 0
vn 0.9228961111088538 0.385049046356635 0
vn -0.9228961111088538 -0.385049046356635 0
vn 0.9176706654150423 -0.3973418551281927 0
vn -0.9176706654150423 0.3973418551281927 0
vn -0.9753670729413662 0.22058801649634452 0
vn 0.9753670729413662 -0.22058801649634452 0
vn 0.9629967692765946 0.269512935427673 0
vn -0.9629967692765946 -0.269512935427673 0
vn 0.9602980684788576 -0.2789760198937807 0
vn -0.9602980684788576 0.2789760198937807 0
vn 0.9877036237541302 0.15633794044619967 0
vn -0.9877036237541302 -0.15633794044619967 0
vn 0.986764651422488 -0.1621589427168771 0
vn -0.986764651422488 0.1621589427168771 0
vn 0.9987574135131208 0.04983602063348731 0
vn -0.9987574135131208 -0.04983602063348731 0
vn 0.998660380921099 -0.05174401973682869 0
vn -0.998660380921099 0.05174401973682869 0
usemtl material_0_0
f 1//1 2//1 3//1
f 2//1 1//1 4//1
f 3//2 2//2 1//2
f 4//2 1//2 2//2
f 2//3 5//3 3//3
f 3//4 5//4 2//4
f 6//1 1//1 3//1
f 3//2 1//2 6//2
f 7//5 4//5 1//5
f 1//6 4//6 7//6
f 2//1 4//1 8//1
f 8//2 4//2 2//2
f 5//3 2//3 9//3
f 9//4 2//4 5//4
f 10//7 3//7 5//7
f 5//8 3//8 10//8
f 11//1 1//1 6//1
f 6//2 1//2 11//2
f 6//1 3//1 12//1
f 12//2 3//2 6//2
f 4//5 7//5 13//5
f 13//6 7//6 4//6
f 14//9 7//9 1//9
f 1//10 7//10 14//10
f 8//1 4//1 15//1
f 15//2 4//2 8//2
f 8//11 9//11 2//11
f 2//12 9//12 8//12
f 9//2 7//2 5//2
f 5//1 7//1 9//1
f 3//7 10//7 12//7
f 12//8 10//8 3//8
f 5//2 16//2 10//2
f 10//1 16//1 5//1
f 11//1 14//1 1//1
f 1//2 14//2 11//2
f 6//13 17//13 11//13
f 11//14 17//14 6//14
f 6//1 12//1 18//1
f 18//2 12//2 6//2
f 7//2 9//2 13//2
f 13//1 9//1 7//1
f 13//15 19//15 4//15
f 4//16 19//16 13//16
f 7//9 14//9 20//9
f 20//10 14//10 7//10
f 15//1 4//1 21//1
f 21//2 4//2 15//2
f 15//17 22//17 8//17
f 8//18 22//18 15//18
f 9//11 8//11 22//11
f 22//12 8//12 9//12
f 7//2 16//2 5//2
f 5//1 16//1 7//1
f 23//19 12//19 10//19
f 10//20 12//20 23//20
f 10//2 16//2 24//2
f 24//1 16//1 10//1
f 25//1 14//1 11//1
f 11//2 14//2 25//2
f 17//13 6//13 16//13
f 16//14 6//14 17//14
f 26//21 11//21 17//21
f 17//22 11//22 26//22
f 18//1 12//1 27//1
f 27//2 12//2 18//2
f 24//23 6//23 18//23
f 18//24 6//24 24//24
f 13//2 9//2 22//2
f 22//1 9//1 13//1
f 19//15 13//15 28//15
f 28//16 13//16 19//16
f 21//1 4//1 19//1
f 19//2 4//2 21//2
f 29//25 20//25 14//25
f 14//26 20//26 29//26
f 20//2 17//2 7//2
f 7//1 17//1 20//1
f 21//27 30//27 15//27
f 15//28 30//28 21//28
f 22//17 15//17 30//17
f 30//18 15//18 22//18
f 7//2 17//2 16//2
f 16//1 17//1 7//1
f 12//19 23//19 27//19
f 27//20 23//20 12//20
f 10//2 24//2 23//2
f 23//1 24//1 10//1
f 6//23 24//23 16//23
f 16//24 24//24 6//24
f 25//1 29//1 14//1
f 14//2 29//2 25//2
f 11//21 26//21 25//21
f 25//22 26//22 11//22
f 20//2 26//2 17//2
f 17//1 26//1 20//1
f 18//1 27//1 31//1
f 31//2 27//2 18//2
f 18//29 32//29 24//29
f 24//30 32//30 18//30
f 13//2 22//2 30//2
f 30//1 22//1 13//1
f 13//2 33//2 28//2
f 28//1 33//1 13//1
f 28//31 34//31 19//31
f 19//32 34//32 28//32
f 21//1 19//1 35//1
f 35//2 19//2 21//2
f 20//25 29//25 36//25
f 36//26 29//26 20//26
f 30//27 21//27 33//27
f 33//28 21//28 30//28
f 37//33 27//33 23//33
f 23//34 27//34 37//34
f 23//2 24//2 37//2
f 37//1 24//1 23//1
f 38//1 29//1 25//1
f 25//2 29//2 38//2
f 39//35 25//35 26//35
f 26//36 25//36 39//36
f 36//2 26//2 20//2
f 20//1 26//1 36//1
f 27//33 37//33 31//33
f 31//34 37//34 27//34
f 18//1 31//1 40//1
f 40//2 31//2 18//2
f 32//29 18//29 40//29
f 40//30 18//30 32//30
f 37//2 24//2 32//2
f 32//1 24//1 37//1
f 13//2 30//2 33//2
f 33//1 30//1 13//1
f 28//2 33//2 41//2
f 41//1 33//1 28//1
f 34//31 28//31 42//31
f 42//32 28//32 34//32
f 35//1 19//1 34//1
f 34//2 19//2 35//2
f 41//37 21//37 35//37
f 35//38 21//38 41//38
f 43//39 36//39 29//39
f 29//40 36//40 43//40
f 21//37 41//37 33//37
f 33//38 41//38 21//38
f 38//1 43//1 29//1
f 29//2 43//2 38//2
f 25//35 39//35 38//35
f 38//36 39//36 25//36
f 36//2 39//2 26//2
f 26//1 39//1 36//1
f 44//41 31//41 37//41
f 37//42 31//42 44//42
f 40//1 31//1 45//1
f 45//2 31//2 40//2
f 40//43 46//43 32//43
f 32//44 46//44 40//44
f 37//2 32//2 44//2
f 44//1 32//1 37//1
f 28//2 41//2 42//2
f 42//1 41//1 28//1
f 42//45 47//45 34//45
f 34//46 47//46 42//46
f 35//1 34//1 48//1
f 48//2 34//2 35//2
f 35//47 49//47 41//47
f 41//48 49//48 35//48
f 36//39 43//39 50//39
f 50//40 43//40 36//40
f 43//1 38//1 51//1
f 51//2 38//2 43//2
f 52//49 38//49 39//49
f 39//50 38//50 52//50
f 50//2 39//2 36//2
f 36//1 39//1 50//1
f 31//41 44//41 45//41
f 45//42 44//42 31//42
f 40//1 45//1 53//1
f 53//2 45//2 40//2
f 46//43 40//43 53//43
f 53//44 40//44 46//44
f 44//2 32//2 46//2
f 46//1 32//1 44//1
f 42//2 41//2 49//2
f 49//1 41//1 42//1
f 47//45 42//45 54//45
f 54//46 42//46 47//46
f 55//1 34//1 47//1
f 47//2 34//2 55//2
f 48//1 34//1 55//1
f 55//2 34//2 48//2
f 49//47 35//47 48//47
f 48//48 35//48 49//48
f 51//51 50//51 43//51
f 43//52 50//52 51//52
f 38//49 52//49 51//49
f 51//50 52//50 38//50
f 39//2 50//2 52//2
f 52//1 50//1 39//1
f 44//53 56//53 45//53
f 45//54 56//54 44//54
f 53//1 45//1 56//1
f 56//2 45//2 53//2
f 53//55 57//55 46//55
f 46//56 57//56 53//56
f 44//2 46//2 58//2
f 58//1 46//1 44//1
f 42//2 49//2 59//2
f 59//1 49//1 42//1
f 42//2 59//2 54//2
f 54//1 59//1 42//1
f 54//57 60//57 47//57
f 47//58 60//58 54//58
f 55//1 47//1 61//1
f 61//2 47//2 55//2
f 59//59 48//59 55//59
f 55//60 48//60 59//60
f 48//59 59//59 49//59
f 49//60 59//60 48//60
f 50//51 51//51 52//51
f 52//52 51//52 50//52
f 56//53 44//53 58//53
f 58//54 44//54 56//54
f 53//1 56//1 62//1
f 62//2 56//2 53//2
f 57//55 53//55 62//55
f 62//56 53//56 57//56
f 58//2 46//2 57//2
f 57//1 46//1 58//1
f 54//2 59//2 63//2
f 63//1 59//1 54//1
f 60//57 54//57 64//57
f 64//58 54//58 60//58
f 61//1 47//1 60//1
f 60//2 47//2 61//2
f 63//61 55//61 61//61
f 61//62 55//62 63//62
f 55//61 63//61 59//61
f 59//62 63//62 55//62
f 58//63 65//63 56//63
f 56//64 65//64 58//64
f 62//1 56//1 65//1
f 65//2 56//2 62//2
f 62//65 66//65 57//65
f 57//66 66//66 62//66
f 58//2 57//2 67//2
f 67//1 57//1 58//1
f 54//2 63//2 64//2
f 64//1 63//1 54//1
f 64//67 68//67 60//67
f 60//68 68//68 64//68
f 61//1 60//1 69//1
f 69//2 60//2 61//2
f 61//69 70//69 63//69
f 63//70 70//70 61//70
f 65//63 58//63 67//63
f 67//64 58//64 65//64
f 62//1 65//1 71//1
f 71//2 65//2 62//2
f 66//65 62//65 72//65
f 72//66 62//66 66//66
f 73//2 57//2 66//2
f 66//1 57//1 73//1
f 67//2 57//2 73//2
f 73//1 57//1 67//1
f 64//2 63//2 70//2
f 70//1 63//1 64//1
f 68//67 64//67 74//67
f 74//68 64//68 68//68
f 69//1 60//1 68//1
f 68//2 60//2 69//2
f 70//69 61//69 69//69
f 69//70 61//70 70//70
f 67//71 71//71 65//71
f 65//72 71//72 67//72
f 62//1 71//1 72//1
f 72//2 71//2 62//2
f 72//73 75//73 66//73
f 66//74 75//74 72//74
f 73//2 66//2 76//2
f 76//1 66//1 73//1
f 71//71 67//71 73//71
f 73//72 67//72 71//72
f 64//2 70//2 74//2
f 74//1 70//1 64//1
f 74//75 77//75 68//75
f 68//76 77//76 74//76
f 69//1 68//1 78//1
f 78//2 68//2 69//2
f 69//77 79//77 70//77
f 70//78 79//78 69//78
f 72//1 71//1 80//1
f 80//2 71//2 72//2
f 75//73 72//73 81//73
f 81//74 72//74 75//74
f 76//2 66//2 75//2
f 75//1 66//1 76//1
f 80//79 73//79 76//79
f 76//80 73//80 80//80
f 73//79 80//79 71//79
f 71//80 80//80 73//80
f 74//2 70//2 79//2
f 79//1 70//1 74//1
f 77//75 74//75 82//75
f 82//76 74//76 77//76
f 78//1 68//1 77//1
f 77//2 68//2 78//2
f 79//77 69//77 78//77
f 78//78 69//78 79//78
f 72//1 80//1 81//1
f 81//2 80//2 72//2
f 81//81 83//81 75//81
f 75//82 83//82 81//82
f 76//2 75//2 84//2
f 84//1 75//1 76//1
f 76//83 85//83 80//83
f 80//84 85//84 76//84
f 74//2 79//2 82//2
f 82//1 79//1 74//1
f 82//85 86//85 77//85
f 77//86 86//86 82//86
f 78//1 77//1 87//1
f 87//2 77//2 78//2
f 78//87 88//87 79//87
f 79//88 88//88 78//88
f 81//1 80//1 85//1
f 85//2 80//2 81//2
f 83//81 81//81 89//81
f 89//82 81//82 83//82
f 84//2 75//2 83//2
f 83//1 75//1 84//1
f 85//83 76//83 84//83
f 84//84 76//84 85//84
f 82//2 79//2 88//2
f 88//1 79//1 82//1
f 86//85 82//85 90//85
f 90//86 82//86 86//86
f 87//1 77//1 86//1
f 86//2 77//2 87//2
f 88//87 78//87 87//87
f 87//88 78//88 88//88
f 81//1 85//1 89//1
f 89//2 85//2 81//2
f 89//89 91//89 83//89
f 83//90 91//90 89//90
f 84//2 83//2 91//2
f 91//1 83//1 84//1
f 84//91 92//91 85//91
f 85//92 92//92 84//92
f 82//2 88//2 90//2
f 90//1 88//1 82//1
f 90//93 93//93 86//93
f 86//94 93//94 90//94
f 87//1 86//1 94//1
f 94//2 86//2 87//2
f 94//95 88//95 87//95
f 87//96 88//96 94//96
f 89//1 85//1 95//1
f 95//2 85//2 89//2
f 91//89 89//89 95//89
f 95//90 89//90 91//90
f 84//2 91//2 96//2
f 96//1 91//1 84//1
f 92//91 84//91 96//91
f 96//92 84//92 92//92
f 95//1 85//1 92//1
f 92//2 85//2 95//2
f 90//2 88//2 97//2
f 97//1 88//1 90//1
f 93//93 90//93 98//93
f 98//94 90//94 93//94
f 94//1 86//1 93//1
f 93//2 86//2 94//2
f 88//95 94//95 97//95
f 97//96 94//96 88//96
f 95//97 99//97 91//97
f 91//98 99//98 95//98
f 96//2 91//2 99//2
f 99//1 91//1 96//1
f 96//99 100//99 92//99
f 92//100 100//100 96//100
f 95//1 92//1 101//1
f 101//2 92//2 95//2
f 90//2 97//2 98//2
f 98//1 97//1 90//1
f 98//101 102//101 93//101
f 93//102 102//102 98//102
f 94//1 93//1 103//1
f 103//2 93//2 94//2
f 103//103 97//103 94//103
f 94//104 97//104 103//104
f 99//97 95//97 101//97
f 101//98 95//98 99//98
f 96//2 99//2 104//2
f 104//1 99//1 96//1
f 100//99 96//99 104//99
f 104//100 96//100 100//100
f 101//1 92//1 100//1
f 100//2 92//2 101//2
f 98//2 97//2 105//2
f 105//1 97//1 98//1
f 102//101 98//101 106//101
f 106//102 98//102 102//102
f 103//1 93//1 102//1
f 102//2 93//2 103//2
f 97//103 103//103 105//103
f 105//104 103//104 97//104
f 101//105 107//105 99//105
f 99//106 107//106 101//106
f 104//2 99//2 107//2
f 107//1 99//1 104//1
f 104//107 108//107 100//107
f 100//108 108//108 104//108
f 101//1 100//1 109//1
f 109//2 100//2 101//2
f 98//2 105//2 106//2
f 106//1 105//1 98//1
f 110//109 102//109 106//109
f 106//110 102//110 110//110
f 103//1 102//1 111//1
f 111//2 102//2 103//2
f 111//111 105//111 103//111
f 103//112 105//112 111//112
f 107//105 101//105 109//105
f 109//106 101//106 107//106
f 104//2 107//2 112//2
f 112//1 107//1 104//1
f 108//107 104//107 112//107
f 112//108 104//108 108//108
f 109//1 100//1 108//1
f 108//2 100//2 109//2
f 106//2 105//2 113//2
f 113//1 105//1 106//1
f 102//109 110//109 114//109
f 114//110 110//110 102//110
f 106//2 115//2 110//2
f 110//1 115//1 106//1
f 111//1 102//1 116//1
f 116//2 102//2 111//2
f 105//111 111//111 113//111
f 113//112 111//112 105//112
f 109//113 117//113 107//113
f 107//114 117//114 109//114
f 112//2 107//2 117//2
f 117//1 107//1 112//1
f 118//115 108//115 112//115
f 112//116 108//116 118//116
f 109//1 108//1 119//1
f 119//2 108//2 109//2
f 106//2 113//2 120//2
f 120//1 113//1 106//1
f 121//117 114//117 110//117
f 110//118 114//118 121//118
f 122//1 102//1 114//1
f 114//2 102//2 122//2
f 106//2 120//2 115//2
f 115//1 120//1 106//1
f 110//2 115//2 123//2
f 123//1 115//1 110//1
f 116//1 102//1 122//1
f 122//2 102//2 116//2
f 116//1 124//1 111//1
f 111//2 124//2 116//2
f 124//119 113//119 111//119
f 111//120 113//120 124//120
f 117//113 109//113 119//113
f 119//114 109//114 117//114
f 112//2 117//2 118//2
f 118//1 117//1 112//1
f 108//115 118//115 125//115
f 125//116 118//116 108//116
f 119//1 108//1 125//1
f 125//2 108//2 119//2
f 126//2 120//2 113//2
f 113//1 120//1 126//1
f 114//117 121//117 127//117
f 127//118 121//118 114//118
f 110//2 123//2 121//2
f 121//1 123//1 110//1
f 122//1 114//1 128//1
f 128//2 114//2 122//2
f 120//121 122//121 115//121
f 115//122 122//122 120//122
f 115//123 128//123 123//123
f 123//124 128//124 115//124
f 122//121 120//121 116//121
f 116//122 120//122 122//122
f 116//1 129//1 124//1
f 124//2 129//2 116//2
f 113//119 124//119 126//119
f 126//120 124//120 113//120
f 119//125 120//125 117//125
f 117//126 120//126 119//126
f 118//2 117//2 130//2
f 130//1 117//1 118//1
f 130//127 125//127 118//127
f 118//128 125//128 130//128
f 119//1 125//1 129//1
f 129//2 125//2 119//2
f 130//2 120//2 126//2
f 126//1 120//1 130//1
f 131//129 127//129 121//129
f 121//130 127//130 131//130
f 128//1 114//1 127//1
f 127//2 114//2 128//2
f 121//2 123//2 132//2
f 132//1 123//1 121//1
f 128//123 115//123 122//123
f 122//124 115//124 128//124
f 133//131 123//131 128//131
f 128//132 123//132 133//132
f 120//125 119//125 116//125
f 116//126 119//126 120//126
f 119//1 129//1 116//1
f 116//2 129//2 119//2
f 129//133 126//133 124//133
f 124//134 126//134 129//134
f 130//2 117//2 120//2
f 120//1 117//1 130//1
f 125//127 130//127 129//127
f 129//128 130//128 125//128
f 126//133 129//133 130//133
f 130//134 129//134 126//134
f 127//129 131//129 134//129
f 134//130 131//130 127//130
f 121//2 132//2 131//2
f 131//1 132//1 121//1
f 128//1 127//1 133//1
f 133//2 127//2 128//2
f 123//131 133//131 132//131
f 132//132 133//132 123//132
f 135//135 134//135 131//135
f 131//136 134//136 135//136
f 133//1 127//1 134//1
f 134//2 127//2 133//2
f 131//2 132//2 136//2
f 136//1 132//1 131//1
f 137//137 132//137 133//137
f 133//138 132//138 137//138
f 134//135 135//135 138//135
f 138//136 135//136 134//136
f 131//2 136//2 135//2
f 135//1 136//1 131//1
f 133//1 134//1 137//1
f 137//2 134//2 133//2
f 132//137 137//137 136//137
f 136//138 137//138 132//138
f 139//139 138//139 135//139
f 135//140 138//140 139//140
f 137//1 134//1 138//1
f 138//2 134//2 137//2
f 135//2 136//2 140//2
f 140//1 136//1 135//1
f 141//141 136//141 137//141
f 137//142 136//142 141//142
f 138//139 139//139 142//139
f 142//140 139//140 138//140
f 135//2 140//2 139//2
f 139//1 140//1 135//1
f 137//1 138//1 141//1
f 141//2 138//2 137//2
f 136//141 141//141 140//141
f 140//142 141//142 136//142
f 143//143 142//143 139//143
f 139//144 142//144 143//144
f 141//1 138//1 142//1
f 142//2 138//2 141//2
f 139//2 140//2 143//2
f 143//1 140//1 139//1
f 144//145 140//145 141//145
f 141//146 140//146 144//146
f 142//143 143//143 144//143
f 144//144 143//144 142//144
f 141//1 142//1 144//1
f 144//2 142//2 141//2
f 140//145 144//145 143//145
f 143//146 144//146 140//146
