# SSTK version 0.8.0
# 206
mtllib original-206.mtl
o Group34/mesh208/mesh208-geometry/material_1#mesh208-geometry
v 0.094172 -0.667781 0.102088
v 0.082911 -0.679042 0.085197
v 0.082911 -0.679042 0.102088
v 0.082911 -0.679042 0.085197
v 0.094172 -0.667781 0.102088
v 0.094172 -0.667781 0.085197
v 0.026609 -0.679042 0.085197
v 0.082911 -0.679042 0.102088
v 0.082911 -0.679042 0.085197
v 0.064894 -0.667781 0.102088
v 0.094172 -0.667781 0.102088
v 0.082911 -0.679042 0.102088
v 0.094172 -0.645260 0.102088
v 0.094172 -0.667781 0.085197
v 0.094172 -0.667781 0.102088
v 0.082911 -0.679042 0.102088
v 0.026609 -0.679042 0.085197
v 0.026609 -0.679042 0.102088
v 0.064894 -0.645260 0.102088
v 0.094172 -0.667781 0.102088
v 0.064894 -0.667781 0.102088
v 0.064894 -0.667781 0.102088
v 0.082911 -0.679042 0.102088
v 0.058138 -0.667781 0.102088
v 0.058138 -0.667781 0.102088
v 0.082911 -0.679042 0.102088
v 0.051382 -0.667781 0.102088
v 0.094172 -0.667781 0.085197
v 0.094172 -0.645260 0.102088
v 0.094172 -0.645260 0.085197
v 0.094172 -0.667781 0.102088
v 0.064894 -0.645260 0.102088
v 0.094172 -0.645260 0.102088
v 0.015348 -0.667781 0.085197
v 0.026609 -0.679042 0.102088
v 0.026609 -0.679042 0.085197
v 0.015348 -0.667781 0.102088
v 0.082911 -0.679042 0.102088
v 0.026609 -0.679042 0.102088
v 0.058138 -0.667781 0.102088
v 0.051382 -0.645260 0.102088
v 0.058138 -0.645260 0.102088
v 0.051382 -0.667781 0.102088
v 0.082911 -0.679042 0.102088
v 0.044625 -0.667781 0.102088
v 0.044625 -0.667781 0.102088
v 0.082911 -0.679042 0.102088
v 0.015348 -0.667781 0.102088
v 0.051382 -0.645260 0.102088
v 0.058138 -0.667781 0.102088
v 0.051382 -0.667781 0.102088
v 0.094172 -0.645260 0.102088
v 0.082911 -0.634000 0.085197
v 0.094172 -0.645260 0.085197
v 0.015348 -0.645260 0.102088
v 0.094172 -0.645260 0.102088
v 0.064894 -0.645260 0.102088
v 0.026609 -0.679042 0.102088
v 0.015348 -0.667781 0.085197
v 0.015348 -0.667781 0.102088
v 0.015348 -0.645260 0.102088
v 0.044625 -0.667781 0.102088
v 0.015348 -0.667781 0.102088
v 0.015348 -0.645260 0.102088
v 0.044625 -0.645260 0.102088
v 0.044625 -0.667781 0.102088
v 0.082911 -0.634000 0.085197
v 0.094172 -0.645260 0.102088
v 0.082911 -0.634000 0.102088
v 0.026609 -0.634000 0.102088
v 0.094172 -0.645260 0.102088
v 0.015348 -0.645260 0.102088
v 0.015348 -0.645260 0.102088
v 0.064894 -0.645260 0.102088
v 0.058138 -0.645260 0.102088
v 0.015348 -0.645260 0.102088
v 0.058138 -0.645260 0.102088
v 0.051382 -0.645260 0.102088
v 0.015348 -0.645260 0.085197
v 0.015348 -0.667781 0.102088
v 0.015348 -0.667781 0.085197
v 0.015348 -0.645260 0.102088
v 0.051382 -0.645260 0.102088
v 0.044625 -0.645260 0.102088
v 0.015348 -0.667781 0.102088
v 0.015348 -0.645260 0.085197
v 0.015348 -0.645260 0.102088
v 0.094172 -0.645260 0.102088
v 0.026609 -0.634000 0.102088
v 0.082911 -0.634000 0.102088
v 0.026609 -0.634000 0.102088
v 0.082911 -0.634000 0.085197
v 0.082911 -0.634000 0.102088
v 0.015348 -0.645260 0.102088
v 0.026609 -0.634000 0.085197
v 0.026609 -0.634000 0.102088
v 0.026609 -0.634000 0.085197
v 0.015348 -0.645260 0.102088
v 0.015348 -0.645260 0.085197
v 0.082911 -0.634000 0.085197
v 0.026609 -0.634000 0.102088
v 0.026609 -0.634000 0.085197
v 0.082911 -0.679042 0.102088
v 0.082911 -0.679042 0.085197
v 0.094172 -0.667781 0.102088
v 0.094172 -0.667781 0.085197
v 0.094172 -0.667781 0.102088
v 0.082911 -0.679042 0.085197
v 0.082911 -0.679042 0.085197
v 0.082911 -0.679042 0.102088
v 0.026609 -0.679042 0.085197
v 0.082911 -0.679042 0.102088
v 0.094172 -0.667781 0.102088
v 0.064894 -0.667781 0.102088
v 0.094172 -0.667781 0.102088
v 0.094172 -0.667781 0.085197
v 0.094172 -0.645260 0.102088
v 0.026609 -0.679042 0.102088
v 0.026609 -0.679042 0.085197
v 0.082911 -0.679042 0.102088
v 0.064894 -0.667781 0.102088
v 0.094172 -0.667781 0.102088
v 0.064894 -0.645260 0.102088
v 0.058138 -0.667781 0.102088
v 0.082911 -0.679042 0.102088
v 0.064894 -0.667781 0.102088
v 0.094172 -0.645260 0.085197
v 0.094172 -0.645260 0.102088
v 0.094172 -0.667781 0.085197
v 0.094172 -0.645260 0.102088
v 0.064894 -0.645260 0.102088
v 0.094172 -0.667781 0.102088
v 0.026609 -0.679042 0.085197
v 0.026609 -0.679042 0.102088
v 0.015348 -0.667781 0.085197
v 0.026609 -0.679042 0.102088
v 0.082911 -0.679042 0.102088
v 0.015348 -0.667781 0.102088
v 0.051382 -0.667781 0.102088
v 0.082911 -0.679042 0.102088
v 0.058138 -0.667781 0.102088
v 0.044625 -0.667781 0.102088
v 0.082911 -0.679042 0.102088
v 0.051382 -0.667781 0.102088
v 0.015348 -0.667781 0.102088
v 0.082911 -0.679042 0.102088
v 0.044625 -0.667781 0.102088
v 0.051382 -0.667781 0.102088
v 0.058138 -0.667781 0.102088
v 0.051382 -0.645260 0.102088
v 0.094172 -0.645260 0.085197
v 0.082911 -0.634000 0.085197
v 0.094172 -0.645260 0.102088
v 0.064894 -0.645260 0.102088
v 0.094172 -0.645260 0.102088
v 0.015348 -0.645260 0.102088
v 0.015348 -0.667781 0.102088
v 0.015348 -0.667781 0.085197
v 0.026609 -0.679042 0.102088
v 0.058138 -0.645260 0.102088
v 0.051382 -0.645260 0.102088
v 0.058138 -0.667781 0.102088
v 0.058138 -0.645260 0.102088
v 0.064894 -0.645260 0.102088
v 0.015348 -0.645260 0.102088
v 0.051382 -0.645260 0.102088
v 0.058138 -0.645260 0.102088
v 0.015348 -0.645260 0.102088
v 0.015348 -0.667781 0.102088
v 0.044625 -0.667781 0.102088
v 0.015348 -0.645260 0.102088
v 0.044625 -0.667781 0.102088
v 0.044625 -0.645260 0.102088
v 0.015348 -0.645260 0.102088
v 0.082911 -0.634000 0.102088
v 0.094172 -0.645260 0.102088
v 0.082911 -0.634000 0.085197
v 0.015348 -0.645260 0.102088
v 0.094172 -0.645260 0.102088
v 0.026609 -0.634000 0.102088
v 0.015348 -0.667781 0.085197
v 0.015348 -0.667781 0.102088
v 0.015348 -0.645260 0.085197
v 0.044625 -0.645260 0.102088
v 0.051382 -0.645260 0.102088
v 0.015348 -0.645260 0.102088
v 0.015348 -0.645260 0.102088
v 0.015348 -0.645260 0.085197
v 0.015348 -0.667781 0.102088
v 0.082911 -0.634000 0.102088
v 0.026609 -0.634000 0.102088
v 0.094172 -0.645260 0.102088
v 0.082911 -0.634000 0.102088
v 0.082911 -0.634000 0.085197
v 0.026609 -0.634000 0.102088
v 0.026609 -0.634000 0.102088
v 0.026609 -0.634000 0.085197
v 0.015348 -0.645260 0.102088
v 0.015348 -0.645260 0.085197
v 0.015348 -0.645260 0.102088
v 0.026609 -0.634000 0.085197
v 0.026609 -0.634000 0.085197
v 0.026609 -0.634000 0.102088
v 0.082911 -0.634000 0.085197
vn -0.7071067811865477 0.7071067811865475 0
vn 0 1 0
vn 0 0 -1
vn -1 0 0
vn 0.7071067811865475 0.7071067811865477 0
vn -0.7071067811865475 -0.7071067811865477 0
vn 1 0 0
vn 0 -1 0
vn 0.7071067811865477 -0.7071067811865475 0
vn 0 0 1
usemtl material_0_0
f 1//1 2//1 3//1
f 4//1 5//1 6//1
f 7//2 8//2 9//2
f 10//3 11//3 12//3
f 13//4 14//4 15//4
f 16//2 17//2 18//2
f 19//3 20//3 21//3
f 22//3 23//3 24//3
f 25//3 26//3 27//3
f 28//4 29//4 30//4
f 31//3 32//3 33//3
f 34//5 35//5 36//5
f 37//3 38//3 39//3
f 40//3 41//3 42//3
f 43//3 44//3 45//3
f 46//3 47//3 48//3
f 49//3 50//3 51//3
f 52//6 53//6 54//6
f 55//3 56//3 57//3
f 58//5 59//5 60//5
f 61//3 62//3 63//3
f 64//3 65//3 66//3
f 67//6 68//6 69//6
f 70//3 71//3 72//3
f 73//3 74//3 75//3
f 76//3 77//3 78//3
f 79//7 80//7 81//7
f 82//3 83//3 84//3
f 85//7 86//7 87//7
f 88//3 89//3 90//3
f 91//8 92//8 93//8
f 94//9 95//9 96//9
f 97//9 98//9 99//9
f 100//8 101//8 102//8
usemtl material_1_0
f 103//9 104//9 105//9
f 106//9 107//9 108//9
f 109//8 110//8 111//8
f 112//10 113//10 114//10
f 115//7 116//7 117//7
f 118//8 119//8 120//8
f 121//10 122//10 123//10
f 124//10 125//10 126//10
f 127//7 128//7 129//7
f 130//10 131//10 132//10
f 133//6 134//6 135//6
f 136//10 137//10 138//10
f 139//10 140//10 141//10
f 142//10 143//10 144//10
f 145//10 146//10 147//10
f 148//10 149//10 150//10
f 151//5 152//5 153//5
f 154//10 155//10 156//10
f 157//6 158//6 159//6
f 160//10 161//10 162//10
f 163//10 164//10 165//10
f 166//10 167//10 168//10
f 169//10 170//10 171//10
f 172//10 173//10 174//10
f 175//5 176//5 177//5
f 178//10 179//10 180//10
f 181//4 182//4 183//4
f 184//10 185//10 186//10
f 187//4 188//4 189//4
f 190//10 191//10 192//10
f 193//2 194//2 195//2
f 196//1 197//1 198//1
f 199//1 200//1 201//1
f 202//2 203//2 204//2
