# SSTK version 0.8.0
# 181
mtllib original-181.mtl
o Group9/mesh51/mesh51-geometry/material_1#mesh51-geometry
v -0.164820 0.229365 0.098957
v -0.209862 0.249521 0.100365
v -0.164820 0.249521 0.100365
v -0.209862 0.249521 0.100365
v -0.164820 0.229365 0.098957
v -0.209862 0.229365 0.098957
v -0.209862 0.249521 0.100365
v -0.142299 0.249521 0.100365
v -0.153559 0.249521 0.100365
v -0.209862 0.249521 0.100365
v -0.153559 0.249521 0.100365
v -0.164820 0.249521 0.100365
v -0.209862 0.229365 0.098957
v -0.164820 0.229365 0.098957
v -0.181711 0.229365 0.098957
v -0.209862 0.229365 0.098957
v -0.209862 0.278101 0.093642
v -0.209862 0.249521 0.100365
v -0.209862 0.249521 0.100365
v -0.097257 0.249521 0.100365
v -0.142299 0.249521 0.100365
v -0.142299 0.249521 0.100365
v -0.097257 0.229365 0.098957
v -0.142299 0.229365 0.098957
v -0.181711 0.209198 0.097865
v -0.209862 0.229365 0.098957
v -0.181711 0.229365 0.098957
v -0.209862 0.209198 0.097865
v -0.209862 0.278101 0.093642
v -0.209862 0.229365 0.098957
v -0.209862 0.269655 0.102088
v -0.097257 0.249521 0.100365
v -0.209862 0.249521 0.100365
v -0.209862 0.249521 0.100365
v -0.209862 0.278101 0.093642
v -0.209862 0.269655 0.102088
v -0.097257 0.229365 0.098957
v -0.142299 0.249521 0.100365
v -0.097257 0.249521 0.100365
v -0.142299 0.229365 0.098957
v -0.097257 0.229365 0.098957
v -0.125408 0.229365 0.098957
v -0.209862 0.229365 0.098957
v -0.181711 0.209198 0.097865
v -0.209862 0.209198 0.097865
v -0.209862 0.189008 0.097088
v -0.209862 0.278101 0.093642
v -0.209862 0.209198 0.097865
v -0.097257 0.249521 0.100365
v -0.209862 0.269655 0.102088
v -0.097257 0.269655 0.102088
v -0.209862 0.278101 0.093642
v -0.097257 0.269655 0.102088
v -0.209862 0.269655 0.102088
v -0.097257 0.278101 0.093642
v -0.097257 0.229365 0.098957
v -0.097257 0.249521 0.100365
v -0.097257 0.209198 0.097865
v -0.125408 0.229365 0.098957
v -0.097257 0.229365 0.098957
v -0.125408 0.229365 0.098957
v -0.097257 0.209198 0.097865
v -0.125408 0.209198 0.097865
v -0.181711 0.209198 0.097865
v -0.164820 0.189008 0.097088
v -0.209862 0.209198 0.097865
v -0.209862 0.168806 0.096615
v -0.209862 0.278101 0.093642
v -0.209862 0.189008 0.097088
v -0.209862 0.209198 0.097865
v -0.164820 0.189008 0.097088
v -0.209862 0.189008 0.097088
v -0.097257 0.269655 0.102088
v -0.209862 0.278101 0.093642
v -0.097257 0.278101 0.093642
v -0.097257 0.278101 0.093642
v -0.097257 0.249521 0.100365
v -0.097257 0.269655 0.102088
v -0.097257 0.278101 0.093642
v -0.097257 0.209198 0.097865
v -0.097257 0.229365 0.098957
v -0.097257 0.189008 0.097088
v -0.125408 0.209198 0.097865
v -0.097257 0.209198 0.097865
v -0.125408 0.209198 0.097865
v -0.097257 0.189008 0.097088
v -0.142299 0.209198 0.097865
v -0.164820 0.189008 0.097088
v -0.181711 0.209198 0.097865
v -0.164820 0.209198 0.097865
v -0.209862 0.019109 0.093642
v -0.209862 0.278101 0.093642
v -0.209862 0.168806 0.096615
v -0.209862 0.189008 0.097088
v -0.097257 0.168806 0.096615
v -0.209862 0.168806 0.096615
v -0.164820 0.189008 0.097088
v -0.097257 0.168806 0.096615
v -0.209862 0.189008 0.097088
v -0.097257 0.278101 0.085197
v -0.209862 0.278101 0.093642
v -0.209862 0.278101 0.085197
v -0.209862 0.278101 0.093642
v -0.097257 0.278101 0.085197
v -0.097257 0.278101 0.093642
v -0.097257 0.019109 0.085197
v -0.097257 0.278101 0.093642
v -0.097257 0.278101 0.085197
v -0.209862 0.278101 0.093642
v -0.209862 0.019109 0.085197
v -0.209862 0.278101 0.085197
v -0.209862 0.019109 0.085197
v -0.209862 0.278101 0.093642
v -0.209862 0.019109 0.093642
v -0.209862 0.019109 0.093642
v -0.209862 0.047688 0.100365
v -0.209862 0.027554 0.102088
v -0.209862 0.027554 0.102088
v -0.097257 0.019109 0.093642
v -0.209862 0.019109 0.093642
v -0.097257 0.278101 0.093642
v -0.097257 0.189008 0.097088
v -0.097257 0.209198 0.097865
v -0.142299 0.209198 0.097865
v -0.097257 0.189008 0.097088
v -0.142299 0.189008 0.097088
v -0.209862 0.019109 0.093642
v -0.209862 0.168806 0.096615
v -0.209862 0.148605 0.096457
v -0.097257 0.148605 0.096457
v -0.209862 0.168806 0.096615
v -0.097257 0.168806 0.096615
v -0.142299 0.189008 0.097088
v -0.097257 0.168806 0.096615
v -0.164820 0.189008 0.097088
v -0.097257 0.278101 0.093642
v -0.097257 0.019109 0.085197
v -0.097257 0.019109 0.093642
v -0.097257 0.278101 0.093642
v -0.097257 0.019109 0.093642
v -0.097257 0.168806 0.096615
v -0.097257 0.019109 0.093642
v -0.209862 0.019109 0.085197
v -0.209862 0.019109 0.093642
v -0.209862 0.047688 0.100365
v -0.209862 0.019109 0.093642
v -0.209862 0.067833 0.098957
v -0.209862 0.047688 0.100365
v -0.097257 0.027554 0.102088
v -0.209862 0.027554 0.102088
v -0.097257 0.019109 0.093642
v -0.209862 0.027554 0.102088
v -0.097257 0.027554 0.102088
v -0.209862 0.019109 0.085197
v -0.097257 0.019109 0.093642
v -0.097257 0.019109 0.085197
v -0.097257 0.278101 0.093642
v -0.097257 0.168806 0.096615
v -0.097257 0.189008 0.097088
v -0.097257 0.168806 0.096615
v -0.142299 0.189008 0.097088
v -0.097257 0.189008 0.097088
v -0.209862 0.168806 0.096615
v -0.097257 0.148605 0.096457
v -0.209862 0.148605 0.096457
v -0.209862 0.128403 0.096615
v -0.209862 0.019109 0.093642
v -0.209862 0.148605 0.096457
v -0.097257 0.168806 0.096615
v -0.097257 0.019109 0.093642
v -0.097257 0.148605 0.096457
v -0.097257 0.047688 0.100365
v -0.097257 0.019109 0.093642
v -0.097257 0.027554 0.102088
v -0.209862 0.067833 0.098957
v -0.209862 0.019109 0.093642
v -0.209862 0.088012 0.097865
v -0.209862 0.067833 0.098957
v -0.097257 0.047688 0.100365
v -0.209862 0.047688 0.100365
v -0.097257 0.027554 0.102088
v -0.209862 0.047688 0.100365
v -0.097257 0.047688 0.100365
v -0.097257 0.128403 0.096615
v -0.209862 0.148605 0.096457
v -0.097257 0.148605 0.096457
v -0.209862 0.108202 0.097088
v -0.209862 0.019109 0.093642
v -0.209862 0.128403 0.096615
v -0.209862 0.148605 0.096457
v -0.097257 0.128403 0.096615
v -0.209862 0.128403 0.096615
v -0.097257 0.019109 0.093642
v -0.097257 0.128403 0.096615
v -0.097257 0.148605 0.096457
v -0.097257 0.067833 0.098957
v -0.097257 0.019109 0.093642
v -0.097257 0.047688 0.100365
v -0.209862 0.088012 0.097865
v -0.209862 0.019109 0.093642
v -0.209862 0.108202 0.097088
v -0.209862 0.088012 0.097865
v -0.181711 0.067833 0.098957
v -0.209862 0.067833 0.098957
v -0.181711 0.067833 0.098957
v -0.097257 0.047688 0.100365
v -0.209862 0.067833 0.098957
v -0.209862 0.128403 0.096615
v -0.097257 0.108202 0.097088
v -0.209862 0.108202 0.097088
v -0.097257 0.108202 0.097088
v -0.209862 0.128403 0.096615
v -0.097257 0.128403 0.096615
v -0.097257 0.128403 0.096615
v -0.097257 0.019109 0.093642
v -0.097257 0.108202 0.097088
v -0.097257 0.088012 0.097865
v -0.097257 0.019109 0.093642
v -0.097257 0.067833 0.098957
v -0.097257 0.047688 0.100365
v -0.125408 0.067833 0.098957
v -0.097257 0.067833 0.098957
v -0.209862 0.108202 0.097088
v -0.097257 0.088012 0.097865
v -0.209862 0.088012 0.097865
v -0.181711 0.067833 0.098957
v -0.209862 0.088012 0.097865
v -0.181711 0.088012 0.097865
v -0.125408 0.067833 0.098957
v -0.097257 0.047688 0.100365
v -0.181711 0.067833 0.098957
v -0.097257 0.088012 0.097865
v -0.209862 0.108202 0.097088
v -0.097257 0.108202 0.097088
v -0.097257 0.108202 0.097088
v -0.097257 0.019109 0.093642
v -0.097257 0.088012 0.097865
v -0.097257 0.067833 0.098957
v -0.125408 0.088012 0.097865
v -0.097257 0.088012 0.097865
v -0.125408 0.088012 0.097865
v -0.097257 0.067833 0.098957
v -0.125408 0.067833 0.098957
v -0.209862 0.088012 0.097865
v -0.097257 0.088012 0.097865
v -0.125408 0.088012 0.097865
v -0.209862 0.088012 0.097865
v -0.125408 0.088012 0.097865
v -0.181711 0.088012 0.097865
v -0.164820 0.249521 0.100365
v -0.209862 0.249521 0.100365
v -0.164820 0.229365 0.098957
v -0.209862 0.229365 0.098957
v -0.164820 0.229365 0.098957
v -0.209862 0.249521 0.100365
v -0.153559 0.249521 0.100365
v -0.142299 0.249521 0.100365
v -0.209862 0.249521 0.100365
v -0.164820 0.249521 0.100365
v -0.153559 0.249521 0.100365
v -0.209862 0.249521 0.100365
v -0.181711 0.229365 0.098957
v -0.164820 0.229365 0.098957
v -0.209862 0.229365 0.098957
v -0.209862 0.249521 0.100365
v -0.209862 0.278101 0.093642
v -0.209862 0.229365 0.098957
v -0.142299 0.249521 0.100365
v -0.097257 0.249521 0.100365
v -0.209862 0.249521 0.100365
v -0.181711 0.229365 0.098957
v -0.209862 0.229365 0.098957
v -0.181711 0.209198 0.097865
v -0.209862 0.229365 0.098957
v -0.209862 0.278101 0.093642
v -0.209862 0.209198 0.097865
v -0.209862 0.249521 0.100365
v -0.097257 0.249521 0.100365
v -0.209862 0.269655 0.102088
v -0.209862 0.269655 0.102088
v -0.209862 0.278101 0.093642
v -0.209862 0.249521 0.100365
v -0.097257 0.249521 0.100365
v -0.142299 0.249521 0.100365
v -0.097257 0.229365 0.098957
v -0.142299 0.229365 0.098957
v -0.097257 0.229365 0.098957
v -0.142299 0.249521 0.100365
v -0.125408 0.229365 0.098957
v -0.097257 0.229365 0.098957
v -0.142299 0.229365 0.098957
v -0.209862 0.209198 0.097865
v -0.181711 0.209198 0.097865
v -0.209862 0.229365 0.098957
v -0.209862 0.209198 0.097865
v -0.209862 0.278101 0.093642
v -0.209862 0.189008 0.097088
v -0.097257 0.269655 0.102088
v -0.209862 0.269655 0.102088
v -0.097257 0.249521 0.100365
v -0.209862 0.278101 0.085197
v -0.209862 0.019109 0.085197
v -0.209862 0.278101 0.093642
v -0.209862 0.269655 0.102088
v -0.097257 0.269655 0.102088
v -0.209862 0.278101 0.093642
v -0.097257 0.249521 0.100365
v -0.097257 0.229365 0.098957
v -0.097257 0.278101 0.093642
v -0.097257 0.229365 0.098957
v -0.125408 0.229365 0.098957
v -0.097257 0.209198 0.097865
v -0.125408 0.209198 0.097865
v -0.097257 0.209198 0.097865
v -0.125408 0.229365 0.098957
v -0.209862 0.209198 0.097865
v -0.164820 0.189008 0.097088
v -0.181711 0.209198 0.097865
v -0.209862 0.189008 0.097088
v -0.209862 0.278101 0.093642
v -0.209862 0.168806 0.096615
v -0.209862 0.189008 0.097088
v -0.164820 0.189008 0.097088
v -0.209862 0.209198 0.097865
v -0.097257 0.269655 0.102088
v -0.097257 0.249521 0.100365
v -0.097257 0.278101 0.093642
v -0.209862 0.019109 0.093642
v -0.209862 0.278101 0.093642
v -0.209862 0.019109 0.085197
v -0.097257 0.278101 0.093642
v -0.209862 0.278101 0.093642
v -0.097257 0.269655 0.102088
v -0.097257 0.229365 0.098957
v -0.097257 0.209198 0.097865
v -0.097257 0.278101 0.093642
v -0.097257 0.209198 0.097865
v -0.125408 0.209198 0.097865
v -0.097257 0.189008 0.097088
v -0.142299 0.209198 0.097865
v -0.097257 0.189008 0.097088
v -0.125408 0.209198 0.097865
v -0.164820 0.209198 0.097865
v -0.181711 0.209198 0.097865
v -0.164820 0.189008 0.097088
v -0.209862 0.168806 0.096615
v -0.209862 0.278101 0.093642
v -0.209862 0.019109 0.093642
v -0.209862 0.168806 0.096615
v -0.097257 0.168806 0.096615
v -0.209862 0.189008 0.097088
v -0.209862 0.189008 0.097088
v -0.097257 0.168806 0.096615
v -0.164820 0.189008 0.097088
v -0.209862 0.278101 0.085197
v -0.209862 0.278101 0.093642
v -0.097257 0.278101 0.085197
v -0.097257 0.278101 0.093642
v -0.097257 0.278101 0.085197
v -0.209862 0.278101 0.093642
v -0.097257 0.278101 0.085197
v -0.097257 0.278101 0.093642
v -0.097257 0.019109 0.085197
v -0.209862 0.027554 0.102088
v -0.209862 0.047688 0.100365
v -0.209862 0.019109 0.093642
v -0.209862 0.019109 0.093642
v -0.097257 0.019109 0.093642
v -0.209862 0.027554 0.102088
v -0.097257 0.209198 0.097865
v -0.097257 0.189008 0.097088
v -0.097257 0.278101 0.093642
v -0.142299 0.189008 0.097088
v -0.097257 0.189008 0.097088
v -0.142299 0.209198 0.097865
v -0.209862 0.148605 0.096457
v -0.209862 0.168806 0.096615
v -0.209862 0.019109 0.093642
v -0.097257 0.168806 0.096615
v -0.209862 0.168806 0.096615
v -0.097257 0.148605 0.096457
v -0.164820 0.189008 0.097088
v -0.097257 0.168806 0.096615
v -0.142299 0.189008 0.097088
v -0.097257 0.019109 0.093642
v -0.097257 0.019109 0.085197
v -0.097257 0.278101 0.093642
v -0.097257 0.168806 0.096615
v -0.097257 0.019109 0.093642
v -0.097257 0.278101 0.093642
v -0.209862 0.019109 0.093642
v -0.209862 0.019109 0.085197
v -0.097257 0.019109 0.093642
v -0.209862 0.067833 0.098957
v -0.209862 0.019109 0.093642
v -0.209862 0.047688 0.100365
v -0.209862 0.027554 0.102088
v -0.097257 0.027554 0.102088
v -0.209862 0.047688 0.100365
v -0.097257 0.027554 0.102088
v -0.209862 0.027554 0.102088
v -0.097257 0.019109 0.093642
v -0.097257 0.019109 0.085197
v -0.097257 0.019109 0.093642
v -0.209862 0.019109 0.085197
v -0.097257 0.189008 0.097088
v -0.097257 0.168806 0.096615
v -0.097257 0.278101 0.093642
v -0.097257 0.189008 0.097088
v -0.142299 0.189008 0.097088
v -0.097257 0.168806 0.096615
v -0.209862 0.148605 0.096457
v -0.097257 0.148605 0.096457
v -0.209862 0.168806 0.096615
v -0.209862 0.148605 0.096457
v -0.209862 0.019109 0.093642
v -0.209862 0.128403 0.096615
v -0.097257 0.148605 0.096457
v -0.097257 0.019109 0.093642
v -0.097257 0.168806 0.096615
v -0.097257 0.027554 0.102088
v -0.097257 0.019109 0.093642
v -0.097257 0.047688 0.100365
v -0.209862 0.088012 0.097865
v -0.209862 0.019109 0.093642
v -0.209862 0.067833 0.098957
v -0.209862 0.047688 0.100365
v -0.097257 0.047688 0.100365
v -0.209862 0.067833 0.098957
v -0.097257 0.047688 0.100365
v -0.209862 0.047688 0.100365
v -0.097257 0.027554 0.102088
v -0.097257 0.148605 0.096457
v -0.209862 0.148605 0.096457
v -0.097257 0.128403 0.096615
v -0.209862 0.128403 0.096615
v -0.209862 0.019109 0.093642
v -0.209862 0.108202 0.097088
v -0.209862 0.128403 0.096615
v -0.097257 0.128403 0.096615
v -0.209862 0.148605 0.096457
v -0.097257 0.148605 0.096457
v -0.097257 0.128403 0.096615
v -0.097257 0.019109 0.093642
v -0.097257 0.047688 0.100365
v -0.097257 0.019109 0.093642
v -0.097257 0.067833 0.098957
v -0.209862 0.108202 0.097088
v -0.209862 0.019109 0.093642
v -0.209862 0.088012 0.097865
v -0.209862 0.067833 0.098957
v -0.181711 0.067833 0.098957
v -0.209862 0.088012 0.097865
v -0.209862 0.067833 0.098957
v -0.097257 0.047688 0.100365
v -0.181711 0.067833 0.098957
v -0.209862 0.108202 0.097088
v -0.097257 0.108202 0.097088
v -0.209862 0.128403 0.096615
v -0.097257 0.128403 0.096615
v -0.209862 0.128403 0.096615
v -0.097257 0.108202 0.097088
v -0.097257 0.108202 0.097088
v -0.097257 0.019109 0.093642
v -0.097257 0.128403 0.096615
v -0.097257 0.067833 0.098957
v -0.097257 0.019109 0.093642
v -0.097257 0.088012 0.097865
v -0.097257 0.067833 0.098957
v -0.125408 0.067833 0.098957
v -0.097257 0.047688 0.100365
v -0.209862 0.088012 0.097865
v -0.097257 0.088012 0.097865
v -0.209862 0.108202 0.097088
v -0.181711 0.088012 0.097865
v -0.209862 0.088012 0.097865
v -0.181711 0.067833 0.098957
v -0.181711 0.067833 0.098957
v -0.097257 0.047688 0.100365
v -0.125408 0.067833 0.098957
v -0.097257 0.108202 0.097088
v -0.209862 0.108202 0.097088
v -0.097257 0.088012 0.097865
v -0.097257 0.088012 0.097865
v -0.097257 0.019109 0.093642
v -0.097257 0.108202 0.097088
v -0.097257 0.088012 0.097865
v -0.125408 0.088012 0.097865
v -0.097257 0.067833 0.098957
v -0.125408 0.067833 0.098957
v -0.097257 0.067833 0.098957
v -0.125408 0.088012 0.097865
v -0.125408 0.088012 0.097865
v -0.097257 0.088012 0.097865
v -0.209862 0.088012 0.097865
v -0.181711 0.088012 0.097865
v -0.125408 0.088012 0.097865
v -0.209862 0.088012 0.097865
vn 0 0.06966098014625839 -0.997570723229718
vn 0 0.0773860158413105 -0.9970012058930563
vn 0 0.061931025004761504 -0.9980804316997001
vn 0 0.08510698452511958 -0.9963718187429033
vn 1 0 0
vn 0 0.04646100480538904 -0.9989201044290147
vn 0 -0.7071067811865476 -0.7071067811865476
vn -1 0 0
vn 0 0.030980000297107815 -0.9995200045930003
vn 0 0.03872200207363508 -0.9992500220442376
vn 0 0.01549199931278983 -0.9998799917776595
vn 0 -1 0
vn 0 0.7071067811865476 -0.7071067811865476
vn 0 0 -1
vn 0 1 0
vn 0 -0.0773860158413105 -0.9970012058930563
vn 0 -0.08510698452511958 -0.9963718187429033
vn 0 -0.061931025004761504 -0.9980804316997001
vn 0 -0.01549199931278983 -0.9998799917776595
vn 0 -0.04646100480538904 -0.9989201044290147
vn 0 -0.030980000297107815 -0.9995200045930003
vn 0 -0.0773860158413105 0.9970012058930563
vn 0 -0.06966098014625839 0.997570723229718
vn 0 -0.061931025004761504 0.9980804316997001
vn 0 -0.08510698452511958 0.9963718187429033
vn 0 -0.04646100480538904 0.9989201044290147
vn 0 0.7071067811865476 0.7071067811865476
vn 0 -0.030980000297107815 0.9995200045930003
vn 0 -0.03872200207363508 0.9992500220442376
vn 0 -0.01549199931278983 0.9998799917776595
vn 0 -0.7071067811865476 0.7071067811865476
vn 0 0 1
vn 0 0.08510698452511958 0.9963718187429033
vn 0 0.0773860158413105 0.9970012058930563
vn 0 0.061931025004761504 0.9980804316997001
vn 0 0.01549199931278983 0.9998799917776595
vn 0 0.04646100480538904 0.9989201044290147
vn 0 0.030980000297107815 0.9995200045930003
usemtl material_0_0
f 1//1 2//2 3//2
f 4//2 5//1 6//3
f 7//2 8//2 9//4
f 10//2 11//4 12//2
f 13//3 14//1 15//3
f 16//5 17//5 18//5
f 19//2 20//2 21//2
f 22//2 23//3 24//1
f 25//6 26//3 27//3
f 28//5 29//5 30//5
f 31//4 32//2 33//2
f 34//5 35//5 36//5
f 37//3 38//2 39//2
f 40//1 41//3 42//3
f 43//3 44//6 45//6
f 46//5 47//5 48//5
f 49//2 50//4 51//4
f 52//7 53//7 54//7
f 55//8 56//8 57//8
f 58//6 59//3 60//3
f 61//3 62//6 63//6
f 64//6 65//9 66//6
f 67//5 68//5 69//5
f 70//6 71//9 72//9
f 73//7 74//7 75//7
f 76//8 77//8 78//8
f 79//8 80//8 81//8
f 82//9 83//6 84//6
f 85//6 86//9 87//10
f 88//9 89//6 90//10
f 91//5 92//5 93//5
f 94//9 95//11 96//11
f 97//9 98//11 99//9
f 100//12 101//12 102//12
f 103//12 104//12 105//12
f 106//8 107//8 108//8
f 109//5 110//5 111//5
f 112//5 113//5 114//5
f 115//5 116//5 117//5
f 118//13 119//13 120//13
f 121//8 122//8 123//8
f 124//10 125//9 126//9
f 127//5 128//5 129//5
f 130//14 131//11 132//11
f 133//9 134//11 135//9
f 136//8 137//8 138//8
f 139//8 140//8 141//8
f 142//15 143//15 144//15
f 145//5 146//5 147//5
f 148//16 149//17 150//17
f 151//13 152//13 153//13
f 154//15 155//15 156//15
f 157//8 158//8 159//8
f 160//11 161//9 162//9
f 163//11 164//14 165//14
f 166//5 167//5 168//5
f 169//8 170//8 171//8
f 172//8 173//8 174//8
f 175//5 176//5 177//5
f 178//18 179//16 180//16
f 181//17 182//16 183//16
f 184//19 185//14 186//14
f 187//5 188//5 189//5
f 190//14 191//19 192//19
f 193//8 194//8 195//8
f 196//8 197//8 198//8
f 199//5 200//5 201//5
f 202//20 203//18 204//18
f 205//18 206//16 207//18
f 208//19 209//21 210//21
f 211//21 212//19 213//19
f 214//8 215//8 216//8
f 217//8 218//8 219//8
f 220//16 221//18 222//18
f 223//21 224//20 225//20
f 226//18 227//20 228//20
f 229//18 230//16 231//18
f 232//20 233//21 234//21
f 235//8 236//8 237//8
f 238//18 239//20 240//20
f 241//20 242//18 243//18
f 244//20 245//20 246//20
f 247//20 248//20 249//20
usemtl material_1_0
f 250//22 251//22 252//23
f 253//24 254//23 255//22
f 256//25 257//22 258//22
f 259//22 260//25 261//22
f 262//24 263//23 264//24
f 265//8 266//8 267//8
f 268//22 269//22 270//22
f 271//24 272//24 273//26
f 274//8 275//8 276//8
f 277//22 278//22 279//25
f 280//8 281//8 282//8
f 283//22 284//22 285//24
f 286//23 287//24 288//22
f 289//24 290//24 291//23
f 292//26 293//26 294//24
f 295//8 296//8 297//8
f 298//25 299//25 300//22
f 301//8 302//8 303//8
f 304//27 305//27 306//27
f 307//5 308//5 309//5
f 310//24 311//24 312//26
f 313//26 314//26 315//24
f 316//26 317//28 318//26
f 319//8 320//8 321//8
f 322//28 323//28 324//26
f 325//5 326//5 327//5
f 328//8 329//8 330//8
f 331//27 332//27 333//27
f 334//5 335//5 336//5
f 337//26 338//26 339//28
f 340//29 341//28 342//26
f 343//29 344//26 345//28
f 346//8 347//8 348//8
f 349//30 350//30 351//28
f 352//28 353//30 354//28
f 355//15 356//15 357//15
f 358//15 359//15 360//15
f 361//5 362//5 363//5
f 364//8 365//8 366//8
f 367//31 368//31 369//31
f 370//5 371//5 372//5
f 373//28 374//28 375//29
f 376//8 377//8 378//8
f 379//30 380//30 381//32
f 382//28 383//30 384//28
f 385//5 386//5 387//5
f 388//5 389//5 390//5
f 391//12 392//12 393//12
f 394//8 395//8 396//8
f 397//33 398//33 399//34
f 400//31 401//31 402//31
f 403//12 404//12 405//12
f 406//5 407//5 408//5
f 409//28 410//28 411//30
f 412//32 413//32 414//30
f 415//8 416//8 417//8
f 418//5 419//5 420//5
f 421//5 422//5 423//5
f 424//8 425//8 426//8
f 427//34 428//34 429//35
f 430//34 431//34 432//33
f 433//32 434//32 435//36
f 436//8 437//8 438//8
f 439//36 440//36 441//32
f 442//5 443//5 444//5
f 445//5 446//5 447//5
f 448//8 449//8 450//8
f 451//35 452//35 453//37
f 454//35 455//34 456//35
f 457//38 458//38 459//36
f 460//36 461//36 462//38
f 463//5 464//5 465//5
f 466//5 467//5 468//5
f 469//35 470//35 471//34
f 472//37 473//37 474//38
f 475//37 476//37 477//35
f 478//35 479//34 480//35
f 481//38 482//38 483//37
f 484//5 485//5 486//5
f 487//37 488//37 489//35
f 490//35 491//35 492//37
f 493//37 494//37 495//37
f 496//37 497//37 498//37
