# SSTK version 0.8.0
# 9
mtllib original-9.mtl
o mesh8/mesh8-geometry#mesh8-geometry
v -0.862735 -0.017841 -0.424376
v -0.066744 -0.017841 -0.165776
v -0.869131 -0.017841 -0.426014
v -0.862735 0.000640 -0.424376
v -0.036663 -0.017841 -0.150255
v -0.869131 0.000640 -0.426014
v -0.066744 0.000640 -0.165776
v -0.875683 -0.017841 -0.426830
v -0.875683 0.000640 -0.426830
v -0.036663 0.000640 -0.150255
v -0.882286 -0.017841 -0.426810
v -0.882286 0.000640 -0.426810
v -0.888833 -0.017841 -0.425956
v -0.007748 -0.017841 -0.132657
v -0.888833 0.000640 -0.425956
v -0.007748 0.000640 -0.132657
v -0.895219 0.000640 -0.424280
v -0.895219 -0.017841 -0.424280
v 0.019857 -0.017841 -0.113068
v -0.901343 -0.017841 -0.421810
v 0.019857 0.000640 -0.113068
v -0.901343 0.000640 -0.421810
v 0.046015 -0.017841 -0.091585
v -0.907104 -0.017841 -0.418585
v 0.046015 0.000640 -0.091585
v -0.912411 -0.017841 -0.414657
v -0.907104 0.000640 -0.418585
v 0.070597 -0.017841 -0.068316
v -0.912411 0.000640 -0.414657
v -0.917179 -0.017841 -0.410090
v 0.070597 0.000640 -0.068316
v -0.921331 -0.017841 -0.404956
v -0.917179 0.000640 -0.410090
v 0.093481 -0.017841 -0.043374
v -0.197311 0.000640 0.007940
v -0.924800 -0.017841 -0.399338
v 0.093481 0.000640 -0.043374
v -0.293570 -0.017841 -0.019170
v -0.004370 0.000640 -0.032844
v -0.921595 -0.005504 -0.405119
v -0.927531 -0.017841 -0.393326
v 0.114554 -0.017841 -0.016885
v -0.008907 0.000640 -0.031237
v -0.925064 -0.011697 -0.399501
v 0.114554 0.000640 -0.016885
v 0.000428 0.000640 -0.033222
v 0.133711 -0.017841 0.011021
v -0.245147 -0.008600 -0.006659
v 0.015892 0.000640 -0.023181
v -0.012874 0.000640 -0.028511
v 0.013166 0.000640 -0.027147
v 0.150857 -0.017841 0.040206
v -0.245152 -0.017841 -0.006641
v 0.017499 0.000640 -0.018644
v -0.016000 0.000640 -0.024851
v 0.133711 0.000640 0.011021
v 0.005161 0.000640 -0.032345
v 0.009505 0.000640 -0.030273
v 0.165907 -0.017841 0.070525
v 0.178788 -0.017841 0.101828
v 0.150857 0.000640 0.040206
v 0.017877 0.000640 -0.013845
v -0.018072 0.000640 -0.020506
v 0.165907 0.000640 0.070525
v -0.197311 -0.017841 0.007940
v -0.018949 0.000640 -0.015774
v 0.178788 0.000640 0.101828
v -0.150135 0.000640 0.024548
v 0.189433 -0.017841 0.133959
v 0.017000 0.000640 -0.009112
v 0.014928 0.000640 -0.004768
v -0.018571 0.000640 -0.010975
v 0.189433 0.000640 0.133959
v 0.011802 0.000640 -0.001108
v -0.150135 -0.017841 0.024548
v -0.016964 0.000640 -0.006438
v 0.007835 0.000640 0.001619
v -0.006233 0.000640 0.002726
v -0.103711 0.000640 0.043152
v 0.230880 0.000640 0.259052
v -0.103711 -0.017841 0.043152
v -0.014238 0.000640 -0.002472
v 0.003298 0.000640 0.003225
v -0.001500 0.000640 0.003603
v -0.010577 0.000640 0.000654
v -0.058122 0.000640 0.063718
v 0.154455 0.000640 0.194553
v 0.230880 -0.017841 0.259052
v -0.058122 -0.017841 0.063718
v -0.013450 0.000640 0.086209
v 0.114250 0.000640 0.164805
v 0.198049 0.000640 0.276241
v 0.154455 -0.017841 0.194553
v -0.013450 -0.017841 0.086209
v 0.030221 0.000640 0.110584
v 0.072814 0.000640 0.136799
v 0.114250 -0.017841 0.164805
v 0.198049 -0.017841 0.276241
v 0.030221 -0.017841 0.110584
v 0.072814 -0.017841 0.136799
vn 0 -1 0
vn 0 1 0
vn 0.3089814248811563 0 -0.9510680727889094
vn -0.3089814248811563 0 0.9510680727889094
vn 0.18619906384570767 0 -0.9825120399379246
vn 0.24808928004609687 0 -0.9687371723673089
vn -0.24808928004609687 0 0.9687371723673089
vn -0.18619906384570767 0 0.9825120399379246
vn 0.45852278922212186 0 -0.888682649635946
vn 0.48951862339153457 0 -0.8719928424894651
vn -0.48951862339153457 0 0.8719928424894651
vn -0.45852278922212186 0 0.888682649635946
vn 0.060425672317352803 0 -0.9981726995490289
vn -0.060425672317352803 0 0.9981726995490289
vn -0.06631890282942188 0 -0.9977984782146652
vn 0.06631890282942188 0 0.9977984782146652
vn 0.5496526681664389 0 -0.8353932872470995
vn -0.5496526681664389 0 0.8353932872470995
vn -0.19199789174010448 0 -0.9813953380607405
vn 0.19199789174010448 0 0.9813953380607405
vn -0.31459228890328866 0 -0.9492268916136909
vn 0.31459228890328866 0 0.9492268916136909
vn 0.607062987452728 0 -0.7946537165740615
vn -0.607062987452728 0 0.7946537165740615
vn -0.4321337133397281 0 -0.9018095440807985
vn 0.4321337133397281 0 0.9018095440807985
vn 0.6614645006662672 0 -0.7499764758699606
vn -0.6614645006662672 0 0.7499764758699606
vn -0.5427327107613527 0 -0.8399054736514305
vn 0.5427327107613527 0 0.8399054736514305
vn 0.7125889633470385 0 -0.7015817623883854
vn -0.7125889633470385 0 0.7015817623883854
vn -0.6446128310164027 0 -0.7645091877073936
vn 0.6446128310164027 0 0.7645091877073936
vn -0.736137984132702 0 -0.6768314918183417
vn 0.736137984132702 0 0.6768314918183417
vn 0.7601816597695394 0 -0.6497105849145667
vn -0.7601816597695394 0 0.6497105849145667
vn -0.7348454606316931 -0.008223005075824139 -0.6781847323381126
vn 0.7348454606316931 0.008223005075824139 0.6781847323381126
vn -0.7893931455158283 -0.01663799903359808 -0.6136624795445657
vn 0.7893931455158283 0.01663799903359808 0.6136624795445657
vn -0.8636959321425949 -0.04192099001499766 -0.5022668288833105
vn -0.8050891139013739 -0.03347599966885878 -0.592208473532481
vn 0.8050891139013739 0.03347599966885878 0.592208473532481
vn 0.8636959321425949 0.04192099001499766 0.5022668288833105
vn -0.34449023137670387 0.7276030120601944 0.5932287394647681
vn -0.344067934751897 0.7284156567505827 0.5924760647285101
vn -0.3367272908043088 0.7429329384709714 0.5785027057520804
vn 0.3367272908043088 -0.7429329384709714 -0.5785027057520804
vn 0.344067934751897 -0.7284156567505827 -0.5924760647285101
vn 0.34449023137670387 -0.7276030120601944 -0.5932287394647681
vn 0.8040071030831677 0 -0.5946196920652833
vn -0.8040071030831677 0 0.5946196920652833
vn -0.8699600995131456 -0.050340992060034576 -0.490545828413095
vn 0.8699600995131456 0.050340992060034576 0.490545828413095
vn -0.9093329733036365 -0.049977021608274566 -0.41305670430817815
vn 0.9093329733036365 0.049977021608274566 0.41305670430817815
vn -0.3432364537900141 0.7300308757864911 0.5909684062520302
vn 0.3432364537900141 -0.7300308757864911 -0.5909684062520302
vn -0.29895109803673764 0.807636662133333 0.5082826604958676
vn -0.3140925497573813 0.7832868720856867 0.5364769763979884
vn -0.28226086831183805 0.8316246747731151 0.47825641922336776
vn 0.28226086831183805 -0.8316246747731151 -0.47825641922336776
vn 0.3140925497573813 -0.7832868720856867 -0.5364769763979884
vn 0.29895109803673764 -0.807636662133333 -0.5082826604958676
vn 0.8438479059244788 0 -0.5365824369720573
vn -0.8438479059244788 0 0.5365824369720573
vn -0.2781580961684 0.001303000427837588 0.960534421937005
vn -0.2714393409687221 0.001953999205953376 0.9624535656651539
vn -0.2505076338824729 0.0019530005158332154 0.9681126541656143
vn 0.2505076338824729 -0.0019530005158332154 -0.9681126541656143
vn 0.2714393409687221 -0.001953999205953376 -0.9624535656651539
vn 0.2781580961684 -0.001303000427837588 -0.960534421937005
vn 0.879507047472362 0 -0.47588586178457576
vn -0.879507047472362 0 0.47588586178457576
vn -0.30534793128663945 0.0006509996883574173 0.9522406298086507
vn 0.30534793128663945 -0.0006509996883574173 -0.9522406298086507
vn 0.9108076638981574 0 -0.41283095739585884
vn -0.9108076638981574 0 0.41283095739585884
vn -0.31188074636056884 0 0.950121255445627
vn 0.31188074636056884 0 -0.950121255445627
vn 0.9375944477411405 0 -0.3477307170282571
vn -0.9375944477411405 0 0.3477307170282571
vn -0.3521027464559747 0 0.9359613538699979
vn 0.3521027464559747 0 -0.9359613538699979
vn 0.9492530013165853 0 -0.3145134965171681
vn -0.9492530013165853 0 0.3145134965171681
vn -0.39168360349640546 0 0.9200999699772143
vn 0.39168360349640546 0 -0.9200999699772143
vn -0.4305536159680949 0 0.9025650025215902
vn 0.4305536159680949 0 -0.9025650025215902
vn 0.46383273213591936 0 0.8859227938140706
vn -0.46383273213591936 0 -0.8859227938140706
vn -0.468639466938558 0 0.8833895233856602
vn 0.468639466938558 0 -0.8833895233856602
vn -0.5775168197723202 0 0.8163787863976288
vn -0.594791371599176 0 0.803880105657038
vn 0.594791371599176 0 -0.803880105657038
vn 0.5775168197723202 0 -0.8163787863976288
vn -0.8822322426193953 0 0.4708144752264445
vn 0.8822322426193953 0 -0.4708144752264445
vn -0.5058740421880854 0 0.8626073576316675
vn 0.5058740421880854 0 -0.8626073576316675
vn -0.5421881020309143 0 0.8402571404136445
vn 0.5421881020309143 0 -0.8402571404136445
usemtl material_0_0
f 1//1 2//1 3//1
f 3//2 2//2 1//2
f 1//3 4//3 2//3
f 2//4 4//4 1//4
f 5//1 3//1 2//1
f 2//2 3//2 5//2
f 3//5 6//5 1//6
f 1//7 6//8 3//8
f 4//6 1//6 6//5
f 6//8 1//7 4//7
f 7//3 2//3 4//3
f 4//4 2//4 7//4
f 8//1 3//1 5//1
f 5//2 3//2 8//2
f 2//9 7//9 5//10
f 5//11 7//12 2//12
f 6//5 3//5 9//13
f 9//14 3//8 6//8
f 6//2 10//2 4//2
f 4//1 10//1 6//1
f 7//2 4//2 10//2
f 10//1 4//1 7//1
f 8//13 9//13 3//5
f 3//8 9//14 8//14
f 11//1 8//1 5//1
f 5//2 8//2 11//2
f 10//10 5//10 7//9
f 7//12 5//11 10//11
f 9//2 10//2 6//2
f 6//1 10//1 9//1
f 9//13 8//13 12//15
f 12//16 8//14 9//14
f 11//15 12//15 8//13
f 8//14 12//16 11//16
f 13//1 11//1 5//1
f 5//2 11//2 13//2
f 5//10 10//10 14//17
f 14//18 10//11 5//11
f 12//2 10//2 9//2
f 9//1 10//1 12//1
f 12//15 11//15 15//19
f 15//20 11//16 12//16
f 13//19 15//19 11//15
f 11//16 15//20 13//20
f 14//1 13//1 5//1
f 5//2 13//2 14//2
f 16//17 14//17 10//10
f 10//11 14//18 16//18
f 15//2 10//2 12//2
f 12//1 10//1 15//1
f 15//19 13//19 17//21
f 17//22 13//20 15//20
f 18//1 13//1 14//1
f 14//2 13//2 18//2
f 14//17 16//17 19//23
f 19//24 16//18 14//18
f 16//2 10//2 15//2
f 15//1 10//1 16//1
f 18//21 17//21 13//19
f 13//20 17//22 18//22
f 17//2 16//2 15//2
f 15//1 16//1 17//1
f 20//1 18//1 14//1
f 14//2 18//2 20//2
f 21//23 19//23 16//17
f 16//18 19//24 21//24
f 19//1 20//1 14//1
f 14//2 20//2 19//2
f 17//21 18//21 22//25
f 22//26 18//22 17//22
f 22//2 16//2 17//2
f 17//1 16//1 22//1
f 20//25 22//25 18//21
f 18//22 22//26 20//26
f 19//23 21//23 23//27
f 23//28 21//24 19//24
f 21//2 16//2 22//2
f 22//1 16//1 21//1
f 24//1 20//1 19//1
f 19//2 20//2 24//2
f 20//25 24//29 22//25
f 22//26 24//30 20//26
f 25//27 23//27 21//23
f 21//24 23//28 25//28
f 23//1 26//1 19//1
f 19//2 26//2 23//2
f 27//2 21//2 22//2
f 22//1 21//1 27//1
f 26//1 24//1 19//1
f 19//2 24//2 26//2
f 27//29 22//25 24//29
f 24//30 22//26 27//30
f 23//27 25//27 28//31
f 28//32 25//28 23//28
f 25//2 21//2 29//2
f 29//1 21//1 25//1
f 30//1 26//1 23//1
f 23//2 26//2 30//2
f 29//2 21//2 27//2
f 27//1 21//1 29//1
f 24//29 26//33 27//29
f 27//30 26//34 24//30
f 31//31 28//31 25//27
f 25//28 28//32 31//32
f 28//1 32//1 23//1
f 23//2 32//2 28//2
f 33//2 25//2 29//2
f 29//1 25//1 33//1
f 26//33 30//35 29//33
f 29//34 30//36 26//34
f 32//1 30//1 23//1
f 23//2 30//2 32//2
f 29//33 27//29 26//33
f 26//34 27//30 29//34
f 28//31 31//31 34//37
f 34//38 31//32 28//32
f 31//2 25//2 35//2
f 35//1 25//1 31//1
f 36//1 32//1 28//1
f 28//2 32//2 36//2
f 35//2 25//2 33//2
f 33//1 25//1 35//1
f 33//39 29//33 30//35
f 30//36 29//34 33//40
f 30//35 32//41 33//39
f 33//40 32//42 30//36
f 37//37 34//37 31//31
f 31//32 34//38 37//38
f 34//1 38//1 28//1
f 28//2 38//2 34//2
f 39//2 31//2 35//2
f 35//1 31//1 39//1
f 32//41 36//43 40//44
f 40//45 36//46 32//42
f 41//1 36//1 28//1
f 28//2 36//2 41//2
f 33//47 40//48 35//49
f 35//50 40//51 33//52
f 32//41 40//44 33//39
f 33//40 40//45 32//42
f 34//37 37//37 42//53
f 42//54 37//38 34//38
f 37//2 31//2 39//2
f 39//1 31//1 37//1
f 42//1 38//1 34//1
f 34//2 38//2 42//2
f 38//1 41//1 28//1
f 28//2 41//2 38//2
f 43//2 39//2 35//2
f 35//1 39//1 43//1
f 36//43 44//55 40//44
f 40//45 44//56 36//46
f 36//43 41//57 44//55
f 44//56 41//58 36//46
f 40//48 44//59 35//49
f 35//50 44//60 40//51
f 45//53 42//53 37//37
f 37//38 42//54 45//54
f 46//2 37//2 39//2
f 39//1 37//1 46//1
f 47//1 38//1 42//1
f 42//2 38//2 47//2
f 48//61 41//62 38//63
f 38//64 41//65 48//66
f 43//2 49//2 39//2
f 39//1 49//1 43//1
f 50//2 43//2 35//2
f 35//1 43//1 50//1
f 44//59 41//62 35//49
f 35//50 41//65 44//60
f 42//53 45//53 47//67
f 47//68 45//54 42//54
f 45//2 37//2 46//2
f 46//1 37//1 45//1
f 39//2 51//2 46//2
f 46//1 51//1 39//1
f 52//1 38//1 47//1
f 47//2 38//2 52//2
f 35//49 41//62 48//61
f 48//66 41//65 35//50
f 53//69 48//70 38//71
f 38//72 48//73 53//74
f 54//2 49//2 43//2
f 43//1 49//1 54//1
f 49//2 51//2 39//2
f 39//1 51//1 49//1
f 50//2 54//2 43//2
f 43//1 54//1 50//1
f 55//2 50//2 35//2
f 35//1 50//1 55//1
f 56//67 47//67 45//53
f 45//54 47//68 56//68
f 57//2 45//2 46//2
f 46//1 45//1 57//1
f 51//2 58//2 46//2
f 46//1 58//1 51//1
f 59//1 38//1 52//1
f 52//2 38//2 59//2
f 47//67 56//67 52//75
f 52//76 56//68 47//68
f 53//69 35//77 48//70
f 48//73 35//78 53//74
f 53//1 38//1 60//1
f 60//2 38//2 53//2
f 54//2 61//2 49//2
f 49//1 61//1 54//1
f 49//2 61//2 51//2
f 51//1 61//1 49//1
f 62//2 54//2 50//2
f 50//1 54//1 62//1
f 55//2 62//2 50//2
f 50//1 62//1 55//1
f 63//2 55//2 35//2
f 35//1 55//1 63//1
f 45//2 57//2 56//2
f 56//1 57//1 45//1
f 57//2 46//2 58//2
f 58//1 46//1 57//1
f 51//2 56//2 58//2
f 58//1 56//1 51//1
f 60//1 38//1 59//1
f 59//2 38//2 60//2
f 59//79 52//75 64//79
f 64//80 52//76 59//80
f 61//75 52//75 56//67
f 56//68 52//76 61//76
f 65//81 35//77 53//69
f 53//74 35//78 65//82
f 65//1 53//1 60//1
f 60//2 53//2 65//2
f 62//2 61//2 54//2
f 54//1 61//1 62//1
f 61//2 56//2 51//2
f 51//1 56//1 61//1
f 63//2 62//2 55//2
f 55//1 62//1 63//1
f 66//2 63//2 35//2
f 35//1 63//1 66//1
f 58//2 56//2 57//2
f 57//1 56//1 58//1
f 60//83 59//79 67//83
f 67//84 59//80 60//84
f 61//75 64//79 52//75
f 52//76 64//80 61//76
f 64//79 67//83 59//79
f 59//80 67//84 64//80
f 35//77 65//81 68//85
f 68//86 65//82 35//78
f 60//1 69//1 65//1
f 65//2 69//2 60//2
f 70//2 61//2 62//2
f 62//1 61//1 70//1
f 70//2 62//2 63//2
f 63//1 62//1 70//1
f 66//2 71//2 63//2
f 63//1 71//1 66//1
f 72//2 66//2 35//2
f 35//1 66//1 72//1
f 67//83 73//87 60//83
f 60//84 73//88 67//84
f 64//2 61//2 74//2
f 74//1 61//1 64//1
f 67//2 64//2 35//2
f 35//1 64//1 67//1
f 75//85 68//85 65//81
f 65//82 68//86 75//86
f 68//2 73//2 35//2
f 35//1 73//1 68//1
f 69//87 60//83 73//87
f 73//88 60//84 69//88
f 75//1 65//1 69//1
f 69//2 65//2 75//2
f 71//2 61//2 70//2
f 70//1 61//1 71//1
f 71//2 70//2 63//2
f 63//1 70//1 71//1
f 72//2 71//2 66//2
f 66//1 71//1 72//1
f 76//2 72//2 35//2
f 35//1 72//1 76//1
f 73//2 67//2 35//2
f 35//1 67//1 73//1
f 74//2 61//2 71//2
f 71//1 61//1 74//1
f 77//2 64//2 74//2
f 74//1 64//1 77//1
f 64//2 78//2 35//2
f 35//1 78//1 64//1
f 68//85 75//85 79//89
f 79//90 75//86 68//86
f 79//2 73//2 68//2
f 68//1 73//1 79//1
f 73//87 80//87 69//87
f 69//88 80//88 73//88
f 81//1 75//1 69//1
f 69//2 75//2 81//2
f 74//2 71//2 72//2
f 72//1 71//1 74//1
f 76//2 77//2 72//2
f 72//1 77//1 76//1
f 82//2 76//2 35//2
f 35//1 76//1 82//1
f 83//2 64//2 77//2
f 77//1 64//1 83//1
f 77//2 74//2 72//2
f 72//1 74//1 77//1
f 78//2 64//2 84//2
f 84//1 64//1 78//1
f 78//2 85//2 35//2
f 35//1 85//1 78//1
f 81//89 79//89 75//85
f 75//86 79//90 81//90
f 86//2 73//2 79//2
f 79//1 73//1 86//1
f 80//2 73//2 87//2
f 87//1 73//1 80//1
f 88//87 69//87 80//87
f 80//88 69//88 88//88
f 89//1 81//1 69//1
f 69//2 81//2 89//2
f 82//2 77//2 76//2
f 76//1 77//1 82//1
f 85//2 82//2 35//2
f 35//1 82//1 85//1
f 84//2 64//2 83//2
f 83//1 64//1 84//1
f 83//2 77//2 82//2
f 82//1 77//1 83//1
f 78//2 84//2 85//2
f 85//1 84//1 78//1
f 79//89 81//89 86//91
f 86//92 81//90 79//90
f 90//2 73//2 86//2
f 86//1 73//1 90//1
f 87//2 73//2 91//2
f 91//1 73//1 87//1
f 92//2 80//2 87//2
f 87//1 80//1 92//1
f 88//1 93//1 69//1
f 69//2 93//2 88//2
f 80//93 92//93 88//93
f 88//94 92//94 80//94
f 89//91 86//91 81//89
f 81//90 86//92 89//92
f 94//1 89//1 69//1
f 69//2 89//2 94//2
f 85//2 84//2 82//2
f 82//1 84//1 85//1
f 84//2 83//2 82//2
f 82//1 83//1 84//1
f 95//2 73//2 90//2
f 90//1 73//1 95//1
f 86//91 89//91 90//95
f 90//96 89//92 86//92
f 91//2 73//2 96//2
f 96//1 73//1 91//1
f 91//97 97//97 87//98
f 87//99 97//100 91//100
f 87//101 93//101 92//101
f 92//102 93//102 87//102
f 98//1 93//1 88//1
f 88//2 93//2 98//2
f 93//1 97//1 69//1
f 69//2 97//2 93//2
f 98//93 88//93 92//93
f 92//94 88//94 98//94
f 94//95 90//95 89//91
f 89//92 90//96 94//96
f 99//1 94//1 69//1
f 69//2 94//2 99//2
f 96//2 73//2 95//2
f 95//1 73//1 96//1
f 90//95 94//95 95//103
f 95//104 94//96 90//96
f 96//105 100//105 91//97
f 91//100 100//106 96//106
f 97//97 91//97 100//105
f 100//106 91//100 97//100
f 93//98 87//98 97//97
f 97//100 87//99 93//99
f 98//101 92//101 93//101
f 93//102 92//102 98//102
f 97//1 100//1 69//1
f 69//2 100//2 97//2
f 99//103 95//103 94//95
f 94//96 95//104 99//104
f 100//1 99//1 69//1
f 69//2 99//2 100//2
f 95//103 99//103 96//105
f 96//106 99//104 95//104
f 100//105 96//105 99//103
f 99//104 96//106 100//106
