# SSTK version 0.8.0
# 7
mtllib original-7.mtl
o Group4/mesh7/mesh7-geometry#mesh7-geometry
v 0.083675 -0.190857 -0.914190
v 0.042112 -0.226098 -0.917144
v 0.042112 -0.190857 -0.917144
v 0.083675 -0.226098 -0.914190
v 0.000456 -0.226098 -0.918129
v 0.125052 -0.190857 -0.909274
v -0.041200 -0.226098 -0.917144
v 0.000456 -0.190857 -0.918129
v 0.125052 -0.226098 -0.909274
v -0.082763 -0.226098 -0.914190
v 0.166151 -0.190857 -0.902408
v -0.041200 -0.190857 -0.917144
v 0.166151 -0.226098 -0.902408
v -0.124141 -0.226098 -0.909274
v -0.082763 -0.190857 -0.914190
v 0.206878 -0.190857 -0.893606
v 0.206878 -0.226098 -0.893606
v -0.165239 -0.226098 -0.902408
v -0.124141 -0.190857 -0.909274
v 0.247144 -0.190857 -0.882888
v 0.247144 -0.226098 -0.882888
v -0.205966 -0.226098 -0.893606
v -0.165239 -0.190857 -0.902408
v 0.257908 -0.226098 -0.730406
v 0.257908 -0.190857 -0.730406
v -0.246232 -0.226098 -0.882888
v -0.205966 -0.190857 -0.893606
v 0.266718 -0.226098 -0.577799
v -0.256997 -0.226098 -0.730406
v 0.266718 -0.190857 -0.577799
v -0.246232 -0.190857 -0.882888
v 0.273572 -0.226098 -0.425091
v -0.265806 -0.226098 -0.577799
v -0.256997 -0.190857 -0.730406
v 0.273572 -0.190857 -0.425091
v -0.265806 -0.190857 -0.577799
v 0.278468 -0.226098 -0.272309
v -0.272660 -0.226098 -0.425091
v 0.278468 -0.190857 -0.272309
v -0.272660 -0.190857 -0.425091
v 0.281406 -0.226098 -0.119475
v -0.277556 -0.226098 -0.272309
v -0.277556 -0.190857 -0.272309
v 0.281406 -0.190857 -0.119475
v 0.282385 -0.226098 0.033383
v -0.280494 -0.226098 -0.119475
v -0.280494 -0.190857 -0.119475
v 0.282385 -0.190857 0.033383
v 0.281406 -0.190857 0.186241
v -0.281473 -0.226098 0.033383
v -0.281473 -0.190857 0.033383
v 0.281406 -0.226098 0.186241
v 0.278468 -0.190857 0.339074
v -0.280494 -0.226098 0.186241
v -0.280494 -0.190857 0.186241
v 0.278468 -0.226098 0.339074
v 0.273572 -0.190857 0.491856
v -0.277556 -0.226098 0.339074
v -0.277556 -0.190857 0.339074
v 0.273572 -0.226098 0.491856
v 0.266718 -0.190857 0.644564
v -0.272660 -0.226098 0.491856
v -0.272660 -0.190857 0.491856
v 0.266718 -0.226098 0.644564
v 0.257908 -0.190857 0.797171
v -0.265806 -0.226098 0.644564
v -0.265806 -0.190857 0.644564
v 0.257908 -0.226098 0.797171
v 0.249222 -0.226098 0.919275
v -0.256997 -0.226098 0.797171
v -0.256997 -0.190857 0.797171
v 0.249626 -0.190857 0.914499
v 0.249222 -0.190857 0.919275
v -0.248401 -0.226098 0.919310
v -0.248401 -0.190857 0.919310
v 0.248186 -0.226098 0.923955
v -0.248714 -0.190857 0.914499
v 0.248186 -0.190857 0.923955
v -0.247432 -0.226098 0.924033
v -0.247432 -0.190857 0.924033
v 0.246533 -0.226098 0.928454
v 0.246533 -0.190857 0.928454
v -0.245825 -0.226098 0.928579
v -0.245825 -0.190857 0.928579
v 0.244295 -0.226098 0.932692
v 0.244295 -0.190857 0.932692
v -0.243610 -0.226098 0.932862
v -0.243610 -0.190857 0.932862
v 0.241511 -0.226098 0.936593
v 0.241511 -0.190857 0.936593
v -0.240830 -0.226098 0.936801
v -0.240830 -0.190857 0.936801
v 0.238231 -0.226098 0.940088
v 0.238231 -0.190857 0.940088
v -0.237537 -0.226098 0.940322
v -0.237537 -0.190857 0.940322
v 0.234513 -0.190857 0.943114
v 0.234513 -0.226098 0.943114
v -0.233792 -0.226098 0.943360
v 0.230426 -0.190857 0.945616
v 0.230426 -0.226098 0.945616
v -0.233792 -0.190857 0.943360
v -0.229668 -0.226098 0.945855
v 0.226040 -0.190857 0.947550
v 0.226040 -0.226098 0.947550
v -0.229668 -0.190857 0.945855
v -0.225239 -0.226098 0.947762
v 0.221436 -0.190857 0.948882
v 0.221436 -0.226098 0.948882
v -0.225239 -0.190857 0.947762
v -0.220592 -0.226098 0.949045
v 0.216695 -0.190857 0.949587
v 0.216695 -0.226098 0.949587
v -0.220592 -0.190857 0.949045
v -0.215812 -0.226098 0.949679
v -0.215812 -0.190857 0.949679
vn 0.0944569945833638 0 -0.9955289429113945
vn 0.04728098243783694 0 -0.9988816289729795
vn 0 0 -1
vn 0.14142107623715292 0 -0.9899495336611486
vn 0 -1 0
vn -0.04728098243783694 0 -0.9988816289729795
vn 0.1880689664205711 0 -0.9821558246375662
vn -0.0944569945833638 0 -0.9955289429113945
vn 0.23429701506131553 0 -0.9721650624936887
vn -0.14142107623715292 0 -0.9899495336611486
vn 0.2572199679749585 0 -0.9663528796847254
vn -0.1880689664205711 0 -0.9821558246375662
vn 0.9975174280901824 0 -0.07042003022114976
vn 0.9979481659423277 0 -0.06402701064663632
vn -0.23429701506131553 0 -0.9721650624936887
vn 0.9986866770622316 0 -0.051233983432853715
vn -0.2572199679749585 0 -0.9663528796847254
vn -0.9979481659423277 0 -0.06402701064663632
vn -0.9975174280901824 0 -0.07042003022114976
vn 0.9992611790626231 0 -0.038433006887003296
vn -0.9986866770622316 0 -0.051233983432853715
vn 0.9996716004013511 0 -0.025625989756525164
vn -0.9992611790626231 0 -0.038433006887003296
vn 0.999917897348434 0 -0.012813998684514964
vn -0.9996716004013511 0 -0.025625989756525164
vn 1 0 0
vn -0.999917897348434 0 -0.012813998684514964
vn 0.999917897348434 0 0.012813998684514964
vn -1 0 0
vn 0.9996716004013511 0 0.025625989756525164
vn -0.999917897348434 0 0.012813998684514964
vn 0.9992611790626231 0 0.038433006887003296
vn -0.9996716004013511 0 0.025625989756525164
vn 0.9986866770622316 0 0.051233983432853715
vn -0.9992611790626231 0 0.038433006887003296
vn 0.9979353433172605 -0.00026200009013525156 0.06422602209552163
vn -0.9986866770622316 0 0.051233983432853715
vn 0.9895782299438669 -0.0002630000611121478 0.1439960334597142
vn -0.9979532255683911 0.00010500002373326307 0.0639480144542353
vn 0.9974891147760917 -0.0005250000604091355 0.07081800814867459
vn -0.9907170650336423 0.00010500000689251567 0.1359400089235103
vn 0.9596432994812092 0 0.2812200877619132
vn -0.9975286221147828 0.00020899992082635153 0.07026097338363772
vn -0.9634772824776102 0 0.2677900785121795
vn 0.9135131993057639 0 0.4068090887555826
vn -0.9177242387459917 0 0.39721810333630303
vn 0.8510307547257381 0 0.5251158486571708
vn -0.8546770513109657 0 0.519160031168033
vn 0.7733141132421938 0 0.6340230928447635
vn -0.7755231538289105 0 0.6313191252253175
vn 0.6817552807383604 0 0.7315803012556853
vn -0.6817552807383604 0 0.7315803012556853
vn 0.5779922029250062 0 0.8160422865010727
vn -0.5751388595347162 0 0.8180558002074835
vn 0.46388278376155456 0 0.885896587040288
vn -0.4576851683775988 0 0.8891143270958854
vn 0.3414698954506415 0 0.9398927122288627
vn -0.3316050996889639 0 0.943418283615636
vn 0.21294408440764467 0 0.9770643872927669
vn -0.19927703925977264 0 0.9799431930596073
vn 0.07382501484078584 -0.00014100002834474505 0.997271200477959
vn -0.06584399469570676 -0.00014099998864125287 0.9978299196163216
vn -0.04728098243783694 0 0.9988816289729795
vn -0.0944569945833638 0 0.9955289429113945
vn 0 0 1
vn -0.14142107623715292 0 0.9899495336611486
vn 0 1 0
vn 0.04728098243783694 0 0.9988816289729795
vn -0.1880689664205711 0 0.9821558246375662
vn 0.0944569945833638 0 0.9955289429113945
vn -0.23429701506131553 0 0.9721650624936887
vn 0.14142107623715292 0 0.9899495336611486
vn -0.2572199679749585 0 0.9663528796847254
vn 0.1880689664205711 0 0.9821558246375662
vn -0.9975174280901824 0 0.07042003022114976
vn -0.9979481659423277 0 0.06402701064663632
vn 0.23429701506131553 0 0.9721650624936887
vn 0.2572199679749585 0 0.9663528796847254
vn 0.9975174280901824 0 0.07042003022114976
vn 0.9979481659423277 0 0.06402701064663632
vn -0.9979353433172605 0.00026200009013525156 -0.06422602209552163
vn -0.9895782299438669 0.0002630000611121478 -0.1439960334597142
vn 0.9979532255683911 -0.00010500002373326307 -0.0639480144542353
vn -0.9974891147760917 0.0005250000604091355 -0.07081800814867459
vn 0.9907170650336423 -0.00010500000689251567 -0.1359400089235103
vn -0.9596432994812092 0 -0.2812200877619132
vn 0.9975286221147828 -0.00020899992082635153 -0.07026097338363772
vn 0.9634772824776102 0 -0.2677900785121795
vn -0.9135131993057639 0 -0.4068090887555826
vn 0.9177242387459917 0 -0.39721810333630303
vn -0.8510307547257381 0 -0.5251158486571708
vn 0.8546770513109657 0 -0.519160031168033
vn -0.7733141132421938 0 -0.6340230928447635
vn 0.7755231538289105 0 -0.6313191252253175
vn -0.6817552807383604 0 -0.7315803012556853
vn 0.6817552807383604 0 -0.7315803012556853
vn -0.5779922029250062 0 -0.8160422865010727
vn 0.5751388595347162 0 -0.8180558002074835
vn -0.46388278376155456 0 -0.885896587040288
vn 0.4576851683775988 0 -0.8891143270958854
vn -0.3414698954506415 0 -0.9398927122288627
vn 0.3316050996889639 0 -0.943418283615636
vn -0.21294408440764467 0 -0.9770643872927669
vn 0.19927703925977264 0 -0.9799431930596073
vn -0.07382501484078584 0.00014100002834474505 -0.997271200477959
vn 0.06584399469570676 0.00014099998864125287 -0.9978299196163216
usemtl material_0_0
f 1//1 2//2 3//2
f 2//2 1//1 4//1
f 5//3 3//2 2//2
f 6//4 4//1 1//1
f 7//5 2//5 4//5
f 3//2 5//3 8//3
f 2//5 7//5 5//5
f 4//1 6//4 9//4
f 7//5 4//5 10//5
f 7//6 8//3 5//3
f 11//7 9//4 6//4
f 10//5 4//5 9//5
f 10//8 12//6 7//6
f 8//3 7//6 12//6
f 9//4 11//7 13//7
f 10//5 9//5 14//5
f 12//6 10//8 15//8
f 16//9 13//7 11//7
f 14//5 9//5 13//5
f 14//10 15//8 10//8
f 13//7 16//9 17//9
f 14//5 13//5 18//5
f 15//8 14//10 19//10
f 20//11 17//9 16//9
f 18//5 13//5 17//5
f 18//12 19//10 14//10
f 17//9 20//11 21//11
f 18//5 17//5 22//5
f 19//10 18//12 23//12
f 20//13 24//14 21//13
f 22//5 17//5 21//5
f 22//15 23//12 18//12
f 24//14 20//13 25//14
f 26//5 21//5 24//5
f 22//5 21//5 26//5
f 23//12 22//15 27//15
f 25//14 28//16 24//14
f 26//5 24//5 29//5
f 26//17 27//15 22//15
f 28//16 25//14 30//16
f 29//5 24//5 28//5
f 29//18 31//19 26//19
f 27//15 26//17 31//17
f 30//16 32//20 28//16
f 29//5 28//5 33//5
f 31//19 29//18 34//18
f 32//20 30//16 35//20
f 33//5 28//5 32//5
f 36//21 29//18 33//21
f 29//18 36//21 34//18
f 35//20 37//22 32//20
f 33//5 32//5 38//5
f 38//23 36//21 33//21
f 37//22 35//20 39//22
f 38//5 32//5 37//5
f 36//21 38//23 40//23
f 39//22 41//24 37//22
f 38//5 37//5 42//5
f 38//23 43//25 40//23
f 41//24 39//22 44//24
f 42//5 37//5 41//5
f 43//25 38//23 42//25
f 44//24 45//26 41//24
f 42//5 41//5 46//5
f 42//25 47//27 43//25
f 45//26 44//24 48//26
f 46//5 41//5 45//5
f 47//27 42//25 46//27
f 49//28 45//26 48//26
f 46//5 45//5 50//5
f 46//27 51//29 47//27
f 45//26 49//28 52//28
f 50//5 45//5 52//5
f 51//29 46//27 50//29
f 53//30 52//28 49//28
f 50//5 52//5 54//5
f 50//29 55//31 51//29
f 52//28 53//30 56//30
f 54//5 52//5 56//5
f 55//31 50//29 54//31
f 57//32 56//30 53//30
f 54//5 56//5 58//5
f 54//31 59//33 55//31
f 56//30 57//32 60//32
f 58//5 56//5 60//5
f 59//33 54//31 58//33
f 61//34 60//32 57//32
f 58//5 60//5 62//5
f 58//33 63//35 59//33
f 60//32 61//34 64//34
f 62//5 60//5 64//5
f 63//35 58//33 62//35
f 65//36 64//34 61//34
f 62//5 64//5 66//5
f 62//35 67//37 63//35
f 64//34 65//36 68//36
f 66//5 64//5 68//5
f 67//37 62//35 66//37
f 65//36 69//38 68//36
f 66//5 68//5 70//5
f 66//37 71//39 67//37
f 69//38 65//36 72//40
f 70//5 68//5 69//5
f 71//39 66//37 70//39
f 73//38 69//38 72//40
f 70//5 69//5 74//5
f 70//39 75//41 71//39
f 73//38 76//42 69//38
f 74//5 69//5 76//5
f 75//41 70//39 74//41
f 71//39 75//41 77//43
f 76//42 73//38 78//42
f 74//5 76//5 79//5
f 74//41 80//44 75//41
f 78//42 81//45 76//42
f 79//5 76//5 81//5
f 80//44 74//41 79//44
f 81//45 78//42 82//45
f 79//5 81//5 83//5
f 79//44 84//46 80//44
f 82//45 85//47 81//45
f 83//5 81//5 85//5
f 84//46 79//44 83//46
f 85//47 82//45 86//47
f 83//5 85//5 87//5
f 83//46 88//48 84//46
f 86//47 89//49 85//47
f 87//5 85//5 89//5
f 88//48 83//46 87//48
f 89//49 86//47 90//49
f 87//5 89//5 91//5
f 87//48 92//50 88//48
f 90//49 93//51 89//49
f 91//5 89//5 93//5
f 92//50 87//48 91//50
f 93//51 90//49 94//51
f 91//5 93//5 95//5
f 91//50 96//52 92//50
f 97//53 93//51 94//51
f 95//5 93//5 98//5
f 96//52 91//50 95//52
f 93//51 97//53 98//53
f 95//5 98//5 99//5
f 99//54 96//52 95//52
f 100//55 98//53 97//53
f 99//5 98//5 101//5
f 96//52 99//54 102//54
f 98//53 100//55 101//55
f 99//5 101//5 103//5
f 103//56 102//54 99//54
f 104//57 101//55 100//55
f 103//5 101//5 105//5
f 102//54 103//56 106//56
f 101//55 104//57 105//57
f 103//5 105//5 107//5
f 107//58 106//56 103//56
f 108//59 105//57 104//57
f 107//5 105//5 109//5
f 106//56 107//58 110//58
f 105//57 108//59 109//59
f 107//5 109//5 111//5
f 111//60 110//58 107//58
f 112//61 109//59 108//59
f 111//5 109//5 113//5
f 110//58 111//60 114//60
f 109//59 112//61 113//61
f 111//5 113//5 115//5
f 115//62 114//60 111//60
f 116//62 113//61 112//61
f 113//61 116//62 115//62
f 114//60 115//62 116//62
usemtl material_1_0
f 3//63 2//63 1//64
f 4//64 1//64 2//63
f 2//63 3//63 5//65
f 1//64 4//64 6//66
f 4//67 2//67 7//67
f 8//65 5//65 3//63
f 5//67 7//67 2//67
f 9//66 6//66 4//64
f 10//67 4//67 7//67
f 5//65 8//65 7//68
f 6//66 9//66 11//69
f 9//67 4//67 10//67
f 7//68 12//68 10//70
f 12//68 7//68 8//65
f 13//69 11//69 9//66
f 14//67 9//67 10//67
f 15//70 10//70 12//68
f 11//69 13//69 16//71
f 13//67 9//67 14//67
f 10//70 15//70 14//72
f 17//71 16//71 13//69
f 18//67 13//67 14//67
f 19//72 14//72 15//70
f 16//71 17//71 20//73
f 17//67 13//67 18//67
f 14//72 19//72 18//74
f 21//73 20//73 17//71
f 22//67 17//67 18//67
f 23//74 18//74 19//72
f 21//75 24//76 20//75
f 21//67 17//67 22//67
f 18//74 23//74 22//77
f 25//76 20//75 24//76
f 24//67 21//67 26//67
f 26//67 21//67 22//67
f 27//77 22//77 23//74
f 24//76 28//37 25//76
f 29//67 24//67 26//67
f 22//77 27//77 26//78
f 30//37 25//76 28//37
f 28//67 24//67 29//67
f 26//79 31//79 29//80
f 31//78 26//78 27//77
f 28//37 32//35 30//37
f 33//67 28//67 29//67
f 34//80 29//80 31//79
f 35//35 30//37 32//35
f 32//67 28//67 33//67
f 33//34 29//80 36//34
f 34//80 36//34 29//80
f 32//35 37//33 35//35
f 38//67 32//67 33//67
f 33//34 36//34 38//32
f 39//33 35//35 37//33
f 37//67 32//67 38//67
f 40//32 38//32 36//34
f 37//33 41//31 39//33
f 42//67 37//67 38//67
f 40//32 43//30 38//32
f 44//31 39//33 41//31
f 41//67 37//67 42//67
f 42//30 38//32 43//30
f 41//31 45//29 44//31
f 46//67 41//67 42//67
f 43//30 47//28 42//30
f 48//29 44//31 45//29
f 45//67 41//67 46//67
f 46//28 42//30 47//28
f 48//29 45//29 49//27
f 50//67 45//67 46//67
f 47//28 51//26 46//28
f 52//27 49//27 45//29
f 52//67 45//67 50//67
f 50//26 46//28 51//26
f 49//27 52//27 53//25
f 54//67 52//67 50//67
f 51//26 55//24 50//26
f 56//25 53//25 52//27
f 56//67 52//67 54//67
f 54//24 50//26 55//24
f 53//25 56//25 57//23
f 58//67 56//67 54//67
f 55//24 59//22 54//24
f 60//23 57//23 56//25
f 60//67 56//67 58//67
f 58//22 54//24 59//22
f 57//23 60//23 61//21
f 62//67 60//67 58//67
f 59//22 63//20 58//22
f 64//21 61//21 60//23
f 64//67 60//67 62//67
f 62//20 58//22 63//20
f 61//21 64//21 65//81
f 66//67 64//67 62//67
f 63//20 67//16 62//20
f 68//81 65//81 64//21
f 68//67 64//67 66//67
f 66//16 62//20 67//16
f 68//81 69//82 65//81
f 70//67 68//67 66//67
f 67//16 71//83 66//16
f 72//84 65//81 69//82
f 69//67 68//67 70//67
f 70//83 66//16 71//83
f 72//84 69//82 73//82
f 74//67 69//67 70//67
f 71//83 75//85 70//83
f 69//82 76//86 73//82
f 76//67 69//67 74//67
f 74//85 70//83 75//85
f 77//87 75//85 71//83
f 78//86 73//82 76//86
f 79//67 76//67 74//67
f 75//85 80//88 74//85
f 76//86 81//89 78//86
f 81//67 76//67 79//67
f 79//88 74//85 80//88
f 82//89 78//86 81//89
f 83//67 81//67 79//67
f 80//88 84//90 79//88
f 81//89 85//91 82//89
f 85//67 81//67 83//67
f 83//90 79//88 84//90
f 86//91 82//89 85//91
f 87//67 85//67 83//67
f 84//90 88//92 83//90
f 85//91 89//93 86//91
f 89//67 85//67 87//67
f 87//92 83//90 88//92
f 90//93 86//91 89//93
f 91//67 89//67 87//67
f 88//92 92//94 87//92
f 89//93 93//95 90//93
f 93//67 89//67 91//67
f 91//94 87//92 92//94
f 94//95 90//93 93//95
f 95//67 93//67 91//67
f 92//94 96//96 91//94
f 94//95 93//95 97//97
f 98//67 93//67 95//67
f 95//96 91//94 96//96
f 98//97 97//97 93//95
f 99//67 98//67 95//67
f 95//96 96//96 99//98
f 97//97 98//97 100//99
f 101//67 98//67 99//67
f 102//98 99//98 96//96
f 101//99 100//99 98//97
f 103//67 101//67 99//67
f 99//98 102//98 103//100
f 100//99 101//99 104//101
f 105//67 101//67 103//67
f 106//100 103//100 102//98
f 105//101 104//101 101//99
f 107//67 105//67 103//67
f 103//100 106//100 107//102
f 104//101 105//101 108//103
f 109//67 105//67 107//67
f 110//102 107//102 106//100
f 109//103 108//103 105//101
f 111//67 109//67 107//67
f 107//102 110//102 111//104
f 108//103 109//103 112//105
f 113//67 109//67 111//67
f 114//104 111//104 110//102
f 113//105 112//105 109//103
f 115//67 113//67 111//67
f 111//104 114//104 115//106
f 112//105 113//105 116//106
f 115//106 116//106 113//105
f 116//106 115//106 114//104
