# SSTK version 0.8.0
# 6
mtllib original-6.mtl
o mesh5/mesh5-geometry#mesh5-geometry
v 0.302966 0.008935 -0.199897
v 0.232871 0.010161 -0.903631
v 0.268065 0.010679 -0.905371
v 0.267771 0.008418 -0.198157
v 0.302184 0.083216 -0.193604
v 0.266990 0.082698 -0.191864
vn 0.014553999900174112 -0.9998889931417614 -0.003190999978112931
vn -0.019602005960255443 0.9947503024673044 -0.10043703053923966
vn 0.9986725116295463 0.01469400752788158 -0.04936902529222715
vn 0.05043100378991529 -0.08378300629633505 0.995207074790312
vn -0.9986725116295463 -0.01469400752788158 0.04936902529222715
vn -0.014553999900174112 0.9998889931417614 0.003190999978112931
vn 0.019602005960255443 -0.9947503024673044 0.10043703053923966
vn -0.05043100378991529 0.08378300629633505 -0.995207074790312
usemtl material_0_0
f 1//1 2//1 3//1
f 2//1 1//1 4//1
f 2//2 5//2 3//2
f 5//3 1//3 3//3
f 5//4 4//4 1//4
f 6//5 2//5 4//5
f 5//2 2//2 6//2
f 4//4 5//4 6//4
usemtl material_1_0
f 3//6 2//6 1//6
f 4//6 1//6 2//6
f 3//7 5//7 2//7
f 3//5 1//5 5//5
f 1//8 4//8 5//8
f 4//3 2//3 6//3
f 6//7 2//7 5//7
f 6//8 5//8 4//8
