mtllib new-1.mtl
v 0.144732 0.646329 -0.039488
v 0.129881 0.781379 -0.075341
v 0.129881 0.646329 -0.075341
v 0.144732 0.781379 -0.039488
v 0.106256 0.781379 -0.106129
v 0.149797 0.646329 -0.001013
v 0.129881 0.893921 -0.075341
v 0.106256 0.646329 -0.106129
v 0.106256 0.893921 -0.106129
v 0.149797 0.781379 -0.001013
v 0.144732 0.893921 -0.039488
v 0.075469 0.646329 -0.129754
v 0.075469 0.781379 -0.129754
v 0.144732 0.646329 0.037462
v 0.149797 0.893921 -0.001013
v 0.130336 0.893921 -0.130209
v 0.092496 0.893921 -0.159245
v 0.075469 0.893921 -0.129754
v 0.144732 0.781379 0.037462
v 0.144732 0.893921 0.037462
v 0.159372 0.893921 -0.092368
v 0.039615 0.646329 -0.144604
v 0.039615 0.893921 -0.144604
v 0.129881 0.646329 0.073316
v 0.159372 0.893921 0.090343
v 0.048429 0.893921 -0.177498
v 0.039615 0.781379 -0.144604
v 0.129881 0.781379 0.073316
v 0.129881 0.893921 0.073316
v 0.130336 0.893921 0.128183
v 0.177625 0.893921 0.046276
v 0.001140 0.646329 -0.149670
v 0.001140 0.893921 -0.149670
v 0.001140 0.893921 -0.183724
v 0.106256 0.646329 0.104103
v 0.177625 0.893921 -0.048302
v 0.001140 0.651682 -0.149670
v 0.001140 0.781379 -0.149670
v 0.106256 0.781379 0.104103
v 0.106256 0.893921 0.104103
v 0.092496 0.893921 0.157219
v 0.183851 0.893921 -0.001013
v -0.037335 0.646329 -0.144604
v -0.037335 0.893921 -0.144604
v -0.046149 0.893921 -0.177498
v 0.075469 0.781379 0.127728
v -0.037335 0.781379 -0.144604
v 0.075469 0.646329 0.127728
v 0.075469 0.893921 0.127728
v -0.073188 0.646329 -0.129754
v -0.073188 0.893921 -0.129754
v 0.039615 0.781379 0.142579
v 0.048429 0.893921 0.175472
v -0.073188 0.781379 -0.129754
v -0.090215 0.893921 -0.159245
v 0.039615 0.646329 0.142579
v 0.039615 0.893921 0.142579
v -0.103976 0.646329 -0.106129
v -0.103976 0.893921 -0.106129
v 0.001140 0.651682 0.147644
v 0.001140 0.893921 0.181698
v -0.103976 0.781379 -0.106129
v -0.128056 0.893921 -0.130209
v 0.001140 0.646329 0.147644
v 0.001140 0.781379 0.147644
v 0.001140 0.893921 0.147644
v -0.127601 0.781379 -0.075341
v -0.127601 0.893921 -0.075341
v -0.037335 0.781379 0.142579
v -0.046149 0.893921 0.175472
v -0.127601 0.646329 -0.075341
v -0.142451 0.893921 -0.039488
v -0.037335 0.646329 0.142579
v -0.037335 0.893921 0.142579
v -0.142451 0.781379 -0.039488
v -0.157092 0.893921 -0.092368
v -0.073188 0.781379 0.127728
v -0.073188 0.893921 0.127728
v -0.142451 0.646329 -0.039488
v -0.147517 0.893921 -0.001013
v -0.073188 0.646329 0.127728
v -0.090215 0.893921 0.157219
v -0.147517 0.781379 -0.001013
v -0.157092 0.893921 0.090343
v -0.103976 0.781379 0.104103
v -0.103976 0.893921 0.104103
v -0.147517 0.646329 -0.001013
v -0.142451 0.893921 0.037462
v -0.175345 0.893921 -0.048302
v -0.103976 0.646329 0.104103
v -0.128056 0.893921 0.128183
v -0.142451 0.781379 0.037462
v -0.175345 0.893921 0.046276
v -0.127601 0.646329 0.073316
v -0.127601 0.893921 0.073316
v -0.142451 0.646329 0.037462
v -0.181571 0.893921 -0.001013
v -0.127601 0.781379 0.073316
vn -0.965926 0.000000 0.258819
vn -0.866025 0.000000 0.500000
vn 0.866025 0.000000 -0.500000
vn 0.965926 0.000000 -0.258819
vn -0.707107 0.000000 0.707107
vn 0.707107 0.000000 -0.707107
vn -1.000000 0.000000 0.000000
vn 1.000000 0.000000 0.000000
vn 0.258819 0.000000 0.965926
vn -0.258819 0.000000 -0.965926
vn -0.500000 0.000000 0.866025
vn 0.500000 0.000000 -0.866025
vn -0.866025 0.000000 -0.500000
vn 0.866025 0.000000 0.500000
vn -0.965926 0.000000 -0.258819
vn 0.965926 0.000000 0.258819
vn 0.000000 1.000000 0.000000
vn 0.000000 -1.000000 0.000000
vn -0.258819 0.000000 0.965926
vn 0.258819 0.000000 -0.965926
vn 0.000000 0.000000 1.000000
vn 0.000000 0.000000 -1.000000
vn -0.707107 0.000000 -0.707107
vn 0.707107 0.000000 0.707107
vn -0.500000 0.000000 -0.866025
vn 0.500000 0.000000 0.866025
usemtl material-0
f 1//1 2//2 3//2
f 2//2 1//1 4//1
f 3//3 2//3 1//4
f 4//4 1//4 2//3
f 5//5 3//2 2//2
f 2//3 3//3 5//6
f 6//7 4//1 1//1
f 1//4 4//4 6//8
f 4//9 7//2 2//2
f 2//3 7//3 4//10
f 3//2 5//5 8//5
f 8//6 5//6 3//3
f 2//2 9//5 5//5
f 5//6 9//6 2//3
f 4//1 6//7 10//7
f 10//8 6//8 4//4
f 7//2 4//9 11//9
f 11//10 4//10 7//3
f 9//5 2//2 7//2
f 7//3 2//3 9//6
f 5//5 12//11 8//5
f 8//6 12//12 5//6
f 9//5 13//13 5//5
f 5//6 13//14 9//6
f 14//15 10//7 6//7
f 6//8 10//8 14//16
f 4//9 15//8 10//8
f 10//7 15//7 4//10
f 15//8 4//9 11//9
f 11//10 4//10 15//7
f 11//17 16//17 7//17
f 7//18 16//18 11//18
f 7//17 17//17 9//17
f 9//18 17//18 7//18
f 12//11 5//5 13//11
f 13//12 5//6 12//12
f 13//13 9//5 18//13
f 18//14 9//6 13//14
f 10//7 14//15 19//15
f 19//16 14//16 10//8
f 20//16 10//8 15//8
f 15//7 10//7 20//15
f 21//17 11//17 15//17
f 15//18 11//18 21//18
f 11//17 21//17 16//17
f 16//18 21//18 11//18
f 7//17 16//17 17//17
f 17//18 16//18 7//18
f 9//17 17//17 18//17
f 18//18 17//18 9//18
f 13//11 22//19 12//11
f 12//12 22//20 13//12
f 13//13 23//20 18//13
f 18//14 23//19 13//14
f 24//13 19//15 14//15
f 14//16 19//16 24//14
f 10//8 20//16 19//16
f 19//15 20//15 10//7
f 25//17 15//17 20//17
f 20//18 15//18 25//18
f 25//17 21//17 15//17
f 15//18 21//18 25//18
f 18//17 17//17 26//17
f 26//18 17//18 18//18
f 22//19 13//11 27//19
f 27//20 13//12 22//20
f 23//20 13//13 27//20
f 27//19 13//14 23//19
f 18//17 26//17 23//17
f 23//18 26//18 18//18
f 19//15 24//13 28//13
f 28//14 24//14 19//16
f 29//14 19//16 20//16
f 20//15 19//15 29//13
f 25//17 20//17 30//17
f 30//18 20//18 25//18
f 31//17 21//17 25//17
f 25//18 21//18 31//18
f 27//19 32//21 22//19
f 22//20 32//22 27//20
f 27//20 33//22 23//20
f 23//19 33//21 27//19
f 23//17 26//17 34//17
f 34//18 26//18 23//18
f 35//23 28//13 24//13
f 24//14 28//14 35//24
f 19//16 29//14 28//14
f 28//13 29//13 19//15
f 30//17 20//17 29//17
f 29//18 20//18 30//18
f 31//17 36//17 21//17
f 21//18 36//18 31//18
f 32//21 27//19 37//21
f 37//22 27//20 32//22
f 33//22 27//20 38//22
f 38//21 27//19 33//21
f 23//17 34//17 33//17
f 33//18 34//18 23//18
f 28//13 35//23 39//23
f 39//24 35//24 28//14
f 40//24 28//14 29//14
f 29//13 28//13 40//23
f 30//17 29//17 41//17
f 41//18 29//18 30//18
f 36//17 31//17 42//17
f 42//18 31//18 36//18
f 37//21 27//19 38//21
f 38//22 27//20 37//22
f 37//21 43//9 32//21
f 32//22 43//10 37//22
f 38//22 44//10 33//22
f 33//21 44//9 38//21
f 33//17 34//17 45//17
f 45//18 34//18 33//18
f 35//23 46//25 39//23
f 39//24 46//26 35//24
f 28//14 40//24 39//24
f 39//23 40//23 28//13
f 41//17 29//17 40//17
f 40//18 29//18 41//18
f 47//9 37//21 38//21
f 38//22 37//22 47//10
f 43//9 37//21 47//9
f 47//10 37//22 43//10
f 44//10 38//22 47//10
f 47//9 38//21 44//9
f 33//17 45//17 44//17
f 44//18 45//18 33//18
f 46//25 35//23 48//25
f 48//26 35//24 46//26
f 40//24 46//26 39//24
f 39//23 46//25 40//23
f 41//17 40//17 49//17
f 49//18 40//18 41//18
f 47//9 50//26 43//9
f 43//10 50//25 47//10
f 47//10 51//25 44//10
f 44//9 51//26 47//9
f 44//17 45//17 51//17
f 51//18 45//18 44//18
f 48//25 52//10 46//25
f 46//26 52//9 48//26
f 46//26 40//24 49//26
f 49//25 40//23 46//25
f 41//17 49//17 53//17
f 53//18 49//18 41//18
f 50//26 47//9 54//26
f 54//25 47//10 50//25
f 51//25 47//10 54//25
f 54//26 47//9 51//26
f 51//17 45//17 55//17
f 55//18 45//18 51//18
f 52//10 48//25 56//10
f 56//9 48//26 52//9
f 49//26 52//9 46//26
f 46//25 52//10 49//25
f 53//17 49//17 57//17
f 57//18 49//18 53//18
f 54//26 58//24 50//26
f 50//25 58//23 54//25
f 54//25 59//6 51//25
f 51//26 59//5 54//26
f 51//17 55//17 59//17
f 59//18 55//18 51//18
f 56//10 60//22 52//10
f 52//9 60//21 56//9
f 52//9 49//26 57//9
f 57//10 49//25 52//10
f 53//17 57//17 61//17
f 61//18 57//18 53//18
f 58//24 54//26 62//24
f 62//23 54//25 58//23
f 59//6 54//25 62//6
f 62//5 54//26 59//5
f 59//17 55//17 63//17
f 63//18 55//18 59//18
f 60//22 56//10 64//22
f 64//21 56//9 60//21
f 52//10 60//22 65//22
f 65//21 60//21 52//9
f 57//9 65//21 52//9
f 52//10 65//22 57//10
f 61//17 57//17 66//17
f 66//18 57//18 61//18
f 67//14 58//24 62//24
f 62//23 58//23 67//13
f 68//14 62//6 59//6
f 59//5 62//5 68//13
f 59//17 63//17 68//17
f 68//18 63//18 59//18
f 64//22 69//20 60//22
f 60//21 69//19 64//21
f 60//22 69//20 65//22
f 65//21 69//19 60//21
f 65//21 57//9 66//21
f 66//22 57//10 65//22
f 61//17 66//17 70//17
f 70//18 66//18 61//18
f 58//24 67//14 71//14
f 71//13 67//13 58//23
f 62//6 68//14 67//14
f 67//13 68//13 62//5
f 68//17 63//17 72//17
f 72//18 63//18 68//18
f 69//20 64//22 73//20
f 73//19 64//21 69//19
f 66//21 69//19 65//21
f 65//22 69//20 66//22
f 70//17 66//17 74//17
f 74//18 66//18 70//18
f 75//16 71//14 67//14
f 67//13 71//13 75//15
f 72//16 67//14 68//14
f 68//13 67//13 72//15
f 72//17 63//17 76//17
f 76//18 63//18 72//18
f 73//20 77//12 69//20
f 69//19 77//11 73//19
f 69//19 66//21 74//19
f 74//20 66//22 69//20
f 70//17 74//17 78//17
f 78//18 74//18 70//18
f 71//14 75//16 79//16
f 79//15 75//15 71//13
f 67//14 72//16 75//16
f 75//15 72//15 67//13
f 72//17 76//17 80//17
f 80//18 76//18 72//18
f 77//12 73//20 81//12
f 81//11 73//19 77//11
f 74//19 77//11 69//19
f 69//20 77//12 74//20
f 77//11 74//19 78//11
f 78//12 74//20 77//12
f 70//17 78//17 82//17
f 82//18 78//18 70//18
f 83//8 79//16 75//16
f 75//15 79//15 83//7
f 80//8 75//16 72//16
f 72//15 75//15 80//7
f 84//17 80//17 76//17
f 76//18 80//18 84//18
f 81//12 85//6 77//12
f 77//11 85//5 81//11
f 78//11 85//5 77//11
f 77//12 85//6 78//12
f 82//17 78//17 86//17
f 86//18 78//18 82//18
f 79//16 83//8 87//8
f 87//7 83//7 79//15
f 75//16 80//8 83//8
f 83//7 80//7 75//15
f 84//17 88//17 80//17
f 80//18 88//18 84//18
f 84//17 76//17 89//17
f 89//18 76//18 84//18
f 85//6 81//12 90//6
f 90//5 81//11 85//5
f 85//5 78//11 86//5
f 86//6 78//12 85//6
f 82//17 86//17 91//17
f 91//18 86//18 82//18
f 92//4 87//8 83//8
f 83//7 87//7 92//1
f 88//4 83//8 80//8
f 80//7 83//7 88//1
f 91//17 88//17 84//17
f 84//18 88//18 91//18
f 84//17 89//17 93//17
f 93//18 89//18 84//18
f 94//3 85//6 90//6
f 90//5 85//5 94//2
f 95//26 85//5 86//5
f 86//6 85//6 95//25
f 91//17 86//17 95//17
f 95//18 86//18 91//18
f 87//8 92//4 96//4
f 96//1 92//1 87//7
f 83//8 88//4 92//4
f 92//1 88//1 83//7
f 91//17 95//17 88//17
f 88//18 95//18 91//18
f 93//17 89//17 97//17
f 97//18 89//18 93//18
f 85//6 94//3 98//3
f 98//2 94//2 85//5
f 85//5 95//26 98//26
f 98//25 95//25 85//6
f 98//3 96//4 92//4
f 92//1 96//1 98//2
f 95//26 92//4 88//4
f 88//1 92//1 95//25
f 96//4 98//3 94//3
f 94//2 98//2 96//1
f 92//4 95//26 98//26
f 98//25 95//25 92//1