# SSTK version 0.8.0
# 14
mtllib original-14.mtl
o mesh12/mesh12-geometry#mesh12-geometry
v 0.005736 0.855425 0.117123
v 0.013442 0.855425 0.096361
v 0.015497 0.855425 0.110505
v 0.011629 0.855425 0.100593
v 0.022115 0.855425 0.100744
v 0.015497 0.856083 0.110505
v 0.007397 0.855425 0.102406
v 0.013442 0.856083 0.096361
v 0.012474 0.855425 0.091647
v 0.005736 0.856083 0.117123
v 0.000145 0.855425 0.099988
v 0.007397 0.856083 0.102406
v 0.011629 0.856083 0.100593
v 0.012474 0.856083 0.091647
v 0.009816 0.855425 0.089109
v 0.022115 0.856083 0.100744
v -0.005899 0.855425 0.119329
v 0.000145 0.856083 0.099988
v 0.024321 0.855425 0.089109
v -0.005899 0.856083 0.119329
v -0.002031 0.855425 0.105911
v 0.009816 0.856083 0.089109
v 0.024321 0.856083 0.089109
v -0.017080 0.855425 0.117123
v -0.007108 0.855425 0.108450
v -0.002031 0.856083 0.105911
v -0.017080 0.856083 0.117123
v -0.007108 0.856083 0.108450
v -0.026448 0.855425 0.110505
v -0.010614 0.855425 0.105306
v -0.010614 0.856083 0.105306
v -0.026448 0.856083 0.110505
v -0.019196 0.855425 0.101196
v -0.011944 0.855425 0.099988
v -0.011944 0.856083 0.099988
v -0.019196 0.856083 0.101196
v -0.032794 0.856083 0.100744
v -0.014844 0.855425 0.100833
v -0.023427 0.855425 0.100108
v -0.014844 0.856083 0.100833
v -0.023427 0.856083 0.100108
v -0.032794 0.855425 0.100744
v -0.034910 0.856083 0.089109
v -0.025241 0.855425 0.097569
v -0.025241 0.856083 0.097569
v -0.034910 0.855425 0.089109
v -0.023790 0.856083 0.091647
v -0.023790 0.855425 0.091647
v -0.020405 0.855425 0.089109
v -0.020405 0.856083 0.089109
vn 0 -1 0
vn 0.7071067811865475 0 0.7071067811865475
vn 0.3816619867471694 0 0.9243019679045389
vn -0.9191657701180485 0 -0.3938709014934907
vn 0.9243019679045389 0 0.3816619867471694
vn -0.3938709014934907 0 -0.9191657701180485
vn -0.9795881567493012 0 0.20101503216552344
vn 0 1 0
vn -0.003714000382829893 0 0.9999931030767943
vn 0.31630006511338005 0 -0.9486591952905279
vn -0.6904817877376452 0 0.7233497776336324
vn 0.9824963077473666 0 0.18628205834913827
vn -0.9386919718800744 0 -0.3447569896722874
vn 0 0 -1
vn -0.3939499535288783 0 0.9191318915773702
vn -0.44727879428176964 0 -0.8943945886385083
vn -0.7206078539641493 0 0.6933428594895772
vn 0.6675789853927044 0 -0.7445389837087426
vn -0.9293431836670409 0 0.36921707296874656
vn 0.9701326758234297 0 -0.24257491894190641
vn 0.08414802242069659 0 -0.9964532654985309
vn -0.18237192894025073 0 -0.9832296168925203
vn 0.24893903994451264 0 -0.9685191554076278
vn -0.2799179765848622 0 -0.9600239196940024
vn -0.9838709020846808 0 0.1788799821977756
vn 0.8136537338473979 0 -0.5813498098358575
vn 0.9712879419203825 0 0.23790698577399538
vn 0.5998257458427886 0 0.8001306609699085
vn -0.7071067811865475 0 -0.7071067811865475
vn -0.3816619867471694 0 -0.9243019679045389
vn 0.9191657701180485 0 0.3938709014934907
vn -0.9243019679045389 0 -0.3816619867471694
vn 0.3938709014934907 0 0.9191657701180485
vn 0.9795881567493012 0 -0.20101503216552344
vn 0.003714000382829893 0 -0.9999931030767943
vn -0.31630006511338005 0 0.9486591952905279
vn 0.6904817877376452 0 -0.7233497776336324
vn -0.9824963077473666 0 -0.18628205834913827
vn 0.9386919718800744 0 0.3447569896722874
vn 0 0 1
vn 0.3939499535288783 0 -0.9191318915773702
vn 0.44727879428176964 0 0.8943945886385083
vn 0.7206078539641493 0 -0.6933428594895772
vn -0.6675789853927044 0 0.7445389837087426
vn 0.9293431836670409 0 -0.36921707296874656
vn -0.9701326758234297 0 0.24257491894190641
vn -0.08414802242069659 0 0.9964532654985309
vn 0.18237192894025073 0 0.9832296168925203
vn -0.24893903994451264 0 0.9685191554076278
vn 0.2799179765848622 0 0.9600239196940024
vn 0.9838709020846808 0 -0.1788799821977756
vn -0.8136537338473979 0 0.5813498098358575
vn -0.9712879419203825 0 -0.23790698577399538
vn -0.5998257458427886 0 -0.8001306609699085
usemtl material_0_0
f 1//1 2//1 3//1
f 2//1 1//1 4//1
f 2//1 5//1 3//1
f 6//2 1//3 3//2
f 4//1 1//1 7//1
f 4//4 8//4 2//4
f 9//1 5//1 2//1
f 5//5 6//2 3//2
f 1//3 6//2 10//3
f 7//1 1//1 11//1
f 12//6 4//6 7//6
f 8//4 4//4 13//4
f 14//7 2//7 8//7
f 15//1 5//1 9//1
f 2//7 14//7 9//7
f 6//2 5//5 16//5
f 8//8 10//8 6//8
f 10//3 17//9 1//3
f 11//1 1//1 17//1
f 18//10 7//10 11//10
f 4//6 12//6 13//6
f 7//10 18//10 12//10
f 10//8 8//8 13//8
f 16//8 14//8 8//8
f 5//1 15//1 19//1
f 14//11 15//11 9//11
f 19//12 16//5 5//5
f 16//8 8//8 6//8
f 17//9 10//3 20//9
f 11//1 17//1 21//1
f 21//13 18//13 11//13
f 10//8 13//8 12//8
f 10//8 12//8 18//8
f 16//8 22//8 14//8
f 22//14 19//14 15//14
f 15//11 14//11 22//11
f 16//5 19//12 23//12
f 10//8 18//8 20//8
f 20//9 24//15 17//9
f 21//1 17//1 25//1
f 18//13 21//13 26//13
f 22//8 16//8 23//8
f 19//14 22//14 23//14
f 20//8 18//8 26//8
f 24//15 20//9 27//15
f 25//1 17//1 24//1
f 28//16 21//16 25//16
f 21//16 28//16 26//16
f 20//8 26//8 28//8
f 20//8 28//8 27//8
f 27//15 29//17 24//15
f 25//1 24//1 30//1
f 25//18 31//18 28//18
f 27//8 28//8 31//8
f 29//17 27//15 32//17
f 33//1 24//1 29//1
f 30//1 24//1 34//1
f 31//18 25//18 30//18
f 27//8 31//8 35//8
f 27//8 36//8 32//8
f 37//19 29//17 32//17
f 38//1 24//1 33//1
f 33//1 29//1 39//1
f 34//1 24//1 38//1
f 34//20 31//20 30//20
f 31//20 34//20 35//20
f 27//8 35//8 40//8
f 27//8 40//8 36//8
f 32//8 36//8 41//8
f 29//17 37//19 42//19
f 32//8 43//8 37//8
f 36//21 38//22 33//21
f 39//1 29//1 44//1
f 41//23 33//21 39//23
f 40//22 34//24 38//22
f 34//24 40//22 35//24
f 38//22 36//21 40//22
f 33//21 41//23 36//21
f 32//8 41//8 45//8
f 43//25 42//19 37//19
f 46//1 29//1 42//1
f 45//8 43//8 32//8
f 46//1 44//1 29//1
f 44//26 41//26 39//26
f 41//26 44//26 45//26
f 42//19 43//25 46//25
f 47//8 43//8 45//8
f 46//1 48//1 44//1
f 48//27 45//27 44//27
f 43//14 49//14 46//14
f 43//8 47//8 50//8
f 45//27 48//27 47//27
f 48//1 46//1 49//1
f 49//14 43//14 50//14
f 48//28 50//28 47//28
f 50//28 48//28 49//28
usemtl material_1_0
f 3//8 2//8 1//8
f 4//8 1//8 2//8
f 3//8 5//8 2//8
f 3//29 1//30 6//29
f 7//8 1//8 4//8
f 2//31 8//31 4//31
f 2//8 5//8 9//8
f 3//29 6//29 5//32
f 10//30 6//29 1//30
f 11//8 1//8 7//8
f 7//33 4//33 12//33
f 13//31 4//31 8//31
f 8//34 2//34 14//34
f 9//8 5//8 15//8
f 9//34 14//34 2//34
f 16//32 5//32 6//29
f 6//1 10//1 8//1
f 1//30 17//35 10//30
f 17//8 1//8 11//8
f 11//36 7//36 18//36
f 13//33 12//33 4//33
f 12//36 18//36 7//36
f 13//1 8//1 10//1
f 8//1 14//1 16//1
f 19//8 15//8 5//8
f 9//37 15//37 14//37
f 5//32 16//32 19//38
f 6//1 8//1 16//1
f 20//35 10//30 17//35
f 21//8 17//8 11//8
f 11//39 18//39 21//39
f 12//1 13//1 10//1
f 18//1 12//1 10//1
f 14//1 22//1 16//1
f 15//40 19//40 22//40
f 22//37 14//37 15//37
f 23//38 19//38 16//32
f 20//1 18//1 10//1
f 17//35 24//41 20//35
f 25//8 17//8 21//8
f 26//39 21//39 18//39
f 23//1 16//1 22//1
f 23//40 22//40 19//40
f 26//1 18//1 20//1
f 27//41 20//35 24//41
f 24//8 17//8 25//8
f 25//42 21//42 28//42
f 26//42 28//42 21//42
f 28//1 26//1 20//1
f 27//1 28//1 20//1
f 24//41 29//43 27//41
f 30//8 24//8 25//8
f 28//44 31//44 25//44
f 31//1 28//1 27//1
f 32//43 27//41 29//43
f 29//8 24//8 33//8
f 34//8 24//8 30//8
f 30//44 25//44 31//44
f 35//1 31//1 27//1
f 32//1 36//1 27//1
f 32//43 29//43 37//45
f 33//8 24//8 38//8
f 39//8 29//8 33//8
f 38//8 24//8 34//8
f 30//46 31//46 34//46
f 35//46 34//46 31//46
f 40//1 35//1 27//1
f 36//1 40//1 27//1
f 41//1 36//1 32//1
f 42//45 37//45 29//43
f 37//1 43//1 32//1
f 33//47 38//48 36//47
f 44//8 29//8 39//8
f 39//49 33//47 41//49
f 38//48 34//50 40//48
f 35//50 40//48 34//50
f 40//48 36//47 38//48
f 36//47 41//49 33//47
f 45//1 41//1 32//1
f 37//45 42//45 43//51
f 42//8 29//8 46//8
f 32//1 43//1 45//1
f 29//8 44//8 46//8
f 39//52 41//52 44//52
f 45//52 44//52 41//52
f 46//51 43//51 42//45
f 45//1 43//1 47//1
f 44//8 48//8 46//8
f 44//53 45//53 48//53
f 46//40 49//40 43//40
f 50//1 47//1 43//1
f 47//53 48//53 45//53
f 49//8 46//8 48//8
f 50//40 43//40 49//40
f 47//54 50//54 48//54
f 49//54 48//54 50//54
