# SSTK version 0.8.0
# 11
mtllib original-11.mtl
o mesh9/mesh9-geometry#mesh9-geometry
v 0.055751 0.855425 0.086691
v 0.058167 0.855425 0.079438
v 0.058470 0.855425 0.085996
v 0.057442 0.855425 0.081130
v 0.060827 0.855425 0.083911
v 0.058470 0.856083 0.085996
v 0.055751 0.855425 0.081856
v 0.058167 0.856083 0.079438
v 0.057442 0.855425 0.077746
v 0.060827 0.856083 0.083911
v 0.055751 0.856083 0.086691
v 0.053212 0.855425 0.085966
v 0.055751 0.856083 0.081856
v 0.057442 0.856083 0.081130
v 0.057442 0.856083 0.077746
v 0.063003 0.855425 0.043174
v 0.063003 0.855425 0.077020
v 0.053212 0.855425 0.082581
v 0.053212 0.856083 0.082581
v 0.026739 0.855425 0.043174
v 0.055751 0.855425 0.077020
v 0.063003 0.856083 0.077020
v 0.053212 0.856083 0.085966
v 0.052124 0.855425 0.084273
v 0.026739 0.856083 0.043174
v 0.055751 0.856083 0.077020
v 0.052124 0.856083 0.084273
v 0.063003 0.856083 0.043174
v 0.051278 0.855425 0.078712
v 0.026739 0.855425 0.081856
v 0.048496 0.855425 0.083064
v 0.026739 0.856083 0.081856
v 0.027615 0.855425 0.085029
v 0.051278 0.856083 0.078712
v 0.048496 0.856083 0.083064
v 0.044387 0.855425 0.088383
v 0.027615 0.856083 0.085029
v 0.030244 0.855425 0.087779
v 0.044387 0.856083 0.088383
v 0.038828 0.855425 0.090317
v 0.030244 0.856083 0.087779
v 0.034143 0.855425 0.089682
v 0.034143 0.856083 0.089682
v 0.038828 0.856083 0.090317
vn 0 -1 0
vn 0.46813695854530385 0 0.8836559217500625
vn 0.24763603416077418 0 0.9688531336508769
vn -0.9192227534769001 0 -0.39373789440482637
vn 0.6624792411951548 0 0.7490802727248207
vn -0.33511805212761714 0 -0.942176146555511
vn -0.3943427565042674 0 -0.918963432565527
vn -0.9192227534769001 0 0.39373789440482637
vn 0.9883236831746102 0 0.15236895115532173
vn 0.953567278494609 0 0.301180087961314
vn 0 1 0
vn -0.27453687765294227 0 0.9615765714744581
vn -0.27453687765294227 0 -0.9615765714744581
vn -0.3943427565042674 0 0.918963432565527
vn 1 0 0
vn 0 0 -1
vn -0.8414460979455937 0 0.5403410628965138
vn -0.8411781504665963 0 -0.5407580967286539
vn -0.990936508520505 0 0.13433106893489383
vn -1 0 0
vn 0.3538689989054832 0 0.9352949971071325
vn 0.8426081805739015 0 0.538527115408258
vn 0.8177700736299764 0 0.57554505182064
vn -0.8696861588825441 0 0.49360509017647536
vn 0.7913061574556975 0 0.6114201216616109
vn -0.5899626574884291 0 0.8074305312342297
vn 0.32856301752998746 0 0.9444820503914245
vn 0.09991400762283958 0 0.9949960759122335
vn -0.2901809388378445 0 0.9569717982966829
vn -0.46813695854530385 0 -0.8836559217500625
vn -0.24763603416077418 0 -0.9688531336508769
vn 0.9192227534769001 0 0.39373789440482637
vn -0.6624792411951548 0 -0.7490802727248207
vn 0.33511805212761714 0 0.942176146555511
vn 0.3943427565042674 0 0.918963432565527
vn 0.9192227534769001 0 -0.39373789440482637
vn -0.953567278494609 0 -0.301180087961314
vn -0.9883236831746102 0 -0.15236895115532173
vn 0.27453687765294227 0 -0.9615765714744581
vn 0.27453687765294227 0 0.9615765714744581
vn 0.3943427565042674 0 -0.918963432565527
vn 0 0 1
vn 0.8414460979455937 0 -0.5403410628965138
vn 0.8411781504665963 0 0.5407580967286539
vn 0.990936508520505 0 -0.13433106893489383
vn -0.3538689989054832 0 -0.9352949971071325
vn -0.8177700736299764 0 -0.57554505182064
vn -0.8426081805739015 0 -0.538527115408258
vn 0.8696861588825441 0 -0.49360509017647536
vn -0.7913061574556975 0 -0.6114201216616109
vn 0.5899626574884291 0 -0.8074305312342297
vn -0.32856301752998746 0 -0.9444820503914245
vn -0.09991400762283958 0 -0.9949960759122335
vn 0.2901809388378445 0 -0.9569717982966829
usemtl material_0_0
f 1//1 2//1 3//1
f 2//1 1//1 4//1
f 2//1 5//1 3//1
f 6//2 1//3 3//2
f 4//1 1//1 7//1
f 4//4 8//4 2//4
f 9//1 5//1 2//1
f 10//5 3//2 5//5
f 1//3 6//2 11//3
f 3//2 10//5 6//2
f 7//1 1//1 12//1
f 13//6 4//7 7//6
f 8//4 4//4 14//4
f 15//8 2//8 8//8
f 16//1 5//1 9//1
f 2//8 15//8 9//8
f 17//9 10//10 5//10
f 8//11 11//11 6//11
f 11//12 12//12 1//12
f 10//11 8//11 6//11
f 7//1 12//1 18//1
f 4//7 13//6 14//7
f 7//6 19//13 13//6
f 11//11 8//11 14//11
f 10//11 15//11 8//11
f 5//1 16//1 17//1
f 16//1 9//1 20//1
f 15//14 21//14 9//14
f 10//10 17//9 22//9
f 12//12 11//12 23//12
f 18//1 12//1 24//1
f 19//13 7//6 18//13
f 11//11 14//11 13//11
f 11//11 13//11 19//11
f 22//11 15//11 10//11
f 16//15 22//9 17//9
f 20//1 9//1 21//1
f 25//16 16//16 20//16
f 21//14 15//14 26//14
f 11//11 19//11 23//11
f 27//17 12//17 23//17
f 12//17 27//17 24//17
f 24//18 19//18 18//18
f 22//11 25//11 15//11
f 22//9 16//15 28//15
f 20//1 21//1 29//1
f 16//16 25//16 28//16
f 30//19 25//20 20//20
f 15//11 25//11 26//11
f 26//21 29//21 21//21
f 23//11 19//11 27//11
f 19//18 24//18 27//18
f 25//11 22//11 28//11
f 20//1 29//1 31//1
f 25//20 30//19 32//19
f 20//1 33//1 30//1
f 26//11 25//11 34//11
f 29//21 26//21 34//21
f 29//22 35//23 31//23
f 20//1 31//1 36//1
f 33//24 32//19 30//19
f 37//11 25//11 32//11
f 20//1 38//1 33//1
f 34//11 25//11 35//11
f 35//23 29//22 34//22
f 39//25 31//23 35//23
f 31//23 39//25 36//25
f 20//1 36//1 40//1
f 32//19 33//24 37//24
f 41//11 25//11 37//11
f 20//1 42//1 38//1
f 38//26 37//24 33//24
f 35//11 25//11 39//11
f 39//27 40//28 36//27
f 20//1 40//1 42//1
f 43//11 25//11 41//11
f 37//24 38//26 41//26
f 43//29 38//26 42//29
f 39//11 25//11 44//11
f 40//28 39//27 44//28
f 44//28 42//29 40//28
f 44//11 25//11 43//11
f 38//26 43//29 41//26
f 42//29 44//28 43//29
usemtl material_1_0
f 3//11 2//11 1//11
f 4//11 1//11 2//11
f 3//11 5//11 2//11
f 3//30 1//31 6//30
f 7//11 1//11 4//11
f 2//32 8//32 4//32
f 2//11 5//11 9//11
f 5//33 3//30 10//33
f 11//31 6//30 1//31
f 6//30 10//33 3//30
f 12//11 1//11 7//11
f 7//34 4//35 13//34
f 14//32 4//32 8//32
f 8//36 2//36 15//36
f 9//11 5//11 16//11
f 9//36 15//36 2//36
f 5//37 10//37 17//38
f 6//1 11//1 8//1
f 1//39 12//39 11//39
f 6//1 8//1 10//1
f 18//11 12//11 7//11
f 14//35 13//34 4//35
f 13//34 19//40 7//34
f 14//1 8//1 11//1
f 8//1 15//1 10//1
f 17//11 16//11 5//11
f 20//11 9//11 16//11
f 9//41 21//41 15//41
f 22//38 17//38 10//37
f 23//39 11//39 12//39
f 24//11 12//11 18//11
f 18//40 7//34 19//40
f 13//1 14//1 11//1
f 19//1 13//1 11//1
f 10//1 15//1 22//1
f 17//38 22//38 16//20
f 21//11 9//11 20//11
f 20//42 16//42 25//42
f 26//41 15//41 21//41
f 23//1 19//1 11//1
f 23//43 12//43 27//43
f 24//43 27//43 12//43
f 18//44 19//44 24//44
f 15//1 25//1 22//1
f 28//20 16//20 22//38
f 29//11 21//11 20//11
f 28//42 25//42 16//42
f 20//15 25//15 30//45
f 26//1 25//1 15//1
f 21//46 29//46 26//46
f 27//1 19//1 23//1
f 27//44 24//44 19//44
f 28//1 22//1 25//1
f 31//11 29//11 20//11
f 32//45 30//45 25//15
f 30//11 33//11 20//11
f 34//1 25//1 26//1
f 34//46 26//46 29//46
f 31//47 35//47 29//48
f 36//11 31//11 20//11
f 30//45 32//45 33//49
f 32//1 25//1 37//1
f 33//11 38//11 20//11
f 35//1 25//1 34//1
f 34//48 29//48 35//47
f 35//47 31//47 39//50
f 36//50 39//50 31//47
f 40//11 36//11 20//11
f 37//49 33//49 32//45
f 37//1 25//1 41//1
f 38//11 42//11 20//11
f 33//49 37//49 38//51
f 39//1 25//1 35//1
f 36//52 40//53 39//52
f 42//11 40//11 20//11
f 41//1 25//1 43//1
f 41//51 38//51 37//49
f 42//54 38//51 43//54
f 44//1 25//1 39//1
f 44//53 39//52 40//53
f 40//53 42//54 44//53
f 43//1 25//1 44//1
f 41//51 43//54 38//51
f 43//54 44//53 42//54
