# SSTK version 0.8.0
# 5
mtllib original-5.mtl
o mesh3/mesh3-geometry#mesh3-geometry
v 0.049725 0.855425 -0.076497
v 0.053351 0.855425 -0.089794
v 0.056977 0.855425 -0.078915
v 0.046461 0.855425 -0.080849
v 0.056977 0.856083 -0.078915
v 0.046461 0.856083 -0.080849
v 0.040054 0.855425 -0.082541
v 0.053351 0.856083 -0.089794
v 0.049725 0.856083 -0.076497
v 0.002581 0.855425 -0.089794
v 0.002581 0.856083 -0.089794
v 0.040054 0.856083 -0.082541
v 0.037334 0.855425 -0.081574
v 0.034977 0.855425 -0.078673
v 0.002581 0.855425 -0.060784
v 0.037334 0.856083 -0.081574
v 0.034977 0.856083 -0.078673
v 0.032783 0.855425 -0.069244
v 0.002581 0.856083 -0.060784
v 0.008625 0.855425 -0.060179
v 0.032783 0.856083 -0.069244
v 0.024939 0.855425 -0.065679
v 0.008625 0.856083 -0.060179
v 0.013460 0.855425 -0.058366
v 0.013460 0.856083 -0.058366
v 0.024939 0.856083 -0.065679
vn 0 -1 0
vn 0.9486831980504454 0 -0.31622806601688475
vn 0.31630006511338005 0 0.9486591952905279
vn -0.8000201595524364 0 0.599973119655951
vn -0.2553839268253647 0 0.9668397229733876
vn 0 0 -1
vn 0 1 0
vn 0.3349750049988321 0 0.9422270140608539
vn -1 0 0
vn 0.7761102683366792 0 0.6305972180261881
vn 0.8980540897421007 0 0.4398850439574947
vn 0.9739802156932996 0 0.22663305018914104
vn -0.09960896595316322 0 0.9950266598949706
vn -0.22725907810475424 0 0.9738343346889025
vn 0.4138109305852912 0 0.910362847291197
vn 0.47674211193596217 0 0.8790432063936554
vn -0.35110382508275123 0 0.9363365335242777
vn 0.5373178770821019 0 0.8433798070667707
vn -0.9486831980504454 0 0.31622806601688475
vn -0.31630006511338005 0 -0.9486591952905279
vn 0.8000201595524364 0 -0.599973119655951
vn 0.2553839268253647 0 -0.9668397229733876
vn 0 0 1
vn -0.3349750049988321 0 -0.9422270140608539
vn 1 0 0
vn -0.8980540897421007 0 -0.4398850439574947
vn -0.7761102683366792 0 -0.6305972180261881
vn -0.9739802156932996 0 -0.22663305018914104
vn 0.09960896595316322 0 -0.9950266598949706
vn 0.22725907810475424 0 -0.9738343346889025
vn -0.4138109305852912 0 -0.910362847291197
vn -0.47674211193596217 0 -0.8790432063936554
vn 0.35110382508275123 0 -0.9363365335242777
vn -0.5373178770821019 0 -0.8433798070667707
usemtl material_0_0
f 1//1 2//1 3//1
f 2//1 1//1 4//1
f 2//2 5//2 3//2
f 5//3 1//3 3//3
f 1//4 6//4 4//4
f 2//1 4//1 7//1
f 5//2 2//2 8//2
f 1//3 5//3 9//3
f 6//4 1//4 9//4
f 6//5 7//5 4//5
f 2//1 7//1 10//1
f 2//6 11//6 8//6
f 8//7 9//7 5//7
f 9//7 8//7 6//7
f 7//5 6//5 12//5
f 10//1 7//1 13//1
f 11//6 2//6 10//6
f 12//7 8//7 11//7
f 6//7 8//7 12//7
f 12//8 13//8 7//8
f 10//1 13//1 14//1
f 15//9 11//9 10//9
f 12//7 11//7 16//7
f 13//8 12//8 16//8
f 13//10 17//11 14//11
f 10//1 14//1 18//1
f 11//9 15//9 19//9
f 10//1 20//1 15//1
f 16//7 11//7 17//7
f 17//11 13//10 16//10
f 21//12 14//11 17//11
f 14//11 21//12 18//12
f 10//1 18//1 22//1
f 15//13 23//14 19//13
f 23//7 11//7 19//7
f 10//1 24//1 20//1
f 23//14 15//13 20//14
f 17//7 11//7 21//7
f 21//15 22//16 18//15
f 10//1 22//1 24//1
f 25//7 11//7 23//7
f 25//17 20//14 24//17
f 20//14 25//17 23//14
f 21//7 11//7 26//7
f 22//16 21//15 26//16
f 26//16 24//18 22//16
f 26//7 11//7 25//7
f 24//18 26//16 25//18
usemtl material_1_0
f 3//7 2//7 1//7
f 4//7 1//7 2//7
f 3//19 5//19 2//19
f 3//20 1//20 5//20
f 4//21 6//21 1//21
f 7//7 4//7 2//7
f 8//19 2//19 5//19
f 9//20 5//20 1//20
f 9//21 1//21 6//21
f 4//22 7//22 6//22
f 10//7 7//7 2//7
f 8//23 11//23 2//23
f 5//1 9//1 8//1
f 6//1 8//1 9//1
f 12//22 6//22 7//22
f 13//7 7//7 10//7
f 10//23 2//23 11//23
f 11//1 8//1 12//1
f 12//1 8//1 6//1
f 7//24 13//24 12//24
f 14//7 13//7 10//7
f 10//25 11//25 15//25
f 16//1 11//1 12//1
f 16//24 12//24 13//24
f 14//26 17//26 13//27
f 18//7 14//7 10//7
f 19//25 15//25 11//25
f 15//7 20//7 10//7
f 17//1 11//1 16//1
f 16//27 13//27 17//26
f 17//26 14//26 21//28
f 18//28 21//28 14//26
f 22//7 18//7 10//7
f 19//29 23//30 15//29
f 19//1 11//1 23//1
f 20//7 24//7 10//7
f 20//30 15//29 23//30
f 21//1 11//1 17//1
f 18//31 22//32 21//31
f 24//7 22//7 10//7
f 23//1 11//1 25//1
f 24//33 20//30 25//33
f 23//30 25//33 20//30
f 26//1 11//1 21//1
f 26//32 21//31 22//32
f 22//32 24//34 26//32
f 25//1 11//1 26//1
f 25//34 26//32 24//34
