# SSTK version 0.8.0
# 24
mtllib original-24.mtl
o mesh22/mesh22-geometry#mesh22-geometry
v -0.053043 0.855425 -0.008804
v -0.055097 0.855425 -0.021497
v -0.050141 0.855425 -0.023311
v -0.063922 0.855425 -0.020893
v -0.055097 0.856083 -0.021497
v -0.053043 0.856083 -0.008804
v -0.063922 0.856083 -0.020893
v -0.050141 0.856083 -0.023311
vn 0 -1 0
vn -0.20810797014691376 0 -0.9781058596907244
vn -0.34377710204509127 0 -0.9390512787433278
vn 0.9805807141524285 0 0.196115942830544
vn -0.7433280568969333 0 0.6689270512020197
vn -0.06829003495340971 0 -0.9976655106427514
vn 0 1 0
vn 0.20810797014691376 0 0.9781058596907244
vn 0.34377710204509127 0 0.9390512787433278
vn -0.9805807141524285 0 -0.196115942830544
vn 0.7433280568969333 0 -0.6689270512020197
vn 0.06829003495340971 0 0.9976655106427514
usemtl material_0_0
f 1//1 2//1 3//1
f 2//1 1//1 4//1
f 5//2 3//3 2//2
f 3//4 6//4 1//4
f 1//5 7//5 4//5
f 7//6 2//2 4//6
f 3//3 5//2 8//3
f 2//2 7//6 5//2
f 6//4 3//4 8//4
f 7//5 1//5 6//5
f 5//7 6//7 8//7
f 6//7 5//7 7//7
usemtl material_1_0
f 3//7 2//7 1//7
f 4//7 1//7 2//7
f 2//8 3//9 5//8
f 1//10 6//10 3//10
f 4//11 7//11 1//11
f 4//12 2//8 7//12
f 8//9 5//8 3//9
f 5//8 7//12 2//8
f 8//10 3//10 6//10
f 6//11 1//11 7//11
f 8//1 6//1 5//1
f 7//1 5//1 6//1
