# SSTK version 0.8.0
# 23
mtllib original-23.mtl
o mesh21/mesh21-geometry#mesh21-geometry
v -0.055461 0.855425 0.014163
v -0.050626 0.855425 0.006185
v -0.045305 0.855425 0.014163
v -0.052560 0.855425 -0.005420
v -0.045305 0.856083 0.014163
v -0.057454 0.855425 -0.004543
v -0.050626 0.856083 0.006185
v -0.055461 0.856083 0.014163
v -0.062350 0.855425 0.011987
v -0.057454 0.856083 -0.004543
v -0.052560 0.856083 -0.005420
v -0.061504 0.855425 -0.001914
v -0.061504 0.856083 -0.001914
v -0.062350 0.856083 0.011987
v -0.064223 0.855425 0.001984
v -0.064435 0.856083 0.009569
v -0.064435 0.855425 0.009569
v -0.064223 0.856083 0.001984
v -0.065130 0.855425 0.006667
v -0.065130 0.856083 0.006667
vn 0 -1 0
vn 0.9299072533602399 0 -0.3677941002082747
vn 0.8319762869083199 0 -0.5548111913275046
vn 0 0 1
vn -0.1524069723554352 0 0.988317820732506
vn 0.9863960859091846 0 -0.16438601431703617
vn -0.3676889368821548 0 -0.9299488403640658
vn -0.17623695900085548 0 -0.9843477710048064
vn 0 1 0
vn -0.3012539800491546 0 0.9535439368506013
vn -0.6952367872123852 0 -0.7187807800063941
vn -0.8900746351362299 0 0.45581481315015104
vn -0.7573880478029268 0 0.6529650412122164
vn -0.9209858823845845 0 -0.38959595024626276
vn -0.9997593768208773 0 0.021936008267935337
vn -0.8319762869083199 0 0.5548111913275046
vn -0.9299072533602399 0 0.3677941002082747
vn 0 0 -1
vn 0.1524069723554352 0 -0.988317820732506
vn -0.9863960859091846 0 0.16438601431703617
vn 0.3676889368821548 0 0.9299488403640658
vn 0.17623695900085548 0 0.9843477710048064
vn 0.3012539800491546 0 -0.9535439368506013
vn 0.6952367872123852 0 0.7187807800063941
vn 0.7573880478029268 0 -0.6529650412122164
vn 0.8900746351362299 0 -0.45581481315015104
vn 0.9209858823845845 0 0.38959595024626276
vn 0.9997593768208773 0 -0.021936008267935337
usemtl material_0_0
f 1//1 2//1 3//1
f 2//1 1//1 4//1
f 2//2 5//3 3//3
f 5//4 1//5 3//4
f 4//1 1//1 6//1
f 4//6 7//2 2//2
f 5//3 2//2 7//2
f 1//5 5//4 8//5
f 6//1 1//1 9//1
f 10//7 4//8 6//7
f 7//2 4//6 11//6
f 7//9 8//9 5//9
f 8//5 9//10 1//5
f 6//1 9//1 12//1
f 4//8 10//7 11//8
f 6//7 13//11 10//7
f 8//9 7//9 11//9
f 9//10 8//5 14//10
f 12//1 9//1 15//1
f 13//11 6//7 12//11
f 8//9 11//9 10//9
f 14//9 10//9 13//9
f 8//9 10//9 14//9
f 16//12 9//13 14//13
f 15//1 9//1 17//1
f 15//14 13//11 12//11
f 14//9 13//9 18//9
f 9//13 16//12 17//12
f 14//9 18//9 16//9
f 15//1 17//1 19//1
f 13//11 15//14 18//14
f 20//15 17//12 16//12
f 16//9 18//9 20//9
f 17//12 20//15 19//15
f 19//15 18//14 15//14
f 18//14 19//15 20//15
usemtl material_1_0
f 3//9 2//9 1//9
f 4//9 1//9 2//9
f 3//16 5//16 2//17
f 3//18 1//19 5//18
f 6//9 1//9 4//9
f 2//17 7//17 4//20
f 7//17 2//17 5//16
f 8//19 5//18 1//19
f 9//9 1//9 6//9
f 6//21 4//22 10//21
f 11//20 4//20 7//17
f 5//1 8//1 7//1
f 1//19 9//23 8//19
f 12//9 9//9 6//9
f 11//22 10//21 4//22
f 10//21 13//24 6//21
f 11//1 7//1 8//1
f 14//23 8//19 9//23
f 15//9 9//9 12//9
f 12//24 6//21 13//24
f 10//1 11//1 8//1
f 13//1 10//1 14//1
f 14//1 10//1 8//1
f 14//25 9//25 16//26
f 17//9 9//9 15//9
f 12//24 13//24 15//27
f 18//1 13//1 14//1
f 17//26 16//26 9//25
f 16//1 18//1 14//1
f 19//9 17//9 15//9
f 18//27 15//27 13//24
f 16//26 17//26 20//28
f 20//1 18//1 16//1
f 19//28 20//28 17//26
f 15//27 18//27 19//28
f 20//28 19//28 18//27
