# SSTK version 0.8.0
# 6
mtllib original-6.mtl
o mesh4/mesh4-geometry#mesh4-geometry
v 0.038524 0.855425 -0.061207
v 0.041244 0.855425 -0.069244
v 0.047288 0.855425 -0.064410
v 0.017068 0.855425 -0.057157
v 0.041244 0.856083 -0.069244
v 0.047288 0.856083 -0.064410
v 0.024321 0.855425 -0.053531
v 0.017068 0.856083 -0.057157
v 0.038524 0.856083 -0.061207
v 0.024321 0.856083 -0.053531
vn 0 -1 0
vn 0.6246077266139426 0 -0.7809386581890813
vn 0.3432580496617201 0 0.9392411358870693
vn 0.4104259653781088 0 0.9118939230762795
vn -0.44718599528733033 0 -0.8944409905739338
vn 0.47543493790202057 0 0.8797508850931051
vn -0.4472139954999092 0 0.8944269909998285
vn 0 1 0
vn -0.6246077266139426 0 0.7809386581890813
vn -0.3432580496617201 0 -0.9392411358870693
vn -0.4104259653781088 0 -0.9118939230762795
vn 0.44718599528733033 0 0.8944409905739338
vn -0.47543493790202057 0 -0.8797508850931051
vn 0.4472139954999092 0 -0.8944269909998285
usemtl material_0_0
f 1//1 2//1 3//1
f 2//1 1//1 4//1
f 5//2 3//2 2//2
f 6//3 1//4 3//3
f 4//1 1//1 7//1
f 8//5 2//5 4//5
f 3//2 5//2 6//2
f 2//5 8//5 5//5
f 1//4 6//3 9//4
f 9//4 7//6 1//4
f 10//7 4//7 7//7
f 4//7 10//7 8//7
f 5//8 9//8 6//8
f 9//8 5//8 8//8
f 7//6 9//4 10//6
f 9//8 8//8 10//8
usemtl material_1_0
f 3//8 2//8 1//8
f 4//8 1//8 2//8
f 2//9 3//9 5//9
f 3//10 1//11 6//10
f 7//8 1//8 4//8
f 4//12 2//12 8//12
f 6//9 5//9 3//9
f 5//12 8//12 2//12
f 9//11 6//10 1//11
f 1//11 7//13 9//11
f 7//14 4//14 10//14
f 8//14 10//14 4//14
f 6//1 9//1 5//1
f 8//1 5//1 9//1
f 10//13 9//11 7//13
f 10//1 8//1 9//1
