# SSTK version 0.8.0
# 12
mtllib original-12.mtl
o Group11/mesh18/mesh18-geometry#mesh18-geometry
v -0.796123 -0.337406 0.025463
v -0.760078 -0.1786 0.017334
v -0.7949 -0.178238 0.020147
v -0.761301 -0.337767 0.02265
v -0.79582 -0.17861 0.008815
v -0.76222 -0.338139 0.011317
v -0.760998 -0.178971 0.006002
v -0.797042 -0.337777 0.01413
v -0.774575 -0.193167 0.007568
v -0.784975 -0.197366 0.00855
v -0.778729 -0.330603 0.01241
v -0.772128 -0.197499 0.007512
v -0.773388 -0.194379 0.007512
v -0.776033 -0.192304 0.007658
v -0.784525 -0.195732 0.00846
v -0.784988 -0.199061 0.008606
v -0.78042 -0.330585 0.012546
v -0.777092 -0.330181 0.012263
v -0.772553 -0.195856 0.007493
v -0.772141 -0.199195 0.007569
v -0.782463 -0.193085 0.008206
v -0.780992 -0.192252 0.008059
v -0.777663 -0.191848 0.007776
v -0.783668 -0.194272 0.008342
v -0.783933 -0.19736 0.008956
v -0.784563 -0.200704 0.008626
v -0.782051 -0.330129 0.012664
v -0.775621 -0.329348 0.012116
v -0.772592 -0.200828 0.007659
v -0.773091 -0.197472 0.008081
v -0.779355 -0.19183 0.007912
v -0.783946 -0.199056 0.009013
v -0.783729 -0.202182 0.008606
v -0.783509 -0.329266 0.012754
v -0.774415 -0.328161 0.01198
v -0.773449 -0.202288 0.007776
v -0.773104 -0.199168 0.008137
v -0.774098 -0.197448 0.008568
v -0.782861 -0.197358 0.009276
v -0.782874 -0.199053 0.009333
v -0.782542 -0.203393 0.00855
v -0.784696 -0.328054 0.01281
v -0.773558 -0.326701 0.011862
v -0.774654 -0.203475 0.007913
v -0.774111 -0.199144 0.008625
v -0.775142 -0.197427 0.008971
v -0.781766 -0.197358 0.009506
v -0.781084 -0.204257 0.00846
v -0.78553 -0.326577 0.012829
v -0.773108 -0.325067 0.011772
v -0.776125 -0.204308 0.008059
v -0.775155 -0.199123 0.009028
v -0.776215 -0.197408 0.009287
v -0.780656 -0.197362 0.009646
v -0.781779 -0.199054 0.009563
v -0.779454 -0.204712 0.008342
v -0.785955 -0.324934 0.01281
v -0.773095 -0.323371 0.011716
v -0.777762 -0.20473 0.008206
v -0.776228 -0.199104 0.009344
v -0.77731 -0.197392 0.009514
v -0.779538 -0.197369 0.009694
v -0.780669 -0.199058 0.009703
v -0.785942 -0.323238 0.012753
v -0.77352 -0.321729 0.011696
v -0.774058 -0.323345 0.012284
v -0.784913 -0.324928 0.013217
v -0.774355 -0.320251 0.011716
v -0.777323 -0.199088 0.00957
v -0.778421 -0.197379 0.00965
v -0.779551 -0.199065 0.00975
v -0.784635 -0.320144 0.012546
v -0.785492 -0.321604 0.012663
v -0.7849 -0.323232 0.01316
v -0.774071 -0.325041 0.012341
v -0.775065 -0.323321 0.012772
v -0.783841 -0.324926 0.013536
v -0.775541 -0.319039 0.011772
v -0.778434 -0.199075 0.009706
v -0.78343 -0.318958 0.012409
v -0.775078 -0.325017 0.012828
v -0.776108 -0.3233 0.013175
v -0.782746 -0.324927 0.013767
v -0.777 -0.318176 0.011862
v -0.781958 -0.318125 0.012263
v -0.783828 -0.32323 0.01348
v -0.776121 -0.324995 0.013232
v -0.777181 -0.323281 0.013491
v -0.781636 -0.324931 0.013906
v -0.77863 -0.31772 0.011979
v -0.780321 -0.317703 0.012116
v -0.782733 -0.323231 0.01371
v -0.777194 -0.324977 0.013548
v -0.778277 -0.323265 0.013718
v -0.780518 -0.324938 0.013954
v -0.781623 -0.323235 0.01385
v -0.77829 -0.324961 0.013774
v -0.779387 -0.323252 0.013853
v -0.7794 -0.324948 0.01391
v -0.780505 -0.323242 0.013898
vn 0.0808093975084132 0.03264911588733838 0.9961946980917449
vn -0.0808093975084132 -0.03264911588733838 -0.9961946980917449
vn 0.007676010790272095 0.9994133463868063 -0.03337726654885617
vn -0.007676010790272095 -0.9994133463868063 0.03337726654885617
vn -0.996700015116221 0.010343998052054864 0.08051137541754083
vn 0.996700015116221 -0.010343998052054864 -0.08051137541754083
vn 0.32477077046815217 -0.034060425716862366 -0.9451792602726263
vn 0.3634198803670232 -0.033884030545638266 -0.9310090563619673
vn -0.3634198803670232 0.033884030545638266 0.9310090563619673
vn -0.32477077046815217 0.034060425716862366 0.9451792602726263
vn -0.5087482811236214 -0.024832454718711525 -0.8605571077194144
vn -0.47288632814357784 -0.025782144038211687 -0.88074616190119
vn 0.5087482811236214 0.024832454718711525 0.8605571077194144
vn 0.47288632814357784 0.025782144038211687 0.88074616190119
vn 0.24588837710877753 -0.03423986029732142 -0.9686932114811333
vn -0.24588837710877753 0.03423986029732142 0.9686932114811333
vn -0.3988209458922121 -0.027548908275527563 -0.9166149195657182
vn 0.3988209458922121 0.027548908275527563 0.9166149195657182
vn -0.322053899748931 -0.029129009033850007 -0.9462731035431639
vn 0.322053899748931 0.029129009033850007 0.9462731035431639
vn 0.16534051529600016 -0.03418730822452405 -0.9856438210418682
vn -0.16534051529600016 0.03418730822452405 0.9856438210418682
vn -0.24310427832657058 -0.030511761604232326 -0.9695201608337619
vn 0.24310427832657058 0.030511761604232326 0.9695201608337619
vn 0.08367184035310357 -0.033903124585887796 -0.9959164630004057
vn -0.08367184035310357 0.033903124585887796 0.9959164630004057
vn -0.16250726421065143 -0.031687788922142496 -0.9861983943973929
vn 0.16250726421065143 0.031687788922142496 0.9861983943973929
vn 0.0014359845118162061 -0.03338923230501934 -0.9994413925361325
vn -0.0014359845118162061 0.03338923230501934 0.9994413925361325
usemtl material_0_0
f 1//1 2//1 3//1
f 2//1 1//1 4//1
f 3//2 2//2 1//2
f 4//2 1//2 2//2
f 2//3 5//3 3//3
f 3//4 5//4 2//4
f 5//5 1//5 3//5
f 3//6 1//6 5//6
f 1//4 6//4 4//4
f 4//3 6//3 1//3
f 6//6 2//6 4//6
f 4//5 2//5 6//5
f 5//3 2//3 7//3
f 7//4 2//4 5//4
f 1//5 5//5 8//5
f 8//6 5//6 1//6
f 6//4 1//4 8//4
f 8//3 1//3 6//3
f 2//6 6//6 7//6
f 7//5 6//5 2//5
f 7//2 9//2 5//2
f 5//1 9//1 7//1
f 5//2 10//2 8//2
f 8//1 10//1 5//1
f 8//2 11//2 6//2
f 6//1 11//1 8//1
f 12//2 7//2 6//2
f 6//1 7//1 12//1
f 9//2 7//2 13//2
f 13//1 7//1 9//1
f 5//2 9//2 14//2
f 14//1 9//1 5//1
f 10//2 5//2 15//2
f 15//1 5//1 10//1
f 8//2 10//2 16//2
f 16//1 10//1 8//1
f 8//2 17//2 11//2
f 11//1 17//1 8//1
f 18//2 6//2 11//2
f 11//1 6//1 18//1
f 19//2 7//2 12//2
f 12//1 7//1 19//1
f 12//2 6//2 20//2
f 20//1 6//1 12//1
f 13//2 7//2 19//2
f 19//1 7//1 13//1
f 21//2 9//2 13//2
f 13//1 9//1 21//1
f 22//2 14//2 9//2
f 9//1 14//1 22//1
f 5//2 14//2 23//2
f 23//1 14//1 5//1
f 15//2 5//2 24//2
f 24//1 5//1 15//1
f 15//2 12//2 10//2
f 10//1 12//1 15//1
f 25//7 16//8 10//8
f 10//9 16//9 25//10
f 8//2 16//2 26//2
f 26//1 16//1 8//1
f 8//2 27//2 17//2
f 17//1 27//1 8//1
f 27//2 11//2 17//2
f 17//1 11//1 27//1
f 28//2 6//2 18//2
f 18//1 6//1 28//1
f 27//2 18//2 11//2
f 11//1 18//1 27//1
f 15//2 19//2 12//2
f 12//1 19//1 15//1
f 20//2 6//2 29//2
f 29//1 6//1 20//1
f 20//11 30//12 12//11
f 12//13 30//14 20//13
f 24//2 13//2 19//2
f 19//1 13//1 24//1
f 22//2 9//2 21//2
f 21//1 9//1 22//1
f 21//2 13//2 24//2
f 24//1 13//1 21//1
f 31//2 14//2 22//2
f 22//1 14//1 31//1
f 14//2 31//2 23//2
f 23//1 31//1 14//1
f 31//2 5//2 23//2
f 23//1 5//1 31//1
f 24//2 5//2 21//2
f 21//1 5//1 24//1
f 24//2 19//2 15//2
f 15//1 19//1 24//1
f 12//4 25//4 10//4
f 10//3 25//3 12//3
f 16//8 25//7 32//7
f 32//10 25//10 16//9
f 16//2 29//2 26//2
f 26//1 29//1 16//1
f 8//2 26//2 33//2
f 33//1 26//1 8//1
f 8//2 34//2 27//2
f 27//1 34//1 8//1
f 35//2 6//2 28//2
f 28//1 6//1 35//1
f 34//2 28//2 18//2
f 18//1 28//1 34//1
f 34//2 18//2 27//2
f 27//1 18//1 34//1
f 29//2 6//2 36//2
f 36//1 6//1 29//1
f 29//2 16//2 20//2
f 20//1 16//1 29//1
f 30//12 20//11 37//12
f 37//14 20//13 30//14
f 38//4 12//4 30//4
f 30//3 12//3 38//3
f 21//2 5//2 22//2
f 22//1 5//1 21//1
f 22//2 5//2 31//2
f 31//1 5//1 22//1
f 25//4 12//4 39//4
f 39//3 12//3 25//3
f 25//7 40//15 32//7
f 32//10 40//16 25//10
f 32//3 20//3 16//3
f 16//4 20//4 32//4
f 26//2 29//2 36//2
f 36//1 29//1 26//1
f 26//2 36//2 33//2
f 33//1 36//1 26//1
f 8//2 33//2 41//2
f 41//1 33//1 8//1
f 8//2 42//2 34//2
f 34//1 42//1 8//1
f 43//2 6//2 35//2
f 35//1 6//1 43//1
f 42//2 35//2 28//2
f 28//1 35//1 42//1
f 42//2 28//2 34//2
f 34//1 28//1 42//1
f 36//2 6//2 44//2
f 44//1 6//1 36//1
f 20//3 45//3 37//3
f 37//4 45//4 20//4
f 37//12 38//17 30//12
f 30//14 38//18 37//14
f 46//4 12//4 38//4
f 38//3 12//3 46//3
f 39//4 12//4 47//4
f 47//3 12//3 39//3
f 40//15 25//7 39//15
f 39//16 25//10 40//16
f 20//3 32//3 40//3
f 40//4 32//4 20//4
f 33//2 36//2 44//2
f 44//1 36//1 33//1
f 33//2 44//2 41//2
f 41//1 44//1 33//1
f 8//2 41//2 48//2
f 48//1 41//1 8//1
f 8//2 49//2 42//2
f 42//1 49//1 8//1
f 50//2 6//2 43//2
f 43//1 6//1 50//1
f 49//2 43//2 35//2
f 35//1 43//1 49//1
f 49//2 35//2 42//2
f 42//1 35//1 49//1
f 44//2 6//2 51//2
f 51//1 6//1 44//1
f 20//3 52//3 45//3
f 45//4 52//4 20//4
f 38//17 37//12 45//17
f 45//18 37//14 38//18
f 53//4 12//4 46//4
f 46//3 12//3 53//3
f 45//17 46//19 38//17
f 38//18 46//20 45//18
f 47//4 12//4 54//4
f 54//3 12//3 47//3
f 55//21 39//15 47//21
f 47//22 39//16 55//22
f 39//15 55//21 40//15
f 40//16 55//22 39//16
f 20//3 40//3 55//3
f 55//4 40//4 20//4
f 41//2 44//2 51//2
f 51//1 44//1 41//1
f 41//2 51//2 48//2
f 48//1 51//1 41//1
f 8//2 48//2 56//2
f 56//1 48//1 8//1
f 8//2 57//2 49//2
f 49//1 57//1 8//1
f 58//2 6//2 50//2
f 50//1 6//1 58//1
f 43//2 57//2 50//2
f 50//1 57//1 43//1
f 57//2 43//2 49//2
f 49//1 43//1 57//1
f 51//2 6//2 59//2
f 59//1 6//1 51//1
f 20//3 60//3 52//3
f 52//4 60//4 20//4
f 46//19 45//17 52//19
f 52//20 45//18 46//20
f 61//4 12//4 53//4
f 53//3 12//3 61//3
f 52//19 53//23 46//19
f 46//20 53//24 52//20
f 54//4 12//4 62//4
f 62//3 12//3 54//3
f 63//25 47//21 54//25
f 54//26 47//22 63//26
f 47//21 63//25 55//21
f 55//22 63//26 47//22
f 20//3 55//3 63//3
f 63//4 55//4 20//4
f 48//2 51//2 59//2
f 59//1 51//1 48//1
f 48//2 59//2 56//2
f 56//1 59//1 48//1
f 8//2 56//2 59//2
f 59//1 56//1 8//1
f 8//2 64//2 57//2
f 57//1 64//1 8//1
f 65//2 6//2 58//2
f 58//1 6//1 65//1
f 50//11 66//12 58//11
f 58//13 66//14 50//13
f 67//3 50//3 57//3
f 57//4 50//4 67//4
f 59//2 6//2 68//2
f 68//1 6//1 59//1
f 20//3 69//3 60//3
f 60//4 69//4 20//4
f 53//23 52//19 60//23
f 60//24 52//20 53//24
f 70//4 12//4 61//4
f 61//3 12//3 70//3
f 60//23 61//27 53//23
f 53//24 61//28 60//24
f 62//4 12//4 70//4
f 70//3 12//3 62//3
f 71//29 54//25 62//29
f 62//30 54//26 71//30
f 54//25 71//29 63//25
f 63//26 71//30 54//26
f 20//3 63//3 71//3
f 71//4 63//4 20//4
f 8//2 59//2 72//2
f 72//1 59//1 8//1
f 8//2 73//2 64//2
f 64//1 73//1 8//1
f 74//7 57//8 64//8
f 64//9 57//9 74//10
f 68//2 6//2 65//2
f 65//1 6//1 68//1
f 73//2 65//2 58//2
f 58//1 65//1 73//1
f 66//12 50//11 75//12
f 75//14 50//13 66//14
f 76//4 58//4 66//4
f 66//3 58//3 76//3
f 50//3 67//3 77//3
f 77//4 67//4 50//4
f 57//8 74//7 67//7
f 67//10 74//10 57//9
f 59//2 68//2 78//2
f 78//1 68//1 59//1
f 20//3 79//3 69//3
f 69//4 79//4 20//4
f 61//27 60//23 69//27
f 69//28 60//24 61//28
f 69//27 70//2 61//27
f 61//28 70//1 69//28
f 79//2 62//29 70//2
f 70//1 62//30 79//1
f 62//29 79//2 71//29
f 71//30 79//1 62//30
f 20//3 71//3 79//3
f 79//4 71//4 20//4
f 72//2 59//2 80//2
f 80//1 59//1 72//1
f 8//2 72//2 73//2
f 73//1 72//1 8//1
f 73//2 58//2 64//2
f 64//1 58//1 73//1
f 58//4 74//4 64//4
f 64//3 74//3 58//3
f 72//2 68//2 65//2
f 65//1 68//1 72//1
f 72//2 65//2 73//2
f 73//1 65//1 72//1
f 50//3 81//3 75//3
f 75//4 81//4 50//4
f 75//12 76//17 66//12
f 66//14 76//18 75//14
f 82//4 58//4 76//4
f 76//3 58//3 82//3
f 74//7 77//15 67//7
f 67//10 77//16 74//10
f 50//3 77//3 83//3
f 83//4 77//4 50//4
f 80//2 78//2 68//2
f 68//1 78//1 80//1
f 59//2 78//2 84//2
f 84//1 78//1 59//1
f 70//2 69//27 79//2
f 79//1 69//28 70//1
f 80//2 59//2 85//2
f 85//1 59//1 80//1
f 80//2 68//2 72//2
f 72//1 68//1 80//1
f 74//4 58//4 86//4
f 86//3 58//3 74//3
f 50//3 87//3 81//3
f 81//4 87//4 50//4
f 76//17 75//12 81//17
f 81//18 75//14 76//18
f 88//4 58//4 82//4
f 82//3 58//3 88//3
f 81//17 82//19 76//17
f 76//18 82//20 81//18
f 77//15 74//7 86//15
f 86//16 74//10 77//16
f 86//15 83//21 77//15
f 77//16 83//22 86//16
f 50//3 83//3 89//3
f 89//4 83//4 50//4
f 85//2 78//2 80//2
f 80//1 78//1 85//1
f 85//2 84//2 78//2
f 78//1 84//1 85//1
f 59//2 84//2 90//2
f 90//1 84//1 59//1
f 85//2 59//2 91//2
f 91//1 59//1 85//1
f 86//4 58//4 92//4
f 92//3 58//3 86//3
f 50//3 93//3 87//3
f 87//4 93//4 50//4
f 82//19 81//17 87//19
f 87//20 81//18 82//20
f 94//4 58//4 88//4
f 88//3 58//3 94//3
f 87//19 88//23 82//19
f 82//20 88//24 87//20
f 83//21 86//15 92//21
f 92//22 86//16 83//22
f 92//21 89//25 83//21
f 83//22 89//26 92//22
f 50//3 89//3 95//3
f 95//4 89//4 50//4
f 91//2 84//2 85//2
f 85//1 84//1 91//1
f 84//2 91//2 90//2
f 90//1 91//1 84//1
f 91//2 59//2 90//2
f 90//1 59//1 91//1
f 92//4 58//4 96//4
f 96//3 58//3 92//3
f 50//3 97//3 93//3
f 93//4 97//4 50//4
f 88//23 87//19 93//23
f 93//24 87//20 88//24
f 98//4 58//4 94//4
f 94//3 58//3 98//3
f 93//23 94//27 88//23
f 88//24 94//28 93//24
f 89//25 92//21 96//25
f 96//26 92//22 89//26
f 96//25 95//29 89//25
f 89//26 95//30 96//26
f 50//3 95//3 99//3
f 99//4 95//4 50//4
f 96//4 58//4 100//4
f 100//3 58//3 96//3
f 50//3 99//3 97//3
f 97//4 99//4 50//4
f 94//27 93//23 97//27
f 97//28 93//24 94//28
f 100//4 58//4 98//4
f 98//3 58//3 100//3
f 97//27 98//2 94//27
f 94//28 98//1 97//28
f 95//29 96//25 100//29
f 100//30 96//26 95//30
f 100//29 99//2 95//29
f 95//30 99//1 100//30
f 98//2 97//27 99//2
f 99//1 97//28 98//1
f 99//2 100//29 98//2
f 98//1 100//30 99//1
