# SSTK version 0.8.0
# 17
mtllib original-17.mtl
o Group16/mesh29/mesh29-geometry#mesh29-geometry
v 0.029461 -0.40078 -0.02683
v 0.008186 -0.408681 -0.024845
v 0.008249 -0.40056 -0.025116
v 0.029398 -0.408901 -0.026559
v 0.008577 -0.408523 -0.020025
v -0.034498 -0.400186 -0.023745
v 0.032423 -0.399584 0.009684
v 0.029789 -0.408743 -0.021739
v 0.009169 -0.414393 -0.011948
v 0.071729 -0.401219 -0.030244
v 0.011211 -0.399363 0.011398
v 0.074691 -0.400022 0.00627
v 0.03236 -0.407704 0.009955
v 0.030381 -0.414614 -0.013661
v 0.009626 -0.413476 -0.006408
v 0.008732 -0.416718 -0.017061
v 0.029762 -0.412355 -0.021618
v 0.092941 -0.401439 -0.031958
v 0.011148 -0.407484 0.011669
v -0.0312 -0.398854 0.016905
v 0.031969 -0.407862 0.005136
v 0.030838 -0.413696 -0.008122
v 0.029944 -0.416938 -0.018774
v 0.010072 -0.414029 -0.000819
v 0.00855 -0.412135 -0.019905
v 0.135197 -0.401947 -0.037452
v 0.071667 -0.40934 -0.029973
v 0.095903 -0.400242 0.004556
v 0.074629 -0.408143 0.006541
v 0.010757 -0.407642 0.006849
v -0.031375 -0.387591 0.013287
v 0.031942 -0.411475 0.005256
v 0.031284 -0.414249 -0.002533
v 0.010476 -0.416013 0.004438
v 0.008344 -0.420291 -0.021399
v 0.008065 -0.416602 -0.025327
v 0.029556 -0.420512 -0.023112
v 0.138494 -0.400615 0.003197
v -0.03431 -0.375824 -0.024558
v 0.092879 -0.40956 -0.031686
v 0.072058 -0.409182 -0.025153
v 0.095841 -0.408363 0.004828
v 0.074238 -0.408301 0.001721
v 0.01073 -0.411254 0.00697
v -0.031276 -0.374598 0.012853
v -0.034148 -0.388711 -0.020886
v 0.031688 -0.416234 0.002724
v 0.029277 -0.416822 -0.027041
v 0.138319 -0.389352 -0.00042
v 0.135384 -0.377585 -0.038266
v 0.09327 -0.409402 -0.026867
v 0.072649 -0.415052 -0.017075
v 0.09545 -0.408521 8e-06
v 0.07421 -0.411913 0.001842
v -0.031013 -0.374491 0.016091
v -0.043534 -0.37447 0.013843
v -0.043634 -0.387464 0.014277
v 0.032022 -0.419515 0.007291
v 0.010811 -0.419295 0.009004
v 0.008033 -0.42487 -0.024666
v 0.028888 -0.422546 -0.031125
v 0.029245 -0.42509 -0.026379
v 0.138681 -0.376253 0.002383
v 0.135547 -0.390472 -0.034594
v -0.060843 -0.375891 -0.032684
v 0.135647 -0.377479 -0.035028
v -0.034048 -0.375718 -0.02132
v 0.093861 -0.415272 -0.018789
v 0.073106 -0.414135 -0.011536
v 0.072212 -0.417377 -0.022188
v 0.07203 -0.412794 -0.025033
v 0.095422 -0.412133 0.000128
v 0.073956 -0.416672 -0.00069
v 0.03236 -0.415577 0.010965
v -0.046406 -0.388584 -0.019896
v 0.032265 -0.42387 0.010857
v 0.011053 -0.42365 0.01257
v 0.007876 -0.428727 -0.02611
v 0.007676 -0.422326 -0.029412
v 0.029031 -0.430362 -0.028353
v 0.138419 -0.376359 -0.000854
v 0.148505 -0.390606 -0.035641
v 0.147514 -0.378054 -0.049515
v 0.148605 -0.377613 -0.036075
v -0.046306 -0.37559 -0.02033
v 0.094318 -0.414355 -0.013249
v 0.093424 -0.417597 -0.023902
v 0.073552 -0.414688 -0.005947
v 0.093242 -0.413014 -0.026746
v 0.095168 -0.416892 -0.002404
v 0.074291 -0.419954 0.003877
v 0.011148 -0.415357 0.012679
v -0.055891 -0.37389 0.02837
v 0.02862 -0.429137 -0.033593
v 0.028928 -0.435969 -0.028899
v 0.152467 -0.376053 0.011539
v 0.151277 -0.389486 -0.001467
v -0.076829 -0.348112 -0.032298
v 0.094764 -0.414908 -0.007661
v 0.093037 -0.42117 -0.02824
v 0.071825 -0.42095 -0.026526
v 0.092758 -0.417481 -0.032169
v 0.095503 -0.420174 0.002163
v 0.09584 -0.416236 0.005837
v 0.074534 -0.424309 0.007442
v 0.032664 -0.421021 0.015422
v 0.0324 -0.429001 0.013178
v 0.011152 -0.427404 0.014268
v 0.007819 -0.430142 -0.02664
v 0.007408 -0.428917 -0.031879
v 0.151377 -0.376493 -0.001901
v 0.147727 -0.350443 -0.050437
v 0.095894 -0.349905 -0.04625
v 0.071546 -0.417261 -0.030455
v 0.095746 -0.424529 0.005729
v 0.074629 -0.416015 0.007551
v 0.011452 -0.4208 0.017136
v 0.032416 -0.434559 0.014097
v -0.071876 -0.346111 0.028756
v 0.011188 -0.428781 0.014891
v 0.007716 -0.435748 -0.027186
v 0.007014 -0.429076 -0.036736
v 0.028172 -0.436274 -0.038217
v 0.152679 -0.348442 0.010617
v -0.076742 -0.336743 -0.032678
v 0.071513 -0.425529 -0.029794
v 0.071156 -0.422985 -0.03454
v 0.092725 -0.425749 -0.031507
v 0.074932 -0.421459 0.012008
v 0.09588 -0.42966 0.00805
v 0.074632 -0.428063 0.009141
v 0.011204 -0.434339 0.01581
v 0.032831 -0.427435 0.018324
v 0.100847 -0.347904 0.014804
v 0.028226 -0.429296 -0.03845
v 0.006961 -0.436054 -0.036503
v 0.095982 -0.338536 -0.04663
v 0.071357 -0.429386 -0.031238
v 0.092368 -0.423205 -0.036253
v 0.092511 -0.431021 -0.033481
v 0.096144 -0.421679 0.010295
v 0.074685 -0.434998 0.010683
v 0.095896 -0.435218 0.008969
v 0.074668 -0.42944 0.009764
v 0.01162 -0.427215 0.020038
v 0.033217 -0.434236 0.023967
v -0.071789 -0.334742 0.028376
v 0.100934 -0.336535 0.014424
v 0.070889 -0.429575 -0.037007
v 0.071299 -0.430801 -0.031768
v 0.0751 -0.427874 0.01491
v 0.012005 -0.434016 0.025681
v 0.012059 -0.427038 0.025448
v 0.03327 -0.427258 0.023734
v 0.092409 -0.436627 -0.034027
v 0.0921 -0.429795 -0.038721
v 0.071197 -0.436407 -0.032314
v 0.096312 -0.428094 0.013197
v 0.075485 -0.434675 0.020553
v 0.070495 -0.429734 -0.041864
v 0.070441 -0.436713 -0.041631
v 0.075539 -0.427696 0.02032
v 0.096697 -0.434895 0.018839
v 0.091653 -0.436933 -0.043344
v 0.091706 -0.429955 -0.043577
v 0.096751 -0.427917 0.018606
vn -0.0808093975084132 -0.03264911588733838 -0.9961946980917449
vn 0.0808093975084132 0.03264911588733838 0.9961946980917449
vn -0.996700015116221 0.010343998052054864 0.08051137541754083
vn 0.996700015116221 -0.010343998052054864 -0.08051137541754083
vn -0.007676010790272095 -0.9994133463868063 0.03337726654885617
vn 0.007676010790272095 0.9994133463868063 -0.03337726654885617
vn 0.013500546947440663 -0.956908975105995 0.2900740398479574
vn -0.013500546947440663 0.956908975105995 -0.2900740398479574
vn -0.07382098968664143 -0.5279818084084063 -0.8460411759905506
vn 0.07382098968664143 0.5279818084084063 0.8460411759905506
vn 0.02832946142958168 0.973809395517217 0.22559411077752548
vn -0.02832946142958168 -0.973809395517217 -0.22559411077752548
vn -0.04310384634209189 0.7730124787334117 -0.632924771321951
vn -0.05171311367953575 0.6836055431947682 -0.7280173179169251
vn 0.04310384634209189 -0.7730124787334117 0.632924771321951
vn 0.05171311367953575 -0.6836055431947682 0.7280173179169251
vn 0.04705233245246737 0.8818418096174148 0.46919196585349343
vn -0.04705233245246737 -0.8818418096174148 -0.46919196585349343
vn -0.06614497621216289 0.47143188746093784 -0.8794184542110257
vn 0.06614497621216289 -0.47143188746093784 0.8794184542110257
vn 0.05528342518808368 0.8127635167199688 0.5799648340963978
vn 0.06256863224406076 0.729778365682133 0.680814734888591
vn -0.05528342518808368 -0.8127635167199688 -0.5799648340963978
vn -0.06256863224406076 -0.729778365682133 -0.680814734888591
vn -0.07606918878517738 0.22713049752662381 -0.9708888791261714
vn -0.07172068822323871 0.35229453858241827 -0.933137021538523
vn 0.07172068822323871 -0.35229453858241827 0.933137021538523
vn 0.07606918878517738 -0.22713049752662381 0.9708888791261714
vn -0.03851289685282449 0.8128431890092731 -0.581207972121201
vn 0.03851289685282449 -0.8128431890092731 0.581207972121201
vn -0.08004258303831192 -0.2902037475049098 -0.9536115403216666
vn 0.08004258303831192 0.2902037475049098 0.9536115403216666
vn -0.07911614523957969 0.09807961273026918 -0.992028742088207
vn 0.07911614523957969 -0.09807961273026918 0.992028742088207
vn -0.8629817372393226 -0.4978068355315922 0.08631845509173178
vn 0.8629817372393226 0.4978068355315922 -0.08631845509173178
vn -0.07759564433239656 -0.41262225288042104 -0.907591203355633
vn 0.07759564433239656 0.41262225288042104 0.907591203355633
vn -0.08111998298326963 -0.16281921085858772 -0.9833155408800273
vn 0.08111998298326963 0.16281921085858772 0.9833155408800273
usemtl material_0_0
f 1//1 2//1 3//1
f 2//1 1//1 4//1
f 3//2 2//2 1//2
f 4//2 1//2 2//2
f 5//3 3//3 2//3
f 2//4 3//4 5//4
f 6//5 1//5 3//5
f 3//6 1//6 6//6
f 7//5 3//5 1//5
f 1//6 3//6 7//6
f 8//3 1//3 4//3
f 4//4 1//4 8//4
f 8//5 2//5 4//5
f 4//6 2//6 8//6
f 9//3 3//3 5//3
f 5//4 3//4 9//4
f 2//5 8//5 5//5
f 5//6 8//6 2//6
f 6//5 10//5 1//5
f 1//6 10//6 6//6
f 6//5 3//5 11//5
f 11//6 3//6 6//6
f 3//5 7//5 11//5
f 11//6 7//6 3//6
f 12//5 7//5 1//5
f 1//6 7//6 12//6
f 1//3 13//3 7//3
f 7//4 13//4 1//4
f 14//3 1//3 8//3
f 8//4 1//4 14//4
f 15//3 3//3 9//3
f 9//4 3//4 15//4
f 9//3 5//3 16//3
f 16//4 5//4 9//4
f 17//1 5//1 8//1
f 8//2 5//2 17//2
f 6//5 18//5 10//5
f 10//6 18//6 6//6
f 1//5 10//5 12//5
f 12//6 10//6 1//6
f 3//3 19//3 11//3
f 11//4 19//4 3//4
f 11//5 20//5 6//5
f 6//6 20//6 11//6
f 7//5 20//5 11//5
f 11//6 20//6 7//6
f 19//2 7//2 11//2
f 11//1 7//1 19//1
f 12//5 20//5 7//5
f 7//6 20//6 12//6
f 13//3 1//3 21//3
f 21//4 1//4 13//4
f 7//2 19//2 13//2
f 13//1 19//1 7//1
f 22//3 1//3 14//3
f 14//4 1//4 22//4
f 14//3 8//3 23//3
f 23//4 8//4 14//4
f 24//3 3//3 15//3
f 15//4 3//4 24//4
f 14//7 15//2 9//7
f 9//8 15//1 14//8
f 25//3 16//3 5//3
f 5//4 16//4 25//4
f 16//9 14//7 9//7
f 9//8 14//8 16//10
f 5//1 17//1 25//1
f 25//2 17//2 5//2
f 17//3 23//3 8//3
f 8//4 23//4 17//4
f 26//5 18//5 6//5
f 6//6 18//6 26//6
f 18//1 27//1 10//1
f 10//2 27//2 18//2
f 28//5 10//5 18//5
f 18//6 10//6 28//6
f 29//4 10//4 12//4
f 12//3 10//3 29//3
f 10//5 28//5 12//5
f 12//6 28//6 10//6
f 19//3 3//3 30//3
f 30//4 3//4 19//4
f 20//3 31//3 6//3
f 6//4 31//4 20//4
f 28//5 20//5 12//5
f 12//6 20//6 28//6
f 21//3 1//3 32//3
f 32//4 1//4 21//4
f 13//5 30//5 21//5
f 21//6 30//6 13//6
f 30//5 13//5 19//5
f 19//6 13//6 30//6
f 33//3 1//3 22//3
f 22//4 1//4 33//4
f 15//2 14//7 22//2
f 22//1 14//8 15//1
f 14//7 16//9 23//9
f 23//10 16//10 14//8
f 34//3 3//3 24//3
f 24//4 3//4 34//4
f 33//11 15//2 24//11
f 24//12 15//1 33//12
f 16//3 25//3 35//3
f 35//4 25//4 16//4
f 17//13 36//14 25//13
f 25//15 36//16 17//15
f 23//3 17//3 37//3
f 37//4 17//4 23//4
f 18//5 26//5 38//5
f 38//6 26//6 18//6
f 39//1 26//1 6//1
f 6//2 26//2 39//2
f 27//1 18//1 40//1
f 40//2 18//2 27//2
f 10//4 41//4 27//4
f 27//3 41//3 10//3
f 38//5 28//5 18//5
f 18//6 28//6 38//6
f 18//3 42//3 28//3
f 28//4 42//4 18//4
f 10//4 29//4 43//4
f 43//3 29//3 10//3
f 29//2 28//2 12//2
f 12//1 28//1 29//1
f 30//3 3//3 44//3
f 44//4 3//4 30//4
f 20//3 45//3 31//3
f 31//4 45//4 20//4
f 6//3 31//3 46//3
f 46//4 31//4 6//4
f 28//5 38//5 20//5
f 20//6 38//6 28//6
f 32//3 1//3 47//3
f 47//4 1//4 32//4
f 30//2 32//2 21//2
f 21//1 32//1 30//1
f 47//3 1//3 33//3
f 33//4 1//4 47//4
f 15//2 33//11 22//2
f 22//1 33//12 15//1
f 23//9 35//14 16//9
f 16//10 35//16 23//10
f 44//3 3//3 34//3
f 34//4 3//4 44//4
f 47//17 24//11 34//17
f 34//18 24//12 47//18
f 24//11 47//17 33//11
f 33//12 47//18 24//12
f 35//3 25//3 36//3
f 36//4 25//4 35//4
f 36//14 17//13 48//14
f 48//16 17//15 36//16
f 37//3 17//3 48//3
f 48//4 17//4 37//4
f 35//14 23//9 37//14
f 37//16 23//10 35//16
f 49//4 38//4 26//4
f 26//3 38//3 49//3
f 26//1 39//1 50//1
f 50//2 39//2 26//2
f 6//3 46//3 39//3
f 39//4 46//4 6//4
f 51//3 18//3 40//3
f 40//4 18//4 51//4
f 51//5 27//5 40//5
f 40//6 27//6 51//6
f 10//4 52//4 41//4
f 41//3 52//3 10//3
f 27//5 51//5 41//5
f 41//6 51//6 27//6
f 42//3 18//3 53//3
f 53//4 18//4 42//4
f 28//2 29//2 42//2
f 42//1 29//1 28//1
f 43//5 42//5 29//5
f 29//6 42//6 43//6
f 10//4 43//4 54//4
f 54//3 43//3 10//3
f 32//2 30//2 44//2
f 44//1 30//1 32//1
f 45//3 20//3 55//3
f 55//4 20//4 45//4
f 56//2 31//2 45//2
f 45//1 31//1 56//1
f 57//5 46//5 31//5
f 31//6 46//6 57//6
f 38//2 55//2 20//2
f 20//1 55//1 38//1
f 58//3 32//3 47//3
f 47//4 32//4 58//4
f 59//3 44//3 34//3
f 34//4 44//4 59//4
f 34//17 58//14 47//17
f 47//18 58//16 34//18
f 35//3 36//3 60//3
f 60//4 36//4 35//4
f 61//19 36//14 48//14
f 48//16 36//16 61//20
f 37//3 48//3 62//3
f 62//4 48//4 37//4
f 62//19 35//14 37//14
f 37//16 35//16 62//20
f 38//4 49//4 63//4
f 63//3 49//3 38//3
f 49//4 26//4 64//4
f 64//3 26//3 49//3
f 65//5 50//5 39//5
f 39//6 50//6 65//6
f 66//4 26//4 50//4
f 50//3 26//3 66//3
f 39//3 46//3 67//3
f 67//4 46//4 39//4
f 68//3 18//3 51//3
f 51//4 18//4 68//4
f 10//4 69//4 52//4
f 52//3 69//3 10//3
f 41//4 52//4 70//4
f 70//3 52//3 41//3
f 51//1 71//1 41//1
f 41//2 71//2 51//2
f 53//3 18//3 72//3
f 72//4 18//4 53//4
f 42//5 43//5 53//5
f 53//6 43//6 42//6
f 54//2 53//2 43//2
f 43//1 53//1 54//1
f 10//4 54//4 73//4
f 73//3 54//3 10//3
f 44//21 74//22 32//21
f 32//23 74//24 44//23
f 56//5 45//5 55//5
f 55//6 45//6 56//6
f 31//2 56//2 57//2
f 57//1 56//1 31//1
f 46//5 57//5 75//5
f 75//6 57//6 46//6
f 55//2 38//2 63//2
f 63//1 38//1 55//1
f 76//3 32//3 58//3
f 58//4 32//4 76//4
f 77//3 44//3 59//3
f 59//4 44//4 77//4
f 58//14 34//17 59//14
f 59//16 34//18 58//16
f 60//3 36//3 78//3
f 78//4 36//4 60//4
f 35//14 62//19 60//19
f 60//20 62//20 35//16
f 36//14 61//19 79//19
f 79//20 61//20 36//16
f 80//3 48//3 61//3
f 61//4 48//4 80//4
f 62//3 48//3 80//3
f 80//4 48//4 62//4
f 81//4 63//4 49//4
f 49//3 63//3 81//3
f 64//4 26//4 66//4
f 66//3 26//3 64//3
f 82//5 49//5 64//5
f 64//6 49//6 82//6
f 83//5 50//5 65//5
f 65//6 50//6 83//6
f 65//5 39//5 67//5
f 67//6 39//6 65//6
f 66//5 50//5 84//5
f 84//6 50//6 66//6
f 46//1 85//1 67//1
f 67//2 85//2 46//2
f 86//3 18//3 68//3
f 68//4 18//4 86//4
f 68//3 51//3 87//3
f 87//4 51//4 68//4
f 10//4 88//4 69//4
f 69//3 88//3 10//3
f 68//7 69//2 52//7
f 52//8 69//1 68//8
f 87//9 52//7 70//9
f 70//10 52//8 87//10
f 70//4 71//4 41//4
f 41//3 71//3 70//3
f 71//1 51//1 89//1
f 89//2 51//2 71//2
f 72//3 18//3 90//3
f 90//4 18//4 72//4
f 53//2 54//2 72//2
f 72//1 54//1 53//1
f 54//4 91//4 73//4
f 73//3 91//3 54//3
f 10//4 73//4 88//4
f 88//3 73//3 10//3
f 74//22 44//21 92//22
f 92//24 44//23 74//24
f 76//3 74//3 32//3
f 32//4 74//4 76//4
f 55//5 93//5 56//5
f 56//6 93//6 55//6
f 85//3 57//3 56//3
f 56//4 57//4 85//4
f 57//3 85//3 75//3
f 75//4 85//4 57//4
f 85//1 46//1 75//1
f 75//2 46//2 85//2
f 63//5 93//5 55//5
f 55//6 93//6 63//6
f 76//9 59//14 58//14
f 58//16 59//16 76//10
f 77//3 92//3 44//3
f 44//4 92//4 77//4
f 59//14 76//9 77//9
f 77//10 76//10 59//16
f 78//3 36//3 79//3
f 79//4 36//4 78//4
f 60//19 80//25 78//26
f 78//27 80//28 60//20
f 80//25 60//19 62//19
f 62//20 60//20 80//28
f 94//29 79//19 61//19
f 61//20 79//20 94//30
f 80//3 61//3 95//3
f 95//4 61//4 80//4
f 81//5 96//5 63//5
f 63//6 96//6 81//6
f 97//2 81//2 49//2
f 49//1 81//1 97//1
f 66//1 82//1 64//1
f 64//2 82//2 66//2
f 49//5 82//5 97//5
f 97//6 82//6 49//6
f 50//5 83//5 84//5
f 84//6 83//6 50//6
f 98//1 83//1 65//1
f 65//2 83//2 98//2
f 65//5 67//5 85//5
f 85//6 67//6 65//6
f 82//1 66//1 84//1
f 84//2 66//2 82//2
f 99//3 18//3 86//3
f 86//4 18//4 99//4
f 69//2 68//7 86//2
f 86//1 68//8 69//1
f 89//3 87//3 51//3
f 51//4 87//4 89//4
f 52//7 87//9 68//7
f 68//8 87//10 52//8
f 99//11 69//2 88//11
f 88//12 69//1 99//12
f 100//14 70//9 87//9
f 87//10 70//10 100//16
f 71//4 70//4 101//4
f 101//3 70//3 71//3
f 102//14 71//13 89//13
f 89//15 71//15 102//16
f 90//3 18//3 99//3
f 99//4 18//4 90//4
f 103//3 72//3 90//3
f 90//4 72//4 103//4
f 54//21 104//22 72//21
f 72//23 104//24 54//23
f 54//4 105//4 91//4
f 91//3 105//3 54//3
f 103//14 73//17 91//14
f 91//16 73//18 103//16
f 90//17 88//11 73//17
f 73//18 88//12 90//18
f 92//22 106//10 74//22
f 74//24 106//9 92//24
f 107//3 74//3 76//3
f 76//4 74//4 107//4
f 56//5 93//5 85//5
f 85//6 93//6 56//6
f 63//5 96//5 93//5
f 93//6 96//6 63//6
f 108//3 92//3 77//3
f 77//4 92//4 108//4
f 107//31 77//9 76//9
f 76//10 77//10 107//32
f 78//3 79//3 109//3
f 109//4 79//4 78//4
f 78//26 80//25 109//25
f 109//28 80//28 78//27
f 79//19 94//29 110//29
f 110//30 94//30 79//20
f 95//3 61//3 94//3
f 94//4 61//4 95//4
f 95//33 109//25 80//25
f 80//28 109//28 95//34
f 96//5 81//5 111//5
f 111//6 81//6 96//6
f 81//2 97//2 111//2
f 111//1 97//1 81//1
f 82//4 111//4 97//4
f 97//3 111//3 82//3
f 112//4 84//4 83//4
f 83//3 84//3 112//3
f 113//1 83//1 98//1
f 98//2 83//2 113//2
f 93//35 98//35 65//35
f 65//36 98//36 93//36
f 65//5 85//5 93//5
f 93//6 85//6 65//6
f 84//4 111//4 82//4
f 82//3 111//3 84//3
f 69//2 99//11 86//2
f 86//1 99//12 69//1
f 87//3 89//3 100//3
f 100//4 89//4 87//4
f 88//11 90//17 99//11
f 99//12 90//18 88//12
f 70//9 100//14 101//14
f 101//16 100//16 70//10
f 71//4 101//4 114//4
f 114//3 101//3 71//3
f 71//13 102//14 114//14
f 114//16 102//16 71//15
f 100//3 89//3 102//3
f 102//4 89//4 100//4
f 115//3 72//3 103//3
f 103//4 72//4 115//4
f 73//17 103//14 90//17
f 90//18 103//16 73//18
f 104//22 54//21 116//22
f 116//24 54//23 104//24
f 115//3 104//3 72//3
f 72//4 104//4 115//4
f 116//4 105//4 54//4
f 54//3 105//3 116//3
f 103//14 105//9 91//14
f 91//16 105//10 103//16
f 106//10 92//22 117//10
f 117//9 92//24 106//9
f 118//3 106//3 74//3
f 74//4 106//4 118//4
f 118//3 74//3 107//3
f 107//4 74//4 118//4
f 96//2 119//2 93//2
f 93//1 119//1 96//1
f 120//3 92//3 108//3
f 108//4 92//4 120//4
f 77//9 107//31 108//37
f 108//38 107//32 77//10
f 109//3 79//3 121//3
f 121//4 79//4 109//4
f 94//29 122//6 110//29
f 110//30 122//5 94//30
f 121//3 79//3 110//3
f 110//4 79//4 121//4
f 95//3 94//3 123//3
f 123//4 94//4 95//4
f 109//25 95//33 121//33
f 121//34 95//34 109//28
f 111//4 124//4 96//4
f 96//3 124//3 111//3
f 112//4 111//4 84//4
f 84//3 111//3 112//3
f 83//1 113//1 112//1
f 112//2 113//2 83//2
f 125//1 113//1 98//1
f 98//2 113//2 125//2
f 98//35 93//35 119//35
f 119//36 93//36 98//36
f 100//14 126//19 101//14
f 101//16 126//20 100//16
f 114//4 101//4 126//4
f 126//3 101//3 114//3
f 102//14 127//19 114//14
f 114//16 127//20 102//16
f 100//3 102//3 128//3
f 128//4 102//4 100//4
f 105//9 103//14 115//9
f 115//10 103//16 105//10
f 129//10 104//22 116//22
f 116//24 104//24 129//9
f 130//3 104//3 115//3
f 115//4 104//4 130//4
f 116//4 131//4 105//4
f 105//3 131//3 116//3
f 132//3 117//3 92//3
f 92//4 117//4 132//4
f 117//10 133//38 106//10
f 106//9 133//37 117//9
f 118//3 133//3 106//3
f 106//4 133//4 118//4
f 118//39 120//31 107//31
f 107//32 120//32 118//40
f 96//2 134//2 119//2
f 119//1 134//1 96//1
f 132//3 92//3 120//3
f 120//4 92//4 132//4
f 108//37 107//31 120//31
f 120//32 107//32 108//38
f 122//6 94//29 135//6
f 135//5 94//30 122//5
f 136//3 110//3 122//3
f 122//4 110//4 136//4
f 121//3 110//3 136//3
f 136//4 110//4 121//4
f 123//3 94//3 135//3
f 135//4 94//4 123//4
f 136//6 95//6 123//6
f 123//5 95//5 136//5
f 95//6 136//6 121//6
f 121//5 136//5 95//5
f 124//4 111//4 112//4
f 112//3 111//3 124//3
f 134//2 96//2 124//2
f 124//1 96//1 134//1
f 113//6 124//6 112//6
f 112//5 124//5 113//5
f 113//1 125//1 137//1
f 137//2 125//2 113//2
f 119//3 125//3 98//3
f 98//4 125//4 119//4
f 126//19 100//14 128//19
f 128//20 100//16 126//20
f 114//4 126//4 138//4
f 138//3 126//3 114//3
f 127//19 102//14 139//19
f 139//20 102//16 127//20
f 114//4 138//4 127//4
f 127//3 138//3 114//3
f 128//3 102//3 140//3
f 140//4 102//4 128//4
f 115//9 131//37 105//9
f 105//10 131//38 115//10
f 104//22 129//10 141//10
f 141//9 129//9 104//24
f 129//4 142//4 116//4
f 116//3 142//3 129//3
f 143//3 104//3 130//3
f 130//4 104//4 143//4
f 131//37 115//9 130//31
f 130//32 115//10 131//38
f 116//4 144//4 131//4
f 131//3 144//3 116//3
f 132//3 145//3 117//3
f 117//4 145//4 132//4
f 133//38 117//10 145//38
f 145//37 117//9 133//37
f 146//3 133//3 118//3
f 118//4 133//4 146//4
f 120//31 118//39 132//39
f 132//40 118//40 120//32
f 134//2 147//2 119//2
f 119//1 147//1 134//1
f 123//1 122//1 135//1
f 135//2 122//2 123//2
f 122//1 123//1 136//1
f 136//2 123//2 122//2
f 124//6 113//6 134//6
f 134//5 113//5 124//5
f 125//6 148//6 137//6
f 137//5 148//5 125//5
f 148//4 113//4 137//4
f 137//3 113//3 148//3
f 125//3 119//3 147//3
f 147//4 119//4 125//4
f 128//19 138//26 126//19
f 126//20 138//27 128//20
f 140//3 102//3 139//3
f 139//4 102//4 140//4
f 139//19 149//29 127//19
f 127//20 149//30 139//20
f 127//4 138//4 150//4
f 150//3 138//3 127//3
f 138//26 128//19 140//25
f 140//28 128//20 138//27
f 151//38 141//10 129//10
f 129//9 141//9 151//37
f 143//3 141//3 104//3
f 104//4 141//4 143//4
f 151//4 142//4 129//4
f 129//3 142//3 151//3
f 116//4 142//4 144//4
f 144//3 142//3 116//3
f 142//39 130//31 143//39
f 143//40 130//32 142//40
f 131//37 130//31 144//31
f 144//32 130//32 131//38
f 152//3 145//3 132//3
f 132//4 145//4 152//4
f 133//5 153//5 145//5
f 145//6 153//6 133//6
f 133//3 146//3 154//3
f 154//4 146//4 133//4
f 146//5 132//5 118//5
f 118//6 132//6 146//6
f 147//2 134//2 148//2
f 148//1 134//1 147//1
f 113//4 148//4 134//4
f 134//3 148//3 113//3
f 148//6 125//6 147//6
f 147//5 125//5 148//5
f 140//3 139//3 155//3
f 155//4 139//4 140//4
f 149//29 139//19 156//29
f 156//30 139//20 149//30
f 127//4 157//4 149//4
f 149//3 157//3 127//3
f 138//26 140//25 150//25
f 150//28 140//28 138//27
f 127//4 150//4 157//4
f 157//3 150//3 127//3
f 141//10 151//38 158//38
f 158//37 151//37 141//9
f 143//3 158//3 141//3
f 141//4 158//4 143//4
f 151//4 159//4 142//4
f 142//3 159//3 151//3
f 130//31 142//39 144//31
f 144//32 142//40 130//32
f 143//5 159//5 142//5
f 142//6 159//6 143//6
f 145//3 152//3 153//3
f 153//4 152//4 145//4
f 132//5 146//5 152//5
f 152//6 146//6 132//6
f 153//5 133//5 154//5
f 154//6 133//6 153//6
f 146//1 153//1 154//1
f 154//2 153//2 146//2
f 155//3 139//3 156//3
f 156//4 139//4 155//4
f 157//33 140//25 155//33
f 155//34 140//28 157//34
f 156//29 160//6 149//29
f 149//30 160//5 156//30
f 149//4 157//4 161//4
f 161//3 157//3 149//3
f 140//25 157//33 150//25
f 150//28 157//34 140//28
f 158//5 162//5 151//5
f 151//6 162//6 158//6
f 163//3 158//3 143//3
f 143//4 158//4 163//4
f 159//4 151//4 162//4
f 162//3 151//3 159//3
f 159//5 143//5 163//5
f 163//6 143//6 159//6
f 153//1 146//1 152//1
f 152//2 146//2 153//2
f 155//3 156//3 164//3
f 164//4 156//4 155//4
f 155//6 161//6 157//6
f 157//5 161//5 155//5
f 160//6 156//29 165//6
f 165//5 156//30 160//5
f 149//4 161//4 160//4
f 160//3 161//3 149//3
f 162//5 158//5 166//5
f 166//6 158//6 162//6
f 158//3 163//3 166//3
f 166//4 163//4 158//4
f 166//1 159//1 162//1
f 162//2 159//2 166//2
f 159//1 166//1 163//1
f 163//2 166//2 159//2
f 164//3 156//3 165//3
f 165//4 156//4 164//4
f 161//6 155//6 164//6
f 164//5 155//5 161//5
f 161//2 165//2 160//2
f 160//1 165//1 161//1
f 165//2 161//2 164//2
f 164//1 161//1 165//1
