# SSTK version 0.8.0
# 8
mtllib original-8.mtl
o #ID71
v -0.074261 0.554608 0.070388
v 0.061664 0.554608 0.055285
v -0.059158 0.554608 0.055285
v 0.076768 0.554608 0.070388
v -0.059158 0.554608 -0.065537
v -0.074261 0.554608 -0.080640
v 0.061664 0.554608 -0.065537
v 0.076767 0.554608 -0.080640
vt 0.5004703 0.2272112
vt 0.483071 0.3838045
vt 0.483071 0.2446104
vt 0.5004703 0.4012039
vt 0.3438767 0.2446104
vt 0.3264775 0.2272112
vt 0.3438767 0.3838045
vt 0.3264774 0.4012037
vn 0 1 0
usemtl material_0_0
f 1/1/1 2/2/1 3/3/1
f 2/2/1 1/1/1 4/4/1
f 1/1/1 5/5/1 6/6/1
f 5/5/1 1/1/1 3/3/1
f 7/7/1 4/4/1 8/8/1
f 4/4/1 7/7/1 2/2/1
f 6/6/1 7/7/1 8/8/1
f 7/7/1 6/6/1 5/5/1
