# SSTK version 0.8.0
# 7
mtllib original-7.mtl
o #ID63
v 0.214840 0.375195 0.293894
v -0.212334 0.375195 0.293894
v 0.214839 -0.581672 0.293894
v 0.214840 0.375195 0.293894
v 0.214839 -0.581672 0.293894
v 0.214839 -0.581672 -0.005126
v -0.074261 0.375195 0.070388
v 0.214840 0.375195 0.293894
v 0.076767 0.375195 0.070388
v -0.212334 0.375195 0.293894
v 0.214839 -0.581672 0.293894
v -0.212334 0.375195 0.293894
v 0.001253 -0.581672 0.293894
v 0.001253 -0.581672 0.293894
v 0.214839 -0.581672 -0.005126
v 0.214839 -0.581672 0.293894
v 0.214840 0.375195 0.293894
v 0.214839 -0.581672 -0.005126
v 0.214840 0.375195 -0.304148
v 0.076767 0.375195 -0.080640
v 0.214840 0.375195 -0.304148
v 0.076767 0.375195 0.070388
v -0.074261 0.554608 0.070388
v -0.074261 0.375195 0.070388
v 0.076768 0.554608 0.070388
v -0.074261 0.375195 -0.080640
v -0.212334 0.375195 -0.304148
v 0.001253 -0.581672 0.293894
v -0.212334 0.375195 0.293894
v -0.212334 -0.581672 0.293894
v 0.001253 -0.560314 -0.005126
v 0.214840 0.375195 -0.304148
v 0.214839 -0.581672 -0.005126
v 0.214839 -0.581672 -0.304148
v 0.076767 0.554608 -0.080640
v 0.076767 0.375195 0.070388
v 0.076767 0.375195 -0.080640
v 0.076768 0.554608 0.070388
v -0.074261 0.554608 0.070388
v -0.074261 0.375195 -0.080640
v -0.074261 0.375195 0.070388
v -0.074261 0.554608 -0.080640
v -0.212334 0.375195 -0.304148
v -0.212334 -0.581672 0.293894
v -0.212334 0.375195 0.293894
v -0.212334 -0.581672 0.293894
v 0.001253 -0.581672 -0.304148
v 0.214839 -0.581672 -0.304148
v 0.214840 0.375195 -0.304148
v 0.214839 -0.581672 -0.304148
v -0.212334 0.375195 -0.304148
v -0.074261 0.554608 -0.080640
v 0.076767 0.375195 -0.080640
v -0.074261 0.375195 -0.080640
v 0.076767 0.554608 -0.080640
v -0.212334 -0.581672 -0.005126
v -0.212334 -0.581672 -0.304148
v -0.212334 -0.581672 -0.005126
v 0.214839 -0.581672 -0.304148
v 0.001253 -0.581672 -0.304148
v -0.212334 0.375195 -0.304148
v -0.212334 -0.581672 -0.304148
v 0.001253 -0.581672 -0.304148
v -0.212334 -0.581672 -0.304148
v -0.212334 0.375195 -0.304148
vt 0.7542126 1.115083
vt 0.7542126 1.418296
vt 0.1330382 1.115084
vt 0.7543082 719.8903
vt 0.1331338 719.8903
vt 0.1331338 719.678
vt 0.7542427 284.3947
vt 0.6091482 284.1895
vt 0.7542427 284.2875
vt 0.6091482 284.4927
vt 0.1330382 1.26669
vt 64.7374 719.8908
vt 64.87743 719.6797
vt 64.87605 719.8919
vt 0.7543081 719.4658
vt 0.7543141 1.791347
vt 0.9974527 1.889352
vt 0.6092186 1.889353
vt 0.852358 1.791347
vt 0.870713 284.3947
vt 0.8707129 284.2875
vt 0.6646809 1.418296
vt 0.754314 1.684145
vt 0.6646809 1.842794
vt 0.7543139 1.576943
vt 0.1330381 1.418296
vt 64.7381 719.678
vt 0.1331338 719.4658
vt 0.6092182 1.58614
vt 0.8707128 284.1803
vt 0.7542426 284.1803
vt 0.8707842 1.576943
vt 0.8707842 1.684145
vt 0.7542126 1.842794
vt 64.59875 719.8903
vt 64.54714 719.6786
vt 64.54783 719.4658
vt 64.68648 719.678
vt 64.68648 719.4658
vt 0.754259 437.1191
vt 0.1330847 437.1191
vt 0.754259 436.8159
vt 0.8707843 1.791347
vt 0.1330381 1.630544
vt 0.1330381 1.842794
vt 64.59875 719.678
vt 64.40917 719.678
vt 64.54852 719.6786
vt 64.40917 718.7866
vt 64.40917 719.4658
vt 64.40918 718.7866
vn 1.5258789999999785e-7 6.811957999999905e-8 1
vn 1 -2.72478399999964e-7 4.359665999999424e-7
vn 0 1 0
vn 3.05176299999983e-7 1.362392999999924e-7 1
vn -0.01971125906484351 -0.9985691526251257 -0.049710297641606394
vn -0.06031313036577957 -0.9981795060536349 -4.182988025368465e-8
vn 3.051762999999858e-7 -1 0
vn 1 -1.3623919999999872e-7 0
vn 2.1579199999999497e-7 0 1
vn 0 6.811959999999985e-8 1
vn -0.009786782738114019 -0.9998944732436744 0.010735979712714314
vn 1 -0.0000010899139999992511 -4.3158369999970346e-7
vn -1 0.0000014532179999984656 0
vn -1 0 0
vn 0.03942175993679351 -0.9982905983994006 -0.04314864993081804
vn 4.6459437859455816e-7 -0.9996033539448766 0.02816264870245107
vn 3.051757999999858e-7 -1 0
vn -2.28881899999994e-7 0 -1
vn -2.1579209999999497e-7 0 -1
vn 0.07991075836091688 -0.9965693795589471 0.021534679558293145
vn -3.0517579999998565e-7 -3.40597199999984e-8 -1
vn 6.103522999998863e-7 -1 0
vn -1.5258809999999823e-7 0 -1
usemtl material_0_0
f 1/1/1 2/2/1 3/3/1
f 4/4/2 5/5/2 6/6/2
f 7/7/3 8/8/3 9/9/3
f 8/8/3 7/7/3 10/10/3
f 11/3/4 12/2/4 13/11/4
f 14/12/5 15/13/6 16/14/7
f 17/4/8 18/6/8 19/15/8
f 20/16/3 8/17/3 21/18/3
f 8/17/3 20/16/3 9/19/3
f 22/9/9 23/20/9 24/7/9
f 23/20/9 22/9/9 25/21/9
f 10/22/3 26/23/3 27/24/3
f 26/23/3 10/22/3 7/25/3
f 28/11/10 29/2/10 30/26/10
f 14/12/5 31/27/11 15/13/6
f 32/15/8 33/6/8 34/28/8
f 27/29/3 20/16/3 21/18/3
f 20/16/3 27/29/3 26/23/3
f 35/30/12 36/9/12 37/31/12
f 36/9/12 35/30/12 38/21/12
f 39/32/13 40/23/13 41/25/13
f 40/23/13 39/32/13 42/33/13
f 43/34/14 44/26/14 45/2/14
f 46/35/15 31/27/11 14/12/5
f 31/36/11 47/37/16 15/38/6
f 15/38/6 47/37/16 48/39/17
f 49/40/18 50/41/18 51/42/18
f 52/33/19 53/16/19 54/23/19
f 53/16/19 52/33/19 55/43/19
f 43/34/14 56/44/14 44/26/14
f 56/44/14 43/34/14 57/45/14
f 46/35/15 58/46/20 31/27/11
f 58/47/20 47/37/16 31/48/11
f 59/39/21 60/37/21 61/49/21
f 58/47/20 62/50/22 47/37/16
f 63/37/23 64/50/23 65/51/23
