# SSTK version 0.8.0
# 2
mtllib original-2.mtl
o #ID31
v -0.037946 0.008629 0.901181
v 0.354666 0.033410 0.901181
v 0.354645 0.008294 0.901181
v -0.037925 0.033470 0.901181
v -0.037925 0.033470 0.901181
v -0.037946 0.008629 0.901181
v 0.354666 0.033410 0.901181
v 0.354645 0.008294 0.901181
v 0.354666 0.033410 0.903665
v -0.037925 0.033470 0.901181
v -0.037925 0.033470 0.903665
v 0.354666 0.033410 0.901181
v 0.354666 0.033410 0.901181
v 0.354666 0.033410 0.903665
v -0.037925 0.033470 0.901181
v -0.037925 0.033470 0.903665
vn 0 0 -1
vn 0.00015141559826427123 0.9999999885366583 0
vn 0 0 1
vn -0.00015141559826427123 -0.9999999885366583 0
usemtl material_0_0
f 1//1 2//1 3//1
f 2//1 1//1 4//1
f 9//2 10//2 11//2
f 10//2 9//2 12//2
usemtl material_1_0
f 5//3 6//3 7//3
f 8//3 7//3 6//3
f 13//4 14//4 15//4
f 16//4 15//4 14//4
