# SSTK version 0.8.0
# 12
mtllib original-12.mtl
o #ID5
v -0.368600 -0.088335 -0.843096
v 0.290076 -0.063495 -0.184419
v 0.290076 -0.088335 -0.184419
v -0.368600 -0.063495 -0.843096
v -0.632070 -0.088335 -0.579625
v 0.026606 -0.088335 0.079051
v -0.105129 -0.088335 -0.052684
v 0.065190 -0.088335 0.108658
v 0.018697 -0.088335 0.027939
v -0.368600 -0.088335 -0.843096
v 0.044322 -0.088335 0.061335
v 0.110123 -0.088335 0.127270
v 0.002588 -0.088335 -0.010950
v -0.002906 -0.088335 -0.052684
v 0.002588 -0.088335 -0.094418
v 0.018697 -0.088335 -0.133308
v 0.044322 -0.088335 -0.166703
v 0.077718 -0.088335 -0.192328
v 0.116607 -0.088335 -0.208437
v 0.158341 -0.088335 -0.213931
v 0.200075 -0.088335 -0.208437
v 0.238965 -0.088335 -0.192328
v 0.272360 -0.088335 -0.166703
v 0.338295 -0.088335 -0.100903
v 0.319683 -0.088335 -0.145835
v 0.290076 -0.088335 -0.184419
v 0.077718 -0.088335 0.086960
v 0.158341 -0.088335 0.133618
v 0.116607 -0.088335 0.103069
v 0.158341 -0.088335 0.108563
v 0.206560 -0.088335 0.127270
v 0.200075 -0.088335 0.103069
v 0.251492 -0.088335 0.108658
v 0.238965 -0.088335 0.086960
v 0.290076 -0.088335 0.079051
v 0.272360 -0.088335 0.061335
v 0.297985 -0.088335 0.027939
v 0.319683 -0.088335 0.040467
v 0.314094 -0.088335 -0.010950
v 0.338295 -0.088335 -0.004466
v 0.319588 -0.088335 -0.052684
v 0.344643 -0.088335 -0.052684
v 0.314094 -0.088335 -0.094418
v 0.297985 -0.088335 -0.133308
v -0.386154 -0.088115 -0.860650
v -0.368600 -0.063495 -0.843096
v -0.368600 -0.088335 -0.843096
v -0.381582 -0.064143 -0.856078
v -0.394147 -0.059479 -0.868643
v -0.402962 -0.080948 -0.877458
v -0.405231 -0.049896 -0.879726
v -0.417677 -0.067408 -0.892173
v -0.413894 -0.036207 -0.888390
v -0.419404 -0.019570 -0.893899
v -0.429120 -0.048580 -0.903616
v -0.421294 -0.001394 -0.895790
v -0.381582 0.061355 -0.856078
v -0.368600 0.085547 -0.843096
v -0.368600 0.060706 -0.843096
v -0.386154 0.085327 -0.860650
v -0.394147 0.056690 -0.868643
v -0.402962 0.078160 -0.877458
v -0.405231 0.047108 -0.879726
v -0.417677 0.064620 -0.892173
v -0.413894 0.033419 -0.888390
v -0.419404 0.016782 -0.893899
v -0.429120 0.045791 -0.903616
v -0.436374 -0.025971 -0.910870
v -0.436374 0.023183 -0.910870
v -0.438859 -0.001394 -0.913354
v 0.110123 -0.063495 0.127270
v 0.077718 -0.063495 0.086960
v 0.044322 -0.063495 0.061335
v 0.158341 -0.063495 0.133618
v 0.116607 -0.063495 0.103069
v 0.158341 -0.063495 0.108563
v 0.206560 -0.063495 0.127270
v 0.200075 -0.063495 0.103069
v 0.251492 -0.063495 0.108658
v 0.238965 -0.063495 0.086960
v 0.290076 -0.063495 0.079051
v 0.272360 -0.063495 0.061335
v 0.319683 -0.063495 0.040467
v 0.297985 -0.063495 0.027939
v 0.314094 -0.063495 -0.010950
v 0.338295 -0.063495 -0.004466
v 0.319588 -0.063495 -0.052684
v 0.344643 -0.063495 -0.052684
v 0.314094 -0.063495 -0.094418
v 0.338295 -0.063495 -0.100903
v 0.297985 -0.063495 -0.133308
v 0.272360 -0.063495 -0.166703
v 0.065190 -0.063495 0.108658
v -0.105129 -0.063495 -0.052684
v 0.026606 -0.063495 0.079051
v -0.632070 -0.063495 -0.579625
v 0.018697 -0.063495 0.027939
v -0.368600 -0.063495 -0.843096
v 0.002588 -0.063495 -0.010950
v -0.002906 -0.063495 -0.052684
v 0.002588 -0.063495 -0.094418
v 0.018697 -0.063495 -0.133308
v 0.044322 -0.063495 -0.166703
v 0.077718 -0.063495 -0.192328
v 0.116607 -0.063495 -0.208437
v 0.158341 -0.063495 -0.213931
v 0.200075 -0.063495 -0.208437
v 0.238965 -0.063495 -0.192328
v 0.319683 -0.063495 -0.145835
v 0.290076 -0.063495 -0.184419
v 0.290076 -0.088335 -0.184419
v 0.319683 -0.063495 -0.145835
v 0.319683 -0.088335 -0.145835
v 0.290076 -0.063495 -0.184419
v 0.319683 -0.088335 -0.145835
v 0.338295 -0.063495 -0.100903
v 0.338295 -0.088335 -0.100903
v 0.319683 -0.063495 -0.145835
v 0.338295 -0.088335 -0.100903
v 0.344643 -0.063495 -0.052684
v 0.344643 -0.088335 -0.052684
v 0.338295 -0.063495 -0.100903
v 0.344643 -0.063495 -0.052684
v 0.338295 -0.088335 -0.004466
v 0.344643 -0.088335 -0.052684
v 0.338295 -0.063495 -0.004466
v 0.338295 -0.063495 -0.004466
v 0.319683 -0.088335 0.040467
v 0.338295 -0.088335 -0.004466
v 0.319683 -0.063495 0.040467
v 0.319683 -0.063495 0.040467
v 0.290076 -0.088335 0.079051
v 0.319683 -0.088335 0.040467
v 0.290076 -0.063495 0.079051
v 0.290076 -0.063495 0.079051
v 0.251492 -0.088335 0.108658
v 0.290076 -0.088335 0.079051
v 0.251492 -0.063495 0.108658
v 0.251492 -0.063495 0.108658
v 0.206560 -0.088335 0.127270
v 0.251492 -0.088335 0.108658
v 0.206560 -0.063495 0.127270
v 0.206560 -0.063495 0.127270
v 0.158341 -0.088335 0.133618
v 0.206560 -0.088335 0.127270
v 0.158341 -0.063495 0.133618
v 0.110123 -0.063495 0.127270
v 0.158341 -0.088335 0.133618
v 0.158341 -0.063495 0.133618
v 0.110123 -0.088335 0.127270
v 0.065190 -0.063495 0.108658
v 0.110123 -0.088335 0.127270
v 0.110123 -0.063495 0.127270
v 0.065190 -0.088335 0.108658
v 0.026606 -0.063495 0.079051
v 0.065190 -0.088335 0.108658
v 0.065190 -0.063495 0.108658
v 0.026606 -0.088335 0.079051
v -0.105129 -0.063495 -0.052684
v 0.026606 -0.088335 0.079051
v 0.026606 -0.063495 0.079051
v -0.105129 -0.088335 -0.052684
v -0.632070 0.085547 -0.579625
v -0.105129 0.060706 -0.052684
v -0.105129 0.085547 -0.052684
v -0.632070 0.060706 -0.579625
v -0.649625 0.085327 -0.597180
v -0.645053 0.061355 -0.592608
v -0.657617 0.056690 -0.605172
v -0.666433 0.078160 -0.613988
v -0.668701 0.047108 -0.616256
v -0.681147 0.064620 -0.628702
v -0.677364 0.033419 -0.624919
v -0.682874 0.016782 -0.630429
v -0.692591 0.045791 -0.640145
v -0.684764 -0.001394 -0.632319
v -0.632070 -0.063495 -0.579625
v -0.105129 -0.088335 -0.052684
v -0.105129 -0.063495 -0.052684
v -0.632070 -0.088335 -0.579625
v -0.645053 -0.064143 -0.592608
v -0.649625 -0.088115 -0.597180
v -0.657617 -0.059479 -0.605172
v -0.666433 -0.080948 -0.613988
v -0.668701 -0.049896 -0.616256
v -0.681147 -0.067408 -0.628702
v -0.677364 -0.036207 -0.624919
v -0.682874 -0.019570 -0.630429
v -0.692591 -0.048580 -0.640145
v -0.699844 0.023183 -0.647399
v -0.699844 -0.025971 -0.647399
v -0.702329 -0.001394 -0.649884
v -0.386154 -0.088115 -0.860650
v -0.632070 -0.088335 -0.579625
v -0.649625 -0.088115 -0.597180
v -0.368600 -0.088335 -0.843096
v -0.421294 -0.001394 -0.895790
v -0.682874 -0.019570 -0.630429
v -0.419404 -0.019570 -0.893899
v -0.684764 -0.001394 -0.632319
v -0.419404 -0.019570 -0.893899
v -0.677364 -0.036207 -0.624919
v -0.413894 -0.036207 -0.888390
v -0.682874 -0.019570 -0.630429
v -0.413894 -0.036207 -0.888390
v -0.668701 -0.049896 -0.616256
v -0.405231 -0.049896 -0.879726
v -0.677364 -0.036207 -0.624919
v -0.394147 -0.059479 -0.868643
v -0.668701 -0.049896 -0.616256
v -0.657617 -0.059479 -0.605172
v -0.405231 -0.049896 -0.879726
v -0.381582 -0.064143 -0.856078
v -0.657617 -0.059479 -0.605172
v -0.645053 -0.064143 -0.592608
v -0.394147 -0.059479 -0.868643
v -0.368600 -0.063495 -0.843096
v -0.645053 -0.064143 -0.592608
v -0.632070 -0.063495 -0.579625
v -0.381582 -0.064143 -0.856078
v -0.402962 -0.080948 -0.877458
v -0.649625 -0.088115 -0.597180
v -0.666433 -0.080948 -0.613988
v -0.386154 -0.088115 -0.860650
v -0.417677 -0.067408 -0.892173
v -0.666433 -0.080948 -0.613988
v -0.681147 -0.067408 -0.628702
v -0.402962 -0.080948 -0.877458
v -0.692591 -0.048580 -0.640145
v -0.417677 -0.067408 -0.892173
v -0.681147 -0.067408 -0.628702
v -0.429120 -0.048580 -0.903616
v -0.699844 -0.025971 -0.647399
v -0.429120 -0.048580 -0.903616
v -0.692591 -0.048580 -0.640145
v -0.436374 -0.025971 -0.910870
v -0.702329 -0.001394 -0.649884
v -0.436374 -0.025971 -0.910870
v -0.699844 -0.025971 -0.647399
v -0.438859 -0.001394 -0.913354
v -0.699844 0.023183 -0.647399
v -0.438859 -0.001394 -0.913354
v -0.702329 -0.001394 -0.649884
v -0.436374 0.023183 -0.910870
v -0.692591 0.045791 -0.640145
v -0.436374 0.023183 -0.910870
v -0.699844 0.023183 -0.647399
v -0.429120 0.045791 -0.903616
v -0.692591 0.045791 -0.640145
v -0.417677 0.064620 -0.892173
v -0.429120 0.045791 -0.903616
v -0.681147 0.064620 -0.628702
v -0.402962 0.078160 -0.877458
v -0.681147 0.064620 -0.628702
v -0.666433 0.078160 -0.613988
v -0.417677 0.064620 -0.892173
v -0.386154 0.085327 -0.860650
v -0.666433 0.078160 -0.613988
v -0.649625 0.085327 -0.597180
v -0.402962 0.078160 -0.877458
v -0.368600 0.085547 -0.843096
v -0.649625 0.085327 -0.597180
v -0.632070 0.085547 -0.579625
v -0.386154 0.085327 -0.860650
v -0.368600 0.060706 -0.843096
v 0.290076 0.085547 -0.184419
v 0.290076 0.060706 -0.184419
v -0.368600 0.085547 -0.843096
v -0.381582 0.061355 -0.856078
v -0.632070 0.060706 -0.579625
v -0.645053 0.061355 -0.592608
v -0.368600 0.060706 -0.843096
v -0.394147 0.056690 -0.868643
v -0.645053 0.061355 -0.592608
v -0.657617 0.056690 -0.605172
v -0.381582 0.061355 -0.856078
v -0.405231 0.047108 -0.879726
v -0.657617 0.056690 -0.605172
v -0.668701 0.047108 -0.616256
v -0.394147 0.056690 -0.868643
v -0.405231 0.047108 -0.879726
v -0.677364 0.033419 -0.624919
v -0.413894 0.033419 -0.888390
v -0.668701 0.047108 -0.616256
v -0.413894 0.033419 -0.888390
v -0.682874 0.016782 -0.630429
v -0.419404 0.016782 -0.893899
v -0.677364 0.033419 -0.624919
v -0.419404 0.016782 -0.893899
v -0.684764 -0.001394 -0.632319
v -0.421294 -0.001394 -0.895790
v -0.682874 0.016782 -0.630429
v -0.632070 0.060706 -0.579625
v 0.026606 0.060706 0.079051
v -0.105129 0.060706 -0.052684
v 0.065190 0.060706 0.108658
v 0.018697 0.060706 0.027939
v -0.368600 0.060706 -0.843096
v 0.044322 0.060706 0.061335
v 0.110123 0.060706 0.127270
v 0.002588 0.060706 -0.010950
v -0.002906 0.060706 -0.052684
v 0.002588 0.060706 -0.094418
v 0.018697 0.060706 -0.133308
v 0.044322 0.060706 -0.166703
v 0.077718 0.060706 -0.192328
v 0.116607 0.060706 -0.208437
v 0.158341 0.060706 -0.213931
v 0.200075 0.060706 -0.208437
v 0.238965 0.060706 -0.192328
v 0.272360 0.060706 -0.166703
v 0.338295 0.060706 -0.100903
v 0.319683 0.060706 -0.145835
v 0.290076 0.060706 -0.184419
v 0.077718 0.060706 0.086960
v 0.158341 0.060706 0.133618
v 0.116607 0.060706 0.103069
v 0.158341 0.060706 0.108563
v 0.206560 0.060706 0.127270
v 0.200075 0.060706 0.103069
v 0.251492 0.060706 0.108658
v 0.238965 0.060706 0.086960
v 0.290076 0.060706 0.079051
v 0.272360 0.060706 0.061335
v 0.297985 0.060706 0.027939
v 0.319683 0.060706 0.040467
v 0.314094 0.060706 -0.010950
v 0.338295 0.060706 -0.004466
v 0.319588 0.060706 -0.052684
v 0.344643 0.060706 -0.052684
v 0.314094 0.060706 -0.094418
v 0.297985 0.060706 -0.133308
v -0.105129 0.085547 -0.052684
v 0.026606 0.060706 0.079051
v 0.026606 0.085547 0.079051
v -0.105129 0.060706 -0.052684
v 0.110123 0.085547 0.127270
v 0.077718 0.085547 0.086960
v 0.044322 0.085547 0.061335
v 0.158341 0.085547 0.133618
v 0.116607 0.085547 0.103069
v 0.158341 0.085547 0.108563
v 0.206560 0.085547 0.127270
v 0.200075 0.085547 0.103069
v 0.251492 0.085547 0.108658
v 0.238965 0.085547 0.086960
v 0.290076 0.085547 0.079051
v 0.272360 0.085547 0.061335
v 0.319683 0.085547 0.040467
v 0.297985 0.085547 0.027939
v 0.314094 0.085547 -0.010950
v 0.338295 0.085547 -0.004466
v 0.319588 0.085547 -0.052684
v 0.344643 0.085547 -0.052684
v 0.314094 0.085547 -0.094418
v 0.338295 0.085547 -0.100903
v 0.297985 0.085547 -0.133308
v 0.272360 0.085547 -0.166703
v 0.065190 0.085547 0.108658
v -0.105129 0.085547 -0.052684
v 0.026606 0.085547 0.079051
v -0.632070 0.085547 -0.579625
v 0.018697 0.085547 0.027939
v -0.368600 0.085547 -0.843096
v 0.002588 0.085547 -0.010950
v -0.002906 0.085547 -0.052684
v 0.002588 0.085547 -0.094418
v 0.018697 0.085547 -0.133308
v 0.044322 0.085547 -0.166703
v 0.077718 0.085547 -0.192328
v 0.116607 0.085547 -0.208437
v 0.158341 0.085547 -0.213931
v 0.200075 0.085547 -0.208437
v 0.238965 0.085547 -0.192328
v 0.319683 0.085547 -0.145835
v 0.290076 0.085547 -0.184419
v 0.290076 0.060706 -0.184419
v 0.319683 0.085547 -0.145835
v 0.319683 0.060706 -0.145835
v 0.290076 0.085547 -0.184419
v 0.319683 0.060706 -0.145835
v 0.338295 0.085547 -0.100903
v 0.338295 0.060706 -0.100903
v 0.319683 0.085547 -0.145835
v 0.338295 0.060706 -0.100903
v 0.344643 0.085547 -0.052684
v 0.344643 0.060706 -0.052684
v 0.338295 0.085547 -0.100903
v 0.344643 0.085547 -0.052684
v 0.338295 0.060706 -0.004466
v 0.344643 0.060706 -0.052684
v 0.338295 0.085547 -0.004466
v 0.338295 0.085547 -0.004466
v 0.319683 0.060706 0.040467
v 0.338295 0.060706 -0.004466
v 0.319683 0.085547 0.040467
v 0.319683 0.085547 0.040467
v 0.290076 0.060706 0.079051
v 0.319683 0.060706 0.040467
v 0.290076 0.085547 0.079051
v 0.290076 0.085547 0.079051
v 0.251492 0.060706 0.108658
v 0.290076 0.060706 0.079051
v 0.251492 0.085547 0.108658
v 0.251492 0.085547 0.108658
v 0.206560 0.060706 0.127270
v 0.251492 0.060706 0.108658
v 0.206560 0.085547 0.127270
v 0.206560 0.085547 0.127270
v 0.158341 0.060706 0.133618
v 0.206560 0.060706 0.127270
v 0.158341 0.085547 0.133618
v 0.110123 0.085547 0.127270
v 0.158341 0.060706 0.133618
v 0.158341 0.085547 0.133618
v 0.110123 0.060706 0.127270
v 0.065190 0.085547 0.108658
v 0.110123 0.060706 0.127270
v 0.110123 0.085547 0.127270
v 0.065190 0.060706 0.108658
v 0.026606 0.085547 0.079051
v 0.065190 0.060706 0.108658
v 0.065190 0.085547 0.108658
v 0.026606 0.060706 0.079051
vn 0.7071067811865475 0 -0.7071067811865477
vn 0 -1 0
vn 0.7071067811865225 0 -0.7071067811865727
vn 0 1 0
vn 0.7933533419176387 0 -0.60876142688915
vn 0.9238795258296667 0 -0.38268344849594693
vn 0.9914448615713729 0 -0.13052619071941612
vn 0.9914448615713729 0 0.13052619071941585
vn 0.9238795258296668 0 0.38268344849594665
vn 0.793353341917639 0 0.6087614268891498
vn 0.60876142688915 0 0.7933533419176387
vn 0.38268344849594693 0 0.9238795258296667
vn 0.13052619071941612 0 0.9914448615713729
vn -0.13052619071941585 0 0.9914448615713729
vn -0.38268344849594665 0 0.9238795258296668
vn -0.6087614268891498 0 0.793353341917639
vn -0.7071067811865475 0 0.7071067811865477
vn -0.006263511900483953 -0.9999607676490838 -0.006263511900484116
vn 0.6995828223806234 0.14549140613769151 0.6995828223806232
vn 0.6403484139343762 0.42415541673242574 0.6403484139343761
vn 0.5268950356639129 0.6669057225616286 0.5268950356639128
vn 0.3688289347826867 0.8531883928735421 0.36882893478268675
vn 0.17953370652108097 0.9672307358875673 0.17953370652108108
vn -0.024962819411544677 0.9993766633727512 -0.024962819411544507
vn -0.20412688177159466 -0.9574259408833723 -0.20412688177159477
vn -0.3856378659728675 -0.8381926226445716 -0.3856378659728675
vn -0.5362557592083548 -0.6518124894720428 -0.536255759208355
vn -0.643914699330145 -0.41321631135899983 -0.6439146993301449
vn -0.6999902636936937 -0.14151770725978724 -0.6999902636936934
vn -0.6999902636936937 0.14151770725978763 -0.6999902636936934
vn -0.643914699330145 0.41321631135900017 -0.6439146993301447
vn -0.5362557592083549 0.6518124894720431 -0.5362557592083547
vn -0.38563786597286737 0.8381926226445718 -0.38563786597286714
vn -0.20412688177159455 0.9574259408833725 -0.20412688177159433
vn -0.006263511900483825 0.9999607676490838 -0.006263511900483657
vn -0.02496281941154481 -0.9993766633727512 -0.024962819411544965
vn 0.17953370652108086 -0.9672307358875673 0.17953370652108064
vn 0.3688289347826866 -0.8531883928735423 0.3688289347826863
vn 0.5268950356639129 -0.6669057225616288 0.5268950356639126
vn 0.6403484139343762 -0.42415541673242607 0.6403484139343759
vn 0.6995828223806234 -0.1454914061376919 0.6995828223806232
usemtl material_0_0
f 1//1 2//1 3//1
f 2//1 1//1 4//1
f 5//2 6//2 7//2
f 6//2 5//2 8//2
f 8//2 5//2 9//2
f 9//2 5//2 10//2
f 8//2 9//2 11//2
f 8//2 11//2 12//2
f 9//2 10//2 13//2
f 13//2 10//2 14//2
f 14//2 10//2 15//2
f 15//2 10//2 16//2
f 16//2 10//2 17//2
f 17//2 10//2 18//2
f 18//2 10//2 19//2
f 19//2 10//2 20//2
f 20//2 10//2 21//2
f 21//2 10//2 22//2
f 22//2 10//2 23//2
f 23//2 10//2 24//2
f 24//2 10//2 25//2
f 25//2 10//2 26//2
f 12//2 27//2 28//2
f 27//2 12//2 11//2
f 28//2 27//2 29//2
f 28//2 29//2 30//2
f 28//2 30//2 31//2
f 31//2 30//2 32//2
f 31//2 32//2 33//2
f 33//2 32//2 34//2
f 33//2 34//2 35//2
f 35//2 34//2 36//2
f 35//2 36//2 37//2
f 35//2 37//2 38//2
f 38//2 37//2 39//2
f 38//2 39//2 40//2
f 40//2 39//2 41//2
f 40//2 41//2 42//2
f 42//2 41//2 43//2
f 42//2 43//2 24//2
f 24//2 43//2 44//2
f 24//2 44//2 23//2
f 45//3 46//3 47//3
f 46//3 45//3 48//3
f 48//3 45//3 49//3
f 49//3 45//3 50//3
f 49//3 50//3 51//3
f 51//3 50//3 52//3
f 51//3 52//3 53//3
f 53//3 52//3 54//3
f 54//3 52//3 55//3
f 54//3 55//3 56//3
f 57//3 58//3 59//3
f 58//3 57//3 60//3
f 60//3 57//3 61//3
f 60//3 61//3 62//3
f 62//3 61//3 63//3
f 62//3 63//3 64//3
f 64//3 63//3 65//3
f 64//3 65//3 66//3
f 64//3 66//3 67//3
f 67//3 66//3 56//3
f 67//3 56//3 55//3
f 67//3 55//3 68//3
f 67//3 68//3 69//3
f 69//3 68//3 70//3
f 71//4 72//4 73//4
f 72//4 71//4 74//4
f 72//4 74//4 75//4
f 75//4 74//4 76//4
f 76//4 74//4 77//4
f 76//4 77//4 78//4
f 78//4 77//4 79//4
f 78//4 79//4 80//4
f 80//4 79//4 81//4
f 80//4 81//4 82//4
f 82//4 81//4 83//4
f 82//4 83//4 84//4
f 84//4 83//4 85//4
f 85//4 83//4 86//4
f 85//4 86//4 87//4
f 87//4 86//4 88//4
f 87//4 88//4 89//4
f 89//4 88//4 90//4
f 89//4 90//4 91//4
f 91//4 90//4 92//4
f 93//4 94//4 95//4
f 94//4 93//4 96//4
f 96//4 93//4 97//4
f 96//4 97//4 98//4
f 97//4 93//4 73//4
f 73//4 93//4 71//4
f 98//4 97//4 99//4
f 98//4 99//4 100//4
f 98//4 100//4 101//4
f 98//4 101//4 102//4
f 98//4 102//4 103//4
f 98//4 103//4 104//4
f 98//4 104//4 105//4
f 98//4 105//4 106//4
f 98//4 106//4 107//4
f 98//4 107//4 108//4
f 98//4 108//4 92//4
f 98//4 92//4 90//4
f 98//4 90//4 109//4
f 98//4 109//4 110//4
f 111//5 112//5 113//5
f 112//5 111//5 114//5
f 115//6 116//6 117//6
f 116//6 115//6 118//6
f 119//7 120//7 121//7
f 120//7 119//7 122//7
f 123//8 124//8 125//8
f 124//8 123//8 126//8
f 127//9 128//9 129//9
f 128//9 127//9 130//9
f 131//10 132//10 133//10
f 132//10 131//10 134//10
f 135//11 136//11 137//11
f 136//11 135//11 138//11
f 139//12 140//12 141//12
f 140//12 139//12 142//12
f 143//13 144//13 145//13
f 144//13 143//13 146//13
f 147//14 148//14 149//14
f 148//14 147//14 150//14
f 151//15 152//15 153//15
f 152//15 151//15 154//15
f 155//16 156//16 157//16
f 156//16 155//16 158//16
f 159//17 160//17 161//17
f 160//17 159//17 162//17
f 163//17 164//17 165//17
f 164//17 163//17 166//17
f 166//17 163//17 167//17
f 166//17 167//17 168//17
f 168//17 167//17 169//17
f 169//17 167//17 170//17
f 169//17 170//17 171//17
f 171//17 170//17 172//17
f 171//17 172//17 173//17
f 173//17 172//17 174//17
f 174//17 172//17 175//17
f 174//17 175//17 176//17
f 177//17 178//17 179//17
f 178//17 177//17 180//17
f 180//17 177//17 181//17
f 180//17 181//17 182//17
f 182//17 181//17 183//17
f 182//17 183//17 184//17
f 184//17 183//17 185//17
f 184//17 185//17 186//17
f 186//17 185//17 187//17
f 186//17 187//17 188//17
f 186//17 188//17 189//17
f 189//17 188//17 176//17
f 189//17 176//17 175//17
f 189//17 175//17 190//17
f 189//17 190//17 191//17
f 191//17 190//17 192//17
f 193//18 194//18 195//18
f 194//18 193//18 196//18
f 197//19 198//19 199//19
f 198//19 197//19 200//19
f 201//20 202//20 203//20
f 202//20 201//20 204//20
f 205//21 206//21 207//21
f 206//21 205//21 208//21
f 209//22 210//22 211//22
f 210//22 209//22 212//22
f 213//23 214//23 215//23
f 214//23 213//23 216//23
f 217//24 218//24 219//24
f 218//24 217//24 220//24
f 221//25 222//25 223//25
f 222//25 221//25 224//25
f 225//26 226//26 227//26
f 226//26 225//26 228//26
f 229//27 230//27 231//27
f 230//27 229//27 232//27
f 233//28 234//28 235//28
f 234//28 233//28 236//28
f 237//29 238//29 239//29
f 238//29 237//29 240//29
f 241//30 242//30 243//30
f 242//30 241//30 244//30
f 245//31 246//31 247//31
f 246//31 245//31 248//31
f 249//32 250//32 251//32
f 250//32 249//32 252//32
f 253//33 254//33 255//33
f 254//33 253//33 256//33
f 257//34 258//34 259//34
f 258//34 257//34 260//34
f 261//35 262//35 263//35
f 262//35 261//35 264//35
f 265//1 266//1 267//1
f 266//1 265//1 268//1
f 269//36 270//36 271//36
f 270//36 269//36 272//36
f 273//37 274//37 275//37
f 274//37 273//37 276//37
f 277//38 278//38 279//38
f 278//38 277//38 280//38
f 281//39 282//39 283//39
f 282//39 281//39 284//39
f 285//40 286//40 287//40
f 286//40 285//40 288//40
f 289//41 290//41 291//41
f 290//41 289//41 292//41
f 293//2 294//2 295//2
f 294//2 293//2 296//2
f 296//2 293//2 297//2
f 297//2 293//2 298//2
f 296//2 297//2 299//2
f 296//2 299//2 300//2
f 297//2 298//2 301//2
f 301//2 298//2 302//2
f 302//2 298//2 303//2
f 303//2 298//2 304//2
f 304//2 298//2 305//2
f 305//2 298//2 306//2
f 306//2 298//2 307//2
f 307//2 298//2 308//2
f 308//2 298//2 309//2
f 309//2 298//2 310//2
f 310//2 298//2 311//2
f 311//2 298//2 312//2
f 312//2 298//2 313//2
f 313//2 298//2 314//2
f 300//2 315//2 316//2
f 315//2 300//2 299//2
f 316//2 315//2 317//2
f 316//2 317//2 318//2
f 316//2 318//2 319//2
f 319//2 318//2 320//2
f 319//2 320//2 321//2
f 321//2 320//2 322//2
f 321//2 322//2 323//2
f 323//2 322//2 324//2
f 323//2 324//2 325//2
f 323//2 325//2 326//2
f 326//2 325//2 327//2
f 326//2 327//2 328//2
f 328//2 327//2 329//2
f 328//2 329//2 330//2
f 330//2 329//2 331//2
f 330//2 331//2 312//2
f 312//2 331//2 332//2
f 312//2 332//2 311//2
f 333//17 334//17 335//17
f 334//17 333//17 336//17
f 337//4 338//4 339//4
f 338//4 337//4 340//4
f 338//4 340//4 341//4
f 341//4 340//4 342//4
f 342//4 340//4 343//4
f 342//4 343//4 344//4
f 344//4 343//4 345//4
f 344//4 345//4 346//4
f 346//4 345//4 347//4
f 346//4 347//4 348//4
f 348//4 347//4 349//4
f 348//4 349//4 350//4
f 350//4 349//4 351//4
f 351//4 349//4 352//4
f 351//4 352//4 353//4
f 353//4 352//4 354//4
f 353//4 354//4 355//4
f 355//4 354//4 356//4
f 355//4 356//4 357//4
f 357//4 356//4 358//4
f 359//4 360//4 361//4
f 360//4 359//4 362//4
f 362//4 359//4 363//4
f 362//4 363//4 364//4
f 363//4 359//4 339//4
f 339//4 359//4 337//4
f 364//4 363//4 365//4
f 364//4 365//4 366//4
f 364//4 366//4 367//4
f 364//4 367//4 368//4
f 364//4 368//4 369//4
f 364//4 369//4 370//4
f 364//4 370//4 371//4
f 364//4 371//4 372//4
f 364//4 372//4 373//4
f 364//4 373//4 374//4
f 364//4 374//4 358//4
f 364//4 358//4 356//4
f 364//4 356//4 375//4
f 364//4 375//4 376//4
f 377//5 378//5 379//5
f 378//5 377//5 380//5
f 381//6 382//6 383//6
f 382//6 381//6 384//6
f 385//7 386//7 387//7
f 386//7 385//7 388//7
f 389//8 390//8 391//8
f 390//8 389//8 392//8
f 393//9 394//9 395//9
f 394//9 393//9 396//9
f 397//10 398//10 399//10
f 398//10 397//10 400//10
f 401//11 402//11 403//11
f 402//11 401//11 404//11
f 405//12 406//12 407//12
f 406//12 405//12 408//12
f 409//13 410//13 411//13
f 410//13 409//13 412//13
f 413//14 414//14 415//14
f 414//14 413//14 416//14
f 417//15 418//15 419//15
f 418//15 417//15 420//15
f 421//16 422//16 423//16
f 422//16 421//16 424//16
