# SSTK version 0.8.0
# 3
mtllib original-3.mtl
o #ID39
v 0.084635 0.033439 0.692523
v 0.084635 0.035866 0.742203
v 0.084635 0.033439 0.742203
v 0.084635 0.035866 0.692523
v 0.084635 0.035866 0.742203
v 0.034954 0.033439 0.742203
v 0.084635 0.033439 0.742203
v 0.034954 0.035866 0.742203
v 0.034954 0.035866 0.692523
v 0.084635 0.033439 0.692523
v 0.034954 0.033439 0.692523
v 0.084635 0.035866 0.692523
v 0.034954 0.035866 0.692523
v 0.034954 0.033439 0.742203
v 0.034954 0.035866 0.742203
v 0.034954 0.033439 0.692523
vn 1 0 0
vn 0 0 1
vn 0 0 -1
vn -1 0 0
usemtl material_0_0
f 1//1 2//1 3//1
f 2//1 1//1 4//1
f 5//2 6//2 7//2
f 6//2 5//2 8//2
f 9//3 10//3 11//3
f 10//3 9//3 12//3
f 13//4 14//4 15//4
f 14//4 13//4 16//4
