# SSTK version 0.8.0
# 6
mtllib original-6.mtl
o Group_6_1/Group_6/mesh31/mesh31-geometry#mesh31-geometry
v -0.543180 0.028600 -0.013361
v -0.543893 0.028322 -0.019250
v -0.540668 0.028425 -0.017071
v -0.546503 0.028494 -0.015606
v -0.543484 0.028996 -0.019853
v -0.542432 0.029325 -0.012888
v -0.543425 0.029333 -0.012713
v -0.544376 0.028305 -0.019615
v -0.540126 0.029103 -0.017584
v -0.543925 0.028980 -0.020186
v -0.539920 0.029150 -0.016598
v -0.546911 0.029222 -0.015069
v -0.544765 0.028288 -0.019975
v -0.543484 0.041610 -0.020450
v -0.543925 0.041595 -0.020783
v -0.537243 0.041850 -0.015386
v -0.539755 0.042025 -0.011676
v -0.540748 0.042033 -0.011501
v -0.547260 0.028467 -0.016178
v -0.545163 0.028267 -0.020420
v -0.544264 0.028965 -0.020500
v -0.537450 0.041803 -0.016372
v -0.544264 0.041580 -0.021096
v -0.546911 0.041837 -0.015665
v -0.547711 0.029193 -0.015673
v -0.546315 0.028179 -0.022273
v -0.545561 0.028241 -0.020952
v -0.544619 0.028946 -0.020897
v -0.537694 0.042536 -0.015724
v -0.543893 0.042338 -0.019913
v -0.544376 0.042321 -0.020278
v -0.540206 0.042712 -0.012014
v -0.546503 0.042510 -0.016269
v -0.547969 0.028436 -0.016834
v -0.545948 0.028212 -0.021571
v -0.546655 0.028142 -0.023053
v -0.544981 0.028923 -0.021381
v -0.544765 0.042304 -0.020638
v -0.547260 0.042483 -0.016841
v -0.547711 0.041808 -0.016270
v -0.548470 0.029160 -0.016376
v -0.546957 0.028102 -0.023906
v -0.545682 0.028865 -0.022608
v -0.546001 0.028831 -0.023344
v -0.545339 0.028896 -0.021953
v -0.544619 0.041561 -0.021494
v -0.546315 0.042195 -0.022936
v -0.548639 0.028401 -0.017583
v -0.547217 0.028058 -0.024822
v -0.546289 0.028792 -0.024152
v -0.544981 0.041538 -0.021978
v -0.545163 0.042283 -0.021083
v -0.547969 0.042452 -0.017497
v -0.545948 0.042228 -0.022234
v -0.546654 0.042158 -0.023716
v -0.548470 0.041775 -0.016972
v -0.549182 0.029123 -0.017172
v -0.547588 0.027964 -0.026811
v -0.547429 0.028012 -0.025793
v -0.546536 0.028751 -0.025025
v -0.545339 0.041511 -0.022549
v -0.545682 0.041480 -0.023205
v -0.546001 0.041445 -0.023940
v -0.545561 0.042258 -0.021615
v -0.546957 0.042118 -0.024568
v -0.549182 0.041737 -0.017769
v -0.549264 0.028361 -0.018421
v -0.547698 0.027911 -0.027937
v -0.546739 0.028707 -0.025955
v -0.546289 0.041407 -0.024748
v -0.548638 0.042417 -0.018246
v -0.547217 0.042075 -0.025485
v -0.549844 0.041695 -0.018655
v -0.549844 0.029081 -0.018058
v -0.550835 0.025770 -0.073208
v -0.546892 0.028661 -0.026932
v -0.546999 0.028609 -0.028028
v -0.546536 0.041366 -0.025622
v -0.547588 0.041980 -0.027474
v -0.547429 0.042029 -0.026456
v -0.549264 0.042377 -0.019084
v -0.549841 0.028318 -0.019342
v -0.550135 0.026469 -0.073290
v -0.546739 0.041322 -0.026552
v -0.547698 0.041927 -0.028599
v -0.550835 0.039786 -0.073871
v -0.550450 0.041649 -0.019623
v -0.549841 0.042334 -0.020005
v -0.550450 0.029035 -0.019027
v -0.550364 0.028270 -0.020341
v -0.546892 0.041275 -0.027529
v -0.556008 0.026488 -0.072884
v -0.549815 0.029252 -0.068796
v -0.546999 0.041224 -0.028625
v -0.550829 0.028220 -0.021411
v -0.555308 0.025785 -0.072899
v -0.556008 0.029053 -0.073005
v -0.550135 0.029034 -0.073411
v -0.550135 0.039083 -0.073886
v -0.550364 0.042286 -0.021004
v -0.550998 0.041600 -0.020668
v -0.550998 0.028985 -0.020072
v -0.551232 0.028166 -0.022544
v -0.552167 0.027929 -0.027564
v -0.552866 0.028632 -0.027539
v -0.555688 0.029271 -0.068390
v -0.549815 0.036736 -0.069150
v -0.555308 0.039801 -0.073562
v -0.550829 0.042236 -0.022074
v -0.551482 0.028933 -0.021187
v -0.551569 0.028110 -0.023734
v -0.552038 0.027991 -0.026248
v -0.555688 0.036755 -0.068744
v -0.550135 0.036518 -0.073765
v -0.556008 0.039102 -0.073480
v -0.552167 0.041945 -0.028227
v -0.551232 0.042182 -0.023207
v -0.551482 0.041547 -0.021783
v -0.551900 0.028877 -0.022364
v -0.551839 0.028051 -0.024971
v -0.552735 0.028696 -0.026193
v -0.552866 0.041247 -0.028136
v -0.552038 0.042007 -0.026910
v -0.551569 0.042126 -0.024397
v -0.551900 0.041492 -0.022961
v -0.552250 0.028819 -0.023597
v -0.552529 0.028758 -0.024875
v -0.556008 0.036537 -0.073359
v -0.551839 0.042068 -0.025634
v -0.552734 0.041311 -0.026789
v -0.552250 0.041433 -0.024193
v -0.552529 0.041373 -0.025472
vn -0.000005528758020102741 -0.9988835804824934 0.04723973551902086
vn 0.4113752493139277 -0.7336159078845558 -0.540904893627912
vn 0.39620871474786057 -0.734000078015416 -0.5515999817179217
vn 0.5079177601995998 -0.7728008284128164 0.3805238868695194
vn -0.39621653374500726 -0.6786630310492977 0.6184083995824053
vn -0.4113830696533492 -0.6792897461851538 0.6077247820603473
vn 0.45386774680391295 -0.732362936545238 -0.5075909746892424
vn 0.1294810469773765 -0.6320622843668823 0.7640235121739126
vn 0.5818893459456672 -0.03842177727445523 -0.812359868596422
vn 0.5603407440445644 -0.03912998117692168 -0.8273373526782638
vn 0.7288499504439095 -0.6739038337894832 -0.12096021057251527
vn 0.6422874569170435 -0.03621109630589634 -0.7656079800990596
vn 0.8024293284434241 -0.22198374182775443 0.5539227303676793
vn 0.17119270547637008 -0.12930076893923795 0.976716114714712
vn -0.5603407440445644 0.03912998117692168 0.8273373526782638
vn -0.5818893459456672 0.03842177727445523 0.812359868596422
vn -0.4538755707025777 -0.6811858652820248 0.5744412792091009
vn 0.5043314965500427 -0.7301080580490007 -0.46107696229535405
vn 0.9636062181700517 -0.1846323691801083 -0.19332341957184315
vn 0.7136445268773612 -0.033095754851906835 -0.6997257750496045
vn 0.5472782585446323 -0.7277975862817861 -0.4132761560104339
vn 0.4113830696533492 0.6792897461851538 -0.6077247820603473
vn 0.39621653374500726 0.6786630310492977 -0.6184083995824053
vn 0.4538755707025777 0.6811858652820248 -0.5744412792091009
vn 0.5043393198362863 0.6833302063936287 -0.5279220392227558
vn 0.6542606338084237 0.6334628380990012 0.41311966280505064
vn 0.8611510136941016 0.46622317893051984 -0.20262003613054147
vn 0.15299217517352634 0.5156921010489445 0.8430035891094403
vn -0.39620871474786057 0.734000078015416 0.5515999817179217
vn -0.4113752493139277 0.7336159078845558 0.540904893627912
vn -0.6422874569170435 0.03621109630589634 0.7656079800990596
vn -0.5043393198362863 -0.6833302063936287 0.5279220392227558
vn 0.583347799718531 -0.7254804980688425 -0.3652169101853483
vn 0.774359665796333 -0.0298950154935485 -0.6320390779346098
vn -0.45386774680391295 0.732362936545238 0.5075909746892424
vn 0.6378348988262649 -0.7209515785280283 -0.27091597084194363
vn 0.6132832894854574 -0.7231913941001371 -0.31761267974908813
vn 0.657703375406595 -0.7187719369275444 -0.2253734071806117
vn 0.8253433838495456 -0.026677582669219584 -0.5640005366298059
vn 0.000005528758020102741 0.9988835804824934 -0.04723973551902086
vn 0.547286081277183 0.6855407252604458 -0.4801165059125198
vn -0.7136445268773612 0.033095754851906835 0.6997257750496045
vn -0.547286081277183 -0.6855407252604458 0.4801165059125198
vn 0.6735066490178645 -0.7166567897119211 -0.18108517191788645
vn 0.8676503966846042 -0.023491198070762154 -0.4966195251359428
vn -0.5043314965500427 0.7301080580490007 0.46107696229535405
vn 0.6857730848390616 -0.7146038980722916 -0.13804544530770646
vn 0.9023449613506699 -0.020365998169115548 -0.43053315417472054
vn 0.930418372329857 -0.017318462859033858 -0.3660897748848767
vn 0.9527463588671634 -0.014355133213350546 -0.3034275956728212
vn 0.5833556219598621 0.6877691231431557 -0.4320530656976261
vn 0.6132911113074779 0.6899825065040314 -0.3844452542425944
vn 0.6378427202997615 0.6921593713142907 -0.3377455682350344
vn 0.6577111965937037 0.6942872719600106 -0.2922005576134386
vn -0.774359665796333 0.0298950154935485 0.6320390779346098
vn -0.5833556219598621 -0.6877691231431557 0.4320530656976261
vn 0.6949350803076634 -0.712611163430851 -0.09617985190002315
vn 0.9700742942618554 -0.011475556504785371 -0.24253695639070877
vn -0.5472782585446323 0.7277975862817861 0.4132761560104339
vn 0.6735144699760585 0.6963610480623963 -0.24791036580649453
vn -0.8253433838495456 0.026677582669219584 0.5640005366298059
vn 0.7013424006456866 -0.7106709086965951 -0.0553687329537269
vn 0.7046170795091955 -0.7091370249892005 -0.02528736944401096
vn 0.9830167190264527 -0.008674677095691355 -0.1833108837242179
vn 0.6857809056040811 0.6983790142015904 -0.20486898748141727
vn -0.583347799718531 0.7254804980688425 0.3652169101853483
vn -0.6132911113074779 -0.6899825065040314 0.3844452542425944
vn 0.7054100437551925 -0.708632808719516 -0.015369208684489552
vn 0.9920657723002256 -0.0059444554904449325 -0.12557932504707647
vn 0.6949429009308832 0.7003460954983798 -0.1630021808625361
vn -0.8676503966846042 0.023491198070762154 0.4966195251359428
vn -0.6132832894854574 0.7231913941001371 0.31761267974908813
vn 0.9965410798109731 -0.0039312011640769105 -0.08300856526038346
vn -0.06905426190988255 -0.047126588433513826 -0.9964991688780778
vn 0.997612981536463 -0.0032675624552580026 -0.06897580811799045
vn 0.7013502211561614 0.7022659379359387 -0.1221900965674376
vn 0.7046248987907894 0.7035777624347205 -0.09209823131538249
vn -0.6378427202997615 -0.6921593713142907 0.3377455682350344
vn 0.7054178626484474 0.7040118042444365 -0.08217675182793253
vn -0.9023449613506699 0.020365998169115548 0.43053315417472054
vn -0.6378348988262649 0.7209515785280283 0.27091597084194363
vn -0.6577111965937037 -0.6942872719600106 0.2922005576134386
vn -0.7054178626484474 -0.7040118042444365 0.08217675182793253
vn -0.7046248987907894 -0.7035777624347205 0.09209823131538249
vn -0.997612981536463 0.0032675624552580026 0.06897580811799045
vn -0.6735144699760585 -0.6963610480623963 0.24791036580649453
vn -0.9965410798109731 0.0039312011640769105 0.08300856526038346
vn -0.657703375406595 0.7187719369275444 0.2253734071806117
vn -0.930418372329857 0.017318462859033858 0.3660897748848767
vn -0.6857809056040811 -0.6983790142015904 0.20486898748141727
vn -0.7013502211561614 -0.7022659379359387 0.1221900965674376
vn -0.7046170795091955 0.7091370249892005 0.02528736944401096
vn -0.7054100437551925 0.708632808719516 0.015369208684489552
vn -0.6735066490178645 0.7166567897119211 0.18108517191788645
vn -0.9527463588671634 0.014355133213350546 0.3034275956728212
vn -0.6949429009308832 -0.7003460954983798 0.1630021808625361
vn -0.9920657723002256 0.0059444554904449325 0.12557932504707647
vn -0.7013424006456866 0.7106709086965951 0.0553687329537269
vn -0.6857730848390616 0.7146038980722916 0.13804544530770646
vn -0.9700742942618554 0.011475556504785371 0.24253695639070877
vn -0.9830167190264527 0.008674677095691355 0.1833108837242179
vn -0.6949350803076634 0.712611163430851 0.09617985190002315
vn -0.5079177601995998 0.7728008284128164 -0.3805238868695194
vn -0.1294810469773765 0.6320622843668823 -0.7640235121739126
vn -0.7288499504439095 0.6739038337894832 0.12096021057251527
vn -0.8024293284434241 0.22198374182775443 -0.5539227303676793
vn -0.17119270547637008 0.12930076893923795 -0.976716114714712
vn -0.9636062181700517 0.1846323691801083 0.19332341957184315
vn -0.6542606338084237 -0.6334628380990012 -0.41311966280505064
vn -0.8611510136941016 -0.46622317893051984 0.20262003613054147
vn -0.15299217517352634 -0.5156921010489445 -0.8430035891094403
vn 0.06905426190988255 0.047126588433513826 0.9964991688780778
usemtl material_0_0
f 1//1 2//1 3//1
f 2//1 1//1 4//1
f 5//2 3//3 2//2
f 3//4 6//4 1//4
f 7//5 4//6 1//5
f 2//1 4//1 8//1
f 3//3 5//2 9//3
f 2//2 10//7 5//2
f 6//4 3//4 11//4
f 7//8 1//8 6//8
f 4//6 7//5 12//6
f 8//1 4//1 13//1
f 10//7 2//2 8//7
f 14//9 9//10 5//9
f 11//11 3//11 9//11
f 15//12 5//9 10//12
f 16//13 6//13 11//13
f 17//14 7//14 6//14
f 18//15 12//16 7//15
f 12//6 19//17 4//6
f 13//1 4//1 20//1
f 21//18 8//7 13//18
f 8//7 21//18 10//7
f 9//10 14//9 22//10
f 5//9 15//12 14//9
f 22//19 11//19 9//19
f 10//12 23//20 15//12
f 6//13 16//13 17//13
f 11//19 22//19 16//19
f 7//14 17//14 18//14
f 12//16 18//15 24//16
f 19//17 12//6 25//17
f 26//1 4//1 19//1
f 20//1 4//1 27//1
f 28//21 13//18 20//21
f 13//18 28//21 21//18
f 23//20 10//12 21//20
f 14//22 29//23 22//23
f 15//24 30//22 14//22
f 23//25 31//24 15//24
f 16//26 32//26 17//26
f 16//27 22//27 29//27
f 32//28 18//28 17//28
f 18//29 33//30 24//30
f 24//16 25//31 12//16
f 25//17 34//32 19//17
f 35//1 4//1 26//1
f 26//1 19//1 36//1
f 27//1 4//1 35//1
f 37//33 20//21 27//33
f 20//21 37//33 28//21
f 28//34 23//20 21//20
f 29//23 14//22 30//22
f 30//22 15//24 31//24
f 31//24 23//25 38//25
f 32//26 16//26 29//26
f 33//30 18//29 32//29
f 39//35 24//30 33//30
f 25//31 24//16 40//31
f 34//32 25//17 41//32
f 42//1 19//1 34//1
f 43//36 35//37 26//36
f 36//1 19//1 42//1
f 44//38 26//36 36//38
f 45//37 27//33 35//37
f 27//33 45//37 37//33
f 37//39 46//34 28//34
f 23//20 28//34 46//34
f 30//40 32//40 29//40
f 33//40 30//40 31//40
f 46//41 38//25 23//25
f 33//40 31//40 38//40
f 32//40 30//40 33//40
f 24//30 39//35 40//35
f 33//40 47//40 39//40
f 40//31 41//42 25//31
f 41//32 48//43 34//32
f 42//1 34//1 49//1
f 35//37 43//36 45//37
f 26//36 44//38 43//36
f 50//44 36//38 42//44
f 36//38 50//44 44//38
f 45//45 51//39 37//39
f 46//34 37//39 51//39
f 38//25 46//41 52//41
f 33//40 38//40 52//40
f 53//46 40//35 39//35
f 33//40 54//40 47//40
f 39//40 47//40 55//40
f 41//42 40//31 56//42
f 48//43 41//32 57//43
f 58//1 34//1 48//1
f 49//1 34//1 59//1
f 60//47 42//44 49//47
f 43//48 61//45 45//45
f 44//49 62//48 43//48
f 42//44 60//47 50//44
f 50//50 63//49 44//49
f 51//39 45//45 61//45
f 51//51 52//41 46//41
f 33//40 52//40 64//40
f 40//35 53//46 56//46
f 39//40 65//40 53//40
f 33//40 64//40 54//40
f 54//52 62//53 47//53
f 47//53 63//54 55//54
f 39//40 55//40 65//40
f 66//55 41//42 56//42
f 41//42 66//55 57//55
f 57//43 67//56 48//43
f 59//1 34//1 58//1
f 58//1 48//1 68//1
f 69//57 49//47 59//57
f 49//47 69//57 60//47
f 61//45 43//48 62//48
f 62//48 44//49 63//49
f 60//58 70//50 50//50
f 63//49 50//50 70//50
f 61//52 64//51 51//51
f 52//41 51//51 64//51
f 71//59 56//46 53//46
f 53//40 65//40 72//40
f 64//51 61//52 54//52
f 62//53 54//52 61//52
f 63//54 47//53 62//53
f 70//60 55//54 63//54
f 55//54 70//60 65//60
f 56//46 71//59 66//59
f 73//61 57//55 66//55
f 67//56 57//43 74//56
f 75//1 48//1 67//1
f 76//62 59//57 58//62
f 68//1 48//1 75//1
f 77//63 58//62 68//63
f 59//57 76//62 69//57
f 69//64 78//58 60//58
f 70//50 60//58 78//58
f 53//40 79//40 71//40
f 65//60 78//65 72//65
f 53//40 72//40 80//40
f 78//65 65//60 70//60
f 81//66 66//59 71//59
f 57//55 73//61 74//61
f 66//59 81//66 73//66
f 74//56 82//67 67//56
f 75//1 67//1 82//1
f 58//62 77//63 76//62
f 83//68 68//63 75//68
f 68//63 83//68 77//63
f 76//69 84//64 69//64
f 78//58 69//64 84//64
f 53//40 80//40 79//40
f 71//40 79//40 85//40
f 84//70 72//65 78//65
f 72//65 84//70 80//70
f 71//40 86//40 81//40
f 87//71 74//61 73//61
f 88//72 73//66 81//66
f 82//67 74//56 89//67
f 75//1 82//1 90//1
f 77//73 91//69 76//69
f 75//74 92//74 83//74
f 83//75 93//75 77//73
f 84//64 76//69 91//69
f 80//70 91//76 79//76
f 79//76 94//77 85//77
f 71//40 85//40 86//40
f 91//76 80//70 84//70
f 81//40 86//40 88//40
f 74//61 87//71 89//71
f 73//66 88//72 87//72
f 89//67 90//78 82//67
f 75//1 90//1 95//1
f 91//69 77//73 94//73
f 92//74 75//74 96//74
f 83//74 92//74 97//74
f 93//75 83//75 98//75
f 77//73 93//75 94//73
f 94//77 79//76 91//76
f 99//79 85//77 94//77
f 85//77 99//79 86//79
f 88//40 86//40 100//40
f 101//80 89//71 87//71
f 100//81 87//72 88//72
f 90//78 89//67 102//78
f 102//78 95//82 90//78
f 75//1 95//1 103//1
f 75//1 104//1 96//1
f 96//83 105//84 92//83
f 92//85 106//85 97//85
f 83//74 97//74 98//74
f 98//40 106//40 93//40
f 107//75 94//73 93//75
f 107//75 99//75 94//73
f 99//74 108//74 86//74
f 100//40 86//40 109//40
f 89//71 101//80 102//80
f 87//72 100//81 101//81
f 95//82 102//78 110//82
f 110//82 103//86 95//82
f 75//1 103//1 111//1
f 75//1 112//1 104//1
f 105//84 96//83 104//84
f 106//85 92//85 105//87
f 106//40 98//40 97//40
f 113//74 93//74 106//74
f 93//74 113//74 107//74
f 99//75 107//75 114//75
f 99//74 115//74 108//74
f 116//40 86//40 108//40
f 109//40 86//40 117//40
f 109//88 101//81 100//81
f 118//89 102//80 101//80
f 102//80 118//89 110//89
f 103//86 110//82 119//86
f 119//86 111//90 103//86
f 75//1 111//1 120//1
f 75//1 120//1 112//1
f 121//91 104//84 112//91
f 104//84 121//91 105//84
f 106//85 105//87 113//85
f 113//1 114//1 107//1
f 114//74 115//74 99//74
f 122//92 108//93 115//93
f 123//40 86//40 116//40
f 108//93 122//92 116//92
f 117//40 86//40 124//40
f 117//94 118//88 109//88
f 101//81 109//88 118//88
f 125//95 110//89 118//89
f 110//89 125//95 119//95
f 111//90 119//86 126//90
f 126//90 120//96 111//90
f 127//96 112//91 120//96
f 112//91 127//96 121//91
f 121//97 122//87 105//87
f 122//87 113//85 105//87
f 114//1 113//1 128//1
f 115//74 114//74 128//74
f 115//85 113//85 122//87
f 129//40 86//40 123//40
f 116//92 130//98 123//98
f 130//98 116//92 122//92
f 124//40 86//40 129//40
f 124//99 125//94 117//94
f 118//88 117//94 125//94
f 131//100 119//95 125//95
f 119//95 131//100 126//100
f 120//96 126//90 127//96
f 127//101 130//97 121//97
f 122//87 121//97 130//97
f 113//85 115//85 128//85
f 123//98 132//102 129//102
f 132//102 123//98 130//98
f 129//102 131//99 124//99
f 125//94 124//99 131//99
f 132//101 126//100 131//100
f 126//100 132//101 127//101
f 130//97 127//101 132//101
f 131//99 129//102 132//102
usemtl material_1_0
f 3//40 2//40 1//40
f 4//40 1//40 2//40
f 2//30 3//29 5//30
f 1//103 6//103 3//103
f 1//23 4//22 7//23
f 8//40 4//40 2//40
f 9//29 5//30 3//29
f 5//30 10//35 2//30
f 11//103 3//103 6//103
f 6//104 1//104 7//104
f 12//22 7//23 4//22
f 13//40 4//40 8//40
f 8//35 2//30 10//35
f 5//16 9//15 14//16
f 9//105 3//105 11//105
f 10//31 5//16 15//31
f 11//106 6//106 16//106
f 6//107 7//107 17//107
f 7//10 12//9 18//10
f 4//22 19//24 12//22
f 20//40 4//40 13//40
f 13//46 8//35 21//46
f 10//35 21//46 8//35
f 22//15 14//16 9//15
f 14//16 15//31 5//16
f 9//108 11//108 22//108
f 15//31 23//42 10//31
f 17//106 16//106 6//106
f 16//108 22//108 11//108
f 18//107 17//107 7//107
f 24//9 18//10 12//9
f 25//24 12//22 19//24
f 19//40 4//40 26//40
f 27//40 4//40 20//40
f 20//59 13//46 28//59
f 21//46 28//59 13//46
f 21//42 10//31 23//42
f 22//5 29//5 14//6
f 14//6 30//6 15//17
f 15//17 31//17 23//32
f 17//109 32//109 16//109
f 29//110 22//110 16//110
f 17//111 18//111 32//111
f 24//2 33//2 18//3
f 12//9 25//12 24//9
f 19//24 34//25 25//24
f 26//40 4//40 35//40
f 36//40 19//40 26//40
f 35//40 4//40 27//40
f 27//66 20//59 37//66
f 28//59 37//66 20//59
f 21//42 23//42 28//55
f 30//6 14//6 29//5
f 31//17 15//17 30//6
f 38//32 23//32 31//17
f 29//109 16//109 32//109
f 32//3 18//3 33//2
f 33//2 24//2 39//7
f 40//12 24//9 25//12
f 41//25 25//24 34//25
f 34//40 19//40 42//40
f 26//81 35//72 43//81
f 42//40 19//40 36//40
f 36//88 26//81 44//88
f 35//72 27//66 45//72
f 37//66 45//72 27//66
f 28//55 46//55 37//61
f 46//55 28//55 23//42
f 29//1 32//1 30//1
f 31//1 30//1 33//1
f 23//32 38//32 46//43
f 38//1 31//1 33//1
f 33//1 30//1 32//1
f 40//7 39//7 24//2
f 39//1 47//1 33//1
f 25//12 41//20 40//12
f 34//25 48//41 41//25
f 49//40 34//40 42//40
f 45//72 43//81 35//72
f 43//81 44//88 26//81
f 42//94 36//88 50//94
f 44//88 50//94 36//88
f 37//61 51//61 45//71
f 51//61 37//61 46//55
f 52//43 46//43 38//32
f 52//1 38//1 33//1
f 39//7 40//7 53//18
f 47//1 54//1 33//1
f 55//1 47//1 39//1
f 56//20 40//12 41//20
f 57//41 41//25 48//41
f 48//40 34//40 58//40
f 59//40 34//40 49//40
f 49//99 42//94 60//99
f 45//71 61//71 43//80
f 43//80 62//80 44//89
f 50//94 60//99 42//94
f 44//89 63//89 50//95
f 61//71 45//71 51//61
f 46//43 52//43 51//56
f 64//1 52//1 33//1
f 56//18 53//18 40//7
f 53//1 65//1 39//1
f 54//1 64//1 33//1
f 47//78 62//78 54//67
f 55//82 63//82 47//78
f 65//1 55//1 39//1
f 56//20 41//20 66//34
f 57//34 66//34 41//20
f 48//41 67//51 57//41
f 58//40 34//40 59//40
f 68//40 48//40 58//40
f 59//102 49//99 69//102
f 60//99 69//102 49//99
f 62//80 43//80 61//71
f 63//89 44//89 62//80
f 50//95 70//95 60//100
f 70//95 50//95 63//89
f 51//56 64//56 61//67
f 64//56 51//56 52//43
f 53//18 56//18 71//21
f 72//1 65//1 53//1
f 54//67 61//67 64//56
f 61//67 54//67 62//78
f 62//78 47//78 63//82
f 63//82 55//82 70//86
f 65//86 70//86 55//82
f 66//21 71//21 56//18
f 66//34 57//34 73//39
f 74//51 57//41 67//51
f 67//40 48//40 75//40
f 58//98 59//102 76//98
f 75//40 48//40 68//40
f 68//92 58//98 77//92
f 69//102 76//98 59//102
f 60//100 78//100 69//101
f 78//100 60//100 70//95
f 71//1 79//1 53//1
f 72//90 78//90 65//86
f 80//1 72//1 53//1
f 70//86 65//86 78//90
f 71//21 66//21 81//33
f 74//39 73//39 57//34
f 73//33 81//33 66//21
f 67//51 82//52 74//51
f 82//40 67//40 75//40
f 76//98 77//92 58//98
f 75//93 68//92 83//93
f 77//92 83//93 68//92
f 69//101 84//101 76//97
f 84//101 69//101 78//100
f 79//1 80//1 53//1
f 85//1 79//1 71//1
f 78//90 72//90 84//96
f 80//96 84//96 72//90
f 81//1 86//1 71//1
f 73//39 74//39 87//45
f 81//33 73//33 88//37
f 89//52 74//51 82//52
f 90//40 82//40 75//40
f 76//97 91//97 77//87
f 83//112 92//112 75//112
f 77//87 93//85 83//85
f 91//97 76//97 84//101
f 79//91 91//91 80//96
f 85//84 94//84 79//91
f 86//1 85//1 71//1
f 84//96 80//96 91//91
f 88//1 86//1 81//1
f 89//45 87//45 74//39
f 87//37 88//37 73//33
f 82//52 90//53 89//52
f 95//40 90//40 75//40
f 94//87 77//87 91//97
f 96//112 75//112 92//112
f 97//112 92//112 83//112
f 98//85 83//85 93//85
f 94//87 93//85 77//87
f 91//91 79//91 94//84
f 94//84 85//84 99//83
f 86//83 99//83 85//84
f 100//1 86//1 88//1
f 87//45 89//45 101//48
f 88//37 87//37 100//36
f 102//53 89//52 90//53
f 90//53 95//54 102//53
f 103//40 95//40 75//40
f 96//40 104//40 75//40
f 92//79 105//77 96//79
f 97//75 106//75 92//75
f 98//112 97//112 83//112
f 93//1 106//1 98//1
f 93//85 94//87 107//85
f 94//87 99//85 107//85
f 86//112 108//112 99//112
f 109//1 86//1 100//1
f 102//48 101//48 89//45
f 101//36 100//36 87//37
f 110//54 102//53 95//54
f 95//54 103//60 110//54
f 111//40 103//40 75//40
f 104//40 112//40 75//40
f 104//77 96//79 105//77
f 105//73 92//75 106//75
f 97//1 98//1 106//1
f 106//112 93//112 113//112
f 107//112 113//112 93//112
f 114//85 107//85 99//85
f 108//112 115//112 99//112
f 108//1 86//1 116//1
f 117//1 86//1 109//1
f 100//36 101//36 109//38
f 101//48 102//48 118//49
f 110//49 118//49 102//48
f 119//60 110//54 103//60
f 103//60 111//65 119//60
f 120//40 111//40 75//40
f 112//40 120//40 75//40
f 112//76 104//77 121//76
f 105//77 121//76 104//77
f 113//75 105//73 106//75
f 107//40 114//40 113//40
f 99//112 115//112 114//112
f 115//68 108//68 122//63
f 116//1 86//1 123//1
f 116//63 122//63 108//68
f 124//1 86//1 117//1
f 109//38 118//38 117//44
f 118//38 109//38 101//36
f 118//49 110//49 125//50
f 119//50 125//50 110//49
f 126//65 119//60 111//65
f 111//65 120//70 126//65
f 120//70 112//76 127//70
f 121//76 127//70 112//76
f 105//73 122//73 121//69
f 105//73 113//75 122//73
f 128//40 113//40 114//40
f 128//112 114//112 115//112
f 122//73 113//75 115//75
f 123//1 86//1 129//1
f 123//62 130//62 116//63
f 122//63 116//63 130//62
f 129//1 86//1 124//1
f 117//44 125//44 124//47
f 125//44 117//44 118//38
f 125//50 119//50 131//58
f 126//58 131//58 119//50
f 127//70 126//65 120//70
f 121//69 130//69 127//64
f 130//69 121//69 122//73
f 128//75 115//75 113//75
f 129//57 132//57 123//62
f 130//62 123//62 132//57
f 124//47 131//47 129//57
f 131//47 124//47 125//44
f 131//58 126//58 132//64
f 127//64 132//64 126//58
f 132//64 127//64 130//69
f 132//57 129//57 131//47
