# SSTK version 0.8.0
# 9
mtllib original-9.mtl
o Group_5_1/Group_5/mesh33/mesh33-geometry#mesh33-geometry
v -0.554816 0.013977 -0.417776
v -0.556328 0.016032 -0.374313
v -0.556601 0.013977 -0.417765
v -0.554542 0.016032 -0.374324
v -0.556831 0.016601 -0.373085
v -0.554819 0.014462 -0.418310
v -0.554305 0.014486 -0.417803
v -0.556315 0.015623 -0.372156
v -0.557112 0.014487 -0.417786
v -0.556605 0.014463 -0.418299
v -0.554024 0.016600 -0.373103
v -0.554529 0.015623 -0.372168
v -0.557112 0.018500 -0.417976
v -0.556299 0.014439 -0.369517
v -0.556605 0.018476 -0.418488
v -0.554819 0.018475 -0.418500
v -0.554024 0.020613 -0.373292
v -0.556831 0.020614 -0.373275
v -0.556802 0.014492 -0.368387
v -0.554305 0.018499 -0.417993
v -0.553995 0.023156 -0.368814
v -0.554513 0.014438 -0.369529
v -0.556802 0.023157 -0.368797
v -0.556601 0.019009 -0.418003
v -0.556285 0.014030 -0.367361
v -0.554816 0.019009 -0.418014
v -0.553995 0.014491 -0.368405
v -0.554513 0.023103 -0.369938
v -0.554542 0.021064 -0.374562
v -0.556299 0.023103 -0.369927
v -0.556328 0.021064 -0.374551
v -0.555266 0.026048 -0.124029
v -0.552459 0.026048 -0.124047
v -0.554529 0.021674 -0.372454
v -0.554499 0.023713 -0.367830
v -0.554499 0.014029 -0.367372
v -0.556315 0.021675 -0.372443
v -0.556285 0.023714 -0.367819
v -0.554762 0.025491 -0.125014
v -0.555266 0.034713 -0.124439
v -0.552459 0.034712 -0.124457
v -0.552976 0.025490 -0.125025
v -0.552976 0.035174 -0.125483
v -0.554748 0.026102 -0.122905
v -0.555237 0.028591 -0.119551
v -0.552430 0.032603 -0.119759
v -0.552962 0.026101 -0.122916
v -0.554762 0.035175 -0.125472
v -0.554732 0.027530 -0.120390
v -0.555237 0.032604 -0.119741
v -0.552430 0.028590 -0.119569
v -0.552946 0.033581 -0.120687
v -0.552962 0.034766 -0.123326
v -0.552946 0.027529 -0.120401
v -0.554748 0.034766 -0.123315
v -0.554944 0.030797 -0.072911
v -0.554732 0.033581 -0.120676
v -0.554719 0.028140 -0.118281
v -0.552137 0.034809 -0.073119
v -0.552933 0.033172 -0.118531
v -0.554944 0.034810 -0.073101
v -0.554719 0.033173 -0.118519
v -0.552137 0.030796 -0.072929
v -0.552647 0.035319 -0.073139
v -0.552933 0.028140 -0.118293
v -0.554430 0.034834 -0.072594
v -0.554433 0.030287 -0.072890
v -0.552644 0.034833 -0.072606
v -0.552647 0.030287 -0.072902
v -0.554433 0.035319 -0.073128
v -0.554430 0.030821 -0.072405
v -0.552644 0.030820 -0.072416
vn -0.0000055860955480831915 -0.9988835871078712 0.047239595418541745
vn -0.0007401434612951619 -0.997548122030763 -0.06997997156726206
vn -0.7621632853065197 -0.6369078052573631 -0.11599816435194724
vn -0.7070918317060206 -0.7061086374776149 0.037838255960483666
vn -0.7798317670070246 -0.6253007015764823 -0.029350430570280167
vn -0.004440667979908448 -0.7397387334411648 -0.6728795484444103
vn 0.7070839315398609 -0.7065359903237058 0.028969089309697438
vn 0.7790241516241654 -0.625771823811735 -0.03912794026759457
vn -0.002168011790385692 -0.9539563378963497 -0.299937668711788
vn -0.7808450596570697 -0.5944343755137977 -0.19216858748679136
vn 0.5737172287016271 -0.6041647876208704 -0.5530221070535546
vn 0.7602638622205259 -0.6373671972482795 -0.12554646818370552
vn -0.9999802833538751 0.0003022238697275256 0.00627228540775465
vn -0.5809713074371605 -0.603817466294941 -0.5457809151407863
vn -0.5935317858992902 -0.7719322170154583 -0.2276854660728222
vn -0.006275434736756853 -0.04723867141841895 -0.9988639180796789
vn 0.7026687276171031 -0.03361573254962755 -0.7107226194192171
vn 0.9999802833538751 -0.0003022238697275256 -0.00627228540775465
vn 0.7780146467460637 -0.5949043058384911 -0.20194572623212584
vn -0.711546149106576 -0.03318845796738615 -0.7018551160669483
vn -0.6380882978828389 -0.7572071473043837 -0.13957313558181175
vn 0.5901638866380968 -0.7722890674450038 -0.23510887523260768
vn -0.7621562445598595 0.6231265053236358 -0.17558820359455937
vn -0.7070839315398609 0.7065359903237058 -0.028969089309697438
vn -0.5809648728910676 0.5496216127927134 -0.6003298253608611
vn -0.5925102221048248 -0.803055879076731 -0.06350505319728231
vn -0.004432768012382294 0.6729350396216704 -0.7396883012574481
vn 0.5737236949774375 0.54927111939451 -0.6075708676529333
vn 0.7602709148985385 0.6226657477612475 -0.18513644299344692
vn 0.5901723910859031 0.7466475254502962 -0.3069430265357021
vn 0.6358387631032576 0.7402768436445174 -0.21840160736366016
vn 0.7070918317060206 0.7061086374776149 -0.037838255960483666
vn 0.7790311171066558 0.6192775586194762 -0.09800930552685864
vn 0.6358303793167271 -0.7575913434375701 -0.14756383393773922
vn -0.5935233013085588 0.747006052360921 -0.2995196964140129
vn -0.6380799282045214 0.7406626909769473 -0.2104109869215489
vn -0.7798248066332913 0.6197486758493416 -0.08823179552937574
vn -0.6358387631032576 -0.7402768436445174 0.21840160736366016
vn 0.7780211877005808 0.5731820904228335 -0.2571873299902003
vn 0.5911908854539433 0.793127011788414 -0.14643387629836066
vn 0.5911819528228436 -0.803413269322161 -0.07092966469430216
vn -0.780838535600157 0.5736543593213288 -0.24741030163159722
vn -0.5925012976694775 0.7934851146793563 -0.1390092984022073
vn -0.0007290480455564557 0.9864916446572763 -0.16380996157233324
vn 0.0000055860955480831915 0.9988835871078712 -0.047239595418541745
vn -0.5911908854539433 -0.793127011788414 0.14643387629836066
vn 0.5925012976694775 -0.7934851146793563 0.1390092984022073
vn 0.6380799282045214 -0.7406626909769473 0.2104109869215489
vn -0.0021575242620123624 0.92139246816561 -0.388627411149476
vn 0.5925102221048248 0.803055879076731 0.06350505319728231
vn 0.0007290480455564557 -0.9864916446572763 0.16380996157233324
vn -0.6358303793167271 0.7575913434375701 0.14756383393773922
vn -0.5901723910859031 -0.7466475254502962 0.3069430265357021
vn 0.6380882978828389 0.7572071473043837 0.13957313558181175
vn 0.5935233013085588 -0.747006052360921 0.2995196964140129
vn 0.0007401434612951619 0.997548122030763 0.06997997156726206
vn -0.5911819528228436 0.803413269322161 0.07092966469430216
vn -0.7780211877005808 -0.5731820904228335 0.2571873299902003
vn 0.0021575242620123624 -0.92139246816561 0.388627411149476
vn -0.7602709148985385 -0.6226657477612475 0.18513644299344692
vn 0.7808450596570697 0.5944343755137977 0.19216858748679136
vn 0.7621632853065197 0.6369078052573631 0.11599816435194724
vn 0.5935317858992902 0.7719322170154583 0.2276854660728222
vn 0.780838535600157 -0.5736543593213288 0.24741030163159722
vn 0.002168011790385692 0.9539563378963497 0.299937668711788
vn -0.5901638866380968 0.7722890674450038 0.23510887523260768
vn -0.7780146467460637 0.5949043058384911 0.20194572623212584
vn -0.7602638622205259 0.6373671972482795 0.12554646818370552
vn -0.7790311171066558 -0.6192775586194762 0.09800930552685864
vn 0.7621562445598595 -0.6231265053236358 0.17558820359455937
vn 0.7798317670070246 0.6253007015764823 0.029350430570280167
vn -0.7790241516241654 0.625771823811735 0.03912794026759457
vn 0.7798248066332913 -0.6197486758493416 0.08823179552937574
vn -0.7026687276171031 0.03361573254962755 0.7107226194192171
vn 0.711546149106576 0.03318845796738615 0.7018551160669483
vn 0.5809713074371605 0.603817466294941 0.5457809151407863
vn -0.5737172287016271 0.6041647876208704 0.5530221070535546
vn -0.5737236949774375 -0.54927111939451 0.6075708676529333
vn 0.5809648728910676 -0.5496216127927134 0.6003298253608611
vn 0.004440667979908448 0.7397387334411648 0.6728795484444103
vn 0.006275434736756853 0.04723867141841895 0.9988639180796789
vn 0.004432768012382294 -0.6729350396216704 0.7396883012574481
usemtl material_0_0
f 1//1 2//2 3//1
f 2//2 1//1 4//2
f 5//3 3//4 2//5
f 3//6 6//6 1//6
f 7//7 4//8 1//7
f 4//2 8//9 2//2
f 3//4 5//3 9//4
f 2//5 8//10 5//3
f 6//6 3//6 10//6
f 7//11 1//11 6//11
f 4//8 7//7 11//12
f 8//9 4//2 12//9
f 5//13 13//13 9//13
f 10//14 3//14 9//14
f 14//15 5//3 8//10
f 15//16 6//16 10//16
f 16//17 7//17 6//17
f 17//18 11//18 7//18
f 4//8 11//12 12//19
f 12//9 14//9 8//9
f 5//13 18//13 13//13
f 15//20 9//20 13//20
f 9//20 15//20 10//20
f 5//3 14//15 19//21
f 6//16 15//16 16//16
f 7//17 16//17 20//17
f 21//18 11//18 17//18
f 17//18 7//18 20//18
f 11//12 22//22 12//19
f 14//9 12//9 22//9
f 5//13 23//13 18//13
f 18//23 24//24 13//24
f 15//25 13//25 24//25
f 25//26 19//21 14//15
f 19//13 23//13 5//13
f 24//27 16//27 15//27
f 26//28 20//28 16//28
f 21//18 27//18 11//18
f 17//29 28//30 21//31
f 20//32 29//33 17//29
f 22//22 11//12 27//34
f 22//9 25//2 14//9
f 30//35 18//23 23//36
f 24//24 18//23 31//37
f 25//26 32//38 19//21
f 32//13 23//13 19//13
f 16//27 24//27 26//27
f 29//33 20//32 26//32
f 21//18 33//18 27//18
f 28//30 17//29 34//39
f 21//31 28//30 35//40
f 29//33 34//39 17//29
f 27//34 36//41 22//22
f 25//2 22//9 36//2
f 18//23 30//35 37//42
f 38//43 30//35 23//36
f 31//37 18//23 37//42
f 31//44 26//45 24//45
f 32//38 25//26 39//46
f 32//13 40//13 23//13
f 26//45 31//44 29//44
f 41//18 33//18 21//18
f 42//47 27//34 33//48
f 34//49 30//49 28//49
f 28//49 38//44 35//44
f 43//50 21//31 35//40
f 29//44 37//49 34//49
f 27//34 42//47 36//41
f 36//2 39//51 25//2
f 30//49 34//49 37//49
f 38//44 28//49 30//49
f 40//52 38//43 23//36
f 37//49 29//44 31//44
f 44//53 32//38 39//46
f 45//13 40//13 32//13
f 46//18 33//18 41//18
f 21//31 43//50 41//54
f 33//48 47//55 42//47
f 48//56 35//44 38//44
f 35//44 48//56 43//56
f 39//51 36//2 42//51
f 38//43 40//52 48//57
f 49//58 32//38 44//53
f 42//51 44//59 39//51
f 45//13 50//13 40//13
f 32//38 49//58 45//60
f 46//18 51//18 33//18
f 41//54 52//61 46//62
f 41//54 43//50 53//63
f 33//48 54//64 47//55
f 44//59 42//51 47//59
f 55//65 43//56 48//56
f 55//66 48//57 40//52
f 47//59 49//59 44//59
f 56//13 50//13 45//13
f 57//67 40//52 50//68
f 49//58 58//69 45//60
f 59//18 51//18 46//18
f 54//64 33//48 51//70
f 52//61 41//54 53//63
f 52//61 60//71 46//62
f 43//56 55//65 53//65
f 49//59 47//59 54//59
f 40//52 57//67 55//66
f 50//13 56//13 61//13
f 58//69 56//4 45//60
f 57//67 50//68 62//72
f 54//59 58//51 49//59
f 51//18 59//18 63//18
f 46//62 64//32 59//32
f 54//64 51//70 65//73
f 53//65 57//65 52//65
f 52//65 62//56 60//56
f 64//32 46//62 60//71
f 57//65 53//65 55//65
f 56//74 66//74 61//74
f 61//24 62//72 50//68
f 56//4 58//69 67//4
f 62//56 52//65 57//65
f 58//51 54//59 65//51
f 68//75 63//75 59//75
f 69//7 51//70 63//7
f 59//76 64//76 68//76
f 51//70 69//7 65//73
f 70//45 60//56 62//56
f 60//56 70//45 64//45
f 66//74 56//74 71//74
f 70//77 61//77 66//77
f 62//72 61//24 70//24
f 65//51 67//1 58//51
f 56//78 67//78 71//78
f 63//75 68//75 72//75
f 63//79 72//79 69//79
f 64//80 66//80 68//80
f 67//1 65//51 69//1
f 66//80 64//80 70//80
f 71//81 68//81 66//81
f 69//82 71//82 67//82
f 68//81 71//81 72//81
f 71//82 69//82 72//82
usemtl material_1_0
f 3//45 2//56 1//45
f 4//56 1//45 2//56
f 2//71 3//32 5//62
f 1//80 6//80 3//80
f 1//24 4//72 7//24
f 2//56 8//65 4//56
f 9//32 5//62 3//32
f 5//62 8//61 2//71
f 10//80 3//80 6//80
f 6//77 1//77 7//77
f 11//68 7//24 4//72
f 12//65 4//56 8//65
f 9//18 13//18 5//18
f 9//76 3//76 10//76
f 8//61 5//62 14//63
f 10//81 6//81 15//81
f 6//74 7//74 16//74
f 7//13 11//13 17//13
f 12//67 11//68 4//72
f 8//65 14//65 12//65
f 13//18 18//18 5//18
f 13//75 9//75 15//75
f 10//75 15//75 9//75
f 19//54 14//63 5//62
f 16//81 15//81 6//81
f 20//74 16//74 7//74
f 17//13 11//13 21//13
f 20//13 7//13 17//13
f 12//67 22//66 11//68
f 22//65 12//65 14//65
f 18//18 23//18 5//18
f 13//7 24//7 18//70
f 24//79 13//79 15//79
f 14//63 19//54 25//50
f 5//18 23//18 19//18
f 15//82 16//82 24//82
f 16//78 20//78 26//78
f 11//13 27//13 21//13
f 21//38 28//53 17//60
f 17//60 29//69 20//4
f 27//52 11//68 22//66
f 14//65 25//56 22//65
f 23//48 18//70 30//55
f 31//73 18//70 24//7
f 19//54 32//31 25//50
f 19//18 23//18 32//18
f 26//82 24//82 16//82
f 26//4 20//4 29//69
f 27//13 33//13 21//13
f 34//58 17//60 28//53
f 35//46 28//53 21//38
f 17//60 34//58 29//69
f 22//66 36//57 27//52
f 36//56 22//65 25//56
f 37//64 30//55 18//70
f 23//48 30//55 38//47
f 37//64 18//70 31//73
f 24//1 26//1 31//51
f 39//40 25//50 32//31
f 23//18 40//18 32//18
f 29//51 31//51 26//1
f 21//13 33//13 41//13
f 33//36 27//52 42//43
f 28//59 30//59 34//59
f 35//51 38//51 28//59
f 35//46 21//38 43//26
f 34//59 37//59 29//51
f 36//57 42//43 27//52
f 25//56 39//44 36//56
f 37//59 34//59 30//59
f 30//59 28//59 38//51
f 23//48 38//47 40//34
f 31//51 29//51 37//59
f 39//40 32//31 44//30
f 32//18 40//18 45//18
f 41//13 33//13 46//13
f 41//21 43//26 21//38
f 42//43 47//35 33//36
f 38//51 35//51 48//2
f 43//2 48//2 35//51
f 42//44 36//56 39//44
f 48//41 40//34 38//47
f 44//30 32//31 49//39
f 39//44 44//49 42//44
f 40//18 50//18 45//18
f 45//29 49//39 32//31
f 33//13 51//13 46//13
f 46//3 52//10 41//21
f 53//15 43//26 41//21
f 47//35 54//42 33//36
f 47//49 42//44 44//49
f 48//2 43//2 55//9
f 40//34 48//41 55//22
f 44//49 49//49 47//49
f 45//18 50//18 56//18
f 50//12 40//34 57//19
f 45//29 58//33 49//39
f 46//13 51//13 59//13
f 51//23 33//36 54//42
f 53//15 41//21 52//10
f 46//3 60//5 52//10
f 53//9 55//9 43//2
f 54//49 47//49 49//49
f 55//22 57//19 40//34
f 61//18 56//18 50//18
f 45//29 56//32 58//33
f 62//8 50//12 57//19
f 49//49 58//44 54//49
f 63//13 59//13 51//13
f 59//4 64//4 46//3
f 65//37 51//23 54//42
f 52//9 57//9 53//9
f 60//2 62//2 52//9
f 60//5 46//3 64//4
f 55//9 53//9 57//9
f 61//17 66//17 56//17
f 50//12 62//8 61//7
f 67//32 58//33 56//32
f 57//9 52//9 62//2
f 65//44 54//49 58//44
f 59//20 63//20 68//20
f 63//24 51//23 69//24
f 68//14 64//14 59//14
f 65//37 69//24 51//23
f 62//2 60//2 70//1
f 64//1 70//1 60//2
f 71//17 56//17 66//17
f 66//11 61//11 70//11
f 70//7 61//7 62//8
f 58//44 67//45 65//44
f 71//28 67//28 56//28
f 72//20 68//20 63//20
f 69//25 72//25 63//25
f 68//6 66//6 64//6
f 69//45 65//44 67//45
f 70//6 64//6 66//6
f 66//16 68//16 71//16
f 67//27 71//27 69//27
f 72//16 71//16 68//16
f 72//27 69//27 71//27
