# SSTK version 0.8.0
# 12
mtllib original-12.mtl
o Group_6_2/Group_6_1_2/mesh35/mesh35-geometry#mesh35-geometry
v 0.480973 0.028425 -0.017071
v 0.484198 0.028322 -0.019250
v 0.483486 0.028600 -0.013361
v 0.483790 0.028996 -0.019853
v 0.486808 0.028494 -0.015606
v 0.482737 0.029325 -0.012888
v 0.480432 0.029103 -0.017584
v 0.484231 0.028980 -0.020186
v 0.483730 0.029333 -0.012713
v 0.484682 0.028305 -0.019615
v 0.480225 0.029150 -0.016598
v 0.483790 0.041610 -0.020450
v 0.484231 0.041595 -0.020783
v 0.487217 0.029222 -0.015069
v 0.485071 0.028288 -0.019975
v 0.480061 0.042025 -0.011676
v 0.477548 0.041850 -0.015386
v 0.477755 0.041803 -0.016372
v 0.484569 0.041580 -0.021096
v 0.484569 0.028965 -0.020500
v 0.481054 0.042033 -0.011501
v 0.487565 0.028467 -0.016178
v 0.485468 0.028267 -0.020420
v 0.477999 0.042536 -0.015724
v 0.484198 0.042338 -0.019913
v 0.484682 0.042321 -0.020278
v 0.487216 0.041837 -0.015665
v 0.486621 0.028179 -0.022273
v 0.488016 0.029193 -0.015673
v 0.485866 0.028241 -0.020952
v 0.484925 0.028946 -0.020897
v 0.480512 0.042712 -0.012014
v 0.485070 0.042304 -0.020638
v 0.486808 0.042510 -0.016269
v 0.486253 0.028212 -0.021571
v 0.486960 0.028142 -0.023053
v 0.488274 0.028436 -0.016834
v 0.485286 0.028923 -0.021381
v 0.484925 0.041561 -0.021494
v 0.487565 0.042483 -0.016841
v 0.488016 0.041808 -0.016270
v 0.485987 0.028865 -0.022608
v 0.487263 0.028102 -0.023906
v 0.486307 0.028831 -0.023344
v 0.488775 0.029160 -0.016376
v 0.485644 0.028896 -0.021953
v 0.485468 0.042283 -0.021083
v 0.486621 0.042195 -0.022936
v 0.486594 0.028792 -0.024152
v 0.487523 0.028058 -0.024822
v 0.488944 0.028401 -0.017583
v 0.485286 0.041538 -0.021978
v 0.485866 0.042258 -0.021615
v 0.488274 0.042452 -0.017497
v 0.486960 0.042158 -0.023716
v 0.486253 0.042228 -0.022234
v 0.488775 0.041775 -0.016972
v 0.485644 0.041511 -0.022549
v 0.485987 0.041480 -0.023205
v 0.486842 0.028751 -0.025025
v 0.486307 0.041445 -0.023940
v 0.487734 0.028012 -0.025793
v 0.487893 0.027964 -0.026811
v 0.489488 0.029123 -0.017172
v 0.487263 0.042118 -0.024568
v 0.489488 0.041737 -0.017769
v 0.486594 0.041407 -0.024748
v 0.487044 0.028707 -0.025955
v 0.488003 0.027911 -0.027937
v 0.489570 0.028361 -0.018421
v 0.488944 0.042417 -0.018246
v 0.487523 0.042075 -0.025485
v 0.486842 0.041366 -0.025622
v 0.487197 0.028661 -0.026932
v 0.491140 0.025770 -0.073208
v 0.487304 0.028609 -0.028028
v 0.490149 0.041695 -0.018655
v 0.490149 0.029081 -0.018058
v 0.487893 0.041980 -0.027474
v 0.487734 0.042029 -0.026456
v 0.489570 0.042377 -0.019084
v 0.487044 0.041322 -0.026552
v 0.490441 0.026469 -0.073290
v 0.490147 0.028318 -0.019342
v 0.488003 0.041927 -0.028599
v 0.491140 0.039786 -0.073871
v 0.487197 0.041275 -0.027529
v 0.496314 0.026488 -0.072884
v 0.490121 0.029252 -0.068796
v 0.490756 0.041649 -0.019623
v 0.490146 0.042334 -0.020005
v 0.490669 0.028270 -0.020341
v 0.490756 0.029035 -0.019027
v 0.487304 0.041224 -0.028625
v 0.496314 0.029053 -0.073005
v 0.495614 0.025785 -0.072899
v 0.490441 0.029034 -0.073411
v 0.491134 0.028220 -0.021411
v 0.490440 0.039083 -0.073886
v 0.490669 0.042286 -0.021004
v 0.495994 0.029271 -0.068390
v 0.492472 0.027929 -0.027564
v 0.493171 0.028632 -0.027539
v 0.490121 0.036736 -0.069150
v 0.491303 0.041600 -0.020668
v 0.491303 0.028985 -0.020072
v 0.491537 0.028166 -0.022544
v 0.495614 0.039801 -0.073562
v 0.491134 0.042236 -0.022074
v 0.492344 0.027991 -0.026248
v 0.495994 0.036755 -0.068744
v 0.491787 0.028933 -0.021187
v 0.491874 0.028110 -0.023734
v 0.490441 0.036518 -0.073765
v 0.492472 0.041945 -0.028227
v 0.496314 0.039102 -0.073480
v 0.491537 0.042182 -0.023207
v 0.493040 0.028696 -0.026193
v 0.492144 0.028051 -0.024971
v 0.491787 0.041547 -0.021783
v 0.492206 0.028877 -0.022364
v 0.492343 0.042007 -0.026910
v 0.493171 0.041247 -0.028136
v 0.491874 0.042126 -0.024397
v 0.492834 0.028758 -0.024875
v 0.496314 0.036537 -0.073359
v 0.492206 0.041492 -0.022961
v 0.492555 0.028819 -0.023597
v 0.492144 0.042068 -0.025634
v 0.493040 0.041311 -0.026789
v 0.492555 0.041433 -0.024193
v 0.492834 0.041373 -0.025472
vn 0.000005528758020102741 -0.9988835804824934 0.04723973551902086
vn -0.4113752493139277 -0.7336159078845558 -0.540904893627912
vn -0.39620871474786057 -0.734000078015416 -0.5515999817179217
vn -0.5079177601995998 -0.7728008284128164 0.3805238868695194
vn -0.45386774680391295 -0.732362936545238 -0.5075909746892424
vn 0.39621653374500726 -0.6786630310492977 0.6184083995824053
vn 0.4113830696533492 -0.6792897461851538 0.6077247820603473
vn -0.1294810469773765 -0.6320622843668823 0.7640235121739126
vn -0.5818893459456672 -0.03842177727445523 -0.812359868596422
vn -0.5603407440445644 -0.03912998117692168 -0.8273373526782638
vn -0.7288499504439095 -0.6739038337894832 -0.12096021057251527
vn -0.6422874569170435 -0.03621109630589634 -0.7656079800990596
vn -0.17119270547637008 -0.12930076893923795 0.976716114714712
vn -0.8024293284434241 -0.22198374182775443 0.5539227303676793
vn -0.9636062181700517 -0.1846323691801083 -0.19332341957184315
vn -0.7136445268773612 -0.033095754851906835 -0.6997257750496045
vn -0.5043314965500427 -0.7301080580490007 -0.46107696229535405
vn 0.5603407440445644 0.03912998117692168 0.8273373526782638
vn 0.5818893459456672 0.03842177727445523 0.812359868596422
vn 0.4538755707025777 -0.6811858652820248 0.5744412792091009
vn -0.39621653374500726 0.6786630310492977 -0.6184083995824053
vn -0.4113830696533492 0.6792897461851538 -0.6077247820603473
vn -0.4538755707025777 0.6811858652820248 -0.5744412792091009
vn -0.5043393198362863 0.6833302063936287 -0.5279220392227558
vn -0.5472782585446323 -0.7277975862817861 -0.4132761560104339
vn -0.15299217517352634 0.5156921010489445 0.8430035891094403
vn -0.6542606338084237 0.6334628380990012 0.41311966280505064
vn -0.8611510136941016 0.46622317893051984 -0.20262003613054147
vn -0.774359665796333 -0.0298950154935485 -0.6320390779346098
vn 0.4113752493139277 0.7336159078845558 0.540904893627912
vn 0.39620871474786057 0.734000078015416 0.5515999817179217
vn 0.6422874569170435 0.03621109630589634 0.7656079800990596
vn 0.5043393198362863 -0.6833302063936287 0.5279220392227558
vn -0.583347799718531 -0.7254804980688425 -0.3652169101853483
vn -0.000005528758020102741 0.9988835804824934 -0.04723973551902086
vn -0.547286081277183 0.6855407252604458 -0.4801165059125198
vn 0.45386774680391295 0.732362936545238 0.5075909746892424
vn -0.6378348988262649 -0.7209515785280283 -0.27091597084194363
vn -0.6132832894854574 -0.7231913941001371 -0.31761267974908813
vn -0.657703375406595 -0.7187719369275444 -0.2253734071806117
vn -0.8253433838495456 -0.026677582669219584 -0.5640005366298059
vn 0.7136445268773612 0.033095754851906835 0.6997257750496045
vn -0.6735066490178645 -0.7166567897119211 -0.18108517191788645
vn 0.547286081277183 -0.6855407252604458 0.4801165059125198
vn -0.8676503966846042 -0.023491198070762154 -0.4966195251359428
vn -0.5833556219598621 0.6877691231431557 -0.4320530656976261
vn 0.5043314965500427 0.7301080580490007 0.46107696229535405
vn -0.9023449613506699 -0.020365998169115548 -0.43053315417472054
vn -0.930418372329857 -0.017318462859033858 -0.3660897748848767
vn -0.6857730848390616 -0.7146038980722916 -0.13804544530770646
vn -0.9527463588671634 -0.014355133213350546 -0.3034275956728212
vn -0.6577111965937037 0.6942872719600106 -0.2922005576134386
vn -0.6378427202997615 0.6921593713142907 -0.3377455682350344
vn -0.6132911113074779 0.6899825065040314 -0.3844452542425944
vn 0.774359665796333 0.0298950154935485 0.6320390779346098
vn -0.9700742942618554 -0.011475556504785371 -0.24253695639070877
vn -0.6949350803076634 -0.712611163430851 -0.09617985190002315
vn 0.5833556219598621 -0.6877691231431557 0.4320530656976261
vn 0.5472782585446323 0.7277975862817861 0.4132761560104339
vn -0.6735144699760585 0.6963610480623963 -0.24791036580649453
vn -0.7013424006456866 -0.7106709086965951 -0.0553687329537269
vn -0.9830167190264527 -0.008674677095691355 -0.1833108837242179
vn -0.7046170795091955 -0.7091370249892005 -0.02528736944401096
vn 0.8253433838495456 0.026677582669219584 0.5640005366298059
vn -0.6857809056040811 0.6983790142015904 -0.20486898748141727
vn 0.583347799718531 0.7254804980688425 0.3652169101853483
vn -0.9920657723002256 -0.0059444554904449325 -0.12557932504707647
vn -0.7054100437551925 -0.708632808719516 -0.015369208684489552
vn 0.6132911113074779 -0.6899825065040314 0.3844452542425944
vn -0.6949429009308832 0.7003460954983798 -0.1630021808625361
vn -0.9965410798109731 -0.0039312011640769105 -0.08300856526038346
vn 0.06905426190988255 -0.047126588433513826 -0.9964991688780778
vn -0.997612981536463 -0.0032675624552580026 -0.06897580811799045
vn 0.8676503966846042 0.023491198070762154 0.4966195251359428
vn 0.6132832894854574 0.7231913941001371 0.31761267974908813
vn -0.7046248987907894 0.7035777624347205 -0.09209823131538249
vn -0.7013502211561614 0.7022659379359387 -0.1221900965674376
vn 0.6378427202997615 -0.6921593713142907 0.3377455682350344
vn -0.7054178626484474 0.7040118042444365 -0.08217675182793253
vn 0.997612981536463 0.0032675624552580026 0.06897580811799045
vn 0.7054178626484474 -0.7040118042444365 0.08217675182793253
vn 0.7046248987907894 -0.7035777624347205 0.09209823131538249
vn 0.9023449613506699 0.020365998169115548 0.43053315417472054
vn 0.6378348988262649 0.7209515785280283 0.27091597084194363
vn 0.6577111965937037 -0.6942872719600106 0.2922005576134386
vn 0.9965410798109731 0.0039312011640769105 0.08300856526038346
vn 0.6735144699760585 -0.6963610480623963 0.24791036580649453
vn 0.657703375406595 0.7187719369275444 0.2253734071806117
vn 0.7013502211561614 -0.7022659379359387 0.1221900965674376
vn 0.930418372329857 0.017318462859033858 0.3660897748848767
vn 0.6857809056040811 -0.6983790142015904 0.20486898748141727
vn 0.7046170795091955 0.7091370249892005 0.02528736944401096
vn 0.7054100437551925 0.708632808719516 0.015369208684489552
vn 0.6735066490178645 0.7166567897119211 0.18108517191788645
vn 0.9920657723002256 0.0059444554904449325 0.12557932504707647
vn 0.6949429009308832 -0.7003460954983798 0.1630021808625361
vn 0.9527463588671634 0.014355133213350546 0.3034275956728212
vn 0.7013424006456866 0.7106709086965951 0.0553687329537269
vn 0.6857730848390616 0.7146038980722916 0.13804544530770646
vn 0.9830167190264527 0.008674677095691355 0.1833108837242179
vn 0.9700742942618554 0.011475556504785371 0.24253695639070877
vn 0.6949350803076634 0.712611163430851 0.09617985190002315
vn 0.5079177601995998 0.7728008284128164 -0.3805238868695194
vn 0.1294810469773765 0.6320622843668823 -0.7640235121739126
vn 0.7288499504439095 0.6739038337894832 0.12096021057251527
vn 0.17119270547637008 0.12930076893923795 -0.976716114714712
vn 0.8024293284434241 0.22198374182775443 -0.5539227303676793
vn 0.9636062181700517 0.1846323691801083 0.19332341957184315
vn 0.15299217517352634 -0.5156921010489445 -0.8430035891094403
vn 0.6542606338084237 -0.6334628380990012 -0.41311966280505064
vn 0.8611510136941016 -0.46622317893051984 0.20262003613054147
vn -0.06905426190988255 0.047126588433513826 0.9964991688780778
usemtl material_0_0
f 1//1 2//1 3//1
f 2//2 1//3 4//2
f 5//1 3//1 2//1
f 3//4 6//4 1//4
f 7//3 4//2 1//3
f 4//2 8//5 2//2
f 3//6 5//7 9//6
f 10//1 5//1 2//1
f 6//8 3//8 9//8
f 11//4 1//4 6//4
f 4//9 7//10 12//9
f 7//11 1//11 11//11
f 8//12 4//9 13//12
f 10//5 2//2 8//5
f 14//7 9//6 5//7
f 15//1 5//1 10//1
f 6//13 9//13 16//13
f 11//14 6//14 17//14
f 18//10 12//9 7//10
f 12//9 13//12 4//9
f 7//15 11//15 18//15
f 13//12 19//16 8//12
f 8//5 20//17 10//5
f 9//18 14//19 21//18
f 5//7 22//20 14//7
f 23//1 5//1 15//1
f 15//17 10//5 20//17
f 21//13 16//13 9//13
f 16//14 17//14 6//14
f 17//15 18//15 11//15
f 18//21 24//21 12//22
f 12//22 25//22 13//23
f 13//23 26//23 19//24
f 20//16 8//12 19//16
f 27//19 21//18 14//19
f 22//1 5//1 28//1
f 29//20 14//7 22//20
f 30//1 5//1 23//1
f 23//25 15//17 31//25
f 20//17 31//25 15//17
f 16//26 21//26 32//26
f 16//27 32//27 17//27
f 24//28 18//28 17//28
f 25//22 12//22 24//21
f 26//23 13//23 25//22
f 33//24 19//24 26//23
f 20//16 19//16 31//29
f 27//30 34//30 21//31
f 14//19 29//32 27//19
f 28//1 5//1 35//1
f 36//1 22//1 28//1
f 22//20 37//33 29//20
f 35//1 5//1 30//1
f 30//34 23//25 38//34
f 31//25 38//34 23//25
f 32//31 21//31 34//30
f 24//27 17//27 32//27
f 24//35 32//35 25//35
f 26//35 25//35 34//35
f 19//24 33//24 39//36
f 33//35 26//35 34//35
f 39//29 31//29 19//16
f 34//30 27//30 40//37
f 41//32 27//19 29//32
f 28//38 35//39 42//38
f 43//1 22//1 36//1
f 36//40 28//38 44//40
f 37//1 22//1 43//1
f 45//33 29//20 37//33
f 35//39 30//34 46//39
f 38//34 46//39 30//34
f 31//29 39//29 38//41
f 34//35 25//35 32//35
f 47//36 39//36 33//24
f 47//35 33//35 34//35
f 41//37 40//37 27//30
f 40//35 48//35 34//35
f 29//32 45//42 41//32
f 46//39 42//38 35//39
f 42//38 44//40 28//38
f 43//43 36//40 49//43
f 44//40 49//43 36//40
f 50//1 37//1 43//1
f 37//33 51//44 45//33
f 38//41 52//41 46//45
f 52//41 38//41 39//29
f 39//36 47//36 52//46
f 53//35 47//35 34//35
f 40//37 41//37 54//47
f 55//35 48//35 40//35
f 48//35 56//35 34//35
f 57//42 41//32 45//42
f 46//45 58//45 42//48
f 42//48 59//48 44//49
f 49//43 60//50 43//43
f 44//49 61//49 49//51
f 62//1 37//1 50//1
f 50//50 43//43 60//50
f 51//1 37//1 63//1
f 64//44 45//33 51//44
f 58//45 46//45 52//41
f 53//46 52//46 47//36
f 56//35 53//35 34//35
f 57//47 54//47 41//37
f 54//35 65//35 40//35
f 55//52 61//52 48//53
f 65//35 55//35 40//35
f 48//53 59//53 56//54
f 57//42 45//42 66//55
f 59//48 42//48 58//45
f 61//49 44//49 59//48
f 49//51 67//51 60//56
f 67//51 49//51 61//49
f 63//1 37//1 62//1
f 62//57 50//50 68//57
f 60//50 68//57 50//50
f 69//1 51//1 63//1
f 64//55 66//55 45//42
f 51//44 70//58 64//44
f 52//46 53//46 58//54
f 56//54 58//54 53//46
f 54//47 57//47 71//59
f 72//35 65//35 54//35
f 61//52 55//52 67//60
f 59//53 48//53 61//52
f 65//60 67//60 55//52
f 58//54 56//54 59//53
f 66//59 71//59 57//47
f 73//56 60//56 67//51
f 63//61 62//57 74//61
f 68//57 74//61 62//57
f 60//56 73//56 68//62
f 75//1 51//1 69//1
f 69//63 63//61 76//63
f 66//55 64//55 77//64
f 70//1 51//1 75//1
f 78//58 64//44 70//58
f 71//35 79//35 54//35
f 72//65 73//65 65//60
f 80//35 72//35 54//35
f 67//60 65//60 73//65
f 71//59 66//59 81//66
f 74//61 76//63 63//61
f 68//62 82//62 74//67
f 82//62 68//62 73//56
f 75//68 69//63 83//68
f 76//63 83//68 69//63
f 78//64 77//64 64//55
f 77//66 81//66 66//59
f 84//1 70//1 75//1
f 70//58 84//69 78//58
f 85//35 79//35 71//35
f 79//35 80//35 54//35
f 73//65 72//65 82//70
f 80//70 82//70 72//65
f 81//35 86//35 71//35
f 74//67 87//67 76//71
f 87//67 74//67 82//62
f 83//72 88//72 75//72
f 76//71 89//73 83//73
f 77//64 78//64 90//74
f 81//66 77//66 91//75
f 92//1 84//1 75//1
f 93//69 78//58 84//69
f 85//76 94//76 79//77
f 86//35 85//35 71//35
f 79//77 87//77 80//70
f 82//70 80//70 87//77
f 91//35 86//35 81//35
f 94//71 76//71 87//67
f 95//72 88//72 83//72
f 96//72 75//72 88//72
f 94//71 89//73 76//71
f 97//73 83//73 89//73
f 93//74 90//74 78//64
f 90//75 91//75 77//66
f 84//69 92//78 93//69
f 98//1 92//1 75//1
f 94//76 85//76 99//79
f 87//77 79//77 94//76
f 86//79 99//79 85//76
f 100//35 86//35 91//35
f 95//80 101//80 88//80
f 97//72 95//72 83//72
f 96//1 102//1 75//1
f 88//81 103//82 96//81
f 89//73 94//71 104//73
f 89//35 101//35 97//35
f 90//74 93//74 105//83
f 91//75 90//75 100//84
f 106//78 93//69 92//78
f 92//78 98//85 106//78
f 107//1 98//1 75//1
f 94//71 99//73 104//73
f 86//72 108//72 99//72
f 109//35 86//35 100//35
f 95//35 97//35 101//35
f 103//86 88//80 101//80
f 102//82 96//81 103//82
f 102//1 110//1 75//1
f 104//72 111//72 89//72
f 101//72 89//72 111//72
f 106//83 105//83 93//74
f 105//84 100//84 90//75
f 112//85 106//78 98//85
f 98//85 107//87 112//85
f 113//1 107//1 75//1
f 114//73 104//73 99//73
f 108//35 86//35 115//35
f 108//72 116//72 99//72
f 117//35 86//35 109//35
f 100//84 105//84 109//88
f 111//80 103//86 101//80
f 103//82 118//89 102//82
f 110//89 102//82 118//89
f 110//1 119//1 75//1
f 104//1 114//1 111//1
f 105//83 106//83 120//90
f 112//90 120//90 106//83
f 121//87 112//85 107//87
f 107//87 113//91 121//87
f 119//1 113//1 75//1
f 99//72 116//72 114//72
f 115//35 86//35 122//35
f 115//92 123//92 108//93
f 116//93 108//93 123//92
f 124//35 86//35 117//35
f 109//88 120//88 117//94
f 120//88 109//88 105//84
f 103//86 111//80 123//86
f 103//86 123//86 118//95
f 118//89 125//96 110//89
f 119//96 110//89 125//96
f 126//1 111//1 114//1
f 120//90 112//90 127//97
f 121//97 127//97 112//90
f 128//91 121//87 113//91
f 113//91 119//96 128//91
f 126//72 114//72 116//72
f 122//35 86//35 129//35
f 122//98 130//98 115//92
f 123//92 115//92 130//98
f 123//86 111//80 116//80
f 129//35 86//35 124//35
f 117//94 127//94 124//99
f 127//94 117//94 120//88
f 130//95 118//95 123//86
f 118//95 130//95 125//100
f 125//96 128//91 119//96
f 126//80 116//80 111//80
f 127//97 121//97 131//101
f 128//101 131//101 121//97
f 129//102 132//102 122//98
f 130//98 122//98 132//102
f 124//99 131//99 129//102
f 131//99 124//99 127//94
f 132//100 125//100 130//95
f 125//100 132//100 128//101
f 131//101 128//101 132//100
f 132//102 129//102 131//99
usemtl material_1_0
f 3//35 2//35 1//35
f 4//30 1//31 2//30
f 2//35 3//35 5//35
f 1//103 6//103 3//103
f 1//31 4//30 7//31
f 2//30 8//37 4//30
f 9//21 5//22 3//21
f 2//35 5//35 10//35
f 9//104 3//104 6//104
f 6//103 1//103 11//103
f 12//19 7//18 4//19
f 11//105 1//105 7//105
f 13//32 4//19 8//32
f 8//37 2//30 10//37
f 5//22 9//21 14//22
f 10//35 5//35 15//35
f 16//106 9//106 6//106
f 17//107 6//107 11//107
f 7//18 12//19 18//18
f 4//19 13//32 12//19
f 18//108 11//108 7//108
f 8//32 19//42 13//32
f 10//37 20//47 8//37
f 21//10 14//9 9//10
f 14//22 22//23 5//22
f 15//35 5//35 23//35
f 20//47 10//37 15//47
f 9//106 16//106 21//106
f 6//107 17//107 16//107
f 11//108 18//108 17//108
f 12//7 24//6 18//6
f 13//20 25//7 12//7
f 19//33 26//20 13//20
f 19//42 8//32 20//42
f 14//9 21//10 27//9
f 28//35 5//35 22//35
f 22//23 14//22 29//23
f 23//35 5//35 30//35
f 31//59 15//47 23//59
f 15//47 31//59 20//47
f 32//109 21//109 16//109
f 17//110 32//110 16//110
f 17//111 18//111 24//111
f 24//6 12//7 25//7
f 25//7 13//20 26//20
f 26//20 19//33 33//33
f 31//55 19//42 20//42
f 21//3 34//2 27//2
f 27//9 29//12 14//9
f 35//35 5//35 28//35
f 28//35 22//35 36//35
f 29//23 37//24 22//23
f 30//35 5//35 35//35
f 38//66 23//59 30//66
f 23//59 38//66 31//59
f 34//2 21//3 32//3
f 32//110 17//110 24//110
f 25//1 32//1 24//1
f 34//1 25//1 26//1
f 39//44 33//33 19//33
f 34//1 26//1 33//1
f 19//42 31//55 39//55
f 40//5 27//2 34//2
f 29//12 27//9 41//12
f 42//84 35//75 28//84
f 36//35 22//35 43//35
f 44//88 28//84 36//88
f 43//35 22//35 37//35
f 37//24 29//23 45//24
f 46//75 30//66 35//75
f 30//66 46//75 38//66
f 38//64 39//55 31//55
f 32//1 25//1 34//1
f 33//33 39//44 47//44
f 34//1 33//1 47//1
f 27//2 40//5 41//5
f 34//1 48//1 40//1
f 41//12 45//16 29//12
f 35//75 42//84 46//75
f 28//84 44//88 42//84
f 49//94 36//88 43//94
f 36//88 49//94 44//88
f 43//35 37//35 50//35
f 45//24 51//36 37//24
f 46//74 52//64 38//64
f 39//55 38//64 52//64
f 52//58 47//44 39//44
f 34//1 47//1 53//1
f 54//17 41//5 40//5
f 40//1 48//1 55//1
f 34//1 56//1 48//1
f 45//16 41//12 57//16
f 42//83 58//74 46//74
f 44//90 59//83 42//83
f 43//94 60//99 49//94
f 49//97 61//90 44//90
f 50//35 37//35 62//35
f 60//99 43//94 50//99
f 63//35 37//35 51//35
f 51//36 45//24 64//36
f 52//64 46//74 58//74
f 47//44 52//58 53//58
f 34//1 53//1 56//1
f 41//5 54//17 57//17
f 40//1 65//1 54//1
f 48//78 61//85 55//85
f 40//1 55//1 65//1
f 56//69 59//78 48//78
f 66//29 45//16 57//16
f 58//74 42//83 59//83
f 59//83 44//90 61//90
f 60//101 67//97 49//97
f 61//90 49//97 67//97
f 62//35 37//35 63//35
f 68//102 50//99 62//102
f 50//99 68//102 60//99
f 63//35 51//35 69//35
f 45//16 66//29 64//29
f 64//36 70//46 51//36
f 58//69 53//58 52//58
f 53//58 58//69 56//69
f 71//25 57//17 54//17
f 54//1 65//1 72//1
f 67//87 55//85 61//85
f 61//85 48//78 59//78
f 55//85 67//87 65//87
f 59//78 56//69 58//69
f 57//17 71//25 66//25
f 67//97 60//101 73//101
f 74//98 62//102 63//98
f 62//102 74//98 68//102
f 68//100 73//101 60//101
f 69//35 51//35 75//35
f 76//92 63//98 69//92
f 77//41 64//29 66//29
f 75//35 51//35 70//35
f 70//46 64//36 78//46
f 54//1 79//1 71//1
f 65//87 73//91 72//91
f 54//1 72//1 80//1
f 73//91 65//87 67//87
f 81//34 66//25 71//25
f 63//98 76//92 74//98
f 74//95 82//100 68//100
f 73//101 68//100 82//100
f 83//93 69//92 75//93
f 69//92 83//93 76//92
f 64//29 77//41 78//41
f 66//25 81//34 77//34
f 75//35 70//35 84//35
f 78//46 84//54 70//46
f 71//1 79//1 85//1
f 54//1 80//1 79//1
f 82//96 72//91 73//91
f 72//91 82//96 80//96
f 71//1 86//1 81//1
f 76//86 87//95 74//95
f 82//100 74//95 87//95
f 75//112 88//112 83//112
f 83//80 89//80 76//86
f 90//45 78//41 77//41
f 91//39 77//34 81//34
f 75//35 84//35 92//35
f 84//54 78//46 93//54
f 79//89 94//82 85//82
f 71//1 85//1 86//1
f 80//96 87//89 79//89
f 87//89 80//96 82//96
f 81//1 86//1 91//1
f 87//95 76//86 94//86
f 83//112 88//112 95//112
f 88//112 75//112 96//112
f 76//86 89//80 94//86
f 89//80 83//80 97//80
f 78//41 90//45 93//45
f 77//34 91//39 90//39
f 93//54 92//53 84//54
f 75//35 92//35 98//35
f 99//81 85//82 94//82
f 94//82 79//89 87//89
f 85//82 99//81 86//81
f 91//1 86//1 100//1
f 88//73 101//73 95//73
f 83//112 95//112 97//112
f 75//35 102//35 96//35
f 96//79 103//76 88//79
f 104//80 94//86 89//80
f 97//1 101//1 89//1
f 105//48 93//45 90//45
f 100//38 90//39 91//39
f 92//53 93//54 106//53
f 106//53 98//52 92//53
f 75//35 98//35 107//35
f 104//80 99//80 94//86
f 99//112 108//112 86//112
f 100//1 86//1 109//1
f 101//1 97//1 95//1
f 101//73 88//73 103//71
f 103//76 96//79 102//76
f 75//35 110//35 102//35
f 89//112 111//112 104//112
f 111//112 89//112 101//112
f 93//45 105//48 106//48
f 90//39 100//38 105//38
f 98//52 106//53 112//52
f 112//52 107//60 98//52
f 75//35 107//35 113//35
f 99//80 104//80 114//80
f 115//1 86//1 108//1
f 99//112 116//112 108//112
f 109//1 86//1 117//1
f 109//40 105//38 100//38
f 101//73 103//71 111//73
f 102//76 118//77 103//76
f 118//77 102//76 110//77
f 75//35 119//35 110//35
f 111//35 114//35 104//35
f 120//49 106//48 105//48
f 106//48 120//49 112//49
f 107//60 112//52 121//60
f 121//60 113//65 107//60
f 75//35 113//35 119//35
f 114//112 116//112 99//112
f 122//1 86//1 115//1
f 108//68 123//63 115//63
f 123//63 108//68 116//68
f 117//1 86//1 124//1
f 117//43 120//40 109//40
f 105//38 109//40 120//40
f 123//71 111//73 103//71
f 118//67 123//71 103//71
f 110//77 125//70 118//77
f 125//70 110//77 119//70
f 114//35 111//35 126//35
f 127//51 112//49 120//49
f 112//49 127//51 121//51
f 113//65 121//60 128//65
f 128//65 119//70 113//65
f 116//112 114//112 126//112
f 129//1 86//1 122//1
f 115//63 130//61 122//61
f 130//61 115//63 123//63
f 116//73 111//73 123//71
f 124//1 86//1 129//1
f 124//50 127//43 117//43
f 120//40 117//43 127//43
f 123//71 118//67 130//67
f 125//62 130//67 118//67
f 119//70 128//65 125//70
f 111//73 116//73 126//73
f 131//56 121//51 127//51
f 121//51 131//56 128//56
f 122//61 132//57 129//57
f 132//57 122//61 130//61
f 129//57 131//50 124//50
f 127//43 124//50 131//50
f 130//67 125//62 132//62
f 128//56 132//62 125//62
f 132//62 128//56 131//56
f 131//50 129//57 132//57
