# SSTK version 0.8.0
# 4
mtllib original-4.mtl
o mesh7/mesh7-geometry#mesh7-geometry
v -0.230691 0.130381 0.209615
v -0.207107 0.130381 0.302276
v -0.252061 0.130381 0.221510
v -0.185737 0.130381 0.290381
v -0.252061 0.143358 0.221510
v -0.185737 0.143358 0.290381
v -0.207107 0.143358 0.302276
v -0.230691 0.143358 0.209615
vn 0 -1 0
vn 0 1 0
vn -0.8737722297137891 0 0.48633536842491043
vn 0.8737722297137891 0 -0.48633536842491043
vn -0.48633536842491043 0 -0.8737722297137891
vn 0.48633536842491043 0 0.8737722297137891
usemtl material_0_0
f 1//1 2//1 3//1
f 2//1 1//1 4//1
f 3//2 2//2 1//2
f 4//2 1//2 2//2
f 2//3 5//3 3//3
f 3//4 5//4 2//4
f 5//5 1//5 3//5
f 3//6 1//6 5//6
f 1//4 6//4 4//4
f 4//3 6//3 1//3
f 6//6 2//6 4//6
f 4//5 2//5 6//5
f 5//3 2//3 7//3
f 7//4 2//4 5//4
f 1//5 5//5 8//5
f 8//6 5//6 1//6
f 6//4 1//4 8//4
f 8//3 1//3 6//3
f 2//6 6//6 7//6
f 7//5 6//5 2//5
f 6//2 5//2 7//2
f 7//1 5//1 6//1
f 5//2 6//2 8//2
f 8//1 6//1 5//1
