mtllib new-5.mtl
v -0.021881 0.299457 0.173872
v 0.023336 0.299457 0.173872
v -0.029152 0.108939 0.229107
v -0.065557 0.299457 0.162169
v 0.030608 0.108939 0.229107
v 0.067012 0.299457 0.162169
v -0.033731 0.000800 0.263885
v -0.086877 0.108939 0.213640
v -0.104715 0.299457 0.139560
v 0.035187 0.000800 0.263885
v 0.088332 0.108939 0.213640
v 0.106171 0.299457 0.139560
v -0.136688 0.299457 0.107587
v -0.100301 0.000800 0.246048
v -0.138631 0.108939 0.183760
v -0.180888 0.108939 0.141503
v -0.159297 0.299457 0.068428
v 0.101756 0.000800 0.246048
v 0.140087 0.108939 0.183760
v 0.138144 0.299457 0.107587
v -0.210769 0.108939 0.089749
v -0.159985 0.000800 0.211589
v -0.208717 0.000800 0.162857
v -0.243176 0.000800 0.103172
v -0.171000 0.299457 0.024752
v -0.226236 0.108939 0.032024
v 0.161440 0.000800 0.211589
v 0.182344 0.108939 0.141503
v 0.160752 0.299457 0.068428
v -0.261013 0.000800 0.036603
v -0.171000 0.299457 -0.020464
v -0.226236 0.108939 -0.027736
v -0.261013 0.000800 -0.032315
v 0.210172 0.000800 0.162857
v 0.212224 0.108939 0.089749
v 0.172455 0.299457 0.024752
v -0.159297 0.299457 -0.064140
v -0.210769 0.108939 -0.085461
v -0.243176 0.000800 -0.098884
v 0.244631 0.000800 0.103172
v 0.227691 0.108939 0.032024
v 0.172455 0.299457 -0.020464
v -0.136688 0.299457 -0.103299
v -0.180888 0.108939 -0.137215
v -0.208717 0.000800 -0.158569
v -0.210931 -0.017108 -0.160267
v 0.262469 0.000800 0.036603
v 0.227691 0.108939 -0.027736
v 0.160752 0.299457 -0.064140
v -0.104715 0.299457 -0.135272
v -0.138631 0.108939 -0.179472
v -0.159985 0.000800 -0.207301
v -0.161684 -0.017108 -0.209515
v 0.262469 0.000800 -0.032315
v 0.212224 0.108939 -0.085461
v 0.138144 0.299457 -0.103299
v 0.106171 0.299457 -0.135272
v 0.067012 0.299457 -0.157881
v -0.065557 0.299457 -0.157881
v -0.086877 0.108939 -0.209352
v -0.100301 0.000800 -0.241760
v -0.101368 -0.017108 -0.244338
v 0.244631 0.000800 -0.098884
v 0.182344 0.108939 -0.137215
v 0.140087 0.108939 -0.179472
v 0.088332 0.108939 -0.209352
v 0.023336 0.299457 -0.169584
v 0.030608 0.108939 -0.224820
v -0.021881 0.299457 -0.169584
v -0.029152 0.108939 -0.224820
v -0.033731 0.000800 -0.259597
v -0.034095 -0.017108 -0.262363
v 0.210172 0.000800 -0.158569
v 0.161440 0.000800 -0.207301
v 0.101756 0.000800 -0.241760
v 0.035187 0.000800 -0.259597
vn -0.126862 0.235293 0.963610
vn 0.126862 -0.235293 -0.963610
vn 0.126862 0.235293 0.963610
vn -0.126862 -0.235293 -0.963610
vn -0.124732 0.294642 0.947432
vn 0.124732 -0.294642 -0.947432
vn -0.371939 0.235293 0.897941
vn 0.371939 -0.235293 -0.897941
vn 0.124732 0.294642 0.947432
vn -0.124732 -0.294642 -0.947432
vn 0.371939 0.235293 0.897941
vn -0.371939 -0.235293 -0.897941
vn -0.126965 0.232012 0.964391
vn 0.126965 -0.232012 -0.964391
vn -0.365695 0.294642 0.882866
vn 0.365695 -0.294642 -0.882866
vn -0.591670 0.235293 0.771080
vn 0.591670 -0.235293 -0.771080
vn 0.126965 0.232012 0.964391
vn -0.126965 -0.232012 -0.964391
vn 0.365695 0.294642 0.882866
vn -0.365695 -0.294642 -0.882866
vn 0.591670 0.235293 0.771080
vn -0.591670 -0.235293 -0.771080
vn -0.771080 0.235293 0.591670
vn 0.771080 -0.235293 -0.591670
vn -0.372241 0.232012 0.898670
vn 0.372241 -0.232012 -0.898670
vn -0.581737 0.294642 0.758134
vn 0.581737 -0.294642 -0.758134
vn -0.758134 0.294642 0.581737
vn 0.758134 -0.294642 -0.581737
vn -0.897941 0.235293 0.371939
vn 0.897941 -0.235293 -0.371939
vn 0.372241 0.232012 0.898670
vn -0.372241 -0.232012 -0.898670
vn 0.581737 0.294642 0.758134
vn -0.581737 -0.294642 -0.758134
vn 0.771080 0.235293 0.591670
vn -0.771080 -0.235293 -0.591670
vn -0.882866 0.294642 0.365695
vn 0.882866 -0.294642 -0.365695
vn -0.592150 0.232012 0.771705
vn 0.592150 -0.232012 -0.771705
vn -0.771705 0.232012 0.592150
vn 0.771705 -0.232012 -0.592150
vn -0.898670 0.232012 0.372241
vn 0.898670 -0.232012 -0.372241
vn -0.963610 0.235293 0.126862
vn 0.963610 -0.235293 -0.126862
vn -0.947432 0.294642 0.124732
vn 0.947432 -0.294642 -0.124732
vn 0.592150 0.232012 0.771705
vn -0.592150 -0.232012 -0.771705
vn 0.758134 0.294642 0.581737
vn -0.758134 -0.294642 -0.581737
vn 0.897941 0.235293 0.371939
vn -0.897941 -0.235293 -0.371939
vn -0.964391 0.232012 0.126965
vn 0.964391 -0.232012 -0.126965
vn -0.963610 0.235293 -0.126862
vn 0.963610 -0.235293 0.126862
vn -0.947432 0.294642 -0.124732
vn 0.947432 -0.294642 0.124732
vn -0.964391 0.232012 -0.126965
vn 0.964391 -0.232012 0.126965
vn 0.771705 0.232012 0.592150
vn -0.771705 -0.232012 -0.592150
vn 0.882866 0.294642 0.365695
vn -0.882866 -0.294642 -0.365695
vn 0.963610 0.235293 0.126862
vn -0.963610 -0.235293 -0.126862
vn -0.897941 0.235293 -0.371939
vn 0.897941 -0.235293 0.371939
vn -0.882866 0.294642 -0.365695
vn 0.882866 -0.294642 0.365695
vn -0.898670 0.232012 -0.372241
vn 0.898670 -0.232012 0.372241
vn 0.898670 0.232012 0.372241
vn -0.898670 -0.232012 -0.372241
vn 0.947432 0.294642 0.124732
vn -0.947432 -0.294642 -0.124732
vn 0.963610 0.235293 -0.126862
vn -0.963610 -0.235293 0.126862
vn -0.771080 0.235293 -0.591670
vn 0.771080 -0.235293 0.591670
vn -0.758134 0.294642 -0.581737
vn 0.758134 -0.294642 0.581737
vn -0.771705 0.232012 -0.592150
vn 0.771705 -0.232012 0.592150
vn -0.793314 -0.009984 -0.608731
vn 0.793314 0.009984 0.608731
vn 0.964391 0.232012 0.126965
vn -0.964391 -0.232012 -0.126965
vn 0.947432 0.294642 -0.124732
vn -0.947432 -0.294642 0.124732
vn 0.897941 0.235293 -0.371939
vn -0.897941 -0.235293 0.371939
vn -0.591670 0.235293 -0.771080
vn 0.591670 -0.235293 0.771080
vn -0.581737 0.294642 -0.758134
vn 0.581737 -0.294642 0.758134
vn -0.592150 0.232012 -0.771705
vn 0.592150 -0.232012 0.771705
vn -0.608731 -0.009984 -0.793314
vn 0.608731 0.009984 0.793314
vn 0.964391 0.232012 -0.126965
vn -0.964391 -0.232012 0.126965
vn 0.882866 0.294642 -0.365695
vn -0.882866 -0.294642 0.365695
vn 0.771080 0.235293 -0.591670
vn -0.771080 -0.235293 0.591670
vn 0.591670 0.235293 -0.771080
vn -0.591670 -0.235293 0.771080
vn 0.371939 0.235293 -0.897941
vn -0.371939 -0.235293 0.897941
vn -0.371939 0.235293 -0.897941
vn 0.371939 -0.235293 0.897941
vn -0.365695 0.294642 -0.882866
vn 0.365695 -0.294642 0.882866
vn -0.372241 0.232012 -0.898670
vn 0.372241 -0.232012 0.898670
vn -0.382664 -0.009984 -0.923834
vn 0.382664 0.009984 0.923834
vn 0.898670 0.232012 -0.372241
vn -0.898670 -0.232012 0.372241
vn 0.758134 0.294642 -0.581737
vn -0.758134 -0.294642 0.581737
vn 0.581737 0.294642 -0.758134
vn -0.581737 -0.294642 0.758134
vn 0.365695 0.294642 -0.882866
vn -0.365695 -0.294642 0.882866
vn 0.126862 0.235293 -0.963610
vn -0.126862 -0.235293 0.963610
vn 0.124732 0.294642 -0.947432
vn -0.124732 -0.294642 0.947432
vn -0.126862 0.235293 -0.963610
vn 0.126862 -0.235293 0.963610
vn -0.124732 0.294642 -0.947432
vn 0.124732 -0.294642 0.947432
vn -0.126965 0.232012 -0.964391
vn 0.126965 -0.232012 0.964391
vn -0.130520 -0.009984 -0.991395
vn 0.130520 0.009984 0.991395
vn 0.771705 0.232012 -0.592150
vn -0.771705 -0.232012 0.592150
vn 0.592150 0.232012 -0.771705
vn -0.592150 -0.232012 0.771705
vn 0.372241 0.232012 -0.898670
vn -0.372241 -0.232012 0.898670
vn 0.126965 0.232012 -0.964391
vn -0.126965 -0.232012 0.964391
usemtl material-0
f 3//5 2//3 1//1
f 1//2 2//4 3//6
f 2//3 3//5 5//9
f 5//10 3//6 2//4
f 4//7 3//5 1//1
f 1//2 3//6 4//8
f 7//13 5//9 3//5
f 3//6 5//10 7//14
f 5//9 6//11 2//3
f 2//4 6//12 5//10
f 3//5 4//7 8//15
f 8//16 4//8 3//6
f 5//9 7//13 10//19
f 10//20 7//14 5//10
f 8//15 7//13 3//5
f 3//6 7//14 8//16
f 6//11 5//9 11//21
f 11//22 5//10 6//12
f 9//17 8//15 4//7
f 4//8 8//16 9//18
f 10//19 11//21 5//9
f 5//10 11//22 10//20
f 7//13 8//15 14//27
f 14//28 8//16 7//14
f 11//21 12//23 6//11
f 6//12 12//24 11//22
f 8//15 9//17 15//29
f 15//30 9//18 8//16
f 16//31 9//17 13//25
f 13//26 9//18 16//32
f 11//21 10//19 18//35
f 18//36 10//20 11//22
f 15//29 14//27 8//15
f 8//16 14//28 15//30
f 12//23 11//21 19//37
f 19//38 11//22 12//24
f 9//17 16//31 15//29
f 15//30 16//32 9//18
f 13//25 21//41 16//31
f 16//32 21//42 13//26
f 21//41 13//25 17//33
f 17//34 13//26 21//42
f 18//35 19//37 11//21
f 11//22 19//38 18//36
f 14//27 15//29 22//43
f 22//44 15//30 14//28
f 19//37 20//39 12//23
f 12//24 20//40 19//38
f 23//45 15//29 16//31
f 16//32 15//30 23//46
f 24//47 16//31 21//41
f 21//42 16//32 24//48
f 17//33 26//51 21//41
f 21//42 26//52 17//34
f 19//37 18//35 27//53
f 27//54 18//36 19//38
f 15//29 23//45 22//43
f 22//44 23//46 15//30
f 20//39 19//37 28//55
f 28//56 19//38 20//40
f 16//31 24//47 23//45
f 23//46 24//48 16//32
f 21//41 30//59 24//47
f 24//48 30//60 21//42
f 26//51 17//33 25//49
f 25//50 17//34 26//52
f 30//59 21//41 26//51
f 26//52 21//42 30//60
f 27//53 28//55 19//37
f 19//38 28//56 27//54
f 28//55 29//57 20//39
f 20//40 29//58 28//56
f 25//49 32//63 26//51
f 26//52 32//64 25//50
f 26//51 33//65 30//59
f 30//60 33//66 26//52
f 28//55 27//53 34//67
f 34//68 27//54 28//56
f 29//57 28//55 35//69
f 35//70 28//56 29//58
f 32//63 25//49 31//61
f 31//62 25//50 32//64
f 33//65 26//51 32//63
f 32//64 26//52 33//66
f 34//67 35//69 28//55
f 28//56 35//70 34//68
f 35//69 36//71 29//57
f 29//58 36//72 35//70
f 31//61 38//75 32//63
f 32//64 38//76 31//62
f 32//63 39//77 33//65
f 33//66 39//78 32//64
f 35//69 34//67 40//79
f 40//80 34//68 35//70
f 36//71 35//69 41//81
f 41//82 35//70 36//72
f 38//75 31//61 37//73
f 37//74 31//62 38//76
f 39//77 32//63 38//75
f 38//76 32//64 39//78
f 40//79 41//81 35//69
f 35//70 41//82 40//80
f 41//81 42//83 36//71
f 36//72 42//84 41//82
f 37//73 44//87 38//75
f 38//76 44//88 37//74
f 38//75 45//89 39//77
f 39//78 45//90 38//76
f 41//81 40//79 47//93
f 47//94 40//80 41//82
f 42//83 41//81 48//95
f 48//96 41//82 42//84
f 44//87 37//73 43//85
f 43//86 37//74 44//88
f 45//89 38//75 44//87
f 44//88 38//76 45//90
f 47//93 48//95 41//81
f 41//82 48//96 47//94
f 48//95 49//97 42//83
f 42//84 49//98 48//96
f 43//85 51//101 44//87
f 44//88 51//102 43//86
f 44//87 52//103 45//89
f 45//90 52//104 44//88
f 45//89 53//105 46//91
f 46//92 53//106 45//90
f 48//95 47//93 54//107
f 54//108 47//94 48//96
f 49//97 48//95 55//109
f 55//110 48//96 49//98
f 51//101 43//85 50//99
f 50//100 43//86 51//102
f 52//103 44//87 51//101
f 51//102 44//88 52//104
f 54//107 55//109 48//95
f 48//96 55//110 54//108
f 55//109 56//111 49//97
f 49//98 56//112 55//110
f 50//99 60//119 51//101
f 51//102 60//120 50//100
f 51//101 61//121 52//103
f 52//104 61//122 51//102
f 55//109 54//107 63//125
f 63//126 54//108 55//110
f 56//111 55//109 64//127
f 64//128 55//110 56//112
f 56//111 65//129 57//113
f 57//114 65//130 56//112
f 57//113 66//131 58//115
f 58//116 66//132 57//114
f 60//119 50//99 59//117
f 59//118 50//100 60//120
f 61//121 51//101 60//119
f 60//120 51//102 61//122
f 62//123 52//103 61//121
f 61//122 52//104 62//124
f 63//125 64//127 55//109
f 55//110 64//128 63//126
f 65//129 56//111 64//127
f 64//128 56//112 65//130
f 66//131 57//113 65//129
f 65//130 57//114 66//132
f 68//135 58//115 66//131
f 66//132 58//116 68//136
f 59//117 70//139 60//119
f 60//120 70//140 59//118
f 60//119 71//141 61//121
f 61//122 71//142 60//120
f 64//127 63//125 73//145
f 73//146 63//126 64//128
f 64//127 74//147 65//129
f 65//130 74//148 64//128
f 65//129 75//149 66//131
f 66//132 75//150 65//130
f 58//115 68//135 67//133
f 67//134 68//136 58//116
f 66//131 76//151 68//135
f 68//136 76//152 66//132
f 70//139 59//117 69//137
f 69//138 59//118 70//140
f 71//141 60//119 70//139
f 70//140 60//120 71//142
f 72//143 61//121 71//141
f 71//142 61//122 72//144
f 74//147 64//127 73//145
f 73//146 64//128 74//148
f 75//149 65//129 74//147
f 74//148 65//130 75//150
f 76//151 66//131 75//149
f 75//150 66//132 76//152
f 70//139 67//133 68//135
f 68//136 67//134 70//140
f 71//141 68//135 76//151
f 76//152 68//136 71//142
f 67//133 70//139 69//137
f 69//138 70//140 67//134
f 68//135 71//141 70//139
f 70//140 71//142 68//136
f 76//151 72//143 71//141
f 71//142 72//144 76//152