# SSTK version 0.8.0
# 44
mtllib original-44.mtl
o segment42/segment/mesh5/mesh5-geometry#mesh5-geometry
v -0.102411 0.981077 0.021066
v -0.106816 0.893998 0.028972
v -0.106816 0.981077 0.028972
v -0.102411 0.893998 0.021066
v 0.000018 0.981077 0.001488
v -0.109412 0.981077 0.015339
v 0.000018 0.893998 0.001488
v -0.109412 0.893998 0.015339
vn -0.8735860490547623 0 -0.4866697184918027
vn 0.8735860490547623 0 0.4866697184918027
vn 0 1 0
vn 0 -1 0
vn -0.6331839144738847 0 0.7740013762594535
vn 0.6331839144738847 0 -0.7740013762594535
usemtl material_0_0
f 1//1 2//1 3//1
f 2//1 1//1 4//1
f 3//2 2//2 1//2
f 4//2 1//2 2//2
f 5//3 1//3 3//3
f 3//4 1//4 5//4
f 6//5 4//5 1//5
f 1//6 4//6 6//6
f 7//4 2//4 4//4
f 4//3 2//3 7//3
f 5//3 6//3 1//3
f 1//4 6//4 5//4
f 4//5 6//5 8//5
f 8//6 6//6 4//6
f 7//4 4//4 8//4
f 8//3 4//3 7//3
