# SSTK version 0.8.0
# 43
mtllib original-43.mtl
o segment41/segment/mesh5/mesh5-geometry#mesh5-geometry
v -0.099155 0.981077 0.033775
v -0.102536 0.893998 0.042172
v -0.102536 0.981077 0.042172
v -0.099155 0.893998 0.033775
v 0.000018 0.981077 0.001488
v -0.106816 0.981077 0.028972
v 0.000018 0.893998 0.001488
v -0.106816 0.893998 0.028972
vn -0.9276354665415104 0 -0.3734868688646422
vn 0.9276354665415104 0 0.3734868688646422
vn 0 1 0
vn 0 -1 0
vn -0.5311156386334697 0 0.8472993440331236
vn 0.5311156386334697 0 -0.8472993440331236
usemtl material_0_0
f 1//1 2//1 3//1
f 2//1 1//1 4//1
f 3//2 2//2 1//2
f 4//2 1//2 2//2
f 5//3 1//3 3//3
f 3//4 1//4 5//4
f 6//5 4//5 1//5
f 1//6 4//6 6//6
f 7//4 2//4 4//4
f 4//3 2//3 7//3
f 5//3 6//3 1//3
f 1//4 6//4 5//4
f 4//5 6//5 8//5
f 8//6 6//6 4//6
f 7//4 4//4 8//4
f 8//3 4//3 7//3
