# SSTK version 0.8.0
# 32
mtllib original-32.mtl
o segment30/segment/mesh5/mesh5-geometry#mesh5-geometry
v 0.080365 0.981077 0.068088
v 0.089252 0.893998 0.066448
v 0.089252 0.981077 0.066448
v 0.080365 0.893998 0.068088
v 0.000018 0.981077 0.001488
v 0.080423 0.981077 0.077142
v 0.000018 0.893998 0.001488
v 0.080423 0.893998 0.077142
vn 0.18137917878289547 0 0.9834132363884688
vn -0.18137917878289547 0 -0.9834132363884688
vn 0 1 0
vn 0 -1 0
vn 0.9999792257016081 0 -0.006445786624785771
vn -0.9999792257016081 0 0.006445786624785771
usemtl material_0_0
f 1//1 2//1 3//1
f 2//1 1//1 4//1
f 3//2 2//2 1//2
f 4//2 1//2 2//2
f 5//3 1//3 3//3
f 3//4 1//4 5//4
f 6//5 4//5 1//5
f 1//6 4//6 6//6
f 7//4 2//4 4//4
f 4//3 2//3 7//3
f 5//3 6//3 1//3
f 1//4 6//4 5//4
f 4//5 6//5 8//5
f 8//6 6//6 4//6
f 7//4 4//4 8//4
f 8//3 4//3 7//3
