# Blender v2.93.4 OBJ File: ''
# www.blender.org
mtllib original-5-bottom.mtl
o 3dw.3e18df9aea04c8cdbc7fb81194b2b6a8/Model/mesh1/mesh1-geometry
v -0.697797 -0.188150 -0.472830
v -0.697797 -0.188150 0.512370
v 0.692334 -0.188150 -0.472830
v 0.692334 -0.188150 -0.472830
v -0.697797 -0.188150 0.512370
v -0.697797 -0.188150 -0.472830
v 0.692334 -0.188150 0.512370
v 0.692334 -0.188150 -0.472830
v -0.697797 -0.188150 0.512370
v -0.697797 -0.188150 0.512370
v 0.692334 -0.188150 -0.472830
v 0.692334 -0.188150 0.512370
v 0.692334 -0.188150 0.512370
v 0.692334 -0.188150 -0.472830
v 0.692334 -0.188150 0.512370
v -0.697797 -0.188150 0.512370
v -0.697797 -0.188150 0.512370
v 0.692334 -0.188150 0.512370
v -0.697797 -0.188150 0.512370
v -0.697797 -0.188150 0.512370
v -0.697797 -0.188150 0.512370
v -0.697797 -0.188150 0.512370
v -0.697797 -0.188150 -0.472830
v -0.697797 -0.188150 0.512370
v -0.697797 -0.188150 0.512370
v -0.697797 -0.188150 -0.472830
v -0.697797 -0.188150 -0.472830
v 0.692334 -0.188150 -0.472830
v 0.692334 -0.188150 -0.472830
v -0.697797 -0.188150 -0.472830
v 0.692334 -0.188150 -0.472830
v 0.692334 -0.188150 -0.472830
v 0.692334 -0.188150 -0.472830
v 0.692334 -0.188150 -0.472830
v 0.692334 -0.188150 -0.472830
v 0.692334 -0.188150 0.512370
vt 1039.073364 1123.096436
vt 1039.073364 514.846436
vt 180.823349 1123.096436
vt 180.823349 1123.096436
vt 1039.073364 514.846436
vt 1039.073364 1123.096436
vt 180.823349 514.846436
vt 180.823349 1123.096436
vt 1039.073364 514.846436
vt 1039.073364 514.846436
vt 180.823349 1123.096436
vt 180.823349 514.846436
vn 0.0000 1.0000 0.0000
vn 0.0000 -1.0000 -0.0000
usemtl material_0_0
s 1
f 1/1/1 2/2/1 3/3/1
f 4/4/2 5/5/2 6/6/2
f 7/7/1 8/8/1 9/9/1
f 10/10/2 11/11/2 12/12/2
l 13 14
l 15 16
l 23 24
l 25 26
l 27 28
l 29 30
l 35 36
l 17 18
