# SSTK version 0.8.0
# 1
mtllib original-1.mtl
o group_0/ID4#ID4
v -0.329330 -0.584059 -0.056882
v -0.329330 -0.584059 0.056535
v -0.330116 -0.584059 -0.000174
v -0.326973 -0.584059 -0.113547
v -0.326973 -0.584059 0.113200
v -0.323047 -0.584059 -0.170125
v -0.323047 -0.584059 0.169778
v -0.320363 -0.584059 -0.197705
v -0.320357 -0.584059 0.197418
v -0.317784 -0.584059 -0.214281
v -0.317779 -0.584059 0.213987
v -0.313323 -0.584059 -0.230454
v -0.313321 -0.584059 0.230151
v -0.307041 -0.584059 -0.246010
v -0.307042 -0.584059 0.245699
v -0.299024 -0.584059 0.260426
v -0.299019 -0.584059 -0.260744
v -0.289373 -0.584059 0.274138
v -0.289363 -0.584059 -0.274463
v -0.278216 -0.584059 0.286655
v -0.278200 -0.584059 -0.286987
v -0.265699 -0.584059 0.297812
v -0.265677 -0.584059 -0.298149
v -0.251987 -0.584059 0.307463
v -0.251958 -0.584059 -0.307805
v -0.237260 -0.584059 0.315481
v -0.237223 -0.584059 -0.315827
v -0.221712 -0.584059 0.321760
v -0.221668 -0.584059 -0.322110
v -0.205547 -0.584059 0.326218
v -0.205495 -0.584059 -0.326570
v -0.188979 -0.584059 0.328796
v -0.188918 -0.584059 -0.329149
v -0.161339 -0.584059 0.331486
v -0.161339 -0.584059 -0.331833
v -0.104761 -0.584059 -0.335759
v -0.104761 -0.584059 0.335412
v -0.048096 -0.584059 -0.338116
v -0.048096 -0.584059 0.337769
v 0.008613 -0.584059 -0.338902
v 0.008613 -0.584059 0.338555
v 0.065321 -0.584059 -0.338116
v 0.065321 -0.584059 0.337769
v 0.121986 -0.584059 -0.335759
v 0.121986 -0.584059 0.335412
v 0.178564 -0.584059 0.331486
v 0.178564 -0.584059 -0.331833
v 0.206204 -0.584059 0.328796
v 0.206204 -0.584059 -0.329144
v 0.222773 -0.584059 -0.326565
v 0.222773 -0.584059 0.326218
v 0.238937 -0.584059 -0.322107
v 0.238937 -0.584059 0.321760
v 0.254485 -0.584059 -0.315828
v 0.254485 -0.584059 0.315481
v 0.269212 -0.584059 -0.307810
v 0.269212 -0.584059 0.307463
v 0.282924 -0.584059 -0.298159
v 0.282924 -0.584059 0.297812
v 0.295441 -0.584059 -0.287002
v 0.295441 -0.584059 0.286655
v 0.306598 -0.584059 -0.274485
v 0.306598 -0.584059 0.274138
v 0.316250 -0.584059 -0.260773
v 0.316250 -0.584059 0.260426
v 0.324267 -0.584059 -0.246046
v 0.324267 -0.584059 0.245699
v 0.330547 -0.584059 -0.230498
v 0.330547 -0.584059 0.230151
v 0.335004 -0.584059 -0.214334
v 0.335004 -0.584059 0.213987
v 0.337583 -0.584059 -0.197765
v 0.337583 -0.584059 0.197418
v 0.340272 -0.584059 -0.170125
v 0.340272 -0.584059 0.169778
v 0.344198 -0.584059 -0.113547
v 0.344198 -0.584059 0.113200
v 0.346555 -0.584059 -0.056882
v 0.346555 -0.584059 0.056535
v 0.347341 -0.584059 -0.000174
vn 0 -1 0
usemtl material_0_0
f 1//1 2//1 3//1
f 2//1 1//1 4//1
f 2//1 4//1 5//1
f 5//1 4//1 6//1
f 5//1 6//1 7//1
f 7//1 6//1 8//1
f 7//1 8//1 9//1
f 9//1 8//1 10//1
f 9//1 10//1 11//1
f 11//1 10//1 12//1
f 11//1 12//1 13//1
f 13//1 12//1 14//1
f 13//1 14//1 15//1
f 15//1 14//1 16//1
f 16//1 14//1 17//1
f 16//1 17//1 18//1
f 18//1 17//1 19//1
f 18//1 19//1 20//1
f 20//1 19//1 21//1
f 20//1 21//1 22//1
f 22//1 21//1 23//1
f 22//1 23//1 24//1
f 24//1 23//1 25//1
f 24//1 25//1 26//1
f 26//1 25//1 27//1
f 26//1 27//1 28//1
f 28//1 27//1 29//1
f 28//1 29//1 30//1
f 30//1 29//1 31//1
f 30//1 31//1 32//1
f 32//1 31//1 33//1
f 32//1 33//1 34//1
f 34//1 33//1 35//1
f 34//1 35//1 36//1
f 34//1 36//1 37//1
f 37//1 36//1 38//1
f 37//1 38//1 39//1
f 39//1 38//1 40//1
f 39//1 40//1 41//1
f 41//1 40//1 42//1
f 41//1 42//1 43//1
f 43//1 42//1 44//1
f 43//1 44//1 45//1
f 45//1 44//1 46//1
f 46//1 44//1 47//1
f 46//1 47//1 48//1
f 48//1 47//1 49//1
f 48//1 49//1 50//1
f 48//1 50//1 51//1
f 51//1 50//1 52//1
f 51//1 52//1 53//1
f 53//1 52//1 54//1
f 53//1 54//1 55//1
f 55//1 54//1 56//1
f 55//1 56//1 57//1
f 57//1 56//1 58//1
f 57//1 58//1 59//1
f 59//1 58//1 60//1
f 59//1 60//1 61//1
f 61//1 60//1 62//1
f 61//1 62//1 63//1
f 63//1 62//1 64//1
f 63//1 64//1 65//1
f 65//1 64//1 66//1
f 65//1 66//1 67//1
f 67//1 66//1 68//1
f 67//1 68//1 69//1
f 69//1 68//1 70//1
f 69//1 70//1 71//1
f 71//1 70//1 72//1
f 71//1 72//1 73//1
f 73//1 72//1 74//1
f 73//1 74//1 75//1
f 75//1 74//1 76//1
f 75//1 76//1 77//1
f 77//1 76//1 78//1
f 77//1 78//1 79//1
f 79//1 78//1 80//1
