# SSTK version 0.8.0
# 13
mtllib original-13.mtl
o group_12/ID90#ID90
v -0.049754 0.813196 -0.012416
v -0.050980 0.813196 0.007491
v -0.051678 0.813196 -0.002543
v -0.047710 0.813196 0.017003
v -0.045341 0.813196 -0.021454
v -0.042089 0.813196 0.025345
v -0.038738 0.813196 -0.029042
v -0.034501 0.813196 0.031947
v -0.030397 0.813196 -0.034663
v -0.025462 0.813196 0.036360
v -0.020885 0.813196 -0.037934
v -0.015589 0.813196 0.038284
v -0.010851 0.813196 -0.038631
v -0.005555 0.813196 0.037587
v -0.000978 0.813196 -0.036708
v 0.003957 0.813196 0.034316
v 0.008060 0.813196 -0.032294
v 0.012298 0.813196 0.028695
v 0.015649 0.813196 -0.025692
v 0.018900 0.813196 0.021107
v 0.021270 0.813196 -0.017351
v 0.023314 0.813196 0.012068
v 0.024540 0.813196 -0.007839
v 0.025237 0.813196 0.002195
v 0.003957 0.876708 0.034316
v -0.005555 0.813196 0.037587
v 0.003957 0.813196 0.034316
v -0.005555 0.876708 0.037587
v -0.015589 0.813196 0.038284
v -0.015589 0.876708 0.038284
v -0.025462 0.813196 0.036360
v -0.025462 0.876708 0.036360
v -0.034501 0.813196 0.031947
v -0.034501 0.876708 0.031947
v -0.042089 0.813196 0.025345
v -0.042089 0.876708 0.025345
v -0.047710 0.876708 0.017003
v -0.047710 0.813196 0.017003
v -0.050980 0.876708 0.007491
v -0.050980 0.813196 0.007491
v -0.051678 0.876708 -0.002543
v -0.051678 0.813196 -0.002543
v -0.049754 0.876708 -0.012416
v -0.049754 0.813196 -0.012416
v -0.045341 0.876708 -0.021454
v -0.045341 0.813196 -0.021454
v -0.038738 0.876708 -0.029042
v -0.038738 0.813196 -0.029042
v -0.030397 0.813196 -0.034663
v -0.030397 0.876708 -0.034663
v -0.020885 0.813196 -0.037934
v -0.020885 0.876708 -0.037934
v -0.010851 0.813196 -0.038631
v -0.010851 0.876708 -0.038631
v -0.000978 0.813196 -0.036708
v -0.000978 0.876708 -0.036708
v 0.008060 0.813196 -0.032294
v 0.008060 0.876708 -0.032294
v 0.015649 0.813196 -0.025692
v 0.015649 0.876708 -0.025692
v 0.021270 0.876708 -0.017351
v 0.021270 0.813196 -0.017351
v 0.024540 0.876708 -0.007839
v 0.024540 0.813196 -0.007839
v 0.025237 0.876708 0.002195
v 0.025237 0.813196 0.002195
v 0.023314 0.876708 0.012068
v 0.023314 0.813196 0.012068
v 0.018900 0.876708 0.021107
v 0.018900 0.813196 0.021107
v 0.012298 0.876708 0.028695
v 0.012298 0.813196 0.028695
v -0.050980 0.876708 0.007491
v -0.049754 0.876708 -0.012416
v -0.051678 0.876708 -0.002543
v -0.047710 0.876708 0.017003
v -0.045341 0.876708 -0.021454
v -0.042089 0.876708 0.025345
v -0.038738 0.876708 -0.029042
v -0.034501 0.876708 0.031947
v -0.030397 0.876708 -0.034663
v -0.025462 0.876708 0.036360
v -0.020885 0.876708 -0.037934
v -0.015589 0.876708 0.038284
v -0.010851 0.876708 -0.038631
v -0.005555 0.876708 0.037587
v -0.000978 0.876708 -0.036708
v 0.003957 0.876708 0.034316
v 0.008060 0.876708 -0.032294
v 0.012298 0.876708 0.028695
v 0.015649 0.876708 -0.025692
v 0.018900 0.876708 0.021107
v 0.021270 0.876708 -0.017351
v 0.023314 0.876708 0.012068
v 0.024540 0.876708 -0.007839
v 0.025237 0.876708 0.002195
vn 0 -1 0
vn 0.44580319993508216 0 0.8951309998696511
vn 0.19893590074948506 0 0.9800125036921677
vn -0.061488589166183126 0 0.9981077864651454
vn -0.31772269316245205 0 0.9481836795946227
vn -0.5523045938531481 0 0.8336423907220103
vn -0.7492477831460909 0 0.6622897851021623
vn -0.8951309998696511 0 0.44580319993508216
vn -0.9800125036921677 0 0.19893590074948506
vn -0.9981077864651454 0 -0.061488589166183126
vn -0.9481836795946227 0 -0.31772269316245205
vn -0.8336423907220103 0 -0.5523045938531481
vn -0.6622897851021623 0 -0.7492477831460909
vn -0.44580319993508216 0 -0.8951309998696511
vn -0.19893590074948506 0 -0.9800125036921677
vn 0.061488589166183126 0 -0.9981077864651454
vn 0.31772269316245205 0 -0.9481836795946227
vn 0.5523045938531481 0 -0.8336423907220103
vn 0.7492477831460909 0 -0.6622897851021623
vn 0.8951309998696511 0 -0.44580319993508216
vn 0.9800125036921677 0 -0.19893590074948506
vn 0.9981077864651454 0 0.061488589166183126
vn 0.9481836795946227 0 0.31772269316245205
vn 0.8336423907220103 0 0.5523045938531481
vn 0.6622897851021623 0 0.7492477831460909
vn 0 1 0
usemtl material_0_0
f 1//1 2//1 3//1
f 2//1 1//1 4//1
f 4//1 1//1 5//1
f 4//1 5//1 6//1
f 6//1 5//1 7//1
f 6//1 7//1 8//1
f 8//1 7//1 9//1
f 8//1 9//1 10//1
f 10//1 9//1 11//1
f 10//1 11//1 12//1
f 12//1 11//1 13//1
f 12//1 13//1 14//1
f 14//1 13//1 15//1
f 14//1 15//1 16//1
f 16//1 15//1 17//1
f 16//1 17//1 18//1
f 18//1 17//1 19//1
f 18//1 19//1 20//1
f 20//1 19//1 21//1
f 20//1 21//1 22//1
f 22//1 21//1 23//1
f 22//1 23//1 24//1
f 25//2 26//3 27//2
f 26//3 25//2 28//3
f 28//3 29//4 26//3
f 29//4 28//3 30//4
f 30//4 31//5 29//4
f 31//5 30//4 32//5
f 32//5 33//6 31//5
f 33//6 32//5 34//6
f 34//6 35//7 33//6
f 35//7 34//6 36//7
f 37//8 35//7 36//7
f 35//7 37//8 38//8
f 39//9 38//8 37//8
f 38//8 39//9 40//9
f 41//10 40//9 39//9
f 40//9 41//10 42//10
f 43//11 42//10 41//10
f 42//10 43//11 44//11
f 45//12 44//11 43//11
f 44//11 45//12 46//12
f 47//13 46//12 45//12
f 46//12 47//13 48//13
f 47//13 49//14 48//13
f 49//14 47//13 50//14
f 50//14 51//15 49//14
f 51//15 50//14 52//15
f 52//15 53//16 51//15
f 53//16 52//15 54//16
f 54//16 55//17 53//16
f 55//17 54//16 56//17
f 56//17 57//18 55//17
f 57//18 56//17 58//18
f 58//18 59//19 57//18
f 59//19 58//18 60//19
f 59//19 61//20 62//20
f 61//20 59//19 60//19
f 62//20 63//21 64//21
f 63//21 62//20 61//20
f 64//21 65//22 66//22
f 65//22 64//21 63//21
f 66//22 67//23 68//23
f 67//23 66//22 65//22
f 68//23 69//24 70//24
f 69//24 68//23 67//23
f 70//24 71//25 72//25
f 71//25 70//24 69//24
f 71//25 27//2 72//25
f 27//2 71//25 25//2
f 73//26 74//26 75//26
f 74//26 73//26 76//26
f 74//26 76//26 77//26
f 77//26 76//26 78//26
f 77//26 78//26 79//26
f 79//26 78//26 80//26
f 79//26 80//26 81//26
f 81//26 80//26 82//26
f 81//26 82//26 83//26
f 83//26 82//26 84//26
f 83//26 84//26 85//26
f 85//26 84//26 86//26
f 85//26 86//26 87//26
f 87//26 86//26 88//26
f 87//26 88//26 89//26
f 89//26 88//26 90//26
f 89//26 90//26 91//26
f 91//26 90//26 92//26
f 91//26 92//26 93//26
f 93//26 92//26 94//26
f 93//26 94//26 95//26
f 95//26 94//26 96//26
