# SSTK version 0.8.0
# 8
mtllib original-8.mtl
o group_7/ID55#ID55
v -0.097363 0.665003 -0.002310
v -0.092853 0.665003 -0.028978
v -0.097594 0.665003 -0.007386
v -0.096586 0.665003 0.014697
v -0.089897 0.665003 0.035767
v -0.082684 0.665003 -0.048607
v -0.077982 0.665003 0.054388
v -0.067782 0.665003 -0.064936
v -0.061654 0.665003 0.069290
v -0.049161 0.665003 -0.076850
v -0.042025 0.665003 0.079459
v -0.028091 0.665003 -0.083540
v -0.020433 0.665003 0.084201
v -0.011084 0.665003 -0.084316
v -0.015356 0.665003 0.083969
v 0.001651 0.665003 0.083192
v -0.006007 0.665003 -0.084548
v 0.015585 0.665003 -0.079806
v 0.022721 0.665003 0.076503
v 0.035214 0.665003 -0.069638
v 0.041341 0.665003 0.064588
v 0.051542 0.665003 -0.054735
v 0.056244 0.665003 0.048260
v 0.063457 0.665003 -0.036115
v 0.066413 0.665003 0.028631
v 0.070146 0.665003 -0.015044
v 0.070923 0.665003 0.001962
v 0.071154 0.665003 0.007039
vn 0 1 0
usemtl material_0_0
f 1//1 2//1 3//1
f 2//1 1//1 4//1
f 2//1 4//1 5//1
f 2//1 5//1 6//1
f 6//1 5//1 7//1
f 6//1 7//1 8//1
f 8//1 7//1 9//1
f 8//1 9//1 10//1
f 10//1 9//1 11//1
f 10//1 11//1 12//1
f 12//1 11//1 13//1
f 12//1 13//1 14//1
f 14//1 13//1 15//1
f 14//1 15//1 16//1
f 14//1 16//1 17//1
f 17//1 16//1 18//1
f 18//1 16//1 19//1
f 18//1 19//1 20//1
f 20//1 19//1 21//1
f 20//1 21//1 22//1
f 22//1 21//1 23//1
f 22//1 23//1 24//1
f 24//1 23//1 25//1
f 24//1 25//1 26//1
f 26//1 25//1 27//1
f 27//1 25//1 28//1
