# SSTK version 0.8.0
# 11
mtllib original-11.mtl
o group_10/ID76#ID76
v -0.136710 0.665003 0.029578
v -0.135041 0.665003 -0.036152
v -0.140202 0.665003 -0.003397
v -0.124802 0.665003 0.060526
v -0.121578 0.665003 -0.066456
v -0.105289 0.665003 0.087337
v -0.100731 0.665003 -0.092243
v -0.079503 0.665003 0.108185
v -0.073920 0.665003 -0.111755
v -0.049199 0.665003 0.121648
v -0.042972 0.665003 -0.123663
v -0.016443 0.665003 0.126809
v -0.009997 0.665003 -0.127156
v 0.016532 0.665003 0.123316
v 0.022759 0.665003 -0.121995
v 0.047480 0.665003 0.111408
v 0.053062 0.665003 -0.108532
v 0.074291 0.665003 0.091896
v 0.078849 0.665003 -0.087685
v 0.095138 0.665003 0.066109
v 0.098361 0.665003 -0.060873
v 0.108601 0.665003 0.035805
v 0.110270 0.665003 -0.029926
v 0.113762 0.665003 0.003050
vn 0 1 0
usemtl material_0_0
f 1//1 2//1 3//1
f 2//1 1//1 4//1
f 2//1 4//1 5//1
f 5//1 4//1 6//1
f 5//1 6//1 7//1
f 7//1 6//1 8//1
f 7//1 8//1 9//1
f 9//1 8//1 10//1
f 9//1 10//1 11//1
f 11//1 10//1 12//1
f 11//1 12//1 13//1
f 13//1 12//1 14//1
f 13//1 14//1 15//1
f 15//1 14//1 16//1
f 15//1 16//1 17//1
f 17//1 16//1 18//1
f 17//1 18//1 19//1
f 19//1 18//1 20//1
f 19//1 20//1 21//1
f 21//1 20//1 22//1
f 21//1 22//1 23//1
f 23//1 22//1 24//1
