# SSTK version 0.8.0
# 2
mtllib original-2.mtl
o group_1/ID13#ID13
v -0.251603 0.488581 -0.043886
v -0.251603 0.488581 0.043539
v -0.252208 0.488581 -0.000174
v -0.249788 0.488581 -0.087566
v -0.249788 0.488581 0.087218
v -0.246765 0.488581 -0.131178
v -0.246765 0.488581 0.130830
v -0.244699 0.488581 -0.152437
v -0.244694 0.488581 0.152137
v -0.242712 0.488581 -0.165215
v -0.242709 0.488581 0.164908
v -0.239278 0.488581 -0.177681
v -0.239276 0.488581 0.177368
v -0.234441 0.488581 -0.189672
v -0.234441 0.488581 0.189353
v -0.228268 0.488581 0.200705
v -0.228264 0.488581 -0.201030
v -0.220836 0.488581 0.211275
v -0.220829 0.488581 -0.211605
v -0.212245 0.488581 0.220923
v -0.212233 0.488581 -0.221259
v -0.202607 0.488581 0.229524
v -0.202590 0.488581 -0.229863
v -0.192049 0.488581 0.236963
v -0.192027 0.488581 -0.237306
v -0.180709 0.488581 0.243143
v -0.180681 0.488581 -0.243490
v -0.168737 0.488581 0.247984
v -0.168703 0.488581 -0.248333
v -0.156291 0.488581 0.251420
v -0.156250 0.488581 -0.251771
v -0.143533 0.488581 0.253407
v -0.143486 0.488581 -0.253759
v -0.122250 0.488581 0.255480
v -0.122250 0.488581 -0.255828
v -0.078685 0.488581 -0.258854
v -0.078685 0.488581 0.258507
v -0.035053 0.488581 -0.260671
v -0.035053 0.488581 0.260324
v 0.008613 0.488581 -0.261277
v 0.008613 0.488581 0.260930
v 0.052278 0.488581 -0.260671
v 0.052278 0.488581 0.260324
v 0.095910 0.488581 -0.258854
v 0.095910 0.488581 0.258507
v 0.139475 0.488581 0.255480
v 0.139475 0.488581 -0.255828
v 0.160758 0.488581 0.253407
v 0.160758 0.488581 -0.253755
v 0.173516 0.488581 -0.251767
v 0.173516 0.488581 0.251420
v 0.185963 0.488581 -0.248331
v 0.185963 0.488581 0.247984
v 0.197934 0.488581 -0.243491
v 0.197934 0.488581 0.243143
v 0.209274 0.488581 -0.237310
v 0.209274 0.488581 0.236963
v 0.219832 0.488581 -0.229871
v 0.219832 0.488581 0.229524
v 0.229470 0.488581 -0.221270
v 0.229470 0.488581 0.220923
v 0.238062 0.488581 -0.211622
v 0.238062 0.488581 0.211275
v 0.245493 0.488581 -0.201052
v 0.245493 0.488581 0.200705
v 0.251667 0.488581 -0.189700
v 0.251667 0.488581 0.189353
v 0.256502 0.488581 -0.177716
v 0.256502 0.488581 0.177368
v 0.259934 0.488581 -0.165255
v 0.259934 0.488581 0.164908
v 0.261920 0.488581 -0.152484
v 0.261920 0.488581 0.152137
v 0.263990 0.488581 -0.131178
v 0.263990 0.488581 0.130830
v 0.267014 0.488581 -0.087566
v 0.267014 0.488581 0.087218
v 0.268829 0.488581 -0.043886
v 0.268829 0.488581 0.043539
v 0.269434 0.488581 -0.000174
vn 0 -1 0
usemtl material_0_0
f 1//1 2//1 3//1
f 2//1 1//1 4//1
f 2//1 4//1 5//1
f 5//1 4//1 6//1
f 5//1 6//1 7//1
f 7//1 6//1 8//1
f 7//1 8//1 9//1
f 9//1 8//1 10//1
f 9//1 10//1 11//1
f 11//1 10//1 12//1
f 11//1 12//1 13//1
f 13//1 12//1 14//1
f 13//1 14//1 15//1
f 15//1 14//1 16//1
f 16//1 14//1 17//1
f 16//1 17//1 18//1
f 18//1 17//1 19//1
f 18//1 19//1 20//1
f 20//1 19//1 21//1
f 20//1 21//1 22//1
f 22//1 21//1 23//1
f 22//1 23//1 24//1
f 24//1 23//1 25//1
f 24//1 25//1 26//1
f 26//1 25//1 27//1
f 26//1 27//1 28//1
f 28//1 27//1 29//1
f 28//1 29//1 30//1
f 30//1 29//1 31//1
f 30//1 31//1 32//1
f 32//1 31//1 33//1
f 32//1 33//1 34//1
f 34//1 33//1 35//1
f 34//1 35//1 36//1
f 34//1 36//1 37//1
f 37//1 36//1 38//1
f 37//1 38//1 39//1
f 39//1 38//1 40//1
f 39//1 40//1 41//1
f 41//1 40//1 42//1
f 41//1 42//1 43//1
f 43//1 42//1 44//1
f 43//1 44//1 45//1
f 45//1 44//1 46//1
f 46//1 44//1 47//1
f 46//1 47//1 48//1
f 48//1 47//1 49//1
f 48//1 49//1 50//1
f 48//1 50//1 51//1
f 51//1 50//1 52//1
f 51//1 52//1 53//1
f 53//1 52//1 54//1
f 53//1 54//1 55//1
f 55//1 54//1 56//1
f 55//1 56//1 57//1
f 57//1 56//1 58//1
f 57//1 58//1 59//1
f 59//1 58//1 60//1
f 59//1 60//1 61//1
f 61//1 60//1 62//1
f 61//1 62//1 63//1
f 63//1 62//1 64//1
f 63//1 64//1 65//1
f 65//1 64//1 66//1
f 65//1 66//1 67//1
f 67//1 66//1 68//1
f 67//1 68//1 69//1
f 69//1 68//1 70//1
f 69//1 70//1 71//1
f 71//1 70//1 72//1
f 71//1 72//1 73//1
f 73//1 72//1 74//1
f 73//1 74//1 75//1
f 75//1 74//1 76//1
f 75//1 76//1 77//1
f 77//1 76//1 78//1
f 77//1 78//1 79//1
f 79//1 78//1 80//1
