# SSTK version 0.8.0
# 8
mtllib original-8.mtl
o 3dw.2c6493d31849c15a75f1efca97bee05a/Model/Sentry_Really_Big_Remote1/Sentry_Really_Big_Remote/mesh1/mesh1-geometry/material_0/component_7#mesh1-geometry
v 0.042504 0.188679 0.047007
v 0.008167 0.184815 0.047007
v 0.025590 0.184487 0.047007
v 0.057757 0.197106 0.047007
v -0.008577 0.189642 0.047007
v 0.042504 0.188679 0.047007
v 0.042504 0.188679 0.047007
v -0.008577 0.189642 0.047007
v 0.008167 0.184815 0.047007
v 0.071840 0.290453 0.047007
v -0.043054 0.277524 0.047007
v 0.080267 0.275200 0.047007
v 0.059753 0.303005 0.047007
v -0.034058 0.292449 0.047007
v 0.071840 0.290453 0.047007
v 0.080267 0.275200 0.047007
v -0.047880 0.260780 0.047007
v 0.084460 0.258286 0.047007
v 0.070309 0.209194 0.047007
v -0.023502 0.198638 0.047007
v 0.057757 0.197106 0.047007
v 0.057757 0.197106 0.047007
v -0.023502 0.198638 0.047007
v -0.008577 0.189642 0.047007
v 0.071840 0.290453 0.047007
v -0.034058 0.292449 0.047007
v -0.043054 0.277524 0.047007
v 0.080267 0.275200 0.047007
v -0.043054 0.277524 0.047007
v -0.047880 0.260780 0.047007
v 0.059753 0.303005 0.047007
v -0.021506 0.304536 0.047007
v -0.034058 0.292449 0.047007
v 0.084460 0.258286 0.047007
v -0.047880 0.260780 0.047007
v -0.048209 0.243357 0.047007
v 0.084460 0.258286 0.047007
v -0.048209 0.243357 0.047007
v 0.084131 0.240863 0.047007
v 0.079305 0.224119 0.047007
v -0.035589 0.211190 0.047007
v 0.070309 0.209194 0.047007
v 0.084131 0.240863 0.047007
v -0.044017 0.226443 0.047007
v 0.079305 0.224119 0.047007
v 0.070309 0.209194 0.047007
v -0.035589 0.211190 0.047007
v -0.023502 0.198638 0.047007
v 0.044828 0.312001 0.047007
v -0.021506 0.304536 0.047007
v 0.059753 0.303005 0.047007
v 0.084131 0.240863 0.047007
v -0.048209 0.243357 0.047007
v -0.044017 0.226443 0.047007
v 0.079305 0.224119 0.047007
v -0.044017 0.226443 0.047007
v -0.035589 0.211190 0.047007
v 0.028084 0.316827 0.047007
v -0.006253 0.312963 0.047007
v 0.044828 0.312001 0.047007
v 0.044828 0.312001 0.047007
v -0.006253 0.312963 0.047007
v -0.021506 0.304536 0.047007
v -0.006253 0.312963 0.047007
v 0.028084 0.316827 0.047007
v 0.010661 0.317156 0.047007
v 0.025590 0.184487 0.047007
v 0.008167 0.184815 0.047007
v 0.042504 0.188679 0.047007
v 0.042504 0.188679 0.047007
v -0.008577 0.189642 0.047007
v 0.057757 0.197106 0.047007
v 0.008167 0.184815 0.047007
v -0.008577 0.189642 0.047007
v 0.042504 0.188679 0.047007
v 0.080267 0.275200 0.047007
v -0.043054 0.277524 0.047007
v 0.071840 0.290453 0.047007
v 0.071840 0.290453 0.047007
v -0.034058 0.292449 0.047007
v 0.059753 0.303005 0.047007
v 0.084460 0.258286 0.047007
v -0.047880 0.260780 0.047007
v 0.080267 0.275200 0.047007
v 0.057757 0.197106 0.047007
v -0.023502 0.198638 0.047007
v 0.070309 0.209194 0.047007
v -0.008577 0.189642 0.047007
v -0.023502 0.198638 0.047007
v 0.057757 0.197106 0.047007
v -0.043054 0.277524 0.047007
v -0.034058 0.292449 0.047007
v 0.071840 0.290453 0.047007
v -0.047880 0.260780 0.047007
v -0.043054 0.277524 0.047007
v 0.080267 0.275200 0.047007
v -0.034058 0.292449 0.047007
v -0.021506 0.304536 0.047007
v 0.059753 0.303005 0.047007
v -0.048209 0.243357 0.047007
v -0.047880 0.260780 0.047007
v 0.084460 0.258286 0.047007
v 0.084131 0.240863 0.047007
v -0.048209 0.243357 0.047007
v 0.084460 0.258286 0.047007
v 0.070309 0.209194 0.047007
v -0.035589 0.211190 0.047007
v 0.079305 0.224119 0.047007
v 0.079305 0.224119 0.047007
v -0.044017 0.226443 0.047007
v 0.084131 0.240863 0.047007
v -0.023502 0.198638 0.047007
v -0.035589 0.211190 0.047007
v 0.070309 0.209194 0.047007
v 0.059753 0.303005 0.047007
v -0.021506 0.304536 0.047007
v 0.044828 0.312001 0.047007
v -0.044017 0.226443 0.047007
v -0.048209 0.243357 0.047007
v 0.084131 0.240863 0.047007
v -0.035589 0.211190 0.047007
v -0.044017 0.226443 0.047007
v 0.079305 0.224119 0.047007
v 0.044828 0.312001 0.047007
v -0.006253 0.312963 0.047007
v 0.028084 0.316827 0.047007
v -0.021506 0.304536 0.047007
v -0.006253 0.312963 0.047007
v 0.044828 0.312001 0.047007
v 0.010661 0.317156 0.047007
v 0.028084 0.316827 0.047007
v -0.006253 0.312963 0.047007
vt 0.39281100034713745 0.551393985748291
vt 0.39493700861930847 0.5106189846992493
vt 0.39511701464653015 0.5313090085983276
vt 0.38817501068115234 0.5695070028305054
vt 0.3922809958457947 0.4907360076904297
vt 0.3368220031261444 0.586230993270874
vt 0.34393399953842163 0.4497950077056885
vt 0.34521299600601196 0.5962380170822144
vt 0.32991600036621094 0.5718770027160645
vt 0.33572399616241455 0.46047699451446533
vt 0.3531459867954254 0.4440639913082123
vt 0.35451799631118774 0.6012160181999207
vt 0.3815250098705292 0.5844119787216187
vt 0.3873319923877716 0.4730130136013031
vt 0.3290739953517914 0.4753830134868622
vt 0.362731009721756 0.4436739981174469
vt 0.3641029894351959 0.6008260250091553
vt 0.3733139932155609 0.5950949788093567
vt 0.3804270029067993 0.45865899324417114
vt 0.37203601002693176 0.4486519992351532
vt 0.32496699690818787 0.5541539788246155
vt 0.32231199741363525 0.5342699885368347
vt 0.3244380056858063 0.49349498748779297
vt 0.3221310079097748 0.5135809779167175
vt 0 0
vn 0 0 1
vn 0 0 -1
usemtl material_0_0
f 1/1/1 2/2/1 3/3/1
f 4/4/1 5/5/1 6/1/1
f 7/1/1 8/5/1 9/2/1
f 10/6/1 11/7/1 12/8/1
f 13/9/1 14/10/1 15/6/1
f 16/8/1 17/11/1 18/12/1
f 19/13/1 20/14/1 21/4/1
f 22/4/1 23/14/1 24/5/1
f 25/6/1 26/10/1 27/7/1
f 28/8/1 29/7/1 30/11/1
f 31/9/1 32/15/1 33/10/1
f 34/12/1 35/11/1 36/16/1
f 37/12/1 38/16/1 39/17/1
f 40/18/1 41/19/1 42/13/1
f 43/17/1 44/20/1 45/18/1
f 46/13/1 47/19/1 48/14/1
f 49/21/1 50/15/1 51/9/1
f 52/17/1 53/16/1 54/20/1
f 55/18/1 56/20/1 57/19/1
f 58/22/1 59/23/1 60/21/1
f 61/21/1 62/23/1 63/15/1
f 64/23/1 65/22/1 66/24/1
usemtl material_1_0
f 67/25/2 68/25/2 69/25/2
f 70/25/2 71/25/2 72/25/2
f 73/25/2 74/25/2 75/25/2
f 76/25/2 77/25/2 78/25/2
f 79/25/2 80/25/2 81/25/2
f 82/25/2 83/25/2 84/25/2
f 85/25/2 86/25/2 87/25/2
f 88/25/2 89/25/2 90/25/2
f 91/25/2 92/25/2 93/25/2
f 94/25/2 95/25/2 96/25/2
f 97/25/2 98/25/2 99/25/2
f 100/25/2 101/25/2 102/25/2
f 103/25/2 104/25/2 105/25/2
f 106/25/2 107/25/2 108/25/2
f 109/25/2 110/25/2 111/25/2
f 112/25/2 113/25/2 114/25/2
f 115/25/2 116/25/2 117/25/2
f 118/25/2 119/25/2 120/25/2
f 121/25/2 122/25/2 123/25/2
f 124/25/2 125/25/2 126/25/2
f 127/25/2 128/25/2 129/25/2
f 130/25/2 131/25/2 132/25/2
