# SSTK version 0.8.0
# 3
mtllib original-3.mtl
o 3dw.2c6493d31849c15a75f1efca97bee05a/Model/Sentry_Really_Big_Remote1/Sentry_Really_Big_Remote/mesh1/mesh1-geometry/material_0/component_2#mesh1-geometry
v -0.000761 0.137371 0.047007
v 0.033782 0.138236 0.047007
v 0.016454 0.140077 0.047007
v 0.050044 0.131973 0.047007
v -0.000761 0.137371 0.047007
v -0.016688 0.130301 0.047007
v 0.033782 0.138236 0.047007
v -0.000761 0.137371 0.047007
v 0.050044 0.131973 0.047007
v 0.050044 0.131973 0.047007
v -0.016688 0.130301 0.047007
v 0.064130 0.121714 0.047007
v 0.064130 0.121714 0.047007
v -0.016688 0.130301 0.047007
v -0.030243 0.119350 0.047007
v 0.075081 0.108159 0.047007
v -0.030243 0.119350 0.047007
v -0.040502 0.105264 0.047007
v 0.064130 0.121714 0.047007
v -0.030243 0.119350 0.047007
v 0.075081 0.108159 0.047007
v 0.082151 0.092231 0.047007
v -0.040502 0.105264 0.047007
v -0.046765 0.089002 0.047007
v 0.075081 0.108159 0.047007
v -0.040502 0.105264 0.047007
v 0.082151 0.092231 0.047007
v 0.082151 0.092231 0.047007
v -0.046765 0.089002 0.047007
v 0.084857 0.075017 0.047007
v 0.084857 0.075017 0.047007
v -0.046765 0.089002 0.047007
v -0.048607 0.071674 0.047007
v 0.084857 0.075017 0.047007
v -0.048607 0.071674 0.047007
v 0.083016 0.057688 0.047007
v 0.083016 0.057688 0.047007
v -0.048607 0.071674 0.047007
v -0.045900 0.054459 0.047007
v 0.083016 0.057688 0.047007
v -0.045900 0.054459 0.047007
v 0.076753 0.041427 0.047007
v 0.076753 0.041427 0.047007
v -0.045900 0.054459 0.047007
v -0.038830 0.038532 0.047007
v 0.076753 0.041427 0.047007
v -0.038830 0.038532 0.047007
v 0.066494 0.027340 0.047007
v 0.066494 0.027340 0.047007
v -0.038830 0.038532 0.047007
v -0.027879 0.024977 0.047007
v 0.066494 0.027340 0.047007
v -0.027879 0.024977 0.047007
v 0.052939 0.016389 0.047007
v 0.052939 0.016389 0.047007
v -0.013793 0.014718 0.047007
v 0.037012 0.009320 0.047007
v 0.052939 0.016389 0.047007
v -0.027879 0.024977 0.047007
v -0.013793 0.014718 0.047007
v 0.037012 0.009320 0.047007
v -0.013793 0.014718 0.047007
v 0.002469 0.008454 0.047007
v 0.037012 0.009320 0.047007
v 0.002469 0.008454 0.047007
v 0.019797 0.006613 0.047007
v 0.016454 0.140077 0.047007
v 0.033782 0.138236 0.047007
v -0.000761 0.137371 0.047007
v -0.016688 0.130301 0.047007
v -0.000761 0.137371 0.047007
v 0.050044 0.131973 0.047007
v 0.050044 0.131973 0.047007
v -0.000761 0.137371 0.047007
v 0.033782 0.138236 0.047007
v 0.064130 0.121714 0.047007
v -0.016688 0.130301 0.047007
v 0.050044 0.131973 0.047007
v -0.030243 0.119350 0.047007
v -0.016688 0.130301 0.047007
v 0.064130 0.121714 0.047007
v -0.040502 0.105264 0.047007
v -0.030243 0.119350 0.047007
v 0.075081 0.108159 0.047007
v 0.075081 0.108159 0.047007
v -0.030243 0.119350 0.047007
v 0.064130 0.121714 0.047007
v -0.046765 0.089002 0.047007
v -0.040502 0.105264 0.047007
v 0.082151 0.092231 0.047007
v 0.082151 0.092231 0.047007
v -0.040502 0.105264 0.047007
v 0.075081 0.108159 0.047007
v 0.084857 0.075017 0.047007
v -0.046765 0.089002 0.047007
v 0.082151 0.092231 0.047007
v -0.048607 0.071674 0.047007
v -0.046765 0.089002 0.047007
v 0.084857 0.075017 0.047007
v 0.083016 0.057688 0.047007
v -0.048607 0.071674 0.047007
v 0.084857 0.075017 0.047007
v -0.045900 0.054459 0.047007
v -0.048607 0.071674 0.047007
v 0.083016 0.057688 0.047007
v 0.076753 0.041427 0.047007
v -0.045900 0.054459 0.047007
v 0.083016 0.057688 0.047007
v -0.038830 0.038532 0.047007
v -0.045900 0.054459 0.047007
v 0.076753 0.041427 0.047007
v 0.066494 0.027340 0.047007
v -0.038830 0.038532 0.047007
v 0.076753 0.041427 0.047007
v -0.027879 0.024977 0.047007
v -0.038830 0.038532 0.047007
v 0.066494 0.027340 0.047007
v 0.052939 0.016389 0.047007
v -0.027879 0.024977 0.047007
v 0.066494 0.027340 0.047007
v 0.037012 0.009320 0.047007
v -0.013793 0.014718 0.047007
v 0.052939 0.016389 0.047007
v -0.013793 0.014718 0.047007
v -0.027879 0.024977 0.047007
v 0.052939 0.016389 0.047007
v 0.002469 0.008454 0.047007
v -0.013793 0.014718 0.047007
v 0.037012 0.009320 0.047007
v 0.019797 0.006613 0.047007
v 0.002469 0.008454 0.047007
v 0.037012 0.009320 0.047007
vt 0.4210380017757416 0.5000180006027222
vt 0.4205619990825653 0.5410370230674744
vt 0.41954898834228516 0.5204600095748901
vt 0.42400699853897095 0.5603470206260681
vt 0.4249269962310791 0.4811039865016937
vt 0.4296509921550751 0.5770750045776367
vt 0.43095099925994873 0.4650079905986786
vt 0.43710801005363464 0.5900790095329285
vt 0.43870100378990173 0.45282500982284546
vt 0.4458700120449066 0.5984740257263184
vt 0.44764700531959534 0.44538798928260803
vt 0.45534101128578186 0.601688027381897
vt 0.457179993391037 0.4432010054588318
vt 0.4648739993572235 0.5995020270347595
vt 0.46665000915527344 0.4464150071144104
vt 0.4738200008869171 0.5920640230178833
vt 0.4754120111465454 0.4548099935054779
vt 0.48156899213790894 0.579882025718689
vt 0.4828700125217438 0.46781501173973083
vt 0.48759400844573975 0.5637850165367126
vt 0.4885129928588867 0.48454201221466064
vt 0.49148300290107727 0.544871985912323
vt 0.49195900559425354 0.5038520097732544
vt 0.4929719865322113 0.524429976940155
vt 0 0
vn 0 0 1
vn 0 0 -1
usemtl material_0_0
f 1/1/1 2/2/1 3/3/1
f 4/4/1 5/1/1 6/5/1
f 7/2/1 8/1/1 9/4/1
f 10/4/1 11/5/1 12/6/1
f 13/6/1 14/5/1 15/7/1
f 16/8/1 17/7/1 18/9/1
f 19/6/1 20/7/1 21/8/1
f 22/10/1 23/9/1 24/11/1
f 25/8/1 26/9/1 27/10/1
f 28/10/1 29/11/1 30/12/1
f 31/12/1 32/11/1 33/13/1
f 34/12/1 35/13/1 36/14/1
f 37/14/1 38/13/1 39/15/1
f 40/14/1 41/15/1 42/16/1
f 43/16/1 44/15/1 45/17/1
f 46/16/1 47/17/1 48/18/1
f 49/18/1 50/17/1 51/19/1
f 52/18/1 53/19/1 54/20/1
f 55/20/1 56/21/1 57/22/1
f 58/20/1 59/19/1 60/21/1
f 61/22/1 62/21/1 63/23/1
f 64/22/1 65/23/1 66/24/1
usemtl material_1_0
f 67/25/2 68/25/2 69/25/2
f 70/25/2 71/25/2 72/25/2
f 73/25/2 74/25/2 75/25/2
f 76/25/2 77/25/2 78/25/2
f 79/25/2 80/25/2 81/25/2
f 82/25/2 83/25/2 84/25/2
f 85/25/2 86/25/2 87/25/2
f 88/25/2 89/25/2 90/25/2
f 91/25/2 92/25/2 93/25/2
f 94/25/2 95/25/2 96/25/2
f 97/25/2 98/25/2 99/25/2
f 100/25/2 101/25/2 102/25/2
f 103/25/2 104/25/2 105/25/2
f 106/25/2 107/25/2 108/25/2
f 109/25/2 110/25/2 111/25/2
f 112/25/2 113/25/2 114/25/2
f 115/25/2 116/25/2 117/25/2
f 118/25/2 119/25/2 120/25/2
f 121/25/2 122/25/2 123/25/2
f 124/25/2 125/25/2 126/25/2
f 127/25/2 128/25/2 129/25/2
f 130/25/2 131/25/2 132/25/2
