# SSTK version 0.8.0
# 41
mtllib original-41.mtl
o 3dw.2c6493d31849c15a75f1efca97bee05a/Model/Sentry_Really_Big_Remote1/Sentry_Really_Big_Remote/mesh1/mesh1-geometry/material_0/component_40#mesh1-geometry
v -0.047783 0.543687 0.047007
v 0.072030 0.673770 0.047007
v -0.047783 0.673770 0.047007
v 0.072030 0.673770 0.047007
v -0.047783 0.543687 0.047007
v 0.072030 0.543687 0.047007
v -0.047783 0.673770 0.047007
v 0.072030 0.673770 0.047007
v -0.047783 0.543687 0.047007
v 0.072030 0.543687 0.047007
v -0.047783 0.543687 0.047007
v 0.072030 0.673770 0.047007
vt 0.1975090056657791 0.4441789984703064
vt 0.12594500184059143 0.5864560008049011
vt 0.12594500184059143 0.4441789984703064
vt 0.1975090056657791 0.5864560008049011
vt 0 0
vn 0 0 1
vn 0 0 -1
usemtl material_0_0
f 1/1/1 2/2/1 3/3/1
f 4/2/1 5/1/1 6/4/1
usemtl material_1_0
f 7/5/2 8/5/2 9/5/2
f 10/5/2 11/5/2 12/5/2
