# SSTK version 0.8.0
# 61
mtllib original-61.mtl
o 3dw.2c6493d31849c15a75f1efca97bee05a/Model/Sentry_Really_Big_Remote1/Sentry_Really_Big_Remote/mesh1/mesh1-geometry/material_2/component_17#mesh1-geometry
v -0.316969 -0.035210 0.036737
v -0.316969 -0.035210 0.047007
v -0.334218 -0.041378 0.036737
v -0.302166 -0.033999 0.036737
v -0.302166 -0.033999 0.047007
v -0.316969 -0.035210 0.036737
v -0.298710 -0.033716 0.036737
v -0.298710 -0.033716 0.047007
v -0.302166 -0.033999 0.036737
v -0.334218 -0.041378 0.036737
v -0.334218 -0.041378 0.047007
v -0.349284 -0.051801 0.036737
v -0.334218 -0.041378 0.047007
v -0.334218 -0.041378 0.036737
v -0.316969 -0.035210 0.047007
v -0.316969 -0.035210 0.047007
v -0.316969 -0.035210 0.036737
v -0.302166 -0.033999 0.047007
v -0.302166 -0.033999 0.047007
v -0.302166 -0.033999 0.036737
v -0.298710 -0.033716 0.047007
v -0.298710 -0.033716 0.047007
v -0.298710 -0.033716 0.036737
v -0.280687 -0.036999 0.047007
v -0.349284 -0.051801 0.047007
v -0.349284 -0.051801 0.036737
v -0.334218 -0.041378 0.047007
v -0.280687 -0.036999 0.036737
v -0.280687 -0.036999 0.047007
v -0.298710 -0.033716 0.036737
v -0.361139 -0.065768 0.036737
v -0.349284 -0.051801 0.036737
v -0.361139 -0.065768 0.047007
v -0.349284 -0.051801 0.047007
v -0.361139 -0.065768 0.047007
v -0.349284 -0.051801 0.036737
v -0.280687 -0.036999 0.047007
v -0.280687 -0.036999 0.036737
v -0.264127 -0.044834 0.047007
v -0.361139 -0.065768 0.047007
v -0.368974 -0.082327 0.047007
v -0.361139 -0.065768 0.036737
v -0.264127 -0.044834 0.036737
v -0.264127 -0.044834 0.047007
v -0.280687 -0.036999 0.036737
v -0.368974 -0.082327 0.036737
v -0.361139 -0.065768 0.036737
v -0.368974 -0.082327 0.047007
v -0.264127 -0.044834 0.047007
v -0.264127 -0.044834 0.036737
v -0.250160 -0.056689 0.047007
v -0.370763 -0.118609 0.036737
v -0.372257 -0.100351 0.036737
v -0.370763 -0.118609 0.047007
v -0.368974 -0.082327 0.047007
v -0.372257 -0.100351 0.047007
v -0.368974 -0.082327 0.036737
v -0.239737 -0.071755 0.047007
v -0.250160 -0.056689 0.047007
v -0.239737 -0.071755 0.036737
v -0.250160 -0.056689 0.036737
v -0.250160 -0.056689 0.047007
v -0.264127 -0.044834 0.036737
v -0.364595 -0.135859 0.036737
v -0.370763 -0.118609 0.036737
v -0.364595 -0.135859 0.047007
v -0.372257 -0.100351 0.047007
v -0.370763 -0.118609 0.047007
v -0.372257 -0.100351 0.036737
v -0.370763 -0.118609 0.047007
v -0.364595 -0.135859 0.047007
v -0.370763 -0.118609 0.036737
v -0.323646 -0.170615 0.036737
v -0.323646 -0.170615 0.047007
v -0.305622 -0.173898 0.036737
v -0.372257 -0.100351 0.036737
v -0.368974 -0.082327 0.036737
v -0.372257 -0.100351 0.047007
v -0.233569 -0.089005 0.047007
v -0.239737 -0.071755 0.047007
v -0.233569 -0.089005 0.036737
v -0.250160 -0.056689 0.036737
v -0.239737 -0.071755 0.036737
v -0.250160 -0.056689 0.047007
v -0.239737 -0.071755 0.036737
v -0.233569 -0.089005 0.036737
v -0.239737 -0.071755 0.047007
v -0.364595 -0.135859 0.047007
v -0.354172 -0.150925 0.047007
v -0.364595 -0.135859 0.036737
v -0.340205 -0.162779 0.036737
v -0.340205 -0.162779 0.047007
v -0.323646 -0.170615 0.036737
v -0.305622 -0.173898 0.047007
v -0.305622 -0.173898 0.036737
v -0.323646 -0.170615 0.047007
v -0.323646 -0.170615 0.047007
v -0.323646 -0.170615 0.036737
v -0.340205 -0.162779 0.047007
v -0.305622 -0.173898 0.036737
v -0.305622 -0.173898 0.047007
v -0.302166 -0.173615 0.036737
v -0.233569 -0.089005 0.036737
v -0.232075 -0.107263 0.036737
v -0.233569 -0.089005 0.047007
v -0.354172 -0.150925 0.036737
v -0.364595 -0.135859 0.036737
v -0.354172 -0.150925 0.047007
v -0.354172 -0.150925 0.036737
v -0.354172 -0.150925 0.047007
v -0.340205 -0.162779 0.036737
v -0.340205 -0.162779 0.047007
v -0.340205 -0.162779 0.036737
v -0.354172 -0.150925 0.047007
v -0.302166 -0.173615 0.036737
v -0.302166 -0.173615 0.047007
v -0.287364 -0.172404 0.036737
v -0.302166 -0.173615 0.047007
v -0.302166 -0.173615 0.036737
v -0.305622 -0.173898 0.047007
v -0.232075 -0.107263 0.047007
v -0.233569 -0.089005 0.047007
v -0.232075 -0.107263 0.036737
v -0.235358 -0.125286 0.047007
v -0.232075 -0.107263 0.047007
v -0.235358 -0.125286 0.036737
v -0.243194 -0.141846 0.047007
v -0.235358 -0.125286 0.047007
v -0.243194 -0.141846 0.036737
v -0.287364 -0.172404 0.047007
v -0.287364 -0.172404 0.036737
v -0.302166 -0.173615 0.047007
v -0.232075 -0.107263 0.036737
v -0.235358 -0.125286 0.036737
v -0.232075 -0.107263 0.047007
v -0.255048 -0.155813 0.047007
v -0.243194 -0.141846 0.047007
v -0.255048 -0.155813 0.036737
v -0.235358 -0.125286 0.036737
v -0.243194 -0.141846 0.036737
v -0.235358 -0.125286 0.047007
v -0.243194 -0.141846 0.036737
v -0.255048 -0.155813 0.036737
v -0.243194 -0.141846 0.047007
v -0.255048 -0.155813 0.047007
v -0.255048 -0.155813 0.036737
v -0.270114 -0.166236 0.047007
v -0.270114 -0.166236 0.047007
v -0.270114 -0.166236 0.036737
v -0.287364 -0.172404 0.047007
v -0.287364 -0.172404 0.036737
v -0.287364 -0.172404 0.047007
v -0.270114 -0.166236 0.036737
v -0.270114 -0.166236 0.036737
v -0.270114 -0.166236 0.047007
v -0.255048 -0.155813 0.036737
v -0.334218 -0.041378 0.036737
v -0.316969 -0.035210 0.047007
v -0.316969 -0.035210 0.036737
v -0.316969 -0.035210 0.036737
v -0.302166 -0.033999 0.047007
v -0.302166 -0.033999 0.036737
v -0.302166 -0.033999 0.036737
v -0.298710 -0.033716 0.047007
v -0.298710 -0.033716 0.036737
v -0.349284 -0.051801 0.036737
v -0.334218 -0.041378 0.047007
v -0.334218 -0.041378 0.036737
v -0.316969 -0.035210 0.047007
v -0.334218 -0.041378 0.036737
v -0.334218 -0.041378 0.047007
v -0.302166 -0.033999 0.047007
v -0.316969 -0.035210 0.036737
v -0.316969 -0.035210 0.047007
v -0.298710 -0.033716 0.047007
v -0.302166 -0.033999 0.036737
v -0.302166 -0.033999 0.047007
v -0.280687 -0.036999 0.047007
v -0.298710 -0.033716 0.036737
v -0.298710 -0.033716 0.047007
v -0.334218 -0.041378 0.047007
v -0.349284 -0.051801 0.036737
v -0.349284 -0.051801 0.047007
v -0.298710 -0.033716 0.036737
v -0.280687 -0.036999 0.047007
v -0.280687 -0.036999 0.036737
v -0.361139 -0.065768 0.047007
v -0.349284 -0.051801 0.036737
v -0.361139 -0.065768 0.036737
v -0.349284 -0.051801 0.036737
v -0.361139 -0.065768 0.047007
v -0.349284 -0.051801 0.047007
v -0.264127 -0.044834 0.047007
v -0.280687 -0.036999 0.036737
v -0.280687 -0.036999 0.047007
v -0.361139 -0.065768 0.036737
v -0.368974 -0.082327 0.047007
v -0.361139 -0.065768 0.047007
v -0.280687 -0.036999 0.036737
v -0.264127 -0.044834 0.047007
v -0.264127 -0.044834 0.036737
v -0.368974 -0.082327 0.047007
v -0.361139 -0.065768 0.036737
v -0.368974 -0.082327 0.036737
v -0.250160 -0.056689 0.047007
v -0.264127 -0.044834 0.036737
v -0.264127 -0.044834 0.047007
v -0.370763 -0.118609 0.047007
v -0.372257 -0.100351 0.036737
v -0.370763 -0.118609 0.036737
v -0.368974 -0.082327 0.036737
v -0.372257 -0.100351 0.047007
v -0.368974 -0.082327 0.047007
v -0.239737 -0.071755 0.036737
v -0.250160 -0.056689 0.047007
v -0.239737 -0.071755 0.047007
v -0.264127 -0.044834 0.036737
v -0.250160 -0.056689 0.047007
v -0.250160 -0.056689 0.036737
v -0.364595 -0.135859 0.047007
v -0.370763 -0.118609 0.036737
v -0.364595 -0.135859 0.036737
v -0.372257 -0.100351 0.036737
v -0.370763 -0.118609 0.047007
v -0.372257 -0.100351 0.047007
v -0.370763 -0.118609 0.036737
v -0.364595 -0.135859 0.047007
v -0.370763 -0.118609 0.047007
v -0.305622 -0.173898 0.036737
v -0.323646 -0.170615 0.047007
v -0.323646 -0.170615 0.036737
v -0.372257 -0.100351 0.047007
v -0.368974 -0.082327 0.036737
v -0.372257 -0.100351 0.036737
v -0.233569 -0.089005 0.036737
v -0.239737 -0.071755 0.047007
v -0.233569 -0.089005 0.047007
v -0.250160 -0.056689 0.047007
v -0.239737 -0.071755 0.036737
v -0.250160 -0.056689 0.036737
v -0.239737 -0.071755 0.047007
v -0.233569 -0.089005 0.036737
v -0.239737 -0.071755 0.036737
v -0.364595 -0.135859 0.036737
v -0.354172 -0.150925 0.047007
v -0.364595 -0.135859 0.047007
v -0.323646 -0.170615 0.036737
v -0.340205 -0.162779 0.047007
v -0.340205 -0.162779 0.036737
v -0.323646 -0.170615 0.047007
v -0.305622 -0.173898 0.036737
v -0.305622 -0.173898 0.047007
v -0.340205 -0.162779 0.047007
v -0.323646 -0.170615 0.036737
v -0.323646 -0.170615 0.047007
v -0.302166 -0.173615 0.036737
v -0.305622 -0.173898 0.047007
v -0.305622 -0.173898 0.036737
v -0.233569 -0.089005 0.047007
v -0.232075 -0.107263 0.036737
v -0.233569 -0.089005 0.036737
v -0.354172 -0.150925 0.047007
v -0.364595 -0.135859 0.036737
v -0.354172 -0.150925 0.036737
v -0.340205 -0.162779 0.036737
v -0.354172 -0.150925 0.047007
v -0.354172 -0.150925 0.036737
v -0.354172 -0.150925 0.047007
v -0.340205 -0.162779 0.036737
v -0.340205 -0.162779 0.047007
v -0.287364 -0.172404 0.036737
v -0.302166 -0.173615 0.047007
v -0.302166 -0.173615 0.036737
v -0.305622 -0.173898 0.047007
v -0.302166 -0.173615 0.036737
v -0.302166 -0.173615 0.047007
v -0.232075 -0.107263 0.036737
v -0.233569 -0.089005 0.047007
v -0.232075 -0.107263 0.047007
v -0.235358 -0.125286 0.036737
v -0.232075 -0.107263 0.047007
v -0.235358 -0.125286 0.047007
v -0.243194 -0.141846 0.036737
v -0.235358 -0.125286 0.047007
v -0.243194 -0.141846 0.047007
v -0.302166 -0.173615 0.047007
v -0.287364 -0.172404 0.036737
v -0.287364 -0.172404 0.047007
v -0.232075 -0.107263 0.047007
v -0.235358 -0.125286 0.036737
v -0.232075 -0.107263 0.036737
v -0.255048 -0.155813 0.036737
v -0.243194 -0.141846 0.047007
v -0.255048 -0.155813 0.047007
v -0.235358 -0.125286 0.047007
v -0.243194 -0.141846 0.036737
v -0.235358 -0.125286 0.036737
v -0.243194 -0.141846 0.047007
v -0.255048 -0.155813 0.036737
v -0.243194 -0.141846 0.036737
v -0.270114 -0.166236 0.047007
v -0.255048 -0.155813 0.036737
v -0.255048 -0.155813 0.047007
v -0.287364 -0.172404 0.047007
v -0.270114 -0.166236 0.036737
v -0.270114 -0.166236 0.047007
v -0.270114 -0.166236 0.036737
v -0.287364 -0.172404 0.047007
v -0.287364 -0.172404 0.036737
v -0.255048 -0.155813 0.036737
v -0.270114 -0.166236 0.047007
v -0.270114 -0.166236 0.036737
vt 0 0
vt 9.783354759216309 0
vt 9.075020790100098 0.402554988861084
vt 9.075020790100098 0
vt 8.5 0.402554988861084
vt 8.5 0
vt 8.366687774658203 0.402554988861084
vt 8.366687774658203 0
vt 10.491687774658203 0
vt 9.783354759216309 0.402554988861084
vt 7.658355236053467 0.402554988861084
vt 10.491687774658203 0.402554988861084
vt 7.658355236053467 0
vt 11.200020790100098 0.402554988861084
vt 11.200020790100098 0
vt 6.950020790100098 0.402554988861084
vt 11.908354759216309 0.402554988861084
vt 6.950020790100098 0
vt 11.908354759216309 0
vt 6.241687774658203 0.402554988861084
vt 13.325020790100098 0.402554988861084
vt 12.616687774658203 0
vt 13.325020790100098 0
vt 12.616687774658203 0.402554988861084
vt 5.533355236053467 0
vt 5.533355236053467 0.402554988861084
vt 6.241687774658203 0
vt 14.033354759216309 0.402554988861084
vt 14.033354759216309 0
vt 16.866687774658203 0
vt 16.158355712890625 0.402554988861084
vt 16.158355712890625 0
vt 4.825020790100098 0
vt 4.825020790100098 0.402554988861084
vt 14.741687774658203 0.402554988861084
vt 15.450020790100098 0.402554988861084
vt 15.450020790100098 0
vt 16.866687774658203 0.402554988861084
vt 17 0
vt 4.116687774658203 0
vt 14.741687774658203 0
vt 0.5750210285186768 0
vt 0 0.402554988861084
vt 17 0.402554988861084
vt 4.116687774658203 0.402554988861084
vt 3.4083549976348877 0
vt 3.4083549976348877 0.402554988861084
vt 2.7000210285186768 0
vt 2.7000210285186768 0.402554988861084
vt 0.5750210285186768 0.402554988861084
vt 1.9916880130767822 0
vt 1.9916880130767822 0.402554988861084
vt 1.2833549976348877 0.402554988861084
vt 1.2833549976348877 0
vn 0.2109309984057666 -0.9775009534069757 0
vn 0.45674009633578644 -0.8896001823286552 0
vn 0.0815370258356162 -0.9966703133021881 0
vn -0.049252019935611194 -0.998786382832817 0
vn 0.6714221277890946 -0.7410751151638846 0
vn -0.30607903927375185 -0.9520061038235296 0
vn 0.8403481120256029 -0.5420470926174265 0
vn -0.5420470926174265 -0.8403481120256029 0
vn 0.9520061038235296 -0.30607903927375185 0
vn -0.7410751151638846 -0.6714221277890946 0
vn 0.9775009534069757 0.2109309984057666 0
vn 0.998786382832817 -0.049252019935611194 0
vn -0.8896001823286552 -0.45674009633578644 0
vn 0.8896001823286552 0.45674009633578644 0
vn 0.30607903927375185 0.9520061038235296 0
vn 0.049252019935611194 0.998786382832817 0
vn -0.9775009534069757 -0.2109309984057666 0
vn 0.7410751151638846 0.6714221277890946 0
vn 0.5420470926174265 0.8403481120256029 0
vn -0.0815370258356162 0.9966703133021881 0
vn -0.998786382832817 0.049252019935611194 0
vn -0.2109309984057666 0.9775009534069757 0
vn -0.9520061038235296 0.30607903927375185 0
vn -0.8403481120256029 0.5420470926174265 0
vn -0.6714221277890946 0.7410751151638846 0
vn -0.45674009633578644 0.8896001823286552 0
usemtl material_0_0
f 1/1/1 2/1/1 3/1/2
f 4/1/3 5/1/3 6/1/1
f 7/1/4 8/1/4 9/1/3
f 10/1/2 11/1/2 12/1/5
f 13/1/2 14/1/2 15/1/1
f 16/1/1 17/1/1 18/1/3
f 19/1/3 20/1/3 21/1/4
f 22/1/4 23/1/4 24/1/6
f 25/1/5 26/1/5 27/1/2
f 28/1/6 29/1/6 30/1/4
f 31/1/7 32/1/5 33/1/7
f 34/1/5 35/1/7 36/1/5
f 37/1/6 38/1/6 39/1/8
f 40/1/7 41/1/9 42/1/7
f 43/1/8 44/1/8 45/1/6
f 46/1/9 47/1/7 48/1/9
f 49/1/8 50/1/8 51/1/10
f 52/1/11 53/1/12 54/1/11
f 55/1/9 56/1/12 57/1/9
f 58/1/13 59/1/10 60/1/13
f 61/1/10 62/1/10 63/1/8
f 64/1/14 65/1/11 66/1/14
f 67/1/12 68/1/11 69/1/12
f 70/1/11 71/1/14 72/1/11
f 73/1/15 74/1/15 75/1/16
f 76/1/12 77/1/9 78/1/12
f 79/1/17 80/1/13 81/1/17
f 82/1/10 83/1/13 84/1/10
f 85/1/13 86/1/17 87/1/13
f 88/1/14 89/1/18 90/1/14
f 91/1/19 92/1/19 93/1/15
f 94/1/16 95/1/16 96/1/15
f 97/1/15 98/1/15 99/1/19
f 100/1/16 101/1/16 102/1/20
f 103/1/17 104/1/21 105/1/17
f 106/1/18 107/1/14 108/1/18
f 109/1/18 110/1/18 111/1/19
f 112/1/19 113/1/19 114/1/18
f 115/1/20 116/1/20 117/1/22
f 118/1/20 119/1/20 120/1/16
f 121/1/21 122/1/17 123/1/21
f 124/1/23 125/1/21 126/1/23
f 127/1/24 128/1/23 129/1/24
f 130/1/22 131/1/22 132/1/20
f 133/1/21 134/1/23 135/1/21
f 136/1/25 137/1/24 138/1/25
f 139/1/23 140/1/24 141/1/23
f 142/1/24 143/1/25 144/1/24
f 145/1/25 146/1/25 147/1/26
f 148/1/26 149/1/26 150/1/22
f 151/1/22 152/1/22 153/1/26
f 154/1/26 155/1/26 156/1/25
usemtl material_1_0
f 157/2/26 158/3/22 159/4/22
f 160/4/22 161/5/20 162/6/20
f 163/6/20 164/7/16 165/8/16
f 166/9/25 167/10/26 168/2/26
f 169/3/22 170/2/26 171/10/26
f 172/5/20 173/4/22 174/3/22
f 175/7/16 176/6/20 177/5/20
f 178/11/15 179/8/16 180/7/16
f 181/10/26 182/9/25 183/12/25
f 184/8/16 185/11/15 186/13/15
f 187/14/24 188/9/25 189/15/24
f 190/9/25 191/14/24 192/12/25
f 193/16/19 194/13/15 195/11/15
f 196/15/24 197/17/23 198/14/24
f 199/13/15 200/16/19 201/18/19
f 202/17/23 203/15/24 204/19/23
f 205/20/18 206/18/19 207/16/19
f 208/21/17 209/22/21 210/23/17
f 211/19/23 212/24/21 213/17/23
f 214/25/14 215/20/18 216/26/14
f 217/18/19 218/20/18 219/27/18
f 220/28/13 221/23/17 222/29/13
f 223/22/21 224/21/17 225/24/21
f 226/23/17 227/28/13 228/21/17
f 229/30/4 230/31/6 231/32/6
f 232/24/21 233/19/23 234/22/21
f 235/33/11 236/26/14 237/34/11
f 238/20/18 239/25/14 240/27/18
f 241/26/14 242/33/11 243/25/14
f 244/29/13 245/35/10 246/28/13
f 247/32/6 248/36/8 249/37/8
f 250/31/6 251/30/4 252/38/4
f 253/36/8 254/32/6 255/31/6
f 256/39/3 257/38/4 258/30/4
f 259/34/11 260/40/12 261/33/11
f 262/35/10 263/29/13 264/41/10
f 265/37/8 266/35/10 267/41/10
f 268/35/10 269/37/8 270/36/8
f 271/42/1 272/43/3 273/1/3
f 274/38/4 275/39/3 276/44/3
f 277/40/12 278/34/11 279/45/12
f 280/46/9 281/45/12 282/47/9
f 283/48/7 284/47/9 285/49/7
f 286/43/3 287/42/1 288/50/1
f 289/45/12 290/46/9 291/40/12
f 292/51/5 293/49/7 294/52/5
f 295/47/9 296/48/7 297/46/9
f 298/49/7 299/51/5 300/48/7
f 301/53/2 302/51/5 303/52/5
f 304/50/1 305/54/2 306/53/2
f 307/54/2 308/50/1 309/42/1
f 310/51/5 311/53/2 312/54/2
