# SSTK version 0.8.0
# 57
mtllib original-57.mtl
o 3dw.2c6493d31849c15a75f1efca97bee05a/Model/Sentry_Really_Big_Remote1/Sentry_Really_Big_Remote/mesh1/mesh1-geometry/material_2/component_13#mesh1-geometry
v 0.388230 0.853433 0.036737
v 0.388230 0.714792 0.036737
v 0.388230 0.853433 0.047007
v 0.388230 0.853433 0.036737
v 0.388230 0.853433 0.047007
v 0.271841 0.853433 0.036737
v 0.388230 0.714792 0.047007
v 0.388230 0.853433 0.047007
v 0.388230 0.714792 0.036737
v 0.271841 0.853433 0.047007
v 0.271841 0.853433 0.036737
v 0.388230 0.853433 0.047007
v 0.388230 0.714792 0.047007
v 0.388230 0.714792 0.036737
v 0.271841 0.714792 0.047007
v 0.271841 0.714792 0.036737
v 0.271841 0.714792 0.047007
v 0.388230 0.714792 0.036737
v 0.271841 0.853433 0.047007
v 0.271841 0.714792 0.047007
v 0.271841 0.853433 0.036737
v 0.271841 0.714792 0.036737
v 0.271841 0.853433 0.036737
v 0.271841 0.714792 0.047007
v 0.388230 0.853433 0.047007
v 0.388230 0.714792 0.036737
v 0.388230 0.853433 0.036737
v 0.271841 0.853433 0.036737
v 0.388230 0.853433 0.047007
v 0.388230 0.853433 0.036737
v 0.388230 0.714792 0.036737
v 0.388230 0.853433 0.047007
v 0.388230 0.714792 0.047007
v 0.388230 0.853433 0.047007
v 0.271841 0.853433 0.036737
v 0.271841 0.853433 0.047007
v 0.271841 0.714792 0.047007
v 0.388230 0.714792 0.036737
v 0.388230 0.714792 0.047007
v 0.388230 0.714792 0.036737
v 0.271841 0.714792 0.047007
v 0.271841 0.714792 0.036737
v 0.271841 0.853433 0.036737
v 0.271841 0.714792 0.047007
v 0.271841 0.853433 0.047007
v 0.271841 0.714792 0.047007
v 0.271841 0.853433 0.036737
v 0.271841 0.714792 0.036737
vt 0 0
vt -1.9313819408416748 0.402554988861084
vt -7.365841865539551 0
vt -1.9313819408416748 0
vt -27.190702438354492 0
vt -31.752965927124023 0.402554988861084
vt -31.752965927124023 0
vt -7.365841865539551 0.402554988861084
vt -27.190702438354492 0.402554988861084
vt 27.190702438354492 0.402554988861084
vt 31.752965927124023 0
vt 31.752965927124023 0.402554988861084
vt 27.190702438354492 0
vt 1.9313819408416748 0
vt 7.365841865539551 0.402554988861084
vt 1.9313819408416748 0.402554988861084
vt 7.365841865539551 0
vn -1 0 0
vn 0 -1 0
vn 0 1 0
vn 1 0 0
usemtl material_0_0
f 1/1/1 2/1/1 3/1/1
f 4/1/2 5/1/2 6/1/2
f 7/1/1 8/1/1 9/1/1
f 10/1/2 11/1/2 12/1/2
f 13/1/3 14/1/3 15/1/3
f 16/1/3 17/1/3 18/1/3
f 19/1/4 20/1/4 21/1/4
f 22/1/4 23/1/4 24/1/4
usemtl material_1_0
f 25/2/4 26/3/4 27/4/4
f 28/5/3 29/6/3 30/7/3
f 31/3/4 32/2/4 33/8/4
f 34/6/3 35/5/3 36/9/3
f 37/10/2 38/11/2 39/12/2
f 40/11/2 41/10/2 42/13/2
f 43/14/1 44/15/1 45/16/1
f 46/15/1 47/14/1 48/17/1
