# SSTK version 0.8.0
# 4
mtllib original-4.mtl
o 3dw.2c6493d31849c15a75f1efca97bee05a/Model/Sentry_Really_Big_Remote1/Sentry_Really_Big_Remote/mesh1/mesh1-geometry/material_0/component_3#mesh1-geometry
v -0.320329 0.141130 0.047007
v -0.284003 0.141130 0.047007
v -0.302166 0.143521 0.047007
v -0.284003 0.141130 0.047007
v -0.337254 0.134120 0.047007
v -0.267078 0.134120 0.047007
v -0.284003 0.141130 0.047007
v -0.320329 0.141130 0.047007
v -0.337254 0.134120 0.047007
v -0.267078 0.134120 0.047007
v -0.337254 0.134120 0.047007
v -0.351788 0.122967 0.047007
v -0.267078 0.134120 0.047007
v -0.351788 0.122967 0.047007
v -0.252544 0.122967 0.047007
v -0.252544 0.122967 0.047007
v -0.351788 0.122967 0.047007
v -0.362941 0.108433 0.047007
v -0.252544 0.122967 0.047007
v -0.362941 0.108433 0.047007
v -0.241392 0.108433 0.047007
v -0.241392 0.108433 0.047007
v -0.362941 0.108433 0.047007
v -0.369951 0.091508 0.047007
v -0.241392 0.108433 0.047007
v -0.369951 0.091508 0.047007
v -0.234381 0.091508 0.047007
v -0.234381 0.091508 0.047007
v -0.369951 0.091508 0.047007
v -0.372342 0.073345 0.047007
v -0.234381 0.091508 0.047007
v -0.372342 0.073345 0.047007
v -0.231990 0.073345 0.047007
v -0.231990 0.073345 0.047007
v -0.372342 0.073345 0.047007
v -0.369951 0.055182 0.047007
v -0.231990 0.073345 0.047007
v -0.369951 0.055182 0.047007
v -0.234381 0.055182 0.047007
v -0.284003 0.005560 0.047007
v -0.320329 0.005560 0.047007
v -0.302166 0.003169 0.047007
v -0.234381 0.055182 0.047007
v -0.369951 0.055182 0.047007
v -0.362941 0.038257 0.047007
v -0.267078 0.012571 0.047007
v -0.320329 0.005560 0.047007
v -0.284003 0.005560 0.047007
v -0.234381 0.055182 0.047007
v -0.362941 0.038257 0.047007
v -0.241392 0.038257 0.047007
v -0.267078 0.012571 0.047007
v -0.337254 0.012571 0.047007
v -0.320329 0.005560 0.047007
v -0.241392 0.038257 0.047007
v -0.362941 0.038257 0.047007
v -0.351788 0.023723 0.047007
v -0.252544 0.023723 0.047007
v -0.337254 0.012571 0.047007
v -0.267078 0.012571 0.047007
v -0.241392 0.038257 0.047007
v -0.351788 0.023723 0.047007
v -0.252544 0.023723 0.047007
v -0.252544 0.023723 0.047007
v -0.351788 0.023723 0.047007
v -0.337254 0.012571 0.047007
v -0.302166 0.143521 0.047007
v -0.284003 0.141130 0.047007
v -0.320329 0.141130 0.047007
v -0.267078 0.134120 0.047007
v -0.337254 0.134120 0.047007
v -0.284003 0.141130 0.047007
v -0.337254 0.134120 0.047007
v -0.320329 0.141130 0.047007
v -0.284003 0.141130 0.047007
v -0.351788 0.122967 0.047007
v -0.337254 0.134120 0.047007
v -0.267078 0.134120 0.047007
v -0.252544 0.122967 0.047007
v -0.351788 0.122967 0.047007
v -0.267078 0.134120 0.047007
v -0.362941 0.108433 0.047007
v -0.351788 0.122967 0.047007
v -0.252544 0.122967 0.047007
v -0.241392 0.108433 0.047007
v -0.362941 0.108433 0.047007
v -0.252544 0.122967 0.047007
v -0.369951 0.091508 0.047007
v -0.362941 0.108433 0.047007
v -0.241392 0.108433 0.047007
v -0.234381 0.091508 0.047007
v -0.369951 0.091508 0.047007
v -0.241392 0.108433 0.047007
v -0.372342 0.073345 0.047007
v -0.369951 0.091508 0.047007
v -0.234381 0.091508 0.047007
v -0.231990 0.073345 0.047007
v -0.372342 0.073345 0.047007
v -0.234381 0.091508 0.047007
v -0.369951 0.055182 0.047007
v -0.372342 0.073345 0.047007
v -0.231990 0.073345 0.047007
v -0.234381 0.055182 0.047007
v -0.369951 0.055182 0.047007
v -0.231990 0.073345 0.047007
v -0.302166 0.003169 0.047007
v -0.320329 0.005560 0.047007
v -0.284003 0.005560 0.047007
v -0.362941 0.038257 0.047007
v -0.369951 0.055182 0.047007
v -0.234381 0.055182 0.047007
v -0.284003 0.005560 0.047007
v -0.320329 0.005560 0.047007
v -0.267078 0.012571 0.047007
v -0.241392 0.038257 0.047007
v -0.362941 0.038257 0.047007
v -0.234381 0.055182 0.047007
v -0.320329 0.005560 0.047007
v -0.337254 0.012571 0.047007
v -0.267078 0.012571 0.047007
v -0.351788 0.023723 0.047007
v -0.362941 0.038257 0.047007
v -0.241392 0.038257 0.047007
v -0.267078 0.012571 0.047007
v -0.337254 0.012571 0.047007
v -0.252544 0.023723 0.047007
v -0.252544 0.023723 0.047007
v -0.351788 0.023723 0.047007
v -0.241392 0.038257 0.047007
v -0.337254 0.012571 0.047007
v -0.351788 0.023723 0.047007
v -0.252544 0.023723 0.047007
vt 0.4189690053462982 0.1205340027809143
vt 0.4189690053462982 0.16367100179195404
vt 0.41765400767326355 0.14210200309753418
vt 0.42282599210739136 0.1004360020160675
vt 0.42282599210739136 0.18376900255680084
vt 0.42896100878715515 0.08317700028419495
vt 0.42896100878715515 0.2010280042886734
vt 0.4369570016860962 0.06993400305509567
vt 0.4369570016860962 0.21427099406719208
vt 0.4462679922580719 0.06160899996757507
vt 0.4462679922580719 0.22259600460529327
vt 0.45625999569892883 0.058768998831510544
vt 0.45625999569892883 0.2254360020160675
vt 0.46625199913978577 0.06160899996757507
vt 0.46625199913978577 0.22259600460529327
vt 0.49355098605155945 0.16367100179195404
vt 0.49355098605155945 0.1205340027809143
vt 0.4948669970035553 0.14210200309753418
vt 0.4755629897117615 0.06993400305509567
vt 0.4896939992904663 0.18376900255680084
vt 0.4755629897117615 0.21427099406719208
vt 0.4896939992904663 0.1004360020160675
vt 0.4835590124130249 0.08317700028419495
vt 0.4835590124130249 0.2010280042886734
vt 0 0
vn 0 0 1
vn 0 0 -1
usemtl material_0_0
f 1/1/1 2/2/1 3/3/1
f 4/2/1 5/4/1 6/5/1
f 7/2/1 8/1/1 9/4/1
f 10/5/1 11/4/1 12/6/1
f 13/5/1 14/6/1 15/7/1
f 16/7/1 17/6/1 18/8/1
f 19/7/1 20/8/1 21/9/1
f 22/9/1 23/8/1 24/10/1
f 25/9/1 26/10/1 27/11/1
f 28/11/1 29/10/1 30/12/1
f 31/11/1 32/12/1 33/13/1
f 34/13/1 35/12/1 36/14/1
f 37/13/1 38/14/1 39/15/1
f 40/16/1 41/17/1 42/18/1
f 43/15/1 44/14/1 45/19/1
f 46/20/1 47/17/1 48/16/1
f 49/15/1 50/19/1 51/21/1
f 52/20/1 53/22/1 54/17/1
f 55/21/1 56/19/1 57/23/1
f 58/24/1 59/22/1 60/20/1
f 61/21/1 62/23/1 63/24/1
f 64/24/1 65/23/1 66/22/1
usemtl material_1_0
f 67/25/2 68/25/2 69/25/2
f 70/25/2 71/25/2 72/25/2
f 73/25/2 74/25/2 75/25/2
f 76/25/2 77/25/2 78/25/2
f 79/25/2 80/25/2 81/25/2
f 82/25/2 83/25/2 84/25/2
f 85/25/2 86/25/2 87/25/2
f 88/25/2 89/25/2 90/25/2
f 91/25/2 92/25/2 93/25/2
f 94/25/2 95/25/2 96/25/2
f 97/25/2 98/25/2 99/25/2
f 100/25/2 101/25/2 102/25/2
f 103/25/2 104/25/2 105/25/2
f 106/25/2 107/25/2 108/25/2
f 109/25/2 110/25/2 111/25/2
f 112/25/2 113/25/2 114/25/2
f 115/25/2 116/25/2 117/25/2
f 118/25/2 119/25/2 120/25/2
f 121/25/2 122/25/2 123/25/2
f 124/25/2 125/25/2 126/25/2
f 127/25/2 128/25/2 129/25/2
f 130/25/2 131/25/2 132/25/2
