# SSTK version 0.8.0
# 30
mtllib original-30.mtl
o 3dw.2c6493d31849c15a75f1efca97bee05a/Model/Sentry_Really_Big_Remote1/Sentry_Really_Big_Remote/mesh1/mesh1-geometry/material_0/component_29#mesh1-geometry
v -0.362324 0.535809 0.047007
v -0.244223 0.672738 0.047007
v -0.362324 0.672738 0.047007
v -0.244223 0.672738 0.047007
v -0.362324 0.535809 0.047007
v -0.244223 0.535809 0.047007
v -0.362324 0.672738 0.047007
v -0.244223 0.672738 0.047007
v -0.362324 0.535809 0.047007
v -0.244223 0.535809 0.047007
v -0.362324 0.535809 0.047007
v -0.244223 0.672738 0.047007
vt 0.20184199512004852 0.07066600024700165
vt 0.12651300430297852 0.21091000735759735
vt 0.12651300430297852 0.07066600024700165
vt 0.20184199512004852 0.21091000735759735
vt 0 0
vn 0 0 1
vn 0 0 -1
usemtl material_0_0
f 1/1/1 2/2/1 3/3/1
f 4/2/1 5/1/1 6/4/1
usemtl material_1_0
f 7/5/2 8/5/2 9/5/2
f 10/5/2 11/5/2 12/5/2
