# SSTK version 0.8.0
# 70
mtllib original-70.mtl
o 3dw.2c6493d31849c15a75f1efca97bee05a/Model/Sentry_Really_Big_Remote1/Sentry_Really_Big_Remote/mesh1/mesh1-geometry/material_2/component_26#mesh1-geometry
v 0.246851 -0.207814 0.036737
v 0.246851 -0.207814 0.047007
v 0.111633 -0.207814 0.036737
v 0.111633 -0.207814 0.047007
v 0.111633 -0.207814 0.036737
v 0.246851 -0.207814 0.047007
v 0.246851 -0.207814 0.036737
v 0.246851 -0.355013 0.036737
v 0.246851 -0.207814 0.047007
v 0.111633 -0.355013 0.036737
v 0.111633 -0.207814 0.036737
v 0.111633 -0.355013 0.047007
v 0.111633 -0.207814 0.047007
v 0.111633 -0.355013 0.047007
v 0.111633 -0.207814 0.036737
v 0.246851 -0.355013 0.047007
v 0.246851 -0.207814 0.047007
v 0.246851 -0.355013 0.036737
v 0.111633 -0.355013 0.036737
v 0.111633 -0.355013 0.047007
v 0.246851 -0.355013 0.036737
v 0.246851 -0.355013 0.047007
v 0.246851 -0.355013 0.036737
v 0.111633 -0.355013 0.047007
v 0.111633 -0.207814 0.036737
v 0.246851 -0.207814 0.047007
v 0.246851 -0.207814 0.036737
v 0.246851 -0.207814 0.047007
v 0.111633 -0.207814 0.036737
v 0.111633 -0.207814 0.047007
v 0.246851 -0.207814 0.047007
v 0.246851 -0.355013 0.036737
v 0.246851 -0.207814 0.036737
v 0.111633 -0.355013 0.047007
v 0.111633 -0.207814 0.036737
v 0.111633 -0.355013 0.036737
v 0.111633 -0.207814 0.036737
v 0.111633 -0.355013 0.047007
v 0.111633 -0.207814 0.047007
v 0.246851 -0.355013 0.036737
v 0.246851 -0.207814 0.047007
v 0.246851 -0.355013 0.047007
v 0.246851 -0.355013 0.036737
v 0.111633 -0.355013 0.047007
v 0.111633 -0.355013 0.036737
v 0.111633 -0.355013 0.047007
v 0.246851 -0.355013 0.036737
v 0.246851 -0.355013 0.047007
vt 0 0
vt -20.910871505737305 0
vt -26.211145401000977 0.402554988861084
vt -26.211145401000977 0
vt -20.910871505737305 0.402554988861084
vt -43.53028106689453 0.402554988861084
vt -49.300201416015625 0
vt -43.53028106689453 0
vt 49.300201416015625 0.402554988861084
vt 43.53028106689453 0
vt 49.300201416015625 0
vt 43.53028106689453 0.402554988861084
vt -49.300201416015625 0.402554988861084
vt 26.211145401000977 0
vt 20.910871505737305 0.402554988861084
vt 20.910871505737305 0
vt 26.211145401000977 0.402554988861084
vn 0 -1 0
vn -1 0 0
vn 1 0 0
vn 0 1 0
usemtl material_0_0
f 1/1/1 2/1/1 3/1/1
f 4/1/1 5/1/1 6/1/1
f 7/1/2 8/1/2 9/1/2
f 10/1/3 11/1/3 12/1/3
f 13/1/3 14/1/3 15/1/3
f 16/1/2 17/1/2 18/1/2
f 19/1/4 20/1/4 21/1/4
f 22/1/4 23/1/4 24/1/4
usemtl material_1_0
f 25/2/4 26/3/4 27/4/4
f 28/3/4 29/2/4 30/5/4
f 31/6/3 32/7/3 33/8/3
f 34/9/2 35/10/2 36/11/2
f 37/10/2 38/9/2 39/12/2
f 40/7/3 41/6/3 42/13/3
f 43/14/1 44/15/1 45/16/1
f 46/15/1 47/14/1 48/17/1
