# SSTK version 0.8.0
# 13
mtllib original-13.mtl
o 3dw.2c6493d31849c15a75f1efca97bee05a/Model/Sentry_Really_Big_Remote1/Sentry_Really_Big_Remote/mesh1/mesh1-geometry/material_0/component_12#mesh1-geometry
v -0.123406 0.187996 0.047007
v -0.157073 0.187996 0.047007
v -0.140239 0.185780 0.047007
v -0.107719 0.194494 0.047007
v -0.172760 0.194494 0.047007
v -0.157073 0.187996 0.047007
v -0.107719 0.194494 0.047007
v -0.157073 0.187996 0.047007
v -0.123406 0.187996 0.047007
v -0.094248 0.204830 0.047007
v -0.172760 0.194494 0.047007
v -0.107719 0.194494 0.047007
v -0.094248 0.204830 0.047007
v -0.186231 0.204830 0.047007
v -0.172760 0.194494 0.047007
v -0.083912 0.218301 0.047007
v -0.186231 0.204830 0.047007
v -0.094248 0.204830 0.047007
v -0.083912 0.218301 0.047007
v -0.196567 0.218301 0.047007
v -0.186231 0.204830 0.047007
v -0.157073 0.313647 0.047007
v -0.123406 0.313647 0.047007
v -0.140239 0.315863 0.047007
v -0.123406 0.313647 0.047007
v -0.172760 0.307149 0.047007
v -0.107719 0.307149 0.047007
v -0.077414 0.233987 0.047007
v -0.196567 0.218301 0.047007
v -0.083912 0.218301 0.047007
v -0.123406 0.313647 0.047007
v -0.157073 0.313647 0.047007
v -0.172760 0.307149 0.047007
v -0.107719 0.307149 0.047007
v -0.172760 0.307149 0.047007
v -0.186231 0.296813 0.047007
v -0.107719 0.307149 0.047007
v -0.186231 0.296813 0.047007
v -0.094248 0.296813 0.047007
v -0.094248 0.296813 0.047007
v -0.196567 0.283342 0.047007
v -0.083912 0.283342 0.047007
v -0.083912 0.283342 0.047007
v -0.203065 0.267655 0.047007
v -0.077414 0.267655 0.047007
v -0.077414 0.267655 0.047007
v -0.205281 0.250821 0.047007
v -0.075198 0.250821 0.047007
v -0.075198 0.250821 0.047007
v -0.203065 0.233987 0.047007
v -0.077414 0.233987 0.047007
v -0.077414 0.233987 0.047007
v -0.203065 0.233987 0.047007
v -0.196567 0.218301 0.047007
v -0.094248 0.296813 0.047007
v -0.186231 0.296813 0.047007
v -0.196567 0.283342 0.047007
v -0.083912 0.283342 0.047007
v -0.196567 0.283342 0.047007
v -0.203065 0.267655 0.047007
v -0.077414 0.267655 0.047007
v -0.203065 0.267655 0.047007
v -0.205281 0.250821 0.047007
v -0.075198 0.250821 0.047007
v -0.205281 0.250821 0.047007
v -0.203065 0.233987 0.047007
v -0.140239 0.185780 0.047007
v -0.157073 0.187996 0.047007
v -0.123406 0.187996 0.047007
v -0.157073 0.187996 0.047007
v -0.172760 0.194494 0.047007
v -0.107719 0.194494 0.047007
v -0.123406 0.187996 0.047007
v -0.157073 0.187996 0.047007
v -0.107719 0.194494 0.047007
v -0.107719 0.194494 0.047007
v -0.172760 0.194494 0.047007
v -0.094248 0.204830 0.047007
v -0.172760 0.194494 0.047007
v -0.186231 0.204830 0.047007
v -0.094248 0.204830 0.047007
v -0.094248 0.204830 0.047007
v -0.186231 0.204830 0.047007
v -0.083912 0.218301 0.047007
v -0.186231 0.204830 0.047007
v -0.196567 0.218301 0.047007
v -0.083912 0.218301 0.047007
v -0.140239 0.315863 0.047007
v -0.123406 0.313647 0.047007
v -0.157073 0.313647 0.047007
v -0.107719 0.307149 0.047007
v -0.172760 0.307149 0.047007
v -0.123406 0.313647 0.047007
v -0.083912 0.218301 0.047007
v -0.196567 0.218301 0.047007
v -0.077414 0.233987 0.047007
v -0.172760 0.307149 0.047007
v -0.157073 0.313647 0.047007
v -0.123406 0.313647 0.047007
v -0.186231 0.296813 0.047007
v -0.172760 0.307149 0.047007
v -0.107719 0.307149 0.047007
v -0.094248 0.296813 0.047007
v -0.186231 0.296813 0.047007
v -0.107719 0.307149 0.047007
v -0.083912 0.283342 0.047007
v -0.196567 0.283342 0.047007
v -0.094248 0.296813 0.047007
v -0.077414 0.267655 0.047007
v -0.203065 0.267655 0.047007
v -0.083912 0.283342 0.047007
v -0.075198 0.250821 0.047007
v -0.205281 0.250821 0.047007
v -0.077414 0.267655 0.047007
v -0.077414 0.233987 0.047007
v -0.203065 0.233987 0.047007
v -0.075198 0.250821 0.047007
v -0.196567 0.218301 0.047007
v -0.203065 0.233987 0.047007
v -0.077414 0.233987 0.047007
v -0.196567 0.283342 0.047007
v -0.186231 0.296813 0.047007
v -0.094248 0.296813 0.047007
v -0.203065 0.267655 0.047007
v -0.196567 0.283342 0.047007
v -0.083912 0.283342 0.047007
v -0.205281 0.250821 0.047007
v -0.203065 0.267655 0.047007
v -0.077414 0.267655 0.047007
v -0.203065 0.233987 0.047007
v -0.205281 0.250821 0.047007
v -0.075198 0.250821 0.047007
vt 0.3931869864463806 0.35437801480293274
vt 0.3931869864463806 0.31439799070358276
vt 0.3944059908390045 0.33438798785209656
vt 0.38961198925971985 0.3730059862136841
vt 0.38961198925971985 0.29576998949050903
vt 0.38392600417137146 0.3890019953250885
vt 0.38392600417137146 0.279774010181427
vt 0.3765150010585785 0.40127700567245483
vt 0.3765150010585785 0.26750001311302185
vt 0.3240619897842407 0.31439799070358276
vt 0.3240619897842407 0.35437801480293274
vt 0.3228429853916168 0.33438798785209656
vt 0.3276369869709015 0.29576998949050903
vt 0.3276369869709015 0.3730059862136841
vt 0.3678849935531616 0.4089919924736023
vt 0.33332300186157227 0.279774010181427
vt 0.33332300186157227 0.3890019953250885
vt 0.34073400497436523 0.26750001311302185
vt 0.34073400497436523 0.40127700567245483
vt 0.3493629992008209 0.2597840130329132
vt 0.3493629992008209 0.4089919924736023
vt 0.35862401127815247 0.2571530044078827
vt 0.35862401127815247 0.411624014377594
vt 0.3678849935531616 0.2597840130329132
vt 0 0
vn 0 0 1
vn 0 0 -1
usemtl material_0_0
f 1/1/1 2/2/1 3/3/1
f 4/4/1 5/5/1 6/2/1
f 7/4/1 8/2/1 9/1/1
f 10/6/1 11/5/1 12/4/1
f 13/6/1 14/7/1 15/5/1
f 16/8/1 17/7/1 18/6/1
f 19/8/1 20/9/1 21/7/1
f 22/10/1 23/11/1 24/12/1
f 25/11/1 26/13/1 27/14/1
f 28/15/1 29/9/1 30/8/1
f 31/11/1 32/10/1 33/13/1
f 34/14/1 35/13/1 36/16/1
f 37/14/1 38/16/1 39/17/1
f 40/17/1 41/18/1 42/19/1
f 43/19/1 44/20/1 45/21/1
f 46/21/1 47/22/1 48/23/1
f 49/23/1 50/24/1 51/15/1
f 52/15/1 53/24/1 54/9/1
f 55/17/1 56/16/1 57/18/1
f 58/19/1 59/18/1 60/20/1
f 61/21/1 62/20/1 63/22/1
f 64/23/1 65/22/1 66/24/1
usemtl material_1_0
f 67/25/2 68/25/2 69/25/2
f 70/25/2 71/25/2 72/25/2
f 73/25/2 74/25/2 75/25/2
f 76/25/2 77/25/2 78/25/2
f 79/25/2 80/25/2 81/25/2
f 82/25/2 83/25/2 84/25/2
f 85/25/2 86/25/2 87/25/2
f 88/25/2 89/25/2 90/25/2
f 91/25/2 92/25/2 93/25/2
f 94/25/2 95/25/2 96/25/2
f 97/25/2 98/25/2 99/25/2
f 100/25/2 101/25/2 102/25/2
f 103/25/2 104/25/2 105/25/2
f 106/25/2 107/25/2 108/25/2
f 109/25/2 110/25/2 111/25/2
f 112/25/2 113/25/2 114/25/2
f 115/25/2 116/25/2 117/25/2
f 118/25/2 119/25/2 120/25/2
f 121/25/2 122/25/2 123/25/2
f 124/25/2 125/25/2 126/25/2
f 127/25/2 128/25/2 129/25/2
f 130/25/2 131/25/2 132/25/2
