# SSTK version 0.8.0
# 50
mtllib original-50.mtl
o 3dw.2c6493d31849c15a75f1efca97bee05a/Model/Sentry_Really_Big_Remote1/Sentry_Really_Big_Remote/mesh1/mesh1-geometry/material_2/component_6#mesh1-geometry
v 0.025590 0.184487 0.036737
v 0.025590 0.184487 0.047007
v 0.042504 0.188679 0.036737
v 0.042504 0.188679 0.036737
v 0.042504 0.188679 0.047007
v 0.057757 0.197106 0.036737
v 0.042504 0.188679 0.047007
v 0.042504 0.188679 0.036737
v 0.025590 0.184487 0.047007
v 0.025590 0.184487 0.047007
v 0.025590 0.184487 0.036737
v 0.008167 0.184815 0.047007
v 0.008167 0.184815 0.036737
v 0.008167 0.184815 0.047007
v 0.025590 0.184487 0.036737
v 0.071840 0.290453 0.036737
v 0.080267 0.275200 0.036737
v 0.071840 0.290453 0.047007
v 0.080267 0.275200 0.036737
v 0.084460 0.258286 0.036737
v 0.080267 0.275200 0.047007
v 0.057757 0.197106 0.036737
v 0.057757 0.197106 0.047007
v 0.070309 0.209194 0.036737
v 0.057757 0.197106 0.047007
v 0.057757 0.197106 0.036737
v 0.042504 0.188679 0.047007
v 0.008167 0.184815 0.047007
v 0.008167 0.184815 0.036737
v -0.008577 0.189642 0.047007
v 0.059753 0.303005 0.036737
v 0.071840 0.290453 0.036737
v 0.059753 0.303005 0.047007
v 0.080267 0.275200 0.047007
v 0.071840 0.290453 0.047007
v 0.080267 0.275200 0.036737
v 0.071840 0.290453 0.047007
v 0.059753 0.303005 0.047007
v 0.071840 0.290453 0.036737
v 0.084460 0.258286 0.047007
v 0.080267 0.275200 0.047007
v 0.084460 0.258286 0.036737
v 0.084460 0.258286 0.036737
v 0.084131 0.240863 0.036737
v 0.084460 0.258286 0.047007
v 0.079305 0.224119 0.036737
v 0.070309 0.209194 0.036737
v 0.079305 0.224119 0.047007
v 0.070309 0.209194 0.047007
v 0.070309 0.209194 0.036737
v 0.057757 0.197106 0.047007
v -0.008577 0.189642 0.036737
v -0.008577 0.189642 0.047007
v 0.008167 0.184815 0.036737
v 0.059753 0.303005 0.036737
v 0.059753 0.303005 0.047007
v 0.044828 0.312001 0.036737
v 0.084131 0.240863 0.047007
v 0.084460 0.258286 0.047007
v 0.084131 0.240863 0.036737
v 0.084131 0.240863 0.036737
v 0.079305 0.224119 0.036737
v 0.084131 0.240863 0.047007
v 0.070309 0.209194 0.047007
v 0.079305 0.224119 0.047007
v 0.070309 0.209194 0.036737
v 0.079305 0.224119 0.047007
v 0.084131 0.240863 0.047007
v 0.079305 0.224119 0.036737
v -0.008577 0.189642 0.047007
v -0.008577 0.189642 0.036737
v -0.023502 0.198638 0.047007
v 0.044828 0.312001 0.036737
v 0.044828 0.312001 0.047007
v 0.028084 0.316827 0.036737
v 0.044828 0.312001 0.047007
v 0.044828 0.312001 0.036737
v 0.059753 0.303005 0.047007
v -0.023502 0.198638 0.036737
v -0.023502 0.198638 0.047007
v -0.008577 0.189642 0.036737
v 0.028084 0.316827 0.036737
v 0.028084 0.316827 0.047007
v 0.010661 0.317156 0.036737
v 0.028084 0.316827 0.047007
v 0.028084 0.316827 0.036737
v 0.044828 0.312001 0.047007
v -0.034058 0.292449 0.047007
v -0.043054 0.277524 0.047007
v -0.034058 0.292449 0.036737
v -0.043054 0.277524 0.047007
v -0.047880 0.260780 0.047007
v -0.043054 0.277524 0.036737
v -0.034058 0.292449 0.047007
v -0.034058 0.292449 0.036737
v -0.021506 0.304536 0.047007
v -0.047880 0.260780 0.047007
v -0.048209 0.243357 0.047007
v -0.047880 0.260780 0.036737
v -0.035589 0.211190 0.047007
v -0.023502 0.198638 0.047007
v -0.035589 0.211190 0.036737
v -0.023502 0.198638 0.036737
v -0.035589 0.211190 0.036737
v -0.023502 0.198638 0.047007
v 0.010661 0.317156 0.047007
v 0.010661 0.317156 0.036737
v 0.028084 0.316827 0.047007
v -0.043054 0.277524 0.036737
v -0.034058 0.292449 0.036737
v -0.043054 0.277524 0.047007
v -0.047880 0.260780 0.036737
v -0.043054 0.277524 0.036737
v -0.047880 0.260780 0.047007
v -0.021506 0.304536 0.036737
v -0.021506 0.304536 0.047007
v -0.034058 0.292449 0.036737
v -0.048209 0.243357 0.036737
v -0.047880 0.260780 0.036737
v -0.048209 0.243357 0.047007
v -0.048209 0.243357 0.047007
v -0.044017 0.226443 0.047007
v -0.048209 0.243357 0.036737
v -0.044017 0.226443 0.047007
v -0.035589 0.211190 0.047007
v -0.044017 0.226443 0.036737
v -0.035589 0.211190 0.036737
v -0.044017 0.226443 0.036737
v -0.035589 0.211190 0.047007
v 0.010661 0.317156 0.036737
v 0.010661 0.317156 0.047007
v -0.006253 0.312963 0.036737
v -0.021506 0.304536 0.047007
v -0.021506 0.304536 0.036737
v -0.006253 0.312963 0.047007
v -0.044017 0.226443 0.036737
v -0.048209 0.243357 0.036737
v -0.044017 0.226443 0.047007
v -0.006253 0.312963 0.047007
v -0.006253 0.312963 0.036737
v 0.010661 0.317156 0.047007
v -0.006253 0.312963 0.036737
v -0.006253 0.312963 0.047007
v -0.021506 0.304536 0.036737
v 0.042504 0.188679 0.036737
v 0.025590 0.184487 0.047007
v 0.025590 0.184487 0.036737
v 0.057757 0.197106 0.036737
v 0.042504 0.188679 0.047007
v 0.042504 0.188679 0.036737
v 0.025590 0.184487 0.047007
v 0.042504 0.188679 0.036737
v 0.042504 0.188679 0.047007
v 0.008167 0.184815 0.047007
v 0.025590 0.184487 0.036737
v 0.025590 0.184487 0.047007
v 0.025590 0.184487 0.036737
v 0.008167 0.184815 0.047007
v 0.008167 0.184815 0.036737
v 0.071840 0.290453 0.047007
v 0.080267 0.275200 0.036737
v 0.071840 0.290453 0.036737
v 0.080267 0.275200 0.047007
v 0.084460 0.258286 0.036737
v 0.080267 0.275200 0.036737
v 0.070309 0.209194 0.036737
v 0.057757 0.197106 0.047007
v 0.057757 0.197106 0.036737
v 0.042504 0.188679 0.047007
v 0.057757 0.197106 0.036737
v 0.057757 0.197106 0.047007
v -0.008577 0.189642 0.047007
v 0.008167 0.184815 0.036737
v 0.008167 0.184815 0.047007
v 0.059753 0.303005 0.047007
v 0.071840 0.290453 0.036737
v 0.059753 0.303005 0.036737
v 0.080267 0.275200 0.036737
v 0.071840 0.290453 0.047007
v 0.080267 0.275200 0.047007
v 0.071840 0.290453 0.036737
v 0.059753 0.303005 0.047007
v 0.071840 0.290453 0.047007
v 0.084460 0.258286 0.036737
v 0.080267 0.275200 0.047007
v 0.084460 0.258286 0.047007
v 0.084460 0.258286 0.047007
v 0.084131 0.240863 0.036737
v 0.084460 0.258286 0.036737
v 0.079305 0.224119 0.047007
v 0.070309 0.209194 0.036737
v 0.079305 0.224119 0.036737
v 0.057757 0.197106 0.047007
v 0.070309 0.209194 0.036737
v 0.070309 0.209194 0.047007
v 0.008167 0.184815 0.036737
v -0.008577 0.189642 0.047007
v -0.008577 0.189642 0.036737
v 0.044828 0.312001 0.036737
v 0.059753 0.303005 0.047007
v 0.059753 0.303005 0.036737
v 0.084131 0.240863 0.036737
v 0.084460 0.258286 0.047007
v 0.084131 0.240863 0.047007
v 0.084131 0.240863 0.047007
v 0.079305 0.224119 0.036737
v 0.084131 0.240863 0.036737
v 0.070309 0.209194 0.036737
v 0.079305 0.224119 0.047007
v 0.070309 0.209194 0.047007
v 0.079305 0.224119 0.036737
v 0.084131 0.240863 0.047007
v 0.079305 0.224119 0.047007
v -0.023502 0.198638 0.047007
v -0.008577 0.189642 0.036737
v -0.008577 0.189642 0.047007
v 0.028084 0.316827 0.036737
v 0.044828 0.312001 0.047007
v 0.044828 0.312001 0.036737
v 0.059753 0.303005 0.047007
v 0.044828 0.312001 0.036737
v 0.044828 0.312001 0.047007
v -0.008577 0.189642 0.036737
v -0.023502 0.198638 0.047007
v -0.023502 0.198638 0.036737
v 0.010661 0.317156 0.036737
v 0.028084 0.316827 0.047007
v 0.028084 0.316827 0.036737
v 0.044828 0.312001 0.047007
v 0.028084 0.316827 0.036737
v 0.028084 0.316827 0.047007
v -0.034058 0.292449 0.036737
v -0.043054 0.277524 0.047007
v -0.034058 0.292449 0.047007
v -0.043054 0.277524 0.036737
v -0.047880 0.260780 0.047007
v -0.043054 0.277524 0.047007
v -0.021506 0.304536 0.047007
v -0.034058 0.292449 0.036737
v -0.034058 0.292449 0.047007
v -0.047880 0.260780 0.036737
v -0.048209 0.243357 0.047007
v -0.047880 0.260780 0.047007
v -0.035589 0.211190 0.036737
v -0.023502 0.198638 0.047007
v -0.035589 0.211190 0.047007
v -0.023502 0.198638 0.047007
v -0.035589 0.211190 0.036737
v -0.023502 0.198638 0.036737
v 0.028084 0.316827 0.047007
v 0.010661 0.317156 0.036737
v 0.010661 0.317156 0.047007
v -0.043054 0.277524 0.047007
v -0.034058 0.292449 0.036737
v -0.043054 0.277524 0.036737
v -0.047880 0.260780 0.047007
v -0.043054 0.277524 0.036737
v -0.047880 0.260780 0.036737
v -0.034058 0.292449 0.036737
v -0.021506 0.304536 0.047007
v -0.021506 0.304536 0.036737
v -0.048209 0.243357 0.047007
v -0.047880 0.260780 0.036737
v -0.048209 0.243357 0.036737
v -0.048209 0.243357 0.036737
v -0.044017 0.226443 0.047007
v -0.048209 0.243357 0.047007
v -0.044017 0.226443 0.036737
v -0.035589 0.211190 0.047007
v -0.044017 0.226443 0.047007
v -0.035589 0.211190 0.047007
v -0.044017 0.226443 0.036737
v -0.035589 0.211190 0.036737
v -0.006253 0.312963 0.036737
v 0.010661 0.317156 0.047007
v 0.010661 0.317156 0.036737
v -0.006253 0.312963 0.047007
v -0.021506 0.304536 0.036737
v -0.021506 0.304536 0.047007
v -0.044017 0.226443 0.047007
v -0.048209 0.243357 0.036737
v -0.044017 0.226443 0.036737
v 0.010661 0.317156 0.047007
v -0.006253 0.312963 0.036737
v -0.006253 0.312963 0.047007
v -0.021506 0.304536 0.036737
v -0.006253 0.312963 0.047007
v -0.006253 0.312963 0.036737
vt 0 0
vt 1.3700439929962158 0
vt 0.6850219964981079 0.402554988861084
vt 0.6850219964981079 0
vt 2.0550661087036133 0
vt 1.3700439929962158 0.402554988861084
vt 0 0.402554988861084
vt 6.165198802947998 0.402554988861084
vt 5.48017692565918 0
vt 6.165198802947998 0
vt 5.48017692565918 0.402554988861084
vt 4.795155048370361 0
vt 2.740088939666748 0
vt 2.0550661087036133 0.402554988861084
vt 15.755509376525879 0.402554988861084
vt 16.44053077697754 0
vt 16.44053077697754 0.402554988861084
vt 6.850221157073975 0.402554988861084
vt 6.850221157073975 0
vt 4.795155048370361 0.402554988861084
vt 4.110133171081543 0
vt 3.4251110553741455 0.402554988861084
vt 3.4251110553741455 0
vt 2.740088939666748 0.402554988861084
vt 15.755509376525879 0
vt 7.535243988037109 0
vt 4.110133171081543 0.402554988861084
vt 15.070487022399902 0.402554988861084
vt 8.220266342163086 0
vt 7.535243988037109 0.402554988861084
vt 15.070487022399902 0
vt 8.905287742614746 0
vt 8.220266342163086 0.402554988861084
vt 10.96035385131836 0
vt 11.645376205444336 0.402554988861084
vt 10.96035385131836 0.402554988861084
vt 11.645376205444336 0
vt 12.330398559570312 0.402554988861084
vt 10.2753324508667 0.402554988861084
vt 12.330398559570312 0
vt 13.015420913696289 0.402554988861084
vt 14.385464668273926 0
vt 14.385464668273926 0.402554988861084
vt 8.905287742614746 0.402554988861084
vt 10.2753324508667 0
vt 13.015420913696289 0
vt 13.700443267822266 0.402554988861084
vt 13.700443267822266 0
vt 9.590310096740723 0
vt 9.590310096740723 0.402554988861084
vn -0.11182301759074374 0.9937281382435038 0
vn -0.36520885121674973 0.9309256119545437 0
vn -0.5937060189298751 0.8046820260739261 0
vn 0.14918294611850133 0.9888096119007969 0
vn -0.8046820260739261 -0.5937060189298751 0
vn -0.9309256119545437 -0.36520885121674973 0
vn -0.9937281382435038 -0.11182301759074374 0
vn -0.7817428595380123 0.6236009152986643 0
vn 0.400022204621752 0.9165054477795279 0
vn -0.6236009152986643 -0.7817428595380123 0
vn -0.9888096119007969 0.14918294611850133 0
vn -0.9165054477795279 0.400022204621752 0
vn -0.400022204621752 -0.9165054477795279 0
vn 0.6236009152986643 0.7817428595380123 0
vn -0.14918294611850133 -0.9888096119007969 0
vn 0.11182301759074374 -0.9937281382435038 0
vn 0.7817428595380123 -0.6236009152986643 0
vn 0.9165054477795279 -0.400022204621752 0
vn 0.9888096119007969 -0.14918294611850133 0
vn 0.5937060189298751 -0.8046820260739261 0
vn 0.9937281382435038 0.11182301759074374 0
vn 0.8046820260739261 0.5937060189298751 0
vn 0.9309256119545437 0.36520885121674973 0
vn 0.36520885121674973 -0.9309256119545437 0
usemtl material_0_0
f 1/1/1 2/1/1 3/1/2
f 4/1/2 5/1/2 6/1/3
f 7/1/2 8/1/2 9/1/1
f 10/1/1 11/1/1 12/1/4
f 13/1/4 14/1/4 15/1/1
f 16/1/5 17/1/6 18/1/5
f 19/1/6 20/1/7 21/1/6
f 22/1/3 23/1/3 24/1/8
f 25/1/3 26/1/3 27/1/2
f 28/1/4 29/1/4 30/1/9
f 31/1/10 32/1/5 33/1/10
f 34/1/6 35/1/5 36/1/6
f 37/1/5 38/1/10 39/1/5
f 40/1/7 41/1/6 42/1/7
f 43/1/7 44/1/11 45/1/7
f 46/1/12 47/1/8 48/1/12
f 49/1/8 50/1/8 51/1/3
f 52/1/9 53/1/9 54/1/4
f 55/1/10 56/1/10 57/1/13
f 58/1/11 59/1/7 60/1/11
f 61/1/11 62/1/12 63/1/11
f 64/1/8 65/1/12 66/1/8
f 67/1/12 68/1/11 69/1/12
f 70/1/9 71/1/9 72/1/14
f 73/1/13 74/1/13 75/1/15
f 76/1/13 77/1/13 78/1/10
f 79/1/14 80/1/14 81/1/9
f 82/1/15 83/1/15 84/1/16
f 85/1/15 86/1/15 87/1/13
f 88/1/17 89/1/18 90/1/17
f 91/1/18 92/1/19 93/1/18
f 94/1/17 95/1/17 96/1/20
f 97/1/19 98/1/21 99/1/19
f 100/1/22 101/1/14 102/1/22
f 103/1/14 104/1/22 105/1/14
f 106/1/16 107/1/16 108/1/15
f 109/1/18 110/1/17 111/1/18
f 112/1/19 113/1/18 114/1/19
f 115/1/20 116/1/20 117/1/17
f 118/1/21 119/1/19 120/1/21
f 121/1/21 122/1/23 123/1/21
f 124/1/23 125/1/22 126/1/23
f 127/1/22 128/1/23 129/1/22
f 130/1/16 131/1/16 132/1/24
f 133/1/20 134/1/20 135/1/24
f 136/1/23 137/1/21 138/1/23
f 139/1/24 140/1/24 141/1/16
f 142/1/24 143/1/24 144/1/20
usemtl material_1_0
f 145/2/24 146/3/16 147/4/16
f 148/5/20 149/6/24 150/2/24
f 151/3/16 152/2/24 153/6/24
f 154/7/15 155/4/16 156/3/16
f 157/4/16 158/7/15 159/1/15
f 160/8/22 161/9/23 162/10/22
f 163/11/23 164/12/21 165/9/23
f 166/13/17 167/14/20 168/5/20
f 169/6/24 170/5/20 171/14/20
f 172/15/13 173/16/15 174/17/15
f 175/18/14 176/10/22 177/19/14
f 178/9/23 179/8/22 180/11/23
f 181/10/22 182/18/14 183/8/22
f 184/12/21 185/11/23 186/20/21
f 187/20/21 188/21/19 189/12/21
f 190/22/18 191/13/17 192/23/18
f 193/14/20 194/13/17 195/24/17
f 196/16/15 197/15/13 198/25/13
f 199/26/9 200/18/14 201/19/14
f 202/21/19 203/20/21 204/27/19
f 205/27/19 206/23/18 207/21/19
f 208/13/17 209/22/18 210/24/17
f 211/23/18 212/27/19 213/22/18
f 214/28/10 215/25/13 216/15/13
f 217/29/4 218/30/9 219/26/9
f 220/18/14 221/26/9 222/30/9
f 223/25/13 224/28/10 225/31/10
f 226/32/1 227/33/4 228/29/4
f 229/30/9 230/29/4 231/33/4
f 232/34/8 233/35/12 234/36/8
f 235/37/12 236/38/11 237/35/12
f 238/39/3 239/34/8 240/36/8
f 241/40/11 242/41/7 243/38/11
f 244/42/5 245/28/10 246/43/5
f 247/28/10 248/42/5 249/31/10
f 250/33/4 251/32/1 252/44/1
f 253/35/12 254/34/8 255/37/12
f 256/38/11 257/37/12 258/40/11
f 259/34/8 260/39/3 261/45/3
f 262/41/7 263/40/11 264/46/7
f 265/46/7 266/47/6 267/41/7
f 268/48/6 269/43/5 270/47/6
f 271/43/5 272/48/6 273/42/5
f 274/49/2 275/44/1 276/32/1
f 277/50/2 278/45/3 279/39/3
f 280/47/6 281/46/7 282/48/6
f 283/44/1 284/49/2 285/50/2
f 286/45/3 287/50/2 288/49/2
