# SSTK version 0.8.0
# 58
mtllib original-58.mtl
o 3dw.2c6493d31849c15a75f1efca97bee05a/Model/Sentry_Really_Big_Remote1/Sentry_Really_Big_Remote/mesh1/mesh1-geometry/material_2/component_14#mesh1-geometry
v 0.078728 0.505484 0.036737
v 0.078728 0.505484 0.047007
v -0.046220 0.505484 0.036737
v 0.078728 0.505484 0.036737
v 0.078728 0.356574 0.036737
v 0.078728 0.505484 0.047007
v -0.046220 0.505484 0.047007
v -0.046220 0.505484 0.036737
v 0.078728 0.505484 0.047007
v 0.078728 0.356574 0.047007
v 0.078728 0.505484 0.047007
v 0.078728 0.356574 0.036737
v -0.046220 0.356574 0.036737
v -0.046220 0.356574 0.047007
v 0.078728 0.356574 0.036737
v -0.046220 0.505484 0.047007
v -0.046220 0.356574 0.047007
v -0.046220 0.505484 0.036737
v 0.078728 0.356574 0.047007
v 0.078728 0.356574 0.036737
v -0.046220 0.356574 0.047007
v -0.046220 0.356574 0.036737
v -0.046220 0.505484 0.036737
v -0.046220 0.356574 0.047007
v -0.046220 0.505484 0.036737
v 0.078728 0.505484 0.047007
v 0.078728 0.505484 0.036737
v 0.078728 0.505484 0.047007
v 0.078728 0.356574 0.036737
v 0.078728 0.505484 0.036737
v 0.078728 0.505484 0.047007
v -0.046220 0.505484 0.036737
v -0.046220 0.505484 0.047007
v 0.078728 0.356574 0.036737
v 0.078728 0.505484 0.047007
v 0.078728 0.356574 0.047007
v 0.078728 0.356574 0.036737
v -0.046220 0.356574 0.047007
v -0.046220 0.356574 0.036737
v -0.046220 0.505484 0.036737
v -0.046220 0.356574 0.047007
v -0.046220 0.505484 0.047007
v -0.046220 0.356574 0.047007
v 0.078728 0.356574 0.036737
v 0.078728 0.356574 0.047007
v -0.046220 0.356574 0.047007
v -0.046220 0.505484 0.036737
v -0.046220 0.356574 0.036737
vt 0 0
vt -14.723332405090332 0
vt -19.621055603027344 0.402554988861084
vt -19.621055603027344 0
vt -15.570319175720215 0.402554988861084
vt -21.407331466674805 0
vt -15.570319175720215 0
vt -14.723332405090332 0.402554988861084
vt -21.407331466674805 0.402554988861084
vt 19.621055603027344 0
vt 14.723332405090332 0.402554988861084
vt 14.723332405090332 0
vt 15.570319175720215 0
vt 21.407331466674805 0.402554988861084
vt 15.570319175720215 0.402554988861084
vt 19.621055603027344 0.402554988861084
vt 21.407331466674805 0
vn 0 -1 0
vn -1 0 0
vn 0 1 0
vn 1 0 0
usemtl material_0_0
f 1/1/1 2/1/1 3/1/1
f 4/1/2 5/1/2 6/1/2
f 7/1/1 8/1/1 9/1/1
f 10/1/2 11/1/2 12/1/2
f 13/1/3 14/1/3 15/1/3
f 16/1/4 17/1/4 18/1/4
f 19/1/3 20/1/3 21/1/3
f 22/1/4 23/1/4 24/1/4
usemtl material_1_0
f 25/2/3 26/3/3 27/4/3
f 28/5/4 29/6/4 30/7/4
f 31/3/3 32/2/3 33/8/3
f 34/6/4 35/5/4 36/9/4
f 37/10/1 38/11/1 39/12/1
f 40/13/2 41/14/2 42/15/2
f 43/11/1 44/10/1 45/16/1
f 46/14/2 47/13/2 48/17/2
