# SSTK version 0.8.0
# 38
mtllib original-38.mtl
o 3dw.2c6493d31849c15a75f1efca97bee05a/Model/Sentry_Really_Big_Remote1/Sentry_Really_Big_Remote/mesh1/mesh1-geometry/material_0/component_37#mesh1-geometry
v 0.112939 -0.520131 0.047007
v 0.245848 -0.385126 0.047007
v 0.113276 -0.385126 0.047007
v 0.240887 -0.534037 0.047007
v 0.112939 -0.520131 0.047007
v 0.113049 -0.534037 0.047007
v 0.245848 -0.385126 0.047007
v 0.112939 -0.520131 0.047007
v 0.240887 -0.534037 0.047007
v 0.113276 -0.385126 0.047007
v 0.245848 -0.385126 0.047007
v 0.112939 -0.520131 0.047007
v 0.113049 -0.534037 0.047007
v 0.112939 -0.520131 0.047007
v 0.240887 -0.534037 0.047007
v 0.240887 -0.534037 0.047007
v 0.112939 -0.520131 0.047007
v 0.245848 -0.385126 0.047007
vt 0.7827519774436951 0.63503497838974
vt 0.708482027053833 0.7928619980812073
vt 0.708482027053833 0.6354339718818665
vt 0.7904019951820374 0.7869709730148315
vt 0.7904019951820374 0.6351659893989563
vt 0 0
vn 0 0 1
vn 0 0 -1
usemtl material_0_0
f 1/1/1 2/2/1 3/3/1
f 4/4/1 5/1/1 6/5/1
f 7/2/1 8/1/1 9/4/1
usemtl material_1_0
f 10/6/2 11/6/2 12/6/2
f 13/6/2 14/6/2 15/6/2
f 16/6/2 17/6/2 18/6/2
