# SSTK version 0.8.0
# 86
mtllib original-86.mtl
o 3dw.2c6493d31849c15a75f1efca97bee05a/Model/Sentry_Really_Big_Remote1/Sentry_Really_Big_Remote/mesh1/mesh1-geometry/material_3#mesh1-geometry
v 0.420282 -0.915029 0.036737
v 0.420282 0.902705 0.036737
v 0.420282 -0.915029 -0.045420
v 0.420282 0.902705 -0.045420
v 0.420282 -0.915029 -0.045420
v 0.420282 0.902705 0.036737
v 0.420282 -0.915029 0.036737
v 0.420282 -0.915029 -0.045420
v -0.421833 -0.915029 0.036737
v 0.420282 0.902705 -0.045420
v 0.420282 0.902705 0.036737
v -0.421833 0.902705 -0.045420
v -0.421833 -0.915029 -0.045420
v -0.421833 -0.915029 0.036737
v 0.420282 -0.915029 -0.045420
v -0.421833 0.902705 0.036737
v -0.421833 0.902705 -0.045420
v 0.420282 0.902705 0.036737
v -0.421833 -0.915029 -0.045420
v -0.421833 0.902705 -0.045420
v -0.421833 -0.915029 0.036737
v -0.421833 0.902705 0.036737
v -0.421833 -0.915029 0.036737
v -0.421833 0.902705 -0.045420
v 0.420282 -0.915029 -0.045420
v 0.420282 0.902705 0.036737
v 0.420282 -0.915029 0.036737
v 0.420282 0.902705 0.036737
v 0.420282 -0.915029 -0.045420
v 0.420282 0.902705 -0.045420
v -0.421833 -0.915029 0.036737
v 0.420282 -0.915029 -0.045420
v 0.420282 -0.915029 0.036737
v -0.421833 0.902705 -0.045420
v 0.420282 0.902705 0.036737
v 0.420282 0.902705 -0.045420
v 0.420282 -0.915029 -0.045420
v -0.421833 -0.915029 0.036737
v -0.421833 -0.915029 -0.045420
v 0.420282 0.902705 0.036737
v -0.421833 0.902705 -0.045420
v -0.421833 0.902705 0.036737
v -0.421833 -0.915029 0.036737
v -0.421833 0.902705 -0.045420
v -0.421833 -0.915029 -0.045420
v -0.421833 0.902705 -0.045420
v -0.421833 -0.915029 0.036737
v -0.421833 0.902705 0.036737
vt 0 0
vt -24.524951934814453 -2.057574987411499
vt -24.524951934814453 0
vt 0 -2.057574987411499
vt 11.361842155456543 -2.057574987411499
vt 11.361842155456543 0
vt -11.361842155456543 0
vt -11.361842155456543 -2.057574987411499
vt 24.524951934814453 0
vt 24.524951934814453 -2.057574987411499
vn -1 0 0
vn 0 1 0
vn 0 -1 0
vn 1 0 0
usemtl material_0_0
f 1/1/1 2/1/1 3/1/1
f 4/1/1 5/1/1 6/1/1
f 7/1/2 8/1/2 9/1/2
f 10/1/3 11/1/3 12/1/3
f 13/1/2 14/1/2 15/1/2
f 16/1/3 17/1/3 18/1/3
f 19/1/4 20/1/4 21/1/4
f 22/1/4 23/1/4 24/1/4
usemtl material_1_0
f 25/2/4 26/1/4 27/3/4
f 28/1/4 29/2/4 30/4/4
f 31/1/3 32/5/3 33/6/3
f 34/4/2 35/7/2 36/8/2
f 37/5/3 38/1/3 39/4/3
f 40/7/2 41/4/2 42/1/2
f 43/9/1 44/4/1 45/10/1
f 46/4/1 47/9/1 48/1/1
