# SSTK version 0.8.0
# 4
mtllib original-4.mtl
o mesh3/mesh3-geometry#mesh3-geometry
v -0.235867 -0.060987 0.624391
v -0.236333 -0.080199 0.557661
v -0.235867 -0.080199 0.624391
v -0.236333 -0.060987 0.557661
v -0.102409 -0.080199 0.623459
v -0.302596 -0.080199 0.624856
v -0.102875 -0.060987 0.556729
v -0.303062 -0.060987 0.558127
v -0.102875 -0.080199 0.556729
v -0.035681 -0.080199 0.622993
v -0.302596 -0.060987 0.624856
v -0.102409 -0.060987 0.623459
v 0.009974 -0.060987 0.355745
v -0.303062 -0.080199 0.558127
v -0.371189 -0.080199 0.358406
v -0.035681 -0.060987 0.622993
v 0.032213 -0.080199 0.789349
v -0.036146 -0.060987 0.556263
v -0.351978 -0.060987 0.358272
v -0.036146 -0.080199 0.556263
v 0.029185 -0.080199 0.355611
v -0.368161 -0.080199 0.792145
v -0.351978 0.004577 0.358272
v -0.348950 -0.060987 0.792010
v 0.032213 0.053262 0.789349
v 0.013002 -0.060987 0.789484
v 0.009974 0.004577 0.355745
v -0.348950 0.004577 0.792010
v 0.029185 0.053262 0.355611
v 0.013002 0.034050 0.789484
v -0.368161 0.053262 0.792145
v 0.013002 0.004577 0.789484
v -0.351978 0.034050 0.358272
v 0.009974 0.034050 0.355745
v -0.035681 0.053262 0.622993
v -0.167974 0.053262 0.790747
v -0.371189 0.053262 0.358406
v -0.348950 0.034050 0.792010
v -0.036146 0.053262 0.556263
v -0.302596 0.053262 0.624856
v -0.171002 0.053262 0.357008
v -0.035681 0.034050 0.622993
v -0.302596 0.034050 0.624856
v -0.168750 0.053262 0.679532
v -0.102875 0.053262 0.556729
v -0.036146 0.034050 0.556263
v -0.202115 0.053262 0.679764
v -0.303062 0.053262 0.558127
v -0.169992 0.053262 0.501588
v -0.203357 0.053262 0.501821
v -0.303062 0.034050 0.558127
v -0.168983 0.053262 0.646167
v -0.169760 0.053262 0.534952
v -0.102875 0.034050 0.556729
v -0.202348 0.053262 0.646400
v -0.203124 0.053262 0.535185
v -0.235867 0.034050 0.624391
v -0.236333 0.034050 0.557661
v -0.102409 0.053262 0.623459
v -0.102409 0.034050 0.623459
v -0.235867 0.053262 0.624391
v -0.236333 0.053262 0.557661
vt -0.005104 0.007276
vt -0.003645 0.004359
vt -0.003645 0.007276
vt 0.003645 0.007276
vt 0.005104 0.004359
vt 0.005104 0.007276
vt -0.005104 0.004359
vt -0.003645 0.002901
vt -0.003645 0.008734
vt 0.003645 0.004359
vt 0.009478 0.001863
vt 0.005104 0.008734
vt -0.009478 0.010192
vt 0.003645 0.008734
vt 0 0.001443
vt 0.005104 0.002901
vt -0.005104 0.008734
vt 0.009478 0.009772
vt -0.005104 0.002901
vt 0.003645 0.002901
vt -0.009478 0.001443
vt 0 0.010192
vt 0 0.009772
vt 0.009478 0.001458
vt 0 0.004374
vt 0 0.001458
vt -0.001443 0.001458
vt -0.001863 0.001878
vt -0.010192 0.001458
vt 0 0.001863
vt 0 0.003311
vt 0.009478 0.001878
vt 0.009478 0.003311
vt 0 0.001878
vt 0.009478 0.004374
vt -0.001443 0.004374
vt -0.001863 0.003955
vt -0.009772 0.001878
vt -0.009478 0.001878
vt -0.009478 0.003311
vt -0.009772 0.003311
vt -0.010192 0.004374
vt 0.009478 0.001443
vt -0.005818 0.004374
vt -0.001863 0.003311
vt -0.009772 0.003955
vt 0 0.005818
vt 0.009478 0.010192
vt 0.00243 0.005818
vt 0.00243 0.006547
vt 0.006319 0.005818
vt 0.009478 0.005818
vt 0.006319 0.006547
vt 0.003159 0.005818
vt 0.00559 0.005818
vt 0.003159 0.006547
vt 0.00559 0.006547
vn -0.9999756323449739 0 0.006981025445422626
vn 0.9999756323449739 0 -0.006981025445422626
vn 0 1 0
vn -0.006981025445422626 0 -0.9999756323449739
vn 0.006981025445422626 0 0.9999756323449739
vn 0 -1 0
usemtl material_0_0
f 1//1 2//1 3//1
f 2//1 1//1 4//1
f 3//2 2//2 1//2
f 4//2 1//2 2//2
f 3//3 5//3 2//3
f 6//4 1//4 3//4
f 3//5 1//5 6//5
f 4//6 7//6 1//6
f 8//5 2//5 4//5
f 4//4 2//4 8//4
f 9//3 2//3 5//3
f 5//3 3//3 10//3
f 1//4 6//4 11//4
f 11//5 6//5 1//5
f 3//3 6//3 10//3
f 12//6 1//6 7//6
f 4//6 13//6 7//6
f 2//5 8//5 14//5
f 14//4 8//4 2//4
f 8//6 13//6 4//6
f 9//3 15//3 2//3
f 7//2 5//2 9//2
f 9//1 5//1 7//1
f 5//4 16//4 10//4
f 10//5 16//5 5//5
f 6//2 8//2 11//2
f 11//1 8//1 6//1
f 1//6 12//6 11//6
f 6//3 17//3 10//3
f 5//2 7//2 12//2
f 12//1 7//1 5//1
f 7//6 13//6 18//6
f 8//2 6//2 14//2
f 14//1 6//1 8//1
f 2//3 15//3 14//3
f 13//6 8//6 19//6
f 20//3 15//3 9//3
f 9//5 18//5 7//5
f 7//4 18//4 9//4
f 16//4 5//4 12//4
f 12//5 5//5 16//5
f 16//1 20//1 10//1
f 10//2 20//2 16//2
f 8//6 11//6 19//6
f 12//6 16//6 11//6
f 21//3 10//3 17//3
f 17//3 6//3 22//3
f 18//6 13//6 16//6
f 14//3 15//3 6//3
f 13//4 15//4 19//4
f 19//5 15//5 13//5
f 13//5 23//5 19//5
f 19//4 23//4 13//4
f 15//3 20//3 21//3
f 18//5 9//5 20//5
f 20//4 9//4 18//4
f 20//1 16//1 18//1
f 18//2 16//2 20//2
f 20//3 10//3 21//3
f 19//6 11//6 24//6
f 16//6 24//6 11//6
f 17//1 25//1 21//1
f 15//3 22//3 6//3
f 22//4 26//4 17//4
f 13//6 26//6 16//6
f 13//4 21//4 15//4
f 15//5 21//5 13//5
f 19//4 15//4 23//4
f 23//5 15//5 19//5
f 23//5 13//5 27//5
f 27//4 13//4 23//4
f 23//1 19//1 28//1
f 24//1 28//1 19//1
f 24//6 16//6 26//6
f 29//1 21//1 25//1
f 17//4 30//4 25//4
f 31//1 15//1 22//1
f 22//2 15//2 31//2
f 30//4 17//4 26//4
f 24//4 26//4 22//4
f 26//2 13//2 32//2
f 21//4 13//4 29//4
f 29//5 13//5 21//5
f 23//4 15//4 33//4
f 33//5 15//5 23//5
f 34//4 13//4 27//4
f 27//5 13//5 34//5
f 27//2 32//2 13//2
f 32//6 23//6 27//6
f 27//3 23//3 32//3
f 23//6 32//6 28//6
f 28//3 32//3 23//3
f 33//2 28//2 23//2
f 23//1 28//1 33//1
f 24//4 31//4 28//4
f 29//6 25//6 35//6
f 36//4 25//4 30//4
f 15//1 31//1 37//1
f 37//2 31//2 15//2
f 31//4 24//4 22//4
f 32//4 30//4 26//4
f 34//4 29//4 13//4
f 13//5 29//5 34//5
f 37//4 33//4 15//4
f 15//5 33//5 37//5
f 27//1 30//1 34//1
f 34//2 30//2 27//2
f 30//1 27//1 32//1
f 32//2 27//2 30//2
f 32//5 38//5 28//5
f 28//4 38//4 32//4
f 28//2 33//2 38//2
f 38//1 33//1 28//1
f 28//4 31//4 38//4
f 36//6 35//6 25//6
f 39//6 29//6 35//6
f 38//4 36//4 30//4
f 37//6 40//6 31//6
f 38//5 32//5 30//5
f 30//4 32//4 38//4
f 29//4 34//4 41//4
f 41//5 34//5 29//5
f 41//4 33//4 37//4
f 37//5 33//5 41//5
f 30//6 42//6 34//6
f 34//3 42//3 30//3
f 43//6 38//6 33//6
f 33//3 38//3 43//3
f 31//4 36//4 38//4
f 44//6 35//6 36//6
f 45//6 29//6 39//6
f 46//1 35//1 39//1
f 39//2 35//2 46//2
f 38//6 43//6 30//6
f 30//3 43//3 38//3
f 40//6 47//6 31//6
f 48//6 40//6 37//6
f 41//4 34//4 33//4
f 33//5 34//5 41//5
f 41//6 29//6 49//6
f 41//6 50//6 37//6
f 42//6 30//6 43//6
f 43//3 30//3 42//3
f 34//6 42//6 46//6
f 46//3 42//3 34//3
f 43//6 33//6 51//6
f 51//3 33//3 43//3
f 36//6 31//6 44//6
f 52//6 35//6 44//6
f 53//6 29//6 45//6
f 54//5 39//5 45//5
f 45//4 39//4 54//4
f 35//1 46//1 42//1
f 42//2 46//2 35//2
f 39//5 54//5 46//5
f 46//4 54//4 39//4
f 47//6 44//6 31//6
f 55//6 47//6 40//6
f 43//2 48//2 40//2
f 40//1 48//1 43//1
f 56//6 48//6 37//6
f 34//6 46//6 33//6
f 33//3 46//3 34//3
f 49//6 29//6 53//6
f 49//6 50//6 41//6
f 50//6 56//6 37//6
f 42//6 43//6 57//6
f 57//3 43//3 42//3
f 51//6 33//6 58//6
f 58//3 33//3 51//3
f 48//2 43//2 51//2
f 51//1 43//1 48//1
f 35//6 52//6 59//6
f 52//3 47//3 44//3
f 44//6 47//6 52//6
f 45//6 59//6 53//6
f 45//2 60//2 54//2
f 54//1 60//1 45//1
f 60//4 35//4 42//4
f 42//5 35//5 60//5
f 54//6 33//6 46//6
f 46//3 33//3 54//3
f 47//3 52//3 55//3
f 55//6 52//6 47//6
f 61//6 55//6 40//6
f 61//4 43//4 40//4
f 40//5 43//5 61//5
f 53//6 48//6 56//6
f 49//3 56//3 53//3
f 53//6 56//6 49//6
f 56//3 49//3 50//3
f 50//6 49//6 56//6
f 43//4 61//4 57//4
f 57//5 61//5 43//5
f 42//6 57//6 60//6
f 60//3 57//3 42//3
f 58//6 33//6 54//6
f 54//3 33//3 58//3
f 58//5 48//5 51//5
f 51//4 48//4 58//4
f 53//6 59//6 52//6
f 35//4 60//4 59//4
f 59//5 60//5 35//5
f 60//2 45//2 59//2
f 59//1 45//1 60//1
f 60//6 58//6 54//6
f 54//3 58//3 60//3
f 52//6 55//6 53//6
f 61//6 53//6 55//6
f 48//6 53//6 62//6
f 61//1 58//1 57//1
f 57//2 58//2 61//2
f 58//6 60//6 57//6
f 57//3 60//3 58//3
f 48//5 58//5 62//5
f 62//4 58//4 48//4
f 62//6 53//6 61//6
f 58//1 61//1 62//1
f 62//2 61//2 58//2
usemtl material_1_0
f 2/1/6 5/2/6 3/3/6
f 1/4/3 7/5/3 4/6/3
f 5/2/6 2/1/6 9/7/6
f 10/8/6 3/3/6 5/2/6
f 10/8/6 6/9/6 3/3/6
f 7/5/3 1/4/3 12/10/3
f 7/5/3 13/11/3 4/6/3
f 4/6/3 13/11/3 8/12/3
f 2/1/6 15/13/6 9/7/6
f 11/14/3 12/10/3 1/4/3
f 10/8/6 17/15/6 6/9/6
f 18/16/3 13/11/3 7/5/3
f 14/17/6 15/13/6 2/1/6
f 19/18/3 8/12/3 13/11/3
f 9/7/6 15/13/6 20/19/6
f 19/18/3 11/14/3 8/12/3
f 11/14/3 16/20/3 12/10/3
f 17/15/6 10/8/6 21/21/6
f 22/22/6 6/9/6 17/15/6
f 16/20/3 13/11/3 18/16/3
f 6/9/6 15/13/6 14/17/6
f 21/21/6 20/19/6 15/13/6
f 21/21/6 10/8/6 20/19/6
f 24/23/3 11/14/3 19/18/3
f 11/14/3 24/23/3 16/20/3
f 21/24/2 25/25/2 17/26/2
f 6/9/6 22/22/6 15/13/6
f 17/27/5 26/28/5 22/29/5
f 16/20/3 26/30/3 13/11/3
f 28/31/2 19/32/2 23/33/2
f 19/32/2 28/31/2 24/34/2
f 26/30/3 16/20/3 24/23/3
f 25/25/2 21/24/2 29/35/2
f 25/36/5 30/37/5 17/27/5
f 26/28/5 17/27/5 30/37/5
f 22/29/5 26/28/5 24/38/5
f 32/31/1 13/39/1 26/34/1
f 13/39/1 32/31/1 27/40/1
f 28/41/5 31/42/5 24/38/5
f 35/20/3 25/15/3 29/43/3
f 30/37/5 25/36/5 36/44/5
f 22/29/5 24/38/5 31/42/5
f 26/28/5 30/37/5 32/45/5
f 38/46/5 31/42/5 28/41/5
f 25/15/3 35/20/3 36/47/3
f 35/20/3 29/43/3 39/16/3
f 30/37/5 36/44/5 38/46/5
f 31/22/3 40/14/3 37/48/3
f 38/46/5 36/44/5 31/42/5
f 36/47/3 35/20/3 44/49/3
f 39/16/3 29/43/3 45/5/3
f 31/22/3 47/50/3 40/14/3
f 37/48/3 40/14/3 48/12/3
f 49/51/3 29/43/3 41/52/3
f 37/48/3 50/53/3 41/52/3
f 44/49/3 31/22/3 36/47/3
f 44/49/3 35/20/3 52/54/3
f 45/5/3 29/43/3 53/55/3
f 31/22/3 44/49/3 47/50/3
f 40/14/3 47/50/3 55/56/3
f 37/48/3 48/12/3 56/57/3
f 53/55/3 29/43/3 49/51/3
f 41/52/3 50/53/3 49/51/3
f 37/48/3 56/57/3 50/53/3
f 59/10/3 52/54/3 35/20/3
f 53/55/3 59/10/3 45/5/3
f 40/14/3 55/56/3 61/4/3
f 56/57/3 48/12/3 53/55/3
f 52/54/3 59/10/3 53/55/3
f 53/55/3 55/56/3 52/54/3
f 55/56/3 53/55/3 61/4/3
f 62/6/3 53/55/3 48/12/3
f 61/4/3 53/55/3 62/6/3
