# SSTK version 0.8.0
# 6
mtllib original-6.mtl
o mesh4/mesh4-geometry#mesh4-geometry
v -0.873749 0.000271 0.404685
v -0.052465 0.000271 0.151783
v -0.867209 0.000271 0.403114
v -0.021588 0.000271 0.136431
v -0.867209 0.019098 0.403114
v -0.873749 0.019098 0.404685
v -0.880436 0.000271 0.405417
v -0.052465 0.019098 0.151783
v -0.880436 0.019098 0.405417
v -0.887161 0.000271 0.405297
v -0.021588 0.019098 0.136431
v -0.887161 0.019098 0.405297
v -0.893817 0.000271 0.404327
v 0.008132 0.000271 0.118944
v -0.893817 0.019098 0.404327
v 0.008132 0.019098 0.118944
v -0.900297 0.019098 0.402523
v -0.900297 0.000271 0.402523
v 0.036549 0.000271 0.099409
v -0.906497 0.000271 0.399914
v 0.036549 0.019098 0.099409
v -0.906497 0.019098 0.399914
v 0.063521 0.000271 0.077923
v -0.912317 0.000271 0.396542
v 0.063521 0.019098 0.077923
v -0.917663 0.000271 0.392460
v -0.912317 0.019098 0.396542
v 0.088914 0.000271 0.054594
v -0.917663 0.019098 0.392460
v -0.922451 0.000271 0.387735
v 0.088914 0.019098 0.054594
v -0.926602 0.000271 0.382442
v -0.922451 0.019098 0.387735
v 0.112603 0.000271 0.029535
v -0.182826 0.019098 -0.027151
v -0.930050 0.000271 0.376667
v 0.112603 0.019098 0.029535
v -0.281290 0.000271 -0.000997
v 0.013089 0.019098 0.017323
v -0.926873 0.012839 0.382604
v -0.932741 0.000271 0.370502
v 0.134470 0.000271 0.002872
v 0.008492 0.019098 0.015618
v -0.930321 0.006529 0.376829
v 0.134470 0.019098 0.002872
v 0.017971 0.019098 0.017781
v -0.231775 0.009684 -0.013006
v 0.154408 0.000271 -0.025263
v 0.033875 0.019098 0.007787
v 0.004493 0.019098 0.012780
v 0.031038 0.019098 0.011786
v -0.231780 0.000271 -0.013024
v 0.172316 0.000271 -0.054731
v 0.035581 0.019098 0.003190
v 0.001364 0.019098 0.009004
v 0.154408 0.019098 -0.025263
v 0.022805 0.019098 0.016960
v 0.027262 0.019098 0.014915
v 0.201703 0.000271 -0.117076
v 0.188108 0.000271 -0.085386
v 0.172316 0.019098 -0.054731
v 0.036039 0.019098 -0.001692
v -0.000681 0.019098 0.004548
v -0.182826 0.000271 -0.027151
v 0.188108 0.019098 -0.085386
v -0.001502 0.019098 -0.000287
v -0.134520 0.019098 -0.043352
v 0.201703 0.019098 -0.117076
v 0.213035 0.000271 -0.149645
v 0.035217 0.019098 -0.006526
v 0.033172 0.019098 -0.010983
v -0.001044 0.019098 -0.005169
v -0.134520 0.000271 -0.043352
v 0.213035 0.019098 -0.149645
v 0.030044 0.019098 -0.014759
v 0.000661 0.019098 -0.009766
v -0.086948 0.019098 -0.061597
v -0.086948 0.000271 -0.061597
v 0.257153 0.019098 -0.276438
v 0.026045 0.019098 -0.017596
v 0.011731 0.019098 -0.018938
v 0.003499 0.019098 -0.013765
v -0.040197 0.019098 -0.081854
v -0.040197 0.000271 -0.081854
v 0.257153 0.000271 -0.276438
v 0.178325 0.019098 -0.211898
v 0.021448 0.019098 -0.019302
v 0.007275 0.019098 -0.016894
v 0.016566 0.019098 -0.019760
v 0.005647 0.019098 -0.104086
v 0.005647 0.000271 -0.104086
v 0.178325 0.000271 -0.211898
v 0.223972 0.019098 -0.294445
v 0.136920 0.019098 -0.182207
v 0.050502 0.019098 -0.128252
v 0.050502 0.000271 -0.128252
v 0.136920 0.000271 -0.182207
v 0.223972 0.000271 -0.294445
v 0.094286 0.019098 -0.154308
v 0.094286 0.000271 -0.154308
vn 0 -1 0
vn 0 1 0
vn 0.2947716161301006 0 0.9555677340325218
vn -0.2947716161301006 0 -0.9555677340325218
vn 0.2336228808434615 0 0.9723272852010283
vn 0.17153422783719846 0 0.985178160882739
vn -0.17153422783719846 0 -0.985178160882739
vn -0.2336228808434615 0 -0.9723272852010283
vn 0.4764673611207436 0 0.8791921597618094
vn 0.4452262116984699 0 0.8954181260263996
vn -0.4452262116984699 0 -0.8954181260263996
vn -0.4764673611207436 0 -0.8791921597618094
vn 0.04554138845875191 0 0.9989624527164417
vn -0.04554138845875191 0 -0.9989624527164417
vn -0.08118352984788745 0 0.9966991694997227
vn 0.08118352984788745 0 -0.9966991694997227
vn 0.5371402353503488 0 0.8434929564423
vn -0.5371402353503488 0 -0.8434929564423
vn -0.20660407234265943 0 0.9784246303581228
vn 0.20660407234265943 0 -0.9784246303581228
vn -0.32870538688483253 0 0.9444325114230729
vn 0.32870538688483253 0 -0.9444325114230729
vn 0.5951513927820735 0 0.8036136009734767
vn -0.5951513927820735 0 -0.8036136009734767
vn -0.44552700806848067 0 0.8952684988770397
vn 0.44552700806848067 0 -0.8952684988770397
vn 0.6502127685801721 0 0.7597521672067199
vn -0.6502127685801721 0 -0.7597521672067199
vn -0.5551910516103606 0 0.8317228481963099
vn 0.5551910516103606 0 -0.8317228481963099
vn 0.7020528660843717 0 0.712124829803539
vn -0.7020528660843717 0 -0.712124829803539
vn -0.6559360876325347 0 0.7548164339369696
vn 0.6559360876325347 0 -0.7548164339369696
vn -0.7461442547278269 0 0.6657843127745318
vn 0.7461442547278269 0 -0.6657843127745318
vn 0.7504134056742382 0 0.6609687742884615
vn -0.7504134056742382 0 -0.6609687742884615
vn -0.7448720445914933 -0.008223005314382224 0.6671566677847776
vn 0.7448720445914933 0.008223005314382224 -0.6671566677847776
vn -0.7984519784248586 -0.01663799951618285 0.6018285595761709
vn 0.7984519784248586 0.01663799951618285 -0.6018285595761709
vn -0.8138264354155635 -0.03347600063900965 0.580142991339217
vn -0.8710861805591935 -0.041920991229114 0.48933781432990114
vn 0.8710861805591935 0.041920991229114 -0.48933781432990114
vn 0.8138264354155635 0.03347600063900965 -0.580142991339217
vn -0.32806740966343106 0.7429329481285741 -0.5834572900407636
vn -0.33519896806419636 0.7284156666708826 -0.5975385078445667
vn -0.3356099993124994 0.727603021994405 -0.5982973932302178
vn 0.3356099993124994 -0.727603021994405 0.5982973932302178
vn 0.33519896806419636 -0.7284156666708826 0.5975385078445667
vn 0.32806740966343106 -0.7429329481285741 0.5834572900407636
vn 0.7950550998690871 0 0.6065372108718111
vn -0.7950550998690871 0 -0.6065372108718111
vn -0.8771749528165594 -0.05034099351687648 0.47752474964445585
vn 0.8771749528165594 0.05034099351687648 -0.47752474964445585
vn -0.9153884925035763 -0.049977023054636284 0.3994573881637767
vn 0.9153884925035763 0.049977023054636284 -0.3994573881637767
vn -0.334390050814016 0.7300308856788938 -0.5960186237622863
vn 0.334390050814016 -0.7300308856788938 0.5960186237622863
vn -0.27510118875750733 0.831624682214177 -0.48241032729034267
vn -0.30606156814463503 0.783286880868222 -0.5410988622835747
vn -0.29134202915523705 0.8076366702811653 -0.5126819977967445
vn 0.29134202915523705 -0.8076366702811653 0.5126819977967445
vn 0.30606156814463503 -0.783286880868222 0.5410988622835747
vn 0.27510118875750733 -0.831624682214177 0.48241032729034267
vn 0.835756511177759 0 0.5491002222035432
vn -0.835756511177759 0 -0.5491002222035432
vn -0.23605027436564435 0.0019530005724957365 -0.9717388814700518
vn -0.2570640039219267 0.0019539992626448717 -0.9663924046548118
vn -0.263810617250618 0.0013030004656418089 -0.9645736158612439
vn 0.263810617250618 -0.0013030004656418089 0.9645736158612439
vn 0.2570640039219267 -0.0019539992626448717 0.9663924046548118
vn 0.23605027436564435 -0.0019530005724957365 0.9717388814700518
vn -0.29112104941798106 0.000650999707245197 -0.9566860042799594
vn 0.29112104941798106 -0.000650999707245197 0.9566860042799594
vn 0.8723163623568794 0 0.4889418819905508
vn -0.8723163623568794 0 -0.4889418819905508
vn -0.29768472767466503 0 -0.9546642356919319
vn 0.29768472767466503 0 0.9546642356919319
vn 0.9045533230130998 0 0.42636051156967947
vn -0.9045533230130998 0 -0.42636051156967947
vn -0.33811331039983167 0 -0.9411054081931881
vn 0.33811331039983167 0 0.9411054081931881
vn 0.9323074378340616 0 0.3616667545673605
vn -0.9323074378340616 0 -0.3616667545673605
vn 0.9444597926109495 0 0.3286269924112784
vn -0.9444597926109495 0 -0.3286269924112784
vn -0.3779261815558278 0 -0.9258357312691229
vn 0.3779261815558278 0 0.9258357312691229
vn -0.41705323154597385 0 -0.9088820616873569
vn 0.41705323154597385 0 0.9088820616873569
vn 0.4769857166994309 0 -0.87891104559263
vn -0.4769857166994309 0 0.87891104559263
vn -0.45542065865200376 0 -0.8902763748819662
vn 0.45542065865200376 0 0.8902763748819662
vn -0.5827436225439485 0 -0.8126560590953325
vn -0.5652846991965476 0 -0.8248958775835097
vn 0.5652846991965476 0 0.8248958775835097
vn 0.5827436225439485 0 0.8126560590953325
vn -0.8751168428202971 0 -0.48391167728443557
vn 0.8751168428202971 0 0.48391167728443557
vn -0.4929608519534137 0 -0.8700514918333077
vn 0.4929608519534137 0 0.8700514918333077
vn -0.5296040036062596 0 -0.8482450113995491
vn 0.5296040036062596 0 0.8482450113995491
usemtl material_0_0
f 1//1 2//1 3//1
f 2//1 1//1 4//1
f 3//2 2//2 1//2
f 4//2 1//2 2//2
f 2//3 5//3 3//3
f 3//4 5//4 2//4
f 3//5 6//6 1//6
f 1//7 6//7 3//8
f 4//1 1//1 7//1
f 7//2 1//2 4//2
f 4//9 8//10 2//10
f 2//11 8//11 4//12
f 5//3 2//3 8//3
f 8//4 2//4 5//4
f 6//6 3//5 5//5
f 5//8 3//8 6//7
f 9//13 1//6 6//6
f 6//7 1//7 9//14
f 1//6 9//13 7//13
f 7//14 9//14 1//7
f 4//1 7//1 10//1
f 10//2 7//2 4//2
f 8//10 4//9 11//9
f 11//12 4//12 8//11
f 11//2 5//2 8//2
f 8//1 5//1 11//1
f 5//2 11//2 6//2
f 6//1 11//1 5//1
f 6//2 11//2 9//2
f 9//1 11//1 6//1
f 12//15 7//13 9//13
f 9//14 7//14 12//16
f 7//13 12//15 10//15
f 10//16 12//16 7//14
f 4//1 10//1 13//1
f 13//2 10//2 4//2
f 14//17 11//9 4//9
f 4//12 11//12 14//18
f 9//2 11//2 12//2
f 12//1 11//1 9//1
f 15//19 10//15 12//15
f 12//16 10//16 15//20
f 10//15 15//19 13//19
f 13//20 15//20 10//16
f 4//1 13//1 14//1
f 14//2 13//2 4//2
f 11//9 14//17 16//17
f 16//18 14//18 11//12
f 12//2 11//2 15//2
f 15//1 11//1 12//1
f 17//21 13//19 15//19
f 15//20 13//20 17//22
f 14//1 13//1 18//1
f 18//2 13//2 14//2
f 19//23 16//17 14//17
f 14//18 16//18 19//24
f 15//2 11//2 16//2
f 16//1 11//1 15//1
f 13//19 17//21 18//21
f 18//22 17//22 13//20
f 15//2 16//2 17//2
f 17//1 16//1 15//1
f 14//1 18//1 20//1
f 20//2 18//2 14//2
f 16//17 19//23 21//23
f 21//24 19//24 16//18
f 14//1 20//1 19//1
f 19//2 20//2 14//2
f 22//25 18//21 17//21
f 17//22 18//22 22//26
f 17//2 16//2 22//2
f 22//1 16//1 17//1
f 18//21 22//25 20//25
f 20//26 22//26 18//22
f 23//27 21//23 19//23
f 19//24 21//24 23//28
f 22//2 16//2 21//2
f 21//1 16//1 22//1
f 19//1 20//1 24//1
f 24//2 20//2 19//2
f 22//25 24//29 20//25
f 20//26 24//30 22//26
f 21//23 23//27 25//27
f 25//28 23//28 21//24
f 19//1 26//1 23//1
f 23//2 26//2 19//2
f 22//2 21//2 27//2
f 27//1 21//1 22//1
f 19//1 24//1 26//1
f 26//2 24//2 19//2
f 24//29 22//25 27//29
f 27//30 22//26 24//30
f 28//31 25//27 23//27
f 23//28 25//28 28//32
f 29//2 21//2 25//2
f 25//1 21//1 29//1
f 23//1 26//1 30//1
f 30//2 26//2 23//2
f 27//2 21//2 29//2
f 29//1 21//1 27//1
f 27//29 26//33 24//29
f 24//30 26//34 27//30
f 25//27 28//31 31//31
f 31//32 28//32 25//28
f 23//1 32//1 28//1
f 28//2 32//2 23//2
f 29//2 25//2 33//2
f 33//1 25//1 29//1
f 29//33 30//35 26//33
f 26//34 30//36 29//34
f 23//1 30//1 32//1
f 32//2 30//2 23//2
f 26//33 27//29 29//33
f 29//34 27//30 26//34
f 34//37 31//31 28//31
f 28//32 31//32 34//38
f 35//2 25//2 31//2
f 31//1 25//1 35//1
f 28//1 32//1 36//1
f 36//2 32//2 28//2
f 33//2 25//2 35//2
f 35//1 25//1 33//1
f 30//35 29//33 33//39
f 33//40 29//34 30//36
f 33//39 32//41 30//35
f 30//36 32//42 33//40
f 31//31 34//37 37//37
f 37//38 34//38 31//32
f 28//1 38//1 34//1
f 34//2 38//2 28//2
f 35//2 31//2 39//2
f 39//1 31//1 35//1
f 40//43 36//44 32//41
f 32//42 36//45 40//46
f 28//1 36//1 41//1
f 41//2 36//2 28//2
f 35//47 40//48 33//49
f 33//50 40//51 35//52
f 33//39 40//43 32//41
f 32//42 40//46 33//40
f 42//53 37//37 34//37
f 34//38 37//38 42//54
f 39//2 31//2 37//2
f 37//1 31//1 39//1
f 28//1 41//1 38//1
f 38//2 41//2 28//2
f 34//1 38//1 42//1
f 42//2 38//2 34//2
f 35//2 39//2 43//2
f 43//1 39//1 35//1
f 40//43 44//55 36//44
f 36//45 44//56 40//46
f 44//55 41//57 36//44
f 36//45 41//58 44//56
f 35//47 44//59 40//48
f 40//51 44//60 35//52
f 37//37 42//53 45//53
f 45//54 42//54 37//38
f 39//2 37//2 46//2
f 46//1 37//1 39//1
f 38//61 41//62 47//63
f 47//64 41//65 38//66
f 42//1 38//1 48//1
f 48//2 38//2 42//2
f 39//2 49//2 43//2
f 43//1 49//1 39//1
f 35//2 43//2 50//2
f 50//1 43//1 35//1
f 35//47 41//62 44//59
f 44//60 41//65 35//52
f 48//67 45//53 42//53
f 42//54 45//54 48//68
f 46//2 37//2 45//2
f 45//1 37//1 46//1
f 46//2 51//2 39//2
f 39//1 51//1 46//1
f 47//63 41//62 35//47
f 35//52 41//65 47//64
f 38//69 47//70 52//71
f 52//72 47//73 38//74
f 48//1 38//1 53//1
f 53//2 38//2 48//2
f 39//2 51//2 49//2
f 49//1 51//1 39//1
f 43//2 49//2 54//2
f 54//1 49//1 43//1
f 43//2 54//2 50//2
f 50//1 54//1 43//1
f 35//2 50//2 55//2
f 55//1 50//1 35//1
f 45//53 48//67 56//67
f 56//68 48//68 45//54
f 46//2 45//2 57//2
f 57//1 45//1 46//1
f 46//2 58//2 51//2
f 51//1 58//1 46//1
f 47//70 35//75 52//71
f 52//72 35//76 47//73
f 59//1 38//1 52//1
f 52//2 38//2 59//2
f 53//1 38//1 60//1
f 60//2 38//2 53//2
f 53//77 56//67 48//67
f 48//68 56//68 53//78
f 51//2 61//2 49//2
f 49//1 61//1 51//1
f 49//2 61//2 54//2
f 54//1 61//1 49//1
f 50//2 54//2 62//2
f 62//1 54//1 50//1
f 50//2 62//2 55//2
f 55//1 62//1 50//1
f 35//2 55//2 63//2
f 63//1 55//1 35//1
f 56//2 57//2 45//2
f 45//1 57//1 56//1
f 58//2 46//2 57//2
f 57//1 46//1 58//1
f 58//2 56//2 51//2
f 51//1 56//1 58//1
f 52//71 35//75 64//79
f 64//80 35//76 52//72
f 60//1 38//1 59//1
f 59//2 38//2 60//2
f 59//1 52//1 64//1
f 64//2 52//2 59//2
f 65//81 53//77 60//81
f 60//82 53//78 65//82
f 56//67 53//77 61//77
f 61//78 53//78 56//68
f 51//2 56//2 61//2
f 61//1 56//1 51//1
f 54//2 61//2 62//2
f 62//1 61//1 54//1
f 55//2 62//2 63//2
f 63//1 62//1 55//1
f 35//2 63//2 66//2
f 66//1 63//1 35//1
f 57//2 56//2 58//2
f 58//1 56//1 57//1
f 67//83 64//79 35//75
f 35//76 64//80 67//84
f 68//85 60//81 59//85
f 59//86 60//82 68//86
f 64//1 69//1 59//1
f 59//2 69//2 64//2
f 53//77 65//81 61//77
f 61//78 65//82 53//78
f 60//81 68//85 65//81
f 65//82 68//86 60//82
f 62//2 61//2 70//2
f 70//1 61//1 62//1
f 63//2 62//2 70//2
f 70//1 62//1 63//1
f 63//2 71//2 66//2
f 66//1 71//1 63//1
f 35//2 66//2 72//2
f 72//1 66//1 35//1
f 64//79 67//83 73//83
f 73//84 67//84 64//80
f 35//2 74//2 67//2
f 67//1 74//1 35//1
f 59//85 74//87 68//85
f 68//86 74//88 59//86
f 69//1 64//1 73//1
f 73//2 64//2 69//2
f 74//87 59//85 69//87
f 69//88 59//86 74//88
f 75//2 61//2 65//2
f 65//1 61//1 75//1
f 35//2 65//2 68//2
f 68//1 65//1 35//1
f 70//2 61//2 71//2
f 71//1 61//1 70//1
f 63//2 70//2 71//2
f 71//1 70//1 63//1
f 66//2 71//2 72//2
f 72//1 71//1 66//1
f 35//2 72//2 76//2
f 76//1 72//1 35//1
f 77//89 73//83 67//83
f 67//84 73//84 77//90
f 35//2 68//2 74//2
f 74//1 68//1 35//1
f 67//2 74//2 77//2
f 77//1 74//1 67//1
f 69//1 73//1 78//1
f 78//2 73//2 69//2
f 69//87 79//87 74//87
f 74//88 79//88 69//88
f 71//2 61//2 75//2
f 75//1 61//1 71//1
f 75//2 65//2 80//2
f 80//1 65//1 75//1
f 35//2 81//2 65//2
f 65//1 81//1 35//1
f 72//2 71//2 75//2
f 75//1 71//1 72//1
f 72//2 80//2 76//2
f 76//1 80//1 72//1
f 35//2 76//2 82//2
f 82//1 76//1 35//1
f 73//83 77//89 78//89
f 78//90 77//90 73//84
f 77//2 74//2 83//2
f 83//1 74//1 77//1
f 69//1 78//1 84//1
f 84//2 78//2 69//2
f 79//87 69//87 85//87
f 85//88 69//88 79//88
f 86//2 74//2 79//2
f 79//1 74//1 86//1
f 80//2 65//2 87//2
f 87//1 65//1 80//1
f 72//2 75//2 80//2
f 80//1 75//1 72//1
f 35//2 88//2 81//2
f 81//1 88//1 35//1
f 89//2 65//2 81//2
f 81//1 65//1 89//1
f 76//2 80//2 82//2
f 82//1 80//1 76//1
f 35//2 82//2 88//2
f 88//1 82//1 35//1
f 83//91 78//89 77//89
f 77//90 78//90 83//92
f 83//2 74//2 90//2
f 90//1 74//1 83//1
f 78//89 83//91 84//91
f 84//92 83//92 78//90
f 69//1 84//1 91//1
f 91//2 84//2 69//2
f 69//1 92//1 85//1
f 85//2 92//2 69//2
f 85//93 93//93 79//93
f 79//94 93//94 85//94
f 94//2 74//2 86//2
f 86//1 74//1 94//1
f 86//2 79//2 93//2
f 93//1 79//1 86//1
f 87//2 65//2 89//2
f 89//1 65//1 87//1
f 82//2 80//2 87//2
f 87//1 80//1 82//1
f 88//2 89//2 81//2
f 81//1 89//1 88//1
f 82//2 89//2 88//2
f 88//1 89//1 82//1
f 90//2 74//2 95//2
f 95//1 74//1 90//1
f 90//95 84//91 83//91
f 83//92 84//92 90//96
f 84//91 90//95 91//95
f 91//96 90//96 84//92
f 69//1 91//1 96//1
f 96//2 91//2 69//2
f 69//1 97//1 92//1
f 92//2 97//2 69//2
f 85//1 92//1 98//1
f 98//2 92//2 85//2
f 93//93 85//93 98//93
f 98//94 85//94 93//94
f 99//2 74//2 94//2
f 94//1 74//1 99//1
f 86//97 97//98 94//98
f 94//99 97//99 86//100
f 93//101 92//101 86//101
f 86//102 92//102 93//102
f 82//2 87//2 89//2
f 89//1 87//1 82//1
f 95//2 74//2 99//2
f 99//1 74//1 95//1
f 95//103 91//95 90//95
f 90//96 91//96 95//104
f 91//95 95//103 96//103
f 96//104 95//104 91//96
f 69//1 96//1 100//1
f 100//2 96//2 69//2
f 69//1 100//1 97//1
f 97//2 100//2 69//2
f 97//98 86//97 92//97
f 92//100 86//100 97//99
f 92//101 93//101 98//101
f 98//102 93//102 92//102
f 94//98 100//105 99//105
f 99//106 100//106 94//99
f 100//105 94//98 97//98
f 97//99 94//99 100//106
f 99//105 96//103 95//103
f 95//104 96//104 99//106
f 96//103 99//105 100//105
f 100//106 99//106 96//104
