# SSTK version 0.8.0
# 9
mtllib original-9.mtl
o mesh8/mesh8-geometry#mesh8-geometry
v -0.910720 -0.018556 -0.291827
v -0.071046 -0.018556 -0.143770
v -0.917405 -0.018556 -0.292573
v -0.910720 0.000271 -0.291827
v -0.038499 -0.018556 -0.132376
v -0.917405 0.000271 -0.292573
v -0.071046 0.000271 -0.143770
v -0.924131 -0.018556 -0.292467
v -0.924131 0.000271 -0.292467
v -0.038499 0.000271 -0.132376
v -0.930789 -0.018556 -0.291512
v -0.930789 0.000271 -0.291512
v -0.937273 -0.018556 -0.289721
v -0.006835 -0.018556 -0.118721
v -0.937273 0.000271 -0.289721
v -0.006835 0.000271 -0.118721
v -0.943478 0.000271 -0.287126
v -0.943478 -0.018556 -0.287126
v 0.023791 -0.018556 -0.102871
v -0.949305 -0.018556 -0.283766
v 0.023791 0.000271 -0.102871
v -0.949305 0.000271 -0.283766
v 0.053225 -0.018556 -0.084907
v -0.954661 -0.018556 -0.279696
v 0.053225 0.000271 -0.084907
v -0.959458 -0.018556 -0.274981
v -0.954661 0.000271 -0.279696
v 0.081322 -0.018556 -0.064916
v -0.959458 0.000271 -0.274981
v -0.963621 -0.018556 -0.269697
v 0.081322 0.000271 -0.064916
v -0.967082 -0.018556 -0.263930
v -0.963621 0.000271 -0.269697
v 0.107944 -0.018556 -0.042998
v -0.178143 0.000271 0.049987
v -0.969785 -0.018556 -0.257770
v 0.107944 0.000271 -0.042998
v -0.279095 -0.018556 0.036282
v 0.010721 0.000271 -0.018505
v -0.967371 -0.005988 -0.264057
v -0.971688 -0.018556 -0.251319
v 0.132957 -0.018556 -0.019262
v 0.006371 0.000271 -0.016241
v -0.970074 -0.012298 -0.257897
v 0.132957 0.000271 -0.019262
v 0.015508 0.000271 -0.019567
v 0.156239 -0.018556 0.006176
v -0.228470 -0.009143 0.042040
v 0.032532 0.000271 -0.011629
v 0.002756 0.000271 -0.012929
v 0.029219 0.000271 -0.015244
v 0.177673 -0.018556 0.033188
v -0.228473 -0.018556 0.042058
v 0.034796 0.000271 -0.007279
v 0.000122 0.000271 -0.008793
v 0.156239 0.000271 0.006176
v 0.020407 0.000271 -0.019353
v 0.025083 0.000271 -0.017878
v 0.197154 -0.018556 0.061641
v 0.214585 -0.018556 0.091395
v 0.177673 0.000271 0.033188
v 0.035857 0.000271 -0.002492
v -0.001353 0.000271 -0.004117
v 0.197154 0.000271 0.061641
v -0.178143 -0.018556 0.049987
v -0.001567 0.000271 0.000782
v 0.214585 0.000271 0.091395
v -0.128197 0.000271 0.060055
v 0.229879 -0.018556 0.122301
v 0.035643 0.000271 0.002407
v 0.034169 0.000271 0.007083
v -0.000505 0.000271 0.005569
v 0.229879 0.000271 0.122301
v 0.031534 0.000271 0.011219
v -0.128197 -0.018556 0.060055
v 0.001759 0.000271 0.009919
v 0.027919 0.000271 0.014532
v 0.013883 0.000271 0.017643
v -0.078725 0.000271 0.072243
v 0.289423 0.000271 0.242623
v -0.078725 -0.018556 0.072243
v 0.005071 0.000271 0.013534
v 0.023569 0.000271 0.016796
v 0.018782 0.000271 0.017857
v 0.009207 0.000271 0.016169
v -0.029818 0.000271 0.086529
v 0.203181 0.000271 0.188387
v 0.289423 -0.018556 0.242623
v -0.029818 -0.018556 0.086529
v 0.018435 0.000271 0.102886
v 0.158404 0.000271 0.164076
v 0.258738 0.000271 0.264617
v 0.203181 -0.018556 0.188387
v 0.018435 -0.018556 0.102886
v 0.065948 0.000271 0.121287
v 0.112632 0.000271 0.141695
v 0.158404 -0.018556 0.164076
v 0.258738 -0.018556 0.264617
v 0.065948 -0.018556 0.121287
v 0.112632 -0.018556 0.141695
vn 0 -1 0
vn 0 1 0
vn 0.17364818679182897 0 -0.9848077514032423
vn -0.17364818679182897 0 0.9848077514032423
vn 0.04768510652224983 0 -0.9988624182618754
vn 0.11088991431536795 0 -0.9938326956299689
vn -0.11088991431536795 0 0.9938326956299689
vn -0.04768510652224983 0 0.9988624182618754
vn 0.33041506503625934 0 -0.9438357297735049
vn 0.36343156517148256 0 -0.9316208979177133
vn -0.36343156517148256 0 0.9316208979177133
vn -0.33041506503625934 0 0.9438357297735049
vn -0.07904388414730783 0 -0.9968711372985513
vn 0.07904388414730783 0 0.9968711372985513
vn -0.20450358190700618 0 -0.9788658156188744
vn 0.20450358190700618 0 0.9788658156188744
vn 0.428073020356678 0 -0.9037441503228174
vn -0.428073020356678 0 0.9037441503228174
vn -0.3266778575505478 0 -0.9451357454811368
vn 0.3266778575505478 0 0.9451357454811368
vn -0.44360402188638165 0 -0.8962228917887709
vn 0.44360402188638165 0 0.8962228917887709
vn 0.49059326840217554 0 -0.871388687669556
vn -0.49059326840217554 0 0.871388687669556
vn -0.5534046904207581 0 -0.8329125095832723
vn 0.5534046904207581 0 0.8329125095832723
vn 0.5506818480836294 0 -0.8347152222112633
vn -0.5506818480836294 0 0.8347152222112633
vn -0.6543148335362102 0 -0.7562222547733447
vn 0.6543148335362102 0 0.7562222547733447
vn 0.6080424867038987 0 -0.7939044869270732
vn -0.6080424867038987 0 0.7939044869270732
vn -0.7447136519588612 0 -0.6673841297079937
vn 0.7447136519588612 0 0.6673841297079937
vn -0.8231494362262205 0 -0.5678248018891526
vn 0.8231494362262205 0 0.5678248018891526
vn 0.6623894130756379 0 -0.7491597062344664
vn -0.6623894130756379 0 0.7491597062344664
vn -0.8220577692964914 -0.008223004896796527 -0.5693447164326229
vn 0.8220577692964914 0.008223004896796527 0.5693447164326229
vn -0.8670975120484982 -0.016637998671439006 -0.49786050415705163
vn 0.8670975120484982 0.016637998671439006 0.49786050415705163
vn -0.9251784244087208 -0.04192098910385583 -0.37721017176257504
vn -0.8796557842924868 -0.033475998940802464 -0.4744313002487137
vn 0.8796557842924868 0.033475998940802464 0.4744313002487137
vn 0.9251784244087208 0.04192098910385583 0.37721017176257504
vn -0.25859996533741453 0.7276030046049994 0.6353895857009818
vn -0.25828650047323315 0.7284156493058268 0.6345854753456474
vn -0.25296145506709766 0.7429329312233585 0.6197266832678784
vn 0.25296145506709766 -0.7429329312233585 -0.6197266832678784
vn 0.25828650047323315 -0.7284156493058268 -0.6345854753456474
vn 0.25859996533741453 -0.7276030046049994 -0.6353895857009818
vn 0.7134537078743308 0 -0.7007023667152619
vn -0.7134537078743308 0 0.7007023667152619
vn -0.9297508481811944 -0.050340990966737706 -0.36473160671216365
vn 0.9297508481811944 0.050340990966737706 0.36473160671216365
vn -0.9579592217284955 -0.049977020522842655 -0.2825180116824319
vn 0.9579592217284955 0.049977020522842655 0.2825180116824319
vn -0.2576728767587265 0.7300308683626707 0.6329767924817838
vn 0.2576728767587265 -0.7300308683626707 -0.6329767924817838
vn -0.22532284126426125 0.8076366560187374 0.5449336189477321
vn -0.23639417028271853 0.7832868654947743 0.5749604182895693
vn -0.21297268561578714 0.8316246691889203 0.5128772219332985
vn 0.21297268561578714 -0.8316246691889203 -0.5128772219332985
vn 0.23639417028271853 -0.7832868654947743 -0.5749604182895693
vn 0.22532284126426125 -0.8076366560187374 -0.5449336189477321
vn 0.7609820649271801 0 -0.6487729162497191
vn -0.7609820649271801 0 0.6487729162497191
vn -0.14180755765592853 0.001303000399467087 0.9898933875835414
vn -0.13488713185555415 0.0019539991634087927 0.9908590432281738
vn -0.11337163848695517 0.0019530004733103743 0.993550732160132
vn 0.11337163848695517 -0.0019530004733103743 -0.993550732160132
vn 0.13488713185555415 -0.0019539991634087927 -0.9908590432281738
vn 0.14180755765592853 -0.001303000399467087 -0.9898933875835414
vn 0.8047394418679581 0 -0.5936281923073122
vn -0.8047394418679581 0 0.5936281923073122
vn -0.1698868902335051 0.0006509996741828889 0.9854633533146797
vn 0.1698868902335051 -0.0006509996741828889 -0.9854633533146797
vn 0.8445088164882194 0 -0.5355416499896779
vn -0.8445088164882194 0 0.5355416499896779
vn -0.17665104379752902 0 0.9842735436479249
vn 0.17665104379752902 0 -0.9842735436479249
vn 0.8800928433178142 0 -0.4748016292524332
vn -0.8800928433178142 0 0.4748016292524332
vn -0.21845196839129097 0 0.9758477020037349
vn 0.21845196839129097 0 -0.9758477020037349
vn 0.8962597103915896 0 -0.4435296286932635
vn -0.8962597103915896 0 0.4435296286932635
vn -0.2598547236914629 0 0.9656477217780994
vn 0.2598547236914629 0 -0.9656477217780994
vn -0.30078640442913845 0 0.9536915323680873
vn 0.30078640442913845 0 -0.9536915323680873
vn 0.5825849617853256 0 0.8127698089259905
vn -0.5825849617853256 0 -0.8127698089259905
vn -0.34116980531422136 0 0.9400016829462893
vn 0.34116980531422136 0 -0.9400016829462893
vn -0.4583117476584281 0 0.8887915064615983
vn -0.4771572918017036 0 0.8788179099679658
vn 0.4771572918017036 0 -0.8788179099679658
vn 0.4583117476584281 0 -0.8887915064615983
vn -0.808143742513208 0 0.5889853066390924
vn 0.808143742513208 0 -0.5889853066390924
vn -0.38093375864285095 0 0.9246023315600228
vn 0.38093375864285095 0 -0.9246023315600228
vn -0.4200043226617388 0 0.9075221038329888
vn 0.4200043226617388 0 -0.9075221038329888
usemtl material_0_0
f 1//1 2//1 3//1
f 3//2 2//2 1//2
f 1//3 4//3 2//3
f 2//4 4//4 1//4
f 5//1 3//1 2//1
f 2//2 3//2 5//2
f 3//5 6//5 1//6
f 1//7 6//8 3//8
f 4//6 1//6 6//5
f 6//8 1//7 4//7
f 7//3 2//3 4//3
f 4//4 2//4 7//4
f 8//1 3//1 5//1
f 5//2 3//2 8//2
f 2//9 7//9 5//10
f 5//11 7//12 2//12
f 6//5 3//5 9//13
f 9//14 3//8 6//8
f 6//2 10//2 4//2
f 4//1 10//1 6//1
f 7//2 4//2 10//2
f 10//1 4//1 7//1
f 8//13 9//13 3//5
f 3//8 9//14 8//14
f 11//1 8//1 5//1
f 5//2 8//2 11//2
f 10//10 5//10 7//9
f 7//12 5//11 10//11
f 9//2 10//2 6//2
f 6//1 10//1 9//1
f 9//13 8//13 12//15
f 12//16 8//14 9//14
f 11//15 12//15 8//13
f 8//14 12//16 11//16
f 13//1 11//1 5//1
f 5//2 11//2 13//2
f 5//10 10//10 14//17
f 14//18 10//11 5//11
f 12//2 10//2 9//2
f 9//1 10//1 12//1
f 12//15 11//15 15//19
f 15//20 11//16 12//16
f 13//19 15//19 11//15
f 11//16 15//20 13//20
f 14//1 13//1 5//1
f 5//2 13//2 14//2
f 16//17 14//17 10//10
f 10//11 14//18 16//18
f 15//2 10//2 12//2
f 12//1 10//1 15//1
f 15//19 13//19 17//21
f 17//22 13//20 15//20
f 18//1 13//1 14//1
f 14//2 13//2 18//2
f 14//17 16//17 19//23
f 19//24 16//18 14//18
f 16//2 10//2 15//2
f 15//1 10//1 16//1
f 18//21 17//21 13//19
f 13//20 17//22 18//22
f 17//2 16//2 15//2
f 15//1 16//1 17//1
f 20//1 18//1 14//1
f 14//2 18//2 20//2
f 21//23 19//23 16//17
f 16//18 19//24 21//24
f 19//1 20//1 14//1
f 14//2 20//2 19//2
f 17//21 18//21 22//25
f 22//26 18//22 17//22
f 22//2 16//2 17//2
f 17//1 16//1 22//1
f 20//25 22//25 18//21
f 18//22 22//26 20//26
f 19//23 21//23 23//27
f 23//28 21//24 19//24
f 21//2 16//2 22//2
f 22//1 16//1 21//1
f 24//1 20//1 19//1
f 19//2 20//2 24//2
f 20//25 24//29 22//25
f 22//26 24//30 20//26
f 25//27 23//27 21//23
f 21//24 23//28 25//28
f 23//1 26//1 19//1
f 19//2 26//2 23//2
f 27//2 21//2 22//2
f 22//1 21//1 27//1
f 26//1 24//1 19//1
f 19//2 24//2 26//2
f 27//29 22//25 24//29
f 24//30 22//26 27//30
f 23//27 25//27 28//31
f 28//32 25//28 23//28
f 25//2 21//2 29//2
f 29//1 21//1 25//1
f 30//1 26//1 23//1
f 23//2 26//2 30//2
f 29//2 21//2 27//2
f 27//1 21//1 29//1
f 24//29 26//33 27//29
f 27//30 26//34 24//30
f 31//31 28//31 25//27
f 25//28 28//32 31//32
f 28//1 32//1 23//1
f 23//2 32//2 28//2
f 33//2 25//2 29//2
f 29//1 25//1 33//1
f 26//33 30//35 29//33
f 29//34 30//36 26//34
f 32//1 30//1 23//1
f 23//2 30//2 32//2
f 29//33 27//29 26//33
f 26//34 27//30 29//34
f 28//31 31//31 34//37
f 34//38 31//32 28//32
f 31//2 25//2 35//2
f 35//1 25//1 31//1
f 36//1 32//1 28//1
f 28//2 32//2 36//2
f 35//2 25//2 33//2
f 33//1 25//1 35//1
f 33//39 29//33 30//35
f 30//36 29//34 33//40
f 30//35 32//41 33//39
f 33//40 32//42 30//36
f 37//37 34//37 31//31
f 31//32 34//38 37//38
f 34//1 38//1 28//1
f 28//2 38//2 34//2
f 39//2 31//2 35//2
f 35//1 31//1 39//1
f 32//41 36//43 40//44
f 40//45 36//46 32//42
f 41//1 36//1 28//1
f 28//2 36//2 41//2
f 33//47 40//48 35//49
f 35//50 40//51 33//52
f 32//41 40//44 33//39
f 33//40 40//45 32//42
f 34//37 37//37 42//53
f 42//54 37//38 34//38
f 37//2 31//2 39//2
f 39//1 31//1 37//1
f 42//1 38//1 34//1
f 34//2 38//2 42//2
f 38//1 41//1 28//1
f 28//2 41//2 38//2
f 43//2 39//2 35//2
f 35//1 39//1 43//1
f 36//43 44//55 40//44
f 40//45 44//56 36//46
f 36//43 41//57 44//55
f 44//56 41//58 36//46
f 40//48 44//59 35//49
f 35//50 44//60 40//51
f 45//53 42//53 37//37
f 37//38 42//54 45//54
f 46//2 37//2 39//2
f 39//1 37//1 46//1
f 47//1 38//1 42//1
f 42//2 38//2 47//2
f 48//61 41//62 38//63
f 38//64 41//65 48//66
f 43//2 49//2 39//2
f 39//1 49//1 43//1
f 50//2 43//2 35//2
f 35//1 43//1 50//1
f 44//59 41//62 35//49
f 35//50 41//65 44//60
f 42//53 45//53 47//67
f 47//68 45//54 42//54
f 45//2 37//2 46//2
f 46//1 37//1 45//1
f 39//2 51//2 46//2
f 46//1 51//1 39//1
f 52//1 38//1 47//1
f 47//2 38//2 52//2
f 35//49 41//62 48//61
f 48//66 41//65 35//50
f 53//69 48//70 38//71
f 38//72 48//73 53//74
f 54//2 49//2 43//2
f 43//1 49//1 54//1
f 49//2 51//2 39//2
f 39//1 51//1 49//1
f 50//2 54//2 43//2
f 43//1 54//1 50//1
f 55//2 50//2 35//2
f 35//1 50//1 55//1
f 56//67 47//67 45//53
f 45//54 47//68 56//68
f 57//2 45//2 46//2
f 46//1 45//1 57//1
f 51//2 58//2 46//2
f 46//1 58//1 51//1
f 59//1 38//1 52//1
f 52//2 38//2 59//2
f 47//67 56//67 52//75
f 52//76 56//68 47//68
f 53//69 35//77 48//70
f 48//73 35//78 53//74
f 53//1 38//1 60//1
f 60//2 38//2 53//2
f 54//2 61//2 49//2
f 49//1 61//1 54//1
f 49//2 61//2 51//2
f 51//1 61//1 49//1
f 62//2 54//2 50//2
f 50//1 54//1 62//1
f 55//2 62//2 50//2
f 50//1 62//1 55//1
f 63//2 55//2 35//2
f 35//1 55//1 63//1
f 45//2 57//2 56//2
f 56//1 57//1 45//1
f 57//2 46//2 58//2
f 58//1 46//1 57//1
f 51//2 56//2 58//2
f 58//1 56//1 51//1
f 60//1 38//1 59//1
f 59//2 38//2 60//2
f 59//79 52//75 64//79
f 64//80 52//76 59//80
f 61//75 52//75 56//67
f 56//68 52//76 61//76
f 65//81 35//77 53//69
f 53//74 35//78 65//82
f 65//1 53//1 60//1
f 60//2 53//2 65//2
f 62//2 61//2 54//2
f 54//1 61//1 62//1
f 61//2 56//2 51//2
f 51//1 56//1 61//1
f 63//2 62//2 55//2
f 55//1 62//1 63//1
f 66//2 63//2 35//2
f 35//1 63//1 66//1
f 58//2 56//2 57//2
f 57//1 56//1 58//1
f 60//83 59//79 67//83
f 67//84 59//80 60//84
f 61//75 64//79 52//75
f 52//76 64//80 61//76
f 64//79 67//83 59//79
f 59//80 67//84 64//80
f 35//77 65//81 68//85
f 68//86 65//82 35//78
f 60//1 69//1 65//1
f 65//2 69//2 60//2
f 70//2 61//2 62//2
f 62//1 61//1 70//1
f 70//2 62//2 63//2
f 63//1 62//1 70//1
f 66//2 71//2 63//2
f 63//1 71//1 66//1
f 72//2 66//2 35//2
f 35//1 66//1 72//1
f 67//83 73//87 60//83
f 60//84 73//88 67//84
f 64//2 61//2 74//2
f 74//1 61//1 64//1
f 67//2 64//2 35//2
f 35//1 64//1 67//1
f 75//85 68//85 65//81
f 65//82 68//86 75//86
f 68//2 73//2 35//2
f 35//1 73//1 68//1
f 69//87 60//83 73//87
f 73//88 60//84 69//88
f 75//1 65//1 69//1
f 69//2 65//2 75//2
f 71//2 61//2 70//2
f 70//1 61//1 71//1
f 71//2 70//2 63//2
f 63//1 70//1 71//1
f 72//2 71//2 66//2
f 66//1 71//1 72//1
f 76//2 72//2 35//2
f 35//1 72//1 76//1
f 73//2 67//2 35//2
f 35//1 67//1 73//1
f 74//2 61//2 71//2
f 71//1 61//1 74//1
f 77//2 64//2 74//2
f 74//1 64//1 77//1
f 64//2 78//2 35//2
f 35//1 78//1 64//1
f 68//85 75//85 79//89
f 79//90 75//86 68//86
f 79//2 73//2 68//2
f 68//1 73//1 79//1
f 73//87 80//87 69//87
f 69//88 80//88 73//88
f 81//1 75//1 69//1
f 69//2 75//2 81//2
f 74//2 71//2 72//2
f 72//1 71//1 74//1
f 76//2 77//2 72//2
f 72//1 77//1 76//1
f 82//2 76//2 35//2
f 35//1 76//1 82//1
f 83//2 64//2 77//2
f 77//1 64//1 83//1
f 77//2 74//2 72//2
f 72//1 74//1 77//1
f 78//2 64//2 84//2
f 84//1 64//1 78//1
f 78//2 85//2 35//2
f 35//1 85//1 78//1
f 81//89 79//89 75//85
f 75//86 79//90 81//90
f 86//2 73//2 79//2
f 79//1 73//1 86//1
f 80//2 73//2 87//2
f 87//1 73//1 80//1
f 88//87 69//87 80//87
f 80//88 69//88 88//88
f 89//1 81//1 69//1
f 69//2 81//2 89//2
f 82//2 77//2 76//2
f 76//1 77//1 82//1
f 85//2 82//2 35//2
f 35//1 82//1 85//1
f 84//2 64//2 83//2
f 83//1 64//1 84//1
f 83//2 77//2 82//2
f 82//1 77//1 83//1
f 78//2 84//2 85//2
f 85//1 84//1 78//1
f 79//89 81//89 86//91
f 86//92 81//90 79//90
f 90//2 73//2 86//2
f 86//1 73//1 90//1
f 87//2 73//2 91//2
f 91//1 73//1 87//1
f 92//2 80//2 87//2
f 87//1 80//1 92//1
f 88//1 93//1 69//1
f 69//2 93//2 88//2
f 80//93 92//93 88//93
f 88//94 92//94 80//94
f 89//91 86//91 81//89
f 81//90 86//92 89//92
f 94//1 89//1 69//1
f 69//2 89//2 94//2
f 85//2 84//2 82//2
f 82//1 84//1 85//1
f 84//2 83//2 82//2
f 82//1 83//1 84//1
f 95//2 73//2 90//2
f 90//1 73//1 95//1
f 86//91 89//91 90//95
f 90//96 89//92 86//92
f 91//2 73//2 96//2
f 96//1 73//1 91//1
f 91//97 97//97 87//98
f 87//99 97//100 91//100
f 87//101 93//101 92//101
f 92//102 93//102 87//102
f 98//1 93//1 88//1
f 88//2 93//2 98//2
f 93//1 97//1 69//1
f 69//2 97//2 93//2
f 98//93 88//93 92//93
f 92//94 88//94 98//94
f 94//95 90//95 89//91
f 89//92 90//96 94//96
f 99//1 94//1 69//1
f 69//2 94//2 99//2
f 96//2 73//2 95//2
f 95//1 73//1 96//1
f 90//95 94//95 95//103
f 95//104 94//96 90//96
f 96//105 100//105 91//97
f 91//100 100//106 96//106
f 97//97 91//97 100//105
f 100//106 91//100 97//100
f 93//98 87//98 97//97
f 97//100 87//99 93//99
f 98//101 92//101 93//101
f 93//102 92//102 98//102
f 97//1 100//1 69//1
f 69//2 100//2 97//2
f 99//103 95//103 94//95
f 94//96 95//104 99//104
f 100//1 99//1 69//1
f 69//2 99//2 100//2
f 95//103 99//103 96//105
f 96//106 99//104 95//104
f 100//105 96//105 99//103
f 99//104 96//106 100//106
