# SSTK version 0.8.0
# 2
mtllib original-2.mtl
o mesh1/mesh1-geometry#mesh1-geometry
v 0.010730 0.022161 0.025644
v 0.015001 0.022161 0.026282
v 0.012853 0.022161 0.026047
v 0.008645 0.022161 0.025075
v 0.017162 0.022161 0.026348
v 0.006611 0.022161 0.024345
v 0.019320 0.022161 0.026244
v 0.004640 0.022161 0.023457
v 0.021464 0.022161 0.025972
v 0.002746 0.022161 0.022418
v 0.023580 0.022161 0.025532
v 0.000938 0.022161 0.021233
v 0.025655 0.022161 0.024927
v -0.000770 0.022161 0.019910
v 0.027676 0.022161 0.024161
v -0.002370 0.022161 0.018457
v 0.029630 0.022161 0.023239
v -0.003851 0.022161 0.016883
v 0.031507 0.022161 0.022167
v -0.005204 0.022161 0.015197
v 0.033293 0.022161 0.020951
v -0.006420 0.022161 0.013411
v 0.034978 0.022161 0.019598
v -0.007492 0.022161 0.011535
v 0.036553 0.022161 0.018117
v -0.008414 0.022161 0.009580
v 0.038006 0.022161 0.016517
v -0.009180 0.022161 0.007559
v 0.039329 0.022161 0.014809
v -0.009785 0.022161 0.005484
v 0.040514 0.022161 0.013001
v -0.010225 0.022161 0.003368
v 0.041553 0.022161 0.011107
v -0.010497 0.022161 0.001224
v 0.042441 0.022161 0.009136
v -0.010601 0.022161 -0.000934
v 0.043171 0.022161 0.007102
v -0.010535 0.022161 -0.003094
v 0.043739 0.022161 0.005017
v -0.010300 0.022161 -0.005243
v 0.044143 0.022161 0.002894
v -0.009897 0.022161 -0.007366
v 0.044378 0.022161 0.000746
v -0.009328 0.022161 -0.009451
v 0.044444 0.022161 -0.001415
v -0.008598 0.022161 -0.011485
v 0.044340 0.022161 -0.003573
v -0.007710 0.022161 -0.013455
v 0.044067 0.022161 -0.005717
v -0.006671 0.022161 -0.015350
v 0.043627 0.022161 -0.007833
v -0.005486 0.022161 -0.017157
v 0.043023 0.022161 -0.009908
v -0.004163 0.022161 -0.018866
v 0.042257 0.022161 -0.011929
v -0.002710 0.022161 -0.020466
v 0.041335 0.022161 -0.013883
v -0.001136 0.022161 -0.021947
v 0.040263 0.022161 -0.015760
v 0.000550 0.022161 -0.023299
v 0.039046 0.022161 -0.017546
v 0.002336 0.022161 -0.024516
v 0.037694 0.022161 -0.019231
v 0.004212 0.022161 -0.025588
v 0.036213 0.022161 -0.020806
v 0.006167 0.022161 -0.026510
v 0.034613 0.022161 -0.022259
v 0.008188 0.022161 -0.027276
v 0.032904 0.022161 -0.023582
v 0.010263 0.022161 -0.027880
v 0.031097 0.022161 -0.024767
v 0.012379 0.022161 -0.028320
v 0.029202 0.022161 -0.025806
v 0.014523 0.022161 -0.028593
v 0.027232 0.022161 -0.026694
v 0.016681 0.022161 -0.028697
v 0.025198 0.022161 -0.027424
v 0.018841 0.022161 -0.028631
v 0.023113 0.022161 -0.027993
v 0.020990 0.022161 -0.028396
vn 0 -1 0
vn 0 1 0
usemtl material_0_0
f 1//1 2//1 3//1
f 2//1 1//1 4//1
f 3//2 2//2 1//2
f 4//2 1//2 2//2
f 2//1 4//1 5//1
f 5//2 4//2 2//2
f 5//1 4//1 6//1
f 6//2 4//2 5//2
f 5//1 6//1 7//1
f 7//2 6//2 5//2
f 7//1 6//1 8//1
f 8//2 6//2 7//2
f 7//1 8//1 9//1
f 9//2 8//2 7//2
f 9//1 8//1 10//1
f 10//2 8//2 9//2
f 9//1 10//1 11//1
f 11//2 10//2 9//2
f 11//1 10//1 12//1
f 12//2 10//2 11//2
f 11//1 12//1 13//1
f 13//2 12//2 11//2
f 13//1 12//1 14//1
f 14//2 12//2 13//2
f 13//1 14//1 15//1
f 15//2 14//2 13//2
f 15//1 14//1 16//1
f 16//2 14//2 15//2
f 15//1 16//1 17//1
f 17//2 16//2 15//2
f 17//1 16//1 18//1
f 18//2 16//2 17//2
f 17//1 18//1 19//1
f 19//2 18//2 17//2
f 19//1 18//1 20//1
f 20//2 18//2 19//2
f 19//1 20//1 21//1
f 21//2 20//2 19//2
f 21//1 20//1 22//1
f 22//2 20//2 21//2
f 21//1 22//1 23//1
f 23//2 22//2 21//2
f 23//1 22//1 24//1
f 24//2 22//2 23//2
f 23//1 24//1 25//1
f 25//2 24//2 23//2
f 25//1 24//1 26//1
f 26//2 24//2 25//2
f 25//1 26//1 27//1
f 27//2 26//2 25//2
f 27//1 26//1 28//1
f 28//2 26//2 27//2
f 27//1 28//1 29//1
f 29//2 28//2 27//2
f 29//1 28//1 30//1
f 30//2 28//2 29//2
f 29//1 30//1 31//1
f 31//2 30//2 29//2
f 31//1 30//1 32//1
f 32//2 30//2 31//2
f 31//1 32//1 33//1
f 33//2 32//2 31//2
f 33//1 32//1 34//1
f 34//2 32//2 33//2
f 33//1 34//1 35//1
f 35//2 34//2 33//2
f 35//1 34//1 36//1
f 36//2 34//2 35//2
f 35//1 36//1 37//1
f 37//2 36//2 35//2
f 37//1 36//1 38//1
f 38//2 36//2 37//2
f 37//1 38//1 39//1
f 39//2 38//2 37//2
f 39//1 38//1 40//1
f 40//2 38//2 39//2
f 39//1 40//1 41//1
f 41//2 40//2 39//2
f 41//1 40//1 42//1
f 42//2 40//2 41//2
f 41//1 42//1 43//1
f 43//2 42//2 41//2
f 43//1 42//1 44//1
f 44//2 42//2 43//2
f 43//1 44//1 45//1
f 45//2 44//2 43//2
f 45//1 44//1 46//1
f 46//2 44//2 45//2
f 45//1 46//1 47//1
f 47//2 46//2 45//2
f 47//1 46//1 48//1
f 48//2 46//2 47//2
f 47//1 48//1 49//1
f 49//2 48//2 47//2
f 49//1 48//1 50//1
f 50//2 48//2 49//2
f 49//1 50//1 51//1
f 51//2 50//2 49//2
f 51//1 50//1 52//1
f 52//2 50//2 51//2
f 51//1 52//1 53//1
f 53//2 52//2 51//2
f 53//1 52//1 54//1
f 54//2 52//2 53//2
f 53//1 54//1 55//1
f 55//2 54//2 53//2
f 55//1 54//1 56//1
f 56//2 54//2 55//2
f 55//1 56//1 57//1
f 57//2 56//2 55//2
f 57//1 56//1 58//1
f 58//2 56//2 57//2
f 57//1 58//1 59//1
f 59//2 58//2 57//2
f 59//1 58//1 60//1
f 60//2 58//2 59//2
f 59//1 60//1 61//1
f 61//2 60//2 59//2
f 61//1 60//1 62//1
f 62//2 60//2 61//2
f 61//1 62//1 63//1
f 63//2 62//2 61//2
f 63//1 62//1 64//1
f 64//2 62//2 63//2
f 63//1 64//1 65//1
f 65//2 64//2 63//2
f 65//1 64//1 66//1
f 66//2 64//2 65//2
f 65//1 66//1 67//1
f 67//2 66//2 65//2
f 67//1 66//1 68//1
f 68//2 66//2 67//2
f 67//1 68//1 69//1
f 69//2 68//2 67//2
f 69//1 68//1 70//1
f 70//2 68//2 69//2
f 69//1 70//1 71//1
f 71//2 70//2 69//2
f 71//1 70//1 72//1
f 72//2 70//2 71//2
f 71//1 72//1 73//1
f 73//2 72//2 71//2
f 73//1 72//1 74//1
f 74//2 72//2 73//2
f 73//1 74//1 75//1
f 75//2 74//2 73//2
f 75//1 74//1 76//1
f 76//2 74//2 75//2
f 75//1 76//1 77//1
f 77//2 76//2 75//2
f 77//1 76//1 78//1
f 78//2 76//2 77//2
f 77//1 78//1 79//1
f 79//2 78//2 77//2
f 79//1 78//1 80//1
f 80//2 78//2 79//2
