# SSTK version 0.8.0
# 27
mtllib original-27.mtl
o mesh33/mesh33-geometry/material_6/component_1#mesh33-geometry
v -0.033821 0.034114 0.516678
v -0.033821 0.034114 0.521511
v -0.032561 0.034178 0.516678
v -0.035055 0.034378 0.516678
v -0.035055 0.034378 0.521511
v -0.033821 0.034114 0.516678
v -0.037114 0.035799 0.516678
v -0.037114 0.035799 0.521511
v -0.036178 0.034953 0.516678
v -0.037114 0.035799 0.516678
v -0.037800 0.036858 0.516678
v -0.037114 0.035799 0.521511
v -0.032561 0.034178 0.521511
v -0.032561 0.034178 0.516678
v -0.033821 0.034114 0.521511
v -0.033821 0.034114 0.521511
v -0.033821 0.034114 0.516678
v -0.035055 0.034378 0.521511
v -0.035055 0.034378 0.521511
v -0.035055 0.034378 0.516678
v -0.036178 0.034953 0.521511
v -0.036178 0.034953 0.516678
v -0.036178 0.034953 0.521511
v -0.035055 0.034378 0.516678
v -0.036178 0.034953 0.521511
v -0.036178 0.034953 0.516678
v -0.037114 0.035799 0.521511
v -0.037800 0.036858 0.521511
v -0.037114 0.035799 0.521511
v -0.037800 0.036858 0.516678
v -0.037800 0.036858 0.516678
v -0.038188 0.038058 0.516678
v -0.037800 0.036858 0.521511
v -0.032561 0.034178 0.516678
v -0.032561 0.034178 0.521511
v -0.031360 0.034566 0.516678
v -0.033821 0.034114 0.521511
v -0.035055 0.034378 0.521511
v -0.032561 0.034178 0.521511
v -0.036178 0.034953 0.521511
v -0.031360 0.034566 0.521511
v -0.035055 0.034378 0.521511
v -0.037114 0.035799 0.521511
v -0.030301 0.035252 0.521511
v -0.036178 0.034953 0.521511
v -0.037800 0.036858 0.521511
v -0.029455 0.036188 0.521511
v -0.037114 0.035799 0.521511
v -0.038188 0.038058 0.521511
v -0.037800 0.036858 0.521511
v -0.038188 0.038058 0.516678
v -0.038188 0.038058 0.516678
v -0.038253 0.039318 0.516678
v -0.038188 0.038058 0.521511
v -0.031360 0.034566 0.516678
v -0.031360 0.034566 0.521511
v -0.030301 0.035252 0.516678
v -0.031360 0.034566 0.521511
v -0.031360 0.034566 0.516678
v -0.032561 0.034178 0.521511
v -0.031360 0.034566 0.521511
v -0.032561 0.034178 0.521511
v -0.035055 0.034378 0.521511
v -0.030301 0.035252 0.521511
v -0.031360 0.034566 0.521511
v -0.036178 0.034953 0.521511
v -0.029455 0.036188 0.521511
v -0.030301 0.035252 0.521511
v -0.037114 0.035799 0.521511
v -0.028880 0.037312 0.521511
v -0.029455 0.036188 0.521511
v -0.037800 0.036858 0.521511
v -0.038188 0.038058 0.521511
v -0.028880 0.037312 0.521511
v -0.037800 0.036858 0.521511
v -0.038253 0.039318 0.521511
v -0.038188 0.038058 0.521511
v -0.038253 0.039318 0.516678
v -0.038253 0.039318 0.516678
v -0.037988 0.040552 0.516678
v -0.038253 0.039318 0.521511
v -0.029455 0.036188 0.516678
v -0.030301 0.035252 0.516678
v -0.029455 0.036188 0.521511
v -0.030301 0.035252 0.521511
v -0.030301 0.035252 0.516678
v -0.031360 0.034566 0.521511
v -0.030301 0.035252 0.521511
v -0.029455 0.036188 0.521511
v -0.030301 0.035252 0.516678
v -0.029455 0.036188 0.521511
v -0.028880 0.037312 0.521511
v -0.029455 0.036188 0.516678
v -0.028616 0.038545 0.521511
v -0.028880 0.037312 0.521511
v -0.038188 0.038058 0.521511
v -0.038253 0.039318 0.521511
v -0.028616 0.038545 0.521511
v -0.038188 0.038058 0.521511
v -0.037988 0.040552 0.521511
v -0.038253 0.039318 0.521511
v -0.037988 0.040552 0.516678
v -0.037988 0.040552 0.516678
v -0.037414 0.041676 0.516678
v -0.037988 0.040552 0.521511
v -0.033048 0.043750 0.516678
v -0.033048 0.043750 0.521511
v -0.034308 0.043686 0.516678
v -0.031814 0.043486 0.516678
v -0.031814 0.043486 0.521511
v -0.033048 0.043750 0.516678
v -0.030690 0.042912 0.516678
v -0.030690 0.042912 0.521511
v -0.031814 0.043486 0.516678
v -0.028880 0.037312 0.516678
v -0.029455 0.036188 0.516678
v -0.028880 0.037312 0.521511
v -0.028880 0.037312 0.521511
v -0.028616 0.038545 0.521511
v -0.028880 0.037312 0.516678
v -0.028681 0.039806 0.521511
v -0.028616 0.038545 0.521511
v -0.038253 0.039318 0.521511
v -0.037988 0.040552 0.521511
v -0.028681 0.039806 0.521511
v -0.038253 0.039318 0.521511
v -0.037414 0.041676 0.521511
v -0.037988 0.040552 0.521511
v -0.037414 0.041676 0.516678
v -0.037414 0.041676 0.516678
v -0.036568 0.042612 0.516678
v -0.037414 0.041676 0.521511
v -0.034308 0.043686 0.516678
v -0.034308 0.043686 0.521511
v -0.035509 0.043298 0.516678
v -0.034308 0.043686 0.521511
v -0.034308 0.043686 0.516678
v -0.033048 0.043750 0.521511
v -0.033048 0.043750 0.521511
v -0.033048 0.043750 0.516678
v -0.031814 0.043486 0.521511
v -0.031814 0.043486 0.521511
v -0.031814 0.043486 0.516678
v -0.030690 0.042912 0.521511
v -0.029754 0.042066 0.516678
v -0.029754 0.042066 0.521511
v -0.030690 0.042912 0.516678
v -0.030690 0.042912 0.521511
v -0.030690 0.042912 0.516678
v -0.029754 0.042066 0.521511
v -0.028616 0.038545 0.516678
v -0.028880 0.037312 0.516678
v -0.028616 0.038545 0.521511
v -0.028616 0.038545 0.521511
v -0.028681 0.039806 0.521511
v -0.028616 0.038545 0.516678
v -0.029069 0.041006 0.521511
v -0.028681 0.039806 0.521511
v -0.037988 0.040552 0.521511
v -0.037414 0.041676 0.521511
v -0.029069 0.041006 0.521511
v -0.037988 0.040552 0.521511
v -0.036568 0.042612 0.521511
v -0.037414 0.041676 0.521511
v -0.036568 0.042612 0.516678
v -0.035509 0.043298 0.516678
v -0.035509 0.043298 0.521511
v -0.036568 0.042612 0.516678
v -0.035509 0.043298 0.521511
v -0.035509 0.043298 0.516678
v -0.034308 0.043686 0.521511
v -0.033048 0.043750 0.521511
v -0.031814 0.043486 0.521511
v -0.034308 0.043686 0.521511
v -0.031814 0.043486 0.521511
v -0.030690 0.042912 0.521511
v -0.035509 0.043298 0.521511
v -0.029754 0.042066 0.516678
v -0.029069 0.041006 0.516678
v -0.029754 0.042066 0.521511
v -0.030690 0.042912 0.521511
v -0.029754 0.042066 0.521511
v -0.036568 0.042612 0.521511
v -0.028681 0.039806 0.516678
v -0.028616 0.038545 0.516678
v -0.028681 0.039806 0.521511
v -0.028681 0.039806 0.521511
v -0.029069 0.041006 0.521511
v -0.028681 0.039806 0.516678
v -0.029754 0.042066 0.521511
v -0.029069 0.041006 0.521511
v -0.037414 0.041676 0.521511
v -0.036568 0.042612 0.521511
v -0.029754 0.042066 0.521511
v -0.037414 0.041676 0.521511
v -0.036568 0.042612 0.521511
v -0.036568 0.042612 0.516678
v -0.035509 0.043298 0.521511
v -0.034308 0.043686 0.521511
v -0.031814 0.043486 0.521511
v -0.035509 0.043298 0.521511
v -0.035509 0.043298 0.521511
v -0.030690 0.042912 0.521511
v -0.036568 0.042612 0.521511
v -0.029069 0.041006 0.516678
v -0.028681 0.039806 0.516678
v -0.029069 0.041006 0.521511
v -0.029069 0.041006 0.521511
v -0.029754 0.042066 0.521511
v -0.029069 0.041006 0.516678
v -0.032561 0.034178 0.516678
v -0.033821 0.034114 0.521511
v -0.033821 0.034114 0.516678
v -0.033821 0.034114 0.516678
v -0.035055 0.034378 0.521511
v -0.035055 0.034378 0.516678
v -0.036178 0.034953 0.516678
v -0.037114 0.035799 0.521511
v -0.037114 0.035799 0.516678
v -0.037114 0.035799 0.521511
v -0.037800 0.036858 0.516678
v -0.037114 0.035799 0.516678
v -0.033821 0.034114 0.521511
v -0.032561 0.034178 0.516678
v -0.032561 0.034178 0.521511
v -0.035055 0.034378 0.521511
v -0.033821 0.034114 0.516678
v -0.033821 0.034114 0.521511
v -0.036178 0.034953 0.521511
v -0.035055 0.034378 0.516678
v -0.035055 0.034378 0.521511
v -0.035055 0.034378 0.516678
v -0.036178 0.034953 0.521511
v -0.036178 0.034953 0.516678
v -0.037114 0.035799 0.521511
v -0.036178 0.034953 0.516678
v -0.036178 0.034953 0.521511
v -0.037800 0.036858 0.516678
v -0.037114 0.035799 0.521511
v -0.037800 0.036858 0.521511
v -0.037800 0.036858 0.521511
v -0.038188 0.038058 0.516678
v -0.037800 0.036858 0.516678
v -0.031360 0.034566 0.516678
v -0.032561 0.034178 0.521511
v -0.032561 0.034178 0.516678
v -0.032561 0.034178 0.521511
v -0.035055 0.034378 0.521511
v -0.033821 0.034114 0.521511
v -0.035055 0.034378 0.521511
v -0.031360 0.034566 0.521511
v -0.036178 0.034953 0.521511
v -0.036178 0.034953 0.521511
v -0.030301 0.035252 0.521511
v -0.037114 0.035799 0.521511
v -0.037114 0.035799 0.521511
v -0.029455 0.036188 0.521511
v -0.037800 0.036858 0.521511
v -0.038188 0.038058 0.516678
v -0.037800 0.036858 0.521511
v -0.038188 0.038058 0.521511
v -0.038188 0.038058 0.521511
v -0.038253 0.039318 0.516678
v -0.038188 0.038058 0.516678
v -0.030301 0.035252 0.516678
v -0.031360 0.034566 0.521511
v -0.031360 0.034566 0.516678
v -0.032561 0.034178 0.521511
v -0.031360 0.034566 0.516678
v -0.031360 0.034566 0.521511
v -0.035055 0.034378 0.521511
v -0.032561 0.034178 0.521511
v -0.031360 0.034566 0.521511
v -0.036178 0.034953 0.521511
v -0.031360 0.034566 0.521511
v -0.030301 0.035252 0.521511
v -0.037114 0.035799 0.521511
v -0.030301 0.035252 0.521511
v -0.029455 0.036188 0.521511
v -0.037800 0.036858 0.521511
v -0.029455 0.036188 0.521511
v -0.028880 0.037312 0.521511
v -0.037800 0.036858 0.521511
v -0.028880 0.037312 0.521511
v -0.038188 0.038058 0.521511
v -0.038253 0.039318 0.516678
v -0.038188 0.038058 0.521511
v -0.038253 0.039318 0.521511
v -0.038253 0.039318 0.521511
v -0.037988 0.040552 0.516678
v -0.038253 0.039318 0.516678
v -0.029455 0.036188 0.521511
v -0.030301 0.035252 0.516678
v -0.029455 0.036188 0.516678
v -0.031360 0.034566 0.521511
v -0.030301 0.035252 0.516678
v -0.030301 0.035252 0.521511
v -0.030301 0.035252 0.516678
v -0.029455 0.036188 0.521511
v -0.030301 0.035252 0.521511
v -0.029455 0.036188 0.516678
v -0.028880 0.037312 0.521511
v -0.029455 0.036188 0.521511
v -0.038188 0.038058 0.521511
v -0.028880 0.037312 0.521511
v -0.028616 0.038545 0.521511
v -0.038188 0.038058 0.521511
v -0.028616 0.038545 0.521511
v -0.038253 0.039318 0.521511
v -0.037988 0.040552 0.516678
v -0.038253 0.039318 0.521511
v -0.037988 0.040552 0.521511
v -0.037988 0.040552 0.521511
v -0.037414 0.041676 0.516678
v -0.037988 0.040552 0.516678
v -0.034308 0.043686 0.516678
v -0.033048 0.043750 0.521511
v -0.033048 0.043750 0.516678
v -0.033048 0.043750 0.516678
v -0.031814 0.043486 0.521511
v -0.031814 0.043486 0.516678
v -0.031814 0.043486 0.516678
v -0.030690 0.042912 0.521511
v -0.030690 0.042912 0.516678
v -0.028880 0.037312 0.521511
v -0.029455 0.036188 0.516678
v -0.028880 0.037312 0.516678
v -0.028880 0.037312 0.516678
v -0.028616 0.038545 0.521511
v -0.028880 0.037312 0.521511
v -0.038253 0.039318 0.521511
v -0.028616 0.038545 0.521511
v -0.028681 0.039806 0.521511
v -0.038253 0.039318 0.521511
v -0.028681 0.039806 0.521511
v -0.037988 0.040552 0.521511
v -0.037414 0.041676 0.516678
v -0.037988 0.040552 0.521511
v -0.037414 0.041676 0.521511
v -0.037414 0.041676 0.521511
v -0.036568 0.042612 0.516678
v -0.037414 0.041676 0.516678
v -0.035509 0.043298 0.516678
v -0.034308 0.043686 0.521511
v -0.034308 0.043686 0.516678
v -0.033048 0.043750 0.521511
v -0.034308 0.043686 0.516678
v -0.034308 0.043686 0.521511
v -0.031814 0.043486 0.521511
v -0.033048 0.043750 0.516678
v -0.033048 0.043750 0.521511
v -0.030690 0.042912 0.521511
v -0.031814 0.043486 0.516678
v -0.031814 0.043486 0.521511
v -0.030690 0.042912 0.516678
v -0.029754 0.042066 0.521511
v -0.029754 0.042066 0.516678
v -0.029754 0.042066 0.521511
v -0.030690 0.042912 0.516678
v -0.030690 0.042912 0.521511
v -0.028616 0.038545 0.521511
v -0.028880 0.037312 0.516678
v -0.028616 0.038545 0.516678
v -0.028616 0.038545 0.516678
v -0.028681 0.039806 0.521511
v -0.028616 0.038545 0.521511
v -0.037988 0.040552 0.521511
v -0.028681 0.039806 0.521511
v -0.029069 0.041006 0.521511
v -0.037988 0.040552 0.521511
v -0.029069 0.041006 0.521511
v -0.037414 0.041676 0.521511
v -0.036568 0.042612 0.516678
v -0.037414 0.041676 0.521511
v -0.036568 0.042612 0.521511
v -0.036568 0.042612 0.516678
v -0.035509 0.043298 0.521511
v -0.035509 0.043298 0.516678
v -0.034308 0.043686 0.521511
v -0.035509 0.043298 0.516678
v -0.035509 0.043298 0.521511
v -0.034308 0.043686 0.521511
v -0.031814 0.043486 0.521511
v -0.033048 0.043750 0.521511
v -0.035509 0.043298 0.521511
v -0.030690 0.042912 0.521511
v -0.031814 0.043486 0.521511
v -0.029754 0.042066 0.521511
v -0.029069 0.041006 0.516678
v -0.029754 0.042066 0.516678
v -0.036568 0.042612 0.521511
v -0.029754 0.042066 0.521511
v -0.030690 0.042912 0.521511
v -0.028681 0.039806 0.521511
v -0.028616 0.038545 0.516678
v -0.028681 0.039806 0.516678
v -0.028681 0.039806 0.516678
v -0.029069 0.041006 0.521511
v -0.028681 0.039806 0.521511
v -0.037414 0.041676 0.521511
v -0.029069 0.041006 0.521511
v -0.029754 0.042066 0.521511
v -0.037414 0.041676 0.521511
v -0.029754 0.042066 0.521511
v -0.036568 0.042612 0.521511
v -0.035509 0.043298 0.521511
v -0.036568 0.042612 0.516678
v -0.036568 0.042612 0.521511
v -0.035509 0.043298 0.521511
v -0.031814 0.043486 0.521511
v -0.034308 0.043686 0.521511
v -0.036568 0.042612 0.521511
v -0.030690 0.042912 0.521511
v -0.035509 0.043298 0.521511
v -0.029069 0.041006 0.521511
v -0.028681 0.039806 0.516678
v -0.029069 0.041006 0.516678
v -0.029069 0.041006 0.516678
v -0.029754 0.042066 0.521511
v -0.029069 0.041006 0.521511
vn 0.0799379885415105 0.9967998384770823 0
vn -0.18077604802558075 0.9835242856484293 0
vn 0.33520506135998984 0.9421451941386985 0
vn 0.761368886266569 0.6483189176826514 0
vn 0.5676280997465591 0.8232850905841246 0
vn 0.9032232075516929 0.4291711049686726 0
vn 0.9835242856484293 0.18077604802558075 0
vn -0.4291711049686726 0.9032232075516929 0
vn 0 0 -1
vn 0.9967998384770823 -0.0799379885415105 0
vn -0.6483189176826514 0.761368886266569 0
vn 0.9421451941386985 -0.33520506135998984 0
vn -0.8232850905841246 0.5676280997465591 0
vn -0.9421451941386985 0.33520506135998984 0
vn 0.8232850905841246 -0.5676280997465591 0
vn -0.0799379885415105 -0.9967998384770823 0
vn 0.18077604802558075 -0.9835242856484293 0
vn -0.33520506135998984 -0.9421451941386985 0
vn -0.5676280997465591 -0.8232850905841246 0
vn -0.9967998384770823 0.0799379885415105 0
vn 0.6483189176826514 -0.761368886266569 0
vn 0.4291711049686726 -0.9032232075516929 0
vn -0.761368886266569 -0.6483189176826514 0
vn -0.9835242856484293 -0.18077604802558075 0
vn -0.9032232075516929 -0.4291711049686726 0
vn 0 0 1
usemtl material_0_0
f 1//1 2//1 3//2
f 4//3 5//3 6//1
f 7//4 8//4 9//5
f 10//4 11//6 12//4
f 13//2 14//2 15//1
f 16//1 17//1 18//3
f 19//3 20//3 21//5
f 22//5 23//5 24//3
f 25//5 26//5 27//4
f 28//6 29//4 30//6
f 31//6 32//7 33//6
f 34//2 35//2 36//8
f 37//9 38//9 39//9
f 40//9 41//9 42//9
f 43//9 44//9 45//9
f 46//9 47//9 48//9
f 49//7 50//6 51//7
f 52//7 53//10 54//7
f 55//8 56//8 57//11
f 58//8 59//8 60//2
f 61//9 62//9 63//9
f 64//9 65//9 66//9
f 67//9 68//9 69//9
f 70//9 71//9 72//9
f 73//9 74//9 75//9
f 76//10 77//7 78//10
f 79//10 80//12 81//10
f 82//13 83//11 84//13
f 85//11 86//11 87//8
f 88//11 89//13 90//11
f 91//13 92//14 93//13
f 94//9 95//9 96//9
f 97//9 98//9 99//9
f 100//12 101//10 102//12
f 103//12 104//15 105//12
f 106//16 107//16 108//17
f 109//18 110//18 111//16
f 112//19 113//19 114//18
f 115//14 116//13 117//14
f 118//14 119//20 120//14
f 121//9 122//9 123//9
f 124//9 125//9 126//9
f 127//15 128//12 129//15
f 130//15 131//21 132//15
f 133//17 134//17 135//22
f 136//17 137//17 138//16
f 139//16 140//16 141//18
f 142//18 143//18 144//19
f 145//23 146//23 147//19
f 148//19 149//19 150//23
f 151//20 152//14 153//20
f 154//20 155//24 156//20
f 157//9 158//9 159//9
f 160//9 161//9 162//9
f 163//21 164//15 165//21
f 166//22 167//22 168//21
f 169//22 170//22 171//17
f 172//9 173//9 174//9
f 175//9 176//9 177//9
f 178//23 179//25 180//23
f 181//9 182//9 183//9
f 184//24 185//20 186//24
f 187//24 188//25 189//24
f 190//9 191//9 192//9
f 193//9 194//9 195//9
f 196//21 197//21 198//22
f 199//9 200//9 201//9
f 202//9 203//9 204//9
f 205//25 206//24 207//25
f 208//25 209//23 210//25
usemtl material_1_0
f 211//17 212//16 213//16
f 214//16 215//18 216//18
f 217//19 218//23 219//23
f 220//23 221//25 222//23
f 223//16 224//17 225//17
f 226//18 227//16 228//16
f 229//19 230//18 231//18
f 232//18 233//19 234//19
f 235//23 236//19 237//19
f 238//25 239//23 240//25
f 241//25 242//24 243//25
f 244//22 245//17 246//17
f 247//26 248//26 249//26
f 250//26 251//26 252//26
f 253//26 254//26 255//26
f 256//26 257//26 258//26
f 259//24 260//25 261//24
f 262//24 263//20 264//24
f 265//21 266//22 267//22
f 268//17 269//22 270//22
f 271//26 272//26 273//26
f 274//26 275//26 276//26
f 277//26 278//26 279//26
f 280//26 281//26 282//26
f 283//26 284//26 285//26
f 286//20 287//24 288//20
f 289//20 290//14 291//20
f 292//15 293//21 294//15
f 295//22 296//21 297//21
f 298//21 299//15 300//21
f 301//15 302//12 303//15
f 304//26 305//26 306//26
f 307//26 308//26 309//26
f 310//14 311//20 312//14
f 313//14 314//13 315//14
f 316//2 317//1 318//1
f 319//1 320//3 321//3
f 322//3 323//5 324//5
f 325//12 326//15 327//12
f 328//12 329//10 330//12
f 331//26 332//26 333//26
f 334//26 335//26 336//26
f 337//13 338//14 339//13
f 340//13 341//11 342//13
f 343//8 344//2 345//2
f 346//1 347//2 348//2
f 349//3 350//1 351//1
f 352//5 353//3 354//3
f 355//5 356//4 357//4
f 358//4 359//5 360//5
f 361//10 362//12 363//10
f 364//10 365//7 366//10
f 367//26 368//26 369//26
f 370//26 371//26 372//26
f 373//11 374//13 375//11
f 376//11 377//8 378//8
f 379//2 380//8 381//8
f 382//26 383//26 384//26
f 385//26 386//26 387//26
f 388//4 389//6 390//4
f 391//26 392//26 393//26
f 394//7 395//10 396//7
f 397//7 398//6 399//7
f 400//26 401//26 402//26
f 403//26 404//26 405//26
f 406//8 407//11 408//11
f 409//26 410//26 411//26
f 412//26 413//26 414//26
f 415//6 416//7 417//6
f 418//6 419//4 420//6
