# SSTK version 0.8.0
# 3
mtllib original-3.mtl
o Component_1_1/Component_1/mesh2/mesh2-geometry#mesh2-geometry
v -0.132504 -0.315511 0.585758
v -0.029323 -0.419626 0.647989
v -0.134252 -0.314697 0.590430
v -0.027575 -0.420440 0.643318
v -0.030138 -0.417878 0.652660
v -0.135067 -0.312949 0.595101
v -0.129943 -0.315338 0.581406
v -0.134893 -0.310388 0.599454
v -0.025014 -0.420267 0.638965
v -0.029964 -0.415317 0.657013
v -0.126743 -0.314188 0.577668
v -0.133743 -0.307188 0.603192
v -0.028814 -0.412116 0.660751
v -0.021814 -0.419117 0.635227
v -0.018192 -0.417068 0.632359
v -0.131695 -0.303566 0.606060
v -0.123121 -0.312140 0.574799
v -0.026766 -0.408495 0.663619
v -0.014397 -0.414262 0.630556
v -0.128888 -0.299770 0.607863
v -0.119325 -0.309333 0.572996
v -0.023959 -0.404699 0.665422
v -0.010685 -0.410888 0.629941
v -0.125514 -0.296059 0.608478
v -0.115614 -0.305959 0.572381
v -0.020585 -0.400988 0.666037
v -0.007311 -0.407176 0.630556
v -0.121803 -0.292685 0.607863
v -0.112240 -0.302247 0.572996
v -0.016874 -0.397614 0.665422
v -0.004504 -0.403380 0.632359
v -0.118007 -0.289878 0.606060
v -0.109433 -0.298452 0.574799
v -0.013078 -0.394807 0.663619
v -0.002456 -0.399759 0.635227
v -0.114385 -0.287830 0.603192
v -0.107385 -0.294830 0.577668
v -0.009456 -0.392759 0.660751
v -0.106235 -0.291630 0.581406
v -0.111185 -0.286680 0.599454
v -0.006256 -0.391609 0.657013
v -0.001306 -0.396559 0.638965
v -0.106061 -0.289068 0.585758
v -0.108624 -0.286506 0.595101
v -0.003695 -0.391435 0.652660
v -0.001132 -0.393997 0.643318
v -0.106876 -0.287321 0.590430
v -0.001947 -0.392250 0.647989
vn -0.6168318234321767 -0.7491958686216552 -0.2412966059470781
vn -0.7071067811865475 -0.7071067811865477 0
vn 0.7071067811865475 0.7071067811865477 0
vn 0.6168318234321767 0.7491958686216552 0.2412966059470781
vn -0.7491958686216552 -0.6168318234321771 0.2412966059470775
vn 0.7491958686216552 0.6168318234321771 -0.2412966059470775
vn -0.6592548863395985 0.6592548863395986 -0.36161580396150533
vn 0.6592548863395985 -0.6592548863395986 0.36161580396150533
vn -0.48452162496662504 -0.7402306520034645 -0.46615166713659517
vn 0.48452162496662504 0.7402306520034645 0.46615166713659517
vn -0.7402306520034645 -0.48452162496662554 0.4661516671365945
vn 0.7402306520034645 0.48452162496662554 -0.4661516671365945
vn -0.319191525044607 -0.6808208014463925 -0.6592418423140249
vn 0.319191525044607 0.6808208014463925 0.6592418423140249
vn -0.6808208014463926 -0.31919152504460757 0.6592418423140245
vn 0.6808208014463926 0.31919152504460757 -0.6592418423140245
vn -0.13210691151896262 -0.5750131912745732 -0.8074079475637777
vn 0.13210691151896262 0.5750131912745732 0.8074079475637777
vn -0.5750131912745734 -0.13210691151896312 0.8074079475637774
vn 0.5750131912745734 0.13210691151896312 -0.8074079475637774
vn 0.06398318071727843 -0.4300168828561623 -0.9005507387393392
vn -0.06398318071727843 0.4300168828561623 0.9005507387393392
vn -0.4300168828561627 0.06398318071727796 0.900550738739339
vn 0.4300168828561627 -0.06398318071727796 -0.900550738739339
vn 0.2557136657103401 -0.25571366571033965 -0.9323202466631094
vn -0.2557136657103401 0.25571366571033965 0.9323202466631094
usemtl material_0_0
f 1//1 2//2 3//2
f 2//2 1//1 4//1
f 3//3 2//3 1//4
f 4//4 1//4 2//3
f 5//5 3//2 2//2
f 2//3 3//3 5//6
f 6//7 1//7 3//7
f 3//8 1//8 6//8
f 7//9 4//1 1//1
f 1//4 4//4 7//10
f 4//8 5//8 2//8
f 2//7 5//7 4//7
f 3//2 5//5 6//5
f 6//6 5//6 3//3
f 1//7 6//7 8//7
f 8//8 6//8 1//8
f 4//1 7//9 9//9
f 9//10 7//10 4//4
f 1//7 8//7 7//7
f 7//8 8//8 1//8
f 5//8 4//8 9//8
f 9//7 4//7 5//7
f 10//11 6//5 5//5
f 5//6 6//6 10//12
f 6//5 10//11 8//11
f 8//12 10//12 6//6
f 11//13 9//9 7//9
f 7//10 9//10 11//14
f 7//7 8//7 12//7
f 12//8 8//8 7//8
f 5//8 9//8 10//8
f 10//7 9//7 5//7
f 13//15 8//11 10//11
f 10//12 8//12 13//16
f 9//9 11//13 14//13
f 14//14 11//14 9//10
f 7//7 12//7 11//7
f 11//8 12//8 7//8
f 8//11 13//15 12//15
f 12//16 13//16 8//12
f 10//8 9//8 14//8
f 14//7 9//7 10//7
f 10//8 14//8 13//8
f 13//7 14//7 10//7
f 11//13 15//17 14//13
f 14//14 15//18 11//14
f 11//7 12//7 16//7
f 16//8 12//8 11//8
f 13//15 16//19 12//15
f 12//16 16//20 13//16
f 13//8 14//8 15//8
f 15//7 14//7 13//7
f 15//17 11//13 17//17
f 17//18 11//14 15//18
f 11//7 16//7 17//7
f 17//8 16//8 11//8
f 16//19 13//15 18//19
f 18//20 13//16 16//20
f 13//8 15//8 18//8
f 18//7 15//7 13//7
f 17//17 19//21 15//17
f 15//18 19//22 17//18
f 17//7 16//7 20//7
f 20//8 16//8 17//8
f 18//19 20//23 16//19
f 16//20 20//24 18//20
f 18//8 15//8 19//8
f 19//7 15//7 18//7
f 19//21 17//17 21//21
f 21//22 17//18 19//22
f 17//7 20//7 21//7
f 21//8 20//8 17//8
f 20//23 18//19 22//23
f 22//24 18//20 20//24
f 18//8 19//8 22//8
f 22//7 19//7 18//7
f 21//21 23//25 19//21
f 19//22 23//26 21//22
f 21//7 20//7 24//7
f 24//8 20//8 21//8
f 22//23 24//26 20//23
f 20//24 24//25 22//24
f 22//8 19//8 23//8
f 23//7 19//7 22//7
f 23//25 21//21 25//25
f 25//26 21//22 23//26
f 21//7 24//7 25//7
f 25//8 24//8 21//8
f 24//26 22//23 26//26
f 26//25 22//24 24//25
f 22//8 23//8 26//8
f 26//7 23//7 22//7
f 25//25 27//24 23//25
f 23//26 27//23 25//26
f 25//7 24//7 28//7
f 28//8 24//8 25//8
f 26//26 28//22 24//26
f 24//25 28//21 26//25
f 26//8 23//8 27//8
f 27//7 23//7 26//7
f 27//24 25//25 29//24
f 29//23 25//26 27//23
f 25//7 28//7 29//7
f 29//8 28//8 25//8
f 28//22 26//26 30//22
f 30//21 26//25 28//21
f 26//8 27//8 30//8
f 30//7 27//7 26//7
f 29//24 31//20 27//24
f 27//23 31//19 29//23
f 29//7 28//7 32//7
f 32//8 28//8 29//8
f 30//22 32//18 28//22
f 28//21 32//17 30//21
f 30//8 27//8 31//8
f 31//7 27//7 30//7
f 31//20 29//24 33//20
f 33//19 29//23 31//19
f 29//7 32//7 33//7
f 33//8 32//8 29//8
f 32//18 30//22 34//18
f 34//17 30//21 32//17
f 30//8 31//8 34//8
f 34//7 31//7 30//7
f 33//20 35//16 31//20
f 31//19 35//15 33//19
f 33//7 32//7 36//7
f 36//8 32//8 33//8
f 34//18 36//14 32//18
f 32//17 36//13 34//17
f 34//8 31//8 35//8
f 35//7 31//7 34//7
f 35//16 33//20 37//16
f 37//15 33//19 35//15
f 33//7 36//7 37//7
f 37//8 36//8 33//8
f 36//14 34//18 38//14
f 38//13 34//17 36//13
f 34//8 35//8 38//8
f 38//7 35//7 34//7
f 39//12 35//16 37//16
f 37//15 35//15 39//11
f 37//7 36//7 40//7
f 40//8 36//8 37//8
f 41//10 36//14 38//14
f 38//13 36//13 41//9
f 38//8 35//8 42//8
f 42//7 35//7 38//7
f 35//16 39//12 42//12
f 42//11 39//11 35//15
f 37//7 40//7 39//7
f 39//8 40//8 37//8
f 36//14 41//10 40//10
f 40//9 41//9 36//13
f 38//8 42//8 41//8
f 41//7 42//7 38//7
f 43//6 42//12 39//12
f 39//11 42//11 43//5
f 39//7 40//7 44//7
f 44//8 40//8 39//8
f 45//4 40//10 41//10
f 41//9 40//9 45//1
f 41//8 42//8 46//8
f 46//7 42//7 41//7
f 42//12 43//6 46//6
f 46//5 43//5 42//11
f 39//7 44//7 43//7
f 43//8 44//8 39//8
f 40//10 45//4 44//4
f 44//1 45//1 40//9
f 41//8 46//8 45//8
f 45//7 46//7 41//7
f 47//3 46//6 43//6
f 43//5 46//5 47//2
f 43//7 44//7 47//7
f 47//8 44//8 43//8
f 48//3 44//4 45//4
f 45//1 44//1 48//2
f 45//8 46//8 48//8
f 48//7 46//7 45//7
f 46//6 47//3 48//3
f 48//2 47//2 46//5
f 44//4 48//3 47//3
f 47//2 48//2 44//1
