# SSTK version 0.8.0
# 13
mtllib original-13.mtl
o mesh14/mesh14-geometry#mesh14-geometry
v 0.006162 0.643007 0.511844
v 0.006354 0.637014 0.511844
v 0.005858 0.640484 0.511844
v 0.007074 0.645307 0.511844
v 0.005858 0.640484 0.518386
v 0.006162 0.643007 0.518386
v 0.007074 0.645307 0.518386
v 0.007845 0.633860 0.511844
v 0.006354 0.637014 0.518386
v 0.008595 0.647385 0.518386
v 0.008595 0.647385 0.511844
v 0.007845 0.633860 0.518386
v 0.011531 0.629512 0.511844
v 0.010724 0.649238 0.511844
v 0.011531 0.629512 0.518386
v 0.010724 0.649238 0.518386
v 0.015152 0.651614 0.511844
v 0.013000 0.627316 0.511844
v 0.015152 0.651614 0.518386
v 0.013000 0.627316 0.518386
v 0.013489 0.625336 0.511844
v 0.020487 0.652982 0.511844
v 0.013489 0.625336 0.518386
v 0.015843 0.611606 0.511844
v 0.020487 0.652982 0.518386
v 0.017607 0.640109 0.511844
v 0.015843 0.611606 0.518386
v 0.013302 0.623957 0.511844
v 0.017607 0.640109 0.518386
v 0.020977 0.653011 0.511844
v 0.018075 0.641852 0.511844
v 0.013302 0.623957 0.518386
v 0.012740 0.622758 0.511844
v 0.020631 0.614623 0.511844
v 0.018075 0.641852 0.518386
v 0.020977 0.653011 0.518386
v 0.021164 0.643875 0.511844
v 0.019479 0.643162 0.511844
v 0.012740 0.622758 0.518386
v 0.020631 0.614623 0.518386
v 0.010494 0.620901 0.511844
v 0.018126 0.638151 0.511844
v 0.019479 0.643162 0.518386
v 0.021164 0.643875 0.518386
v 0.021668 0.652320 0.518386
v 0.021668 0.652320 0.511844
v 0.018126 0.638151 0.518386
v 0.010494 0.620901 0.518386
v 0.010120 0.609929 0.511844
v 0.019681 0.635790 0.511844
v 0.022786 0.616815 0.511844
v 0.023108 0.644112 0.511844
v 0.010120 0.609929 0.518386
v 0.019681 0.635790 0.518386
v 0.009745 0.609900 0.511844
v 0.004965 0.619288 0.518386
v 0.023511 0.630951 0.511844
v 0.022786 0.616815 0.518386
v 0.023108 0.644112 0.518386
v 0.025152 0.644717 0.518386
v 0.025152 0.644717 0.511844
v 0.009745 0.609900 0.518386
v 0.023511 0.630951 0.518386
v 0.008680 0.610911 0.511844
v 0.004965 0.619288 0.511844
v 0.006808 0.613946 0.518386
v 0.024324 0.619216 0.511844
v 0.023943 0.644026 0.511844
v 0.023943 0.644026 0.518386
v 0.008680 0.610911 0.518386
v 0.006808 0.613946 0.511844
v 0.004533 0.618885 0.518386
v 0.025044 0.627791 0.518386
v 0.024324 0.619216 0.518386
v 0.025044 0.627791 0.511844
v 0.025239 0.644429 0.518386
v 0.024720 0.643940 0.511844
v 0.004533 0.618885 0.511844
v 0.025248 0.621826 0.511844
v 0.024720 0.643940 0.518386
v 0.025239 0.644429 0.511844
v 0.025556 0.624645 0.518386
v 0.025248 0.621826 0.518386
v 0.025556 0.624645 0.511844
vn 0 0 -1
vn 0 0 1
vn -0.9577163436037851 -0.2877141032243583 0
vn -0.9999382597899932 -0.011112002886965398 0
vn 0.9999382597899932 0.011112002886965398 0
vn 0.9577163436037851 0.2877141032243583 0
vn -0.9692045919290921 0.246256896316757 0
vn 0.9692045919290921 -0.246256896316757 0
vn -0.8752460139164115 0.48367800769048047 0
vn 0.8752460139164115 -0.48367800769048047 0
vn -0.7362866925013395 0.6766697173994399 0
vn 0.7362866925013395 -0.6766697173994399 0
vn -0.8406471998647361 -0.5415831287619458 0
vn 0.8406471998647361 0.5415831287619458 0
vn -0.5682919803390869 0.8228269715330673 0
vn 0.5682919803390869 -0.8228269715330673 0
vn -0.7982991574557431 -0.6022611187893926 0
vn 0.7982991574557431 0.6022611187893926 0
vn -0.3632410731738318 0.9316951876872196 0
vn 0.3632410731738318 -0.9316951876872196 0
vn -0.9147280553941033 -0.40407002446967333 0
vn 0.9147280553941033 0.40407002446967333 0
vn -0.15426102028370575 0.9880301299155964 0
vn 0.15426102028370575 -0.9880301299155964 0
vn -0.9985567383292395 -0.053706985926139886 0
vn 0.9985567383292395 0.053706985926139886 0
vn -0.058722021951470346 0.9982743731749959 0
vn 0.058722021951470346 -0.9982743731749959 0
vn -0.959231683710191 0.2826209068107173 0
vn 0.959231683710191 -0.2826209068107173 0
vn 0.965769723934281 -0.2594009258501263 0
vn 0.9999983528849808 -0.0018150006404875215 0
vn -0.9999983528849808 0.0018150006404875215 0
vn -0.965769723934281 0.2594009258501263 0
vn -0.7906178584699286 0.6123098903891917 0
vn 0.7906178584699286 -0.6123098903891917 0
vn 0.6273668679816354 -0.7787238361312137 0
vn 0.41110786716428627 -0.9115867054513419 0
vn -0.6273668679816354 0.7787238361312137 0
vn -0.41110786716428627 0.9115867054513419 0
vn 0.8210320808930108 0.5708820562467284 0
vn 0.7071067811865475 0.7071067811865476 0
vn -0.7071067811865475 -0.7071067811865476 0
vn -0.8210320808930108 -0.5708820562467284 0
vn 0.5443258959923949 -0.8388738397113575 0
vn 0.682318250360011 -0.7310552682428691 0
vn -0.5443258959923949 0.8388738397113575 0
vn -0.682318250360011 0.7310552682428691 0
vn 0.9128598986136773 0.408272954655371 0
vn -0.9128598986136773 -0.408272954655371 0
vn -0.46830297414194944 0.8835679512124716 0
vn 0.46830297414194944 -0.8835679512124716 0
vn 0.7817446256124259 -0.6235987013505467 0
vn -0.7817446256124259 0.6235987013505467 0
vn 0.25797888142751574 -0.9661505559370174 0
vn -0.25797888142751574 0.9661505559370174 0
vn 0.1799489896010181 -0.9836759431548443 0
vn -0.1799489896010181 0.9836759431548443 0
vn -0.49458899479445084 0.8691269908524385 0
vn 0.49458899479445084 -0.8691269908524385 0
vn 0.8103798324843762 0.5859048788861504 0
vn -0.8103798324843762 -0.5859048788861504 0
vn 0.9356818132617886 0.35284492958115665 0
vn -0.9356818132617886 -0.35284492958115665 0
vn 0.00926900038832478 -0.9999570418932012 0
vn -0.00926900038832478 0.9999570418932012 0
vn 0.07669604006095986 -0.9970545207956121 0
vn -0.07669604006095986 0.9970545207956121 0
vn 0.8468907848177822 0.5317668648860334 0
vn -0.8468907848177822 -0.5317668648860334 0
vn 0.8982562334029299 -0.43947211419244897 0
vn -0.8982562334029299 0.43947211419244897 0
vn -0.10666599026240883 -0.9942949092303247 0
vn 0.10666599026240883 0.9942949092303247 0
vn -0.6884919677785766 -0.7252439660585833 0
vn -0.7762810152422778 -0.6303870123776492 0
vn 0.6884919677785766 0.7252439660585833 0
vn 0.7762810152422778 0.6303870123776492 0
vn 0.9534260073389967 0.3016270023217739 0
vn -0.9534260073389967 -0.3016270023217739 0
vn 0.957826230175249 0.28734806905262283 0
vn -0.957826230175249 -0.28734806905262283 0
vn -0.8812996680303409 -0.472557821996008 0
vn 0.8812996680303409 0.472557821996008 0
vn -0.9082692627818635 -0.4183861210481177 0
vn 0.9082692627818635 0.4183861210481177 0
vn 0.9749262845517761 -0.22252806494927585 0
vn -0.9749262845517761 0.22252806494927585 0
vn -0.11043196509908726 -0.9938836858930497 0
vn 0.11043196509908726 0.9938836858930497 0
vn 0.9996581086763378 0.026147002842532352 0
vn -0.9996581086763378 -0.026147002842532352 0
vn 0.6866238559652121 -0.7270128474927134 0
vn -0.6866238559652121 0.7270128474927134 0
usemtl material_0_0
f 1//1 2//1 3//1
f 2//1 1//1 4//1
f 3//2 2//2 1//2
f 4//2 1//2 2//2
f 2//3 5//4 3//4
f 3//5 5//5 2//6
f 3//4 6//7 1//7
f 1//8 6//8 3//5
f 1//7 7//9 4//9
f 4//10 7//10 1//8
f 2//1 4//1 8//1
f 8//2 4//2 2//2
f 5//4 2//3 9//3
f 9//6 2//6 5//5
f 6//7 3//4 5//4
f 5//5 3//5 6//8
f 7//9 1//7 6//7
f 6//8 1//8 7//10
f 10//11 4//9 7//9
f 7//10 4//10 10//12
f 8//1 4//1 11//1
f 11//2 4//2 8//2
f 8//13 9//3 2//3
f 2//6 9//6 8//14
f 9//2 6//2 5//2
f 5//1 6//1 9//1
f 6//2 9//2 7//2
f 7//1 9//1 6//1
f 4//9 10//11 11//11
f 11//12 10//12 4//10
f 7//2 12//2 10//2
f 10//1 12//1 7//1
f 8//1 11//1 13//1
f 13//2 11//2 8//2
f 9//3 8//13 12//13
f 12//14 8//14 9//6
f 7//2 9//2 12//2
f 12//1 9//1 7//1
f 10//11 14//15 11//11
f 11//12 14//16 10//12
f 10//2 12//2 15//2
f 15//1 12//1 10//1
f 13//1 11//1 14//1
f 14//2 11//2 13//2
f 13//17 12//13 8//13
f 8//14 12//14 13//18
f 14//15 10//11 16//15
f 16//16 10//12 14//16
f 12//13 13//17 15//17
f 15//18 13//18 12//14
f 10//2 15//2 16//2
f 16//1 15//1 10//1
f 13//1 14//1 17//1
f 17//2 14//2 13//2
f 16//15 17//19 14//15
f 14//16 17//20 16//16
f 18//21 15//17 13//17
f 13//18 15//18 18//22
f 16//2 15//2 19//2
f 19//1 15//1 16//1
f 13//1 17//1 18//1
f 18//2 17//2 13//2
f 17//19 16//15 19//19
f 19//20 16//16 17//20
f 15//17 18//21 20//21
f 20//22 18//22 15//18
f 19//2 15//2 20//2
f 20//1 15//1 19//1
f 18//1 17//1 21//1
f 21//2 17//2 18//2
f 19//19 22//23 17//19
f 17//20 22//24 19//20
f 21//25 20//21 18//21
f 18//22 20//22 21//26
f 19//2 20//2 23//2
f 23//1 20//1 19//1
f 24//1 21//1 17//1
f 17//2 21//2 24//2
f 22//23 19//19 25//23
f 25//24 19//20 22//24
f 26//1 17//1 22//1
f 22//2 17//2 26//2
f 20//21 21//25 23//25
f 23//26 21//26 20//22
f 23//2 27//2 19//2
f 19//1 27//1 23//1
f 24//1 28//1 21//1
f 21//2 28//2 24//2
f 24//1 17//1 26//1
f 26//2 17//2 24//2
f 19//2 29//2 25//2
f 25//1 29//1 19//1
f 25//23 30//27 22//23
f 22//24 30//28 25//24
f 26//1 22//1 31//1
f 31//2 22//2 26//2
f 28//29 23//25 21//25
f 21//26 23//26 28//30
f 32//2 27//2 23//2
f 23//1 27//1 32//1
f 19//2 27//2 29//2
f 29//1 27//1 19//1
f 24//1 33//1 28//1
f 28//2 33//2 24//2
f 26//1 34//1 24//1
f 24//2 34//2 26//2
f 25//2 29//2 35//2
f 35//1 29//1 25//1
f 30//27 25//23 36//27
f 36//28 25//24 30//28
f 37//1 22//1 30//1
f 30//2 22//2 37//2
f 31//1 22//1 38//1
f 38//2 22//2 31//2
f 31//31 29//32 26//32
f 26//33 29//33 31//34
f 23//25 28//29 32//29
f 32//30 28//30 23//26
f 39//2 27//2 32//2
f 32//1 27//1 39//1
f 40//2 29//2 27//2
f 27//1 29//1 40//1
f 24//1 41//1 33//1
f 33//2 41//2 24//2
f 33//35 32//29 28//29
f 28//30 32//30 33//36
f 34//1 26//1 42//1
f 42//2 26//2 34//2
f 40//37 24//38 34//37
f 34//39 24//40 40//39
f 29//32 31//31 35//31
f 35//34 31//34 29//33
f 25//2 35//2 43//2
f 43//1 35//1 25//1
f 25//2 44//2 36//2
f 36//1 44//1 25//1
f 45//41 30//42 36//42
f 36//43 30//43 45//44
f 38//1 22//1 37//1
f 37//2 22//2 38//2
f 37//1 30//1 46//1
f 46//2 30//2 37//2
f 43//45 31//46 38//45
f 38//47 31//48 43//47
f 47//49 26//32 29//32
f 29//33 26//33 47//50
f 48//2 27//2 39//2
f 39//1 27//1 48//1
f 32//29 33//35 39//35
f 39//36 33//36 32//30
f 29//2 40//2 47//2
f 47//1 40//1 29//1
f 24//38 40//37 27//38
f 27//40 40//39 24//40
f 49//1 41//1 24//1
f 24//2 41//2 49//2
f 48//51 33//35 41//51
f 41//52 33//36 48//52
f 26//32 47//49 42//49
f 42//50 47//50 26//33
f 34//1 42//1 50//1
f 50//2 42//2 34//2
f 51//53 40//37 34//37
f 34//39 40//39 51//54
f 31//46 43//45 35//46
f 35//48 43//47 31//48
f 25//2 43//2 44//2
f 44//1 43//1 25//1
f 36//2 44//2 45//2
f 45//1 44//1 36//1
f 30//42 45//41 46//41
f 46//44 45//44 30//43
f 44//55 38//45 37//55
f 37//56 38//47 44//56
f 37//1 46//1 52//1
f 52//2 46//2 37//2
f 38//45 44//55 43//45
f 43//47 44//56 38//47
f 48//2 53//2 27//2
f 27//1 53//1 48//1
f 33//35 48//51 39//35
f 39//36 48//52 33//36
f 47//2 40//2 54//2
f 54//1 40//1 47//1
f 27//38 49//57 24//38
f 24//40 49//58 27//40
f 55//1 41//1 49//1
f 49//2 41//2 55//2
f 41//51 56//59 48//51
f 48//52 56//60 41//52
f 54//61 42//49 47//49
f 47//50 42//50 54//62
f 42//49 54//61 50//61
f 50//62 54//62 42//50
f 34//1 50//1 57//1
f 57//2 50//2 34//2
f 40//37 51//53 58//53
f 58//54 51//54 40//39
f 34//1 57//1 51//1
f 51//2 57//2 34//2
f 45//2 44//2 59//2
f 59//1 44//1 45//1
f 60//63 46//41 45//41
f 45//44 46//44 60//64
f 37//55 59//65 44//55
f 44//56 59//66 37//56
f 52//1 46//1 61//1
f 61//2 46//2 52//2
f 59//65 37//55 52//65
f 52//66 37//56 59//66
f 48//2 62//2 53//2
f 53//1 62//1 48//1
f 49//57 27//38 53//57
f 53//58 27//40 49//58
f 54//2 40//2 63//2
f 63//1 40//1 54//1
f 64//1 41//1 55//1
f 55//2 41//2 64//2
f 53//57 55//67 49//57
f 49//58 55//68 53//58
f 56//59 41//51 65//59
f 65//60 41//52 56//60
f 56//2 66//2 48//2
f 48//1 66//1 56//1
f 63//69 50//61 54//61
f 54//62 50//62 63//70
f 50//61 63//69 57//69
f 57//70 63//70 50//62
f 67//71 58//53 51//53
f 51//54 58//54 67//72
f 63//2 40//2 58//2
f 58//1 40//1 63//1
f 51//1 57//1 67//1
f 67//2 57//2 51//2
f 45//2 59//2 60//2
f 60//1 59//1 45//1
f 46//41 60//63 61//63
f 61//64 60//64 46//44
f 52//1 61//1 68//1
f 68//2 61//2 52//2
f 52//65 69//73 59//65
f 59//66 69//74 52//66
f 48//2 70//2 62//2
f 62//1 70//1 48//1
f 55//67 53//57 62//67
f 62//68 53//58 55//68
f 71//1 41//1 64//1
f 64//2 41//2 71//2
f 62//75 64//76 55//75
f 55//77 64//78 62//77
f 71//1 65//1 41//1
f 41//2 65//2 71//2
f 65//59 72//48 56//59
f 56//60 72//46 65//60
f 66//2 56//2 72//2
f 72//1 56//1 66//1
f 48//2 66//2 70//2
f 70//1 66//1 48//1
f 73//79 57//69 63//69
f 63//70 57//70 73//80
f 58//53 67//71 74//71
f 74//72 67//72 58//54
f 63//2 58//2 74//2
f 74//1 58//1 63//1
f 67//1 57//1 75//1
f 75//2 57//2 67//2
f 60//2 59//2 69//2
f 69//1 59//1 60//1
f 76//81 61//63 60//63
f 60//64 61//64 76//82
f 68//1 61//1 77//1
f 77//2 61//2 68//2
f 69//73 52//65 68//73
f 68//74 52//66 69//74
f 64//76 62//75 70//76
f 70//78 62//77 64//78
f 64//76 66//83 71//83
f 71//84 66//84 64//78
f 65//1 71//1 78//1
f 78//2 71//2 65//2
f 72//48 65//59 78//48
f 78//46 65//60 72//46
f 72//85 71//83 66//83
f 66//84 71//84 72//86
f 66//83 64//76 70//76
f 70//78 64//78 66//84
f 57//69 73//79 75//79
f 75//80 73//80 57//70
f 63//2 74//2 73//2
f 73//1 74//1 63//1
f 79//87 74//71 67//71
f 67//72 74//72 79//88
f 67//1 75//1 79//1
f 79//2 75//2 67//2
f 60//2 69//2 80//2
f 80//1 69//1 60//1
f 61//63 76//81 81//81
f 81//82 76//82 61//64
f 60//2 80//2 76//2
f 76//1 80//1 60//1
f 77//1 61//1 81//1
f 81//2 61//2 77//2
f 80//89 68//73 77//89
f 77//90 68//74 80//90
f 68//73 80//89 69//73
f 69//74 80//90 68//74
f 71//83 72//85 78//85
f 78//86 72//86 71//84
f 82//91 75//79 73//79
f 73//80 75//80 82//92
f 73//2 74//2 83//2
f 83//1 74//1 73//1
f 74//71 79//87 83//87
f 83//88 79//88 74//72
f 79//1 75//1 84//1
f 84//2 75//2 79//2
f 76//93 77//93 81//93
f 81//94 77//94 76//94
f 77//93 76//93 80//93
f 80//94 76//94 77//94
f 75//79 82//91 84//91
f 84//92 82//92 75//80
f 73//2 83//2 82//2
f 82//1 83//1 73//1
f 84//91 83//87 79//87
f 79//88 83//88 84//92
f 83//87 84//91 82//91
f 82//92 84//92 83//88
