# SSTK version 0.8.0
# 12
mtllib original-12.mtl
o mesh13/mesh13-geometry#mesh13-geometry
v -0.012113 0.638525 0.511844
v -0.012487 0.633803 0.511844
v -0.012516 0.639044 0.511844
v -0.012285 0.636164 0.511844
v -0.012710 0.628496 0.511844
v -0.012113 0.638525 0.518386
v -0.012285 0.636164 0.518386
v -0.012487 0.633803 0.518386
v -0.013639 0.628216 0.511844
v -0.012458 0.631585 0.511844
v -0.012516 0.639044 0.518386
v -0.012458 0.631585 0.518386
v -0.013725 0.639217 0.511844
v -0.012710 0.628496 0.518386
v -0.012401 0.629339 0.511844
v -0.013725 0.639217 0.518386
v -0.015237 0.628288 0.511844
v -0.013639 0.628216 0.518386
v -0.012401 0.629339 0.518386
v -0.016339 0.638839 0.511844
v -0.016339 0.638839 0.518386
v -0.015237 0.628288 0.518386
v -0.016807 0.628360 0.511844
v -0.018815 0.628172 0.511844
v -0.019053 0.637705 0.518386
v -0.016807 0.628360 0.518386
v -0.019053 0.637705 0.511844
v -0.018815 0.628172 0.518386
v -0.020061 0.627611 0.511844
v -0.021414 0.636193 0.518386
v -0.020061 0.627611 0.518386
v -0.020709 0.626481 0.511844
v -0.021414 0.636193 0.511844
v -0.020709 0.626481 0.518386
v -0.021933 0.638007 0.511844
v -0.020925 0.624587 0.518386
v -0.020925 0.624587 0.511844
v -0.021933 0.638007 0.518386
v -0.021558 0.611340 0.511844
v -0.020846 0.611577 0.518386
v -0.020846 0.611577 0.511844
v -0.022170 0.639368 0.511844
v -0.021558 0.611340 0.518386
v -0.020882 0.620829 0.518386
v -0.020882 0.620829 0.511844
v -0.022170 0.639368 0.518386
v -0.022595 0.639821 0.511844
v -0.020838 0.617071 0.518386
v -0.020838 0.617071 0.511844
v -0.022595 0.639821 0.518386
v -0.025792 0.611225 0.511844
v -0.020608 0.612117 0.511844
v -0.020723 0.614580 0.518386
v -0.020723 0.614580 0.511844
v -0.025792 0.611225 0.518386
v -0.027289 0.638929 0.511844
v -0.020608 0.612117 0.518386
v -0.027289 0.638929 0.518386
v -0.030169 0.611397 0.511844
v -0.030169 0.611397 0.518386
v -0.030882 0.611693 0.511844
v -0.031926 0.638295 0.518386
v -0.030882 0.611693 0.518386
v -0.031062 0.626142 0.511844
v -0.031926 0.638295 0.511844
v -0.031371 0.632312 0.518386
v -0.031062 0.626142 0.518386
v -0.031371 0.632312 0.511844
v -0.031091 0.619245 0.511844
v -0.032358 0.637719 0.511844
v -0.032300 0.637287 0.518386
v -0.031091 0.619245 0.518386
v -0.031119 0.612348 0.518386
v -0.031119 0.612348 0.511844
v -0.032300 0.637287 0.511844
v -0.032358 0.637719 0.518386
vn 0 0 -1
vn 0 0 1
vn 0.7893519481454987 0.6139409596686848 0
vn -0.7893519481454987 -0.6139409596686848 0
vn 0.9973336987394444 -0.07297597795644158 0
vn 0.9968731881832584 -0.07901801491650864 0
vn -0.9968731881832584 0.07901801491650864 0
vn -0.9973336987394444 0.07297597795644158 0
vn 0.9993489410174278 -0.03607899787058153 0
vn -0.9993489410174278 0.03607899787058153 0
vn 0.9998135447370057 0.01930999120723613 0
vn -0.9998135447370057 -0.01930999120723613 0
vn 0.2893900765985247 -0.9572112533638015 0
vn 0.12396704196997888 -0.992286335946038 0
vn -0.2893900765985247 0.9572112533638015 0
vn -0.12396704196997888 0.992286335946038 0
vn 0.1414210762371529 0.9899495336611486 0
vn -0.0008679996730141686 0.9999996232882129 0
vn -0.1414210762371529 -0.9899495336611486 0
vn 0.0008679996730141686 -0.9999996232882129 0
vn 0.9866991505456342 -0.16255702480213996 0
vn 0.9386166930099734 -0.3449618871745414 0
vn -0.9386166930099734 0.3449618871745414 0
vn -0.9866991505456342 0.16255702480213996 0
vn -0.04541101762072705 -0.9989683876272812 0
vn 0.04541101762072705 0.9989683876272812 0
vn -0.2664249108327925 0.963855677416354 0
vn 0.2664249108327925 -0.963855677416354 0
vn 0.023538998102168345 -0.9997229193973427 0
vn -0.023538998102168345 0.9997229193973427 0
vn -0.4640920014310276 0.8857870027313243 0
vn 0.4640920014310276 -0.8857870027313243 0
vn 0.2553869780763057 -0.9668389170017168 0
vn -0.2553869780763057 0.9668389170017168 0
vn -0.5391991765109232 0.8421782756934201 0
vn 0.5391991765109232 -0.8421782756934201 0
vn 0.41102215924871677 -0.9116253532052092 0
vn -0.41102215924871677 0.9116253532052092 0
vn 0.8675620181819311 -0.49732901042277283 0
vn 0.9501602041685462 -0.31176206699081666 0
vn -0.9501602041685462 0.31176206699081666 0
vn -0.8675620181819311 0.49732901042277283 0
vn 0.97466450009032 0.22367188527771295 0
vn 0.9615239853766625 0.27472099582190573 0
vn -0.9615239853766625 -0.27472099582190573 0
vn -0.97466450009032 -0.22367188527771295 0
vn 0.9986976326770809 -0.051019981234752335 0
vn -0.9986976326770809 0.051019981234752335 0
vn 0.9850967815991423 0.172000961866531 0
vn -0.9850967815991423 -0.172000961866531 0
vn 0.9999339533005857 0.011492999463248206 0
vn -0.9999339533005857 -0.011492999463248206 0
vn 0.31622806601688475 -0.9486831980504455 0
vn 0.17359308218436592 -0.9848174662432283 0
vn -0.31622806601688475 0.9486831980504455 0
vn -0.17359308218436592 0.9848174662432283 0
vn 0.7298980381225754 0.6835560357021327 0
vn -0.7298980381225754 -0.6835560357021327 0
vn 0.9831419407656997 -0.18284398898365 0
vn 0.9153148849696396 -0.4027389493865912 0
vn -0.9153148849696396 0.4027389493865912 0
vn -0.9831419407656997 0.18284398898365 0
vn -0.00612400151955787 -0.9999812481268779 0
vn 0.00612400151955787 0.9999812481268779 0
vn 0.9995838099991275 0.028847994516573727 0
vn -0.9995838099991275 -0.028847994516573727 0
vn 0.9989200116029554 0.046463000539690984 0
vn -0.9989200116029554 -0.046463000539690984 0
vn -0.18683505660112842 0.9823912976125415 0
vn -0.16116604972900106 0.9869273045238688 0
vn 0.18683505660112842 -0.9823912976125415 0
vn 0.16116604972900106 -0.9869273045238688 0
vn -0.21436894735420853 -0.9767527601242029 0
vn 0.21436894735420853 0.9767527601242029 0
vn -0.13538795400919368 0.9907926634312572 0
vn 0.13538795400919368 -0.9907926634312572 0
vn -0.3826269666085287 -0.9239029193719197 0
vn 0.3826269666085287 0.9239029193719197 0
vn -0.7999999999999999 0.6000000000000001 0
vn 0.7999999999999999 -0.6000000000000001 0
vn -0.9852689475319668 -0.17101199089318425 0
vn -0.9400948671674249 -0.34091295183002607 0
vn 0.9400948671674249 0.34091295183002607 0
vn 0.9852689475319668 0.17101199089318425 0
vn -0.9997359938891137 -0.02297699985955309 0
vn -0.993122726288959 -0.11707796773255556 0
vn 0.993122726288959 0.11707796773255556 0
vn 0.9997359938891137 0.02297699985955309 0
vn -0.9999912846445598 0.004175001188401733 0
vn 0.9999912846445598 -0.004175001188401733 0
vn -0.9874562214938613 -0.15789303541659605 0
vn 0.9874562214938613 0.15789303541659605 0
vn -0.9912278657481068 -0.1321639820997115 0
vn 0.9912278657481068 0.1321639820997115 0
usemtl material_0_0
f 1//1 2//1 3//1
f 2//1 1//1 4//1
f 3//2 2//2 1//2
f 4//2 1//2 2//2
f 5//1 3//1 2//1
f 2//2 3//2 5//2
f 3//3 6//3 1//3
f 1//4 6//4 3//4
f 1//5 7//6 4//6
f 4//7 7//7 1//8
f 4//6 8//9 2//9
f 2//10 8//10 4//7
f 9//1 3//1 5//1
f 5//2 3//2 9//2
f 5//1 2//1 10//1
f 10//2 2//2 5//2
f 6//3 3//3 11//3
f 11//4 3//4 6//4
f 7//6 1//5 6//5
f 6//8 1//8 7//7
f 8//9 4//6 7//6
f 7//7 4//7 8//10
f 12//11 2//9 8//9
f 8//10 2//10 12//12
f 9//1 13//1 3//1
f 3//2 13//2 9//2
f 14//13 9//14 5//13
f 5//15 9//16 14//15
f 2//9 12//11 10//11
f 10//12 12//12 2//10
f 5//1 10//1 15//1
f 15//2 10//2 5//2
f 3//17 16//18 11//17
f 11//19 16//20 3//19
f 8//2 6//2 11//2
f 11//1 6//1 8//1
f 6//2 8//2 7//2
f 7//1 8//1 6//1
f 8//2 14//2 12//2
f 12//1 14//1 8//1
f 17//1 13//1 9//1
f 9//2 13//2 17//2
f 16//18 3//17 13//18
f 13//20 3//19 16//20
f 9//14 14//13 18//14
f 18//16 14//15 9//16
f 15//21 14//22 5//22
f 5//23 14//23 15//24
f 19//21 10//11 12//11
f 12//12 10//12 19//24
f 10//11 19//21 15//21
f 15//24 19//24 10//12
f 16//2 18//2 11//2
f 11//1 18//1 16//1
f 11//2 14//2 8//2
f 8//1 14//1 11//1
f 12//2 14//2 19//2
f 19//1 14//1 12//1
f 17//1 20//1 13//1
f 13//2 20//2 17//2
f 18//14 17//25 9//14
f 9//16 17//26 18//16
f 13//18 21//27 16//18
f 16//20 21//28 13//20
f 11//2 18//2 14//2
f 14//1 18//1 11//1
f 14//22 15//21 19//21
f 19//24 15//24 14//23
f 16//2 22//2 18//2
f 18//1 22//1 16//1
f 23//1 20//1 17//1
f 17//2 20//2 23//2
f 21//27 13//18 20//27
f 20//28 13//20 21//28
f 17//25 18//14 22//25
f 22//26 18//16 17//26
f 21//2 22//2 16//2
f 16//1 22//1 21//1
f 24//1 20//1 23//1
f 23//2 20//2 24//2
f 22//25 23//29 17//25
f 17//26 23//30 22//26
f 20//27 25//31 21//27
f 21//28 25//32 20//28
f 21//2 26//2 22//2
f 22//1 26//1 21//1
f 24//1 27//1 20//1
f 20//2 27//2 24//2
f 26//29 24//33 23//29
f 23//30 24//34 26//30
f 23//29 22//25 26//29
f 26//30 22//26 23//30
f 25//31 20//27 27//31
f 27//32 20//28 25//32
f 25//2 28//2 21//2
f 21//1 28//1 25//1
f 21//2 28//2 26//2
f 26//1 28//1 21//1
f 29//1 27//1 24//1
f 24//2 27//2 29//2
f 24//33 26//29 28//33
f 28//34 26//30 24//34
f 27//31 30//35 25//31
f 25//32 30//36 27//32
f 25//2 31//2 28//2
f 28//1 31//1 25//1
f 32//1 27//1 29//1
f 29//2 27//2 32//2
f 28//33 29//37 24//33
f 24//34 29//38 28//34
f 30//35 27//31 33//35
f 33//36 27//32 30//36
f 30//2 34//2 25//2
f 25//1 34//1 30//1
f 25//2 34//2 31//2
f 31//1 34//1 25//1
f 29//37 28//33 31//37
f 31//38 28//34 29//38
f 32//1 33//1 27//1
f 27//2 33//2 32//2
f 29//39 34//40 32//40
f 32//41 34//41 29//42
f 35//43 30//44 33//44
f 33//45 30//45 35//46
f 34//2 30//2 36//2
f 36//1 30//1 34//1
f 34//40 29//39 31//39
f 31//42 29//42 34//41
f 33//1 32//1 37//1
f 37//2 32//2 33//2
f 36//47 32//40 34//40
f 34//41 32//41 36//48
f 30//44 35//43 38//43
f 38//46 35//46 30//45
f 39//1 35//1 33//1
f 33//2 35//2 39//2
f 30//2 40//2 36//2
f 36//1 40//1 30//1
f 32//40 36//47 37//47
f 37//48 36//48 32//41
f 41//1 33//1 37//1
f 37//2 33//2 41//2
f 42//49 38//43 35//43
f 35//46 38//46 42//50
f 38//2 43//2 30//2
f 30//1 43//1 38//1
f 39//1 42//1 35//1
f 35//2 42//2 39//2
f 39//1 33//1 41//1
f 41//2 33//2 39//2
f 30//2 43//2 40//2
f 40//1 43//1 30//1
f 36//2 40//2 44//2
f 44//1 40//1 36//1
f 44//51 37//47 36//47
f 36//48 37//48 44//52
f 41//1 37//1 45//1
f 45//2 37//2 41//2
f 38//43 42//49 46//49
f 46//50 42//50 38//46
f 46//2 43//2 38//2
f 38//1 43//1 46//1
f 39//1 47//1 42//1
f 42//2 47//2 39//2
f 40//53 39//54 41//53
f 41//55 39//56 40//55
f 39//54 40//53 43//54
f 43//56 40//55 39//56
f 44//2 40//2 48//2
f 48//1 40//1 44//1
f 37//47 44//51 45//51
f 45//52 44//52 37//48
f 41//1 45//1 49//1
f 49//2 45//2 41//2
f 47//57 46//57 42//57
f 42//58 46//58 47//58
f 50//2 43//2 46//2
f 46//1 43//1 50//1
f 51//1 47//1 39//1
f 39//2 47//2 51//2
f 52//59 40//60 41//60
f 41//61 40//61 52//62
f 43//54 51//63 39//54
f 39//56 51//64 43//56
f 48//2 40//2 53//2
f 53//1 40//1 48//1
f 48//65 45//51 44//51
f 44//52 45//52 48//66
f 45//51 48//65 49//65
f 49//66 48//66 45//52
f 41//1 49//1 54//1
f 54//2 49//2 41//2
f 46//57 47//57 50//57
f 50//58 47//58 46//58
f 50//2 55//2 43//2
f 43//1 55//1 50//1
f 51//1 56//1 47//1
f 47//2 56//2 51//2
f 40//60 52//59 57//59
f 57//62 52//62 40//61
f 41//1 54//1 52//1
f 52//2 54//2 41//2
f 51//63 43//54 55//63
f 55//64 43//56 51//64
f 53//2 40//2 57//2
f 57//1 40//1 53//1
f 53//67 49//65 48//65
f 48//66 49//66 53//68
f 49//65 53//67 54//67
f 54//68 53//68 49//66
f 47//69 58//70 50//69
f 50//71 58//72 47//71
f 58//2 55//2 50//2
f 50//1 55//1 58//1
f 59//1 56//1 51//1
f 51//2 56//2 59//2
f 58//70 47//69 56//70
f 56//72 47//71 58//72
f 54//67 57//59 52//59
f 52//62 57//62 54//68
f 55//63 59//73 51//63
f 51//64 59//74 55//64
f 57//59 54//67 53//67
f 53//68 54//68 57//62
f 58//2 60//2 55//2
f 55//1 60//1 58//1
f 61//1 56//1 59//1
f 59//2 56//2 61//2
f 56//70 62//75 58//70
f 58//72 62//76 56//72
f 59//73 55//63 60//73
f 60//74 55//64 59//74
f 58//2 63//2 60//2
f 60//1 63//1 58//1
f 64//1 56//1 61//1
f 61//2 56//2 64//2
f 60//73 61//77 59//73
f 59//74 61//78 60//74
f 62//75 56//70 65//75
f 65//76 56//72 62//76
f 62//2 66//2 58//2
f 58//1 66//1 62//1
f 58//2 67//2 63//2
f 63//1 67//1 58//1
f 61//77 60//73 63//77
f 63//78 60//74 61//78
f 68//1 56//1 64//1
f 64//2 56//2 68//2
f 61//1 69//1 64//1
f 64//2 69//2 61//2
f 68//1 65//1 56//1
f 56//2 65//2 68//2
f 70//79 62//79 65//79
f 65//80 62//80 70//80
f 62//2 71//2 66//2
f 66//1 71//1 62//1
f 58//2 66//2 67//2
f 67//1 66//1 58//1
f 72//2 63//2 67//2
f 67//1 63//1 72//1
f 73//81 61//82 63//82
f 63//83 61//83 73//84
f 64//85 66//86 68//86
f 68//87 66//87 64//88
f 69//1 61//1 74//1
f 74//2 61//2 69//2
f 69//89 67//85 64//85
f 64//88 67//88 69//90
f 75//1 65//1 68//1
f 68//2 65//2 75//2
f 62//79 70//79 76//79
f 76//80 70//80 62//80
f 65//1 75//1 70//1
f 70//2 75//2 65//2
f 71//2 62//2 76//2
f 76//1 62//1 71//1
f 71//91 68//86 66//86
f 66//87 68//87 71//92
f 66//86 64//85 67//85
f 67//88 64//88 66//87
f 63//2 72//2 73//2
f 73//1 72//1 63//1
f 67//85 69//89 72//89
f 72//90 69//90 67//88
f 61//82 73//81 74//81
f 74//84 73//84 61//83
f 74//81 72//89 69//89
f 69//90 72//90 74//84
f 68//86 71//91 75//91
f 75//92 71//92 68//87
f 75//91 76//93 70//93
f 70//94 76//94 75//92
f 76//93 75//91 71//91
f 71//92 75//92 76//94
f 72//89 74//81 73//81
f 73//84 74//84 72//90
