# SSTK version 0.8.0
# 9
mtllib original-9.mtl
o mesh10/mesh10-geometry#mesh10-geometry
v -0.120041 0.638569 0.511844
v -0.120481 0.629454 0.511844
v -0.120711 0.638756 0.511844
v -0.119876 0.637402 0.511844
v -0.121344 0.611109 0.511844
v -0.120711 0.638756 0.518386
v -0.119818 0.638007 0.511844
v -0.120481 0.629454 0.518386
v -0.124743 0.638785 0.511844
v -0.120164 0.622600 0.511844
v -0.120041 0.638569 0.518386
v -0.124743 0.638785 0.518386
v -0.119818 0.638007 0.518386
v -0.119876 0.637402 0.518386
v -0.120164 0.622600 0.518386
v -0.124771 0.611540 0.511844
v -0.118486 0.611599 0.511844
v -0.121344 0.611109 0.518386
v -0.127421 0.612830 0.511844
v -0.128774 0.638813 0.518386
v -0.119734 0.621214 0.518386
v -0.119734 0.621214 0.511844
v -0.118486 0.611599 0.518386
v -0.124771 0.611540 0.518386
v -0.128774 0.638813 0.511844
v -0.127421 0.612830 0.518386
v -0.118961 0.620224 0.511844
v -0.115326 0.613068 0.518386
v -0.129293 0.614981 0.511844
v -0.129502 0.638518 0.518386
v -0.129293 0.614981 0.518386
v -0.118961 0.620224 0.518386
v -0.117847 0.619630 0.511844
v -0.115326 0.613068 0.511844
v -0.117847 0.619630 0.518386
v -0.129502 0.638518 0.511844
v -0.112417 0.615026 0.518386
v -0.116391 0.619432 0.518386
v -0.129955 0.637633 0.511844
v -0.130387 0.617992 0.518386
v -0.129955 0.637633 0.518386
v -0.116391 0.619432 0.511844
v -0.112417 0.615026 0.511844
v -0.115070 0.619713 0.518386
v -0.130387 0.617992 0.511844
v -0.115070 0.619713 0.511844
v -0.112014 0.613701 0.511844
v -0.113641 0.620555 0.518386
v -0.130754 0.633140 0.511844
v -0.130862 0.621909 0.518386
v -0.130754 0.633140 0.518386
v -0.113641 0.620555 0.511844
v -0.112014 0.613701 0.518386
v -0.112100 0.622888 0.511844
v -0.112514 0.621700 0.518386
v -0.130862 0.621909 0.511844
v -0.112514 0.621700 0.511844
v -0.111841 0.611973 0.511844
v -0.112100 0.622888 0.518386
v -0.112043 0.637345 0.511844
v -0.131021 0.627265 0.511844
v -0.131021 0.627265 0.518386
v -0.111841 0.611973 0.518386
v -0.111899 0.638468 0.511844
v -0.112043 0.637345 0.518386
v -0.111150 0.611282 0.511844
v -0.111899 0.638468 0.518386
v -0.110862 0.638756 0.511844
v -0.111150 0.611282 0.518386
v -0.110862 0.638756 0.518386
v -0.106773 0.611109 0.518386
v -0.106773 0.611109 0.511844
v -0.106614 0.638727 0.511844
v -0.102136 0.611397 0.518386
v -0.106614 0.638727 0.518386
v -0.102136 0.611397 0.511844
v -0.102366 0.638698 0.511844
v -0.101596 0.611743 0.518386
v -0.102366 0.638698 0.518386
v -0.101358 0.638266 0.511844
v -0.101596 0.611743 0.511844
v -0.101704 0.624789 0.518386
v -0.101358 0.638266 0.518386
v -0.101704 0.624789 0.511844
v -0.101416 0.612377 0.511844
v -0.101560 0.618568 0.518386
v -0.101502 0.631182 0.511844
v -0.101560 0.618568 0.511844
v -0.101416 0.612377 0.518386
v -0.101502 0.631182 0.518386
v -0.101301 0.637575 0.518386
v -0.101301 0.637575 0.511844
vn 0 0 -1
vn 0 0 1
vn 0.13942102721986688 0.9902331933281963 0
vn 0.2692461131430293 0.9630714047033955 0
vn -0.13942102721986688 -0.9902331933281963 0
vn -0.2692461131430293 -0.9630714047033955 0
vn 0.9963517185964383 -0.0853419758965278 0
vn 0.999889331238393 -0.014877004928380625 0
vn -0.999889331238393 0.014877004928380625 0
vn -0.9963517185964383 0.0853419758965278 0
vn 0.007143003488911617 0.9999744884251585 0
vn -0.007143003488911617 -0.9999744884251585 0
vn 0.9292959365699787 0.3693359747906046 0
vn 0.9899813684884586 0.14119805255639592 0
vn -0.9899813684884586 -0.14119805255639592 0
vn -0.9292959365699787 -0.3693359747906046 0
vn 0.9849739473605311 0.17270299077032067 0
vn -0.9849739473605311 -0.17270299077032067 0
vn 0.0223809891266355 -0.9997495142913116 0
vn -0.2850611030778284 -0.9585093465960839 0
vn -0.0223809891266355 0.9997495142913116 0
vn 0.2850611030778284 0.9585093465960839 0
vn -0.18810999379199403 0.9821479675871533 0
vn 0.18810999379199403 -0.9821479675871533 0
vn 0.8862115595950594 0.46328076977152055 0
vn -0.8862115595950594 -0.46328076977152055 0
vn 0.29773698138057175 -0.9546479402996609 0
vn -0.29773698138057175 0.9546479402996609 0
vn -0.6083289843458703 -0.7936849795761047 0
vn 0.6083289843458703 0.7936849795761047 0
vn 0.4914741060748677 -0.8708921879646813 0
vn -0.4914741060748677 0.8708921879646813 0
vn -0.37613082422470356 0.9265665669923803 0
vn 0.37613082422470356 -0.9265665669923803 0
vn 0.6435136758554861 0.7654346144426448 0
vn -0.6435136758554861 -0.7654346144426448 0
vn -0.8616074294795311 -0.5075752530075465 0
vn 0.8616074294795311 0.5075752530075465 0
vn 0.30740583982976405 0.9515785041910927 0
vn -0.30740583982976405 -0.9515785041910927 0
vn 0.558484823951649 -0.8295147385162577 0
vn -0.558484823951649 0.8295147385162577 0
vn -0.9725942315178173 -0.2325090553468109 0
vn 0.9725942315178173 0.2325090553468109 0
vn -0.9477466736979845 0.3190238901624862 0
vn -0.8900432362063806 0.4558761209838401 0
vn 0.8900432362063806 -0.4558761209838401 0
vn 0.9477466736979845 -0.3190238901624862 0
vn -0.03713001646716595 0.9993104431942798 0
vn 0.03713001646716595 -0.9993104431942798 0
vn -0.9805494709653781 -0.1962720942709816 0
vn -0.9566737835430142 -0.29116193412170827 0
vn 0.9566737835430142 0.29116193412170827 0
vn 0.9805494709653781 0.1962720942709816 0
vn -0.3625580709009568 0.9319611822520167 0
vn 0.3625580709009568 -0.9319611822520167 0
vn -0.997177740926775 -0.07507698049451503 0
vn 0.997177740926775 0.07507698049451503 0
vn -0.9938814539728508 0.1104520504509185 0
vn 0.9938814539728508 -0.1104520504509185 0
vn -0.6154550127371493 0.7881720163116142 0
vn 0.6154550127371493 -0.7881720163116142 0
vn -0.9950371605069697 -0.09950401605074538 0
vn 0.9950371605069697 0.09950401605074538 0
vn -0.8491622073365648 0.5281321289519252 0
vn 0.8491622073365648 -0.5281321289519252 0
vn -0.9999689917072573 0.007874999934692628 0
vn 0.9999689917072573 -0.007874999934692628 0
vn -0.9856431259587929 0.16884202157691428 0
vn 0.9856431259587929 -0.16884202157691428 0
vn -0.9978394846896711 0.06569903191258981 0
vn 0.9978394846896711 -0.06569903191258981 0
vn -0.7071067811865475 -0.7071067811865476 0
vn 0.7071067811865475 0.7071067811865476 0
vn -0.9918817099639116 0.1271639628159911 0
vn 0.9918817099639116 -0.1271639628159911 0
vn -0.2676439669379428 0.9635178809766436 0
vn -0.1316999503425431 0.991289626234317 0
vn 0.2676439669379428 -0.9635178809766436 0
vn 0.1316999503425431 -0.991289626234317 0
vn -0.0394429929883578 -0.9992218223718498 0
vn 0.011289003129216144 -0.999936277173875 0
vn 0.0394429929883578 0.9992218223718498 0
vn -0.011289003129216144 0.999936277173875 0
vn 0.006780000105330691 0.999977015535143 0
vn -0.006780000105330691 -0.999977015535143 0
vn 0.31045592647162706 -0.9505877748628181 0
vn -0.31045592647162706 0.9505877748628181 0
vn 0.2043849163957539 0.9788905995819455 0
vn -0.2043849163957539 -0.9788905995819455 0
vn 0.5390540936991992 -0.8422711464048467 0
vn -0.5390540936991992 0.8422711464048467 0
vn 0.3939190571998087 0.919145133466317 0
vn -0.3939190571998087 -0.919145133466317 0
vn 0.9919750213368869 -0.12643400271953223 0
vn 0.961935354495368 -0.27327710070891564 0
vn -0.961935354495368 0.27327710070891564 0
vn -0.9919750213368869 0.12643400271953223 0
vn 0.9997309366285575 0.0231959985296405 0
vn 0.9999912260970418 -0.004189000947129033 0
vn -0.9999912260970418 0.004189000947129033 0
vn -0.9997309366285575 -0.0231959985296405 0
vn 0.9996669439496758 0.025806998553027448 0
vn 0.996545799624058 0.08304498330210537 0
vn -0.996545799624058 -0.08304498330210537 0
vn -0.9996669439496758 -0.025806998553027448 0
vn 0.9995032472446501 -0.03151600779603703 0
vn -0.9995032472446501 0.03151600779603703 0
usemtl material_0_0
f 1//1 2//1 3//1
f 2//1 1//1 4//1
f 3//2 2//2 1//2
f 4//2 1//2 2//2
f 5//1 3//1 2//1
f 2//2 3//2 5//2
f 6//3 1//4 3//3
f 3//5 1//6 6//5
f 4//1 1//1 7//1
f 7//2 1//2 4//2
f 4//7 8//8 2//8
f 2//9 8//9 4//10
f 5//1 9//1 3//1
f 3//2 9//2 5//2
f 5//1 2//1 10//1
f 10//2 2//2 5//2
f 1//4 6//3 11//4
f 11//6 6//5 1//6
f 3//3 12//11 6//3
f 6//5 12//12 3//5
f 1//13 13//14 7//14
f 7//15 13//15 1//16
f 7//14 14//7 4//7
f 4//10 14//10 7//15
f 8//8 4//7 14//7
f 14//10 4//10 8//9
f 15//17 2//8 8//8
f 8//9 2//9 15//18
f 16//1 9//1 5//1
f 5//2 9//2 16//2
f 12//11 3//3 9//11
f 9//12 3//5 12//12
f 2//8 15//17 10//17
f 10//18 15//18 2//9
f 5//1 10//1 17//1
f 17//2 10//2 5//2
f 8//2 11//2 6//2
f 6//1 11//1 8//1
f 13//14 1//13 11//13
f 11//16 1//16 13//15
f 12//2 18//2 6//2
f 6//1 18//1 12//1
f 14//7 7//14 13//14
f 13//15 7//15 14//10
f 11//2 8//2 14//2
f 14//1 8//1 11//1
f 8//2 18//2 15//2
f 15//1 18//1 8//1
f 19//1 9//1 16//1
f 16//2 9//2 19//2
f 18//19 16//20 5//19
f 5//21 16//22 18//21
f 9//11 20//23 12//11
f 12//12 20//24 9//12
f 21//25 10//17 15//17
f 15//18 10//18 21//26
f 17//1 10//1 22//1
f 22//2 10//2 17//2
f 23//27 5//19 17//27
f 17//28 5//21 23//28
f 6//2 18//2 8//2
f 8//1 18//1 6//1
f 11//2 14//2 13//2
f 13//1 14//1 11//1
f 12//2 24//2 18//2
f 18//1 24//1 12//1
f 15//2 18//2 23//2
f 23//1 18//1 15//1
f 19//1 25//1 9//1
f 9//2 25//2 19//2
f 24//20 19//29 16//20
f 16//22 19//30 24//22
f 16//20 18//19 24//20
f 24//22 18//21 16//22
f 5//19 23//27 18//19
f 18//21 23//28 5//21
f 20//23 9//11 25//23
f 25//24 9//12 20//24
f 20//2 26//2 12//2
f 12//1 26//1 20//1
f 10//17 21//25 22//25
f 22//26 21//26 10//18
f 15//2 23//2 21//2
f 21//1 23//1 15//1
f 17//1 22//1 27//1
f 27//2 22//2 17//2
f 17//27 28//31 23//27
f 23//28 28//32 17//28
f 12//2 26//2 24//2
f 24//1 26//1 12//1
f 29//1 25//1 19//1
f 19//2 25//2 29//2
f 19//29 24//20 26//29
f 26//30 24//22 19//30
f 25//23 30//33 20//23
f 20//24 30//34 25//24
f 20//2 31//2 26//2
f 26//1 31//1 20//1
f 32//35 22//25 21//25
f 21//26 22//26 32//36
f 21//2 23//2 32//2
f 32//1 23//1 21//1
f 22//25 32//35 27//35
f 27//36 32//36 22//26
f 17//1 27//1 33//1
f 33//2 27//2 17//2
f 28//31 17//27 34//31
f 34//32 17//28 28//32
f 35//2 23//2 28//2
f 28//1 23//1 35//1
f 29//1 36//1 25//1
f 25//2 36//2 29//2
f 19//29 31//37 29//37
f 29//38 31//38 19//30
f 31//37 19//29 26//29
f 26//30 19//30 31//38
f 30//33 25//23 36//33
f 36//34 25//24 30//34
f 30//2 31//2 20//2
f 20//1 31//1 30//1
f 32//2 23//2 35//2
f 35//1 23//1 32//1
f 32//35 33//39 27//35
f 27//36 33//40 32//36
f 17//1 33//1 34//1
f 34//2 33//2 17//2
f 34//31 37//41 28//31
f 28//32 37//42 34//32
f 35//2 28//2 38//2
f 38//1 28//1 35//1
f 29//1 39//1 36//1
f 36//2 39//2 29//2
f 40//43 29//37 31//37
f 31//38 29//38 40//44
f 39//45 30//46 36//46
f 36//47 30//47 39//48
f 41//2 31//2 30//2
f 30//1 31//1 41//1
f 33//39 32//35 35//39
f 35//40 32//36 33//40
f 34//1 33//1 42//1
f 42//2 33//2 34//2
f 37//41 34//31 43//41
f 43//42 34//32 37//42
f 44//2 28//2 37//2
f 37//1 28//1 44//1
f 38//2 28//2 44//2
f 44//1 28//1 38//1
f 42//49 35//39 38//49
f 38//50 35//40 42//50
f 45//1 39//1 29//1
f 29//2 39//2 45//2
f 29//37 40//43 45//43
f 45//44 40//44 29//38
f 41//2 40//2 31//2
f 31//1 40//1 41//1
f 30//46 39//45 41//45
f 41//48 39//48 30//47
f 35//39 42//49 33//39
f 33//40 42//50 35//40
f 34//1 42//1 46//1
f 46//2 42//2 34//2
f 34//1 46//1 43//1
f 43//2 46//2 34//2
f 47//51 37//52 43//52
f 43//53 37//53 47//54
f 44//2 37//2 48//2
f 48//1 37//1 44//1
f 46//55 38//49 44//55
f 44//56 38//50 46//56
f 38//49 46//55 42//49
f 42//50 46//56 38//50
f 45//1 49//1 39//1
f 39//2 49//2 45//2
f 50//57 45//43 40//43
f 40//44 45//44 50//58
f 51//2 40//2 41//2
f 41//1 40//1 51//1
f 49//59 41//45 39//45
f 39//48 41//48 49//60
f 43//1 46//1 52//1
f 52//2 46//2 43//2
f 37//52 47//51 53//51
f 53//54 47//54 37//53
f 43//1 54//1 47//1
f 47//2 54//2 43//2
f 48//2 37//2 55//2
f 55//1 37//1 48//1
f 52//61 44//55 48//61
f 48//62 44//56 52//62
f 44//55 52//61 46//55
f 46//56 52//62 44//56
f 56//1 49//1 45//1
f 45//2 49//2 56//2
f 45//43 50//57 56//57
f 56//58 50//58 45//44
f 51//2 50//2 40//2
f 40//1 50//1 51//1
f 41//45 49//59 51//59
f 51//60 49//60 41//48
f 43//1 52//1 57//1
f 57//2 52//2 43//2
f 58//63 53//51 47//51
f 47//54 53//54 58//64
f 59//2 37//2 53//2
f 53//1 37//1 59//1
f 43//1 57//1 54//1
f 54//2 57//2 43//2
f 47//1 54//1 60//1
f 60//2 54//2 47//2
f 55//2 37//2 59//2
f 59//1 37//1 55//1
f 55//65 52//61 48//61
f 48//62 52//62 55//66
f 49//1 56//1 61//1
f 61//2 56//2 49//2
f 62//67 56//57 50//57
f 50//58 56//58 62//68
f 50//2 51//2 62//2
f 62//1 51//1 50//1
f 61//67 51//59 49//59
f 49//60 51//60 61//68
f 52//61 55//65 57//65
f 57//66 55//66 52//62
f 53//51 58//63 63//63
f 63//64 58//64 53//54
f 47//1 64//1 58//1
f 58//2 64//2 47//2
f 59//2 53//2 65//2
f 65//1 53//1 59//1
f 57//65 59//69 54//69
f 54//70 59//70 57//66
f 54//69 65//71 60//71
f 60//72 65//72 54//70
f 47//1 60//1 64//1
f 64//2 60//2 47//2
f 59//69 57//65 55//65
f 55//66 57//66 59//70
f 56//57 62//67 61//67
f 61//68 62//68 56//58
f 51//59 61//67 62//67
f 62//68 61//68 51//60
f 66//73 63//73 58//73
f 58//74 63//74 66//74
f 67//2 53//2 63//2
f 63//1 53//1 67//1
f 58//1 64//1 68//1
f 68//2 64//2 58//2
f 65//2 53//2 67//2
f 67//1 53//1 65//1
f 65//71 54//69 59//69
f 59//70 54//70 65//72
f 67//75 60//71 65//71
f 65//72 60//72 67//76
f 60//71 67//75 64//75
f 64//76 67//76 60//72
f 63//73 66//73 69//73
f 69//74 66//74 63//74
f 58//1 68//1 66//1
f 66//2 68//2 58//2
f 67//2 63//2 70//2
f 70//1 63//1 67//1
f 67//77 68//78 64//77
f 64//79 68//80 67//79
f 66//81 71//82 69//81
f 69//83 71//84 66//83
f 70//2 63//2 69//2
f 69//1 63//1 70//1
f 66//1 68//1 72//1
f 72//2 68//2 66//2
f 68//78 67//77 70//78
f 70//80 67//79 68//80
f 71//82 66//81 72//82
f 72//84 66//83 71//84
f 70//2 69//2 71//2
f 71//1 69//1 70//1
f 72//1 68//1 73//1
f 73//2 68//2 72//2
f 70//78 73//85 68//78
f 68//80 73//86 70//80
f 72//82 74//87 71//82
f 71//84 74//88 72//84
f 70//2 71//2 75//2
f 75//1 71//1 70//1
f 72//1 73//1 76//1
f 76//2 73//2 72//2
f 73//85 70//78 75//85
f 75//86 70//80 73//86
f 74//87 72//82 76//87
f 76//88 72//84 74//88
f 75//2 71//2 74//2
f 74//1 71//1 75//1
f 76//1 73//1 77//1
f 77//2 73//2 76//2
f 75//85 77//89 73//85
f 73//86 77//90 75//86
f 76//87 78//91 74//87
f 74//88 78//92 76//88
f 75//2 74//2 79//2
f 79//1 74//1 75//1
f 76//1 77//1 80//1
f 80//2 77//2 76//2
f 77//89 75//85 79//89
f 79//90 75//86 77//90
f 78//91 76//87 81//91
f 81//92 76//88 78//92
f 78//2 82//2 74//2
f 74//1 82//1 78//1
f 79//2 74//2 83//2
f 83//1 74//1 79//1
f 79//89 80//93 77//89
f 77//90 80//94 79//90
f 76//1 80//1 84//1
f 84//2 80//2 76//2
f 84//1 81//1 76//1
f 76//2 81//2 84//2
f 85//95 78//96 81//96
f 81//97 78//97 85//98
f 82//2 78//2 86//2
f 86//1 78//1 82//1
f 83//2 74//2 82//2
f 82//1 74//1 83//1
f 80//93 79//89 83//93
f 83//94 79//90 80//94
f 84//1 80//1 87//1
f 87//2 80//2 84//2
f 81//1 84//1 88//1
f 88//2 84//2 81//2
f 78//96 85//95 89//95
f 89//98 85//98 78//97
f 81//1 88//1 85//1
f 85//2 88//2 81//2
f 86//2 78//2 89//2
f 89//1 78//1 86//1
f 86//99 84//100 82//100
f 82//101 84//101 86//102
f 83//2 82//2 90//2
f 90//1 82//1 83//1
f 91//103 80//104 83//104
f 83//105 80//105 91//106
f 87//1 80//1 92//1
f 92//2 80//2 87//2
f 87//107 82//100 84//100
f 84//101 82//101 87//108
f 84//100 86//99 88//99
f 88//102 86//102 84//101
f 88//99 89//95 85//95
f 85//98 89//98 88//102
f 89//95 88//99 86//99
f 86//102 88//102 89//98
f 82//100 87//107 90//107
f 90//108 87//108 82//101
f 83//2 90//2 91//2
f 91//1 90//1 83//1
f 80//104 91//103 92//103
f 92//106 91//106 80//105
f 92//103 90//107 87//107
f 87//108 90//108 92//106
f 90//107 92//103 91//103
f 91//106 92//106 90//108
