# SSTK version 0.8.0
# 18
mtllib original-18.mtl
o mesh33/mesh33-geometry/material_0/component_0#mesh33-geometry
v 0.430802 -0.541817 0.511844
v 0.053809 0.000725 0.511844
v -0.404658 -0.541817 0.511844
v 0.053809 0.000725 0.511844
v 0.430802 -0.541817 0.511844
v 0.430802 0.559486 0.511844
v -0.404658 -0.541817 0.511844
v 0.053809 0.000725 0.511844
v 0.042619 -0.009475 0.511844
v -0.404658 -0.541817 0.511844
v 0.430802 -0.541817 0.507011
v 0.430802 -0.541817 0.511844
v 0.430802 -0.541817 0.507011
v 0.430802 0.559486 0.511844
v 0.430802 -0.541817 0.511844
v 0.053809 0.000725 0.511844
v 0.430802 0.559486 0.511844
v 0.061979 0.013473 0.511844
v -0.404658 -0.541817 0.511844
v 0.042619 -0.009475 0.511844
v 0.029169 -0.016431 0.511844
v 0.430802 -0.541817 0.507011
v -0.404658 -0.541817 0.511844
v -0.404658 -0.541817 0.507011
v 0.430802 0.559486 0.511844
v 0.430802 -0.541817 0.507011
v 0.430802 0.559486 0.507011
v 0.061979 0.013473 0.511844
v 0.430802 0.559486 0.511844
v 0.066571 0.027902 0.511844
v -0.404658 -0.541817 0.511844
v 0.029169 -0.016431 0.511844
v 0.014378 -0.019669 0.511844
v -0.404658 -0.541817 0.511844
v -0.404658 0.559486 0.507011
v -0.404658 -0.541817 0.507011
v -0.404658 0.559486 0.507011
v 0.430802 0.559486 0.511844
v 0.430802 0.559486 0.507011
v 0.066571 0.027902 0.511844
v 0.430802 0.559486 0.511844
v 0.067271 0.043028 0.511844
v -0.000748 -0.018968 0.511844
v -0.404658 -0.541817 0.511844
v 0.014378 -0.019669 0.511844
v -0.404658 0.559486 0.507011
v -0.404658 -0.541817 0.511844
v -0.404658 0.559486 0.511844
v 0.430802 0.559486 0.511844
v -0.404658 0.559486 0.507011
v -0.404658 0.559486 0.511844
v 0.067271 0.043028 0.511844
v 0.430802 0.559486 0.511844
v 0.064034 0.057819 0.511844
v -0.015176 -0.014376 0.511844
v -0.404658 -0.541817 0.511844
v -0.000748 -0.018968 0.511844
v -0.404658 -0.541817 0.511844
v -0.340854 0.158197 0.511844
v -0.404658 0.559486 0.511844
v -0.404658 0.559486 0.511844
v -0.257505 0.257801 0.511844
v 0.430802 0.559486 0.511844
v 0.064034 0.057819 0.511844
v 0.430802 0.559486 0.511844
v 0.057078 0.071268 0.511844
v -0.288077 0.083040 0.511844
v -0.404658 -0.541817 0.511844
v -0.015176 -0.014376 0.511844
v -0.340854 0.158197 0.511844
v -0.404658 -0.541817 0.511844
v -0.335633 0.134798 0.511844
v -0.404658 0.559486 0.511844
v -0.340854 0.158197 0.511844
v -0.339841 0.182150 0.511844
v -0.404658 0.559486 0.511844
v -0.280904 0.252580 0.511844
v -0.257505 0.257801 0.511844
v -0.233552 0.256787 0.511844
v 0.430802 0.559486 0.511844
v -0.257505 0.257801 0.511844
v 0.057078 0.071268 0.511844
v 0.430802 0.559486 0.511844
v 0.046878 0.082459 0.511844
v -0.308314 0.095893 0.511844
v -0.404658 -0.541817 0.511844
v -0.288077 0.083040 0.511844
v -0.288077 0.083040 0.511844
v -0.015176 -0.014376 0.511844
v -0.027925 -0.006207 0.511844
v -0.335633 0.134798 0.511844
v -0.404658 -0.541817 0.511844
v -0.324535 0.113547 0.511844
v -0.404658 0.559486 0.511844
v -0.339841 0.182150 0.511844
v -0.332662 0.205024 0.511844
v -0.404658 0.559486 0.511844
v -0.302154 0.241482 0.511844
v -0.280904 0.252580 0.511844
v -0.210678 0.249609 0.511844
v 0.430802 0.559486 0.511844
v -0.233552 0.256787 0.511844
v 0.046878 0.082459 0.511844
v 0.430802 0.559486 0.511844
v 0.034129 0.090629 0.511844
v -0.265203 0.075861 0.511844
v -0.027925 -0.006207 0.511844
v -0.038125 0.004984 0.511844
v -0.265203 0.075861 0.511844
v -0.038125 0.004984 0.511844
v -0.045080 0.018434 0.511844
v -0.324535 0.113547 0.511844
v -0.404658 -0.541817 0.511844
v -0.308314 0.095893 0.511844
v -0.288077 0.083040 0.511844
v -0.027925 -0.006207 0.511844
v -0.265203 0.075861 0.511844
v -0.404658 0.559486 0.511844
v -0.332662 0.205024 0.511844
v -0.319808 0.225261 0.511844
v -0.404658 0.559486 0.511844
v -0.319808 0.225261 0.511844
v -0.302154 0.241482 0.511844
v -0.190441 0.236755 0.511844
v 0.430802 0.559486 0.511844
v -0.210678 0.249609 0.511844
v 0.034129 0.090629 0.511844
v 0.430802 0.559486 0.511844
v 0.019700 0.095220 0.511844
v -0.265203 0.075861 0.511844
v -0.045080 0.018434 0.511844
v -0.048318 0.033225 0.511844
v -0.174220 0.219101 0.511844
v 0.430802 0.559486 0.511844
v -0.190441 0.236755 0.511844
v 0.019700 0.095220 0.511844
v 0.430802 0.559486 0.511844
v 0.004575 0.095921 0.511844
v -0.265203 0.075861 0.511844
v -0.048318 0.033225 0.511844
v -0.047617 0.048350 0.511844
v -0.163121 0.197851 0.511844
v 0.430802 0.559486 0.511844
v -0.174220 0.219101 0.511844
v 0.004575 0.095921 0.511844
v 0.430802 0.559486 0.511844
v -0.178946 0.107387 0.511844
v -0.265203 0.075861 0.511844
v -0.047617 0.048350 0.511844
v -0.043026 0.062779 0.511844
v -0.157901 0.174452 0.511844
v 0.430802 0.559486 0.511844
v -0.163121 0.197851 0.511844
v -0.178946 0.107387 0.511844
v 0.430802 0.559486 0.511844
v -0.166092 0.127625 0.511844
v -0.178946 0.107387 0.511844
v -0.010216 0.092683 0.511844
v 0.004575 0.095921 0.511844
v -0.265203 0.075861 0.511844
v -0.043026 0.062779 0.511844
v -0.241250 0.074848 0.511844
v -0.158914 0.150499 0.511844
v 0.430802 0.559486 0.511844
v -0.157901 0.174452 0.511844
v -0.166092 0.127625 0.511844
v 0.430802 0.559486 0.511844
v -0.158914 0.150499 0.511844
v -0.196600 0.091167 0.511844
v -0.010216 0.092683 0.511844
v -0.178946 0.107387 0.511844
v -0.034857 0.075528 0.511844
v -0.241250 0.074848 0.511844
v -0.043026 0.062779 0.511844
v -0.217851 0.080068 0.511844
v -0.034857 0.075528 0.511844
v -0.023665 0.085727 0.511844
v -0.196600 0.091167 0.511844
v -0.023665 0.085727 0.511844
v -0.010216 0.092683 0.511844
v -0.241250 0.074848 0.511844
v -0.034857 0.075528 0.511844
v -0.217851 0.080068 0.511844
v -0.217851 0.080068 0.511844
v -0.023665 0.085727 0.511844
v -0.196600 0.091167 0.511844
v -0.404658 -0.541817 0.511844
v 0.053809 0.000725 0.511844
v 0.430802 -0.541817 0.511844
v 0.430802 0.559486 0.511844
v 0.430802 -0.541817 0.511844
v 0.053809 0.000725 0.511844
v 0.042619 -0.009475 0.511844
v 0.053809 0.000725 0.511844
v -0.404658 -0.541817 0.511844
v 0.430802 -0.541817 0.511844
v 0.430802 -0.541817 0.507011
v -0.404658 -0.541817 0.511844
v 0.430802 -0.541817 0.511844
v 0.430802 0.559486 0.511844
v 0.430802 -0.541817 0.507011
v 0.061979 0.013473 0.511844
v 0.430802 0.559486 0.511844
v 0.053809 0.000725 0.511844
v 0.029169 -0.016431 0.511844
v 0.042619 -0.009475 0.511844
v -0.404658 -0.541817 0.511844
v -0.404658 -0.541817 0.507011
v -0.404658 -0.541817 0.511844
v 0.430802 -0.541817 0.507011
v 0.430802 0.559486 0.507011
v 0.430802 -0.541817 0.507011
v 0.430802 0.559486 0.511844
v 0.066571 0.027902 0.511844
v 0.430802 0.559486 0.511844
v 0.061979 0.013473 0.511844
v 0.014378 -0.019669 0.511844
v 0.029169 -0.016431 0.511844
v -0.404658 -0.541817 0.511844
v -0.404658 -0.541817 0.507011
v -0.404658 0.559486 0.507011
v -0.404658 -0.541817 0.511844
v 0.430802 0.559486 0.507011
v 0.430802 0.559486 0.511844
v -0.404658 0.559486 0.507011
v 0.067271 0.043028 0.511844
v 0.430802 0.559486 0.511844
v 0.066571 0.027902 0.511844
v 0.014378 -0.019669 0.511844
v -0.404658 -0.541817 0.511844
v -0.000748 -0.018968 0.511844
v -0.404658 0.559486 0.511844
v -0.404658 -0.541817 0.511844
v -0.404658 0.559486 0.507011
v -0.404658 0.559486 0.511844
v -0.404658 0.559486 0.507011
v 0.430802 0.559486 0.511844
v 0.064034 0.057819 0.511844
v 0.430802 0.559486 0.511844
v 0.067271 0.043028 0.511844
v -0.000748 -0.018968 0.511844
v -0.404658 -0.541817 0.511844
v -0.015176 -0.014376 0.511844
v -0.404658 0.559486 0.511844
v -0.340854 0.158197 0.511844
v -0.404658 -0.541817 0.511844
v 0.430802 0.559486 0.511844
v -0.257505 0.257801 0.511844
v -0.404658 0.559486 0.511844
v 0.057078 0.071268 0.511844
v 0.430802 0.559486 0.511844
v 0.064034 0.057819 0.511844
v -0.015176 -0.014376 0.511844
v -0.404658 -0.541817 0.511844
v -0.288077 0.083040 0.511844
v -0.335633 0.134798 0.511844
v -0.404658 -0.541817 0.511844
v -0.340854 0.158197 0.511844
v -0.339841 0.182150 0.511844
v -0.340854 0.158197 0.511844
v -0.404658 0.559486 0.511844
v -0.257505 0.257801 0.511844
v -0.280904 0.252580 0.511844
v -0.404658 0.559486 0.511844
v -0.257505 0.257801 0.511844
v 0.430802 0.559486 0.511844
v -0.233552 0.256787 0.511844
v 0.046878 0.082459 0.511844
v 0.430802 0.559486 0.511844
v 0.057078 0.071268 0.511844
v -0.288077 0.083040 0.511844
v -0.404658 -0.541817 0.511844
v -0.308314 0.095893 0.511844
v -0.027925 -0.006207 0.511844
v -0.015176 -0.014376 0.511844
v -0.288077 0.083040 0.511844
v -0.324535 0.113547 0.511844
v -0.404658 -0.541817 0.511844
v -0.335633 0.134798 0.511844
v -0.332662 0.205024 0.511844
v -0.339841 0.182150 0.511844
v -0.404658 0.559486 0.511844
v -0.280904 0.252580 0.511844
v -0.302154 0.241482 0.511844
v -0.404658 0.559486 0.511844
v -0.233552 0.256787 0.511844
v 0.430802 0.559486 0.511844
v -0.210678 0.249609 0.511844
v 0.034129 0.090629 0.511844
v 0.430802 0.559486 0.511844
v 0.046878 0.082459 0.511844
v -0.038125 0.004984 0.511844
v -0.027925 -0.006207 0.511844
v -0.265203 0.075861 0.511844
v -0.045080 0.018434 0.511844
v -0.038125 0.004984 0.511844
v -0.265203 0.075861 0.511844
v -0.308314 0.095893 0.511844
v -0.404658 -0.541817 0.511844
v -0.324535 0.113547 0.511844
v -0.265203 0.075861 0.511844
v -0.027925 -0.006207 0.511844
v -0.288077 0.083040 0.511844
v -0.319808 0.225261 0.511844
v -0.332662 0.205024 0.511844
v -0.404658 0.559486 0.511844
v -0.302154 0.241482 0.511844
v -0.319808 0.225261 0.511844
v -0.404658 0.559486 0.511844
v -0.210678 0.249609 0.511844
v 0.430802 0.559486 0.511844
v -0.190441 0.236755 0.511844
v 0.019700 0.095220 0.511844
v 0.430802 0.559486 0.511844
v 0.034129 0.090629 0.511844
v -0.048318 0.033225 0.511844
v -0.045080 0.018434 0.511844
v -0.265203 0.075861 0.511844
v -0.190441 0.236755 0.511844
v 0.430802 0.559486 0.511844
v -0.174220 0.219101 0.511844
v 0.004575 0.095921 0.511844
v 0.430802 0.559486 0.511844
v 0.019700 0.095220 0.511844
v -0.047617 0.048350 0.511844
v -0.048318 0.033225 0.511844
v -0.265203 0.075861 0.511844
v -0.174220 0.219101 0.511844
v 0.430802 0.559486 0.511844
v -0.163121 0.197851 0.511844
v -0.178946 0.107387 0.511844
v 0.430802 0.559486 0.511844
v 0.004575 0.095921 0.511844
v -0.043026 0.062779 0.511844
v -0.047617 0.048350 0.511844
v -0.265203 0.075861 0.511844
v -0.163121 0.197851 0.511844
v 0.430802 0.559486 0.511844
v -0.157901 0.174452 0.511844
v -0.166092 0.127625 0.511844
v 0.430802 0.559486 0.511844
v -0.178946 0.107387 0.511844
v 0.004575 0.095921 0.511844
v -0.010216 0.092683 0.511844
v -0.178946 0.107387 0.511844
v -0.241250 0.074848 0.511844
v -0.043026 0.062779 0.511844
v -0.265203 0.075861 0.511844
v -0.157901 0.174452 0.511844
v 0.430802 0.559486 0.511844
v -0.158914 0.150499 0.511844
v -0.158914 0.150499 0.511844
v 0.430802 0.559486 0.511844
v -0.166092 0.127625 0.511844
v -0.178946 0.107387 0.511844
v -0.010216 0.092683 0.511844
v -0.196600 0.091167 0.511844
v -0.043026 0.062779 0.511844
v -0.241250 0.074848 0.511844
v -0.034857 0.075528 0.511844
v -0.023665 0.085727 0.511844
v -0.034857 0.075528 0.511844
v -0.217851 0.080068 0.511844
v -0.010216 0.092683 0.511844
v -0.023665 0.085727 0.511844
v -0.196600 0.091167 0.511844
v -0.217851 0.080068 0.511844
v -0.034857 0.075528 0.511844
v -0.241250 0.074848 0.511844
v -0.196600 0.091167 0.511844
v -0.023665 0.085727 0.511844
v -0.217851 0.080068 0.511844
vn 0 0 1
vn 0 -1 0
vn 1 0 0
vn -1 0 0
vn 0 1 0
vn 0 0 -1
usemtl material_0_0
f 1//1 2//1 3//1
f 4//1 5//1 6//1
f 7//1 8//1 9//1
f 10//2 11//2 12//2
f 13//3 14//3 15//3
f 16//1 17//1 18//1
f 19//1 20//1 21//1
f 22//2 23//2 24//2
f 25//3 26//3 27//3
f 28//1 29//1 30//1
f 31//1 32//1 33//1
f 34//4 35//4 36//4
f 37//5 38//5 39//5
f 40//1 41//1 42//1
f 43//1 44//1 45//1
f 46//4 47//4 48//4
f 49//5 50//5 51//5
f 52//1 53//1 54//1
f 55//1 56//1 57//1
f 58//1 59//1 60//1
f 61//1 62//1 63//1
f 64//1 65//1 66//1
f 67//1 68//1 69//1
f 70//1 71//1 72//1
f 73//1 74//1 75//1
f 76//1 77//1 78//1
f 79//1 80//1 81//1
f 82//1 83//1 84//1
f 85//1 86//1 87//1
f 88//1 89//1 90//1
f 91//1 92//1 93//1
f 94//1 95//1 96//1
f 97//1 98//1 99//1
f 100//1 101//1 102//1
f 103//1 104//1 105//1
f 106//1 107//1 108//1
f 109//1 110//1 111//1
f 112//1 113//1 114//1
f 115//1 116//1 117//1
f 118//1 119//1 120//1
f 121//1 122//1 123//1
f 124//1 125//1 126//1
f 127//1 128//1 129//1
f 130//1 131//1 132//1
f 133//1 134//1 135//1
f 136//1 137//1 138//1
f 139//1 140//1 141//1
f 142//1 143//1 144//1
f 145//1 146//1 147//1
f 148//1 149//1 150//1
f 151//1 152//1 153//1
f 154//1 155//1 156//1
f 157//1 158//1 159//1
f 160//1 161//1 162//1
f 163//1 164//1 165//1
f 166//1 167//1 168//1
f 169//1 170//1 171//1
f 172//1 173//1 174//1
f 175//1 176//1 177//1
f 178//1 179//1 180//1
f 181//1 182//1 183//1
f 184//1 185//1 186//1
usemtl material_1_0
f 187//6 188//6 189//6
f 190//6 191//6 192//6
f 193//6 194//6 195//6
f 196//5 197//5 198//5
f 199//4 200//4 201//4
f 202//6 203//6 204//6
f 205//6 206//6 207//6
f 208//5 209//5 210//5
f 211//4 212//4 213//4
f 214//6 215//6 216//6
f 217//6 218//6 219//6
f 220//3 221//3 222//3
f 223//2 224//2 225//2
f 226//6 227//6 228//6
f 229//6 230//6 231//6
f 232//3 233//3 234//3
f 235//2 236//2 237//2
f 238//6 239//6 240//6
f 241//6 242//6 243//6
f 244//6 245//6 246//6
f 247//6 248//6 249//6
f 250//6 251//6 252//6
f 253//6 254//6 255//6
f 256//6 257//6 258//6
f 259//6 260//6 261//6
f 262//6 263//6 264//6
f 265//6 266//6 267//6
f 268//6 269//6 270//6
f 271//6 272//6 273//6
f 274//6 275//6 276//6
f 277//6 278//6 279//6
f 280//6 281//6 282//6
f 283//6 284//6 285//6
f 286//6 287//6 288//6
f 289//6 290//6 291//6
f 292//6 293//6 294//6
f 295//6 296//6 297//6
f 298//6 299//6 300//6
f 301//6 302//6 303//6
f 304//6 305//6 306//6
f 307//6 308//6 309//6
f 310//6 311//6 312//6
f 313//6 314//6 315//6
f 316//6 317//6 318//6
f 319//6 320//6 321//6
f 322//6 323//6 324//6
f 325//6 326//6 327//6
f 328//6 329//6 330//6
f 331//6 332//6 333//6
f 334//6 335//6 336//6
f 337//6 338//6 339//6
f 340//6 341//6 342//6
f 343//6 344//6 345//6
f 346//6 347//6 348//6
f 349//6 350//6 351//6
f 352//6 353//6 354//6
f 355//6 356//6 357//6
f 358//6 359//6 360//6
f 361//6 362//6 363//6
f 364//6 365//6 366//6
f 367//6 368//6 369//6
f 370//6 371//6 372//6
