# SSTK version 0.8.0
# 6
mtllib original-6.mtl
o mesh5/mesh5-geometry#mesh5-geometry
v -0.156770 -0.283769 0.645539
v -0.182534 -0.272624 0.628621
v -0.184001 -0.283769 0.628621
v -0.156231 -0.279672 0.645539
v -0.184001 -0.283769 0.500533
v -0.156231 -0.287867 0.645539
v -0.136840 -0.299062 0.645539
v -0.178232 -0.262237 0.628621
v -0.182534 -0.272624 0.500533
v -0.182534 -0.294915 0.500533
v -0.182534 -0.294915 0.628621
v -0.140937 -0.299602 0.645539
v -0.133021 -0.297481 0.645539
v -0.154649 -0.275853 0.645539
v -0.178232 -0.262237 0.500533
v -0.140937 -0.326833 0.500533
v -0.152083 -0.325366 0.500533
v -0.154649 -0.291686 0.645539
v -0.145035 -0.299062 0.645539
v -0.129792 -0.325366 0.628621
v -0.119406 -0.321064 0.628621
v -0.171388 -0.253319 0.628621
v -0.171388 -0.253319 0.500533
v -0.119406 -0.321064 0.500533
v -0.129792 -0.325366 0.500533
v -0.178232 -0.305301 0.500533
v -0.178232 -0.305301 0.628621
v -0.140937 -0.326833 0.628621
v -0.110487 -0.314220 0.628621
v -0.152133 -0.272574 0.645539
v -0.152083 -0.325366 0.628621
v -0.162469 -0.321064 0.500533
v -0.152133 -0.294965 0.645539
v -0.148854 -0.297481 0.645539
v -0.129742 -0.294965 0.645539
v -0.110487 -0.314220 0.500533
v -0.148854 -0.270058 0.645539
v -0.162469 -0.246475 0.628621
v -0.162469 -0.321064 0.628621
v -0.171388 -0.314220 0.500533
v -0.171388 -0.314220 0.628621
v -0.103643 -0.305301 0.628621
v -0.162469 -0.246475 0.500533
v -0.103643 -0.305301 0.500533
v -0.127226 -0.291686 0.645539
v -0.145035 -0.268476 0.645539
v -0.152083 -0.242173 0.500533
v -0.125644 -0.287867 0.645539
v -0.099341 -0.294915 0.500533
v -0.152083 -0.242173 0.628621
v -0.099341 -0.294915 0.628621
v -0.140937 -0.267937 0.645539
v -0.125105 -0.283769 0.645539
v -0.140937 -0.240705 0.500533
v -0.097874 -0.283769 0.628621
v -0.097874 -0.283769 0.500533
v -0.140937 -0.240705 0.628621
v -0.136840 -0.268476 0.645539
v -0.125644 -0.279672 0.645539
v -0.129792 -0.242173 0.500533
v -0.099341 -0.272624 0.628621
v -0.129792 -0.242173 0.628621
v -0.099341 -0.272624 0.500533
v -0.133021 -0.270058 0.645539
v -0.119406 -0.246475 0.500533
v -0.127226 -0.275853 0.645539
v -0.103643 -0.262237 0.628621
v -0.119406 -0.246475 0.628621
v -0.103643 -0.262237 0.500533
v -0.129742 -0.272574 0.645539
v -0.110487 -0.253319 0.500533
v -0.110487 -0.253319 0.628621
vn -0.5277050967595931 0 0.8494276489813294
vn -0.5097242673656582 0.13658051151383194 0.8494274160475178
vn 0.5277050967595931 0 -0.8494276489813294
vn 0.5097242673656582 -0.13658051151383194 -0.8494274160475178
vn -0.9659258785426184 0.25881885008953825 0
vn -1 0 0
vn 1 0 0
vn 0.9659258785426184 -0.25881885008953825 0
vn -0.5097242673656582 -0.1365805115138326 0.8494274160475177
vn 0.5097242673656582 0.1365805115138326 -0.8494274160475177
vn 0 0 1
vn 0 0 -1
vn -0.45700573411342477 0.2638525918769386 0.8494277890128574
vn 0.45700573411342477 -0.2638525918769386 -0.8494277890128574
vn -0.9659258785426182 -0.2588188500895388 0
vn 0.9659258785426182 0.2588188500895388 0
vn -0.8660253595217489 0.50000007666522 0
vn 0.8660253595217489 -0.50000007666522 0
vn -0.4570057341134249 -0.2638525918769394 0.8494277890128572
vn 0.4570057341134249 0.2638525918769394 -0.8494277890128572
vn 0 -0.5277050967595933 0.8494276489813293
vn 0.13658051151383221 -0.5097242673656585 0.8494274160475177
vn -0.13658051151383221 0.5097242673656585 -0.8494274160475177
vn 0 0.5277050967595933 -0.8494276489813293
vn 0.263852591876939 -0.45700573411342504 0.8494277890128572
vn -0.263852591876939 0.45700573411342504 -0.8494277890128572
vn -0.3731438565641917 0.3731438565641913 0.8494276453099486
vn 0.3731438565641917 -0.3731438565641913 -0.8494276453099486
vn -0.7071067811865476 0.7071067811865475 0
vn 0.7071067811865476 -0.7071067811865475 0
vn -0.8660253595217485 -0.5000000766652202 0
vn 0.8660253595217485 0.5000000766652202 0
vn -0.13658051151383224 -0.5097242673656585 0.8494274160475176
vn 0.13658051151383224 0.5097242673656585 -0.8494274160475176
vn 0.37314385656419174 -0.3731438565641919 0.8494276453099486
vn -0.37314385656419174 0.3731438565641919 -0.8494276453099486
vn 0 -1 0
vn -0.25881885008953853 -0.9659258785426182 0
vn 0.25881885008953853 0.9659258785426182 0
vn 0 1 0
vn 0.25881885008953853 -0.9659258785426182 0
vn -0.25881885008953853 0.9659258785426182 0
vn -0.37314385656419174 -0.37314385656419197 0.8494276453099484
vn 0.37314385656419174 0.37314385656419197 -0.8494276453099484
vn 0.5000000766652203 -0.8660253595217486 0
vn -0.5000000766652203 0.8660253595217486 0
vn -0.263852591876939 0.4570057341134246 0.8494277890128574
vn 0.263852591876939 -0.4570057341134246 -0.8494277890128574
vn -0.5000000766652201 -0.8660253595217486 0
vn 0.5000000766652201 0.8660253595217486 0
vn -0.7071067811865475 -0.7071067811865476 0
vn 0.7071067811865475 0.7071067811865476 0
vn -0.263852591876939 -0.45700573411342504 0.849427789012857
vn 0.263852591876939 0.45700573411342504 -0.849427789012857
vn 0.4570057341134249 -0.2638525918769391 0.8494277890128572
vn -0.4570057341134249 0.2638525918769391 -0.8494277890128572
vn -0.13658051151383224 0.509724267365658 0.8494274160475179
vn 0.13658051151383224 -0.509724267365658 -0.8494274160475179
vn 0.5097242673656582 -0.13658051151383235 0.8494274160475177
vn -0.5097242673656582 0.13658051151383235 -0.8494274160475177
vn 0 0.5277050967595928 0.8494276489813294
vn 0 -0.5277050967595928 -0.8494276489813294
vn 0.5277050967595931 0 0.8494276489813294
vn -0.5277050967595931 0 -0.8494276489813294
vn 0.13658051151383221 0.5097242673656581 0.8494274160475179
vn -0.13658051151383221 -0.5097242673656581 -0.8494274160475179
vn 0.5097242673656582 0.13658051151383213 0.8494274160475177
vn -0.5097242673656582 -0.13658051151383213 -0.8494274160475177
vn 0.26385259187693894 0.45700573411342466 0.8494277890128574
vn -0.26385259187693894 -0.45700573411342466 -0.8494277890128574
vn 0.4570057341134247 0.2638525918769388 0.8494277890128572
vn -0.4570057341134247 -0.2638525918769388 -0.8494277890128572
vn 0.3731438565641916 0.37314385656419147 0.8494276453099486
vn -0.3731438565641916 -0.37314385656419147 -0.8494276453099486
usemtl material_0_0
f 1//1 2//2 3//1
f 2//2 1//1 4//2
f 3//3 2//4 1//3
f 4//4 1//3 2//4
f 2//5 5//6 3//6
f 3//7 5//7 2//8
f 3//1 6//9 1//1
f 1//3 6//10 3//3
f 1//11 7//11 4//11
f 4//12 7//12 1//12
f 4//2 8//13 2//2
f 2//4 8//14 4//4
f 5//6 2//5 9//5
f 9//8 2//8 5//7
f 10//15 3//6 5//6
f 5//7 3//7 10//16
f 6//9 3//1 11//9
f 11//10 3//3 6//10
f 6//11 12//11 1//11
f 1//12 12//12 6//12
f 1//11 12//11 7//11
f 7//12 12//12 1//12
f 4//11 7//11 13//11
f 13//12 7//12 4//12
f 8//13 4//2 14//13
f 14//14 4//4 8//14
f 15//17 2//5 8//17
f 8//18 2//8 15//18
f 2//5 15//17 9//5
f 9//8 15//18 2//8
f 16//12 5//12 9//12
f 9//11 5//11 16//11
f 3//6 10//15 11//15
f 11//16 10//16 3//7
f 17//12 10//12 5//12
f 5//11 10//11 17//11
f 11//9 18//19 6//9
f 6//10 18//20 11//10
f 6//11 19//11 12//11
f 12//12 19//12 6//12
f 12//21 20//22 7//22
f 7//23 20//23 12//24
f 7//22 21//25 13//25
f 13//26 21//26 7//23
f 4//11 13//11 14//11
f 14//12 13//12 4//12
f 14//13 22//27 8//13
f 8//14 22//28 14//14
f 8//17 23//29 15//17
f 15//18 23//30 8//18
f 24//12 9//12 15//12
f 15//11 9//11 24//11
f 17//12 5//12 16//12
f 16//11 5//11 17//11
f 16//12 9//12 25//12
f 25//11 9//11 16//11
f 26//31 11//15 10//15
f 10//16 11//16 26//32
f 17//12 26//12 10//12
f 10//11 26//11 17//11
f 18//19 11//9 27//19
f 27//20 11//10 18//20
f 18//11 19//11 6//11
f 6//12 19//12 18//12
f 19//33 28//21 12//21
f 12//24 28//24 19//34
f 20//22 12//21 28//21
f 28//24 12//24 20//23
f 21//25 7//22 20//22
f 20//23 7//23 21//26
f 29//35 13//25 21//25
f 21//26 13//26 29//36
f 14//11 13//11 30//11
f 30//12 13//12 14//12
f 22//27 14//13 30//27
f 30//28 14//14 22//28
f 23//29 8//17 22//29
f 22//30 8//18 23//30
f 24//12 15//12 23//12
f 23//11 15//11 24//11
f 25//12 9//12 24//12
f 24//11 9//11 25//11
f 16//37 31//38 17//38
f 17//39 31//39 16//40
f 25//41 28//37 16//37
f 16//40 28//40 25//42
f 11//15 26//31 27//31
f 27//32 26//32 11//16
f 32//12 26//12 17//12
f 17//11 26//11 32//11
f 27//19 33//43 18//19
f 18//20 33//44 27//20
f 18//11 34//11 19//11
f 19//12 34//12 18//12
f 28//21 19//33 31//33
f 31//34 19//34 28//24
f 28//37 25//41 20//41
f 20//42 25//42 28//40
f 25//41 21//45 20//41
f 20//42 21//46 25//42
f 13//25 29//35 35//35
f 35//36 29//36 13//26
f 21//45 36//30 29//30
f 29//29 36//29 21//46
f 30//11 13//11 35//11
f 35//12 13//12 30//12
f 37//47 22//27 30//27
f 30//28 22//28 37//48
f 38//46 23//29 22//29
f 22//30 23//30 38//45
f 24//12 23//12 36//12
f 36//11 23//11 24//11
f 21//45 25//41 24//45
f 24//46 25//42 21//46
f 31//38 16//37 28//37
f 28//40 16//40 31//39
f 39//49 17//38 31//38
f 31//39 17//39 39//50
f 40//51 27//31 26//31
f 26//32 27//32 40//52
f 26//12 32//12 40//12
f 40//11 32//11 26//11
f 17//38 39//49 32//49
f 32//50 39//50 17//39
f 33//43 27//19 41//43
f 41//44 27//20 33//44
f 34//11 18//11 33//11
f 33//12 18//12 34//12
f 34//53 31//33 19//33
f 19//34 31//34 34//54
f 42//55 35//35 29//35
f 29//36 35//36 42//56
f 36//30 21//45 24//45
f 24//46 21//46 36//29
f 36//30 42//18 29//30
f 29//29 42//17 36//29
f 30//11 35//11 37//11
f 37//12 35//12 30//12
f 22//27 37//47 38//47
f 38//48 37//48 22//28
f 23//29 38//46 43//46
f 43//45 38//45 23//30
f 36//12 23//12 44//12
f 44//11 23//11 36//11
f 31//33 34//53 39//53
f 39//54 34//54 31//34
f 27//31 40//51 41//51
f 41//52 40//52 27//32
f 32//49 41//51 40//51
f 40//52 41//52 32//50
f 41//51 32//49 39//49
f 39//50 32//50 41//52
f 39//53 33//43 41//43
f 41//44 33//44 39//54
f 33//43 39//53 34//53
f 34//54 39//54 33//44
f 35//35 42//55 45//55
f 45//56 42//56 35//36
f 42//18 36//30 44//18
f 44//17 36//29 42//17
f 37//11 35//11 45//11
f 45//12 35//12 37//12
f 46//57 38//47 37//47
f 37//48 38//48 46//58
f 38//46 47//42 43//46
f 43//45 47//41 38//45
f 44//12 23//12 43//12
f 43//11 23//11 44//11
f 42//55 48//59 45//55
f 45//56 48//60 42//56
f 49//8 42//18 44//18
f 44//17 42//17 49//5
f 37//11 45//11 48//11
f 48//12 45//12 37//12
f 38//47 46//57 50//57
f 50//58 46//58 38//48
f 37//11 48//11 46//11
f 46//12 48//12 37//12
f 47//42 38//46 50//42
f 50//41 38//45 47//41
f 44//12 43//12 47//12
f 47//11 43//11 44//11
f 48//59 42//55 51//59
f 51//60 42//56 48//60
f 42//18 49//8 51//8
f 51//5 49//5 42//17
f 44//12 47//12 49//12
f 49//11 47//11 44//11
f 52//61 50//57 46//57
f 46//58 50//58 52//62
f 46//11 48//11 53//11
f 53//12 48//12 46//12
f 50//42 54//40 47//42
f 47//41 54//37 50//41
f 51//59 53//63 48//59
f 48//60 53//64 51//60
f 49//8 55//7 51//8
f 51//5 55//6 49//5
f 49//12 47//12 56//12
f 56//11 47//11 49//11
f 50//57 52//61 57//61
f 57//62 52//62 50//58
f 46//11 53//11 52//11
f 52//12 53//12 46//12
f 54//40 50//42 57//40
f 57//37 50//41 54//37
f 56//12 47//12 54//12
f 54//11 47//11 56//11
f 53//63 51//59 55//63
f 55//64 51//60 53//64
f 55//7 49//8 56//7
f 56//6 49//5 55//6
f 58//65 57//61 52//61
f 52//62 57//62 58//66
f 52//11 53//11 59//11
f 59//12 53//12 52//12
f 57//40 60//39 54//40
f 54//37 60//38 57//37
f 56//12 54//12 60//12
f 60//11 54//11 56//11
f 55//63 59//67 53//63
f 53//64 59//68 55//64
f 56//7 61//16 55//7
f 55//6 61//15 56//6
f 57//61 58//65 62//65
f 62//66 58//66 57//62
f 52//11 59//11 58//11
f 58//12 59//12 52//12
f 60//39 57//40 62//39
f 62//38 57//37 60//38
f 56//12 60//12 63//12
f 63//11 60//11 56//11
f 59//67 55//63 61//67
f 61//68 55//64 59//68
f 61//16 56//7 63//16
f 63//15 56//6 61//15
f 64//69 62//65 58//65
f 58//66 62//66 64//70
f 58//11 59//11 64//11
f 64//12 59//12 58//12
f 62//39 65//50 60//39
f 60//38 65//49 62//38
f 63//12 60//12 65//12
f 65//11 60//11 63//11
f 61//67 66//71 59//67
f 59//68 66//72 61//68
f 63//16 67//32 61//16
f 61//15 67//31 63//15
f 62//65 64//69 68//69
f 68//70 64//70 62//66
f 64//11 59//11 66//11
f 66//12 59//12 64//12
f 65//50 62//39 68//50
f 68//49 62//38 65//49
f 63//12 65//12 69//12
f 69//11 65//11 63//11
f 66//71 61//67 67//71
f 67//72 61//68 66//72
f 67//32 63//16 69//32
f 69//31 63//15 67//31
f 70//73 68//69 64//69
f 64//70 68//70 70//74
f 64//11 66//11 70//11
f 70//12 66//12 64//12
f 68//50 71//52 65//50
f 65//49 71//51 68//49
f 69//12 65//12 71//12
f 71//11 65//11 69//11
f 67//71 70//73 66//71
f 66//72 70//74 67//72
f 69//32 72//52 67//32
f 67//31 72//51 69//31
f 68//69 70//73 72//73
f 72//74 70//74 68//70
f 71//52 68//50 72//52
f 72//51 68//49 71//51
f 72//52 69//32 71//52
f 71//51 69//31 72//51
f 70//73 67//71 72//73
f 72//74 67//72 70//74
