# SSTK version 0.8.0
# 14
mtllib original-14.mtl
o #ID96
v 0.198486 0.071406 -0.667046
v 0.190076 0.069957 -0.656057
v 0.190024 0.071399 -0.667006
v 0.198538 0.069964 -0.656096
v 0.198538 0.069964 -0.656096
v 0.198486 0.071406 -0.667046
v 0.190076 0.069957 -0.656057
v 0.190024 0.071399 -0.667006
v 0.198435 0.075633 -0.677249
v 0.189973 0.075626 -0.677209
v 0.198435 0.075633 -0.677249
v 0.189973 0.075626 -0.677209
v 0.19867 0.08323 -0.625507
v 0.198362 0.112269 -0.68669
v 0.198648 0.112267 -0.625499
v 0.198668 0.082355 -0.62618
v 0.198632 0.075631 -0.634943
v 0.198588 0.071405 -0.645146
v 0.198538 0.069964 -0.656096
v 0.198486 0.071406 -0.667046
v 0.198435 0.075633 -0.677249
v 0.198388 0.082356 -0.686011
v 0.198385 0.08323 -0.686696
v 0.198385 0.08323 -0.686696
v 0.198388 0.082356 -0.686011
v 0.198362 0.112269 -0.68669
v 0.198435 0.075633 -0.677249
v 0.198486 0.071406 -0.667046
v 0.198538 0.069964 -0.656096
v 0.198588 0.071405 -0.645146
v 0.198632 0.075631 -0.634943
v 0.198668 0.082355 -0.62618
v 0.19867 0.08323 -0.625507
v 0.198648 0.112267 -0.625499
v 0.190127 0.071399 -0.645106
v 0.198588 0.071405 -0.645146
v 0.198588 0.071405 -0.645146
v 0.190127 0.071399 -0.645106
v 0.198388 0.082356 -0.686011
v 0.189927 0.08235 -0.685972
v 0.198388 0.082356 -0.686011
v 0.189927 0.08235 -0.685972
v 0.189923 0.083239 -0.686654
v 0.198385 0.08323 -0.686696
v 0.198385 0.08323 -0.686696
v 0.189923 0.083239 -0.686654
v 0.198385 0.08323 -0.686696
v 0.198322 0.101907 -0.697037
v 0.198362 0.112269 -0.68669
v 0.19835 0.091102 -0.692737
v 0.198323 0.101306 -0.696964
v 0.198323 0.101306 -0.696964
v 0.19835 0.091102 -0.692737
v 0.198322 0.101907 -0.697037
v 0.198385 0.08323 -0.686696
v 0.198362 0.112269 -0.68669
v 0.198648 0.112267 -0.625499
v 0.198622 0.142186 -0.626178
v 0.198626 0.141299 -0.625485
v 0.198362 0.112269 -0.68669
v 0.198576 0.14891 -0.63494
v 0.198525 0.153137 -0.645144
v 0.198522 0.153209 -0.64574
v 0.198522 0.153209 -0.64574
v 0.198362 0.112269 -0.68669
v 0.198525 0.153137 -0.645144
v 0.198576 0.14891 -0.63494
v 0.198622 0.142186 -0.626178
v 0.198648 0.112267 -0.625499
v 0.198626 0.141299 -0.625485
v 0.198705 0.101312 -0.615225
v 0.198648 0.112267 -0.625499
v 0.198703 0.112267 -0.613774
v 0.198693 0.091108 -0.619452
v 0.19867 0.08323 -0.625507
v 0.19867 0.08323 -0.625507
v 0.198693 0.091108 -0.619452
v 0.198648 0.112267 -0.625499
v 0.198705 0.101312 -0.615225
v 0.198703 0.112267 -0.613774
v 0.198668 0.082355 -0.62618
v 0.190209 0.083233 -0.625462
v 0.190207 0.082348 -0.626141
v 0.19867 0.08323 -0.625507
v 0.19867 0.08323 -0.625507
v 0.198668 0.082355 -0.62618
v 0.190209 0.083233 -0.625462
v 0.190207 0.082348 -0.626141
v 0.198632 0.075631 -0.634943
v 0.190171 0.075625 -0.634903
v 0.198632 0.075631 -0.634943
v 0.190171 0.075625 -0.634903
v 0.19835 0.091102 -0.692737
v 0.189889 0.091112 -0.692694
v 0.189889 0.091112 -0.692694
v 0.19835 0.091102 -0.692737
v 0.198323 0.101306 -0.696964
v 0.189861 0.101316 -0.696921
v 0.189861 0.101316 -0.696921
v 0.198323 0.101306 -0.696964
v 0.198322 0.101907 -0.697037
v 0.18986 0.101918 -0.697
v 0.18986 0.101918 -0.697
v 0.198322 0.101907 -0.697037
v 0.198307 0.112252 -0.698401
v 0.198362 0.112269 -0.68669
v 0.198322 0.101907 -0.697037
v 0.198322 0.101907 -0.697037
v 0.198362 0.112269 -0.68669
v 0.198307 0.112252 -0.698401
v 0.198362 0.112269 -0.68669
v 0.198472 0.154566 -0.656088
v 0.198522 0.153209 -0.64574
v 0.198422 0.153125 -0.667037
v 0.198378 0.148899 -0.677241
v 0.198342 0.142176 -0.686004
v 0.19834 0.141292 -0.686681
v 0.19834 0.141292 -0.686681
v 0.198362 0.112269 -0.68669
v 0.198342 0.142176 -0.686004
v 0.198378 0.148899 -0.677241
v 0.198422 0.153125 -0.667037
v 0.198472 0.154566 -0.656088
v 0.198522 0.153209 -0.64574
v 0.190063 0.15313 -0.645104
v 0.198522 0.153209 -0.64574
v 0.19006 0.153209 -0.645704
v 0.198525 0.153137 -0.645144
v 0.198525 0.153137 -0.645144
v 0.190063 0.15313 -0.645104
v 0.198522 0.153209 -0.64574
v 0.19006 0.153209 -0.645704
v 0.190114 0.148903 -0.634901
v 0.198576 0.14891 -0.63494
v 0.198576 0.14891 -0.63494
v 0.190114 0.148903 -0.634901
v 0.19016 0.14218 -0.626139
v 0.198622 0.142186 -0.626178
v 0.198622 0.142186 -0.626178
v 0.19016 0.14218 -0.626139
v 0.198626 0.141299 -0.625485
v 0.190164 0.14129 -0.625456
v 0.198626 0.141299 -0.625485
v 0.190164 0.14129 -0.625456
v 0.198648 0.112267 -0.625499
v 0.198688 0.123222 -0.615218
v 0.198688 0.122626 -0.615143
v 0.19866 0.133426 -0.619445
v 0.198626 0.141299 -0.625485
v 0.198626 0.141299 -0.625485
v 0.198648 0.112267 -0.625499
v 0.19866 0.133426 -0.619445
v 0.198688 0.123222 -0.615218
v 0.198688 0.122626 -0.615143
v 0.198703 0.112267 -0.613774
v 0.190243 0.101314 -0.615191
v 0.198705 0.101312 -0.615225
v 0.190241 0.112264 -0.613748
v 0.190241 0.112264 -0.613748
v 0.198703 0.112267 -0.613774
v 0.190243 0.101314 -0.615191
v 0.198705 0.101312 -0.615225
v 0.190231 0.09111 -0.619417
v 0.198693 0.091108 -0.619452
v 0.190231 0.09111 -0.619417
v 0.198693 0.091108 -0.619452
v 0.198648 0.112267 -0.625499
v 0.198688 0.122626 -0.615143
v 0.198703 0.112267 -0.613774
v 0.198703 0.112267 -0.613774
v 0.198688 0.122626 -0.615143
v 0.198648 0.112267 -0.625499
v 0.198307 0.112252 -0.698401
v 0.189846 0.112266 -0.698362
v 0.189846 0.112266 -0.698362
v 0.198307 0.112252 -0.698401
v 0.198362 0.112269 -0.68669
v 0.198317 0.133417 -0.692724
v 0.19834 0.141292 -0.686681
v 0.198307 0.112252 -0.698401
v 0.198306 0.123213 -0.696951
v 0.198306 0.123213 -0.696951
v 0.198307 0.112252 -0.698401
v 0.198317 0.133417 -0.692724
v 0.198362 0.112269 -0.68669
v 0.19834 0.141292 -0.686681
v 0.189878 0.141296 -0.686649
v 0.198342 0.142176 -0.686004
v 0.19834 0.141292 -0.686681
v 0.189881 0.142181 -0.685969
v 0.189881 0.142181 -0.685969
v 0.189878 0.141296 -0.686649
v 0.198342 0.142176 -0.686004
v 0.19834 0.141292 -0.686681
v 0.189916 0.148904 -0.677207
v 0.198378 0.148899 -0.677241
v 0.198378 0.148899 -0.677241
v 0.189916 0.148904 -0.677207
v 0.189961 0.153131 -0.667004
v 0.198422 0.153125 -0.667037
v 0.198422 0.153125 -0.667037
v 0.189961 0.153131 -0.667004
v 0.190011 0.154572 -0.656053
v 0.198472 0.154566 -0.656088
v 0.198472 0.154566 -0.656088
v 0.190011 0.154572 -0.656053
v 0.19866 0.133426 -0.619445
v 0.190199 0.133417 -0.619416
v 0.19866 0.133426 -0.619445
v 0.190199 0.133417 -0.619416
v 0.198688 0.123222 -0.615218
v 0.190226 0.123213 -0.615189
v 0.198688 0.123222 -0.615218
v 0.190226 0.123213 -0.615189
v 0.198688 0.122626 -0.615143
v 0.190227 0.122611 -0.61511
v 0.198688 0.122626 -0.615143
v 0.190227 0.122611 -0.61511
v 0.198306 0.123213 -0.696951
v 0.189844 0.123216 -0.69692
v 0.189844 0.123216 -0.69692
v 0.198306 0.123213 -0.696951
v 0.198317 0.133417 -0.692724
v 0.189856 0.133419 -0.692693
v 0.189856 0.133419 -0.692693
v 0.198317 0.133417 -0.692724
vn -0.00046153510565452084 -0.9659184118339986 -0.25884630317126867
vn 0.0007746457995957451 -0.9999996994781425 -3.1104819983767713e-05
vn -0.0007746457995957451 0.9999996994781425 3.1104819983767713e-05
vn 0.00046153510565452084 0.9659184118339986 0.25884630317126867
vn -0.0016662629818172427 -0.866011390549826 -0.5000214945436167
vn 0.0016662629818172427 0.866011390549826 0.5000214945436167
vn 0.9999887755850659 0.0007747826810835197 -0.00467422888587773
vn -0.9999887755850659 -0.0007747826810835197 0.00467422888587773
vn 0.001958036079341408 -0.9659326391404716 0.25878621048625333
vn -0.001958036079341408 0.9659326391404716 -0.25878621048625333
vn -0.003097151979617394 -0.708921895334528 -0.7052801953584944
vn 0.003097151979617394 0.708921895334528 0.7052801953584944
vn -0.0042955229687893885 -0.610817595561893 -0.7917596942471954
vn -0.004294967930015128 -0.6108205900469105 -0.7917573870986139
vn 0.004294967930015128 0.6108205900469105 0.7917573870986139
vn 0.0042955229687893885 0.610817595561893 0.7917596942471954
vn 0.003806569046545105 -0.707366308649374 0.7068369086429007
vn 0.003836102058905564 -0.6091930093545107 0.7930127121771685
vn 0.0038365178895939087 -0.6091931824688324 0.7930125771789364
vn -0.0038365178895939087 0.6091931824688324 -0.7930125771789364
vn -0.003806569046545105 0.707366308649374 -0.7068369086429007
vn -0.003836102058905564 0.6091930093545107 -0.7930127121771685
vn 0.0030079889618575056 -0.866038889018283 0.49996759366021243
vn -0.0030079889618575056 0.866038889018283 -0.49996759366021243
vn -0.004942133946332864 -0.5001092945692622 -0.8659481905965803
vn -0.004942567985021907 -0.4998880984851255 -0.86607589737542
vn 0.004942567985021907 0.4998880984851255 0.86607589737542
vn 0.004942133946332864 0.5001092945692622 0.8659481905965803
vn -0.005025848157726875 -0.2568281080600714 -0.9664440303300442
vn -0.005025521017841702 -0.2565300009107378 -0.9665232034313694
vn 0.005025521017841702 0.2565300009107378 0.9665232034313694
vn 0.005025848157726875 0.2568281080600714 0.9664440303300442
vn -0.00475545510194415 -0.12838330275219226 -0.9917132212596605
vn -0.004755225216759693 -0.1283893058524308 -0.9917124452057001
vn 0.004755225216759693 0.1283893058524308 0.9917124452057001
vn 0.00475545510194415 0.12838330275219226 0.9917132212596605
vn 0.0006200294295736726 0.96652324610046 0.25657831223806904
vn 0.0005010688219018208 0.9917623433501352 0.12809060559886662
vn 0.0005012554009486995 0.991762201877056 0.12809170024243238
vn -0.0006200294295736726 -0.96652324610046 -0.25657831223806904
vn -0.0005010688219018208 -0.9917623433501352 -0.12809060559886662
vn -0.0005012554009486995 -0.991762201877056 -0.12809170024243238
vn 0.0024572340060485423 0.7086281017443056 0.7055779017367975
vn -0.0024572340060485423 -0.7086281017443056 -0.7055779017367975
vn 0.0023597710266769494 0.6104676069012684 0.7920377089538982
vn 0.00235996897901827 0.6104687945725171 0.792036792958254
vn -0.0023597710266769494 -0.6104676069012684 -0.7920377089538982
vn -0.00235996897901827 -0.6104687945725171 -0.792036792958254
vn 0.003498155910731681 -0.00011791839699087825 0.9999938744814769
vn 0.0037096070378791787 -0.25895930264426004 0.9658811098627113
vn 0.0037096830194024207 -0.25908610135507465 0.965847105051583
vn 0.003498089930820099 -5.368518893829601e-05 0.9999938802236424
vn -0.003498089930820099 5.368518893829601e-05 -0.9999938802236424
vn -0.003498155910731681 0.00011791839699087825 -0.9999938744814769
vn -0.0037096070378791787 0.25895930264426004 -0.9658811098627113
vn -0.0037096830194024207 0.25908610135507465 -0.965847105051583
vn 0.0037005101026208634 -0.5001364138695555 0.8659387240138188
vn 0.003700448992974029 -0.5002179990502458 0.8658915983559482
vn -0.0037005101026208634 0.5001364138695555 -0.8659387240138188
vn -0.003700448992974029 0.5002179990502458 -0.8658915983559482
vn -0.004355386055092008 -7.227867091426501e-05 -0.9999905126490476
vn -0.004354296847922448 0.0003314499884238249 -0.9999904650744753
vn 0.004354296847922448 -0.0003314499884238249 0.9999904650744753
vn 0.004355386055092008 7.227867091426501e-05 0.9999905126490476
vn -0.00272460295808854 0.6087007906366031 -0.7933951877955242
vn -0.0023482449242969643 0.7070259772068014 -0.7071836772017174
vn -0.0027245899581852437 0.6087007906581631 -0.793395187823626
vn -0.0023479551060138827 0.7070900319262321 -0.7071196319275685
vn 0.0023479551060138827 -0.7070900319262321 0.7071196319275685
vn 0.00272460295808854 -0.6087007906366031 0.7933951877955242
vn 0.0023482449242969643 -0.7070259772068014 0.7071836772017174
vn 0.0027245899581852437 -0.6087007906581631 0.793395187823626
vn -0.001425553050548055 0.8660448307087005 -0.4999643177280136
vn -0.0014256420454774744 0.8660332276261521 -0.49998441594932513
vn 0.0014256420454774744 -0.8660332276261521 0.49998441594932513
vn 0.001425553050548055 -0.8660448307087005 0.4999643177280136
vn -0.00039348569104027666 0.9659267780057142 -0.2588151941067424
vn -0.0003933012968828744 0.965938592344414 -0.258771097949099
vn 0.0003933012968828744 -0.965938592344414 0.258771097949099
vn 0.00039348569104027666 -0.9659267780057142 0.2588151941067424
vn 0.0004958941817643335 0.9999998632267029 -0.00016623939388682853
vn 0.000496196687784301 0.9999998753813404 -5.5010458645716075e-05
vn -0.000496196687784301 -0.9999998753813404 5.5010458645716075e-05
vn -0.0004958941817643335 -0.9999998632267029 0.00016623939388682853
vn 0.0024393689929739855 0.4999465985600244 0.8660527975055436
vn 0.0024391989881549303 0.5000028975719205 0.8660202957944921
vn -0.0024393689929739855 -0.4999465985600244 -0.8660527975055436
vn -0.0024391989881549303 -0.5000028975719205 -0.8660202957944921
vn 0.0031343130950676167 0.25748080780971333 0.9662783293084242
vn 0.003134287141425718 0.2574905116185209 0.9662757436004216
vn -0.0031343130950676167 -0.25748080780971333 -0.9662783293084242
vn -0.003134287141425718 -0.2574905116185209 -0.9662757436004216
vn 0.0033935971768832853 0.12928130673848456 0.991602151684934
vn 0.0033935348560129364 0.12928279451455466 0.9916019579265102
vn -0.0033935971768832853 -0.12928130673848456 -0.991602151684934
vn -0.0033935348560129364 -0.12928279451455466 -0.9916019579265102
vn -0.0036272151441704595 0.2589376102919603 -0.9658872383909972
vn -0.0036268521334321103 0.25906180953089974 -0.965853935533825
vn 0.0036268521334321103 -0.25906180953089974 0.965853935533825
vn 0.0036272151441704595 -0.2589376102919603 0.9658872383909972
vn -0.0029907459164901853 0.4999879860389665 -0.8660271758181501
vn -0.002990607926979255 0.5000473877904982 -0.8659928788553206
vn 0.002990607926979255 -0.5000473877904982 0.8659928788553206
vn 0.0029907459164901853 -0.4999879860389665 0.8660271758181501
usemtl material_0_0
f 1//1 2//2 3//1
f 2//2 1//1 4//2
f 5//3 6//4 7//3
f 8//4 7//3 6//4
f 9//5 3//1 10//5
f 3//1 9//5 1//1
f 6//4 11//6 8//4
f 12//6 8//4 11//6
f 13//7 14//7 15//7
f 14//7 13//7 16//7
f 14//7 16//7 17//7
f 14//7 17//7 18//7
f 14//7 18//7 19//7
f 14//7 19//7 20//7
f 14//7 20//7 21//7
f 14//7 21//7 22//7
f 14//7 22//7 23//7
f 24//8 25//8 26//8
f 25//8 27//8 26//8
f 27//8 28//8 26//8
f 28//8 29//8 26//8
f 29//8 30//8 26//8
f 30//8 31//8 26//8
f 31//8 32//8 26//8
f 32//8 33//8 26//8
f 34//8 26//8 33//8
f 4//2 35//9 2//2
f 35//9 4//2 36//9
f 37//10 5//3 38//10
f 7//3 38//10 5//3
f 39//11 10//5 40//11
f 10//5 39//11 9//5
f 11//6 41//12 12//6
f 42//12 12//6 41//12
f 43//13 39//11 40//11
f 39//11 43//13 44//14
f 45//15 46//16 41//12
f 42//12 41//12 46//16
f 47//7 48//7 49//7
f 48//7 47//7 50//7
f 48//7 50//7 51//7
f 52//8 53//8 54//8
f 53//8 55//8 54//8
f 56//8 54//8 55//8
f 57//7 58//7 59//7
f 58//7 57//7 60//7
f 58//7 60//7 61//7
f 61//7 60//7 62//7
f 62//7 60//7 63//7
f 64//8 65//8 66//8
f 66//8 65//8 67//8
f 67//8 65//8 68//8
f 65//8 69//8 68//8
f 70//8 68//8 69//8
f 71//7 72//7 73//7
f 72//7 71//7 74//7
f 72//7 74//7 75//7
f 76//8 77//8 78//8
f 77//8 79//8 78//8
f 80//8 78//8 79//8
f 81//17 82//18 83//17
f 82//18 81//17 84//19
f 85//20 86//21 87//22
f 88//21 87//22 86//21
f 89//23 83//17 90//23
f 83//17 89//23 81//17
f 86//21 91//24 88//21
f 92//24 88//21 91//24
f 36//9 90//23 35//9
f 90//23 36//9 89//23
f 91//24 37//10 92//24
f 38//10 92//24 37//10
f 43//13 93//25 44//14
f 93//25 43//13 94//26
f 95//27 46//16 96//28
f 45//15 96//28 46//16
f 94//26 97//29 93//25
f 97//29 94//26 98//30
f 99//31 95//27 100//32
f 96//28 100//32 95//27
f 98//30 101//33 97//29
f 101//33 98//30 102//34
f 103//35 99//31 104//36
f 100//32 104//36 99//31
f 105//7 106//7 107//7
f 108//8 109//8 110//8
f 111//7 112//7 113//7
f 112//7 111//7 114//7
f 114//7 111//7 115//7
f 115//7 111//7 116//7
f 116//7 111//7 117//7
f 118//8 119//8 120//8
f 120//8 119//8 121//8
f 121//8 119//8 122//8
f 122//8 119//8 123//8
f 124//8 123//8 119//8
f 125//37 126//38 127//39
f 126//38 125//37 128//37
f 129//40 130//40 131//41
f 132//42 131//41 130//40
f 133//6 128//37 125//37
f 128//37 133//6 134//6
f 135//5 136//5 129//40
f 130//40 129//40 136//5
f 137//43 134//6 133//6
f 134//6 137//43 138//43
f 139//44 140//44 135//5
f 136//5 135//5 140//44
f 141//45 137//43 142//46
f 137//43 141//45 138//43
f 139//44 143//47 140//44
f 144//48 140//44 143//47
f 145//7 146//7 147//7
f 146//7 145//7 148//7
f 148//7 145//7 149//7
f 150//8 151//8 152//8
f 152//8 151//8 153//8
f 154//8 153//8 151//8
f 155//49 156//50 157//51
f 156//50 155//49 158//52
f 159//53 160//54 161//55
f 162//56 161//55 160//54
f 157//51 163//57 164//58
f 163//57 157//51 156//50
f 161//55 162//56 165//59
f 166//60 165//59 162//56
f 164//58 82//18 84//19
f 82//18 164//58 163//57
f 165//59 166//60 87//22
f 85//20 87//22 166//60
f 167//7 168//7 169//7
f 170//8 171//8 172//8
f 102//34 173//61 101//33
f 173//61 102//34 174//62
f 175//63 103//35 176//64
f 104//36 176//64 103//35
f 177//7 178//7 179//7
f 178//7 177//7 180//7
f 178//7 180//7 181//7
f 182//8 183//8 184//8
f 183//8 185//8 184//8
f 186//8 184//8 185//8
f 187//65 188//66 189//67
f 188//66 187//65 190//68
f 191//69 192//70 193//71
f 194//72 193//71 192//70
f 195//73 188//66 190//68
f 188//66 195//73 196//74
f 197//75 198//76 193//71
f 191//69 193//71 198//76
f 199//77 196//74 195//73
f 196//74 199//77 200//78
f 201//79 202//80 197//75
f 198//76 197//75 202//80
f 203//81 200//78 199//77
f 200//78 203//81 204//82
f 205//83 206//84 201//79
f 202//80 201//79 206//84
f 127//39 204//82 203//81
f 204//82 127//39 126//38
f 131//41 132//42 205//83
f 206//84 205//83 132//42
f 207//85 142//46 208//86
f 142//46 207//85 141//45
f 143//47 209//87 144//48
f 210//88 144//48 209//87
f 211//89 208//86 212//90
f 208//86 211//89 207//85
f 209//87 213//91 210//88
f 214//92 210//88 213//91
f 215//93 212//90 216//94
f 212//90 215//93 211//89
f 213//91 217//95 214//92
f 218//96 214//92 217//95
f 155//49 216//94 158//52
f 216//94 155//49 215//93
f 217//95 160//54 218//96
f 159//53 218//96 160//54
f 174//62 219//97 173//61
f 219//97 174//62 220//98
f 221//99 175//63 222//100
f 176//64 222//100 175//63
f 220//98 223//101 219//97
f 223//101 220//98 224//102
f 225//103 221//99 226//104
f 222//100 226//104 221//99
f 224//102 189//67 223//101
f 189//67 224//102 187//65
f 192//70 225//103 194//72
f 226//104 194//72 225//103
