# SSTK version 0.8.0
# 7
mtllib original-7.mtl
o #ID52
v 0.018503 -0.123672 0.718007
v 0.017746 -0.126507 0.723756
v 0.017746 -0.123672 0.723756
v 0.018503 -0.126507 0.718007
v 0.018503 -0.126507 0.718007
v 0.018503 -0.123672 0.718007
v 0.017746 -0.126507 0.723756
v 0.017746 -0.123672 0.723756
v 0.017746 -0.123672 0.712259
v 0.017746 -0.126507 0.712259
v 0.017746 -0.126507 0.712259
v 0.017746 -0.123672 0.712259
v -0.025163 -0.126507 0.723756
v -0.025163 -0.126507 0.712259
v -0.02592 -0.126507 0.718007
v -0.022944 -0.126507 0.729113
v -0.022944 -0.126507 0.706902
v -0.019414 -0.126507 0.733713
v -0.019414 -0.126507 0.702302
v -0.014814 -0.126507 0.737243
v -0.014814 -0.126507 0.698772
v -0.009457 -0.126507 0.739462
v -0.009457 -0.126507 0.696553
v -0.003709 -0.126507 0.740219
v -0.003709 -0.126507 0.695796
v 0.00204 -0.126507 0.739462
v 0.00204 -0.126507 0.696553
v 0.007397 -0.126507 0.737243
v 0.007397 -0.126507 0.698772
v 0.011997 -0.126507 0.733713
v 0.011997 -0.126507 0.702302
v 0.015527 -0.126507 0.729113
v 0.015527 -0.126507 0.706902
v 0.017746 -0.126507 0.723756
v 0.017746 -0.126507 0.712259
v 0.018503 -0.126507 0.718007
v 0.018503 -0.126507 0.718007
v 0.017746 -0.126507 0.723756
v 0.017746 -0.126507 0.712259
v 0.015527 -0.126507 0.706902
v 0.015527 -0.126507 0.729113
v 0.011997 -0.126507 0.702302
v 0.011997 -0.126507 0.733713
v 0.007397 -0.126507 0.698772
v 0.007397 -0.126507 0.737243
v 0.00204 -0.126507 0.696553
v 0.00204 -0.126507 0.739462
v -0.003709 -0.126507 0.695796
v -0.003709 -0.126507 0.740219
v -0.009457 -0.126507 0.696553
v -0.009457 -0.126507 0.739462
v -0.014814 -0.126507 0.698772
v -0.014814 -0.126507 0.737243
v -0.019414 -0.126507 0.702302
v -0.019414 -0.126507 0.733713
v -0.022944 -0.126507 0.706902
v -0.022944 -0.126507 0.729113
v -0.025163 -0.126507 0.712259
v -0.025163 -0.126507 0.723756
v -0.02592 -0.126507 0.718007
v 0.015527 -0.126507 0.729113
v 0.015527 -0.123672 0.729113
v 0.015527 -0.126507 0.729113
v 0.015527 -0.123672 0.729113
v 0.015527 -0.123672 0.706902
v 0.015527 -0.126507 0.706902
v 0.015527 -0.126507 0.706902
v 0.015527 -0.123672 0.706902
v 0.011997 -0.123672 0.702302
v 0.011997 -0.126507 0.702302
v 0.011997 -0.126507 0.702302
v 0.011997 -0.123672 0.702302
v 0.007397 -0.126507 0.698772
v 0.007397 -0.123672 0.698772
v 0.007397 -0.123672 0.698772
v 0.007397 -0.126507 0.698772
v 0.00204 -0.126507 0.696553
v 0.00204 -0.123672 0.696553
v 0.00204 -0.123672 0.696553
v 0.00204 -0.126507 0.696553
v -0.003709 -0.126507 0.695796
v -0.003709 -0.123672 0.695796
v -0.003709 -0.123672 0.695796
v -0.003709 -0.126507 0.695796
v -0.009457 -0.126507 0.696553
v -0.009457 -0.123672 0.696553
v -0.009457 -0.123672 0.696553
v -0.009457 -0.126507 0.696553
v -0.014814 -0.126507 0.698772
v -0.014814 -0.123672 0.698772
v -0.014814 -0.123672 0.698772
v -0.014814 -0.126507 0.698772
v -0.019414 -0.126507 0.702302
v -0.019414 -0.123672 0.702302
v -0.019414 -0.123672 0.702302
v -0.019414 -0.126507 0.702302
v -0.022944 -0.123672 0.706902
v -0.022944 -0.126507 0.706902
v -0.022944 -0.123672 0.706902
v -0.022944 -0.126507 0.706902
v -0.025163 -0.123672 0.712259
v -0.025163 -0.126507 0.712259
v -0.025163 -0.123672 0.712259
v -0.025163 -0.126507 0.712259
v -0.02592 -0.123672 0.718007
v -0.02592 -0.126507 0.718007
v -0.02592 -0.123672 0.718007
v -0.02592 -0.126507 0.718007
v -0.025163 -0.123672 0.723756
v -0.025163 -0.126507 0.723756
v -0.025163 -0.123672 0.723756
v -0.025163 -0.126507 0.723756
v -0.022944 -0.123672 0.729113
v -0.022944 -0.126507 0.729113
v -0.022944 -0.123672 0.729113
v -0.022944 -0.126507 0.729113
v -0.019414 -0.123672 0.733713
v -0.019414 -0.126507 0.733713
v -0.019414 -0.123672 0.733713
v -0.019414 -0.126507 0.733713
v -0.014814 -0.126507 0.737243
v -0.014814 -0.123672 0.737243
v -0.014814 -0.123672 0.737243
v -0.014814 -0.126507 0.737243
v -0.009457 -0.126507 0.739462
v -0.009457 -0.123672 0.739462
v -0.009457 -0.123672 0.739462
v -0.009457 -0.126507 0.739462
v -0.003709 -0.126507 0.740219
v -0.003709 -0.123672 0.740219
v -0.003709 -0.123672 0.740219
v -0.003709 -0.126507 0.740219
v 0.00204 -0.126507 0.739462
v 0.00204 -0.123672 0.739462
v 0.00204 -0.123672 0.739462
v 0.00204 -0.126507 0.739462
v 0.007397 -0.126507 0.737243
v 0.007397 -0.123672 0.737243
v 0.007397 -0.123672 0.737243
v 0.007397 -0.126507 0.737243
v 0.011997 -0.126507 0.733713
v 0.011997 -0.123672 0.733713
v 0.011997 -0.123672 0.733713
v 0.011997 -0.126507 0.733713
vn -1.0 0.0 0.0
vn -0.9659258358036645 0.0 -0.25881900959356163
vn 1.0 0.0 0.0
vn 0.9659258358036645 0.0 0.25881900959356163
vn -0.9659258358036645 0.0 0.25881900959356163
vn 0.9659258358036645 0.0 -0.25881900959356163
vn 0.0 1.0 0.0
vn 0.0 -1.0 0.0
vn -0.866025402838329 0.0 -0.5000000016387101
vn 0.866025402838329 0.0 0.5000000016387101
vn -0.866025402838329 0.0 0.5000000016387101
vn 0.866025402838329 0.0 -0.5000000016387101
vn -0.7071067811865476 0.0 0.7071067811865476
vn 0.7071067811865476 0.0 -0.7071067811865476
vn -0.5000000016387101 0.0 0.866025402838329
vn 0.5000000016387101 0.0 -0.866025402838329
vn -0.25881900959356163 0.0 0.9659258358036645
vn 0.25881900959356163 0.0 -0.9659258358036645
vn 0.0 0.0 1.0
vn 0.0 0.0 -1.0
vn 0.25881900959356163 0.0 0.9659258358036645
vn -0.25881900959356163 0.0 -0.9659258358036645
vn 0.5000000016387101 0.0 0.866025402838329
vn -0.5000000016387101 0.0 -0.866025402838329
vn 0.7071067811865476 0.0 0.7071067811865476
vn -0.7071067811865476 0.0 -0.7071067811865476
usemtl material_0_0
f 1//1 2//2 3//2
f 2//2 1//1 4//1
f 5//3 6//3 7//4
f 8//4 7//4 6//3
f 9//5 4//1 1//1
f 4//1 9//5 10//5
f 11//6 12//6 5//3
f 6//3 5//3 12//6
f 13//7 14//7 15//7
f 14//7 13//7 16//7
f 14//7 16//7 17//7
f 17//7 16//7 18//7
f 17//7 18//7 19//7
f 19//7 18//7 20//7
f 19//7 20//7 21//7
f 21//7 20//7 22//7
f 21//7 22//7 23//7
f 23//7 22//7 24//7
f 23//7 24//7 25//7
f 25//7 24//7 26//7
f 25//7 26//7 27//7
f 27//7 26//7 28//7
f 27//7 28//7 29//7
f 29//7 28//7 30//7
f 29//7 30//7 31//7
f 31//7 30//7 32//7
f 31//7 32//7 33//7
f 33//7 32//7 34//7
f 33//7 34//7 35//7
f 35//7 34//7 36//7
f 37//8 38//8 39//8
f 39//8 38//8 40//8
f 38//8 41//8 40//8
f 40//8 41//8 42//8
f 41//8 43//8 42//8
f 42//8 43//8 44//8
f 43//8 45//8 44//8
f 44//8 45//8 46//8
f 45//8 47//8 46//8
f 46//8 47//8 48//8
f 47//8 49//8 48//8
f 48//8 49//8 50//8
f 49//8 51//8 50//8
f 50//8 51//8 52//8
f 51//8 53//8 52//8
f 52//8 53//8 54//8
f 53//8 55//8 54//8
f 54//8 55//8 56//8
f 55//8 57//8 56//8
f 56//8 57//8 58//8
f 57//8 59//8 58//8
f 60//8 58//8 59//8
f 3//2 61//9 62//9
f 61//9 3//2 2//2
f 7//4 8//4 63//10
f 64//10 63//10 8//4
f 65//11 10//5 9//5
f 10//5 65//11 66//11
f 67//12 68//12 11//6
f 12//6 11//6 68//12
f 69//13 66//11 65//11
f 66//11 69//13 70//13
f 71//14 72//14 67//12
f 68//12 67//12 72//14
f 69//13 73//15 70//13
f 73//15 69//13 74//15
f 75//16 72//14 76//16
f 71//14 76//16 72//14
f 74//15 77//17 73//15
f 77//17 74//15 78//17
f 79//18 75//16 80//18
f 76//16 80//18 75//16
f 78//17 81//19 77//17
f 81//19 78//17 82//19
f 83//20 79//18 84//20
f 80//18 84//20 79//18
f 82//19 85//21 81//19
f 85//21 82//19 86//21
f 87//22 83//20 88//22
f 84//20 88//22 83//20
f 86//21 89//23 85//21
f 89//23 86//21 90//23
f 91//24 87//22 92//24
f 88//22 92//24 87//22
f 90//23 93//25 89//23
f 93//25 90//23 94//25
f 95//26 91//24 96//26
f 92//24 96//26 91//24
f 93//25 97//10 98//10
f 97//10 93//25 94//25
f 95//26 96//26 99//9
f 100//9 99//9 96//26
f 98//10 101//4 102//4
f 101//4 98//10 97//10
f 99//9 100//9 103//2
f 104//2 103//2 100//9
f 102//4 105//3 106//3
f 105//3 102//4 101//4
f 103//2 104//2 107//1
f 108//1 107//1 104//2
f 106//3 109//6 110//6
f 109//6 106//3 105//3
f 107//1 108//1 111//5
f 112//5 111//5 108//1
f 110//6 113//12 114//12
f 113//12 110//6 109//6
f 111//5 112//5 115//11
f 116//11 115//11 112//5
f 114//12 117//14 118//14
f 117//14 114//12 113//12
f 115//11 116//11 119//13
f 120//13 119//13 116//11
f 117//14 121//16 118//14
f 121//16 117//14 122//16
f 123//15 119//13 124//15
f 120//13 124//15 119//13
f 122//16 125//18 121//16
f 125//18 122//16 126//18
f 127//17 123//15 128//17
f 124//15 128//17 123//15
f 126//18 129//20 125//18
f 129//20 126//18 130//20
f 131//19 127//17 132//19
f 128//17 132//19 127//17
f 130//20 133//22 129//20
f 133//22 130//20 134//22
f 135//21 131//19 136//21
f 132//19 136//21 131//19
f 134//22 137//24 133//22
f 137//24 134//22 138//24
f 139//23 135//21 140//23
f 136//21 140//23 135//21
f 138//24 141//26 137//24
f 141//26 138//24 142//26
f 143//25 139//23 144//25
f 140//23 144//25 139//23
f 62//9 141//26 142//26
f 141//26 62//9 61//9
f 63//10 64//10 144//25
f 143//25 144//25 64//10
