# SSTK version 0.8.0
# 6
mtllib original-6.mtl
o #ID46
v 0.038345 -0.123672 0.615873
v 0.073788 -0.130061 0.615873
v 0.109231 -0.123672 0.615873
v 0.109231 -0.123672 0.615873
v 0.073788 -0.130061 0.615873
v 0.038345 -0.123672 0.615873
v 0.109231 -0.123672 0.641173
v 0.073788 -0.130061 0.615873
v 0.073788 -0.130061 0.641173
v 0.109231 -0.123672 0.615873
v 0.109231 -0.123672 0.635715
v 0.109231 -0.123672 0.628523
v 0.109231 -0.123672 0.628523
v 0.109231 -0.123672 0.635715
v 0.109231 -0.123672 0.615873
v 0.109231 -0.123672 0.641173
v 0.073788 -0.130061 0.615873
v 0.073788 -0.130061 0.641173
v 0.073788 -0.130061 0.641173
v 0.038345 -0.123672 0.615873
v 0.038345 -0.123672 0.641173
v 0.073788 -0.130061 0.615873
v 0.073788 -0.130061 0.615873
v 0.073788 -0.130061 0.641173
v 0.038345 -0.123672 0.615873
v 0.038345 -0.123672 0.641173
v 0.109231 -0.123672 0.641173
v 0.073788 -0.130061 0.641173
v 0.038345 -0.123672 0.641173
v 0.038345 -0.123672 0.641173
v 0.073788 -0.130061 0.641173
v 0.109231 -0.123672 0.641173
vn 0.0 0.0 1.0
vn 0.0 0.0 -1.0
vn -0.17738630019571208 0.984141301085813 0.0
vn 0.17738630019571208 -0.984141301085813 0.0
vn 0.17738630019571208 0.984141301085813 0.0
vn -0.17738630019571208 -0.984141301085813 0.0
usemtl material_0_0
f 1//1 2//1 3//1
f 4//2 5//2 6//2
f 7//3 8//3 9//3
f 8//3 7//3 10//3
f 10//3 7//3 11//3
f 10//3 11//3 12//3
f 13//4 14//4 15//4
f 14//4 16//4 15//4
f 15//4 16//4 17//4
f 18//4 17//4 16//4
f 19//5 20//5 21//5
f 20//5 19//5 22//5
f 23//6 24//6 25//6
f 26//6 25//6 24//6
f 27//2 28//2 29//2
f 30//1 31//1 32//1
