# SSTK version 0.8.0
# 13
mtllib original-13.mtl
o #ID90
v 0.095423 0.008869 0.734888
v 0.091446 0.003948 0.732263
v 0.095423 0.003948 0.732263
v 0.091446 0.008869 0.734888
v 0.091446 0.008869 0.734888
v 0.095423 0.008869 0.734888
v 0.091446 0.003948 0.732263
v 0.095423 0.003948 0.732263
v 0.091446 -0.000126 0.728453
v 0.095423 -0.000126 0.728453
v 0.091446 -0.000126 0.728453
v 0.095423 -0.000126 0.728453
v 0.095423 0.008869 0.734888
v 0.095423 0.019876 0.735964
v 0.095423 0.014301 0.736151
v 0.095423 0.025212 0.734341
v 0.095423 0.003948 0.732263
v 0.095423 0.029946 0.731392
v 0.095423 -0.000126 0.728453
v 0.095423 0.033755 0.727318
v 0.095423 -0.003075 0.723719
v 0.095423 0.036381 0.722397
v 0.095423 -0.004698 0.718383
v 0.095423 0.037643 0.716965
v 0.095423 -0.004746 0.716965
v 0.095423 -0.004746 0.716965
v 0.095423 -0.004698 0.718383
v 0.095423 0.037643 0.716965
v 0.095423 0.036381 0.722397
v 0.095423 -0.003075 0.723719
v 0.095423 0.033755 0.727318
v 0.095423 -0.000126 0.728453
v 0.095423 0.029946 0.731392
v 0.095423 0.003948 0.732263
v 0.095423 0.025212 0.734341
v 0.095423 0.008869 0.734888
v 0.095423 0.019876 0.735964
v 0.095423 0.014301 0.736151
v 0.095423 0.014301 0.736151
v 0.091446 0.014301 0.736151
v 0.091446 0.014301 0.736151
v 0.095423 0.014301 0.736151
v 0.095423 -0.003075 0.723719
v 0.091446 -0.003075 0.723719
v 0.095423 -0.003075 0.723719
v 0.091446 -0.003075 0.723719
v 0.095423 -0.004746 0.716965
v 0.091446 -0.004698 0.718383
v 0.091446 -0.004746 0.716965
v 0.095423 -0.004698 0.718383
v 0.095423 -0.004698 0.718383
v 0.095423 -0.004746 0.716965
v 0.091446 -0.004698 0.718383
v 0.091446 -0.004746 0.716965
v 0.091446 0.037643 0.716965
v 0.095423 -0.004746 0.716965
v 0.091446 -0.004746 0.716965
v 0.095423 0.037643 0.716965
v 0.095423 0.037643 0.716965
v 0.091446 0.037643 0.716965
v 0.095423 -0.004746 0.716965
v 0.091446 -0.004746 0.716965
v 0.095423 0.036381 0.722397
v 0.091446 0.036381 0.722397
v 0.095423 0.036381 0.722397
v 0.091446 0.036381 0.722397
v 0.095423 0.033755 0.727318
v 0.091446 0.033755 0.727318
v 0.095423 0.033755 0.727318
v 0.091446 0.033755 0.727318
v 0.095423 0.029946 0.731392
v 0.091446 0.029946 0.731392
v 0.095423 0.029946 0.731392
v 0.091446 0.029946 0.731392
v 0.091446 0.025212 0.734341
v 0.095423 0.025212 0.734341
v 0.091446 0.025212 0.734341
v 0.095423 0.025212 0.734341
v 0.091446 0.019876 0.735964
v 0.095423 0.019876 0.735964
v 0.091446 0.019876 0.735964
v 0.095423 0.019876 0.735964
v 0.091446 -0.004851 0.713818
v 0.091446 0.037643 0.716965
v 0.091446 -0.004746 0.716965
v 0.091446 0.037537 0.713818
v 0.091446 0.037537 0.713818
v 0.091446 -0.004851 0.713818
v 0.091446 0.037643 0.716965
v 0.091446 -0.004746 0.716965
v 0.095423 0.037537 0.713818
v 0.091446 -0.004851 0.713818
v 0.095423 -0.004851 0.713818
v 0.091446 0.037537 0.713818
v 0.091446 0.037537 0.713818
v 0.095423 0.037537 0.713818
v 0.091446 -0.004851 0.713818
v 0.095423 -0.004851 0.713818
v 0.095423 -0.004885 0.712809
v 0.095423 0.037537 0.713818
v 0.095423 -0.004851 0.713818
v 0.095423 0.037456 0.71139
v 0.095423 -0.003623 0.707376
v 0.095423 0.035833 0.706054
v 0.095423 -0.000997 0.702456
v 0.095423 0.032884 0.70132
v 0.095423 0.002812 0.698382
v 0.095423 0.02881 0.697511
v 0.095423 0.007546 0.695433
v 0.095423 0.023889 0.694885
v 0.095423 0.012882 0.69381
v 0.095423 0.018457 0.693623
v 0.095423 0.018457 0.693623
v 0.095423 0.012882 0.69381
v 0.095423 0.023889 0.694885
v 0.095423 0.007546 0.695433
v 0.095423 0.02881 0.697511
v 0.095423 0.002812 0.698382
v 0.095423 0.032884 0.70132
v 0.095423 -0.000997 0.702456
v 0.095423 0.035833 0.706054
v 0.095423 -0.003623 0.707376
v 0.095423 0.037456 0.71139
v 0.095423 -0.004885 0.712809
v 0.095423 0.037537 0.713818
v 0.095423 -0.004851 0.713818
v 0.095423 0.037537 0.713818
v 0.091446 0.037456 0.71139
v 0.091446 0.037537 0.713818
v 0.095423 0.037456 0.71139
v 0.095423 0.037456 0.71139
v 0.095423 0.037537 0.713818
v 0.091446 0.037456 0.71139
v 0.091446 0.037537 0.713818
v 0.095423 -0.004885 0.712809
v 0.091446 -0.004851 0.713818
v 0.091446 -0.004885 0.712809
v 0.095423 -0.004851 0.713818
v 0.095423 -0.004851 0.713818
v 0.095423 -0.004885 0.712809
v 0.091446 -0.004851 0.713818
v 0.091446 -0.004885 0.712809
v 0.095423 -0.003623 0.707376
v 0.091446 -0.003623 0.707376
v 0.095423 -0.003623 0.707376
v 0.091446 -0.003623 0.707376
v 0.095423 -0.000997 0.702456
v 0.091446 -0.000997 0.702456
v 0.095423 -0.000997 0.702456
v 0.091446 -0.000997 0.702456
v 0.095423 0.002812 0.698382
v 0.091446 0.002812 0.698382
v 0.095423 0.002812 0.698382
v 0.091446 0.002812 0.698382
v 0.091446 0.007546 0.695433
v 0.095423 0.007546 0.695433
v 0.095423 0.007546 0.695433
v 0.091446 0.007546 0.695433
v 0.091446 0.012882 0.69381
v 0.095423 0.012882 0.69381
v 0.095423 0.012882 0.69381
v 0.091446 0.012882 0.69381
v 0.091446 0.018457 0.693623
v 0.095423 0.018457 0.693623
v 0.095423 0.018457 0.693623
v 0.091446 0.018457 0.693623
v 0.091446 0.023889 0.694885
v 0.095423 0.023889 0.694885
v 0.095423 0.023889 0.694885
v 0.091446 0.023889 0.694885
v 0.091446 0.02881 0.697511
v 0.095423 0.02881 0.697511
v 0.095423 0.02881 0.697511
v 0.091446 0.02881 0.697511
v 0.091446 0.032884 0.70132
v 0.095423 0.032884 0.70132
v 0.095423 0.032884 0.70132
v 0.091446 0.032884 0.70132
v 0.095423 0.035833 0.706054
v 0.091446 0.035833 0.706054
v 0.095423 0.035833 0.706054
v 0.091446 0.035833 0.706054
vn 0.0 -0.3515254147225789 0.9361783392089986
vn 0.0 -0.5818482694356131 0.8132973572776332
vn 0.0 0.3515254147225789 -0.9361783392089986
vn 0.0 0.5818482694356131 -0.8132973572776332
vn 0.0 -0.7725191135433959 0.6349915111323348
vn 0.0 0.7725191135433959 -0.6349915111323348
vn 1.0 0.0 0.0
vn -1.0 0.0 0.0
vn 0.0 -0.09724671061450615 0.9952603062890927
vn 0.0 0.09724671061450615 -0.9952603062890927
vn 0.0 -0.9105440818852675 0.4134119917754145
vn 0.0 0.9105440818852675 -0.4134119917754145
vn 0.0 -0.999438959171428 0.03349278863176964
vn 0.0 -0.9865169356476667 0.16365920591380503
vn 0.0 0.9865169356476667 -0.16365920591380503
vn 0.0 0.999438959171428 -0.03349278863176964
vn 0.0 0.7830460847921097 -0.6219636879205634
vn 0.0 0.0 -1.0
vn 0.0 -0.7830460847921097 0.6219636879205634
vn 0.0 0.0 1.0
vn 0.0 0.9361783392089986 0.3515254147225789
vn 0.0 -0.9361783392089986 -0.3515254147225789
vn 0.0 0.8132973572776332 0.5818482694356131
vn 0.0 -0.8132973572776332 -0.5818482694356131
vn 0.0 0.6349915111323348 0.7725191135433959
vn 0.0 -0.6349915111323348 -0.7725191135433959
vn 0.0 0.4134119917754145 0.9105440818852675
vn 0.0 -0.4134119917754145 -0.9105440818852675
vn 0.0 0.16365920591380503 0.9865169356476667
vn 0.0 -0.16365920591380503 -0.9865169356476667
vn 0.0 -0.9952603062890927 -0.09724671061450615
vn 0.0 0.9952603062890927 0.09724671061450615
usemtl material_0_0
f 1//1 2//2 3//2
f 2//2 1//1 4//1
f 5//3 6//3 7//4
f 8//4 7//4 6//3
f 3//2 9//5 10//5
f 9//5 3//2 2//2
f 7//4 8//4 11//6
f 12//6 11//6 8//4
f 13//7 14//7 15//7
f 14//7 13//7 16//7
f 16//7 13//7 17//7
f 16//7 17//7 18//7
f 18//7 17//7 19//7
f 18//7 19//7 20//7
f 20//7 19//7 21//7
f 20//7 21//7 22//7
f 22//7 21//7 23//7
f 22//7 23//7 24//7
f 24//7 23//7 25//7
f 26//8 27//8 28//8
f 28//8 27//8 29//8
f 27//8 30//8 29//8
f 29//8 30//8 31//8
f 30//8 32//8 31//8
f 31//8 32//8 33//8
f 32//8 34//8 33//8
f 33//8 34//8 35//8
f 34//8 36//8 35//8
f 35//8 36//8 37//8
f 38//8 37//8 36//8
f 39//9 4//1 1//1
f 4//1 39//9 40//9
f 41//10 42//10 5//3
f 6//3 5//3 42//10
f 43//11 9//5 44//11
f 9//5 43//11 10//5
f 12//6 45//12 11//6
f 46//12 11//6 45//12
f 47//13 48//14 49//13
f 48//14 47//13 50//14
f 51//15 52//16 53//15
f 54//16 53//15 52//16
f 55//17 56//18 57//18
f 56//18 55//17 58//17
f 59//19 60//19 61//20
f 62//20 61//20 60//19
f 63//21 55//17 64//21
f 55//17 63//21 58//17
f 59//19 65//22 60//19
f 66//22 60//19 65//22
f 67//23 64//21 68//23
f 64//21 67//23 63//21
f 65//22 69//24 66//22
f 70//24 66//22 69//24
f 71//25 68//23 72//25
f 68//23 71//25 67//23
f 69//24 73//26 70//24
f 74//26 70//24 73//26
f 71//25 75//27 76//27
f 75//27 71//25 72//25
f 74//26 73//26 77//28
f 78//28 77//28 73//26
f 76//27 79//29 80//29
f 79//29 76//27 75//27
f 77//28 78//28 81//30
f 82//30 81//30 78//28
f 80//29 40//9 39//9
f 40//9 80//29 79//29
f 81//30 82//30 41//10
f 42//10 41//10 82//30
f 50//14 44//11 48//14
f 44//11 50//14 43//11
f 45//12 51//15 46//12
f 53//15 46//12 51//15
f 83//7 84//7 85//7
f 84//7 83//7 86//7
f 87//8 88//8 89//8
f 90//8 89//8 88//8
f 91//20 92//20 93//20
f 92//20 91//20 94//20
f 95//18 96//18 97//18
f 98//18 97//18 96//18
f 99//7 100//7 101//7
f 100//7 99//7 102//7
f 102//7 99//7 103//7
f 102//7 103//7 104//7
f 104//7 103//7 105//7
f 104//7 105//7 106//7
f 106//7 105//7 107//7
f 106//7 107//7 108//7
f 108//7 107//7 109//7
f 108//7 109//7 110//7
f 110//7 109//7 111//7
f 110//7 111//7 112//7
f 113//8 114//8 115//8
f 114//8 116//8 115//8
f 115//8 116//8 117//8
f 116//8 118//8 117//8
f 117//8 118//8 119//8
f 118//8 120//8 119//8
f 119//8 120//8 121//8
f 120//8 122//8 121//8
f 121//8 122//8 123//8
f 122//8 124//8 123//8
f 123//8 124//8 125//8
f 126//8 125//8 124//8
f 127//16 128//15 129//16
f 128//15 127//16 130//15
f 131//14 132//13 133//14
f 134//13 133//14 132//13
f 135//31 136//13 137//31
f 136//13 135//31 138//13
f 139//16 140//32 141//16
f 142//32 141//16 140//32
f 143//22 137//31 144//22
f 137//31 143//22 135//31
f 140//32 145//21 142//32
f 146//21 142//32 145//21
f 147//24 144//22 148//24
f 144//22 147//24 143//22
f 145//21 149//23 146//21
f 150//23 146//21 149//23
f 151//26 148//24 152//26
f 148//24 151//26 147//24
f 149//23 153//25 150//23
f 154//25 150//23 153//25
f 155//28 151//26 152//26
f 151//26 155//28 156//28
f 157//27 158//27 153//25
f 154//25 153//25 158//27
f 159//30 156//28 155//28
f 156//28 159//30 160//30
f 161//29 162//29 157//27
f 158//27 157//27 162//29
f 163//10 160//30 159//30
f 160//30 163//10 164//10
f 165//9 166//9 161//29
f 162//29 161//29 166//9
f 167//3 164//10 163//10
f 164//10 167//3 168//3
f 169//1 170//1 165//9
f 166//9 165//9 170//1
f 171//4 168//3 167//3
f 168//3 171//4 172//4
f 173//2 174//2 169//1
f 170//1 169//1 174//2
f 175//6 172//4 171//4
f 172//4 175//6 176//6
f 177//5 178//5 173//2
f 174//2 173//2 178//5
f 179//12 175//6 180//12
f 175//6 179//12 176//6
f 177//5 181//11 178//5
f 182//11 178//5 181//11
f 130//15 180//12 128//15
f 180//12 130//15 179//12
f 181//11 131//14 182//11
f 133//14 182//11 131//14
