# SSTK version 0.8.0
# 5
mtllib original-5.mtl
o #ID40
v -0.074594 -0.123672 0.757794
v -0.039152 -0.130061 0.757794
v -0.003709 -0.123672 0.757794
v -0.003709 -0.123672 0.757794
v -0.039152 -0.130061 0.757794
v -0.074594 -0.123672 0.757794
v -0.003709 -0.123672 0.783094
v -0.039152 -0.130061 0.757794
v -0.039152 -0.130061 0.783094
v -0.003709 -0.123672 0.757794
v -0.003709 -0.123672 0.757794
v -0.003709 -0.123672 0.783094
v -0.039152 -0.130061 0.757794
v -0.039152 -0.130061 0.783094
v -0.039152 -0.130061 0.783094
v -0.074594 -0.123672 0.757794
v -0.074594 -0.123672 0.783094
v -0.039152 -0.130061 0.757794
v -0.039152 -0.130061 0.757794
v -0.039152 -0.130061 0.783094
v -0.074594 -0.123672 0.757794
v -0.074594 -0.123672 0.783094
v -0.003709 -0.123672 0.783094
v -0.039152 -0.130061 0.783094
v -0.074594 -0.123672 0.783094
v -0.074594 -0.123672 0.783094
v -0.039152 -0.130061 0.783094
v -0.003709 -0.123672 0.783094
v 0.031734 -0.130018 0.783094
v -0.003709 -0.123672 0.757794
v -0.003709 -0.123672 0.783094
v 0.031734 -0.130018 0.757794
v 0.031734 -0.130018 0.757794
v 0.031734 -0.130018 0.783094
v -0.003709 -0.123672 0.757794
v -0.003709 -0.123672 0.783094
v 0.067177 -0.123672 0.783094
v 0.031734 -0.130018 0.783094
v -0.003709 -0.123672 0.783094
v -0.003709 -0.123672 0.783094
v 0.031734 -0.130018 0.783094
v 0.067177 -0.123672 0.783094
v 0.067177 -0.123672 0.783094
v 0.031734 -0.130018 0.757794
v 0.031734 -0.130018 0.783094
v 0.067177 -0.123672 0.757794
v 0.067177 -0.123672 0.757794
v 0.067177 -0.123672 0.783094
v 0.031734 -0.130018 0.757794
v 0.031734 -0.130018 0.783094
v 0.031734 -0.130018 0.757794
v 0.067177 -0.123672 0.757794
v 0.067177 -0.123672 0.757794
v 0.031734 -0.130018 0.757794
vn 0.0 0.0 1.0
vn 0.0 0.0 -1.0
vn -0.17738630019571208 0.984141301085813 0.0
vn 0.17738630019571208 -0.984141301085813 0.0
vn 0.17738630019571208 0.984141301085813 0.0
vn -0.17738630019571208 -0.984141301085813 0.0
vn 0.1762480958818531 0.984345777000146 0.0
vn -0.1762480958818531 -0.984345777000146 0.0
vn -0.1762480958818531 0.984345777000146 0.0
vn 0.1762480958818531 -0.984345777000146 0.0
usemtl material_0_0
f 1//1 2//1 3//1
f 4//2 5//2 6//2
f 7//3 8//3 9//3
f 8//3 7//3 10//3
f 11//4 12//4 13//4
f 14//4 13//4 12//4
f 15//5 16//5 17//5
f 16//5 15//5 18//5
f 19//6 20//6 21//6
f 22//6 21//6 20//6
f 23//2 24//2 25//2
f 26//1 27//1 28//1
f 29//7 30//7 31//7
f 30//7 29//7 32//7
f 33//8 34//8 35//8
f 36//8 35//8 34//8
f 37//2 38//2 39//2
f 40//1 41//1 42//1
f 43//9 44//9 45//9
f 44//9 43//9 46//9
f 47//10 48//10 49//10
f 50//10 49//10 48//10
f 3//1 51//1 52//1
f 53//2 54//2 4//2
