# SSTK version 0.8.0
# 10
mtllib original-10.mtl
o #ID72
v -0.092294 -0.009946 0.713297
v -0.096271 -0.00998 0.714305
v -0.096271 -0.009946 0.713297
v -0.092294 -0.00998 0.714305
v -0.092294 -0.00998 0.714305
v -0.092294 -0.009946 0.713297
v -0.096271 -0.00998 0.714305
v -0.096271 -0.009946 0.713297
v -0.096271 0.032442 0.713297
v -0.092294 -0.009946 0.713297
v -0.096271 -0.009946 0.713297
v -0.092294 0.032442 0.713297
v -0.092294 0.032442 0.713297
v -0.096271 0.032442 0.713297
v -0.092294 -0.009946 0.713297
v -0.096271 -0.009946 0.713297
v -0.096271 -0.008718 0.719738
v -0.092294 -0.008718 0.719738
v -0.092294 -0.008718 0.719738
v -0.096271 -0.008718 0.719738
v -0.096271 0.018794 0.732229
v -0.096271 0.007787 0.733305
v -0.096271 0.013361 0.733492
v -0.096271 0.002451 0.731682
v -0.096271 0.023715 0.729604
v -0.096271 -0.002283 0.728733
v -0.096271 0.027789 0.725794
v -0.096271 -0.006092 0.724659
v -0.096271 0.030738 0.72106
v -0.096271 -0.008718 0.719738
v -0.096271 0.032361 0.715724
v -0.096271 -0.00998 0.714305
v -0.096271 0.032442 0.713297
v -0.096271 -0.009946 0.713297
v -0.096271 -0.009946 0.713297
v -0.096271 0.032442 0.713297
v -0.096271 -0.00998 0.714305
v -0.096271 0.032361 0.715724
v -0.096271 -0.008718 0.719738
v -0.096271 0.030738 0.72106
v -0.096271 -0.006092 0.724659
v -0.096271 0.027789 0.725794
v -0.096271 -0.002283 0.728733
v -0.096271 0.023715 0.729604
v -0.096271 0.002451 0.731682
v -0.096271 0.018794 0.732229
v -0.096271 0.007787 0.733305
v -0.096271 0.013361 0.733492
v -0.092294 0.032361 0.715724
v -0.096271 0.032442 0.713297
v -0.096271 0.032361 0.715724
v -0.092294 0.032442 0.713297
v -0.092294 0.032442 0.713297
v -0.092294 0.032361 0.715724
v -0.096271 0.032442 0.713297
v -0.096271 0.032361 0.715724
v -0.092294 0.032548 0.71015
v -0.092294 -0.009946 0.713297
v -0.092294 0.032442 0.713297
v -0.092294 -0.009841 0.71015
v -0.092294 -0.009841 0.71015
v -0.092294 0.032548 0.71015
v -0.092294 -0.009946 0.713297
v -0.092294 0.032442 0.713297
v -0.096271 -0.006092 0.724659
v -0.092294 -0.006092 0.724659
v -0.092294 -0.006092 0.724659
v -0.096271 -0.006092 0.724659
v -0.096271 -0.002283 0.728733
v -0.092294 -0.002283 0.728733
v -0.092294 -0.002283 0.728733
v -0.096271 -0.002283 0.728733
v -0.092294 0.002451 0.731682
v -0.096271 0.002451 0.731682
v -0.096271 0.002451 0.731682
v -0.092294 0.002451 0.731682
v -0.092294 0.007787 0.733305
v -0.096271 0.007787 0.733305
v -0.096271 0.007787 0.733305
v -0.092294 0.007787 0.733305
v -0.092294 0.013361 0.733492
v -0.096271 0.013361 0.733492
v -0.096271 0.013361 0.733492
v -0.092294 0.013361 0.733492
v -0.092294 0.018794 0.732229
v -0.096271 0.018794 0.732229
v -0.096271 0.018794 0.732229
v -0.092294 0.018794 0.732229
v -0.092294 0.023715 0.729604
v -0.096271 0.023715 0.729604
v -0.096271 0.023715 0.729604
v -0.092294 0.023715 0.729604
v -0.092294 0.027789 0.725794
v -0.096271 0.027789 0.725794
v -0.096271 0.027789 0.725794
v -0.092294 0.027789 0.725794
v -0.096271 0.030738 0.72106
v -0.092294 0.030738 0.72106
v -0.092294 0.030738 0.72106
v -0.096271 0.030738 0.72106
v -0.092294 0.032548 0.71015
v -0.096271 -0.009841 0.71015
v -0.092294 -0.009841 0.71015
v -0.096271 0.032548 0.71015
v -0.096271 0.032548 0.71015
v -0.092294 0.032548 0.71015
v -0.096271 -0.009841 0.71015
v -0.092294 -0.009841 0.71015
v -0.096271 0.031285 0.704717
v -0.096271 -0.009841 0.71015
v -0.096271 0.032548 0.71015
v -0.096271 -0.009793 0.708731
v -0.096271 -0.00817 0.703395
v -0.096271 0.02866 0.699796
v -0.096271 -0.005221 0.698661
v -0.096271 0.02485 0.695723
v -0.096271 -0.001148 0.694851
v -0.096271 0.020116 0.692774
v -0.096271 0.003773 0.692226
v -0.096271 0.01478 0.691151
v -0.096271 0.009206 0.690964
v -0.096271 0.009206 0.690964
v -0.096271 0.01478 0.691151
v -0.096271 0.003773 0.692226
v -0.096271 0.020116 0.692774
v -0.096271 -0.001148 0.694851
v -0.096271 0.02485 0.695723
v -0.096271 -0.005221 0.698661
v -0.096271 0.02866 0.699796
v -0.096271 -0.00817 0.703395
v -0.096271 0.031285 0.704717
v -0.096271 -0.009793 0.708731
v -0.096271 -0.009841 0.71015
v -0.096271 0.032548 0.71015
v -0.092294 -0.009793 0.708731
v -0.096271 -0.009841 0.71015
v -0.096271 -0.009793 0.708731
v -0.092294 -0.009841 0.71015
v -0.092294 -0.009841 0.71015
v -0.092294 -0.009793 0.708731
v -0.096271 -0.009841 0.71015
v -0.096271 -0.009793 0.708731
v -0.096271 0.031285 0.704717
v -0.092294 0.031285 0.704717
v -0.092294 0.031285 0.704717
v -0.096271 0.031285 0.704717
v -0.096271 0.02866 0.699796
v -0.092294 0.02866 0.699796
v -0.092294 0.02866 0.699796
v -0.096271 0.02866 0.699796
v -0.096271 0.02485 0.695723
v -0.092294 0.02485 0.695723
v -0.092294 0.02485 0.695723
v -0.096271 0.02485 0.695723
v -0.092294 0.020116 0.692774
v -0.096271 0.020116 0.692774
v -0.092294 0.020116 0.692774
v -0.096271 0.020116 0.692774
v -0.092294 0.01478 0.691151
v -0.096271 0.01478 0.691151
v -0.092294 0.01478 0.691151
v -0.096271 0.01478 0.691151
v -0.092294 0.009206 0.690964
v -0.096271 0.009206 0.690964
v -0.092294 0.009206 0.690964
v -0.096271 0.009206 0.690964
v -0.092294 0.003773 0.692226
v -0.096271 0.003773 0.692226
v -0.092294 0.003773 0.692226
v -0.096271 0.003773 0.692226
v -0.092294 -0.001148 0.694851
v -0.096271 -0.001148 0.694851
v -0.092294 -0.001148 0.694851
v -0.096271 -0.001148 0.694851
v -0.092294 -0.005221 0.698661
v -0.096271 -0.005221 0.698661
v -0.092294 -0.005221 0.698661
v -0.096271 -0.005221 0.698661
v -0.096271 -0.00817 0.703395
v -0.092294 -0.00817 0.703395
v -0.092294 -0.00817 0.703395
v -0.096271 -0.00817 0.703395
vn 0.0 -0.999438959171428 -0.03349278863176964
vn 0.0 -0.9952603062890927 0.09724671061450615
vn 0.0 0.9952603062890927 -0.09724671061450615
vn 0.0 0.999438959171428 0.03349278863176964
vn 0.0 0.0 -1.0
vn 0.0 0.0 1.0
vn 0.0 -0.9361783392089986 0.3515254147225789
vn 0.0 0.9361783392089986 -0.3515254147225789
vn -1.0 0.0 0.0
vn 1.0 0.0 0.0
vn 0.0 0.9865169356476667 0.16365920591380503
vn 0.0 -0.9865169356476667 -0.16365920591380503
vn 0.0 -0.8132973572776332 0.5818482694356131
vn 0.0 0.8132973572776332 -0.5818482694356131
vn 0.0 -0.6349915111323348 0.7725191135433959
vn 0.0 0.6349915111323348 -0.7725191135433959
vn 0.0 -0.4134119917754145 0.9105440818852675
vn 0.0 0.4134119917754145 -0.9105440818852675
vn 0.0 -0.16365920591380503 0.9865169356476667
vn 0.0 0.16365920591380503 -0.9865169356476667
vn 0.0 0.09724671061450615 0.9952603062890927
vn 0.0 -0.09724671061450615 -0.9952603062890927
vn 0.0 0.3515254147225789 0.9361783392089986
vn 0.0 -0.3515254147225789 -0.9361783392089986
vn 0.0 0.5818482694356131 0.8132973572776332
vn 0.0 -0.5818482694356131 -0.8132973572776332
vn 0.0 0.7725191135433959 0.6349915111323348
vn 0.0 -0.7725191135433959 -0.6349915111323348
vn 0.0 0.9105440818852675 0.4134119917754145
vn 0.0 -0.9105440818852675 -0.4134119917754145
vn 0.0 0.7830460847921097 0.6219636879205634
vn 0.0 -0.7830460847921097 -0.6219636879205634
usemtl material_0_0
f 1//1 2//2 3//1
f 2//2 1//1 4//2
f 5//3 6//4 7//3
f 8//4 7//3 6//4
f 9//5 10//5 11//5
f 10//5 9//5 12//5
f 13//6 14//6 15//6
f 16//6 15//6 14//6
f 4//2 17//7 2//2
f 17//7 4//2 18//7
f 19//8 5//3 20//8
f 7//3 20//8 5//3
f 21//9 22//9 23//9
f 22//9 21//9 24//9
f 24//9 21//9 25//9
f 24//9 25//9 26//9
f 26//9 25//9 27//9
f 26//9 27//9 28//9
f 28//9 27//9 29//9
f 28//9 29//9 30//9
f 30//9 29//9 31//9
f 30//9 31//9 32//9
f 32//9 31//9 33//9
f 32//9 33//9 34//9
f 35//10 36//10 37//10
f 36//10 38//10 37//10
f 37//10 38//10 39//10
f 38//10 40//10 39//10
f 39//10 40//10 41//10
f 40//10 42//10 41//10
f 41//10 42//10 43//10
f 42//10 44//10 43//10
f 43//10 44//10 45//10
f 44//10 46//10 45//10
f 45//10 46//10 47//10
f 48//10 47//10 46//10
f 49//11 50//4 51//11
f 50//4 49//11 52//4
f 53//1 54//12 55//1
f 56//12 55//1 54//12
f 57//9 58//9 59//9
f 58//9 57//9 60//9
f 61//10 62//10 63//10
f 64//10 63//10 62//10
f 18//7 65//13 17//7
f 65//13 18//7 66//13
f 67//14 19//8 68//14
f 20//8 68//14 19//8
f 66//13 69//15 65//13
f 69//15 66//13 70//15
f 71//16 67//14 72//16
f 68//14 72//16 67//14
f 73//17 69//15 70//15
f 69//15 73//17 74//17
f 75//18 76//18 72//16
f 71//16 72//16 76//18
f 77//19 74//17 73//17
f 74//17 77//19 78//19
f 79//20 80//20 75//18
f 76//18 75//18 80//20
f 81//21 78//19 77//19
f 78//19 81//21 82//21
f 83//22 84//22 79//20
f 80//20 79//20 84//22
f 85//23 82//21 81//21
f 82//21 85//23 86//23
f 87//24 88//24 83//22
f 84//22 83//22 88//24
f 89//25 86//23 85//23
f 86//23 89//25 90//25
f 91//26 92//26 87//24
f 88//24 87//24 92//26
f 93//27 90//25 89//25
f 90//25 93//27 94//27
f 95//28 96//28 91//26
f 92//26 91//26 96//28
f 93//27 97//29 94//27
f 97//29 93//27 98//29
f 99//30 96//28 100//30
f 95//28 100//30 96//28
f 98//29 51//11 97//29
f 51//11 98//29 49//11
f 54//12 99//30 56//12
f 100//30 56//12 99//30
f 101//31 102//6 103//6
f 102//6 101//31 104//31
f 105//32 106//32 107//5
f 108//5 107//5 106//32
f 109//9 110//9 111//9
f 110//9 109//9 112//9
f 112//9 109//9 113//9
f 113//9 109//9 114//9
f 113//9 114//9 115//9
f 115//9 114//9 116//9
f 115//9 116//9 117//9
f 117//9 116//9 118//9
f 117//9 118//9 119//9
f 119//9 118//9 120//9
f 119//9 120//9 121//9
f 122//10 123//10 124//10
f 123//10 125//10 124//10
f 124//10 125//10 126//10
f 125//10 127//10 126//10
f 126//10 127//10 128//10
f 127//10 129//10 128//10
f 128//10 129//10 130//10
f 129//10 131//10 130//10
f 130//10 131//10 132//10
f 132//10 131//10 133//10
f 134//10 133//10 131//10
f 135//12 136//1 137//12
f 136//1 135//12 138//1
f 139//4 140//11 141//4
f 142//11 141//4 140//11
f 101//31 143//8 104//31
f 143//8 101//31 144//8
f 145//7 106//32 146//7
f 105//32 146//7 106//32
f 144//8 147//14 143//8
f 147//14 144//8 148//14
f 149//13 145//7 150//13
f 146//7 150//13 145//7
f 148//14 151//16 147//14
f 151//16 148//14 152//16
f 153//15 149//13 154//15
f 150//13 154//15 149//13
f 151//16 155//18 156//18
f 155//18 151//16 152//16
f 153//15 154//15 157//17
f 158//17 157//17 154//15
f 156//18 159//20 160//20
f 159//20 156//18 155//18
f 157//17 158//17 161//19
f 162//19 161//19 158//17
f 160//20 163//22 164//22
f 163//22 160//20 159//20
f 161//19 162//19 165//21
f 166//21 165//21 162//19
f 164//22 167//24 168//24
f 167//24 164//22 163//22
f 165//21 166//21 169//23
f 170//23 169//23 166//21
f 168//24 171//26 172//26
f 171//26 168//24 167//24
f 169//23 170//23 173//25
f 174//25 173//25 170//23
f 172//26 175//28 176//28
f 175//28 172//26 171//26
f 173//25 174//25 177//27
f 178//27 177//27 174//25
f 175//28 179//30 176//28
f 179//30 175//28 180//30
f 181//29 177//27 182//29
f 178//27 182//29 177//27
f 180//30 137//12 179//30
f 137//12 180//30 135//12
f 140//11 181//29 142//11
f 182//29 142//11 181//29
