mtllib new-1.mtl
v -0.370622 0.017966 0.076391
v -0.265556 0.017966 0.053634
v -0.145414 0.017966 0.048350
v -0.966893 0.017966 0.245379
v -0.150013 0.017966 0.060835
v -0.139802 0.017966 0.036286
v -0.133215 0.017966 0.024723
v -0.274773 0.017966 0.055342
v -0.284116 0.017966 0.054606
v -0.983161 0.017966 0.242151
v -0.983161 0.017966 0.242151
v -0.370622 0.017966 0.076391
v -0.966893 0.017966 0.245379
v -0.284116 0.017966 0.054606
v -0.274773 0.017966 0.055342
v -0.265556 0.017966 0.053634
v -0.133215 0.017966 0.024723
v -0.139802 0.017966 0.036286
v -0.145414 0.017966 0.048350
v -0.150013 0.017966 0.060835
v -0.370622 0.017966 0.076391
v -0.404861 -0.000702 0.021127
v -1.013579 -0.000702 0.236117
v -0.370622 0.017966 0.076391
v -0.404861 -0.000702 0.021127
v -1.013579 -0.000702 0.236117
v -0.966893 -0.000702 0.245379
v -0.355181 -0.000702 0.076207
v -0.292022 -0.000702 0.092917
v -0.366516 -0.000702 0.034671
v -1.013579 -0.000702 0.236117
v -0.404861 -0.000702 0.021127
v -0.404861 -0.000702 0.021127
v -1.013579 -0.000702 0.236117
v -0.366516 -0.000702 0.034671
v -0.966893 -0.000702 0.245379
v -0.355181 -0.000702 0.076207
v -0.292022 -0.000702 0.092917
v -0.966893 -0.000702 0.245379
v -0.983161 0.017966 0.242151
v -1.013579 -0.000702 0.236117
v -0.966893 0.017966 0.245379
v -0.966893 0.017966 0.245379
v -0.966893 -0.000702 0.245379
v -0.983161 0.017966 0.242151
v -1.013579 -0.000702 0.236117
v -0.292022 -0.000702 0.092917
v -0.966893 0.017966 0.245379
v -0.966893 -0.000702 0.245379
v -0.150013 0.017966 0.060835
v -0.292022 -0.000702 0.092917
v -0.150013 0.017966 0.060835
v -0.966893 0.017966 0.245379
v -0.966893 -0.000702 0.245379
vn 0.000000 1.000000 0.000000
vn 0.000000 -1.000000 0.000000
vn 0.000000 -1.000000 0.000000
vn -0.093915 0.959413 -0.265908
vn -0.194589 0.000000 0.980885
vn 0.220359 0.000000 0.975419
vn 0.000000 1.000000 0.000000
vn 0.093915 -0.959413 0.265908
vn 0.194589 0.000000 -0.980885
vn -0.220359 0.000000 -0.975419
vt 0.441281 0.586468
vt 0.469196 0.524416
vt 0.488277 0.450731
vt 0.258194 0.933383
vt 0.479942 0.451936
vt 0.496485 0.448844
vt 0.504510 0.446288
vt 0.466925 0.529897
vt 0.466151 0.535779
vt 0.258051 0.943880
vt 1.225180 0.695216
vt 1.222963 0.704552
vt 1.131406 0.702132
vt -1.152499 0.127791
vt -1.242454 0.123799
vt -1.250243 0.118775
vt -1.242746 0.129900
vt -1.146606 0.131087
vt -1.238165 0.133409
vt -2.200942 -0.943467
vt -2.198294 -0.941114
vt -2.200942 -0.936715
vt -2.198294 -0.943467
vt -2.200942 -1.234066
vt -2.198294 -1.135905
vt -2.200942 -1.135905
vt -2.198294 -1.254721
usemtl material-0
f 11//2 12//2 13//2
f 12//2 14//2 13//2
f 14//2 15//2 13//2
f 15//2 16//2 13//2
f 16//2 17//2 13//2
f 17//2 18//2 13//2
f 18//2 19//2 13//2
f 20//2 13//2 19//2
usemtl material-1
f 3/3/1 4/4/1 5/5/1
f 4/4/1 3/3/1 6/6/1
f 4/4/1 6/6/1 7/7/1
f 4/4/1 7/7/1 2/2/1
f 4/4/1 2/2/1 8/8/1
f 4/4/1 8/8/1 9/9/1
f 4/4/1 9/9/1 1/1/1
f 4/4/1 1/1/1 10/10/1
usemtl material-2
f 26//8 25//8 24//8
f 33//7 34//7 35//7
f 34//7 36//7 35//7
f 35//7 36//7 37//7
f 38//7 37//7 36//7
f 43//9 44//9 45//9
f 46//9 45//9 44//9
f 52//10 51//10 53//10
f 54//10 53//10 51//10
usemtl material-3
f 21/11/4 22/12/4 23/13/4
f 27/14/3 28/15/3 29/16/3
f 28/15/3 27/14/3 30/17/3
f 30/17/3 27/14/3 31/18/3
f 30/17/3 31/18/3 32/19/3
f 39/20/5 40/21/5 41/22/5
f 40/21/5 39/20/5 42/23/5
f 47/24/6 48/25/6 49/26/6
f 48/25/6 47/24/6 50/27/6