mtllib new-3.mtl
v -0.130386 -0.000702 0.020589
v -0.133215 0.017966 0.024723
v -0.133215 -0.000702 0.024723
v -0.125700 0.017966 0.013743
v -0.125700 -0.000702 0.013743
v -0.125700 -0.000702 0.013743
v -0.130386 -0.000702 0.020589
v -0.125700 0.017966 0.013743
v -0.133215 0.017966 0.024723
v -0.133215 -0.000702 0.024723
v -0.139802 0.017966 0.036286
v -0.139802 -0.000702 0.036286
v -0.139802 0.017966 0.036286
v -0.139802 -0.000702 0.036286
v -0.117306 -0.000702 0.003418
v -0.117306 -0.000702 0.003418
v -0.060975 0.017966 -0.111704
v -0.240794 0.017966 0.017605
v -0.242502 0.017966 0.008388
v -0.246538 0.017966 -0.000072
v -0.252625 0.017966 -0.007200
v -0.260351 0.017966 -0.012509
v -0.269185 0.017966 -0.015638
v -0.278531 0.017966 -0.016374
v -0.287748 0.017966 -0.014665
v -0.367489 0.017966 0.007928
v -0.356155 0.017966 -0.033608
v -0.300679 0.017966 0.046169
v -0.370622 0.017966 0.076391
v -0.292953 0.017966 0.051477
v -0.306766 0.017966 0.039041
v -0.310801 0.017966 0.030580
v -0.312509 0.017966 0.021363
v -0.311775 0.017966 0.012019
v -0.308645 0.017966 0.003183
v -0.303335 0.017966 -0.004542
v -0.296208 0.017966 -0.010630
v -0.117306 0.017966 0.003418
v -0.265556 0.017966 0.053634
v -0.125700 0.017966 0.013743
v -0.257096 0.017966 0.049598
v -0.249967 0.017966 0.043510
v -0.108093 0.017966 -0.006181
v -0.244659 0.017966 0.035786
v -0.098120 0.017966 -0.014988
v -0.241529 0.017966 0.026950
v -0.087455 0.017966 -0.022946
v -0.076171 0.017966 -0.029999
v -0.064345 0.017966 -0.036099
v -0.133215 0.017966 0.024723
v -0.284116 0.017966 0.054606
v -0.370622 0.017966 0.076391
v -0.292953 0.017966 0.051477
v -0.284116 0.017966 0.054606
v -0.265556 0.017966 0.053634
v -0.125700 0.017966 0.013743
v -0.133215 0.017966 0.024723
v -0.064345 0.017966 -0.036099
v -0.240794 0.017966 0.017605
v -0.076171 0.017966 -0.029999
v -0.241529 0.017966 0.026950
v -0.087455 0.017966 -0.022946
v -0.098120 0.017966 -0.014988
v -0.244659 0.017966 0.035786
v -0.108093 0.017966 -0.006181
v -0.249967 0.017966 0.043510
v -0.117306 0.017966 0.003418
v -0.257096 0.017966 0.049598
v -0.287748 0.017966 -0.014665
v -0.296208 0.017966 -0.010630
v -0.367489 0.017966 0.007928
v -0.303335 0.017966 -0.004542
v -0.308645 0.017966 0.003183
v -0.311775 0.017966 0.012019
v -0.312509 0.017966 0.021363
v -0.310801 0.017966 0.030580
v -0.306766 0.017966 0.039041
v -0.300679 0.017966 0.046169
v -0.356155 0.017966 -0.033608
v -0.060975 0.017966 -0.111704
v -0.278531 0.017966 -0.016374
v -0.269185 0.017966 -0.015638
v -0.260351 0.017966 -0.012509
v -0.252625 0.017966 -0.007200
v -0.246538 0.017966 -0.000072
v -0.242502 0.017966 0.008388
v -0.145414 -0.000702 0.048350
v -0.145414 0.017966 0.048350
v -0.145414 -0.000702 0.048350
v -0.145414 0.017966 0.048350
v -0.150013 -0.000702 0.060835
v -0.150013 0.017966 0.060835
v -0.148430 -0.000702 0.056539
v -0.148430 -0.000702 0.056539
v -0.150013 -0.000702 0.060835
v -0.150013 0.017966 0.060835
v -0.132242 -0.000702 0.017875
v -0.125700 -0.000702 0.013743
v -0.130386 -0.000702 0.020589
v -0.138828 -0.000702 0.006313
v -0.108093 -0.000702 -0.006181
v -0.144442 -0.000702 -0.005751
v -0.076171 -0.000702 -0.029999
v -0.147457 -0.000702 -0.013941
v -0.060975 -0.000702 -0.111704
v -0.149042 -0.000702 -0.018236
v -0.292099 -0.000702 -0.050555
v -0.292099 -0.000702 -0.050555
v -0.149042 -0.000702 -0.018236
v -0.060975 -0.000702 -0.111704
v -0.147457 -0.000702 -0.013941
v -0.076171 -0.000702 -0.029999
v -0.144442 -0.000702 -0.005751
v -0.108093 -0.000702 -0.006181
v -0.138828 -0.000702 0.006313
v -0.125700 -0.000702 0.013743
v -0.132242 -0.000702 0.017875
v -0.130386 -0.000702 0.020589
v -0.060975 0.017966 -0.111704
v -0.356155 -0.000702 -0.033608
v -0.356155 0.017966 -0.033608
v -0.292099 -0.000702 -0.050555
v -0.060975 0.017966 -0.111704
v -0.292099 -0.000702 -0.050555
v -0.356155 -0.000702 -0.033608
v -0.356155 0.017966 -0.033608
v -0.356155 -0.000702 -0.033608
v -0.367489 0.017966 0.007928
v -0.356155 0.017966 -0.033608
v -0.367489 -0.000702 0.007928
v -0.367489 -0.000702 0.007928
v -0.356155 -0.000702 -0.033608
v -0.367489 0.017966 0.007928
v -0.356155 0.017966 -0.033608
v -0.367489 -0.000702 0.007928
v -0.370622 0.017966 0.076391
v -0.367489 0.017966 0.007928
v -0.367489 0.017966 0.007928
v -0.370622 0.017966 0.076391
v -0.367489 -0.000702 0.007928
v -0.370622 0.017966 0.076391
v -0.404861 -0.000702 0.021127
v -0.367489 -0.000702 0.007928
v -0.367489 -0.000702 0.007928
v -0.370622 0.017966 0.076391
v -0.404861 -0.000702 0.021127
v -0.370622 0.017966 0.076391
v -1.013579 -0.000702 0.236117
v -0.983161 0.017966 0.242151
v -0.983161 0.017966 0.242151
v -1.013579 -0.000702 0.236117
v -0.370622 0.017966 0.076391
v -0.292022 -0.000702 0.092917
v -0.150013 0.017966 0.060835
v -0.150013 -0.000702 0.060835
v -0.150013 -0.000702 0.060835
v -0.292022 -0.000702 0.092917
v -0.150013 0.017966 0.060835
vn 0.825232 0.000000 0.564794
vn 0.847793 0.000000 0.530327
vn 0.801270 0.000000 0.598303
vn 0.888564 0.000000 0.458753
vn 0.749310 0.000000 0.662219
vn 0.000000 1.000000 0.000000
vn 0.923305 0.000000 0.384067
vn 0.938340 0.000000 0.345714
vn -0.801270 0.000000 -0.598303
vn -0.825232 0.000000 -0.564794
vn -0.847793 0.000000 -0.530327
vn -0.888564 0.000000 -0.458753
vn -0.749310 0.000000 -0.662219
vn 0.000000 -1.000000 0.000000
vn -0.923305 0.000000 -0.384067
vn -0.938340 0.000000 -0.345714
vn 0.000000 -1.000000 0.000000
vn -0.255770 0.000000 -0.966738
vn -0.964726 0.000000 -0.263258
vn -0.998954 0.000000 -0.045716
vn -0.093915 0.959413 -0.265908
vn -0.210214 0.593611 -0.776812
vn 0.220359 0.000000 0.975419
vn 0.000000 1.000000 0.000000
vn 0.255770 0.000000 0.966738
vn 0.964726 0.000000 0.263258
vn 0.998954 0.000000 0.045716
vn 0.093915 -0.959413 0.265908
vn 0.210214 -0.593611 0.776812
vn -0.220359 0.000000 -0.975419
vt 6.292437 -0.983713
vt 6.283783 -0.975066
vt 6.289691 -0.985299
vt 6.291077 -0.970855
vt 6.296985 -0.981088
vt 6.058602 -1.118718
vt 6.045401 -1.112696
vt 6.051309 -1.122929
vt 6.052695 -1.108485
vt 6.506936 -0.859873
vt 6.493735 -0.853851
vt 6.499643 -0.864084
vt 0.598478 0.419517
vt 0.494760 0.513827
vt 0.500241 0.516097
vt 0.504948 0.519709
vt 0.508560 0.524416
vt 0.510830 0.529897
vt 0.511604 0.535779
vt 0.510830 0.541662
vt 0.508560 0.547143
vt 0.484078 0.593538
vt 0.511285 0.591986
vt 0.469196 0.547143
vt 0.441281 0.586468
vt 0.466925 0.541662
vt 0.472807 0.551850
vt 0.477514 0.555461
vt 0.482996 0.557732
vt 0.488878 0.558506
vt 0.494760 0.557732
vt 0.500241 0.555461
vt 0.504948 0.551850
vt 0.519793 0.439243
vt 0.469196 0.524416
vt 0.512296 0.443081
vt 0.472807 0.519709
vt 0.477514 0.516097
vt 0.526948 0.434801
vt 0.482996 0.513827
vt 0.533714 0.429786
vt 0.488878 0.513053
vt 0.540044 0.424230
vt 0.545895 0.418173
vt 0.551227 0.411655
vt 0.504510 0.446288
vt 0.466151 0.535779
vt 5.786114 -1.276039
vt 5.787499 -1.261596
vt 5.780206 -1.265807
vt 5.793407 -1.271829
vt 5.495904 -1.443592
vt 5.497290 -1.429148
vt 5.489996 -1.433359
vt 5.503198 -1.439381
vt 5.498414 -1.442143
vt -1.275092 0.121895
vt -1.276156 0.122166
vt -1.275224 0.121448
vt -1.274711 0.123744
vt -1.279406 0.124082
vt -1.274482 0.125618
vt -1.284757 0.125897
vt -1.274434 0.126855
vt -1.290389 0.136255
vt -1.274409 0.127504
vt -1.256523 0.138137
vt 2.198294 -1.280858
vt 2.200942 -1.237538
vt 2.198294 -1.237538
vt 2.200942 -1.246939
vt -2.200942 0.799991
vt -2.198294 0.793883
vt -2.198294 0.799991
vt -2.200942 0.793883
vt -2.035941 0.563028
vt -2.033293 0.553304
vt -2.033293 0.563028
vt 1.225180 0.695216
vt 1.222963 0.704552
vt 1.228584 0.704701
vt 1.374656 1.637376
vt 1.281292 1.648530
vt 1.284944 1.644920
vt -2.200942 -1.234066
vt -2.198294 -1.254721
vt -2.200942 -1.254721
usemtl material-0
f 6//9 7//10 8//9
f 8//9 7//10 9//11
f 10//11 9//11 7//10
f 9//11 10//11 13//12
f 14//12 13//12 10//11
f 6//9 8//9 16//13
f 53//14 54//14 52//14
f 56//14 57//14 55//14
f 58//14 60//14 59//14
f 59//14 60//14 61//14
f 62//14 63//14 61//14
f 61//14 63//14 64//14
f 63//14 65//14 64//14
f 64//14 65//14 66//14
f 65//14 67//14 66//14
f 66//14 67//14 68//14
f 68//14 67//14 55//14
f 56//14 55//14 67//14
f 69//14 70//14 71//14
f 70//14 72//14 71//14
f 72//14 73//14 71//14
f 73//14 74//14 71//14
f 74//14 75//14 71//14
f 75//14 76//14 71//14
f 76//14 77//14 71//14
f 77//14 78//14 71//14
f 71//14 78//14 52//14
f 53//14 52//14 78//14
f 79//14 80//14 71//14
f 71//14 80//14 69//14
f 69//14 80//14 81//14
f 81//14 80//14 82//14
f 82//14 80//14 83//14
f 83//14 80//14 84//14
f 84//14 80//14 85//14
f 85//14 80//14 86//14
f 86//14 80//14 59//14
f 14//12 89//15 13//12
f 90//15 13//12 89//15
f 94//16 95//16 89//15
f 89//15 95//16 90//15
f 96//16 90//15 95//16
usemtl material-1
f 1/1/1 2/2/2 3/3/2
f 2/2/2 1/1/1 4/4/3
f 4/4/3 1/1/1 5/5/3
f 3/6/2 11/7/4 12/8/4
f 11/7/4 3/6/2 2/9/2
f 15/10/5 4/11/3 5/12/3
f 18/14/6 17/13/6 19/15/6
f 19/15/6 17/13/6 20/16/6
f 20/16/6 17/13/6 21/17/6
f 21/17/6 17/13/6 22/18/6
f 22/18/6 17/13/6 23/19/6
f 23/19/6 17/13/6 24/20/6
f 24/20/6 17/13/6 25/21/6
f 25/21/6 17/13/6 26/22/6
f 26/22/6 17/13/6 27/23/6
f 28/24/6 29/25/6 30/26/6
f 29/25/6 28/24/6 26/22/6
f 26/22/6 28/24/6 31/27/6
f 26/22/6 31/27/6 32/28/6
f 26/22/6 32/28/6 33/29/6
f 26/22/6 33/29/6 34/30/6
f 26/22/6 34/30/6 35/31/6
f 26/22/6 35/31/6 36/32/6
f 26/22/6 36/32/6 37/33/6
f 26/22/6 37/33/6 25/21/6
f 38/34/6 39/35/6 40/36/6
f 39/35/6 38/34/6 41/37/6
f 41/37/6 38/34/6 42/38/6
f 42/38/6 38/34/6 43/39/6
f 42/38/6 43/39/6 44/40/6
f 44/40/6 43/39/6 45/41/6
f 44/40/6 45/41/6 46/42/6
f 46/42/6 45/41/6 47/43/6
f 46/42/6 48/44/6 18/14/6
f 18/14/6 48/44/6 49/45/6
f 39/35/6 50/46/6 40/36/6
f 29/25/6 51/47/6 30/26/6
f 87/48/7 11/49/4 88/50/7
f 11/49/4 87/48/7 12/51/4
f 91/52/8 88/53/7 92/54/8
f 88/53/7 91/52/8 87/55/7
f 87/55/7 91/52/8 93/56/8
usemtl material-2
f 108//24 109//24 110//24
f 111//24 113//24 112//24
f 113//24 115//24 114//24
f 118//24 116//24 117//24
f 124//25 123//25 125//25
f 126//25 125//25 123//25
f 131//26 132//26 133//26
f 134//26 133//26 132//26
f 138//27 139//27 140//27
f 144//28 145//28 146//28
f 150//29 151//29 152//29
f 156//30 157//30 158//30
usemtl material-3
f 97/57/17 98/58/17 99/59/17
f 101/61/17 100/60/17 102/62/17
f 103/63/17 102/62/17 104/64/17
f 105/65/17 106/66/17 107/67/17
f 119/68/18 120/69/18 121/70/18
f 120/69/18 119/68/18 122/71/18
f 127/72/19 128/73/19 129/74/19
f 128/73/19 127/72/19 130/75/19
f 135/76/20 136/77/20 137/78/20
f 142/80/21 141/79/21 143/81/21
f 147/82/22 148/83/22 149/84/22
f 154/86/23 153/85/23 155/87/23