# SSTK version 0.8.0
# 4
mtllib original-4.mtl
o #ID63
v -0.245564 0.024946 0.042671
v -0.251652 -0.019370 0.049798
v -0.251652 0.024946 0.049798
v -0.245564 -0.019370 0.042671
v -0.259377 -0.019370 0.055108
v -0.259377 0.024946 0.055108
v -0.277557 0.024946 0.058972
v -0.259377 0.024946 0.055108
v -0.268213 0.024946 0.058237
v -0.251652 0.024946 0.049798
v -0.286774 0.024946 0.057264
v -0.245564 0.024946 0.042671
v -0.295236 0.024946 0.053229
v -0.241530 0.024946 0.034211
v -0.302364 0.024946 0.047141
v -0.239822 0.024946 0.024994
v -0.307672 0.024946 0.039416
v -0.240556 0.024946 0.015649
v -0.310801 0.024946 0.030580
v -0.243686 0.024946 0.006813
v -0.311536 0.024946 0.021235
v -0.248994 0.024946 -0.000912
v -0.309828 0.024946 0.012019
v -0.256122 0.024946 -0.007000
v -0.305792 0.024946 0.003558
v -0.264584 0.024946 -0.011035
v -0.299706 0.024946 -0.003569
v -0.273799 0.024946 -0.012743
v -0.291981 0.024946 -0.008879
v -0.283145 0.024946 -0.012008
v -0.241530 -0.019370 0.034211
v -0.241530 0.024946 0.034211
v -0.268213 -0.019370 0.058237
v -0.268213 0.024946 0.058237
v -0.248994 -0.019370 -0.000912
v -0.243686 0.024946 0.006813
v -0.248994 0.024946 -0.000912
v -0.243686 -0.019370 0.006813
v -0.240556 0.024946 0.015649
v -0.240556 -0.019370 0.015649
v -0.239822 0.024946 0.024994
v -0.239822 -0.019370 0.024994
v -0.277557 -0.019370 0.058972
v -0.277557 0.024946 0.058972
v -0.286774 -0.019370 0.057264
v -0.286774 0.024946 0.057264
v -0.295236 -0.019370 0.053229
v -0.295236 0.024946 0.053229
v -0.302364 0.024946 0.047141
v -0.302364 -0.019370 0.047141
v -0.307672 0.024946 0.039416
v -0.307672 -0.019370 0.039416
v -0.310801 0.024946 0.030580
v -0.310801 0.017966 0.030580
v -0.310801 -0.019370 0.030580
v -0.310801 0.017966 0.030580
v -0.311536 0.024946 0.021235
v -0.310801 0.024946 0.030580
v -0.311536 -0.019370 0.021235
v -0.310801 -0.019370 0.030580
v -0.309828 0.024946 0.012019
v -0.309828 -0.019370 0.012019
v -0.305792 0.024946 0.003558
v -0.305792 -0.019370 0.003558
v -0.299706 -0.019370 -0.003569
v -0.299706 0.024946 -0.003569
v -0.291981 -0.019370 -0.008879
v -0.291981 0.024946 -0.008879
v -0.283145 -0.019370 -0.012008
v -0.283145 0.024946 -0.012008
v -0.273799 -0.019370 -0.012743
v -0.273799 0.024946 -0.012743
v -0.264584 -0.019370 -0.011035
v -0.264584 0.024946 -0.011035
v -0.256122 -0.019370 -0.007000
v -0.256122 0.024946 -0.007000
vt -9.125932 12.80921
vt -9.106769 12.78789
vt -9.120794 12.81218
vt -9.111907 12.78492
vt -10.28716 12.13878
vt -10.268 12.11745
vt -10.28202 12.14175
vt -10.27314 12.11449
vt 0.5108293 0.5416607
vt 0.5108293 0.5298965
vt 0.5116037 0.5357786
vt 0.5085589 0.5244153
vt 0.5085589 0.547142
vt 0.5049472 0.5197084
vt 0.5049472 0.5518488
vt 0.5002403 0.5160967
vt 0.5002404 0.5554605
vt 0.4947591 0.5138263
vt 0.4947591 0.557731
vt 0.488877 0.5130519
vt 0.488877 0.5585053
vt 0.4829949 0.5138263
vt 0.4829949 0.557731
vt 0.4775136 0.5160967
vt 0.4775136 0.5554605
vt 0.4728067 0.5197084
vt 0.4728068 0.5518488
vt 0.469195 0.5244153
vt 0.4691951 0.547142
vt 0.4669246 0.5298965
vt 0.4669246 0.5416607
vt 0.4661502 0.5357786
vt -7.855312 13.51041
vt -7.864198 13.53767
vt -7.869336 13.5347
vt -7.850174 13.51338
vt -11.27389 11.5691
vt -11.25472 11.54777
vt -11.26875 11.57207
vt -11.25986 11.54481
vt -3.562969 15.9886
vt -3.571855 16.01586
vt -3.576993 16.01289
vt -3.557831 15.99156
vt -4.367104 15.52433
vt -4.37599 15.55159
vt -4.381128 15.54862
vt -4.361966 15.52729
vt -5.399221 14.92843
vt -5.408108 14.95569
vt -5.413246 14.95273
vt -5.394083 14.9314
vt -6.588984 14.24152
vt -6.59787 14.26878
vt -6.603008 14.26582
vt -6.583846 14.24449
vt -12.01886 11.13899
vt -11.9997 11.11767
vt -12.01373 11.14196
vt -12.00484 11.1147
vt -12.47133 10.87777
vt -12.45216 10.85644
vt -12.46619 10.88073
vt -12.4573 10.85348
vt 6.987724 -0.6010195
vt 6.968561 -0.5796947
vt 6.982586 -0.603986
vt 6.973699 -0.5767283
vt 6.770658 -0.6939532
vt 6.779544 -0.7212109
vt 6.784682 -0.7182444
vt 6.76552 -0.6969196
vt 6.249306 -0.9949545
vt 6.258193 -1.022212
vt 6.263331 -1.019246
vt 6.244168 -0.9979209
vt 5.445174 -1.459219
vt 5.454061 -1.486477
vt 5.459199 -1.483511
vt 5.451852 -1.482651
vt 5.440036 -1.462186
vt 4.424878 -2.075574
vt 4.421949 -2.082367
vt 4.427087 -2.0794
vt 4.407924 -2.058075
vt 4.413062 -2.055109
vt 3.223307 -2.742015
vt 3.232193 -2.769272
vt 3.237331 -2.766306
vt 3.218169 -2.744981
vt 1.956987 -3.473125
vt 1.965873 -3.500382
vt 1.971011 -3.497416
vt 1.951849 -3.476091
vt 0.6952618 -4.201582
vt 0.7144244 -4.222907
vt 0.7003998 -4.198616
vt 0.7092864 -4.225874
vt -0.4659576 -4.872013
vt -0.4467951 -4.893338
vt -0.4608196 -4.869047
vt -0.4519331 -4.896305
vt -1.452675 -5.441696
vt -1.433512 -5.463021
vt -1.447537 -5.438729
vt -1.43865 -5.465987
vt -2.197646 -5.871806
vt -2.178484 -5.893131
vt -2.192508 -5.86884
vt -2.183622 -5.896098
vt -2.650103 -6.133034
vt -2.630941 -6.154359
vt -2.644965 -6.130068
vt -2.636079 -6.157325
vt -2.833438 16.4098
vt -2.852601 16.43113
vt -2.838576 16.40683
vt -2.847463 16.43409
vt -3.041616 16.2896
vt -3.050503 16.31686
vt -3.055641 16.3139
vt -3.036478 16.29257
vn -0.8386705533772544 0 -0.5446390574480402
vn -0.6691305572905069 0 -0.7431448696587333
vn -0.45399052774554377 0 -0.891006509918599
vn 0 -1 0
vn -0.9510565024703977 0 -0.30901703692316784
vn -0.2079116463169867 0 -0.9781476101927359
vn -0.7431448696587333 0 0.6691305572905069
vn -0.891006509918599 0 0.45399052774554377
vn -0.9781476101927359 0 0.2079116463169867
vn -0.9986295361839107 0 -0.052335928969566986
vn 0.052335928969566986 0 -0.9986295361839107
vn 0.30901703692316784 0 -0.9510565024703977
vn 0.5446390574480402 0 -0.8386705533772544
vn 0.7431448696587333 0 -0.6691305572905069
vn 0.891006509918599 0 -0.45399052774554377
vn 0.9426414934630883 0 -0.3338068525385278
vn 0.9969173376054867 0 -0.07845904652484555
vn 0.9986295361839107 0 0.052335928969566986
vn 0.9510565024703977 0 0.30901703692316784
vn 0.8386705533772544 0 0.5446390574480402
vn 0.6691305572905069 0 0.7431448696587333
vn 0.45399052774554377 0 0.891006509918599
vn 0.2079116463169867 0 0.9781476101927359
vn -0.052335928969566986 0 0.9986295361839107
vn -0.30901703692316784 0 0.9510565024703977
vn -0.5446390574480402 0 0.8386705533772544
usemtl material_0_0
f 1/1/1 2/2/2 3/3/2
f 2/2/2 1/1/1 4/4/1
f 3/5/2 5/6/3 6/7/3
f 5/6/3 3/5/2 2/8/2
f 7/9/4 8/10/4 9/11/4
f 8/10/4 7/9/4 10/12/4
f 10/12/4 7/9/4 11/13/4
f 10/12/4 11/13/4 12/14/4
f 12/14/4 11/13/4 13/15/4
f 12/14/4 13/15/4 14/16/4
f 14/16/4 13/15/4 15/17/4
f 14/16/4 15/17/4 16/18/4
f 16/18/4 15/17/4 17/19/4
f 16/18/4 17/19/4 18/20/4
f 18/20/4 17/19/4 19/21/4
f 18/20/4 19/21/4 20/22/4
f 20/22/4 19/21/4 21/23/4
f 20/22/4 21/23/4 22/24/4
f 22/24/4 21/23/4 23/25/4
f 22/24/4 23/25/4 24/26/4
f 24/26/4 23/25/4 25/27/4
f 24/26/4 25/27/4 26/28/4
f 26/28/4 25/27/4 27/29/4
f 26/28/4 27/29/4 28/30/4
f 28/30/4 27/29/4 29/31/4
f 28/30/4 29/31/4 30/32/4
f 31/33/5 1/34/1 32/35/5
f 1/34/1 31/33/5 4/36/1
f 6/37/3 33/38/6 34/39/6
f 33/38/6 6/37/3 5/40/3
f 35/41/7 36/42/8 37/43/7
f 36/42/8 35/41/7 38/44/8
f 38/45/8 39/46/9 36/47/8
f 39/46/9 38/45/8 40/48/9
f 40/49/9 41/50/10 39/51/9
f 41/50/10 40/49/9 42/52/10
f 42/53/10 32/54/5 41/55/10
f 32/54/5 42/53/10 31/56/5
f 34/57/6 43/58/11 44/59/11
f 43/58/11 34/57/6 33/60/6
f 44/61/11 45/62/12 46/63/12
f 45/62/12 44/61/11 43/64/11
f 46/65/12 47/66/13 48/67/13
f 47/66/13 46/65/12 45/68/12
f 47/69/13 49/70/14 48/71/13
f 49/70/14 47/69/13 50/72/14
f 50/73/14 51/74/15 49/75/14
f 51/74/15 50/73/14 52/76/15
f 52/77/15 53/78/16 51/79/15
f 53/78/16 52/77/15 54/80/16
f 54/80/16 52/77/15 55/81/16
f 56/82/17 57/83/18 58/84/17
f 57/83/18 56/82/17 59/85/18
f 59/85/18 56/82/17 60/86/17
f 59/87/18 61/88/19 57/89/18
f 61/88/19 59/87/18 62/90/19
f 62/91/19 63/92/20 61/93/19
f 63/92/20 62/91/19 64/94/20
f 65/95/21 63/96/20 64/97/20
f 63/96/20 65/95/21 66/98/21
f 67/99/22 66/100/21 65/101/21
f 66/100/21 67/99/22 68/102/22
f 69/103/23 68/104/22 67/105/22
f 68/104/22 69/103/23 70/106/23
f 71/107/24 70/108/23 69/109/23
f 70/108/23 71/107/24 72/110/24
f 73/111/25 72/112/24 71/113/24
f 72/112/24 73/111/25 74/114/25
f 75/115/26 74/116/25 73/117/25
f 74/116/25 75/115/26 76/118/26
f 75/119/26 37/120/7 76/121/26
f 37/120/7 75/119/26 35/122/7
