# SSTK version 0.8.0
# 9
mtllib original-9.mtl
o #ID101
v -0.242502 -0.026350 0.008388
v -0.240794 0.017966 0.017605
v -0.242502 0.017966 0.008388
v -0.240794 -0.026350 0.017605
v -0.240794 -0.026350 0.017605
v -0.242502 -0.026350 0.008388
v -0.240794 0.017966 0.017605
v -0.242502 0.017966 0.008388
v -0.246538 -0.026350 -0.000072
v -0.246538 0.017966 -0.000072
v -0.246538 -0.026350 -0.000072
v -0.246538 0.017966 -0.000072
v -0.257096 -0.026350 0.049598
v -0.274773 -0.026350 0.055342
v -0.265556 -0.026350 0.053634
v -0.249967 -0.026350 0.043510
v -0.284116 -0.026350 0.054606
v -0.292953 -0.026350 0.051477
v -0.244659 -0.026350 0.035786
v -0.241529 -0.026350 0.026950
v -0.300679 -0.026350 0.046169
v -0.306766 -0.026350 0.039041
v -0.240794 -0.026350 0.017605
v -0.242502 -0.026350 0.008388
v -0.310801 -0.026350 0.030580
v -0.246538 -0.026350 -0.000072
v -0.312509 -0.026350 0.021363
v -0.311775 -0.026350 0.012019
v -0.252625 -0.026350 -0.007200
v -0.308645 -0.026350 0.003183
v -0.260351 -0.026350 -0.012509
v -0.269185 -0.026350 -0.015638
v -0.303335 -0.026350 -0.004542
v -0.278531 -0.026350 -0.016374
v -0.296208 -0.026350 -0.010630
v -0.287748 -0.026350 -0.014665
v -0.287748 -0.026350 -0.014665
v -0.278531 -0.026350 -0.016374
v -0.296208 -0.026350 -0.010630
v -0.303335 -0.026350 -0.004542
v -0.269185 -0.026350 -0.015638
v -0.308645 -0.026350 0.003183
v -0.260351 -0.026350 -0.012509
v -0.252625 -0.026350 -0.007200
v -0.311775 -0.026350 0.012019
v -0.246538 -0.026350 -0.000072
v -0.312509 -0.026350 0.021363
v -0.310801 -0.026350 0.030580
v -0.242502 -0.026350 0.008388
v -0.306766 -0.026350 0.039041
v -0.240794 -0.026350 0.017605
v -0.241529 -0.026350 0.026950
v -0.300679 -0.026350 0.046169
v -0.292953 -0.026350 0.051477
v -0.244659 -0.026350 0.035786
v -0.249967 -0.026350 0.043510
v -0.284116 -0.026350 0.054606
v -0.274773 -0.026350 0.055342
v -0.257096 -0.026350 0.049598
v -0.265556 -0.026350 0.053634
v -0.241529 0.017966 0.026950
v -0.241529 -0.026350 0.026950
v -0.241529 -0.026350 0.026950
v -0.241529 0.017966 0.026950
v -0.252625 -0.026350 -0.007200
v -0.252625 0.017966 -0.007200
v -0.252625 -0.026350 -0.007200
v -0.252625 0.017966 -0.007200
v -0.244659 0.017966 0.035786
v -0.249967 -0.026350 0.043510
v -0.249967 0.017966 0.043510
v -0.244659 -0.026350 0.035786
v -0.244659 -0.026350 0.035786
v -0.244659 0.017966 0.035786
v -0.249967 -0.026350 0.043510
v -0.249967 0.017966 0.043510
v -0.260351 -0.026350 -0.012509
v -0.260351 0.017966 -0.012509
v -0.260351 -0.026350 -0.012509
v -0.260351 0.017966 -0.012509
v -0.269185 0.017966 -0.015638
v -0.269185 -0.026350 -0.015638
v -0.269185 0.017966 -0.015638
v -0.269185 -0.026350 -0.015638
v -0.278531 0.017966 -0.016374
v -0.278531 -0.026350 -0.016374
v -0.278531 0.017966 -0.016374
v -0.278531 -0.026350 -0.016374
v -0.287748 0.017966 -0.014665
v -0.287748 -0.026350 -0.014665
v -0.287748 0.017966 -0.014665
v -0.287748 -0.026350 -0.014665
v -0.296208 0.017966 -0.010630
v -0.296208 -0.026350 -0.010630
v -0.296208 0.017966 -0.010630
v -0.296208 -0.026350 -0.010630
v -0.303335 0.017966 -0.004542
v -0.303335 -0.026350 -0.004542
v -0.303335 0.017966 -0.004542
v -0.303335 -0.026350 -0.004542
v -0.308645 0.017966 0.003183
v -0.308645 -0.026350 0.003183
v -0.308645 0.017966 0.003183
v -0.308645 -0.026350 0.003183
v -0.311775 -0.026350 0.012019
v -0.311775 0.017966 0.012019
v -0.311775 -0.026350 0.012019
v -0.311775 0.017966 0.012019
v -0.312509 -0.026350 0.021363
v -0.312509 0.017966 0.021363
v -0.312509 -0.026350 0.021363
v -0.312509 0.017966 0.021363
v -0.310801 -0.019370 0.030580
v -0.310801 0.017966 0.030580
v -0.310801 -0.026350 0.030580
v -0.310801 -0.026350 0.030580
v -0.310801 -0.019370 0.030580
v -0.310801 0.017966 0.030580
v -0.306766 -0.026350 0.039041
v -0.310801 0.017966 0.030580
v -0.306766 0.017966 0.039041
v -0.310801 -0.019370 0.030580
v -0.310801 -0.026350 0.030580
v -0.310801 -0.026350 0.030580
v -0.306766 -0.026350 0.039041
v -0.310801 -0.019370 0.030580
v -0.310801 0.017966 0.030580
v -0.306766 0.017966 0.039041
v -0.300679 -0.026350 0.046169
v -0.300679 0.017966 0.046169
v -0.300679 -0.026350 0.046169
v -0.300679 0.017966 0.046169
v -0.292953 -0.026350 0.051477
v -0.292953 0.017966 0.051477
v -0.292953 -0.026350 0.051477
v -0.292953 0.017966 0.051477
v -0.284116 0.017966 0.054606
v -0.284116 -0.026350 0.054606
v -0.284116 -0.026350 0.054606
v -0.284116 0.017966 0.054606
v -0.274773 0.017966 0.055342
v -0.274773 -0.026350 0.055342
v -0.274773 -0.026350 0.055342
v -0.274773 0.017966 0.055342
v -0.265556 0.017966 0.053634
v -0.265556 -0.026350 0.053634
v -0.265556 -0.026350 0.053634
v -0.265556 0.017966 0.053634
v -0.257096 0.017966 0.049598
v -0.257096 -0.026350 0.049598
v -0.257096 -0.026350 0.049598
v -0.257096 0.017966 0.049598
vt -6.59786 14.26876
vt -6.588973 14.2415
vt -6.583835 14.24447
vt -6.602998 14.26579
vt -7.864185 13.53765
vt -7.855299 13.51039
vt -7.850161 13.51336
vt -7.869323 13.53468
vt 0.4728074 0.5197091
vt 0.4669253 0.5298973
vt 0.4691957 0.524416
vt 0.4775143 0.5160974
vt 0.4661509 0.5357794
vt 0.4669253 0.5416615
vt 0.4829955 0.513827
vt 0.4888777 0.5130526
vt 0.4691957 0.5471428
vt 0.4728074 0.5518496
vt 0.4947598 0.513827
vt 0.5002411 0.5160974
vt 0.4775143 0.5554613
vt 0.5049479 0.5197091
vt 0.4829956 0.5577317
vt 0.4888777 0.5585061
vt 0.5085596 0.524416
vt 0.4947598 0.5577317
vt 0.51083 0.5298973
vt 0.5116044 0.5357794
vt 0.5002411 0.5554613
vt 0.51083 0.5416615
vt 0.5049479 0.5518496
vt 0.5085596 0.5471428
vt -5.408099 14.95567
vt -5.399213 14.92841
vt -5.394075 14.93138
vt -5.413237 14.9527
vt -9.120777 12.81215
vt -9.111891 12.7849
vt -9.106753 12.78786
vt -9.125915 12.80919
vt -3.557824 15.99154
vt -3.576987 16.01286
vt -3.562962 15.98857
vt -3.571849 16.01583
vt -4.375983 15.55156
vt -4.367097 15.5243
vt -4.361959 15.52727
vt -4.381121 15.54859
vt -10.282 12.14172
vt -10.27311 12.11446
vt -10.26798 12.11743
vt -10.28714 12.13875
vt -11.27386 11.56907
vt -11.2547 11.54775
vt -11.26872 11.57204
vt -11.25983 11.54478
vt -12.01883 11.13896
vt -11.99967 11.11764
vt -12.01369 11.14193
vt -12.00481 11.11467
vt -12.47129 10.87774
vt -12.45213 10.85641
vt -12.46615 10.8807
vt -12.45727 10.85344
vt 6.987746 -0.6010215
vt 6.968584 -0.5796966
vt 6.982608 -0.6039879
vt 6.973722 -0.5767302
vt 6.784706 -0.7182469
vt 6.765543 -0.6969221
vt 6.779568 -0.7212134
vt 6.770681 -0.6939556
vt 6.263354 -1.019249
vt 6.244191 -0.9979246
vt 6.258216 -1.022216
vt 6.249329 -0.9949582
vt 5.454082 -1.486483
vt 5.445195 -1.459225
vt 5.440057 -1.462191
vt 5.45922 -1.483516
vt 4.421966 -2.082375
vt 4.413079 -2.055117
vt 4.407941 -2.058083
vt 4.427104 -2.079408
vt 3.229997 -2.765457
vt 3.223319 -2.742025
vt 3.218181 -2.744992
vt 3.237344 -2.766317
vt 3.232206 -2.769283
vt 1.965881 -3.500396
vt 1.956994 -3.473138
vt 1.951856 -3.476104
vt 1.96881 -3.493603
vt 1.971019 -3.497429
vt 0.7092889 -4.225889
vt 0.7004023 -4.198631
vt 0.6952643 -4.201598
vt 0.7144269 -4.222922
vt -0.4519346 -4.896321
vt -0.4608212 -4.869064
vt -0.4659592 -4.87203
vt -0.4467966 -4.893355
vt -1.452679 -5.441713
vt -1.433517 -5.463038
vt -1.447541 -5.438746
vt -1.438655 -5.466004
vt -2.197652 -5.871823
vt -2.17849 -5.893148
vt -2.192514 -5.868857
vt -2.183628 -5.896114
vt -2.65011 -6.133049
vt -2.630947 -6.154374
vt -2.644972 -6.130083
vt -2.636085 -6.157341
vt -2.833432 16.40976
vt -2.852594 16.43109
vt -2.83857 16.4068
vt -2.847456 16.43406
vt -3.036472 16.29254
vt -3.055635 16.31386
vt -3.04161 16.28957
vt -3.050497 16.31683
vn -0.9510565192147376 0 0.30901698538939193
vn -0.9986295333250897 0 0.05233598351912
vn -0.838670593112948 0 0.5446389962604368
vn 0 1 0
vn -0.9781475983760476 0 -0.2079117019101392
vn -0.6691306119738759 0 0.7431448204216096
vn -0.8910065198990789 0 -0.45399050815775055
vn -0.7431448204216096 0 -0.6691306119738759
vn -0.45399050815775055 0 0.8910065198990789
vn -0.2079117019101392 0 0.9781475983760476
vn 0.05233598351912 0 0.9986295333250897
vn 0.30901698538939315 0 0.9510565192147371
vn 0.5446389962604368 0 0.838670593112948
vn 0.7431448204216096 0 0.6691306119738759
vn 0.8910065198990789 0 0.45399050815775055
vn 0.9781475983760476 0 0.2079117019101392
vn 0.9986295333250897 0 -0.05233598351912
vn 0.9832549097725819 0 -0.18223551357546056
vn 0.838670593112948 0 -0.5446389962604368
vn 0.9025852872671374 0 -0.4305110906920969
vn 0.6691306119738759 0 -0.7431448204216096
vn 0.45399050815775055 0 -0.8910065198990789
vn 0.2079117019101392 0 -0.9781475983760476
vn -0.05233598351912 0 -0.9986295333250897
vn -0.30901698538939315 0 -0.9510565192147371
vn -0.5446389962604368 0 -0.838670593112948
vn 0.9510565192147376 0 -0.30901698538939193
vn 0 -1 0
vn -0.9832549097725819 0 0.18223551357546056
vn -0.9025852872671374 0 0.4305110906920969
usemtl material_0_0
f 5//17 6//27 7//17
f 8//27 7//17 6//27
f 6//27 11//19 8//27
f 12//19 8//27 11//19
f 37//28 38//28 39//28
f 39//28 38//28 40//28
f 38//28 41//28 40//28
f 40//28 41//28 42//28
f 41//28 43//28 42//28
f 43//28 44//28 42//28
f 42//28 44//28 45//28
f 44//28 46//28 45//28
f 45//28 46//28 47//28
f 47//28 46//28 48//28
f 46//28 49//28 48//28
f 48//28 49//28 50//28
f 49//28 51//28 50//28
f 51//28 52//28 50//28
f 50//28 52//28 53//28
f 53//28 52//28 54//28
f 52//28 55//28 54//28
f 55//28 56//28 54//28
f 54//28 56//28 57//28
f 57//28 56//28 58//28
f 56//28 59//28 58//28
f 60//28 58//28 59//28
f 63//16 5//17 64//16
f 7//17 64//16 5//17
f 11//19 67//21 12//19
f 68//21 12//19 67//21
f 73//15 74//15 75//14
f 76//14 75//14 74//15
f 73//15 63//16 74//15
f 64//16 74//15 63//16
f 67//21 79//22 68//21
f 80//22 68//21 79//22
f 80//22 79//22 83//23
f 84//23 83//23 79//22
f 83//23 84//23 87//24
f 88//24 87//24 84//23
f 87//24 88//24 91//25
f 92//25 91//25 88//24
f 91//25 92//25 95//26
f 96//26 95//26 92//25
f 95//26 96//26 99//8
f 100//8 99//8 96//26
f 99//8 100//8 103//7
f 104//7 103//7 100//8
f 104//7 107//5 103//7
f 108//5 103//7 107//5
f 107//5 111//2 108//5
f 112//2 108//5 111//2
f 116//29 117//29 111//2
f 111//2 117//29 112//2
f 118//29 112//2 117//29
f 124//30 125//3 126//30
f 126//30 125//3 127//30
f 128//3 127//30 125//3
f 125//3 131//6 128//3
f 132//6 128//3 131//6
f 131//6 135//9 132//6
f 136//9 132//6 135//9
f 139//10 140//10 135//9
f 136//9 135//9 140//10
f 143//11 144//11 139//10
f 140//10 139//10 144//11
f 147//12 148//12 143//11
f 144//11 143//11 148//12
f 151//13 152//13 147//12
f 148//12 147//12 152//13
f 75//14 76//14 151//13
f 152//13 151//13 76//14
usemtl material_1_0
f 1/1/1 2/2/2 3/3/1
f 2/2/2 1/1/1 4/4/2
f 9/5/3 3/6/1 10/7/3
f 3/6/1 9/5/3 1/8/1
f 13/9/4 14/10/4 15/11/4
f 14/10/4 13/9/4 16/12/4
f 14/10/4 16/12/4 17/13/4
f 17/13/4 16/12/4 18/14/4
f 18/14/4 16/12/4 19/15/4
f 18/14/4 19/15/4 20/16/4
f 18/14/4 20/16/4 21/17/4
f 21/17/4 20/16/4 22/18/4
f 22/18/4 20/16/4 23/19/4
f 22/18/4 23/19/4 24/20/4
f 22/18/4 24/20/4 25/21/4
f 25/21/4 24/20/4 26/22/4
f 25/21/4 26/22/4 27/23/4
f 27/23/4 26/22/4 28/24/4
f 28/24/4 26/22/4 29/25/4
f 28/24/4 29/25/4 30/26/4
f 30/26/4 29/25/4 31/27/4
f 30/26/4 31/27/4 32/28/4
f 30/26/4 32/28/4 33/29/4
f 33/29/4 32/28/4 34/30/4
f 33/29/4 34/30/4 35/31/4
f 35/31/4 34/30/4 36/32/4
f 4/33/2 61/34/5 2/35/2
f 61/34/5 4/33/2 62/36/5
f 65/37/6 10/38/3 66/39/6
f 10/38/3 65/37/6 9/40/3
f 69/41/7 70/42/8 71/43/8
f 70/42/8 69/41/7 72/44/7
f 62/45/5 69/46/7 61/47/5
f 69/46/7 62/45/5 72/48/7
f 77/49/9 66/50/6 78/51/9
f 66/50/6 77/49/9 65/52/6
f 77/53/9 81/54/10 82/55/10
f 81/54/10 77/53/9 78/56/9
f 82/57/10 85/58/11 86/59/11
f 85/58/11 82/57/10 81/60/10
f 86/61/11 89/62/12 90/63/12
f 89/62/12 86/61/11 85/64/11
f 90/65/12 93/66/13 94/67/13
f 93/66/13 90/65/12 89/68/12
f 94/69/13 97/70/14 98/71/14
f 97/70/14 94/69/13 93/72/13
f 98/73/14 101/74/15 102/75/15
f 101/74/15 98/73/14 97/76/14
f 105/77/16 101/78/15 106/79/16
f 101/78/15 105/77/16 102/80/15
f 109/81/17 106/82/16 110/83/17
f 106/82/16 109/81/17 105/84/16
f 113/85/18 110/86/17 114/87/18
f 110/86/17 113/85/18 109/88/17
f 109/88/17 113/85/18 115/89/18
f 119/90/19 120/91/20 121/92/19
f 120/91/20 119/90/19 122/93/20
f 122/93/20 119/90/19 123/94/20
f 129/95/21 121/96/19 130/97/21
f 121/96/19 129/95/21 119/98/19
f 133/99/22 130/100/21 134/101/22
f 130/100/21 133/99/22 129/102/21
f 137/103/23 133/104/22 134/105/22
f 133/104/22 137/103/23 138/106/23
f 141/107/24 138/108/23 137/109/23
f 138/108/23 141/107/24 142/110/24
f 145/111/25 142/112/24 141/113/24
f 142/112/24 145/111/25 146/114/25
f 149/115/26 146/116/25 145/117/25
f 146/116/25 149/115/26 150/118/26
f 71/119/8 150/120/26 149/121/26
f 150/120/26 71/119/8 70/122/8
