# SSTK version 0.8.0
# 3
mtllib original-3.mtl
o mesh2/mesh2-geometry#mesh2-geometry
v 0.226285 -0.438919 0.109280
v 0.228085 -0.424359 0.109280
v 0.228085 -0.433414 0.109280
v 0.226285 -0.418854 0.109280
v 0.228085 -0.433414 0.118213
v 0.226285 -0.438919 0.118213
v 0.224484 -0.442752 0.109280
v 0.228085 -0.424359 0.118213
v 0.224484 -0.442752 0.118213
v 0.224484 -0.415021 0.109280
v 0.226285 -0.418854 0.118213
v 0.224484 -0.415021 0.118213
v 0.220702 -0.446611 0.118213
v 0.223738 -0.432713 0.109280
v 0.223738 -0.425060 0.118213
v 0.220702 -0.446611 0.109280
v 0.223738 -0.432713 0.118213
v 0.223738 -0.425060 0.109280
v 0.220702 -0.411162 0.118213
v 0.216689 -0.448669 0.109280
v 0.222316 -0.437207 0.118213
v 0.222316 -0.437207 0.109280
v 0.220702 -0.411162 0.109280
v 0.222321 -0.420566 0.118213
v 0.216689 -0.448669 0.118213
v 0.218102 -0.442908 0.109280
v 0.220868 -0.440083 0.118213
v 0.220868 -0.440083 0.109280
v 0.222321 -0.420566 0.109280
v 0.216689 -0.409104 0.118213
v 0.220877 -0.417689 0.118213
v 0.218102 -0.442908 0.118213
v 0.209152 -0.448669 0.109280
v 0.215594 -0.444192 0.109280
v 0.220877 -0.417689 0.109280
v 0.216689 -0.409104 0.109280
v 0.218119 -0.414839 0.118213
v 0.215594 -0.444192 0.118213
v 0.209152 -0.448669 0.118213
v 0.218119 -0.414839 0.109280
v 0.209152 -0.409104 0.118213
v 0.215620 -0.413580 0.118213
v 0.205113 -0.446611 0.109280
v 0.210114 -0.444192 0.109280
v 0.210114 -0.444192 0.118213
v 0.215620 -0.413580 0.109280
v 0.209152 -0.409104 0.109280
v 0.205113 -0.446611 0.118213
v 0.207702 -0.442963 0.109280
v 0.205113 -0.411162 0.118213
v 0.210156 -0.413580 0.118213
v 0.210156 -0.413580 0.109280
v 0.207702 -0.442963 0.118213
v 0.201358 -0.442752 0.118213
v 0.204961 -0.440147 0.109280
v 0.205113 -0.411162 0.109280
v 0.207682 -0.414830 0.118213
v 0.204961 -0.440147 0.118213
v 0.201358 -0.442752 0.109280
v 0.207682 -0.414830 0.109280
v 0.201358 -0.415021 0.109280
v 0.204961 -0.417625 0.118213
v 0.199531 -0.438919 0.118213
v 0.203511 -0.437225 0.118213
v 0.203511 -0.437225 0.109280
v 0.204961 -0.417625 0.109280
v 0.201358 -0.415021 0.118213
v 0.199531 -0.438919 0.109280
v 0.199531 -0.418854 0.118213
v 0.202078 -0.432752 0.118213
v 0.202078 -0.432752 0.109280
v 0.199531 -0.418854 0.109280
v 0.203512 -0.420544 0.109280
v 0.203512 -0.420544 0.118213
v 0.197730 -0.433414 0.118213
v 0.197730 -0.424359 0.118213
v 0.202078 -0.425135 0.109280
v 0.202078 -0.425135 0.118213
v 0.197730 -0.433414 0.109280
v 0.197730 -0.424359 0.109280
vn 0 0 -1
vn 0 0 1
vn 0.9875335089801921 0.15740892173339108 0
vn 0.987533508980192 -0.15740892173339194 0
vn -0.987533508980192 0.15740892173339194 0
vn -0.9875335089801921 -0.15740892173339108 0
vn 0.9295285273755957 -0.368750209213441 0
vn -0.9295285273755957 0.368750209213441 0
vn 0.929528527375596 0.3687502092134402 0
vn -0.929528527375596 -0.3687502092134402 0
vn 0.8212219161676177 -0.5706089417508161 0
vn -0.8212219161676177 0.5706089417508161 0
vn 0.5929161503777843 -0.8052642042343547 0
vn -0.5929161503777843 0.8052642042343547 0
vn 0.8212219161676183 0.5706089417508152 0
vn -0.8212219161676183 -0.5706089417508152 0
vn 0.23471505265586304 -0.9720642180724253 0
vn -0.23471505265586304 0.9720642180724253 0
vn -0.988289414685337 0.15259106402707173 0
vn -0.9883575777910293 -0.15214893500465107 0
vn 0.9883575777910293 0.15214893500465107 0
vn 0.988289414685337 -0.15259106402707173 0
vn 0.5929161503777851 0.8052642042343541 0
vn -0.5929161503777851 -0.8052642042343541 0
vn -0.9262893017434205 0.3768131227487792 0
vn 0.9262893017434205 -0.3768131227487792 0
vn -0.9266886795413799 -0.37582987003410673 0
vn 0.9266886795413799 0.37582987003410673 0
vn 0.2347150526558639 0.972064218072425 0
vn -0.2347150526558639 -0.972064218072425 0
vn -0.23345608327088202 -0.9723673468313399 0
vn 0.23345608327088202 0.9723673468313399 0
vn -0.8135212547680503 0.5815351821176573 0
vn 0.8135212547680503 -0.5815351821176573 0
vn -0.8156341009021012 -0.5785680715746602 0
vn 0.8156341009021012 0.5785680715746602 0
vn -0.5928459289853614 0.8053159035344353 0
vn 0.5928459289853614 -0.8053159035344353 0
vn -0.23443801676173226 0.9721310695049438 0
vn 0.23443801676173226 -0.9721310695049438 0
vn -0.2334560832708811 0.9723673468313401 0
vn 0.2334560832708811 -0.9723673468313401 0
vn -0.5925181005583295 -0.8055571367139324 0
vn 0.5925181005583295 0.8055571367139324 0
vn -0.5932467587117616 -0.8050206725780332 0
vn 0.5932467587117616 0.8050206725780332 0
vn 0.2334999549988427 0.9723568126030374 0
vn -0.2334999549988427 -0.9723568126030374 0
vn -0.23109693596651482 -0.9729307304155258 0
vn 0.23109693596651482 0.9729307304155258 0
vn -0.5932467587117607 0.8050206725780338 0
vn 0.5932467587117607 -0.8050206725780338 0
vn 0.2317408924299577 -0.9727775484537905 0
vn -0.2317408924299577 0.9727775484537905 0
vn -0.8206307427971324 -0.5714588208928325 0
vn 0.8206307427971324 0.5714588208928325 0
vn 0.5932870075792419 0.8049910102837599 0
vn -0.5932870075792419 -0.8049910102837599 0
vn 0.8160381201828393 0.5779980851252517 0
vn -0.8160381201828393 -0.5779980851252517 0
vn -0.820630742797132 0.5714588208928334 0
vn 0.820630742797132 -0.5714588208928334 0
vn 0.591783799957876 -0.8060967275131543 0
vn -0.591783799957876 0.8060967275131543 0
vn -0.9285137896916507 -0.37129791590103123 0
vn 0.9285137896916507 0.37129791590103123 0
vn 0.8160057315455822 -0.5780438098317109 0
vn -0.8160057315455822 0.5780438098317109 0
vn 0.9266662739313947 0.37588511111522577 0
vn -0.9266662739313947 -0.37588511111522577 0
vn -0.9285137896916503 0.371297915901032 0
vn 0.9285137896916503 -0.371297915901032 0
vn 0.9880090450052952 0.15439600703296946 0
vn -0.9880090450052952 -0.15439600703296946 0
vn 0.9280049096823905 -0.37256796374001144 0
vn -0.9280049096823905 0.37256796374001144 0
vn 0.9885548363600828 -0.15086197502714088 0
vn -0.9885548363600828 0.15086197502714088 0
usemtl material_0_0
f 1//1 2//1 3//1
f 2//1 1//1 4//1
f 3//2 2//2 1//2
f 4//2 1//2 2//2
f 2//3 5//4 3//4
f 3//5 5//5 2//6
f 3//4 6//7 1//7
f 1//8 6//8 3//5
f 4//1 1//1 7//1
f 7//2 1//2 4//2
f 4//9 8//3 2//3
f 2//6 8//6 4//10
f 5//4 2//3 8//3
f 8//6 2//6 5//5
f 6//7 3//4 5//4
f 5//5 3//5 6//8
f 9//11 1//7 6//7
f 6//8 1//8 9//12
f 1//7 9//11 7//11
f 7//12 9//12 1//8
f 4//1 7//1 10//1
f 10//2 7//2 4//2
f 8//3 4//9 11//9
f 11//10 4//10 8//6
f 11//2 5//2 8//2
f 8//1 5//1 11//1
f 5//2 11//2 6//2
f 6//1 11//1 5//1
f 6//2 12//2 9//2
f 9//1 12//1 6//1
f 13//13 7//11 9//11
f 9//12 7//12 13//14
f 10//1 7//1 14//1
f 14//2 7//2 10//2
f 10//15 11//9 4//9
f 4//10 11//10 10//16
f 6//2 11//2 12//2
f 12//1 11//1 6//1
f 9//2 12//2 15//2
f 15//1 12//1 9//1
f 7//11 13//13 16//13
f 16//14 13//14 7//12
f 9//2 17//2 13//2
f 13//1 17//1 9//1
f 14//1 7//1 16//1
f 16//2 7//2 14//2
f 18//1 10//1 14//1
f 14//2 10//2 18//2
f 11//9 10//15 12//15
f 12//16 10//16 11//10
f 15//2 12//2 19//2
f 19//1 12//1 15//1
f 17//2 9//2 15//2
f 15//1 9//1 17//1
f 13//13 20//17 16//13
f 16//14 20//18 13//14
f 13//2 17//2 21//2
f 21//1 17//1 13//1
f 14//1 16//1 22//1
f 22//2 16//2 14//2
f 10//1 18//1 23//1
f 23//2 18//2 10//2
f 14//19 15//20 18//20
f 18//21 15//21 14//22
f 23//23 12//15 10//15
f 10//16 12//16 23//24
f 12//15 23//23 19//23
f 19//24 23//24 12//16
f 15//2 19//2 24//2
f 24//1 19//1 15//1
f 15//20 14//19 17//19
f 17//22 14//22 15//21
f 20//17 13//13 25//17
f 25//18 13//14 20//18
f 26//1 16//1 20//1
f 20//2 16//2 26//2
f 17//19 22//25 21//25
f 21//26 22//26 17//22
f 13//2 21//2 27//2
f 27//1 21//1 13//1
f 22//1 16//1 28//1
f 28//2 16//2 22//2
f 22//25 17//19 14//19
f 14//22 17//22 22//26
f 23//1 18//1 29//1
f 29//2 18//2 23//2
f 24//27 18//20 15//20
f 15//21 18//21 24//28
f 23//23 30//29 19//23
f 19//24 30//30 23//24
f 24//2 19//2 31//2
f 31//1 19//1 24//1
f 13//2 32//2 25//2
f 25//1 32//1 13//1
f 25//17 33//31 20//17
f 20//18 33//32 25//18
f 28//1 16//1 26//1
f 26//2 16//2 28//2
f 26//1 20//1 34//1
f 34//2 20//2 26//2
f 28//33 21//25 22//25
f 22//26 21//26 28//34
f 21//25 28//33 27//33
f 27//34 28//34 21//26
f 13//2 27//2 32//2
f 32//1 27//1 13//1
f 18//20 24//27 29//27
f 29//28 24//28 18//21
f 23//1 29//1 35//1
f 35//2 29//2 23//2
f 30//29 23//23 36//29
f 36//30 23//24 30//30
f 37//2 19//2 30//2
f 30//1 19//1 37//1
f 31//2 19//2 37//2
f 37//1 19//1 31//1
f 31//35 29//27 24//27
f 24//28 29//28 31//36
f 25//2 32//2 38//2
f 38//1 32//1 25//1
f 33//31 25//17 39//31
f 39//32 25//18 33//32
f 34//1 20//1 33//1
f 33//2 20//2 34//2
f 26//37 27//33 28//33
f 28//34 27//34 26//38
f 38//39 26//37 34//39
f 34//40 26//38 38//40
f 27//33 26//37 32//37
f 32//38 26//38 27//34
f 29//27 31//35 35//35
f 35//36 31//36 29//28
f 23//1 35//1 40//1
f 40//2 35//2 23//2
f 23//1 40//1 36//1
f 36//2 40//2 23//2
f 36//29 41//41 30//29
f 30//30 41//42 36//30
f 37//2 30//2 42//2
f 42//1 30//1 37//1
f 37//43 35//35 31//35
f 31//36 35//36 37//44
f 26//37 38//39 32//37
f 32//38 38//40 26//38
f 25//2 38//2 39//2
f 39//1 38//1 25//1
f 39//31 43//45 33//31
f 33//32 43//46 39//32
f 34//1 33//1 44//1
f 44//2 33//2 34//2
f 34//39 45//47 38//39
f 38//40 45//48 34//40
f 35//35 37//43 40//43
f 40//44 37//44 35//36
f 36//1 40//1 46//1
f 46//2 40//2 36//2
f 41//41 36//29 47//41
f 47//42 36//30 41//42
f 42//2 30//2 41//2
f 41//1 30//1 42//1
f 46//49 37//43 42//49
f 42//50 37//44 46//50
f 39//2 38//2 45//2
f 45//1 38//1 39//1
f 43//45 39//31 48//45
f 48//46 39//32 43//46
f 49//1 33//1 43//1
f 43//2 33//2 49//2
f 44//1 33//1 49//1
f 49//2 33//2 44//2
f 45//47 34//39 44//47
f 44//48 34//40 45//48
f 37//43 46//49 40//43
f 40//44 46//50 37//44
f 36//1 46//1 47//1
f 47//2 46//2 36//2
f 47//41 50//51 41//41
f 41//42 50//52 47//42
f 42//2 41//2 51//2
f 51//1 41//1 42//1
f 42//49 52//53 46//49
f 46//50 52//54 42//50
f 39//2 45//2 53//2
f 53//1 45//1 39//1
f 39//2 53//2 48//2
f 48//1 53//1 39//1
f 54//55 43//45 48//45
f 48//46 43//46 54//56
f 49//1 43//1 55//1
f 55//2 43//2 49//2
f 53//57 44//47 49//57
f 49//58 44//48 53//58
f 44//47 53//57 45//47
f 45//48 53//58 44//48
f 47//1 46//1 52//1
f 52//2 46//2 47//2
f 50//51 47//41 56//51
f 56//52 47//42 50//52
f 57//2 41//2 50//2
f 50//1 41//1 57//1
f 51//2 41//2 57//2
f 57//1 41//1 51//1
f 52//53 42//49 51//53
f 51//54 42//50 52//54
f 48//2 53//2 58//2
f 58//1 53//1 48//1
f 43//45 54//55 59//55
f 59//56 54//56 43//46
f 48//2 58//2 54//2
f 54//1 58//1 48//1
f 55//1 43//1 59//1
f 59//2 43//2 55//2
f 55//59 53//57 49//57
f 49//58 53//58 55//60
f 47//1 52//1 60//1
f 60//2 52//2 47//2
f 47//1 60//1 56//1
f 56//2 60//2 47//2
f 61//61 50//51 56//51
f 56//52 50//52 61//62
f 57//2 50//2 62//2
f 62//1 50//1 57//1
f 60//63 51//53 57//63
f 57//64 51//54 60//64
f 51//53 60//63 52//53
f 52//54 60//64 51//54
f 53//57 55//59 58//59
f 58//60 55//60 53//58
f 63//65 59//55 54//55
f 54//56 59//56 63//66
f 54//2 58//2 64//2
f 64//1 58//1 54//1
f 55//1 59//1 65//1
f 65//2 59//2 55//2
f 56//1 60//1 66//1
f 66//2 60//2 56//2
f 50//51 61//61 67//61
f 67//62 61//62 50//52
f 56//1 66//1 61//1
f 61//2 66//2 56//2
f 62//2 50//2 67//2
f 67//1 50//1 62//1
f 62//67 60//63 57//63
f 57//64 60//64 62//68
f 65//69 58//59 55//59
f 55//60 58//60 65//70
f 59//55 63//65 68//65
f 68//66 63//66 59//56
f 54//2 69//2 63//2
f 63//1 69//1 54//1
f 58//59 65//69 64//69
f 64//70 65//70 58//60
f 54//2 64//2 70//2
f 70//1 64//1 54//1
f 65//1 59//1 71//1
f 71//2 59//2 65//2
f 60//63 62//67 66//67
f 66//68 62//68 60//64
f 72//71 67//61 61//61
f 61//62 67//62 72//72
f 61//1 66//1 73//1
f 73//2 66//2 61//2
f 62//2 67//2 74//2
f 74//1 67//1 62//1
f 75//6 68//65 63//65
f 63//66 68//66 75//3
f 61//1 59//1 68//1
f 68//2 59//2 61//2
f 54//2 67//2 69//2
f 69//1 67//1 54//1
f 63//2 69//2 76//2
f 76//1 69//1 63//1
f 71//73 64//69 65//69
f 65//70 64//70 71//74
f 64//69 71//73 70//73
f 70//74 71//74 64//70
f 54//2 70//2 67//2
f 67//1 70//1 54//1
f 71//1 59//1 77//1
f 77//2 59//2 71//2
f 74//75 66//67 62//67
f 62//68 66//68 74//76
f 67//61 72//71 69//71
f 69//72 72//72 67//62
f 61//1 68//1 72//1
f 72//2 68//2 61//2
f 66//67 74//75 73//75
f 73//76 74//76 66//68
f 61//1 73//1 77//1
f 77//2 73//2 61//2
f 74//2 67//2 78//2
f 78//1 67//1 74//1
f 68//65 75//6 79//6
f 79//3 75//3 68//66
f 63//2 76//2 75//2
f 75//1 76//1 63//1
f 61//1 77//1 59//1
f 59//2 77//2 61//2
f 69//71 80//5 76//5
f 76//4 80//4 69//72
f 77//77 70//73 71//73
f 71//74 70//74 77//78
f 78//2 67//2 70//2
f 70//1 67//1 78//1
f 80//5 69//71 72//71
f 72//72 69//72 80//4
f 72//1 68//1 79//1
f 79//2 68//2 72//2
f 78//77 73//75 74//75
f 74//76 73//76 78//78
f 73//75 78//77 77//77
f 77//78 78//78 73//76
f 76//5 79//6 75//6
f 75//3 79//3 76//4
f 79//6 76//5 80//5
f 80//4 76//4 79//3
f 70//73 77//77 78//77
f 78//78 77//78 70//74
f 72//1 79//1 80//1
f 80//2 79//2 72//2
