# SSTK version 0.8.0
# 44
mtllib original-44.mtl
o mesh9/mesh9-geometry/material_3/component_0#mesh9-geometry
v 0.206845 -0.339292 0.070430
v -0.214520 -0.339292 0.070430
v 0.249574 -0.187602 0.070430
v 0.212422 -0.338926 0.070430
v 0.206845 -0.339292 0.070430
v 0.249574 -0.187602 0.070430
v -0.214520 -0.339292 0.070430
v -0.220098 -0.338926 0.070430
v 0.249574 -0.187602 0.070430
v 0.217904 -0.337836 0.070430
v 0.212422 -0.338926 0.070430
v 0.249574 -0.187602 0.070430
v -0.225579 -0.337836 0.070430
v -0.230872 -0.336039 0.070430
v 0.249574 -0.187602 0.070430
v -0.220098 -0.338926 0.070430
v -0.225579 -0.337836 0.070430
v 0.249574 -0.187602 0.070430
v 0.223196 -0.336039 0.070430
v 0.217904 -0.337836 0.070430
v 0.249574 -0.187602 0.070430
v 0.228209 -0.333567 0.070430
v 0.223196 -0.336039 0.070430
v 0.249574 -0.187602 0.070430
v -0.240532 -0.330462 0.070430
v -0.244735 -0.326777 0.070430
v 0.249574 -0.187602 0.070430
v -0.235885 -0.333567 0.070430
v -0.240532 -0.330462 0.070430
v 0.249574 -0.187602 0.070430
v -0.230872 -0.336039 0.070430
v -0.235885 -0.333567 0.070430
v 0.249574 -0.187602 0.070430
v 0.232856 -0.330462 0.070430
v 0.228209 -0.333567 0.070430
v 0.249574 -0.187602 0.070430
v -0.255794 -0.307622 0.070430
v -0.256884 -0.302140 0.070430
v 0.249574 -0.187602 0.070430
v -0.253997 -0.312914 0.070430
v -0.255794 -0.307622 0.070430
v 0.249574 -0.187602 0.070430
v -0.244735 -0.326777 0.070430
v -0.248420 -0.322575 0.070430
v 0.249574 -0.187602 0.070430
v 0.237059 -0.326777 0.070430
v 0.232856 -0.330462 0.070430
v 0.249574 -0.187602 0.070430
v 0.240744 -0.322575 0.070430
v 0.237059 -0.326777 0.070430
v 0.249574 -0.187602 0.070430
v -0.257250 -0.296563 0.070430
v -0.257250 -0.187602 0.070430
v -0.256884 -0.302140 0.070430
v 0.249574 -0.187602 0.070430
v -0.256884 -0.302140 0.070430
v -0.257250 -0.187602 0.070430
v -0.251525 -0.317927 0.070430
v -0.253997 -0.312914 0.070430
v 0.249574 -0.187602 0.070430
v -0.248420 -0.322575 0.070430
v -0.251525 -0.317927 0.070430
v 0.249574 -0.187602 0.070430
v 0.243849 -0.317927 0.070430
v 0.240744 -0.322575 0.070430
v 0.249574 -0.187602 0.070430
v -0.257250 -0.076362 0.070430
v -0.008299 -0.076362 0.070430
v -0.257250 -0.187602 0.070430
v 0.249574 -0.187602 0.070430
v -0.257250 -0.187602 0.070430
v -0.008299 -0.076362 0.070430
v 0.246321 -0.312914 0.070430
v 0.243849 -0.317927 0.070430
v 0.249574 -0.187602 0.070430
v -0.008299 0.015782 0.070430
v 0.249574 -0.187602 0.070430
v -0.008299 -0.076362 0.070430
v 0.249574 -0.296563 0.070430
v 0.249208 -0.302140 0.070430
v 0.249574 -0.187602 0.070430
v 0.248118 -0.307622 0.070430
v 0.246321 -0.312914 0.070430
v 0.249574 -0.187602 0.070430
v 0.249574 0.015782 0.070430
v 0.249574 -0.187602 0.070430
v -0.008299 0.015782 0.070430
v 0.249208 -0.302140 0.070430
v 0.248118 -0.307622 0.070430
v 0.249574 -0.187602 0.070430
v 0.249574 -0.187602 0.070430
v -0.214520 -0.339292 0.070430
v 0.206845 -0.339292 0.070430
v 0.249574 -0.187602 0.070430
v 0.206845 -0.339292 0.070430
v 0.212422 -0.338926 0.070430
v 0.249574 -0.187602 0.070430
v -0.220098 -0.338926 0.070430
v -0.214520 -0.339292 0.070430
v 0.249574 -0.187602 0.070430
v 0.212422 -0.338926 0.070430
v 0.217904 -0.337836 0.070430
v 0.249574 -0.187602 0.070430
v -0.230872 -0.336039 0.070430
v -0.225579 -0.337836 0.070430
v 0.249574 -0.187602 0.070430
v -0.225579 -0.337836 0.070430
v -0.220098 -0.338926 0.070430
v 0.249574 -0.187602 0.070430
v 0.217904 -0.337836 0.070430
v 0.223196 -0.336039 0.070430
v 0.249574 -0.187602 0.070430
v 0.223196 -0.336039 0.070430
v 0.228209 -0.333567 0.070430
v 0.249574 -0.187602 0.070430
v -0.244735 -0.326777 0.070430
v -0.240532 -0.330462 0.070430
v 0.249574 -0.187602 0.070430
v -0.240532 -0.330462 0.070430
v -0.235885 -0.333567 0.070430
v 0.249574 -0.187602 0.070430
v -0.235885 -0.333567 0.070430
v -0.230872 -0.336039 0.070430
v 0.249574 -0.187602 0.070430
v 0.228209 -0.333567 0.070430
v 0.232856 -0.330462 0.070430
v 0.249574 -0.187602 0.070430
v -0.256884 -0.302140 0.070430
v -0.255794 -0.307622 0.070430
v 0.249574 -0.187602 0.070430
v -0.255794 -0.307622 0.070430
v -0.253997 -0.312914 0.070430
v 0.249574 -0.187602 0.070430
v -0.248420 -0.322575 0.070430
v -0.244735 -0.326777 0.070430
v 0.249574 -0.187602 0.070430
v 0.232856 -0.330462 0.070430
v 0.237059 -0.326777 0.070430
v 0.249574 -0.187602 0.070430
v 0.237059 -0.326777 0.070430
v 0.240744 -0.322575 0.070430
v -0.256884 -0.302140 0.070430
v -0.257250 -0.187602 0.070430
v -0.257250 -0.296563 0.070430
v -0.257250 -0.187602 0.070430
v -0.256884 -0.302140 0.070430
v 0.249574 -0.187602 0.070430
v 0.249574 -0.187602 0.070430
v -0.253997 -0.312914 0.070430
v -0.251525 -0.317927 0.070430
v 0.249574 -0.187602 0.070430
v -0.251525 -0.317927 0.070430
v -0.248420 -0.322575 0.070430
v 0.249574 -0.187602 0.070430
v 0.240744 -0.322575 0.070430
v 0.243849 -0.317927 0.070430
v -0.257250 -0.187602 0.070430
v -0.008299 -0.076362 0.070430
v -0.257250 -0.076362 0.070430
v -0.008299 -0.076362 0.070430
v -0.257250 -0.187602 0.070430
v 0.249574 -0.187602 0.070430
v 0.249574 -0.187602 0.070430
v 0.243849 -0.317927 0.070430
v 0.246321 -0.312914 0.070430
v -0.008299 -0.076362 0.070430
v 0.249574 -0.187602 0.070430
v -0.008299 0.015782 0.070430
v 0.249574 -0.187602 0.070430
v 0.249208 -0.302140 0.070430
v 0.249574 -0.296563 0.070430
v 0.249574 -0.187602 0.070430
v 0.246321 -0.312914 0.070430
v 0.248118 -0.307622 0.070430
v -0.008299 0.015782 0.070430
v 0.249574 -0.187602 0.070430
v 0.249574 0.015782 0.070430
v 0.249574 -0.187602 0.070430
v 0.248118 -0.307622 0.070430
v 0.249208 -0.302140 0.070430
vt 0 0
vn 0 0 -1
vn 0 0 1
usemtl material_0_0
f 1/1/1 2/1/1 3/1/1
f 4/1/1 5/1/1 6/1/1
f 7/1/1 8/1/1 9/1/1
f 10/1/1 11/1/1 12/1/1
f 13/1/1 14/1/1 15/1/1
f 16/1/1 17/1/1 18/1/1
f 19/1/1 20/1/1 21/1/1
f 22/1/1 23/1/1 24/1/1
f 25/1/1 26/1/1 27/1/1
f 28/1/1 29/1/1 30/1/1
f 31/1/1 32/1/1 33/1/1
f 34/1/1 35/1/1 36/1/1
f 37/1/1 38/1/1 39/1/1
f 40/1/1 41/1/1 42/1/1
f 43/1/1 44/1/1 45/1/1
f 46/1/1 47/1/1 48/1/1
f 49/1/1 50/1/1 51/1/1
f 52/1/1 53/1/1 54/1/1
f 55/1/1 56/1/1 57/1/1
f 58/1/1 59/1/1 60/1/1
f 61/1/1 62/1/1 63/1/1
f 64/1/1 65/1/1 66/1/1
f 67/1/1 68/1/1 69/1/1
f 70/1/1 71/1/1 72/1/1
f 73/1/1 74/1/1 75/1/1
f 76/1/1 77/1/1 78/1/1
f 79/1/1 80/1/1 81/1/1
f 82/1/1 83/1/1 84/1/1
f 85/1/1 86/1/1 87/1/1
f 88/1/1 89/1/1 90/1/1
usemtl material_1_0
f 91/1/2 92/1/2 93/1/2
f 94/1/2 95/1/2 96/1/2
f 97/1/2 98/1/2 99/1/2
f 100/1/2 101/1/2 102/1/2
f 103/1/2 104/1/2 105/1/2
f 106/1/2 107/1/2 108/1/2
f 109/1/2 110/1/2 111/1/2
f 112/1/2 113/1/2 114/1/2
f 115/1/2 116/1/2 117/1/2
f 118/1/2 119/1/2 120/1/2
f 121/1/2 122/1/2 123/1/2
f 124/1/2 125/1/2 126/1/2
f 127/1/2 128/1/2 129/1/2
f 130/1/2 131/1/2 132/1/2
f 133/1/2 134/1/2 135/1/2
f 136/1/2 137/1/2 138/1/2
f 139/1/2 140/1/2 141/1/2
f 142/1/2 143/1/2 144/1/2
f 145/1/2 146/1/2 147/1/2
f 148/1/2 149/1/2 150/1/2
f 151/1/2 152/1/2 153/1/2
f 154/1/2 155/1/2 156/1/2
f 157/1/2 158/1/2 159/1/2
f 160/1/2 161/1/2 162/1/2
f 163/1/2 164/1/2 165/1/2
f 166/1/2 167/1/2 168/1/2
f 169/1/2 170/1/2 171/1/2
f 172/1/2 173/1/2 174/1/2
f 175/1/2 176/1/2 177/1/2
f 178/1/2 179/1/2 180/1/2
