# SSTK version 0.8.0
# 5
mtllib original-5.mtl
o mesh13/mesh13-geometry#mesh13-geometry
v -0.023468 -0.135883 0.070430
v -0.024330 -0.142427 0.085599
v -0.024330 -0.142427 0.070430
v -0.023468 -0.135883 0.085599
v -0.025393 -0.145558 0.085599
v -0.024254 -0.129305 0.070430
v -0.024254 -0.129305 0.085599
v -0.025393 -0.145558 0.070430
v -0.025295 -0.126152 0.085599
v -0.026856 -0.148524 0.085599
v -0.026746 -0.123165 0.085599
v -0.025295 -0.126152 0.070430
v -0.026856 -0.148524 0.070430
v -0.026746 -0.123165 0.070430
v -0.028693 -0.151274 0.085599
v -0.028580 -0.120398 0.085599
v -0.028580 -0.120398 0.070430
v -0.028693 -0.151274 0.070430
v -0.030873 -0.153760 0.085599
v -0.030766 -0.117899 0.085599
v -0.030766 -0.117899 0.070430
v -0.030873 -0.153760 0.070430
v -0.033360 -0.155940 0.070430
v -0.033265 -0.115713 0.085599
v -0.033360 -0.155940 0.085599
v -0.033265 -0.115713 0.070430
v -0.036109 -0.157778 0.070430
v -0.036032 -0.113879 0.085599
v -0.036109 -0.157778 0.085599
v -0.036032 -0.113879 0.070430
v -0.039075 -0.159240 0.070430
v -0.039019 -0.112428 0.085599
v -0.039075 -0.159240 0.085599
v -0.039019 -0.112428 0.070430
v -0.042207 -0.160303 0.070430
v -0.042172 -0.111387 0.085599
v -0.042207 -0.160303 0.085599
v -0.042172 -0.111387 0.070430
v -0.048750 -0.161165 0.070430
v -0.048750 -0.110601 0.085599
v -0.048750 -0.161165 0.085599
v -0.048750 -0.110601 0.070430
v -0.089201 -0.161165 0.070430
v -0.089201 -0.110601 0.085599
v -0.089201 -0.161165 0.085599
v -0.089201 -0.110601 0.070430
v -0.095744 -0.160303 0.070430
v -0.095744 -0.160303 0.085599
v -0.095926 -0.111060 0.085599
v -0.095926 -0.111060 0.070430
v -0.098876 -0.159240 0.070430
v -0.098876 -0.159240 0.085599
v -0.099170 -0.112005 0.085599
v -0.099170 -0.112005 0.070430
v -0.101842 -0.157778 0.070430
v -0.101842 -0.157778 0.085599
v -0.102246 -0.113404 0.085599
v -0.102246 -0.113404 0.070430
v -0.104591 -0.155940 0.070430
v -0.104591 -0.155940 0.085599
v -0.105090 -0.115228 0.085599
v -0.105090 -0.115228 0.070430
v -0.107078 -0.153760 0.070430
v -0.107078 -0.153760 0.085599
v -0.107645 -0.117440 0.085599
v -0.107645 -0.117440 0.070430
v -0.109258 -0.151274 0.085599
v -0.109856 -0.119994 0.070430
v -0.109258 -0.151274 0.070430
v -0.109856 -0.119994 0.085599
v -0.111095 -0.148524 0.085599
v -0.111680 -0.122838 0.070430
v -0.111095 -0.148524 0.070430
v -0.111680 -0.122838 0.085599
v -0.112558 -0.145558 0.085599
v -0.113079 -0.125914 0.070430
v -0.112558 -0.145558 0.070430
v -0.113079 -0.125914 0.085599
v -0.113621 -0.142427 0.085599
v -0.114024 -0.129158 0.070430
v -0.113621 -0.142427 0.070430
v -0.114024 -0.129158 0.085599
v -0.114483 -0.135883 0.085599
v -0.114483 -0.135883 0.070430
vn 0.9914448886106773 -0.1305259853353411 0
vn 0.9469302577445085 -0.3214390874923564 0
vn 0.9929388893617903 0.11862698678198871 0
vn 0 0 1
vn 0.8968726692109988 -0.4422888368728498 0
vn 0.9495951199025345 0.3134790395820604 0
vn 0.8995086975447488 0.43690285309362487 0
vn 0.8314698396094833 -0.5555698928305779 0
vn 0.8334631237717833 0.5525750820590635 0
vn 0.7518397995159294 -0.6593458241801846 0
vn 0.752629842686832 0.6584438623733951 0
vn 0.6593458241801846 -0.7518397995159294 0
vn 0.6584438623733951 0.752629842686832 0
vn 0.5555698928305779 -0.8314698396094833 0
vn 0.5525750820590635 0.8334631237717833 0
vn 0.4422888368728498 -0.8968726692109988 0
vn 0.43690285309362487 0.8995086975447488 0
vn 0.3214390874923564 -0.9469302577445085 0
vn 0.3134790395820604 0.9495951199025345 0
vn 0.1305259853353411 -0.9914448886106773 0
vn 0.11862698678198871 0.9929388893617903 0
vn 0 -1 0
vn 0 1 0
vn -0.1305259853353411 -0.9914448886106773 0
vn -0.06808702632891774 0.9976793857977047 0
vn -0.3214390874923564 -0.9469302577445085 0
vn -0.2795421247522702 0.9601334284822011 0
vn -0.4422888368728498 -0.8968726692109988 0
vn -0.4139319264260903 0.910307838198258 0
vn -0.5555698928305779 -0.8314698396094833 0
vn -0.5398178897022609 0.8417818280037874 0
vn -0.6593458241801846 -0.7518397995159294 0
vn -0.6546141484779615 0.7559631714656961 0
vn -0.7518397995159294 -0.6593458241801846 0
vn -0.7559631714656961 0.6546141484779615 0
vn -0.8314698396094833 -0.5555698928305779 0
vn -0.8417818280037874 0.5398178897022609 0
vn -0.8968726692109988 -0.4422888368728498 0
vn -0.910307838198258 0.4139319264260903 0
vn -0.9469302577445085 -0.3214390874923564 0
vn -0.9601334284822011 0.2795421247522702 0
vn -0.9914448886106773 -0.1305259853353411 0
vn -0.9976793857977047 0.06808702632891774 0
vn -0.9914448886106773 0.1305259853353411 0
vn -0.9469302577445085 0.3214390874923564 0
vn -0.9929388893617903 -0.11862698678198871 0
vn 0 0 -1
vn -0.8968726692109988 0.4422888368728498 0
vn -0.9495951199025345 -0.3134790395820604 0
vn -0.8995086975447488 -0.43690285309362487 0
vn -0.8314698396094833 0.5555698928305779 0
vn -0.8334631237717833 -0.5525750820590635 0
vn -0.7518397995159294 0.6593458241801846 0
vn -0.752629842686832 -0.6584438623733951 0
vn -0.6593458241801846 0.7518397995159294 0
vn -0.6584438623733951 -0.752629842686832 0
vn -0.5555698928305779 0.8314698396094833 0
vn -0.5525750820590635 -0.8334631237717833 0
vn -0.4422888368728498 0.8968726692109988 0
vn -0.43690285309362487 -0.8995086975447488 0
vn -0.3214390874923564 0.9469302577445085 0
vn -0.3134790395820604 -0.9495951199025345 0
vn -0.1305259853353411 0.9914448886106773 0
vn -0.11862698678198871 -0.9929388893617903 0
vn 0.1305259853353411 0.9914448886106773 0
vn 0.06808702632891774 -0.9976793857977047 0
vn 0.3214390874923564 0.9469302577445085 0
vn 0.2795421247522702 -0.9601334284822011 0
vn 0.4422888368728498 0.8968726692109988 0
vn 0.4139319264260903 -0.910307838198258 0
vn 0.5555698928305779 0.8314698396094833 0
vn 0.5398178897022609 -0.8417818280037874 0
vn 0.6593458241801846 0.7518397995159294 0
vn 0.6546141484779615 -0.7559631714656961 0
vn 0.7518397995159294 0.6593458241801846 0
vn 0.7559631714656961 -0.6546141484779615 0
vn 0.8314698396094833 0.5555698928305779 0
vn 0.8417818280037874 -0.5398178897022609 0
vn 0.8968726692109988 0.4422888368728498 0
vn 0.910307838198258 -0.4139319264260903 0
vn 0.9469302577445085 0.3214390874923564 0
vn 0.9601334284822011 -0.2795421247522702 0
vn 0.9914448886106773 0.1305259853353411 0
vn 0.9976793857977047 -0.06808702632891774 0
usemtl material_0_0
f 1//1 2//1 3//1
f 2//1 1//1 4//1
f 5//2 3//2 2//2
f 6//3 4//3 1//3
f 7//4 2//4 4//4
f 3//2 5//2 8//2
f 9//4 5//4 2//4
f 4//3 6//3 7//3
f 9//4 2//4 7//4
f 10//5 8//5 5//5
f 11//4 5//4 9//4
f 12//6 7//6 6//6
f 7//6 12//6 9//6
f 8//5 10//5 13//5
f 11//4 10//4 5//4
f 9//7 14//7 11//7
f 14//7 9//7 12//7
f 15//8 13//8 10//8
f 16//4 10//4 11//4
f 17//9 11//9 14//9
f 13//8 15//8 18//8
f 16//4 15//4 10//4
f 11//9 17//9 16//9
f 19//10 18//10 15//10
f 20//4 15//4 16//4
f 21//11 16//11 17//11
f 18//10 19//10 22//10
f 20//4 19//4 15//4
f 16//11 21//11 20//11
f 19//12 23//12 22//12
f 24//4 19//4 20//4
f 21//13 24//13 20//13
f 23//12 19//12 25//12
f 24//4 25//4 19//4
f 24//13 21//13 26//13
f 25//14 27//14 23//14
f 28//4 25//4 24//4
f 26//15 28//15 24//15
f 27//14 25//14 29//14
f 28//4 29//4 25//4
f 28//15 26//15 30//15
f 29//16 31//16 27//16
f 32//4 29//4 28//4
f 30//17 32//17 28//17
f 31//16 29//16 33//16
f 32//4 33//4 29//4
f 32//17 30//17 34//17
f 33//18 35//18 31//18
f 36//4 33//4 32//4
f 34//19 36//19 32//19
f 35//18 33//18 37//18
f 36//4 37//4 33//4
f 36//19 34//19 38//19
f 37//20 39//20 35//20
f 40//4 37//4 36//4
f 38//21 40//21 36//21
f 39//20 37//20 41//20
f 40//4 41//4 37//4
f 40//21 38//21 42//21
f 41//22 43//22 39//22
f 44//4 41//4 40//4
f 42//23 44//23 40//23
f 43//22 41//22 45//22
f 44//4 45//4 41//4
f 44//23 42//23 46//23
f 45//24 47//24 43//24
f 44//4 48//4 45//4
f 46//25 49//25 44//25
f 47//24 45//24 48//24
f 49//4 48//4 44//4
f 49//25 46//25 50//25
f 48//26 51//26 47//26
f 49//4 52//4 48//4
f 50//27 53//27 49//27
f 51//26 48//26 52//26
f 53//4 52//4 49//4
f 53//27 50//27 54//27
f 52//28 55//28 51//28
f 53//4 56//4 52//4
f 54//29 57//29 53//29
f 55//28 52//28 56//28
f 57//4 56//4 53//4
f 57//29 54//29 58//29
f 56//30 59//30 55//30
f 57//4 60//4 56//4
f 58//31 61//31 57//31
f 59//30 56//30 60//30
f 61//4 60//4 57//4
f 61//31 58//31 62//31
f 60//32 63//32 59//32
f 61//4 64//4 60//4
f 62//33 65//33 61//33
f 63//32 60//32 64//32
f 65//4 64//4 61//4
f 65//33 62//33 66//33
f 67//34 63//34 64//34
f 65//4 67//4 64//4
f 68//35 65//35 66//35
f 63//34 67//34 69//34
f 70//4 67//4 65//4
f 65//35 68//35 70//35
f 71//36 69//36 67//36
f 70//4 71//4 67//4
f 72//37 70//37 68//37
f 69//36 71//36 73//36
f 74//4 71//4 70//4
f 70//37 72//37 74//37
f 75//38 73//38 71//38
f 74//4 75//4 71//4
f 76//39 74//39 72//39
f 73//38 75//38 77//38
f 78//4 75//4 74//4
f 74//39 76//39 78//39
f 79//40 77//40 75//40
f 78//4 79//4 75//4
f 80//41 78//41 76//41
f 77//40 79//40 81//40
f 82//4 79//4 78//4
f 78//41 80//41 82//41
f 83//42 81//42 79//42
f 79//4 82//4 83//4
f 84//43 82//43 80//43
f 81//42 83//42 84//42
f 82//43 84//43 83//43
usemtl material_1_0
f 3//44 2//44 1//44
f 4//44 1//44 2//44
f 2//45 3//45 5//45
f 1//46 4//46 6//46
f 4//47 2//47 7//47
f 8//45 5//45 3//45
f 2//47 5//47 9//47
f 7//46 6//46 4//46
f 7//47 2//47 9//47
f 5//48 8//48 10//48
f 9//47 5//47 11//47
f 6//49 7//49 12//49
f 9//49 12//49 7//49
f 13//48 10//48 8//48
f 5//47 10//47 11//47
f 11//50 14//50 9//50
f 12//50 9//50 14//50
f 10//51 13//51 15//51
f 11//47 10//47 16//47
f 14//52 11//52 17//52
f 18//51 15//51 13//51
f 10//47 15//47 16//47
f 16//52 17//52 11//52
f 15//53 18//53 19//53
f 16//47 15//47 20//47
f 17//54 16//54 21//54
f 22//53 19//53 18//53
f 15//47 19//47 20//47
f 20//54 21//54 16//54
f 22//55 23//55 19//55
f 20//47 19//47 24//47
f 20//56 24//56 21//56
f 25//55 19//55 23//55
f 19//47 25//47 24//47
f 26//56 21//56 24//56
f 23//57 27//57 25//57
f 24//47 25//47 28//47
f 24//58 28//58 26//58
f 29//57 25//57 27//57
f 25//47 29//47 28//47
f 30//58 26//58 28//58
f 27//59 31//59 29//59
f 28//47 29//47 32//47
f 28//60 32//60 30//60
f 33//59 29//59 31//59
f 29//47 33//47 32//47
f 34//60 30//60 32//60
f 31//61 35//61 33//61
f 32//47 33//47 36//47
f 32//62 36//62 34//62
f 37//61 33//61 35//61
f 33//47 37//47 36//47
f 38//62 34//62 36//62
f 35//63 39//63 37//63
f 36//47 37//47 40//47
f 36//64 40//64 38//64
f 41//63 37//63 39//63
f 37//47 41//47 40//47
f 42//64 38//64 40//64
f 39//23 43//23 41//23
f 40//47 41//47 44//47
f 40//22 44//22 42//22
f 45//23 41//23 43//23
f 41//47 45//47 44//47
f 46//22 42//22 44//22
f 43//65 47//65 45//65
f 45//47 48//47 44//47
f 44//66 49//66 46//66
f 48//65 45//65 47//65
f 44//47 48//47 49//47
f 50//66 46//66 49//66
f 47//67 51//67 48//67
f 48//47 52//47 49//47
f 49//68 53//68 50//68
f 52//67 48//67 51//67
f 49//47 52//47 53//47
f 54//68 50//68 53//68
f 51//69 55//69 52//69
f 52//47 56//47 53//47
f 53//70 57//70 54//70
f 56//69 52//69 55//69
f 53//47 56//47 57//47
f 58//70 54//70 57//70
f 55//71 59//71 56//71
f 56//47 60//47 57//47
f 57//72 61//72 58//72
f 60//71 56//71 59//71
f 57//47 60//47 61//47
f 62//72 58//72 61//72
f 59//73 63//73 60//73
f 60//47 64//47 61//47
f 61//74 65//74 62//74
f 64//73 60//73 63//73
f 61//47 64//47 65//47
f 66//74 62//74 65//74
f 64//75 63//75 67//75
f 64//47 67//47 65//47
f 66//76 65//76 68//76
f 69//75 67//75 63//75
f 65//47 67//47 70//47
f 70//76 68//76 65//76
f 67//77 69//77 71//77
f 67//47 71//47 70//47
f 68//78 70//78 72//78
f 73//77 71//77 69//77
f 70//47 71//47 74//47
f 74//78 72//78 70//78
f 71//79 73//79 75//79
f 71//47 75//47 74//47
f 72//80 74//80 76//80
f 77//79 75//79 73//79
f 74//47 75//47 78//47
f 78//80 76//80 74//80
f 75//81 77//81 79//81
f 75//47 79//47 78//47
f 76//82 78//82 80//82
f 81//81 79//81 77//81
f 78//47 79//47 82//47
f 82//82 80//82 78//82
f 79//83 81//83 83//83
f 83//47 82//47 79//47
f 80//84 82//84 84//84
f 84//83 83//83 81//83
f 83//84 84//84 82//84
