# SSTK version 0.8.0
# 49
mtllib original-49.mtl
o mesh9/mesh9-geometry/material_7#mesh9-geometry
v 0.239461 0.833779 0.070430
v 0.153647 0.802037 0.070430
v -0.003243 0.833779 0.070430
v 0.239461 0.742765 0.070430
v 0.229348 0.778159 0.070430
v 0.239461 0.833779 0.070430
v 0.150571 0.800639 0.070430
v -0.003243 0.833779 0.070430
v 0.153647 0.802037 0.070430
v 0.156891 0.802982 0.070430
v 0.153647 0.802037 0.070430
v 0.239461 0.833779 0.070430
v 0.229348 0.778159 0.070430
v 0.228563 0.784738 0.070430
v 0.239461 0.833779 0.070430
v 0.229348 0.778159 0.070430
v 0.239461 0.742765 0.070430
v 0.228487 0.771616 0.070430
v 0.147727 0.798815 0.070430
v -0.003243 0.833779 0.070430
v 0.150571 0.800639 0.070430
v 0.163616 0.803441 0.070430
v 0.156891 0.802982 0.070430
v 0.239461 0.833779 0.070430
v 0.228563 0.784738 0.070430
v 0.227522 0.787890 0.070430
v 0.239461 0.833779 0.070430
v 0.228487 0.771616 0.070430
v 0.239461 0.742765 0.070430
v 0.227424 0.768484 0.070430
v 0.145172 0.796603 0.070430
v -0.003243 0.833779 0.070430
v 0.147727 0.798815 0.070430
v 0.204067 0.803441 0.070430
v 0.163616 0.803441 0.070430
v 0.239461 0.833779 0.070430
v 0.227522 0.787890 0.070430
v 0.226071 0.790877 0.070430
v 0.239461 0.833779 0.070430
v 0.227424 0.768484 0.070430
v 0.239461 0.742765 0.070430
v 0.225961 0.765518 0.070430
v 0.142960 0.794048 0.070430
v -0.003243 0.833779 0.070430
v 0.145172 0.796603 0.070430
v 0.210645 0.802655 0.070430
v 0.204067 0.803441 0.070430
v 0.239461 0.833779 0.070430
v 0.226071 0.790877 0.070430
v 0.224237 0.793644 0.070430
v 0.239461 0.833779 0.070430
v 0.225961 0.765518 0.070430
v 0.239461 0.742765 0.070430
v 0.224124 0.762768 0.070430
v 0.141136 0.791204 0.070430
v -0.003243 0.833779 0.070430
v 0.142960 0.794048 0.070430
v 0.213798 0.801614 0.070430
v 0.210645 0.802655 0.070430
v 0.239461 0.833779 0.070430
v 0.224237 0.793644 0.070430
v 0.222051 0.796143 0.070430
v 0.239461 0.833779 0.070430
v 0.224124 0.762768 0.070430
v 0.239461 0.742765 0.070430
v 0.221944 0.760282 0.070430
v 0.139738 0.788128 0.070430
v -0.003243 0.833779 0.070430
v 0.141136 0.791204 0.070430
v 0.216785 0.800164 0.070430
v 0.213798 0.801614 0.070430
v 0.239461 0.833779 0.070430
v 0.222051 0.796143 0.070430
v 0.219552 0.798329 0.070430
v 0.239461 0.833779 0.070430
v 0.221944 0.760282 0.070430
v 0.239461 0.742765 0.070430
v 0.219457 0.758102 0.070430
v 0.138793 0.784884 0.070430
v -0.003243 0.833779 0.070430
v 0.139738 0.788128 0.070430
v 0.219552 0.798329 0.070430
v 0.216785 0.800164 0.070430
v 0.239461 0.833779 0.070430
v 0.219457 0.758102 0.070430
v 0.239461 0.742765 0.070430
v 0.216708 0.756264 0.070430
v 0.138334 0.778159 0.070430
v -0.003243 0.833779 0.070430
v 0.138793 0.784884 0.070430
v 0.148226 0.758102 0.070430
v 0.150975 0.756264 0.070430
v -0.003243 0.833779 0.070430
v 0.145739 0.760282 0.070430
v 0.148226 0.758102 0.070430
v -0.003243 0.833779 0.070430
v 0.153941 0.754802 0.070430
v -0.003243 0.742765 0.070430
v 0.150975 0.756264 0.070430
v 0.157073 0.753739 0.070430
v -0.003243 0.742765 0.070430
v 0.153941 0.754802 0.070430
v 0.216708 0.756264 0.070430
v 0.239461 0.742765 0.070430
v 0.213742 0.754802 0.070430
v 0.138334 0.778159 0.070430
v 0.139196 0.771616 0.070430
v -0.003243 0.833779 0.070430
v 0.143559 0.762768 0.070430
v 0.145739 0.760282 0.070430
v -0.003243 0.833779 0.070430
v -0.003243 0.833779 0.070430
v 0.150975 0.756264 0.070430
v -0.003243 0.742765 0.070430
v 0.239461 0.742765 0.070430
v -0.003243 0.742765 0.070430
v 0.157073 0.753739 0.070430
v 0.163616 0.752877 0.070430
v 0.239461 0.742765 0.070430
v 0.157073 0.753739 0.070430
v 0.213742 0.754802 0.070430
v 0.239461 0.742765 0.070430
v 0.210610 0.753739 0.070430
v 0.139196 0.771616 0.070430
v 0.140259 0.768484 0.070430
v -0.003243 0.833779 0.070430
v 0.141722 0.765518 0.070430
v 0.143559 0.762768 0.070430
v -0.003243 0.833779 0.070430
v 0.204067 0.752877 0.070430
v 0.239461 0.742765 0.070430
v 0.163616 0.752877 0.070430
v 0.210610 0.753739 0.070430
v 0.239461 0.742765 0.070430
v 0.204067 0.752877 0.070430
v 0.140259 0.768484 0.070430
v 0.141722 0.765518 0.070430
v -0.003243 0.833779 0.070430
v -0.003243 0.833779 0.070430
v 0.153647 0.802037 0.070430
v 0.239461 0.833779 0.070430
v 0.239461 0.833779 0.070430
v 0.229348 0.778159 0.070430
v 0.239461 0.742765 0.070430
v 0.153647 0.802037 0.070430
v -0.003243 0.833779 0.070430
v 0.150571 0.800639 0.070430
v 0.239461 0.833779 0.070430
v 0.153647 0.802037 0.070430
v 0.156891 0.802982 0.070430
v 0.239461 0.833779 0.070430
v 0.228563 0.784738 0.070430
v 0.229348 0.778159 0.070430
v 0.228487 0.771616 0.070430
v 0.239461 0.742765 0.070430
v 0.229348 0.778159 0.070430
v 0.150571 0.800639 0.070430
v -0.003243 0.833779 0.070430
v 0.147727 0.798815 0.070430
v 0.239461 0.833779 0.070430
v 0.156891 0.802982 0.070430
v 0.163616 0.803441 0.070430
v 0.239461 0.833779 0.070430
v 0.227522 0.787890 0.070430
v 0.228563 0.784738 0.070430
v 0.227424 0.768484 0.070430
v 0.239461 0.742765 0.070430
v 0.228487 0.771616 0.070430
v 0.147727 0.798815 0.070430
v -0.003243 0.833779 0.070430
v 0.145172 0.796603 0.070430
v 0.239461 0.833779 0.070430
v 0.163616 0.803441 0.070430
v 0.204067 0.803441 0.070430
v 0.239461 0.833779 0.070430
v 0.226071 0.790877 0.070430
v 0.227522 0.787890 0.070430
v 0.225961 0.765518 0.070430
v 0.239461 0.742765 0.070430
v 0.227424 0.768484 0.070430
v 0.145172 0.796603 0.070430
v -0.003243 0.833779 0.070430
v 0.142960 0.794048 0.070430
v 0.239461 0.833779 0.070430
v 0.204067 0.803441 0.070430
v 0.210645 0.802655 0.070430
v 0.239461 0.833779 0.070430
v 0.224237 0.793644 0.070430
v 0.226071 0.790877 0.070430
v 0.224124 0.762768 0.070430
v 0.239461 0.742765 0.070430
v 0.225961 0.765518 0.070430
v 0.142960 0.794048 0.070430
v -0.003243 0.833779 0.070430
v 0.141136 0.791204 0.070430
v 0.239461 0.833779 0.070430
v 0.210645 0.802655 0.070430
v 0.213798 0.801614 0.070430
v 0.239461 0.833779 0.070430
v 0.222051 0.796143 0.070430
v 0.224237 0.793644 0.070430
v 0.221944 0.760282 0.070430
v 0.239461 0.742765 0.070430
v 0.224124 0.762768 0.070430
v 0.141136 0.791204 0.070430
v -0.003243 0.833779 0.070430
v 0.139738 0.788128 0.070430
v 0.239461 0.833779 0.070430
v 0.213798 0.801614 0.070430
v 0.216785 0.800164 0.070430
v 0.239461 0.833779 0.070430
v 0.219552 0.798329 0.070430
v 0.222051 0.796143 0.070430
v 0.219457 0.758102 0.070430
v 0.239461 0.742765 0.070430
v 0.221944 0.760282 0.070430
v 0.139738 0.788128 0.070430
v -0.003243 0.833779 0.070430
v 0.138793 0.784884 0.070430
v 0.239461 0.833779 0.070430
v 0.216785 0.800164 0.070430
v 0.219552 0.798329 0.070430
v 0.216708 0.756264 0.070430
v 0.239461 0.742765 0.070430
v 0.219457 0.758102 0.070430
v 0.138793 0.784884 0.070430
v -0.003243 0.833779 0.070430
v 0.138334 0.778159 0.070430
v -0.003243 0.833779 0.070430
v 0.150975 0.756264 0.070430
v 0.148226 0.758102 0.070430
v -0.003243 0.833779 0.070430
v 0.148226 0.758102 0.070430
v 0.145739 0.760282 0.070430
v 0.150975 0.756264 0.070430
v -0.003243 0.742765 0.070430
v 0.153941 0.754802 0.070430
v 0.153941 0.754802 0.070430
v -0.003243 0.742765 0.070430
v 0.157073 0.753739 0.070430
v 0.213742 0.754802 0.070430
v 0.239461 0.742765 0.070430
v 0.216708 0.756264 0.070430
v -0.003243 0.833779 0.070430
v 0.139196 0.771616 0.070430
v 0.138334 0.778159 0.070430
v -0.003243 0.833779 0.070430
v 0.145739 0.760282 0.070430
v 0.143559 0.762768 0.070430
v -0.003243 0.742765 0.070430
v 0.150975 0.756264 0.070430
v -0.003243 0.833779 0.070430
v 0.157073 0.753739 0.070430
v -0.003243 0.742765 0.070430
v 0.239461 0.742765 0.070430
v 0.157073 0.753739 0.070430
v 0.239461 0.742765 0.070430
v 0.163616 0.752877 0.070430
v 0.210610 0.753739 0.070430
v 0.239461 0.742765 0.070430
v 0.213742 0.754802 0.070430
v -0.003243 0.833779 0.070430
v 0.140259 0.768484 0.070430
v 0.139196 0.771616 0.070430
v -0.003243 0.833779 0.070430
v 0.143559 0.762768 0.070430
v 0.141722 0.765518 0.070430
v 0.163616 0.752877 0.070430
v 0.239461 0.742765 0.070430
v 0.204067 0.752877 0.070430
v 0.204067 0.752877 0.070430
v 0.239461 0.742765 0.070430
v 0.210610 0.753739 0.070430
v -0.003243 0.833779 0.070430
v 0.141722 0.765518 0.070430
v 0.140259 0.768484 0.070430
vt 0 0
vt 0.008175999857485294 0.06494999676942825
vt 0.01948699913918972 0.06266199797391891
vt 0.0256740003824234 0.06494999676942825
vt 0.024945000186562538 0.06094000115990639
vt 0.0256740003824234 0.058389000594615936
vt 0.01926499977707863 0.06256099790334702
vt 0.019720999523997307 0.06272999942302704
vt 0.024887999519705772 0.06141500174999237
vt 0.024883000180125237 0.06046900153160095
vt 0.019060000777244568 0.062428999692201614
vt 0.02020600065588951 0.06276299804449081
vt 0.024813000112771988 0.06164199858903885
vt 0.024806000292301178 0.06024299934506416
vt 0.018875999376177788 0.06227000057697296
vt 0.023121999576687813 0.06276299804449081
vt 0.024708999320864677 0.06185699999332428
vt 0.02470099925994873 0.06002900004386902
vt 0.018717000260949135 0.06208600103855133
vt 0.023597000166773796 0.06270600110292435
vt 0.02457600086927414 0.062056999653577805
vt 0.024568000808358192 0.05983100086450577
vt 0.018585000187158585 0.06188099831342697
vt 0.023824000731110573 0.06263100355863571
vt 0.02441900037229061 0.06223699823021889
vt 0.024411000311374664 0.05965099856257439
vt 0.018484000116586685 0.06165900081396103
vt 0.024039000272750854 0.06252700090408325
vt 0.02423899993300438 0.062394000589847565
vt 0.02423200011253357 0.05949399992823601
vt 0.01841600053012371 0.06142500042915344
vt 0.02403399907052517 0.05936200171709061
vt 0.018383000046014786 0.06094000115990639
vt 0.019294999539852142 0.05936200171709061
vt 0.019096000120043755 0.05949399992823601
vt 0.01891699992120266 0.05965099856257439
vt 0.008175999857485294 0.058389000594615936
vt 0.0195080004632473 0.05925599858164787
vt 0.01973400078713894 0.05917999893426895
vt 0.023819999769330025 0.05925599858164787
vt 0.018445000052452087 0.06046900153160095
vt 0.01875999942421913 0.05983100086450577
vt 0.02020600065588951 0.05911799892783165
vt 0.023593999445438385 0.05917999893426895
vt 0.018521999940276146 0.06024299934506416
vt 0.018626999109983444 0.06002900004386902
vt 0.023121999576687813 0.05911799892783165
vn 0 0 -1
vn 0 0 1
usemtl material_0_0
f 1/1/1 2/1/1 3/1/1
f 4/1/1 5/1/1 6/1/1
f 7/1/1 8/1/1 9/1/1
f 10/1/1 11/1/1 12/1/1
f 13/1/1 14/1/1 15/1/1
f 16/1/1 17/1/1 18/1/1
f 19/1/1 20/1/1 21/1/1
f 22/1/1 23/1/1 24/1/1
f 25/1/1 26/1/1 27/1/1
f 28/1/1 29/1/1 30/1/1
f 31/1/1 32/1/1 33/1/1
f 34/1/1 35/1/1 36/1/1
f 37/1/1 38/1/1 39/1/1
f 40/1/1 41/1/1 42/1/1
f 43/1/1 44/1/1 45/1/1
f 46/1/1 47/1/1 48/1/1
f 49/1/1 50/1/1 51/1/1
f 52/1/1 53/1/1 54/1/1
f 55/1/1 56/1/1 57/1/1
f 58/1/1 59/1/1 60/1/1
f 61/1/1 62/1/1 63/1/1
f 64/1/1 65/1/1 66/1/1
f 67/1/1 68/1/1 69/1/1
f 70/1/1 71/1/1 72/1/1
f 73/1/1 74/1/1 75/1/1
f 76/1/1 77/1/1 78/1/1
f 79/1/1 80/1/1 81/1/1
f 82/1/1 83/1/1 84/1/1
f 85/1/1 86/1/1 87/1/1
f 88/1/1 89/1/1 90/1/1
f 91/1/1 92/1/1 93/1/1
f 94/1/1 95/1/1 96/1/1
f 97/1/1 98/1/1 99/1/1
f 100/1/1 101/1/1 102/1/1
f 103/1/1 104/1/1 105/1/1
f 106/1/1 107/1/1 108/1/1
f 109/1/1 110/1/1 111/1/1
f 112/1/1 113/1/1 114/1/1
f 115/1/1 116/1/1 117/1/1
f 118/1/1 119/1/1 120/1/1
f 121/1/1 122/1/1 123/1/1
f 124/1/1 125/1/1 126/1/1
f 127/1/1 128/1/1 129/1/1
f 130/1/1 131/1/1 132/1/1
f 133/1/1 134/1/1 135/1/1
f 136/1/1 137/1/1 138/1/1
usemtl material_1_0
f 139/2/2 140/3/2 141/4/2
f 142/4/2 143/5/2 144/6/2
f 145/3/2 146/2/2 147/7/2
f 148/4/2 149/3/2 150/8/2
f 151/4/2 152/9/2 153/5/2
f 154/10/2 155/6/2 156/5/2
f 157/7/2 158/2/2 159/11/2
f 160/4/2 161/8/2 162/12/2
f 163/4/2 164/13/2 165/9/2
f 166/14/2 167/6/2 168/10/2
f 169/11/2 170/2/2 171/15/2
f 172/4/2 173/12/2 174/16/2
f 175/4/2 176/17/2 177/13/2
f 178/18/2 179/6/2 180/14/2
f 181/15/2 182/2/2 183/19/2
f 184/4/2 185/16/2 186/20/2
f 187/4/2 188/21/2 189/17/2
f 190/22/2 191/6/2 192/18/2
f 193/19/2 194/2/2 195/23/2
f 196/4/2 197/20/2 198/24/2
f 199/4/2 200/25/2 201/21/2
f 202/26/2 203/6/2 204/22/2
f 205/23/2 206/2/2 207/27/2
f 208/4/2 209/24/2 210/28/2
f 211/4/2 212/29/2 213/25/2
f 214/30/2 215/6/2 216/26/2
f 217/27/2 218/2/2 219/31/2
f 220/4/2 221/28/2 222/29/2
f 223/32/2 224/6/2 225/30/2
f 226/31/2 227/2/2 228/33/2
f 229/2/2 230/34/2 231/35/2
f 232/2/2 233/35/2 234/36/2
f 235/34/2 236/37/2 237/38/2
f 238/38/2 239/37/2 240/39/2
f 241/40/2 242/6/2 243/32/2
f 244/2/2 245/41/2 246/33/2
f 247/2/2 248/36/2 249/42/2
f 250/37/2 251/34/2 252/2/2
f 253/39/2 254/37/2 255/6/2
f 256/39/2 257/6/2 258/43/2
f 259/44/2 260/6/2 261/40/2
f 262/2/2 263/45/2 264/41/2
f 265/2/2 266/42/2 267/46/2
f 268/43/2 269/6/2 270/47/2
f 271/47/2 272/6/2 273/44/2
f 274/2/2 275/46/2 276/45/2
