# SSTK version 0.8.0
# 90
mtllib original-90.mtl
o part_1_2/part_1/mesh1/mesh1-geometry/material_5/component_14#mesh1-geometry
v -0.138190 0.099723 -0.040674
v -0.103185 0.099723 -0.040674
v -0.138190 0.095850 -0.040674
v -0.097914 0.099081 -0.040674
v -0.138190 0.095850 -0.040674
v -0.103185 0.099723 -0.040674
v -0.093461 0.097779 -0.040674
v -0.138190 0.095850 -0.040674
v -0.097914 0.099081 -0.040674
v -0.089207 0.095471 -0.040674
v -0.103175 0.095850 -0.040674
v -0.093461 0.097779 -0.040674
v -0.103175 0.095850 -0.040674
v -0.138190 0.095850 -0.040674
v -0.093461 0.097779 -0.040674
v -0.100008 0.094953 -0.040674
v -0.103175 0.095850 -0.040674
v -0.089207 0.095471 -0.040674
v -0.086168 0.092434 -0.040674
v -0.100008 0.094953 -0.040674
v -0.089207 0.095471 -0.040674
v -0.097669 0.092964 -0.040674
v -0.100008 0.094953 -0.040674
v -0.086168 0.092434 -0.040674
v -0.103185 0.068623 -0.040674
v -0.138190 0.068623 -0.040674
v -0.097914 0.069264 -0.040674
v -0.096157 0.089883 -0.040674
v -0.097669 0.092964 -0.040674
v -0.086168 0.092434 -0.040674
v -0.084345 0.088668 -0.040674
v -0.096157 0.089883 -0.040674
v -0.086168 0.092434 -0.040674
v -0.097914 0.069264 -0.040674
v -0.138190 0.068623 -0.040674
v -0.093461 0.070567 -0.040674
v -0.095471 0.085711 -0.040674
v -0.096157 0.089883 -0.040674
v -0.084345 0.088668 -0.040674
v -0.093461 0.070567 -0.040674
v -0.103175 0.072496 -0.040674
v -0.089207 0.072875 -0.040674
v -0.093461 0.070567 -0.040674
v -0.138190 0.068623 -0.040674
v -0.103175 0.072496 -0.040674
v -0.083737 0.084173 -0.040674
v -0.095471 0.085711 -0.040674
v -0.084345 0.088668 -0.040674
v -0.089207 0.072875 -0.040674
v -0.098068 0.075050 -0.040674
v -0.086168 0.075912 -0.040674
v -0.103175 0.072496 -0.040674
v -0.099673 0.073664 -0.040674
v -0.089207 0.072875 -0.040674
v -0.138190 0.072496 -0.040674
v -0.103175 0.072496 -0.040674
v -0.138190 0.068623 -0.040674
v -0.084345 0.079678 -0.040674
v -0.095471 0.081837 -0.040674
v -0.083737 0.084173 -0.040674
v -0.083737 0.084173 -0.040674
v -0.129636 0.081837 -0.040674
v -0.095471 0.085711 -0.040674
v -0.086168 0.075912 -0.040674
v -0.095967 0.079137 -0.040674
v -0.084345 0.079678 -0.040674
v -0.098068 0.075050 -0.040674
v -0.096833 0.076875 -0.040674
v -0.086168 0.075912 -0.040674
v -0.099673 0.073664 -0.040674
v -0.098068 0.075050 -0.040674
v -0.089207 0.072875 -0.040674
v -0.095471 0.081837 -0.040674
v -0.129636 0.081837 -0.040674
v -0.083737 0.084173 -0.040674
v -0.095967 0.079137 -0.040674
v -0.095471 0.081837 -0.040674
v -0.084345 0.079678 -0.040674
v -0.129636 0.085711 -0.040674
v -0.095471 0.085711 -0.040674
v -0.129636 0.081837 -0.040674
v -0.096833 0.076875 -0.040674
v -0.095967 0.079137 -0.040674
v -0.086168 0.075912 -0.040674
v -0.138190 0.095850 -0.040674
v -0.103185 0.099723 -0.040674
v -0.138190 0.099723 -0.040674
v -0.103185 0.099723 -0.040674
v -0.138190 0.095850 -0.040674
v -0.097914 0.099081 -0.040674
v -0.097914 0.099081 -0.040674
v -0.138190 0.095850 -0.040674
v -0.093461 0.097779 -0.040674
v -0.093461 0.097779 -0.040674
v -0.103175 0.095850 -0.040674
v -0.089207 0.095471 -0.040674
v -0.093461 0.097779 -0.040674
v -0.138190 0.095850 -0.040674
v -0.103175 0.095850 -0.040674
v -0.089207 0.095471 -0.040674
v -0.103175 0.095850 -0.040674
v -0.100008 0.094953 -0.040674
v -0.089207 0.095471 -0.040674
v -0.100008 0.094953 -0.040674
v -0.086168 0.092434 -0.040674
v -0.086168 0.092434 -0.040674
v -0.100008 0.094953 -0.040674
v -0.097669 0.092964 -0.040674
v -0.097914 0.069264 -0.040674
v -0.138190 0.068623 -0.040674
v -0.103185 0.068623 -0.040674
v -0.086168 0.092434 -0.040674
v -0.097669 0.092964 -0.040674
v -0.096157 0.089883 -0.040674
v -0.086168 0.092434 -0.040674
v -0.096157 0.089883 -0.040674
v -0.084345 0.088668 -0.040674
v -0.093461 0.070567 -0.040674
v -0.138190 0.068623 -0.040674
v -0.097914 0.069264 -0.040674
v -0.084345 0.088668 -0.040674
v -0.096157 0.089883 -0.040674
v -0.095471 0.085711 -0.040674
v -0.089207 0.072875 -0.040674
v -0.103175 0.072496 -0.040674
v -0.093461 0.070567 -0.040674
v -0.103175 0.072496 -0.040674
v -0.138190 0.068623 -0.040674
v -0.093461 0.070567 -0.040674
v -0.084345 0.088668 -0.040674
v -0.095471 0.085711 -0.040674
v -0.083737 0.084173 -0.040674
v -0.086168 0.075912 -0.040674
v -0.098068 0.075050 -0.040674
v -0.089207 0.072875 -0.040674
v -0.089207 0.072875 -0.040674
v -0.099673 0.073664 -0.040674
v -0.103175 0.072496 -0.040674
v -0.138190 0.068623 -0.040674
v -0.103175 0.072496 -0.040674
v -0.138190 0.072496 -0.040674
v -0.083737 0.084173 -0.040674
v -0.095471 0.081837 -0.040674
v -0.084345 0.079678 -0.040674
v -0.095471 0.085711 -0.040674
v -0.129636 0.081837 -0.040674
v -0.083737 0.084173 -0.040674
v -0.084345 0.079678 -0.040674
v -0.095967 0.079137 -0.040674
v -0.086168 0.075912 -0.040674
v -0.086168 0.075912 -0.040674
v -0.096833 0.076875 -0.040674
v -0.098068 0.075050 -0.040674
v -0.089207 0.072875 -0.040674
v -0.098068 0.075050 -0.040674
v -0.099673 0.073664 -0.040674
v -0.083737 0.084173 -0.040674
v -0.129636 0.081837 -0.040674
v -0.095471 0.081837 -0.040674
v -0.084345 0.079678 -0.040674
v -0.095471 0.081837 -0.040674
v -0.095967 0.079137 -0.040674
v -0.129636 0.081837 -0.040674
v -0.095471 0.085711 -0.040674
v -0.129636 0.085711 -0.040674
v -0.086168 0.075912 -0.040674
v -0.095967 0.079137 -0.040674
v -0.096833 0.076875 -0.040674
vn 0 0 -1
vn 0 0 1
usemtl material_0_0
f 1//1 2//1 3//1
f 4//1 5//1 6//1
f 7//1 8//1 9//1
f 10//1 11//1 12//1
f 13//1 14//1 15//1
f 16//1 17//1 18//1
f 19//1 20//1 21//1
f 22//1 23//1 24//1
f 25//1 26//1 27//1
f 28//1 29//1 30//1
f 31//1 32//1 33//1
f 34//1 35//1 36//1
f 37//1 38//1 39//1
f 40//1 41//1 42//1
f 43//1 44//1 45//1
f 46//1 47//1 48//1
f 49//1 50//1 51//1
f 52//1 53//1 54//1
f 55//1 56//1 57//1
f 58//1 59//1 60//1
f 61//1 62//1 63//1
f 64//1 65//1 66//1
f 67//1 68//1 69//1
f 70//1 71//1 72//1
f 73//1 74//1 75//1
f 76//1 77//1 78//1
f 79//1 80//1 81//1
f 82//1 83//1 84//1
usemtl material_1_0
f 85//2 86//2 87//2
f 88//2 89//2 90//2
f 91//2 92//2 93//2
f 94//2 95//2 96//2
f 97//2 98//2 99//2
f 100//2 101//2 102//2
f 103//2 104//2 105//2
f 106//2 107//2 108//2
f 109//2 110//2 111//2
f 112//2 113//2 114//2
f 115//2 116//2 117//2
f 118//2 119//2 120//2
f 121//2 122//2 123//2
f 124//2 125//2 126//2
f 127//2 128//2 129//2
f 130//2 131//2 132//2
f 133//2 134//2 135//2
f 136//2 137//2 138//2
f 139//2 140//2 141//2
f 142//2 143//2 144//2
f 145//2 146//2 147//2
f 148//2 149//2 150//2
f 151//2 152//2 153//2
f 154//2 155//2 156//2
f 157//2 158//2 159//2
f 160//2 161//2 162//2
f 163//2 164//2 165//2
f 166//2 167//2 168//2
