# SSTK version 0.8.0
# 110
mtllib original-110.mtl
o part_2_2/part_2/mesh2/mesh2-geometry/material_2/component_1#mesh2-geometry
v 0.402739 0.286718 0.025799
v 0.409216 0.293195 0.025799
v 0.418262 0.281291 0.025799
v 0.410286 0.276786 0.025799
v 0.418262 0.281291 0.025799
v 0.423786 0.267398 0.025799
v 0.414896 0.265195 0.025799
v 0.423786 0.267398 0.025799
v 0.425387 0.252533 0.025799
v 0.392807 0.294265 0.025799
v 0.409216 0.293195 0.025799
v 0.402739 0.286718 0.025799
v 0.402739 0.286718 0.025799
v 0.418262 0.281291 0.025799
v 0.410286 0.276786 0.025799
v 0.381216 0.298874 0.025799
v 0.397312 0.302240 0.025799
v 0.409216 0.293195 0.025799
v 0.410286 0.276786 0.025799
v 0.423786 0.267398 0.025799
v 0.414896 0.265195 0.025799
v 0.416311 0.252046 0.025799
v 0.425387 0.252533 0.025799
v 0.425387 -0.096654 0.025799
v 0.414896 0.265195 0.025799
v 0.425387 0.252533 0.025799
v 0.416311 0.252046 0.025799
v -0.393391 0.293195 0.025799
v -0.386914 0.286718 0.025799
v -0.402436 0.281291 0.025799
v 0.381216 0.298874 0.025799
v 0.409216 0.293195 0.025799
v 0.392807 0.294265 0.025799
v 0.368067 0.300290 0.025799
v 0.397312 0.302240 0.025799
v 0.381216 0.298874 0.025799
v -0.402436 0.281291 0.025799
v -0.394461 0.276786 0.025799
v -0.407961 0.267398 0.025799
v 0.416311 0.252046 0.025799
v 0.425387 -0.096654 0.025799
v 0.416311 -0.096167 0.025799
v -0.393391 0.293195 0.025799
v -0.376982 0.294265 0.025799
v -0.386914 0.286718 0.025799
v -0.402436 0.281291 0.025799
v -0.386914 0.286718 0.025799
v -0.394461 0.276786 0.025799
v -0.367594 0.307765 0.025799
v 0.383419 0.307765 0.025799
v 0.397312 0.302240 0.025799
v -0.381487 0.302240 0.025799
v 0.397312 0.302240 0.025799
v 0.368067 0.300290 0.025799
v -0.407961 0.267398 0.025799
v -0.394461 0.276786 0.025799
v -0.399070 0.265195 0.025799
v -0.407961 0.267398 0.025799
v -0.399070 0.265195 0.025799
v -0.409561 0.252533 0.025799
v 0.416311 -0.096167 0.025799
v 0.425387 -0.096654 0.025799
v 0.414896 -0.109316 0.025799
v -0.381487 0.302240 0.025799
v -0.365391 0.298874 0.025799
v -0.393391 0.293195 0.025799
v -0.393391 0.293195 0.025799
v -0.365391 0.298874 0.025799
v -0.376982 0.294265 0.025799
v -0.352729 0.309365 0.025799
v 0.383419 0.307765 0.025799
v -0.367594 0.307765 0.025799
v -0.367594 0.307765 0.025799
v 0.397312 0.302240 0.025799
v -0.381487 0.302240 0.025799
v -0.381487 0.302240 0.025799
v 0.368067 0.300290 0.025799
v -0.352242 0.300290 0.025799
v -0.409561 0.252533 0.025799
v -0.399070 0.265195 0.025799
v -0.400486 0.252046 0.025799
v 0.414896 -0.109316 0.025799
v 0.425387 -0.096654 0.025799
v 0.423786 -0.111519 0.025799
v -0.365391 0.298874 0.025799
v -0.381487 0.302240 0.025799
v -0.352242 0.300290 0.025799
v 0.383419 0.307765 0.025799
v 0.098668 0.309365 0.025799
v 0.368554 0.309365 0.025799
v -0.082843 0.309365 0.025799
v 0.383419 0.307765 0.025799
v -0.352729 0.309365 0.025799
v -0.409561 0.252533 0.025799
v -0.400486 0.252046 0.025799
v -0.409561 -0.096654 0.025799
v 0.410286 -0.120907 0.025799
v 0.423786 -0.111519 0.025799
v 0.418262 -0.125411 0.025799
v 0.414896 -0.109316 0.025799
v 0.423786 -0.111519 0.025799
v 0.410286 -0.120907 0.025799
v 0.098668 0.309365 0.025799
v 0.383419 0.307765 0.025799
v -0.082843 0.309365 0.025799
v -0.409561 -0.096654 0.025799
v -0.400486 0.252046 0.025799
v -0.400486 -0.096167 0.025799
v -0.409561 -0.096654 0.025799
v -0.399070 -0.109316 0.025799
v -0.407961 -0.111519 0.025799
v 0.402739 -0.130839 0.025799
v 0.418262 -0.125411 0.025799
v 0.409216 -0.137316 0.025799
v 0.410286 -0.120907 0.025799
v 0.418262 -0.125411 0.025799
v 0.402739 -0.130839 0.025799
v -0.082843 0.309365 0.025799
v 0.098668 0.309365 0.034875
v 0.098668 0.309365 0.025799
v -0.409561 -0.096654 0.025799
v -0.400486 -0.096167 0.025799
v -0.399070 -0.109316 0.025799
v -0.407961 -0.111519 0.025799
v -0.399070 -0.109316 0.025799
v -0.394461 -0.120907 0.025799
v -0.407961 -0.111519 0.025799
v -0.394461 -0.120907 0.025799
v -0.402436 -0.125411 0.025799
v 0.392807 -0.138386 0.025799
v 0.409216 -0.137316 0.025799
v 0.397312 -0.146361 0.025799
v 0.402739 -0.130839 0.025799
v 0.409216 -0.137316 0.025799
v 0.392807 -0.138386 0.025799
v 0.098668 0.309365 0.034875
v -0.082843 0.309365 0.025799
v -0.082843 0.309365 0.034875
v -0.402436 -0.125411 0.025799
v -0.394461 -0.120907 0.025799
v -0.386914 -0.130839 0.025799
v -0.402436 -0.125411 0.025799
v -0.386914 -0.130839 0.025799
v -0.393391 -0.137316 0.025799
v -0.367594 -0.151886 0.025799
v 0.368554 -0.153486 0.025799
v -0.352729 -0.153486 0.025799
v -0.367594 -0.151886 0.025799
v 0.383419 -0.151886 0.025799
v 0.368554 -0.153486 0.025799
v -0.381487 -0.146361 0.025799
v 0.383419 -0.151886 0.025799
v -0.367594 -0.151886 0.025799
v -0.381487 -0.146361 0.025799
v 0.397312 -0.146361 0.025799
v 0.383419 -0.151886 0.025799
v 0.392807 -0.138386 0.025799
v 0.397312 -0.146361 0.025799
v 0.381216 -0.142995 0.025799
v -0.082843 0.300290 0.034875
v 0.098668 0.309365 0.034875
v -0.082843 0.309365 0.034875
v -0.393391 -0.137316 0.025799
v -0.386914 -0.130839 0.025799
v -0.376982 -0.138386 0.025799
v -0.393391 -0.137316 0.025799
v -0.376982 -0.138386 0.025799
v -0.381487 -0.146361 0.025799
v -0.381487 -0.146361 0.025799
v 0.368067 -0.144411 0.025799
v 0.397312 -0.146361 0.025799
v 0.381216 -0.142995 0.025799
v 0.397312 -0.146361 0.025799
v 0.368067 -0.144411 0.025799
v 0.098668 0.309365 0.034875
v -0.082843 0.300290 0.034875
v 0.098668 0.300290 0.034875
v -0.381487 -0.146361 0.025799
v -0.376982 -0.138386 0.025799
v -0.365391 -0.142995 0.025799
v -0.381487 -0.146361 0.025799
v -0.352242 -0.144411 0.025799
v 0.368067 -0.144411 0.025799
v -0.082843 0.300290 0.034875
v 0.098668 0.300290 0.043950
v 0.098668 0.300290 0.034875
v -0.381487 -0.146361 0.025799
v -0.365391 -0.142995 0.025799
v -0.352242 -0.144411 0.025799
v 0.098668 0.300290 0.043950
v -0.082843 0.300290 0.034875
v -0.082843 0.300290 0.043950
v 0.418262 0.281291 0.025799
v 0.409216 0.293195 0.025799
v 0.402739 0.286718 0.025799
v 0.423786 0.267398 0.025799
v 0.418262 0.281291 0.025799
v 0.410286 0.276786 0.025799
v 0.425387 0.252533 0.025799
v 0.423786 0.267398 0.025799
v 0.414896 0.265195 0.025799
v 0.402739 0.286718 0.025799
v 0.409216 0.293195 0.025799
v 0.392807 0.294265 0.025799
v 0.410286 0.276786 0.025799
v 0.418262 0.281291 0.025799
v 0.402739 0.286718 0.025799
v 0.409216 0.293195 0.025799
v 0.397312 0.302240 0.025799
v 0.381216 0.298874 0.025799
v 0.414896 0.265195 0.025799
v 0.423786 0.267398 0.025799
v 0.410286 0.276786 0.025799
v 0.425387 -0.096654 0.025799
v 0.425387 0.252533 0.025799
v 0.416311 0.252046 0.025799
v 0.416311 0.252046 0.025799
v 0.425387 0.252533 0.025799
v 0.414896 0.265195 0.025799
v -0.402436 0.281291 0.025799
v -0.386914 0.286718 0.025799
v -0.393391 0.293195 0.025799
v 0.392807 0.294265 0.025799
v 0.409216 0.293195 0.025799
v 0.381216 0.298874 0.025799
v 0.381216 0.298874 0.025799
v 0.397312 0.302240 0.025799
v 0.368067 0.300290 0.025799
v -0.407961 0.267398 0.025799
v -0.394461 0.276786 0.025799
v -0.402436 0.281291 0.025799
v 0.416311 -0.096167 0.025799
v 0.425387 -0.096654 0.025799
v 0.416311 0.252046 0.025799
v -0.386914 0.286718 0.025799
v -0.376982 0.294265 0.025799
v -0.393391 0.293195 0.025799
v -0.394461 0.276786 0.025799
v -0.386914 0.286718 0.025799
v -0.402436 0.281291 0.025799
v 0.397312 0.302240 0.025799
v 0.383419 0.307765 0.025799
v -0.367594 0.307765 0.025799
v 0.368067 0.300290 0.025799
v 0.397312 0.302240 0.025799
v -0.381487 0.302240 0.025799
v -0.399070 0.265195 0.025799
v -0.394461 0.276786 0.025799
v -0.407961 0.267398 0.025799
v -0.409561 0.252533 0.025799
v -0.399070 0.265195 0.025799
v -0.407961 0.267398 0.025799
v 0.414896 -0.109316 0.025799
v 0.425387 -0.096654 0.025799
v 0.416311 -0.096167 0.025799
v -0.393391 0.293195 0.025799
v -0.365391 0.298874 0.025799
v -0.381487 0.302240 0.025799
v -0.376982 0.294265 0.025799
v -0.365391 0.298874 0.025799
v -0.393391 0.293195 0.025799
v -0.367594 0.307765 0.025799
v 0.383419 0.307765 0.025799
v -0.352729 0.309365 0.025799
v -0.381487 0.302240 0.025799
v 0.397312 0.302240 0.025799
v -0.367594 0.307765 0.025799
v -0.352242 0.300290 0.025799
v 0.368067 0.300290 0.025799
v -0.381487 0.302240 0.025799
v -0.400486 0.252046 0.025799
v -0.399070 0.265195 0.025799
v -0.409561 0.252533 0.025799
v 0.423786 -0.111519 0.025799
v 0.425387 -0.096654 0.025799
v 0.414896 -0.109316 0.025799
v -0.352242 0.300290 0.025799
v -0.381487 0.302240 0.025799
v -0.365391 0.298874 0.025799
v 0.368554 0.309365 0.025799
v 0.098668 0.309365 0.025799
v 0.383419 0.307765 0.025799
v -0.352729 0.309365 0.025799
v 0.383419 0.307765 0.025799
v -0.082843 0.309365 0.025799
v -0.409561 -0.096654 0.025799
v -0.400486 0.252046 0.025799
v -0.409561 0.252533 0.025799
v 0.418262 -0.125411 0.025799
v 0.423786 -0.111519 0.025799
v 0.410286 -0.120907 0.025799
v 0.410286 -0.120907 0.025799
v 0.423786 -0.111519 0.025799
v 0.414896 -0.109316 0.025799
v -0.082843 0.309365 0.025799
v 0.383419 0.307765 0.025799
v 0.098668 0.309365 0.025799
v -0.400486 -0.096167 0.025799
v -0.400486 0.252046 0.025799
v -0.409561 -0.096654 0.025799
v -0.407961 -0.111519 0.025799
v -0.399070 -0.109316 0.025799
v -0.409561 -0.096654 0.025799
v 0.409216 -0.137316 0.025799
v 0.418262 -0.125411 0.025799
v 0.402739 -0.130839 0.025799
v 0.402739 -0.130839 0.025799
v 0.418262 -0.125411 0.025799
v 0.410286 -0.120907 0.025799
v 0.098668 0.309365 0.025799
v 0.098668 0.309365 0.034875
v -0.082843 0.309365 0.025799
v -0.399070 -0.109316 0.025799
v -0.400486 -0.096167 0.025799
v -0.409561 -0.096654 0.025799
v -0.394461 -0.120907 0.025799
v -0.399070 -0.109316 0.025799
v -0.407961 -0.111519 0.025799
v -0.402436 -0.125411 0.025799
v -0.394461 -0.120907 0.025799
v -0.407961 -0.111519 0.025799
v 0.397312 -0.146361 0.025799
v 0.409216 -0.137316 0.025799
v 0.392807 -0.138386 0.025799
v 0.392807 -0.138386 0.025799
v 0.409216 -0.137316 0.025799
v 0.402739 -0.130839 0.025799
v -0.082843 0.309365 0.034875
v -0.082843 0.309365 0.025799
v 0.098668 0.309365 0.034875
v -0.386914 -0.130839 0.025799
v -0.394461 -0.120907 0.025799
v -0.402436 -0.125411 0.025799
v -0.393391 -0.137316 0.025799
v -0.386914 -0.130839 0.025799
v -0.402436 -0.125411 0.025799
v -0.352729 -0.153486 0.025799
v 0.368554 -0.153486 0.025799
v -0.367594 -0.151886 0.025799
v 0.368554 -0.153486 0.025799
v 0.383419 -0.151886 0.025799
v -0.367594 -0.151886 0.025799
v -0.367594 -0.151886 0.025799
v 0.383419 -0.151886 0.025799
v -0.381487 -0.146361 0.025799
v 0.383419 -0.151886 0.025799
v 0.397312 -0.146361 0.025799
v -0.381487 -0.146361 0.025799
v 0.381216 -0.142995 0.025799
v 0.397312 -0.146361 0.025799
v 0.392807 -0.138386 0.025799
v -0.082843 0.309365 0.034875
v 0.098668 0.309365 0.034875
v -0.082843 0.300290 0.034875
v -0.376982 -0.138386 0.025799
v -0.386914 -0.130839 0.025799
v -0.393391 -0.137316 0.025799
v -0.381487 -0.146361 0.025799
v -0.376982 -0.138386 0.025799
v -0.393391 -0.137316 0.025799
v 0.397312 -0.146361 0.025799
v 0.368067 -0.144411 0.025799
v -0.381487 -0.146361 0.025799
v 0.368067 -0.144411 0.025799
v 0.397312 -0.146361 0.025799
v 0.381216 -0.142995 0.025799
v 0.098668 0.300290 0.034875
v -0.082843 0.300290 0.034875
v 0.098668 0.309365 0.034875
v -0.365391 -0.142995 0.025799
v -0.376982 -0.138386 0.025799
v -0.381487 -0.146361 0.025799
v 0.368067 -0.144411 0.025799
v -0.352242 -0.144411 0.025799
v -0.381487 -0.146361 0.025799
v 0.098668 0.300290 0.034875
v 0.098668 0.300290 0.043950
v -0.082843 0.300290 0.034875
v -0.352242 -0.144411 0.025799
v -0.365391 -0.142995 0.025799
v -0.381487 -0.146361 0.025799
v -0.082843 0.300290 0.043950
v -0.082843 0.300290 0.034875
v 0.098668 0.300290 0.043950
vn 0 0 -1
vn 0 1 0
vn 0 0 1
vn 0 -1 0
usemtl material_0_0
f 1//1 2//1 3//1
f 4//1 5//1 6//1
f 7//1 8//1 9//1
f 10//1 11//1 12//1
f 13//1 14//1 15//1
f 16//1 17//1 18//1
f 19//1 20//1 21//1
f 22//1 23//1 24//1
f 25//1 26//1 27//1
f 28//1 29//1 30//1
f 31//1 32//1 33//1
f 34//1 35//1 36//1
f 37//1 38//1 39//1
f 40//1 41//1 42//1
f 43//1 44//1 45//1
f 46//1 47//1 48//1
f 49//1 50//1 51//1
f 52//1 53//1 54//1
f 55//1 56//1 57//1
f 58//1 59//1 60//1
f 61//1 62//1 63//1
f 64//1 65//1 66//1
f 67//1 68//1 69//1
f 70//1 71//1 72//1
f 73//1 74//1 75//1
f 76//1 77//1 78//1
f 79//1 80//1 81//1
f 82//1 83//1 84//1
f 85//1 86//1 87//1
f 88//1 89//1 90//1
f 91//1 92//1 93//1
f 94//1 95//1 96//1
f 97//1 98//1 99//1
f 100//1 101//1 102//1
f 103//1 104//1 105//1
f 106//1 107//1 108//1
f 109//1 110//1 111//1
f 112//1 113//1 114//1
f 115//1 116//1 117//1
f 118//2 119//2 120//2
f 121//1 122//1 123//1
f 124//1 125//1 126//1
f 127//1 128//1 129//1
f 130//1 131//1 132//1
f 133//1 134//1 135//1
f 136//2 137//2 138//2
f 139//1 140//1 141//1
f 142//1 143//1 144//1
f 145//1 146//1 147//1
f 148//1 149//1 150//1
f 151//1 152//1 153//1
f 154//1 155//1 156//1
f 157//1 158//1 159//1
f 160//3 161//3 162//3
f 163//1 164//1 165//1
f 166//1 167//1 168//1
f 169//1 170//1 171//1
f 172//1 173//1 174//1
f 175//3 176//3 177//3
f 178//1 179//1 180//1
f 181//1 182//1 183//1
f 184//2 185//2 186//2
f 187//1 188//1 189//1
f 190//2 191//2 192//2
usemtl material_1_0
f 193//3 194//3 195//3
f 196//3 197//3 198//3
f 199//3 200//3 201//3
f 202//3 203//3 204//3
f 205//3 206//3 207//3
f 208//3 209//3 210//3
f 211//3 212//3 213//3
f 214//3 215//3 216//3
f 217//3 218//3 219//3
f 220//3 221//3 222//3
f 223//3 224//3 225//3
f 226//3 227//3 228//3
f 229//3 230//3 231//3
f 232//3 233//3 234//3
f 235//3 236//3 237//3
f 238//3 239//3 240//3
f 241//3 242//3 243//3
f 244//3 245//3 246//3
f 247//3 248//3 249//3
f 250//3 251//3 252//3
f 253//3 254//3 255//3
f 256//3 257//3 258//3
f 259//3 260//3 261//3
f 262//3 263//3 264//3
f 265//3 266//3 267//3
f 268//3 269//3 270//3
f 271//3 272//3 273//3
f 274//3 275//3 276//3
f 277//3 278//3 279//3
f 280//3 281//3 282//3
f 283//3 284//3 285//3
f 286//3 287//3 288//3
f 289//3 290//3 291//3
f 292//3 293//3 294//3
f 295//3 296//3 297//3
f 298//3 299//3 300//3
f 301//3 302//3 303//3
f 304//3 305//3 306//3
f 307//3 308//3 309//3
f 310//4 311//4 312//4
f 313//3 314//3 315//3
f 316//3 317//3 318//3
f 319//3 320//3 321//3
f 322//3 323//3 324//3
f 325//3 326//3 327//3
f 328//4 329//4 330//4
f 331//3 332//3 333//3
f 334//3 335//3 336//3
f 337//3 338//3 339//3
f 340//3 341//3 342//3
f 343//3 344//3 345//3
f 346//3 347//3 348//3
f 349//3 350//3 351//3
f 352//1 353//1 354//1
f 355//3 356//3 357//3
f 358//3 359//3 360//3
f 361//3 362//3 363//3
f 364//3 365//3 366//3
f 367//1 368//1 369//1
f 370//3 371//3 372//3
f 373//3 374//3 375//3
f 376//4 377//4 378//4
f 379//3 380//3 381//3
f 382//4 383//4 384//4
