# SSTK version 0.8.0
# 114
mtllib original-114.mtl
o part_2_2/part_2/mesh2/mesh2-geometry/material_2/component_5#mesh2-geometry
v -0.096110 0.598453 0.129260
v -0.072795 0.590707 0.129260
v -0.019947 0.598453 0.129260
v -0.072795 0.590707 0.129260
v -0.096110 0.598453 0.129260
v -0.096110 0.536253 0.129260
v -0.019947 0.598453 0.129260
v -0.072795 0.590707 0.129260
v -0.008989 0.597170 0.129260
v -0.072795 0.590707 0.129260
v -0.096110 0.536253 0.129260
v -0.072795 0.536253 0.129260
v -0.008989 0.597170 0.129260
v -0.072795 0.590707 0.129260
v 0.000260 0.594566 0.129260
v -0.049480 0.590707 0.129260
v 0.000260 0.594566 0.129260
v -0.072795 0.590707 0.129260
v -0.026164 0.590707 0.129260
v 0.000260 0.594566 0.129260
v -0.049480 0.590707 0.129260
v -0.049480 0.536253 0.129260
v -0.026164 0.590707 0.129260
v -0.049480 0.590707 0.129260
v -0.019947 0.590707 0.129260
v 0.000260 0.594566 0.129260
v -0.026164 0.590707 0.129260
v -0.026164 0.590707 0.129260
v -0.049480 0.536253 0.129260
v -0.026164 0.536253 0.129260
v 0.000260 0.594566 0.129260
v -0.019947 0.590707 0.129260
v 0.009100 0.589949 0.129260
v 0.020466 0.567353 0.129260
v -0.002849 0.536253 0.129260
v 0.020466 0.536253 0.129260
v 0.009100 0.589949 0.129260
v -0.019947 0.590707 0.129260
v -0.012467 0.588606 0.129260
v 0.020466 0.567353 0.129260
v -0.002849 0.567370 0.129260
v -0.002849 0.536253 0.129260
v 0.009100 0.589949 0.129260
v -0.012467 0.588606 0.129260
v 0.015415 0.583875 0.129260
v 0.019204 0.576343 0.129260
v -0.002849 0.567370 0.129260
v 0.020466 0.567353 0.129260
v 0.019204 0.576343 0.129260
v -0.003918 0.576938 0.129260
v -0.002849 0.567370 0.129260
v 0.015415 0.583875 0.129260
v -0.012467 0.588606 0.129260
v -0.009528 0.586623 0.129260
v 0.015415 0.583875 0.129260
v -0.007123 0.584017 0.129260
v -0.003918 0.576938 0.129260
v 0.015415 0.583875 0.129260
v -0.003918 0.576938 0.129260
v 0.019204 0.576343 0.129260
v 0.015415 0.583875 0.129260
v -0.009528 0.586623 0.129260
v -0.007123 0.584017 0.129260
v -0.019947 0.598453 0.129260
v -0.072795 0.590707 0.129260
v -0.096110 0.598453 0.129260
v -0.096110 0.536253 0.129260
v -0.096110 0.598453 0.129260
v -0.072795 0.590707 0.129260
v -0.008989 0.597170 0.129260
v -0.072795 0.590707 0.129260
v -0.019947 0.598453 0.129260
v -0.072795 0.536253 0.129260
v -0.096110 0.536253 0.129260
v -0.072795 0.590707 0.129260
v 0.000260 0.594566 0.129260
v -0.072795 0.590707 0.129260
v -0.008989 0.597170 0.129260
v -0.072795 0.590707 0.129260
v 0.000260 0.594566 0.129260
v -0.049480 0.590707 0.129260
v -0.049480 0.590707 0.129260
v 0.000260 0.594566 0.129260
v -0.026164 0.590707 0.129260
v -0.049480 0.590707 0.129260
v -0.026164 0.590707 0.129260
v -0.049480 0.536253 0.129260
v -0.026164 0.590707 0.129260
v 0.000260 0.594566 0.129260
v -0.019947 0.590707 0.129260
v -0.026164 0.536253 0.129260
v -0.049480 0.536253 0.129260
v -0.026164 0.590707 0.129260
v 0.009100 0.589949 0.129260
v -0.019947 0.590707 0.129260
v 0.000260 0.594566 0.129260
v 0.020466 0.536253 0.129260
v -0.002849 0.536253 0.129260
v 0.020466 0.567353 0.129260
v -0.012467 0.588606 0.129260
v -0.019947 0.590707 0.129260
v 0.009100 0.589949 0.129260
v -0.002849 0.536253 0.129260
v -0.002849 0.567370 0.129260
v 0.020466 0.567353 0.129260
v 0.015415 0.583875 0.129260
v -0.012467 0.588606 0.129260
v 0.009100 0.589949 0.129260
v 0.020466 0.567353 0.129260
v -0.002849 0.567370 0.129260
v 0.019204 0.576343 0.129260
v -0.002849 0.567370 0.129260
v -0.003918 0.576938 0.129260
v 0.019204 0.576343 0.129260
v -0.009528 0.586623 0.129260
v -0.012467 0.588606 0.129260
v 0.015415 0.583875 0.129260
v -0.003918 0.576938 0.129260
v -0.007123 0.584017 0.129260
v 0.015415 0.583875 0.129260
v 0.019204 0.576343 0.129260
v -0.003918 0.576938 0.129260
v 0.015415 0.583875 0.129260
v -0.007123 0.584017 0.129260
v -0.009528 0.586623 0.129260
v 0.015415 0.583875 0.129260
vn 0 0 1
vn 0 0 -1
usemtl material_0_0
f 1//1 2//1 3//1
f 4//1 5//1 6//1
f 7//1 8//1 9//1
f 10//1 11//1 12//1
f 13//1 14//1 15//1
f 16//1 17//1 18//1
f 19//1 20//1 21//1
f 22//1 23//1 24//1
f 25//1 26//1 27//1
f 28//1 29//1 30//1
f 31//1 32//1 33//1
f 34//1 35//1 36//1
f 37//1 38//1 39//1
f 40//1 41//1 42//1
f 43//1 44//1 45//1
f 46//1 47//1 48//1
f 49//1 50//1 51//1
f 52//1 53//1 54//1
f 55//1 56//1 57//1
f 58//1 59//1 60//1
f 61//1 62//1 63//1
usemtl material_1_0
f 64//2 65//2 66//2
f 67//2 68//2 69//2
f 70//2 71//2 72//2
f 73//2 74//2 75//2
f 76//2 77//2 78//2
f 79//2 80//2 81//2
f 82//2 83//2 84//2
f 85//2 86//2 87//2
f 88//2 89//2 90//2
f 91//2 92//2 93//2
f 94//2 95//2 96//2
f 97//2 98//2 99//2
f 100//2 101//2 102//2
f 103//2 104//2 105//2
f 106//2 107//2 108//2
f 109//2 110//2 111//2
f 112//2 113//2 114//2
f 115//2 116//2 117//2
f 118//2 119//2 120//2
f 121//2 122//2 123//2
f 124//2 125//2 126//2
