# SSTK version 0.8.0
# 87
mtllib original-87.mtl
o part_1_2/part_1/mesh1/mesh1-geometry/material_5/component_11#mesh1-geometry
v -0.184859 0.099723 -0.040674
v -0.165417 0.099723 -0.040674
v -0.190128 0.099081 -0.040674
v -0.160148 0.099081 -0.040674
v -0.190128 0.099081 -0.040674
v -0.165417 0.099723 -0.040674
v -0.194580 0.097779 -0.040674
v -0.190128 0.099081 -0.040674
v -0.160148 0.099081 -0.040674
v -0.155696 0.097779 -0.040674
v -0.194580 0.097779 -0.040674
v -0.160148 0.099081 -0.040674
v -0.198833 0.095471 -0.040674
v -0.194580 0.097779 -0.040674
v -0.155696 0.097779 -0.040674
v -0.184863 0.095850 -0.040674
v -0.198833 0.095471 -0.040674
v -0.155696 0.097779 -0.040674
v -0.151443 0.095471 -0.040674
v -0.165413 0.095850 -0.040674
v -0.155696 0.097779 -0.040674
v -0.192644 0.056965 -0.040674
v -0.204301 0.056965 -0.040674
v -0.192644 0.068623 -0.040674
v -0.201871 0.092434 -0.040674
v -0.198833 0.095471 -0.040674
v -0.188267 0.094799 -0.040674
v -0.188267 0.094799 -0.040674
v -0.198833 0.095471 -0.040674
v -0.184863 0.095850 -0.040674
v -0.184863 0.095850 -0.040674
v -0.155696 0.097779 -0.040674
v -0.165413 0.095850 -0.040674
v -0.162009 0.094799 -0.040674
v -0.165413 0.095850 -0.040674
v -0.151443 0.095471 -0.040674
v -0.192644 0.068623 -0.040674
v -0.204301 0.056965 -0.040674
v -0.192644 0.072496 -0.040674
v -0.190698 0.092502 -0.040674
v -0.201871 0.092434 -0.040674
v -0.188267 0.094799 -0.040674
v -0.203694 0.088669 -0.040674
v -0.201871 0.092434 -0.040674
v -0.192157 0.088960 -0.040674
v -0.148405 0.092434 -0.040674
v -0.162009 0.094799 -0.040674
v -0.151443 0.095471 -0.040674
v -0.192644 0.072496 -0.040674
v -0.204301 0.056965 -0.040674
v -0.192644 0.084173 -0.040674
v -0.165413 0.072496 -0.040674
v -0.192644 0.068623 -0.040674
v -0.192644 0.072496 -0.040674
v -0.192644 0.068623 -0.040674
v -0.160151 0.069264 -0.040674
v -0.165420 0.068623 -0.040674
v -0.192157 0.088960 -0.040674
v -0.201871 0.092434 -0.040674
v -0.190698 0.092502 -0.040674
v -0.192644 0.084173 -0.040674
v -0.203694 0.088669 -0.040674
v -0.192157 0.088960 -0.040674
v -0.159578 0.092502 -0.040674
v -0.162009 0.094799 -0.040674
v -0.148405 0.092434 -0.040674
v -0.204301 0.056965 -0.040674
v -0.204301 0.084175 -0.040674
v -0.192644 0.084173 -0.040674
v -0.155698 0.070567 -0.040674
v -0.192644 0.068623 -0.040674
v -0.165413 0.072496 -0.040674
v -0.160151 0.069264 -0.040674
v -0.192644 0.068623 -0.040674
v -0.155698 0.070567 -0.040674
v -0.204301 0.084175 -0.040674
v -0.203694 0.088669 -0.040674
v -0.192644 0.084173 -0.040674
v -0.158119 0.088960 -0.040674
v -0.159578 0.092502 -0.040674
v -0.148405 0.092434 -0.040674
v -0.155698 0.070567 -0.040674
v -0.165413 0.072496 -0.040674
v -0.151444 0.072875 -0.040674
v -0.165413 0.072496 -0.040674
v -0.162009 0.073547 -0.040674
v -0.151444 0.072875 -0.040674
v -0.146582 0.088668 -0.040674
v -0.158119 0.088960 -0.040674
v -0.148405 0.092434 -0.040674
v -0.157633 0.084173 -0.040674
v -0.158119 0.088960 -0.040674
v -0.146582 0.088668 -0.040674
v -0.158119 0.079385 -0.040674
v -0.157633 0.084173 -0.040674
v -0.145975 0.084173 -0.040674
v -0.162009 0.073547 -0.040674
v -0.159578 0.075843 -0.040674
v -0.151444 0.072875 -0.040674
v -0.145975 0.084173 -0.040674
v -0.157633 0.084173 -0.040674
v -0.146582 0.088668 -0.040674
v -0.159578 0.075843 -0.040674
v -0.158119 0.079385 -0.040674
v -0.148406 0.075912 -0.040674
v -0.146583 0.079678 -0.040674
v -0.158119 0.079385 -0.040674
v -0.145975 0.084173 -0.040674
v -0.151444 0.072875 -0.040674
v -0.159578 0.075843 -0.040674
v -0.148406 0.075912 -0.040674
v -0.148406 0.075912 -0.040674
v -0.158119 0.079385 -0.040674
v -0.146583 0.079678 -0.040674
v -0.190128 0.099081 -0.040674
v -0.165417 0.099723 -0.040674
v -0.184859 0.099723 -0.040674
v -0.165417 0.099723 -0.040674
v -0.190128 0.099081 -0.040674
v -0.160148 0.099081 -0.040674
v -0.160148 0.099081 -0.040674
v -0.190128 0.099081 -0.040674
v -0.194580 0.097779 -0.040674
v -0.160148 0.099081 -0.040674
v -0.194580 0.097779 -0.040674
v -0.155696 0.097779 -0.040674
v -0.155696 0.097779 -0.040674
v -0.194580 0.097779 -0.040674
v -0.198833 0.095471 -0.040674
v -0.155696 0.097779 -0.040674
v -0.198833 0.095471 -0.040674
v -0.184863 0.095850 -0.040674
v -0.155696 0.097779 -0.040674
v -0.165413 0.095850 -0.040674
v -0.151443 0.095471 -0.040674
v -0.192644 0.068623 -0.040674
v -0.204301 0.056965 -0.040674
v -0.192644 0.056965 -0.040674
v -0.188267 0.094799 -0.040674
v -0.198833 0.095471 -0.040674
v -0.201871 0.092434 -0.040674
v -0.184863 0.095850 -0.040674
v -0.198833 0.095471 -0.040674
v -0.188267 0.094799 -0.040674
v -0.165413 0.095850 -0.040674
v -0.155696 0.097779 -0.040674
v -0.184863 0.095850 -0.040674
v -0.151443 0.095471 -0.040674
v -0.165413 0.095850 -0.040674
v -0.162009 0.094799 -0.040674
v -0.192644 0.072496 -0.040674
v -0.204301 0.056965 -0.040674
v -0.192644 0.068623 -0.040674
v -0.188267 0.094799 -0.040674
v -0.201871 0.092434 -0.040674
v -0.190698 0.092502 -0.040674
v -0.192157 0.088960 -0.040674
v -0.201871 0.092434 -0.040674
v -0.203694 0.088669 -0.040674
v -0.151443 0.095471 -0.040674
v -0.162009 0.094799 -0.040674
v -0.148405 0.092434 -0.040674
v -0.192644 0.084173 -0.040674
v -0.204301 0.056965 -0.040674
v -0.192644 0.072496 -0.040674
v -0.192644 0.072496 -0.040674
v -0.192644 0.068623 -0.040674
v -0.165413 0.072496 -0.040674
v -0.165420 0.068623 -0.040674
v -0.160151 0.069264 -0.040674
v -0.192644 0.068623 -0.040674
v -0.190698 0.092502 -0.040674
v -0.201871 0.092434 -0.040674
v -0.192157 0.088960 -0.040674
v -0.192157 0.088960 -0.040674
v -0.203694 0.088669 -0.040674
v -0.192644 0.084173 -0.040674
v -0.148405 0.092434 -0.040674
v -0.162009 0.094799 -0.040674
v -0.159578 0.092502 -0.040674
v -0.192644 0.084173 -0.040674
v -0.204301 0.084175 -0.040674
v -0.204301 0.056965 -0.040674
v -0.165413 0.072496 -0.040674
v -0.192644 0.068623 -0.040674
v -0.155698 0.070567 -0.040674
v -0.155698 0.070567 -0.040674
v -0.192644 0.068623 -0.040674
v -0.160151 0.069264 -0.040674
v -0.192644 0.084173 -0.040674
v -0.203694 0.088669 -0.040674
v -0.204301 0.084175 -0.040674
v -0.148405 0.092434 -0.040674
v -0.159578 0.092502 -0.040674
v -0.158119 0.088960 -0.040674
v -0.151444 0.072875 -0.040674
v -0.165413 0.072496 -0.040674
v -0.155698 0.070567 -0.040674
v -0.151444 0.072875 -0.040674
v -0.162009 0.073547 -0.040674
v -0.165413 0.072496 -0.040674
v -0.148405 0.092434 -0.040674
v -0.158119 0.088960 -0.040674
v -0.146582 0.088668 -0.040674
v -0.146582 0.088668 -0.040674
v -0.158119 0.088960 -0.040674
v -0.157633 0.084173 -0.040674
v -0.145975 0.084173 -0.040674
v -0.157633 0.084173 -0.040674
v -0.158119 0.079385 -0.040674
v -0.151444 0.072875 -0.040674
v -0.159578 0.075843 -0.040674
v -0.162009 0.073547 -0.040674
v -0.146582 0.088668 -0.040674
v -0.157633 0.084173 -0.040674
v -0.145975 0.084173 -0.040674
v -0.148406 0.075912 -0.040674
v -0.158119 0.079385 -0.040674
v -0.159578 0.075843 -0.040674
v -0.145975 0.084173 -0.040674
v -0.158119 0.079385 -0.040674
v -0.146583 0.079678 -0.040674
v -0.148406 0.075912 -0.040674
v -0.159578 0.075843 -0.040674
v -0.151444 0.072875 -0.040674
v -0.146583 0.079678 -0.040674
v -0.158119 0.079385 -0.040674
v -0.148406 0.075912 -0.040674
vn 0 0 -1
vn 0 0 1
usemtl material_0_0
f 1//1 2//1 3//1
f 4//1 5//1 6//1
f 7//1 8//1 9//1
f 10//1 11//1 12//1
f 13//1 14//1 15//1
f 16//1 17//1 18//1
f 19//1 20//1 21//1
f 22//1 23//1 24//1
f 25//1 26//1 27//1
f 28//1 29//1 30//1
f 31//1 32//1 33//1
f 34//1 35//1 36//1
f 37//1 38//1 39//1
f 40//1 41//1 42//1
f 43//1 44//1 45//1
f 46//1 47//1 48//1
f 49//1 50//1 51//1
f 52//1 53//1 54//1
f 55//1 56//1 57//1
f 58//1 59//1 60//1
f 61//1 62//1 63//1
f 64//1 65//1 66//1
f 67//1 68//1 69//1
f 70//1 71//1 72//1
f 73//1 74//1 75//1
f 76//1 77//1 78//1
f 79//1 80//1 81//1
f 82//1 83//1 84//1
f 85//1 86//1 87//1
f 88//1 89//1 90//1
f 91//1 92//1 93//1
f 94//1 95//1 96//1
f 97//1 98//1 99//1
f 100//1 101//1 102//1
f 103//1 104//1 105//1
f 106//1 107//1 108//1
f 109//1 110//1 111//1
f 112//1 113//1 114//1
usemtl material_1_0
f 115//2 116//2 117//2
f 118//2 119//2 120//2
f 121//2 122//2 123//2
f 124//2 125//2 126//2
f 127//2 128//2 129//2
f 130//2 131//2 132//2
f 133//2 134//2 135//2
f 136//2 137//2 138//2
f 139//2 140//2 141//2
f 142//2 143//2 144//2
f 145//2 146//2 147//2
f 148//2 149//2 150//2
f 151//2 152//2 153//2
f 154//2 155//2 156//2
f 157//2 158//2 159//2
f 160//2 161//2 162//2
f 163//2 164//2 165//2
f 166//2 167//2 168//2
f 169//2 170//2 171//2
f 172//2 173//2 174//2
f 175//2 176//2 177//2
f 178//2 179//2 180//2
f 181//2 182//2 183//2
f 184//2 185//2 186//2
f 187//2 188//2 189//2
f 190//2 191//2 192//2
f 193//2 194//2 195//2
f 196//2 197//2 198//2
f 199//2 200//2 201//2
f 202//2 203//2 204//2
f 205//2 206//2 207//2
f 208//2 209//2 210//2
f 211//2 212//2 213//2
f 214//2 215//2 216//2
f 217//2 218//2 219//2
f 220//2 221//2 222//2
f 223//2 224//2 225//2
f 226//2 227//2 228//2
