# SSTK version 0.8.0
# 11
mtllib original-11.mtl
o part_1_2/part_1/mesh1/mesh1-geometry/material_0/component_8#mesh1-geometry
v -0.022627 -0.068055 -0.040674
v -0.028456 -0.101121 -0.040674
v -0.020077 -0.070365 -0.040674
v -0.020077 -0.070365 -0.040674
v -0.028456 -0.101121 -0.040674
v -0.018255 -0.073404 -0.040674
v -0.025289 -0.066752 -0.040674
v -0.028456 -0.101121 -0.040674
v -0.022627 -0.068055 -0.040674
v -0.018255 -0.073404 -0.040674
v -0.028456 -0.101121 -0.040674
v -0.017162 -0.077172 -0.040674
v -0.028456 -0.101121 -0.040674
v -0.025289 -0.066752 -0.040674
v -0.028456 -0.066110 -0.040674
v -0.017162 -0.077172 -0.040674
v -0.028456 -0.101121 -0.040674
v -0.016798 -0.081670 -0.040674
v -0.016798 -0.081670 -0.040674
v -0.028456 -0.101121 -0.040674
v -0.016798 -0.101121 -0.040674
v -0.020077 -0.070365 -0.040674
v -0.028456 -0.101121 -0.040674
v -0.022627 -0.068055 -0.040674
v -0.018255 -0.073404 -0.040674
v -0.028456 -0.101121 -0.040674
v -0.020077 -0.070365 -0.040674
v -0.022627 -0.068055 -0.040674
v -0.028456 -0.101121 -0.040674
v -0.025289 -0.066752 -0.040674
v -0.017162 -0.077172 -0.040674
v -0.028456 -0.101121 -0.040674
v -0.018255 -0.073404 -0.040674
v -0.028456 -0.066110 -0.040674
v -0.025289 -0.066752 -0.040674
v -0.028456 -0.101121 -0.040674
v -0.016798 -0.081670 -0.040674
v -0.028456 -0.101121 -0.040674
v -0.017162 -0.077172 -0.040674
v -0.016798 -0.101121 -0.040674
v -0.028456 -0.101121 -0.040674
v -0.016798 -0.081670 -0.040674
vn 0 0 1
vn 0 0 -1
usemtl material_0_0
f 1//1 2//1 3//1
f 4//1 5//1 6//1
f 7//1 8//1 9//1
f 10//1 11//1 12//1
f 13//1 14//1 15//1
f 16//1 17//1 18//1
f 19//1 20//1 21//1
usemtl material_1_0
f 22//2 23//2 24//2
f 25//2 26//2 27//2
f 28//2 29//2 30//2
f 31//2 32//2 33//2
f 34//2 35//2 36//2
f 37//2 38//2 39//2
f 40//2 41//2 42//2
