# SSTK version 0.8.0
# 48
mtllib original-48.mtl
o part_1_2/part_1/mesh1/mesh1-geometry/material_1#mesh1-geometry
v 0.368554 -0.725244 -0.022523
v -0.369121 -0.723086 -0.022523
v -0.352729 -0.725244 -0.022523
v -0.352729 -0.725244 -0.022523
v -0.369121 -0.723086 -0.022523
v 0.368554 -0.725244 -0.022523
v 0.384946 -0.723086 -0.022523
v -0.369121 -0.723086 -0.022523
v 0.368554 -0.725244 -0.022523
v 0.368554 -0.725244 -0.022523
v -0.369121 -0.723086 -0.022523
v 0.384946 -0.723086 -0.022523
v 0.384946 -0.723086 -0.022523
v -0.382178 -0.717677 -0.022523
v -0.369121 -0.723086 -0.022523
v -0.369121 -0.723086 -0.022523
v -0.382178 -0.717677 -0.022523
v 0.384946 -0.723086 -0.022523
v 0.398003 -0.717677 -0.022523
v -0.382178 -0.717677 -0.022523
v 0.384946 -0.723086 -0.022523
v 0.384946 -0.723086 -0.022523
v -0.382178 -0.717677 -0.022523
v 0.398003 -0.717677 -0.022523
v 0.398003 -0.717677 -0.022523
v -0.393391 -0.709074 -0.022523
v -0.382178 -0.717677 -0.022523
v -0.382178 -0.717677 -0.022523
v -0.393391 -0.709074 -0.022523
v 0.398003 -0.717677 -0.022523
v 0.409216 -0.709074 -0.022523
v -0.393391 -0.709074 -0.022523
v 0.398003 -0.717677 -0.022523
v 0.398003 -0.717677 -0.022523
v -0.393391 -0.709074 -0.022523
v 0.409216 -0.709074 -0.022523
v 0.409216 -0.709074 -0.022523
v -0.401995 -0.697861 -0.022523
v -0.393391 -0.709074 -0.022523
v -0.393391 -0.709074 -0.022523
v -0.401995 -0.697861 -0.022523
v 0.409216 -0.709074 -0.022523
v 0.417820 -0.697861 -0.022523
v -0.401995 -0.697861 -0.022523
v 0.409216 -0.709074 -0.022523
v 0.409216 -0.709074 -0.022523
v -0.401995 -0.697861 -0.022523
v 0.417820 -0.697861 -0.022523
v 0.417820 -0.697861 -0.022523
v -0.407403 -0.684803 -0.022523
v -0.401995 -0.697861 -0.022523
v -0.401995 -0.697861 -0.022523
v -0.407403 -0.684803 -0.022523
v 0.417820 -0.697861 -0.022523
v 0.423229 -0.684803 -0.022523
v -0.407403 -0.684803 -0.022523
v 0.417820 -0.697861 -0.022523
v 0.417820 -0.697861 -0.022523
v -0.407403 -0.684803 -0.022523
v 0.423229 -0.684803 -0.022523
v 0.423229 -0.684803 -0.022523
v -0.409561 -0.668412 -0.022523
v -0.407403 -0.684803 -0.022523
v -0.407403 -0.684803 -0.022523
v -0.409561 -0.668412 -0.022523
v 0.423229 -0.684803 -0.022523
v 0.425387 -0.668412 -0.022523
v -0.409561 -0.668412 -0.022523
v 0.423229 -0.684803 -0.022523
v 0.423229 -0.684803 -0.022523
v -0.409561 -0.668412 -0.022523
v 0.425387 -0.668412 -0.022523
v 0.425387 0.116400 -0.022523
v -0.409561 0.116400 -0.022523
v -0.409561 -0.668412 -0.022523
v -0.409561 -0.668412 -0.022523
v -0.409561 0.116400 -0.022523
v 0.425387 0.116400 -0.022523
v 0.423229 0.132792 -0.022523
v -0.407403 0.132792 -0.022523
v -0.409561 0.116400 -0.022523
v -0.409561 0.116400 -0.022523
v -0.407403 0.132792 -0.022523
v 0.423229 0.132792 -0.022523
v 0.423229 0.132792 -0.022523
v -0.409561 0.116400 -0.022523
v 0.425387 0.116400 -0.022523
v 0.425387 0.116400 -0.022523
v -0.409561 0.116400 -0.022523
v 0.423229 0.132792 -0.022523
v 0.425387 0.116400 -0.022523
v -0.409561 -0.668412 -0.022523
v 0.425387 -0.668412 -0.022523
v 0.425387 -0.668412 -0.022523
v -0.409561 -0.668412 -0.022523
v 0.425387 0.116400 -0.022523
v 0.423229 0.132792 -0.022523
v -0.401995 0.145849 -0.022523
v -0.407403 0.132792 -0.022523
v -0.407403 0.132792 -0.022523
v -0.401995 0.145849 -0.022523
v 0.423229 0.132792 -0.022523
v 0.417820 0.145849 -0.022523
v -0.401995 0.145849 -0.022523
v 0.423229 0.132792 -0.022523
v 0.423229 0.132792 -0.022523
v -0.401995 0.145849 -0.022523
v 0.417820 0.145849 -0.022523
v 0.409216 0.157062 -0.022523
v -0.393391 0.157062 -0.022523
v -0.401995 0.145849 -0.022523
v -0.401995 0.145849 -0.022523
v -0.393391 0.157062 -0.022523
v 0.409216 0.157062 -0.022523
v 0.409216 0.157062 -0.022523
v -0.401995 0.145849 -0.022523
v 0.417820 0.145849 -0.022523
v 0.417820 0.145849 -0.022523
v -0.401995 0.145849 -0.022523
v 0.409216 0.157062 -0.022523
v 0.398003 0.165666 -0.022523
v -0.382178 0.165666 -0.022523
v -0.393391 0.157062 -0.022523
v -0.393391 0.157062 -0.022523
v -0.382178 0.165666 -0.022523
v 0.398003 0.165666 -0.022523
v 0.398003 0.165666 -0.022523
v -0.393391 0.157062 -0.022523
v 0.409216 0.157062 -0.022523
v 0.409216 0.157062 -0.022523
v -0.393391 0.157062 -0.022523
v 0.398003 0.165666 -0.022523
v 0.384946 0.171075 -0.022523
v -0.382178 0.165666 -0.022523
v 0.398003 0.165666 -0.022523
v 0.398003 0.165666 -0.022523
v -0.382178 0.165666 -0.022523
v 0.384946 0.171075 -0.022523
v 0.384946 0.171075 -0.022523
v -0.369121 0.171075 -0.022523
v -0.382178 0.165666 -0.022523
v -0.382178 0.165666 -0.022523
v -0.369121 0.171075 -0.022523
v 0.384946 0.171075 -0.022523
v 0.368554 0.173233 -0.022523
v -0.369121 0.171075 -0.022523
v 0.384946 0.171075 -0.022523
v 0.384946 0.171075 -0.022523
v -0.369121 0.171075 -0.022523
v 0.368554 0.173233 -0.022523
v -0.369121 0.171075 -0.022523
v 0.368554 0.173233 -0.022523
v -0.352729 0.173233 -0.022523
v -0.352729 0.173233 -0.022523
v 0.368554 0.173233 -0.022523
v -0.369121 0.171075 -0.022523
vn 0 0 1
vn 0 0 -1
usemtl material_0_0
f 1//1 2//1 3//1
f 4//2 5//2 6//2
f 7//1 8//1 9//1
f 10//2 11//2 12//2
f 13//1 14//1 15//1
f 16//2 17//2 18//2
f 19//1 20//1 21//1
f 22//2 23//2 24//2
f 25//1 26//1 27//1
f 28//2 29//2 30//2
f 31//1 32//1 33//1
f 34//2 35//2 36//2
f 37//1 38//1 39//1
f 40//2 41//2 42//2
f 43//1 44//1 45//1
f 46//2 47//2 48//2
f 49//1 50//1 51//1
f 52//2 53//2 54//2
f 55//1 56//1 57//1
f 58//2 59//2 60//2
f 61//1 62//1 63//1
f 64//2 65//2 66//2
f 67//1 68//1 69//1
f 70//2 71//2 72//2
f 73//1 74//1 75//1
f 76//2 77//2 78//2
f 79//1 80//1 81//1
f 82//2 83//2 84//2
f 85//1 86//1 87//1
f 88//2 89//2 90//2
f 91//1 92//1 93//1
f 94//2 95//2 96//2
f 97//1 98//1 99//1
f 100//2 101//2 102//2
f 103//1 104//1 105//1
f 106//2 107//2 108//2
f 109//1 110//1 111//1
f 112//2 113//2 114//2
f 115//1 116//1 117//1
f 118//2 119//2 120//2
f 121//1 122//1 123//1
f 124//2 125//2 126//2
f 127//1 128//1 129//1
f 130//2 131//2 132//2
f 133//1 134//1 135//1
f 136//2 137//2 138//2
f 139//1 140//1 141//1
f 142//2 143//2 144//2
f 145//1 146//1 147//1
f 148//2 149//2 150//2
f 151//1 152//1 153//1
f 154//2 155//2 156//2
