# SSTK version 0.8.0
# 83
mtllib original-83.mtl
o part_1_2/part_1/mesh1/mesh1-geometry/material_5/component_7#mesh1-geometry
v 0.007776 -0.664804 -0.040674
v 0.000731 -0.663863 -0.040674
v 0.014824 -0.663888 -0.040674
v 0.014824 -0.663888 -0.040674
v 0.000731 -0.663863 -0.040674
v 0.021395 -0.661180 -0.040674
v 0.000731 -0.663863 -0.040674
v -0.005831 -0.661132 -0.040674
v 0.021395 -0.661180 -0.040674
v 0.031426 -0.624005 -0.040674
v 0.012532 -0.620128 -0.040674
v 0.027110 -0.618359 -0.040674
v 0.034135 -0.630576 -0.040674
v 0.020625 -0.624820 -0.040674
v 0.031426 -0.624005 -0.040674
v -0.015731 -0.623922 -0.040674
v -0.011395 -0.618291 -0.040674
v 0.003177 -0.620112 -0.040674
v -0.018463 -0.630484 -0.040674
v -0.015731 -0.623922 -0.040674
v -0.004933 -0.624775 -0.040674
v 0.021395 -0.661180 -0.040674
v -0.005831 -0.661132 -0.040674
v 0.027042 -0.656863 -0.040674
v -0.005831 -0.661132 -0.040674
v -0.011462 -0.656795 -0.040674
v 0.027042 -0.656863 -0.040674
v -0.005748 -0.613974 -0.040674
v 0.000823 -0.611266 -0.040674
v 0.014917 -0.611291 -0.040674
v 0.007871 -0.610350 -0.040674
v 0.014917 -0.611291 -0.040674
v 0.000823 -0.611266 -0.040674
v 0.027110 -0.618359 -0.040674
v -0.011395 -0.618291 -0.040674
v 0.021478 -0.614022 -0.040674
v 0.007855 -0.619504 -0.040674
v 0.027110 -0.618359 -0.040674
v 0.012532 -0.620128 -0.040674
v 0.016887 -0.621941 -0.040674
v 0.012532 -0.620128 -0.040674
v 0.031426 -0.624005 -0.040674
v 0.020625 -0.624820 -0.040674
v 0.016887 -0.621941 -0.040674
v 0.031426 -0.624005 -0.040674
v 0.023491 -0.628568 -0.040674
v 0.020625 -0.624820 -0.040674
v 0.034135 -0.630576 -0.040674
v 0.035050 -0.637625 -0.040674
v 0.025289 -0.632930 -0.040674
v 0.034135 -0.630576 -0.040674
v -0.011395 -0.618291 -0.040674
v -0.005748 -0.613974 -0.040674
v 0.021478 -0.614022 -0.040674
v 0.003177 -0.620112 -0.040674
v -0.011395 -0.618291 -0.040674
v 0.007855 -0.619504 -0.040674
v -0.001185 -0.621910 -0.040674
v -0.015731 -0.623922 -0.040674
v 0.003177 -0.620112 -0.040674
v -0.019403 -0.637529 -0.040674
v -0.018463 -0.630484 -0.040674
v -0.009625 -0.632869 -0.040674
v -0.004933 -0.624775 -0.040674
v -0.015731 -0.623922 -0.040674
v -0.001185 -0.621910 -0.040674
v -0.007812 -0.628513 -0.040674
v -0.018463 -0.630484 -0.040674
v -0.004933 -0.624775 -0.040674
v 0.027042 -0.656863 -0.040674
v 0.016832 -0.653244 -0.040674
v 0.031379 -0.651232 -0.040674
v -0.011462 -0.656795 -0.040674
v -0.015779 -0.651149 -0.040674
v -0.001240 -0.653213 -0.040674
v -0.011462 -0.656795 -0.040674
v 0.007792 -0.655650 -0.040674
v 0.027042 -0.656863 -0.040674
v 0.021478 -0.614022 -0.040674
v -0.005748 -0.613974 -0.040674
v 0.014917 -0.611291 -0.040674
v 0.007855 -0.619504 -0.040674
v -0.011395 -0.618291 -0.040674
v 0.027110 -0.618359 -0.040674
v 0.025289 -0.632930 -0.040674
v 0.023491 -0.628568 -0.040674
v 0.034135 -0.630576 -0.040674
v 0.025896 -0.637609 -0.040674
v 0.025289 -0.632930 -0.040674
v 0.035050 -0.637625 -0.040674
v 0.034110 -0.644670 -0.040674
v 0.025272 -0.642285 -0.040674
v 0.035050 -0.637625 -0.040674
v -0.018488 -0.644578 -0.040674
v -0.019403 -0.637529 -0.040674
v -0.010249 -0.637545 -0.040674
v -0.009625 -0.632869 -0.040674
v -0.018463 -0.630484 -0.040674
v -0.007812 -0.628513 -0.040674
v -0.010249 -0.637545 -0.040674
v -0.019403 -0.637529 -0.040674
v -0.009625 -0.632869 -0.040674
v 0.031379 -0.651232 -0.040674
v 0.023459 -0.646641 -0.040674
v 0.034110 -0.644670 -0.040674
v 0.016832 -0.653244 -0.040674
v 0.020580 -0.650379 -0.040674
v 0.031379 -0.651232 -0.040674
v 0.012470 -0.655042 -0.040674
v 0.016832 -0.653244 -0.040674
v 0.027042 -0.656863 -0.040674
v -0.015779 -0.651149 -0.040674
v -0.018488 -0.644578 -0.040674
v -0.007844 -0.646586 -0.040674
v -0.001240 -0.653213 -0.040674
v -0.015779 -0.651149 -0.040674
v -0.004978 -0.650334 -0.040674
v 0.003115 -0.655026 -0.040674
v -0.011462 -0.656795 -0.040674
v -0.001240 -0.653213 -0.040674
v 0.007792 -0.655650 -0.040674
v 0.012470 -0.655042 -0.040674
v 0.027042 -0.656863 -0.040674
v 0.007792 -0.655650 -0.040674
v -0.011462 -0.656795 -0.040674
v 0.003115 -0.655026 -0.040674
v 0.025272 -0.642285 -0.040674
v 0.025896 -0.637609 -0.040674
v 0.035050 -0.637625 -0.040674
v 0.023459 -0.646641 -0.040674
v 0.025272 -0.642285 -0.040674
v 0.034110 -0.644670 -0.040674
v -0.009642 -0.642224 -0.040674
v -0.018488 -0.644578 -0.040674
v -0.010249 -0.637545 -0.040674
v 0.020580 -0.650379 -0.040674
v 0.023459 -0.646641 -0.040674
v 0.031379 -0.651232 -0.040674
v -0.007844 -0.646586 -0.040674
v -0.018488 -0.644578 -0.040674
v -0.009642 -0.642224 -0.040674
v -0.004978 -0.650334 -0.040674
v -0.015779 -0.651149 -0.040674
v -0.007844 -0.646586 -0.040674
v 0.014824 -0.663888 -0.040674
v 0.000731 -0.663863 -0.040674
v 0.007776 -0.664804 -0.040674
v 0.021395 -0.661180 -0.040674
v 0.000731 -0.663863 -0.040674
v 0.014824 -0.663888 -0.040674
v 0.021395 -0.661180 -0.040674
v -0.005831 -0.661132 -0.040674
v 0.000731 -0.663863 -0.040674
v 0.027110 -0.618359 -0.040674
v 0.012532 -0.620128 -0.040674
v 0.031426 -0.624005 -0.040674
v 0.031426 -0.624005 -0.040674
v 0.020625 -0.624820 -0.040674
v 0.034135 -0.630576 -0.040674
v 0.003177 -0.620112 -0.040674
v -0.011395 -0.618291 -0.040674
v -0.015731 -0.623922 -0.040674
v -0.004933 -0.624775 -0.040674
v -0.015731 -0.623922 -0.040674
v -0.018463 -0.630484 -0.040674
v 0.027042 -0.656863 -0.040674
v -0.005831 -0.661132 -0.040674
v 0.021395 -0.661180 -0.040674
v 0.027042 -0.656863 -0.040674
v -0.011462 -0.656795 -0.040674
v -0.005831 -0.661132 -0.040674
v 0.014917 -0.611291 -0.040674
v 0.000823 -0.611266 -0.040674
v -0.005748 -0.613974 -0.040674
v 0.000823 -0.611266 -0.040674
v 0.014917 -0.611291 -0.040674
v 0.007871 -0.610350 -0.040674
v 0.021478 -0.614022 -0.040674
v -0.011395 -0.618291 -0.040674
v 0.027110 -0.618359 -0.040674
v 0.012532 -0.620128 -0.040674
v 0.027110 -0.618359 -0.040674
v 0.007855 -0.619504 -0.040674
v 0.031426 -0.624005 -0.040674
v 0.012532 -0.620128 -0.040674
v 0.016887 -0.621941 -0.040674
v 0.031426 -0.624005 -0.040674
v 0.016887 -0.621941 -0.040674
v 0.020625 -0.624820 -0.040674
v 0.034135 -0.630576 -0.040674
v 0.020625 -0.624820 -0.040674
v 0.023491 -0.628568 -0.040674
v 0.034135 -0.630576 -0.040674
v 0.025289 -0.632930 -0.040674
v 0.035050 -0.637625 -0.040674
v 0.021478 -0.614022 -0.040674
v -0.005748 -0.613974 -0.040674
v -0.011395 -0.618291 -0.040674
v 0.007855 -0.619504 -0.040674
v -0.011395 -0.618291 -0.040674
v 0.003177 -0.620112 -0.040674
v 0.003177 -0.620112 -0.040674
v -0.015731 -0.623922 -0.040674
v -0.001185 -0.621910 -0.040674
v -0.009625 -0.632869 -0.040674
v -0.018463 -0.630484 -0.040674
v -0.019403 -0.637529 -0.040674
v -0.001185 -0.621910 -0.040674
v -0.015731 -0.623922 -0.040674
v -0.004933 -0.624775 -0.040674
v -0.004933 -0.624775 -0.040674
v -0.018463 -0.630484 -0.040674
v -0.007812 -0.628513 -0.040674
v 0.031379 -0.651232 -0.040674
v 0.016832 -0.653244 -0.040674
v 0.027042 -0.656863 -0.040674
v -0.001240 -0.653213 -0.040674
v -0.015779 -0.651149 -0.040674
v -0.011462 -0.656795 -0.040674
v 0.027042 -0.656863 -0.040674
v 0.007792 -0.655650 -0.040674
v -0.011462 -0.656795 -0.040674
v 0.014917 -0.611291 -0.040674
v -0.005748 -0.613974 -0.040674
v 0.021478 -0.614022 -0.040674
v 0.027110 -0.618359 -0.040674
v -0.011395 -0.618291 -0.040674
v 0.007855 -0.619504 -0.040674
v 0.034135 -0.630576 -0.040674
v 0.023491 -0.628568 -0.040674
v 0.025289 -0.632930 -0.040674
v 0.035050 -0.637625 -0.040674
v 0.025289 -0.632930 -0.040674
v 0.025896 -0.637609 -0.040674
v 0.035050 -0.637625 -0.040674
v 0.025272 -0.642285 -0.040674
v 0.034110 -0.644670 -0.040674
v -0.010249 -0.637545 -0.040674
v -0.019403 -0.637529 -0.040674
v -0.018488 -0.644578 -0.040674
v -0.007812 -0.628513 -0.040674
v -0.018463 -0.630484 -0.040674
v -0.009625 -0.632869 -0.040674
v -0.009625 -0.632869 -0.040674
v -0.019403 -0.637529 -0.040674
v -0.010249 -0.637545 -0.040674
v 0.034110 -0.644670 -0.040674
v 0.023459 -0.646641 -0.040674
v 0.031379 -0.651232 -0.040674
v 0.031379 -0.651232 -0.040674
v 0.020580 -0.650379 -0.040674
v 0.016832 -0.653244 -0.040674
v 0.027042 -0.656863 -0.040674
v 0.016832 -0.653244 -0.040674
v 0.012470 -0.655042 -0.040674
v -0.007844 -0.646586 -0.040674
v -0.018488 -0.644578 -0.040674
v -0.015779 -0.651149 -0.040674
v -0.004978 -0.650334 -0.040674
v -0.015779 -0.651149 -0.040674
v -0.001240 -0.653213 -0.040674
v -0.001240 -0.653213 -0.040674
v -0.011462 -0.656795 -0.040674
v 0.003115 -0.655026 -0.040674
v 0.027042 -0.656863 -0.040674
v 0.012470 -0.655042 -0.040674
v 0.007792 -0.655650 -0.040674
v 0.003115 -0.655026 -0.040674
v -0.011462 -0.656795 -0.040674
v 0.007792 -0.655650 -0.040674
v 0.035050 -0.637625 -0.040674
v 0.025896 -0.637609 -0.040674
v 0.025272 -0.642285 -0.040674
v 0.034110 -0.644670 -0.040674
v 0.025272 -0.642285 -0.040674
v 0.023459 -0.646641 -0.040674
v -0.010249 -0.637545 -0.040674
v -0.018488 -0.644578 -0.040674
v -0.009642 -0.642224 -0.040674
v 0.031379 -0.651232 -0.040674
v 0.023459 -0.646641 -0.040674
v 0.020580 -0.650379 -0.040674
v -0.009642 -0.642224 -0.040674
v -0.018488 -0.644578 -0.040674
v -0.007844 -0.646586 -0.040674
v -0.007844 -0.646586 -0.040674
v -0.015779 -0.651149 -0.040674
v -0.004978 -0.650334 -0.040674
vn 0 0 -1
vn 0 0 1
usemtl material_0_0
f 1//1 2//1 3//1
f 4//1 5//1 6//1
f 7//1 8//1 9//1
f 10//1 11//1 12//1
f 13//1 14//1 15//1
f 16//1 17//1 18//1
f 19//1 20//1 21//1
f 22//1 23//1 24//1
f 25//1 26//1 27//1
f 28//1 29//1 30//1
f 31//1 32//1 33//1
f 34//1 35//1 36//1
f 37//1 38//1 39//1
f 40//1 41//1 42//1
f 43//1 44//1 45//1
f 46//1 47//1 48//1
f 49//1 50//1 51//1
f 52//1 53//1 54//1
f 55//1 56//1 57//1
f 58//1 59//1 60//1
f 61//1 62//1 63//1
f 64//1 65//1 66//1
f 67//1 68//1 69//1
f 70//1 71//1 72//1
f 73//1 74//1 75//1
f 76//1 77//1 78//1
f 79//1 80//1 81//1
f 82//1 83//1 84//1
f 85//1 86//1 87//1
f 88//1 89//1 90//1
f 91//1 92//1 93//1
f 94//1 95//1 96//1
f 97//1 98//1 99//1
f 100//1 101//1 102//1
f 103//1 104//1 105//1
f 106//1 107//1 108//1
f 109//1 110//1 111//1
f 112//1 113//1 114//1
f 115//1 116//1 117//1
f 118//1 119//1 120//1
f 121//1 122//1 123//1
f 124//1 125//1 126//1
f 127//1 128//1 129//1
f 130//1 131//1 132//1
f 133//1 134//1 135//1
f 136//1 137//1 138//1
f 139//1 140//1 141//1
f 142//1 143//1 144//1
usemtl material_1_0
f 145//2 146//2 147//2
f 148//2 149//2 150//2
f 151//2 152//2 153//2
f 154//2 155//2 156//2
f 157//2 158//2 159//2
f 160//2 161//2 162//2
f 163//2 164//2 165//2
f 166//2 167//2 168//2
f 169//2 170//2 171//2
f 172//2 173//2 174//2
f 175//2 176//2 177//2
f 178//2 179//2 180//2
f 181//2 182//2 183//2
f 184//2 185//2 186//2
f 187//2 188//2 189//2
f 190//2 191//2 192//2
f 193//2 194//2 195//2
f 196//2 197//2 198//2
f 199//2 200//2 201//2
f 202//2 203//2 204//2
f 205//2 206//2 207//2
f 208//2 209//2 210//2
f 211//2 212//2 213//2
f 214//2 215//2 216//2
f 217//2 218//2 219//2
f 220//2 221//2 222//2
f 223//2 224//2 225//2
f 226//2 227//2 228//2
f 229//2 230//2 231//2
f 232//2 233//2 234//2
f 235//2 236//2 237//2
f 238//2 239//2 240//2
f 241//2 242//2 243//2
f 244//2 245//2 246//2
f 247//2 248//2 249//2
f 250//2 251//2 252//2
f 253//2 254//2 255//2
f 256//2 257//2 258//2
f 259//2 260//2 261//2
f 262//2 263//2 264//2
f 265//2 266//2 267//2
f 268//2 269//2 270//2
f 271//2 272//2 273//2
f 274//2 275//2 276//2
f 277//2 278//2 279//2
f 280//2 281//2 282//2
f 283//2 284//2 285//2
f 286//2 287//2 288//2
