# SSTK version 0.8.0
# 3
mtllib original-3.mtl
o part_1_2/part_1/mesh1/mesh1-geometry/material_0/component_0#mesh1-geometry
v -0.028229 -0.786944 -0.031599
v 0.033944 -0.784235 -0.031599
v -0.018119 -0.784235 -0.031599
v 0.033944 -0.784235 -0.031599
v -0.028229 -0.786944 -0.031599
v 0.044055 -0.786944 -0.031599
v 0.044055 -0.786944 -0.031599
v -0.028229 -0.786944 -0.031599
v -0.034756 -0.793471 -0.031599
v 0.044055 -0.786944 -0.031599
v -0.034756 -0.793471 -0.031599
v 0.050581 -0.793471 -0.031599
v 0.050581 -0.793471 -0.031599
v -0.034756 -0.793471 -0.031599
v -0.037145 -0.802386 -0.031599
v 0.050581 -0.793471 -0.031599
v -0.037145 -0.802386 -0.031599
v 0.052970 -0.802386 -0.031599
v 0.052970 -0.802386 -0.031599
v -0.037145 -0.802386 -0.031599
v -0.034756 -0.811302 -0.031599
v 0.052970 -0.802386 -0.031599
v -0.034756 -0.811302 -0.031599
v 0.050581 -0.811302 -0.031599
v 0.050581 -0.811302 -0.031599
v -0.034756 -0.811302 -0.031599
v -0.028229 -0.817828 -0.031599
v 0.050581 -0.811302 -0.031599
v -0.028229 -0.817828 -0.031599
v 0.044055 -0.817828 -0.031599
v 0.044055 -0.817828 -0.031599
v -0.028229 -0.817828 -0.031599
v -0.018119 -0.820537 -0.031599
v 0.044055 -0.817828 -0.031599
v -0.018119 -0.820537 -0.031599
v 0.033944 -0.820537 -0.031599
v -0.018119 -0.784235 -0.031599
v 0.033944 -0.784235 -0.031599
v -0.028229 -0.786944 -0.031599
v 0.044055 -0.786944 -0.031599
v -0.028229 -0.786944 -0.031599
v 0.033944 -0.784235 -0.031599
v -0.034756 -0.793471 -0.031599
v -0.028229 -0.786944 -0.031599
v 0.044055 -0.786944 -0.031599
v 0.050581 -0.793471 -0.031599
v -0.034756 -0.793471 -0.031599
v 0.044055 -0.786944 -0.031599
v -0.037145 -0.802386 -0.031599
v -0.034756 -0.793471 -0.031599
v 0.050581 -0.793471 -0.031599
v 0.052970 -0.802386 -0.031599
v -0.037145 -0.802386 -0.031599
v 0.050581 -0.793471 -0.031599
v -0.034756 -0.811302 -0.031599
v -0.037145 -0.802386 -0.031599
v 0.052970 -0.802386 -0.031599
v 0.050581 -0.811302 -0.031599
v -0.034756 -0.811302 -0.031599
v 0.052970 -0.802386 -0.031599
v -0.028229 -0.817828 -0.031599
v -0.034756 -0.811302 -0.031599
v 0.050581 -0.811302 -0.031599
v 0.044055 -0.817828 -0.031599
v -0.028229 -0.817828 -0.031599
v 0.050581 -0.811302 -0.031599
v -0.018119 -0.820537 -0.031599
v -0.028229 -0.817828 -0.031599
v 0.044055 -0.817828 -0.031599
v 0.033944 -0.820537 -0.031599
v -0.018119 -0.820537 -0.031599
v 0.044055 -0.817828 -0.031599
vn 0 0 1
vn 0 0 -1
usemtl material_0_0
f 1//1 2//1 3//1
f 4//1 5//1 6//1
f 7//1 8//1 9//1
f 10//1 11//1 12//1
f 13//1 14//1 15//1
f 16//1 17//1 18//1
f 19//1 20//1 21//1
f 22//1 23//1 24//1
f 25//1 26//1 27//1
f 28//1 29//1 30//1
f 31//1 32//1 33//1
f 34//1 35//1 36//1
usemtl material_1_0
f 37//2 38//2 39//2
f 40//2 41//2 42//2
f 43//2 44//2 45//2
f 46//2 47//2 48//2
f 49//2 50//2 51//2
f 52//2 53//2 54//2
f 55//2 56//2 57//2
f 58//2 59//2 60//2
f 61//2 62//2 63//2
f 64//2 65//2 66//2
f 67//2 68//2 69//2
f 70//2 71//2 72//2
