# SSTK version 0.8.0
# 9
mtllib original-9.mtl
o part_1_2/part_1/mesh1/mesh1-geometry/material_0/component_6#mesh1-geometry
v 0.389085 -0.567391 -0.040674
v -0.373259 -0.576467 -0.040674
v 0.389085 -0.576467 -0.040674
v -0.373259 -0.576467 -0.040674
v 0.389085 -0.567391 -0.040674
v -0.373259 -0.567391 -0.040674
v 0.389085 -0.576467 -0.040674
v -0.373259 -0.576467 -0.040674
v 0.389085 -0.567391 -0.040674
v -0.373259 -0.567391 -0.040674
v 0.389085 -0.567391 -0.040674
v -0.373259 -0.576467 -0.040674
vn 0 0 1
vn 0 0 -1
usemtl material_0_0
f 1//1 2//1 3//1
f 4//1 5//1 6//1
usemtl material_1_0
f 7//2 8//2 9//2
f 10//2 11//2 12//2
