# SSTK version 0.8.0
# 61
mtllib original-61.mtl
o part_1_2/part_1/mesh1/mesh1-geometry/material_3/component_9#mesh1-geometry
v 0.196199 0.095850 -0.040674
v 0.215641 0.095850 -0.040674
v 0.193010 0.094916 -0.040674
v 0.218383 0.095159 -0.040674
v 0.193010 0.094916 -0.040674
v 0.215641 0.095850 -0.040674
v 0.220541 0.093631 -0.040674
v 0.193010 0.094916 -0.040674
v 0.218383 0.095159 -0.040674
v 0.222115 0.091266 -0.040674
v 0.190269 0.092230 -0.040674
v 0.220541 0.093631 -0.040674
v 0.223107 0.088065 -0.040674
v 0.189350 0.090332 -0.040674
v 0.222115 0.091266 -0.040674
v 0.191489 0.093758 -0.040674
v 0.193010 0.094916 -0.040674
v 0.220541 0.093631 -0.040674
v 0.190269 0.092230 -0.040674
v 0.191489 0.093758 -0.040674
v 0.220541 0.093631 -0.040674
v 0.189350 0.090332 -0.040674
v 0.190269 0.092230 -0.040674
v 0.222115 0.091266 -0.040674
v 0.188733 0.088065 -0.040674
v 0.189350 0.090332 -0.040674
v 0.223107 0.088065 -0.040674
v 0.193010 0.094916 -0.040674
v 0.215641 0.095850 -0.040674
v 0.196199 0.095850 -0.040674
v 0.215641 0.095850 -0.040674
v 0.193010 0.094916 -0.040674
v 0.218383 0.095159 -0.040674
v 0.218383 0.095159 -0.040674
v 0.193010 0.094916 -0.040674
v 0.220541 0.093631 -0.040674
v 0.220541 0.093631 -0.040674
v 0.190269 0.092230 -0.040674
v 0.222115 0.091266 -0.040674
v 0.222115 0.091266 -0.040674
v 0.189350 0.090332 -0.040674
v 0.223107 0.088065 -0.040674
v 0.220541 0.093631 -0.040674
v 0.193010 0.094916 -0.040674
v 0.191489 0.093758 -0.040674
v 0.220541 0.093631 -0.040674
v 0.191489 0.093758 -0.040674
v 0.190269 0.092230 -0.040674
v 0.222115 0.091266 -0.040674
v 0.190269 0.092230 -0.040674
v 0.189350 0.090332 -0.040674
v 0.223107 0.088065 -0.040674
v 0.189350 0.090332 -0.040674
v 0.188733 0.088065 -0.040674
vn 0 0 -1
vn 0 0 1
usemtl material_0_0
f 1//1 2//1 3//1
f 4//1 5//1 6//1
f 7//1 8//1 9//1
f 10//1 11//1 12//1
f 13//1 14//1 15//1
f 16//1 17//1 18//1
f 19//1 20//1 21//1
f 22//1 23//1 24//1
f 25//1 26//1 27//1
usemtl material_1_0
f 28//2 29//2 30//2
f 31//2 32//2 33//2
f 34//2 35//2 36//2
f 37//2 38//2 39//2
f 40//2 41//2 42//2
f 43//2 44//2 45//2
f 46//2 47//2 48//2
f 49//2 50//2 51//2
f 52//2 53//2 54//2
