# SSTK version 0.8.0
# 78
mtllib original-78.mtl
o part_1_2/part_1/mesh1/mesh1-geometry/material_5/component_2#mesh1-geometry
v 0.032878 0.119165 -0.040674
v 0.044535 0.119165 -0.040674
v 0.032878 0.084174 -0.040674
v 0.044535 0.068623 -0.040674
v 0.032878 0.084174 -0.040674
v 0.044535 0.119165 -0.040674
v 0.033242 0.079679 -0.040674
v 0.032878 0.084174 -0.040674
v 0.044535 0.068623 -0.040674
v 0.034335 0.075913 -0.040674
v 0.033242 0.079679 -0.040674
v 0.044535 0.068623 -0.040674
v 0.036156 0.072875 -0.040674
v 0.034335 0.075913 -0.040674
v 0.044535 0.068623 -0.040674
v 0.038706 0.070567 -0.040674
v 0.036156 0.072875 -0.040674
v 0.044535 0.068623 -0.040674
v 0.041368 0.069264 -0.040674
v 0.038706 0.070567 -0.040674
v 0.044535 0.068623 -0.040674
v 0.032878 0.084174 -0.040674
v 0.044535 0.119165 -0.040674
v 0.032878 0.119165 -0.040674
v 0.044535 0.119165 -0.040674
v 0.032878 0.084174 -0.040674
v 0.044535 0.068623 -0.040674
v 0.044535 0.068623 -0.040674
v 0.032878 0.084174 -0.040674
v 0.033242 0.079679 -0.040674
v 0.044535 0.068623 -0.040674
v 0.033242 0.079679 -0.040674
v 0.034335 0.075913 -0.040674
v 0.044535 0.068623 -0.040674
v 0.034335 0.075913 -0.040674
v 0.036156 0.072875 -0.040674
v 0.044535 0.068623 -0.040674
v 0.036156 0.072875 -0.040674
v 0.038706 0.070567 -0.040674
v 0.044535 0.068623 -0.040674
v 0.038706 0.070567 -0.040674
v 0.041368 0.069264 -0.040674
vn 0 0 -1
vn 0 0 1
usemtl material_0_0
f 1//1 2//1 3//1
f 4//1 5//1 6//1
f 7//1 8//1 9//1
f 10//1 11//1 12//1
f 13//1 14//1 15//1
f 16//1 17//1 18//1
f 19//1 20//1 21//1
usemtl material_1_0
f 22//2 23//2 24//2
f 25//2 26//2 27//2
f 28//2 29//2 30//2
f 31//2 32//2 33//2
f 34//2 35//2 36//2
f 37//2 38//2 39//2
f 40//2 41//2 42//2
