# SSTK version 0.8.0
# 82
mtllib original-82.mtl
o part_1_2/part_1/mesh1/mesh1-geometry/material_5/component_6#mesh1-geometry
v -0.312745 -0.615588 -0.040674
v -0.312745 -0.628294 -0.040674
v -0.343142 -0.637370 -0.040674
v -0.343142 -0.637370 -0.040674
v -0.312745 -0.646445 -0.040674
v -0.312745 -0.659151 -0.040674
v -0.343142 -0.637370 -0.040674
v -0.312745 -0.628294 -0.040674
v -0.258292 -0.646445 -0.040674
v -0.312745 -0.646445 -0.040674
v -0.343142 -0.637370 -0.040674
v -0.258292 -0.646445 -0.040674
v -0.258292 -0.628294 -0.040674
v -0.258292 -0.646445 -0.040674
v -0.312745 -0.628294 -0.040674
v -0.343142 -0.637370 -0.040674
v -0.312745 -0.628294 -0.040674
v -0.312745 -0.615588 -0.040674
v -0.312745 -0.659151 -0.040674
v -0.312745 -0.646445 -0.040674
v -0.343142 -0.637370 -0.040674
v -0.258292 -0.646445 -0.040674
v -0.312745 -0.628294 -0.040674
v -0.343142 -0.637370 -0.040674
v -0.258292 -0.646445 -0.040674
v -0.343142 -0.637370 -0.040674
v -0.312745 -0.646445 -0.040674
v -0.312745 -0.628294 -0.040674
v -0.258292 -0.646445 -0.040674
v -0.258292 -0.628294 -0.040674
vn 0 0 -1
vn 0 0 1
usemtl material_0_0
f 1//1 2//1 3//1
f 4//1 5//1 6//1
f 7//1 8//1 9//1
f 10//1 11//1 12//1
f 13//1 14//1 15//1
usemtl material_1_0
f 16//2 17//2 18//2
f 19//2 20//2 21//2
f 22//2 23//2 24//2
f 25//2 26//2 27//2
f 28//2 29//2 30//2
