# SSTK version 0.8.0
# 30
mtllib original-30.mtl
o #ID162
v 0.112657 -0.042264 0.912298
v 0.112661 -0.041763 0.863992
v 0.112657 -0.042264 0.863992
v 0.112661 -0.041763 0.912298
v 0.112657 -0.042264 0.912298
v 0.053962 -0.041231 0.913061
v 0.112661 -0.041763 0.912298
v 0.053957 -0.041733 0.913061
v 0.103502 -0.041685 0.863992
v 0.112657 -0.042264 0.863992
v 0.112661 -0.041763 0.863992
v 0.103498 -0.042187 0.863992
v 0.053332 -0.041231 0.864645
v 0.053957 -0.041733 0.913061
v 0.053328 -0.041733 0.864645
v 0.053962 -0.041231 0.913061
v 0.053332 -0.041231 0.864645
v 0.103498 -0.042187 0.863992
v 0.103502 -0.041685 0.863992
v 0.053328 -0.041733 0.864645
vn -0.99995932123488 0.009019749191541084 0
vn -0.013009449647711765 0.00003396896908135542 -0.9999153729521179
vn 7.031234171933705e-7 0.00008337848970993485 0.9999999965237665
vn 0.9998746912780341 -0.00902007092131734 -0.013009229886139341
vn 0.013009449647711765 -0.00003396896908135542 0.9999153729521179
usemtl material_0_0
f 1//1 2//1 3//1
f 2//1 1//1 4//1
f 5//2 6//2 7//2
f 6//2 5//2 8//2
f 9//3 10//3 11//3
f 10//3 9//3 12//3
f 13//4 14//4 15//4
f 14//4 13//4 16//4
f 17//5 18//5 19//5
f 18//5 17//5 20//5
