# SSTK version 0.8.0
# 12
mtllib original-12.mtl
o #ID48
v -0.044024 0.041166 0.910367
v -0.102211 0.042885 0.911124
v -0.044013 0.042358 0.910366
v -0.102222 0.041693 0.911124
v -0.044024 0.041166 0.910367
v -0.044679 0.042358 0.859190
v -0.044690 0.041166 0.859191
v -0.044013 0.042358 0.910366
v -0.102877 0.042885 0.859948
v -0.102222 0.041693 0.911124
v -0.102888 0.041693 0.859948
v -0.102211 0.042885 0.911124
v -0.102877 0.042885 0.859948
v -0.044690 0.041166 0.859191
v -0.044679 0.042358 0.859190
v -0.102888 0.041693 0.859948
vn -0.013009759602741233 0 -0.9999153694963783
vn -0.9998743791045555 0.009054623810775791 0.013009219727752042
vn 0.9998743791045555 -0.009054623810775791 -0.013009219727752042
vn 0.013009759602741233 0 0.9999153694963783
usemtl material_0_0
f 1//1 2//1 3//1
f 2//1 1//1 4//1
f 5//2 6//2 7//2
f 6//2 5//2 8//2
f 9//3 10//3 11//3
f 10//3 9//3 12//3
f 13//4 14//4 15//4
f 14//4 13//4 16//4
