# SSTK version 0.8.0
# 23
mtllib original-23.mtl
o #ID118
v 0.050707 -0.002400 0.970680
v 0.025122 -0.001961 0.979075
v 0.050707 -0.002400 0.979075
v 0.032784 -0.002092 0.970963
v 0.025122 -0.001961 0.971013
v 0.043045 -0.002269 0.970730
v 0.040607 -0.002269 0.783412
v 0.048169 -0.002400 0.775649
v 0.022585 -0.001961 0.775982
v 0.030346 -0.002092 0.783545
v 0.022602 -0.000957 0.775982
v 0.048169 -0.002400 0.775649
v 0.048186 -0.001397 0.775649
v 0.022585 -0.001961 0.775982
v 0.022585 -0.001961 0.775982
v 0.025140 -0.000957 0.971013
v 0.025122 -0.001961 0.971013
v 0.022602 -0.000957 0.775982
v 0.025140 -0.000957 0.971013
v 0.025122 -0.001961 0.979075
v 0.025122 -0.001961 0.971013
v 0.025140 -0.000957 0.979075
v 0.050707 -0.002400 0.979075
v 0.025140 -0.000957 0.979075
v 0.050724 -0.001397 0.979075
v 0.025122 -0.001961 0.979075
v 0.050707 -0.002400 0.979075
v 0.050724 -0.001397 0.970680
v 0.050707 -0.002400 0.970680
v 0.050724 -0.001397 0.979075
v 0.050724 -0.001397 0.970680
v 0.048169 -0.002400 0.775649
v 0.050707 -0.002400 0.970680
v 0.048186 -0.001397 0.775649
vn 0.017170169276785698 0.9998525578858112 -0.00021857769078666752
vn 0.01300966961782555 -0.00000481988885877299 0.9999153706555389
vn 0.9997679396967214 -0.01717157068181319 -0.01300784051610814
vn 0.9998525815987171 -0.017170179684000083 0
vn -0.0000037531555299817974 -0.00021854549477913902 -0.99999997611189
vn -0.9998525815987171 0.017170179684000083 0
vn -0.9997679396967214 0.01717157068181319 0.01300784051610814
usemtl material_0_0
f 1//1 2//1 3//1
f 2//1 1//1 4//1
f 2//1 4//1 5//1
f 4//1 1//1 6//1
f 6//1 1//1 7//1
f 7//1 1//1 8//1
f 7//1 8//1 9//1
f 4//1 9//1 5//1
f 9//1 4//1 10//1
f 9//1 10//1 7//1
f 11//2 12//2 13//2
f 12//2 11//2 14//2
f 15//3 16//3 17//3
f 16//3 15//3 18//3
f 19//4 20//4 21//4
f 20//4 19//4 22//4
f 23//5 24//5 25//5
f 24//5 23//5 26//5
f 27//6 28//6 29//6
f 28//6 27//6 30//6
f 31//7 32//7 33//7
f 32//7 31//7 34//7
