# SSTK version 0.8.0
# 13
mtllib original-13.mtl
o #ID54
v 0.114094 0.040728 0.908849
v 0.113415 0.039536 0.857673
v 0.114081 0.039536 0.908849
v 0.113428 0.040728 0.857673
v 0.055231 0.041352 0.858430
v 0.113415 0.039536 0.857673
v 0.113428 0.040728 0.857673
v 0.055218 0.040160 0.858430
v 0.114081 0.039536 0.908849
v 0.055897 0.041352 0.909606
v 0.114094 0.040728 0.908849
v 0.055884 0.040160 0.909606
v 0.055231 0.041352 0.858430
v 0.055884 0.040160 0.909606
v 0.055218 0.040160 0.858430
v 0.055897 0.041352 0.909606
vn -0.999857906671257 0.010720640071530252 0.01300901008641841
vn 0.013009759602741233 0 0.9999153694963783
vn -0.013009759602741233 0 -0.9999153694963783
vn 0.999857906671257 -0.010720640071530252 -0.01300901008641841
usemtl material_0_0
f 1//1 2//1 3//1
f 2//1 1//1 4//1
f 5//2 6//2 7//2
f 6//2 5//2 8//2
f 9//3 10//3 11//3
f 10//3 9//3 12//3
f 13//4 14//4 15//4
f 14//4 13//4 16//4
