# SSTK version 0.8.0
# 2
mtllib original-2.mtl
o #ID204
v -0.143458 -0.085234 0.049895
v -0.130024 -0.085169 0.017463
v -0.130024 -0.085234 0.017463
v -0.143458 -0.085169 0.049895
v -0.108653 -0.085234 -0.010388
v -0.108653 -0.085169 -0.010388
v 0.021238 -0.085234 0.214591
v -0.048371 -0.085234 0.214591
v -0.013566 -0.085234 0.219173
v 0.053670 -0.085234 0.201157
v -0.080803 -0.085234 0.201157
v 0.081521 -0.085234 0.179787
v -0.108653 -0.085234 0.179787
v 0.102891 -0.085234 0.151937
v -0.130024 -0.085234 0.151937
v 0.116325 -0.085234 0.119504
v -0.143458 -0.085234 0.119504
v 0.120907 -0.085234 0.084700
v -0.148040 -0.085234 0.084700
v 0.116325 -0.085234 0.049895
v -0.143458 -0.085234 0.049895
v 0.102891 -0.085234 0.017463
v -0.130024 -0.085234 0.017463
v 0.081521 -0.085234 -0.010388
v -0.108653 -0.085234 -0.010388
v 0.053670 -0.085234 -0.031758
v -0.080803 -0.085234 -0.031758
v 0.021238 -0.085234 -0.045192
v -0.048371 -0.085234 -0.045192
v -0.013566 -0.085234 -0.049774
v -0.143458 -0.085234 0.049895
v -0.130024 -0.101576 0.017463
v -0.143458 -0.101576 0.049895
v -0.130024 -0.085234 0.017463
v -0.148040 -0.085169 0.084700
v -0.148040 -0.085234 0.084700
v -0.080803 -0.085234 -0.031758
v -0.080803 -0.085169 -0.031758
v -0.108653 -0.101576 -0.010388
v -0.108653 -0.085234 -0.010388
v 0.120907 -0.085234 0.084700
v 0.116325 -0.101576 0.119504
v 0.120907 -0.101576 0.084700
v 0.116325 -0.085234 0.119504
v 0.120907 -0.085169 0.084700
v 0.116325 -0.085234 0.119504
v 0.120907 -0.085234 0.084700
v 0.116325 -0.085169 0.119504
v 0.116325 -0.085169 0.049895
v 0.116325 -0.085234 0.049895
v 0.116325 -0.101576 0.049895
v 0.116325 -0.085234 0.049895
v 0.102891 -0.085234 0.017463
v 0.102891 -0.101576 0.017463
v 0.102891 -0.085169 0.017463
v 0.102891 -0.085234 0.017463
v 0.081521 -0.085234 -0.010388
v 0.081521 -0.101576 -0.010388
v 0.081521 -0.085234 -0.010388
v 0.081521 -0.085169 -0.010388
v 0.053670 -0.101576 -0.031758
v 0.053670 -0.085234 -0.031758
v 0.053670 -0.085169 -0.031758
v 0.053670 -0.085234 -0.031758
v 0.021238 -0.085234 -0.045192
v 0.021238 -0.085169 -0.045192
v 0.021238 -0.085234 -0.045192
v 0.021238 -0.101576 -0.045192
v -0.013566 -0.085234 -0.049774
v -0.013566 -0.101576 -0.049774
v -0.013566 -0.085234 -0.049774
v -0.013566 -0.085169 -0.049774
v -0.048371 -0.085234 -0.045192
v -0.048371 -0.085169 -0.045192
v -0.048371 -0.085234 -0.045192
v -0.048371 -0.101576 -0.045192
v -0.080803 -0.101576 -0.031758
v -0.080803 -0.085234 -0.031758
v -0.148040 -0.085234 0.084700
v -0.148040 -0.101576 0.084700
v -0.143458 -0.085234 0.119504
v -0.143458 -0.101576 0.119504
v -0.143458 -0.085169 0.119504
v -0.143458 -0.085234 0.119504
v -0.130024 -0.085234 0.151937
v -0.130024 -0.101576 0.151937
v -0.130024 -0.085234 0.151937
v -0.130024 -0.085169 0.151937
v -0.108653 -0.085234 0.179787
v -0.108653 -0.101576 0.179787
v -0.108653 -0.085169 0.179787
v -0.108653 -0.085234 0.179787
v -0.080803 -0.085234 0.201157
v -0.080803 -0.101576 0.201157
v -0.080803 -0.085234 0.201157
v -0.080803 -0.085169 0.201157
v -0.048371 -0.085234 0.214591
v -0.048371 -0.101576 0.214591
v -0.048371 -0.085234 0.214591
v -0.048371 -0.085169 0.214591
v -0.013566 -0.101576 0.219173
v -0.013566 -0.085234 0.219173
v -0.013566 -0.085169 0.219173
v -0.013566 -0.085234 0.219173
v 0.021238 -0.101576 0.214591
v 0.021238 -0.085234 0.214591
v 0.021238 -0.085169 0.214591
v 0.021238 -0.085234 0.214591
v 0.053670 -0.085169 0.201157
v 0.053670 -0.085234 0.201157
v 0.053670 -0.101576 0.201157
v 0.053670 -0.085234 0.201157
v 0.081521 -0.101576 0.179787
v 0.081521 -0.085234 0.179787
v 0.081521 -0.085169 0.179787
v 0.081521 -0.085234 0.179787
v 0.102891 -0.085234 0.151937
v 0.102891 -0.085169 0.151937
v 0.102891 -0.085234 0.151937
v 0.102891 -0.101576 0.151937
vn -0.9659258358035661 0 -0.25881900959392906
vn -0.8660254028381388 0 -0.5000000016390395
vn -0.7071067811862786 0 -0.7071067811868166
vn 0 1 0
vn -1 0 0
vn -0.5000000016383807 0 -0.8660254028385191
vn 1 0 0
vn 0.9659258358035661 0 0.25881900959392906
vn 0.965925835803763 0 -0.2588190095931942
vn 0.8660254028385191 0 -0.5000000016383807
vn 0.7071067811868166 0 -0.7071067811862786
vn 0.5000000016390395 0 -0.8660254028381388
vn 0.25881900959392906 0 -0.9659258358035661
vn 0 0 -1
vn -0.2588190095931942 0 -0.965925835803763
vn -0.965925835803763 0 0.2588190095931942
vn -0.8660254028385191 0 0.5000000016383807
vn -0.7071067811868166 0 0.7071067811862786
vn -0.5000000016390395 0 0.8660254028381388
vn -0.25881900959392906 0 0.9659258358035661
vn 0 0 1
vn 0.2588190095931942 0 0.965925835803763
vn 0.5000000016383807 0 0.8660254028385191
vn 0.7071067811862786 0 0.7071067811868166
vn 0.8660254028381388 0 0.5000000016390395
usemtl material_0_0
f 1//1 2//2 3//2
f 2//2 1//1 4//1
f 2//2 5//3 3//2
f 5//3 2//2 6//3
f 7//4 8//4 9//4
f 8//4 7//4 10//4
f 8//4 10//4 11//4
f 11//4 10//4 12//4
f 11//4 12//4 13//4
f 13//4 12//4 14//4
f 13//4 14//4 15//4
f 15//4 14//4 16//4
f 15//4 16//4 17//4
f 17//4 16//4 18//4
f 17//4 18//4 19//4
f 19//4 18//4 20//4
f 19//4 20//4 21//4
f 21//4 20//4 22//4
f 21//4 22//4 23//4
f 23//4 22//4 24//4
f 23//4 24//4 25//4
f 25//4 24//4 26//4
f 25//4 26//4 27//4
f 27//4 26//4 28//4
f 27//4 28//4 29//4
f 29//4 28//4 30//4
f 31//1 32//2 33//1
f 32//2 31//1 34//2
f 35//5 1//1 36//5
f 1//1 35//5 4//1
f 37//6 6//3 38//6
f 6//3 37//6 5//3
f 34//2 39//3 32//2
f 39//3 34//2 40//3
f 41//7 42//8 43//7
f 42//8 41//7 44//8
f 45//7 46//8 47//7
f 46//8 45//7 48//8
f 49//9 47//7 50//9
f 47//7 49//9 45//7
f 51//9 41//7 43//7
f 41//7 51//9 52//9
f 53//10 51//9 54//10
f 51//9 53//10 52//9
f 55//10 50//9 56//10
f 50//9 55//10 49//9
f 57//11 54//10 58//11
f 54//10 57//11 53//10
f 59//11 55//10 56//10
f 55//10 59//11 60//11
f 61//12 57//11 58//11
f 57//11 61//12 62//12
f 59//11 63//12 60//11
f 63//12 59//11 64//12
f 65//13 63//12 64//12
f 63//12 65//13 66//13
f 61//12 67//13 62//12
f 67//13 61//12 68//13
f 68//13 69//14 67//13
f 69//14 68//13 70//14
f 71//14 66//13 65//13
f 66//13 71//14 72//14
f 73//15 72//14 71//14
f 72//14 73//15 74//15
f 70//14 75//15 69//14
f 75//15 70//14 76//15
f 77//6 75//15 76//15
f 75//15 77//6 78//6
f 73//15 38//6 74//15
f 38//6 73//15 37//6
f 39//3 78//6 77//6
f 78//6 39//3 40//3
f 79//5 33//1 80//5
f 33//1 79//5 31//1
f 81//16 80//5 82//16
f 80//5 81//16 79//5
f 83//16 36//5 84//16
f 36//5 83//16 35//5
f 85//17 82//16 86//17
f 82//16 85//17 81//16
f 87//17 83//16 84//16
f 83//16 87//17 88//17
f 89//18 86//17 90//18
f 86//17 89//18 85//17
f 91//18 87//17 92//18
f 87//17 91//18 88//17
f 93//19 90//18 94//19
f 90//18 93//19 89//18
f 91//18 95//19 96//19
f 95//19 91//18 92//18
f 97//20 94//19 98//20
f 94//19 97//20 93//19
f 96//19 99//20 100//20
f 99//20 96//19 95//19
f 97//20 101//21 102//21
f 101//21 97//20 98//20
f 103//21 99//20 104//21
f 99//20 103//21 100//20
f 102//21 105//22 106//22
f 105//22 102//21 101//21
f 107//22 104//21 108//22
f 104//21 107//22 103//21
f 109//23 108//22 110//23
f 108//22 109//23 107//22
f 106//22 111//23 112//23
f 111//23 106//22 105//22
f 112//23 113//24 114//24
f 113//24 112//23 111//23
f 115//24 110//23 116//24
f 110//23 115//24 109//23
f 117//25 115//24 116//24
f 115//24 117//25 118//25
f 119//25 113//24 120//25
f 113//24 119//25 114//24
f 44//8 120//25 42//8
f 120//25 44//8 119//25
f 46//8 118//25 117//25
f 118//25 46//8 48//8
