# SSTK version 0.8.0
# 3
mtllib original-3.mtl
o #ID210
v -0.048371 -0.104301 0.214591
v 0.021238 -0.104301 0.214591
v -0.013566 -0.104301 0.219173
v 0.053670 -0.104301 0.201157
v -0.080803 -0.104301 0.201157
v 0.081521 -0.104301 0.179787
v -0.108653 -0.104301 0.179787
v 0.102891 -0.104301 0.151937
v -0.130024 -0.104301 0.151937
v 0.116325 -0.104301 0.119504
v -0.143458 -0.104301 0.119504
v 0.120907 -0.104301 0.084700
v -0.148040 -0.104301 0.084700
v 0.116325 -0.104301 0.049895
v -0.143458 -0.104301 0.049895
v 0.102891 -0.104301 0.017463
v -0.130024 -0.104301 0.017463
v 0.081521 -0.104301 -0.010388
v -0.108653 -0.104301 -0.010388
v 0.053670 -0.104301 -0.031758
v -0.080803 -0.104301 -0.031758
v 0.021238 -0.104301 -0.045192
v -0.048371 -0.104301 -0.045192
v -0.013566 -0.104301 -0.049774
v 0.120907 -0.101576 0.084700
v 0.116325 -0.104301 0.119504
v 0.120907 -0.104301 0.084700
v 0.116325 -0.101576 0.119504
v 0.102891 -0.101576 0.151937
v 0.102891 -0.104301 0.151937
v 0.081521 -0.101576 0.179787
v 0.081521 -0.104301 0.179787
v 0.053670 -0.104301 0.201157
v 0.053670 -0.101576 0.201157
v 0.021238 -0.104301 0.214591
v 0.021238 -0.101576 0.214591
v -0.013566 -0.104301 0.219173
v -0.013566 -0.101576 0.219173
v -0.048371 -0.104301 0.214591
v -0.048371 -0.101576 0.214591
v -0.080803 -0.101576 0.201157
v -0.080803 -0.104301 0.201157
v -0.108653 -0.101576 0.179787
v -0.108653 -0.104301 0.179787
v -0.130024 -0.104301 0.151937
v -0.130024 -0.101576 0.151937
v -0.143458 -0.101576 0.119504
v -0.143458 -0.104301 0.119504
v -0.148040 -0.104301 0.084700
v -0.148040 -0.101576 0.084700
v -0.143458 -0.104301 0.049895
v -0.143458 -0.101576 0.049895
v -0.130024 -0.101576 0.017463
v -0.130024 -0.104301 0.017463
v -0.108653 -0.104301 -0.010388
v -0.108653 -0.101576 -0.010388
v -0.080803 -0.104301 -0.031758
v -0.080803 -0.101576 -0.031758
v -0.048371 -0.104301 -0.045192
v -0.048371 -0.101576 -0.045192
v -0.013566 -0.101576 -0.049774
v -0.013566 -0.104301 -0.049774
v 0.021238 -0.101576 -0.045192
v 0.021238 -0.104301 -0.045192
v 0.053670 -0.101576 -0.031758
v 0.053670 -0.104301 -0.031758
v 0.081521 -0.104301 -0.010388
v 0.081521 -0.101576 -0.010388
v 0.102891 -0.101576 0.017463
v 0.102891 -0.104301 0.017463
v 0.116325 -0.104301 0.049895
v 0.116325 -0.101576 0.049895
vn 0 -1 0
vn 1 0 0
vn 0.9659258358035661 0 0.25881900959392906
vn 0.8660254028381388 0 0.5000000016390395
vn 0.7071067811862786 0 0.7071067811868166
vn 0.5000000016383807 0 0.8660254028385191
vn 0.2588190095931942 0 0.965925835803763
vn 0 0 1
vn -0.25881900959392906 0 0.9659258358035661
vn -0.5000000016390395 0 0.8660254028381388
vn -0.7071067811868166 0 0.7071067811862786
vn -0.8660254028385191 0 0.5000000016383807
vn -0.965925835803763 0 0.2588190095931942
vn -1 0 0
vn -0.9659258358035661 0 -0.25881900959392906
vn -0.8660254028381388 0 -0.5000000016390395
vn -0.7071067811862786 0 -0.7071067811868166
vn -0.5000000016383807 0 -0.8660254028385191
vn -0.2588190095931942 0 -0.965925835803763
vn 0 0 -1
vn 0.25881900959392906 0 -0.9659258358035661
vn 0.5000000016390395 0 -0.8660254028381388
vn 0.7071067811868166 0 -0.7071067811862786
vn 0.8660254028385191 0 -0.5000000016383807
vn 0.965925835803763 0 -0.2588190095931942
usemtl material_0_0
f 1//1 2//1 3//1
f 2//1 1//1 4//1
f 4//1 1//1 5//1
f 4//1 5//1 6//1
f 6//1 5//1 7//1
f 6//1 7//1 8//1
f 8//1 7//1 9//1
f 8//1 9//1 10//1
f 10//1 9//1 11//1
f 10//1 11//1 12//1
f 12//1 11//1 13//1
f 12//1 13//1 14//1
f 14//1 13//1 15//1
f 14//1 15//1 16//1
f 16//1 15//1 17//1
f 16//1 17//1 18//1
f 18//1 17//1 19//1
f 18//1 19//1 20//1
f 20//1 19//1 21//1
f 20//1 21//1 22//1
f 22//1 21//1 23//1
f 22//1 23//1 24//1
f 25//2 26//3 27//2
f 26//3 25//2 28//3
f 26//3 29//4 30//4
f 29//4 26//3 28//3
f 30//4 31//5 32//5
f 31//5 30//4 29//4
f 31//5 33//6 32//5
f 33//6 31//5 34//6
f 34//6 35//7 33//6
f 35//7 34//6 36//7
f 36//7 37//8 35//7
f 37//8 36//7 38//8
f 38//8 39//9 37//8
f 39//9 38//8 40//9
f 41//10 39//9 40//9
f 39//9 41//10 42//10
f 43//11 42//10 41//10
f 42//10 43//11 44//11
f 43//11 45//12 44//11
f 45//12 43//11 46//12
f 45//12 47//13 48//13
f 47//13 45//12 46//12
f 47//13 49//14 48//13
f 49//14 47//13 50//14
f 50//14 51//15 49//14
f 51//15 50//14 52//15
f 51//15 53//16 54//16
f 53//16 51//15 52//15
f 53//16 55//17 54//16
f 55//17 53//16 56//17
f 57//18 56//17 58//18
f 56//17 57//18 55//17
f 59//19 58//18 60//19
f 58//18 59//19 57//18
f 59//19 61//20 62//20
f 61//20 59//19 60//19
f 62//20 63//21 64//21
f 63//21 62//20 61//20
f 64//21 65//22 66//22
f 65//22 64//21 63//21
f 67//23 65//22 68//23
f 65//22 67//23 66//22
f 67//23 69//24 70//24
f 69//24 67//23 68//23
f 69//24 71//25 70//24
f 71//25 69//24 72//25
f 72//25 27//2 71//25
f 27//2 72//25 25//2
