# SSTK version 0.8.0
# 16
mtllib original-16.mtl
o #ID74
v -0.138816 -0.038600 0.778082
v -0.112923 -0.039045 0.777745
v -0.008444 -0.039991 0.776386
v 0.119240 -0.041121 0.999535
v -0.005526 -0.039991 1.000657
v -0.109999 -0.039045 1.002518
v 0.119233 -0.041121 0.999034
v -0.112923 -0.039045 0.777745
v -0.008444 -0.039991 0.776386
v -0.138816 -0.038600 0.778082
v -0.005526 -0.039991 1.000657
v -0.135898 -0.038600 1.002353
v -0.008444 -0.039991 0.776386
v -0.109999 -0.039045 1.002518
v -0.135898 -0.038600 1.002353
v -0.135892 -0.038600 1.002855
v -0.112923 -0.039045 0.777745
v -0.138816 -0.038600 0.778082
v 0.150159 -0.041652 0.999133
v 0.119233 -0.041121 0.999034
v 0.119240 -0.041121 0.999535
v 0.150152 -0.041652 0.998631
v 0.119233 -0.041121 0.999034
v -0.008444 -0.039991 0.776386
v -0.005526 -0.039991 1.000657
v 0.116315 -0.041121 0.774763
v 0.150152 -0.041652 0.998631
v 0.116315 -0.041121 0.774763
v 0.119233 -0.041121 0.999034
v 0.147235 -0.041652 0.774361
v -0.008444 -0.039991 0.776386
v 0.147235 -0.041652 0.774361
v 0.116315 -0.041121 0.774763
vn 0.013009759602741233 0 0.9999153694963783
vn 0.009053857054848026 0.9999590060577203 -0.00011779850070995382
vn -0.010666010073248206 -0.9999431068670465 0.00013877390094874206
vn 0.017170079285034487 0.9998525583659358 -0.0002233974906909301
usemtl material_0_0
f 1//1 2//1 3//1
f 4//2 5//2 6//2
f 5//2 4//2 7//2
f 5//2 8//2 6//2
f 8//2 5//2 9//2
f 10//3 11//3 12//3
f 11//3 10//3 13//3
f 14//4 15//4 16//4
f 15//4 14//4 17//4
f 15//4 17//4 18//4
f 19//4 20//4 21//4
f 20//4 19//4 22//4
f 23//2 24//2 25//2
f 24//2 23//2 26//2
f 27//4 28//4 29//4
f 28//4 27//4 30//4
f 31//1 32//1 33//1
