# SSTK version 0.8.0
# 22
mtllib original-22.mtl
o #ID112
v 0.126163 -0.003698 0.979360
v 0.120731 -0.003605 0.973927
v 0.100579 -0.003259 0.979360
v 0.126163 -0.003702 0.943329
v 0.106012 -0.003354 0.973927
v 0.120731 -0.003609 0.943364
v 0.118607 -0.003609 0.780167
v 0.123969 -0.003702 0.774663
v 0.098385 -0.003263 0.774996
v 0.100579 -0.003263 0.943662
v 0.106012 -0.003356 0.943626
v 0.103888 -0.003356 0.780358
v 0.098402 -0.002259 0.774996
v 0.123969 -0.003702 0.774663
v 0.123986 -0.002699 0.774663
v 0.098385 -0.003263 0.774996
v 0.098385 -0.003263 0.774996
v 0.100596 -0.002259 0.943661
v 0.100579 -0.003263 0.943662
v 0.098402 -0.002259 0.774996
v 0.100596 -0.002259 0.943661
v 0.100579 -0.003259 0.979360
v 0.100579 -0.003263 0.943662
v 0.100596 -0.002256 0.979360
v 0.126163 -0.003698 0.979360
v 0.100596 -0.002256 0.979360
v 0.126181 -0.002694 0.979360
v 0.100579 -0.003259 0.979360
v 0.126163 -0.003698 0.979360
v 0.126181 -0.002699 0.943328
v 0.126163 -0.003702 0.943329
v 0.126181 -0.002694 0.979360
v 0.126181 -0.002699 0.943328
v 0.123969 -0.003702 0.774663
v 0.126163 -0.003702 0.943329
v 0.123986 -0.002699 0.774663
vn 0.017153490792959226 0.9998528462204731 -0.00020894600965225822
vn 0.013009509643743488 -0.000014232409610893317 0.9999153726472396
vn 0.9997682282817675 -0.017154760485279332 -0.013007840367589665
vn 0.9998528679043935 -0.017153499449367015 -1.288730655983237e-9
vn -0.000003573994541620119 -0.00020891539543932018 -0.9999999781707918
vn -0.9998528679043935 0.017153499449367015 -1.2479012625900425e-9
vn -0.9997682282817675 0.017154760485279332 0.013007840367589665
usemtl material_0_0
f 1//1 2//1 3//1
f 2//1 1//1 4//1
f 3//1 2//1 5//1
f 2//1 4//1 6//1
f 6//1 4//1 7//1
f 7//1 4//1 8//1
f 7//1 8//1 9//1
f 5//1 10//1 3//1
f 10//1 5//1 11//1
f 10//1 11//1 9//1
f 9//1 11//1 12//1
f 9//1 12//1 7//1
f 13//2 14//2 15//2
f 14//2 13//2 16//2
f 17//3 18//3 19//3
f 18//3 17//3 20//3
f 21//4 22//4 23//4
f 22//4 21//4 24//4
f 25//5 26//5 27//5
f 26//5 25//5 28//5
f 29//6 30//6 31//6
f 30//6 29//6 32//6
f 33//7 34//7 35//7
f 34//7 33//7 36//7
