# SSTK version 0.8.0
# 27
mtllib original-27.mtl
o #ID144
v -0.098536 -0.039854 0.871278
v -0.048371 -0.040810 0.870626
v -0.048366 -0.040309 0.870626
v -0.098541 -0.040356 0.871278
v -0.048366 -0.040309 0.870626
v -0.039212 -0.040887 0.870626
v -0.039207 -0.040386 0.870626
v -0.048371 -0.040810 0.870626
v -0.098536 -0.039854 0.871278
v -0.097911 -0.040356 0.919695
v -0.098541 -0.040356 0.871278
v -0.097906 -0.039854 0.919695
v -0.039207 -0.040386 0.918931
v -0.039212 -0.040887 0.870626
v -0.039212 -0.040887 0.918931
v -0.039207 -0.040386 0.870626
v -0.039212 -0.040887 0.918931
v -0.097906 -0.039854 0.919695
v -0.039207 -0.040386 0.918931
v -0.097911 -0.040356 0.919695
vn 0.013009399653807447 -0.00003896050896458467 0.9999153734205342
vn 6.613049176040598e-7 0.00007841951975863565 0.9999999969249709
vn 0.9998746689711374 -0.00902254372000559 -0.013009229595907425
vn -0.9999592983314456 0.009022287984945209 0
vn -0.013009399653807447 0.00003896050896458467 -0.9999153734205342
usemtl material_0_0
f 1//1 2//1 3//1
f 2//1 1//1 4//1
f 5//2 6//2 7//2
f 6//2 5//2 8//2
f 9//3 10//3 11//3
f 10//3 9//3 12//3
f 13//4 14//4 15//4
f 14//4 13//4 16//4
f 17//5 18//5 19//5
f 18//5 17//5 20//5
