# SSTK version 0.8.0
# 22
mtllib original-22.mtl
o mesh15/mesh15-geometry/material_1/component_3#mesh15-geometry
v -0.027279 -0.150259 0.810394
v -0.034267 -0.154326 0.808697
v -0.031062 -0.151890 0.809771
v -0.031062 -0.151890 0.809771
v -0.034267 -0.154326 0.808697
v -0.027279 -0.150259 0.810394
v -0.027279 -0.150259 0.810394
v -0.022770 -0.163652 0.803478
v -0.034267 -0.154326 0.808697
v -0.034267 -0.154326 0.808697
v -0.022770 -0.163652 0.803478
v -0.027279 -0.150259 0.810394
v -0.022770 -0.163652 0.803478
v -0.027279 -0.150259 0.810394
v -0.022604 -0.163727 0.803433
v -0.022604 -0.163727 0.803433
v -0.027279 -0.150259 0.810394
v -0.022770 -0.163652 0.803478
vt 0 0
vn -0.045241985372401906 0.4464188526269298 -0.8936796801868211
vn -0.040458009280315343 0.449201077570903 -0.8925141687358323
vn -0.04123699918376321 0.4480279852558454 -0.8930679897554868
vn 0.04123699918376321 -0.4480279852558454 0.8930679897554868
vn 0.040458009280315343 -0.449201077570903 0.8925141687358323
vn 0.045241985372401906 -0.4464188526269298 0.8936796801868211
usemtl material_0_0
f 1/1/1 2/1/2 3/1/3
f 4/1/4 5/1/5 6/1/6
f 7/1/1 8/1/3 9/1/2
f 10/1/5 11/1/4 12/1/6
f 13/1/3 14/1/1 15/1/3
f 16/1/4 17/1/6 18/1/4
