# SSTK version 0.8.0
# 19
mtllib original-19.mtl
o mesh15/mesh15-geometry/material_1/component_0#mesh15-geometry
v -0.026144 -0.177589 0.796166
v -0.022542 -0.164629 0.802949
v -0.022001 -0.177837 0.795794
v -0.022542 -0.164629 0.802949
v -0.026144 -0.177589 0.796166
v -0.022956 -0.165278 0.802622
vt 0 0
vn -0.04894701363079471 0.47375714025862165 -0.8792942408037254
vn -0.046770991841751715 0.4721999130707271 -0.8802498034184029
vn -0.05193003175736545 0.4739992913288244 -0.8789925731321346
vn -0.04077399292860754 0.47029494259204074 -0.8815668712429063
usemtl material_0_0
f 1/1/1 2/1/2 3/1/3
f 4/1/2 5/1/1 6/1/4
