# SSTK version 0.8.0
# 3
mtllib original-3.mtl
o mesh2/mesh2-geometry#mesh2-geometry
v -0.165275 0.426062 0.485717
v -0.164354 0.419069 0.486477
v -0.168631 0.418558 0.482951
v -0.157642 0.443288 0.492009
v -0.166716 0.419069 0.489342
v -0.167637 0.426062 0.488583
v -0.160005 0.443288 0.494875
v -0.160867 0.418558 0.489351
v -0.170993 0.418558 0.485817
v -0.163229 0.418558 0.492217
v -0.154872 0.454885 0.499106
v -0.160011 0.420263 0.490057
v -0.152510 0.454885 0.496240
v -0.155267 0.436892 0.498780
v -0.152905 0.436892 0.495915
v -0.162373 0.420263 0.492922
v -0.130723 0.507244 0.519013
v -0.145660 0.458381 0.506700
v -0.128361 0.507244 0.516147
v -0.143298 0.458381 0.503834
v -0.124347 0.506562 0.519456
v -0.134342 0.482088 0.516029
v -0.131980 0.482088 0.513164
v -0.126709 0.506562 0.522321
v -0.126913 0.493088 0.517340
v -0.129276 0.493088 0.520206
v -0.120136 0.507244 0.522927
v -0.121781 0.503748 0.521571
v -0.124143 0.503748 0.524437
v -0.122498 0.507244 0.525793
vn 0.6360783754580935 0 -0.7716244554669018
vn -0.6360783754580935 0 0.7716244554669018
vn -0.007978597914747606 -0.9999465407570484 -0.006577051263850007
vn 0.07092542342115994 -0.995766669827685 0.058466431161918735
vn 0.007978597914747606 0.9999465407570484 0.006577051263850007
vn -0.07092542342115994 0.995766669827685 -0.058466431161918735
vn -0.6676109447556161 0.501423645919019 -0.5503362188297184
vn -0.6683773890135946 0.4997058125569213 -0.5509680269781514
vn 0.6683773890135946 -0.4997058125569213 0.5509680269781514
vn 0.6676109447556161 -0.501423645919019 0.5503362188297184
vn -0.6692459313598256 0.4977495849770153 -0.5516839983301387
vn 0.6692459313598256 -0.4977495849770153 0.5516839983301387
vn -0.08679931137416418 -0.9936529630021745 -0.07155185994766332
vn 0.08679931137416418 0.9936529630021745 0.07155185994766332
vn -0.6658663755378249 0.5053046989354021 -0.5488981063566561
vn 0.6658663755378249 -0.5053046989354021 0.5488981063566561
vn 0.661398846306527 -0.5150648304460904 0.5452153579476051
vn 0.6469639238440452 -0.5449877026583777 0.5333161212596711
vn -0.6469639238440452 0.5449877026583777 -0.5333161212596711
vn -0.661398846306527 0.5150648304460904 -0.5452153579476051
vn -0.6623278901515122 0.5130558371170121 -0.5459812029068477
vn 0.6623278901515122 -0.5130558371170121 0.5459812029068477
vn 0.6713682966808993 -0.49292588164490403 0.5534335420051643
vn -0.6713682966808993 0.49292588164490403 -0.5534335420051643
vn 0.6619940239633155 -0.513779028812968 0.5457059847471536
vn -0.6619940239633155 0.513779028812968 -0.5457059847471536
vn 0.10033742644873717 0.9915095333870046 0.08271182537176136
vn 0.0023333947286440556 0.999995427692238 0.001923502965442527
vn -0.10033742644873717 -0.9915095333870046 -0.08271182537176136
vn -0.0023333947286440556 -0.999995427692238 -0.001923502965442527
vn 0.659397604014243 -0.5193564985807001 0.5435656604332829
vn -0.659397604014243 0.5193564985807001 -0.5435656604332829
vn -0.09570848009939589 0.9922778369334132 -0.07889601490449151
vn 0.09570848009939589 -0.9922778369334132 0.07889601490449151
vn 0.6586309628090375 -0.5209877764054274 0.5429336899340181
vn -0.6586309628090375 0.5209877764054274 -0.5429336899340181
vn 0.6567289887921497 -0.5250048390928173 0.5413658229045918
vn -0.6567289887921497 0.5250048390928173 -0.5413658229045918
vn 0.6588102233747724 -0.5206069691172213 0.543081461001444
vn -0.6588102233747724 0.5206069691172213 -0.543081461001444
usemtl material_0_0
f 1//1 2//1 3//1
f 2//1 1//1 4//1
f 3//2 2//2 1//2
f 4//2 1//2 2//2
f 5//3 3//4 2//3
f 2//5 3//6 5//5
f 3//7 6//8 1//8
f 1//9 6//9 3//10
f 1//8 7//11 4//11
f 4//12 7//12 1//9
f 2//1 4//1 8//1
f 8//2 4//2 2//2
f 3//4 5//3 9//4
f 9//6 5//5 3//6
f 2//3 10//13 5//3
f 5//5 10//14 2//5
f 6//8 3//7 9//7
f 9//10 3//10 6//9
f 7//11 1//8 6//8
f 6//9 1//9 7//12
f 11//15 4//11 7//11
f 7//12 4//12 11//16
f 8//1 4//1 12//1
f 12//2 4//2 8//2
f 10//13 2//3 8//13
f 8//14 2//5 10//14
f 5//2 6//2 9//2
f 9//1 6//1 5//1
f 7//2 5//2 10//2
f 10//1 5//1 7//1
f 6//2 5//2 7//2
f 7//1 5//1 6//1
f 4//11 11//15 13//15
f 13//16 11//16 4//12
f 7//2 14//2 11//2
f 11//1 14//1 7//1
f 12//1 4//1 15//1
f 15//2 4//2 12//2
f 12//17 10//18 8//18
f 8//19 10//19 12//20
f 7//2 10//2 16//2
f 16//1 10//1 7//1
f 17//21 13//15 11//15
f 11//16 13//16 17//22
f 15//1 4//1 13//1
f 13//2 4//2 15//2
f 7//2 16//2 14//2
f 14//1 16//1 7//1
f 11//2 14//2 18//2
f 18//1 14//1 11//1
f 15//23 16//17 12//17
f 12//20 16//20 15//24
f 10//18 12//17 16//17
f 16//20 12//20 10//19
f 13//15 17//21 19//21
f 19//22 17//22 13//16
f 11//2 18//2 17//2
f 17//1 18//1 11//1
f 15//1 13//1 20//1
f 20//2 13//2 15//2
f 16//17 15//23 14//23
f 14//24 15//24 16//20
f 14//23 20//25 18//25
f 18//26 20//26 14//24
f 17//27 21//28 19//27
f 19//29 21//30 17//29
f 20//1 13//1 19//1
f 19//2 13//2 20//2
f 17//2 18//2 22//2
f 22//1 18//1 17//1
f 20//25 14//23 15//23
f 15//24 14//24 20//26
f 23//31 18//25 20//25
f 20//26 18//26 23//32
f 21//28 17//27 24//28
f 24//30 17//29 21//30
f 25//1 19//1 21//1
f 21//2 19//2 25//2
f 20//1 19//1 23//1
f 23//2 19//2 20//2
f 18//25 23//31 22//31
f 22//32 23//32 18//26
f 17//2 22//2 26//2
f 26//1 22//1 17//1
f 17//2 26//2 24//2
f 24//1 26//1 17//1
f 24//28 27//33 21//28
f 21//30 27//34 24//30
f 23//1 19//1 25//1
f 25//2 19//2 23//2
f 25//1 21//1 28//1
f 28//2 21//2 25//2
f 25//35 22//31 23//31
f 23//32 22//32 25//36
f 22//31 25//35 26//35
f 26//36 25//36 22//32
f 24//2 26//2 29//2
f 29//1 26//1 24//1
f 27//33 24//28 30//33
f 30//34 24//30 27//34
f 28//1 21//1 27//1
f 27//2 21//2 28//2
f 28//37 26//35 25//35
f 25//36 26//36 28//38
f 26//35 28//37 29//37
f 29//38 28//38 26//36
f 24//2 29//2 30//2
f 30//1 29//1 24//1
f 29//37 27//39 30//39
f 30//40 27//40 29//38
f 27//39 29//37 28//37
f 28//38 29//38 27//40
