# SSTK version 0.8.0
# 19
mtllib original-19.mtl
o 3dw.7bdffa69c49eb1d7bf653fdedcac4c5b#4/Model/mesh9/mesh9-geometry/material_4/component_4
v -0.082593 -0.922500 0.041073
v -0.082593 -0.829987 0.041073
v -0.073899 -0.914679 0.049767
v 0.082583 -0.842998 0.049767
v 0.060593 -0.842697 0.041073
v 0.091277 -0.829987 0.041073
v -0.073899 -0.842998 0.049767
v -0.073899 -0.914679 0.049767
v -0.082593 -0.829987 0.041073
v -0.073357 -0.914737 0.049767
v -0.082593 -0.922500 0.041073
v -0.073899 -0.914679 0.049767
v -0.051909 -0.842697 0.041073
v -0.073899 -0.842998 0.049767
v -0.082593 -0.829987 0.041073
v 0.060593 -0.842697 0.041073
v 0.082583 -0.842998 0.049767
v 0.004342 -0.850102 0.041073
v 0.091277 -0.829987 0.041073
v 0.091277 -0.922500 0.041073
v 0.082583 -0.842998 0.049767
v -0.082593 -0.922500 0.041073
v 0.091277 -0.922500 0.041073
v -0.073969 -0.923414 0.041073
v -0.073899 -0.842998 0.049767
v -0.039125 -0.902263 0.049767
v -0.073899 -0.914679 0.049767
v -0.073357 -0.914737 0.049767
v 0.004342 -0.917472 0.049767
v -0.082593 -0.922500 0.041073
v -0.073899 -0.914679 0.049767
v 0.082041 -0.914737 0.049767
v -0.073357 -0.914737 0.049767
v -0.051909 -0.842697 0.041073
v 0.004342 -0.850102 0.041073
v -0.073899 -0.842998 0.049767
v 0.062862 -0.851166 0.049767
v 0.004342 -0.850102 0.041073
v 0.082583 -0.842998 0.049767
v 0.082583 -0.914679 0.049767
v 0.082583 -0.842998 0.049767
v 0.091277 -0.922500 0.041073
v 0.004342 -0.926170 0.041073
v -0.073969 -0.923414 0.041073
v 0.082653 -0.923414 0.041073
v 0.091277 -0.922500 0.041073
v 0.082653 -0.923414 0.041073
v -0.073969 -0.923414 0.041073
v 0.082041 -0.914737 0.049767
v 0.091277 -0.922500 0.041073
v -0.082593 -0.922500 0.041073
v 0.030422 -0.902263 0.049767
v -0.073899 -0.914679 0.049767
v -0.039125 -0.902263 0.049767
v -0.039125 -0.889223 0.049767
v -0.039125 -0.902263 0.049767
v -0.073899 -0.842998 0.049767
v 0.004342 -0.917472 0.049767
v 0.082041 -0.914737 0.049767
v -0.082593 -0.922500 0.041073
v 0.004342 -0.917472 0.049767
v -0.073357 -0.914737 0.049767
v 0.082041 -0.914737 0.049767
v 0.082583 -0.914679 0.049767
v 0.082041 -0.914737 0.049767
v -0.073899 -0.914679 0.049767
v 0.004342 -0.850102 0.041073
v -0.054179 -0.851166 0.049767
v -0.073899 -0.842998 0.049767
v 0.004342 -0.850102 0.041073
v 0.062862 -0.851166 0.049767
v -0.054179 -0.851166 0.049767
v 0.062862 -0.851166 0.049767
v 0.082583 -0.842998 0.049767
v 0.030422 -0.867489 0.049767
v 0.082583 -0.842998 0.049767
v 0.082583 -0.914679 0.049767
v 0.045480 -0.893570 0.049767
v 0.091277 -0.922500 0.041073
v 0.082041 -0.914737 0.049767
v 0.082583 -0.914679 0.049767
v 0.030422 -0.902263 0.049767
v 0.082583 -0.914679 0.049767
v -0.073899 -0.914679 0.049767
v 0.004342 -0.884876 0.049767
v -0.039125 -0.889223 0.049767
v -0.073899 -0.842998 0.049767
v -0.054179 -0.851166 0.049767
v -0.006525 -0.874009 0.049767
v -0.073899 -0.842998 0.049767
v 0.062862 -0.851166 0.049767
v 0.004342 -0.858871 0.049767
v -0.054179 -0.851166 0.049767
v 0.030422 -0.867489 0.049767
v 0.082583 -0.842998 0.049767
v 0.034923 -0.868082 0.049767
v 0.004342 -0.867489 0.049767
v 0.062862 -0.851166 0.049767
v 0.030422 -0.867489 0.049767
v 0.045480 -0.893570 0.049767
v 0.082583 -0.914679 0.049767
v 0.042717 -0.897171 0.049767
v 0.047217 -0.889376 0.049767
v 0.082583 -0.842998 0.049767
v 0.045480 -0.893570 0.049767
v 0.034923 -0.901671 0.049767
v 0.082583 -0.914679 0.049767
v 0.030422 -0.902263 0.049767
v -0.039125 -0.889223 0.049767
v 0.004342 -0.884876 0.049767
v 0.030422 -0.889223 0.049767
v -0.006525 -0.874009 0.049767
v 0.004342 -0.884876 0.049767
v -0.073899 -0.842998 0.049767
v 0.004342 -0.863143 0.049767
v -0.006525 -0.874009 0.049767
v -0.054179 -0.851166 0.049767
v 0.004342 -0.858871 0.049767
v 0.004342 -0.863143 0.049767
v -0.054179 -0.851166 0.049767
v 0.004342 -0.858871 0.049767
v 0.062862 -0.851166 0.049767
v 0.004342 -0.863143 0.049767
v 0.034923 -0.868082 0.049767
v 0.082583 -0.842998 0.049767
v 0.039116 -0.869819 0.049767
v 0.004342 -0.863143 0.049767
v 0.062862 -0.851166 0.049767
v 0.004342 -0.867489 0.049767
v 0.042717 -0.897171 0.049767
v 0.082583 -0.914679 0.049767
v 0.039116 -0.899934 0.049767
v 0.047809 -0.884876 0.049767
v 0.082583 -0.842998 0.049767
v 0.047217 -0.889376 0.049767
v 0.039116 -0.899934 0.049767
v 0.082583 -0.914679 0.049767
v 0.034923 -0.901671 0.049767
v 0.030422 -0.880530 0.049767
v 0.030422 -0.889223 0.049767
v 0.004342 -0.884876 0.049767
v 0.039116 -0.869819 0.049767
v 0.082583 -0.842998 0.049767
v 0.042717 -0.872582 0.049767
v 0.047217 -0.880376 0.049767
v 0.082583 -0.842998 0.049767
v 0.047809 -0.884876 0.049767
v 0.004342 -0.880530 0.049767
v 0.030422 -0.880530 0.049767
v 0.004342 -0.884876 0.049767
v 0.042717 -0.872582 0.049767
v 0.082583 -0.842998 0.049767
v 0.045480 -0.876183 0.049767
v 0.045480 -0.876183 0.049767
v 0.082583 -0.842998 0.049767
v 0.047217 -0.880376 0.049767
v -0.073899 -0.914679 0.049767
v -0.082593 -0.829987 0.041073
v -0.082593 -0.922500 0.041073
v 0.091277 -0.829987 0.041073
v 0.060593 -0.842697 0.041073
v 0.082583 -0.842998 0.049767
v -0.082593 -0.829987 0.041073
v -0.073899 -0.914679 0.049767
v -0.073899 -0.842998 0.049767
v -0.073899 -0.914679 0.049767
v -0.082593 -0.922500 0.041073
v -0.073357 -0.914737 0.049767
v -0.082593 -0.829987 0.041073
v -0.073899 -0.842998 0.049767
v -0.051909 -0.842697 0.041073
v 0.004342 -0.850102 0.041073
v 0.082583 -0.842998 0.049767
v 0.060593 -0.842697 0.041073
v 0.082583 -0.842998 0.049767
v 0.091277 -0.922500 0.041073
v 0.091277 -0.829987 0.041073
v -0.073969 -0.923414 0.041073
v 0.091277 -0.922500 0.041073
v -0.082593 -0.922500 0.041073
v -0.073899 -0.914679 0.049767
v -0.039125 -0.902263 0.049767
v -0.073899 -0.842998 0.049767
v -0.082593 -0.922500 0.041073
v 0.004342 -0.917472 0.049767
v -0.073357 -0.914737 0.049767
v -0.073357 -0.914737 0.049767
v 0.082041 -0.914737 0.049767
v -0.073899 -0.914679 0.049767
v -0.073899 -0.842998 0.049767
v 0.004342 -0.850102 0.041073
v -0.051909 -0.842697 0.041073
v 0.082583 -0.842998 0.049767
v 0.004342 -0.850102 0.041073
v 0.062862 -0.851166 0.049767
v 0.091277 -0.922500 0.041073
v 0.082583 -0.842998 0.049767
v 0.082583 -0.914679 0.049767
v 0.082653 -0.923414 0.041073
v -0.073969 -0.923414 0.041073
v 0.004342 -0.926170 0.041073
v -0.073969 -0.923414 0.041073
v 0.082653 -0.923414 0.041073
v 0.091277 -0.922500 0.041073
v -0.082593 -0.922500 0.041073
v 0.091277 -0.922500 0.041073
v 0.082041 -0.914737 0.049767
v -0.039125 -0.902263 0.049767
v -0.073899 -0.914679 0.049767
v 0.030422 -0.902263 0.049767
v -0.073899 -0.842998 0.049767
v -0.039125 -0.902263 0.049767
v -0.039125 -0.889223 0.049767
v -0.082593 -0.922500 0.041073
v 0.082041 -0.914737 0.049767
v 0.004342 -0.917472 0.049767
v 0.082041 -0.914737 0.049767
v -0.073357 -0.914737 0.049767
v 0.004342 -0.917472 0.049767
v -0.073899 -0.914679 0.049767
v 0.082041 -0.914737 0.049767
v 0.082583 -0.914679 0.049767
v -0.073899 -0.842998 0.049767
v -0.054179 -0.851166 0.049767
v 0.004342 -0.850102 0.041073
v -0.054179 -0.851166 0.049767
v 0.062862 -0.851166 0.049767
v 0.004342 -0.850102 0.041073
v 0.030422 -0.867489 0.049767
v 0.082583 -0.842998 0.049767
v 0.062862 -0.851166 0.049767
v 0.045480 -0.893570 0.049767
v 0.082583 -0.914679 0.049767
v 0.082583 -0.842998 0.049767
v 0.082583 -0.914679 0.049767
v 0.082041 -0.914737 0.049767
v 0.091277 -0.922500 0.041073
v -0.073899 -0.914679 0.049767
v 0.082583 -0.914679 0.049767
v 0.030422 -0.902263 0.049767
v -0.073899 -0.842998 0.049767
v -0.039125 -0.889223 0.049767
v 0.004342 -0.884876 0.049767
v -0.073899 -0.842998 0.049767
v -0.006525 -0.874009 0.049767
v -0.054179 -0.851166 0.049767
v -0.054179 -0.851166 0.049767
v 0.004342 -0.858871 0.049767
v 0.062862 -0.851166 0.049767
v 0.034923 -0.868082 0.049767
v 0.082583 -0.842998 0.049767
v 0.030422 -0.867489 0.049767
v 0.030422 -0.867489 0.049767
v 0.062862 -0.851166 0.049767
v 0.004342 -0.867489 0.049767
v 0.042717 -0.897171 0.049767
v 0.082583 -0.914679 0.049767
v 0.045480 -0.893570 0.049767
v 0.045480 -0.893570 0.049767
v 0.082583 -0.842998 0.049767
v 0.047217 -0.889376 0.049767
v 0.030422 -0.902263 0.049767
v 0.082583 -0.914679 0.049767
v 0.034923 -0.901671 0.049767
v 0.030422 -0.889223 0.049767
v 0.004342 -0.884876 0.049767
v -0.039125 -0.889223 0.049767
v -0.073899 -0.842998 0.049767
v 0.004342 -0.884876 0.049767
v -0.006525 -0.874009 0.049767
v -0.054179 -0.851166 0.049767
v -0.006525 -0.874009 0.049767
v 0.004342 -0.863143 0.049767
v -0.054179 -0.851166 0.049767
v 0.004342 -0.863143 0.049767
v 0.004342 -0.858871 0.049767
v 0.004342 -0.863143 0.049767
v 0.062862 -0.851166 0.049767
v 0.004342 -0.858871 0.049767
v 0.039116 -0.869819 0.049767
v 0.082583 -0.842998 0.049767
v 0.034923 -0.868082 0.049767
v 0.004342 -0.867489 0.049767
v 0.062862 -0.851166 0.049767
v 0.004342 -0.863143 0.049767
v 0.039116 -0.899934 0.049767
v 0.082583 -0.914679 0.049767
v 0.042717 -0.897171 0.049767
v 0.047217 -0.889376 0.049767
v 0.082583 -0.842998 0.049767
v 0.047809 -0.884876 0.049767
v 0.034923 -0.901671 0.049767
v 0.082583 -0.914679 0.049767
v 0.039116 -0.899934 0.049767
v 0.004342 -0.884876 0.049767
v 0.030422 -0.889223 0.049767
v 0.030422 -0.880530 0.049767
v 0.042717 -0.872582 0.049767
v 0.082583 -0.842998 0.049767
v 0.039116 -0.869819 0.049767
v 0.047809 -0.884876 0.049767
v 0.082583 -0.842998 0.049767
v 0.047217 -0.880376 0.049767
v 0.004342 -0.884876 0.049767
v 0.030422 -0.880530 0.049767
v 0.004342 -0.880530 0.049767
v 0.045480 -0.876183 0.049767
v 0.082583 -0.842998 0.049767
v 0.042717 -0.872582 0.049767
v 0.047217 -0.880376 0.049767
v 0.082583 -0.842998 0.049767
v 0.045480 -0.876183 0.049767
vt 0 0
vn 0.7071067811865476 0 -0.7071067811865476
vn 0.1878279704565831 -0.6800958478709298 -0.7086538585394717
vn 0.20258503303950692 -0.8164461522697994 -0.54071710240404
vn 0.27059804508550317 -0.6532810959749291 -0.7071071401405159
vn 0.050151021630635687 0.717868256300036 -0.6943702482293931
vn 0.014498995570408056 0.6937937870143451 -0.7200277496234037
vn 0.07449397531968867 0.7031718253148935 -0.7071068036190788
vn -0.2025850330395073 -0.8164461522697994 -0.54071710240404
vn -0.18782797045658337 -0.6800958478709298 -0.7086538585394717
vn -0.27059804508550356 -0.653281095974929 -0.7071071401405161
vn 0 -0.7938290234023235 -0.6081410047054164
vn -0.7071067811865476 0 -0.7071067811865476
vn -0.44353690378965827 0.3990309295357044 -0.8025268420748025
vn 0 0.40859695041053967 -0.9127149237934084
vn 0 0 -1
vn -0.004428001173466403 0.8841532049599313 -0.4671760941708054
vn 0.05452401820793671 -0.53737615879428 -0.8415782764532159
vn -0.017719994284825395 0.888726681613647 -0.4580948451909728
vn -0.054524018207936946 -0.53737615879428 -0.8415782764532159
vn -0.07449397531968836 0.7031718253148935 -0.7071068036190788
vn -0.7071067811865476 0 0.7071067811865476
vn -0.27059804508550317 0.6532810959749291 0.7071071401405159
vn -0.20258503303950692 0.8164461522697994 0.54071710240404
vn -0.1878279704565831 0.6800958478709298 0.7086538585394717
vn -0.07449397531968867 -0.7031718253148935 0.7071068036190788
vn -0.014498995570408056 -0.6937937870143451 0.7200277496234037
vn -0.050151021630635687 -0.717868256300036 0.6943702482293931
vn 0.27059804508550356 0.653281095974929 0.7071071401405161
vn 0.18782797045658337 0.6800958478709298 0.7086538585394717
vn 0.2025850330395073 0.8164461522697994 0.54071710240404
vn 0 0.7938290234023235 0.6081410047054164
vn 0.7071067811865476 0 0.7071067811865476
vn 0.44353690378965827 -0.3990309295357044 0.8025268420748025
vn 0 0 1
vn 0 -0.40859695041053967 0.9127149237934084
vn 0.004428001173466403 -0.8841532049599313 0.4671760941708054
vn -0.05452401820793671 0.53737615879428 0.8415782764532159
vn 0.017719994284825395 -0.888726681613647 0.4580948451909728
vn 0.054524018207936946 0.53737615879428 0.8415782764532159
vn 0.07449397531968836 -0.7031718253148935 0.7071068036190788
usemtl material_0_0
f 1/1/1 2/1/1 3/1/1
f 4/1/2 5/1/3 6/1/4
f 7/1/1 8/1/1 9/1/1
f 10/1/5 11/1/6 12/1/7
f 13/1/8 14/1/9 15/1/10
f 16/1/3 17/1/2 18/1/11
f 19/1/12 20/1/13 21/1/12
f 22/1/6 23/1/14 24/1/15
f 25/1/15 26/1/15 27/1/15
f 28/1/5 29/1/16 30/1/6
f 31/1/15 32/1/15 33/1/15
f 34/1/8 35/1/11 36/1/9
f 37/1/17 38/1/11 39/1/2
f 40/1/13 41/1/12 42/1/13
f 43/1/15 44/1/15 45/1/15
f 46/1/14 47/1/15 48/1/15
f 49/1/18 50/1/14 51/1/6
f 52/1/15 53/1/15 54/1/15
f 55/1/15 56/1/15 57/1/15
f 58/1/16 59/1/18 60/1/6
f 61/1/15 62/1/15 63/1/15
f 64/1/15 65/1/15 66/1/15
f 67/1/11 68/1/19 69/1/9
f 70/1/11 71/1/17 72/1/19
f 73/1/15 74/1/15 75/1/15
f 76/1/15 77/1/15 78/1/15
f 79/1/13 80/1/20 81/1/13
f 82/1/15 83/1/15 84/1/15
f 85/1/15 86/1/15 87/1/15
f 88/1/15 89/1/15 90/1/15
f 91/1/17 92/1/15 93/1/19
f 94/1/15 95/1/15 96/1/15
f 97/1/15 98/1/15 99/1/15
f 100/1/15 101/1/15 102/1/15
f 103/1/15 104/1/15 105/1/15
f 106/1/15 107/1/15 108/1/15
f 109/1/15 110/1/15 111/1/15
f 112/1/15 113/1/15 114/1/15
f 115/1/15 116/1/15 117/1/15
f 118/1/15 119/1/15 120/1/15
f 121/1/15 122/1/15 123/1/15
f 124/1/15 125/1/15 126/1/15
f 127/1/15 128/1/15 129/1/15
f 130/1/15 131/1/15 132/1/15
f 133/1/15 134/1/15 135/1/15
f 136/1/15 137/1/15 138/1/15
f 139/1/15 140/1/15 141/1/15
f 142/1/15 143/1/15 144/1/15
f 145/1/15 146/1/15 147/1/15
f 148/1/15 149/1/15 150/1/15
f 151/1/15 152/1/15 153/1/15
f 154/1/15 155/1/15 156/1/15
usemtl material_1_0
f 157/1/21 158/1/21 159/1/21
f 160/1/22 161/1/23 162/1/24
f 163/1/21 164/1/21 165/1/21
f 166/1/25 167/1/26 168/1/27
f 169/1/28 170/1/29 171/1/30
f 172/1/31 173/1/24 174/1/23
f 175/1/32 176/1/33 177/1/32
f 178/1/34 179/1/35 180/1/26
f 181/1/34 182/1/34 183/1/34
f 184/1/26 185/1/36 186/1/27
f 187/1/34 188/1/34 189/1/34
f 190/1/29 191/1/31 192/1/30
f 193/1/24 194/1/31 195/1/37
f 196/1/33 197/1/32 198/1/33
f 199/1/34 200/1/34 201/1/34
f 202/1/34 203/1/34 204/1/35
f 205/1/26 206/1/35 207/1/38
f 208/1/34 209/1/34 210/1/34
f 211/1/34 212/1/34 213/1/34
f 214/1/26 215/1/38 216/1/36
f 217/1/34 218/1/34 219/1/34
f 220/1/34 221/1/34 222/1/34
f 223/1/29 224/1/39 225/1/31
f 226/1/39 227/1/37 228/1/31
f 229/1/34 230/1/34 231/1/34
f 232/1/34 233/1/34 234/1/34
f 235/1/33 236/1/40 237/1/33
f 238/1/34 239/1/34 240/1/34
f 241/1/34 242/1/34 243/1/34
f 244/1/34 245/1/34 246/1/34
f 247/1/39 248/1/34 249/1/37
f 250/1/34 251/1/34 252/1/34
f 253/1/34 254/1/34 255/1/34
f 256/1/34 257/1/34 258/1/34
f 259/1/34 260/1/34 261/1/34
f 262/1/34 263/1/34 264/1/34
f 265/1/34 266/1/34 267/1/34
f 268/1/34 269/1/34 270/1/34
f 271/1/34 272/1/34 273/1/34
f 274/1/34 275/1/34 276/1/34
f 277/1/34 278/1/34 279/1/34
f 280/1/34 281/1/34 282/1/34
f 283/1/34 284/1/34 285/1/34
f 286/1/34 287/1/34 288/1/34
f 289/1/34 290/1/34 291/1/34
f 292/1/34 293/1/34 294/1/34
f 295/1/34 296/1/34 297/1/34
f 298/1/34 299/1/34 300/1/34
f 301/1/34 302/1/34 303/1/34
f 304/1/34 305/1/34 306/1/34
f 307/1/34 308/1/34 309/1/34
f 310/1/34 311/1/34 312/1/34
