# SSTK version 0.8.0
# 20
mtllib original-20.mtl
o 3dw.7bdffa69c49eb1d7bf653fdedcac4c5b#4/Model/mesh9/mesh9-geometry/material_5
v -0.366532 -0.740033 0.045420
v -0.240235 -0.827753 0.045420
v -0.274323 -0.832241 0.045420
v -0.369975 -0.735545 0.045420
v -0.335887 -0.709388 0.045420
v -0.366532 -0.740033 0.045420
v -0.340375 -0.705945 0.045420
v -0.335887 -0.709388 0.045420
v -0.366532 -0.709388 0.045420
v -0.351209 -0.703041 0.045420
v -0.345601 -0.703780 0.045420
v -0.356818 -0.703780 0.045420
v -0.274323 -0.832241 0.045420
v -0.243679 -0.832241 0.045420
v -0.269836 -0.835685 0.045420
v -0.240235 -0.827753 0.045420
v -0.243679 -0.832241 0.045420
v -0.274323 -0.832241 0.045420
v -0.238070 -0.822527 0.045420
v -0.240235 -0.827753 0.045420
v -0.366532 -0.740033 0.045420
v -0.335887 -0.709388 0.045420
v -0.243679 -0.801596 0.045420
v -0.366532 -0.740033 0.045420
v -0.372140 -0.730319 0.045420
v -0.335887 -0.709388 0.045420
v -0.369975 -0.735545 0.045420
v -0.345601 -0.703780 0.045420
v -0.340375 -0.705945 0.045420
v -0.362044 -0.705945 0.045420
v -0.366532 -0.709388 0.045420
v -0.335887 -0.709388 0.045420
v -0.369975 -0.713876 0.045420
v -0.362044 -0.705945 0.045420
v -0.340375 -0.705945 0.045420
v -0.366532 -0.709388 0.045420
v -0.356818 -0.703780 0.045420
v -0.345601 -0.703780 0.045420
v -0.362044 -0.705945 0.045420
v -0.259001 -0.838588 0.045420
v -0.264610 -0.837849 0.045420
v -0.253393 -0.837849 0.045420
v -0.269836 -0.835685 0.045420
v -0.248166 -0.835685 0.045420
v -0.264610 -0.837849 0.045420
v -0.243679 -0.832241 0.045420
v -0.248166 -0.835685 0.045420
v -0.269836 -0.835685 0.045420
v -0.237332 -0.816919 0.045420
v -0.238070 -0.822527 0.045420
v -0.366532 -0.740033 0.045420
v -0.243679 -0.801596 0.045420
v -0.240235 -0.806084 0.045420
v -0.366532 -0.740033 0.045420
v -0.372878 -0.724711 0.045420
v -0.335887 -0.709388 0.045420
v -0.372140 -0.730319 0.045420
v -0.369975 -0.713876 0.045420
v -0.335887 -0.709388 0.045420
v -0.372140 -0.719102 0.045420
v -0.248166 -0.835685 0.045420
v -0.253393 -0.837849 0.045420
v -0.264610 -0.837849 0.045420
v -0.238070 -0.811310 0.045420
v -0.237332 -0.816919 0.045420
v -0.366532 -0.740033 0.045420
v -0.240235 -0.806084 0.045420
v -0.238070 -0.811310 0.045420
v -0.366532 -0.740033 0.045420
v -0.372140 -0.719102 0.045420
v -0.335887 -0.709388 0.045420
v -0.372878 -0.724711 0.045420
v -0.274323 -0.832241 0.045420
v -0.240235 -0.827753 0.045420
v -0.366532 -0.740033 0.045420
v -0.366532 -0.740033 0.045420
v -0.335887 -0.709388 0.045420
v -0.369975 -0.735545 0.045420
v -0.366532 -0.709388 0.045420
v -0.335887 -0.709388 0.045420
v -0.340375 -0.705945 0.045420
v -0.356818 -0.703780 0.045420
v -0.345601 -0.703780 0.045420
v -0.351209 -0.703041 0.045420
v -0.269836 -0.835685 0.045420
v -0.243679 -0.832241 0.045420
v -0.274323 -0.832241 0.045420
v -0.274323 -0.832241 0.045420
v -0.243679 -0.832241 0.045420
v -0.240235 -0.827753 0.045420
v -0.366532 -0.740033 0.045420
v -0.240235 -0.827753 0.045420
v -0.238070 -0.822527 0.045420
v -0.366532 -0.740033 0.045420
v -0.243679 -0.801596 0.045420
v -0.335887 -0.709388 0.045420
v -0.369975 -0.735545 0.045420
v -0.335887 -0.709388 0.045420
v -0.372140 -0.730319 0.045420
v -0.362044 -0.705945 0.045420
v -0.340375 -0.705945 0.045420
v -0.345601 -0.703780 0.045420
v -0.369975 -0.713876 0.045420
v -0.335887 -0.709388 0.045420
v -0.366532 -0.709388 0.045420
v -0.366532 -0.709388 0.045420
v -0.340375 -0.705945 0.045420
v -0.362044 -0.705945 0.045420
v -0.362044 -0.705945 0.045420
v -0.345601 -0.703780 0.045420
v -0.356818 -0.703780 0.045420
v -0.253393 -0.837849 0.045420
v -0.264610 -0.837849 0.045420
v -0.259001 -0.838588 0.045420
v -0.264610 -0.837849 0.045420
v -0.248166 -0.835685 0.045420
v -0.269836 -0.835685 0.045420
v -0.269836 -0.835685 0.045420
v -0.248166 -0.835685 0.045420
v -0.243679 -0.832241 0.045420
v -0.366532 -0.740033 0.045420
v -0.238070 -0.822527 0.045420
v -0.237332 -0.816919 0.045420
v -0.366532 -0.740033 0.045420
v -0.240235 -0.806084 0.045420
v -0.243679 -0.801596 0.045420
v -0.372140 -0.730319 0.045420
v -0.335887 -0.709388 0.045420
v -0.372878 -0.724711 0.045420
v -0.372140 -0.719102 0.045420
v -0.335887 -0.709388 0.045420
v -0.369975 -0.713876 0.045420
v -0.264610 -0.837849 0.045420
v -0.253393 -0.837849 0.045420
v -0.248166 -0.835685 0.045420
v -0.366532 -0.740033 0.045420
v -0.237332 -0.816919 0.045420
v -0.238070 -0.811310 0.045420
v -0.366532 -0.740033 0.045420
v -0.238070 -0.811310 0.045420
v -0.240235 -0.806084 0.045420
v -0.372878 -0.724711 0.045420
v -0.335887 -0.709388 0.045420
v -0.372140 -0.719102 0.045420
vt 0 0
vn 0 0 -1
vn 0 0 1
usemtl material_0_0
f 1/1/1 2/1/1 3/1/1
f 4/1/1 5/1/1 6/1/1
f 7/1/1 8/1/1 9/1/1
f 10/1/1 11/1/1 12/1/1
f 13/1/1 14/1/1 15/1/1
f 16/1/1 17/1/1 18/1/1
f 19/1/1 20/1/1 21/1/1
f 22/1/1 23/1/1 24/1/1
f 25/1/1 26/1/1 27/1/1
f 28/1/1 29/1/1 30/1/1
f 31/1/1 32/1/1 33/1/1
f 34/1/1 35/1/1 36/1/1
f 37/1/1 38/1/1 39/1/1
f 40/1/1 41/1/1 42/1/1
f 43/1/1 44/1/1 45/1/1
f 46/1/1 47/1/1 48/1/1
f 49/1/1 50/1/1 51/1/1
f 52/1/1 53/1/1 54/1/1
f 55/1/1 56/1/1 57/1/1
f 58/1/1 59/1/1 60/1/1
f 61/1/1 62/1/1 63/1/1
f 64/1/1 65/1/1 66/1/1
f 67/1/1 68/1/1 69/1/1
f 70/1/1 71/1/1 72/1/1
usemtl material_1_0
f 73/1/2 74/1/2 75/1/2
f 76/1/2 77/1/2 78/1/2
f 79/1/2 80/1/2 81/1/2
f 82/1/2 83/1/2 84/1/2
f 85/1/2 86/1/2 87/1/2
f 88/1/2 89/1/2 90/1/2
f 91/1/2 92/1/2 93/1/2
f 94/1/2 95/1/2 96/1/2
f 97/1/2 98/1/2 99/1/2
f 100/1/2 101/1/2 102/1/2
f 103/1/2 104/1/2 105/1/2
f 106/1/2 107/1/2 108/1/2
f 109/1/2 110/1/2 111/1/2
f 112/1/2 113/1/2 114/1/2
f 115/1/2 116/1/2 117/1/2
f 118/1/2 119/1/2 120/1/2
f 121/1/2 122/1/2 123/1/2
f 124/1/2 125/1/2 126/1/2
f 127/1/2 128/1/2 129/1/2
f 130/1/2 131/1/2 132/1/2
f 133/1/2 134/1/2 135/1/2
f 136/1/2 137/1/2 138/1/2
f 139/1/2 140/1/2 141/1/2
f 142/1/2 143/1/2 144/1/2
