# SSTK version 0.8.0
# 15
mtllib original-15.mtl
o 3dw.7bdffa69c49eb1d7bf653fdedcac4c5b#4/Model/mesh9/mesh9-geometry/material_4/component_0
v -0.210133 -0.654499 0.041073
v -0.205589 -0.689017 0.041073
v -0.217758 -0.663193 0.045420
v -0.452065 -0.654499 0.041073
v -0.210133 -0.654499 0.041073
v -0.443372 -0.663193 0.045420
v -0.205589 -0.689017 0.041073
v -0.183877 -0.741434 0.041073
v -0.214059 -0.691286 0.045420
v -0.214059 -0.691286 0.045420
v -0.217758 -0.663193 0.045420
v -0.205589 -0.689017 0.041073
v -0.217758 -0.663193 0.045420
v -0.443372 -0.663193 0.045420
v -0.210133 -0.654499 0.041073
v -0.443372 -0.663193 0.045420
v -0.443372 -0.822524 0.045420
v -0.452065 -0.654499 0.041073
v -0.191471 -0.745818 0.045420
v -0.214059 -0.691286 0.045420
v -0.183877 -0.741434 0.041073
v -0.217758 -0.663193 0.045420
v -0.214059 -0.691286 0.045420
v -0.443372 -0.663193 0.045420
v -0.452065 -0.828369 0.041073
v -0.452065 -0.654499 0.041073
v -0.443372 -0.822524 0.045420
v -0.443372 -0.663193 0.045420
v -0.366532 -0.740033 0.045420
v -0.443372 -0.822524 0.045420
v -0.183877 -0.741434 0.041073
v -0.149338 -0.786446 0.041073
v -0.191471 -0.745818 0.045420
v -0.214059 -0.691286 0.045420
v -0.191471 -0.745818 0.045420
v -0.335887 -0.709388 0.045420
v -0.214059 -0.691286 0.045420
v -0.351209 -0.703041 0.045420
v -0.443372 -0.663193 0.045420
v -0.443372 -0.822524 0.045420
v -0.376503 -0.849777 0.045420
v -0.452065 -0.828369 0.041073
v -0.366532 -0.740033 0.045420
v -0.274323 -0.832241 0.045420
v -0.443372 -0.822524 0.045420
v -0.369975 -0.735545 0.045420
v -0.366532 -0.740033 0.045420
v -0.443372 -0.663193 0.045420
v -0.155539 -0.792646 0.045420
v -0.191471 -0.745818 0.045420
v -0.149338 -0.786446 0.041073
v -0.191471 -0.745818 0.045420
v -0.155539 -0.792646 0.045420
v -0.335887 -0.709388 0.045420
v -0.340375 -0.705945 0.045420
v -0.214059 -0.691286 0.045420
v -0.335887 -0.709388 0.045420
v -0.351209 -0.703041 0.045420
v -0.356818 -0.703780 0.045420
v -0.443372 -0.663193 0.045420
v -0.351209 -0.703041 0.045420
v -0.214059 -0.691286 0.045420
v -0.345601 -0.703780 0.045420
v -0.379501 -0.857943 0.041073
v -0.452065 -0.828369 0.041073
v -0.376503 -0.849777 0.045420
v -0.376503 -0.849777 0.045420
v -0.443372 -0.822524 0.045420
v -0.259001 -0.838588 0.045420
v -0.274323 -0.832241 0.045420
v -0.269836 -0.835685 0.045420
v -0.443372 -0.822524 0.045420
v -0.372140 -0.730319 0.045420
v -0.369975 -0.735545 0.045420
v -0.443372 -0.663193 0.045420
v -0.149338 -0.786446 0.041073
v -0.104326 -0.820985 0.041073
v -0.155539 -0.792646 0.045420
v -0.335887 -0.709388 0.045420
v -0.155539 -0.792646 0.045420
v -0.243679 -0.801596 0.045420
v -0.345601 -0.703780 0.045420
v -0.214059 -0.691286 0.045420
v -0.340375 -0.705945 0.045420
v -0.356818 -0.703780 0.045420
v -0.362044 -0.705945 0.045420
v -0.443372 -0.663193 0.045420
v -0.376503 -0.849777 0.045420
v -0.302621 -0.873986 0.045420
v -0.379501 -0.857943 0.041073
v -0.264610 -0.837849 0.045420
v -0.259001 -0.838588 0.045420
v -0.443372 -0.822524 0.045420
v -0.259001 -0.838588 0.045420
v -0.113020 -0.825272 0.045420
v -0.376503 -0.849777 0.045420
v -0.269836 -0.835685 0.045420
v -0.264610 -0.837849 0.045420
v -0.443372 -0.822524 0.045420
v -0.372878 -0.724711 0.045420
v -0.372140 -0.730319 0.045420
v -0.443372 -0.663193 0.045420
v -0.113020 -0.825272 0.045420
v -0.155539 -0.792646 0.045420
v -0.104326 -0.820985 0.041073
v -0.243679 -0.801596 0.045420
v -0.155539 -0.792646 0.045420
v -0.240235 -0.806084 0.045420
v -0.362044 -0.705945 0.045420
v -0.366532 -0.709388 0.045420
v -0.443372 -0.663193 0.045420
v -0.305037 -0.882342 0.041073
v -0.379501 -0.857943 0.041073
v -0.302621 -0.873986 0.045420
v -0.376503 -0.849777 0.045420
v -0.113020 -0.825272 0.045420
v -0.302621 -0.873986 0.045420
v -0.253393 -0.837849 0.045420
v -0.113020 -0.825272 0.045420
v -0.259001 -0.838588 0.045420
v -0.240235 -0.827753 0.045420
v -0.113020 -0.825272 0.045420
v -0.243679 -0.832241 0.045420
v -0.238070 -0.822527 0.045420
v -0.113020 -0.825272 0.045420
v -0.240235 -0.827753 0.045420
v -0.372140 -0.719102 0.045420
v -0.372878 -0.724711 0.045420
v -0.443372 -0.663193 0.045420
v -0.155539 -0.792646 0.045420
v -0.113020 -0.825272 0.045420
v -0.238070 -0.822527 0.045420
v -0.113020 -0.825272 0.045420
v -0.104326 -0.820985 0.041073
v -0.113020 -0.910535 0.045420
v -0.240235 -0.806084 0.045420
v -0.155539 -0.792646 0.045420
v -0.238070 -0.811310 0.045420
v -0.366532 -0.709388 0.045420
v -0.369975 -0.713876 0.045420
v -0.443372 -0.663193 0.045420
v -0.229042 -0.901446 0.041073
v -0.305037 -0.882342 0.041073
v -0.227220 -0.892940 0.045420
v -0.302621 -0.873986 0.045420
v -0.227220 -0.892940 0.045420
v -0.305037 -0.882342 0.041073
v -0.302621 -0.873986 0.045420
v -0.113020 -0.825272 0.045420
v -0.227220 -0.892940 0.045420
v -0.248166 -0.835685 0.045420
v -0.113020 -0.825272 0.045420
v -0.253393 -0.837849 0.045420
v -0.243679 -0.832241 0.045420
v -0.113020 -0.825272 0.045420
v -0.248166 -0.835685 0.045420
v -0.237332 -0.816919 0.045420
v -0.155539 -0.792646 0.045420
v -0.238070 -0.822527 0.045420
v -0.369975 -0.713876 0.045420
v -0.372140 -0.719102 0.045420
v -0.443372 -0.663193 0.045420
v -0.104326 -0.920198 0.041073
v -0.113020 -0.910535 0.045420
v -0.104326 -0.820985 0.041073
v -0.113020 -0.910535 0.045420
v -0.150672 -0.906546 0.045420
v -0.113020 -0.825272 0.045420
v -0.238070 -0.811310 0.045420
v -0.155539 -0.792646 0.045420
v -0.237332 -0.816919 0.045420
v -0.150672 -0.906546 0.045420
v -0.229042 -0.901446 0.041073
v -0.227220 -0.892940 0.045420
v -0.227220 -0.892940 0.045420
v -0.113020 -0.825272 0.045420
v -0.150672 -0.906546 0.045420
v -0.104326 -0.920198 0.041073
v -0.151892 -0.915159 0.041073
v -0.113020 -0.910535 0.045420
v -0.150672 -0.906546 0.045420
v -0.113020 -0.910535 0.045420
v -0.229042 -0.901446 0.041073
v -0.113020 -0.910535 0.045420
v -0.151892 -0.915159 0.041073
v -0.229042 -0.901446 0.041073
v -0.217758 -0.663193 0.045420
v -0.205589 -0.689017 0.041073
v -0.210133 -0.654499 0.041073
v -0.443372 -0.663193 0.045420
v -0.210133 -0.654499 0.041073
v -0.452065 -0.654499 0.041073
v -0.214059 -0.691286 0.045420
v -0.183877 -0.741434 0.041073
v -0.205589 -0.689017 0.041073
v -0.205589 -0.689017 0.041073
v -0.217758 -0.663193 0.045420
v -0.214059 -0.691286 0.045420
v -0.210133 -0.654499 0.041073
v -0.443372 -0.663193 0.045420
v -0.217758 -0.663193 0.045420
v -0.452065 -0.654499 0.041073
v -0.443372 -0.822524 0.045420
v -0.443372 -0.663193 0.045420
v -0.183877 -0.741434 0.041073
v -0.214059 -0.691286 0.045420
v -0.191471 -0.745818 0.045420
v -0.443372 -0.663193 0.045420
v -0.214059 -0.691286 0.045420
v -0.217758 -0.663193 0.045420
v -0.443372 -0.822524 0.045420
v -0.452065 -0.654499 0.041073
v -0.452065 -0.828369 0.041073
v -0.443372 -0.822524 0.045420
v -0.366532 -0.740033 0.045420
v -0.443372 -0.663193 0.045420
v -0.191471 -0.745818 0.045420
v -0.149338 -0.786446 0.041073
v -0.183877 -0.741434 0.041073
v -0.335887 -0.709388 0.045420
v -0.191471 -0.745818 0.045420
v -0.214059 -0.691286 0.045420
v -0.443372 -0.663193 0.045420
v -0.351209 -0.703041 0.045420
v -0.214059 -0.691286 0.045420
v -0.452065 -0.828369 0.041073
v -0.376503 -0.849777 0.045420
v -0.443372 -0.822524 0.045420
v -0.443372 -0.822524 0.045420
v -0.274323 -0.832241 0.045420
v -0.366532 -0.740033 0.045420
v -0.443372 -0.663193 0.045420
v -0.366532 -0.740033 0.045420
v -0.369975 -0.735545 0.045420
v -0.149338 -0.786446 0.041073
v -0.191471 -0.745818 0.045420
v -0.155539 -0.792646 0.045420
v -0.335887 -0.709388 0.045420
v -0.155539 -0.792646 0.045420
v -0.191471 -0.745818 0.045420
v -0.335887 -0.709388 0.045420
v -0.214059 -0.691286 0.045420
v -0.340375 -0.705945 0.045420
v -0.443372 -0.663193 0.045420
v -0.356818 -0.703780 0.045420
v -0.351209 -0.703041 0.045420
v -0.345601 -0.703780 0.045420
v -0.214059 -0.691286 0.045420
v -0.351209 -0.703041 0.045420
v -0.376503 -0.849777 0.045420
v -0.452065 -0.828369 0.041073
v -0.379501 -0.857943 0.041073
v -0.259001 -0.838588 0.045420
v -0.443372 -0.822524 0.045420
v -0.376503 -0.849777 0.045420
v -0.443372 -0.822524 0.045420
v -0.269836 -0.835685 0.045420
v -0.274323 -0.832241 0.045420
v -0.443372 -0.663193 0.045420
v -0.369975 -0.735545 0.045420
v -0.372140 -0.730319 0.045420
v -0.155539 -0.792646 0.045420
v -0.104326 -0.820985 0.041073
v -0.149338 -0.786446 0.041073
v -0.243679 -0.801596 0.045420
v -0.155539 -0.792646 0.045420
v -0.335887 -0.709388 0.045420
v -0.340375 -0.705945 0.045420
v -0.214059 -0.691286 0.045420
v -0.345601 -0.703780 0.045420
v -0.443372 -0.663193 0.045420
v -0.362044 -0.705945 0.045420
v -0.356818 -0.703780 0.045420
v -0.379501 -0.857943 0.041073
v -0.302621 -0.873986 0.045420
v -0.376503 -0.849777 0.045420
v -0.443372 -0.822524 0.045420
v -0.259001 -0.838588 0.045420
v -0.264610 -0.837849 0.045420
v -0.376503 -0.849777 0.045420
v -0.113020 -0.825272 0.045420
v -0.259001 -0.838588 0.045420
v -0.443372 -0.822524 0.045420
v -0.264610 -0.837849 0.045420
v -0.269836 -0.835685 0.045420
v -0.443372 -0.663193 0.045420
v -0.372140 -0.730319 0.045420
v -0.372878 -0.724711 0.045420
v -0.104326 -0.820985 0.041073
v -0.155539 -0.792646 0.045420
v -0.113020 -0.825272 0.045420
v -0.240235 -0.806084 0.045420
v -0.155539 -0.792646 0.045420
v -0.243679 -0.801596 0.045420
v -0.443372 -0.663193 0.045420
v -0.366532 -0.709388 0.045420
v -0.362044 -0.705945 0.045420
v -0.302621 -0.873986 0.045420
v -0.379501 -0.857943 0.041073
v -0.305037 -0.882342 0.041073
v -0.302621 -0.873986 0.045420
v -0.113020 -0.825272 0.045420
v -0.376503 -0.849777 0.045420
v -0.259001 -0.838588 0.045420
v -0.113020 -0.825272 0.045420
v -0.253393 -0.837849 0.045420
v -0.243679 -0.832241 0.045420
v -0.113020 -0.825272 0.045420
v -0.240235 -0.827753 0.045420
v -0.240235 -0.827753 0.045420
v -0.113020 -0.825272 0.045420
v -0.238070 -0.822527 0.045420
v -0.443372 -0.663193 0.045420
v -0.372878 -0.724711 0.045420
v -0.372140 -0.719102 0.045420
v -0.238070 -0.822527 0.045420
v -0.113020 -0.825272 0.045420
v -0.155539 -0.792646 0.045420
v -0.113020 -0.910535 0.045420
v -0.104326 -0.820985 0.041073
v -0.113020 -0.825272 0.045420
v -0.238070 -0.811310 0.045420
v -0.155539 -0.792646 0.045420
v -0.240235 -0.806084 0.045420
v -0.443372 -0.663193 0.045420
v -0.369975 -0.713876 0.045420
v -0.366532 -0.709388 0.045420
v -0.227220 -0.892940 0.045420
v -0.305037 -0.882342 0.041073
v -0.229042 -0.901446 0.041073
v -0.305037 -0.882342 0.041073
v -0.227220 -0.892940 0.045420
v -0.302621 -0.873986 0.045420
v -0.227220 -0.892940 0.045420
v -0.113020 -0.825272 0.045420
v -0.302621 -0.873986 0.045420
v -0.253393 -0.837849 0.045420
v -0.113020 -0.825272 0.045420
v -0.248166 -0.835685 0.045420
v -0.248166 -0.835685 0.045420
v -0.113020 -0.825272 0.045420
v -0.243679 -0.832241 0.045420
v -0.238070 -0.822527 0.045420
v -0.155539 -0.792646 0.045420
v -0.237332 -0.816919 0.045420
v -0.443372 -0.663193 0.045420
v -0.372140 -0.719102 0.045420
v -0.369975 -0.713876 0.045420
v -0.104326 -0.820985 0.041073
v -0.113020 -0.910535 0.045420
v -0.104326 -0.920198 0.041073
v -0.113020 -0.825272 0.045420
v -0.150672 -0.906546 0.045420
v -0.113020 -0.910535 0.045420
v -0.237332 -0.816919 0.045420
v -0.155539 -0.792646 0.045420
v -0.238070 -0.811310 0.045420
v -0.227220 -0.892940 0.045420
v -0.229042 -0.901446 0.041073
v -0.150672 -0.906546 0.045420
v -0.150672 -0.906546 0.045420
v -0.113020 -0.825272 0.045420
v -0.227220 -0.892940 0.045420
v -0.113020 -0.910535 0.045420
v -0.151892 -0.915159 0.041073
v -0.104326 -0.920198 0.041073
v -0.229042 -0.901446 0.041073
v -0.113020 -0.910535 0.045420
v -0.150672 -0.906546 0.045420
v -0.229042 -0.901446 0.041073
v -0.151892 -0.915159 0.041073
v -0.113020 -0.910535 0.045420
vt 0 0
vn -0.23200897419563388 -0.26455596854023994 -0.9360459259045067
vn -0.4290109813900469 -0.11495299479448826 -0.8959550138452975
vn 0 -0.4472140008114905 -0.8944269883440347
vn -0.384640976899283 -0.222071996733794 -0.8959549917025023
vn 0.4472140008114905 0 -0.8944269883440347
vn 0.3180600951107796 0.2138330610050054 -0.9236412712299897
vn 0 0 -1
vn -0.3140579632691541 -0.314057963269154 -0.8959549047884392
vn 0.15403798678456487 0.4196119622793269 -0.8945379252661405
vn -0.27224611745455396 -0.35479813809342786 -0.8944273770051754
vn 0.12415497140574729 0.4294038921219462 -0.8945377803680302
vn -0.4472140008114905 0 -0.8944269883440347
vn -0.06847901722901537 0.43354708959835725 -0.8985252057121949
vn 0.08586601557272285 0.5201131051775323 -0.8497701955189123
vn 0.09365798975669345 0.4370699632135498 -0.8945378852856045
vn -0.21211599415630633 0.235774984025813 -0.9483759602239554
vn 0.08400199934977205 0.6393459751893519 -0.764316942187217
vn 0.05490997184728479 0.3988688003182903 -0.9153625375360182
vn 0.23200897419563388 0.26455596854023994 0.9360459259045067
vn 0.4290109813900469 0.11495299479448826 0.8959550138452975
vn 0 0.4472140008114905 0.8944269883440347
vn 0.384640976899283 0.222071996733794 0.8959549917025023
vn -0.4472140008114905 0 0.8944269883440347
vn -0.3180600951107796 -0.2138330610050054 0.9236412712299897
vn 0 0 1
vn 0.3140579632691541 0.314057963269154 0.8959549047884392
vn -0.15403798678456487 -0.4196119622793269 0.8945379252661405
vn 0.27224611745455396 0.35479813809342786 0.8944273770051754
vn -0.12415497140574729 -0.4294038921219462 0.8945377803680302
vn 0.06847901722901537 -0.43354708959835725 0.8985252057121949
vn 0.4472140008114905 0 0.8944269883440347
vn -0.09365798975669345 -0.4370699632135498 0.8945378852856045
vn -0.08586601557272285 -0.5201131051775323 0.8497701955189123
vn 0.21211599415630633 -0.235774984025813 0.9483759602239554
vn -0.08400199934977205 -0.6393459751893519 0.764316942187217
vn -0.05490997184728479 -0.3988688003182903 0.9153625375360182
usemtl material_0_0
f 1/1/1 2/1/2 3/1/1
f 4/1/3 5/1/1 6/1/3
f 7/1/2 8/1/4 9/1/2
f 10/1/2 11/1/1 12/1/2
f 13/1/1 14/1/3 15/1/1
f 16/1/5 17/1/6 18/1/5
f 19/1/4 20/1/2 21/1/4
f 22/1/7 23/1/7 24/1/7
f 25/1/6 26/1/5 27/1/6
f 28/1/7 29/1/7 30/1/7
f 31/1/4 32/1/8 33/1/4
f 34/1/7 35/1/7 36/1/7
f 37/1/7 38/1/7 39/1/7
f 40/1/6 41/1/9 42/1/6
f 43/1/7 44/1/7 45/1/7
f 46/1/7 47/1/7 48/1/7
f 49/1/8 50/1/4 51/1/8
f 52/1/7 53/1/7 54/1/7
f 55/1/7 56/1/7 57/1/7
f 58/1/7 59/1/7 60/1/7
f 61/1/7 62/1/7 63/1/7
f 64/1/9 65/1/6 66/1/9
f 67/1/7 68/1/7 69/1/7
f 70/1/7 71/1/7 72/1/7
f 73/1/7 74/1/7 75/1/7
f 76/1/8 77/1/10 78/1/8
f 79/1/7 80/1/7 81/1/7
f 82/1/7 83/1/7 84/1/7
f 85/1/7 86/1/7 87/1/7
f 88/1/9 89/1/11 90/1/9
f 91/1/7 92/1/7 93/1/7
f 94/1/7 95/1/7 96/1/7
f 97/1/7 98/1/7 99/1/7
f 100/1/7 101/1/7 102/1/7
f 103/1/10 104/1/8 105/1/10
f 106/1/7 107/1/7 108/1/7
f 109/1/7 110/1/7 111/1/7
f 112/1/11 113/1/9 114/1/11
f 115/1/7 116/1/7 117/1/7
f 118/1/7 119/1/7 120/1/7
f 121/1/7 122/1/7 123/1/7
f 124/1/7 125/1/7 126/1/7
f 127/1/7 128/1/7 129/1/7
f 130/1/7 131/1/7 132/1/7
f 133/1/12 134/1/12 135/1/13
f 136/1/7 137/1/7 138/1/7
f 139/1/7 140/1/7 141/1/7
f 142/1/14 143/1/11 144/1/15
f 145/1/11 146/1/15 147/1/11
f 148/1/7 149/1/7 150/1/7
f 151/1/7 152/1/7 153/1/7
f 154/1/7 155/1/7 156/1/7
f 157/1/7 158/1/7 159/1/7
f 160/1/7 161/1/7 162/1/7
f 163/1/16 164/1/13 165/1/12
f 166/1/7 167/1/7 168/1/7
f 169/1/7 170/1/7 171/1/7
f 172/1/17 173/1/14 174/1/15
f 175/1/7 176/1/7 177/1/7
f 178/1/16 179/1/18 180/1/13
f 181/1/17 182/1/13 183/1/14
f 184/1/13 185/1/18 186/1/14
usemtl material_1_0
f 187/1/19 188/1/20 189/1/19
f 190/1/21 191/1/19 192/1/21
f 193/1/20 194/1/22 195/1/20
f 196/1/20 197/1/19 198/1/20
f 199/1/19 200/1/21 201/1/19
f 202/1/23 203/1/24 204/1/23
f 205/1/22 206/1/20 207/1/22
f 208/1/25 209/1/25 210/1/25
f 211/1/24 212/1/23 213/1/24
f 214/1/25 215/1/25 216/1/25
f 217/1/22 218/1/26 219/1/22
f 220/1/25 221/1/25 222/1/25
f 223/1/25 224/1/25 225/1/25
f 226/1/24 227/1/27 228/1/24
f 229/1/25 230/1/25 231/1/25
f 232/1/25 233/1/25 234/1/25
f 235/1/26 236/1/22 237/1/26
f 238/1/25 239/1/25 240/1/25
f 241/1/25 242/1/25 243/1/25
f 244/1/25 245/1/25 246/1/25
f 247/1/25 248/1/25 249/1/25
f 250/1/27 251/1/24 252/1/27
f 253/1/25 254/1/25 255/1/25
f 256/1/25 257/1/25 258/1/25
f 259/1/25 260/1/25 261/1/25
f 262/1/26 263/1/28 264/1/26
f 265/1/25 266/1/25 267/1/25
f 268/1/25 269/1/25 270/1/25
f 271/1/25 272/1/25 273/1/25
f 274/1/27 275/1/29 276/1/27
f 277/1/25 278/1/25 279/1/25
f 280/1/25 281/1/25 282/1/25
f 283/1/25 284/1/25 285/1/25
f 286/1/25 287/1/25 288/1/25
f 289/1/28 290/1/26 291/1/28
f 292/1/25 293/1/25 294/1/25
f 295/1/25 296/1/25 297/1/25
f 298/1/29 299/1/27 300/1/29
f 301/1/25 302/1/25 303/1/25
f 304/1/25 305/1/25 306/1/25
f 307/1/25 308/1/25 309/1/25
f 310/1/25 311/1/25 312/1/25
f 313/1/25 314/1/25 315/1/25
f 316/1/25 317/1/25 318/1/25
f 319/1/30 320/1/31 321/1/31
f 322/1/25 323/1/25 324/1/25
f 325/1/25 326/1/25 327/1/25
f 328/1/32 329/1/29 330/1/33
f 331/1/29 332/1/32 333/1/29
f 334/1/25 335/1/25 336/1/25
f 337/1/25 338/1/25 339/1/25
f 340/1/25 341/1/25 342/1/25
f 343/1/25 344/1/25 345/1/25
f 346/1/25 347/1/25 348/1/25
f 349/1/31 350/1/30 351/1/34
f 352/1/25 353/1/25 354/1/25
f 355/1/25 356/1/25 357/1/25
f 358/1/32 359/1/33 360/1/35
f 361/1/25 362/1/25 363/1/25
f 364/1/30 365/1/36 366/1/34
f 367/1/33 368/1/30 369/1/35
f 370/1/33 371/1/36 372/1/30
