# SSTK version 0.8.0
# 4
mtllib original-4.mtl
o 3dw.7bdffa69c49eb1d7bf653fdedcac4c5b#4/Model/mesh9/mesh9-geometry/material_0/component_3
v 0.205260 0.552732 -0.039341
v 0.210812 0.552001 -0.041515
v 0.210812 0.552001 -0.039341
v 0.200086 0.554875 -0.039341
v 0.205260 0.552732 -0.041515
v 0.205260 0.552732 -0.039341
v 0.192234 0.562728 -0.041515
v 0.195643 0.558284 -0.039341
v 0.192234 0.562728 -0.039341
v 0.190091 0.567901 -0.041515
v 0.192234 0.562728 -0.039341
v 0.190091 0.567901 -0.039341
v 0.189359 0.573454 -0.041515
v 0.190091 0.567901 -0.039341
v 0.189359 0.573454 -0.039341
v 0.190091 0.579006 -0.041515
v 0.189359 0.573454 -0.039341
v 0.190091 0.579006 -0.039341
v 0.192234 0.584179 -0.041515
v 0.190091 0.579006 -0.039341
v 0.192234 0.584179 -0.039341
v 0.195643 0.588623 -0.041515
v 0.192234 0.584179 -0.039341
v 0.195643 0.588623 -0.039341
v 0.200086 0.592032 -0.039341
v 0.195643 0.588623 -0.041515
v 0.195643 0.588623 -0.039341
v 0.195643 0.558284 -0.039341
v 0.200086 0.554875 -0.041515
v 0.200086 0.554875 -0.039341
v 0.210812 0.552001 -0.041515
v 0.205260 0.552732 -0.039341
v 0.205260 0.552732 -0.041515
v 0.216364 0.552732 -0.041515
v 0.210812 0.552001 -0.039341
v 0.210812 0.552001 -0.041515
v 0.205260 0.552732 -0.041515
v 0.200086 0.554875 -0.039341
v 0.200086 0.554875 -0.041515
v 0.195643 0.558284 -0.039341
v 0.192234 0.562728 -0.041515
v 0.195643 0.558284 -0.041515
v 0.192234 0.562728 -0.039341
v 0.190091 0.567901 -0.041515
v 0.192234 0.562728 -0.041515
v 0.190091 0.567901 -0.039341
v 0.189359 0.573454 -0.041515
v 0.190091 0.567901 -0.041515
v 0.189359 0.573454 -0.039341
v 0.190091 0.579006 -0.041515
v 0.189359 0.573454 -0.041515
v 0.190091 0.579006 -0.039341
v 0.192234 0.584179 -0.041515
v 0.190091 0.579006 -0.041515
v 0.192234 0.584179 -0.039341
v 0.195643 0.588623 -0.041515
v 0.192234 0.584179 -0.041515
v 0.205260 0.594175 -0.039341
v 0.200086 0.592032 -0.041515
v 0.200086 0.592032 -0.039341
v 0.195643 0.588623 -0.041515
v 0.200086 0.592032 -0.039341
v 0.200086 0.592032 -0.041515
v 0.210812 0.552001 -0.039341
v 0.216364 0.552732 -0.041515
v 0.216364 0.552732 -0.039341
v 0.200086 0.554875 -0.041515
v 0.195643 0.558284 -0.039341
v 0.195643 0.558284 -0.041515
v 0.216364 0.552732 -0.039341
v 0.221538 0.554875 -0.041515
v 0.221538 0.554875 -0.039341
v 0.225981 0.558284 -0.041515
v 0.229390 0.562728 -0.039341
v 0.225981 0.558284 -0.039341
v 0.229390 0.562728 -0.041515
v 0.231533 0.567901 -0.039341
v 0.229390 0.562728 -0.039341
v 0.221538 0.554875 -0.039341
v 0.225981 0.558284 -0.041515
v 0.225981 0.558284 -0.039341
v 0.231533 0.567901 -0.041515
v 0.232264 0.573454 -0.039341
v 0.231533 0.567901 -0.039341
v 0.232264 0.573454 -0.041515
v 0.231533 0.579006 -0.039341
v 0.232264 0.573454 -0.039341
v 0.231533 0.579006 -0.041515
v 0.229390 0.584179 -0.039341
v 0.231533 0.579006 -0.039341
v 0.229390 0.584179 -0.041515
v 0.225981 0.588623 -0.039341
v 0.229390 0.584179 -0.039341
v 0.210812 0.594906 -0.039341
v 0.205260 0.594175 -0.041515
v 0.205260 0.594175 -0.039341
v 0.200086 0.592032 -0.041515
v 0.205260 0.594175 -0.039341
v 0.205260 0.594175 -0.041515
v 0.225981 0.588623 -0.039341
v 0.221538 0.592032 -0.041515
v 0.221538 0.592032 -0.039341
v 0.221538 0.554875 -0.041515
v 0.216364 0.552732 -0.039341
v 0.216364 0.552732 -0.041515
v 0.225981 0.558284 -0.041515
v 0.221538 0.554875 -0.039341
v 0.221538 0.554875 -0.041515
v 0.229390 0.562728 -0.039341
v 0.225981 0.558284 -0.041515
v 0.229390 0.562728 -0.041515
v 0.231533 0.567901 -0.039341
v 0.229390 0.562728 -0.041515
v 0.231533 0.567901 -0.041515
v 0.232264 0.573454 -0.039341
v 0.231533 0.567901 -0.041515
v 0.232264 0.573454 -0.041515
v 0.231533 0.579006 -0.039341
v 0.232264 0.573454 -0.041515
v 0.231533 0.579006 -0.041515
v 0.229390 0.584179 -0.039341
v 0.231533 0.579006 -0.041515
v 0.229390 0.584179 -0.041515
v 0.225981 0.588623 -0.039341
v 0.229390 0.584179 -0.041515
v 0.225981 0.588623 -0.041515
v 0.216364 0.594175 -0.039341
v 0.210812 0.594906 -0.041515
v 0.210812 0.594906 -0.039341
v 0.205260 0.594175 -0.041515
v 0.210812 0.594906 -0.039341
v 0.210812 0.594906 -0.041515
v 0.221538 0.592032 -0.041515
v 0.225981 0.588623 -0.039341
v 0.225981 0.588623 -0.041515
v 0.216364 0.594175 -0.041515
v 0.221538 0.592032 -0.039341
v 0.221538 0.592032 -0.041515
v 0.221538 0.592032 -0.039341
v 0.216364 0.594175 -0.041515
v 0.216364 0.594175 -0.039341
v 0.210812 0.594906 -0.041515
v 0.216364 0.594175 -0.039341
v 0.216364 0.594175 -0.041515
v 0.210812 0.552001 -0.039341
v 0.210812 0.552001 -0.041515
v 0.205260 0.552732 -0.039341
v 0.205260 0.552732 -0.039341
v 0.205260 0.552732 -0.041515
v 0.200086 0.554875 -0.039341
v 0.192234 0.562728 -0.039341
v 0.195643 0.558284 -0.039341
v 0.192234 0.562728 -0.041515
v 0.190091 0.567901 -0.039341
v 0.192234 0.562728 -0.039341
v 0.190091 0.567901 -0.041515
v 0.189359 0.573454 -0.039341
v 0.190091 0.567901 -0.039341
v 0.189359 0.573454 -0.041515
v 0.190091 0.579006 -0.039341
v 0.189359 0.573454 -0.039341
v 0.190091 0.579006 -0.041515
v 0.192234 0.584179 -0.039341
v 0.190091 0.579006 -0.039341
v 0.192234 0.584179 -0.041515
v 0.195643 0.588623 -0.039341
v 0.192234 0.584179 -0.039341
v 0.195643 0.588623 -0.041515
v 0.195643 0.588623 -0.039341
v 0.195643 0.588623 -0.041515
v 0.200086 0.592032 -0.039341
v 0.200086 0.554875 -0.039341
v 0.200086 0.554875 -0.041515
v 0.195643 0.558284 -0.039341
v 0.205260 0.552732 -0.041515
v 0.205260 0.552732 -0.039341
v 0.210812 0.552001 -0.041515
v 0.210812 0.552001 -0.041515
v 0.210812 0.552001 -0.039341
v 0.216364 0.552732 -0.041515
v 0.200086 0.554875 -0.041515
v 0.200086 0.554875 -0.039341
v 0.205260 0.552732 -0.041515
v 0.195643 0.558284 -0.041515
v 0.192234 0.562728 -0.041515
v 0.195643 0.558284 -0.039341
v 0.192234 0.562728 -0.041515
v 0.190091 0.567901 -0.041515
v 0.192234 0.562728 -0.039341
v 0.190091 0.567901 -0.041515
v 0.189359 0.573454 -0.041515
v 0.190091 0.567901 -0.039341
v 0.189359 0.573454 -0.041515
v 0.190091 0.579006 -0.041515
v 0.189359 0.573454 -0.039341
v 0.190091 0.579006 -0.041515
v 0.192234 0.584179 -0.041515
v 0.190091 0.579006 -0.039341
v 0.192234 0.584179 -0.041515
v 0.195643 0.588623 -0.041515
v 0.192234 0.584179 -0.039341
v 0.200086 0.592032 -0.039341
v 0.200086 0.592032 -0.041515
v 0.205260 0.594175 -0.039341
v 0.200086 0.592032 -0.041515
v 0.200086 0.592032 -0.039341
v 0.195643 0.588623 -0.041515
v 0.216364 0.552732 -0.039341
v 0.216364 0.552732 -0.041515
v 0.210812 0.552001 -0.039341
v 0.195643 0.558284 -0.041515
v 0.195643 0.558284 -0.039341
v 0.200086 0.554875 -0.041515
v 0.221538 0.554875 -0.039341
v 0.221538 0.554875 -0.041515
v 0.216364 0.552732 -0.039341
v 0.225981 0.558284 -0.039341
v 0.229390 0.562728 -0.039341
v 0.225981 0.558284 -0.041515
v 0.229390 0.562728 -0.039341
v 0.231533 0.567901 -0.039341
v 0.229390 0.562728 -0.041515
v 0.225981 0.558284 -0.039341
v 0.225981 0.558284 -0.041515
v 0.221538 0.554875 -0.039341
v 0.231533 0.567901 -0.039341
v 0.232264 0.573454 -0.039341
v 0.231533 0.567901 -0.041515
v 0.232264 0.573454 -0.039341
v 0.231533 0.579006 -0.039341
v 0.232264 0.573454 -0.041515
v 0.231533 0.579006 -0.039341
v 0.229390 0.584179 -0.039341
v 0.231533 0.579006 -0.041515
v 0.229390 0.584179 -0.039341
v 0.225981 0.588623 -0.039341
v 0.229390 0.584179 -0.041515
v 0.205260 0.594175 -0.039341
v 0.205260 0.594175 -0.041515
v 0.210812 0.594906 -0.039341
v 0.205260 0.594175 -0.041515
v 0.205260 0.594175 -0.039341
v 0.200086 0.592032 -0.041515
v 0.221538 0.592032 -0.039341
v 0.221538 0.592032 -0.041515
v 0.225981 0.588623 -0.039341
v 0.216364 0.552732 -0.041515
v 0.216364 0.552732 -0.039341
v 0.221538 0.554875 -0.041515
v 0.221538 0.554875 -0.041515
v 0.221538 0.554875 -0.039341
v 0.225981 0.558284 -0.041515
v 0.229390 0.562728 -0.041515
v 0.225981 0.558284 -0.041515
v 0.229390 0.562728 -0.039341
v 0.231533 0.567901 -0.041515
v 0.229390 0.562728 -0.041515
v 0.231533 0.567901 -0.039341
v 0.232264 0.573454 -0.041515
v 0.231533 0.567901 -0.041515
v 0.232264 0.573454 -0.039341
v 0.231533 0.579006 -0.041515
v 0.232264 0.573454 -0.041515
v 0.231533 0.579006 -0.039341
v 0.229390 0.584179 -0.041515
v 0.231533 0.579006 -0.041515
v 0.229390 0.584179 -0.039341
v 0.225981 0.588623 -0.041515
v 0.229390 0.584179 -0.041515
v 0.225981 0.588623 -0.039341
v 0.210812 0.594906 -0.039341
v 0.210812 0.594906 -0.041515
v 0.216364 0.594175 -0.039341
v 0.210812 0.594906 -0.041515
v 0.210812 0.594906 -0.039341
v 0.205260 0.594175 -0.041515
v 0.225981 0.588623 -0.041515
v 0.225981 0.588623 -0.039341
v 0.221538 0.592032 -0.041515
v 0.221538 0.592032 -0.041515
v 0.221538 0.592032 -0.039341
v 0.216364 0.594175 -0.041515
v 0.216364 0.594175 -0.039341
v 0.216364 0.594175 -0.041515
v 0.221538 0.592032 -0.039341
v 0.216364 0.594175 -0.041515
v 0.216364 0.594175 -0.039341
v 0.210812 0.594906 -0.041515
vt 0 0
vn -0.258818974617074 -0.9659258451755841 0
vn 0 -1 0
vn -0.5000001873976235 -0.8660252955903432 0
vn -0.8660252955903435 -0.5000001873976231 0
vn -0.7071067811865477 -0.7071067811865475 0
vn -0.9659258451755843 -0.25881897461707354 0
vn -1 0 0
vn -0.9659258451755841 0.258818974617074 0
vn -0.8660252955903432 0.5000001873976235 0
vn -0.7071067811865475 0.7071067811865477 0
vn -0.5000001873976231 0.8660252955903435 0
vn 0.25881897461707354 -0.9659258451755843 0
vn -0.25881897461707354 0.9659258451755843 0
vn 0.5000001873976231 -0.8660252955903435 0
vn 0.7071067811865475 -0.7071067811865477 0
vn 0.8660252955903432 -0.5000001873976235 0
vn 0.9659258451755841 -0.258818974617074 0
vn 1 0 0
vn 0.9659258451755843 0.25881897461707354 0
vn 0.8660252955903435 0.5000001873976231 0
vn 0.7071067811865477 0.7071067811865475 0
vn 0 1 0
vn 0.5000001873976235 0.8660252955903432 0
vn 0.258818974617074 0.9659258451755841 0
usemtl material_0_0
f 1/1/1 2/1/2 3/1/2
f 4/1/3 5/1/1 6/1/1
f 7/1/4 8/1/5 9/1/4
f 10/1/6 11/1/4 12/1/6
f 13/1/7 14/1/6 15/1/7
f 16/1/8 17/1/7 18/1/8
f 19/1/9 20/1/8 21/1/9
f 22/1/10 23/1/9 24/1/10
f 25/1/11 26/1/10 27/1/10
f 28/1/5 29/1/3 30/1/3
f 31/1/2 32/1/1 33/1/1
f 34/1/12 35/1/2 36/1/2
f 37/1/1 38/1/3 39/1/3
f 40/1/5 41/1/4 42/1/5
f 43/1/4 44/1/6 45/1/4
f 46/1/6 47/1/7 48/1/6
f 49/1/7 50/1/8 51/1/7
f 52/1/8 53/1/9 54/1/8
f 55/1/9 56/1/10 57/1/9
f 58/1/13 59/1/11 60/1/11
f 61/1/10 62/1/11 63/1/11
f 64/1/2 65/1/12 66/1/12
f 67/1/3 68/1/5 69/1/5
f 70/1/12 71/1/14 72/1/14
f 73/1/15 74/1/16 75/1/15
f 76/1/16 77/1/17 78/1/16
f 79/1/14 80/1/15 81/1/15
f 82/1/17 83/1/18 84/1/17
f 85/1/18 86/1/19 87/1/18
f 88/1/19 89/1/20 90/1/19
f 91/1/20 92/1/21 93/1/20
f 94/1/22 95/1/13 96/1/13
f 97/1/11 98/1/13 99/1/13
f 100/1/21 101/1/23 102/1/23
f 103/1/14 104/1/12 105/1/12
f 106/1/15 107/1/14 108/1/14
f 109/1/16 110/1/15 111/1/16
f 112/1/17 113/1/16 114/1/17
f 115/1/18 116/1/17 117/1/18
f 118/1/19 119/1/18 120/1/19
f 121/1/20 122/1/19 123/1/20
f 124/1/21 125/1/20 126/1/21
f 127/1/24 128/1/22 129/1/22
f 130/1/13 131/1/22 132/1/22
f 133/1/23 134/1/21 135/1/21
f 136/1/24 137/1/23 138/1/23
f 139/1/23 140/1/24 141/1/24
f 142/1/22 143/1/24 144/1/24
usemtl material_1_0
f 145/1/22 146/1/22 147/1/24
f 148/1/24 149/1/24 150/1/23
f 151/1/20 152/1/21 153/1/20
f 154/1/19 155/1/20 156/1/19
f 157/1/18 158/1/19 159/1/18
f 160/1/17 161/1/18 162/1/17
f 163/1/16 164/1/17 165/1/16
f 166/1/15 167/1/16 168/1/15
f 169/1/15 170/1/15 171/1/14
f 172/1/23 173/1/23 174/1/21
f 175/1/24 176/1/24 177/1/22
f 178/1/22 179/1/22 180/1/13
f 181/1/23 182/1/23 183/1/24
f 184/1/21 185/1/20 186/1/21
f 187/1/20 188/1/19 189/1/20
f 190/1/19 191/1/18 192/1/19
f 193/1/18 194/1/17 195/1/18
f 196/1/17 197/1/16 198/1/17
f 199/1/16 200/1/15 201/1/16
f 202/1/14 203/1/14 204/1/12
f 205/1/14 206/1/14 207/1/15
f 208/1/13 209/1/13 210/1/22
f 211/1/21 212/1/21 213/1/23
f 214/1/11 215/1/11 216/1/13
f 217/1/10 218/1/9 219/1/10
f 220/1/9 221/1/8 222/1/9
f 223/1/10 224/1/10 225/1/11
f 226/1/8 227/1/7 228/1/8
f 229/1/7 230/1/6 231/1/7
f 232/1/6 233/1/4 234/1/6
f 235/1/4 236/1/5 237/1/4
f 238/1/12 239/1/12 240/1/2
f 241/1/12 242/1/12 243/1/14
f 244/1/3 245/1/3 246/1/5
f 247/1/13 248/1/13 249/1/11
f 250/1/11 251/1/11 252/1/10
f 253/1/9 254/1/10 255/1/9
f 256/1/8 257/1/9 258/1/8
f 259/1/7 260/1/8 261/1/7
f 262/1/6 263/1/7 264/1/6
f 265/1/4 266/1/6 267/1/4
f 268/1/5 269/1/4 270/1/5
f 271/1/2 272/1/2 273/1/1
f 274/1/2 275/1/2 276/1/12
f 277/1/5 278/1/5 279/1/3
f 280/1/3 281/1/3 282/1/1
f 283/1/1 284/1/1 285/1/3
f 286/1/1 287/1/1 288/1/2
