# SSTK version 0.8.0
# 7
mtllib original-7.mtl
o 3dw.7bdffa69c49eb1d7bf653fdedcac4c5b#4/Model/mesh9/mesh9-geometry/material_1/component_1
v 0.224874 0.756338 -0.037168
v 0.196749 0.756338 -0.037168
v 0.210812 0.758190 -0.037168
v 0.210812 0.758190 -0.037168
v 0.196749 0.756338 -0.037168
v 0.224874 0.756338 -0.037168
v 0.237979 0.750910 -0.037168
v 0.183645 0.750910 -0.037168
v 0.224874 0.756338 -0.037168
v 0.224874 0.756338 -0.037168
v 0.183645 0.750910 -0.037168
v 0.237979 0.750910 -0.037168
v 0.224874 0.756338 -0.037168
v 0.183645 0.750910 -0.037168
v 0.196749 0.756338 -0.037168
v 0.196749 0.756338 -0.037168
v 0.183645 0.750910 -0.037168
v 0.224874 0.756338 -0.037168
v 0.249232 0.742276 -0.037168
v 0.183645 0.750910 -0.037168
v 0.237979 0.750910 -0.037168
v 0.237979 0.750910 -0.037168
v 0.183645 0.750910 -0.037168
v 0.249232 0.742276 -0.037168
v 0.249232 0.742276 -0.037168
v 0.172392 0.742276 -0.037168
v 0.183645 0.750910 -0.037168
v 0.183645 0.750910 -0.037168
v 0.172392 0.742276 -0.037168
v 0.249232 0.742276 -0.037168
v 0.263295 0.689793 -0.037168
v 0.158329 0.689793 -0.037168
v 0.156478 0.703856 -0.037168
v 0.156478 0.703856 -0.037168
v 0.158329 0.689793 -0.037168
v 0.263295 0.689793 -0.037168
v 0.158329 0.717918 -0.037168
v 0.265146 0.703856 -0.037168
v 0.156478 0.703856 -0.037168
v 0.156478 0.703856 -0.037168
v 0.265146 0.703856 -0.037168
v 0.158329 0.717918 -0.037168
v 0.257867 0.731023 -0.037168
v 0.172392 0.742276 -0.037168
v 0.249232 0.742276 -0.037168
v 0.249232 0.742276 -0.037168
v 0.172392 0.742276 -0.037168
v 0.257867 0.731023 -0.037168
v 0.257867 0.731023 -0.037168
v 0.163757 0.731023 -0.037168
v 0.172392 0.742276 -0.037168
v 0.172392 0.742276 -0.037168
v 0.163757 0.731023 -0.037168
v 0.257867 0.731023 -0.037168
v 0.263295 0.717918 -0.037168
v 0.158329 0.717918 -0.037168
v 0.163757 0.731023 -0.037168
v 0.163757 0.731023 -0.037168
v 0.158329 0.717918 -0.037168
v 0.263295 0.717918 -0.037168
v 0.257867 0.676689 -0.037168
v 0.158329 0.689793 -0.037168
v 0.263295 0.689793 -0.037168
v 0.263295 0.689793 -0.037168
v 0.158329 0.689793 -0.037168
v 0.257867 0.676689 -0.037168
v 0.263295 0.689793 -0.037168
v 0.156478 0.703856 -0.037168
v 0.265146 0.703856 -0.037168
v 0.265146 0.703856 -0.037168
v 0.156478 0.703856 -0.037168
v 0.263295 0.689793 -0.037168
v 0.265146 0.703856 -0.037168
v 0.158329 0.717918 -0.037168
v 0.263295 0.717918 -0.037168
v 0.263295 0.717918 -0.037168
v 0.158329 0.717918 -0.037168
v 0.265146 0.703856 -0.037168
v 0.257867 0.676689 -0.037168
v 0.163757 0.676689 -0.037168
v 0.158329 0.689793 -0.037168
v 0.158329 0.689793 -0.037168
v 0.163757 0.676689 -0.037168
v 0.257867 0.676689 -0.037168
v 0.263295 0.717918 -0.037168
v 0.163757 0.731023 -0.037168
v 0.257867 0.731023 -0.037168
v 0.257867 0.731023 -0.037168
v 0.163757 0.731023 -0.037168
v 0.263295 0.717918 -0.037168
v 0.249232 0.665436 -0.037168
v 0.163757 0.676689 -0.037168
v 0.257867 0.676689 -0.037168
v 0.257867 0.676689 -0.037168
v 0.163757 0.676689 -0.037168
v 0.249232 0.665436 -0.037168
v 0.249232 0.665436 -0.037168
v 0.172392 0.665436 -0.037168
v 0.163757 0.676689 -0.037168
v 0.163757 0.676689 -0.037168
v 0.172392 0.665436 -0.037168
v 0.249232 0.665436 -0.037168
v 0.237979 0.656801 -0.037168
v 0.172392 0.665436 -0.037168
v 0.249232 0.665436 -0.037168
v 0.249232 0.665436 -0.037168
v 0.172392 0.665436 -0.037168
v 0.237979 0.656801 -0.037168
v 0.237979 0.656801 -0.037168
v 0.183645 0.656801 -0.037168
v 0.172392 0.665436 -0.037168
v 0.172392 0.665436 -0.037168
v 0.183645 0.656801 -0.037168
v 0.237979 0.656801 -0.037168
v 0.224874 0.651373 -0.037168
v 0.183645 0.656801 -0.037168
v 0.237979 0.656801 -0.037168
v 0.237979 0.656801 -0.037168
v 0.183645 0.656801 -0.037168
v 0.224874 0.651373 -0.037168
v 0.224874 0.651373 -0.037168
v 0.196749 0.651373 -0.037168
v 0.183645 0.656801 -0.037168
v 0.183645 0.656801 -0.037168
v 0.196749 0.651373 -0.037168
v 0.224874 0.651373 -0.037168
v 0.196749 0.651373 -0.037168
v 0.224874 0.651373 -0.037168
v 0.210812 0.649521 -0.037168
v 0.210812 0.649521 -0.037168
v 0.224874 0.651373 -0.037168
v 0.196749 0.651373 -0.037168
vt 0 0
vn -0.11269397236736925 -0.42058089980602964 -0.9002287349948418
vn 0.11269397236736906 -0.42058089980602964 -0.9002287349948418
vn 0 -0.43541778015829 -0.9002285025047957
vn 0 0.43541778015829 0.9002285025047957
vn -0.11269397236736906 0.42058089980602964 0.9002287349948418
vn 0.11269397236736925 0.42058089980602964 0.9002287349948418
vn -0.21770889452821965 -0.3770828123878384 -0.9002285209017646
vn 0.21770889452821948 -0.37708281238783853 -0.9002285209017646
vn -0.21770889452821948 0.37708281238783853 0.9002285209017646
vn 0.21770889452821965 0.3770828123878384 0.9002285209017646
vn -0.3078868330478147 -0.3078868330478146 -0.9002285243601061
vn 0.3078868330478147 0.3078868330478146 0.9002285243601061
vn 0.3078868330478146 -0.3078868330478147 -0.9002285243601061
vn -0.3078868330478146 0.3078868330478147 0.9002285243601061
vn -0.42058089980602964 0.11269397236736925 -0.9002287349948418
vn 0.42058089980602964 0.11269397236736906 -0.9002287349948418
vn 0.33881799558970005 0 -0.9408519362070622
vn -0.33881799558970005 0 0.9408519362070622
vn -0.42058089980602964 -0.11269397236736906 0.9002287349948418
vn 0.42058089980602964 -0.11269397236736925 0.9002287349948418
vn 0.42058089980602964 -0.11269397236736925 -0.9002287349948418
vn -0.43541778015829 0 -0.9002285025047957
vn 0.43541778015829 0 0.9002285025047957
vn -0.42058089980602964 0.11269397236736925 0.9002287349948418
vn -0.37708281238783853 -0.21770889452821948 -0.9002285209017646
vn 0.37708281238783853 0.21770889452821948 0.9002285209017646
vn 0.3770828123878384 -0.21770889452821965 -0.9002285209017646
vn -0.3770828123878384 0.21770889452821965 0.9002285209017646
vn -0.42058089980602964 -0.11269397236736906 -0.9002287349948418
vn 0.42058089980602964 0.11269397236736906 0.9002287349948418
vn -0.3770828123878384 0.21770889452821965 -0.9002285209017646
vn 0.3770828123878384 -0.21770889452821965 0.9002285209017646
vn 0 0 -1
vn 0 0 1
vn 0.37708281238783853 0.21770889452821948 -0.9002285209017646
vn -0.37708281238783853 -0.21770889452821948 0.9002285209017646
vn -0.3078868330478146 0.3078868330478147 -0.9002285243601061
vn 0.3078868330478146 -0.3078868330478147 0.9002285243601061
vn 0.3078868330478147 0.3078868330478146 -0.9002285243601061
vn -0.3078868330478147 -0.3078868330478146 0.9002285243601061
vn -0.21770889452821948 0.37708281238783853 -0.9002285209017646
vn 0.21770889452821948 -0.37708281238783853 0.9002285209017646
vn 0.21770889452821965 0.3770828123878384 -0.9002285209017646
vn -0.21770889452821965 -0.3770828123878384 0.9002285209017646
vn -0.11269397236736906 0.42058089980602964 -0.9002287349948418
vn 0.11269397236736906 -0.42058089980602964 0.9002287349948418
vn 0.11269397236736925 0.42058089980602964 -0.9002287349948418
vn -0.11269397236736925 -0.42058089980602964 0.9002287349948418
vn 0 0.43541778015829 -0.9002285025047957
vn 0 -0.43541778015829 0.9002285025047957
usemtl material_0_0
f 1/1/1 2/1/2 3/1/3
f 4/1/4 5/1/5 6/1/6
f 7/1/7 8/1/8 9/1/1
f 10/1/6 11/1/9 12/1/10
f 13/1/1 14/1/8 15/1/2
f 16/1/5 17/1/9 18/1/6
f 19/1/11 20/1/8 21/1/7
f 22/1/10 23/1/9 24/1/12
f 25/1/11 26/1/13 27/1/8
f 28/1/9 29/1/14 30/1/12
f 31/1/15 32/1/16 33/1/17
f 34/1/18 35/1/19 36/1/20
f 37/1/21 38/1/22 39/1/17
f 40/1/18 41/1/23 42/1/24
f 43/1/25 44/1/13 45/1/11
f 46/1/12 47/1/14 48/1/26
f 49/1/25 50/1/27 51/1/13
f 52/1/14 53/1/28 54/1/26
f 55/1/29 56/1/21 57/1/27
f 58/1/28 59/1/24 60/1/30
f 61/1/31 62/1/16 63/1/15
f 64/1/20 65/1/19 66/1/32
f 67/1/15 68/1/17 69/1/33
f 70/1/34 71/1/18 72/1/20
f 73/1/22 74/1/21 75/1/29
f 76/1/30 77/1/24 78/1/23
f 79/1/31 80/1/35 81/1/16
f 82/1/19 83/1/36 84/1/32
f 85/1/29 86/1/27 87/1/25
f 88/1/26 89/1/28 90/1/30
f 91/1/37 92/1/35 93/1/31
f 94/1/32 95/1/36 96/1/38
f 97/1/37 98/1/39 99/1/35
f 100/1/36 101/1/40 102/1/38
f 103/1/41 104/1/39 105/1/37
f 106/1/38 107/1/40 108/1/42
f 109/1/41 110/1/43 111/1/39
f 112/1/40 113/1/44 114/1/42
f 115/1/45 116/1/43 117/1/41
f 118/1/42 119/1/44 120/1/46
f 121/1/45 122/1/47 123/1/43
f 124/1/44 125/1/48 126/1/46
f 127/1/47 128/1/45 129/1/49
f 130/1/50 131/1/46 132/1/48
