# SSTK version 0.8.0
# 1
mtllib original-1.mtl
o 3dw.7bdffa69c49eb1d7bf653fdedcac4c5b#4/Model/mesh9/mesh9-geometry/material_0/component_0
v -0.035562 -0.672670 0.054113
v -0.028259 -0.689231 0.041073
v -0.023874 -0.681638 0.054113
v -0.028259 -0.689231 0.041073
v -0.035562 -0.672670 0.054113
v -0.041762 -0.678870 0.041073
v -0.012533 -0.695745 0.041073
v -0.023874 -0.681638 0.054113
v -0.028259 -0.689231 0.041073
v -0.023874 -0.681638 0.054113
v 0.032558 -0.681638 0.054113
v -0.035562 -0.672670 0.054113
v -0.035562 -0.672670 0.054113
v -0.052124 -0.665366 0.041073
v -0.041762 -0.678870 0.041073
v -0.023874 -0.681638 0.054113
v -0.012533 -0.695745 0.041073
v -0.010264 -0.687275 0.054113
v -0.023874 -0.681638 0.054113
v 0.018948 -0.687275 0.054113
v 0.032558 -0.681638 0.054113
v -0.035562 -0.672670 0.054113
v 0.032558 -0.681638 0.054113
v 0.044246 -0.672670 0.054113
v -0.052124 -0.665366 0.041073
v -0.035562 -0.672670 0.054113
v -0.044530 -0.660982 0.054113
v -0.012533 -0.695745 0.041073
v 0.004342 -0.689198 0.054113
v -0.010264 -0.687275 0.054113
v -0.010264 -0.687275 0.054113
v 0.018948 -0.687275 0.054113
v -0.023874 -0.681638 0.054113
v 0.021217 -0.695745 0.041073
v 0.032558 -0.681638 0.054113
v 0.018948 -0.687275 0.054113
v 0.036942 -0.689231 0.041073
v 0.044246 -0.672670 0.054113
v 0.032558 -0.681638 0.054113
v -0.035562 -0.672670 0.054113
v 0.044246 -0.672670 0.054113
v -0.044530 -0.660982 0.054113
v -0.044530 -0.660982 0.054113
v -0.058637 -0.649641 0.041073
v -0.052124 -0.665366 0.041073
v 0.004342 -0.689198 0.054113
v -0.012533 -0.695745 0.041073
v 0.004342 -0.697967 0.041073
v 0.018948 -0.687275 0.054113
v -0.010264 -0.687275 0.054113
v 0.004342 -0.689198 0.054113
v 0.032558 -0.681638 0.054113
v 0.021217 -0.695745 0.041073
v 0.036942 -0.689231 0.041073
v 0.018948 -0.687275 0.054113
v 0.004342 -0.697967 0.041073
v 0.021217 -0.695745 0.041073
v 0.044246 -0.672670 0.054113
v 0.036942 -0.689231 0.041073
v 0.050446 -0.678870 0.041073
v -0.044530 -0.660982 0.054113
v 0.044246 -0.672670 0.054113
v 0.053214 -0.660982 0.054113
v -0.058637 -0.649641 0.041073
v -0.044530 -0.660982 0.054113
v -0.050168 -0.647372 0.054113
v 0.004342 -0.697967 0.041073
v 0.018948 -0.687275 0.054113
v 0.004342 -0.689198 0.054113
v 0.050446 -0.678870 0.041073
v 0.053214 -0.660982 0.054113
v 0.044246 -0.672670 0.054113
v -0.044530 -0.660982 0.054113
v 0.053214 -0.660982 0.054113
v -0.050168 -0.647372 0.054113
v -0.050168 -0.647372 0.054113
v -0.060859 -0.632766 0.041073
v -0.058637 -0.649641 0.041073
v 0.053214 -0.660982 0.054113
v 0.050446 -0.678870 0.041073
v 0.060808 -0.665366 0.041073
v -0.050168 -0.647372 0.054113
v 0.053214 -0.660982 0.054113
v 0.058852 -0.647372 0.054113
v -0.060859 -0.632766 0.041073
v -0.050168 -0.647372 0.054113
v -0.052090 -0.632766 0.054113
v 0.060808 -0.665366 0.041073
v 0.058852 -0.647372 0.054113
v 0.053214 -0.660982 0.054113
v -0.050168 -0.647372 0.054113
v 0.058852 -0.647372 0.054113
v -0.052090 -0.632766 0.054113
v -0.052090 -0.632766 0.054113
v -0.058637 -0.615890 0.041073
v -0.060859 -0.632766 0.041073
v 0.058852 -0.647372 0.054113
v 0.060808 -0.665366 0.041073
v 0.067321 -0.649641 0.041073
v -0.052090 -0.632766 0.054113
v 0.058852 -0.647372 0.054113
v 0.060774 -0.632766 0.054113
v -0.058637 -0.615890 0.041073
v -0.052090 -0.632766 0.054113
v -0.050168 -0.618160 0.054113
v 0.067321 -0.649641 0.041073
v 0.060774 -0.632766 0.054113
v 0.058852 -0.647372 0.054113
v -0.052090 -0.632766 0.054113
v 0.060774 -0.632766 0.054113
v -0.050168 -0.618160 0.054113
v -0.050168 -0.618160 0.054113
v -0.052124 -0.600165 0.041073
v -0.058637 -0.615890 0.041073
v 0.060774 -0.632766 0.054113
v 0.067321 -0.649641 0.041073
v 0.069543 -0.632766 0.041073
v -0.050168 -0.618160 0.054113
v 0.060774 -0.632766 0.054113
v 0.058852 -0.618160 0.054113
v -0.052124 -0.600165 0.041073
v -0.050168 -0.618160 0.054113
v -0.044530 -0.604549 0.054113
v 0.069543 -0.632766 0.041073
v 0.058852 -0.618160 0.054113
v 0.060774 -0.632766 0.054113
v -0.050168 -0.618160 0.054113
v 0.058852 -0.618160 0.054113
v -0.044530 -0.604549 0.054113
v -0.044530 -0.604549 0.054113
v -0.041762 -0.586662 0.041073
v -0.052124 -0.600165 0.041073
v 0.058852 -0.618160 0.054113
v 0.069543 -0.632766 0.041073
v 0.067321 -0.615890 0.041073
v -0.044530 -0.604549 0.054113
v 0.058852 -0.618160 0.054113
v 0.053214 -0.604549 0.054113
v -0.041762 -0.586662 0.041073
v -0.044530 -0.604549 0.054113
v -0.035562 -0.592862 0.054113
v -0.035562 -0.592862 0.054113
v -0.028259 -0.576300 0.041073
v -0.041762 -0.586662 0.041073
v 0.067321 -0.615890 0.041073
v 0.053214 -0.604549 0.054113
v 0.058852 -0.618160 0.054113
v -0.044530 -0.604549 0.054113
v 0.053214 -0.604549 0.054113
v -0.035562 -0.592862 0.054113
v -0.028259 -0.576300 0.041073
v -0.035562 -0.592862 0.054113
v -0.023874 -0.583894 0.054113
v -0.023874 -0.583894 0.054113
v -0.012533 -0.569786 0.041073
v -0.028259 -0.576300 0.041073
v 0.053214 -0.604549 0.054113
v 0.067321 -0.615890 0.041073
v 0.060808 -0.600165 0.041073
v -0.035562 -0.592862 0.054113
v 0.053214 -0.604549 0.054113
v 0.044246 -0.592862 0.054113
v -0.035562 -0.592862 0.054113
v 0.044246 -0.592862 0.054113
v -0.023874 -0.583894 0.054113
v -0.012533 -0.569786 0.041073
v -0.023874 -0.583894 0.054113
v -0.010264 -0.578256 0.054113
v -0.010264 -0.578256 0.054113
v 0.004342 -0.567565 0.041073
v -0.012533 -0.569786 0.041073
v 0.060808 -0.600165 0.041073
v 0.044246 -0.592862 0.054113
v 0.053214 -0.604549 0.054113
v -0.023874 -0.583894 0.054113
v 0.044246 -0.592862 0.054113
v 0.032558 -0.583894 0.054113
v -0.023874 -0.583894 0.054113
v 0.032558 -0.583894 0.054113
v -0.010264 -0.578256 0.054113
v 0.004342 -0.567565 0.041073
v -0.010264 -0.578256 0.054113
v 0.004342 -0.576333 0.054113
v 0.044246 -0.592862 0.054113
v 0.060808 -0.600165 0.041073
v 0.050446 -0.586662 0.041073
v 0.044246 -0.592862 0.054113
v 0.036942 -0.576300 0.041073
v 0.032558 -0.583894 0.054113
v 0.004342 -0.567565 0.041073
v 0.018948 -0.578256 0.054113
v 0.021217 -0.569786 0.041073
v -0.010264 -0.578256 0.054113
v 0.032558 -0.583894 0.054113
v 0.018948 -0.578256 0.054113
v -0.010264 -0.578256 0.054113
v 0.018948 -0.578256 0.054113
v 0.004342 -0.576333 0.054113
v 0.018948 -0.578256 0.054113
v 0.004342 -0.567565 0.041073
v 0.004342 -0.576333 0.054113
v 0.036942 -0.576300 0.041073
v 0.044246 -0.592862 0.054113
v 0.050446 -0.586662 0.041073
v 0.021217 -0.569786 0.041073
v 0.032558 -0.583894 0.054113
v 0.036942 -0.576300 0.041073
v 0.032558 -0.583894 0.054113
v 0.021217 -0.569786 0.041073
v 0.018948 -0.578256 0.054113
v -0.023874 -0.681638 0.054113
v -0.028259 -0.689231 0.041073
v -0.035562 -0.672670 0.054113
v -0.041762 -0.678870 0.041073
v -0.035562 -0.672670 0.054113
v -0.028259 -0.689231 0.041073
v -0.028259 -0.689231 0.041073
v -0.023874 -0.681638 0.054113
v -0.012533 -0.695745 0.041073
v -0.035562 -0.672670 0.054113
v 0.032558 -0.681638 0.054113
v -0.023874 -0.681638 0.054113
v -0.041762 -0.678870 0.041073
v -0.052124 -0.665366 0.041073
v -0.035562 -0.672670 0.054113
v -0.010264 -0.687275 0.054113
v -0.012533 -0.695745 0.041073
v -0.023874 -0.681638 0.054113
v 0.032558 -0.681638 0.054113
v 0.018948 -0.687275 0.054113
v -0.023874 -0.681638 0.054113
v 0.044246 -0.672670 0.054113
v 0.032558 -0.681638 0.054113
v -0.035562 -0.672670 0.054113
v -0.044530 -0.660982 0.054113
v -0.035562 -0.672670 0.054113
v -0.052124 -0.665366 0.041073
v -0.010264 -0.687275 0.054113
v 0.004342 -0.689198 0.054113
v -0.012533 -0.695745 0.041073
v -0.023874 -0.681638 0.054113
v 0.018948 -0.687275 0.054113
v -0.010264 -0.687275 0.054113
v 0.018948 -0.687275 0.054113
v 0.032558 -0.681638 0.054113
v 0.021217 -0.695745 0.041073
v 0.032558 -0.681638 0.054113
v 0.044246 -0.672670 0.054113
v 0.036942 -0.689231 0.041073
v -0.044530 -0.660982 0.054113
v 0.044246 -0.672670 0.054113
v -0.035562 -0.672670 0.054113
v -0.052124 -0.665366 0.041073
v -0.058637 -0.649641 0.041073
v -0.044530 -0.660982 0.054113
v 0.004342 -0.697967 0.041073
v -0.012533 -0.695745 0.041073
v 0.004342 -0.689198 0.054113
v 0.004342 -0.689198 0.054113
v -0.010264 -0.687275 0.054113
v 0.018948 -0.687275 0.054113
v 0.036942 -0.689231 0.041073
v 0.021217 -0.695745 0.041073
v 0.032558 -0.681638 0.054113
v 0.021217 -0.695745 0.041073
v 0.004342 -0.697967 0.041073
v 0.018948 -0.687275 0.054113
v 0.050446 -0.678870 0.041073
v 0.036942 -0.689231 0.041073
v 0.044246 -0.672670 0.054113
v 0.053214 -0.660982 0.054113
v 0.044246 -0.672670 0.054113
v -0.044530 -0.660982 0.054113
v -0.050168 -0.647372 0.054113
v -0.044530 -0.660982 0.054113
v -0.058637 -0.649641 0.041073
v 0.004342 -0.689198 0.054113
v 0.018948 -0.687275 0.054113
v 0.004342 -0.697967 0.041073
v 0.044246 -0.672670 0.054113
v 0.053214 -0.660982 0.054113
v 0.050446 -0.678870 0.041073
v -0.050168 -0.647372 0.054113
v 0.053214 -0.660982 0.054113
v -0.044530 -0.660982 0.054113
v -0.058637 -0.649641 0.041073
v -0.060859 -0.632766 0.041073
v -0.050168 -0.647372 0.054113
v 0.060808 -0.665366 0.041073
v 0.050446 -0.678870 0.041073
v 0.053214 -0.660982 0.054113
v 0.058852 -0.647372 0.054113
v 0.053214 -0.660982 0.054113
v -0.050168 -0.647372 0.054113
v -0.052090 -0.632766 0.054113
v -0.050168 -0.647372 0.054113
v -0.060859 -0.632766 0.041073
v 0.053214 -0.660982 0.054113
v 0.058852 -0.647372 0.054113
v 0.060808 -0.665366 0.041073
v -0.052090 -0.632766 0.054113
v 0.058852 -0.647372 0.054113
v -0.050168 -0.647372 0.054113
v -0.060859 -0.632766 0.041073
v -0.058637 -0.615890 0.041073
v -0.052090 -0.632766 0.054113
v 0.067321 -0.649641 0.041073
v 0.060808 -0.665366 0.041073
v 0.058852 -0.647372 0.054113
v 0.060774 -0.632766 0.054113
v 0.058852 -0.647372 0.054113
v -0.052090 -0.632766 0.054113
v -0.050168 -0.618160 0.054113
v -0.052090 -0.632766 0.054113
v -0.058637 -0.615890 0.041073
v 0.058852 -0.647372 0.054113
v 0.060774 -0.632766 0.054113
v 0.067321 -0.649641 0.041073
v -0.050168 -0.618160 0.054113
v 0.060774 -0.632766 0.054113
v -0.052090 -0.632766 0.054113
v -0.058637 -0.615890 0.041073
v -0.052124 -0.600165 0.041073
v -0.050168 -0.618160 0.054113
v 0.069543 -0.632766 0.041073
v 0.067321 -0.649641 0.041073
v 0.060774 -0.632766 0.054113
v 0.058852 -0.618160 0.054113
v 0.060774 -0.632766 0.054113
v -0.050168 -0.618160 0.054113
v -0.044530 -0.604549 0.054113
v -0.050168 -0.618160 0.054113
v -0.052124 -0.600165 0.041073
v 0.060774 -0.632766 0.054113
v 0.058852 -0.618160 0.054113
v 0.069543 -0.632766 0.041073
v -0.044530 -0.604549 0.054113
v 0.058852 -0.618160 0.054113
v -0.050168 -0.618160 0.054113
v -0.052124 -0.600165 0.041073
v -0.041762 -0.586662 0.041073
v -0.044530 -0.604549 0.054113
v 0.067321 -0.615890 0.041073
v 0.069543 -0.632766 0.041073
v 0.058852 -0.618160 0.054113
v 0.053214 -0.604549 0.054113
v 0.058852 -0.618160 0.054113
v -0.044530 -0.604549 0.054113
v -0.035562 -0.592862 0.054113
v -0.044530 -0.604549 0.054113
v -0.041762 -0.586662 0.041073
v -0.041762 -0.586662 0.041073
v -0.028259 -0.576300 0.041073
v -0.035562 -0.592862 0.054113
v 0.058852 -0.618160 0.054113
v 0.053214 -0.604549 0.054113
v 0.067321 -0.615890 0.041073
v -0.035562 -0.592862 0.054113
v 0.053214 -0.604549 0.054113
v -0.044530 -0.604549 0.054113
v -0.023874 -0.583894 0.054113
v -0.035562 -0.592862 0.054113
v -0.028259 -0.576300 0.041073
v -0.028259 -0.576300 0.041073
v -0.012533 -0.569786 0.041073
v -0.023874 -0.583894 0.054113
v 0.060808 -0.600165 0.041073
v 0.067321 -0.615890 0.041073
v 0.053214 -0.604549 0.054113
v 0.044246 -0.592862 0.054113
v 0.053214 -0.604549 0.054113
v -0.035562 -0.592862 0.054113
v -0.023874 -0.583894 0.054113
v 0.044246 -0.592862 0.054113
v -0.035562 -0.592862 0.054113
v -0.010264 -0.578256 0.054113
v -0.023874 -0.583894 0.054113
v -0.012533 -0.569786 0.041073
v -0.012533 -0.569786 0.041073
v 0.004342 -0.567565 0.041073
v -0.010264 -0.578256 0.054113
v 0.053214 -0.604549 0.054113
v 0.044246 -0.592862 0.054113
v 0.060808 -0.600165 0.041073
v 0.032558 -0.583894 0.054113
v 0.044246 -0.592862 0.054113
v -0.023874 -0.583894 0.054113
v -0.010264 -0.578256 0.054113
v 0.032558 -0.583894 0.054113
v -0.023874 -0.583894 0.054113
v 0.004342 -0.576333 0.054113
v -0.010264 -0.578256 0.054113
v 0.004342 -0.567565 0.041073
v 0.050446 -0.586662 0.041073
v 0.060808 -0.600165 0.041073
v 0.044246 -0.592862 0.054113
v 0.032558 -0.583894 0.054113
v 0.036942 -0.576300 0.041073
v 0.044246 -0.592862 0.054113
v 0.021217 -0.569786 0.041073
v 0.018948 -0.578256 0.054113
v 0.004342 -0.567565 0.041073
v 0.018948 -0.578256 0.054113
v 0.032558 -0.583894 0.054113
v -0.010264 -0.578256 0.054113
v 0.004342 -0.576333 0.054113
v 0.018948 -0.578256 0.054113
v -0.010264 -0.578256 0.054113
v 0.004342 -0.576333 0.054113
v 0.004342 -0.567565 0.041073
v 0.018948 -0.578256 0.054113
v 0.050446 -0.586662 0.041073
v 0.044246 -0.592862 0.054113
v 0.036942 -0.576300 0.041073
v 0.036942 -0.576300 0.041073
v 0.032558 -0.583894 0.054113
v 0.021217 -0.569786 0.041073
v 0.018948 -0.578256 0.054113
v 0.021217 -0.569786 0.041073
v 0.032558 -0.583894 0.054113
vt 0 0
vn -0.586785781457571 -0.5867857814575708 0.5580008004998342
vn -0.41491996513505097 -0.7186629129820011 0.5580009319316167
vn -0.21477901223036702 -0.801564007214621 0.5580010020093036
vn 0 0 1
vn -0.7186629129820014 -0.41491996513505064 0.5580009319316167
vn 0 -0.8298402000066984 0.5580011133078882
vn 0.2147790122303667 -0.801564007214621 0.5580010020093036
vn 0.41491996513505064 -0.7186629129820014 0.5580009319316167
vn 0.5867857814575708 -0.586785781457571 0.5580008004998342
vn -0.801564007214621 -0.2147790122303667 0.5580010020093036
vn 0.7186629129820011 -0.41491996513505097 0.5580009319316167
vn -0.8298402000066984 0 0.5580011133078882
vn 0.801564007214621 -0.21477901223036702 0.5580010020093036
vn -0.801564007214621 0.21477901223036702 0.5580010020093036
vn 0.8298402000066984 0 0.5580011133078882
vn -0.7186629129820011 0.41491996513505097 0.5580009319316167
vn 0.801564007214621 0.2147790122303667 0.5580010020093036
vn -0.5867857814575708 0.586785781457571 0.5580008004998342
vn -0.41491996513505064 0.7186629129820014 0.5580009319316167
vn 0.7186629129820014 0.41491996513505064 0.5580009319316167
vn -0.2147790122303667 0.801564007214621 0.5580010020093036
vn 0 0.8298402000066984 0.5580011133078882
vn 0.586785781457571 0.5867857814575708 0.5580008004998342
vn 0.41491996513505097 0.7186629129820011 0.5580009319316167
vn 0.21477901223036702 0.801564007214621 0.5580010020093036
vn 0.41491996513505097 0.7186629129820011 -0.5580009319316167
vn 0.586785781457571 0.5867857814575708 -0.5580008004998342
vn 0.21477901223036702 0.801564007214621 -0.5580010020093036
vn 0 0 -1
vn 0.7186629129820014 0.41491996513505064 -0.5580009319316167
vn 0 0.8298402000066984 -0.5580011133078882
vn -0.2147790122303667 0.801564007214621 -0.5580010020093036
vn -0.41491996513505064 0.7186629129820014 -0.5580009319316167
vn -0.5867857814575708 0.586785781457571 -0.5580008004998342
vn 0.801564007214621 0.2147790122303667 -0.5580010020093036
vn -0.7186629129820011 0.41491996513505097 -0.5580009319316167
vn 0.8298402000066984 0 -0.5580011133078882
vn -0.801564007214621 0.21477901223036702 -0.5580010020093036
vn 0.801564007214621 -0.21477901223036702 -0.5580010020093036
vn -0.8298402000066984 0 -0.5580011133078882
vn 0.7186629129820011 -0.41491996513505097 -0.5580009319316167
vn -0.801564007214621 -0.2147790122303667 -0.5580010020093036
vn 0.5867857814575708 -0.586785781457571 -0.5580008004998342
vn 0.41491996513505064 -0.7186629129820014 -0.5580009319316167
vn -0.7186629129820014 -0.41491996513505064 -0.5580009319316167
vn 0.2147790122303667 -0.801564007214621 -0.5580010020093036
vn 0 -0.8298402000066984 -0.5580011133078882
vn -0.586785781457571 -0.5867857814575708 -0.5580008004998342
vn -0.41491996513505097 -0.7186629129820011 -0.5580009319316167
vn -0.21477901223036702 -0.801564007214621 -0.5580010020093036
usemtl material_0_0
f 1/1/1 2/1/2 3/1/2
f 4/1/2 5/1/1 6/1/1
f 7/1/3 8/1/2 9/1/2
f 10/1/4 11/1/4 12/1/4
f 13/1/1 14/1/5 15/1/1
f 16/1/2 17/1/3 18/1/3
f 19/1/4 20/1/4 21/1/4
f 22/1/4 23/1/4 24/1/4
f 25/1/5 26/1/1 27/1/5
f 28/1/3 29/1/6 30/1/3
f 31/1/4 32/1/4 33/1/4
f 34/1/7 35/1/8 36/1/7
f 37/1/8 38/1/9 39/1/8
f 40/1/4 41/1/4 42/1/4
f 43/1/5 44/1/10 45/1/5
f 46/1/6 47/1/3 48/1/6
f 49/1/4 50/1/4 51/1/4
f 52/1/8 53/1/7 54/1/8
f 55/1/7 56/1/6 57/1/7
f 58/1/9 59/1/8 60/1/9
f 61/1/4 62/1/4 63/1/4
f 64/1/10 65/1/5 66/1/10
f 67/1/6 68/1/7 69/1/6
f 70/1/9 71/1/11 72/1/9
f 73/1/4 74/1/4 75/1/4
f 76/1/10 77/1/12 78/1/10
f 79/1/11 80/1/9 81/1/11
f 82/1/4 83/1/4 84/1/4
f 85/1/12 86/1/10 87/1/12
f 88/1/11 89/1/13 90/1/11
f 91/1/4 92/1/4 93/1/4
f 94/1/12 95/1/14 96/1/12
f 97/1/13 98/1/11 99/1/13
f 100/1/4 101/1/4 102/1/4
f 103/1/14 104/1/12 105/1/14
f 106/1/13 107/1/15 108/1/13
f 109/1/4 110/1/4 111/1/4
f 112/1/14 113/1/16 114/1/14
f 115/1/15 116/1/13 117/1/15
f 118/1/4 119/1/4 120/1/4
f 121/1/16 122/1/14 123/1/16
f 124/1/15 125/1/17 126/1/15
f 127/1/4 128/1/4 129/1/4
f 130/1/16 131/1/18 132/1/16
f 133/1/17 134/1/15 135/1/17
f 136/1/4 137/1/4 138/1/4
f 139/1/18 140/1/16 141/1/18
f 142/1/18 143/1/19 144/1/18
f 145/1/17 146/1/20 147/1/17
f 148/1/4 149/1/4 150/1/4
f 151/1/19 152/1/18 153/1/19
f 154/1/19 155/1/21 156/1/19
f 157/1/20 158/1/17 159/1/20
f 160/1/4 161/1/4 162/1/4
f 163/1/4 164/1/4 165/1/4
f 166/1/21 167/1/19 168/1/21
f 169/1/21 170/1/22 171/1/21
f 172/1/20 173/1/23 174/1/20
f 175/1/4 176/1/4 177/1/4
f 178/1/4 179/1/4 180/1/4
f 181/1/22 182/1/21 183/1/22
f 184/1/23 185/1/20 186/1/23
f 187/1/23 188/1/24 189/1/24
f 190/1/22 191/1/25 192/1/25
f 193/1/4 194/1/4 195/1/4
f 196/1/4 197/1/4 198/1/4
f 199/1/25 200/1/22 201/1/22
f 202/1/24 203/1/23 204/1/23
f 205/1/25 206/1/24 207/1/24
f 208/1/24 209/1/25 210/1/25
usemtl material_1_0
f 211/1/26 212/1/26 213/1/27
f 214/1/27 215/1/27 216/1/26
f 217/1/26 218/1/26 219/1/28
f 220/1/29 221/1/29 222/1/29
f 223/1/27 224/1/30 225/1/27
f 226/1/28 227/1/28 228/1/26
f 229/1/29 230/1/29 231/1/29
f 232/1/29 233/1/29 234/1/29
f 235/1/30 236/1/27 237/1/30
f 238/1/28 239/1/31 240/1/28
f 241/1/29 242/1/29 243/1/29
f 244/1/32 245/1/33 246/1/32
f 247/1/33 248/1/34 249/1/33
f 250/1/29 251/1/29 252/1/29
f 253/1/30 254/1/35 255/1/30
f 256/1/31 257/1/28 258/1/31
f 259/1/29 260/1/29 261/1/29
f 262/1/33 263/1/32 264/1/33
f 265/1/32 266/1/31 267/1/32
f 268/1/34 269/1/33 270/1/34
f 271/1/29 272/1/29 273/1/29
f 274/1/35 275/1/30 276/1/35
f 277/1/31 278/1/32 279/1/31
f 280/1/34 281/1/36 282/1/34
f 283/1/29 284/1/29 285/1/29
f 286/1/35 287/1/37 288/1/35
f 289/1/36 290/1/34 291/1/36
f 292/1/29 293/1/29 294/1/29
f 295/1/37 296/1/35 297/1/37
f 298/1/36 299/1/38 300/1/36
f 301/1/29 302/1/29 303/1/29
f 304/1/37 305/1/39 306/1/37
f 307/1/38 308/1/36 309/1/38
f 310/1/29 311/1/29 312/1/29
f 313/1/39 314/1/37 315/1/39
f 316/1/38 317/1/40 318/1/38
f 319/1/29 320/1/29 321/1/29
f 322/1/39 323/1/41 324/1/39
f 325/1/40 326/1/38 327/1/40
f 328/1/29 329/1/29 330/1/29
f 331/1/41 332/1/39 333/1/41
f 334/1/40 335/1/42 336/1/40
f 337/1/29 338/1/29 339/1/29
f 340/1/41 341/1/43 342/1/41
f 343/1/42 344/1/40 345/1/42
f 346/1/29 347/1/29 348/1/29
f 349/1/43 350/1/41 351/1/43
f 352/1/43 353/1/44 354/1/43
f 355/1/42 356/1/45 357/1/42
f 358/1/29 359/1/29 360/1/29
f 361/1/44 362/1/43 363/1/44
f 364/1/44 365/1/46 366/1/44
f 367/1/45 368/1/42 369/1/45
f 370/1/29 371/1/29 372/1/29
f 373/1/29 374/1/29 375/1/29
f 376/1/46 377/1/44 378/1/46
f 379/1/46 380/1/47 381/1/46
f 382/1/45 383/1/48 384/1/45
f 385/1/29 386/1/29 387/1/29
f 388/1/29 389/1/29 390/1/29
f 391/1/47 392/1/46 393/1/47
f 394/1/48 395/1/45 396/1/48
f 397/1/49 398/1/49 399/1/48
f 400/1/50 401/1/50 402/1/47
f 403/1/29 404/1/29 405/1/29
f 406/1/29 407/1/29 408/1/29
f 409/1/47 410/1/47 411/1/50
f 412/1/48 413/1/48 414/1/49
f 415/1/49 416/1/49 417/1/50
f 418/1/50 419/1/50 420/1/49
