# SSTK version 0.8.0
# 16
mtllib original-16.mtl
o 3dw.7bdffa69c49eb1d7bf653fdedcac4c5b#4/Model/mesh9/mesh9-geometry/material_4/component_1
v -0.212995 -0.632766 0.041073
v -0.220619 -0.624072 0.045420
v -0.205589 -0.576515 0.041073
v -0.212995 -0.632766 0.041073
v -0.452065 -0.632766 0.041073
v -0.220619 -0.624072 0.045420
v -0.214059 -0.574245 0.045420
v -0.205589 -0.576515 0.041073
v -0.220619 -0.624072 0.045420
v -0.443372 -0.624072 0.045420
v -0.220619 -0.624072 0.045420
v -0.452065 -0.632766 0.041073
v -0.452065 -0.632766 0.041073
v -0.452065 -0.437163 0.041073
v -0.443372 -0.624072 0.045420
v -0.205589 -0.576515 0.041073
v -0.214059 -0.574245 0.045420
v -0.183877 -0.524097 0.041073
v -0.220619 -0.624072 0.045420
v -0.443372 -0.624072 0.045420
v -0.214059 -0.574245 0.045420
v -0.443372 -0.445856 0.045420
v -0.443372 -0.624072 0.045420
v -0.452065 -0.437163 0.041073
v -0.191471 -0.519713 0.045420
v -0.183877 -0.524097 0.041073
v -0.214059 -0.574245 0.045420
v -0.391850 -0.532420 0.045420
v -0.214059 -0.574245 0.045420
v -0.443372 -0.624072 0.045420
v -0.443372 -0.445856 0.045420
v -0.398449 -0.527357 0.045420
v -0.443372 -0.624072 0.045420
v -0.452065 -0.437163 0.041073
v -0.086500 -0.437163 0.041073
v -0.443372 -0.445856 0.045420
v -0.183877 -0.524097 0.041073
v -0.191471 -0.519713 0.045420
v -0.149338 -0.479085 0.041073
v -0.191471 -0.519713 0.045420
v -0.214059 -0.574245 0.045420
v -0.277557 -0.532420 0.045420
v -0.389038 -0.532791 0.045420
v -0.214059 -0.574245 0.045420
v -0.391850 -0.532420 0.045420
v -0.394471 -0.531335 0.045420
v -0.391850 -0.532420 0.045420
v -0.443372 -0.624072 0.045420
v -0.398449 -0.527357 0.045420
v -0.396722 -0.529608 0.045420
v -0.443372 -0.624072 0.045420
v -0.399534 -0.524736 0.045420
v -0.398449 -0.527357 0.045420
v -0.443372 -0.445856 0.045420
v -0.120314 -0.445856 0.045420
v -0.443372 -0.445856 0.045420
v -0.086500 -0.437163 0.041073
v -0.155539 -0.472885 0.045420
v -0.149338 -0.479085 0.041073
v -0.191471 -0.519713 0.045420
v -0.280369 -0.532791 0.045420
v -0.277557 -0.532420 0.045420
v -0.214059 -0.574245 0.045420
v -0.274936 -0.531335 0.045420
v -0.191471 -0.519713 0.045420
v -0.277557 -0.532420 0.045420
v -0.280369 -0.532791 0.045420
v -0.214059 -0.574245 0.045420
v -0.389038 -0.532791 0.045420
v -0.396722 -0.529608 0.045420
v -0.394471 -0.531335 0.045420
v -0.443372 -0.624072 0.045420
v -0.399904 -0.521924 0.045420
v -0.399534 -0.524736 0.045420
v -0.443372 -0.445856 0.045420
v -0.120314 -0.445856 0.045420
v -0.155539 -0.472885 0.045420
v -0.443372 -0.445856 0.045420
v -0.149338 -0.479085 0.041073
v -0.155539 -0.472885 0.045420
v -0.104326 -0.444546 0.041073
v -0.155539 -0.472885 0.045420
v -0.191471 -0.519713 0.045420
v -0.269873 -0.519112 0.045420
v -0.272685 -0.529608 0.045420
v -0.191471 -0.519713 0.045420
v -0.274936 -0.531335 0.045420
v -0.399534 -0.519112 0.045420
v -0.399904 -0.521924 0.045420
v -0.443372 -0.445856 0.045420
v -0.155539 -0.472885 0.045420
v -0.389038 -0.511057 0.045420
v -0.443372 -0.445856 0.045420
v -0.120314 -0.445856 0.045420
v -0.104326 -0.444546 0.041073
v -0.155539 -0.472885 0.045420
v -0.269873 -0.519112 0.045420
v -0.191471 -0.519713 0.045420
v -0.269502 -0.521924 0.045420
v -0.270958 -0.516490 0.045420
v -0.155539 -0.472885 0.045420
v -0.269873 -0.519112 0.045420
v -0.270958 -0.527357 0.045420
v -0.191471 -0.519713 0.045420
v -0.272685 -0.529608 0.045420
v -0.269873 -0.524736 0.045420
v -0.191471 -0.519713 0.045420
v -0.270958 -0.527357 0.045420
v -0.398449 -0.516490 0.045420
v -0.399534 -0.519112 0.045420
v -0.443372 -0.445856 0.045420
v -0.389038 -0.511057 0.045420
v -0.391850 -0.511427 0.045420
v -0.443372 -0.445856 0.045420
v -0.389038 -0.511057 0.045420
v -0.155539 -0.472885 0.045420
v -0.280369 -0.511057 0.045420
v -0.269502 -0.521924 0.045420
v -0.191471 -0.519713 0.045420
v -0.269873 -0.524736 0.045420
v -0.272685 -0.514240 0.045420
v -0.155539 -0.472885 0.045420
v -0.270958 -0.516490 0.045420
v -0.396722 -0.514240 0.045420
v -0.398449 -0.516490 0.045420
v -0.443372 -0.445856 0.045420
v -0.391850 -0.511427 0.045420
v -0.394471 -0.512513 0.045420
v -0.443372 -0.445856 0.045420
v -0.280369 -0.511057 0.045420
v -0.155539 -0.472885 0.045420
v -0.277557 -0.511427 0.045420
v -0.274936 -0.512513 0.045420
v -0.155539 -0.472885 0.045420
v -0.272685 -0.514240 0.045420
v -0.394471 -0.512513 0.045420
v -0.396722 -0.514240 0.045420
v -0.443372 -0.445856 0.045420
v -0.277557 -0.511427 0.045420
v -0.155539 -0.472885 0.045420
v -0.274936 -0.512513 0.045420
v -0.205589 -0.576515 0.041073
v -0.220619 -0.624072 0.045420
v -0.212995 -0.632766 0.041073
v -0.220619 -0.624072 0.045420
v -0.452065 -0.632766 0.041073
v -0.212995 -0.632766 0.041073
v -0.220619 -0.624072 0.045420
v -0.205589 -0.576515 0.041073
v -0.214059 -0.574245 0.045420
v -0.452065 -0.632766 0.041073
v -0.220619 -0.624072 0.045420
v -0.443372 -0.624072 0.045420
v -0.443372 -0.624072 0.045420
v -0.452065 -0.437163 0.041073
v -0.452065 -0.632766 0.041073
v -0.183877 -0.524097 0.041073
v -0.214059 -0.574245 0.045420
v -0.205589 -0.576515 0.041073
v -0.214059 -0.574245 0.045420
v -0.443372 -0.624072 0.045420
v -0.220619 -0.624072 0.045420
v -0.452065 -0.437163 0.041073
v -0.443372 -0.624072 0.045420
v -0.443372 -0.445856 0.045420
v -0.214059 -0.574245 0.045420
v -0.183877 -0.524097 0.041073
v -0.191471 -0.519713 0.045420
v -0.443372 -0.624072 0.045420
v -0.214059 -0.574245 0.045420
v -0.391850 -0.532420 0.045420
v -0.443372 -0.624072 0.045420
v -0.398449 -0.527357 0.045420
v -0.443372 -0.445856 0.045420
v -0.443372 -0.445856 0.045420
v -0.086500 -0.437163 0.041073
v -0.452065 -0.437163 0.041073
v -0.149338 -0.479085 0.041073
v -0.191471 -0.519713 0.045420
v -0.183877 -0.524097 0.041073
v -0.277557 -0.532420 0.045420
v -0.214059 -0.574245 0.045420
v -0.191471 -0.519713 0.045420
v -0.391850 -0.532420 0.045420
v -0.214059 -0.574245 0.045420
v -0.389038 -0.532791 0.045420
v -0.443372 -0.624072 0.045420
v -0.391850 -0.532420 0.045420
v -0.394471 -0.531335 0.045420
v -0.443372 -0.624072 0.045420
v -0.396722 -0.529608 0.045420
v -0.398449 -0.527357 0.045420
v -0.443372 -0.445856 0.045420
v -0.398449 -0.527357 0.045420
v -0.399534 -0.524736 0.045420
v -0.086500 -0.437163 0.041073
v -0.443372 -0.445856 0.045420
v -0.120314 -0.445856 0.045420
v -0.191471 -0.519713 0.045420
v -0.149338 -0.479085 0.041073
v -0.155539 -0.472885 0.045420
v -0.214059 -0.574245 0.045420
v -0.277557 -0.532420 0.045420
v -0.280369 -0.532791 0.045420
v -0.277557 -0.532420 0.045420
v -0.191471 -0.519713 0.045420
v -0.274936 -0.531335 0.045420
v -0.389038 -0.532791 0.045420
v -0.214059 -0.574245 0.045420
v -0.280369 -0.532791 0.045420
v -0.443372 -0.624072 0.045420
v -0.394471 -0.531335 0.045420
v -0.396722 -0.529608 0.045420
v -0.443372 -0.445856 0.045420
v -0.399534 -0.524736 0.045420
v -0.399904 -0.521924 0.045420
v -0.443372 -0.445856 0.045420
v -0.155539 -0.472885 0.045420
v -0.120314 -0.445856 0.045420
v -0.104326 -0.444546 0.041073
v -0.155539 -0.472885 0.045420
v -0.149338 -0.479085 0.041073
v -0.269873 -0.519112 0.045420
v -0.191471 -0.519713 0.045420
v -0.155539 -0.472885 0.045420
v -0.274936 -0.531335 0.045420
v -0.191471 -0.519713 0.045420
v -0.272685 -0.529608 0.045420
v -0.443372 -0.445856 0.045420
v -0.399904 -0.521924 0.045420
v -0.399534 -0.519112 0.045420
v -0.443372 -0.445856 0.045420
v -0.389038 -0.511057 0.045420
v -0.155539 -0.472885 0.045420
v -0.155539 -0.472885 0.045420
v -0.104326 -0.444546 0.041073
v -0.120314 -0.445856 0.045420
v -0.269502 -0.521924 0.045420
v -0.191471 -0.519713 0.045420
v -0.269873 -0.519112 0.045420
v -0.269873 -0.519112 0.045420
v -0.155539 -0.472885 0.045420
v -0.270958 -0.516490 0.045420
v -0.272685 -0.529608 0.045420
v -0.191471 -0.519713 0.045420
v -0.270958 -0.527357 0.045420
v -0.270958 -0.527357 0.045420
v -0.191471 -0.519713 0.045420
v -0.269873 -0.524736 0.045420
v -0.443372 -0.445856 0.045420
v -0.399534 -0.519112 0.045420
v -0.398449 -0.516490 0.045420
v -0.443372 -0.445856 0.045420
v -0.391850 -0.511427 0.045420
v -0.389038 -0.511057 0.045420
v -0.280369 -0.511057 0.045420
v -0.155539 -0.472885 0.045420
v -0.389038 -0.511057 0.045420
v -0.269873 -0.524736 0.045420
v -0.191471 -0.519713 0.045420
v -0.269502 -0.521924 0.045420
v -0.270958 -0.516490 0.045420
v -0.155539 -0.472885 0.045420
v -0.272685 -0.514240 0.045420
v -0.443372 -0.445856 0.045420
v -0.398449 -0.516490 0.045420
v -0.396722 -0.514240 0.045420
v -0.443372 -0.445856 0.045420
v -0.394471 -0.512513 0.045420
v -0.391850 -0.511427 0.045420
v -0.277557 -0.511427 0.045420
v -0.155539 -0.472885 0.045420
v -0.280369 -0.511057 0.045420
v -0.272685 -0.514240 0.045420
v -0.155539 -0.472885 0.045420
v -0.274936 -0.512513 0.045420
v -0.443372 -0.445856 0.045420
v -0.396722 -0.514240 0.045420
v -0.394471 -0.512513 0.045420
v -0.274936 -0.512513 0.045420
v -0.155539 -0.472885 0.045420
v -0.277557 -0.511427 0.045420
vt 0 0
vn -0.4433879910822298 0.05837300124330988 -0.894427013282757
vn -0.4290109813900469 0.11495299479448845 -0.8959550138452975
vn 0 0.4472140008114905 -0.8944269883440347
vn 0.4472140008114905 0 -0.8944269883440347
vn -0.3846409768992829 0.22207199673379416 -0.8959549917025023
vn 0 0 -1
vn 0 -0.4472140008114905 -0.8944269883440347
vn -0.314057963269154 0.3140579632691541 -0.8959549047884392
vn -0.27224611745455385 0.354798138093428 -0.8944273770051754
vn 0.4290109813900469 -0.11495299479448845 0.8959550138452975
vn 0.4433879910822298 -0.05837300124330988 0.894427013282757
vn 0 -0.4472140008114905 0.8944269883440347
vn -0.4472140008114905 0 0.8944269883440347
vn 0.3846409768992829 -0.22207199673379416 0.8959549917025023
vn 0 0 1
vn 0 0.4472140008114905 0.8944269883440347
vn 0.314057963269154 -0.3140579632691541 0.8959549047884392
vn 0.27224611745455385 -0.354798138093428 0.8944273770051754
usemtl material_0_0
f 1/1/1 2/1/1 3/1/2
f 4/1/3 5/1/3 6/1/3
f 7/1/2 8/1/2 9/1/1
f 10/1/3 11/1/3 12/1/3
f 13/1/4 14/1/4 15/1/4
f 16/1/2 17/1/2 18/1/5
f 19/1/6 20/1/6 21/1/6
f 22/1/4 23/1/4 24/1/4
f 25/1/5 26/1/5 27/1/2
f 28/1/6 29/1/6 30/1/6
f 31/1/6 32/1/6 33/1/6
f 34/1/7 35/1/7 36/1/7
f 37/1/5 38/1/5 39/1/8
f 40/1/6 41/1/6 42/1/6
f 43/1/6 44/1/6 45/1/6
f 46/1/6 47/1/6 48/1/6
f 49/1/6 50/1/6 51/1/6
f 52/1/6 53/1/6 54/1/6
f 55/1/7 56/1/7 57/1/7
f 58/1/8 59/1/8 60/1/5
f 61/1/6 62/1/6 63/1/6
f 64/1/6 65/1/6 66/1/6
f 67/1/6 68/1/6 69/1/6
f 70/1/6 71/1/6 72/1/6
f 73/1/6 74/1/6 75/1/6
f 76/1/6 77/1/6 78/1/6
f 79/1/8 80/1/8 81/1/9
f 82/1/6 83/1/6 84/1/6
f 85/1/6 86/1/6 87/1/6
f 88/1/6 89/1/6 90/1/6
f 91/1/6 92/1/6 93/1/6
f 94/1/9 95/1/9 96/1/8
f 97/1/6 98/1/6 99/1/6
f 100/1/6 101/1/6 102/1/6
f 103/1/6 104/1/6 105/1/6
f 106/1/6 107/1/6 108/1/6
f 109/1/6 110/1/6 111/1/6
f 112/1/6 113/1/6 114/1/6
f 115/1/6 116/1/6 117/1/6
f 118/1/6 119/1/6 120/1/6
f 121/1/6 122/1/6 123/1/6
f 124/1/6 125/1/6 126/1/6
f 127/1/6 128/1/6 129/1/6
f 130/1/6 131/1/6 132/1/6
f 133/1/6 134/1/6 135/1/6
f 136/1/6 137/1/6 138/1/6
f 139/1/6 140/1/6 141/1/6
usemtl material_1_0
f 142/1/10 143/1/11 144/1/11
f 145/1/12 146/1/12 147/1/12
f 148/1/11 149/1/10 150/1/10
f 151/1/12 152/1/12 153/1/12
f 154/1/13 155/1/13 156/1/13
f 157/1/14 158/1/10 159/1/10
f 160/1/15 161/1/15 162/1/15
f 163/1/13 164/1/13 165/1/13
f 166/1/10 167/1/14 168/1/14
f 169/1/15 170/1/15 171/1/15
f 172/1/15 173/1/15 174/1/15
f 175/1/16 176/1/16 177/1/16
f 178/1/17 179/1/14 180/1/14
f 181/1/15 182/1/15 183/1/15
f 184/1/15 185/1/15 186/1/15
f 187/1/15 188/1/15 189/1/15
f 190/1/15 191/1/15 192/1/15
f 193/1/15 194/1/15 195/1/15
f 196/1/16 197/1/16 198/1/16
f 199/1/14 200/1/17 201/1/17
f 202/1/15 203/1/15 204/1/15
f 205/1/15 206/1/15 207/1/15
f 208/1/15 209/1/15 210/1/15
f 211/1/15 212/1/15 213/1/15
f 214/1/15 215/1/15 216/1/15
f 217/1/15 218/1/15 219/1/15
f 220/1/18 221/1/17 222/1/17
f 223/1/15 224/1/15 225/1/15
f 226/1/15 227/1/15 228/1/15
f 229/1/15 230/1/15 231/1/15
f 232/1/15 233/1/15 234/1/15
f 235/1/17 236/1/18 237/1/18
f 238/1/15 239/1/15 240/1/15
f 241/1/15 242/1/15 243/1/15
f 244/1/15 245/1/15 246/1/15
f 247/1/15 248/1/15 249/1/15
f 250/1/15 251/1/15 252/1/15
f 253/1/15 254/1/15 255/1/15
f 256/1/15 257/1/15 258/1/15
f 259/1/15 260/1/15 261/1/15
f 262/1/15 263/1/15 264/1/15
f 265/1/15 266/1/15 267/1/15
f 268/1/15 269/1/15 270/1/15
f 271/1/15 272/1/15 273/1/15
f 274/1/15 275/1/15 276/1/15
f 277/1/15 278/1/15 279/1/15
f 280/1/15 281/1/15 282/1/15
