# SSTK version 0.8.0
# 53
mtllib original-53.mtl
o #ID487
v 0.759217 0.070901 0.183465
v 0.759217 0.033147 0.183465
v 0.759217 0.070901 0.179507
v 0.759217 0.033147 0.179507
v 0.759217 0.033147 0.183465
v 0.215426 0.033147 0.183465
v 0.759217 0.033147 0.179507
v 0.215426 0.033147 0.179507
v 0.215426 0.033147 0.183465
v 0.759217 0.033147 0.183465
v 0.215426 0.070901 0.183465
v 0.759217 0.070901 0.183465
v 0.759217 0.070901 0.183465
v 0.759217 0.070901 0.179507
v 0.215426 0.070901 0.183465
v 0.215426 0.070901 0.179507
v 0.215426 0.070901 0.183465
v 0.215426 0.070901 0.179507
v 0.215426 0.033147 0.183465
v 0.215426 0.033147 0.179507
vt -6.61123 8.449089
vt -6.584179 8.900305
vt -6.563925 8.446253
vt -6.536874 8.897469
vt -19.64822 7.104999
vt -13.13758 7.104999
vt -19.64822 7.057609
vt -13.13758 7.057609
vt 13.13758 8.490338
vt 19.64822 8.490338
vt 13.13758 8.038311
vt 19.64822 8.038311
vt 19.64822 7.104999
vt 19.64822 7.057609
vt 13.13758 7.104999
vt 13.13758 7.057609
vt 6.61123 8.449089
vt 6.563925 8.446253
vt 6.584179 8.900305
vt 6.536874 8.897469
vn 1 0 0
vn -1 0 0
vn 0 -1 0
vn 0 1 0
vn 0 0 1
vn 0 0 -1
usemtl material_0_2
f 1/1/1 2/2/1 3/3/1
f 3/3/2 2/2/2 1/1/2
f 4/4/1 3/3/1 2/2/1
f 2/2/2 3/3/2 4/4/2
f 5/5/3 6/6/3 7/7/3
f 7/7/4 6/6/4 5/5/4
f 8/8/3 7/7/3 6/6/3
f 6/6/4 7/7/4 8/8/4
f 9/9/5 10/10/5 11/11/5
f 11/11/6 10/10/6 9/9/6
f 12/12/5 11/11/5 10/10/5
f 10/10/6 11/11/6 12/12/6
f 13/13/4 14/14/4 15/15/4
f 15/15/3 14/14/3 13/13/3
f 16/16/4 15/15/4 14/14/4
f 14/14/3 15/15/3 16/16/3
f 17/17/2 18/18/2 19/19/2
f 19/19/1 18/18/1 17/17/1
f 20/20/2 19/19/2 18/18/2
f 18/18/1 19/19/1 20/20/1
