# SSTK version 0.8.0
# 27
mtllib original-27.mtl
o #ID319
v -0.805676 -0.412934 0.130333
v -0.812935 -0.412947 0.117718
v -0.805676 -0.471367 0.130332
v -0.812935 -0.471367 0.117718
v -0.814009 -0.412010 0.115111
v -0.818480 -0.415946 0.104262
v -0.818480 -0.471367 0.104262
v -0.796828 -0.413264 0.141887
v -0.801583 -0.410685 0.135677
v -0.796828 -0.471367 0.141887
v -0.821714 -0.415943 0.092081
v -0.822215 -0.417247 0.090196
v -0.822215 -0.471366 0.090196
v -0.786542 -0.413243 0.152184
v -0.786542 -0.471367 0.152184
v -0.824075 -0.422143 0.075762
v -0.824075 -0.471367 0.075762
v -0.774998 -0.471367 0.161046
v -0.774998 -0.416820 0.161046
v -0.785104 -0.412640 0.153289
v -0.824049 -0.422125 0.067378
v -0.824030 -0.426271 0.061209
v -0.824030 -0.471367 0.061209
v -0.762392 -0.471367 0.168319
v -0.762392 -0.418586 0.168319
v -0.764766 -0.416803 0.166949
v -0.824030 -0.426271 0.061209
v -0.824030 -0.427502 0.059398
v -0.824030 -0.471367 0.061209
v -0.824030 -0.471367 0.060438
v -0.824030 -0.453044 0.049033
v -0.748942 -0.471367 0.173879
v -0.748942 -0.423352 0.173879
v -0.736455 -0.471367 0.177210
v -0.734880 -0.468460 0.177630
v -0.734880 -0.430980 0.177630
v -0.736957 -0.426259 0.177075
v -0.741291 -0.423344 0.175920
v -0.720448 -0.455379 0.179507
v -0.720448 -0.447084 0.179507
vn -0.828715684885215 7.465349816909777e-9 0.5596698255446948
vn -0.9002509398310329 4.211670129736366e-9 0.4353713878211821
vn -0.8321361311435358 2.0923739657894033e-9 0.5545714194271719
vn 0.828715684885215 -7.465349816909777e-9 -0.5596698255446948
vn 0.9002509398310329 -4.211670129736366e-9 -0.4353713878211821
vn 0.8321361311435358 -2.0923739657894033e-9 -0.5545714194271719
vn -0.8975899001566752 1.6798959143156698e-9 0.440831454341373
vn 0.8975899001566752 -1.6798959143156698e-9 -0.440831454341373
vn -0.924580479982926 2.860671872988061e-9 0.3809867924673269
vn 0.924580479982926 -2.860671872988061e-9 -0.3809867924673269
vn -0.9456076962580792 3.572393945679928e-9 0.3253092140986611
vn 0.9456076962580792 -3.572393945679928e-9 -0.3253092140986611
vn -0.9475862769784453 3.407489877125717e-9 0.3194999963726585
vn 0.9475862769784453 -3.407489877125717e-9 -0.3194999963726585
vn -0.7563060665635866 4.798441688443025e-9 0.6542179557908173
vn -0.7939550932762819 3.977431874543537e-9 0.6079764056775974
vn -0.7523521790941046 0 0.658761108910015
vn 0.7563060665635866 -4.798441688443025e-9 -0.6542179557908173
vn 0.7939550932762819 -3.977431874543537e-9 -0.6079764056775974
vn 0.7523521790941046 0 -0.658761108910015
vn -0.9665080676390698 2.1834878848113406e-9 0.2566362312468591
vn 0.9665080676390698 -2.1834878848113406e-9 -0.2566362312468591
vn -0.9777128638706096 5.5575577998699255e-9 0.2099465546798297
vn 0.9777128638706096 -5.5575577998699255e-9 -0.2099465546798297
vn -0.9812643169007015 0 0.19266639659629203
vn 0.9812643169007015 0 -0.19266639659629203
vn -0.6549963226224466 -2.0528182560881724e-9 0.7556320647981211
vn -0.6596119816154397 7.396337689370794e-9 0.7516063023347747
vn 0.6549963226224466 2.0528182560881724e-9 -0.7556320647981211
vn 0.6596119816154397 -7.396337689370794e-9 -0.7516063023347747
vn -0.9976433293898567 0 0.0686133173948187
vn 0.9976433293898567 0 -0.0686133173948187
vn -0.9980440283742658 0 0.06251493762668155
vn 0.9980440283742658 0 -0.06251493762668155
vn -0.5555125981805742 4.4272818374919664e-9 0.8315081197815617
vn -0.5604902151891922 4.269609968320253e-9 0.8281610463413339
vn 0.5555125981805742 -4.4272818374919664e-9 -0.8315081197815617
vn 0.5604902151891922 -4.269609968320253e-9 -0.8281610463413339
vn -0.6088743783278024 5.212557690662515e-9 0.7932666584547293
vn 0.6088743783278024 -5.212557690662515e-9 -0.7932666584547293
vn -0.9999951770490381 0 -0.0031057814899242545
vn 0.9999951770490381 0 0.0031057814899242545
vn -0.4418468256391985 2.9563060041101584e-9 0.8970905097438963
vn -0.45726449816886944 0 0.8893307476492489
vn 0.4418468256391985 -2.9563060041101584e-9 -0.8970905097438963
vn 0.45726449816886944 0 -0.8893307476492489
vn -0.4997566965769462 3.209077823730125e-9 0.8661658295190926
vn 0.4997566965769462 -3.209077823730125e-9 -0.8661658295190926
vn -1 0 0
vn 1 0 0
vn -0.32057201415954056 -3.054968334133753e-9 0.9472241465132184
vn -0.3262462908924578 5.0177636817449335e-9 0.9452848024161363
vn 0.32057201415954056 3.054968334133753e-9 -0.9472241465132184
vn 0.3262462908924578 -5.0177636817449335e-9 -0.9452848024161363
vn -0.25772970403194617 0 0.9662170561833431
vn -0.2269662050571855 7.059897943199552e-9 0.9739026346416462
vn 0.25772970403194617 0 -0.9662170561833431
vn 0.2269662050571855 -7.059897943199552e-9 -0.9739026346416462
vn -0.2306327029398701 7.756359882652379e-9 0.9730408811219853
vn 0.2306327029398701 -7.756359882652379e-9 -0.9730408811219853
vn -0.12898830174035045 0 0.991646115312383
vn 0.12898830174035045 0 -0.991646115312383
usemtl material_0_2
f 1//1 2//2 3//3
f 3//6 2//5 1//4
f 4//7 3//3 2//2
f 2//5 3//6 4//8
f 2//2 5//9 4//7
f 4//8 5//10 2//5
f 5//9 6//11 4//7
f 4//8 6//12 5//10
f 7//13 4//7 6//11
f 6//12 4//8 7//14
f 8//15 9//16 10//17
f 10//20 9//19 8//18
f 9//16 1//1 10//17
f 10//20 1//4 9//19
f 3//3 10//17 1//1
f 1//4 10//20 3//6
f 6//11 11//21 7//13
f 7//14 11//22 6//12
f 11//21 12//23 7//13
f 7//14 12//24 11//22
f 13//25 7//13 12//23
f 12//24 7//14 13//26
f 14//27 8//15 15//28
f 15//30 8//18 14//29
f 10//17 15//28 8//15
f 8//18 15//30 10//20
f 12//23 16//31 13//25
f 13//26 16//32 12//24
f 17//33 13//25 16//31
f 16//32 13//26 17//34
f 18//35 19//36 15//28
f 15//30 19//38 18//37
f 15//28 19//36 14//27
f 14//29 19//38 15//30
f 20//39 14//27 19//36
f 19//38 14//29 20//40
f 16//31 21//41 17//33
f 17//34 21//42 16//32
f 21//41 22//41 17//33
f 17//34 22//42 21//42
f 23//41 17//33 22//41
f 22//42 17//34 23//42
f 24//43 25//44 18//35
f 18//37 25//46 24//45
f 25//44 26//47 18//35
f 18//37 26//48 25//46
f 19//36 18//35 26//47
f 26//48 18//37 19//38
f 27//49 28//49 29//49
f 29//50 28//50 27//50
f 29//49 28//49 30//49
f 30//50 28//50 29//50
f 31//49 30//49 28//49
f 28//50 30//50 31//50
f 32//51 33//52 24//43
f 24//45 33//54 32//53
f 25//44 24//43 33//52
f 33//54 24//45 25//46
f 34//55 35//56 32//51
f 32//53 35//58 34//57
f 35//56 36//59 32//51
f 32//53 36//60 35//58
f 36//59 37//55 32//51
f 32//53 37//57 36//60
f 37//55 38//55 32//51
f 32//53 38//57 37//57
f 33//52 32//51 38//55
f 38//57 32//53 33//54
f 39//61 40//61 35//56
f 35//58 40//62 39//62
f 36//59 35//56 40//61
f 40//62 35//58 36//60
