# SSTK version 0.8.0
# 31
mtllib original-31.mtl
o #ID347
v 0.212706 0.060758 -0.286217
v 0.212706 0.060758 -0.300467
v 0.205539 0.057790 -0.286217
v 0.205539 0.057790 -0.300467
v 0.199384 0.053067 -0.286217
v 0.199384 0.053067 -0.300467
v 0.220397 0.002338 -0.300467
v 0.212706 0.003350 -0.300467
v 0.228088 0.003350 -0.300467
v 0.205539 0.006319 -0.300467
v 0.235256 0.006319 -0.300467
v 0.199384 0.011041 -0.300467
v 0.241410 0.011041 -0.300467
v 0.194662 0.017196 -0.300467
v 0.246133 0.017196 -0.300467
v 0.191693 0.024363 -0.300467
v 0.249101 0.024363 -0.300467
v 0.190681 0.032054 -0.300467
v 0.250114 0.032054 -0.300467
v 0.191693 0.039746 -0.300467
v 0.249101 0.039746 -0.300467
v 0.194662 0.046913 -0.300467
v 0.246133 0.046913 -0.300467
v 0.199384 0.053067 -0.300467
v 0.241410 0.053067 -0.300467
v 0.205539 0.057790 -0.300467
v 0.235256 0.057790 -0.300467
v 0.212706 0.060758 -0.300467
v 0.228088 0.060758 -0.300467
v 0.220397 0.061771 -0.300467
v 0.220397 0.061771 -0.286217
v 0.220397 0.061771 -0.300467
v 0.194662 0.046913 -0.286217
v 0.194662 0.046913 -0.300467
v 0.249101 0.039746 -0.286217
v 0.250114 0.032054 -0.286217
v 0.249101 0.039746 -0.300467
v 0.250114 0.032054 -0.300467
v 0.246133 0.046913 -0.286217
v 0.246133 0.046913 -0.300467
v 0.241410 0.053067 -0.286217
v 0.241410 0.053067 -0.300467
v 0.235256 0.057790 -0.286217
v 0.235256 0.057790 -0.300467
v 0.228088 0.060758 -0.286217
v 0.228088 0.060758 -0.300467
v 0.191693 0.039746 -0.286217
v 0.191693 0.039746 -0.300467
v 0.190681 0.032054 -0.286217
v 0.190681 0.032054 -0.300467
v 0.191693 0.024363 -0.286217
v 0.191693 0.024363 -0.300467
v 0.194662 0.017196 -0.286217
v 0.194662 0.017196 -0.300467
v 0.199384 0.011041 -0.286217
v 0.199384 0.011041 -0.300467
v 0.205539 0.006319 -0.286217
v 0.205539 0.006319 -0.300467
v 0.212706 0.003350 -0.286217
v 0.212706 0.003350 -0.300467
v 0.220397 0.002338 -0.286217
v 0.220397 0.002338 -0.300467
v 0.228088 0.003350 -0.286217
v 0.228088 0.003350 -0.300467
v 0.235256 0.006319 -0.286217
v 0.235256 0.006319 -0.300467
v 0.241410 0.011041 -0.286217
v 0.241410 0.011041 -0.300467
v 0.246133 0.017196 -0.286217
v 0.246133 0.017196 -0.300467
v 0.249101 0.024363 -0.286217
v 0.249101 0.024363 -0.300467
vn -0.2588190015589235 0.9659258379565391 -3.179511118000621e-9
vn -0.5000000056161491 0.8660254005419535 0
vn 0.2588190015589235 -0.9659258379565391 3.179511118000621e-9
vn 0.5000000056161491 -0.8660254005419535 0
vn -0.7071067929317552 0.7071067694413397 -6.661182844231287e-9
vn 0.7071067929317552 -0.7071067694413397 6.661182844231287e-9
vn 0 0 -1
vn 0 0 1
vn 0 1 0
vn 0 -1 0
vn -0.866025402838329 0.5000000016387098 -2.93377451419731e-9
vn 0.866025402838329 -0.5000000016387098 2.93377451419731e-9
vn 0.9659258220460287 0.25881906093775886 -4.746839816102158e-9
vn 1 0 0
vn -0.9659258220460287 -0.25881906093775886 4.746839816102158e-9
vn -1 0 0
vn 0.866025402838329 0.5000000016387098 2.9337747570585974e-9
vn -0.866025402838329 -0.5000000016387098 -2.9337747570585974e-9
vn 0.7071067929317552 0.7071067694413397 -1.8703488432027197e-9
vn -0.7071067929317552 -0.7071067694413397 1.8703488432027197e-9
vn 0.5000000058752765 0.8660254003923463 -6.46547639002773e-9
vn -0.5000000058752765 -0.8660254003923463 6.46547639002773e-9
vn 0.2588190015589235 0.9659258379565391 -1.4259444960763384e-9
vn -0.2588190015589235 -0.9659258379565391 1.4259444960763384e-9
vn -0.9659258218964216 0.25881906149610096 -1.3091622753018018e-9
vn 0.9659258218964216 -0.25881906149610096 1.3091622753018018e-9
usemtl material_0_2
f 1//1 2//1 3//2
f 3//4 2//3 1//3
f 4//2 3//2 2//1
f 2//3 3//4 4//4
f 3//2 4//2 5//5
f 5//6 4//4 3//4
f 6//5 5//5 4//2
f 4//4 5//6 6//6
f 7//7 8//7 9//7
f 9//8 8//8 7//8
f 8//7 10//7 9//7
f 9//8 10//8 8//8
f 9//7 10//7 11//7
f 11//8 10//8 9//8
f 10//7 12//7 11//7
f 11//8 12//8 10//8
f 11//7 12//7 13//7
f 13//8 12//8 11//8
f 12//7 14//7 13//7
f 13//8 14//8 12//8
f 13//7 14//7 15//7
f 15//8 14//8 13//8
f 14//7 16//7 15//7
f 15//8 16//8 14//8
f 15//7 16//7 17//7
f 17//8 16//8 15//8
f 16//7 18//7 17//7
f 17//8 18//8 16//8
f 17//7 18//7 19//7
f 19//8 18//8 17//8
f 18//7 20//7 19//7
f 19//8 20//8 18//8
f 19//7 20//7 21//7
f 21//8 20//8 19//8
f 20//7 22//7 21//7
f 21//8 22//8 20//8
f 21//7 22//7 23//7
f 23//8 22//8 21//8
f 22//7 24//7 23//7
f 23//8 24//8 22//8
f 23//7 24//7 25//7
f 25//8 24//8 23//8
f 24//7 26//7 25//7
f 25//8 26//8 24//8
f 25//7 26//7 27//7
f 27//8 26//8 25//8
f 26//7 28//7 27//7
f 27//8 28//8 26//8
f 27//7 28//7 29//7
f 29//8 28//8 27//8
f 30//7 29//7 28//7
f 28//8 29//8 30//8
f 31//9 32//9 1//1
f 1//3 32//10 31//10
f 2//1 1//1 32//9
f 32//10 1//3 2//3
f 5//5 6//5 33//11
f 33//12 6//6 5//6
f 34//11 33//11 6//5
f 6//6 33//12 34//12
f 35//13 36//14 37//13
f 37//15 36//16 35//15
f 38//14 37//13 36//14
f 36//16 37//15 38//16
f 39//17 35//13 40//17
f 40//18 35//15 39//18
f 37//13 40//17 35//13
f 35//15 40//18 37//15
f 41//19 39//17 42//19
f 42//20 39//18 41//20
f 40//17 42//19 39//17
f 39//18 42//20 40//18
f 41//19 42//19 43//21
f 43//22 42//20 41//20
f 44//21 43//21 42//19
f 42//20 43//22 44//22
f 43//21 44//21 45//23
f 45//24 44//22 43//22
f 46//23 45//23 44//21
f 44//22 45//24 46//24
f 45//23 46//23 31//9
f 31//10 46//24 45//24
f 32//9 31//9 46//23
f 46//24 31//10 32//10
f 33//11 34//11 47//25
f 47//26 34//12 33//12
f 48//25 47//25 34//11
f 34//12 47//26 48//26
f 47//25 48//25 49//16
f 49//14 48//26 47//26
f 50//16 49//16 48//25
f 48//26 49//14 50//14
f 49//16 50//16 51//15
f 51//13 50//14 49//14
f 52//15 51//15 50//16
f 50//14 51//13 52//13
f 51//15 52//15 53//18
f 53//17 52//13 51//13
f 54//18 53//18 52//15
f 52//13 53//17 54//17
f 53//18 54//18 55//20
f 55//19 54//17 53//17
f 56//20 55//20 54//18
f 54//17 55//19 56//19
f 57//22 55//20 58//22
f 58//21 55//19 57//21
f 56//20 58//22 55//20
f 55//19 58//21 56//19
f 59//24 57//22 60//24
f 60//23 57//21 59//23
f 58//22 60//24 57//22
f 57//21 60//23 58//21
f 61//10 59//24 62//10
f 62//9 59//23 61//9
f 60//24 62//10 59//24
f 59//23 62//9 60//23
f 63//3 61//10 64//3
f 64//1 61//9 63//1
f 62//10 64//3 61//10
f 61//9 64//1 62//9
f 65//4 63//3 66//4
f 66//2 63//1 65//2
f 64//3 66//4 63//3
f 63//1 66//2 64//1
f 67//6 65//4 68//6
f 68//5 65//2 67//5
f 66//4 68//6 65//4
f 65//2 68//5 66//2
f 69//12 67//6 70//12
f 70//11 67//5 69//11
f 68//6 70//12 67//6
f 67//5 70//11 68//5
f 71//26 69//12 72//26
f 72//25 69//11 71//25
f 70//12 72//26 69//12
f 69//11 72//25 70//11
f 36//14 71//26 38//14
f 38//16 71//25 36//16
f 72//26 38//14 71//26
f 71//25 38//16 72//25
