# SSTK version 0.8.0
# 13
mtllib original-13.mtl
o #ID226
v 0.481914 -0.235218 -0.286217
v 0.480254 -0.247826 -0.286217
v 0.481914 -0.235218 -0.300467
v 0.480254 -0.247826 -0.300467
v 0.480254 -0.222609 -0.286217
v 0.480254 -0.222609 -0.300467
v 0.433199 -0.283934 -0.300467
v 0.420590 -0.282274 -0.300467
v 0.445807 -0.282274 -0.300467
v 0.408841 -0.277407 -0.300467
v 0.457556 -0.277407 -0.300467
v 0.398751 -0.269665 -0.300467
v 0.467646 -0.269665 -0.300467
v 0.391009 -0.259576 -0.300467
v 0.475388 -0.259576 -0.300467
v 0.386143 -0.247826 -0.300467
v 0.480254 -0.247826 -0.300467
v 0.384483 -0.235218 -0.300467
v 0.481914 -0.235218 -0.300467
v 0.386143 -0.222609 -0.300467
v 0.480254 -0.222609 -0.300467
v 0.391009 -0.210860 -0.300467
v 0.475388 -0.210860 -0.300467
v 0.398751 -0.200770 -0.300467
v 0.467646 -0.200770 -0.300467
v 0.408841 -0.193029 -0.300467
v 0.457556 -0.193029 -0.300467
v 0.420590 -0.188162 -0.300467
v 0.445807 -0.188162 -0.300467
v 0.433199 -0.186502 -0.300467
v 0.475388 -0.259576 -0.286217
v 0.475388 -0.259576 -0.300467
v 0.475388 -0.210860 -0.286217
v 0.475388 -0.210860 -0.300467
v 0.467646 -0.200770 -0.286217
v 0.467646 -0.200770 -0.300467
v 0.457556 -0.193029 -0.286217
v 0.457556 -0.193029 -0.300467
v 0.445807 -0.188162 -0.286217
v 0.445807 -0.188162 -0.300467
v 0.433199 -0.186502 -0.286217
v 0.433199 -0.186502 -0.300467
v 0.420590 -0.188162 -0.286217
v 0.420590 -0.188162 -0.300467
v 0.408841 -0.193029 -0.286217
v 0.408841 -0.193029 -0.300467
v 0.398751 -0.200770 -0.286217
v 0.398751 -0.200770 -0.300467
v 0.391009 -0.210860 -0.286217
v 0.391009 -0.210860 -0.300467
v 0.386143 -0.222609 -0.286217
v 0.386143 -0.222609 -0.300467
v 0.384483 -0.235218 -0.286217
v 0.384483 -0.235218 -0.300467
v 0.386143 -0.247826 -0.286217
v 0.386143 -0.247826 -0.300467
v 0.391009 -0.259576 -0.286217
v 0.391009 -0.259576 -0.300467
v 0.398751 -0.269665 -0.286217
v 0.398751 -0.269665 -0.300467
v 0.408841 -0.277407 -0.286217
v 0.408841 -0.277407 -0.300467
v 0.420590 -0.282274 -0.286217
v 0.420590 -0.282274 -0.300467
v 0.433199 -0.283934 -0.286217
v 0.433199 -0.283934 -0.300467
v 0.445807 -0.282274 -0.286217
v 0.445807 -0.282274 -0.300467
v 0.457556 -0.277407 -0.286217
v 0.457556 -0.277407 -0.300467
v 0.467646 -0.269665 -0.286217
v 0.467646 -0.269665 -0.300467
vn 1 0 0
vn 0.9659258218964216 -0.25881906149610096 1.3091622753018018e-9
vn -1 0 0
vn -0.9659258218964216 0.25881906149610096 -1.3091622753018018e-9
vn 0.9659258220460287 0.25881906093775886 -4.746839816102158e-9
vn -0.9659258220460287 -0.25881906093775886 4.746839816102158e-9
vn 0 0 -1
vn 0 0 1
vn 0.866025402838329 -0.5000000016387098 2.93377451419731e-9
vn -0.866025402838329 0.5000000016387098 -2.93377451419731e-9
vn 0.866025402838329 0.5000000016387098 2.9337747570585974e-9
vn -0.866025402838329 -0.5000000016387098 -2.9337747570585974e-9
vn 0.7071067929317552 0.7071067694413397 -1.8703488432027197e-9
vn -0.7071067929317552 -0.7071067694413397 1.8703488432027197e-9
vn 0.5000000058752765 0.8660254003923463 -6.46547639002773e-9
vn -0.5000000058752765 -0.8660254003923463 6.46547639002773e-9
vn 0.2588190015589235 0.9659258379565391 -1.4259444960763384e-9
vn -0.2588190015589235 -0.9659258379565391 1.4259444960763384e-9
vn 0 1 0
vn 0 -1 0
vn -0.2588190015589235 0.9659258379565391 -3.179511118000621e-9
vn 0.2588190015589235 -0.9659258379565391 3.179511118000621e-9
vn -0.5000000056161491 0.8660254005419535 0
vn 0.5000000056161491 -0.8660254005419535 0
vn -0.7071067929317552 0.7071067694413397 -6.661182844231287e-9
vn 0.7071067929317552 -0.7071067694413397 6.661182844231287e-9
usemtl material_0_2
f 1//1 2//2 3//1
f 3//3 2//4 1//3
f 4//2 3//1 2//2
f 2//4 3//3 4//4
f 5//5 1//1 6//5
f 6//6 1//3 5//6
f 3//1 6//5 1//1
f 1//3 6//6 3//3
f 7//7 8//7 9//7
f 9//8 8//8 7//8
f 8//7 10//7 9//7
f 9//8 10//8 8//8
f 9//7 10//7 11//7
f 11//8 10//8 9//8
f 10//7 12//7 11//7
f 11//8 12//8 10//8
f 11//7 12//7 13//7
f 13//8 12//8 11//8
f 12//7 14//7 13//7
f 13//8 14//8 12//8
f 13//7 14//7 15//7
f 15//8 14//8 13//8
f 14//7 16//7 15//7
f 15//8 16//8 14//8
f 15//7 16//7 17//7
f 17//8 16//8 15//8
f 16//7 18//7 17//7
f 17//8 18//8 16//8
f 17//7 18//7 19//7
f 19//8 18//8 17//8
f 18//7 20//7 19//7
f 19//8 20//8 18//8
f 19//7 20//7 21//7
f 21//8 20//8 19//8
f 20//7 22//7 21//7
f 21//8 22//8 20//8
f 21//7 22//7 23//7
f 23//8 22//8 21//8
f 22//7 24//7 23//7
f 23//8 24//8 22//8
f 23//7 24//7 25//7
f 25//8 24//8 23//8
f 24//7 26//7 25//7
f 25//8 26//8 24//8
f 25//7 26//7 27//7
f 27//8 26//8 25//8
f 26//7 28//7 27//7
f 27//8 28//8 26//8
f 27//7 28//7 29//7
f 29//8 28//8 27//8
f 30//7 29//7 28//7
f 28//8 29//8 30//8
f 2//2 31//9 4//2
f 4//4 31//10 2//4
f 32//9 4//2 31//9
f 31//10 4//4 32//10
f 33//11 5//5 34//11
f 34//12 5//6 33//12
f 6//5 34//11 5//5
f 5//6 34//12 6//6
f 35//13 33//11 36//13
f 36//14 33//12 35//14
f 34//11 36//13 33//11
f 33//12 36//14 34//12
f 35//13 36//13 37//15
f 37//16 36//14 35//14
f 38//15 37//15 36//13
f 36//14 37//16 38//16
f 37//15 38//15 39//17
f 39//18 38//16 37//16
f 40//17 39//17 38//15
f 38//16 39//18 40//18
f 39//17 40//17 41//19
f 41//20 40//18 39//18
f 42//19 41//19 40//17
f 40//18 41//20 42//20
f 41//19 42//19 43//21
f 43//22 42//20 41//20
f 44//21 43//21 42//19
f 42//20 43//22 44//22
f 43//21 44//21 45//23
f 45//24 44//22 43//22
f 46//23 45//23 44//21
f 44//22 45//24 46//24
f 45//23 46//23 47//25
f 47//26 46//24 45//24
f 48//25 47//25 46//23
f 46//24 47//26 48//26
f 47//25 48//25 49//10
f 49//9 48//26 47//26
f 50//10 49//10 48//25
f 48//26 49//9 50//9
f 49//10 50//10 51//4
f 51//2 50//9 49//9
f 52//4 51//4 50//10
f 50//9 51//2 52//2
f 51//4 52//4 53//3
f 53//1 52//2 51//2
f 54//3 53//3 52//4
f 52//2 53//1 54//1
f 53//3 54//3 55//6
f 55//5 54//1 53//1
f 56//6 55//6 54//3
f 54//1 55//5 56//5
f 55//6 56//6 57//12
f 57//11 56//5 55//5
f 58//12 57//12 56//6
f 56//5 57//11 58//11
f 57//12 58//12 59//14
f 59//13 58//11 57//11
f 60//14 59//14 58//12
f 58//11 59//13 60//13
f 61//16 59//14 62//16
f 62//15 59//13 61//15
f 60//14 62//16 59//14
f 59//13 62//15 60//13
f 63//18 61//16 64//18
f 64//17 61//15 63//17
f 62//16 64//18 61//16
f 61//15 64//17 62//15
f 65//20 63//18 66//20
f 66//19 63//17 65//19
f 64//18 66//20 63//18
f 63//17 66//19 64//17
f 67//22 65//20 68//22
f 68//21 65//19 67//21
f 66//20 68//22 65//20
f 65//19 68//21 66//19
f 69//24 67//22 70//24
f 70//23 67//21 69//23
f 68//22 70//24 67//22
f 67//21 70//23 68//21
f 71//26 69//24 72//26
f 72//25 69//23 71//25
f 70//24 72//26 69//24
f 69//23 72//25 70//23
f 31//9 71//26 32//9
f 32//10 71//25 31//10
f 72//26 32//9 71//26
f 71//25 32//10 72//25
