# SSTK version 0.8.0
# 89
mtllib original-89.mtl
o #ID117
v 0.589770 0.291578 0.183465
v 0.589504 0.293313 0.179507
v 0.589504 0.293313 0.183465
v 0.589770 0.291578 0.179507
v 0.589897 0.295227 0.179507
v 0.589897 0.295227 0.183465
v 0.590568 0.290221 0.183465
v 0.590568 0.290221 0.179507
v 0.591079 0.296594 0.179507
v 0.591079 0.296594 0.183465
v 0.590568 0.290221 0.183465
v 0.592256 0.289347 0.179507
v 0.590568 0.290221 0.179507
v 0.592256 0.289347 0.183465
v 0.592989 0.297414 0.183465
v 0.592989 0.297414 0.179507
v 0.595191 0.289055 0.179507
v 0.595191 0.289055 0.183465
v 0.595570 0.297688 0.183465
v 0.595570 0.297688 0.179507
v 0.598603 0.289055 0.179507
v 0.598603 0.289055 0.183465
v 0.598603 0.297688 0.183465
v 0.598603 0.297688 0.179507
v 0.598603 0.289055 0.179507
v 0.598603 0.297688 0.183465
v 0.598603 0.297688 0.179507
v 0.598603 0.289055 0.183465
vt -0.1325632 0.04738991
vt -0.1115444 0
vt -0.1115444 0.04738991
vt -0.1325632 0
vt -0.489152 0.04738991
vt -0.4657576 0
vt -0.4657576 0.04738991
vt -0.489152 0
vt 0.268256 0.04738991
vt 0.2870973 0
vt 0.2870973 0.04738991
vt 0.268256 0
vt -0.8936885 0.04738991
vt -0.8720579 0
vt -0.8720579 0.04738991
vt -0.8936885 0
vt 0.7994746 0.04738991
vt 0.7767125 0
vt 0.7994746 0
vt 0.7767125 0.04738991
vt -1.041119 0.04738991
vt -1.066009 0
vt -1.041119 0
vt -1.066009 0.04738991
vt 1.006253 0.04738991
vt 0.9709441 0
vt 1.006253 0
vt 0.9709441 0.04738991
vt -1.022052 0.04738991
vt -1.053127 0
vt -1.022052 0
vt -1.053127 0.04738991
vt 1.008415 0.04738991
vt 0.9675614 0
vt 1.008415 0
vt 0.9675614 0.04738991
vt -0.9675614 0.04738991
vt -1.003876 0
vt -0.9675614 0
vt -1.003876 0.04738991
vt 0.328922 0
vt 0.2255665 0.04738991
vt 0.2255665 0
vt 0.328922 0.04738991
vn 0.9420435148616232 0.33549070942003556 0
vn 0.999678600835759 -0.025351430552524992 0
vn -0.9420435148616232 -0.33549070942003556 0
vn -0.999678600835759 0.025351430552524992 0
vn 0.8970601813094898 -0.4419083967396242 0
vn -0.8970601813094898 0.4419083967396242 0
vn 0.8617555059241007 0.5073238098192289 0
vn -0.8617555059241007 -0.5073238098192289 0
vn 0.5906842088043962 -0.806902822816431 0
vn -0.5906842088043962 0.806902822816431 0
vn 0.4602051865507217 0.8878125851055589 0
vn 0.28464869650825636 0.9586318999366495 0
vn -0.4602051865507217 -0.8878125851055589 0
vn -0.28464869650825636 -0.9586318999366495 0
vn 0.25278780788824456 -0.9675217435195222 0
vn -0.25278780788824456 0.9675217435195222 0
vn 0.04950657943904488 0.9987737975098494 0
vn -0.04950657943904488 -0.9987737975098494 0
vn 0.05274482033732932 -0.9986080231640355 0
vn -0.05274482033732932 0.9986080231640355 0
vn 0 1 0
vn 0 -1 0
vn -1 0 0
vn 1 0 0
usemtl material_0_2
f 1/1/1 2/2/2 3/3/2
f 3/3/4 2/2/4 1/1/3
f 2/2/2 1/1/1 4/4/1
f 4/4/3 1/1/3 2/2/4
f 3/5/2 5/6/5 6/7/5
f 6/7/6 5/6/6 3/5/4
f 5/6/5 3/5/2 2/8/2
f 2/8/4 3/5/4 5/6/6
f 7/9/7 4/10/1 1/11/1
f 1/11/3 4/10/3 7/9/8
f 4/10/1 7/9/7 8/12/7
f 8/12/8 7/9/8 4/10/3
f 6/13/5 9/14/9 10/15/9
f 10/15/10 9/14/10 6/13/6
f 9/14/9 6/13/5 5/16/5
f 5/16/6 6/13/6 9/14/10
f 11/17/11 12/18/12 13/19/11
f 13/19/13 12/18/14 11/17/13
f 12/18/12 11/17/11 14/20/12
f 14/20/14 11/17/13 12/18/14
f 15/21/15 9/22/9 16/23/15
f 16/23/16 9/22/10 15/21/16
f 9/22/9 15/21/15 10/24/9
f 10/24/10 15/21/16 9/22/10
f 14/25/12 17/26/17 12/27/12
f 12/27/14 17/26/18 14/25/14
f 17/26/17 14/25/12 18/28/17
f 18/28/18 14/25/14 17/26/18
f 19/29/19 16/30/15 20/31/19
f 20/31/20 16/30/16 19/29/20
f 16/30/15 19/29/19 15/32/15
f 15/32/16 19/29/20 16/30/16
f 18/33/17 21/34/21 17/35/17
f 17/35/18 21/34/22 18/33/18
f 21/34/21 18/33/17 22/36/21
f 22/36/22 18/33/18 21/34/22
f 23/37/22 20/38/19 24/39/22
f 24/39/21 20/38/20 23/37/21
f 20/38/19 23/37/22 19/40/19
f 19/40/20 23/37/21 20/38/20
f 25/41/23 26/42/23 27/43/23
f 27/43/24 26/42/24 25/41/24
f 26/42/23 25/41/23 28/44/23
f 28/44/24 25/41/24 26/42/24
