# SSTK version 0.8.0
# 69
mtllib original-69.mtl
o #ID598
v -0.676792 0.542168 0.007689
v -0.677394 0.542168 0.015253
v -0.673676 0.542168 0.018579
v -0.645225 0.542168 -0.187492
v -0.647858 0.542168 -0.174899
v -0.588063 0.542168 -0.187434
v 0.759188 0.542168 -0.186092
v -0.649481 0.542168 0.059767
v -0.653150 0.542168 0.059767
v -0.659624 0.542168 0.040060
v -0.659861 0.542168 -0.151148
v -0.663418 0.542168 0.034261
v -0.677603 0.542168 -0.131312
v -0.677877 0.542168 0.014821
v -0.692809 0.542168 0.001465
v -0.699874 0.542168 -0.116745
v -0.701028 0.542168 -0.002689
v -0.702266 0.542168 -0.115959
v -0.704145 0.542168 -0.115342
v -0.705818 0.542168 -0.114792
v -0.710431 0.542168 -0.113276
v -0.715718 0.542168 -0.010113
v -0.720035 0.542168 -0.011015
v -0.720219 0.542168 -0.089595
v -0.720246 0.542168 -0.110051
v -0.720267 0.542168 -0.110045
vn 1.9298759616946256e-8 1 7.985662495784927e-8
vn -1.9298759616946256e-8 -1 -7.985662495784927e-8
usemtl material_0_2
f 1//1 2//1 3//1
f 3//2 2//2 1//2
f 4//1 5//1 6//1
f 6//2 5//2 4//2
f 6//1 5//1 7//1
f 7//2 5//2 6//2
f 7//1 5//1 8//1
f 8//2 5//2 7//2
f 8//1 5//1 9//1
f 9//2 5//2 8//2
f 9//1 5//1 10//1
f 10//2 5//2 9//2
f 5//1 11//1 10//1
f 10//2 11//2 5//2
f 10//1 11//1 12//1
f 12//2 11//2 10//2
f 12//1 11//1 3//1
f 3//2 11//2 12//2
f 3//1 11//1 1//1
f 1//2 11//2 3//2
f 11//1 13//1 1//1
f 1//2 13//2 11//2
f 1//1 13//1 14//1
f 14//2 13//2 1//2
f 14//1 13//1 15//1
f 15//2 13//2 14//2
f 13//1 16//1 15//1
f 15//2 16//2 13//2
f 15//1 16//1 17//1
f 17//2 16//2 15//2
f 16//1 18//1 17//1
f 17//2 18//2 16//2
f 18//1 19//1 17//1
f 17//2 19//2 18//2
f 19//1 20//1 17//1
f 17//2 20//2 19//2
f 20//1 21//1 17//1
f 17//2 21//2 20//2
f 17//1 21//1 22//1
f 22//2 21//2 17//2
f 22//1 21//1 23//1
f 23//2 21//2 22//2
f 23//1 21//1 24//1
f 24//2 21//2 23//2
f 21//1 25//1 24//1
f 24//2 25//2 21//2
f 26//1 24//1 25//1
f 25//2 24//2 26//2
