# SSTK version 0.8.0
# 91
mtllib original-91.mtl
o /component_0#ID475
v 0.624273 -0.559481 -0.173726
v 0.627531 -0.559481 -0.128859
v 0.622949 -0.559481 -0.151078
v 0.627531 -0.559481 -0.128859
v 0.624273 -0.559481 -0.173726
v 0.631413 -0.559482 -0.195260
v 0.627531 -0.559481 -0.128859
v 0.631413 -0.559482 -0.195260
v 0.632728 -0.559481 -0.141599
v 0.627531 -0.559481 -0.128859
v 0.632728 -0.559481 -0.141599
v 0.637709 -0.559482 -0.108584
v 0.637709 -0.559482 -0.108584
v 0.632728 -0.559481 -0.141599
v 0.635899 -0.559481 -0.122643
v 0.637709 -0.559482 -0.108584
v 0.635899 -0.559481 -0.122643
v 0.643868 -0.559482 -0.105154
v 0.637709 -0.559482 -0.108584
v 0.643868 -0.559482 -0.105154
v 0.652787 -0.559481 -0.091633
v 0.652787 -0.559481 -0.091633
v 0.643868 -0.559482 -0.105154
v 0.656092 -0.559482 -0.090323
v 0.652787 -0.559481 -0.091633
v 0.656092 -0.559482 -0.090323
v 0.671739 -0.559482 -0.079162
v 0.631413 -0.559482 -0.195260
v 0.634571 -0.559482 -0.160729
v 0.632728 -0.559481 -0.141599
v 0.634571 -0.559482 -0.160729
v 0.631413 -0.559482 -0.195260
v 0.643884 -0.559481 -0.214212
v 0.634571 -0.559482 -0.160729
v 0.643884 -0.559481 -0.214212
v 0.641302 -0.559482 -0.178731
v 0.641302 -0.559482 -0.178731
v 0.643884 -0.559481 -0.214212
v 0.652463 -0.559481 -0.194377
v 0.652463 -0.559481 -0.194377
v 0.643884 -0.559481 -0.214212
v 0.660835 -0.559481 -0.229290
v 0.652463 -0.559481 -0.194377
v 0.660835 -0.559481 -0.229290
v 0.667294 -0.559482 -0.206601
v 0.667294 -0.559482 -0.206601
v 0.660835 -0.559481 -0.229290
v 0.681111 -0.559482 -0.239467
v 0.667294 -0.559482 -0.206601
v 0.681111 -0.559482 -0.239467
v 0.684783 -0.559481 -0.214571
v 0.684783 -0.559481 -0.214571
v 0.681111 -0.559482 -0.239467
v 0.703329 -0.559482 -0.244050
v 0.684783 -0.559481 -0.214571
v 0.703329 -0.559482 -0.244050
v 0.703739 -0.559481 -0.217742
v 0.703739 -0.559481 -0.217742
v 0.703329 -0.559482 -0.244050
v 0.725978 -0.559481 -0.242726
v 0.703739 -0.559481 -0.217742
v 0.725978 -0.559481 -0.242726
v 0.722869 -0.559481 -0.215899
v 0.722869 -0.559481 -0.215899
v 0.725978 -0.559481 -0.242726
v 0.740872 -0.559482 -0.209168
v 0.740872 -0.559482 -0.209168
v 0.725978 -0.559481 -0.242726
v 0.747512 -0.559482 -0.235585
v 0.740872 -0.559482 -0.209168
v 0.747512 -0.559482 -0.235585
v 0.756517 -0.559481 -0.198006
v 0.756517 -0.559481 -0.198006
v 0.747512 -0.559482 -0.235585
v 0.766464 -0.559482 -0.223115
v 0.756517 -0.559481 -0.198006
v 0.766464 -0.559482 -0.223115
v 0.768741 -0.559481 -0.183176
v 0.768741 -0.559481 -0.183176
v 0.766464 -0.559482 -0.223115
v 0.781541 -0.559482 -0.206164
v 0.768741 -0.559481 -0.183176
v 0.781541 -0.559482 -0.206164
v 0.776711 -0.559482 -0.165687
v 0.776711 -0.559482 -0.165687
v 0.781541 -0.559482 -0.206164
v 0.779882 -0.559481 -0.146731
v 0.727827 -0.559481 -0.073759
v 0.715920 -0.559481 -0.070697
v 0.711182 -0.559482 -0.070974
v 0.715920 -0.559481 -0.070697
v 0.727827 -0.559481 -0.073759
v 0.738139 -0.559481 -0.075280
v 0.738139 -0.559481 -0.075280
v 0.727827 -0.559481 -0.073759
v 0.745315 -0.559481 -0.081728
v 0.738139 -0.559481 -0.075280
v 0.745315 -0.559481 -0.081728
v 0.758415 -0.559481 -0.085457
v 0.758415 -0.559481 -0.085457
v 0.745315 -0.559481 -0.081728
v 0.760147 -0.559481 -0.093952
v 0.758415 -0.559481 -0.085457
v 0.760147 -0.559481 -0.093952
v 0.775365 -0.559481 -0.100536
v 0.775365 -0.559481 -0.100536
v 0.760147 -0.559481 -0.093952
v 0.771308 -0.559481 -0.109598
v 0.775365 -0.559481 -0.100536
v 0.771308 -0.559481 -0.109598
v 0.778040 -0.559481 -0.127600
v 0.775365 -0.559481 -0.100536
v 0.778040 -0.559481 -0.127600
v 0.787837 -0.559481 -0.119487
v 0.787837 -0.559481 -0.119487
v 0.778040 -0.559481 -0.127600
v 0.779882 -0.559481 -0.146731
v 0.787837 -0.559481 -0.119487
v 0.779882 -0.559481 -0.146731
v 0.781541 -0.559482 -0.206164
v 0.787837 -0.559481 -0.119487
v 0.781541 -0.559482 -0.206164
v 0.791719 -0.559482 -0.185888
v 0.787837 -0.559481 -0.119487
v 0.791719 -0.559482 -0.185888
v 0.794978 -0.559482 -0.141021
v 0.794978 -0.559482 -0.141021
v 0.791719 -0.559482 -0.185888
v 0.796302 -0.559481 -0.163669
vn 0 -1 -1.3389777656549595e-9
vn 0 1 1.3389777656549595e-9
usemtl material_0_2
f 1//1 2//1 3//1
f 3//2 2//2 1//2
f 4//1 5//1 6//1
f 6//2 5//2 4//2
f 7//1 8//1 9//1
f 9//2 8//2 7//2
f 10//1 11//1 12//1
f 12//2 11//2 10//2
f 13//1 14//1 15//1
f 15//2 14//2 13//2
f 16//1 17//1 18//1
f 18//2 17//2 16//2
f 19//1 20//1 21//1
f 21//2 20//2 19//2
f 22//1 23//1 24//1
f 24//2 23//2 22//2
f 25//1 26//1 27//1
f 27//2 26//2 25//2
f 28//1 29//1 30//1
f 30//2 29//2 28//2
f 31//1 32//1 33//1
f 33//2 32//2 31//2
f 34//1 35//1 36//1
f 36//2 35//2 34//2
f 37//1 38//1 39//1
f 39//2 38//2 37//2
f 40//1 41//1 42//1
f 42//2 41//2 40//2
f 43//1 44//1 45//1
f 45//2 44//2 43//2
f 46//1 47//1 48//1
f 48//2 47//2 46//2
f 49//1 50//1 51//1
f 51//2 50//2 49//2
f 52//1 53//1 54//1
f 54//2 53//2 52//2
f 55//1 56//1 57//1
f 57//2 56//2 55//2
f 58//1 59//1 60//1
f 60//2 59//2 58//2
f 61//1 62//1 63//1
f 63//2 62//2 61//2
f 64//1 65//1 66//1
f 66//2 65//2 64//2
f 67//1 68//1 69//1
f 69//2 68//2 67//2
f 70//1 71//1 72//1
f 72//2 71//2 70//2
f 73//1 74//1 75//1
f 75//2 74//2 73//2
f 76//1 77//1 78//1
f 78//2 77//2 76//2
f 79//1 80//1 81//1
f 81//2 80//2 79//2
f 82//1 83//1 84//1
f 84//2 83//2 82//2
f 85//1 86//1 87//1
f 87//2 86//2 85//2
f 88//1 89//1 90//1
f 90//2 89//2 88//2
f 91//1 92//1 93//1
f 93//2 92//2 91//2
f 94//1 95//1 96//1
f 96//2 95//2 94//2
f 97//1 98//1 99//1
f 99//2 98//2 97//2
f 100//1 101//1 102//1
f 102//2 101//2 100//2
f 103//1 104//1 105//1
f 105//2 104//2 103//2
f 106//1 107//1 108//1
f 108//2 107//2 106//2
f 109//1 110//1 111//1
f 111//2 110//2 109//2
f 112//1 113//1 114//1
f 114//2 113//2 112//2
f 115//1 116//1 117//1
f 117//2 116//2 115//2
f 118//1 119//1 120//1
f 120//2 119//2 118//2
f 121//1 122//1 123//1
f 123//2 122//2 121//2
f 124//1 125//1 126//1
f 126//2 125//2 124//2
f 127//1 128//1 129//1
f 129//2 128//2 127//2
