# SSTK version 0.8.0
# 7
mtllib original-7.mtl
o #ID181
v 0.808854 0.536252 0.059768
v 0.808854 0.536252 -0.187567
v 0.796760 0.539749 0.059768
v 0.796760 0.539749 -0.187566
v 0.784358 0.541914 0.059768
v 0.784358 0.541914 -0.187566
v 0.820499 0.531467 0.059768
v 0.820499 0.531467 -0.187566
v 0.781432 0.542103 -0.187566
v 0.771794 0.542724 0.059768
v 0.771794 0.542724 -0.187567
v 0.831555 0.525448 0.059768
v 0.831555 0.525448 -0.187566
v 0.759217 0.542168 -0.187566
v 0.841896 0.518267 0.059768
v 0.841896 0.518267 -0.187566
v 0.759217 0.542168 -0.186106
v 0.759217 0.542169 -0.186099
v 0.759217 0.542169 -0.186095
v 0.759217 0.542169 -0.186092
v 0.759217 0.542169 -0.186101
v 0.851398 0.510007 0.059768
v 0.851398 0.510008 -0.187567
v 0.759217 0.542168 0.059768
v 0.859950 0.500768 0.059768
v 0.859950 0.500768 -0.187567
v 0.867448 0.490656 0.059768
v 0.867448 0.490656 -0.187567
v 0.873810 0.479792 0.059768
v 0.873810 0.479792 -0.187566
v 0.878956 0.468302 0.059768
v 0.878956 0.468303 -0.187566
vn 0.3294137060120941 0.9441856863410807 -6.359091869231055e-9
vn 0.22520290571323529 0.9743118860294764 -6.0207916431118565e-9
vn -0.3294137060120941 -0.9441856863410807 6.359091869231055e-9
vn -0.22520290571323529 -0.9743118860294764 6.0207916431118565e-9
vn 0.1183419988091279 0.9929728955605286 -7.762894748839237e-9
vn -0.1183419988091279 -0.9929728955605286 7.762894748839237e-9
vn 0.429748121231821 0.9029488093450923 0
vn -0.429748121231821 -0.9029488093450923 0
vn 0.06430991902047398 0.9979299746553263 -4.338809460852235e-9
vn -0.06430991902047398 -0.9979299746553263 4.338809460852235e-9
vn 0.010089510420762652 0.9999490995912013 0.0000024930268680242363
vn -0.010089510420762652 -0.9999490995912013 -0.0000024930268680242363
vn 0.010088520010743651 0.9999491095870795 -4.479277634135775e-9
vn -0.010088520010743651 -0.9999491095870795 4.479277634135775e-9
vn 0.5250254907425795 0.8510865021080488 0
vn -0.5250254907425795 -0.8510865021080488 0
vn -0.043831947756584375 0.9990389181968637 -0.000016849463379981515
vn 0.043831947756584375 -0.9990389181968637 0.000016849463379981515
vn 0.6141246923767718 0.7892090104738637 0
vn -0.6141246923767718 -0.7892090104738637 0
vn -0.7066611786131748 0.707552007219929 -0.00036840207397537784
vn -0.7012540762122076 0.7129113428870976 -0.0003711855040284317
vn 0.7066611786131748 -0.707552007219929 0.00036840207397537784
vn 0.7012540762122076 -0.7129113428870976 0.0003711855040284317
vn -0.7353842695756886 0.6776502428056964 -0.00035282575236538123
vn 0.7353842695756886 -0.6776502428056964 0.00035282575236538123
vn -0.7191657121010695 0.6948385078037606 -0.00035582468255798336
vn 0.7191657121010695 -0.6948385078037606 0.00035582468255798336
vn -0.7312952297285359 0.682060965648261 -0.00035512708917451093
vn 0.7312952297285359 -0.682060965648261 0.00035512708917451093
vn 0.6959971581780023 0.718044536089611 -1.9616379702036483e-9
vn -0.6959971581780023 -0.718044536089611 1.9616379702036483e-9
vn -0.04416257964765217 0.9990243573263689 0.000005244078513752456
vn 0.04416257964765217 -0.9990243573263689 -0.000005244078513752456
vn 0.7696794886661068 0.638430485430231 -2.4293936157523134e-9
vn -0.7696794886661068 -0.638430485430231 2.4293936157523134e-9
vn 0.834304605768243 0.5513037500270579 -3.1648917039429995e-9
vn -0.834304605768243 -0.5513037500270579 3.1648917039429995e-9
vn 0.8891121097563821 0.45768947582892416 -1.3822141118185672e-9
vn -0.8891121097563821 -0.45768947582892416 1.3822141118185672e-9
vn 0.9126279190988176 0.40879124413490303 1.881962829851953e-9
vn -0.9126279190988176 -0.40879124413490303 -1.881962829851953e-9
usemtl material_0_2
f 1//1 2//1 3//2
f 3//4 2//3 1//3
f 4//2 3//2 2//1
f 2//3 3//4 4//4
f 3//2 4//2 5//5
f 5//6 4//4 3//4
f 6//5 5//5 4//2
f 4//4 5//6 6//6
f 7//7 8//7 1//1
f 1//3 8//8 7//8
f 2//1 1//1 8//7
f 8//8 1//3 2//3
f 6//5 9//9 5//5
f 5//6 9//10 6//6
f 5//5 9//9 10//11
f 10//12 9//10 5//6
f 11//13 10//11 9//9
f 9//10 10//12 11//14
f 12//15 13//15 7//7
f 7//8 13//16 12//16
f 8//7 7//7 13//15
f 13//16 7//8 8//8
f 11//13 14//17 10//11
f 10//12 14//18 11//14
f 15//19 16//19 12//15
f 12//16 16//20 15//20
f 13//15 12//15 16//19
f 16//20 12//16 13//16
f 17//21 18//22 10//11
f 10//12 18//24 17//23
f 18//22 19//25 10//11
f 10//12 19//26 18//24
f 20//27 10//11 19//25
f 19//26 10//12 20//28
f 14//17 17//21 10//11
f 10//12 17//23 14//18
f 21//29 18//22 17//21
f 17//23 18//24 21//30
f 22//31 23//31 15//19
f 15//20 23//32 22//32
f 16//19 15//19 23//31
f 23//32 15//20 16//20
f 20//27 24//33 10//11
f 10//12 24//34 20//28
f 22//31 25//35 23//31
f 23//32 25//36 22//32
f 26//35 23//31 25//35
f 25//36 23//32 26//36
f 25//35 27//37 26//35
f 26//36 27//38 25//36
f 28//37 26//35 27//37
f 27//38 26//36 28//38
f 27//37 29//39 28//37
f 28//38 29//40 27//38
f 30//39 28//37 29//39
f 29//40 28//38 30//40
f 29//39 31//41 30//39
f 30//40 31//42 29//40
f 32//41 30//39 31//41
f 31//42 30//40 32//42
