# SSTK version 0.8.0
# 80
mtllib original-80.mtl
o #ID51
v 0.608055 -0.089791 0.183465
v 0.609148 -0.086102 0.179507
v 0.609148 -0.086102 0.183465
v 0.608055 -0.089791 0.179507
v 0.610092 -0.084541 0.179507
v 0.610092 -0.084541 0.183465
v 0.607807 -0.093276 0.183465
v 0.607807 -0.093276 0.179507
v 0.611350 -0.083360 0.183465
v 0.611350 -0.083360 0.179507
v 0.608084 -0.096863 0.183465
v 0.608084 -0.096863 0.179507
v 0.612929 -0.082616 0.183465
v 0.612929 -0.082616 0.179507
v 0.609148 -0.100392 0.183465
v 0.609148 -0.100392 0.179507
v 0.614835 -0.082369 0.183465
v 0.614835 -0.082369 0.179507
v 0.610067 -0.101872 0.183465
v 0.610067 -0.101872 0.179507
v 0.616866 -0.082616 0.183465
v 0.616866 -0.082616 0.179507
v 0.611306 -0.103046 0.179507
v 0.611306 -0.103046 0.183465
v 0.618408 -0.083360 0.183465
v 0.618408 -0.083360 0.179507
v 0.612888 -0.103812 0.179507
v 0.612888 -0.103812 0.183465
v 0.619585 -0.084541 0.179507
v 0.619585 -0.084541 0.183465
v 0.614835 -0.104067 0.179507
v 0.614835 -0.104067 0.183465
v 0.620522 -0.086102 0.179507
v 0.620522 -0.086102 0.183465
v 0.616662 -0.103804 0.179507
v 0.616662 -0.103804 0.183465
v 0.621645 -0.089587 0.179507
v 0.621645 -0.089587 0.183465
v 0.618175 -0.103017 0.179507
v 0.618175 -0.103017 0.183465
v 0.621922 -0.093276 0.179507
v 0.621922 -0.093276 0.183465
v 0.619418 -0.101814 0.179507
v 0.619418 -0.101814 0.183465
v 0.621543 -0.096951 0.179507
v 0.621543 -0.096951 0.183465
v 0.620435 -0.100305 0.183465
v 0.620435 -0.100305 0.179507
vt -0.3754154 0.04738991
vt -0.329345 0
vt -0.329345 0.04738991
vt -0.3754154 0
vt -0.4835839 0.04738991
vt -0.4617489 0
vt -0.4617489 0.04738991
vt -0.4835839 0
vt -0.2680422 0.04738991
vt -0.2262105 0
vt -0.2262105 0.04738991
vt -0.2680422 0
vt -0.5712778 0.04738991
vt -0.5919353 0
vt -0.5712778 0
vt -0.5919353 0.04738991
vt -0.2023746 0.04738991
vt -0.1592983 0
vt -0.1592983 0.04738991
vt -0.2023746 0
vt -0.64668 0.04738991
vt -0.6675715 0
vt -0.64668 0
vt -0.6675715 0.04738991
vt -0.081401 0.04738991
vt -0.03727051 0
vt -0.03727051 0.04738991
vt -0.081401 0
vt -0.6558104 0.04738991
vt -0.6788298 0
vt -0.6558104 0
vt -0.6788298 0.04738991
vt 0.1015975 0.04738991
vt 0.1224541 0
vt 0.1224541 0.04738991
vt 0.1015975 0
vt -0.6104696 0.04738991
vt -0.6349614 0
vt -0.6104696 0
vt -0.6349614 0.04738991
vt 0.2938783 0.04738991
vt 0.2734395 0
vt 0.2938783 0
vt 0.2734395 0.04738991
vt -0.5046194 0.04738991
vt -0.5251169 0
vt -0.5046194 0
vt -0.5251169 0.04738991
vt 0.4780386 0.04738991
vt 0.4569949 0
vt 0.4780386 0
vt 0.4569949 0.04738991
vt -0.339616 0
vt -0.3595844 0.04738991
vt -0.3595844 0
vt -0.339616 0.04738991
vt 0.6232241 0.04738991
vt 0.5997173 0
vt 0.6232241 0
vt 0.5997173 0.04738991
vt -0.1876878 0
vt -0.2094777 0.04738991
vt -0.2094777 0
vt -0.1876878 0.04738991
vt 0.6927241 0.04738991
vt 0.6706324 0
vt 0.6927241 0
vt 0.6706324 0.04738991
vt -0.01035712 0
vt -0.05419551 0.04738991
vt -0.05419551 0
vt -0.01035712 0.04738991
vt 0.715471 0.04738991
vt 0.6950509 0
vt 0.715471 0
vt 0.6950509 0.04738991
vt 0.1735449 0
vt 0.12925 0.04738991
vt 0.12925 0
vt 0.1735449 0.04738991
vt 0.6701312 0.04738991
vt 0.6494194 0
vt 0.6701312 0
vt 0.6494194 0.04738991
vt 0.3175922 0
vt 0.2733628 0.04738991
vt 0.2733628 0
vt 0.3175922 0.04738991
vt 0.5969789 0
vt 0.5751888 0.04738991
vt 0.5751888 0
vt 0.5969789 0.04738991
vt 0.4684123 0
vt 0.4261219 0.04738991
vt 0.4261219 0
vt 0.4684123 0.04738991
vn 0.9839152108652928 -0.17863610449152392 0
vn 0.9146357633972397 -0.4042788892766333 0
vn -0.9839152108652928 0.17863610449152392 0
vn -0.9146357633972397 0.4042788892766333 0
vn 0.7772681118201723 -0.6291695179738956 0
vn -0.7772681118201723 0.6291695179738956 0
vn 0.9999953904007536 0.003036309807067696 0
vn -0.9999953904007536 -0.003036309807067696 0
vn 0.5622903005657066 -0.8269399118979127 0
vn -0.5622903005657066 0.8269399118979127 0
vn 0.9829311670593284 0.18397369600947472 0
vn -0.9829311670593284 -0.18397369600947472 0
vn 0.28095649743678236 -0.9597205043907604 0
vn -0.28095649743678236 0.9597205043907604 0
vn 0.9113546707002859 0.41162199187212234 0
vn -0.9113546707002859 -0.41162199187212234 0
vn 0.0039061736325733663 -0.9999923708746743 0
vn -0.0039061736325733663 0.9999923708746743 0
vn 0.7750274996047134 0.6319275075959789 0
vn -0.7750274996047134 -0.6319275075959789 0
vn -0.28156258632837555 -0.9595428651082117 0
vn 0.28156258632837555 0.9595428651082117 0
vn 0.5682996670524352 0.8228216625904373 0
vn -0.5682996670524352 -0.8228216625904373 0
vn -0.5795311727947807 -0.8149500719425123 0
vn 0.5795311727947807 0.8149500719425123 0
vn 0.28643338449208205 0.9581001598206793 0
vn -0.28643338449208205 -0.9581001598206793 0
vn -0.7885751639924105 -0.6149383796237985 0
vn 0.7885751639924105 0.6149383796237985 0
vn -0.006196125740420268 0.9999808038286581 0
vn 0.006196125740420268 -0.9999808038286581 0
vn -0.9105353653871634 -0.4134311894127786 0
vn 0.9105353653871634 0.4134311894127786 0
vn -0.3063124998253389 0.9519310124429985 0
vn 0.3063124998253389 -0.9519310124429985 0
vn -0.9813724377044231 -0.19211490966106215 0
vn 0.9813724377044231 0.19211490966106215 0
vn -0.5846530941361802 0.8112834027126348 0
vn 0.5846530941361802 -0.8112834027126348 0
vn -0.9999030298026074 0.013925910798449844 0
vn 0.9999030298026074 -0.013925910798449844 0
vn -0.7665169139409721 0.6422241202589702 0
vn 0.7665169139409721 -0.6422241202589702 0
vn -0.977827155925824 0.20941359347953992 0
vn 0.977827155925824 -0.20941359347953992 0
vn -0.8977897972388815 0.44042420457300935 0
vn 0.8977897972388815 -0.44042420457300935 0
usemtl material_0_2
f 1/1/1 2/2/2 3/3/2
f 3/3/4 2/2/4 1/1/3
f 2/2/2 1/1/1 4/4/1
f 4/4/3 1/1/3 2/2/4
f 3/5/2 5/6/5 6/7/5
f 6/7/6 5/6/6 3/5/4
f 5/6/5 3/5/2 2/8/2
f 2/8/4 3/5/4 5/6/6
f 7/9/7 4/10/1 1/11/1
f 1/11/3 4/10/3 7/9/8
f 4/10/1 7/9/7 8/12/7
f 8/12/8 7/9/8 4/10/3
f 9/13/9 5/14/5 10/15/9
f 10/15/10 5/14/6 9/13/10
f 5/14/5 9/13/9 6/16/5
f 6/16/6 9/13/10 5/14/6
f 11/17/11 8/18/7 7/19/7
f 7/19/8 8/18/8 11/17/12
f 8/18/7 11/17/11 12/20/11
f 12/20/12 11/17/12 8/18/8
f 13/21/13 10/22/9 14/23/13
f 14/23/14 10/22/10 13/21/14
f 10/22/9 13/21/13 9/24/9
f 9/24/10 13/21/14 10/22/10
f 15/25/15 12/26/11 11/27/11
f 11/27/12 12/26/12 15/25/16
f 12/26/11 15/25/15 16/28/15
f 16/28/16 15/25/16 12/26/12
f 17/29/17 14/30/13 18/31/17
f 18/31/18 14/30/14 17/29/18
f 14/30/13 17/29/17 13/32/13
f 13/32/14 17/29/18 14/30/14
f 19/33/19 16/34/15 15/35/15
f 15/35/16 16/34/16 19/33/20
f 16/34/15 19/33/19 20/36/19
f 20/36/20 19/33/20 16/34/16
f 21/37/21 18/38/17 22/39/21
f 22/39/22 18/38/18 21/37/22
f 18/38/17 21/37/21 17/40/17
f 17/40/18 21/37/22 18/38/18
f 19/41/19 23/42/23 20/43/19
f 20/43/20 23/42/24 19/41/20
f 23/42/23 19/41/19 24/44/23
f 24/44/24 19/41/20 23/42/24
f 25/45/25 22/46/21 26/47/25
f 26/47/26 22/46/22 25/45/26
f 22/46/21 25/45/25 21/48/21
f 21/48/22 25/45/26 22/46/22
f 24/49/23 27/50/27 23/51/23
f 23/51/24 27/50/28 24/49/24
f 27/50/27 24/49/23 28/52/27
f 28/52/28 24/49/24 27/50/28
f 29/53/29 25/54/25 26/55/25
f 26/55/26 25/54/26 29/53/30
f 25/54/25 29/53/29 30/56/29
f 30/56/30 29/53/30 25/54/26
f 28/57/27 31/58/31 27/59/27
f 27/59/28 31/58/32 28/57/28
f 31/58/31 28/57/27 32/60/31
f 32/60/32 28/57/28 31/58/32
f 33/61/33 30/62/29 29/63/29
f 29/63/30 30/62/30 33/61/34
f 30/62/29 33/61/33 34/64/33
f 34/64/34 33/61/34 30/62/30
f 32/65/31 35/66/35 31/67/31
f 31/67/32 35/66/36 32/65/32
f 35/66/35 32/65/31 36/68/35
f 36/68/36 32/65/32 35/66/36
f 37/69/37 34/70/33 33/71/33
f 33/71/34 34/70/34 37/69/38
f 34/70/33 37/69/37 38/72/37
f 38/72/38 37/69/38 34/70/34
f 36/73/35 39/74/39 35/75/35
f 35/75/36 39/74/40 36/73/36
f 39/74/39 36/73/35 40/76/39
f 40/76/40 36/73/36 39/74/40
f 41/77/41 38/78/37 37/79/37
f 37/79/38 38/78/38 41/77/42
f 38/78/37 41/77/41 42/80/41
f 42/80/42 41/77/42 38/78/38
f 40/81/39 43/82/43 39/83/39
f 39/83/40 43/82/44 40/81/40
f 43/82/43 40/81/39 44/84/43
f 44/84/44 40/81/40 43/82/44
f 45/85/45 42/86/41 41/87/41
f 41/87/42 42/86/42 45/85/46
f 42/86/41 45/85/45 46/88/45
f 46/88/46 45/85/46 42/86/42
f 43/89/43 47/90/47 48/91/47
f 48/91/48 47/90/48 43/89/44
f 47/90/47 43/89/43 44/92/43
f 44/92/44 43/89/44 47/90/48
f 48/93/47 46/94/45 45/95/45
f 45/95/46 46/94/46 48/93/48
f 46/94/45 48/93/47 47/96/47
f 47/96/48 48/93/48 46/94/46
