# SSTK version 0.8.0
# 45
mtllib original-45.mtl
o #ID435
v 0.570789 -0.254451 0.136284
v 0.570789 -0.255303 0.136177
v 0.570789 -0.359427 0.152896
v 0.570789 -0.256098 0.135853
v 0.570789 -0.273907 0.136602
v 0.570789 -0.274751 0.136444
v 0.570789 -0.275525 0.136073
v 0.570789 -0.276177 0.135515
v 0.570789 -0.290557 0.135947
v 0.570789 -0.291415 0.135962
v 0.570789 -0.292248 0.135754
v 0.570789 -0.292998 0.135337
v 0.570789 -0.310452 0.135975
v 0.570789 -0.311310 0.135938
v 0.570789 -0.312129 0.135680
v 0.570789 -0.331876 0.136457
v 0.570789 -0.332730 0.136368
v 0.570789 -0.333532 0.136062
v 0.570789 -0.334228 0.135559
v 0.570789 -0.334769 0.134893
v 0.570789 -0.335120 0.134109
v 0.570789 -0.335255 0.133262
v 0.570789 -0.335167 0.132408
v 0.570789 -0.334861 0.131606
v 0.570789 -0.334358 0.130911
v 0.570789 -0.332061 0.129883
v 0.570789 -0.359427 0.128477
v 0.570789 -0.332908 0.130018
v 0.570789 -0.333692 0.130369
v 0.570789 -0.240134 0.152896
v 0.570789 -0.253600 0.136167
v 0.570789 -0.252809 0.135834
v 0.570789 -0.252131 0.135308
v 0.570789 -0.251613 0.134624
v 0.570789 -0.251289 0.133829
v 0.570789 -0.251182 0.132977
v 0.570789 -0.251299 0.132127
v 0.570789 -0.251632 0.131335
v 0.570789 -0.240134 0.128477
v 0.570789 -0.252158 0.130657
v 0.570789 -0.252842 0.130139
v 0.570789 -0.253637 0.129815
v 0.570789 -0.254489 0.129708
v 0.570789 -0.271934 0.130564
v 0.570789 -0.272708 0.130193
v 0.570789 -0.273552 0.130035
v 0.570789 -0.288466 0.130649
v 0.570789 -0.289083 0.130052
v 0.570789 -0.289834 0.129636
v 0.570789 -0.290667 0.129428
v 0.570789 -0.291525 0.129442
v 0.570789 -0.308629 0.130179
v 0.570789 -0.309353 0.129718
v 0.570789 -0.310172 0.129461
v 0.570789 -0.311030 0.129424
v 0.570789 -0.330405 0.130277
v 0.570789 -0.331207 0.129971
v 0.570789 -0.273051 0.136536
v 0.570789 -0.256782 0.135335
v 0.570789 -0.272242 0.136251
v 0.570789 -0.271533 0.135766
v 0.570789 -0.257308 0.134657
v 0.570789 -0.270975 0.135114
v 0.570789 -0.257641 0.133865
v 0.570789 -0.270604 0.134340
v 0.570789 -0.257758 0.133015
v 0.570789 -0.270446 0.133497
v 0.570789 -0.257651 0.132163
v 0.570789 -0.270512 0.132641
v 0.570789 -0.257327 0.131368
v 0.570789 -0.270797 0.131831
v 0.570789 -0.256808 0.130684
v 0.570789 -0.271282 0.131123
v 0.570789 -0.256130 0.130158
v 0.570789 -0.255339 0.129825
v 0.570789 -0.289731 0.135711
v 0.570789 -0.276662 0.134806
v 0.570789 -0.288995 0.135269
v 0.570789 -0.276947 0.133997
v 0.570789 -0.288399 0.134652
v 0.570789 -0.287982 0.133902
v 0.570789 -0.277013 0.133141
v 0.570789 -0.287774 0.133069
v 0.570789 -0.276855 0.132297
v 0.570789 -0.287788 0.132210
v 0.570789 -0.276484 0.131523
v 0.570789 -0.275925 0.130871
v 0.570789 -0.288025 0.131385
v 0.570789 -0.275217 0.130386
v 0.570789 -0.274408 0.130101
v 0.570789 -0.309614 0.135788
v 0.570789 -0.293615 0.134740
v 0.570789 -0.308853 0.135392
v 0.570789 -0.294057 0.134004
v 0.570789 -0.308221 0.134811
v 0.570789 -0.307760 0.134087
v 0.570789 -0.294293 0.133179
v 0.570789 -0.307502 0.133268
v 0.570789 -0.294308 0.132321
v 0.570789 -0.307465 0.132410
v 0.570789 -0.294100 0.131488
v 0.570789 -0.293683 0.130737
v 0.570789 -0.307652 0.131572
v 0.570789 -0.293086 0.130120
v 0.570789 -0.308049 0.130811
v 0.570789 -0.292350 0.129678
v 0.570789 -0.331029 0.136321
v 0.570789 -0.312853 0.135220
v 0.570789 -0.330245 0.135970
v 0.570789 -0.313433 0.134587
v 0.570789 -0.329579 0.135429
v 0.570789 -0.313830 0.133826
v 0.570789 -0.329076 0.134733
v 0.570789 -0.328770 0.133931
v 0.570789 -0.314016 0.132988
v 0.570789 -0.328681 0.133077
v 0.570789 -0.313980 0.132130
v 0.570789 -0.328817 0.132230
v 0.570789 -0.313722 0.131311
v 0.570789 -0.313261 0.130587
v 0.570789 -0.329168 0.131446
v 0.570789 -0.312629 0.130007
v 0.570789 -0.329709 0.130780
v 0.570789 -0.311868 0.129610
v 0.570789 -0.359427 0.152896
v 0.570789 -0.359427 0.128477
v 0.292925 -0.359427 0.152896
v 0.292925 -0.359427 0.128477
v 0.292925 -0.359427 0.128477
v 0.570789 -0.359427 0.128477
v 0.292925 -0.240134 0.128477
v 0.570789 -0.240134 0.128477
v 0.570789 -0.240134 0.152896
v 0.292925 -0.240134 0.152896
v 0.570789 -0.240134 0.128477
v 0.292925 -0.240134 0.128477
v 0.292925 -0.350133 0.137379
v 0.292925 -0.349279 0.137294
v 0.292925 -0.332730 0.136368
v 0.292925 -0.348476 0.136991
v 0.292925 -0.333532 0.136062
v 0.292925 -0.347778 0.136491
v 0.292925 -0.334228 0.135559
v 0.292925 -0.347234 0.135827
v 0.292925 -0.334769 0.134893
v 0.292925 -0.346881 0.135044
v 0.292925 -0.335120 0.134109
v 0.292925 -0.346742 0.134197
v 0.292925 -0.335255 0.133262
v 0.292925 -0.346827 0.133343
v 0.292925 -0.335167 0.132408
v 0.292925 -0.347130 0.132540
v 0.292925 -0.334861 0.131606
v 0.292925 -0.347630 0.131843
v 0.292925 -0.334358 0.130911
v 0.292925 -0.348294 0.131299
v 0.292925 -0.333692 0.130369
v 0.292925 -0.332908 0.130018
v 0.292925 -0.349077 0.130945
v 0.292925 -0.332061 0.129883
v 0.292925 -0.349924 0.130806
v 0.292925 -0.331876 0.136457
v 0.292925 -0.331029 0.136321
v 0.292925 -0.312129 0.135680
v 0.292925 -0.312853 0.135220
v 0.292925 -0.330245 0.135970
v 0.292925 -0.313433 0.134587
v 0.292925 -0.329579 0.135429
v 0.292925 -0.313830 0.133826
v 0.292925 -0.329076 0.134733
v 0.292925 -0.328770 0.133931
v 0.292925 -0.314016 0.132988
v 0.292925 -0.328681 0.133077
v 0.292925 -0.313980 0.132130
v 0.292925 -0.328817 0.132230
v 0.292925 -0.313722 0.131311
v 0.292925 -0.313261 0.130587
v 0.292925 -0.329168 0.131446
v 0.292925 -0.312629 0.130007
v 0.292925 -0.329709 0.130780
v 0.292925 -0.311868 0.129610
v 0.292925 -0.311030 0.129424
v 0.292925 -0.330405 0.130277
v 0.292925 -0.310452 0.135975
v 0.292925 -0.309614 0.135788
v 0.292925 -0.292998 0.135337
v 0.292925 -0.293615 0.134740
v 0.292925 -0.308853 0.135392
v 0.292925 -0.294057 0.134004
v 0.292925 -0.308221 0.134811
v 0.292925 -0.307760 0.134087
v 0.292925 -0.294293 0.133179
v 0.292925 -0.307502 0.133268
v 0.292925 -0.294308 0.132321
v 0.292925 -0.307465 0.132410
v 0.292925 -0.294100 0.131488
v 0.292925 -0.293683 0.130737
v 0.292925 -0.307652 0.131572
v 0.292925 -0.293086 0.130120
v 0.292925 -0.308049 0.130811
v 0.292925 -0.292350 0.129678
v 0.292925 -0.291525 0.129442
v 0.292925 -0.308629 0.130179
v 0.292925 -0.290557 0.135947
v 0.292925 -0.289731 0.135711
v 0.292925 -0.276177 0.135515
v 0.292925 -0.276662 0.134806
v 0.292925 -0.288995 0.135269
v 0.292925 -0.276947 0.133997
v 0.292925 -0.288399 0.134652
v 0.292925 -0.287982 0.133902
v 0.292925 -0.277013 0.133141
v 0.292925 -0.287774 0.133069
v 0.292925 -0.276855 0.132297
v 0.292925 -0.287788 0.132210
v 0.292925 -0.276484 0.131523
v 0.292925 -0.275925 0.130871
v 0.292925 -0.288025 0.131385
v 0.292925 -0.275217 0.130386
v 0.292925 -0.274408 0.130101
v 0.292925 -0.288466 0.130649
v 0.292925 -0.273552 0.130035
v 0.292925 -0.273907 0.136602
v 0.292925 -0.273051 0.136536
v 0.292925 -0.256098 0.135853
v 0.292925 -0.256782 0.135335
v 0.292925 -0.272242 0.136251
v 0.292925 -0.271533 0.135766
v 0.292925 -0.257308 0.134657
v 0.292925 -0.270975 0.135114
v 0.292925 -0.257641 0.133865
v 0.292925 -0.270604 0.134340
v 0.292925 -0.257758 0.133015
v 0.292925 -0.270446 0.133497
v 0.292925 -0.257651 0.132163
v 0.292925 -0.270512 0.132641
v 0.292925 -0.257327 0.131368
v 0.292925 -0.270797 0.131831
v 0.292925 -0.256808 0.130684
v 0.292925 -0.271282 0.131123
v 0.292925 -0.256130 0.130158
v 0.292925 -0.255339 0.129825
v 0.292925 -0.254489 0.129708
v 0.292925 -0.271934 0.130564
v 0.292925 -0.359427 0.152896
v 0.292925 -0.254451 0.136284
v 0.292925 -0.240134 0.152896
v 0.292925 -0.253600 0.136167
v 0.292925 -0.252809 0.135834
v 0.292925 -0.252131 0.135308
v 0.292925 -0.251613 0.134624
v 0.292925 -0.251289 0.133829
v 0.292925 -0.251182 0.132977
v 0.292925 -0.251299 0.132127
v 0.292925 -0.251632 0.131335
v 0.292925 -0.240134 0.128477
v 0.292925 -0.252158 0.130657
v 0.292925 -0.252842 0.130139
v 0.292925 -0.253637 0.129815
v 0.292925 -0.272708 0.130193
v 0.292925 -0.289083 0.130052
v 0.292925 -0.289834 0.129636
v 0.292925 -0.290667 0.129428
v 0.292925 -0.309353 0.129718
v 0.292925 -0.310172 0.129461
v 0.292925 -0.331207 0.129971
v 0.292925 -0.359427 0.128477
v 0.292925 -0.255303 0.136177
v 0.292925 -0.274751 0.136444
v 0.292925 -0.275525 0.136073
v 0.292925 -0.291415 0.135962
v 0.292925 -0.292248 0.135754
v 0.292925 -0.311310 0.135938
v 0.292925 -0.350980 0.137240
v 0.292925 -0.351762 0.136887
v 0.292925 -0.352426 0.136343
v 0.292925 -0.352927 0.135645
v 0.292925 -0.353230 0.134842
v 0.292925 -0.353315 0.133988
v 0.292925 -0.353176 0.133141
v 0.292925 -0.352822 0.132359
v 0.292925 -0.352278 0.131695
v 0.292925 -0.351581 0.131194
v 0.292925 -0.350778 0.130891
vn -1 0 0
vn 1 0 0
vn 0 1 0
vn 0 -1 0
vn 0 0 1
vn 0 0 -1
usemtl material_0_2
f 1//1 2//1 3//1
f 3//2 2//2 1//2
f 2//1 4//1 3//1
f 3//2 4//2 2//2
f 4//1 5//1 3//1
f 3//2 5//2 4//2
f 5//1 6//1 3//1
f 3//2 6//2 5//2
f 6//1 7//1 3//1
f 3//2 7//2 6//2
f 7//1 8//1 3//1
f 3//2 8//2 7//2
f 8//1 9//1 3//1
f 3//2 9//2 8//2
f 9//1 10//1 3//1
f 3//2 10//2 9//2
f 10//1 11//1 3//1
f 3//2 11//2 10//2
f 11//1 12//1 3//1
f 3//2 12//2 11//2
f 12//1 13//1 3//1
f 3//2 13//2 12//2
f 13//1 14//1 3//1
f 3//2 14//2 13//2
f 14//1 15//1 3//1
f 3//2 15//2 14//2
f 15//1 16//1 3//1
f 3//2 16//2 15//2
f 16//1 17//1 3//1
f 3//2 17//2 16//2
f 17//1 18//1 3//1
f 3//2 18//2 17//2
f 18//1 19//1 3//1
f 3//2 19//2 18//2
f 19//1 20//1 3//1
f 3//2 20//2 19//2
f 20//1 21//1 3//1
f 3//2 21//2 20//2
f 21//1 22//1 3//1
f 3//2 22//2 21//2
f 22//1 23//1 3//1
f 3//2 23//2 22//2
f 23//1 24//1 3//1
f 3//2 24//2 23//2
f 24//1 25//1 3//1
f 3//2 25//2 24//2
f 26//1 27//1 28//1
f 28//2 27//2 26//2
f 28//1 27//1 29//1
f 29//2 27//2 28//2
f 29//1 27//1 25//1
f 25//2 27//2 29//2
f 3//1 25//1 27//1
f 27//2 25//2 3//2
f 3//1 30//1 1//1
f 1//2 30//2 3//2
f 1//1 30//1 31//1
f 31//2 30//2 1//2
f 31//1 30//1 32//1
f 32//2 30//2 31//2
f 32//1 30//1 33//1
f 33//2 30//2 32//2
f 33//1 30//1 34//1
f 34//2 30//2 33//2
f 34//1 30//1 35//1
f 35//2 30//2 34//2
f 35//1 30//1 36//1
f 36//2 30//2 35//2
f 36//1 30//1 37//1
f 37//2 30//2 36//2
f 37//1 30//1 38//1
f 38//2 30//2 37//2
f 30//1 39//1 38//1
f 38//2 39//2 30//2
f 38//1 39//1 40//1
f 40//2 39//2 38//2
f 40//1 39//1 41//1
f 41//2 39//2 40//2
f 41//1 39//1 42//1
f 42//2 39//2 41//2
f 42//1 39//1 43//1
f 43//2 39//2 42//2
f 43//1 39//1 44//1
f 44//2 39//2 43//2
f 44//1 39//1 45//1
f 45//2 39//2 44//2
f 45//1 39//1 46//1
f 46//2 39//2 45//2
f 46//1 39//1 47//1
f 47//2 39//2 46//2
f 47//1 39//1 48//1
f 48//2 39//2 47//2
f 48//1 39//1 49//1
f 49//2 39//2 48//2
f 49//1 39//1 50//1
f 50//2 39//2 49//2
f 50//1 39//1 51//1
f 51//2 39//2 50//2
f 52//1 51//1 53//1
f 53//2 51//2 52//2
f 51//1 39//1 53//1
f 53//2 39//2 51//2
f 53//1 39//1 54//1
f 54//2 39//2 53//2
f 54//1 39//1 55//1
f 55//2 39//2 54//2
f 56//1 55//1 57//1
f 57//2 55//2 56//2
f 57//1 55//1 26//1
f 26//2 55//2 57//2
f 39//1 27//1 55//1
f 55//2 27//2 39//2
f 26//1 55//1 27//1
f 27//2 55//2 26//2
f 5//1 4//1 58//1
f 58//2 4//2 5//2
f 4//1 59//1 58//1
f 58//2 59//2 4//2
f 58//1 59//1 60//1
f 60//2 59//2 58//2
f 60//1 59//1 61//1
f 61//2 59//2 60//2
f 59//1 62//1 61//1
f 61//2 62//2 59//2
f 61//1 62//1 63//1
f 63//2 62//2 61//2
f 62//1 64//1 63//1
f 63//2 64//2 62//2
f 63//1 64//1 65//1
f 65//2 64//2 63//2
f 64//1 66//1 65//1
f 65//2 66//2 64//2
f 65//1 66//1 67//1
f 67//2 66//2 65//2
f 66//1 68//1 67//1
f 67//2 68//2 66//2
f 67//1 68//1 69//1
f 69//2 68//2 67//2
f 68//1 70//1 69//1
f 69//2 70//2 68//2
f 69//1 70//1 71//1
f 71//2 70//2 69//2
f 70//1 72//1 71//1
f 71//2 72//2 70//2
f 71//1 72//1 73//1
f 73//2 72//2 71//2
f 72//1 74//1 73//1
f 73//2 74//2 72//2
f 74//1 75//1 73//1
f 73//2 75//2 74//2
f 75//1 43//1 73//1
f 73//2 43//2 75//2
f 44//1 73//1 43//1
f 43//2 73//2 44//2
f 9//1 8//1 76//1
f 76//2 8//2 9//2
f 8//1 77//1 76//1
f 76//2 77//2 8//2
f 76//1 77//1 78//1
f 78//2 77//2 76//2
f 77//1 79//1 78//1
f 78//2 79//2 77//2
f 78//1 79//1 80//1
f 80//2 79//2 78//2
f 80//1 79//1 81//1
f 81//2 79//2 80//2
f 79//1 82//1 81//1
f 81//2 82//2 79//2
f 81//1 82//1 83//1
f 83//2 82//2 81//2
f 82//1 84//1 83//1
f 83//2 84//2 82//2
f 83//1 84//1 85//1
f 85//2 84//2 83//2
f 84//1 86//1 85//1
f 85//2 86//2 84//2
f 86//1 87//1 85//1
f 85//2 87//2 86//2
f 85//1 87//1 88//1
f 88//2 87//2 85//2
f 87//1 89//1 88//1
f 88//2 89//2 87//2
f 89//1 90//1 88//1
f 88//2 90//2 89//2
f 46//1 47//1 90//1
f 90//2 47//2 46//2
f 88//1 90//1 47//1
f 47//2 90//2 88//2
f 13//1 12//1 91//1
f 91//2 12//2 13//2
f 12//1 92//1 91//1
f 91//2 92//2 12//2
f 91//1 92//1 93//1
f 93//2 92//2 91//2
f 92//1 94//1 93//1
f 93//2 94//2 92//2
f 93//1 94//1 95//1
f 95//2 94//2 93//2
f 95//1 94//1 96//1
f 96//2 94//2 95//2
f 94//1 97//1 96//1
f 96//2 97//2 94//2
f 96//1 97//1 98//1
f 98//2 97//2 96//2
f 97//1 99//1 98//1
f 98//2 99//2 97//2
f 98//1 99//1 100//1
f 100//2 99//2 98//2
f 99//1 101//1 100//1
f 100//2 101//2 99//2
f 101//1 102//1 100//1
f 100//2 102//2 101//2
f 100//1 102//1 103//1
f 103//2 102//2 100//2
f 102//1 104//1 103//1
f 103//2 104//2 102//2
f 103//1 104//1 105//1
f 105//2 104//2 103//2
f 104//1 106//1 105//1
f 105//2 106//2 104//2
f 106//1 51//1 105//1
f 105//2 51//2 106//2
f 52//1 105//1 51//1
f 51//2 105//2 52//2
f 16//1 15//1 107//1
f 107//2 15//2 16//2
f 15//1 108//1 107//1
f 107//2 108//2 15//2
f 107//1 108//1 109//1
f 109//2 108//2 107//2
f 108//1 110//1 109//1
f 109//2 110//2 108//2
f 109//1 110//1 111//1
f 111//2 110//2 109//2
f 110//1 112//1 111//1
f 111//2 112//2 110//2
f 111//1 112//1 113//1
f 113//2 112//2 111//2
f 113//1 112//1 114//1
f 114//2 112//2 113//2
f 112//1 115//1 114//1
f 114//2 115//2 112//2
f 114//1 115//1 116//1
f 116//2 115//2 114//2
f 115//1 117//1 116//1
f 116//2 117//2 115//2
f 116//1 117//1 118//1
f 118//2 117//2 116//2
f 117//1 119//1 118//1
f 118//2 119//2 117//2
f 119//1 120//1 118//1
f 118//2 120//2 119//2
f 118//1 120//1 121//1
f 121//2 120//2 118//2
f 120//1 122//1 121//1
f 121//2 122//2 120//2
f 121//1 122//1 123//1
f 123//2 122//2 121//2
f 122//1 124//1 123//1
f 123//2 124//2 122//2
f 124//1 55//1 123//1
f 123//2 55//2 124//2
f 56//1 123//1 55//1
f 55//2 123//2 56//2
f 125//3 126//3 127//3
f 127//4 126//4 125//4
f 128//3 127//3 126//3
f 126//4 127//4 128//4
f 129//5 130//5 131//5
f 131//6 130//6 129//6
f 132//5 131//5 130//5
f 130//6 131//6 132//6
f 133//4 134//4 135//4
f 135//3 134//3 133//3
f 136//4 135//4 134//4
f 134//3 135//3 136//3
f 137//2 138//2 139//2
f 139//1 138//1 137//1
f 138//2 140//2 139//2
f 139//1 140//1 138//1
f 139//2 140//2 141//2
f 141//1 140//1 139//1
f 140//2 142//2 141//2
f 141//1 142//1 140//1
f 141//2 142//2 143//2
f 143//1 142//1 141//1
f 142//2 144//2 143//2
f 143//1 144//1 142//1
f 143//2 144//2 145//2
f 145//1 144//1 143//1
f 144//2 146//2 145//2
f 145//1 146//1 144//1
f 145//2 146//2 147//2
f 147//1 146//1 145//1
f 146//2 148//2 147//2
f 147//1 148//1 146//1
f 147//2 148//2 149//2
f 149//1 148//1 147//1
f 148//2 150//2 149//2
f 149//1 150//1 148//1
f 149//2 150//2 151//2
f 151//1 150//1 149//1
f 150//2 152//2 151//2
f 151//1 152//1 150//1
f 151//2 152//2 153//2
f 153//1 152//1 151//1
f 152//2 154//2 153//2
f 153//1 154//1 152//1
f 153//2 154//2 155//2
f 155//1 154//1 153//1
f 154//2 156//2 155//2
f 155//1 156//1 154//1
f 155//2 156//2 157//2
f 157//1 156//1 155//1
f 157//2 156//2 158//2
f 158//1 156//1 157//1
f 156//2 159//2 158//2
f 158//1 159//1 156//1
f 158//2 159//2 160//2
f 160//1 159//1 158//1
f 161//2 160//2 159//2
f 159//1 160//1 161//1
f 162//2 163//2 164//2
f 164//1 163//1 162//1
f 164//2 163//2 165//2
f 165//1 163//1 164//1
f 163//2 166//2 165//2
f 165//1 166//1 163//1
f 165//2 166//2 167//2
f 167//1 166//1 165//1
f 166//2 168//2 167//2
f 167//1 168//1 166//1
f 167//2 168//2 169//2
f 169//1 168//1 167//1
f 168//2 170//2 169//2
f 169//1 170//1 168//1
f 170//2 171//2 169//2
f 169//1 171//1 170//1
f 169//2 171//2 172//2
f 172//1 171//1 169//1
f 171//2 173//2 172//2
f 172//1 173//1 171//1
f 172//2 173//2 174//2
f 174//1 173//1 172//1
f 173//2 175//2 174//2
f 174//1 175//1 173//1
f 174//2 175//2 176//2
f 176//1 175//1 174//1
f 176//2 175//2 177//2
f 177//1 175//1 176//1
f 175//2 178//2 177//2
f 177//1 178//1 175//1
f 177//2 178//2 179//2
f 179//1 178//1 177//1
f 178//2 180//2 179//2
f 179//1 180//1 178//1
f 179//2 180//2 181//2
f 181//1 180//1 179//1
f 181//2 180//2 182//2
f 182//1 180//1 181//1
f 183//2 182//2 180//2
f 180//1 182//1 183//1
f 184//2 185//2 186//2
f 186//1 185//1 184//1
f 186//2 185//2 187//2
f 187//1 185//1 186//1
f 185//2 188//2 187//2
f 187//1 188//1 185//1
f 187//2 188//2 189//2
f 189//1 188//1 187//1
f 188//2 190//2 189//2
f 189//1 190//1 188//1
f 190//2 191//2 189//2
f 189//1 191//1 190//1
f 189//2 191//2 192//2
f 192//1 191//1 189//1
f 191//2 193//2 192//2
f 192//1 193//1 191//1
f 192//2 193//2 194//2
f 194//1 193//1 192//1
f 193//2 195//2 194//2
f 194//1 195//1 193//1
f 194//2 195//2 196//2
f 196//1 195//1 194//1
f 196//2 195//2 197//2
f 197//1 195//1 196//1
f 195//2 198//2 197//2
f 197//1 198//1 195//1
f 197//2 198//2 199//2
f 199//1 198//1 197//1
f 198//2 200//2 199//2
f 199//1 200//1 198//1
f 199//2 200//2 201//2
f 201//1 200//1 199//1
f 201//2 200//2 202//2
f 202//1 200//1 201//1
f 203//2 202//2 200//2
f 200//1 202//1 203//1
f 204//2 205//2 206//2
f 206//1 205//1 204//1
f 206//2 205//2 207//2
f 207//1 205//1 206//1
f 205//2 208//2 207//2
f 207//1 208//1 205//1
f 207//2 208//2 209//2
f 209//1 208//1 207//1
f 208//2 210//2 209//2
f 209//1 210//1 208//1
f 210//2 211//2 209//2
f 209//1 211//1 210//1
f 209//2 211//2 212//2
f 212//1 211//1 209//1
f 211//2 213//2 212//2
f 212//1 213//1 211//1
f 212//2 213//2 214//2
f 214//1 213//1 212//1
f 213//2 215//2 214//2
f 214//1 215//1 213//1
f 214//2 215//2 216//2
f 216//1 215//1 214//1
f 216//2 215//2 217//2
f 217//1 215//1 216//1
f 215//2 218//2 217//2
f 217//1 218//1 215//1
f 217//2 218//2 219//2
f 219//1 218//1 217//1
f 219//2 218//2 220//2
f 220//1 218//1 219//1
f 218//2 221//2 220//2
f 220//1 221//1 218//1
f 222//2 220//2 221//2
f 221//1 220//1 222//1
f 223//2 224//2 225//2
f 225//1 224//1 223//1
f 225//2 224//2 226//2
f 226//1 224//1 225//1
f 224//2 227//2 226//2
f 226//1 227//1 224//1
f 227//2 228//2 226//2
f 226//1 228//1 227//1
f 226//2 228//2 229//2
f 229//1 228//1 226//1
f 228//2 230//2 229//2
f 229//1 230//1 228//1
f 229//2 230//2 231//2
f 231//1 230//1 229//1
f 230//2 232//2 231//2
f 231//1 232//1 230//1
f 231//2 232//2 233//2
f 233//1 232//1 231//1
f 232//2 234//2 233//2
f 233//1 234//1 232//1
f 233//2 234//2 235//2
f 235//1 234//1 233//1
f 234//2 236//2 235//2
f 235//1 236//1 234//1
f 235//2 236//2 237//2
f 237//1 236//1 235//1
f 236//2 238//2 237//2
f 237//1 238//1 236//1
f 237//2 238//2 239//2
f 239//1 238//1 237//1
f 238//2 240//2 239//2
f 239//1 240//1 238//1
f 239//2 240//2 241//2
f 241//1 240//1 239//1
f 241//2 240//2 242//2
f 242//1 240//1 241//1
f 242//2 240//2 243//2
f 243//1 240//1 242//1
f 244//2 243//2 240//2
f 240//1 243//1 244//1
f 245//2 246//2 247//2
f 247//1 246//1 245//1
f 246//2 248//2 247//2
f 247//1 248//1 246//1
f 248//2 249//2 247//2
f 247//1 249//1 248//1
f 249//2 250//2 247//2
f 247//1 250//1 249//1
f 250//2 251//2 247//2
f 247//1 251//1 250//1
f 251//2 252//2 247//2
f 247//1 252//1 251//1
f 252//2 253//2 247//2
f 247//1 253//1 252//1
f 253//2 254//2 247//2
f 247//1 254//1 253//1
f 254//2 255//2 247//2
f 247//1 255//1 254//1
f 247//2 255//2 256//2
f 256//1 255//1 247//1
f 255//2 257//2 256//2
f 256//1 257//1 255//1
f 257//2 258//2 256//2
f 256//1 258//1 257//1
f 258//2 259//2 256//2
f 256//1 259//1 258//1
f 259//2 243//2 256//2
f 256//1 243//1 259//1
f 243//2 244//2 256//2
f 256//1 244//1 243//1
f 244//2 260//2 256//2
f 256//1 260//1 244//1
f 260//2 222//2 256//2
f 256//1 222//1 260//1
f 222//2 221//2 256//2
f 256//1 221//1 222//1
f 221//2 261//2 256//2
f 256//1 261//1 221//1
f 261//2 262//2 256//2
f 256//1 262//1 261//1
f 262//2 263//2 256//2
f 256//1 263//1 262//1
f 263//2 202//2 256//2
f 256//1 202//1 263//1
f 203//2 264//2 202//2
f 202//1 264//1 203//1
f 202//2 264//2 256//2
f 256//1 264//1 202//1
f 264//2 265//2 256//2
f 256//1 265//1 264//1
f 265//2 182//2 256//2
f 256//1 182//1 265//1
f 183//2 266//2 182//2
f 182//1 266//1 183//1
f 266//2 160//2 182//2
f 182//1 160//1 266//1
f 161//2 267//2 160//2
f 160//1 267//1 161//1
f 160//2 267//2 182//2
f 182//1 267//1 160//1
f 256//2 182//2 267//2
f 267//1 182//1 256//1
f 246//2 245//2 268//2
f 268//1 245//1 246//1
f 268//2 245//2 225//2
f 225//1 245//1 268//1
f 225//2 245//2 223//2
f 223//1 245//1 225//1
f 223//2 245//2 269//2
f 269//1 245//1 223//1
f 269//2 245//2 270//2
f 270//1 245//1 269//1
f 270//2 245//2 206//2
f 206//1 245//1 270//1
f 206//2 245//2 204//2
f 204//1 245//1 206//1
f 204//2 245//2 271//2
f 271//1 245//1 204//1
f 271//2 245//2 272//2
f 272//1 245//1 271//1
f 272//2 245//2 186//2
f 186//1 245//1 272//1
f 186//2 245//2 184//2
f 184//1 245//1 186//1
f 184//2 245//2 273//2
f 273//1 245//1 184//1
f 273//2 245//2 164//2
f 164//1 245//1 273//1
f 164//2 245//2 162//2
f 162//1 245//1 164//1
f 162//2 245//2 139//2
f 139//1 245//1 162//1
f 139//2 245//2 137//2
f 137//1 245//1 139//1
f 137//2 245//2 274//2
f 274//1 245//1 137//1
f 274//2 245//2 275//2
f 275//1 245//1 274//1
f 275//2 245//2 276//2
f 276//1 245//1 275//1
f 276//2 245//2 277//2
f 277//1 245//1 276//1
f 277//2 245//2 278//2
f 278//1 245//1 277//1
f 278//2 245//2 279//2
f 279//1 245//1 278//1
f 279//2 245//2 280//2
f 280//1 245//1 279//1
f 245//2 267//2 280//2
f 280//1 267//1 245//1
f 280//2 267//2 281//2
f 281//1 267//1 280//1
f 281//2 267//2 282//2
f 282//1 267//1 281//1
f 282//2 267//2 283//2
f 283//1 267//1 282//1
f 283//2 267//2 284//2
f 284//1 267//1 283//1
f 161//2 284//2 267//2
f 267//1 284//1 161//1
