# SSTK version 0.8.0
# 44
mtllib original-44.mtl
o #ID429
v 0.878747 -0.471367 -0.187631
v 0.873331 -0.482488 0.039250
v 0.873139 -0.482488 -0.187626
v 0.876511 -0.476187 0.042718
v 0.878019 -0.473203 0.046509
v 0.878948 -0.471367 0.050674
v 0.866630 -0.492993 0.031050
v 0.866446 -0.492993 -0.187620
v 0.858914 -0.502776 0.023350
v 0.858736 -0.502776 -0.187614
v 0.859326 -0.502253 0.023428
v 0.862126 -0.498702 0.025099
v 0.850263 -0.511738 0.020409
v 0.850086 -0.511738 -0.187607
v 0.840756 -0.519791 0.016030
v 0.840583 -0.519791 -0.187599
v 0.830494 -0.526853 0.014154
v 0.830324 -0.526853 -0.187590
v 0.835838 -0.523175 0.013760
v 0.837239 -0.522211 0.014051
v 0.819579 -0.532854 0.013521
v 0.819408 -0.532854 -0.187581
v 0.808117 -0.537733 0.012699
v 0.807947 -0.537733 -0.187571
v 0.812527 -0.535855 0.012280
v 0.796226 -0.541441 0.012671
v 0.796057 -0.541441 -0.187561
v 0.784025 -0.543942 0.014904
v 0.783855 -0.543942 -0.187551
v 0.792795 -0.542145 0.012368
v 0.792863 -0.542130 0.012356
v 0.775037 -0.544862 0.016211
v 0.771464 -0.545210 -0.187540
v 0.771464 -0.545210 -0.186730
v 0.771464 -0.545210 -0.186722
v 0.771464 -0.545210 -0.186720
v 0.771638 -0.545210 0.017648
v 0.771055 -0.545211 -0.186749
v 0.760087 -0.545231 -0.186712
v 0.760084 -0.545230 -0.187530
v 0.759301 -0.545232 -0.186712
v 0.759261 -0.545232 0.021071
v 0.760081 -0.545231 -0.186712
vn 0.8928797736175619 -0.4502945029799538 -0.0007552818599809517
vn 0.8776274966905742 -0.4793427019771762 -0.000742370430484384
vn 0.8692155926605156 -0.49443271824696006 -0.0007352569286057606
vn -0.8928797736175619 0.4502945029799538 0.0007552818599809517
vn -0.8776274966905742 0.4793427019771762 0.000742370430484384
vn -0.8692155926605156 0.49443271824696006 0.0007352569286057606
vn 0.8273505087989506 -0.561685539961187 -0.0006998490034023611
vn 0.8154115787353619 -0.5788812326465187 -0.0006897491949137284
vn -0.8273505087989506 0.561685539961187 0.0006998490034023611
vn -0.8154115787353619 0.5788812326465187 0.0006897491949137284
vn 0.7572350074837324 -0.6531421997929655 -0.0006405393957257116
vn 0.7534319840504656 -0.6575255426464676 -0.0006373203646812332
vn -0.7572350074837324 0.6531421997929655 0.0006405393957257116
vn -0.7534319840504656 0.6575255426464676 0.0006373203646812332
vn 0.7854067436859639 -0.6189796487694961 -0.0006643657138366295
vn -0.7854067436859639 0.6189796487694961 0.0006643657138366295
vn 0.6907482742367599 -0.7230950699879611 -0.0005842927721910515
vn 0.6838981221081821 -0.729577291254431 -0.0005785004314017586
vn -0.6907482742367599 0.7230950699879611 0.0005842927721910515
vn -0.6838981221081821 0.729577291254431 0.0005785004314017586
vn 0.6175689886217067 -0.786516542352668 -0.000522396751494369
vn 0.6075071917410935 -0.7943140108998348 -0.0005138784561645544
vn -0.6175689886217067 0.786516542352668 0.000522396751494369
vn -0.6075071917410935 0.7943140108998348 0.0005138784561645544
vn 0.5249059853639968 -0.85116009621389 -0.0004440069966624366
vn 0.5250251872313488 -0.8510865734703518 -0.0004441071746274986
vn -0.5249059853639968 0.85116009621389 0.0004440069966624366
vn -0.5250251872313488 0.8510865734703518 0.0004441071746274986
vn 0.5669772233059105 -0.8237333295638278 -0.00047960192870599114
vn -0.5669772233059105 0.8237333295638278 0.00047960192870599114
vn 0.4404411932937141 -0.8977813856639957 -0.00037256575933292303
vn 0.43727908790344727 -0.8993257821637172 -0.00036988910144477715
vn -0.4404411932937141 0.8977813856639957 0.00037256575933292303
vn -0.43727908790344727 0.8993257821637172 0.00036988910144477715
vn 0.34386548428509195 -0.939018873140582 -0.0002908662423143987
vn 0.3451485896697246 -0.9385480093261823 -0.00029195694992640057
vn -0.34386548428509195 0.939018873140582 0.0002908662423143987
vn -0.3451485896697246 0.9385480093261823 0.00029195694992640057
vn 0.39170507994456816 -0.9200907675686602 -0.0003313314550797037
vn -0.39170507994456816 0.9200907675686602 0.0003313314550797037
vn 0.25107249015454225 -0.967968263728999 -0.0002123701118559525
vn 0.24955750764860982 -0.9683599567394614 -0.0002110918348971553
vn -0.25107249015454225 0.967968263728999 0.0002123701118559525
vn -0.24955750764860982 0.9683599567394614 0.0002110918348971553
vn 0.1445767979510463 -0.9894935747839106 -0.0001222930072369623
vn 0.15146430449639853 -0.9884627196041835 -0.00012812542157883598
vn -0.1445767979510463 0.9894935747839106 0.0001222930072369623
vn -0.15146430449639853 0.9884627196041835 0.00012812542157883598
vn 0.20076270281384248 -0.9796398870600315 -0.00016982311182234884
vn -0.20076270281384248 0.9796398870600315 0.00016982311182234884
vn 0.10180200066447787 -0.9948046770346743 -0.0000849155269058661
vn 0.10218749548019584 -0.9947651517221282 -0.00009320266163650294
vn -0.10180200066447787 0.9948046770346743 0.0000849155269058661
vn -0.10218749548019584 0.9947651517221282 0.00009320266163650294
vn 0.13914479709329752 -0.9902717629700396 -0.0007489366293712321
vn -0.13914479709329752 0.9902717629700396 0.0007489366293712321
vn 0.09342018906733608 -0.9956266470844128 -0.0004978856024525983
vn -0.09342018906733608 0.9956266470844128 0.0004978856024525983
vn 0.040789679710463385 -0.9991677541655726 -0.00003263194110055511
vn -0.040789679710463385 0.9991677541655726 0.00003263194110055511
vn 0.00178551603865355 -0.9999984059649445 2.1370180182897676e-7
vn -0.00178551603865355 0.9999984059649445 -2.1370180182897676e-7
usemtl material_0_2
f 1//1 2//2 3//3
f 3//6 2//5 1//4
f 2//2 1//1 4//1
f 4//4 1//4 2//5
f 4//1 1//1 5//1
f 5//4 1//4 4//4
f 5//1 1//1 6//1
f 6//4 1//4 5//4
f 3//3 7//7 8//8
f 8//10 7//9 3//6
f 7//7 3//3 2//2
f 2//5 3//6 7//9
f 8//8 9//11 10//12
f 10//14 9//13 8//10
f 9//11 8//8 11//15
f 11//16 8//10 9//13
f 11//15 8//8 12//15
f 12//16 8//10 11//16
f 12//15 8//8 7//7
f 7//9 8//10 12//16
f 10//12 13//17 14//18
f 14//20 13//19 10//14
f 13//17 10//12 9//11
f 9//13 10//14 13//19
f 14//18 15//21 16//22
f 16//24 15//23 14//20
f 15//21 14//18 13//17
f 13//19 14//20 15//23
f 16//22 17//25 18//26
f 18//28 17//27 16//24
f 17//25 16//22 19//29
f 19//30 16//24 17//27
f 19//29 16//22 20//29
f 20//30 16//24 19//30
f 20//29 16//22 15//21
f 15//23 16//24 20//30
f 18//26 21//31 22//32
f 22//34 21//33 18//28
f 21//31 18//26 17//25
f 17//27 18//28 21//33
f 22//32 23//35 24//36
f 24//38 23//37 22//34
f 23//35 22//32 25//39
f 25//40 22//34 23//37
f 25//39 22//32 21//31
f 21//33 22//34 25//40
f 24//36 26//41 27//42
f 27//44 26//43 24//38
f 26//41 24//36 23//35
f 23//37 24//38 26//43
f 27//42 28//45 29//46
f 29//48 28//47 27//44
f 28//45 27//42 30//49
f 30//50 27//44 28//47
f 30//49 27//42 31//49
f 31//50 27//44 30//50
f 31//49 27//42 26//41
f 26//43 27//44 31//50
f 29//46 32//51 33//52
f 33//54 32//53 29//48
f 32//51 29//46 28//45
f 28//47 29//48 32//53
f 32//51 34//55 33//52
f 33//54 34//56 32//53
f 34//55 32//51 35//55
f 35//56 32//53 34//56
f 35//55 32//51 36//57
f 36//58 32//53 35//56
f 32//51 37//59 36//57
f 36//58 37//60 32//53
f 38//61 39//61 40//61
f 40//62 39//62 38//62
f 41//61 37//59 42//61
f 42//62 37//60 41//62
f 37//59 41//61 43//61
f 43//62 41//62 37//60
f 37//59 43//61 39//61
f 39//62 43//62 37//60
f 39//61 43//61 40//61
f 40//62 43//62 39//62
f 37//59 39//61 36//57
f 36//58 39//62 37//60
