# SSTK version 0.8.0
# 46
mtllib original-46.mtl
o #ID443
v -0.419438 -0.098118 0.597794
v -0.419438 -0.098118 0.363288
v -0.385781 -0.141982 0.597794
v -0.385781 -0.141982 0.363288
v -0.341917 -0.175640 0.597794
v -0.341917 -0.175639 0.363288
v -0.440597 -0.047038 0.597794
v -0.440597 -0.047038 0.363288
v -0.236021 -0.204014 0.597794
v -0.181205 -0.196798 0.597794
v -0.290837 -0.196798 0.597794
v -0.341917 -0.175640 0.597794
v -0.130124 -0.175640 0.597794
v -0.236021 -0.144946 0.597794
v -0.385781 -0.141982 0.597794
v -0.275549 -0.139742 0.597794
v -0.312383 -0.124485 0.597794
v -0.344013 -0.100214 0.597794
v -0.419438 -0.098118 0.597794
v -0.368284 -0.068584 0.597794
v -0.440597 -0.047038 0.597794
v -0.383541 -0.031750 0.597794
v -0.447813 0.007778 0.597794
v -0.388745 0.007778 0.597794
v -0.383541 0.047306 0.597794
v -0.440597 0.062594 0.597794
v -0.368284 0.084140 0.597794
v -0.419438 0.113674 0.597794
v -0.344013 0.115771 0.597794
v -0.312383 0.140041 0.597794
v -0.275549 0.155298 0.597794
v -0.385781 0.157538 0.597794
v -0.236021 0.160502 0.597794
v -0.341917 0.191196 0.597794
v -0.086261 -0.141982 0.597794
v -0.196493 -0.139742 0.597794
v -0.159658 -0.124485 0.597794
v -0.128028 -0.100214 0.597794
v -0.052603 -0.098118 0.597794
v -0.103757 -0.068584 0.597794
v -0.031445 -0.047038 0.597794
v -0.088500 -0.031750 0.597794
v -0.083296 0.007778 0.597794
v -0.024228 0.007778 0.597794
v -0.088500 0.047306 0.597794
v -0.031445 0.062594 0.597794
v -0.103757 0.084140 0.597794
v -0.052603 0.113674 0.597794
v -0.128028 0.115771 0.597794
v -0.159658 0.140041 0.597794
v -0.196493 0.155298 0.597794
v -0.086261 0.157538 0.597794
v -0.130124 0.191196 0.597794
v -0.290837 0.212354 0.597794
v -0.181205 0.212354 0.597794
v -0.236021 0.219570 0.597794
v -0.290837 -0.196798 0.597794
v -0.290837 -0.196798 0.363288
v -0.447813 0.007778 0.597794
v -0.447813 0.007778 0.363288
v -0.440597 0.062594 0.597794
v -0.440597 0.062594 0.363288
v -0.419438 0.113674 0.597794
v -0.419438 0.113674 0.363288
v -0.385781 0.157538 0.597794
v -0.385781 0.157538 0.363288
v -0.341917 0.191196 0.597794
v -0.341917 0.191196 0.363288
v -0.290837 0.212354 0.597794
v -0.290837 0.212354 0.363288
v -0.236021 0.219570 0.597794
v -0.236021 0.219571 0.363288
v -0.181205 0.212354 0.597794
v -0.181205 0.212354 0.363288
v -0.130124 0.191196 0.597794
v -0.130124 0.191196 0.363288
v -0.086261 0.157538 0.597794
v -0.086261 0.157538 0.363288
v -0.052603 0.113674 0.597794
v -0.052603 0.113674 0.363288
v -0.031445 0.062594 0.597794
v -0.031445 0.062594 0.363288
v -0.024228 0.007778 0.597794
v -0.024228 0.007778 0.363288
v -0.031445 -0.047038 0.597794
v -0.031445 -0.047038 0.363288
v -0.052603 -0.098118 0.597794
v -0.052603 -0.098118 0.363288
v -0.086261 -0.141982 0.597794
v -0.086261 -0.141982 0.363288
v -0.130124 -0.175640 0.597794
v -0.130124 -0.175639 0.363288
v -0.181205 -0.196798 0.597794
v -0.181205 -0.196798 0.363288
v -0.236021 -0.204014 0.597794
v -0.236021 -0.204014 0.363288
vn -0.866025402838329 -0.5000000016387098 -2.9337747570585974e-9
vn -0.7071067929317552 -0.7071067694413397 1.8703488432027197e-9
vn 0.866025402838329 0.5000000016387098 2.9337747570585974e-9
vn 0.7071067929317552 0.7071067694413397 -1.8703488432027197e-9
vn -0.5000000058752765 -0.8660254003923463 6.46547639002773e-9
vn 0.5000000058752765 0.8660254003923463 -6.46547639002773e-9
vn -0.9659258220460287 -0.25881906093775886 4.746839816102158e-9
vn 0.9659258220460287 0.25881906093775886 -4.746839816102158e-9
vn 0 0 1
vn 0 0 -1
vn -0.2588190015589235 -0.9659258379565391 1.4259444960763384e-9
vn 0.2588190015589235 0.9659258379565391 -1.4259444960763384e-9
vn -1 0 0
vn 1 0 0
vn -0.9659258218964216 0.25881906149610096 -1.3091622753018018e-9
vn 0.9659258218964216 -0.25881906149610096 1.3091622753018018e-9
vn -0.866025402838329 0.5000000016387098 -2.93377451419731e-9
vn 0.866025402838329 -0.5000000016387098 2.93377451419731e-9
vn -0.7071067929317552 0.7071067694413397 -6.661182844231287e-9
vn 0.7071067929317552 -0.7071067694413397 6.661182844231287e-9
vn -0.5000000056161491 0.8660254005419535 0
vn 0.5000000056161491 -0.8660254005419535 0
vn -0.2588190015589235 0.9659258379565391 -3.179511118000621e-9
vn 0.2588190015589235 -0.9659258379565391 3.179511118000621e-9
vn 0 1 0
vn 0 -1 0
usemtl material_0_2
f 1//1 2//1 3//2
f 3//4 2//3 1//3
f 4//2 3//2 2//1
f 2//3 3//4 4//4
f 5//5 3//2 6//5
f 6//6 3//4 5//6
f 4//2 6//5 3//2
f 3//4 6//6 4//4
f 7//7 8//7 1//1
f 1//3 8//8 7//8
f 2//1 1//1 8//7
f 8//8 1//3 2//3
f 9//9 10//9 11//9
f 11//10 10//10 9//10
f 11//9 10//9 12//9
f 12//10 10//10 11//10
f 10//9 13//9 12//9
f 12//10 13//10 10//10
f 13//9 14//9 12//9
f 12//10 14//10 13//10
f 12//9 14//9 15//9
f 15//10 14//10 12//10
f 14//9 16//9 15//9
f 15//10 16//10 14//10
f 16//9 17//9 15//9
f 15//10 17//10 16//10
f 17//9 18//9 15//9
f 15//10 18//10 17//10
f 15//9 18//9 19//9
f 19//10 18//10 15//10
f 18//9 20//9 19//9
f 19//10 20//10 18//10
f 19//9 20//9 21//9
f 21//10 20//10 19//10
f 20//9 22//9 21//9
f 21//10 22//10 20//10
f 21//9 22//9 23//9
f 23//10 22//10 21//10
f 22//9 24//9 23//9
f 23//10 24//10 22//10
f 24//9 25//9 23//9
f 23//10 25//10 24//10
f 23//9 25//9 26//9
f 26//10 25//10 23//10
f 25//9 27//9 26//9
f 26//10 27//10 25//10
f 26//9 27//9 28//9
f 28//10 27//10 26//10
f 27//9 29//9 28//9
f 28//10 29//10 27//10
f 29//9 30//9 28//9
f 28//10 30//10 29//10
f 30//9 31//9 28//9
f 28//10 31//10 30//10
f 28//9 31//9 32//9
f 32//10 31//10 28//10
f 31//9 33//9 32//9
f 32//10 33//10 31//10
f 34//9 32//9 33//9
f 33//10 32//10 34//10
f 13//9 35//9 14//9
f 14//10 35//10 13//10
f 14//9 35//9 36//9
f 36//10 35//10 14//10
f 36//9 35//9 37//9
f 37//10 35//10 36//10
f 37//9 35//9 38//9
f 38//10 35//10 37//10
f 35//9 39//9 38//9
f 38//10 39//10 35//10
f 38//9 39//9 40//9
f 40//10 39//10 38//10
f 39//9 41//9 40//9
f 40//10 41//10 39//10
f 40//9 41//9 42//9
f 42//10 41//10 40//10
f 42//9 41//9 43//9
f 43//10 41//10 42//10
f 41//9 44//9 43//9
f 43//10 44//10 41//10
f 43//9 44//9 45//9
f 45//10 44//10 43//10
f 44//9 46//9 45//9
f 45//10 46//10 44//10
f 45//9 46//9 47//9
f 47//10 46//10 45//10
f 46//9 48//9 47//9
f 47//10 48//10 46//10
f 47//9 48//9 49//9
f 49//10 48//10 47//10
f 49//9 48//9 50//9
f 50//10 48//10 49//10
f 50//9 48//9 51//9
f 51//10 48//10 50//10
f 48//9 52//9 51//9
f 51//10 52//10 48//10
f 51//9 52//9 33//9
f 33//10 52//10 51//10
f 33//9 52//9 34//9
f 34//10 52//10 33//10
f 52//9 53//9 34//9
f 34//10 53//10 52//10
f 34//9 53//9 54//9
f 54//10 53//10 34//10
f 53//9 55//9 54//9
f 54//10 55//10 53//10
f 56//9 54//9 55//9
f 55//10 54//10 56//10
f 57//11 5//5 58//11
f 58//12 5//6 57//12
f 6//5 58//11 5//5
f 5//6 58//12 6//6
f 59//13 60//13 7//7
f 7//8 60//14 59//14
f 8//7 7//7 60//13
f 60//14 7//8 8//8
f 61//15 62//15 59//13
f 59//14 62//16 61//16
f 60//13 59//13 62//15
f 62//16 59//14 60//14
f 63//17 64//17 61//15
f 61//16 64//18 63//18
f 62//15 61//15 64//17
f 64//18 61//16 62//16
f 65//19 66//19 63//17
f 63//18 66//20 65//20
f 64//17 63//17 66//19
f 66//20 63//18 64//18
f 67//21 68//21 65//19
f 65//20 68//22 67//22
f 66//19 65//19 68//21
f 68//22 65//20 66//20
f 69//23 70//23 67//21
f 67//22 70//24 69//24
f 68//21 67//21 70//23
f 70//24 67//22 68//22
f 71//25 72//25 69//23
f 69//24 72//26 71//26
f 70//23 69//23 72//25
f 72//26 69//24 70//24
f 73//12 74//12 71//25
f 71//26 74//11 73//11
f 72//25 71//25 74//12
f 74//11 71//26 72//26
f 75//6 76//6 73//12
f 73//11 76//5 75//5
f 74//12 73//12 76//6
f 76//5 73//11 74//11
f 77//4 78//4 75//6
f 75//5 78//2 77//2
f 76//6 75//6 78//4
f 78//2 75//5 76//5
f 77//4 79//3 78//4
f 78//2 79//1 77//2
f 80//3 78//4 79//3
f 79//1 78//2 80//1
f 79//3 81//8 80//3
f 80//1 81//7 79//1
f 82//8 80//3 81//8
f 81//7 80//1 82//7
f 81//8 83//14 82//8
f 82//7 83//13 81//7
f 84//14 82//8 83//14
f 83//13 82//7 84//13
f 83//14 85//16 84//14
f 84//13 85//15 83//13
f 86//16 84//14 85//16
f 85//15 84//13 86//15
f 85//16 87//18 86//16
f 86//15 87//17 85//15
f 88//18 86//16 87//18
f 87//17 86//15 88//17
f 87//18 89//20 88//18
f 88//17 89//19 87//17
f 90//20 88//18 89//20
f 89//19 88//17 90//19
f 89//20 91//22 90//20
f 90//19 91//21 89//19
f 92//22 90//20 91//22
f 91//21 90//19 92//21
f 91//22 93//24 92//22
f 92//21 93//23 91//21
f 94//24 92//22 93//24
f 93//23 92//21 94//23
f 93//24 95//26 94//24
f 94//23 95//25 93//23
f 96//26 94//24 95//26
f 95//25 94//23 96//25
f 95//26 57//11 96//26
f 96//25 57//12 95//25
f 58//11 96//26 57//11
f 57//12 96//25 58//12
