# SSTK version 0.8.0
# 70
mtllib original-70.mtl
o #ID604
v 0.759217 0.542169 -0.186092
v 0.759217 0.542168 0.059768
v 0.759217 0.542169 -0.186095
v 0.759217 0.542169 -0.186099
v 0.759217 0.542169 -0.186101
v 0.759217 0.542168 -0.186106
v 0.759217 0.542160 -0.187566
v 0.759217 0.468303 -0.187566
v 0.759217 -0.471367 -0.187549
v 0.759217 0.468302 -0.285182
v 0.759217 0.468303 -0.286217
v 0.759217 -0.471367 -0.286217
vn 0.7191657121010695 -0.6948385078037606 0.00035582468255798336
vn 1 1.9822478234378398e-8 -1.4640694186979608e-8
vn 0.7353842695756886 -0.6776502428056964 0.00035282575236538123
vn -0.7191657121010695 0.6948385078037606 -0.00035582468255798336
vn -1 -1.9822478234378398e-8 1.4640694186979608e-8
vn -0.7353842695756886 0.6776502428056964 -0.00035282575236538123
vn 0.7012540762122076 -0.7129113428870976 0.0003711855040284317
vn -0.7012540762122076 0.7129113428870976 -0.0003711855040284317
vn 0.7312952297285359 -0.682060965648261 0.00035512708917451093
vn -0.7312952297285359 0.682060965648261 -0.00035512708917451093
vn 0.7066611786131748 -0.707552007219929 0.00036840207397537784
vn -0.7066611786131748 0.707552007219929 -0.00036840207397537784
usemtl material_0_2
f 1//1 2//2 3//3
f 3//6 2//5 1//4
f 3//3 2//2 4//7
f 4//8 2//5 3//6
f 4//7 2//2 5//9
f 5//10 2//5 4//8
f 5//9 2//2 6//11
f 6//12 2//5 5//10
f 6//11 2//2 7//2
f 7//5 2//5 6//12
f 7//2 2//2 8//2
f 8//5 2//5 7//5
f 2//2 9//2 8//2
f 8//5 9//5 2//5
f 8//2 9//2 10//2
f 10//5 9//5 8//5
f 10//2 9//2 11//2
f 11//5 9//5 10//5
f 12//2 11//2 9//2
f 9//5 11//5 12//5
