# SSTK version 0.8.0
# 61
mtllib original-61.mtl
o #ID543
v 0.314258 0.412344 -0.286217
v 0.314258 0.369778 -0.286217
v 0.314258 0.412344 -0.300467
v 0.314258 0.369778 -0.300467
v 0.314258 0.412344 -0.286217
v 0.314258 0.412344 -0.300467
v 0.245385 0.412344 -0.286217
v 0.245385 0.412344 -0.300467
v 0.245385 0.369778 -0.300467
v 0.245385 0.412344 -0.300467
v 0.314258 0.369778 -0.300467
v 0.314258 0.412344 -0.300467
v 0.314258 0.369778 -0.286217
v 0.245385 0.369778 -0.286217
v 0.314258 0.369778 -0.300467
v 0.245385 0.369778 -0.300467
v 0.245385 0.412344 -0.286217
v 0.245385 0.412344 -0.300467
v 0.245385 0.369778 -0.286217
v 0.245385 0.369778 -0.300467
vn 1 0 0
vn -1 0 0
vn 0 1 0
vn 0 -1 0
vn 0 0 -1
vn 0 0 1
usemtl material_0_2
f 1//1 2//1 3//1
f 3//2 2//2 1//2
f 4//1 3//1 2//1
f 2//2 3//2 4//2
f 5//3 6//3 7//3
f 7//4 6//4 5//4
f 8//3 7//3 6//3
f 6//4 7//4 8//4
f 9//5 10//5 11//5
f 11//6 10//6 9//6
f 12//5 11//5 10//5
f 10//6 11//6 12//6
f 13//4 14//4 15//4
f 15//3 14//3 13//3
f 16//4 15//4 14//4
f 14//3 15//3 16//3
f 17//2 18//2 19//2
f 19//1 18//1 17//1
f 20//2 19//2 18//2
f 18//1 19//1 20//1
