# SSTK version 0.8.0
# 21
mtllib original-21.mtl
o #ID276
v 0.570789 -0.276484 0.131523
v 0.292925 -0.276484 0.131523
v 0.570789 -0.275925 0.130871
v 0.292925 -0.275925 0.130871
v 0.570789 -0.276855 0.132297
v 0.292925 -0.276855 0.132297
v 0.292925 -0.275217 0.130386
v 0.570789 -0.275217 0.130386
v 0.570789 -0.277013 0.133141
v 0.292925 -0.277013 0.133141
v 0.292925 -0.274408 0.130101
v 0.570789 -0.274408 0.130101
v 0.570789 -0.276947 0.133997
v 0.292925 -0.276947 0.133997
v 0.292925 -0.273552 0.130035
v 0.570789 -0.273552 0.130035
v 0.570789 -0.276662 0.134806
v 0.292925 -0.276662 0.134806
v 0.292925 -0.272708 0.130193
v 0.570789 -0.272708 0.130193
v 0.570789 -0.276177 0.135515
v 0.292925 -0.276177 0.135515
v 0.292925 -0.271934 0.130564
v 0.570789 -0.271934 0.130564
v 0.292925 -0.275525 0.136073
v 0.570789 -0.275525 0.136073
v 0.292925 -0.271282 0.131123
v 0.570789 -0.271282 0.131123
v 0.292925 -0.274751 0.136444
v 0.570789 -0.274751 0.136444
v 0.570789 -0.270797 0.131831
v 0.292925 -0.270797 0.131831
v 0.292925 -0.273907 0.136602
v 0.570789 -0.273907 0.136602
v 0.570789 -0.270512 0.132641
v 0.292925 -0.270512 0.132641
v 0.292925 -0.273051 0.136536
v 0.570789 -0.273051 0.136536
v 0.570789 -0.270446 0.133497
v 0.292925 -0.270446 0.133497
v 0.292925 -0.272242 0.136251
v 0.570789 -0.272242 0.136251
v 0.570789 -0.270604 0.134340
v 0.292925 -0.270604 0.134340
v 0.292925 -0.271533 0.135766
v 0.570789 -0.271533 0.135766
v 0.570789 -0.270975 0.135114
v 0.292925 -0.270975 0.135114
vn 0 -0.8377158463664574 -0.5461063639498536
vn 0 -0.6678286633097923 -0.7443150384493491
vn 0 0.8377158463664574 0.5461063639498536
vn 0 0.6678286633097923 0.7443150384493491
vn 0 -0.9505141160447499 -0.31068137246971805
vn 0 0.9505141160447499 0.31068137246971805
vn 0 -0.4524300698874705 -0.8917998833043311
vn 0 0.4524300698874705 0.8917998833043311
vn 0 -0.9985363898016846 -0.05408399247299
vn 0 0.9985363898016846 0.05408399247299
vn 0 -0.2061990546400055 -0.9785100663077351
vn 0 0.2061990546400055 0.9785100663077351
vn 0 -0.9785100663077351 0.20619905464000565
vn 0 0.9785100663077351 -0.20619905464000565
vn 0 0.0540839924729899 -0.9985363898016846
vn 0 -0.0540839924729899 0.9985363898016846
vn 0 -0.8917998833043309 0.45243006988747064
vn 0 0.8917998833043309 -0.45243006988747064
vn 0 0.3106813724697177 -0.9505141160447501
vn 0 -0.3106813724697177 0.9505141160447501
vn 0 -0.7443150384493488 0.6678286633097926
vn 0 0.7443150384493488 -0.6678286633097926
vn 0 0.5461063639498533 -0.8377158463664577
vn 0 -0.5461063639498533 0.8377158463664577
usemtl material_0_2
f 1//1 2//1 3//2
f 3//4 2//3 1//3
f 4//2 3//2 2//1
f 2//3 3//4 4//4
f 5//5 6//5 1//1
f 1//3 6//6 5//6
f 2//1 1//1 6//5
f 6//6 1//3 2//3
f 4//2 7//7 3//2
f 3//4 7//8 4//4
f 8//7 3//2 7//7
f 7//8 3//4 8//8
f 9//9 10//9 5//5
f 5//6 10//10 9//10
f 6//5 5//5 10//9
f 10//10 5//6 6//6
f 7//7 11//11 8//7
f 8//8 11//12 7//8
f 12//11 8//7 11//11
f 11//12 8//8 12//12
f 13//13 14//13 9//9
f 9//10 14//14 13//14
f 10//9 9//9 14//13
f 14//14 9//10 10//10
f 11//11 15//15 12//11
f 12//12 15//16 11//12
f 16//15 12//11 15//15
f 15//16 12//12 16//16
f 17//17 18//17 13//13
f 13//14 18//18 17//18
f 14//13 13//13 18//17
f 18//18 13//14 14//14
f 15//15 19//19 16//15
f 16//16 19//20 15//16
f 20//19 16//15 19//19
f 19//20 16//16 20//20
f 21//21 22//21 17//17
f 17//18 22//22 21//22
f 18//17 17//17 22//21
f 22//22 17//18 18//18
f 19//19 23//23 20//19
f 20//20 23//24 19//20
f 24//23 20//19 23//23
f 23//24 20//20 24//24
f 22//21 21//21 25//24
f 25//23 21//22 22//22
f 26//24 25//24 21//21
f 21//22 25//23 26//23
f 23//23 27//22 24//23
f 24//24 27//21 23//24
f 28//22 24//23 27//22
f 27//21 24//24 28//21
f 25//24 26//24 29//20
f 29//19 26//23 25//23
f 30//20 29//20 26//24
f 26//23 29//19 30//19
f 31//18 28//22 32//18
f 32//17 28//21 31//17
f 27//22 32//18 28//22
f 28//21 32//17 27//21
f 29//20 30//20 33//16
f 33//15 30//19 29//19
f 34//16 33//16 30//20
f 30//19 33//15 34//15
f 35//14 31//18 36//14
f 36//13 31//17 35//13
f 32//18 36//14 31//18
f 31//17 36//13 32//17
f 33//16 34//16 37//12
f 37//11 34//15 33//15
f 38//12 37//12 34//16
f 34//15 37//11 38//11
f 39//10 35//14 40//10
f 40//9 35//13 39//9
f 36//14 40//10 35//14
f 35//13 40//9 36//13
f 37//12 38//12 41//8
f 41//7 38//11 37//11
f 42//8 41//8 38//12
f 38//11 41//7 42//7
f 43//6 39//10 44//6
f 44//5 39//9 43//5
f 40//10 44//6 39//10
f 39//9 44//5 40//9
f 41//8 42//8 45//4
f 45//2 42//7 41//7
f 46//4 45//4 42//8
f 42//7 45//2 46//2
f 47//3 43//6 48//3
f 48//1 43//5 47//1
f 44//6 48//3 43//6
f 43//5 48//1 44//5
f 46//4 47//3 45//4
f 45//2 47//1 46//2
f 48//3 45//4 47//3
f 47//1 45//2 48//1
