# SSTK version 0.8.0
# 68
mtllib original-68.mtl
o #ID592
v 0.443523 0.425556 -0.286217
v 0.443523 0.425556 -0.300467
v 0.443523 0.148728 -0.286217
v 0.443523 0.148728 -0.300467
v 0.720351 0.148728 -0.286217
v 0.443523 0.148728 -0.286217
v 0.720351 0.148728 -0.300467
v 0.443523 0.148728 -0.300467
v 0.474088 0.175794 -0.286217
v 0.443523 0.148728 -0.300467
v 0.474088 0.396172 -0.286217
v 0.443523 0.425556 -0.300467
v 0.720351 0.425556 -0.286217
v 0.720351 0.425556 -0.300467
v 0.443523 0.425556 -0.286217
v 0.443523 0.425556 -0.300467
v 0.720351 0.425556 -0.286217
v 0.720351 0.148728 -0.286217
v 0.720351 0.425556 -0.300467
v 0.720351 0.148728 -0.300467
v 0.443523 0.148728 -0.300467
v 0.474088 0.175794 -0.286217
v 0.720351 0.148728 -0.300467
v 0.694467 0.175794 -0.286217
v 0.474088 0.396172 -0.286217
v 0.443523 0.425556 -0.300467
v 0.694467 0.396172 -0.286217
v 0.720351 0.425556 -0.300467
v 0.694467 0.175794 -0.286217
v 0.694467 0.396172 -0.286217
v 0.720351 0.148728 -0.300467
v 0.720351 0.425556 -0.300467
vn -1 0 0
vn 1 0 0
vn 0 -1 0
vn 0 1 0
vn 0.42253758163850913 -8.38048149446146e-9 -0.9063454044143877
vn -0.42253758163850913 8.38048149446146e-9 0.9063454044143877
vn 0 0.4658586847353008 -0.884859133340836
vn 0 -0.4658586847353008 0.884859133340836
vn 0 -0.43633802541286987 -0.8997828224515058
vn 0 0.43633802541286987 0.8997828224515058
vn -0.4822544714615934 -6.393475583291661e-9 -0.8760311779584669
vn 0.4822544714615934 6.393475583291661e-9 0.8760311779584669
usemtl material_0_2
f 1//1 2//1 3//1
f 3//2 2//2 1//2
f 4//1 3//1 2//1
f 2//2 3//2 4//2
f 5//3 6//3 7//3
f 7//4 6//4 5//4
f 8//3 7//3 6//3
f 6//4 7//4 8//4
f 9//5 10//5 11//5
f 11//6 10//6 9//6
f 12//5 11//5 10//5
f 10//6 11//6 12//6
f 13//4 14//4 15//4
f 15//3 14//3 13//3
f 16//4 15//4 14//4
f 14//3 15//3 16//3
f 17//2 18//2 19//2
f 19//1 18//1 17//1
f 20//2 19//2 18//2
f 18//1 19//1 20//1
f 21//7 22//7 23//7
f 23//8 22//8 21//8
f 24//7 23//7 22//7
f 22//8 23//8 24//8
f 25//9 26//9 27//9
f 27//10 26//10 25//10
f 28//9 27//9 26//9
f 26//10 27//10 28//10
f 29//11 30//11 31//11
f 31//12 30//12 29//12
f 32//11 31//11 30//11
f 30//12 31//12 32//12
