# SSTK version 0.8.0
# 84
mtllib original-84.mtl
o #ID77
v 0.608781 0.281793 0.179507
v 0.598603 0.289055 0.179507
v 0.608781 0.315886 0.179507
v 0.592216 0.281793 0.179507
v 0.595191 0.289055 0.179507
v 0.592256 0.289347 0.179507
v 0.590568 0.290221 0.179507
v 0.587389 0.282289 0.179507
v 0.589770 0.291578 0.179507
v 0.589504 0.293313 0.179507
v 0.598603 0.315886 0.179507
v 0.598603 0.297688 0.179507
v 0.598603 0.304541 0.179507
v 0.595570 0.297688 0.179507
v 0.595278 0.304541 0.179507
v 0.592989 0.297414 0.179507
v 0.586529 0.315886 0.179507
v 0.591079 0.296594 0.179507
v 0.589897 0.295227 0.179507
v 0.585271 0.282967 0.179507
v 0.585887 0.302266 0.179507
v 0.583120 0.300465 0.179507
v 0.583321 0.284010 0.179507
v 0.581677 0.285402 0.179507
v 0.581061 0.298037 0.179507
v 0.580419 0.287072 0.179507
v 0.579781 0.295128 0.179507
v 0.579621 0.289179 0.179507
v 0.579355 0.291884 0.179507
v 0.574397 0.315886 0.179507
v 0.574397 0.315886 0.183465
v 0.586529 0.315886 0.179507
v 0.574397 0.315886 0.179507
v 0.586529 0.315886 0.183465
v 0.595278 0.304541 0.183465
v 0.586529 0.315886 0.179507
v 0.586529 0.315886 0.183465
v 0.595278 0.304541 0.179507
v 0.595278 0.304541 0.183465
v 0.598603 0.304541 0.179507
v 0.595278 0.304541 0.179507
v 0.598603 0.304541 0.183465
v 0.598603 0.304541 0.179507
v 0.598603 0.315886 0.183465
v 0.598603 0.315886 0.179507
v 0.598603 0.304541 0.183465
v 0.598603 0.315886 0.183465
v 0.608781 0.315886 0.179507
v 0.598603 0.315886 0.179507
v 0.608781 0.315886 0.183465
v 0.608781 0.281793 0.183465
v 0.608781 0.315886 0.179507
v 0.608781 0.315886 0.183465
v 0.608781 0.281793 0.179507
v 0.608781 0.281793 0.183465
v 0.592216 0.281793 0.179507
v 0.608781 0.281793 0.179507
v 0.592216 0.281793 0.183465
v 0.587389 0.282289 0.179507
v 0.587389 0.282289 0.183465
v 0.585271 0.282967 0.179507
v 0.585271 0.282967 0.183465
v 0.583321 0.284010 0.179507
v 0.583321 0.284010 0.183465
v 0.581677 0.285402 0.179507
v 0.581677 0.285402 0.183465
v 0.580419 0.287072 0.183465
v 0.580419 0.287072 0.179507
v 0.579621 0.289179 0.183465
v 0.579621 0.289179 0.179507
v 0.579355 0.291884 0.183465
v 0.579355 0.291884 0.179507
v 0.579781 0.295128 0.183465
v 0.579781 0.295128 0.179507
v 0.581061 0.298037 0.183465
v 0.581061 0.298037 0.179507
v 0.583120 0.300465 0.183465
v 0.583120 0.300465 0.179507
v 0.585887 0.302266 0.179507
v 0.585887 0.302266 0.183465
v 0.585887 0.302266 0.179507
v 0.574397 0.315886 0.183465
v 0.574397 0.315886 0.179507
v 0.585887 0.302266 0.183465
v 0.574397 0.315886 0.183465
v 0.585887 0.302266 0.183465
v 0.586529 0.315886 0.183465
v 0.595278 0.304541 0.183465
v 0.598603 0.297688 0.183465
v 0.598603 0.304541 0.183465
v 0.595570 0.297688 0.183465
v 0.592989 0.297414 0.183465
v 0.591079 0.296594 0.183465
v 0.589897 0.295227 0.183465
v 0.589504 0.293313 0.183465
v 0.587389 0.282289 0.183465
v 0.585271 0.282967 0.183465
v 0.583120 0.300465 0.183465
v 0.583321 0.284010 0.183465
v 0.581677 0.285402 0.183465
v 0.581061 0.298037 0.183465
v 0.580419 0.287072 0.183465
v 0.579781 0.295128 0.183465
v 0.579621 0.289179 0.183465
v 0.579355 0.291884 0.183465
v 0.598603 0.315886 0.183465
v 0.608781 0.281793 0.183465
v 0.608781 0.315886 0.183465
v 0.598603 0.289055 0.183465
v 0.592216 0.281793 0.183465
v 0.595191 0.289055 0.183465
v 0.592256 0.289347 0.183465
v 0.590568 0.290221 0.183465
v 0.589770 0.291578 0.183465
vt -0.8456997 0.4158664
vt -0.9675614 0.328922
vt -0.8456997 0.00768183
vt -1.044031 0.4158664
vt -1.008415 0.328922
vt -1.04355 0.3254303
vt -1.063759 0.314955
vt -1.101819 0.4099304
vt -1.073318 0.2987184
vt -1.076504 0.2779426
vt -0.9675614 0.00768183
vt -0.9675614 0.2255665
vt -0.9675614 0.1435106
vt -1.003876 0.2255665
vt -1.007367 0.1435106
vt -1.034777 0.22884
vt -1.11212 0.00768183
vt -1.057648 0.2386605
vt -1.07179 0.255028
vt -1.127178 0.4018121
vt -1.119801 0.1707461
vt -1.152929 0.1923076
vt -1.150529 0.3893291
vt -1.170213 0.3726561
vt -1.17759 0.2213764
vt -1.185272 0.3526658
vt -1.19291 0.2562065
vt -1.19483 0.327438
vt -1.198016 0.2950521
vt -1.257376 0.00768183
vt 1.257376 0.04738991
vt 1.11212 0
vt 1.257376 0
vt 1.11212 0.04738991
vt 0.501552 0.04738991
vt 0.6730818 0
vt 0.6730818 0.04738991
vt 0.501552 0
vt 1.007367 0.04738991
vt 0.9675614 0
vt 1.007367 0
vt 0.9675614 0.04738991
vt 0.1435106 0
vt 0.00768183 0.04738991
vt 0.00768183 0
vt 0.1435106 0.04738991
vt 0.8456997 0
vt 0.8456997 0.04738991
vt -0.4158664 0.04738991
vt -0.00768183 0
vt -0.00768183 0.04738991
vt -0.4158664 0
vt -0.8456997 0.04738991
vt -1.044031 0
vt -0.8456997 0
vt -1.044031 0.04738991
vt -0.9960721 0.04738991
vt -1.054164 0
vt -0.9960721 0
vt -1.054164 0.04738991
vt -0.9243714 0.04738991
vt -0.9509979 0
vt -0.9243714 0
vt -0.9509979 0.04738991
vt -0.804622 0.04738991
vt -0.8311002 0
vt -0.804622 0
vt -0.8311002 0.04738991
vt -0.6262968 0.04738991
vt -0.6520936 0
vt -0.6262968 0
vt -0.6520936 0.04738991
vt -0.4064294 0
vt -0.4314565 0.04738991
vt -0.4314565 0
vt -0.4064294 0.04738991
vt -0.09016954 0
vt -0.1171475 0.04738991
vt -0.1171475 0
vt -0.09016954 0.04738991
vt 0.2088789 0
vt 0.1763366 0.04738991
vt 0.1763366 0
vt 0.2088789 0.04738991
vt 0.4486837 0
vt 0.4095039 0.04738991
vt 0.4095039 0
vt 0.4486837 0.04738991
vt 0.7148159 0
vt 0.6767654 0.04738991
vt 0.6767654 0
vt 0.7148159 0.04738991
vt 0.9306156 0
vt 0.8924957 0.04738991
vt 0.8924957 0
vt 0.9306156 0.04738991
vt 1.07119 0.04738991
vt 1.031664 0
vt 1.07119 0
vt 1.031664 0.04738991
vt -0.5915898 0
vt -0.8049363 0.04738991
vt -0.8049363 0
vt -0.5915898 0.04738991
vt 1.257376 0.00768183
vt 1.119801 0.1707461
vt 1.11212 0.00768183
vt 1.007367 0.1435106
vt 0.9675614 0.2255665
vt 0.9675614 0.1435106
vt 1.003876 0.2255665
vt 1.034777 0.22884
vt 1.057648 0.2386605
vt 1.07179 0.255028
vt 1.076504 0.2779426
vt 1.101819 0.4099304
vt 1.127178 0.4018121
vt 1.152929 0.1923076
vt 1.150529 0.3893291
vt 1.170213 0.3726561
vt 1.17759 0.2213764
vt 1.185272 0.3526658
vt 1.19291 0.2562065
vt 1.19483 0.327438
vt 1.198016 0.2950521
vt 0.9675614 0.00768183
vt 0.8456997 0.4158664
vt 0.8456997 0.00768183
vt 0.9675614 0.328922
vt 1.044031 0.4158664
vt 1.008415 0.328922
vt 1.04355 0.3254303
vt 1.063759 0.314955
vt 1.073318 0.2987184
vn 0 0 -1
vn 0 0 1
vn 0 1 0
vn 0 -1 0
vn 0.7918665978965052 0.6106941060267529 0
vn -0.7918665978965052 -0.6106941060267529 0
vn -1 0 0
vn 1 0 0
vn -0.05115767896036647 -0.9986905886626688 0
vn 0.05115767896036647 0.9986905886626688 0
vn -0.20463809818118586 -0.9788377029787867 0
vn 0.20463809818118586 0.9788377029787867 0
vn -0.3897658857353427 -0.9209139776965838 0
vn 0.3897658857353427 0.9209139776965838 0
vn -0.562031874850442 -0.8271155733342813 0
vn 0.562031874850442 0.8271155733342813 0
vn -0.7270243104730475 -0.686611718499757 0
vn 0.7270243104730475 0.686611718499757 0
vn -0.8757126744397948 -0.48283259192550565 0
vn 0.8757126744397948 0.48283259192550565 0
vn -0.9736383173475514 -0.22809740680820687 0
vn 0.9736383173475514 0.22809740680820687 0
vn -0.9998667993582082 0.01632126040392015 0
vn 0.9998667993582082 -0.01632126040392015 0
vn -0.9630886839050032 0.269184299196905 0
vn 0.9630886839050032 -0.269184299196905 0
vn -0.8478083081509871 0.5303028122027649 0
vn 0.8478083081509871 -0.5303028122027649 0
vn -0.6609766013120716 0.7504065115108896 0
vn 0.6609766013120716 -0.7504065115108896 0
vn -0.545492798635636 0.8381155091254794 0
vn 0.545492798635636 -0.8381155091254794 0
vn -0.7643166722663797 -0.6448410846833874 0
vn 0.7643166722663797 0.6448410846833874 0
usemtl material_0_2
f 1/1/1 2/2/1 3/3/1
f 3/3/2 2/2/2 1/1/2
f 2/2/1 1/1/1 4/4/1
f 4/4/2 1/1/2 2/2/2
f 2/2/1 4/4/1 5/5/1
f 5/5/2 4/4/2 2/2/2
f 5/5/1 4/4/1 6/6/1
f 6/6/2 4/4/2 5/5/2
f 6/6/1 4/4/1 7/7/1
f 7/7/2 4/4/2 6/6/2
f 7/7/1 4/4/1 8/8/1
f 8/8/2 4/4/2 7/7/2
f 7/7/1 8/8/1 9/9/1
f 9/9/2 8/8/2 7/7/2
f 9/9/1 8/8/1 10/10/1
f 10/10/2 8/8/2 9/9/2
f 2/2/1 11/11/1 3/3/1
f 3/3/2 11/11/2 2/2/2
f 11/11/1 2/2/1 12/12/1
f 12/12/2 2/2/2 11/11/2
f 11/11/1 12/12/1 13/13/1
f 13/13/2 12/12/2 11/11/2
f 14/14/1 13/13/1 12/12/1
f 12/12/2 13/13/2 14/14/2
f 13/13/1 14/14/1 15/15/1
f 15/15/2 14/14/2 13/13/2
f 15/15/1 14/14/1 16/16/1
f 16/16/2 14/14/2 15/15/2
f 15/15/1 16/16/1 17/17/1
f 17/17/2 16/16/2 15/15/2
f 17/17/1 16/16/1 18/18/1
f 18/18/2 16/16/2 17/17/2
f 17/17/1 18/18/1 19/19/1
f 19/19/2 18/18/2 17/17/2
f 17/17/1 19/19/1 10/10/1
f 10/10/2 19/19/2 17/17/2
f 17/17/1 10/10/1 8/8/1
f 8/8/2 10/10/2 17/17/2
f 17/17/1 8/8/1 20/20/1
f 20/20/2 8/8/2 17/17/2
f 17/17/1 20/20/1 21/21/1
f 21/21/2 20/20/2 17/17/2
f 21/21/1 20/20/1 22/22/1
f 22/22/2 20/20/2 21/21/2
f 22/22/1 20/20/1 23/23/1
f 23/23/2 20/20/2 22/22/2
f 22/22/1 23/23/1 24/24/1
f 24/24/2 23/23/2 22/22/2
f 22/22/1 24/24/1 25/25/1
f 25/25/2 24/24/2 22/22/2
f 25/25/1 24/24/1 26/26/1
f 26/26/2 24/24/2 25/25/2
f 25/25/1 26/26/1 27/27/1
f 27/27/2 26/26/2 25/25/2
f 27/27/1 26/26/1 28/28/1
f 28/28/2 26/26/2 27/27/2
f 27/27/1 28/28/1 29/29/1
f 29/29/2 28/28/2 27/27/2
f 30/30/1 17/17/1 21/21/1
f 21/21/2 17/17/2 30/30/2
f 31/31/3 32/32/3 33/33/3
f 33/33/4 32/32/4 31/31/4
f 32/32/3 31/31/3 34/34/3
f 34/34/4 31/31/4 32/32/4
f 35/35/5 36/36/5 37/37/5
f 37/37/6 36/36/6 35/35/6
f 36/36/5 35/35/5 38/38/5
f 38/38/6 35/35/6 36/36/6
f 39/39/3 40/40/3 41/41/3
f 41/41/4 40/40/4 39/39/4
f 40/40/3 39/39/3 42/42/3
f 42/42/4 39/39/4 40/40/4
f 43/43/7 44/44/7 45/45/7
f 45/45/8 44/44/8 43/43/8
f 44/44/7 43/43/7 46/46/7
f 46/46/8 43/43/8 44/44/8
f 47/42/3 48/47/3 49/40/3
f 49/40/4 48/47/4 47/42/4
f 48/47/3 47/42/3 50/48/3
f 50/48/4 47/42/4 48/47/4
f 51/49/8 52/50/8 53/51/8
f 53/51/7 52/50/7 51/49/7
f 52/50/8 51/49/8 54/52/8
f 54/52/7 51/49/7 52/50/7
f 55/53/4 56/54/9 57/55/4
f 57/55/3 56/54/10 55/53/3
f 56/54/9 55/53/4 58/56/9
f 58/56/10 55/53/3 56/54/10
f 58/57/9 59/58/11 56/59/9
f 56/59/10 59/58/12 58/57/10
f 59/58/11 58/57/9 60/60/11
f 60/60/12 58/57/10 59/58/12
f 60/61/11 61/62/13 59/63/11
f 59/63/12 61/62/14 60/61/12
f 61/62/13 60/61/11 62/64/13
f 62/64/14 60/61/12 61/62/14
f 62/65/13 63/66/15 61/67/13
f 61/67/14 63/66/16 62/65/14
f 63/66/15 62/65/13 64/68/15
f 64/68/16 62/65/14 63/66/16
f 64/69/15 65/70/17 63/71/15
f 63/71/16 65/70/18 64/69/16
f 65/70/17 64/69/15 66/72/17
f 66/72/18 64/69/16 65/70/18
f 65/73/17 67/74/19 68/75/19
f 68/75/20 67/74/20 65/73/18
f 67/74/19 65/73/17 66/76/17
f 66/76/18 65/73/18 67/74/20
f 68/77/19 69/78/21 70/79/21
f 70/79/22 69/78/22 68/77/20
f 69/78/21 68/77/19 67/80/19
f 67/80/20 68/77/20 69/78/22
f 70/81/21 71/82/23 72/83/23
f 72/83/24 71/82/24 70/81/22
f 71/82/23 70/81/21 69/84/21
f 69/84/22 70/81/22 71/82/24
f 72/85/23 73/86/25 74/87/25
f 74/87/26 73/86/26 72/85/24
f 73/86/25 72/85/23 71/88/23
f 71/88/24 72/85/24 73/86/26
f 74/89/25 75/90/27 76/91/27
f 76/91/28 75/90/28 74/89/26
f 75/90/27 74/89/25 73/92/25
f 73/92/26 74/89/26 75/90/28
f 76/93/27 77/94/29 78/95/29
f 78/95/30 77/94/30 76/93/28
f 77/94/29 76/93/27 75/96/27
f 75/96/28 76/93/28 77/94/30
f 77/97/29 79/98/31 78/99/29
f 78/99/30 79/98/32 77/97/30
f 79/98/31 77/97/29 80/100/31
f 80/100/32 77/97/30 79/98/32
f 81/101/33 82/102/33 83/103/33
f 83/103/34 82/102/34 81/101/34
f 82/102/33 81/101/33 84/104/33
f 84/104/34 81/101/34 82/102/34
f 85/105/2 86/106/2 87/107/2
f 87/107/1 86/106/1 85/105/1
f 88/108/2 89/109/2 90/110/2
f 90/110/1 89/109/1 88/108/1
f 89/109/2 88/108/2 91/111/2
f 91/111/1 88/108/1 89/109/1
f 91/111/2 88/108/2 92/112/2
f 92/112/1 88/108/1 91/111/1
f 92/112/2 88/108/2 87/107/2
f 87/107/1 88/108/1 92/112/1
f 92/112/2 87/107/2 93/113/2
f 93/113/1 87/107/1 92/112/1
f 93/113/2 87/107/2 94/114/2
f 94/114/1 87/107/1 93/113/1
f 94/114/2 87/107/2 95/115/2
f 95/115/1 87/107/1 94/114/1
f 95/115/2 87/107/2 96/116/2
f 96/116/1 87/107/1 95/115/1
f 96/116/2 87/107/2 97/117/2
f 97/117/1 87/107/1 96/116/1
f 97/117/2 87/107/2 86/106/2
f 86/106/1 87/107/1 97/117/1
f 97/117/2 86/106/2 98/118/2
f 98/118/1 86/106/1 97/117/1
f 97/117/2 98/118/2 99/119/2
f 99/119/1 98/118/1 97/117/1
f 99/119/2 98/118/2 100/120/2
f 100/120/1 98/118/1 99/119/1
f 100/120/2 98/118/2 101/121/2
f 101/121/1 98/118/1 100/120/1
f 100/120/2 101/121/2 102/122/2
f 102/122/1 101/121/1 100/120/1
f 102/122/2 101/121/2 103/123/2
f 103/123/1 101/121/1 102/122/1
f 102/122/2 103/123/2 104/124/2
f 104/124/1 103/123/1 102/122/1
f 104/124/2 103/123/2 105/125/2
f 105/125/1 103/123/1 104/124/1
f 106/126/2 107/127/2 108/128/2
f 108/128/1 107/127/1 106/126/1
f 107/127/2 106/126/2 109/129/2
f 109/129/1 106/126/1 107/127/1
f 107/127/2 109/129/2 110/130/2
f 110/130/1 109/129/1 107/127/1
f 109/129/2 106/126/2 90/110/2
f 90/110/1 106/126/1 109/129/1
f 109/129/2 90/110/2 89/109/2
f 89/109/1 90/110/1 109/129/1
f 110/130/2 109/129/2 111/131/2
f 111/131/1 109/129/1 110/130/1
f 110/130/2 111/131/2 112/132/2
f 112/132/1 111/131/1 110/130/1
f 110/130/2 112/132/2 113/133/2
f 113/133/1 112/132/1 110/130/1
f 110/130/2 113/133/2 96/116/2
f 96/116/1 113/133/1 110/130/1
f 96/116/2 113/133/2 114/134/2
f 114/134/1 113/133/1 96/116/1
f 96/116/2 114/134/2 95/115/2
f 95/115/1 114/134/1 96/116/1
