# SSTK version 0.8.0
# 77
mtllib original-77.mtl
o #ID27
v 0.558519 -0.110337 0.179507
v 0.568114 -0.092576 0.179507
v 0.568114 -0.110337 0.179507
v 0.577767 -0.110337 0.179507
v 0.590075 -0.076244 0.179507
v 0.590075 -0.110337 0.179507
v 0.580480 -0.097971 0.179507
v 0.568202 -0.076244 0.179507
v 0.558519 -0.076244 0.179507
v 0.580480 -0.076244 0.179507
v 0.558519 -0.076244 0.183465
v 0.568202 -0.076244 0.179507
v 0.558519 -0.076244 0.179507
v 0.568202 -0.076244 0.183465
v 0.580480 -0.097971 0.183465
v 0.568202 -0.076244 0.179507
v 0.568202 -0.076244 0.183465
v 0.580480 -0.097971 0.179507
v 0.580480 -0.097971 0.179507
v 0.580480 -0.076244 0.183465
v 0.580480 -0.076244 0.179507
v 0.580480 -0.097971 0.183465
v 0.580480 -0.076244 0.183465
v 0.590075 -0.076244 0.179507
v 0.580480 -0.076244 0.179507
v 0.590075 -0.076244 0.183465
v 0.590075 -0.110337 0.183465
v 0.590075 -0.076244 0.179507
v 0.590075 -0.076244 0.183465
v 0.590075 -0.110337 0.179507
v 0.590075 -0.110337 0.183465
v 0.577767 -0.110337 0.179507
v 0.590075 -0.110337 0.179507
v 0.577767 -0.110337 0.183465
v 0.577767 -0.110337 0.179507
v 0.568114 -0.092576 0.183465
v 0.568114 -0.092576 0.179507
v 0.577767 -0.110337 0.183465
v 0.568114 -0.110337 0.183465
v 0.568114 -0.092576 0.179507
v 0.568114 -0.092576 0.183465
v 0.568114 -0.110337 0.179507
v 0.568114 -0.110337 0.183465
v 0.558519 -0.110337 0.179507
v 0.568114 -0.110337 0.179507
v 0.558519 -0.110337 0.183465
v 0.558519 -0.110337 0.179507
v 0.558519 -0.076244 0.183465
v 0.558519 -0.076244 0.179507
v 0.558519 -0.110337 0.183465
v 0.580480 -0.076244 0.183465
v 0.590075 -0.110337 0.183465
v 0.590075 -0.076244 0.183465
v 0.580480 -0.097971 0.183465
v 0.577767 -0.110337 0.183465
v 0.568202 -0.076244 0.183465
v 0.568114 -0.092576 0.183465
v 0.558519 -0.076244 0.183465
v 0.568114 -0.110337 0.183465
v 0.558519 -0.110337 0.183465
vt -1.324417 0.4207548
vt -1.209539 0.2081078
vt -1.209539 0.4207548
vt -1.093962 0.4207548
vt -0.946611 0.01257027
vt -0.946611 0.4207548
vt -1.061489 0.272705
vt -1.208492 0.01257027
vt -1.324417 0.01257027
vt -1.061489 0.01257027
vt 1.324417 0.04738991
vt 1.208492 0
vt 1.324417 0
vt 1.208492 0.04738991
vt 0.2848131 0.04738991
vt 0.5836102 0
vt 0.5836102 0.04738991
vt 0.2848131 0
vt 0.272705 0
vt 0.01257027 0.04738991
vt 0.01257027 0
vt 0.272705 0.04738991
vt 1.061489 0.04738991
vt 0.946611 0
vt 1.061489 0
vt 0.946611 0.04738991
vt -0.4207548 0.04738991
vt -0.01257027 0
vt -0.01257027 0.04738991
vt -0.4207548 0
vt -0.946611 0.04738991
vt -1.093962 0
vt -0.946611 0
vt -1.093962 0.04738991
vt -0.1527282 0
vt -0.3947545 0.04738991
vt -0.3947545 0
vt -0.1527282 0.04738991
vt -0.2081078 0
vt -0.2081078 0.04738991
vt -1.209539 0.04738991
vt -1.324417 0
vt -1.209539 0
vt -1.324417 0.04738991
vt 0.4207548 0
vt 0.4207548 0.04738991
vt 1.061489 0.01257027
vt 0.946611 0.4207548
vt 0.946611 0.01257027
vt 1.061489 0.272705
vt 1.093962 0.4207548
vt 1.208492 0.01257027
vt 1.209539 0.2081078
vt 1.324417 0.01257027
vt 1.209539 0.4207548
vt 1.324417 0.4207548
vn 0 0 -1
vn 0 0 1
vn 0 1 0
vn 0 -1 0
vn 0.870606388268572 0.49198019950598887 0
vn -0.870606388268572 -0.49198019950598887 0
vn -1 0 0
vn 1 0 0
vn -0.8786113728511419 -0.4775374911948085 0
vn 0.8786113728511419 0.4775374911948085 0
usemtl material_0_2
f 1/1/1 2/2/1 3/3/1
f 3/3/2 2/2/2 1/1/2
f 4/4/1 5/5/1 6/6/1
f 6/6/2 5/5/2 4/4/2
f 5/5/1 4/4/1 7/7/1
f 7/7/2 4/4/2 5/5/2
f 7/7/1 4/4/1 8/8/1
f 8/8/2 4/4/2 7/7/2
f 8/8/1 4/4/1 2/2/1
f 2/2/2 4/4/2 8/8/2
f 8/8/1 2/2/1 9/9/1
f 9/9/2 2/2/2 8/8/2
f 9/9/1 2/2/1 1/1/1
f 1/1/2 2/2/2 9/9/2
f 10/10/1 5/5/1 7/7/1
f 7/7/2 5/5/2 10/10/2
f 11/11/3 12/12/3 13/13/3
f 13/13/4 12/12/4 11/11/4
f 12/12/3 11/11/3 14/14/3
f 14/14/4 11/11/4 12/12/4
f 15/15/5 16/16/5 17/17/5
f 17/17/6 16/16/6 15/15/6
f 16/16/5 15/15/5 18/18/5
f 18/18/6 15/15/6 16/16/6
f 19/19/7 20/20/7 21/21/7
f 21/21/8 20/20/8 19/19/8
f 20/20/7 19/19/7 22/22/7
f 22/22/8 19/19/8 20/20/8
f 23/23/3 24/24/3 25/25/3
f 25/25/4 24/24/4 23/23/4
f 24/24/3 23/23/3 26/26/3
f 26/26/4 23/23/4 24/24/4
f 27/27/8 28/28/8 29/29/8
f 29/29/7 28/28/7 27/27/7
f 28/28/8 27/27/8 30/30/8
f 30/30/7 27/27/7 28/28/7
f 31/31/4 32/32/4 33/33/4
f 33/33/3 32/32/3 31/31/3
f 32/32/4 31/31/4 34/34/4
f 34/34/3 31/31/3 32/32/3
f 35/35/9 36/36/9 37/37/9
f 37/37/10 36/36/10 35/35/10
f 36/36/9 35/35/9 38/38/9
f 38/38/10 35/35/10 36/36/10
f 39/27/8 40/39/8 41/40/8
f 41/40/7 40/39/7 39/27/7
f 40/39/8 39/27/8 42/30/8
f 42/30/7 39/27/7 40/39/7
f 43/41/4 44/42/4 45/43/4
f 45/43/3 44/42/3 43/41/3
f 44/42/4 43/41/4 46/44/4
f 46/44/3 43/41/3 44/42/3
f 47/45/7 48/20/7 49/21/7
f 49/21/8 48/20/8 47/45/8
f 48/20/7 47/45/7 50/46/7
f 50/46/8 47/45/8 48/20/8
f 51/47/2 52/48/2 53/49/2
f 53/49/1 52/48/1 51/47/1
f 52/48/2 51/47/2 54/50/2
f 54/50/1 51/47/1 52/48/1
f 52/48/2 54/50/2 55/51/2
f 55/51/1 54/50/1 52/48/1
f 55/51/2 54/50/2 56/52/2
f 56/52/1 54/50/1 55/51/1
f 55/51/2 56/52/2 57/53/2
f 57/53/1 56/52/1 55/51/1
f 57/53/2 56/52/2 58/54/2
f 58/54/1 56/52/1 57/53/1
f 57/53/2 58/54/2 59/55/2
f 59/55/1 58/54/1 57/53/1
f 59/55/2 58/54/2 60/56/2
f 60/56/1 58/54/1 59/55/1
