# SSTK version 0.8.0
# 78
mtllib original-78.mtl
o #ID35
v 0.531046 -0.110337 0.179507
v 0.551636 -0.103250 0.179507
v 0.551636 -0.110337 0.179507
v 0.546445 -0.103250 0.179507
v 0.536238 -0.103250 0.179507
v 0.546445 -0.083418 0.179507
v 0.531046 -0.103250 0.179507
v 0.551636 -0.076244 0.179507
v 0.551636 -0.083418 0.179507
v 0.531046 -0.076244 0.179507
v 0.536238 -0.083418 0.179507
v 0.531046 -0.083418 0.179507
v 0.531046 -0.076244 0.183465
v 0.551636 -0.076244 0.179507
v 0.531046 -0.076244 0.179507
v 0.551636 -0.076244 0.183465
v 0.551636 -0.083418 0.183465
v 0.551636 -0.076244 0.179507
v 0.551636 -0.076244 0.183465
v 0.551636 -0.083418 0.179507
v 0.551636 -0.083418 0.183465
v 0.546445 -0.083418 0.179507
v 0.551636 -0.083418 0.179507
v 0.546445 -0.083418 0.183465
v 0.546445 -0.103250 0.183465
v 0.546445 -0.083418 0.179507
v 0.546445 -0.083418 0.183465
v 0.546445 -0.103250 0.179507
v 0.546445 -0.103250 0.183465
v 0.551636 -0.103250 0.179507
v 0.546445 -0.103250 0.179507
v 0.551636 -0.103250 0.183465
v 0.551636 -0.110337 0.183465
v 0.551636 -0.103250 0.179507
v 0.551636 -0.103250 0.183465
v 0.551636 -0.110337 0.179507
v 0.551636 -0.110337 0.183465
v 0.531046 -0.110337 0.179507
v 0.551636 -0.110337 0.179507
v 0.531046 -0.110337 0.183465
v 0.531046 -0.110337 0.179507
v 0.531046 -0.103250 0.183465
v 0.531046 -0.103250 0.179507
v 0.531046 -0.110337 0.183465
v 0.531046 -0.103250 0.183465
v 0.536238 -0.103250 0.179507
v 0.531046 -0.103250 0.179507
v 0.536238 -0.103250 0.183465
v 0.536238 -0.103250 0.179507
v 0.536238 -0.083418 0.183465
v 0.536238 -0.083418 0.179507
v 0.536238 -0.103250 0.183465
v 0.536238 -0.083418 0.183465
v 0.531046 -0.083418 0.179507
v 0.536238 -0.083418 0.179507
v 0.531046 -0.083418 0.183465
v 0.531046 -0.083418 0.179507
v 0.531046 -0.076244 0.183465
v 0.531046 -0.076244 0.179507
v 0.531046 -0.083418 0.183465
v 0.531046 -0.076244 0.183465
v 0.551636 -0.083418 0.183465
v 0.551636 -0.076244 0.183465
v 0.546445 -0.083418 0.183465
v 0.536238 -0.083418 0.183465
v 0.546445 -0.103250 0.183465
v 0.531046 -0.083418 0.183465
v 0.551636 -0.110337 0.183465
v 0.551636 -0.103250 0.183465
v 0.531046 -0.110337 0.183465
v 0.536238 -0.103250 0.183465
v 0.531046 -0.103250 0.183465
vt -1.653339 0.4207548
vt -1.406822 0.3359055
vt -1.406822 0.4207548
vt -1.468975 0.3359055
vt -1.591186 0.3359055
vt -1.468975 0.0984671
vt -1.653339 0.3359055
vt -1.406822 0.01257027
vt -1.406822 0.0984671
vt -1.653339 0.01257027
vt -1.591186 0.0984671
vt -1.653339 0.0984671
vt 1.653339 0.04738991
vt 1.406822 0
vt 1.653339 0
vt 1.406822 0.04738991
vt -0.0984671 0.04738991
vt -0.01257027 0
vt -0.01257027 0.04738991
vt -0.0984671 0
vt -1.406822 0.04738991
vt -1.468975 0
vt -1.406822 0
vt -1.468975 0.04738991
vt -0.3359055 0.04738991
vt -0.3359055 0
vt 1.468975 0.04738991
vt 1.468975 0
vt -0.4207548 0.04738991
vt -0.4207548 0
vt -1.653339 0
vt -1.653339 0.04738991
vt 0.4207548 0
vt 0.3359055 0.04738991
vt 0.3359055 0
vt 0.4207548 0.04738991
vt 1.591186 0
vt 1.591186 0.04738991
vt 0.0984671 0.04738991
vt 0.0984671 0
vt -1.591186 0.04738991
vt -1.591186 0
vt 0.01257027 0.04738991
vt 0.01257027 0
vt 1.653339 0.01257027
vt 1.406822 0.0984671
vt 1.406822 0.01257027
vt 1.468975 0.0984671
vt 1.591186 0.0984671
vt 1.468975 0.3359055
vt 1.653339 0.0984671
vt 1.406822 0.4207548
vt 1.406822 0.3359055
vt 1.653339 0.4207548
vt 1.591186 0.3359055
vt 1.653339 0.3359055
vn 0 0 -1
vn 0 0 1
vn 0 1 0
vn 0 -1 0
vn 1 0 0
vn -1 0 0
usemtl material_0_2
f 1/1/1 2/2/1 3/3/1
f 3/3/2 2/2/2 1/1/2
f 2/2/1 1/1/1 4/4/1
f 4/4/2 1/1/2 2/2/2
f 4/4/1 1/1/1 5/5/1
f 5/5/2 1/1/2 4/4/2
f 4/4/1 5/5/1 6/6/1
f 6/6/2 5/5/2 4/4/2
f 5/5/1 1/1/1 7/7/1
f 7/7/2 1/1/2 5/5/2
f 6/6/1 8/8/1 9/9/1
f 9/9/2 8/8/2 6/6/2
f 8/8/1 6/6/1 10/10/1
f 10/10/2 6/6/2 8/8/2
f 10/10/1 6/6/1 11/11/1
f 11/11/2 6/6/2 10/10/2
f 11/11/1 6/6/1 5/5/1
f 5/5/2 6/6/2 11/11/2
f 10/10/1 11/11/1 12/12/1
f 12/12/2 11/11/2 10/10/2
f 13/13/3 14/14/3 15/15/3
f 15/15/4 14/14/4 13/13/4
f 14/14/3 13/13/3 16/16/3
f 16/16/4 13/13/4 14/14/4
f 17/17/5 18/18/5 19/19/5
f 19/19/6 18/18/6 17/17/6
f 18/18/5 17/17/5 20/20/5
f 20/20/6 17/17/6 18/18/6
f 21/21/4 22/22/4 23/23/4
f 23/23/3 22/22/3 21/21/3
f 22/22/4 21/21/4 24/24/4
f 24/24/3 21/21/3 22/22/3
f 25/25/5 26/20/5 27/17/5
f 27/17/6 26/20/6 25/25/6
f 26/20/5 25/25/5 28/26/5
f 28/26/6 25/25/6 26/20/6
f 29/27/3 30/14/3 31/28/3
f 31/28/4 30/14/4 29/27/4
f 30/14/3 29/27/3 32/16/3
f 32/16/4 29/27/4 30/14/4
f 33/29/5 34/26/5 35/25/5
f 35/25/6 34/26/6 33/29/6
f 34/26/5 33/29/5 36/30/5
f 36/30/6 33/29/6 34/26/6
f 37/21/4 38/31/4 39/23/4
f 39/23/3 38/31/3 37/21/3
f 38/31/4 37/21/4 40/32/4
f 40/32/3 37/21/3 38/31/3
f 41/33/6 42/34/6 43/35/6
f 43/35/5 42/34/5 41/33/5
f 42/34/6 41/33/6 44/36/6
f 44/36/5 41/33/5 42/34/5
f 45/13/3 46/37/3 47/15/3
f 47/15/4 46/37/4 45/13/4
f 46/37/3 45/13/3 48/38/3
f 48/38/4 45/13/4 46/37/4
f 49/35/6 50/39/6 51/40/6
f 51/40/5 50/39/5 49/35/5
f 50/39/6 49/35/6 52/34/6
f 52/34/5 49/35/5 50/39/5
f 53/41/4 54/31/4 55/42/4
f 55/42/3 54/31/3 53/41/3
f 54/31/4 53/41/4 56/32/4
f 56/32/3 53/41/3 54/31/3
f 57/40/6 58/43/6 59/44/6
f 59/44/5 58/43/5 57/40/5
f 58/43/6 57/40/6 60/39/6
f 60/39/5 57/40/5 58/43/5
f 61/45/2 62/46/2 63/47/2
f 63/47/1 62/46/1 61/45/1
f 62/46/2 61/45/2 64/48/2
f 64/48/1 61/45/1 62/46/1
f 64/48/2 61/45/2 65/49/2
f 65/49/1 61/45/1 64/48/1
f 64/48/2 65/49/2 66/50/2
f 66/50/1 65/49/1 64/48/1
f 65/49/2 61/45/2 67/51/2
f 67/51/1 61/45/1 65/49/1
f 66/50/2 68/52/2 69/53/2
f 69/53/1 68/52/1 66/50/1
f 68/52/2 66/50/2 70/54/2
f 70/54/1 66/50/1 68/52/1
f 70/54/2 66/50/2 71/55/2
f 71/55/1 66/50/1 70/54/1
f 71/55/2 66/50/2 65/49/2
f 65/49/1 66/50/1 71/55/1
f 70/54/2 71/55/2 72/56/2
f 72/56/1 71/55/1 70/54/1
