# SSTK version 0.8.0
# 10
mtllib original-10.mtl
o #ID199
v 0.452596 0.059281 -0.286217
v 0.452596 0.059281 -0.300467
v 0.444905 0.060294 -0.286217
v 0.444905 0.060294 -0.300467
v 0.437214 0.059281 -0.286217
v 0.437214 0.059281 -0.300467
v 0.444905 0.000860 -0.300467
v 0.437214 0.001873 -0.300467
v 0.452596 0.001873 -0.300467
v 0.459763 0.004842 -0.300467
v 0.430047 0.004842 -0.300467
v 0.465918 0.009564 -0.300467
v 0.423892 0.009564 -0.300467
v 0.470640 0.015719 -0.300467
v 0.419169 0.015719 -0.300467
v 0.473609 0.022886 -0.300467
v 0.416201 0.022886 -0.300467
v 0.474622 0.030577 -0.300467
v 0.415188 0.030577 -0.300467
v 0.473609 0.038268 -0.300467
v 0.416201 0.038268 -0.300467
v 0.470640 0.045435 -0.300467
v 0.419169 0.045435 -0.300467
v 0.465918 0.051590 -0.300467
v 0.423892 0.051590 -0.300467
v 0.459763 0.056312 -0.300467
v 0.430047 0.056312 -0.300467
v 0.452596 0.059281 -0.300467
v 0.437214 0.059281 -0.300467
v 0.444905 0.060294 -0.300467
v 0.459763 0.056312 -0.286217
v 0.459763 0.056312 -0.300467
v 0.430047 0.056312 -0.286217
v 0.430047 0.056312 -0.300467
v 0.473609 0.038268 -0.286217
v 0.474622 0.030577 -0.286217
v 0.473609 0.038268 -0.300467
v 0.474622 0.030577 -0.300467
v 0.470640 0.045435 -0.286217
v 0.470640 0.045435 -0.300467
v 0.465918 0.051590 -0.286217
v 0.465918 0.051590 -0.300467
v 0.423892 0.051590 -0.286217
v 0.423892 0.051590 -0.300467
v 0.419169 0.045435 -0.286217
v 0.419169 0.045435 -0.300467
v 0.416201 0.038268 -0.286217
v 0.416201 0.038268 -0.300467
v 0.415188 0.030577 -0.286217
v 0.415188 0.030577 -0.300467
v 0.416201 0.022886 -0.286217
v 0.416201 0.022886 -0.300467
v 0.419169 0.015719 -0.286217
v 0.419169 0.015719 -0.300467
v 0.423892 0.009564 -0.286217
v 0.423892 0.009564 -0.300467
v 0.430047 0.004842 -0.286217
v 0.430047 0.004842 -0.300467
v 0.437214 0.001873 -0.286217
v 0.437214 0.001873 -0.300467
v 0.444905 0.000860 -0.286217
v 0.444905 0.000860 -0.300467
v 0.452596 0.001873 -0.286217
v 0.452596 0.001873 -0.300467
v 0.459763 0.004842 -0.286217
v 0.459763 0.004842 -0.300467
v 0.465918 0.009564 -0.286217
v 0.465918 0.009564 -0.300467
v 0.470640 0.015719 -0.286217
v 0.470640 0.015719 -0.300467
v 0.473609 0.022886 -0.286217
v 0.473609 0.022886 -0.300467
vn 0.2588190015589235 0.9659258379565391 -1.4259444960763384e-9
vn 0 1 0
vn -0.2588190015589235 -0.9659258379565391 1.4259444960763384e-9
vn 0 -1 0
vn -0.2588190015589235 0.9659258379565391 -3.179511118000621e-9
vn 0.2588190015589235 -0.9659258379565391 3.179511118000621e-9
vn 0 0 -1
vn 0 0 1
vn 0.5000000058752765 0.8660254003923463 -6.46547639002773e-9
vn -0.5000000058752765 -0.8660254003923463 6.46547639002773e-9
vn -0.5000000056161491 0.8660254005419535 0
vn 0.5000000056161491 -0.8660254005419535 0
vn 0.9659258220460287 0.25881906093775886 -4.746839816102158e-9
vn 1 0 0
vn -0.9659258220460287 -0.25881906093775886 4.746839816102158e-9
vn -1 0 0
vn 0.866025402838329 0.5000000016387098 2.9337747570585974e-9
vn -0.866025402838329 -0.5000000016387098 -2.9337747570585974e-9
vn 0.7071067929317552 0.7071067694413397 -1.8703488432027197e-9
vn -0.7071067929317552 -0.7071067694413397 1.8703488432027197e-9
vn -0.7071067929317552 0.7071067694413397 -6.661182844231287e-9
vn 0.7071067929317552 -0.7071067694413397 6.661182844231287e-9
vn -0.866025402838329 0.5000000016387098 -2.93377451419731e-9
vn 0.866025402838329 -0.5000000016387098 2.93377451419731e-9
vn -0.9659258218964216 0.25881906149610096 -1.3091622753018018e-9
vn 0.9659258218964216 -0.25881906149610096 1.3091622753018018e-9
usemtl material_0_2
f 1//1 2//1 3//2
f 3//4 2//3 1//3
f 4//2 3//2 2//1
f 2//3 3//4 4//4
f 3//2 4//2 5//5
f 5//6 4//4 3//4
f 6//5 5//5 4//2
f 4//4 5//6 6//6
f 7//7 8//7 9//7
f 9//8 8//8 7//8
f 9//7 8//7 10//7
f 10//8 8//8 9//8
f 8//7 11//7 10//7
f 10//8 11//8 8//8
f 10//7 11//7 12//7
f 12//8 11//8 10//8
f 11//7 13//7 12//7
f 12//8 13//8 11//8
f 12//7 13//7 14//7
f 14//8 13//8 12//8
f 13//7 15//7 14//7
f 14//8 15//8 13//8
f 14//7 15//7 16//7
f 16//8 15//8 14//8
f 15//7 17//7 16//7
f 16//8 17//8 15//8
f 16//7 17//7 18//7
f 18//8 17//8 16//8
f 17//7 19//7 18//7
f 18//8 19//8 17//8
f 18//7 19//7 20//7
f 20//8 19//8 18//8
f 19//7 21//7 20//7
f 20//8 21//8 19//8
f 20//7 21//7 22//7
f 22//8 21//8 20//8
f 21//7 23//7 22//7
f 22//8 23//8 21//8
f 22//7 23//7 24//7
f 24//8 23//8 22//8
f 23//7 25//7 24//7
f 24//8 25//8 23//8
f 24//7 25//7 26//7
f 26//8 25//8 24//8
f 25//7 27//7 26//7
f 26//8 27//8 25//8
f 26//7 27//7 28//7
f 28//8 27//8 26//8
f 27//7 29//7 28//7
f 28//8 29//8 27//8
f 30//7 28//7 29//7
f 29//8 28//8 30//8
f 31//9 32//9 1//1
f 1//3 32//10 31//10
f 2//1 1//1 32//9
f 32//10 1//3 2//3
f 5//5 6//5 33//11
f 33//12 6//6 5//6
f 34//11 33//11 6//5
f 6//6 33//12 34//12
f 35//13 36//14 37//13
f 37//15 36//16 35//15
f 38//14 37//13 36//14
f 36//16 37//15 38//16
f 39//17 35//13 40//17
f 40//18 35//15 39//18
f 37//13 40//17 35//13
f 35//15 40//18 37//15
f 41//19 39//17 42//19
f 42//20 39//18 41//20
f 40//17 42//19 39//17
f 39//18 42//20 40//18
f 41//19 42//19 31//9
f 31//10 42//20 41//20
f 32//9 31//9 42//19
f 42//20 31//10 32//10
f 33//11 34//11 43//21
f 43//22 34//12 33//12
f 44//21 43//21 34//11
f 34//12 43//22 44//22
f 43//21 44//21 45//23
f 45//24 44//22 43//22
f 46//23 45//23 44//21
f 44//22 45//24 46//24
f 45//23 46//23 47//25
f 47//26 46//24 45//24
f 48//25 47//25 46//23
f 46//24 47//26 48//26
f 47//25 48//25 49//16
f 49//14 48//26 47//26
f 50//16 49//16 48//25
f 48//26 49//14 50//14
f 49//16 50//16 51//15
f 51//13 50//14 49//14
f 52//15 51//15 50//16
f 50//14 51//13 52//13
f 51//15 52//15 53//18
f 53//17 52//13 51//13
f 54//18 53//18 52//15
f 52//13 53//17 54//17
f 53//18 54//18 55//20
f 55//19 54//17 53//17
f 56//20 55//20 54//18
f 54//17 55//19 56//19
f 57//10 55//20 58//10
f 58//9 55//19 57//9
f 56//20 58//10 55//20
f 55//19 58//9 56//19
f 59//3 57//10 60//3
f 60//1 57//9 59//1
f 58//10 60//3 57//10
f 57//9 60//1 58//9
f 61//4 59//3 62//4
f 62//2 59//1 61//2
f 60//3 62//4 59//3
f 59//1 62//2 60//1
f 63//6 61//4 64//6
f 64//5 61//2 63//5
f 62//4 64//6 61//4
f 61//2 64//5 62//2
f 65//12 63//6 66//12
f 66//11 63//5 65//11
f 64//6 66//12 63//6
f 63//5 66//11 64//5
f 67//22 65//12 68//22
f 68//21 65//11 67//21
f 66//12 68//22 65//12
f 65//11 68//21 66//11
f 69//24 67//22 70//24
f 70//23 67//21 69//23
f 68//22 70//24 67//22
f 67//21 70//23 68//21
f 71//26 69//24 72//26
f 72//25 69//23 71//25
f 70//24 72//26 69//24
f 69//23 72//25 70//23
f 36//14 71//26 38//14
f 38//16 71//25 36//16
f 72//26 38//14 71//26
f 71//25 38//16 72//25
