# SSTK version 0.8.0
# 39
mtllib original-39.mtl
o #ID399
v 0.292925 -0.330245 0.135970
v 0.570789 -0.330245 0.135970
v 0.292925 -0.329579 0.135429
v 0.570789 -0.329579 0.135429
v 0.570789 -0.329076 0.134733
v 0.292925 -0.329076 0.134733
v 0.292925 -0.331029 0.136321
v 0.570789 -0.331029 0.136321
v 0.570789 -0.328770 0.133931
v 0.292925 -0.328770 0.133931
v 0.292925 -0.331876 0.136457
v 0.570789 -0.331876 0.136457
v 0.570789 -0.328681 0.133077
v 0.292925 -0.328681 0.133077
v 0.292925 -0.332730 0.136368
v 0.570789 -0.332730 0.136368
v 0.570789 -0.328817 0.132230
v 0.292925 -0.328817 0.132230
v 0.292925 -0.333532 0.136062
v 0.570789 -0.333532 0.136062
v 0.570789 -0.329168 0.131446
v 0.292925 -0.329168 0.131446
v 0.292925 -0.334228 0.135559
v 0.570789 -0.334228 0.135559
v 0.570789 -0.329709 0.130780
v 0.292925 -0.329709 0.130780
v 0.570789 -0.334769 0.134893
v 0.292925 -0.334769 0.134893
v 0.292925 -0.330405 0.130277
v 0.570789 -0.330405 0.130277
v 0.570789 -0.335120 0.134109
v 0.292925 -0.335120 0.134109
v 0.292925 -0.331207 0.129971
v 0.570789 -0.331207 0.129971
v 0.570789 -0.335255 0.133262
v 0.292925 -0.335255 0.133262
v 0.292925 -0.332061 0.129883
v 0.570789 -0.332061 0.129883
v 0.570789 -0.335167 0.132408
v 0.292925 -0.335167 0.132408
v 0.292925 -0.332908 0.130018
v 0.570789 -0.332908 0.130018
v 0.570789 -0.334861 0.131606
v 0.292925 -0.334861 0.131606
v 0.292925 -0.333692 0.130369
v 0.570789 -0.333692 0.130369
v 0.570789 -0.334358 0.130911
v 0.292925 -0.334358 0.130911
vn 0 0.5240945897636589 0.8516600618676811
vn 0 0.7266623955730718 0.6869947327745712
vn 0 -0.5240945897636589 -0.8516600618676811
vn 0 -0.7266623955730718 -0.6869947327745712
vn 0 0.8797092594301167 0.47551195450053146
vn 0 -0.8797092594301167 -0.47551195450053146
vn 0 0.28581067108287495 0.9582861056569467
vn 0 -0.28581067108287495 -0.9582861056569467
vn 0 0.972805462766833 0.23162368534113245
vn 0 -0.972805462766833 -0.23162368534113245
vn 0 0.028049224345714777 0.9996065431026367
vn 0 -0.028049224345714777 -0.9996065431026367
vn 0 0.9996065431026367 -0.02804922434571476
vn 0 -0.9996065431026367 0.02804922434571476
vn 0 -0.23162368534113223 0.972805462766833
vn 0 0.23162368534113223 -0.972805462766833
vn 0 0.9582861056569466 -0.2858106710828751
vn 0 -0.9582861056569466 0.2858106710828751
vn 0 -0.4755119545005312 0.879709259430117
vn 0 0.4755119545005312 -0.879709259430117
vn 0 0.8516600618676807 -0.5240945897636591
vn 0 -0.8516600618676807 0.5240945897636591
vn 0 -0.6869947327745709 0.7266623955730721
vn 0 0.6869947327745709 -0.7266623955730721
usemtl material_0_2
f 1//1 2//1 3//2
f 3//4 2//3 1//3
f 4//2 3//2 2//1
f 2//3 3//4 4//4
f 4//2 5//5 3//2
f 3//4 5//6 4//4
f 6//5 3//2 5//5
f 5//6 3//4 6//6
f 7//7 8//7 1//1
f 1//3 8//8 7//8
f 2//1 1//1 8//7
f 8//8 1//3 2//3
f 5//5 9//9 6//5
f 6//6 9//10 5//6
f 10//9 6//5 9//9
f 9//10 6//6 10//10
f 11//11 12//11 7//7
f 7//8 12//12 11//12
f 8//7 7//7 12//11
f 12//12 7//8 8//8
f 9//9 13//13 10//9
f 10//10 13//14 9//10
f 14//13 10//9 13//13
f 13//14 10//10 14//14
f 15//15 16//15 11//11
f 11//12 16//16 15//16
f 12//11 11//11 16//15
f 16//16 11//12 12//12
f 13//13 17//17 14//13
f 14//14 17//18 13//14
f 18//17 14//13 17//17
f 17//18 14//14 18//18
f 19//19 20//19 15//15
f 15//16 20//20 19//20
f 16//15 15//15 20//19
f 20//20 15//16 16//16
f 17//17 21//21 18//17
f 18//18 21//22 17//18
f 22//21 18//17 21//21
f 21//22 18//18 22//22
f 23//23 24//23 19//19
f 19//20 24//24 23//24
f 20//19 19//19 24//23
f 24//24 19//20 20//20
f 21//21 25//24 22//21
f 22//22 25//23 21//22
f 26//24 22//21 25//24
f 25//23 22//22 26//23
f 24//23 23//23 27//22
f 27//21 23//24 24//24
f 28//22 27//22 23//23
f 23//24 27//21 28//21
f 29//20 26//24 30//20
f 30//19 26//23 29//19
f 25//24 30//20 26//24
f 26//23 30//19 25//23
f 27//22 28//22 31//18
f 31//17 28//21 27//21
f 32//18 31//18 28//22
f 28//21 31//17 32//17
f 33//16 29//20 34//16
f 34//15 29//19 33//15
f 30//20 34//16 29//20
f 29//19 34//15 30//19
f 31//18 32//18 35//14
f 35//13 32//17 31//17
f 36//14 35//14 32//18
f 32//17 35//13 36//13
f 37//12 33//16 38//12
f 38//11 33//15 37//11
f 34//16 38//12 33//16
f 33//15 38//11 34//15
f 35//14 36//14 39//10
f 39//9 36//13 35//13
f 40//10 39//10 36//14
f 36//13 39//9 40//9
f 41//8 37//12 42//8
f 42//7 37//11 41//7
f 38//12 42//8 37//12
f 37//11 42//7 38//11
f 39//10 40//10 43//6
f 43//5 40//9 39//9
f 44//6 43//6 40//10
f 40//9 43//5 44//5
f 45//3 41//8 46//3
f 46//1 41//7 45//1
f 42//8 46//3 41//8
f 41//7 46//1 42//7
f 43//6 44//6 47//4
f 47//2 44//5 43//5
f 48//4 47//4 44//6
f 44//5 47//2 48//2
f 48//4 45//3 47//4
f 47//2 45//1 48//2
f 46//3 47//4 45//3
f 45//1 47//2 46//1
