# SSTK version 0.8.0
# 33
mtllib original-33.mtl
o #ID361
v -0.746703 -0.471367 -0.283312
v -0.746703 -0.423228 -0.283312
v -0.733670 -0.471367 -0.285622
v -0.733670 -0.422738 -0.285622
v -0.737337 -0.421022 -0.284972
v -0.720448 -0.471367 -0.286217
v -0.720448 -0.424264 -0.286217
v -0.759324 -0.471367 -0.279327
v -0.759324 -0.421703 -0.279327
v -0.771320 -0.471367 -0.273735
v -0.771320 -0.424261 -0.273735
v -0.759982 -0.421368 -0.279021
v -0.782487 -0.471367 -0.266630
v -0.782487 -0.424218 -0.266630
v -0.780669 -0.422988 -0.267787
v -0.792635 -0.471367 -0.258134
v -0.792635 -0.427268 -0.258134
v -0.801593 -0.428965 -0.248390
v -0.798412 -0.426296 -0.251850
v -0.801593 -0.471367 -0.248390
v -0.809207 -0.432006 -0.237564
v -0.809207 -0.471367 -0.237564
v -0.815348 -0.435072 -0.225839
v -0.812230 -0.431275 -0.231792
v -0.815348 -0.471366 -0.225839
v -0.819913 -0.438110 -0.213416
v -0.819913 -0.471367 -0.213416
v -0.822823 -0.442528 -0.200504
v -0.822758 -0.441918 -0.200794
v -0.822823 -0.471366 -0.200504
v -0.821048 -0.437542 -0.208382
v -0.824030 -0.453834 -0.187324
v -0.824030 -0.471367 -0.187324
v -0.824030 -0.467100 -0.177022
v -0.824030 -0.453863 -0.182647
v -0.824030 -0.471367 -0.179520
v -0.824030 -0.453834 -0.187324
v -0.824030 -0.471367 -0.187324
v -0.824030 -0.471367 -0.179520
v -0.824029 -0.471367 -0.179516
v -0.824030 -0.467100 -0.177022
vn -0.23829609185017353 -9.333717740142278e-9 -0.9711925517676366
vn -0.23623619406931876 -6.411283821052265e-9 -0.9716956625464801
vn -0.10997979603040789 -2.562079818976778e-9 -0.9939338229807404
vn 0.23829609185017353 9.333717740142278e-9 0.9711925517676366
vn 0.23623619406931876 6.411283821052265e-9 0.9716956625464801
vn 0.10997979603040789 2.562079818976778e-9 0.9939338229807404
vn -0.12022989384752933 -5.40655174743074e-9 -0.9927460766104351
vn 0.12022989384752933 5.40655174743074e-9 0.9927460766104351
vn -0.1745087992220225 -6.273079987754105e-9 -0.9846556144125151
vn 0.1745087992220225 6.273079987754105e-9 0.9846556144125151
vn -0.04498333444447412 -6.1421555777103334e-9 -0.998987737473417
vn 0.04498333444447412 6.1421555777103334e-9 0.998987737473417
vn -0.36256559610216044 -3.3263798592020317e-9 -0.9319582547105237
vn 0.36256559610216044 3.3263798592020317e-9 0.9319582547105237
vn -0.37215888596285257 -7.06649971310686e-9 -0.9281690382677547
vn 0.37215888596285257 7.06649971310686e-9 0.9281690382677547
vn -0.48067799832107544 -7.485327947051725e-9 -0.8768971786532581
vn -0.47882149104091937 -5.192313840320928e-9 -0.8779122847513586
vn 0.48067799832107544 7.485327947051725e-9 0.8768971786532581
vn 0.47882149104091937 5.192313840320928e-9 0.8779122847513586
vn -0.42251968687452196 -5.972817764789022e-9 -0.9063537467255575
vn 0.42251968687452196 5.972817764789022e-9 0.9063537467255575
vn -0.5906273973635026 0 -0.8069444079263549
vn -0.5791344081133929 -6.869612070794382e-9 -0.8152320757545978
vn 0.5906273973635026 0 0.8069444079263549
vn 0.5791344081133929 6.869612070794382e-9 0.8152320757545978
vn -0.5367934057505361 -1.6704098927725534e-9 -0.843713718948993
vn 0.5367934057505361 1.6704098927725534e-9 0.843713718948993
vn -0.6905465094526235 -4.519216002988859e-9 -0.7232879912474682
vn -0.6890111949368183 -8.037973943493073e-9 -0.7247506973102805
vn 0.6905465094526235 4.519216002988859e-9 0.7232879912474682
vn 0.6890111949368183 8.037973943493073e-9 0.7247506973102805
vn -0.7698014639345174 -4.324767749131519e-9 -0.6382834058036241
vn -0.7362070627072546 -8.060273599784541e-9 -0.6767563526262285
vn -0.778738690014344 -2.135963898065018e-9 -0.627348430040869
vn 0.7698014639345174 4.324767749131519e-9 0.6382834058036241
vn 0.7362070627072546 8.060273599784541e-9 0.6767563526262285
vn 0.778738690014344 2.135963898065018e-9 0.627348430040869
vn -0.8525895981925772 -7.1403340043075334e-9 -0.5225810722307305
vn -0.8537061081395135 4.3657221920818524e-9 -0.5207551064802779
vn 0.8525895981925772 7.1403340043075334e-9 0.5225810722307305
vn 0.8537061081395135 -4.3657221920818524e-9 0.5207551064802779
vn -0.9083766966535052 -5.3547839867803084e-9 -0.41815281534011695
vn -0.8858232963660746 -4.593945976814108e-9 -0.4640227231668094
vn -0.9141756700023761 -5.2837798383613e-9 -0.4053182013871411
vn 0.9083766966535052 5.3547839867803084e-9 0.41815281534011695
vn 0.8858232963660746 4.593945976814108e-9 0.4640227231668094
vn 0.9141756700023761 5.2837798383613e-9 0.4053182013871411
vn -0.9585013054686983 -6.441524090044176e-9 -0.2850881397301566
vn -0.9591204741381826 -2.007073937533301e-9 -0.28299808495632606
vn 0.9585013054686983 6.441524090044176e-9 0.2850881397301566
vn 0.9591204741381826 2.007073937533301e-9 0.28299808495632606
vn -0.9819979773089087 5.183327969795132e-9 -0.18889143061878716
vn -0.9755218978185993 3.712936067712953e-9 -0.2199023121215377
vn -0.9877772542675546 -2.8463630929836438e-9 -0.15587204993728307
vn 0.9819979773089087 -5.183327969795132e-9 0.18889143061878716
vn 0.9755218978185993 -3.712936067712953e-9 0.2199023121215377
vn 0.9877772542675546 2.8463630929836438e-9 0.15587204993728307
vn -0.9958344997031405 0 -0.09117921474215428
vn 0.9958344997031405 0 0.09117921474215428
vn -1 0 0
vn 1 0 0
vn -0.9538805291383204 -0.15168450994841495 0.25904390665002514
vn 0.9538805291383204 0.15168450994841495 -0.25904390665002514
usemtl material_0_2
f 1//1 2//2 3//3
f 3//6 2//5 1//4
f 3//3 2//2 4//7
f 4//8 2//5 3//6
f 5//9 4//7 2//2
f 2//5 4//8 5//10
f 6//11 3//3 7//11
f 7//12 3//6 6//12
f 4//7 7//11 3//3
f 3//6 7//12 4//8
f 1//1 8//13 2//2
f 2//5 8//14 1//4
f 9//15 2//2 8//13
f 8//14 2//5 9//16
f 10//17 11//18 8//13
f 8//14 11//20 10//19
f 8//13 11//18 9//15
f 9//16 11//20 8//14
f 12//21 9//15 11//18
f 11//20 9//16 12//22
f 13//23 14//24 10//17
f 10//19 14//26 13//25
f 10//17 14//24 11//18
f 11//20 14//26 10//19
f 15//27 11//18 14//24
f 14//26 11//20 15//28
f 16//29 17//30 13//23
f 13//25 17//32 16//31
f 14//24 13//23 17//30
f 17//32 13//25 14//26
f 18//33 19//34 20//35
f 20//38 19//37 18//36
f 19//34 17//30 20//35
f 20//38 17//32 19//37
f 16//29 20//35 17//30
f 17//32 20//38 16//31
f 21//39 18//33 22//40
f 22//42 18//36 21//41
f 20//35 22//40 18//33
f 18//36 22//42 20//38
f 23//43 24//44 25//45
f 25//48 24//47 23//46
f 24//44 21//39 25//45
f 25//48 21//41 24//47
f 22//40 25//45 21//39
f 21//41 25//48 22//42
f 26//49 23//43 27//50
f 27//52 23//46 26//51
f 25//45 27//50 23//43
f 23//46 27//52 25//48
f 28//53 29//54 30//55
f 30//58 29//57 28//56
f 29//54 31//54 30//55
f 30//58 31//57 29//57
f 31//54 26//49 30//55
f 30//58 26//51 31//57
f 27//50 30//55 26//49
f 26//51 30//58 27//52
f 32//59 28//53 33//59
f 33//60 28//56 32//60
f 30//55 33//59 28//53
f 28//56 33//60 30//58
f 34//61 35//61 36//61
f 36//62 35//62 34//62
f 35//61 37//61 36//61
f 36//62 37//62 35//62
f 38//61 36//61 37//61
f 37//62 36//62 38//62
f 39//63 40//63 41//63
f 41//64 40//64 39//64
