# SSTK version 0.8.0
# 40
mtllib original-40.mtl
o #ID405
v 0.530964 0.045296 -0.286217
v 0.530964 0.045296 -0.300467
v 0.527996 0.038129 -0.286217
v 0.527996 0.038129 -0.300467
v 0.526983 0.030438 -0.286217
v 0.526983 0.030438 -0.300467
v 0.556700 0.000721 -0.300467
v 0.549008 0.001734 -0.300467
v 0.564391 0.001734 -0.300467
v 0.571558 0.004703 -0.300467
v 0.541841 0.004703 -0.300467
v 0.577713 0.009425 -0.300467
v 0.535687 0.009425 -0.300467
v 0.582435 0.015579 -0.300467
v 0.530964 0.015579 -0.300467
v 0.585404 0.022747 -0.300467
v 0.527996 0.022747 -0.300467
v 0.586416 0.030438 -0.300467
v 0.526983 0.030438 -0.300467
v 0.585404 0.038129 -0.300467
v 0.527996 0.038129 -0.300467
v 0.582435 0.045296 -0.300467
v 0.530964 0.045296 -0.300467
v 0.577713 0.051451 -0.300467
v 0.535687 0.051451 -0.300467
v 0.571558 0.056173 -0.300467
v 0.541841 0.056173 -0.300467
v 0.564391 0.059142 -0.300467
v 0.549008 0.059142 -0.300467
v 0.556700 0.060155 -0.300467
v 0.535687 0.051451 -0.286217
v 0.535687 0.051451 -0.300467
v 0.527996 0.022747 -0.286217
v 0.527996 0.022747 -0.300467
v 0.530964 0.015579 -0.286217
v 0.530964 0.015579 -0.300467
v 0.535687 0.009425 -0.286217
v 0.535687 0.009425 -0.300467
v 0.541841 0.004702 -0.286217
v 0.541841 0.004703 -0.300467
v 0.549008 0.001734 -0.286217
v 0.549008 0.001734 -0.300467
v 0.556700 0.000721 -0.286217
v 0.556700 0.000721 -0.300467
v 0.564391 0.001734 -0.286217
v 0.564391 0.001734 -0.300467
v 0.571558 0.004702 -0.286217
v 0.571558 0.004703 -0.300467
v 0.577713 0.009425 -0.286217
v 0.577713 0.009425 -0.300467
v 0.582435 0.015579 -0.286217
v 0.582435 0.015579 -0.300467
v 0.585404 0.022747 -0.286217
v 0.585404 0.022747 -0.300467
v 0.586416 0.030438 -0.286217
v 0.586416 0.030438 -0.300467
v 0.585404 0.038129 -0.286217
v 0.585404 0.038129 -0.300467
v 0.582435 0.045296 -0.286217
v 0.582435 0.045296 -0.300467
v 0.577713 0.051451 -0.286217
v 0.577713 0.051451 -0.300467
v 0.571558 0.056173 -0.286217
v 0.571558 0.056173 -0.300467
v 0.564391 0.059142 -0.286217
v 0.564391 0.059142 -0.300467
v 0.556700 0.060155 -0.286217
v 0.556700 0.060155 -0.300467
v 0.549008 0.059142 -0.286217
v 0.549008 0.059142 -0.300467
v 0.541841 0.056173 -0.286217
v 0.541841 0.056173 -0.300467
vn -0.866025402838329 0.5000000016387098 -2.93377451419731e-9
vn -0.9659258218964216 0.25881906149610096 -1.3091622753018018e-9
vn 0.866025402838329 -0.5000000016387098 2.93377451419731e-9
vn 0.9659258218964216 -0.25881906149610096 1.3091622753018018e-9
vn -1 0 0
vn 1 0 0
vn 0 0 -1
vn 0 0 1
vn -0.7071067929317552 0.7071067694413397 -6.661182844231287e-9
vn 0.7071067929317552 -0.7071067694413397 6.661182844231287e-9
vn -0.9659258220460287 -0.25881906093775886 4.746839816102158e-9
vn 0.9659258220460287 0.25881906093775886 -4.746839816102158e-9
vn -0.866025402838329 -0.5000000016387098 -2.9337747570585974e-9
vn 0.866025402838329 0.5000000016387098 2.9337747570585974e-9
vn -0.7071067929317552 -0.7071067694413397 1.8703488432027197e-9
vn 0.7071067929317552 0.7071067694413397 -1.8703488432027197e-9
vn -0.5000000058752765 -0.8660254003923463 6.46547639002773e-9
vn 0.5000000058752765 0.8660254003923463 -6.46547639002773e-9
vn -0.2588190015589235 -0.9659258379565391 1.4259444960763384e-9
vn 0.2588190015589235 0.9659258379565391 -1.4259444960763384e-9
vn 0 -1 0
vn 0 1 0
vn 0.2588190015589235 -0.9659258379565391 3.179511118000621e-9
vn -0.2588190015589235 0.9659258379565391 -3.179511118000621e-9
vn 0.5000000056161491 -0.8660254005419535 0
vn -0.5000000056161491 0.8660254005419535 0
usemtl material_0_2
f 1//1 2//1 3//2
f 3//4 2//3 1//3
f 4//2 3//2 2//1
f 2//3 3//4 4//4
f 3//2 4//2 5//5
f 5//6 4//4 3//4
f 6//5 5//5 4//2
f 4//4 5//6 6//6
f 7//7 8//7 9//7
f 9//8 8//8 7//8
f 9//7 8//7 10//7
f 10//8 8//8 9//8
f 8//7 11//7 10//7
f 10//8 11//8 8//8
f 10//7 11//7 12//7
f 12//8 11//8 10//8
f 11//7 13//7 12//7
f 12//8 13//8 11//8
f 12//7 13//7 14//7
f 14//8 13//8 12//8
f 13//7 15//7 14//7
f 14//8 15//8 13//8
f 14//7 15//7 16//7
f 16//8 15//8 14//8
f 15//7 17//7 16//7
f 16//8 17//8 15//8
f 16//7 17//7 18//7
f 18//8 17//8 16//8
f 17//7 19//7 18//7
f 18//8 19//8 17//8
f 18//7 19//7 20//7
f 20//8 19//8 18//8
f 19//7 21//7 20//7
f 20//8 21//8 19//8
f 20//7 21//7 22//7
f 22//8 21//8 20//8
f 21//7 23//7 22//7
f 22//8 23//8 21//8
f 22//7 23//7 24//7
f 24//8 23//8 22//8
f 23//7 25//7 24//7
f 24//8 25//8 23//8
f 24//7 25//7 26//7
f 26//8 25//8 24//8
f 25//7 27//7 26//7
f 26//8 27//8 25//8
f 26//7 27//7 28//7
f 28//8 27//8 26//8
f 27//7 29//7 28//7
f 28//8 29//8 27//8
f 30//7 28//7 29//7
f 29//8 28//8 30//8
f 31//9 32//9 1//1
f 1//3 32//10 31//10
f 2//1 1//1 32//9
f 32//10 1//3 2//3
f 5//5 6//5 33//11
f 33//12 6//6 5//6
f 34//11 33//11 6//5
f 6//6 33//12 34//12
f 33//11 34//11 35//13
f 35//14 34//12 33//12
f 36//13 35//13 34//11
f 34//12 35//14 36//14
f 35//13 36//13 37//15
f 37//16 36//14 35//14
f 38//15 37//15 36//13
f 36//14 37//16 38//16
f 39//17 37//15 40//17
f 40//18 37//16 39//18
f 38//15 40//17 37//15
f 37//16 40//18 38//16
f 41//19 39//17 42//19
f 42//20 39//18 41//20
f 40//17 42//19 39//17
f 39//18 42//20 40//18
f 43//21 41//19 44//21
f 44//22 41//20 43//22
f 42//19 44//21 41//19
f 41//20 44//22 42//20
f 45//23 43//21 46//23
f 46//24 43//22 45//24
f 44//21 46//23 43//21
f 43//22 46//24 44//22
f 47//25 45//23 48//25
f 48//26 45//24 47//26
f 46//23 48//25 45//23
f 45//24 48//26 46//24
f 49//10 47//25 50//10
f 50//9 47//26 49//9
f 48//25 50//10 47//25
f 47//26 50//9 48//26
f 51//3 49//10 52//3
f 52//1 49//9 51//1
f 50//10 52//3 49//10
f 49//9 52//1 50//9
f 53//4 51//3 54//4
f 54//2 51//1 53//2
f 52//3 54//4 51//3
f 51//1 54//2 52//1
f 55//6 53//4 56//6
f 56//5 53//2 55//5
f 54//4 56//6 53//4
f 53//2 56//5 54//2
f 57//12 55//6 58//12
f 58//11 55//5 57//11
f 56//6 58//12 55//6
f 55//5 58//11 56//5
f 59//14 57//12 60//14
f 60//13 57//11 59//13
f 58//12 60//14 57//12
f 57//11 60//13 58//11
f 61//16 59//14 62//16
f 62//15 59//13 61//15
f 60//14 62//16 59//14
f 59//13 62//15 60//13
f 61//16 62//16 63//18
f 63//17 62//15 61//15
f 64//18 63//18 62//16
f 62//15 63//17 64//17
f 63//18 64//18 65//20
f 65//19 64//17 63//17
f 66//20 65//20 64//18
f 64//17 65//19 66//19
f 65//20 66//20 67//22
f 67//21 66//19 65//19
f 68//22 67//22 66//20
f 66//19 67//21 68//21
f 67//22 68//22 69//24
f 69//23 68//21 67//21
f 70//24 69//24 68//22
f 68//21 69//23 70//23
f 69//24 70//24 71//26
f 71//25 70//23 69//23
f 72//26 71//26 70//24
f 70//23 71//25 72//25
f 71//26 72//26 31//9
f 31//10 72//25 71//25
f 32//9 31//9 72//26
f 72//25 31//10 32//10
