# Blender v2.93.4 OBJ File: ''
# www.blender.org
mtllib original-3-cut.mtl
o #ID18
v 0.578935 -0.635644 -0.562036
v -0.555805 -0.635644 0.572704
v -0.555805 -0.635644 -0.562036
v 0.578935 -0.635644 0.572704
v 0.578935 -0.635644 0.572704
v 0.578935 -0.635644 -0.562036
v -0.555805 -0.635644 0.572704
v -0.555805 -0.635644 -0.562036
v -0.555805 0.661201 -0.562036
v 0.578935 -0.635644 -0.562036
v -0.555805 -0.635644 -0.562036
v 0.578935 0.661201 -0.562036
v 0.578935 0.661201 -0.562036
v -0.555805 0.661201 -0.562036
v 0.578935 -0.635644 -0.562036
v -0.555805 -0.635644 -0.562036
v 0.578935 -0.635644 -0.562036
v 0.578935 0.661201 0.572704
v 0.578935 -0.635644 0.572704
v 0.578935 0.661201 -0.562036
v 0.578935 0.661201 -0.562036
v 0.578935 -0.635644 -0.562036
v 0.578935 0.661201 0.572704
v 0.578935 -0.635644 0.572704
v 0.578935 -0.635644 0.572704
v 0.481672 -0.473538 0.572704
v -0.555805 -0.635644 0.572704
v 0.578935 0.661201 0.572704
v 0.481672 0.563938 0.572704
v -0.458542 0.563938 0.572704
v -0.458542 -0.473538 0.572704
v -0.555805 0.661201 0.572704
v 0.578935 0.661201 0.572704
v -0.458542 0.563938 0.572704
v -0.555805 0.661201 0.572704
v -0.458542 -0.473538 0.572704
v 0.481672 -0.473538 0.572704
v -0.555805 -0.635644 0.572704
v 0.481672 0.563938 0.572704
v 0.578935 -0.635644 0.572704
v -0.555805 0.661201 -0.562036
v -0.555805 -0.635644 0.572704
v -0.555805 0.661201 0.572704
v -0.555805 -0.635644 -0.562036
v -0.555805 -0.635644 -0.562036
v -0.555805 0.661201 -0.562036
v -0.555805 -0.635644 0.572704
v -0.555805 0.661201 0.572704
v 0.578935 0.661201 0.572704
v -0.555805 0.661201 -0.562036
v -0.555805 0.661201 0.572704
v 0.578935 0.661201 -0.562036
v 0.578935 0.661201 -0.562036
v 0.578935 0.661201 0.572704
v -0.555805 0.661201 -0.562036
v -0.555805 0.661201 0.572704
v 0.481672 0.267140 0.572704
v 0.481672 0.335886 0.572704
v -0.469128 0.562142 -0.562036
v -0.416814 0.502355 -0.562036
v -0.555805 0.563355 -0.562036
v -0.555805 0.548888 0.572704
v -0.555805 0.548889 0.572704
v 0.578935 0.240725 0.572704
v 0.578935 0.334532 0.572704
v 0.578935 0.560681 0.572704
v 0.578935 0.225647 -0.562036
v 0.578935 0.547551 -0.562036
v -0.546304 0.550358 0.572704
v -0.545949 0.546219 0.572704
v -0.529127 0.349956 0.572704
v 0.578935 0.547551 -0.562036
v -0.555805 0.563355 -0.562036
v 0.543714 0.250291 0.572704
v 0.550968 0.334921 0.572704
v 0.570286 0.560291 0.572704
v 0.578935 0.547552 -0.562036
v 0.578935 0.225647 -0.562036
v 0.578935 0.560682 0.572704
v 0.578935 0.334532 0.572704
v 0.578935 0.240725 0.572704
v -0.469128 0.562142 -0.562036
v -0.416814 0.502355 -0.562036
v -0.555805 0.563348 -0.562036
v -0.555805 0.496046 -0.562036
v 0.570286 0.560291 0.572704
v 0.550968 0.334921 0.572704
v 0.543714 0.250291 0.572704
v 0.578935 0.560681 0.572704
v 0.578935 0.334532 0.572704
v 0.578935 0.240725 0.572704
v -0.529127 0.349956 0.572704
v -0.545949 0.546219 0.572704
v -0.546304 0.550358 0.572704
v 0.481672 0.267140 0.572704
v 0.481672 0.335886 0.572704
v -0.555805 0.562252 -0.475455
v -0.555805 0.563348 -0.562036
v -0.555805 0.496046 -0.562036
v -0.555805 0.562252 -0.475455
v -0.555805 0.548888 0.572704
v -0.458542 0.522481 0.572704
v -0.458542 0.348974 0.572704
v -0.458542 0.522481 0.572704
v -0.458542 0.348974 0.572704
v 0.578935 0.245362 0.208845
v 0.578935 0.380620 0.327196
v 0.578935 0.528964 0.456997
v 0.578935 0.559653 0.483849
v -0.555805 0.548887 0.572704
v 0.578935 0.245362 0.208845
v 0.578935 0.380620 0.327196
v 0.578935 0.528964 0.456997
v 0.578935 0.559653 0.483849
v 0.578935 0.547551 -0.562036
v 0.578935 0.560682 0.572704
v 0.578935 0.334532 0.572704
v 0.578935 0.240725 0.572704
v 0.578935 0.423171 0.100527
v 0.578935 0.423171 0.100527
v 0.557432 -0.599806 0.572704
v 0.491574 -0.490042 0.572704
v -0.370564 -0.635644 0.572704
v -0.365023 -0.635644 0.381922
v -0.370564 -0.635644 0.572704
v 0.442977 -0.480264 -0.562036
v 0.460931 -0.500782 -0.562036
v 0.551513 -0.604304 -0.562036
v -0.303380 -0.596203 0.572704
v -0.555805 -0.476085 -0.562036
v 0.578935 -0.607479 -0.562036
v 0.578935 -0.480853 -0.562036
v -0.370564 -0.635644 0.572704
v -0.555805 -0.466896 0.572704
v 0.578935 -0.480853 -0.562036
v 0.578935 -0.607479 -0.562036
v -0.337610 -0.635644 -0.562036
v -0.365023 -0.635644 0.381922
v -0.555805 -0.476085 -0.562036
v -0.555805 -0.466890 0.572704
v 0.578935 -0.480853 -0.562036
v 0.578935 -0.607479 -0.562036
v -0.303380 -0.596203 0.572704
v 0.578935 -0.475288 0.572704
v 0.578935 -0.599896 0.572704
v 0.578935 -0.607479 -0.562036
v 0.578935 -0.480853 -0.562036
v -0.555805 -0.476083 -0.562036
v -0.337610 -0.635644 -0.562036
v 0.442977 -0.480264 -0.562036
v 0.460931 -0.500782 -0.562036
v 0.551513 -0.604304 -0.562036
v -0.337610 -0.635644 -0.562036
v 0.578935 -0.599896 0.572704
v 0.578935 -0.475276 0.572704
v -0.555805 -0.468078 0.426084
v 0.491574 -0.490042 0.572704
v 0.557432 -0.599806 0.572704
v 0.578935 -0.475276 0.572704
v 0.578935 -0.599896 0.572704
v -0.370564 -0.635644 0.572704
v -0.555805 -0.476083 -0.562036
v 0.578935 -0.607278 -0.537216
v 0.578935 -0.493851 -0.437967
v 0.578935 -0.480186 -0.426010
v 0.578935 -0.607278 -0.537216
v 0.578935 -0.493851 -0.437967
v 0.578935 -0.480186 -0.426010
v -0.555805 -0.468078 0.426084
v -0.555805 -0.466896 0.572704
v -0.555805 -0.466896 0.572704
v -0.337610 -0.635644 -0.562036
v 0.578935 -0.475287 0.572704
v 0.578935 -0.599896 0.572704
v 0.134129 -0.555974 -0.562036
v 0.134129 -0.555974 -0.562036
v -0.141048 -0.596882 0.572704
v -0.141048 -0.596882 0.572704
vt -0.229659 0.229659
vt -0.038612 0.038612
vt -0.044160 0.229659
vt 0.000000 0.000000
vt -0.037491 0.000000
vt -0.229659 0.000000
vt -0.229659 0.229659
vt -0.038612 0.038612
vt -0.037491 0.000000
vt 0.000000 0.229659
vt 0.000000 0.000000
vt -0.044160 0.229659
vt 0.000000 0.262467
vt -0.017543 0.242419
vt 0.000000 0.242663
vt -0.229659 0.000000
vt -0.224109 0.006343
vt -0.229659 0.005700
vt -0.229659 0.262467
vt 0.000000 0.262467
vt -0.017543 0.242419
vt -0.229659 0.239466
vt 0.000000 0.000000
vt -0.044160 0.000000
vt -0.139635 0.016124
vt 0.000000 0.032293
vt 0.229659 0.000000
vt 0.224636 0.005741
vt 0.204549 0.028697
vt 0.000000 0.007235
vt 0.000000 0.000000
vt 0.000000 0.262467
vt 0.017983 0.241915
vt 0.229659 0.239466
vt 0.229659 0.262467
vt 0.229659 0.262467
vt 0.229659 0.239466
vt 0.017983 0.241915
vt 0.000000 0.262467
vt 0.000000 0.000000
vt 0.000000 0.007235
vt 0.204549 0.028697
vt 0.224636 0.005741
vt 0.229659 0.000000
vt 0.229659 0.000000
vt 0.225307 0.007253
vt 0.083942 0.007845
vt 0.037491 0.000000
vt 0.209974 0.032808
vt 0.229659 0.032457
vt 0.229659 0.177368
vt 0.222530 0.179303
vt 0.209974 0.182713
vt 0.209974 0.242782
vt 0.229659 0.262467
vt 0.019685 0.242782
vt 0.000000 0.000000
vt 0.019685 0.032808
vt 0.000000 0.034153
vt 0.051088 0.007983
vt 0.000000 0.262467
vt 0.001923 0.240034
vt 0.229659 0.262467
vt 0.019685 0.242782
vt 0.000000 0.262467
vt 0.019685 0.234392
vt 0.001995 0.239196
vt 0.001923 0.240034
vt 0.209974 0.032808
vt 0.051088 0.007983
vt 0.000000 0.000000
vt 0.019685 0.032808
vt 0.000000 0.239736
vt 0.209974 0.242782
vt 0.227908 0.242044
vt 0.229659 0.242123
vt 0.083942 0.007845
vt 0.037491 0.000000
vt -0.229659 0.262467
vt -0.212136 0.242441
vt 0.000000 0.239736
vt 0.000000 0.262467
vt 0.000000 0.000000
vt -0.029674 0.033914
vt -0.229659 0.032293
vt -0.229659 0.000000
vt -0.229659 0.000000
vt -0.229659 0.032293
vt -0.029674 0.033914
vt 0.000000 0.000000
vt 0.000000 0.262467
vt 0.000000 0.239736
vt -0.212136 0.242441
vt -0.229659 0.262467
vt 0.229659 0.000000
vt 0.000000 0.229659
vt 0.000000 0.000000
vt 0.229659 0.229659
vt 0.229659 0.229659
vt 0.229659 0.000000
vt 0.000000 0.229659
vt 0.000000 0.000000
vt 0.223999 0.196432
vt 0.209974 0.196627
vt 0.227908 0.242044
vt 0.000000 0.239736
vt 0.001995 0.239196
vt 0.019685 0.234392
vt 0.005399 0.199475
vt 0.019685 0.199276
vt 0.229659 0.196353
vt 0.223999 0.196432
vt 0.229659 0.177368
vt 0.222530 0.179303
vt 0.229659 0.032457
vt 0.000000 0.034153
vt -0.229659 0.242664
vt -0.229659 0.239466
vt -0.229659 0.262467
vt -0.028130 0.230318
vt 0.000000 0.229042
vt -0.028130 0.230318
vt 0.000000 0.242663
vt 0.023418 0.235704
vt 0.049688 0.205681
vt 0.095563 0.214293
vt 0.073641 0.178306
vt 0.202129 0.031463
vt 0.229659 0.031328
vt 0.229659 0.174316
vt 0.073641 0.178306
vt 0.000000 0.177368
vt 0.000000 0.196353
vt 0.049688 0.205681
vt 0.000000 0.242123
vt 0.023418 0.235704
vt 0.229659 0.196353
vt 0.229659 0.242123
vt 0.019685 0.199276
vt 0.005399 0.199475
vt 0.000000 0.034153
vt 0.209974 0.196627
vt 0.209974 0.182713
vt -0.229659 0.242664
vt 0.000000 0.034154
vt 0.000000 0.229042
vt -0.202142 0.031447
vt 0.000000 0.032293
vt -0.202142 0.031447
vt -0.229659 0.031328
vt 0.000000 0.177368
vt 0.000000 0.196353
vt 0.000000 0.242123
vt 0.095563 0.214293
vt 0.229659 0.174316
vt 0.229659 0.031328
vt 0.202129 0.031463
vt 0.229659 0.005700
vt -0.139635 0.016124
vt -0.044160 0.000000
vt 0.000000 0.000000
vt -0.205776 0.027295
vt -0.229659 0.031328
vt -0.205776 0.027295
vt -0.224109 0.006343
vt -0.229659 0.000000
vt 0.229659 0.005700
vt 0.000000 0.032455
vt 0.211978 0.029468
vt 0.229659 0.007235
vt -0.229659 0.000000
vt 0.225307 0.007253
vt 0.229659 0.000000
vt 0.211978 0.029468
vt 0.000000 0.229659
vt -0.229659 0.005700
vt 0.000000 0.032454
vt 0.229659 0.007235
vn -0.0000 -1.0000 -0.0000
vn 0.0000 1.0000 0.0000
vn -0.0000 0.0000 -1.0000
vn 0.0000 -0.0000 1.0000
vn 1.0000 -0.0000 0.0000
vn -1.0000 0.0000 0.0000
usemtl material_0_0
s 1
f 1/1/1 138/2/1 149/3/1
f 2/4/1 138/2/1 161/5/1
f 5/6/2 6/7/2 124/8/2 125/9/2
f 8/10/2 7/11/2 124/8/2 137/12/2
f 9/13/3 82/14/3 98/15/3
f 10/16/3 152/17/3 146/18/3
f 13/19/4 14/20/4 59/21/4 72/22/4
f 16/23/4 172/24/4 176/25/4 148/26/4
f 17/27/5 166/28/5 167/29/5 145/30/5 19/31/5
f 18/32/5 114/33/5 68/34/5 20/35/5
f 21/36/6 77/37/6 109/38/6 23/39/6
f 24/40/6 174/41/6 164/42/6 163/43/6 22/44/6
f 25/45/4 121/46/4 178/47/4 133/48/4
f 26/49/4 155/50/4 64/51/4 74/52/4
f 26/49/4 74/52/4 57/53/4
f 29/54/4 28/55/4 30/56/4
f 27/57/4 31/58/4 134/59/4
f 31/58/4 27/57/4 143/60/4 26/49/4
f 32/61/4 94/62/4 30/56/4
f 32/61/4 30/56/4 28/55/4
f 33/63/3 34/64/3 35/65/3
f 34/64/3 102/66/3 70/67/3 69/68/3
f 37/69/3 129/70/3 38/71/3 36/72/3
f 35/65/3 69/68/3 110/73/3
f 34/64/3 33/63/3 39/74/3
f 39/74/3 33/63/3 86/75/3
f 33/63/3 89/76/3 86/75/3
f 38/71/3 129/70/3 177/77/3 123/78/3
f 41/79/6 100/80/6 101/81/6 43/82/6
f 42/83/6 169/84/6 139/85/6 44/86/6
f 45/87/5 130/88/5 156/89/5 47/90/5
f 48/91/5 63/92/5 97/93/5 46/94/5
f 49/95/2 50/96/2 51/97/2
f 50/96/2 49/95/2 52/98/2
f 53/99/1 54/100/1 55/101/1
f 56/102/1 55/101/1 54/100/1
f 57/53/4 74/52/4 75/103/4 58/104/4
f 58/104/4 75/103/4 76/105/4 29/54/4
f 29/54/4 76/105/4 28/55/4
f 62/106/4 94/62/4 32/61/4
f 94/62/4 62/106/4 93/107/4
f 30/56/4 94/62/4 93/107/4 104/108/4
f 104/108/4 93/107/4 92/109/4 105/110/4
f 105/110/4 92/109/4 31/58/4
f 86/75/3 89/76/3 90/111/3 87/112/3
f 87/112/3 90/111/3 91/113/3 88/114/3
f 88/114/3 91/113/3 159/115/3 37/69/3
f 101/81/6 100/80/6 169/84/6 170/116/6
f 97/93/5 61/117/5 46/94/5
f 115/118/3 82/14/3 9/13/3 12/119/3
f 82/14/3 115/118/3 83/120/3
f 85/121/4 60/122/4 59/21/4 84/123/4
f 84/123/4 59/21/4 14/20/4
f 68/34/5 114/33/5 113/124/5 112/125/5 119/126/5
f 119/126/5 112/125/5 111/127/5 168/128/5 132/129/5 67/130/5
f 67/130/5 68/34/5 119/126/5
f 106/131/6 118/132/6 117/133/6 107/134/6
f 107/134/6 117/133/6 116/135/6 108/136/6
f 108/136/6 116/135/6 109/38/6
f 109/38/6 116/135/6 23/39/6
f 74/52/4 64/51/4 65/137/4 75/103/4
f 75/103/4 65/137/4 66/138/4 76/105/4
f 76/105/4 66/138/4 28/55/4
f 69/68/3 35/65/3 34/64/3
f 70/67/3 102/66/3 103/139/3 71/140/3
f 71/140/3 103/139/3 36/72/3
f 110/73/3 70/67/3 71/140/3 36/72/3 171/141/3
f 70/67/3 110/73/3 69/68/3
f 86/75/3 87/112/3 96/142/3 39/74/3
f 96/142/3 87/112/3 88/114/3 95/143/3
f 95/143/3 88/114/3 37/69/3
f 73/144/6 100/80/6 41/79/6
f 97/93/5 63/92/5 140/145/5 156/89/5
f 98/15/3 82/14/3 83/120/3 99/146/3
f 99/146/3 83/120/3 150/147/3 162/148/3
f 72/22/4 60/122/4 126/149/4 135/150/4
f 60/122/4 72/22/4 59/21/4
f 81/151/5 111/127/5 112/125/5 80/152/5
f 80/152/5 112/125/5 113/124/5 79/153/5
f 79/153/5 114/33/5 18/32/5
f 114/33/5 79/153/5 113/124/5
f 109/38/6 77/37/6 120/154/6 107/134/6 108/136/6
f 107/134/6 120/154/6 78/155/6 141/156/6 165/157/6 106/131/6
f 78/155/6 120/154/6 77/37/6
f 134/59/4 31/58/4 92/109/4 93/107/4 62/106/4
f 132/129/5 168/128/5 167/29/5
f 167/29/5 166/28/5 131/158/5 132/129/5
f 131/158/5 166/28/5 17/27/5
f 125/9/2 124/8/2 7/11/2
f 156/89/5 130/88/5 61/117/5 97/93/5
f 156/89/5 140/145/5 47/90/5
f 162/148/3 175/159/3 153/160/3 11/161/3
f 153/160/3 175/159/3 152/17/3 10/16/3
f 152/17/3 175/159/3 151/162/3
f 151/162/3 175/159/3 162/148/3 150/147/3
f 137/12/2 124/8/2 6/7/2
f 146/18/3 152/17/3 151/162/3 147/163/3
f 147/163/3 150/147/3 83/120/3 115/118/3
f 150/147/3 147/163/3 151/162/3
f 148/26/4 176/25/4 127/164/4 126/149/4
f 126/149/4 60/122/4 85/121/4 148/26/4
f 127/164/4 176/25/4 128/165/4
f 128/165/4 176/25/4 172/24/4 15/166/4
f 165/157/6 141/156/6 164/42/6
f 164/42/6 141/156/6 142/167/6 163/43/6
f 163/43/6 142/167/6 22/44/6
f 164/42/6 174/41/6 173/168/6 165/157/6
f 165/157/6 173/168/6 118/132/6 106/131/6
f 155/50/4 26/49/4 122/169/4
f 122/169/4 121/46/4 154/170/4 155/50/4
f 154/170/4 121/46/4 25/45/4
f 170/116/6 169/84/6 42/83/6
f 161/5/1 138/2/1 1/1/1 4/171/1
f 123/78/3 177/77/3 158/172/3 40/173/3
f 158/172/3 177/77/3 157/174/3
f 157/174/3 177/77/3 129/70/3 37/69/3
f 139/85/6 169/84/6 100/80/6 73/144/6
f 149/3/1 138/2/1 2/4/1 3/175/1
f 135/150/4 126/149/4 127/164/4
f 127/164/4 128/165/4 136/176/4 135/150/4
f 136/176/4 128/165/4 15/166/4
f 171/141/3 36/72/3 38/71/3
f 145/30/5 167/29/5 168/128/5 144/177/5
f 144/177/5 168/128/5 111/127/5 81/151/5
f 37/69/3 159/115/3 157/174/3
f 157/174/3 159/115/3 160/178/3 158/172/3
f 158/172/3 160/178/3 40/173/3
f 133/48/4 178/47/4 143/60/4 27/57/4
f 143/60/4 178/47/4 122/169/4 26/49/4
f 122/169/4 178/47/4 121/46/4
