# Blender v2.93.4 OBJ File: ''
# www.blender.org
mtllib original-3-left.mtl
o #ID18
v -0.469022 0.499985 -0.562036
v -0.467358 -0.476453 -0.562036
v -0.469022 0.499985 -0.562036
v -0.458542 0.563938 0.572704
v -0.458542 -0.473538 0.572704
v -0.458542 0.563938 0.572704
v -0.458542 -0.473538 0.572704
v -0.469128 0.562142 -0.562036
v -0.555805 0.563355 -0.562036
v -0.555805 0.548888 0.572704
v -0.555805 0.548889 0.572704
v -0.546304 0.550358 0.572704
v -0.545949 0.546219 0.572704
v -0.529127 0.349956 0.572704
v -0.555805 0.563355 -0.562036
v -0.469128 0.562142 -0.562036
v -0.555805 0.563348 -0.562036
v -0.555805 0.496046 -0.562036
v -0.529127 0.349956 0.572704
v -0.545949 0.546219 0.572704
v -0.546304 0.550358 0.572704
v -0.555805 0.562252 -0.475455
v -0.555805 0.563348 -0.562036
v -0.555805 0.496046 -0.562036
v -0.555805 0.562252 -0.475455
v -0.555805 0.548888 0.572704
v -0.458542 0.522481 0.572704
v -0.458542 0.348974 0.572704
v -0.458542 0.522481 0.572704
v -0.458542 0.348974 0.572704
v -0.555805 0.548887 0.572704
v -0.467357 -0.476453 -0.562036
v -0.555805 -0.476085 -0.562036
v -0.555805 -0.466896 0.572704
v -0.555805 -0.476085 -0.562036
v -0.555805 -0.466890 0.572704
v -0.555805 -0.476083 -0.562036
v -0.555805 -0.468078 0.426084
v -0.555805 -0.476083 -0.562036
v -0.555805 -0.468078 0.426084
v -0.555805 -0.466896 0.572704
v -0.555805 -0.466896 0.572704
vt 0.019685 0.242782
vt 0.019685 0.234392
vt 0.001995 0.239196
vt 0.001923 0.240034
vt 0.001923 0.240034
vt 0.000000 0.239736
vt 0.001995 0.239196
vt 0.019685 0.242782
vt 0.019685 0.234392
vt 0.005399 0.199475
vt 0.019685 0.199276
vt 0.019685 0.032808
vt 0.000000 0.239736
vt -0.212136 0.242441
vt -0.029674 0.033914
vt 0.000000 0.034153
vt 0.000000 0.229042
vt -0.017564 0.229839
vt -0.017543 0.242419
vt 0.000000 0.242663
vt 0.019685 0.199276
vt 0.005399 0.199475
vt 0.019685 0.032808
vt 0.000000 0.239736
vt 0.000000 0.034153
vt -0.212136 0.242441
vt 0.000000 0.239736
vt 0.000000 0.034154
vt -0.029674 0.033914
vt 0.000000 0.242663
vt -0.017543 0.242419
vt -0.017564 0.229839
vt 0.000000 0.229042
vt -0.017901 0.032219
vt 0.000000 0.032293
vt 0.000000 0.034153
vt -0.229659 0.032293
vt -0.229659 0.242664
vt -0.017901 0.032219
vt 0.000000 0.032293
vt -0.229659 0.032293
vt -0.229659 0.242664
vn -0.0000 0.0000 -1.0000
vn 0.0000 -0.0000 1.0000
vn -1.0000 0.0000 0.0000
vn 1.0000 -0.0000 0.0000
usemtl material_0_0
s 1
f 6/1/1 27/2/1 13/3/1 12/4/1
f 21/5/2 10/6/2 20/7/2
f 4/8/2 21/5/2 20/7/2 29/9/2
f 29/9/2 20/7/2 19/10/2 30/11/2
f 30/11/2 19/10/2 5/12/2
f 26/13/3 25/14/3 40/15/3 41/16/3
f 18/17/2 3/18/2 8/19/2 17/20/2
f 13/3/1 27/2/1 28/21/1 14/22/1
f 14/22/1 28/21/1 7/23/1
f 31/24/1 13/3/1 14/22/1 7/23/1 42/25/1
f 13/3/1 31/24/1 12/4/1
f 22/26/4 11/27/4 36/28/4 38/29/4
f 23/30/1 16/31/1 1/32/1 24/33/1
f 24/33/1 1/32/1 2/34/1 39/35/1
f 34/36/2 5/12/2 19/10/2 20/7/2 10/6/2
f 38/29/4 33/37/4 9/38/4 22/26/4
f 32/39/2 3/18/2 18/17/2 37/40/2
f 35/41/3 40/15/3 25/14/3 15/42/3
