# Blender v2.93.4 OBJ File: ''
# www.blender.org
mtllib original-4-bottom.mtl
o #ID26
v -0.458542 -0.473538 -0.399930
v 0.481672 -0.473538 -0.399930
v -0.458542 -0.473538 -0.399930
v 0.481672 -0.473538 -0.399930
v -0.458542 -0.473538 -0.399930
v -0.458542 -0.473538 0.572704
v -0.458542 -0.473538 -0.399930
v -0.458542 -0.473538 0.572704
v 0.481672 -0.473538 0.572704
v -0.458542 -0.473538 -0.399930
v -0.458542 -0.473538 0.572704
v 0.481672 -0.473538 -0.399930
v 0.481672 -0.473538 -0.399930
v 0.481672 -0.473538 0.572704
v -0.458542 -0.473538 -0.399930
v -0.458542 -0.473538 0.572704
v 0.481672 -0.473538 0.572704
v 0.481672 -0.473538 -0.399930
v 0.481672 -0.473538 -0.399930
v 0.481672 -0.473538 0.572704
vt 0.209974 0.000000
vt 0.019685 0.196850
vt 0.019685 0.000000
vt 0.209974 0.196850
vt 0.209974 0.196850
vt 0.209974 0.000000
vt 0.019685 0.196850
vt 0.019685 0.000000
vn 0.0000 1.0000 0.0000
vn 0.0000 -1.0000 -0.0000
usemtl material_0_0.001
s 1
f 9/1/1 10/2/1 11/3/1
f 10/2/1 9/1/1 12/4/1
f 13/5/2 14/6/2 15/7/2
f 16/8/2 15/7/2 14/6/2
l 5 6
l 7 8
l 1 2
l 17 18
l 19 20
l 3 4
