# SSTK version 0.8.0
# 8
mtllib original-8.mtl
o group_5/ID59#ID59
v -0.466371 0.401832 0.578712
v -0.466371 0.401832 0.582907
v -0.466647 0.401832 0.580809
v -0.465561 0.401832 0.576757
v -0.465561 0.401832 0.584862
v -0.464273 0.401832 0.575078
v -0.464273 0.401832 0.586541
v -0.462594 0.401832 0.573790
v -0.462594 0.401832 0.587829
v -0.460639 0.401832 0.572980
v -0.460639 0.401832 0.588638
v -0.458541 0.401832 0.572704
v -0.458541 0.401832 0.588915
v -0.456444 0.401832 0.572980
v -0.456444 0.401832 0.588638
v -0.454489 0.401832 0.587829
v -0.454489 0.401832 0.573790
v -0.452810 0.401832 0.575078
v -0.452810 0.401832 0.586541
v -0.451522 0.401832 0.576757
v -0.451522 0.401832 0.584862
v -0.450712 0.401832 0.578712
v -0.450712 0.401832 0.582907
v -0.450436 0.401832 0.580809
v -0.450436 0.401832 0.580809
v -0.450712 0.401832 0.578712
v -0.450712 0.401832 0.582907
v -0.451522 0.401832 0.584862
v -0.451522 0.401832 0.576757
v -0.452810 0.401832 0.586541
v -0.452810 0.401832 0.575078
v -0.454489 0.401832 0.587829
v -0.454489 0.401832 0.573790
v -0.456444 0.401832 0.572980
v -0.456444 0.401832 0.588638
v -0.458541 0.401832 0.588915
v -0.458541 0.401832 0.572704
v -0.460639 0.401832 0.588638
v -0.460639 0.401832 0.572980
v -0.462594 0.401832 0.587829
v -0.462594 0.401832 0.573790
v -0.464273 0.401832 0.586541
v -0.464273 0.401832 0.575078
v -0.465561 0.401832 0.584862
v -0.465561 0.401832 0.576757
v -0.466371 0.401832 0.582907
v -0.466371 0.401832 0.578712
v -0.466647 0.401832 0.580809
v -0.451522 0.401832 0.584862
v -0.452810 0.563938 0.586541
v -0.452810 0.401832 0.586541
v -0.451522 0.563938 0.584862
v -0.451522 0.563938 0.584862
v -0.451522 0.401832 0.584862
v -0.452810 0.563938 0.586541
v -0.452810 0.401832 0.586541
v -0.454489 0.401832 0.587829
v -0.454489 0.563938 0.587829
v -0.454489 0.563938 0.587829
v -0.454489 0.401832 0.587829
v -0.456444 0.401832 0.588638
v -0.456444 0.563938 0.588638
v -0.456444 0.563938 0.588638
v -0.456444 0.401832 0.588638
v -0.458541 0.401832 0.588915
v -0.458541 0.563938 0.588915
v -0.458541 0.563938 0.588915
v -0.458541 0.401832 0.588915
v -0.460639 0.401832 0.588638
v -0.460639 0.563938 0.588638
v -0.460639 0.563938 0.588638
v -0.460639 0.401832 0.588638
v -0.462594 0.401832 0.587829
v -0.462594 0.563938 0.587829
v -0.462594 0.563938 0.587829
v -0.462594 0.401832 0.587829
v -0.464273 0.401832 0.586541
v -0.464273 0.563938 0.586541
v -0.464273 0.563938 0.586541
v -0.464273 0.401832 0.586541
v -0.465561 0.563938 0.584862
v -0.465561 0.401832 0.584862
v -0.465561 0.401832 0.584862
v -0.465561 0.563938 0.584862
v -0.466371 0.563938 0.582907
v -0.466371 0.401832 0.582907
v -0.466371 0.401832 0.582907
v -0.466371 0.563938 0.582907
v -0.466647 0.563938 0.580809
v -0.466647 0.401832 0.580809
v -0.466647 0.401832 0.580809
v -0.466647 0.563938 0.580809
v -0.466371 0.563938 0.578712
v -0.466371 0.401832 0.578712
v -0.466371 0.401832 0.578712
v -0.466371 0.563938 0.578712
v -0.465561 0.563938 0.576757
v -0.465561 0.401832 0.576757
v -0.465561 0.401832 0.576757
v -0.465561 0.563938 0.576757
v -0.464273 0.563938 0.575078
v -0.464273 0.401832 0.575078
v -0.464273 0.401832 0.575078
v -0.464273 0.563938 0.575078
v -0.462594 0.401832 0.573790
v -0.462594 0.563938 0.573790
v -0.462594 0.563938 0.573790
v -0.462594 0.401832 0.573790
v -0.460639 0.401832 0.572980
v -0.460639 0.563938 0.572980
v -0.460639 0.563938 0.572980
v -0.460639 0.401832 0.572980
v -0.458541 0.401832 0.572704
v -0.458541 0.563938 0.572704
v -0.458541 0.563938 0.572704
v -0.458541 0.401832 0.572704
v -0.456444 0.401832 0.572980
v -0.456444 0.563938 0.572980
v -0.456444 0.563938 0.572980
v -0.456444 0.401832 0.572980
v -0.454489 0.401832 0.573790
v -0.454489 0.563938 0.573790
v -0.454489 0.563938 0.573790
v -0.454489 0.401832 0.573790
v -0.452810 0.401832 0.575078
v -0.452810 0.563938 0.575078
v -0.452810 0.563938 0.575078
v -0.452810 0.401832 0.575078
v -0.451522 0.563938 0.576757
v -0.451522 0.401832 0.576757
v -0.451522 0.563938 0.576757
v -0.451522 0.401832 0.576757
v -0.450712 0.563938 0.578712
v -0.450712 0.401832 0.578712
v -0.450712 0.563938 0.578712
v -0.450712 0.401832 0.578712
v -0.450436 0.563938 0.580809
v -0.450436 0.401832 0.580809
v -0.450436 0.563938 0.580809
v -0.450436 0.401832 0.580809
v -0.450712 0.563938 0.582907
v -0.450712 0.401832 0.582907
v -0.450712 0.563938 0.582907
v -0.450712 0.401832 0.582907
v -0.466371 0.563938 0.582907
v -0.466371 0.563938 0.578712
v -0.466647 0.563938 0.580809
v -0.465561 0.563938 0.584862
v -0.465561 0.563938 0.576757
v -0.464273 0.563938 0.586541
v -0.464273 0.563938 0.575078
v -0.462594 0.563938 0.587829
v -0.462594 0.563938 0.573790
v -0.460639 0.563938 0.588638
v -0.460639 0.563938 0.572980
v -0.458541 0.563938 0.588915
v -0.458541 0.563938 0.572704
v -0.456444 0.563938 0.588638
v -0.456444 0.563938 0.572980
v -0.454489 0.563938 0.587829
v -0.454489 0.563938 0.573790
v -0.452810 0.563938 0.586541
v -0.452810 0.563938 0.575078
v -0.451522 0.563938 0.584862
v -0.451522 0.563938 0.576757
v -0.450712 0.563938 0.582907
v -0.450712 0.563938 0.578712
v -0.450436 0.563938 0.580809
v -0.450436 0.563938 0.580809
v -0.450712 0.563938 0.582907
v -0.450712 0.563938 0.578712
v -0.451522 0.563938 0.576757
v -0.451522 0.563938 0.584862
v -0.452810 0.563938 0.575078
v -0.452810 0.563938 0.586541
v -0.454489 0.563938 0.573790
v -0.454489 0.563938 0.587829
v -0.456444 0.563938 0.572980
v -0.456444 0.563938 0.588638
v -0.458541 0.563938 0.572704
v -0.458541 0.563938 0.588915
v -0.460639 0.563938 0.572980
v -0.460639 0.563938 0.588638
v -0.462594 0.563938 0.573790
v -0.462594 0.563938 0.587829
v -0.464273 0.563938 0.575078
v -0.464273 0.563938 0.586541
v -0.465561 0.563938 0.576757
v -0.465561 0.563938 0.584862
v -0.466371 0.563938 0.578712
v -0.466371 0.563938 0.582907
v -0.466647 0.563938 0.580809
vt -0.003353757 0.1238995
vt -0.003353757 0.07295088
vt 0 0.0984252
vt -0.01318648 0.1476378
vt -0.01318648 0.0492126
vt -0.02882807 0.1680223
vt -0.02882807 0.02882807
vt -0.0492126 0.1836639
vt -0.0492126 0.01318648
vt -0.07295088 0.1934966
vt -0.07295088 0.003353757
vt -0.0984252 0.1968504
vt -0.0984252 0
vt -0.1238995 0.1934966
vt -0.1238995 0.003353757
vt -0.1476378 0.01318648
vt -0.1476378 0.1836639
vt -0.1680223 0.1680223
vt -0.1680223 0.02882807
vt -0.1836639 0.1476378
vt -0.1836639 0.0492126
vt -0.1934966 0.1238995
vt -0.1934966 0.07295088
vt -0.1968504 0.0984252
vt 0.1508505 0
vt 0.1251564 0.492126
vt 0.1251564 0
vt 0.1508505 0.492126
vt 0.1414458 0.492126
vt 0.1157517 0
vt 0.1414458 0
vt 0.1157517 0.492126
vt 0.1232773 0.492126
vt 0.09758316 0
vt 0.1232773 0
vt 0.09758316 0.492126
vt 0.07188902 0
vt 0.07188902 0.492126
vt 0.0661144 0.492126
vt 0.04042027 0
vt 0.0661144 0
vt 0.04042027 0.492126
vt 0.03101556 0.492126
vt 0.005321429 0
vt 0.03101556 0
vt 0.005321429 0.492126
vt -0.03101556 0.492126
vt -0.005321429 0
vt -0.005321429 0.492126
vt -0.03101556 0
vt -0.0661144 0.492126
vt -0.04042027 0
vt -0.04042027 0.492126
vt -0.0661144 0
vt -0.09758316 0.492126
vt -0.07188902 0
vt -0.07188902 0.492126
vt -0.09758316 0
vt -0.1232773 0.492126
vt -0.1232773 0
vt -0.1414458 0.492126
vt -0.1157517 0
vt -0.1157517 0.492126
vt -0.1414458 0
vt -0.1508505 0.492126
vt -0.1251564 0
vt -0.1251564 0.492126
vt -0.1508505 0
vt 0.003353757 0.07295088
vt 0.003353757 0.1238995
vt 0.01318648 0.0492126
vt 0.01318648 0.1476378
vt 0.02882807 0.02882807
vt 0.02882807 0.1680223
vt 0.0492126 0.01318648
vt 0.0492126 0.1836639
vt 0.07295088 0.003353757
vt 0.07295088 0.1934966
vt 0.0984252 0
vt 0.0984252 0.1968504
vt 0.1238995 0.003353757
vt 0.1238995 0.1934966
vt 0.1476378 0.01318648
vt 0.1476378 0.1836639
vt 0.1680223 0.02882807
vt 0.1680223 0.1680223
vt 0.1836639 0.0492126
vt 0.1836639 0.1476378
vt 0.1934966 0.07295088
vt 0.1934966 0.1238995
vt 0.1968504 0.0984252
vn 0 -1 0
vn 0 1 0
vn 0.866025402838329 0 0.5000000016387101
vn 0.7071067811865476 0 0.7071067811865476
vn -0.866025402838329 0 -0.5000000016387101
vn -0.7071067811865476 0 -0.7071067811865476
vn 0.5000000016387101 0 0.866025402838329
vn -0.5000000016387101 0 -0.866025402838329
vn 0.25881900959356163 0 0.9659258358036645
vn -0.25881900959356163 0 -0.9659258358036645
vn 0 0 1
vn 0 0 -1
vn -0.25881900959356163 0 0.9659258358036645
vn 0.25881900959356163 0 -0.9659258358036645
vn -0.5000000016387101 0 0.866025402838329
vn 0.5000000016387101 0 -0.866025402838329
vn -0.7071067811865476 0 0.7071067811865476
vn 0.7071067811865476 0 -0.7071067811865476
vn -0.866025402838329 0 0.5000000016387101
vn 0.866025402838329 0 -0.5000000016387101
vn -0.9659258358036645 0 0.25881900959356163
vn 0.9659258358036645 0 -0.25881900959356163
vn -1 0 0
vn 1 0 0
vn -0.9659258358036645 0 -0.25881900959356163
vn 0.9659258358036645 0 0.25881900959356163
usemtl material_0_0
f 1/1/1 2/2/1 3/3/1
f 2/2/1 1/1/1 4/4/1
f 2/2/1 4/4/1 5/5/1
f 5/5/1 4/4/1 6/6/1
f 5/5/1 6/6/1 7/7/1
f 7/7/1 6/6/1 8/8/1
f 7/7/1 8/8/1 9/9/1
f 9/9/1 8/8/1 10/10/1
f 9/9/1 10/10/1 11/11/1
f 11/11/1 10/10/1 12/12/1
f 11/11/1 12/12/1 13/13/1
f 13/13/1 12/12/1 14/14/1
f 13/13/1 14/14/1 15/15/1
f 15/15/1 14/14/1 16/16/1
f 16/16/1 14/14/1 17/17/1
f 16/16/1 17/17/1 18/18/1
f 16/16/1 18/18/1 19/19/1
f 19/19/1 18/18/1 20/20/1
f 19/19/1 20/20/1 21/21/1
f 21/21/1 20/20/1 22/22/1
f 21/21/1 22/22/1 23/23/1
f 23/23/1 22/22/1 24/24/1
f 25/24/2 26/22/2 27/23/2
f 27/23/2 26/22/2 28/21/2
f 26/22/2 29/20/2 28/21/2
f 28/21/2 29/20/2 30/19/2
f 29/20/2 31/18/2 30/19/2
f 30/19/2 31/18/2 32/16/2
f 31/18/2 33/17/2 32/16/2
f 33/17/2 34/14/2 32/16/2
f 32/16/2 34/14/2 35/15/2
f 35/15/2 34/14/2 36/13/2
f 34/14/2 37/12/2 36/13/2
f 36/13/2 37/12/2 38/11/2
f 37/12/2 39/10/2 38/11/2
f 38/11/2 39/10/2 40/9/2
f 39/10/2 41/8/2 40/9/2
f 40/9/2 41/8/2 42/7/2
f 41/8/2 43/6/2 42/7/2
f 42/7/2 43/6/2 44/5/2
f 43/6/2 45/4/2 44/5/2
f 44/5/2 45/4/2 46/2/2
f 45/4/2 47/1/2 46/2/2
f 48/3/2 46/2/2 47/1/2
f 49/25/3 50/26/4 51/27/4
f 50/26/4 49/25/3 52/28/3
f 53/28/5 54/25/5 55/26/6
f 56/27/6 55/26/6 54/25/5
f 50/28/4 57/27/7 51/25/4
f 57/27/7 50/28/4 58/26/7
f 59/26/8 55/28/6 60/27/8
f 56/25/6 60/27/8 55/28/6
f 58/29/7 61/30/9 57/31/7
f 61/30/9 58/29/7 62/32/9
f 63/32/10 59/29/8 64/30/10
f 60/31/8 64/30/10 59/29/8
f 62/33/9 65/34/11 61/35/9
f 65/34/11 62/33/9 66/36/11
f 67/36/12 63/33/10 68/34/12
f 64/35/10 68/34/12 63/33/10
f 66/36/11 69/37/13 65/34/11
f 69/37/13 66/36/11 70/38/13
f 71/38/14 67/36/12 72/37/14
f 68/34/12 72/37/14 67/36/12
f 70/39/13 73/40/15 69/41/13
f 73/40/15 70/39/13 74/42/15
f 75/42/16 71/39/14 76/40/16
f 72/41/14 76/40/16 71/39/14
f 74/43/15 77/44/17 73/45/15
f 77/44/17 74/43/15 78/46/17
f 79/46/18 75/43/16 80/44/18
f 76/45/16 80/44/18 75/43/16
f 81/47/19 77/48/17 78/49/17
f 77/48/17 81/47/19 82/50/19
f 83/50/20 84/47/20 80/48/18
f 79/49/18 80/48/18 84/47/20
f 85/51/21 82/52/19 81/53/19
f 82/52/19 85/51/21 86/54/21
f 87/54/22 88/51/22 83/52/20
f 84/53/20 83/52/20 88/51/22
f 89/55/23 86/56/21 85/57/21
f 86/56/21 89/55/23 90/58/23
f 91/58/24 92/55/24 87/56/22
f 88/57/22 87/56/22 92/55/24
f 93/59/25 90/58/23 89/55/23
f 90/58/23 93/59/25 94/60/25
f 95/60/26 96/59/26 91/58/24
f 92/55/24 91/58/24 96/59/26
f 97/61/5 94/62/25 93/63/25
f 94/62/25 97/61/5 98/64/5
f 99/64/3 100/61/3 95/62/26
f 96/63/26 95/62/26 100/61/3
f 101/65/6 98/66/5 97/67/5
f 98/66/5 101/65/6 102/68/6
f 103/68/4 104/65/4 99/66/3
f 100/67/3 99/66/3 104/65/4
f 101/67/6 105/68/8 102/66/6
f 105/68/8 101/67/6 106/65/8
f 107/65/7 104/67/4 108/68/7
f 103/66/4 108/68/7 104/67/4
f 106/63/8 109/64/10 105/62/8
f 109/64/10 106/63/8 110/61/10
f 111/61/9 107/63/7 112/64/9
f 108/62/7 112/64/9 107/63/7
f 110/55/10 113/60/12 109/58/10
f 113/60/12 110/55/10 114/59/12
f 115/59/11 111/55/9 116/60/11
f 112/58/9 116/60/11 111/55/9
f 114/57/12 117/58/14 113/56/12
f 117/58/14 114/57/12 118/55/14
f 119/55/13 115/57/11 120/58/13
f 116/56/11 120/58/13 115/57/11
f 118/53/14 121/54/16 117/52/14
f 121/54/16 118/53/14 122/51/16
f 123/51/15 119/53/13 124/54/15
f 120/52/13 124/54/15 119/53/13
f 122/49/16 125/50/18 121/48/16
f 125/50/18 122/49/16 126/47/18
f 127/47/17 123/49/15 128/50/17
f 124/48/15 128/50/17 123/49/15
f 125/45/18 129/46/20 130/44/20
f 129/46/20 125/45/18 126/43/18
f 127/43/17 128/45/17 131/46/19
f 132/44/19 131/46/19 128/45/17
f 130/41/20 133/42/22 134/40/22
f 133/42/22 130/41/20 129/39/20
f 131/39/19 132/41/19 135/42/21
f 136/40/21 135/42/21 132/41/19
f 134/34/22 137/38/24 138/37/24
f 137/38/24 134/34/22 133/36/22
f 135/36/21 136/34/21 139/38/23
f 140/37/23 139/38/23 136/34/21
f 138/35/24 141/36/26 142/34/26
f 141/36/26 138/35/24 137/33/24
f 139/33/23 140/35/23 143/36/25
f 144/34/25 143/36/25 140/35/23
f 142/31/26 52/32/3 49/30/3
f 52/32/3 142/31/26 141/29/26
f 143/29/25 144/31/25 53/32/5
f 54/30/5 53/32/5 144/31/25
f 145/69/2 146/70/2 147/3/2
f 146/70/2 145/69/2 148/71/2
f 146/70/2 148/71/2 149/72/2
f 149/72/2 148/71/2 150/73/2
f 149/72/2 150/73/2 151/74/2
f 151/74/2 150/73/2 152/75/2
f 151/74/2 152/75/2 153/76/2
f 153/76/2 152/75/2 154/77/2
f 153/76/2 154/77/2 155/78/2
f 155/78/2 154/77/2 156/79/2
f 155/78/2 156/79/2 157/80/2
f 157/80/2 156/79/2 158/81/2
f 157/80/2 158/81/2 159/82/2
f 159/82/2 158/81/2 160/83/2
f 159/82/2 160/83/2 161/84/2
f 161/84/2 160/83/2 162/85/2
f 161/84/2 162/85/2 163/86/2
f 163/86/2 162/85/2 164/87/2
f 163/86/2 164/87/2 165/88/2
f 165/88/2 164/87/2 166/89/2
f 165/88/2 166/89/2 167/90/2
f 167/90/2 166/89/2 168/91/2
f 169/91/1 170/89/1 171/90/1
f 171/90/1 170/89/1 172/88/1
f 170/89/1 173/87/1 172/88/1
f 172/88/1 173/87/1 174/86/1
f 173/87/1 175/85/1 174/86/1
f 174/86/1 175/85/1 176/84/1
f 175/85/1 177/83/1 176/84/1
f 176/84/1 177/83/1 178/82/1
f 177/83/1 179/81/1 178/82/1
f 178/82/1 179/81/1 180/80/1
f 179/81/1 181/79/1 180/80/1
f 180/80/1 181/79/1 182/78/1
f 181/79/1 183/77/1 182/78/1
f 182/78/1 183/77/1 184/76/1
f 183/77/1 185/75/1 184/76/1
f 184/76/1 185/75/1 186/74/1
f 185/75/1 187/73/1 186/74/1
f 186/74/1 187/73/1 188/72/1
f 187/73/1 189/71/1 188/72/1
f 188/72/1 189/71/1 190/70/1
f 189/71/1 191/69/1 190/70/1
f 192/3/1 190/70/1 191/69/1
