# SSTK version 0.8.0
# 20
mtllib original-20.mtl
o mesh16/mesh16-geometry#mesh16-geometry
v 0.026513 -0.394863 0.051287
v 0.022306 -0.429129 0.051287
v 0.022306 -0.394863 0.051287
v 0.026163 -0.416531 0.051287
v 0.026288 -0.414397 0.051287
v 0.026210 -0.429129 0.051287
v 0.026513 -0.407088 0.051287
v 0.026210 -0.426020 0.051287
v 0.026665 -0.412531 0.051287
v 0.026467 -0.420376 0.051287
v 0.027938 -0.405625 0.051287
v 0.027579 -0.427626 0.051287
v 0.027294 -0.410931 0.051287
v 0.027378 -0.422982 0.051287
v 0.028173 -0.409600 0.051287
v 0.028459 -0.424403 0.051287
v 0.029546 -0.404580 0.051287
v 0.029184 -0.428773 0.051287
v 0.029225 -0.408552 0.051287
v 0.029716 -0.425419 0.051287
v 0.030370 -0.407803 0.051287
v 0.031026 -0.429461 0.051287
v 0.031339 -0.403954 0.051287
v 0.031148 -0.426027 0.051287
v 0.031609 -0.407354 0.051287
v 0.033105 -0.429690 0.051287
v 0.033315 -0.403745 0.051287
v 0.032755 -0.426230 0.051287
v 0.032941 -0.407204 0.051287
v 0.034086 -0.426081 0.051287
v 0.034258 -0.407349 0.051287
v 0.035235 -0.429472 0.051287
v 0.035544 -0.403976 0.051287
v 0.035325 -0.425632 0.051287
v 0.035475 -0.407783 0.051287
v 0.037207 -0.428819 0.051287
v 0.036590 -0.408506 0.051287
v 0.036471 -0.424883 0.051287
v 0.037651 -0.404668 0.051287
v 0.037523 -0.423835 0.051287
v 0.037604 -0.409518 0.051287
v 0.039021 -0.427731 0.051287
v 0.038448 -0.410835 0.051287
v 0.038402 -0.422490 0.051287
v 0.039515 -0.405779 0.051287
v 0.039030 -0.420852 0.051287
v 0.039051 -0.412469 0.051287
v 0.040678 -0.426208 0.051287
v 0.039412 -0.414422 0.051287
v 0.039407 -0.418920 0.051287
v 0.039533 -0.416694 0.051287
v 0.041017 -0.407263 0.051287
v 0.042059 -0.424285 0.051287
v 0.042194 -0.409106 0.051287
v 0.043045 -0.422000 0.051287
v 0.043085 -0.411295 0.051287
v 0.043636 -0.419353 0.051287
v 0.043647 -0.413737 0.051287
v 0.043834 -0.416344 0.051287
vn 0 0 -1
vn 0 0 1
usemtl material_0_0
f 1//1 2//1 3//1
f 2//1 1//1 4//1
f 3//2 2//2 1//2
f 4//2 1//2 2//2
f 4//1 1//1 5//1
f 5//2 1//2 4//2
f 4//1 6//1 2//1
f 2//2 6//2 4//2
f 5//1 1//1 7//1
f 7//2 1//2 5//2
f 6//1 4//1 8//1
f 8//2 4//2 6//2
f 5//1 7//1 9//1
f 9//2 7//2 5//2
f 10//1 8//1 4//1
f 4//2 8//2 10//2
f 9//1 7//1 11//1
f 11//2 7//2 9//2
f 8//1 10//1 12//1
f 12//2 10//2 8//2
f 9//1 11//1 13//1
f 13//2 11//2 9//2
f 12//1 10//1 14//1
f 14//2 10//2 12//2
f 13//1 11//1 15//1
f 15//2 11//2 13//2
f 12//1 14//1 16//1
f 16//2 14//2 12//2
f 15//1 11//1 17//1
f 17//2 11//2 15//2
f 12//1 16//1 18//1
f 18//2 16//2 12//2
f 15//1 17//1 19//1
f 19//2 17//2 15//2
f 18//1 16//1 20//1
f 20//2 16//2 18//2
f 19//1 17//1 21//1
f 21//2 17//2 19//2
f 18//1 20//1 22//1
f 22//2 20//2 18//2
f 21//1 17//1 23//1
f 23//2 17//2 21//2
f 22//1 20//1 24//1
f 24//2 20//2 22//2
f 21//1 23//1 25//1
f 25//2 23//2 21//2
f 22//1 24//1 26//1
f 26//2 24//2 22//2
f 25//1 23//1 27//1
f 27//2 23//2 25//2
f 26//1 24//1 28//1
f 28//2 24//2 26//2
f 25//1 27//1 29//1
f 29//2 27//2 25//2
f 26//1 28//1 30//1
f 30//2 28//2 26//2
f 29//1 27//1 31//1
f 31//2 27//2 29//2
f 26//1 30//1 32//1
f 32//2 30//2 26//2
f 31//1 27//1 33//1
f 33//2 27//2 31//2
f 32//1 30//1 34//1
f 34//2 30//2 32//2
f 31//1 33//1 35//1
f 35//2 33//2 31//2
f 32//1 34//1 36//1
f 36//2 34//2 32//2
f 35//1 33//1 37//1
f 37//2 33//2 35//2
f 36//1 34//1 38//1
f 38//2 34//2 36//2
f 37//1 33//1 39//1
f 39//2 33//2 37//2
f 36//1 38//1 40//1
f 40//2 38//2 36//2
f 37//1 39//1 41//1
f 41//2 39//2 37//2
f 36//1 40//1 42//1
f 42//2 40//2 36//2
f 41//1 39//1 43//1
f 43//2 39//2 41//2
f 42//1 40//1 44//1
f 44//2 40//2 42//2
f 43//1 39//1 45//1
f 45//2 39//2 43//2
f 42//1 44//1 46//1
f 46//2 44//2 42//2
f 43//1 45//1 47//1
f 47//2 45//2 43//2
f 42//1 46//1 48//1
f 48//2 46//2 42//2
f 47//1 45//1 49//1
f 49//2 45//2 47//2
f 48//1 46//1 50//1
f 50//2 46//2 48//2
f 49//1 45//1 51//1
f 51//2 45//2 49//2
f 48//1 50//1 51//1
f 51//2 50//2 48//2
f 51//1 45//1 52//1
f 52//2 45//2 51//2
f 51//1 52//1 48//1
f 48//2 52//2 51//2
f 48//1 52//1 53//1
f 53//2 52//2 48//2
f 53//1 52//1 54//1
f 54//2 52//2 53//2
f 53//1 54//1 55//1
f 55//2 54//2 53//2
f 55//1 54//1 56//1
f 56//2 54//2 55//2
f 55//1 56//1 57//1
f 57//2 56//2 55//2
f 57//1 56//1 58//1
f 58//2 56//2 57//2
f 57//1 58//1 59//1
f 59//2 58//2 57//2
