# SSTK version 0.8.0
# 174
mtllib original-174.mtl
o mesh67/mesh67-geometry/material_9/component_2#mesh67-geometry
v -0.077271 -0.939047 0.014058
v -0.030120 -0.939047 0.014058
v -0.077271 -0.939047 0.001758
v -0.030120 -0.939047 0.001758
v -0.077271 -0.939047 0.001758
v -0.030120 -0.939047 0.014058
v -0.077271 -0.939047 0.001758
v -0.030120 -0.939047 0.014058
v -0.077271 -0.939047 0.014058
v -0.030120 -0.939047 0.014058
v -0.077271 -0.939047 0.001758
v -0.030120 -0.939047 0.001758
vt 0 0
vn 0 1 0
vn 0 -1 0
usemtl material_0_0
f 1/1/1 2/1/1 3/1/1
f 4/1/1 5/1/1 6/1/1
usemtl material_1_0
f 7/1/2 8/1/2 9/1/2
f 10/1/2 11/1/2 12/1/2
