# SSTK version 0.8.0
# 7
mtllib original-7.mtl
o mesh6/mesh6-geometry#mesh6-geometry
v -0.246763 0.835538 -0.031063
v -0.234584 0.821788 -0.031063
v -0.226088 0.821788 -0.031063
v -0.248002 0.830985 -0.031063
v -0.250956 0.838166 -0.031063
v -0.246653 0.841406 -0.031063
v -0.250555 0.832965 -0.031063
v -0.236954 0.848173 -0.031063
v -0.252888 0.831201 -0.031063
v -0.228531 0.848173 -0.031063
v -0.255185 0.841172 -0.031063
v -0.254857 0.835736 -0.031063
v -0.273636 0.848173 -0.031063
v -0.266343 0.821788 -0.031063
v -0.265943 0.848173 -0.031063
v -0.275095 0.821788 -0.031063
vn 0 0 1
vn 0 0 -1
usemtl material_0_0
f 1//1 2//1 3//1
f 2//1 1//1 4//1
f 3//2 2//2 1//2
f 4//2 1//2 2//2
f 1//1 5//1 4//1
f 4//2 5//2 1//2
f 1//1 6//1 5//1
f 5//2 6//2 1//2
f 4//1 5//1 7//1
f 7//2 5//2 4//2
f 1//1 8//1 6//1
f 6//2 8//2 1//2
f 7//1 5//1 9//1
f 9//2 5//2 7//2
f 8//1 1//1 10//1
f 10//2 1//2 8//2
f 9//1 5//1 11//1
f 11//2 5//2 9//2
f 9//1 11//1 12//1
f 12//2 11//2 9//2
f 12//1 11//1 13//1
f 13//2 11//2 12//2
f 12//1 14//1 9//1
f 9//2 14//2 12//2
f 13//1 11//1 15//1
f 15//2 11//2 13//2
f 14//1 12//1 16//1
f 16//2 12//2 14//2
