# SSTK version 0.8.0
# 52
mtllib original-52.mtl
o mesh42/mesh42-geometry#mesh42-geometry
v 0.017895 -0.605783 0.051287
v 0.013665 -0.609056 0.051287
v 0.013665 -0.605783 0.051287
v 0.017895 -0.609056 0.051287
v 0.013665 -0.623571 0.051287
v 0.013665 -0.597112 0.051287
v 0.013291 -0.630752 0.051287
v 0.011771 -0.630209 0.051287
v 0.013887 -0.625885 0.051287
v 0.010697 -0.629371 0.051287
v 0.015324 -0.630934 0.051287
v 0.009995 -0.628304 0.051287
v 0.014611 -0.626703 0.051287
v 0.009609 -0.626472 0.051287
v 0.016049 -0.627007 0.051287
v 0.009481 -0.623337 0.051287
v 0.018503 -0.630560 0.051287
v 0.009481 -0.609056 0.051287
v 0.017895 -0.626844 0.051287
v 0.009481 -0.605783 0.051287
v 0.009481 -0.599636 0.051287
v 0.006396 -0.609056 0.051287
v 0.006396 -0.605783 0.051287
vn 0 0 -1
vn 0 0 1
usemtl material_0_0
f 1//1 2//1 3//1
f 2//1 1//1 4//1
f 3//2 2//2 1//2
f 4//2 1//2 2//2
f 5//1 3//1 2//1
f 2//2 3//2 5//2
f 5//1 6//1 3//1
f 3//2 6//2 5//2
f 7//1 6//1 5//1
f 5//2 6//2 7//2
f 8//1 6//1 7//1
f 7//2 6//2 8//2
f 7//1 5//1 9//1
f 9//2 5//2 7//2
f 10//1 6//1 8//1
f 8//2 6//2 10//2
f 7//1 9//1 11//1
f 11//2 9//2 7//2
f 12//1 6//1 10//1
f 10//2 6//2 12//2
f 11//1 9//1 13//1
f 13//2 9//2 11//2
f 14//1 6//1 12//1
f 12//2 6//2 14//2
f 11//1 13//1 15//1
f 15//2 13//2 11//2
f 16//1 6//1 14//1
f 14//2 6//2 16//2
f 11//1 15//1 17//1
f 17//2 15//2 11//2
f 18//1 6//1 16//1
f 16//2 6//2 18//2
f 17//1 15//1 19//1
f 19//2 15//2 17//2
f 20//1 6//1 18//1
f 18//2 6//2 20//2
f 6//1 20//1 21//1
f 21//2 20//2 6//2
f 22//1 20//1 18//1
f 18//2 20//2 22//2
f 20//1 22//1 23//1
f 23//2 22//2 20//2
