# SSTK version 0.8.0
# 97
mtllib original-97.mtl
o mesh67/mesh67-geometry/material_1/component_8#mesh67-geometry
v -0.299837 0.793962 0.032662
v 0.327473 0.793962 0.036762
v -0.299837 0.793962 0.036762
v -0.299837 0.793962 0.036762
v 0.327473 0.793962 0.036762
v -0.299837 0.793962 0.032662
v -0.299837 -0.048601 0.036762
v -0.299837 0.793962 0.032662
v -0.299837 0.793962 0.036762
v -0.299837 0.793962 0.036762
v -0.299837 0.793962 0.032662
v -0.299837 -0.048601 0.036762
v 0.327473 0.793962 0.036762
v -0.299837 0.793962 0.032662
v 0.327473 0.793962 0.032662
v 0.327473 0.793962 0.032662
v -0.299837 0.793962 0.032662
v 0.327473 0.793962 0.036762
v 0.327473 0.793962 0.036762
v 0.327473 -0.048601 0.032662
v 0.327473 -0.048601 0.036762
v 0.327473 -0.048601 0.036762
v 0.327473 -0.048601 0.032662
v 0.327473 0.793962 0.036762
v -0.299837 0.793962 0.032662
v -0.299837 -0.048601 0.036762
v -0.299837 -0.048601 0.032662
v -0.299837 -0.048601 0.032662
v -0.299837 -0.048601 0.036762
v -0.299837 0.793962 0.032662
v 0.327473 0.793962 0.032662
v 0.327473 -0.048601 0.032662
v -0.299837 0.793962 0.032662
v 0.327473 -0.048601 0.032662
v 0.327473 0.793962 0.036762
v 0.327473 0.793962 0.032662
v 0.327473 0.793962 0.032662
v 0.327473 0.793962 0.036762
v 0.327473 -0.048601 0.032662
v 0.327473 -0.048601 0.032662
v -0.299837 -0.048601 0.036762
v 0.327473 -0.048601 0.036762
v 0.327473 -0.048601 0.036762
v -0.299837 -0.048601 0.036762
v 0.327473 -0.048601 0.032662
v -0.299837 -0.048601 0.036762
v 0.327473 -0.048601 0.032662
v -0.299837 -0.048601 0.032662
v -0.299837 -0.048601 0.032662
v 0.327473 -0.048601 0.032662
v -0.299837 -0.048601 0.036762
v -0.299837 -0.048601 0.032662
v -0.299837 0.793962 0.032662
v 0.327473 -0.048601 0.032662
vt 0 0
vn 0 -1 0
vn 0 1 0
vn 1 0 0
vn -1 0 0
vn 0 0 -1
usemtl material_0_0
f 1/1/1 2/1/1 3/1/1
f 4/1/2 5/1/2 6/1/2
f 7/1/3 8/1/3 9/1/3
f 10/1/4 11/1/4 12/1/4
f 13/1/1 14/1/1 15/1/1
f 16/1/2 17/1/2 18/1/2
f 19/1/4 20/1/4 21/1/4
f 22/1/3 23/1/3 24/1/3
f 25/1/3 26/1/3 27/1/3
f 28/1/4 29/1/4 30/1/4
f 31/1/5 32/1/5 33/1/5
f 34/1/4 35/1/4 36/1/4
f 37/1/3 38/1/3 39/1/3
f 40/1/2 41/1/2 42/1/2
f 43/1/1 44/1/1 45/1/1
f 46/1/2 47/1/2 48/1/2
f 49/1/1 50/1/1 51/1/1
f 52/1/5 53/1/5 54/1/5
