# SSTK version 0.8.0
# 85
mtllib original-85.mtl
o mesh67/mesh67-geometry/material_0/component_2#mesh67-geometry
v 0.073081 0.821651 0.032662
v -0.045821 0.836002 0.032662
v -0.045821 0.821651 0.032662
v -0.045821 0.836002 0.032662
v 0.073081 0.821651 0.032662
v 0.073081 0.836002 0.032662
v -0.045821 0.821651 0.032662
v -0.045821 0.836002 0.032662
v 0.073081 0.821651 0.032662
v 0.073081 0.836002 0.032662
v 0.073081 0.821651 0.032662
v -0.045821 0.836002 0.032662
vt 0 0
vn 0 0 1
vn 0 0 -1
usemtl material_0_0
f 1/1/1 2/1/1 3/1/1
f 4/1/1 5/1/1 6/1/1
usemtl material_1_0
f 7/1/2 8/1/2 9/1/2
f 10/1/2 11/1/2 12/1/2
