# SSTK version 0.8.0
# 96
mtllib original-96.mtl
o mesh67/mesh67-geometry/material_1/component_7#mesh67-geometry
v 0.293746 0.851612 -0.018589
v 0.297460 0.851123 -0.024739
v 0.293746 0.851612 -0.024739
v 0.293746 0.851612 -0.024739
v 0.297460 0.851123 -0.024739
v 0.293746 0.851612 -0.018589
v 0.297460 0.851123 -0.018589
v 0.300921 0.849689 -0.024739
v 0.297460 0.851123 -0.024739
v 0.297460 0.851123 -0.024739
v 0.300921 0.849689 -0.024739
v 0.297460 0.851123 -0.018589
v 0.286571 0.849689 -0.018589
v 0.290032 0.851123 -0.024739
v 0.286571 0.849689 -0.024739
v 0.286571 0.849689 -0.024739
v 0.290032 0.851123 -0.024739
v 0.286571 0.849689 -0.018589
v 0.290032 0.851123 -0.018589
v 0.293746 0.851612 -0.024739
v 0.290032 0.851123 -0.024739
v 0.290032 0.851123 -0.024739
v 0.293746 0.851612 -0.024739
v 0.290032 0.851123 -0.018589
v 0.300921 0.849689 -0.018589
v 0.303893 0.847409 -0.024739
v 0.300921 0.849689 -0.024739
v 0.300921 0.849689 -0.024739
v 0.303893 0.847409 -0.024739
v 0.300921 0.849689 -0.018589
v 0.303893 0.847409 -0.024739
v 0.306174 0.844437 -0.018589
v 0.306174 0.844437 -0.024739
v 0.306174 0.844437 -0.024739
v 0.306174 0.844437 -0.018589
v 0.303893 0.847409 -0.024739
v 0.306174 0.844437 -0.024739
v 0.307607 0.840976 -0.018589
v 0.307607 0.840976 -0.024739
v 0.307607 0.840976 -0.024739
v 0.307607 0.840976 -0.018589
v 0.306174 0.844437 -0.024739
v 0.281318 0.844437 -0.024739
v 0.283599 0.847409 -0.018589
v 0.283599 0.847409 -0.024739
v 0.283599 0.847409 -0.024739
v 0.283599 0.847409 -0.018589
v 0.281318 0.844437 -0.024739
v 0.283599 0.847409 -0.018589
v 0.286571 0.849689 -0.024739
v 0.283599 0.847409 -0.024739
v 0.283599 0.847409 -0.024739
v 0.286571 0.849689 -0.024739
v 0.283599 0.847409 -0.018589
v 0.297460 0.851123 -0.024739
v 0.293746 0.851612 -0.018589
v 0.297460 0.851123 -0.018589
v 0.297460 0.851123 -0.018589
v 0.293746 0.851612 -0.018589
v 0.297460 0.851123 -0.024739
v 0.293746 0.851612 -0.024739
v 0.290032 0.851123 -0.018589
v 0.293746 0.851612 -0.018589
v 0.293746 0.851612 -0.018589
v 0.290032 0.851123 -0.018589
v 0.293746 0.851612 -0.024739
v 0.300921 0.849689 -0.024739
v 0.297460 0.851123 -0.018589
v 0.300921 0.849689 -0.018589
v 0.300921 0.849689 -0.018589
v 0.297460 0.851123 -0.018589
v 0.300921 0.849689 -0.024739
v 0.290032 0.851123 -0.024739
v 0.286571 0.849689 -0.018589
v 0.290032 0.851123 -0.018589
v 0.290032 0.851123 -0.018589
v 0.286571 0.849689 -0.018589
v 0.290032 0.851123 -0.024739
v 0.286571 0.849689 -0.024739
v 0.283599 0.847409 -0.018589
v 0.286571 0.849689 -0.018589
v 0.286571 0.849689 -0.018589
v 0.283599 0.847409 -0.018589
v 0.286571 0.849689 -0.024739
v 0.303893 0.847409 -0.024739
v 0.300921 0.849689 -0.018589
v 0.303893 0.847409 -0.018589
v 0.303893 0.847409 -0.018589
v 0.300921 0.849689 -0.018589
v 0.303893 0.847409 -0.024739
v 0.306174 0.844437 -0.018589
v 0.303893 0.847409 -0.024739
v 0.303893 0.847409 -0.018589
v 0.303893 0.847409 -0.018589
v 0.303893 0.847409 -0.024739
v 0.306174 0.844437 -0.018589
v 0.307607 0.840976 -0.018589
v 0.306174 0.844437 -0.024739
v 0.306174 0.844437 -0.018589
v 0.306174 0.844437 -0.018589
v 0.306174 0.844437 -0.024739
v 0.307607 0.840976 -0.018589
v 0.308096 0.837262 -0.018589
v 0.307607 0.840976 -0.024739
v 0.307607 0.840976 -0.018589
v 0.307607 0.840976 -0.018589
v 0.307607 0.840976 -0.024739
v 0.308096 0.837262 -0.018589
v 0.307607 0.840976 -0.024739
v 0.308096 0.837262 -0.018589
v 0.308096 0.837262 -0.024739
v 0.308096 0.837262 -0.024739
v 0.308096 0.837262 -0.018589
v 0.307607 0.840976 -0.024739
v 0.279885 0.840976 -0.024739
v 0.281318 0.844437 -0.018589
v 0.281318 0.844437 -0.024739
v 0.281318 0.844437 -0.024739
v 0.281318 0.844437 -0.018589
v 0.279885 0.840976 -0.024739
v 0.283599 0.847409 -0.018589
v 0.281318 0.844437 -0.024739
v 0.281318 0.844437 -0.018589
v 0.281318 0.844437 -0.018589
v 0.281318 0.844437 -0.024739
v 0.283599 0.847409 -0.018589
v 0.279396 0.837262 -0.024739
v 0.279885 0.840976 -0.018589
v 0.279885 0.840976 -0.024739
v 0.279885 0.840976 -0.024739
v 0.279885 0.840976 -0.018589
v 0.279396 0.837262 -0.024739
v 0.307607 0.833548 -0.018589
v 0.308096 0.837262 -0.024739
v 0.308096 0.837262 -0.018589
v 0.308096 0.837262 -0.018589
v 0.308096 0.837262 -0.024739
v 0.307607 0.833548 -0.018589
v 0.281318 0.844437 -0.018589
v 0.279885 0.840976 -0.024739
v 0.279885 0.840976 -0.018589
v 0.279885 0.840976 -0.018589
v 0.279885 0.840976 -0.024739
v 0.281318 0.844437 -0.018589
v 0.279885 0.833548 -0.024739
v 0.279396 0.837262 -0.018589
v 0.279396 0.837262 -0.024739
v 0.279396 0.837262 -0.024739
v 0.279396 0.837262 -0.018589
v 0.279885 0.833548 -0.024739
v 0.279885 0.840976 -0.018589
v 0.279396 0.837262 -0.024739
v 0.279396 0.837262 -0.018589
v 0.279396 0.837262 -0.018589
v 0.279396 0.837262 -0.024739
v 0.279885 0.840976 -0.018589
v 0.308096 0.837262 -0.024739
v 0.307607 0.833548 -0.018589
v 0.307607 0.833548 -0.024739
v 0.307607 0.833548 -0.024739
v 0.307607 0.833548 -0.018589
v 0.308096 0.837262 -0.024739
v 0.281318 0.830087 -0.024739
v 0.279885 0.833548 -0.018589
v 0.279885 0.833548 -0.024739
v 0.279885 0.833548 -0.024739
v 0.279885 0.833548 -0.018589
v 0.281318 0.830087 -0.024739
v 0.279396 0.837262 -0.018589
v 0.279885 0.833548 -0.024739
v 0.279885 0.833548 -0.018589
v 0.279885 0.833548 -0.018589
v 0.279885 0.833548 -0.024739
v 0.279396 0.837262 -0.018589
v 0.306174 0.830087 -0.018589
v 0.307607 0.833548 -0.024739
v 0.307607 0.833548 -0.018589
v 0.307607 0.833548 -0.018589
v 0.307607 0.833548 -0.024739
v 0.306174 0.830087 -0.018589
v 0.307607 0.833548 -0.024739
v 0.306174 0.830087 -0.018589
v 0.306174 0.830087 -0.024739
v 0.306174 0.830087 -0.024739
v 0.306174 0.830087 -0.018589
v 0.307607 0.833548 -0.024739
v 0.283599 0.827115 -0.024739
v 0.281318 0.830087 -0.018589
v 0.281318 0.830087 -0.024739
v 0.281318 0.830087 -0.024739
v 0.281318 0.830087 -0.018589
v 0.283599 0.827115 -0.024739
v 0.279885 0.833548 -0.018589
v 0.281318 0.830087 -0.024739
v 0.281318 0.830087 -0.018589
v 0.281318 0.830087 -0.018589
v 0.281318 0.830087 -0.024739
v 0.279885 0.833548 -0.018589
v 0.303893 0.827115 -0.018589
v 0.306174 0.830087 -0.024739
v 0.306174 0.830087 -0.018589
v 0.306174 0.830087 -0.018589
v 0.306174 0.830087 -0.024739
v 0.303893 0.827115 -0.018589
v 0.281318 0.830087 -0.018589
v 0.283599 0.827115 -0.024739
v 0.283599 0.827115 -0.018589
v 0.283599 0.827115 -0.018589
v 0.283599 0.827115 -0.024739
v 0.281318 0.830087 -0.018589
v 0.306174 0.830087 -0.024739
v 0.303893 0.827115 -0.018589
v 0.303893 0.827115 -0.024739
v 0.303893 0.827115 -0.024739
v 0.303893 0.827115 -0.018589
v 0.306174 0.830087 -0.024739
v 0.283599 0.827115 -0.024739
v 0.286571 0.824834 -0.018589
v 0.283599 0.827115 -0.018589
v 0.283599 0.827115 -0.018589
v 0.286571 0.824834 -0.018589
v 0.283599 0.827115 -0.024739
v 0.286571 0.824834 -0.018589
v 0.283599 0.827115 -0.024739
v 0.286571 0.824834 -0.024739
v 0.286571 0.824834 -0.024739
v 0.283599 0.827115 -0.024739
v 0.286571 0.824834 -0.018589
v 0.303893 0.827115 -0.018589
v 0.300921 0.824834 -0.024739
v 0.303893 0.827115 -0.024739
v 0.303893 0.827115 -0.024739
v 0.300921 0.824834 -0.024739
v 0.303893 0.827115 -0.018589
v 0.290032 0.823400 -0.018589
v 0.286571 0.824834 -0.024739
v 0.290032 0.823400 -0.024739
v 0.290032 0.823400 -0.024739
v 0.286571 0.824834 -0.024739
v 0.290032 0.823400 -0.018589
v 0.286571 0.824834 -0.024739
v 0.290032 0.823400 -0.018589
v 0.286571 0.824834 -0.018589
v 0.286571 0.824834 -0.018589
v 0.290032 0.823400 -0.018589
v 0.286571 0.824834 -0.024739
v 0.300921 0.824834 -0.024739
v 0.303893 0.827115 -0.018589
v 0.300921 0.824834 -0.018589
v 0.300921 0.824834 -0.018589
v 0.303893 0.827115 -0.018589
v 0.300921 0.824834 -0.024739
v 0.293746 0.822912 -0.018589
v 0.290032 0.823400 -0.024739
v 0.293746 0.822912 -0.024739
v 0.293746 0.822912 -0.024739
v 0.290032 0.823400 -0.024739
v 0.293746 0.822912 -0.018589
v 0.297460 0.823400 -0.018589
v 0.293746 0.822912 -0.024739
v 0.297460 0.823400 -0.024739
v 0.297460 0.823400 -0.024739
v 0.293746 0.822912 -0.024739
v 0.297460 0.823400 -0.018589
v 0.290032 0.823400 -0.024739
v 0.293746 0.822912 -0.018589
v 0.290032 0.823400 -0.018589
v 0.290032 0.823400 -0.018589
v 0.293746 0.822912 -0.018589
v 0.290032 0.823400 -0.024739
v 0.300921 0.824834 -0.018589
v 0.297460 0.823400 -0.024739
v 0.300921 0.824834 -0.024739
v 0.300921 0.824834 -0.024739
v 0.297460 0.823400 -0.024739
v 0.300921 0.824834 -0.018589
v 0.293746 0.822912 -0.024739
v 0.297460 0.823400 -0.018589
v 0.293746 0.822912 -0.018589
v 0.293746 0.822912 -0.018589
v 0.297460 0.823400 -0.018589
v 0.293746 0.822912 -0.024739
v 0.297460 0.823400 -0.024739
v 0.300921 0.824834 -0.018589
v 0.297460 0.823400 -0.018589
v 0.297460 0.823400 -0.018589
v 0.300921 0.824834 -0.018589
v 0.297460 0.823400 -0.024739
vt 0 0
vn 0 1 0
vn 0.25881897461707376 0.9659258451755842 0
vn 0 -1 0
vn -0.25881897461707376 -0.9659258451755842 0
vn 0.5000001873976233 0.8660252955903434 0
vn -0.5000001873976233 -0.8660252955903434 0
vn -0.5000001873976233 0.8660252955903434 0
vn -0.25881897461707376 0.9659258451755842 0
vn 0.5000001873976233 -0.8660252955903434 0
vn 0.25881897461707376 -0.9659258451755842 0
vn 0.7071067811865476 0.7071067811865476 0
vn -0.7071067811865476 -0.7071067811865476 0
vn 0.8660252955903434 0.5000001873976233 0
vn -0.8660252955903434 -0.5000001873976233 0
vn 0.9659258451755842 0.25881897461707376 0
vn -0.9659258451755842 -0.25881897461707376 0
vn -0.8660252955903434 0.5000001873976233 0
vn -0.7071067811865476 0.7071067811865476 0
vn 0.7071067811865476 -0.7071067811865476 0
vn 0.8660252955903434 -0.5000001873976233 0
vn 1 0 0
vn -1 0 0
vn -0.9659258451755842 0.25881897461707376 0
vn 0.9659258451755842 -0.25881897461707376 0
usemtl material_0_0
f 1/1/1 2/1/2 3/1/1
f 4/1/3 5/1/4 6/1/3
f 7/1/2 8/1/5 9/1/2
f 10/1/4 11/1/6 12/1/4
f 13/1/7 14/1/8 15/1/7
f 16/1/9 17/1/10 18/1/9
f 19/1/8 20/1/1 21/1/8
f 22/1/10 23/1/3 24/1/10
f 25/1/5 26/1/11 27/1/5
f 28/1/6 29/1/12 30/1/6
f 31/1/11 32/1/13 33/1/13
f 34/1/14 35/1/14 36/1/12
f 37/1/13 38/1/15 39/1/15
f 40/1/16 41/1/16 42/1/14
f 43/1/17 44/1/18 45/1/18
f 46/1/19 47/1/19 48/1/20
f 49/1/18 50/1/7 51/1/18
f 52/1/19 53/1/9 54/1/19
f 55/1/2 56/1/1 57/1/2
f 58/1/4 59/1/3 60/1/4
f 61/1/1 62/1/8 63/1/1
f 64/1/3 65/1/10 66/1/3
f 67/1/5 68/1/2 69/1/5
f 70/1/6 71/1/4 72/1/6
f 73/1/8 74/1/7 75/1/8
f 76/1/10 77/1/9 78/1/10
f 79/1/7 80/1/18 81/1/7
f 82/1/9 83/1/19 84/1/9
f 85/1/11 86/1/5 87/1/11
f 88/1/12 89/1/6 90/1/12
f 91/1/13 92/1/11 93/1/11
f 94/1/12 95/1/12 96/1/14
f 97/1/15 98/1/13 99/1/13
f 100/1/14 101/1/14 102/1/16
f 103/1/21 104/1/15 105/1/15
f 106/1/16 107/1/16 108/1/22
f 109/1/15 110/1/21 111/1/21
f 112/1/22 113/1/22 114/1/16
f 115/1/23 116/1/17 117/1/17
f 118/1/20 119/1/20 120/1/24
f 121/1/18 122/1/17 123/1/17
f 124/1/20 125/1/20 126/1/19
f 127/1/22 128/1/23 129/1/23
f 130/1/24 131/1/24 132/1/21
f 133/1/24 134/1/21 135/1/21
f 136/1/22 137/1/22 138/1/23
f 139/1/17 140/1/23 141/1/23
f 142/1/24 143/1/24 144/1/20
f 145/1/16 146/1/22 147/1/22
f 148/1/21 149/1/21 150/1/15
f 151/1/23 152/1/22 153/1/22
f 154/1/21 155/1/21 156/1/24
f 157/1/21 158/1/24 159/1/24
f 160/1/23 161/1/23 162/1/22
f 163/1/14 164/1/16 165/1/16
f 166/1/15 167/1/15 168/1/13
f 169/1/22 170/1/16 171/1/16
f 172/1/15 173/1/15 174/1/21
f 175/1/20 176/1/24 177/1/24
f 178/1/23 179/1/23 180/1/17
f 181/1/24 182/1/20 183/1/20
f 184/1/17 185/1/17 186/1/23
f 187/1/12 188/1/14 189/1/14
f 190/1/13 191/1/13 192/1/11
f 193/1/16 194/1/14 195/1/14
f 196/1/13 197/1/13 198/1/15
f 199/1/19 200/1/20 201/1/20
f 202/1/17 203/1/17 204/1/18
f 205/1/14 206/1/12 207/1/12
f 208/1/11 209/1/11 210/1/13
f 211/1/20 212/1/19 213/1/19
f 214/1/18 215/1/18 216/1/17
f 217/1/12 218/1/6 219/1/12
f 220/1/11 221/1/5 222/1/11
f 223/1/6 224/1/12 225/1/6
f 226/1/5 227/1/11 228/1/5
f 229/1/19 230/1/9 231/1/19
f 232/1/18 233/1/7 234/1/18
f 235/1/4 236/1/6 237/1/4
f 238/1/2 239/1/5 240/1/2
f 241/1/6 242/1/4 243/1/6
f 244/1/5 245/1/2 246/1/5
f 247/1/9 248/1/19 249/1/9
f 250/1/7 251/1/18 252/1/7
f 253/1/3 254/1/4 255/1/3
f 256/1/1 257/1/2 258/1/1
f 259/1/10 260/1/3 261/1/10
f 262/1/8 263/1/1 264/1/8
f 265/1/4 266/1/3 267/1/4
f 268/1/2 269/1/1 270/1/2
f 271/1/9 272/1/10 273/1/9
f 274/1/7 275/1/8 276/1/7
f 277/1/3 278/1/10 279/1/3
f 280/1/1 281/1/8 282/1/1
f 283/1/10 284/1/9 285/1/10
f 286/1/8 287/1/7 288/1/8
