# SSTK version 0.8.0
# 135
mtllib original-135.mtl
o mesh67/mesh67-geometry/material_3/component_7#mesh67-geometry
v 0.356484 -0.931475 0.051112
v 0.356484 -0.931475 -0.030889
v 0.350295 -0.938532 0.051112
v 0.361698 -0.923671 0.051112
v 0.361698 -0.923671 -0.030889
v 0.356484 -0.931475 0.051112
v 0.365849 -0.915254 0.051112
v 0.365849 -0.915254 -0.030889
v 0.361698 -0.923671 0.051112
v -0.325185 -0.938532 0.051112
v -0.325185 -0.938532 -0.030889
v -0.331374 -0.931475 0.051112
v -0.325185 -0.938532 0.051112
v -0.318129 -0.944720 0.051112
v -0.325185 -0.938532 -0.030889
v 0.335435 -0.949934 0.051112
v 0.343239 -0.944720 0.051112
v 0.335435 -0.949934 -0.030889
v 0.350295 -0.938532 -0.030889
v 0.350295 -0.938532 0.051112
v 0.356484 -0.931475 -0.030889
v 0.356484 -0.931475 -0.030889
v 0.356484 -0.931475 0.051112
v 0.361698 -0.923671 -0.030889
v 0.361698 -0.923671 -0.030889
v 0.361698 -0.923671 0.051112
v 0.365849 -0.915254 -0.030889
v 0.368866 -0.906366 0.051112
v 0.368866 -0.906366 -0.030889
v 0.365849 -0.915254 0.051112
v 0.365849 -0.915254 -0.030889
v 0.365849 -0.915254 0.051112
v 0.368866 -0.906366 -0.030889
v -0.331374 -0.931475 0.051112
v -0.331374 -0.931475 -0.030889
v -0.336588 -0.923671 0.051112
v -0.331374 -0.931475 -0.030889
v -0.331374 -0.931475 0.051112
v -0.325185 -0.938532 -0.030889
v -0.318129 -0.944720 -0.030889
v -0.325185 -0.938532 -0.030889
v -0.318129 -0.944720 0.051112
v 0.327018 -0.954085 0.051112
v 0.335435 -0.949934 0.051112
v 0.327018 -0.954085 -0.030889
v 0.343239 -0.944720 -0.030889
v 0.335435 -0.949934 -0.030889
v 0.343239 -0.944720 0.051112
v 0.335435 -0.949934 -0.030889
v 0.327018 -0.954085 -0.030889
v 0.335435 -0.949934 0.051112
v 0.343239 -0.944720 0.051112
v 0.350295 -0.938532 0.051112
v 0.343239 -0.944720 -0.030889
v 0.350295 -0.938532 -0.030889
v 0.343239 -0.944720 -0.030889
v 0.350295 -0.938532 0.051112
v 0.370697 -0.897161 0.051112
v 0.370697 -0.897161 -0.030889
v 0.368866 -0.906366 0.051112
v 0.368866 -0.906366 -0.030889
v 0.368866 -0.906366 0.051112
v 0.370697 -0.897161 -0.030889
v -0.336588 -0.923671 0.051112
v -0.336588 -0.923671 -0.030889
v -0.340739 -0.915254 0.051112
v -0.336588 -0.923671 -0.030889
v -0.336588 -0.923671 0.051112
v -0.331374 -0.931475 -0.030889
v -0.318129 -0.944720 0.051112
v -0.310325 -0.949934 0.051112
v -0.318129 -0.944720 -0.030889
v -0.310325 -0.949934 0.051112
v -0.301908 -0.954085 0.051112
v -0.310325 -0.949934 -0.030889
v -0.301908 -0.954085 0.051112
v -0.293020 -0.957102 0.051112
v -0.301908 -0.954085 -0.030889
v 0.318130 -0.957102 0.051112
v 0.327018 -0.954085 0.051112
v 0.318130 -0.957102 -0.030889
v 0.308925 -0.958933 0.051112
v 0.318130 -0.957102 0.051112
v 0.308925 -0.958933 -0.030889
v 0.327018 -0.954085 -0.030889
v 0.318130 -0.957102 -0.030889
v 0.327018 -0.954085 0.051112
v 0.371311 -0.887796 0.051112
v 0.371311 -0.887796 -0.030889
v 0.370697 -0.897161 0.051112
v 0.370697 -0.897161 -0.030889
v 0.370697 -0.897161 0.051112
v 0.371311 -0.887796 -0.030889
v 0.371311 -0.887796 -0.030889
v 0.371311 0.791181 -0.030889
v 0.311717 -0.887796 -0.037148
v 0.311717 0.791181 -0.037148
v 0.311717 -0.887796 -0.037148
v 0.371311 0.791181 -0.030889
v -0.340739 -0.915254 0.051112
v -0.340739 -0.915254 -0.030889
v -0.343756 -0.906366 0.051112
v -0.340739 -0.915254 -0.030889
v -0.340739 -0.915254 0.051112
v -0.336588 -0.923671 -0.030889
v -0.310325 -0.949934 -0.030889
v -0.318129 -0.944720 -0.030889
v -0.310325 -0.949934 0.051112
v -0.301908 -0.954085 -0.030889
v -0.310325 -0.949934 -0.030889
v -0.301908 -0.954085 0.051112
v -0.293020 -0.957102 -0.030889
v -0.301908 -0.954085 -0.030889
v -0.293020 -0.957102 0.051112
v -0.293020 -0.957102 0.051112
v -0.283815 -0.958933 0.051112
v -0.293020 -0.957102 -0.030889
v 0.318130 -0.957102 -0.030889
v 0.308925 -0.958933 -0.030889
v 0.318130 -0.957102 0.051112
v 0.308925 -0.958933 -0.030889
v 0.299560 -0.959547 -0.030889
v 0.308925 -0.958933 0.051112
v -0.346201 0.791181 -0.030889
v -0.346201 -0.887796 -0.030889
v -0.286607 0.791181 -0.037148
v 0.311717 -0.887796 -0.037148
v 0.311717 0.791181 -0.037148
v 0.252015 -0.887796 -0.042273
v -0.343756 -0.906366 0.051112
v -0.343756 -0.906366 -0.030889
v -0.345587 -0.897161 0.051112
v -0.343756 -0.906366 -0.030889
v -0.343756 -0.906366 0.051112
v -0.340739 -0.915254 -0.030889
v -0.283815 -0.958933 -0.030889
v -0.293020 -0.957102 -0.030889
v -0.283815 -0.958933 0.051112
v 0.299560 -0.959547 0.051112
v 0.308925 -0.958933 0.051112
v 0.299560 -0.959547 -0.030889
v -0.286607 -0.887796 -0.037148
v -0.286607 0.791181 -0.037148
v -0.346201 -0.887796 -0.030889
v -0.346201 -0.887796 -0.030889
v -0.346201 -0.887796 0.051112
v -0.345587 -0.897161 -0.030889
v 0.252015 0.791181 -0.042273
v 0.252015 -0.887796 -0.042273
v 0.311717 0.791181 -0.037148
v -0.345587 -0.897161 0.051112
v -0.345587 -0.897161 -0.030889
v -0.346201 -0.887796 0.051112
v -0.345587 -0.897161 -0.030889
v -0.345587 -0.897161 0.051112
v -0.343756 -0.906366 -0.030889
v -0.283815 -0.958933 0.051112
v -0.274450 -0.959547 0.051112
v -0.283815 -0.958933 -0.030889
v -0.286607 0.791181 -0.037148
v -0.286607 -0.887796 -0.037148
v -0.226904 0.791181 -0.042273
v 0.252015 -0.887796 -0.042273
v 0.252015 0.791181 -0.042273
v 0.192226 -0.887796 -0.046260
v -0.274450 -0.959547 -0.030889
v -0.283815 -0.958933 -0.030889
v -0.274450 -0.959547 0.051112
v -0.226904 -0.887796 -0.042273
v -0.226904 0.791181 -0.042273
v -0.286607 -0.887796 -0.037148
v 0.192226 0.791181 -0.046260
v 0.192226 -0.887796 -0.046260
v 0.252015 0.791181 -0.042273
v -0.226904 0.791181 -0.042273
v -0.226904 -0.887796 -0.042273
v -0.167115 0.791181 -0.046260
v 0.192226 -0.887796 -0.046260
v 0.192226 0.791181 -0.046260
v 0.132372 -0.887796 -0.049109
v -0.167115 -0.887796 -0.046260
v -0.167115 0.791181 -0.046260
v -0.226904 -0.887796 -0.042273
v 0.132372 0.791181 -0.049109
v 0.132372 -0.887796 -0.049109
v 0.192226 0.791181 -0.046260
v -0.167115 0.791181 -0.046260
v -0.167115 -0.887796 -0.046260
v -0.107261 0.791181 -0.049109
v 0.132372 -0.887796 -0.049109
v 0.132372 0.791181 -0.049109
v 0.072474 -0.887796 -0.050819
v -0.107261 -0.887796 -0.049109
v -0.107261 0.791181 -0.049109
v -0.167115 -0.887796 -0.046260
v 0.072474 0.791181 -0.050819
v 0.072474 -0.887796 -0.050819
v 0.132372 0.791181 -0.049109
v -0.047364 -0.887796 -0.050819
v -0.047364 0.791181 -0.050819
v -0.107261 -0.887796 -0.049109
v -0.107261 0.791181 -0.049109
v -0.107261 -0.887796 -0.049109
v -0.047364 0.791181 -0.050819
v 0.072474 -0.887796 -0.050819
v 0.072474 0.791181 -0.050819
v 0.012555 -0.887796 -0.051389
v -0.047364 0.791181 -0.050819
v -0.047364 -0.887796 -0.050819
v 0.012555 0.791181 -0.051389
v 0.012555 0.791181 -0.051389
v 0.012555 -0.887796 -0.051389
v 0.072474 0.791181 -0.050819
v 0.012555 -0.887796 -0.051389
v 0.012555 0.791181 -0.051389
v -0.047364 -0.887796 -0.050819
v 0.350295 -0.938532 0.051112
v 0.356484 -0.931475 -0.030889
v 0.356484 -0.931475 0.051112
v 0.356484 -0.931475 0.051112
v 0.361698 -0.923671 -0.030889
v 0.361698 -0.923671 0.051112
v 0.361698 -0.923671 0.051112
v 0.365849 -0.915254 -0.030889
v 0.365849 -0.915254 0.051112
v -0.331374 -0.931475 0.051112
v -0.325185 -0.938532 -0.030889
v -0.325185 -0.938532 0.051112
v -0.325185 -0.938532 -0.030889
v -0.318129 -0.944720 0.051112
v -0.325185 -0.938532 0.051112
v 0.335435 -0.949934 -0.030889
v 0.343239 -0.944720 0.051112
v 0.335435 -0.949934 0.051112
v 0.356484 -0.931475 -0.030889
v 0.350295 -0.938532 0.051112
v 0.350295 -0.938532 -0.030889
v 0.361698 -0.923671 -0.030889
v 0.356484 -0.931475 0.051112
v 0.356484 -0.931475 -0.030889
v 0.365849 -0.915254 -0.030889
v 0.361698 -0.923671 0.051112
v 0.361698 -0.923671 -0.030889
v 0.365849 -0.915254 0.051112
v 0.368866 -0.906366 -0.030889
v 0.368866 -0.906366 0.051112
v 0.368866 -0.906366 -0.030889
v 0.365849 -0.915254 0.051112
v 0.365849 -0.915254 -0.030889
v -0.336588 -0.923671 0.051112
v -0.331374 -0.931475 -0.030889
v -0.331374 -0.931475 0.051112
v -0.325185 -0.938532 -0.030889
v -0.331374 -0.931475 0.051112
v -0.331374 -0.931475 -0.030889
v -0.318129 -0.944720 0.051112
v -0.325185 -0.938532 -0.030889
v -0.318129 -0.944720 -0.030889
v 0.327018 -0.954085 -0.030889
v 0.335435 -0.949934 0.051112
v 0.327018 -0.954085 0.051112
v 0.343239 -0.944720 0.051112
v 0.335435 -0.949934 -0.030889
v 0.343239 -0.944720 -0.030889
v 0.335435 -0.949934 0.051112
v 0.327018 -0.954085 -0.030889
v 0.335435 -0.949934 -0.030889
v 0.343239 -0.944720 -0.030889
v 0.350295 -0.938532 0.051112
v 0.343239 -0.944720 0.051112
v 0.350295 -0.938532 0.051112
v 0.343239 -0.944720 -0.030889
v 0.350295 -0.938532 -0.030889
v 0.368866 -0.906366 0.051112
v 0.370697 -0.897161 -0.030889
v 0.370697 -0.897161 0.051112
v 0.370697 -0.897161 -0.030889
v 0.368866 -0.906366 0.051112
v 0.368866 -0.906366 -0.030889
v -0.340739 -0.915254 0.051112
v -0.336588 -0.923671 -0.030889
v -0.336588 -0.923671 0.051112
v -0.331374 -0.931475 -0.030889
v -0.336588 -0.923671 0.051112
v -0.336588 -0.923671 -0.030889
v -0.318129 -0.944720 -0.030889
v -0.310325 -0.949934 0.051112
v -0.318129 -0.944720 0.051112
v -0.310325 -0.949934 -0.030889
v -0.301908 -0.954085 0.051112
v -0.310325 -0.949934 0.051112
v -0.301908 -0.954085 -0.030889
v -0.293020 -0.957102 0.051112
v -0.301908 -0.954085 0.051112
v 0.318130 -0.957102 -0.030889
v 0.327018 -0.954085 0.051112
v 0.318130 -0.957102 0.051112
v 0.308925 -0.958933 -0.030889
v 0.318130 -0.957102 0.051112
v 0.308925 -0.958933 0.051112
v 0.327018 -0.954085 0.051112
v 0.318130 -0.957102 -0.030889
v 0.327018 -0.954085 -0.030889
v 0.370697 -0.897161 0.051112
v 0.371311 -0.887796 -0.030889
v 0.371311 -0.887796 0.051112
v 0.371311 -0.887796 -0.030889
v 0.370697 -0.897161 0.051112
v 0.370697 -0.897161 -0.030889
v 0.311717 -0.887796 -0.037148
v 0.371311 0.791181 -0.030889
v 0.371311 -0.887796 -0.030889
v 0.371311 0.791181 -0.030889
v 0.311717 -0.887796 -0.037148
v 0.311717 0.791181 -0.037148
v -0.343756 -0.906366 0.051112
v -0.340739 -0.915254 -0.030889
v -0.340739 -0.915254 0.051112
v -0.336588 -0.923671 -0.030889
v -0.340739 -0.915254 0.051112
v -0.340739 -0.915254 -0.030889
v -0.310325 -0.949934 0.051112
v -0.318129 -0.944720 -0.030889
v -0.310325 -0.949934 -0.030889
v -0.301908 -0.954085 0.051112
v -0.310325 -0.949934 -0.030889
v -0.301908 -0.954085 -0.030889
v -0.293020 -0.957102 0.051112
v -0.301908 -0.954085 -0.030889
v -0.293020 -0.957102 -0.030889
v -0.293020 -0.957102 -0.030889
v -0.283815 -0.958933 0.051112
v -0.293020 -0.957102 0.051112
v 0.318130 -0.957102 0.051112
v 0.308925 -0.958933 -0.030889
v 0.318130 -0.957102 -0.030889
v 0.308925 -0.958933 0.051112
v 0.299560 -0.959547 -0.030889
v 0.308925 -0.958933 -0.030889
v -0.286607 0.791181 -0.037148
v -0.346201 -0.887796 -0.030889
v -0.346201 0.791181 -0.030889
v 0.252015 -0.887796 -0.042273
v 0.311717 0.791181 -0.037148
v 0.311717 -0.887796 -0.037148
v -0.345587 -0.897161 0.051112
v -0.343756 -0.906366 -0.030889
v -0.343756 -0.906366 0.051112
v -0.340739 -0.915254 -0.030889
v -0.343756 -0.906366 0.051112
v -0.343756 -0.906366 -0.030889
v -0.283815 -0.958933 0.051112
v -0.293020 -0.957102 -0.030889
v -0.283815 -0.958933 -0.030889
v 0.299560 -0.959547 -0.030889
v 0.308925 -0.958933 0.051112
v 0.299560 -0.959547 0.051112
v -0.346201 -0.887796 -0.030889
v -0.286607 0.791181 -0.037148
v -0.286607 -0.887796 -0.037148
v -0.345587 -0.897161 -0.030889
v -0.346201 -0.887796 0.051112
v -0.346201 -0.887796 -0.030889
v 0.311717 0.791181 -0.037148
v 0.252015 -0.887796 -0.042273
v 0.252015 0.791181 -0.042273
v -0.346201 -0.887796 0.051112
v -0.345587 -0.897161 -0.030889
v -0.345587 -0.897161 0.051112
v -0.343756 -0.906366 -0.030889
v -0.345587 -0.897161 0.051112
v -0.345587 -0.897161 -0.030889
v -0.283815 -0.958933 -0.030889
v -0.274450 -0.959547 0.051112
v -0.283815 -0.958933 0.051112
v -0.226904 0.791181 -0.042273
v -0.286607 -0.887796 -0.037148
v -0.286607 0.791181 -0.037148
v 0.192226 -0.887796 -0.046260
v 0.252015 0.791181 -0.042273
v 0.252015 -0.887796 -0.042273
v -0.274450 -0.959547 0.051112
v -0.283815 -0.958933 -0.030889
v -0.274450 -0.959547 -0.030889
v -0.286607 -0.887796 -0.037148
v -0.226904 0.791181 -0.042273
v -0.226904 -0.887796 -0.042273
v 0.252015 0.791181 -0.042273
v 0.192226 -0.887796 -0.046260
v 0.192226 0.791181 -0.046260
v -0.167115 0.791181 -0.046260
v -0.226904 -0.887796 -0.042273
v -0.226904 0.791181 -0.042273
v 0.132372 -0.887796 -0.049109
v 0.192226 0.791181 -0.046260
v 0.192226 -0.887796 -0.046260
v -0.226904 -0.887796 -0.042273
v -0.167115 0.791181 -0.046260
v -0.167115 -0.887796 -0.046260
v 0.192226 0.791181 -0.046260
v 0.132372 -0.887796 -0.049109
v 0.132372 0.791181 -0.049109
v -0.107261 0.791181 -0.049109
v -0.167115 -0.887796 -0.046260
v -0.167115 0.791181 -0.046260
v 0.072474 -0.887796 -0.050819
v 0.132372 0.791181 -0.049109
v 0.132372 -0.887796 -0.049109
v -0.167115 -0.887796 -0.046260
v -0.107261 0.791181 -0.049109
v -0.107261 -0.887796 -0.049109
v 0.132372 0.791181 -0.049109
v 0.072474 -0.887796 -0.050819
v 0.072474 0.791181 -0.050819
v -0.107261 -0.887796 -0.049109
v -0.047364 0.791181 -0.050819
v -0.047364 -0.887796 -0.050819
v -0.047364 0.791181 -0.050819
v -0.107261 -0.887796 -0.049109
v -0.107261 0.791181 -0.049109
v 0.012555 -0.887796 -0.051389
v 0.072474 0.791181 -0.050819
v 0.072474 -0.887796 -0.050819
v 0.012555 0.791181 -0.051389
v -0.047364 -0.887796 -0.050819
v -0.047364 0.791181 -0.050819
v 0.072474 0.791181 -0.050819
v 0.012555 -0.887796 -0.051389
v 0.012555 0.791181 -0.051389
v -0.047364 -0.887796 -0.050819
v 0.012555 0.791181 -0.051389
v 0.012555 -0.887796 -0.051389
vt 0 0
vn -0.7933534231507683 0.6087613210240592 0
vn -0.7071067811865476 0.7071067811865476 0
vn -0.8660252955903434 0.5000001873976233 0
vn -0.9238797479109917 0.38268291234378676 0
vn 0.7071067811865476 0.7071067811865476 0
vn 0.7933534231507683 0.6087613210240592 0
vn 0.6087613210240592 0.7933534231507683 0
vn -0.5000001873976233 0.8660252955903434 0
vn -0.6087613210240592 0.7933534231507683 0
vn -0.9659258451755842 0.25881897461707376 0
vn 0.8660252955903434 0.5000001873976233 0
vn -0.38268291234378676 0.9238797479109917 0
vn -0.9914448878896857 0.13052599081182487 0
vn 0.9238797479109917 0.38268291234378676 0
vn 0.5000001873976233 0.8660252955903434 0
vn 0.38268291234378676 0.9238797479109917 0
vn 0.25881897461707376 0.9659258451755842 0
vn -0.25881897461707376 0.9659258451755842 0
vn -0.13052599081182487 0.9914448878896857 0
vn -0.9978589320371724 0.06540299498978344 0
vn -0.104457039459931 0 0.9945293997199212
vn -0.09499101335638237 0 0.9954781300367816
vn 0.9659258451755842 0.25881897461707376 0
vn 0.13052599081182487 0.9914448878896857 0
vn -0.06540299498978344 0.9978589320371724 0
vn 0.104457039459931 0 0.9945293997199212
vn 0.09499101335638237 0 0.9954781300367816
vn -0.07603401891303119 0 0.9971052241202695
vn 0.9914448878896857 0.13052599081182487 0
vn 0.9978589320371724 0.06540299498978344 0
vn 0.06540299498978344 0.9978589320371724 0
vn 0.07603401891303119 0 0.9971052241202695
vn -0.057050018951318116 0 0.9983713213717902
vn 0.057050018951318116 0 0.9983713213717902
vn -0.03804500197776027 0 0.9992760268436905
vn 0.03804500197776027 0 0.9992760268436905
vn -0.019026000215994203 0 0.9998189892754493
vn 0.019026000215994203 0 0.9998189892754493
vn 0 0 1
vn 0.7071067811865476 -0.7071067811865476 0
vn 0.7933534231507683 -0.6087613210240592 0
vn 0.8660252955903434 -0.5000001873976233 0
vn 0.9238797479109917 -0.38268291234378676 0
vn -0.7933534231507683 -0.6087613210240592 0
vn -0.7071067811865476 -0.7071067811865476 0
vn -0.6087613210240592 -0.7933534231507683 0
vn 0.5000001873976233 -0.8660252955903434 0
vn 0.6087613210240592 -0.7933534231507683 0
vn 0.9659258451755842 -0.25881897461707376 0
vn -0.8660252955903434 -0.5000001873976233 0
vn 0.38268291234378676 -0.9238797479109917 0
vn 0.9914448878896857 -0.13052599081182487 0
vn -0.9238797479109917 -0.38268291234378676 0
vn -0.5000001873976233 -0.8660252955903434 0
vn -0.38268291234378676 -0.9238797479109917 0
vn -0.25881897461707376 -0.9659258451755842 0
vn 0.25881897461707376 -0.9659258451755842 0
vn 0.13052599081182487 -0.9914448878896857 0
vn 0.9978589320371724 -0.06540299498978344 0
vn 0.09499101335638237 0 -0.9954781300367816
vn 0.104457039459931 0 -0.9945293997199212
vn -0.9659258451755842 -0.25881897461707376 0
vn -0.13052599081182487 -0.9914448878896857 0
vn 0.06540299498978344 -0.9978589320371724 0
vn -0.09499101335638237 0 -0.9954781300367816
vn -0.104457039459931 0 -0.9945293997199212
vn 0.07603401891303119 0 -0.9971052241202695
vn -0.9914448878896857 -0.13052599081182487 0
vn -0.9978589320371724 -0.06540299498978344 0
vn -0.06540299498978344 -0.9978589320371724 0
vn -0.07603401891303119 0 -0.9971052241202695
vn 0.057050018951318116 0 -0.9983713213717902
vn -0.057050018951318116 0 -0.9983713213717902
vn 0.03804500197776027 0 -0.9992760268436905
vn -0.03804500197776027 0 -0.9992760268436905
vn 0.019026000215994203 0 -0.9998189892754493
vn -0.019026000215994203 0 -0.9998189892754493
vn 0 0 -1
usemtl material_0_0
f 1/1/1 2/1/1 3/1/2
f 4/1/3 5/1/3 6/1/1
f 7/1/4 8/1/4 9/1/3
f 10/1/5 11/1/5 12/1/6
f 13/1/5 14/1/7 15/1/5
f 16/1/8 17/1/9 18/1/8
f 19/1/2 20/1/2 21/1/1
f 22/1/1 23/1/1 24/1/3
f 25/1/3 26/1/3 27/1/4
f 28/1/10 29/1/10 30/1/4
f 31/1/4 32/1/4 33/1/10
f 34/1/6 35/1/6 36/1/11
f 37/1/6 38/1/6 39/1/5
f 40/1/7 41/1/5 42/1/7
f 43/1/12 44/1/8 45/1/12
f 46/1/9 47/1/8 48/1/9
f 49/1/8 50/1/12 51/1/8
f 52/1/9 53/1/2 54/1/9
f 55/1/2 56/1/9 57/1/2
f 58/1/13 59/1/13 60/1/10
f 61/1/10 62/1/10 63/1/13
f 64/1/11 65/1/11 66/1/14
f 67/1/11 68/1/11 69/1/6
f 70/1/7 71/1/15 72/1/7
f 73/1/15 74/1/16 75/1/15
f 76/1/16 77/1/17 78/1/16
f 79/1/18 80/1/12 81/1/18
f 82/1/19 83/1/18 84/1/19
f 85/1/12 86/1/18 87/1/12
f 88/1/20 89/1/20 90/1/13
f 91/1/13 92/1/13 93/1/20
f 94/1/21 95/1/21 96/1/22
f 97/1/22 98/1/22 99/1/21
f 100/1/14 101/1/14 102/1/23
f 103/1/14 104/1/14 105/1/11
f 106/1/15 107/1/7 108/1/15
f 109/1/16 110/1/15 111/1/16
f 112/1/17 113/1/16 114/1/17
f 115/1/17 116/1/24 117/1/17
f 118/1/18 119/1/19 120/1/18
f 121/1/19 122/1/25 123/1/19
f 124/1/26 125/1/26 126/1/27
f 127/1/22 128/1/22 129/1/28
f 130/1/23 131/1/23 132/1/29
f 133/1/23 134/1/23 135/1/14
f 136/1/24 137/1/17 138/1/24
f 139/1/25 140/1/19 141/1/25
f 142/1/27 143/1/27 144/1/26
f 145/1/30 146/1/30 147/1/29
f 148/1/28 149/1/28 150/1/22
f 151/1/29 152/1/29 153/1/30
f 154/1/29 155/1/29 156/1/23
f 157/1/24 158/1/31 159/1/24
f 160/1/27 161/1/27 162/1/32
f 163/1/28 164/1/28 165/1/33
f 166/1/31 167/1/24 168/1/31
f 169/1/32 170/1/32 171/1/27
f 172/1/33 173/1/33 174/1/28
f 175/1/32 176/1/32 177/1/34
f 178/1/33 179/1/33 180/1/35
f 181/1/34 182/1/34 183/1/32
f 184/1/35 185/1/35 186/1/33
f 187/1/34 188/1/34 189/1/36
f 190/1/35 191/1/35 192/1/37
f 193/1/36 194/1/36 195/1/34
f 196/1/37 197/1/37 198/1/35
f 199/1/38 200/1/38 201/1/36
f 202/1/36 203/1/36 204/1/38
f 205/1/37 206/1/37 207/1/39
f 208/1/38 209/1/38 210/1/39
f 211/1/39 212/1/39 213/1/37
f 214/1/39 215/1/39 216/1/38
usemtl material_1_0
f 217/1/40 218/1/41 219/1/41
f 220/1/41 221/1/42 222/1/42
f 223/1/42 224/1/43 225/1/43
f 226/1/44 227/1/45 228/1/45
f 229/1/45 230/1/46 231/1/45
f 232/1/47 233/1/48 234/1/47
f 235/1/41 236/1/40 237/1/40
f 238/1/42 239/1/41 240/1/41
f 241/1/43 242/1/42 243/1/42
f 244/1/43 245/1/49 246/1/49
f 247/1/49 248/1/43 249/1/43
f 250/1/50 251/1/44 252/1/44
f 253/1/45 254/1/44 255/1/44
f 256/1/46 257/1/45 258/1/46
f 259/1/51 260/1/47 261/1/51
f 262/1/48 263/1/47 264/1/48
f 265/1/47 266/1/51 267/1/47
f 268/1/48 269/1/40 270/1/48
f 271/1/40 272/1/48 273/1/40
f 274/1/49 275/1/52 276/1/52
f 277/1/52 278/1/49 279/1/49
f 280/1/53 281/1/50 282/1/50
f 283/1/44 284/1/50 285/1/50
f 286/1/46 287/1/54 288/1/46
f 289/1/54 290/1/55 291/1/54
f 292/1/55 293/1/56 294/1/55
f 295/1/57 296/1/51 297/1/57
f 298/1/58 299/1/57 300/1/58
f 301/1/51 302/1/57 303/1/51
f 304/1/52 305/1/59 306/1/59
f 307/1/59 308/1/52 309/1/52
f 310/1/60 311/1/61 312/1/61
f 313/1/61 314/1/60 315/1/60
f 316/1/62 317/1/53 318/1/53
f 319/1/50 320/1/53 321/1/53
f 322/1/54 323/1/46 324/1/54
f 325/1/55 326/1/54 327/1/55
f 328/1/56 329/1/55 330/1/56
f 331/1/56 332/1/63 333/1/56
f 334/1/57 335/1/58 336/1/57
f 337/1/58 338/1/64 339/1/58
f 340/1/65 341/1/66 342/1/66
f 343/1/67 344/1/60 345/1/60
f 346/1/68 347/1/62 348/1/62
f 349/1/53 350/1/62 351/1/62
f 352/1/63 353/1/56 354/1/63
f 355/1/64 356/1/58 357/1/64
f 358/1/66 359/1/65 360/1/65
f 361/1/68 362/1/69 363/1/69
f 364/1/60 365/1/67 366/1/67
f 367/1/69 368/1/68 369/1/68
f 370/1/62 371/1/68 372/1/68
f 373/1/63 374/1/70 375/1/63
f 376/1/71 377/1/65 378/1/65
f 379/1/72 380/1/67 381/1/67
f 382/1/70 383/1/63 384/1/70
f 385/1/65 386/1/71 387/1/71
f 388/1/67 389/1/72 390/1/72
f 391/1/73 392/1/71 393/1/71
f 394/1/74 395/1/72 396/1/72
f 397/1/71 398/1/73 399/1/73
f 400/1/72 401/1/74 402/1/74
f 403/1/75 404/1/73 405/1/73
f 406/1/76 407/1/74 408/1/74
f 409/1/73 410/1/75 411/1/75
f 412/1/74 413/1/76 414/1/76
f 415/1/75 416/1/77 417/1/77
f 418/1/77 419/1/75 420/1/75
f 421/1/78 422/1/76 423/1/76
f 424/1/78 425/1/77 426/1/77
f 427/1/76 428/1/78 429/1/78
f 430/1/77 431/1/78 432/1/78
