# SSTK version 0.8.0
# 37
mtllib original-37.mtl
o mesh30/mesh30-geometry#mesh30-geometry
v 0.026444 -0.492350 0.051287
v 0.022237 -0.526616 0.051287
v 0.022237 -0.492350 0.051287
v 0.026444 -0.526616 0.051287
v 0.026444 -0.511890 0.051287
v 0.026444 -0.516776 0.051287
v 0.036401 -0.501793 0.051287
v 0.029412 -0.513924 0.051287
v 0.032358 -0.511002 0.051287
v 0.041848 -0.501793 0.051287
v 0.037617 -0.526616 0.051287
v 0.042806 -0.526616 0.051287
vn 0 0 -1
vn 0 0 1
usemtl material_0_0
f 1//1 2//1 3//1
f 2//1 1//1 4//1
f 3//2 2//2 1//2
f 4//2 1//2 2//2
f 4//1 1//1 5//1
f 5//2 1//2 4//2
f 4//1 5//1 6//1
f 6//2 5//2 4//2
f 7//1 6//1 5//1
f 5//2 6//2 7//2
f 6//1 7//1 8//1
f 8//2 7//2 6//2
f 8//1 7//1 9//1
f 9//2 7//2 8//2
f 9//1 7//1 10//1
f 10//2 7//2 9//2
f 9//1 11//1 8//1
f 8//2 11//2 9//2
f 11//1 9//1 12//1
f 12//2 9//2 11//2
