# SSTK version 0.8.0
# 46
mtllib original-46.mtl
o mesh37/mesh37-geometry#mesh37-geometry
v -0.232497 -0.602920 0.051287
v -0.236331 -0.637256 0.051287
v -0.236331 -0.602920 0.051287
v -0.232520 -0.615472 0.051287
v -0.232497 -0.606146 0.051287
v -0.232123 -0.637256 0.051287
v -0.232391 -0.613218 0.051287
v -0.232399 -0.617712 0.051287
v -0.231054 -0.604489 0.051287
v -0.232123 -0.625172 0.051287
v -0.232003 -0.611250 0.051287
v -0.232036 -0.619638 0.051287
v -0.231357 -0.609566 0.051287
v -0.230899 -0.626411 0.051287
v -0.230452 -0.608167 0.051287
v -0.231429 -0.621252 0.051287
v -0.229435 -0.603306 0.051287
v -0.230580 -0.622554 0.051287
v -0.229379 -0.607068 0.051287
v -0.229377 -0.627416 0.051287
v -0.227548 -0.602596 0.051287
v -0.229559 -0.623556 0.051287
v -0.228228 -0.606283 0.051287
v -0.228436 -0.624272 0.051287
v -0.227000 -0.605812 0.051287
v -0.227597 -0.628082 0.051287
v -0.225298 -0.602359 0.051287
v -0.227210 -0.624702 0.051287
v -0.225696 -0.605655 0.051287
v -0.225602 -0.628304 0.051287
v -0.224387 -0.605802 0.051287
v -0.225882 -0.624845 0.051287
v -0.222306 -0.602768 0.051287
v -0.224530 -0.624696 0.051287
v -0.223174 -0.606245 0.051287
v -0.222794 -0.627898 0.051287
v -0.222056 -0.606983 0.051287
v -0.223279 -0.624252 0.051287
v -0.219688 -0.603995 0.051287
v -0.222129 -0.623510 0.051287
v -0.221032 -0.608015 0.051287
v -0.220121 -0.626680 0.051287
v -0.220178 -0.609345 0.051287
v -0.221079 -0.622472 0.051287
v -0.219568 -0.610973 0.051287
v -0.220205 -0.621123 0.051287
v -0.217555 -0.605967 0.051287
v -0.219580 -0.619448 0.051287
v -0.219202 -0.612898 0.051287
v -0.217824 -0.624699 0.051287
v -0.219080 -0.615121 0.051287
v -0.219205 -0.617448 0.051287
v -0.216147 -0.622005 0.051287
v -0.216019 -0.608612 0.051287
v -0.215122 -0.618764 0.051287
v -0.215089 -0.611735 0.051287
v -0.214780 -0.615144 0.051287
vn 0 0 -1
vn 0 0 1
usemtl material_0_0
f 1//1 2//1 3//1
f 2//1 1//1 4//1
f 3//2 2//2 1//2
f 4//2 1//2 2//2
f 4//1 1//1 5//1
f 5//2 1//2 4//2
f 4//1 6//1 2//1
f 2//2 6//2 4//2
f 4//1 5//1 7//1
f 7//2 5//2 4//2
f 6//1 4//1 8//1
f 8//2 4//2 6//2
f 7//1 5//1 9//1
f 9//2 5//2 7//2
f 6//1 8//1 10//1
f 10//2 8//2 6//2
f 7//1 9//1 11//1
f 11//2 9//2 7//2
f 12//1 10//1 8//1
f 8//2 10//2 12//2
f 11//1 9//1 13//1
f 13//2 9//2 11//2
f 10//1 12//1 14//1
f 14//2 12//2 10//2
f 13//1 9//1 15//1
f 15//2 9//2 13//2
f 14//1 12//1 16//1
f 16//2 12//2 14//2
f 15//1 9//1 17//1
f 17//2 9//2 15//2
f 14//1 16//1 18//1
f 18//2 16//2 14//2
f 15//1 17//1 19//1
f 19//2 17//2 15//2
f 14//1 18//1 20//1
f 20//2 18//2 14//2
f 19//1 17//1 21//1
f 21//2 17//2 19//2
f 20//1 18//1 22//1
f 22//2 18//2 20//2
f 19//1 21//1 23//1
f 23//2 21//2 19//2
f 20//1 22//1 24//1
f 24//2 22//2 20//2
f 23//1 21//1 25//1
f 25//2 21//2 23//2
f 20//1 24//1 26//1
f 26//2 24//2 20//2
f 25//1 21//1 27//1
f 27//2 21//2 25//2
f 26//1 24//1 28//1
f 28//2 24//2 26//2
f 25//1 27//1 29//1
f 29//2 27//2 25//2
f 26//1 28//1 30//1
f 30//2 28//2 26//2
f 29//1 27//1 31//1
f 31//2 27//2 29//2
f 30//1 28//1 32//1
f 32//2 28//2 30//2
f 31//1 27//1 33//1
f 33//2 27//2 31//2
f 30//1 32//1 34//1
f 34//2 32//2 30//2
f 31//1 33//1 35//1
f 35//2 33//2 31//2
f 30//1 34//1 36//1
f 36//2 34//2 30//2
f 35//1 33//1 37//1
f 37//2 33//2 35//2
f 36//1 34//1 38//1
f 38//2 34//2 36//2
f 37//1 33//1 39//1
f 39//2 33//2 37//2
f 36//1 38//1 40//1
f 40//2 38//2 36//2
f 37//1 39//1 41//1
f 41//2 39//2 37//2
f 36//1 40//1 42//1
f 42//2 40//2 36//2
f 41//1 39//1 43//1
f 43//2 39//2 41//2
f 42//1 40//1 44//1
f 44//2 40//2 42//2
f 43//1 39//1 45//1
f 45//2 39//2 43//2
f 42//1 44//1 46//1
f 46//2 44//2 42//2
f 45//1 39//1 47//1
f 47//2 39//2 45//2
f 42//1 46//1 48//1
f 48//2 46//2 42//2
f 45//1 47//1 49//1
f 49//2 47//2 45//2
f 42//1 48//1 50//1
f 50//2 48//2 42//2
f 49//1 47//1 51//1
f 51//2 47//2 49//2
f 50//1 48//1 52//1
f 52//2 48//2 50//2
f 51//1 47//1 50//1
f 50//2 47//2 51//2
f 50//1 52//1 51//1
f 51//2 52//2 50//2
f 50//1 47//1 53//1
f 53//2 47//2 50//2
f 53//1 47//1 54//1
f 54//2 47//2 53//2
f 53//1 54//1 55//1
f 55//2 54//2 53//2
f 55//1 54//1 56//1
f 56//2 54//2 55//2
f 55//1 56//1 57//1
f 57//2 56//2 55//2
