# SSTK version 0.8.0
# 73
mtllib original-73.mtl
o mesh59/mesh59-geometry#mesh59-geometry
v 0.225801 -0.697883 0.051287
v 0.225649 -0.714467 0.051287
v 0.224320 -0.700831 0.051287
v 0.225900 -0.710061 0.051287
v 0.226409 -0.732161 0.051287
v 0.226654 -0.705678 0.051287
v 0.223733 -0.726645 0.051287
v 0.226086 -0.720087 0.051287
v 0.229623 -0.692005 0.051287
v 0.223125 -0.703785 0.051287
v 0.227396 -0.725704 0.051287
v 0.227625 -0.702242 0.051287
v 0.222679 -0.723673 0.051287
v 0.229623 -0.736929 0.051287
v 0.228898 -0.698947 0.051287
v 0.221927 -0.720649 0.051287
v 0.229580 -0.731318 0.051287
v 0.232638 -0.692005 0.051287
v 0.221775 -0.708997 0.051287
v 0.232638 -0.736929 0.051287
v 0.221475 -0.717572 0.051287
v 0.221325 -0.714443 0.051287
vn 0 0 -1
vn 0 0 1
usemtl material_0_0
f 1//1 2//1 3//1
f 2//1 1//1 4//1
f 3//2 2//2 1//2
f 4//2 1//2 2//2
f 5//1 3//1 2//1
f 2//2 3//2 5//2
f 4//1 1//1 6//1
f 6//2 1//2 4//2
f 7//1 3//1 5//1
f 5//2 3//2 7//2
f 5//1 2//1 8//1
f 8//2 2//2 5//2
f 6//1 1//1 9//1
f 9//2 1//2 6//2
f 7//1 10//1 3//1
f 3//2 10//2 7//2
f 5//1 8//1 11//1
f 11//2 8//2 5//2
f 6//1 9//1 12//1
f 12//2 9//2 6//2
f 13//1 10//1 7//1
f 7//2 10//2 13//2
f 5//1 11//1 14//1
f 14//2 11//2 5//2
f 12//1 9//1 15//1
f 15//2 9//2 12//2
f 16//1 10//1 13//1
f 13//2 10//2 16//2
f 14//1 11//1 17//1
f 17//2 11//2 14//2
f 15//1 9//1 18//1
f 18//2 9//2 15//2
f 16//1 19//1 10//1
f 10//2 19//2 16//2
f 14//1 17//1 20//1
f 20//2 17//2 14//2
f 21//1 19//1 16//1
f 16//2 19//2 21//2
f 19//1 21//1 22//1
f 22//2 21//2 19//2
