# SSTK version 0.8.0
# 19
mtllib original-19.mtl
o mesh15/mesh15-geometry#mesh15-geometry
v -0.001287 -0.416034 0.051287
v -0.001085 -0.421419 0.051287
v -0.001232 -0.422467 0.051287
v 0.000311 -0.415455 0.051287
v -0.002305 -0.428566 0.051287
v -0.000647 -0.420469 0.051287
v -0.002716 -0.416834 0.051287
v -0.000852 -0.429191 0.051287
v 0.000060 -0.419677 0.051287
v -0.003522 -0.427692 0.051287
v -0.000913 -0.424010 0.051287
v 0.001013 -0.419101 0.051287
v -0.003931 -0.417895 0.051287
v 0.000043 -0.425272 0.051287
v 0.004051 -0.414824 0.051287
v -0.004483 -0.426623 0.051287
v 0.000839 -0.429565 0.051287
v 0.004682 -0.418260 0.051287
v -0.004890 -0.419253 0.051287
v 0.001611 -0.426114 0.051287
v 0.008474 -0.414158 0.051287
v -0.005170 -0.425416 0.051287
v 0.002765 -0.429690 0.051287
v 0.008691 -0.417536 0.051287
v -0.005512 -0.420840 0.051287
v 0.003771 -0.426394 0.051287
v 0.011554 -0.413375 0.051287
v -0.005582 -0.424069 0.051287
v 0.005164 -0.429485 0.051287
v 0.011554 -0.416671 0.051287
v -0.005719 -0.422584 0.051287
v 0.006067 -0.426128 0.051287
v 0.011577 -0.412276 0.051287
v 0.007405 -0.428872 0.051287
v 0.011554 -0.418214 0.051287
v 0.008095 -0.425331 0.051287
v 0.011905 -0.426067 0.051287
v 0.009611 -0.427762 0.051287
v 0.011385 -0.420656 0.051287
v 0.013091 -0.405338 0.051287
v 0.009737 -0.424072 0.051287
v 0.010876 -0.422421 0.051287
v 0.011367 -0.404493 0.051287
v 0.012208 -0.427709 0.051287
v 0.011279 -0.410085 0.051287
v 0.012746 -0.429129 0.051287
v 0.010385 -0.408653 0.051287
v 0.016077 -0.426149 0.051287
v 0.009083 -0.403932 0.051287
v 0.014289 -0.406374 0.051287
v 0.016477 -0.427671 0.051287
v 0.008381 -0.407584 0.051287
v 0.015084 -0.407657 0.051287
v 0.017141 -0.429129 0.051287
v 0.006201 -0.403745 0.051287
v 0.015808 -0.418728 0.051287
v 0.005594 -0.407228 0.051287
v 0.015598 -0.409238 0.051287
v 0.003192 -0.403964 0.051287
v 0.015808 -0.413118 0.051287
v 0.003014 -0.407488 0.051287
v 0.001211 -0.408268 0.051287
v 0.000568 -0.404622 0.051287
v -0.000019 -0.409708 0.051287
v -0.000881 -0.411949 0.051287
v -0.001576 -0.405685 0.051287
v -0.003148 -0.407123 0.051287
v -0.004252 -0.409001 0.051287
v -0.004995 -0.411388 0.051287
vn 0 0 -1
vn 0 0 1
usemtl material_0_0
f 1//1 2//1 3//1
f 2//1 1//1 4//1
f 3//2 2//2 1//2
f 4//2 1//2 2//2
f 5//1 1//1 3//1
f 3//2 1//2 5//2
f 2//1 4//1 6//1
f 6//2 4//2 2//2
f 5//1 7//1 1//1
f 1//2 7//2 5//2
f 5//1 3//1 8//1
f 8//2 3//2 5//2
f 6//1 4//1 9//1
f 9//2 4//2 6//2
f 10//1 7//1 5//1
f 5//2 7//2 10//2
f 8//1 3//1 11//1
f 11//2 3//2 8//2
f 9//1 4//1 12//1
f 12//2 4//2 9//2
f 10//1 13//1 7//1
f 7//2 13//2 10//2
f 8//1 11//1 14//1
f 14//2 11//2 8//2
f 12//1 4//1 15//1
f 15//2 4//2 12//2
f 16//1 13//1 10//1
f 10//2 13//2 16//2
f 8//1 14//1 17//1
f 17//2 14//2 8//2
f 12//1 15//1 18//1
f 18//2 15//2 12//2
f 16//1 19//1 13//1
f 13//2 19//2 16//2
f 17//1 14//1 20//1
f 20//2 14//2 17//2
f 18//1 15//1 21//1
f 21//2 15//2 18//2
f 22//1 19//1 16//1
f 16//2 19//2 22//2
f 17//1 20//1 23//1
f 23//2 20//2 17//2
f 18//1 21//1 24//1
f 24//2 21//2 18//2
f 22//1 25//1 19//1
f 19//2 25//2 22//2
f 23//1 20//1 26//1
f 26//2 20//2 23//2
f 24//1 21//1 27//1
f 27//2 21//2 24//2
f 28//1 25//1 22//1
f 22//2 25//2 28//2
f 23//1 26//1 29//1
f 29//2 26//2 23//2
f 24//1 27//1 30//1
f 30//2 27//2 24//2
f 25//1 28//1 31//1
f 31//2 28//2 25//2
f 29//1 26//1 32//1
f 32//2 26//2 29//2
f 30//1 27//1 33//1
f 33//2 27//2 30//2
f 29//1 32//1 34//1
f 34//2 32//2 29//2
f 30//1 33//1 35//1
f 35//2 33//2 30//2
f 34//1 32//1 36//1
f 36//2 32//2 34//2
f 37//1 35//1 33//1
f 33//2 35//2 37//2
f 34//1 36//1 38//1
f 38//2 36//2 34//2
f 37//1 39//1 35//1
f 35//2 39//2 37//2
f 33//1 40//1 37//1
f 37//2 40//2 33//2
f 38//1 36//1 41//1
f 41//2 36//2 38//2
f 37//1 42//1 39//1
f 39//2 42//2 37//2
f 33//1 43//1 40//1
f 40//2 43//2 33//2
f 37//1 40//1 44//1
f 44//2 40//2 37//2
f 38//1 41//1 37//1
f 37//2 41//2 38//2
f 37//1 41//1 42//1
f 42//2 41//2 37//2
f 45//1 43//1 33//1
f 33//2 43//2 45//2
f 44//1 40//1 46//1
f 46//2 40//2 44//2
f 47//1 43//1 45//1
f 45//2 43//2 47//2
f 46//1 40//1 48//1
f 48//2 40//2 46//2
f 47//1 49//1 43//1
f 43//2 49//2 47//2
f 48//1 40//1 50//1
f 50//2 40//2 48//2
f 46//1 48//1 51//1
f 51//2 48//2 46//2
f 52//1 49//1 47//1
f 47//2 49//2 52//2
f 48//1 50//1 53//1
f 53//2 50//2 48//2
f 46//1 51//1 54//1
f 54//2 51//2 46//2
f 52//1 55//1 49//1
f 49//2 55//2 52//2
f 48//1 53//1 56//1
f 56//2 53//2 48//2
f 57//1 55//1 52//1
f 52//2 55//2 57//2
f 56//1 53//1 58//1
f 58//2 53//2 56//2
f 57//1 59//1 55//1
f 55//2 59//2 57//2
f 56//1 58//1 60//1
f 60//2 58//2 56//2
f 61//1 59//1 57//1
f 57//2 59//2 61//2
f 62//1 59//1 61//1
f 61//2 59//2 62//2
f 62//1 63//1 59//1
f 59//2 63//2 62//2
f 64//1 63//1 62//1
f 62//2 63//2 64//2
f 65//1 63//1 64//1
f 64//2 63//2 65//2
f 65//1 66//1 63//1
f 63//2 66//2 65//2
f 65//1 67//1 66//1
f 66//2 67//2 65//2
f 65//1 68//1 67//1
f 67//2 68//2 65//2
f 68//1 65//1 69//1
f 69//2 65//2 68//2
