# SSTK version 0.8.0
# 40
mtllib original-40.mtl
o mesh32/mesh32-geometry#mesh32-geometry
v 0.176724 -0.496376 0.051287
v 0.177559 -0.504633 0.051287
v 0.177238 -0.509185 0.051287
v 0.178463 -0.494658 0.051287
v 0.176373 -0.523572 0.051287
v 0.178430 -0.501261 0.051287
v 0.175118 -0.498970 0.051287
v 0.178154 -0.525264 0.051287
v 0.179785 -0.498812 0.051287
v 0.174921 -0.521324 0.051287
v 0.177892 -0.515753 0.051287
v 0.180481 -0.493431 0.051287
v 0.173971 -0.502243 0.051287
v 0.178017 -0.514173 0.051287
v 0.178123 -0.517880 0.051287
v 0.181562 -0.497031 0.051287
v 0.173884 -0.518450 0.051287
v 0.178927 -0.507169 0.051287
v 0.178816 -0.519914 0.051287
v 0.182776 -0.492695 0.051287
v 0.173283 -0.506193 0.051287
v 0.178389 -0.512752 0.051287
v 0.180177 -0.526473 0.051287
v 0.183204 -0.496189 0.051287
v 0.173262 -0.514949 0.051287
v 0.179010 -0.511491 0.051287
v 0.179923 -0.521664 0.051287
v 0.185349 -0.492449 0.051287
v 0.173054 -0.510821 0.051287
v 0.180954 -0.505749 0.051287
v 0.181399 -0.522941 0.051287
v 0.185092 -0.495909 0.051287
v 0.179879 -0.510389 0.051287
v 0.182443 -0.527198 0.051287
v 0.187394 -0.496358 0.051287
v 0.180927 -0.509494 0.051287
v 0.183099 -0.523721 0.051287
v 0.187279 -0.492591 0.051287
v 0.182082 -0.508855 0.051287
v 0.184951 -0.527440 0.051287
v 0.189027 -0.493016 0.051287
v 0.183204 -0.504907 0.051287
v 0.184881 -0.523980 0.051287
v 0.189299 -0.497709 0.051287
v 0.183346 -0.508471 0.051287
v 0.186167 -0.523846 0.051287
v 0.190592 -0.493725 0.051287
v 0.185559 -0.504627 0.051287
v 0.187873 -0.527072 0.051287
v 0.190211 -0.499169 0.051287
v 0.184718 -0.508344 0.051287
v 0.187359 -0.523443 0.051287
v 0.190889 -0.501308 0.051287
v 0.186094 -0.508471 0.051287
v 0.188457 -0.522771 0.051287
v 0.191975 -0.494717 0.051287
v 0.187585 -0.504820 0.051287
v 0.190468 -0.525967 0.051287
v 0.195072 -0.500981 0.051287
v 0.187347 -0.508855 0.051287
v 0.189462 -0.521830 0.051287
v 0.193138 -0.495958 0.051287
v 0.188478 -0.509494 0.051287
v 0.190301 -0.520659 0.051287
v 0.194041 -0.497416 0.051287
v 0.189454 -0.505402 0.051287
v 0.190900 -0.519294 0.051287
v 0.194686 -0.499091 0.051287
v 0.189486 -0.510389 0.051287
v 0.192639 -0.524170 0.051287
v 0.191167 -0.506369 0.051287
v 0.191259 -0.517737 0.051287
v 0.190314 -0.511505 0.051287
v 0.191379 -0.515987 0.051287
v 0.190906 -0.512811 0.051287
v 0.192723 -0.507724 0.051287
v 0.191261 -0.514305 0.051287
v 0.194289 -0.521725 0.051287
v 0.194017 -0.509386 0.051287
v 0.194941 -0.511274 0.051287
v 0.195332 -0.518842 0.051287
v 0.195495 -0.513389 0.051287
v 0.195680 -0.515730 0.051287
vn 0 0 -1
vn 0 0 1
usemtl material_0_0
f 1//1 2//1 3//1
f 2//1 1//1 4//1
f 3//2 2//2 1//2
f 4//2 1//2 2//2
f 5//1 1//1 3//1
f 3//2 1//2 5//2
f 2//1 4//1 6//1
f 6//2 4//2 2//2
f 5//1 7//1 1//1
f 1//2 7//2 5//2
f 5//1 3//1 8//1
f 8//2 3//2 5//2
f 6//1 4//1 9//1
f 9//2 4//2 6//2
f 10//1 7//1 5//1
f 5//2 7//2 10//2
f 8//1 3//1 11//1
f 11//2 3//2 8//2
f 9//1 4//1 12//1
f 12//2 4//2 9//2
f 10//1 13//1 7//1
f 7//2 13//2 10//2
f 3//1 14//1 11//1
f 11//2 14//2 3//2
f 8//1 11//1 15//1
f 15//2 11//2 8//2
f 9//1 12//1 16//1
f 16//2 12//2 9//2
f 17//1 13//1 10//1
f 10//2 13//2 17//2
f 14//1 3//1 18//1
f 18//2 3//2 14//2
f 8//1 15//1 19//1
f 19//2 15//2 8//2
f 16//1 12//1 20//1
f 20//2 12//2 16//2
f 17//1 21//1 13//1
f 13//2 21//2 17//2
f 14//1 18//1 22//1
f 22//2 18//2 14//2
f 8//1 19//1 23//1
f 23//2 19//2 8//2
f 16//1 20//1 24//1
f 24//2 20//2 16//2
f 25//1 21//1 17//1
f 17//2 21//2 25//2
f 22//1 18//1 26//1
f 26//2 18//2 22//2
f 23//1 19//1 27//1
f 27//2 19//2 23//2
f 24//1 20//1 28//1
f 28//2 20//2 24//2
f 21//1 25//1 29//1
f 29//2 25//2 21//2
f 26//1 18//1 30//1
f 30//2 18//2 26//2
f 23//1 27//1 31//1
f 31//2 27//2 23//2
f 24//1 28//1 32//1
f 32//2 28//2 24//2
f 26//1 30//1 33//1
f 33//2 30//2 26//2
f 23//1 31//1 34//1
f 34//2 31//2 23//2
f 32//1 28//1 35//1
f 35//2 28//2 32//2
f 33//1 30//1 36//1
f 36//2 30//2 33//2
f 34//1 31//1 37//1
f 37//2 31//2 34//2
f 35//1 28//1 38//1
f 38//2 28//2 35//2
f 36//1 30//1 39//1
f 39//2 30//2 36//2
f 34//1 37//1 40//1
f 40//2 37//2 34//2
f 35//1 38//1 41//1
f 41//2 38//2 35//2
f 39//1 30//1 42//1
f 42//2 30//2 39//2
f 40//1 37//1 43//1
f 43//2 37//2 40//2
f 35//1 41//1 44//1
f 44//2 41//2 35//2
f 39//1 42//1 45//1
f 45//2 42//2 39//2
f 40//1 43//1 46//1
f 46//2 43//2 40//2
f 44//1 41//1 47//1
f 47//2 41//2 44//2
f 45//1 42//1 48//1
f 48//2 42//2 45//2
f 40//1 46//1 49//1
f 49//2 46//2 40//2
f 44//1 47//1 50//1
f 50//2 47//2 44//2
f 45//1 48//1 51//1
f 51//2 48//2 45//2
f 49//1 46//1 52//1
f 52//2 46//2 49//2
f 50//1 47//1 53//1
f 53//2 47//2 50//2
f 51//1 48//1 54//1
f 54//2 48//2 51//2
f 49//1 52//1 55//1
f 55//2 52//2 49//2
f 53//1 47//1 56//1
f 56//2 47//2 53//2
f 54//1 48//1 57//1
f 57//2 48//2 54//2
f 49//1 55//1 58//1
f 58//2 55//2 49//2
f 53//1 56//1 59//1
f 59//2 56//2 53//2
f 54//1 57//1 60//1
f 60//2 57//2 54//2
f 58//1 55//1 61//1
f 61//2 55//2 58//2
f 59//1 56//1 62//1
f 62//2 56//2 59//2
f 60//1 57//1 63//1
f 63//2 57//2 60//2
f 58//1 61//1 64//1
f 64//2 61//2 58//2
f 59//1 62//1 65//1
f 65//2 62//2 59//2
f 63//1 57//1 66//1
f 66//2 57//2 63//2
f 58//1 64//1 67//1
f 67//2 64//2 58//2
f 59//1 65//1 68//1
f 68//2 65//2 59//2
f 63//1 66//1 69//1
f 69//2 66//2 63//2
f 58//1 67//1 70//1
f 70//2 67//2 58//2
f 69//1 66//1 71//1
f 71//2 66//2 69//2
f 70//1 67//1 72//1
f 72//2 67//2 70//2
f 69//1 71//1 73//1
f 73//2 71//2 69//2
f 70//1 72//1 74//1
f 74//2 72//2 70//2
f 73//1 71//1 75//1
f 75//2 71//2 73//2
f 74//1 76//1 70//1
f 70//2 76//2 74//2
f 75//1 71//1 77//1
f 77//2 71//2 75//2
f 77//1 76//1 74//1
f 74//2 76//2 77//2
f 70//1 76//1 78//1
f 78//2 76//2 70//2
f 77//1 71//1 76//1
f 76//2 71//2 77//2
f 78//1 76//1 79//1
f 79//2 76//2 78//2
f 78//1 79//1 80//1
f 80//2 79//2 78//2
f 78//1 80//1 81//1
f 81//2 80//2 78//2
f 81//1 80//1 82//1
f 82//2 80//2 81//2
f 81//1 82//1 83//1
f 83//2 82//2 81//2
