# SSTK version 0.8.0
# 81
mtllib original-81.mtl
o mesh66/mesh66-geometry#mesh66-geometry
v -0.195446 0.883607 0.006852
v -0.198942 0.883607 0.005071
v -0.195446 0.883607 -0.008243
v -0.205357 0.883607 0.006852
v -0.198942 0.883607 -0.006462
v -0.204222 0.883607 0.005071
v -0.205519 0.883607 -0.008243
v -0.198942 0.883607 0.000509
v -0.206650 0.883607 0.005018
v -0.205519 0.883607 -0.006462
v -0.198942 0.883607 -0.001272
v -0.208085 0.883607 0.006738
v -0.207898 0.883607 -0.006390
v -0.204654 0.883607 0.000509
v -0.208240 0.883607 0.004860
v -0.207846 0.883607 -0.008180
v -0.205051 0.883607 -0.001272
v -0.210213 0.883607 0.006394
v -0.209781 0.883607 -0.007991
v -0.206650 0.883607 0.000553
v -0.209276 0.883607 0.004558
v -0.209006 0.883607 -0.006225
v -0.207278 0.883607 -0.001335
v -0.210042 0.883607 0.004077
v -0.209916 0.883607 -0.005978
v -0.207988 0.883607 0.000684
v -0.210515 0.883607 0.003461
v -0.211373 0.883607 -0.007678
v -0.208916 0.883607 -0.001524
v -0.211844 0.883607 0.005812
v -0.210655 0.883607 -0.005624
v -0.209157 0.883607 0.000986
v -0.210673 0.883607 0.002754
v -0.211249 0.883607 -0.005139
v -0.210112 0.883607 -0.001869
v -0.212042 0.883607 0.000396
v -0.211642 0.883607 -0.004545
v -0.209997 0.883607 0.001436
v -0.210504 0.883607 0.002028
v -0.213078 0.883607 0.004983
v -0.212673 0.883607 -0.007244
v -0.210420 0.883607 -0.000212
v -0.213195 0.883607 0.001168
v -0.211772 0.883607 -0.003867
v -0.213855 0.883607 0.004009
v -0.212540 0.883607 -0.000755
v -0.211015 0.883607 -0.002400
v -0.213885 0.883607 0.002051
v -0.211583 0.883607 -0.003078
v -0.214105 0.883607 -0.001581
v -0.214115 0.883607 0.002991
v -0.213734 0.883607 -0.006646
v -0.214610 0.883607 -0.005839
v -0.215072 0.883607 -0.002636
v -0.215198 0.883607 -0.004890
v -0.215394 0.883607 -0.003867
vn 0 -1 0
vn 0 1 0
usemtl material_0_0
f 1//1 2//1 3//1
f 2//1 1//1 4//1
f 3//2 2//2 1//2
f 4//2 1//2 2//2
f 5//1 3//1 2//1
f 2//2 3//2 5//2
f 2//1 4//1 6//1
f 6//2 4//2 2//2
f 3//1 5//1 7//1
f 7//2 5//2 3//2
f 5//1 2//1 8//1
f 8//2 2//2 5//2
f 6//1 4//1 9//1
f 9//2 4//2 6//2
f 7//1 5//1 10//1
f 10//2 5//2 7//2
f 5//1 8//1 11//1
f 11//2 8//2 5//2
f 9//1 4//1 12//1
f 12//2 4//2 9//2
f 7//1 10//1 13//1
f 13//2 10//2 7//2
f 14//1 11//1 8//1
f 8//2 11//2 14//2
f 9//1 12//1 15//1
f 15//2 12//2 9//2
f 7//1 13//1 16//1
f 16//2 13//2 7//2
f 11//1 14//1 17//1
f 17//2 14//2 11//2
f 15//1 12//1 18//1
f 18//2 12//2 15//2
f 16//1 13//1 19//1
f 19//2 13//2 16//2
f 17//1 14//1 20//1
f 20//2 14//2 17//2
f 15//1 18//1 21//1
f 21//2 18//2 15//2
f 19//1 13//1 22//1
f 22//2 13//2 19//2
f 17//1 20//1 23//1
f 23//2 20//2 17//2
f 21//1 18//1 24//1
f 24//2 18//2 21//2
f 19//1 22//1 25//1
f 25//2 22//2 19//2
f 23//1 20//1 26//1
f 26//2 20//2 23//2
f 24//1 18//1 27//1
f 27//2 18//2 24//2
f 19//1 25//1 28//1
f 28//2 25//2 19//2
f 23//1 26//1 29//1
f 29//2 26//2 23//2
f 27//1 18//1 30//1
f 30//2 18//2 27//2
f 28//1 25//1 31//1
f 31//2 25//2 28//2
f 29//1 26//1 32//1
f 32//2 26//2 29//2
f 27//1 30//1 33//1
f 33//2 30//2 27//2
f 28//1 31//1 34//1
f 34//2 31//2 28//2
f 29//1 32//1 35//1
f 35//2 32//2 29//2
f 36//1 33//1 30//1
f 30//2 33//2 36//2
f 28//1 34//1 37//1
f 37//2 34//2 28//2
f 35//1 32//1 38//1
f 38//2 32//2 35//2
f 36//1 39//1 33//1
f 33//2 39//2 36//2
f 36//1 30//1 40//1
f 40//2 30//2 36//2
f 28//1 37//1 41//1
f 41//2 37//2 28//2
f 35//1 38//1 39//1
f 39//2 38//2 35//2
f 42//1 39//1 36//1
f 36//2 39//2 42//2
f 36//1 40//1 43//1
f 43//2 40//2 36//2
f 41//1 37//1 44//1
f 44//2 37//2 41//2
f 35//1 39//1 42//1
f 42//2 39//2 35//2
f 43//1 40//1 45//1
f 45//2 40//2 43//2
f 41//1 44//1 46//1
f 46//2 44//2 41//2
f 42//1 47//1 35//1
f 35//2 47//2 42//2
f 43//1 45//1 48//1
f 48//2 45//2 43//2
f 49//1 46//1 44//1
f 44//2 46//2 49//2
f 41//1 46//1 50//1
f 50//2 46//2 41//2
f 47//1 42//1 46//1
f 46//2 42//2 47//2
f 48//1 45//1 51//1
f 51//2 45//2 48//2
f 47//1 46//1 49//1
f 49//2 46//2 47//2
f 41//1 50//1 52//1
f 52//2 50//2 41//2
f 52//1 50//1 53//1
f 53//2 50//2 52//2
f 53//1 50//1 54//1
f 54//2 50//2 53//2
f 53//1 54//1 55//1
f 55//2 54//2 53//2
f 55//1 54//1 56//1
f 56//2 54//2 55//2
