# SSTK version 0.8.0
# 24
mtllib original-24.mtl
o mesh19/mesh19-geometry#mesh19-geometry
v 0.244960 -0.396305 0.051287
v 0.240776 -0.408599 0.051287
v 0.240776 -0.396305 0.051287
v 0.241004 -0.416155 0.051287
v 0.241127 -0.418533 0.051287
v 0.240636 -0.414115 0.051287
v 0.244960 -0.430571 0.051287
v 0.240022 -0.412415 0.051287
v 0.241057 -0.430571 0.051287
v 0.239514 -0.407223 0.051287
v 0.241057 -0.427439 0.051287
v 0.239163 -0.411054 0.051287
v 0.241007 -0.420699 0.051287
v 0.238125 -0.410011 0.051287
v 0.240645 -0.422568 0.051287
v 0.237925 -0.406133 0.051287
v 0.240042 -0.424141 0.051287
v 0.236972 -0.409266 0.051287
v 0.239738 -0.429055 0.051287
v 0.236049 -0.405423 0.051287
v 0.239199 -0.425417 0.051287
v 0.235706 -0.408818 0.051287
v 0.238182 -0.426404 0.051287
v 0.234325 -0.408669 0.051287
v 0.238141 -0.430208 0.051287
v 0.233928 -0.405187 0.051287
v 0.237063 -0.427109 0.051287
v 0.232980 -0.408813 0.051287
v 0.236267 -0.430901 0.051287
v 0.231751 -0.409242 0.051287
v 0.235839 -0.427531 0.051287
v 0.231012 -0.405590 0.051287
v 0.234512 -0.427673 0.051287
v 0.230637 -0.409958 0.051287
v 0.234114 -0.431132 0.051287
v 0.229638 -0.410960 0.051287
v 0.233190 -0.427525 0.051287
v 0.228815 -0.412271 0.051287
v 0.231958 -0.427082 0.051287
v 0.228388 -0.406799 0.051287
v 0.231266 -0.430723 0.051287
v 0.228227 -0.413911 0.051287
v 0.230817 -0.426344 0.051287
v 0.227874 -0.415882 0.051287
v 0.229767 -0.425312 0.051287
v 0.226448 -0.427535 0.051287
v 0.228888 -0.423981 0.051287
v 0.226220 -0.408766 0.051287
v 0.227757 -0.418183 0.051287
v 0.228657 -0.429496 0.051287
v 0.224800 -0.424926 0.051287
v 0.227883 -0.420417 0.051287
v 0.228260 -0.422349 0.051287
v 0.224671 -0.411439 0.051287
v 0.223775 -0.421773 0.051287
v 0.223743 -0.414639 0.051287
v 0.223433 -0.418183 0.051287
vn 0 0 -1
vn 0 0 1
usemtl material_0_0
f 1//1 2//1 3//1
f 2//1 1//1 4//1
f 3//2 2//2 1//2
f 4//2 1//2 2//2
f 4//1 1//1 5//1
f 5//2 1//2 4//2
f 6//1 2//1 4//1
f 4//2 2//2 6//2
f 7//1 5//1 1//1
f 1//2 5//2 7//2
f 8//1 2//1 6//1
f 6//2 2//2 8//2
f 9//1 5//1 7//1
f 7//2 5//2 9//2
f 8//1 10//1 2//1
f 2//2 10//2 8//2
f 11//1 5//1 9//1
f 9//2 5//2 11//2
f 12//1 10//1 8//1
f 8//2 10//2 12//2
f 11//1 13//1 5//1
f 5//2 13//2 11//2
f 14//1 10//1 12//1
f 12//2 10//2 14//2
f 11//1 15//1 13//1
f 13//2 15//2 11//2
f 14//1 16//1 10//1
f 10//2 16//2 14//2
f 11//1 17//1 15//1
f 15//2 17//2 11//2
f 18//1 16//1 14//1
f 14//2 16//2 18//2
f 19//1 17//1 11//1
f 11//2 17//2 19//2
f 18//1 20//1 16//1
f 16//2 20//2 18//2
f 19//1 21//1 17//1
f 17//2 21//2 19//2
f 22//1 20//1 18//1
f 18//2 20//2 22//2
f 19//1 23//1 21//1
f 21//2 23//2 19//2
f 24//1 20//1 22//1
f 22//2 20//2 24//2
f 25//1 23//1 19//1
f 19//2 23//2 25//2
f 24//1 26//1 20//1
f 20//2 26//2 24//2
f 25//1 27//1 23//1
f 23//2 27//2 25//2
f 28//1 26//1 24//1
f 24//2 26//2 28//2
f 29//1 27//1 25//1
f 25//2 27//2 29//2
f 30//1 26//1 28//1
f 28//2 26//2 30//2
f 29//1 31//1 27//1
f 27//2 31//2 29//2
f 30//1 32//1 26//1
f 26//2 32//2 30//2
f 29//1 33//1 31//1
f 31//2 33//2 29//2
f 34//1 32//1 30//1
f 30//2 32//2 34//2
f 35//1 33//1 29//1
f 29//2 33//2 35//2
f 36//1 32//1 34//1
f 34//2 32//2 36//2
f 35//1 37//1 33//1
f 33//2 37//2 35//2
f 38//1 32//1 36//1
f 36//2 32//2 38//2
f 35//1 39//1 37//1
f 37//2 39//2 35//2
f 38//1 40//1 32//1
f 32//2 40//2 38//2
f 41//1 39//1 35//1
f 35//2 39//2 41//2
f 42//1 40//1 38//1
f 38//2 40//2 42//2
f 41//1 43//1 39//1
f 39//2 43//2 41//2
f 44//1 40//1 42//1
f 42//2 40//2 44//2
f 41//1 45//1 43//1
f 43//2 45//2 41//2
f 46//1 40//1 44//1
f 44//2 40//2 46//2
f 41//1 47//1 45//1
f 45//2 47//2 41//2
f 46//1 48//1 40//1
f 40//2 48//2 46//2
f 46//1 44//1 49//1
f 49//2 44//2 46//2
f 50//1 47//1 41//1
f 41//2 47//2 50//2
f 51//1 48//1 46//1
f 46//2 48//2 51//2
f 52//1 46//1 49//1
f 49//2 46//2 52//2
f 50//1 53//1 47//1
f 47//2 53//2 50//2
f 51//1 54//1 48//1
f 48//2 54//2 51//2
f 46//1 52//1 50//1
f 50//2 52//2 46//2
f 50//1 52//1 53//1
f 53//2 52//2 50//2
f 55//1 54//1 51//1
f 51//2 54//2 55//2
f 55//1 56//1 54//1
f 54//2 56//2 55//2
f 56//1 55//1 57//1
f 57//2 55//2 56//2
