# SSTK version 0.8.0
# 62
mtllib original-62.mtl
o mesh50/mesh50-geometry#mesh50-geometry
v -0.267948 -0.698685 0.051287
v -0.263297 -0.703313 0.051287
v -0.269024 -0.702004 0.051287
v -0.262549 -0.700952 0.051287
v -0.261380 -0.704692 0.051287
v -0.264419 -0.709717 0.051287
v -0.259627 -0.695132 0.051287
v -0.267177 -0.707730 0.051287
v -0.263017 -0.695132 0.051287
v -0.260165 -0.700928 0.051287
v -0.258178 -0.709717 0.051287
v -0.259394 -0.703313 0.051287
v -0.254649 -0.698685 0.051287
v -0.255373 -0.707730 0.051287
v -0.256513 -0.702822 0.051287
v -0.253574 -0.702004 0.051287
vn 0 0 -1
vn 0 0 1
usemtl material_0_0
f 1//1 2//1 3//1
f 2//1 1//1 4//1
f 3//2 2//2 1//2
f 4//2 1//2 2//2
f 5//1 2//1 4//1
f 4//2 2//2 5//2
f 6//1 2//1 5//1
f 5//2 2//2 6//2
f 4//1 7//1 5//1
f 5//2 7//2 4//2
f 2//1 6//1 8//1
f 8//2 6//2 2//2
f 7//1 4//1 9//1
f 9//2 4//2 7//2
f 5//1 7//1 10//1
f 10//2 7//2 5//2
f 10//1 11//1 5//1
f 5//2 11//2 10//2
f 11//1 10//1 12//1
f 12//2 10//2 11//2
f 13//1 12//1 10//1
f 10//2 12//2 13//2
f 11//1 12//1 14//1
f 14//2 12//2 11//2
f 12//1 13//1 15//1
f 15//2 13//2 12//2
f 15//1 13//1 16//1
f 16//2 13//2 15//2
