# SSTK version 0.8.0
# 172
mtllib original-172.mtl
o mesh67/mesh67-geometry/material_9/component_0#mesh67-geometry
v 0.108278 -0.939047 0.001615
v 0.061127 -0.939047 0.001615
v 0.108278 -0.939047 0.013916
v 0.061127 -0.939047 0.013916
v 0.108278 -0.939047 0.013916
v 0.061127 -0.939047 0.001615
v 0.108278 -0.939047 0.013916
v 0.061127 -0.939047 0.001615
v 0.108278 -0.939047 0.001615
v 0.061127 -0.939047 0.001615
v 0.108278 -0.939047 0.013916
v 0.061127 -0.939047 0.013916
vt 0 0
vn 0 1 0
vn 0 -1 0
usemtl material_0_0
f 1/1/1 2/1/1 3/1/1
f 4/1/1 5/1/1 6/1/1
usemtl material_1_0
f 7/1/2 8/1/2 9/1/2
f 10/1/2 11/1/2 12/1/2
