# SSTK version 0.8.0
# 49
mtllib original-49.mtl
o mesh40/mesh40-geometry#mesh40-geometry
v -0.167935 -0.607913 0.051287
v -0.167894 -0.611256 0.051287
v -0.168126 -0.609511 0.051287
v -0.167366 -0.606438 0.051287
v -0.167202 -0.612842 0.051287
v -0.166469 -0.605143 0.051287
v -0.166062 -0.614186 0.051287
v -0.165297 -0.604089 0.051287
v -0.164490 -0.615203 0.051287
v -0.164058 -0.609020 0.051287
v -0.162621 -0.602861 0.051287
v -0.163930 -0.609798 0.051287
v -0.163748 -0.607817 0.051287
v -0.161993 -0.616135 0.051287
v -0.162819 -0.606777 0.051287
v -0.163544 -0.610493 0.051287
v -0.161166 -0.606058 0.051287
v -0.162884 -0.611113 0.051287
v -0.160865 -0.602484 0.051287
v -0.161931 -0.611615 0.051287
v -0.158682 -0.605819 0.051287
v -0.158074 -0.617225 0.051287
v -0.158986 -0.602359 0.051287
v -0.158215 -0.612690 0.051287
v -0.156242 -0.602569 0.051287
v -0.151986 -0.614642 0.051287
v -0.156505 -0.606087 0.051287
v -0.153774 -0.618651 0.051287
v -0.154884 -0.606894 0.051287
v -0.152845 -0.619620 0.051287
v -0.153855 -0.603200 0.051287
v -0.152535 -0.620895 0.051287
v -0.153806 -0.608179 0.051287
v -0.150937 -0.626060 0.051287
v -0.151936 -0.604191 0.051287
v -0.152885 -0.622382 0.051287
v -0.150411 -0.615574 0.051287
v -0.153259 -0.609885 0.051287
v -0.152979 -0.627287 0.051287
v -0.149438 -0.624413 0.051287
v -0.149146 -0.609324 0.051287
v -0.153937 -0.623664 0.051287
v -0.149216 -0.616851 0.051287
v -0.150595 -0.605480 0.051287
v -0.155445 -0.628050 0.051287
v -0.148518 -0.622493 0.051287
v -0.149706 -0.607159 0.051287
v -0.155714 -0.624549 0.051287
v -0.148462 -0.618475 0.051287
v -0.158215 -0.628304 0.051287
v -0.148210 -0.620450 0.051287
v -0.158238 -0.624845 0.051287
v -0.160490 -0.628178 0.051287
v -0.160794 -0.624511 0.051287
v -0.162477 -0.627801 0.051287
v -0.162714 -0.623512 0.051287
v -0.164003 -0.621888 0.051287
v -0.164177 -0.627173 0.051287
v -0.164666 -0.619679 0.051287
v -0.165589 -0.626294 0.051287
v -0.166743 -0.625168 0.051287
v -0.167667 -0.623799 0.051287
v -0.168361 -0.622188 0.051287
v -0.168826 -0.620334 0.051287
vn 0 0 -1
vn 0 0 1
usemtl material_0_0
f 1//1 2//1 3//1
f 2//1 1//1 4//1
f 3//2 2//2 1//2
f 4//2 1//2 2//2
f 2//1 4//1 5//1
f 5//2 4//2 2//2
f 5//1 4//1 6//1
f 6//2 4//2 5//2
f 5//1 6//1 7//1
f 7//2 6//2 5//2
f 7//1 6//1 8//1
f 8//2 6//2 7//2
f 7//1 8//1 9//1
f 9//2 8//2 7//2
f 9//1 8//1 10//1
f 10//2 8//2 9//2
f 10//1 8//1 11//1
f 11//2 8//2 10//2
f 12//1 9//1 10//1
f 10//2 9//2 12//2
f 10//1 11//1 13//1
f 13//2 11//2 10//2
f 9//1 12//1 14//1
f 14//2 12//2 9//2
f 13//1 11//1 15//1
f 15//2 11//2 13//2
f 14//1 12//1 16//1
f 16//2 12//2 14//2
f 15//1 11//1 17//1
f 17//2 11//2 15//2
f 14//1 16//1 18//1
f 18//2 16//2 14//2
f 17//1 11//1 19//1
f 19//2 11//2 17//2
f 14//1 18//1 20//1
f 20//2 18//2 14//2
f 17//1 19//1 21//1
f 21//2 19//2 17//2
f 14//1 20//1 22//1
f 22//2 20//2 14//2
f 21//1 19//1 23//1
f 23//2 19//2 21//2
f 22//1 20//1 24//1
f 24//2 20//2 22//2
f 21//1 23//1 25//1
f 25//2 23//2 21//2
f 22//1 24//1 26//1
f 26//2 24//2 22//2
f 21//1 25//1 27//1
f 27//2 25//2 21//2
f 22//1 26//1 28//1
f 28//2 26//2 22//2
f 27//1 25//1 29//1
f 29//2 25//2 27//2
f 28//1 26//1 30//1
f 30//2 26//2 28//2
f 29//1 25//1 31//1
f 31//2 25//2 29//2
f 30//1 26//1 32//1
f 32//2 26//2 30//2
f 29//1 31//1 33//1
f 33//2 31//2 29//2
f 34//1 32//1 26//1
f 26//2 32//2 34//2
f 33//1 31//1 35//1
f 35//2 31//2 33//2
f 34//1 36//1 32//1
f 32//2 36//2 34//2
f 34//1 26//1 37//1
f 37//2 26//2 34//2
f 33//1 35//1 38//1
f 38//2 35//2 33//2
f 39//1 36//1 34//1
f 34//2 36//2 39//2
f 34//1 37//1 40//1
f 40//2 37//2 34//2
f 38//1 35//1 41//1
f 41//2 35//2 38//2
f 39//1 42//1 36//1
f 36//2 42//2 39//2
f 40//1 37//1 43//1
f 43//2 37//2 40//2
f 41//1 35//1 44//1
f 44//2 35//2 41//2
f 45//1 42//1 39//1
f 39//2 42//2 45//2
f 40//1 43//1 46//1
f 46//2 43//2 40//2
f 41//1 44//1 47//1
f 47//2 44//2 41//2
f 45//1 48//1 42//1
f 42//2 48//2 45//2
f 46//1 43//1 49//1
f 49//2 43//2 46//2
f 50//1 48//1 45//1
f 45//2 48//2 50//2
f 46//1 49//1 51//1
f 51//2 49//2 46//2
f 50//1 52//1 48//1
f 48//2 52//2 50//2
f 53//1 52//1 50//1
f 50//2 52//2 53//2
f 53//1 54//1 52//1
f 52//2 54//2 53//2
f 55//1 54//1 53//1
f 53//2 54//2 55//2
f 55//1 56//1 54//1
f 54//2 56//2 55//2
f 55//1 57//1 56//1
f 56//2 57//2 55//2
f 58//1 57//1 55//1
f 55//2 57//2 58//2
f 58//1 59//1 57//1
f 57//2 59//2 58//2
f 60//1 59//1 58//1
f 58//2 59//2 60//2
f 61//1 59//1 60//1
f 60//2 59//2 61//2
f 62//1 59//1 61//1
f 61//2 59//2 62//2
f 63//1 59//1 62//1
f 62//2 59//2 63//2
f 59//1 63//1 64//1
f 64//2 63//2 59//2
