# SSTK version 0.8.0
# 42
mtllib original-42.mtl
o mesh34/mesh34-geometry#mesh34-geometry
v 0.257995 -0.505562 0.051287
v 0.258537 -0.511106 0.051287
v 0.258416 -0.513299 0.051287
v 0.259514 -0.503772 0.051287
v 0.258416 -0.526856 0.051287
v 0.258904 -0.509296 0.051287
v 0.254208 -0.526856 0.051287
v 0.259514 -0.507869 0.051287
v 0.257995 -0.502033 0.051287
v 0.260367 -0.506824 0.051287
v 0.254208 -0.502033 0.051287
v 0.261337 -0.502494 0.051287
v 0.262503 -0.505544 0.051287
v 0.263464 -0.501727 0.051287
v 0.265007 -0.505118 0.051287
v 0.265896 -0.501472 0.051287
v 0.266582 -0.505308 0.051287
v 0.268049 -0.501673 0.051287
v 0.267940 -0.505877 0.051287
v 0.269001 -0.506766 0.051287
v 0.270021 -0.502278 0.051287
v 0.269682 -0.507911 0.051287
v 0.270050 -0.509509 0.051287
v 0.271666 -0.503210 0.051287
v 0.270173 -0.511756 0.051287
v 0.270173 -0.526856 0.051287
v 0.274380 -0.526856 0.051287
v 0.272838 -0.504393 0.051287
v 0.273632 -0.505825 0.051287
v 0.274146 -0.507502 0.051287
v 0.274380 -0.511592 0.051287
vn 0 0 -1
vn 0 0 1
usemtl material_0_0
f 1//1 2//1 3//1
f 2//1 1//1 4//1
f 3//2 2//2 1//2
f 4//2 1//2 2//2
f 5//1 1//1 3//1
f 3//2 1//2 5//2
f 2//1 4//1 6//1
f 6//2 4//2 2//2
f 7//1 1//1 5//1
f 5//2 1//2 7//2
f 6//1 4//1 8//1
f 8//2 4//2 6//2
f 7//1 9//1 1//1
f 1//2 9//2 7//2
f 8//1 4//1 10//1
f 10//2 4//2 8//2
f 9//1 7//1 11//1
f 11//2 7//2 9//2
f 10//1 4//1 12//1
f 12//2 4//2 10//2
f 10//1 12//1 13//1
f 13//2 12//2 10//2
f 13//1 12//1 14//1
f 14//2 12//2 13//2
f 13//1 14//1 15//1
f 15//2 14//2 13//2
f 15//1 14//1 16//1
f 16//2 14//2 15//2
f 15//1 16//1 17//1
f 17//2 16//2 15//2
f 17//1 16//1 18//1
f 18//2 16//2 17//2
f 17//1 18//1 19//1
f 19//2 18//2 17//2
f 19//1 18//1 20//1
f 20//2 18//2 19//2
f 20//1 18//1 21//1
f 21//2 18//2 20//2
f 20//1 21//1 22//1
f 22//2 21//2 20//2
f 22//1 21//1 23//1
f 23//2 21//2 22//2
f 23//1 21//1 24//1
f 24//2 21//2 23//2
f 23//1 24//1 25//1
f 25//2 24//2 23//2
f 25//1 24//1 26//1
f 26//2 24//2 25//2
f 26//1 24//1 27//1
f 27//2 24//2 26//2
f 27//1 24//1 28//1
f 28//2 24//2 27//2
f 27//1 28//1 29//1
f 29//2 28//2 27//2
f 27//1 29//1 30//1
f 30//2 29//2 27//2
f 27//1 30//1 31//1
f 31//2 30//2 27//2
