# SSTK version 0.8.0
# 130
mtllib original-130.mtl
o mesh67/mesh67-geometry/material_3/component_2#mesh67-geometry
v -0.099277 0.877283 0.024730
v -0.138228 0.877283 0.011799
v -0.099277 0.877283 -0.014220
v -0.160778 0.877283 0.024730
v -0.138228 0.877283 0.011799
v -0.099277 0.877283 0.024730
v -0.138228 0.877283 -0.014220
v -0.099277 0.877283 -0.014220
v -0.138228 0.877283 0.011799
v -0.099277 0.877283 -0.014220
v -0.138228 0.877283 0.011799
v -0.099277 0.877283 0.024730
v -0.099277 0.877283 0.024730
v -0.138228 0.877283 0.011799
v -0.160778 0.877283 0.024730
v -0.138228 0.877283 0.011799
v -0.099277 0.877283 -0.014220
v -0.138228 0.877283 -0.014220
vt 0 0
vn 0 -1 0
vn 0 1 0
usemtl material_0_0
f 1/1/1 2/1/1 3/1/1
f 4/1/1 5/1/1 6/1/1
f 7/1/1 8/1/1 9/1/1
usemtl material_1_0
f 10/1/2 11/1/2 12/1/2
f 13/1/2 14/1/2 15/1/2
f 16/1/2 17/1/2 18/1/2
