# SSTK version 0.8.0
# 80
mtllib original-80.mtl
o mesh65/mesh65-geometry#mesh65-geometry
v -0.175247 0.883607 0.006595
v -0.174165 0.883607 0.003083
v -0.173327 0.883607 0.005960
v -0.174528 0.883607 0.003952
v -0.174544 0.883607 -0.000335
v -0.175616 0.883607 0.004685
v -0.172893 0.883607 0.000299
v -0.174422 0.883607 0.002342
v -0.177548 0.883607 0.006981
v -0.171931 0.883607 0.005086
v -0.175193 0.883607 0.001745
v -0.176449 0.883607 0.004975
v -0.171724 0.883607 0.001070
v -0.176549 0.883607 -0.000792
v -0.177497 0.883607 0.005183
v -0.171080 0.883607 0.004055
v -0.177015 0.883607 0.001213
v -0.180238 0.883607 0.005349
v -0.171028 0.883607 0.001960
v -0.179643 0.883607 -0.001277
v -0.180094 0.883607 0.007109
v -0.170796 0.883607 0.002950
v -0.180463 0.883607 0.000669
v -0.182857 0.883607 0.006974
v -0.184346 0.883607 -0.002013
v -0.182912 0.883607 0.005166
v -0.184056 0.883607 0.000153
v -0.185274 0.883607 0.006569
v -0.186310 0.883607 -0.000294
v -0.183970 0.883607 0.004938
v -0.185770 0.883607 -0.002416
v -0.184842 0.883607 0.004618
v -0.186725 0.883607 -0.002904
v -0.185541 0.883607 0.004208
v -0.188315 0.883607 -0.000983
v -0.187259 0.883607 0.005901
v -0.187265 0.883607 -0.003479
v -0.186078 0.883607 0.003712
v -0.187446 0.883607 -0.004145
v -0.186671 0.883607 0.002455
v -0.188137 0.883607 -0.007198
v -0.190022 0.883607 0.002599
v -0.189608 0.883607 -0.006251
v -0.187259 0.883607 -0.004818
v -0.188725 0.883607 0.004978
v -0.189716 0.883607 -0.001833
v -0.186698 0.883607 -0.005437
v -0.189653 0.883607 0.003858
v -0.190514 0.883607 -0.005150
v -0.186139 0.883607 -0.007908
v -0.190541 0.883607 -0.002836
v -0.185754 0.883607 -0.005966
v -0.190815 0.883607 -0.003980
v -0.184418 0.883607 -0.006369
v -0.183736 0.883607 -0.008353
v -0.182770 0.883607 -0.006624
v -0.181049 0.883607 -0.008500
v -0.180887 0.883607 -0.006709
v -0.178747 0.883607 -0.006597
v -0.177754 0.883607 -0.008351
v -0.176832 0.883607 -0.006261
v -0.175267 0.883607 -0.005743
v -0.175039 0.883607 -0.007903
v -0.174175 0.883607 -0.005087
v -0.173474 0.883607 -0.004259
v -0.172877 0.883607 -0.007155
v -0.173084 0.883607 -0.003229
v -0.171237 0.883607 -0.006106
v -0.170185 0.883607 -0.004828
v -0.169787 0.883607 -0.003393
vn 0 -1 0
vn 0 1 0
usemtl material_0_0
f 1//1 2//1 3//1
f 2//1 1//1 4//1
f 3//2 2//2 1//2
f 4//2 1//2 2//2
f 5//1 3//1 2//1
f 2//2 3//2 5//2
f 4//1 1//1 6//1
f 6//2 1//2 4//2
f 7//1 3//1 5//1
f 5//2 3//2 7//2
f 5//1 2//1 8//1
f 8//2 2//2 5//2
f 6//1 1//1 9//1
f 9//2 1//2 6//2
f 7//1 10//1 3//1
f 3//2 10//2 7//2
f 5//1 8//1 11//1
f 11//2 8//2 5//2
f 6//1 9//1 12//1
f 12//2 9//2 6//2
f 13//1 10//1 7//1
f 7//2 10//2 13//2
f 5//1 11//1 14//1
f 14//2 11//2 5//2
f 12//1 9//1 15//1
f 15//2 9//2 12//2
f 13//1 16//1 10//1
f 10//2 16//2 13//2
f 14//1 11//1 17//1
f 17//2 11//2 14//2
f 15//1 9//1 18//1
f 18//2 9//2 15//2
f 19//1 16//1 13//1
f 13//2 16//2 19//2
f 14//1 17//1 20//1
f 20//2 17//2 14//2
f 18//1 9//1 21//1
f 21//2 9//2 18//2
f 16//1 19//1 22//1
f 22//2 19//2 16//2
f 20//1 17//1 23//1
f 23//2 17//2 20//2
f 18//1 21//1 24//1
f 24//2 21//2 18//2
f 20//1 23//1 25//1
f 25//2 23//2 20//2
f 18//1 24//1 26//1
f 26//2 24//2 18//2
f 25//1 23//1 27//1
f 27//2 23//2 25//2
f 26//1 24//1 28//1
f 28//2 24//2 26//2
f 25//1 27//1 29//1
f 29//2 27//2 25//2
f 26//1 28//1 30//1
f 30//2 28//2 26//2
f 25//1 29//1 31//1
f 31//2 29//2 25//2
f 30//1 28//1 32//1
f 32//2 28//2 30//2
f 31//1 29//1 33//1
f 33//2 29//2 31//2
f 32//1 28//1 34//1
f 34//2 28//2 32//2
f 33//1 29//1 35//1
f 35//2 29//2 33//2
f 34//1 28//1 36//1
f 36//2 28//2 34//2
f 33//1 35//1 37//1
f 37//2 35//2 33//2
f 34//1 36//1 38//1
f 38//2 36//2 34//2
f 37//1 35//1 39//1
f 39//2 35//2 37//2
f 38//1 36//1 40//1
f 40//2 36//2 38//2
f 39//1 35//1 41//1
f 41//2 35//2 39//2
f 40//1 36//1 42//1
f 42//2 36//2 40//2
f 41//1 35//1 43//1
f 43//2 35//2 41//2
f 41//1 44//1 39//1
f 39//2 44//2 41//2
f 42//1 36//1 45//1
f 45//2 36//2 42//2
f 43//1 35//1 46//1
f 46//2 35//2 43//2
f 41//1 47//1 44//1
f 44//2 47//2 41//2
f 42//1 45//1 48//1
f 48//2 45//2 42//2
f 43//1 46//1 49//1
f 49//2 46//2 43//2
f 50//1 47//1 41//1
f 41//2 47//2 50//2
f 49//1 46//1 51//1
f 51//2 46//2 49//2
f 50//1 52//1 47//1
f 47//2 52//2 50//2
f 49//1 51//1 53//1
f 53//2 51//2 49//2
f 50//1 54//1 52//1
f 52//2 54//2 50//2
f 55//1 54//1 50//1
f 50//2 54//2 55//2
f 55//1 56//1 54//1
f 54//2 56//2 55//2
f 57//1 56//1 55//1
f 55//2 56//2 57//2
f 57//1 58//1 56//1
f 56//2 58//2 57//2
f 57//1 59//1 58//1
f 58//2 59//2 57//2
f 60//1 59//1 57//1
f 57//2 59//2 60//2
f 60//1 61//1 59//1
f 59//2 61//2 60//2
f 60//1 62//1 61//1
f 61//2 62//2 60//2
f 63//1 62//1 60//1
f 60//2 62//2 63//2
f 63//1 64//1 62//1
f 62//2 64//2 63//2
f 63//1 65//1 64//1
f 64//2 65//2 63//2
f 66//1 65//1 63//1
f 63//2 65//2 66//2
f 66//1 67//1 65//1
f 65//2 67//2 66//2
f 68//1 67//1 66//1
f 66//2 67//2 68//2
f 69//1 67//1 68//1
f 68//2 67//2 69//2
f 67//1 69//1 70//1
f 70//2 69//2 67//2
