# SSTK version 0.8.0
# 76
mtllib original-76.mtl
o mesh62/mesh62-geometry#mesh62-geometry
v 0.272163 -0.692005 0.051287
v 0.272912 -0.699016 0.051287
v 0.269148 -0.692005 0.051287
v 0.275985 -0.697883 0.051287
v 0.274179 -0.702312 0.051287
v 0.275132 -0.705748 0.051287
v 0.275886 -0.710090 0.051287
v 0.276137 -0.714467 0.051287
v 0.277466 -0.700831 0.051287
v 0.278042 -0.726645 0.051287
v 0.275700 -0.720087 0.051287
v 0.278661 -0.703785 0.051287
v 0.275363 -0.732161 0.051287
v 0.279100 -0.723673 0.051287
v 0.274390 -0.725704 0.051287
v 0.280011 -0.708997 0.051287
v 0.272206 -0.731318 0.051287
v 0.279856 -0.720649 0.051287
v 0.272163 -0.736929 0.051287
v 0.280310 -0.717572 0.051287
v 0.269148 -0.736929 0.051287
v 0.280461 -0.714443 0.051287
vn 0 0 -1
vn 0 0 1
usemtl material_0_0
f 1//1 2//1 3//1
f 2//1 1//1 4//1
f 3//2 2//2 1//2
f 4//2 1//2 2//2
f 2//1 4//1 5//1
f 5//2 4//2 2//2
f 5//1 4//1 6//1
f 6//2 4//2 5//2
f 6//1 4//1 7//1
f 7//2 4//2 6//2
f 7//1 4//1 8//1
f 8//2 4//2 7//2
f 8//1 4//1 9//1
f 9//2 4//2 8//2
f 10//1 8//1 9//1
f 9//2 8//2 10//2
f 10//1 11//1 8//1
f 8//2 11//2 10//2
f 10//1 9//1 12//1
f 12//2 9//2 10//2
f 13//1 11//1 10//1
f 10//2 11//2 13//2
f 10//1 12//1 14//1
f 14//2 12//2 10//2
f 13//1 15//1 11//1
f 11//2 15//2 13//2
f 14//1 12//1 16//1
f 16//2 12//2 14//2
f 13//1 17//1 15//1
f 15//2 17//2 13//2
f 14//1 16//1 18//1
f 18//2 16//2 14//2
f 19//1 17//1 13//1
f 13//2 17//2 19//2
f 18//1 16//1 20//1
f 20//2 16//2 18//2
f 17//1 19//1 21//1
f 21//2 19//2 17//2
f 20//1 16//1 22//1
f 22//2 16//2 20//2
