# SSTK version 0.8.0
# 65
mtllib original-65.mtl
o mesh53/mesh53-geometry#mesh53-geometry
v -0.182938 -0.695716 0.051287
v -0.191282 -0.729982 0.051287
v -0.196097 -0.729982 0.051287
v -0.187519 -0.719604 0.051287
v -0.186210 -0.715911 0.051287
v -0.182446 -0.705860 0.051287
v -0.173190 -0.719604 0.051287
v -0.180600 -0.699316 0.051287
v -0.174593 -0.715911 0.051287
v -0.178052 -0.695716 0.051287
v -0.181389 -0.702599 0.051287
v -0.164028 -0.729982 0.051287
v -0.178169 -0.706421 0.051287
v -0.169193 -0.729982 0.051287
vn 0 0 -1
vn 0 0 1
usemtl material_0_0
f 1//1 2//1 3//1
f 2//1 1//1 4//1
f 3//2 2//2 1//2
f 4//2 1//2 2//2
f 4//1 1//1 5//1
f 5//2 1//2 4//2
f 5//1 1//1 6//1
f 6//2 1//2 5//2
f 5//1 7//1 4//1
f 4//2 7//2 5//2
f 6//1 1//1 8//1
f 8//2 1//2 6//2
f 7//1 5//1 9//1
f 9//2 5//2 7//2
f 8//1 1//1 10//1
f 10//2 1//2 8//2
f 6//1 8//1 11//1
f 11//2 8//2 6//2
f 9//1 12//1 7//1
f 7//2 12//2 9//2
f 8//1 10//1 13//1
f 13//2 10//2 8//2
f 9//1 10//1 12//1
f 12//2 10//2 9//2
f 7//1 12//1 14//1
f 14//2 12//2 7//2
f 13//1 10//1 9//1
f 9//2 10//2 13//2
