# SSTK version 0.8.0
# 48
mtllib original-48.mtl
o mesh39/mesh39-geometry#mesh39-geometry
v -0.179345 -0.606683 0.051287
v -0.178749 -0.612188 0.051287
v -0.178924 -0.614747 0.051287
v -0.177951 -0.604492 0.051287
v -0.178924 -0.627743 0.051287
v -0.178223 -0.609838 0.051287
v -0.183131 -0.627743 0.051287
v -0.177598 -0.608527 0.051287
v -0.179345 -0.602920 0.051287
v -0.176668 -0.603200 0.051287
v -0.183131 -0.602920 0.051287
v -0.176657 -0.607536 0.051287
v -0.175380 -0.602569 0.051287
v -0.175488 -0.606914 0.051287
v -0.174179 -0.606706 0.051287
v -0.173969 -0.602359 0.051287
v -0.172636 -0.606934 0.051287
v -0.171824 -0.602698 0.051287
v -0.171094 -0.607618 0.051287
v -0.169644 -0.603715 0.051287
vn 0 0 -1
vn 0 0 1
usemtl material_0_0
f 1//1 2//1 3//1
f 2//1 1//1 4//1
f 3//2 2//2 1//2
f 4//2 1//2 2//2
f 5//1 1//1 3//1
f 3//2 1//2 5//2
f 2//1 4//1 6//1
f 6//2 4//2 2//2
f 7//1 1//1 5//1
f 5//2 1//2 7//2
f 6//1 4//1 8//1
f 8//2 4//2 6//2
f 7//1 9//1 1//1
f 1//2 9//2 7//2
f 8//1 4//1 10//1
f 10//2 4//2 8//2
f 9//1 7//1 11//1
f 11//2 7//2 9//2
f 8//1 10//1 12//1
f 12//2 10//2 8//2
f 12//1 10//1 13//1
f 13//2 10//2 12//2
f 12//1 13//1 14//1
f 14//2 13//2 12//2
f 14//1 13//1 15//1
f 15//2 13//2 14//2
f 15//1 13//1 16//1
f 16//2 13//2 15//2
f 15//1 16//1 17//1
f 17//2 16//2 15//2
f 17//1 16//1 18//1
f 18//2 16//2 17//2
f 17//1 18//1 19//1
f 19//2 18//2 17//2
f 19//1 18//1 20//1
f 20//2 18//2 19//2
