# SSTK version 0.8.0
# 41
mtllib original-41.mtl
o mesh33/mesh33-geometry#mesh33-geometry
v 0.234218 -0.503917 0.051287
v 0.233289 -0.512434 0.051287
v 0.232634 -0.505819 0.051287
v 0.233721 -0.509124 0.051287
v 0.233289 -0.526856 0.051287
v 0.234261 -0.507861 0.051287
v 0.231650 -0.503990 0.051287
v 0.236024 -0.502558 0.051287
v 0.230145 -0.502617 0.051287
v 0.235019 -0.506859 0.051287
v 0.229081 -0.526856 0.051287
v 0.236970 -0.505553 0.051287
v 0.229081 -0.510728 0.051287
v 0.238051 -0.501743 0.051287
v 0.228824 -0.508273 0.051287
v 0.239366 -0.505118 0.051287
v 0.228132 -0.501758 0.051287
v 0.240301 -0.501472 0.051287
v 0.228053 -0.506521 0.051287
v 0.240721 -0.505288 0.051287
v 0.226697 -0.505469 0.051287
v 0.242041 -0.501599 0.051287
v 0.225622 -0.501472 0.051287
v 0.241890 -0.505796 0.051287
v 0.224687 -0.505118 0.051287
v 0.242799 -0.506581 0.051287
v 0.223279 -0.501749 0.051287
v 0.243568 -0.501983 0.051287
v 0.222978 -0.505352 0.051287
v 0.243374 -0.507584 0.051287
v 0.221403 -0.506053 0.051287
v 0.243681 -0.509048 0.051287
v 0.221204 -0.502582 0.051287
v 0.244881 -0.502622 0.051287
v 0.220103 -0.507204 0.051287
v 0.243784 -0.511218 0.051287
v 0.219457 -0.503870 0.051287
v 0.243784 -0.526856 0.051287
v 0.219218 -0.508788 0.051287
v 0.247968 -0.526856 0.051287
v 0.218709 -0.510985 0.051287
v 0.245981 -0.503517 0.051287
v 0.218096 -0.505515 0.051287
v 0.246850 -0.504677 0.051287
v 0.218540 -0.513977 0.051287
v 0.247471 -0.506114 0.051287
v 0.218540 -0.526856 0.051287
v 0.247843 -0.507827 0.051287
v 0.214332 -0.526856 0.051287
v 0.247968 -0.509816 0.051287
v 0.218096 -0.502033 0.051287
v 0.214332 -0.502033 0.051287
vn 0 0 -1
vn 0 0 1
usemtl material_0_0
f 1//1 2//1 3//1
f 2//1 1//1 4//1
f 3//2 2//2 1//2
f 4//2 1//2 2//2
f 5//1 3//1 2//1
f 2//2 3//2 5//2
f 4//1 1//1 6//1
f 6//2 1//2 4//2
f 5//1 7//1 3//1
f 3//2 7//2 5//2
f 6//1 1//1 8//1
f 8//2 1//2 6//2
f 5//1 9//1 7//1
f 7//2 9//2 5//2
f 6//1 8//1 10//1
f 10//2 8//2 6//2
f 11//1 9//1 5//1
f 5//2 9//2 11//2
f 10//1 8//1 12//1
f 12//2 8//2 10//2
f 13//1 9//1 11//1
f 11//2 9//2 13//2
f 12//1 8//1 14//1
f 14//2 8//2 12//2
f 15//1 9//1 13//1
f 13//2 9//2 15//2
f 12//1 14//1 16//1
f 16//2 14//2 12//2
f 15//1 17//1 9//1
f 9//2 17//2 15//2
f 16//1 14//1 18//1
f 18//2 14//2 16//2
f 19//1 17//1 15//1
f 15//2 17//2 19//2
f 16//1 18//1 20//1
f 20//2 18//2 16//2
f 21//1 17//1 19//1
f 19//2 17//2 21//2
f 20//1 18//1 22//1
f 22//2 18//2 20//2
f 21//1 23//1 17//1
f 17//2 23//2 21//2
f 20//1 22//1 24//1
f 24//2 22//2 20//2
f 25//1 23//1 21//1
f 21//2 23//2 25//2
f 24//1 22//1 26//1
f 26//2 22//2 24//2
f 25//1 27//1 23//1
f 23//2 27//2 25//2
f 26//1 22//1 28//1
f 28//2 22//2 26//2
f 29//1 27//1 25//1
f 25//2 27//2 29//2
f 26//1 28//1 30//1
f 30//2 28//2 26//2
f 31//1 27//1 29//1
f 29//2 27//2 31//2
f 30//1 28//1 32//1
f 32//2 28//2 30//2
f 31//1 33//1 27//1
f 27//2 33//2 31//2
f 32//1 28//1 34//1
f 34//2 28//2 32//2
f 35//1 33//1 31//1
f 31//2 33//2 35//2
f 32//1 34//1 36//1
f 36//2 34//2 32//2
f 35//1 37//1 33//1
f 33//2 37//2 35//2
f 36//1 34//1 38//1
f 38//2 34//2 36//2
f 39//1 37//1 35//1
f 35//2 37//2 39//2
f 38//1 34//1 40//1
f 40//2 34//2 38//2
f 41//1 37//1 39//1
f 39//2 37//2 41//2
f 40//1 34//1 42//1
f 42//2 34//2 40//2
f 41//1 43//1 37//1
f 37//2 43//2 41//2
f 40//1 42//1 44//1
f 44//2 42//2 40//2
f 43//1 41//1 45//1
f 45//2 41//2 43//2
f 40//1 44//1 46//1
f 46//2 44//2 40//2
f 47//1 43//1 45//1
f 45//2 43//2 47//2
f 40//1 46//1 48//1
f 48//2 46//2 40//2
f 49//1 43//1 47//1
f 47//2 43//2 49//2
f 40//1 48//1 50//1
f 50//2 48//2 40//2
f 49//1 51//1 43//1
f 43//2 51//2 49//2
f 51//1 49//1 52//1
f 52//2 49//2 51//2
