# SSTK version 0.8.0
# 10
mtllib original-10.mtl
o #ID82
v 0.165812 -0.033855 0.005944
v 0.137221 0.000556 0.074598
v 0.165812 0.000556 0.005944
v 0.137221 -0.033855 0.074598
v 0.137221 -0.033855 0.074598
v 0.165812 -0.033855 0.005944
v 0.137221 0.000556 0.074598
v 0.165812 0.000556 0.005944
v 0.372338 -0.033855 -0.423449
v 0.300851 -0.033855 -0.954452
v 0.372338 -0.033855 -0.954452
v 0.300851 -0.033855 -0.418931
v 0.352977 -0.033855 -0.332170
v 0.282763 -0.033855 -0.346795
v 0.262889 -0.033855 -0.275129
v 0.330949 -0.033855 -0.241498
v 0.241244 -0.033855 -0.203979
v 0.306272 -0.033855 -0.151510
v 0.217839 -0.033855 -0.133388
v 0.278968 -0.033855 -0.062284
v 0.192690 -0.033855 -0.063399
v 0.165812 -0.033855 0.005944
v 0.249060 -0.033855 0.026103
v 0.137221 -0.033855 0.074598
v 0.216574 -0.033855 0.113575
v 0.122078 -0.033855 0.108560
v 0.205740 -0.033855 0.140317
v 0.205740 -0.033855 0.140317
v 0.216574 -0.033855 0.113575
v 0.122078 -0.033855 0.108560
v 0.137221 -0.033855 0.074598
v 0.249060 -0.033855 0.026103
v 0.165812 -0.033855 0.005944
v 0.278968 -0.033855 -0.062284
v 0.192690 -0.033855 -0.063399
v 0.217839 -0.033855 -0.133388
v 0.306272 -0.033855 -0.151510
v 0.241244 -0.033855 -0.203979
v 0.330949 -0.033855 -0.241498
v 0.262889 -0.033855 -0.275129
v 0.352977 -0.033855 -0.332170
v 0.282763 -0.033855 -0.346795
v 0.300851 -0.033855 -0.418931
v 0.372338 -0.033855 -0.423449
v 0.300851 -0.033855 -0.954452
v 0.372338 -0.033855 -0.954452
v 0.122078 0.000556 0.108560
v 0.122078 -0.033855 0.108560
v 0.122078 -0.033855 0.108560
v 0.122078 0.000556 0.108560
v 0.300851 0.000556 -0.418931
v 0.372338 0.000556 -0.954452
v 0.300851 0.000556 -0.954452
v 0.372338 0.000556 -0.418120
v 0.282763 0.000556 -0.346795
v 0.352905 0.000556 -0.327281
v 0.262889 0.000556 -0.275129
v 0.330818 0.000556 -0.237051
v 0.241244 0.000556 -0.203979
v 0.306096 0.000556 -0.147507
v 0.217839 0.000556 -0.133388
v 0.278759 0.000556 -0.058727
v 0.192690 0.000556 -0.063399
v 0.165812 0.000556 0.005944
v 0.248831 0.000556 0.029214
v 0.137221 0.000556 0.074598
v 0.216339 0.000556 0.116240
v 0.122078 0.000556 0.108560
v 0.206429 0.000556 0.140578
v 0.206429 0.000556 0.140578
v 0.122078 0.000556 0.108560
v 0.216339 0.000556 0.116240
v 0.137221 0.000556 0.074598
v 0.248831 0.000556 0.029214
v 0.165812 0.000556 0.005944
v 0.278759 0.000556 -0.058727
v 0.192690 0.000556 -0.063399
v 0.217839 0.000556 -0.133388
v 0.306096 0.000556 -0.147507
v 0.241244 0.000556 -0.203979
v 0.330818 0.000556 -0.237051
v 0.262889 0.000556 -0.275129
v 0.352905 0.000556 -0.327281
v 0.282763 0.000556 -0.346795
v 0.372338 0.000556 -0.418120
v 0.300851 0.000556 -0.418931
v 0.372338 0.000556 -0.954452
v 0.300851 0.000556 -0.954452
v 0.192690 -0.033855 -0.063399
v 0.192690 0.000556 -0.063399
v 0.192690 -0.033855 -0.063399
v 0.192690 0.000556 -0.063399
v 0.217839 -0.033855 -0.133388
v 0.217839 0.000556 -0.133388
v 0.217839 -0.033855 -0.133388
v 0.217839 0.000556 -0.133388
v 0.241244 -0.033855 -0.203979
v 0.241244 0.000556 -0.203979
v 0.241244 -0.033855 -0.203979
v 0.241244 0.000556 -0.203979
v 0.262889 -0.033855 -0.275129
v 0.262889 0.000556 -0.275129
v 0.262889 -0.033855 -0.275129
v 0.262889 0.000556 -0.275129
v 0.282763 -0.033855 -0.346795
v 0.282763 0.000556 -0.346795
v 0.282763 -0.033855 -0.346795
v 0.282763 0.000556 -0.346795
v 0.300851 -0.033855 -0.418931
v 0.300851 0.000556 -0.418931
v 0.300851 -0.033855 -0.418931
v 0.300851 0.000556 -0.418931
v 0.300851 -0.033855 -0.954452
v 0.300851 0.000556 -0.418931
v 0.300851 0.000556 -0.954452
v 0.300851 -0.033855 -0.418931
v 0.300851 -0.033855 -0.418931
v 0.300851 -0.033855 -0.954452
v 0.300851 0.000556 -0.418931
v 0.300851 0.000556 -0.954452
v 0.300851 -0.033855 -0.954452
v 0.372338 0.000556 -0.954452
v 0.372338 -0.033855 -0.954452
v 0.300851 0.000556 -0.954452
v 0.300851 0.000556 -0.954452
v 0.300851 -0.033855 -0.954452
v 0.372338 0.000556 -0.954452
v 0.372338 -0.033855 -0.954452
v 0.372338 -0.033855 -0.423449
v 0.372338 0.000556 -0.954452
v 0.372338 0.000556 -0.418120
v 0.372338 -0.033855 -0.954452
v 0.372338 -0.033855 -0.954452
v 0.372338 -0.033855 -0.423449
v 0.372338 0.000556 -0.954452
v 0.372338 0.000556 -0.418120
v 0.372338 -0.033855 -0.423449
v 0.352905 0.000556 -0.327281
v 0.352977 -0.033855 -0.332170
v 0.352977 -0.033855 -0.332170
v 0.352905 0.000556 -0.327281
v 0.372338 -0.033855 -0.423449
v 0.330818 0.000556 -0.237051
v 0.330949 -0.033855 -0.241498
v 0.330949 -0.033855 -0.241498
v 0.330818 0.000556 -0.237051
v 0.306096 0.000556 -0.147507
v 0.306272 -0.033855 -0.151510
v 0.306272 -0.033855 -0.151510
v 0.306096 0.000556 -0.147507
v 0.278759 0.000556 -0.058727
v 0.278968 -0.033855 -0.062284
v 0.278968 -0.033855 -0.062284
v 0.278759 0.000556 -0.058727
v 0.248831 0.000556 0.029214
v 0.249060 -0.033855 0.026103
v 0.249060 -0.033855 0.026103
v 0.248831 0.000556 0.029214
v 0.216339 0.000556 0.116240
v 0.216574 -0.033855 0.113575
v 0.216574 -0.033855 0.113575
v 0.216339 0.000556 0.116240
v 0.206174 -0.023458 0.140477
v 0.216339 0.000556 0.116240
v 0.206429 0.000556 0.140578
v 0.216574 -0.033855 0.113575
v 0.216574 -0.033855 0.113575
v 0.206174 -0.023458 0.140477
v 0.216339 0.000556 0.116240
v 0.206429 0.000556 0.140578
v 0.206174 -0.023458 0.140477
v 0.216339 0.000556 0.116240
v 0.206429 0.000556 0.140578
v 0.216574 -0.033855 0.113575
v 0.216574 -0.033855 0.113575
v 0.206174 -0.023458 0.140477
v 0.216339 0.000556 0.116240
v 0.206429 0.000556 0.140578
v 0.372338 0.000556 -0.418120
v 0.372338 0.000556 -0.418120
vt 0.003251127 0.001002856
vt 0.001083709 2.168404e-19
vt 0.003251127 2.168404e-19
vt 0.001083709 0.001002856
vt -0.03007818 -0.01174777
vt -0.04555318 -0.009664438
vt -0.04555318 -0.01174777
vt -0.02994652 -0.009664438
vt -0.02741803 -0.01118354
vt -0.02784424 -0.009137286
vt -0.02575569 -0.008558125
vt -0.02477556 -0.01054158
vt -0.02368216 -0.007927311
vt -0.02215305 -0.00982242
vt -0.02162492 -0.007245232
vt -0.01955274 -0.009026696
vt -0.01958524 -0.006512309
vt -0.01756438 -0.005728993
vt -0.01697688 -0.008155086
vt -0.01556358 -0.004895766
vt -0.01442768 -0.007208339
vt -0.01457383 -0.004454455
vt -0.01364835 -0.006892611
vt 5.20417e-18 8.673617e-19
vt 0.001083709 8.673617e-19
vt 5.20417e-18 0.001002856
vt 0.02994652 -0.009664438
vt 0.04555318 -0.01174777
vt 0.04555318 -0.009664438
vt 0.02992286 -0.01174777
vt 0.02784424 -0.009137286
vt 0.02727555 -0.01118145
vt 0.02575569 -0.008558125
vt 0.02464598 -0.01053777
vt 0.02368216 -0.007927311
vt 0.02203641 -0.009817287
vt 0.02162492 -0.007245232
vt 0.01944908 -0.00902061
vt 0.01958524 -0.006512309
vt 0.01756438 -0.005728993
vt 0.01688621 -0.008148428
vt 0.01556358 -0.004895766
vt 0.01435002 -0.007201491
vt 0.01457383 -0.004454455
vt 0.01364073 -0.006912699
vt 0.005418545 0.001002856
vt 0.003251127 -2.168404e-19
vt 0.005418545 -2.168404e-19
vt 0.007585963 0.001002856
vt 0.005418545 -6.505213e-19
vt 0.007585963 -6.505213e-19
vt 0.009753382 0.001002856
vt 0.007585963 -2.168404e-19
vt 0.009753382 -2.168404e-19
vt 0.0119208 0.001002856
vt 0.009753382 8.673617e-19
vt 0.0119208 8.673617e-19
vt 0.01408822 0.001002856
vt 0.01408822 8.673617e-19
vt 0.01625564 0.001002856
vt 0.01408822 -2.168404e-19
vt 0.01625564 -2.168404e-19
vt 0.002922733 -0.04555318
vt 0.001919877 -0.02994652
vt 0.001919877 -0.04555318
vt 0.002922733 -0.02994652
vt 0.002922733 -0.009664438
vt 0.001919877 -0.01174777
vt 0.002922733 -0.01174777
vt 0.001919877 -0.009664438
vt -0.002922733 -0.03007818
vt -0.001919877 -0.04555318
vt -0.001919877 -0.02992286
vt -0.002922733 -0.04555318
vt -0.006841129 -0.03124173
vt -0.00547947 -0.02853487
vt -0.00649235 -0.02854486
vt -0.005999257 -0.02879891
vt -0.004689876 -0.02607999
vt -0.00570095 -0.02609599
vt -0.005316642 -0.02629877
vt -0.004052336 -0.02357208
vt -0.00506178 -0.0235914
vt -0.004756843 -0.02375432
vt -0.003532361 -0.02102289
vt -0.004540366 -0.02104362
vt -0.004296149 -0.02117448
vt -0.0031075 -0.01844051
vt -0.004114255 -0.01846124
vt -0.003918424 -0.01856582
vt -0.00276246 -0.01583101
vt -0.00376815 -0.01585065
vt -0.0033057 -0.01509419
vt -0.002642428 -0.01589201
vt -0.002606592 -0.01512703
vt -0.003647927 -0.01591952
vt -0.00414485 -0.01851839
vt -0.003138061 -0.0184994
vt -0.002954341 -0.01579843
vt -0.004578546 -0.02111779
vt -0.003570504 -0.02109896
vt -0.003352075 -0.01840058
vt -0.00510579 -0.02368527
vt -0.00409631 -0.02366791
vt -0.00383966 -0.02097289
vt -0.00574584 -0.0262129
vt -0.004734739 -0.02619871
vt -0.004435353 -0.0235081
vt -0.006526869 -0.0286897
vt -0.005513977 -0.02868099
vt -0.00516585 -0.02599626
vt -0.007491888 -0.03109921
vt -0.006477075 -0.03109921
vt -0.006071893 -0.0284225
vt 0.002922733 -0.01624965
vt 0.002922733 -0.01841701
vt 0.001919877 -0.01624965
vt 0.001919877 -0.01841701
vt 0.002922733 -0.01512463
vt 0.002922733 -0.01620832
vt 0.001919877 -0.01512463
vt 0.001919877 -0.01620832
vt 0.002922733 -0.01844766
vt 0.002922733 -0.02061503
vt 0.001919877 -0.01844766
vt 0.001919877 -0.02061503
vt 0.002922733 -0.02063365
vt 0.002922733 -0.02280101
vt 0.001919877 -0.02063365
vt 0.001919877 -0.02280101
vt 0.002922733 -0.02280626
vt 0.002922733 -0.02497362
vt 0.001919877 -0.02280626
vt 0.001919877 -0.02497362
vt 0.002922733 -0.02496415
vt 0.002922733 -0.02713151
vt 0.001919877 -0.02496415
vt 0.001919877 -0.02713151
vt 0.002922733 -0.027106
vt 0.002922733 -0.02927336
vt 0.001919877 -0.027106
vt 0.001919877 -0.02927336
vt 0.002922733 -0.02923048
vt 0.002922733 -0.03139785
vt 0.001919877 -0.02923048
vt 0.001919877 -0.03139785
vn -0.9278485408327177 0 -0.37295721641308477
vn -0.918307119491023 0 -0.39586870840229366
vn 0 -1 0
vn -0.9133239019999876 0 -0.40723390089175676
vn 0 1 0
vn -0.9368184569251335 0 -0.3498159212563255
vn -0.9452112948427713 0 -0.3264591982187848
vn -0.9530218999992519 0 -0.30290139999976223
vn -0.9602454755525106 0 -0.27915699289276774
vn -0.966877572313403 0 -0.2552405926911704
vn -0.9699705216417401 0 -0.24322250542671983
vn -1 0 0
vn 0 0 -1
vn 1 0 0
vn 0.9774853493389883 -0.031205798382669042 0.2086829891843992
vn 0.9741034625628032 -0.030311018835072843 0.22406179138875315
vn 0.9748357540895206 -0.028868538640418717 0.22104718958964892
vn 0.9671726739543556 -0.029458089206703272 0.25240689320276477
vn 0.9679273136328164 -0.028082830395533904 0.24965590351628994
vn 0.959426824075008 -0.02822964070836963 0.28054100703964785
vn 0.9601888113253402 -0.02691503031746035 0.2780522032796006
vn 0.9508708771682925 -0.026626599360659014 0.3084405925939204
vn 0.9516253976794603 -0.02536604993814486 0.30621179925330216
vn 0.9415100204162343 -0.024650180534528422 0.3360822072877962
vn 0.9422425379264444 -0.023437110943373123 0.33411031344835934
vn 0.9370776910470213 -0.021670339792958373 0.34844769667087927
vn 0.9372392813734098 -0.02055479959149618 0.34808049308228667
vn 0.9282475041136364 -0.018792590083281543 0.3714881016462926
vn 0.9773624638191297 -0.03238192880125705 0.20907899226012847
vn 0.918307119491023 0 0.39586870840229366
vn 0.9278485408327177 0 0.37295721641308477
vn 0.9133239019999876 0 0.40723390089175676
vn 0.9368184569251335 0 0.3498159212563255
vn 0.9452112948427713 0 0.3264591982187848
vn 0.9530218999992519 0 0.30290139999976223
vn 0.9602454755525106 0 0.27915699289276774
vn 0.966877572313403 0 0.2552405926911704
vn 0.9699705216417401 0 0.24322250542671983
vn 0 0 1
vn -0.9748357540895206 0.028868538640418717 -0.22104718958964892
vn -0.9741034625628032 0.030311018835072843 -0.22406179138875315
vn -0.9774853493389883 0.031205798382669042 -0.2086829891843992
vn -0.9679273136328164 0.028082830395533904 -0.24965590351628994
vn -0.9671726739543556 0.029458089206703272 -0.25240689320276477
vn -0.9601888113253402 0.02691503031746035 -0.2780522032796006
vn -0.959426824075008 0.02822964070836963 -0.28054100703964785
vn -0.9516253976794603 0.02536604993814486 -0.30621179925330216
vn -0.9508708771682925 0.026626599360659014 -0.3084405925939204
vn -0.9422425379264444 0.023437110943373123 -0.33411031344835934
vn -0.9415100204162343 0.024650180534528422 -0.3360822072877962
vn -0.9372392813734098 0.02055479959149618 -0.34808049308228667
vn -0.9370776910470213 0.021670339792958373 -0.34844769667087927
vn -0.9282475041136364 0.018792590083281543 -0.3714881016462926
vn -0.9773624638191297 0.03238192880125705 -0.20907899226012847
usemtl material_0_0
f 5/115/30 6/116/31 7/117/30
f 8/118/31 7/117/30 6/116/31
f 28/23/5 29/21/5 30/22/5
f 30/22/5 29/21/5 31/20/5
f 29/21/5 32/19/5 31/20/5
f 31/20/5 32/19/5 33/18/5
f 32/19/5 34/16/5 33/18/5
f 33/18/5 34/16/5 35/17/5
f 35/17/5 34/16/5 36/15/5
f 34/16/5 37/14/5 36/15/5
f 36/15/5 37/14/5 38/13/5
f 37/14/5 39/12/5 38/13/5
f 38/13/5 39/12/5 40/11/5
f 39/12/5 41/9/5 40/11/5
f 40/11/5 41/9/5 42/10/5
f 42/10/5 41/9/5 43/8/5
f 41/9/5 44/5/5 43/8/5
f 43/8/5 44/5/5 45/6/5
f 46/7/5 45/6/5 44/5/5
f 49/119/32 5/120/30 50/121/32
f 7/122/30 50/121/32 5/120/30
f 70/45/3 71/44/3 72/43/3
f 71/44/3 73/42/3 72/43/3
f 72/43/3 73/42/3 74/41/3
f 73/42/3 75/40/3 74/41/3
f 74/41/3 75/40/3 76/38/3
f 75/40/3 77/39/3 76/38/3
f 77/39/3 78/37/3 76/38/3
f 76/38/3 78/37/3 79/36/3
f 78/37/3 80/35/3 79/36/3
f 79/36/3 80/35/3 81/34/3
f 80/35/3 82/33/3 81/34/3
f 81/34/3 82/33/3 83/32/3
f 82/33/3 84/31/3 83/32/3
f 83/32/3 84/31/3 85/30/3
f 84/31/3 86/27/3 85/30/3
f 85/30/3 86/27/3 87/28/3
f 88/29/3 87/28/3 86/27/3
f 6/123/31 91/124/33 8/125/31
f 92/126/33 8/125/31 91/124/33
f 91/127/33 95/128/34 92/129/33
f 96/130/34 92/129/33 95/128/34
f 95/131/34 99/132/35 96/133/34
f 100/134/35 96/133/34 99/132/35
f 99/135/35 103/136/36 100/137/35
f 104/138/36 100/137/35 103/136/36
f 103/139/36 107/140/37 104/141/36
f 108/142/37 104/141/36 107/140/37
f 107/143/37 111/144/38 108/145/37
f 112/146/38 108/145/37 111/144/38
f 117/66/14 118/63/14 119/64/14
f 120/65/14 119/64/14 118/63/14
f 125/70/39 126/67/39 127/68/39
f 128/69/39 127/68/39 126/67/39
f 133/74/12 134/71/12 135/72/12
f 136/73/12 135/72/12 134/71/12
f 140/77/40 141/76/41 142/75/42
f 145/80/43 146/79/44 140/78/40
f 149/83/45 150/82/46 145/81/43
f 153/86/47 154/85/48 149/84/45
f 157/89/49 158/88/50 153/87/47
f 161/92/51 162/91/52 157/90/49
f 167/96/53 168/93/53 169/94/53
f 170/95/53 169/94/53 168/93/53
f 175/96/53 176/93/53 177/94/53
f 178/95/53 177/94/53 176/93/53
f 162/99/52 158/98/50 157/97/49
f 158/102/50 154/101/48 153/100/47
f 154/105/48 150/104/46 149/103/45
f 150/108/46 146/107/44 145/106/43
f 146/111/44 141/110/41 140/109/40
f 141/114/41 180/113/54 142/112/42
usemtl material_1_0
f 1/1/1 2/2/2 3/3/1
f 2/2/2 1/1/1 4/4/2
f 9/5/3 10/6/3 11/7/3
f 10/6/3 9/5/3 12/8/3
f 12/8/3 9/5/3 13/9/3
f 12/8/3 13/9/3 14/10/3
f 14/10/3 13/9/3 15/11/3
f 15/11/3 13/9/3 16/12/3
f 15/11/3 16/12/3 17/13/3
f 17/13/3 16/12/3 18/14/3
f 17/13/3 18/14/3 19/15/3
f 19/15/3 18/14/3 20/16/3
f 19/15/3 20/16/3 21/17/3
f 21/17/3 20/16/3 22/18/3
f 22/18/3 20/16/3 23/19/3
f 22/18/3 23/19/3 24/20/3
f 24/20/3 23/19/3 25/21/3
f 24/20/3 25/21/3 26/22/3
f 26/22/3 25/21/3 27/23/3
f 4/4/2 47/24/4 2/25/2
f 47/24/4 4/4/2 48/26/4
f 51/27/5 52/28/5 53/29/5
f 52/28/5 51/27/5 54/30/5
f 54/30/5 51/27/5 55/31/5
f 54/30/5 55/31/5 56/32/5
f 56/32/5 55/31/5 57/33/5
f 56/32/5 57/33/5 58/34/5
f 58/34/5 57/33/5 59/35/5
f 58/34/5 59/35/5 60/36/5
f 60/36/5 59/35/5 61/37/5
f 60/36/5 61/37/5 62/38/5
f 62/38/5 61/37/5 63/39/5
f 62/38/5 63/39/5 64/40/5
f 62/38/5 64/40/5 65/41/5
f 65/41/5 64/40/5 66/42/5
f 65/41/5 66/42/5 67/43/5
f 67/43/5 66/42/5 68/44/5
f 67/43/5 68/44/5 69/45/5
f 89/46/6 3/47/1 90/48/6
f 3/47/1 89/46/6 1/1/1
f 93/49/7 90/50/6 94/51/7
f 90/50/6 93/49/7 89/46/6
f 97/52/8 94/53/7 98/54/8
f 94/53/7 97/52/8 93/49/7
f 101/55/9 98/56/8 102/57/9
f 98/56/8 101/55/9 97/52/8
f 105/58/10 102/57/9 106/59/10
f 102/57/9 105/58/10 101/55/9
f 109/60/11 106/61/10 110/62/11
f 106/61/10 109/60/11 105/58/10
f 113/63/12 114/64/12 115/65/12
f 114/64/12 113/63/12 116/66/12
f 121/67/13 122/68/13 123/69/13
f 122/68/13 121/67/13 124/70/13
f 129/71/14 130/72/14 131/73/14
f 130/72/14 129/71/14 132/74/14
f 137/75/15 138/76/16 139/77/17
f 139/78/17 143/79/18 144/80/19
f 144/81/19 147/82/20 148/83/21
f 148/84/21 151/85/22 152/86/23
f 152/87/23 155/88/24 156/89/25
f 156/90/25 159/91/26 160/92/27
f 163/93/28 164/94/28 165/95/28
f 164/94/28 163/93/28 166/96/28
f 171/93/28 172/94/28 173/95/28
f 172/94/28 171/93/28 174/96/28
f 156/97/25 155/98/24 159/99/26
f 152/100/23 151/101/22 155/102/24
f 148/103/21 147/104/20 151/105/22
f 144/106/19 143/107/18 147/108/20
f 139/109/17 138/110/16 143/111/18
f 137/112/15 179/113/29 138/114/16
