# SSTK version 0.8.0
# 21
mtllib original-21.mtl
o mesh36/mesh36-geometry#mesh36-geometry
v -0.175966 0.029335 0.673278
v -0.266336 0.029335 0.719268
v -0.266336 0.029335 0.673278
v -0.175966 0.029335 0.719268
v -0.297353 0.029335 0.805130
v -0.125583 0.029335 0.553156
v -0.125583 0.029335 0.805130
v -0.297353 0.029335 0.553156
v 0.046186 0.029335 0.805130
v -0.297353 -0.044671 0.553156
v -0.125583 0.029335 0.567783
v 0.043844 0.026992 0.805130
v -0.110086 0.029335 0.760912
v -0.297353 -0.044671 0.805130
v 0.046186 0.029335 0.553156
v -0.125583 0.029335 0.595935
v 0.043844 -0.042328 0.805130
v -0.295010 0.026992 0.805130
v -0.125583 0.029335 0.760912
v -0.076925 0.029335 0.719268
v -0.295010 -0.042328 0.805130
v 0.046186 -0.044671 0.805130
v -0.110086 0.029335 0.567783
v -0.125583 0.029335 0.733790
v 0.043844 -0.042328 0.364734
v -0.295010 0.026992 0.364734
v -0.110086 0.029335 0.733790
v -0.076925 0.029335 0.673278
v 0.013445 0.029335 0.719268
v 0.046186 -0.044671 0.553156
v -0.110086 0.029335 0.595935
v 0.043844 0.026992 0.364734
v 0.013445 0.029335 0.673278
v 0.042352 -0.040837 0.364734
v -0.295010 -0.042328 0.364734
v 0.042352 0.025501 0.364734
v -0.293519 -0.040837 0.364734
v 0.042352 -0.001947 0.364734
v -0.293519 0.025501 0.364734
v -0.293519 -0.001947 0.364734
v 0.042352 -0.001947 0.805130
v -0.293519 0.025501 0.805130
v 0.042352 0.025501 0.805130
v -0.293519 -0.001947 0.805130
vt -0.163069 -0.23942
vt -0.101247 -0.502222
vt -0.163069 -0.331087
vt -0.343191 -0.23942
vt -0.443611 0
vt -0.343191 -0.331087
vt -0.443611 -0.502222
vt -0.101247 0
vt -0.443611 0.195975
vt -0.101247 0.195975
vt -0.785975 0.195975
vt 0 0.195975
vt 0 0.048469
vt -0.502222 0.195975
vt -0.443611 -0.029153
vt -0.781305 0.191305
vt -0.785975 -0.502222
vt -0.474499 -0.414089
vt -0.502222 0.048469
vt -0.785975 0
vt -0.443611 -0.085264
vt -0.781305 0.053139
vt -0.105917 0.191305
vt -0.443611 -0.414089
vt -0.540595 -0.331087
vt -0.101247 0.048469
vt -0.105917 0.053139
vt 0.101247 -0.502222
vt 0.101247 0
vt 0.785975 -0.502222
vt -0.474499 -0.029153
vt -0.443611 -0.360032
vt -0.785975 0.048469
vt -0.502222 0.053139
vt -0.502222 0.191305
vt 0.375556 0.053139
vt -0.474499 -0.360032
vt -0.540595 -0.23942
vt -0.720717 -0.331087
vt 0.785975 0
vt -0.474499 -0.085264
vt 0.502222 0.195975
vt 0.502222 0.048469
vt 0.375556 0.191305
vt -0.781305 -0.502222
vt -0.781305 0.375556
vt -0.105917 -0.502222
vt 0.502222 0.191305
vt 0.502222 0.053139
vt -0.375556 0.191305
vt -0.105917 0.375556
vt -0.375556 0.053139
vt -0.720717 -0.23942
vn 0 -1 0
vn 0 0 -1
vn 1 0 0
vn 0 1 0
vn -1 0 0
vn 0 0 1
usemtl material_0_0
f 1//1 2//1 3//1
f 2//1 1//1 4//1
f 2//1 5//1 3//1
f 3//1 6//1 1//1
f 1//1 6//1 4//1
f 7//1 2//1 4//1
f 5//1 2//1 7//1
f 8//1 3//1 5//1
f 3//1 8//1 6//1
f 7//1 4//1 6//1
f 9//2 5//2 7//2
f 5//3 10//3 8//3
f 7//1 6//1 11//1
f 9//2 12//2 5//2
f 7//1 13//1 9//1
f 10//3 5//3 14//3
f 15//1 11//1 6//1
f 7//1 11//1 16//1
f 9//2 17//2 12//2
f 18//2 5//2 12//2
f 13//1 7//1 19//1
f 9//1 13//1 20//1
f 21//2 14//2 5//2
f 22//4 10//4 14//4
f 11//1 15//1 23//1
f 23//1 16//1 11//1
f 7//1 16//1 24//1
f 22//2 17//2 9//2
f 25//3 12//3 17//3
f 21//2 5//2 18//2
f 12//4 26//4 18//4
f 18//1 26//1 12//1
f 7//1 24//1 19//1
f 19//1 27//1 13//1
f 20//1 13//1 28//1
f 9//1 20//1 29//1
f 14//2 21//2 22//2
f 10//4 22//4 30//4
f 23//1 15//1 31//1
f 16//1 23//1 31//1
f 31//1 24//1 16//1
f 17//2 22//2 21//2
f 15//5 22//5 9//5
f 12//3 25//3 32//3
f 21//1 25//1 17//1
f 26//5 21//5 18//5
f 26//4 12//4 32//4
f 32//1 12//1 26//1
f 27//1 19//1 24//1
f 27//1 28//1 13//1
f 33//1 20//1 28//1
f 20//1 33//1 29//1
f 9//1 29//1 15//1
f 22//5 15//5 30//5
f 31//1 15//1 28//1
f 24//1 31//1 27//1
f 25//2 34//2 32//2
f 25//1 21//1 35//1
f 21//5 26//5 35//5
f 32//2 36//2 26//2
f 31//1 28//1 27//1
f 28//1 15//1 33//1
f 33//1 15//1 29//1
f 34//2 25//2 37//2
f 32//2 34//2 38//2
f 35//2 37//2 25//2
f 37//2 35//2 26//2
f 32//2 38//2 36//2
f 39//2 26//2 36//2
f 40//2 34//2 37//2
f 34//2 40//2 38//2
f 37//2 26//2 40//2
f 41//5 36//5 38//5
f 38//3 36//3 41//3
f 40//2 26//2 39//2
f 36//1 42//1 39//1
f 39//4 42//4 36//4
f 40//4 41//4 38//4
f 38//1 41//1 40//1
f 36//5 41//5 43//5
f 43//3 41//3 36//3
f 42//3 40//3 39//3
f 39//5 40//5 42//5
f 42//1 36//1 43//1
f 43//4 36//4 42//4
f 41//4 40//4 44//4
f 44//1 40//1 41//1
f 41//2 42//2 43//2
f 40//3 42//3 44//3
f 44//5 42//5 40//5
f 42//2 41//2 44//2
usemtl material_1_0
f 3//4 2//4 1//4
f 4//4 1//4 2//4
f 28//4 20//4 33//4
f 29//4 33//4 20//4
usemtl material_2_0
f 3/1/4 5/2/4 2/3/4
f 1/4/4 6/5/4 3/1/4
f 4/6/4 6/5/4 1/4/4
f 4/6/4 2/3/4 7/7/4
f 7/7/4 2/3/4 5/2/4
f 5/2/4 3/1/4 8/8/4
f 6/5/4 8/8/4 3/1/4
f 6/5/4 4/6/4 7/7/4
f 7/9/6 5/10/6 9/11/6
f 8/12/5 10/13/5 5/14/5
f 11/15/4 6/5/4 7/7/4
f 5/10/6 12/16/6 9/11/6
f 9/17/4 13/18/4 7/7/4
f 14/19/5 5/14/5 10/13/5
f 6/5/4 11/15/4 15/20/4
f 16/21/4 11/15/4 7/7/4
f 12/16/6 17/22/6 9/11/6
f 12/16/6 5/10/6 18/23/6
f 19/24/4 7/7/4 13/18/4
f 20/25/4 13/18/4 9/17/4
f 5/10/6 14/26/6 21/27/6
f 14/28/1 10/29/1 22/30/1
f 23/31/4 15/20/4 11/15/4
f 11/15/4 16/21/4 23/31/4
f 24/32/4 16/21/4 7/7/4
f 9/11/6 17/22/6 22/33/6
f 17/34/5 12/35/5 25/36/5
f 18/23/6 5/10/6 21/27/6
f 19/24/4 24/32/4 7/7/4
f 13/18/4 27/37/4 19/24/4
f 28/38/4 13/18/4 20/25/4
f 29/39/4 20/25/4 9/17/4
f 22/33/6 21/27/6 14/26/6
f 30/40/1 22/30/1 10/29/1
f 31/41/4 15/20/4 23/31/4
f 31/41/4 23/31/4 16/21/4
f 16/21/4 24/32/4 31/41/4
f 21/27/6 22/33/6 17/22/6
f 9/42/3 22/43/3 15/12/3
f 32/44/5 25/36/5 12/35/5
f 17/45/4 25/46/4 21/47/4
f 18/48/3 21/49/3 26/50/3
f 24/32/4 19/24/4 27/37/4
f 13/18/4 28/38/4 27/37/4
f 15/20/4 29/39/4 9/17/4
f 30/13/3 15/12/3 22/43/3
f 28/38/4 15/20/4 31/41/4
f 27/37/4 31/41/4 24/32/4
f 35/51/4 21/47/4 25/46/4
f 35/52/3 26/50/3 21/49/3
f 27/37/4 28/38/4 31/41/4
f 33/53/4 15/20/4 28/38/4
f 29/39/4 15/20/4 33/53/4
usemtl material_3_0
f 32//6 34//6 25//6
f 26//6 36//6 32//6
f 37//6 25//6 34//6
f 38//6 34//6 32//6
f 25//6 37//6 35//6
f 26//6 35//6 37//6
f 36//6 38//6 32//6
f 36//6 26//6 39//6
f 37//6 34//6 40//6
f 38//6 40//6 34//6
f 40//6 26//6 37//6
f 39//6 26//6 40//6
usemtl material_4_0
f 43//6 42//6 41//6
f 44//6 41//6 42//6
