# SSTK version 0.8.0
# 9
mtllib original-9.mtl
o mesh10/mesh10-geometry#mesh10-geometry
v 0.194511 0.058876 -0.300827
v 0.209920 0.059565 -0.319886
v 0.214468 0.058876 -0.310561
v 0.189963 0.059565 -0.310153
v 0.190974 0.062436 -0.358731
v 0.214809 0.070570 -0.309863
v 0.190303 0.071259 -0.309454
v 0.223360 0.057529 -0.292330
v 0.191315 0.074130 -0.358033
v 0.194852 0.070570 -0.300129
v 0.210261 0.071259 -0.319188
v 0.185435 0.063716 -0.377468
v 0.188561 0.074446 -0.361984
v 0.223700 0.069223 -0.291632
v 0.189368 0.063558 -0.376739
v 0.181126 0.063832 -0.377319
v 0.188221 0.062752 -0.362682
v 0.181466 0.075526 -0.376621
v 0.234592 0.069223 -0.296945
v 0.192912 0.063360 -0.375158
v 0.185776 0.075410 -0.376770
v 0.184795 0.074697 -0.364357
v 0.171698 0.075622 -0.373462
v 0.234252 0.057529 -0.297643
v 0.196394 0.074819 -0.372054
v 0.196053 0.063125 -0.372752
v 0.193252 0.075054 -0.374460
v 0.189709 0.075252 -0.376041
v 0.171358 0.063928 -0.374161
v 0.184454 0.063003 -0.365055
v 0.225360 0.058876 -0.315873
v 0.225701 0.070570 -0.315175
v 0.201046 0.062560 -0.365726
v 0.179670 0.063169 -0.365499
v 0.180011 0.074863 -0.364801
v 0.220812 0.059565 -0.325199
v 0.221153 0.071259 -0.324501
v 0.201386 0.074254 -0.365028
v 0.165085 0.075581 -0.369543
v 0.174207 0.074923 -0.362968
v 0.233672 0.059565 -0.331471
v 0.238561 0.070570 -0.321447
v 0.173866 0.063229 -0.363667
v 0.164745 0.063887 -0.370241
v 0.238220 0.058876 -0.322145
v 0.234012 0.071259 -0.330773
v 0.161311 0.075503 -0.366400
v 0.169775 0.074897 -0.360373
v 0.169434 0.063203 -0.361071
v 0.160971 0.063809 -0.367098
v 0.165757 0.074829 -0.357285
v 0.165417 0.063135 -0.357983
vn -0.28315373345794653 -0.6143475529457516 0.7364788166800136
vn -0.7882250662053543 -0.5378197746566938 -0.29908382603174644
vn 0.28315373345794653 0.6143475529457516 -0.7364788166800136
vn 0.7882250662053543 0.5378197746566938 0.29908382603174644
vn -0.7838785148123701 -0.45187429251173233 0.4258451570495715
vn 0.7838785148123701 0.45187429251173233 -0.4258451570495715
vn -0.24960815097902087 0.5378179676667032 0.8052624445605862
vn 0.24960815097902087 -0.5378179676667032 -0.8052624445605862
vn -0.754679483726429 0.6143457459557611 -0.23030019815117364
vn 0.754679483726429 -0.6143457459557611 0.23030019815117364
vn -0.7578319559946142 0.4427277618504449 0.4792523921278564
vn 0.7578319559946142 -0.4427277618504449 -0.4792523921278564
vn 0.05490624734879031 -0.3972478942271839 -0.916067363535096
vn -0.05490624734879031 0.3972478942271839 0.916067363535096
vn -0.6025732567046815 0.43295105291942315 0.6704169270538123
vn 0.6025732567046815 -0.43295105291942315 -0.6704169270538123
vn 0.2536458100745493 -0.40567445719625445 -0.8781184645650891
vn -0.2536458100745493 0.40567445719625445 0.8781184645650891
vn -0.1659929045940636 -0.39286786877114493 -0.9044894655614539
vn 0.1659929045940636 0.39286786877114493 0.9044894655614539
vn -0.628976713750684 -0.4739091231555504 0.6162778890641196
vn 0.628976713750684 0.4739091231555504 -0.6162778890641196
vn -0.13980582044098283 0.5065607062286035 -0.8507940899395119
vn 0.13980582044098283 -0.5065607062286035 0.8507940899395119
vn 0.44476368652303233 -0.41626575218227685 -0.7930372543018172
vn -0.44476368652303233 0.41626575218227685 0.7930372543018172
vn 0.08101446768892416 0.4994720032243761 -0.862533694425968
vn -0.08101446768892416 -0.4994720032243761 0.862533694425968
vn -0.2741111440489008 0.4143964344479277 0.8678356271927575
vn 0.2741111440489008 -0.4143964344479277 -0.8678356271927575
vn -0.3534582131129003 0.5076301469048636 -0.7857346406620891
vn 0.3534582131129003 -0.5076301469048636 0.7857346406620891
vn 0.6559717119079858 0.4684625849539484 -0.5918140921562877
vn -0.6559717119079858 -0.4684625849539484 0.5918140921562877
vn 0.6297537796240563 -0.4320255081734531 -0.645572720409316
vn -0.6297537796240563 0.4320255081734531 0.645572720409316
vn 0.4708905883493761 0.48109578457598856 -0.7394652796901234
vn -0.4708905883493761 -0.48109578457598856 0.7394652796901234
vn 0.2797757526153129 0.49179151675026994 -0.8245402551125106
vn -0.2797757526153129 -0.49179151675026994 0.8245402551125106
vn -0.379571838127381 -0.3892753809329549 -0.8392793917999561
vn 0.379571838127381 0.3892753809329549 0.8392793917999561
vn -0.3006766068861308 -0.49802803573072274 0.8133644040020691
vn 0.3006766068861308 0.49802803573072274 -0.8133644040020691
vn 0.7556934877927791 -0.44258831399630166 -0.48274520900936546
vn -0.7556934877927791 0.44258831399630166 0.48274520900936546
vn 0.08020385820298868 -0.5089174076881886 0.8570708332928434
vn -0.08020385820298868 0.5089174076881886 -0.8570708332928434
vn 0.10660645233131072 0.3979131303860413 0.9112081019107069
vn -0.10660645233131072 -0.3979131303860413 -0.9112081019107069
vn 0.7817476606257576 0.45227525336295804 -0.4293223617535282
vn -0.7817476606257576 -0.45227525336295804 0.4293223617535282
vn -0.5018882702673246 0.5058408953593035 -0.7015932958275549
vn 0.5018882702673246 -0.5058408953593035 0.7015932958275549
vn 0.37460954330611534 0.3893209702123107 0.8414849209682421
vn -0.37460954330611534 -0.3893209702123107 -0.8414849209682421
vn 0.3484940178984399 -0.5076498290369015 0.7879362731641477
vn -0.3484940178984399 0.5076498290369015 -0.7879362731641477
vn -0.527938839733731 -0.38889890981085223 -0.7550087545509208
vn 0.527938839733731 0.38889890981085223 0.7550087545509208
vn -0.809250955443226 0.5695766878368131 -0.14385856869533878
vn 0.809250955443226 -0.5695766878368131 0.14385856869533878
vn 0.5116944873176134 0.38825390741798665 0.7664382917257139
vn -0.5116944873176134 -0.38825390741798665 -0.7664382917257139
vn 0.48566917302198853 -0.5056184769223147 0.7130746175337447
vn -0.48566917302198853 0.5056184769223147 -0.7130746175337447
vn -0.840408129828804 -0.5005559315423659 -0.2077448789149959
vn 0.840408129828804 0.5005559315423659 0.2077448789149959
vn -0.16187378350734347 0.5786692923242175 0.7993364300055434
vn 0.16187378350734347 -0.5786692923242175 -0.7993364300055434
vn -0.19791529104136438 -0.6592219357586674 0.7254350260268713
vn 0.19791529104136438 0.6592219357586674 -0.7254350260268713
usemtl material_0_0
f 1//1 2//2 3//1
f 2//2 1//1 4//2
f 3//3 2//4 1//3
f 4//4 1//3 2//4
f 5//5 3//1 2//2
f 2//4 3//3 5//6
f 6//7 1//1 3//1
f 3//3 1//3 6//8
f 1//1 7//9 4//2
f 4//4 7//10 1//3
f 7//9 2//2 4//2
f 4//4 2//4 7//10
f 5//5 8//1 3//1
f 3//3 8//3 5//6
f 2//2 9//11 5//5
f 5//6 9//12 2//4
f 1//1 6//7 10//7
f 10//8 6//8 1//3
f 8//1 6//7 3//1
f 3//3 6//8 8//3
f 7//9 1//1 10//7
f 10//8 1//3 7//10
f 2//2 7//9 11//9
f 11//10 7//10 2//4
f 12//13 8//1 5//5
f 5//6 8//3 12//14
f 9//11 2//2 11//9
f 11//10 2//4 9//12
f 13//15 5//5 9//11
f 9//12 5//6 13//16
f 6//7 7//9 10//7
f 10//8 7//10 6//8
f 6//7 8//1 14//7
f 14//8 8//3 6//8
f 7//9 6//7 11//9
f 11//10 6//8 7//10
f 15//17 8//1 12//13
f 12//14 8//3 15//18
f 12//13 5//5 16//19
f 16//20 5//6 12//14
f 14//7 9//11 11//9
f 11//10 9//12 14//8
f 5//5 13//15 17//21
f 17//22 13//16 5//6
f 9//11 18//23 13//15
f 13//16 18//24 9//12
f 8//1 19//4 14//7
f 14//8 19//2 8//3
f 14//7 11//9 6//7
f 6//8 11//10 14//8
f 20//25 8//1 15//17
f 15//18 8//3 20//26
f 21//27 15//17 12//13
f 12//14 15//18 21//28
f 16//19 5//5 17//21
f 17//22 5//6 16//20
f 18//23 12//13 16//19
f 16//20 12//14 18//24
f 14//7 21//27 9//11
f 9//12 21//28 14//8
f 22//29 17//21 13//15
f 13//16 17//22 22//30
f 18//23 9//11 21//27
f 21//28 9//12 18//24
f 13//15 18//23 23//31
f 23//32 18//24 13//16
f 19//4 8//1 24//10
f 24//9 8//3 19//2
f 19//4 25//33 14//7
f 14//8 25//34 19//2
f 26//35 8//1 20//25
f 20//26 8//3 26//36
f 15//17 27//37 20//25
f 20//26 27//38 15//18
f 15//17 21//27 28//39
f 28//40 21//28 15//18
f 12//13 18//23 21//27
f 21//28 18//24 12//14
f 16//19 17//21 29//41
f 29//42 17//22 16//20
f 16//19 23//31 18//23
f 18//24 23//32 16//20
f 14//7 28//39 21//27
f 21//28 28//40 14//8
f 17//21 22//29 30//43
f 30//44 22//30 17//22
f 13//15 23//31 22//29
f 22//30 23//32 13//16
f 8//1 31//10 24//10
f 24//9 31//9 8//3
f 31//10 19//4 24//10
f 24//9 19//2 31//9
f 32//4 25//33 19//4
f 19//2 25//34 32//2
f 14//7 25//33 27//37
f 27//38 25//34 14//8
f 33//45 8//1 26//35
f 26//36 8//3 33//46
f 20//25 25//33 26//35
f 26//36 25//34 20//26
f 27//37 15//17 28//39
f 28//40 15//18 27//38
f 25//33 20//25 27//37
f 27//38 20//26 25//34
f 29//41 17//21 30//43
f 30//44 17//22 29//42
f 23//31 16//19 29//41
f 29//42 16//20 23//32
f 14//7 27//37 28//39
f 28//40 27//38 14//8
f 22//29 34//47 30//43
f 30//44 34//48 22//30
f 22//29 23//31 35//49
f 35//50 23//32 22//30
f 31//10 8//1 36//8
f 36//7 8//3 31//9
f 19//4 31//10 32//4
f 32//2 31//9 19//2
f 37//3 25//33 32//4
f 32//2 25//34 37//1
f 36//8 8//1 33//45
f 33//46 8//3 36//7
f 26//35 38//51 33//45
f 33//46 38//52 26//36
f 38//51 26//35 25//33
f 25//34 26//36 38//52
f 29//41 30//43 34//47
f 34//48 30//44 29//42
f 29//41 39//53 23//31
f 23//32 39//54 29//42
f 34//47 22//29 35//49
f 35//50 22//30 34//48
f 35//49 23//31 40//55
f 40//56 23//32 35//50
f 41//8 31//10 36//8
f 36//7 31//9 41//7
f 31//10 42//4 32//4
f 32//2 42//2 31//9
f 25//33 37//3 38//51
f 38//52 37//1 25//34
f 42//4 37//3 32//4
f 32//2 37//1 42//2
f 33//45 37//3 36//8
f 36//7 37//1 33//46
f 37//3 33//45 38//51
f 38//52 33//46 37//1
f 29//41 34//47 43//57
f 43//58 34//48 29//42
f 39//53 29//41 44//59
f 44//60 29//42 39//54
f 40//55 23//31 39//53
f 39//54 23//32 40//56
f 35//49 43//57 34//47
f 34//48 43//58 35//50
f 43//57 35//49 40//55
f 40//56 35//50 43//58
f 31//10 41//8 45//10
f 45//9 41//7 31//9
f 37//3 41//8 36//8
f 36//7 41//7 37//1
f 42//4 31//10 45//10
f 45//9 31//9 42//2
f 37//3 42//4 46//3
f 46//1 42//2 37//1
f 29//41 43//57 44//59
f 44//60 43//58 29//42
f 44//59 47//61 39//53
f 39//54 47//62 44//60
f 40//55 39//53 48//63
f 48//64 39//54 40//56
f 40//55 49//65 43//57
f 43//58 49//66 40//56
f 41//8 42//4 45//10
f 45//9 42//2 41//7
f 41//8 37//3 46//3
f 46//1 37//1 41//7
f 42//4 41//8 46//3
f 46//1 41//7 42//2
f 44//59 43//57 49//65
f 49//66 43//58 44//60
f 47//61 44//59 50//67
f 50//68 44//60 47//62
f 51//69 39//53 47//61
f 47//62 39//54 51//70
f 48//63 39//53 51//69
f 51//70 39//54 48//64
f 49//65 40//55 48//63
f 48//64 40//56 49//66
f 44//59 49//65 52//71
f 52//72 49//66 44//60
f 44//59 52//71 50//67
f 50//68 52//72 44//60
f 52//71 47//61 50//67
f 50//68 47//62 52//72
f 47//61 52//71 51//69
f 51//70 52//72 47//62
f 52//71 48//63 51//69
f 51//70 48//64 52//72
f 48//63 52//71 49//65
f 49//66 52//72 48//64
