# SSTK version 0.8.0
# 13
mtllib original-13.mtl
o #ID66
v -0.048093 -0.003591 0.467734
v -0.076691 -0.005111 0.467734
v -0.050809 -0.005111 0.467734
v -0.080523 -0.004607 0.467734
v -0.084095 -0.003128 0.467734
v -0.045717 -0.001577 0.467734
v -0.087161 -0.000774 0.467734
v -0.043772 0.000854 0.467734
v -0.089514 0.002292 0.467734
v -0.042328 0.003612 0.467734
v -0.090994 0.005863 0.467734
v -0.041440 0.006597 0.467734
v -0.091498 0.009696 0.467734
v -0.041141 0.009696 0.467734
v -0.041440 0.012795 0.467734
v -0.090994 0.013528 0.467734
v -0.042328 0.015779 0.467734
v -0.089514 0.017100 0.467734
v -0.043772 0.018538 0.467734
v -0.087161 0.020166 0.467734
v -0.045717 0.020969 0.467734
v -0.084095 0.022519 0.467734
v -0.048093 0.022982 0.467734
v -0.080523 0.023999 0.467734
v -0.050809 0.024503 0.467734
v -0.076691 0.024503 0.467734
v -0.076691 0.024503 0.467734
v -0.050809 0.024503 0.467734
v -0.080523 0.023999 0.467734
v -0.048093 0.022982 0.467734
v -0.084095 0.022519 0.467734
v -0.045717 0.020969 0.467734
v -0.087161 0.020166 0.467734
v -0.043772 0.018538 0.467734
v -0.089514 0.017100 0.467734
v -0.042328 0.015779 0.467734
v -0.090994 0.013528 0.467734
v -0.041440 0.012795 0.467734
v -0.091498 0.009696 0.467734
v -0.041141 0.009696 0.467734
v -0.041440 0.006597 0.467734
v -0.090994 0.005863 0.467734
v -0.042328 0.003612 0.467734
v -0.089514 0.002292 0.467734
v -0.043772 0.000854 0.467734
v -0.087161 -0.000774 0.467734
v -0.045717 -0.001577 0.467734
v -0.084095 -0.003128 0.467734
v -0.048093 -0.003591 0.467734
v -0.080523 -0.004607 0.467734
v -0.076691 -0.005111 0.467734
v -0.050809 -0.005111 0.467734
v -0.050809 0.024503 0.467734
v -0.076691 0.024503 0.464773
v -0.076691 0.024503 0.467734
v -0.050809 0.024503 0.464773
v -0.050809 0.024503 0.464773
v -0.050809 0.024503 0.467734
v -0.076691 0.024503 0.464773
v -0.076691 0.024503 0.467734
v -0.076691 0.024503 0.467734
v -0.080523 0.023999 0.464773
v -0.080523 0.023999 0.467734
v -0.076691 0.024503 0.464773
v -0.076691 0.024503 0.464773
v -0.076691 0.024503 0.467734
v -0.080523 0.023999 0.464773
v -0.080523 0.023999 0.467734
v -0.084095 0.022519 0.464773
v -0.084095 0.022519 0.467734
v -0.084095 0.022519 0.464773
v -0.084095 0.022519 0.467734
v -0.087161 0.020166 0.464773
v -0.087161 0.020166 0.467734
v -0.087161 0.020166 0.464773
v -0.087161 0.020166 0.467734
v -0.089514 0.017100 0.467734
v -0.089514 0.017100 0.464773
v -0.089514 0.017100 0.464773
v -0.089514 0.017100 0.467734
v -0.090994 0.013528 0.467734
v -0.090994 0.013528 0.464773
v -0.090994 0.013528 0.464773
v -0.090994 0.013528 0.467734
v -0.091498 0.009696 0.467734
v -0.091498 0.009696 0.464773
v -0.091498 0.009696 0.464773
v -0.091498 0.009696 0.467734
v -0.090994 0.005863 0.467734
v -0.090994 0.005863 0.464773
v -0.090994 0.005863 0.464773
v -0.090994 0.005863 0.467734
v -0.089514 0.002292 0.467734
v -0.089514 0.002292 0.464773
v -0.089514 0.002292 0.464773
v -0.089514 0.002292 0.467734
v -0.087161 -0.000774 0.467734
v -0.087161 -0.000774 0.464773
v -0.087161 -0.000774 0.464773
v -0.087161 -0.000774 0.467734
v -0.084095 -0.003128 0.464773
v -0.084095 -0.003128 0.467734
v -0.084095 -0.003128 0.467734
v -0.084095 -0.003128 0.464773
v -0.080523 -0.004607 0.464773
v -0.080523 -0.004607 0.467734
v -0.080523 -0.004607 0.467734
v -0.080523 -0.004607 0.464773
v -0.076691 -0.005111 0.464773
v -0.076691 -0.005111 0.467734
v -0.076691 -0.005111 0.467734
v -0.076691 -0.005111 0.464773
v -0.050809 -0.005111 0.464773
v -0.076691 -0.005111 0.467734
v -0.076691 -0.005111 0.464773
v -0.050809 -0.005111 0.467734
v -0.050809 -0.005111 0.467734
v -0.050809 -0.005111 0.464773
v -0.076691 -0.005111 0.467734
v -0.076691 -0.005111 0.464773
v -0.048093 -0.003591 0.464773
v -0.050809 -0.005111 0.467734
v -0.050809 -0.005111 0.464773
v -0.048093 -0.003591 0.467734
v -0.048093 -0.003591 0.467734
v -0.048093 -0.003591 0.464773
v -0.050809 -0.005111 0.467734
v -0.050809 -0.005111 0.464773
v -0.045717 -0.001577 0.464773
v -0.045717 -0.001577 0.467734
v -0.045717 -0.001577 0.467734
v -0.045717 -0.001577 0.464773
v -0.043772 0.000854 0.467734
v -0.043772 0.000854 0.464773
v -0.043772 0.000854 0.464773
v -0.043772 0.000854 0.467734
v -0.042328 0.003612 0.467734
v -0.042328 0.003612 0.464773
v -0.042328 0.003612 0.464773
v -0.042328 0.003612 0.467734
v -0.041440 0.006597 0.467734
v -0.041440 0.006597 0.464773
v -0.041440 0.006597 0.464773
v -0.041440 0.006597 0.467734
v -0.041141 0.009696 0.467734
v -0.041141 0.009696 0.464773
v -0.041141 0.009696 0.464773
v -0.041141 0.009696 0.467734
v -0.041440 0.012795 0.467734
v -0.041440 0.012795 0.464773
v -0.041440 0.012795 0.464773
v -0.041440 0.012795 0.467734
v -0.042328 0.015779 0.467734
v -0.042328 0.015779 0.464773
v -0.042328 0.015779 0.464773
v -0.042328 0.015779 0.467734
v -0.043772 0.018538 0.467734
v -0.043772 0.018538 0.464773
v -0.043772 0.018538 0.464773
v -0.043772 0.018538 0.467734
v -0.045717 0.020969 0.467734
v -0.045717 0.020969 0.464773
v -0.045717 0.020969 0.464773
v -0.045717 0.020969 0.467734
v -0.048093 0.022982 0.464773
v -0.048093 0.022982 0.467734
v -0.048093 0.022982 0.464773
v -0.048093 0.022982 0.467734
v -0.050809 0.024503 0.464773
v -0.050809 0.024503 0.467734
v -0.050809 0.024503 0.464773
v -0.050809 0.024503 0.467734
vn 0 0 1
vn 0 1 0
vn -0.1305261948688555 0.9914448610250887 0
vn -0.25881900959356163 0.9659258358036645 0
vn -0.5000000016387101 0.866025402838329 0
vn -0.7071067811865476 0.7071067811865476 0
vn -0.866025402838329 0.5000000016387101 0
vn -0.9659258358036645 0.25881900959356163 0
vn -1 0 0
vn -0.9659258358036645 -0.25881900959356163 0
vn -0.866025402838329 -0.5000000016387101 0
vn -0.7071067811865476 -0.7071067811865476 0
vn -0.5000000016387101 -0.866025402838329 0
vn -0.25881900959356163 -0.9659258358036645 0
vn -0.1305261948688555 -0.9914448610250887 0
vn 0 -1 0
vn 0.5701543805996081 -0.8215375720459029 0
vn 0.4884246010641869 -0.8726061019012474 0
vn 0.7170175816637921 -0.6970550821742908 0
vn 0.8373047919668978 -0.546736394754611 0
vn 0.9265574857882344 -0.3761531942304702 0
vn 0.9814676481369801 -0.1916279093985664 0
vn 1 0 0
vn 0.9814676481369801 0.1916279093985664 0
vn 0.9265574857882344 0.3761531942304702 0
vn 0.8373047919668978 0.546736394754611 0
vn 0.7170175816637921 0.6970550821742908 0
vn 0.5701543805996081 0.8215375720459029 0
vn 0.4884246010641869 0.8726061019012474 0
vn 0 0 -1
vn 0.1305261948688555 -0.9914448610250887 0
vn 0.25881900959356163 -0.9659258358036645 0
vn 0.5000000016387101 -0.866025402838329 0
vn 0.7071067811865476 -0.7071067811865476 0
vn 0.866025402838329 -0.5000000016387101 0
vn 0.9659258358036645 -0.25881900959356163 0
vn 0.9659258358036645 0.25881900959356163 0
vn 0.866025402838329 0.5000000016387101 0
vn 0.7071067811865476 0.7071067811865476 0
vn 0.5000000016387101 0.866025402838329 0
vn 0.25881900959356163 0.9659258358036645 0
vn 0.1305261948688555 0.9914448610250887 0
vn -0.5701543805996081 0.8215375720459029 0
vn -0.4884246010641869 0.8726061019012474 0
vn -0.7170175816637921 0.6970550821742908 0
vn -0.8373047919668978 0.546736394754611 0
vn -0.9265574857882344 0.3761531942304702 0
vn -0.9814676481369801 0.1916279093985664 0
vn -0.9814676481369801 -0.1916279093985664 0
vn -0.9265574857882344 -0.3761531942304702 0
vn -0.8373047919668978 -0.546736394754611 0
vn -0.7170175816637921 -0.6970550821742908 0
vn -0.5701543805996081 -0.8215375720459029 0
vn -0.4884246010641869 -0.8726061019012474 0
usemtl material_0_0
f 1//1 2//1 3//1
f 2//1 1//1 4//1
f 4//1 1//1 5//1
f 5//1 1//1 6//1
f 5//1 6//1 7//1
f 7//1 6//1 8//1
f 7//1 8//1 9//1
f 9//1 8//1 10//1
f 9//1 10//1 11//1
f 11//1 10//1 12//1
f 11//1 12//1 13//1
f 13//1 12//1 14//1
f 13//1 14//1 15//1
f 13//1 15//1 16//1
f 16//1 15//1 17//1
f 16//1 17//1 18//1
f 18//1 17//1 19//1
f 18//1 19//1 20//1
f 20//1 19//1 21//1
f 20//1 21//1 22//1
f 22//1 21//1 23//1
f 22//1 23//1 24//1
f 24//1 23//1 25//1
f 24//1 25//1 26//1
f 53//2 54//2 55//2
f 54//2 53//2 56//2
f 61//3 62//4 63//4
f 62//4 61//3 64//3
f 63//4 69//5 70//5
f 69//5 63//4 62//4
f 70//5 73//6 74//6
f 73//6 70//5 69//5
f 73//6 77//7 74//6
f 77//7 73//6 78//7
f 78//7 81//8 77//7
f 81//8 78//7 82//8
f 82//8 85//9 81//8
f 85//9 82//8 86//9
f 86//9 89//10 85//9
f 89//10 86//9 90//10
f 90//10 93//11 89//10
f 93//11 90//10 94//11
f 94//11 97//12 93//11
f 97//12 94//11 98//12
f 101//13 97//12 98//12
f 97//12 101//13 102//13
f 105//14 102//13 101//13
f 102//13 105//14 106//14
f 109//15 106//14 105//14
f 106//14 109//15 110//15
f 113//16 114//16 115//16
f 114//16 113//16 116//16
f 121//17 122//18 123//18
f 122//18 121//17 124//17
f 129//19 124//17 121//17
f 124//17 129//19 130//19
f 129//19 133//20 130//19
f 133//20 129//19 134//20
f 134//20 137//21 133//20
f 137//21 134//20 138//21
f 138//21 141//22 137//21
f 141//22 138//21 142//22
f 142//22 145//23 141//22
f 145//23 142//22 146//23
f 146//23 149//24 145//23
f 149//24 146//23 150//24
f 150//24 153//25 149//24
f 153//25 150//24 154//25
f 154//25 157//26 153//25
f 157//26 154//25 158//26
f 158//26 161//27 157//26
f 161//27 158//26 162//27
f 161//27 165//28 166//28
f 165//28 161//27 162//27
f 166//28 169//29 170//29
f 169//29 166//28 165//28
usemtl material_1_0
f 27//30 28//30 29//30
f 28//30 30//30 29//30
f 29//30 30//30 31//30
f 30//30 32//30 31//30
f 31//30 32//30 33//30
f 32//30 34//30 33//30
f 33//30 34//30 35//30
f 34//30 36//30 35//30
f 35//30 36//30 37//30
f 36//30 38//30 37//30
f 37//30 38//30 39//30
f 38//30 40//30 39//30
f 40//30 41//30 39//30
f 39//30 41//30 42//30
f 41//30 43//30 42//30
f 42//30 43//30 44//30
f 43//30 45//30 44//30
f 44//30 45//30 46//30
f 45//30 47//30 46//30
f 46//30 47//30 48//30
f 47//30 49//30 48//30
f 48//30 49//30 50//30
f 50//30 49//30 51//30
f 52//30 51//30 49//30
f 57//16 58//16 59//16
f 60//16 59//16 58//16
f 65//31 66//31 67//32
f 68//32 67//32 66//31
f 67//32 68//32 71//33
f 72//33 71//33 68//32
f 71//33 72//33 75//34
f 76//34 75//34 72//33
f 79//35 75//34 80//35
f 76//34 80//35 75//34
f 83//36 79//35 84//36
f 80//35 84//36 79//35
f 87//23 83//36 88//23
f 84//36 88//23 83//36
f 91//37 87//23 92//37
f 88//23 92//37 87//23
f 95//38 91//37 96//38
f 92//37 96//38 91//37
f 99//39 95//38 100//39
f 96//38 100//39 95//38
f 103//40 104//40 100//39
f 99//39 100//39 104//40
f 107//41 108//41 103//40
f 104//40 103//40 108//41
f 111//42 112//42 107//41
f 108//41 107//41 112//42
f 117//2 118//2 119//2
f 120//2 119//2 118//2
f 125//43 126//43 127//44
f 128//44 127//44 126//43
f 131//45 132//45 125//43
f 126//43 125//43 132//45
f 135//46 132//45 136//46
f 131//45 136//46 132//45
f 139//47 135//46 140//47
f 136//46 140//47 135//46
f 143//48 139//47 144//48
f 140//47 144//48 139//47
f 147//9 143//48 148//9
f 144//48 148//9 143//48
f 151//49 147//9 152//49
f 148//9 152//49 147//9
f 155//50 151//49 156//50
f 152//49 156//50 151//49
f 159//51 155//50 160//51
f 156//50 160//51 155//50
f 163//52 159//51 164//52
f 160//51 164//52 159//51
f 163//52 164//52 167//53
f 168//53 167//53 164//52
f 167//53 168//53 171//54
f 172//54 171//54 168//53
