# SSTK version 0.8.0
# 8
mtllib original-8.mtl
o #ID36
v -0.205207 -0.013084 0.435158
v -0.243531 -0.013084 0.435158
v -0.224369 -0.015606 0.435158
v -0.224369 -0.012645 0.435158
v -0.205973 -0.010223 0.435158
v -0.187350 -0.005687 0.435158
v -0.188831 -0.003123 0.435158
v -0.172017 0.006079 0.435158
v -0.174111 0.008173 0.435158
v -0.160251 0.021412 0.435158
v -0.162816 0.022893 0.435158
v -0.152855 0.039268 0.435158
v -0.155716 0.040035 0.435158
v -0.150332 0.058430 0.435158
v -0.153294 0.058430 0.435158
v -0.152855 0.077592 0.435158
v -0.155716 0.076826 0.435158
v -0.162816 0.093968 0.435158
v -0.160251 0.095448 0.435158
v -0.174111 0.108688 0.435158
v -0.172017 0.110782 0.435158
v -0.188831 0.119983 0.435158
v -0.187350 0.122548 0.435158
v -0.205973 0.127083 0.435158
v -0.205207 0.129944 0.435158
v -0.224369 0.129505 0.435158
v -0.242764 -0.010223 0.435158
v -0.261387 -0.005687 0.435158
v -0.259906 -0.003123 0.435158
v -0.276720 0.006079 0.435158
v -0.274626 0.008173 0.435158
v -0.288486 0.021412 0.435158
v -0.285921 0.022893 0.435158
v -0.295882 0.039268 0.435158
v -0.293022 0.040035 0.435158
v -0.298405 0.058430 0.435158
v -0.295444 0.058430 0.435158
v -0.293022 0.076826 0.435158
v -0.295882 0.077592 0.435158
v -0.285921 0.093968 0.435158
v -0.288486 0.095448 0.435158
v -0.274626 0.108688 0.435158
v -0.276720 0.110782 0.435158
v -0.259906 0.119983 0.435158
v -0.261387 0.122548 0.435158
v -0.242764 0.127083 0.435158
v -0.243531 0.129944 0.435158
v -0.224369 0.132467 0.435158
v -0.224369 0.132467 0.435158
v -0.205207 0.129944 0.435158
v -0.243531 0.129944 0.435158
v -0.224369 0.129505 0.435158
v -0.242764 0.127083 0.435158
v -0.261387 0.122548 0.435158
v -0.259906 0.119983 0.435158
v -0.276720 0.110782 0.435158
v -0.274626 0.108688 0.435158
v -0.288486 0.095448 0.435158
v -0.285921 0.093968 0.435158
v -0.295882 0.077592 0.435158
v -0.293022 0.076826 0.435158
v -0.298405 0.058430 0.435158
v -0.295444 0.058430 0.435158
v -0.293022 0.040035 0.435158
v -0.295882 0.039268 0.435158
v -0.285921 0.022893 0.435158
v -0.288486 0.021412 0.435158
v -0.274626 0.008173 0.435158
v -0.276720 0.006079 0.435158
v -0.259906 -0.003123 0.435158
v -0.261387 -0.005687 0.435158
v -0.242764 -0.010223 0.435158
v -0.224369 -0.012645 0.435158
v -0.243531 -0.013084 0.435158
v -0.205973 0.127083 0.435158
v -0.187350 0.122548 0.435158
v -0.188831 0.119983 0.435158
v -0.172017 0.110782 0.435158
v -0.174111 0.108688 0.435158
v -0.160251 0.095448 0.435158
v -0.162816 0.093968 0.435158
v -0.152855 0.077592 0.435158
v -0.155716 0.076826 0.435158
v -0.153294 0.058430 0.435158
v -0.150332 0.058430 0.435158
v -0.155716 0.040035 0.435158
v -0.152855 0.039268 0.435158
v -0.162816 0.022893 0.435158
v -0.160251 0.021412 0.435158
v -0.174111 0.008173 0.435158
v -0.172017 0.006079 0.435158
v -0.188831 -0.003123 0.435158
v -0.187350 -0.005687 0.435158
v -0.205973 -0.010223 0.435158
v -0.205207 -0.013084 0.435158
v -0.224369 -0.015606 0.435158
v -0.150332 0.058430 0.435158
v -0.152855 0.039268 0.464773
v -0.150332 0.058430 0.464773
v -0.152855 0.039268 0.435158
v -0.152855 0.039268 0.435158
v -0.150332 0.058430 0.435158
v -0.152855 0.039268 0.464773
v -0.150332 0.058430 0.464773
v -0.152855 0.077592 0.435158
v -0.152855 0.077592 0.464773
v -0.152855 0.077592 0.435158
v -0.152855 0.077592 0.464773
v -0.160251 0.095448 0.435158
v -0.160251 0.095448 0.464773
v -0.160251 0.095448 0.435158
v -0.160251 0.095448 0.464773
v -0.172017 0.110782 0.435158
v -0.172017 0.110782 0.464773
v -0.172017 0.110782 0.435158
v -0.172017 0.110782 0.464773
v -0.187350 0.122548 0.464773
v -0.187350 0.122548 0.435158
v -0.187350 0.122548 0.464773
v -0.187350 0.122548 0.435158
v -0.205207 0.129944 0.464773
v -0.205207 0.129944 0.435158
v -0.205207 0.129944 0.464773
v -0.205207 0.129944 0.435158
v -0.224369 0.132467 0.464773
v -0.224369 0.132467 0.435158
v -0.224369 0.132467 0.464773
v -0.224369 0.132467 0.435158
v -0.243531 0.129944 0.464773
v -0.243531 0.129944 0.435158
v -0.243531 0.129944 0.464773
v -0.243531 0.129944 0.435158
v -0.261387 0.122548 0.464773
v -0.261387 0.122548 0.435158
v -0.261387 0.122548 0.464773
v -0.261387 0.122548 0.435158
v -0.276720 0.110782 0.464773
v -0.276720 0.110782 0.435158
v -0.276720 0.110782 0.464773
v -0.276720 0.110782 0.435158
v -0.288486 0.095448 0.435158
v -0.288486 0.095448 0.464773
v -0.288486 0.095448 0.435158
v -0.288486 0.095448 0.464773
v -0.295882 0.077592 0.435158
v -0.295882 0.077592 0.464773
v -0.295882 0.077592 0.435158
v -0.295882 0.077592 0.464773
v -0.298405 0.058430 0.435158
v -0.298405 0.058430 0.464773
v -0.298405 0.058430 0.435158
v -0.298405 0.058430 0.464773
v -0.295882 0.039268 0.435158
v -0.295882 0.039268 0.464773
v -0.295882 0.039268 0.435158
v -0.295882 0.039268 0.464773
v -0.288486 0.021412 0.435158
v -0.288486 0.021412 0.464773
v -0.288486 0.021412 0.435158
v -0.288486 0.021412 0.464773
v -0.276720 0.006079 0.435158
v -0.276720 0.006079 0.464773
v -0.276720 0.006079 0.435158
v -0.276720 0.006079 0.464773
v -0.261387 -0.005687 0.464773
v -0.261387 -0.005687 0.435158
v -0.261387 -0.005687 0.435158
v -0.261387 -0.005687 0.464773
v -0.243531 -0.013084 0.464773
v -0.243531 -0.013084 0.435158
v -0.243531 -0.013084 0.435158
v -0.243531 -0.013084 0.464773
v -0.224369 -0.015606 0.464773
v -0.224369 -0.015606 0.435158
v -0.224369 -0.015606 0.435158
v -0.224369 -0.015606 0.464773
v -0.205207 -0.013084 0.464773
v -0.205207 -0.013084 0.435158
v -0.205207 -0.013084 0.435158
v -0.205207 -0.013084 0.464773
v -0.187350 -0.005687 0.464773
v -0.187350 -0.005687 0.435158
v -0.187350 -0.005687 0.435158
v -0.187350 -0.005687 0.464773
v -0.172017 0.006079 0.464773
v -0.172017 0.006079 0.435158
v -0.172017 0.006079 0.435158
v -0.172017 0.006079 0.464773
v -0.160251 0.021412 0.435158
v -0.160251 0.021412 0.464773
v -0.160251 0.021412 0.435158
v -0.160251 0.021412 0.464773
vn 0 0 1
vn -1 0 0
vn -0.9659258358036645 0.25881900959356163 0
vn -0.9659258358036645 -0.25881900959356163 0
vn -0.866025402838329 -0.5000000016387101 0
vn -0.7071067811865476 -0.7071067811865476 0
vn -0.5000000016387101 -0.866025402838329 0
vn -0.25881900959356163 -0.9659258358036645 0
vn 0 -1 0
vn 0.25881900959356163 -0.9659258358036645 0
vn 0.5000000016387101 -0.866025402838329 0
vn 0.7071067811865476 -0.7071067811865476 0
vn 0.866025402838329 -0.5000000016387101 0
vn 0.9659258358036645 -0.25881900959356163 0
vn 1 0 0
vn 0.9659258358036645 0.25881900959356163 0
vn 0.866025402838329 0.5000000016387101 0
vn 0.7071067811865476 0.7071067811865476 0
vn 0.5000000016387101 0.866025402838329 0
vn 0.25881900959356163 0.9659258358036645 0
vn 0 1 0
vn -0.25881900959356163 0.9659258358036645 0
vn -0.5000000016387101 0.866025402838329 0
vn -0.7071067811865476 0.7071067811865476 0
vn -0.866025402838329 0.5000000016387101 0
vn 0 0 -1
usemtl material_0_0
f 1//1 2//1 3//1
f 2//1 1//1 4//1
f 4//1 1//1 5//1
f 5//1 1//1 6//1
f 5//1 6//1 7//1
f 7//1 6//1 8//1
f 7//1 8//1 9//1
f 9//1 8//1 10//1
f 9//1 10//1 11//1
f 11//1 10//1 12//1
f 11//1 12//1 13//1
f 13//1 12//1 14//1
f 13//1 14//1 15//1
f 15//1 14//1 16//1
f 15//1 16//1 17//1
f 17//1 16//1 18//1
f 18//1 16//1 19//1
f 18//1 19//1 20//1
f 20//1 19//1 21//1
f 20//1 21//1 22//1
f 22//1 21//1 23//1
f 22//1 23//1 24//1
f 24//1 23//1 25//1
f 24//1 25//1 26//1
f 2//1 27//1 28//1
f 27//1 2//1 4//1
f 28//1 27//1 29//1
f 28//1 29//1 30//1
f 30//1 29//1 31//1
f 30//1 31//1 32//1
f 32//1 31//1 33//1
f 32//1 33//1 34//1
f 34//1 33//1 35//1
f 34//1 35//1 36//1
f 36//1 35//1 37//1
f 36//1 37//1 38//1
f 36//1 38//1 39//1
f 39//1 38//1 40//1
f 39//1 40//1 41//1
f 41//1 40//1 42//1
f 41//1 42//1 43//1
f 43//1 42//1 44//1
f 43//1 44//1 45//1
f 45//1 44//1 46//1
f 45//1 46//1 47//1
f 47//1 46//1 26//1
f 47//1 26//1 25//1
f 47//1 25//1 48//1
f 97//2 98//3 99//2
f 98//3 97//2 100//3
f 105//4 99//2 106//4
f 99//2 105//4 97//2
f 109//5 106//4 110//5
f 106//4 109//5 105//4
f 113//6 110//5 114//6
f 110//5 113//6 109//5
f 113//6 117//7 118//7
f 117//7 113//6 114//6
f 118//7 121//8 122//8
f 121//8 118//7 117//7
f 122//8 125//9 126//9
f 125//9 122//8 121//8
f 126//9 129//10 130//10
f 129//10 126//9 125//9
f 130//10 133//11 134//11
f 133//11 130//10 129//10
f 134//11 137//12 138//12
f 137//12 134//11 133//11
f 141//13 137//12 142//13
f 137//12 141//13 138//12
f 145//14 142//13 146//14
f 142//13 145//14 141//13
f 149//15 146//14 150//15
f 146//14 149//15 145//14
f 153//16 150//15 154//16
f 150//15 153//16 149//15
f 157//17 154//16 158//17
f 154//16 157//17 153//16
f 161//18 158//17 162//18
f 158//17 161//18 157//17
f 165//19 161//18 162//18
f 161//18 165//19 166//19
f 169//20 166//19 165//19
f 166//19 169//20 170//20
f 173//21 170//20 169//20
f 170//20 173//21 174//21
f 177//22 174//21 173//21
f 174//21 177//22 178//22
f 181//23 178//22 177//22
f 178//22 181//23 182//23
f 185//24 182//23 181//23
f 182//23 185//24 186//24
f 189//25 185//24 190//25
f 185//24 189//25 186//24
f 100//3 190//25 98//3
f 190//25 100//3 189//25
usemtl material_1_0
f 49//26 50//26 51//26
f 50//26 52//26 51//26
f 52//26 53//26 51//26
f 51//26 53//26 54//26
f 53//26 55//26 54//26
f 54//26 55//26 56//26
f 55//26 57//26 56//26
f 56//26 57//26 58//26
f 57//26 59//26 58//26
f 58//26 59//26 60//26
f 59//26 61//26 60//26
f 60//26 61//26 62//26
f 61//26 63//26 62//26
f 63//26 64//26 62//26
f 62//26 64//26 65//26
f 64//26 66//26 65//26
f 65//26 66//26 67//26
f 66//26 68//26 67//26
f 67//26 68//26 69//26
f 68//26 70//26 69//26
f 69//26 70//26 71//26
f 70//26 72//26 71//26
f 73//26 74//26 72//26
f 71//26 72//26 74//26
f 52//26 50//26 75//26
f 50//26 76//26 75//26
f 75//26 76//26 77//26
f 76//26 78//26 77//26
f 77//26 78//26 79//26
f 78//26 80//26 79//26
f 79//26 80//26 81//26
f 80//26 82//26 81//26
f 81//26 82//26 83//26
f 83//26 82//26 84//26
f 82//26 85//26 84//26
f 84//26 85//26 86//26
f 85//26 87//26 86//26
f 86//26 87//26 88//26
f 87//26 89//26 88//26
f 88//26 89//26 90//26
f 89//26 91//26 90//26
f 90//26 91//26 92//26
f 91//26 93//26 92//26
f 92//26 93//26 94//26
f 93//26 95//26 94//26
f 94//26 95//26 73//26
f 73//26 95//26 74//26
f 96//26 74//26 95//26
f 101//14 102//15 103//14
f 104//15 103//14 102//15
f 102//15 107//16 104//15
f 108//16 104//15 107//16
f 107//16 111//17 108//16
f 112//17 108//16 111//17
f 111//17 115//18 112//17
f 116//18 112//17 115//18
f 116//18 115//18 119//19
f 120//19 119//19 115//18
f 119//19 120//19 123//20
f 124//20 123//20 120//19
f 123//20 124//20 127//21
f 128//21 127//21 124//20
f 127//21 128//21 131//22
f 132//22 131//22 128//21
f 131//22 132//22 135//23
f 136//23 135//23 132//22
f 135//23 136//23 139//24
f 140//24 139//24 136//23
f 140//24 143//25 139//24
f 144//25 139//24 143//25
f 143//25 147//3 144//25
f 148//3 144//25 147//3
f 147//3 151//2 148//3
f 152//2 148//3 151//2
f 151//2 155//4 152//2
f 156//4 152//2 155//4
f 155//4 159//5 156//4
f 160//5 156//4 159//5
f 159//5 163//6 160//5
f 164//6 160//5 163//6
f 167//7 168//7 163//6
f 164//6 163//6 168//7
f 171//8 172//8 167//7
f 168//7 167//7 172//8
f 175//9 176//9 171//8
f 172//8 171//8 176//9
f 179//10 180//10 175//9
f 176//9 175//9 180//10
f 183//11 184//11 179//10
f 180//10 179//10 184//11
f 187//12 188//12 183//11
f 184//11 183//11 188//12
f 187//12 191//13 188//12
f 192//13 188//12 191//13
f 191//13 101//14 192//13
f 103//14 192//13 101//14
