# SSTK version 0.8.0
# 17
mtllib original-17.mtl
o mesh15/mesh15-geometry#mesh15-geometry
v 0.172836 0.980521 0.089732
v 0.172836 0.974726 0.182611
v 0.178961 0.977623 0.136172
v 0.154876 0.983221 0.046458
v 0.172836 0.742841 0.168143
v 0.178961 0.745738 0.121703
v 0.172836 0.748636 0.075264
v 0.154876 0.972026 0.225885
v 0.154876 0.740141 0.211417
v 0.154876 0.751336 0.031990
v 0.126306 0.985539 0.009297
v 0.126306 0.969707 0.263046
v 0.126306 0.737822 0.248578
v 0.126306 0.753654 -0.005171
v 0.089073 0.987319 -0.019217
v 0.089073 0.755433 -0.033685
v 0.089073 0.967928 0.291560
v 0.089073 0.736043 0.277092
v 0.045715 0.756552 -0.051610
v 0.045715 0.988437 -0.037142
v 0.045715 0.734925 0.295017
v 0.045715 0.966810 0.309485
v -0.000815 0.756933 -0.057724
v -0.000815 0.734543 0.301131
v -0.000815 0.988818 -0.043256
v -0.000815 0.966428 0.315599
v -0.047344 0.988437 -0.037142
v -0.047344 0.756552 -0.051610
v -0.047344 0.734925 0.295017
v -0.047344 0.966810 0.309485
v -0.090703 0.987319 -0.019217
v -0.090703 0.736043 0.277092
v -0.090703 0.967928 0.291560
v -0.090703 0.755433 -0.033685
v -0.127936 0.985539 0.009297
v -0.127936 0.969707 0.263046
v -0.127936 0.737822 0.248578
v -0.127936 0.753654 -0.005171
v -0.156505 0.751336 0.031990
v -0.156505 0.983221 0.046458
v -0.156505 0.972026 0.225885
v -0.156505 0.740141 0.211417
v -0.174465 0.748636 0.075264
v -0.174465 0.742841 0.168143
v -0.174465 0.980521 0.089732
v -0.174465 0.974726 0.182611
v -0.180591 0.745738 0.121703
v -0.180591 0.977623 0.136172
vn 0 0.9980592148497353 0.06227201340514232
vn 0.9914448478439624 -0.008127998752604285 0.13027298000713758
vn 0.9914448478439624 0.008127998752604285 -0.13027298000713758
vn 0.9238794925861206 0.023830986911525215 -0.3819407902301548
vn 0.9238794925861206 -0.023830986911525215 0.3819407902301548
vn 0 -0.9980592148497353 -0.06227201340514232
vn 0.7933531859263077 0.03790900888416695 -0.607580142389461
vn 0.7933531859263077 -0.03790900888416695 0.607580142389461
vn 0.6087609631903563 0.04940399701271348 -0.7918139521217831
vn 0.6087609631903563 -0.04940399701271348 0.7918139521217831
vn 0.3826832294360769 0.05753203449308294 -0.9220865528330091
vn 0.3826832294360769 -0.05753203449308294 0.9220865528330091
vn 0.13052595603122966 0.06173997920236695 -0.9895206666716088
vn 0.13052595603122966 -0.06173997920236695 0.9895206666716088
vn -0.13052595603122966 0.06173997920236695 -0.9895206666716088
vn -0.13052595603122966 -0.06173997920236695 0.9895206666716088
vn -0.3826832294360769 0.05753203449308294 -0.9220865528330091
vn -0.3826832294360769 -0.05753203449308294 0.9220865528330091
vn -0.6087609631903563 0.04940399701271348 -0.7918139521217831
vn -0.6087609631903563 -0.04940399701271348 0.7918139521217831
vn -0.7933531859263077 0.03790900888416695 -0.607580142389461
vn -0.7933531859263077 -0.03790900888416695 0.607580142389461
vn -0.9238794925861206 0.023830986911525215 -0.3819407902301548
vn -0.9238794925861206 -0.023830986911525215 0.3819407902301548
vn -0.9914448478439624 0.008127998752604285 -0.13027298000713758
vn -0.9914448478439624 -0.008127998752604285 0.13027298000713758
usemtl material_0_0
f 1//1 2//1 3//1
f 2//1 1//1 4//1
f 5//2 3//2 2//2
f 6//3 1//3 3//3
f 7//4 4//4 1//4
f 2//1 4//1 8//1
f 3//2 5//2 6//2
f 2//5 9//5 5//5
f 1//3 6//3 7//3
f 4//4 7//4 10//4
f 8//1 4//1 11//1
f 9//5 2//5 8//5
f 5//6 7//6 6//6
f 7//6 5//6 9//6
f 7//6 9//6 10//6
f 10//7 11//7 4//7
f 8//1 11//1 12//1
f 8//8 13//8 9//8
f 10//6 9//6 13//6
f 11//7 10//7 14//7
f 12//1 11//1 15//1
f 13//8 8//8 12//8
f 10//6 13//6 14//6
f 16//9 11//9 14//9
f 11//9 16//9 15//9
f 12//1 15//1 17//1
f 17//10 13//10 12//10
f 14//6 13//6 18//6
f 14//6 18//6 16//6
f 19//11 15//11 16//11
f 17//1 15//1 20//1
f 13//10 17//10 18//10
f 16//6 18//6 21//6
f 15//11 19//11 20//11
f 16//6 21//6 19//6
f 17//1 20//1 22//1
f 22//12 18//12 17//12
f 18//12 22//12 21//12
f 23//13 20//13 19//13
f 19//6 21//6 24//6
f 22//1 20//1 25//1
f 26//14 21//14 22//14
f 20//13 23//13 25//13
f 19//6 24//6 23//6
f 21//14 26//14 24//14
f 22//1 25//1 26//1
f 23//15 27//15 25//15
f 23//6 24//6 28//6
f 26//16 29//16 24//16
f 26//1 25//1 27//1
f 27//15 23//15 28//15
f 28//6 24//6 29//6
f 29//16 26//16 30//16
f 26//1 27//1 30//1
f 28//17 31//17 27//17
f 28//6 29//6 32//6
f 30//18 32//18 29//18
f 30//1 27//1 33//1
f 31//17 28//17 34//17
f 33//1 27//1 31//1
f 28//6 32//6 34//6
f 32//18 30//18 33//18
f 34//19 35//19 31//19
f 33//1 31//1 36//1
f 34//6 32//6 37//6
f 33//20 37//20 32//20
f 35//19 34//19 38//19
f 36//1 31//1 35//1
f 37//20 33//20 36//20
f 34//6 37//6 38//6
f 39//21 35//21 38//21
f 36//1 35//1 40//1
f 41//22 37//22 36//22
f 38//6 37//6 42//6
f 35//21 39//21 40//21
f 38//6 42//6 39//6
f 36//1 40//1 41//1
f 37//22 41//22 42//22
f 43//23 40//23 39//23
f 39//6 42//6 44//6
f 41//1 40//1 45//1
f 46//24 42//24 41//24
f 40//23 43//23 45//23
f 39//6 44//6 43//6
f 42//24 46//24 44//24
f 41//1 45//1 46//1
f 47//25 45//25 43//25
f 43//6 44//6 47//6
f 48//26 44//26 46//26
f 46//1 45//1 48//1
f 45//25 47//25 48//25
f 44//26 48//26 47//26
usemtl material_1_0
f 3//6 2//6 1//6
f 4//6 1//6 2//6
f 2//25 3//25 5//25
f 3//26 1//26 6//26
f 1//24 4//24 7//24
f 8//6 4//6 2//6
f 6//25 5//25 3//25
f 5//23 9//23 2//23
f 7//26 6//26 1//26
f 10//24 7//24 4//24
f 11//6 4//6 8//6
f 8//23 2//23 9//23
f 6//1 7//1 5//1
f 9//1 5//1 7//1
f 10//1 9//1 7//1
f 4//22 11//22 10//22
f 12//6 11//6 8//6
f 9//21 13//21 8//21
f 13//1 9//1 10//1
f 14//22 10//22 11//22
f 15//6 11//6 12//6
f 12//21 8//21 13//21
f 14//1 13//1 10//1
f 14//20 11//20 16//20
f 15//20 16//20 11//20
f 17//6 15//6 12//6
f 12//19 13//19 17//19
f 18//1 13//1 14//1
f 16//1 18//1 14//1
f 16//18 15//18 19//18
f 20//6 15//6 17//6
f 18//19 17//19 13//19
f 21//1 18//1 16//1
f 20//18 19//18 15//18
f 19//1 21//1 16//1
f 22//6 20//6 17//6
f 17//17 18//17 22//17
f 21//17 22//17 18//17
f 19//16 20//16 23//16
f 24//1 21//1 19//1
f 25//6 20//6 22//6
f 22//15 21//15 26//15
f 25//16 23//16 20//16
f 23//1 24//1 19//1
f 24//15 26//15 21//15
f 26//6 25//6 22//6
f 25//14 27//14 23//14
f 28//1 24//1 23//1
f 24//13 29//13 26//13
f 27//6 25//6 26//6
f 28//14 23//14 27//14
f 29//1 24//1 28//1
f 30//13 26//13 29//13
f 30//6 27//6 26//6
f 27//12 31//12 28//12
f 32//1 29//1 28//1
f 29//11 32//11 30//11
f 33//6 27//6 30//6
f 34//12 28//12 31//12
f 31//6 27//6 33//6
f 34//1 32//1 28//1
f 33//11 30//11 32//11
f 31//10 35//10 34//10
f 36//6 31//6 33//6
f 37//1 32//1 34//1
f 32//9 37//9 33//9
f 38//10 34//10 35//10
f 35//6 31//6 36//6
f 36//9 33//9 37//9
f 38//1 37//1 34//1
f 38//8 35//8 39//8
f 40//6 35//6 36//6
f 36//7 37//7 41//7
f 42//1 37//1 38//1
f 40//8 39//8 35//8
f 39//1 42//1 38//1
f 41//6 40//6 36//6
f 42//7 41//7 37//7
f 39//5 40//5 43//5
f 44//1 42//1 39//1
f 45//6 40//6 41//6
f 41//4 42//4 46//4
f 45//5 43//5 40//5
f 43//1 44//1 39//1
f 44//4 46//4 42//4
f 46//6 45//6 41//6
f 43//2 45//2 47//2
f 47//1 44//1 43//1
f 46//3 44//3 48//3
f 48//6 45//6 46//6
f 48//2 47//2 45//2
f 47//3 48//3 44//3
