# SSTK version 0.8.0
# 51
mtllib original-51.mtl
o instance_27/Component_7/ID299#ID299
v 0.009488 -0.008657 0.084043
v -0.002787 0.000797 0.208235
v 0.004742 -0.005001 0.208235
v 0.016995 -0.014437 -0.976836
v 0.014114 -0.012218 0.066678
v 0.016995 -0.014437 0.066678
v -0.021520 0.015224 0.066678
v -0.024484 0.017506 0.060729
v -0.024484 0.017506 -0.972718
v -0.024484 0.017506 -0.989885
v 0.014451 -0.012478 -0.988502
v 0.008365 -0.007791 -0.997850
v -0.012347 0.008159 -1.003261
v -0.000210 -0.001188 -1.003261
v -0.011232 0.007300 0.084043
v -0.003629 0.001435 0.208235
v -0.015857 0.010862 0.066678
v -0.021520 0.015224 0.066678
v 0.014114 -0.012218 0.066678
v -0.015857 0.010862 0.066678
v -0.011232 0.007300 0.084043
v 0.009488 -0.008657 0.084043
v -0.002787 0.000797 0.208235
v -0.003629 0.001435 0.208235
v -0.000210 -0.001188 -1.003261
v 0.008365 -0.007791 -0.997850
v -0.012347 0.008159 -1.003261
v -0.024484 0.017506 -0.989885
v 0.014451 -0.012478 -0.988502
v 0.016995 -0.014437 -0.976836
v -0.024484 0.017506 -0.972718
v -0.024484 0.017506 0.060729
v 0.016995 -0.014437 0.066678
v 0.004742 -0.005001 0.208235
vn -0.6101468775020237 0.7922883237013315 -0.0000010317626865517528
vn 0.6101468775020237 -0.7922883237013315 0.0000010317626865517528
usemtl material_0_0
f 1//1 2//1 3//1
f 4//1 5//1 6//1
f 5//1 4//1 7//1
f 7//1 4//1 8//1
f 8//1 4//1 9//1
f 9//1 4//1 10//1
f 10//1 4//1 11//1
f 10//1 11//1 12//1
f 10//1 12//1 13//1
f 13//1 12//1 14//1
f 2//1 15//1 16//1
f 15//1 2//1 1//1
f 15//1 1//1 5//1
f 15//1 5//1 17//1
f 17//1 5//1 7//1
f 18//2 19//2 20//2
f 20//2 19//2 21//2
f 19//2 22//2 21//2
f 22//2 23//2 21//2
f 24//2 21//2 23//2
f 25//2 26//2 27//2
f 27//2 26//2 28//2
f 26//2 29//2 28//2
f 29//2 30//2 28//2
f 28//2 30//2 31//2
f 31//2 30//2 32//2
f 32//2 30//2 18//2
f 18//2 30//2 19//2
f 33//2 19//2 30//2
f 34//2 23//2 22//2
