# SSTK version 0.8.0
# 189
mtllib original-189.mtl
o #ID709
v 0.007060 0.026165 0.279142
v -0.017456 0.026165 0.279142
v -0.005198 0.026165 0.277385
v -0.028878 0.026165 0.284294
v 0.018482 0.026165 0.284294
v -0.038687 0.026165 0.292489
v 0.028291 0.026165 0.292489
v -0.046213 0.026165 0.303169
v 0.035817 0.026165 0.303169
v -0.050944 0.026165 0.315606
v 0.040548 0.026165 0.315606
v -0.052558 0.026165 0.328953
v 0.042162 0.026165 0.328953
v -0.050944 0.026165 0.342300
v 0.040548 0.026165 0.342300
v -0.046213 0.026165 0.354737
v 0.035817 0.026165 0.354737
v -0.038687 0.026165 0.365417
v 0.028291 0.026165 0.365417
v -0.028878 0.026165 0.373612
v 0.018482 0.026165 0.373612
v -0.017456 0.026165 0.378764
v 0.007060 0.026165 0.378764
v -0.005198 0.026165 0.380521
vt -0.003153659 0.0339598
vt -0.003153659 0.02093959
vt -0.002296588 0.02744969
vt -0.005666465 0.01487314
vt -0.005666465 0.04002625
vt -0.009663762 0.009663762
vt -0.009663762 0.04523563
vt -0.01487314 0.005666465
vt -0.01487314 0.04923292
vt -0.02093959 0.003153659
vt -0.02093959 0.05174573
vt -0.02744969 0.002296588
vt -0.02744969 0.0526028
vt -0.0339598 0.003153659
vt -0.0339598 0.05174573
vt -0.04002625 0.005666465
vt -0.04002625 0.04923292
vt -0.04523563 0.009663762
vt -0.04523563 0.04523563
vt -0.04923292 0.01487314
vt -0.04923292 0.04002625
vt -0.05174573 0.02093959
vt -0.05174573 0.0339598
vt -0.0526028 0.02744969
vn 0 -1 0
usemtl material_0_0
f 1/1/1 2/2/1 3/3/1
f 2/2/1 1/1/1 4/4/1
f 4/4/1 1/1/1 5/5/1
f 4/4/1 5/5/1 6/6/1
f 6/6/1 5/5/1 7/7/1
f 6/6/1 7/7/1 8/8/1
f 8/8/1 7/7/1 9/9/1
f 8/8/1 9/9/1 10/10/1
f 10/10/1 9/9/1 11/11/1
f 10/10/1 11/11/1 12/12/1
f 12/12/1 11/11/1 13/13/1
f 12/12/1 13/13/1 14/14/1
f 14/14/1 13/13/1 15/15/1
f 14/14/1 15/15/1 16/16/1
f 16/16/1 15/15/1 17/17/1
f 16/16/1 17/17/1 18/18/1
f 18/18/1 17/17/1 19/19/1
f 18/18/1 19/19/1 20/20/1
f 20/20/1 19/19/1 21/21/1
f 20/20/1 21/21/1 22/22/1
f 22/22/1 21/21/1 23/23/1
f 22/22/1 23/23/1 24/24/1
