# SSTK version 0.8.0
# 61
mtllib original-61.mtl
o instance_37/Component_7/ID299#ID299
v -0.010643 -0.006752 0.084043
v 0.000798 0.003694 0.208235
v -0.006219 -0.002713 0.208235
v -0.017639 -0.013141 -0.976836
v -0.014954 -0.010689 0.066678
v -0.017639 -0.013141 0.066678
v 0.018259 0.019638 0.066678
v 0.021021 0.022160 0.060729
v 0.021021 0.022160 -0.972718
v 0.021021 0.022160 -0.989885
v -0.015268 -0.010976 -0.988502
v -0.009595 -0.005796 -0.997850
v 0.009709 0.011831 -1.003261
v -0.001604 0.001501 -1.003261
v 0.008669 0.010882 0.084043
v 0.001573 0.004414 0.208235
v 0.012980 0.014818 0.066678
v 0.018259 0.019638 0.066678
v -0.014954 -0.010689 0.066678
v 0.012980 0.014818 0.066678
v 0.008669 0.010882 0.084043
v -0.010643 -0.006752 0.084043
v 0.000798 0.003694 0.208235
v 0.001573 0.004414 0.208235
v -0.001604 0.001501 -1.003261
v -0.009595 -0.005796 -0.997850
v 0.009709 0.011831 -1.003261
v 0.021021 0.022160 -0.989885
v -0.015268 -0.010976 -0.988502
v -0.017639 -0.013141 -0.976836
v 0.021021 0.022160 -0.972718
v 0.021021 0.022160 0.060729
v -0.017639 -0.013141 0.066678
v -0.006219 -0.002713 0.208235
vn -0.6743008203902124 -0.738456771666467 -0.0000010128511357433698
vn 0.6743008203902124 0.738456771666467 0.0000010128511357433698
usemtl material_0_0
f 1//1 2//1 3//1
f 4//1 5//1 6//1
f 5//1 4//1 7//1
f 7//1 4//1 8//1
f 8//1 4//1 9//1
f 9//1 4//1 10//1
f 10//1 4//1 11//1
f 10//1 11//1 12//1
f 10//1 12//1 13//1
f 13//1 12//1 14//1
f 2//1 15//1 16//1
f 15//1 2//1 1//1
f 15//1 1//1 5//1
f 15//1 5//1 17//1
f 17//1 5//1 7//1
f 18//2 19//2 20//2
f 20//2 19//2 21//2
f 19//2 22//2 21//2
f 22//2 23//2 21//2
f 24//2 21//2 23//2
f 25//2 26//2 27//2
f 27//2 26//2 28//2
f 26//2 29//2 28//2
f 29//2 30//2 28//2
f 28//2 30//2 31//2
f 31//2 30//2 32//2
f 32//2 30//2 18//2
f 18//2 30//2 19//2
f 33//2 19//2 30//2
f 34//2 23//2 22//2
