# SSTK version 0.8.0
# 41
mtllib original-41.mtl
o instance_17/Component_7/ID299#ID299
v -0.012551 -0.002584 0.084043
v 0.001773 0.003319 0.208235
v -0.007012 -0.000302 0.208235
v -0.021310 -0.006195 -0.976836
v -0.017948 -0.004809 0.066678
v -0.021310 -0.006195 0.066678
v 0.023634 0.012330 0.066678
v 0.027092 0.013755 0.060729
v 0.027092 0.013755 -0.972718
v 0.027092 0.013755 -0.989885
v -0.018341 -0.004971 -0.988502
v -0.011239 -0.002044 -0.997850
v 0.012929 0.007917 -1.003261
v -0.001234 0.002080 -1.003261
v 0.011628 0.007381 0.084043
v 0.002747 0.003730 0.208235
v 0.017025 0.009606 0.066678
v 0.023634 0.012330 0.066678
v -0.017948 -0.004809 0.066678
v 0.017025 0.009606 0.066678
v 0.011628 0.007381 0.084043
v -0.012551 -0.002584 0.084043
v 0.001773 0.003319 0.208235
v 0.002747 0.003730 0.208235
v -0.001234 0.002080 -1.003261
v -0.011239 -0.002044 -0.997850
v 0.012929 0.007917 -1.003261
v 0.027092 0.013755 -0.989885
v -0.018341 -0.004971 -0.988502
v -0.021310 -0.006195 -0.976836
v 0.027092 0.013755 -0.972718
v 0.027092 0.013755 0.060729
v -0.021310 -0.006195 0.066678
v -0.007012 -0.000302 0.208235
vn -0.3810683643926537 -0.9245468628782891 -0.000001010707698486768
vn 0.3810683643926537 0.9245468628782891 0.000001010707698486768
usemtl material_0_0
f 1//1 2//1 3//1
f 4//1 5//1 6//1
f 5//1 4//1 7//1
f 7//1 4//1 8//1
f 8//1 4//1 9//1
f 9//1 4//1 10//1
f 10//1 4//1 11//1
f 10//1 11//1 12//1
f 10//1 12//1 13//1
f 13//1 12//1 14//1
f 2//1 15//1 16//1
f 15//1 2//1 1//1
f 15//1 1//1 5//1
f 15//1 5//1 17//1
f 17//1 5//1 7//1
f 18//2 19//2 20//2
f 20//2 19//2 21//2
f 19//2 22//2 21//2
f 22//2 23//2 21//2
f 24//2 21//2 23//2
f 25//2 26//2 27//2
f 27//2 26//2 28//2
f 26//2 29//2 28//2
f 29//2 30//2 28//2
f 28//2 30//2 31//2
f 31//2 30//2 32//2
f 32//2 30//2 18//2
f 18//2 30//2 19//2
f 33//2 19//2 30//2
f 34//2 23//2 22//2
