# SSTK version 0.8.0
# 31
mtllib original-31.mtl
o instance_7/Component_7/ID299#ID299
v -0.010536 0.008389 0.084043
v 0.003194 0.001210 0.208235
v -0.005227 0.005612 0.208235
v -0.018933 0.012777 -0.976836
v -0.015710 0.011092 0.066678
v -0.018933 0.012777 0.066678
v 0.024148 -0.009745 0.066678
v 0.027463 -0.011478 0.060729
v 0.027463 -0.011478 -0.972718
v 0.027463 -0.011478 -0.989885
v -0.016087 0.011289 -0.988502
v -0.009279 0.007730 -0.997850
v 0.013887 -0.004381 -1.003261
v 0.000311 0.002717 -1.003261
v 0.012640 -0.003729 0.084043
v 0.004134 0.000728 0.208235
v 0.017813 -0.006433 0.066678
v 0.024148 -0.009745 0.066678
v -0.015710 0.011092 0.066678
v 0.017813 -0.006433 0.066678
v 0.012640 -0.003729 0.084043
v -0.010536 0.008389 0.084043
v 0.003194 0.001210 0.208235
v 0.004134 0.000728 0.208235
v 0.000311 0.002717 -1.003261
v -0.009279 0.007730 -0.997850
v 0.013887 -0.004381 -1.003261
v 0.027463 -0.011478 -0.989885
v -0.016087 0.011289 -0.988502
v -0.018933 0.012777 -0.976836
v 0.027463 -0.011478 -0.972718
v 0.027463 -0.011478 0.060729
v -0.018933 0.012777 0.066678
v -0.005227 0.005612 0.208235
vn 0.46329793553315557 -0.8862025857159821 -0.0000010116170752262912
vn -0.46329793553315557 0.8862025857159821 0.0000010116170752262912
usemtl material_0_0
f 1//1 2//1 3//1
f 4//1 5//1 6//1
f 5//1 4//1 7//1
f 7//1 4//1 8//1
f 8//1 4//1 9//1
f 9//1 4//1 10//1
f 10//1 4//1 11//1
f 10//1 11//1 12//1
f 10//1 12//1 13//1
f 13//1 12//1 14//1
f 2//1 15//1 16//1
f 15//1 2//1 1//1
f 15//1 1//1 5//1
f 15//1 5//1 17//1
f 17//1 5//1 7//1
f 18//2 19//2 20//2
f 20//2 19//2 21//2
f 19//2 22//2 21//2
f 22//2 23//2 21//2
f 24//2 21//2 23//2
f 25//2 26//2 27//2
f 27//2 26//2 28//2
f 26//2 29//2 28//2
f 29//2 30//2 28//2
f 28//2 30//2 31//2
f 31//2 30//2 32//2
f 32//2 30//2 18//2
f 18//2 30//2 19//2
f 33//2 19//2 30//2
f 34//2 23//2 22//2
