# SSTK version 0.8.0
# 21
mtllib original-21.mtl
o #ID266
v 0.050591 0.026165 0.353768
v 0.019974 0.026165 0.379940
v 0.050659 0.026165 0.353603
v 0.040592 0.026165 0.366799
v 0.027562 0.026165 0.376798
v 0.027562 0.026165 0.376798
v 0.040592 0.026165 0.366799
v 0.019974 0.026165 0.379940
v 0.050591 0.026165 0.353768
v 0.050659 0.026165 0.353603
vn 0 -1 0
vn 0 1 0
usemtl material_0_0
f 6//2 7//2 8//2
f 7//2 9//2 8//2
f 10//2 8//2 9//2
usemtl material_1_0
f 1//1 2//1 3//1
f 2//1 1//1 4//1
f 2//1 4//1 5//1
