mtllib new-7.mtl
v -0.091775 0.000626 0.157991
v -0.075331 0.000626 0.150738
v -0.102996 0.000626 0.125690
v -0.830115 0.000626 -0.355080
v 0.062477 0.000707 0.152398
v -0.012023 0.000626 -0.062065
v -0.012023 0.000626 -0.062065
v -0.830113 -0.017347 -0.355082
v -0.830115 0.000626 -0.355080
v -0.012020 -0.017347 -0.062066
v -0.830113 -0.017347 -0.355082
v -0.102996 0.000626 0.125690
v -0.830115 0.000626 -0.355080
v -0.102994 -0.017347 0.125688
v -0.102994 -0.017347 0.125688
v -0.091775 0.000626 0.157991
v -0.102996 0.000626 0.125690
v -0.091773 -0.017347 0.157989
v -0.075331 0.000626 0.150738
v -0.091773 -0.017347 0.157989
v -0.091775 0.000626 0.157991
vn -0.000120 1.000000 0.000098
vn -0.944628 -0.000146 0.328143
vn 0.337193 0.000133 -0.941436
vn -0.551538 -0.000148 0.834150
vn 0.403546 -0.000042 0.914959
vt 0.044911 0.171926
vt 0.042236 0.174139
vt 0.040302 0.167193
vt 0.020151 0.000000
vt 0.030602 0.198088
vt -0.000001 0.166667
vt -0.165461 0.007263
vt 0.002419 0.003791
vt 0.002419 0.007263
vt -0.165462 0.003791
vt 0.002411 0.003791
vt 0.170814 0.007263
vt 0.002411 0.007263
vt 0.170814 0.003791
vt 0.147893 0.003775
vt 0.154499 0.007247
vt 0.147893 0.007247
vt 0.154499 0.003775
vt 0.078456 0.007267
vt 0.074984 0.003795
vt 0.074984 0.007267
usemtl material-0
f 1/1/1 2/2/1 3/3/1
f 4/4/1 5/5/1 6/6/1
f 5/5/1 4/4/1 3/3/1
f 7/7/3 8/8/3 9/9/3
f 8/8/3 7/7/3 10/10/3
f 11/11/4 12/12/4 13/13/4
f 12/12/4 11/11/4 14/14/4
f 15/15/2 16/16/2 17/17/2
f 16/16/2 15/15/2 18/18/2
f 20/20/5 19/19/5 21/21/5