# SSTK version 0.8.0
# 5
mtllib original-5.mtl
o #ID5
v 0.345068 -0.038469 -0.660057
v 0.344777 -0.020495 -0.659516
v 0.344697 -0.038467 -0.659375
v 0.370469 -0.020969 -0.706918
v 0.370390 -0.038941 -0.706777
v 0.370390 -0.038941 -0.706777
v 0.345068 -0.038469 -0.660057
v 0.370469 -0.020969 -0.706918
v 0.344777 -0.020495 -0.659516
v 0.344697 -0.038467 -0.659375
v 0.370390 -0.038941 -0.706777
v 0.376056 -0.038823 -0.688429
v 0.380096 -0.038859 -0.690814
v 0.345068 -0.038469 -0.660057
v 0.372770 -0.038783 -0.685080
v 0.370463 -0.038741 -0.680995
v 0.369293 -0.038701 -0.676452
v 0.369338 -0.038665 -0.671760
v 0.370595 -0.038635 -0.667240
v 0.389373 -0.038467 -0.635164
v 0.372980 -0.038614 -0.663200
v 0.376329 -0.038603 -0.659914
v 0.380415 -0.038602 -0.657607
v 0.384958 -0.038613 -0.656436
v 0.389650 -0.038633 -0.656481
v 0.394170 -0.038663 -0.657738
v 0.393851 -0.038919 -0.690945
v 0.414695 -0.038938 -0.681884
v 0.389308 -0.038909 -0.692116
v 0.384616 -0.038888 -0.692072
v 0.397937 -0.038919 -0.688638
v 0.401286 -0.038908 -0.685353
v 0.403671 -0.038887 -0.681312
v 0.404929 -0.038857 -0.676792
v 0.404974 -0.038821 -0.672101
v 0.403803 -0.038780 -0.667557
v 0.401496 -0.038739 -0.663472
v 0.398211 -0.038699 -0.660123
v 0.394170 -0.038663 -0.657738
v 0.398211 -0.038699 -0.660123
v 0.389373 -0.038467 -0.635164
v 0.401496 -0.038739 -0.663472
v 0.403803 -0.038780 -0.667557
v 0.414695 -0.038938 -0.681884
v 0.404974 -0.038821 -0.672101
v 0.404929 -0.038857 -0.676792
v 0.403671 -0.038887 -0.681312
v 0.401286 -0.038908 -0.685353
v 0.397937 -0.038919 -0.688638
v 0.393851 -0.038919 -0.690945
v 0.380096 -0.038859 -0.690814
v 0.370390 -0.038941 -0.706777
v 0.384616 -0.038888 -0.692072
v 0.389308 -0.038909 -0.692116
v 0.389650 -0.038633 -0.656481
v 0.384958 -0.038613 -0.656436
v 0.380415 -0.038602 -0.657607
v 0.376329 -0.038603 -0.659914
v 0.372980 -0.038614 -0.663200
v 0.370595 -0.038635 -0.667240
v 0.345068 -0.038469 -0.660057
v 0.369338 -0.038665 -0.671760
v 0.369293 -0.038701 -0.676452
v 0.370463 -0.038741 -0.680995
v 0.372770 -0.038783 -0.685080
v 0.376056 -0.038823 -0.688429
v 0.415176 -0.020969 -0.682682
v 0.370390 -0.038941 -0.706777
v 0.415065 -0.038941 -0.682566
v 0.370469 -0.020969 -0.706918
v 0.370469 -0.020969 -0.706918
v 0.415176 -0.020969 -0.682682
v 0.370390 -0.038941 -0.706777
v 0.415065 -0.038941 -0.682566
v 0.370469 -0.020969 -0.706918
v 0.382818 -0.020921 -0.694046
v 0.378302 -0.020893 -0.692773
v 0.387509 -0.020942 -0.694108
v 0.392057 -0.020952 -0.692953
v 0.415176 -0.020969 -0.682682
v 0.396150 -0.020951 -0.690660
v 0.399511 -0.020940 -0.687386
v 0.401910 -0.020919 -0.683354
v 0.403184 -0.020889 -0.678839
v 0.403246 -0.020853 -0.674147
v 0.402091 -0.020813 -0.669600
v 0.389484 -0.020495 -0.635280
v 0.399799 -0.020772 -0.665506
v 0.396525 -0.020732 -0.662146
v 0.392493 -0.020697 -0.659747
v 0.370996 -0.020817 -0.687013
v 0.344777 -0.020495 -0.659516
v 0.374270 -0.020857 -0.690374
v 0.368704 -0.020776 -0.682920
v 0.367549 -0.020736 -0.678372
v 0.367611 -0.020700 -0.673681
v 0.368884 -0.020671 -0.669165
v 0.371283 -0.020649 -0.665133
v 0.374644 -0.020638 -0.661859
v 0.378738 -0.020638 -0.659567
v 0.383285 -0.020648 -0.658412
v 0.387977 -0.020668 -0.658473
v 0.392493 -0.020697 -0.659747
v 0.387977 -0.020668 -0.658473
v 0.389484 -0.020495 -0.635280
v 0.383285 -0.020648 -0.658412
v 0.378738 -0.020638 -0.659567
v 0.374644 -0.020638 -0.661859
v 0.371283 -0.020649 -0.665133
v 0.344777 -0.020495 -0.659516
v 0.368884 -0.020671 -0.669165
v 0.367611 -0.020700 -0.673681
v 0.367549 -0.020736 -0.678372
v 0.368704 -0.020776 -0.682920
v 0.370996 -0.020817 -0.687013
v 0.378302 -0.020893 -0.692773
v 0.370469 -0.020969 -0.706918
v 0.374270 -0.020857 -0.690374
v 0.396525 -0.020732 -0.662146
v 0.399799 -0.020772 -0.665506
v 0.402091 -0.020813 -0.669600
v 0.415176 -0.020969 -0.682682
v 0.403246 -0.020853 -0.674147
v 0.403184 -0.020889 -0.678839
v 0.401910 -0.020919 -0.683354
v 0.399511 -0.020940 -0.687386
v 0.396150 -0.020951 -0.690660
v 0.392057 -0.020952 -0.692953
v 0.387509 -0.020942 -0.694108
v 0.382818 -0.020921 -0.694046
v 0.389484 -0.020495 -0.635280
v 0.414695 -0.038938 -0.681884
v 0.389373 -0.038467 -0.635164
v 0.415176 -0.020969 -0.682682
v 0.415065 -0.038941 -0.682566
v 0.415065 -0.038941 -0.682566
v 0.415176 -0.020969 -0.682682
v 0.414695 -0.038938 -0.681884
v 0.389484 -0.020495 -0.635280
v 0.389373 -0.038467 -0.635164
vt -0.5431398 -0.002296668
vt -0.5432585 0.001175714
vt -0.5432898 -0.002296368
vt -0.5328423 0.001084065
vt -0.5328735 -0.002388017
vt -5.596272 0.4784264
vt -5.598948 0.4809952
vt -5.599408 0.4802137
vt -5.596372 0.4886926
vt -5.598707 0.481869
vt -5.5987 0.4827754
vt -5.598928 0.4836527
vt -5.599375 0.4844411
vt -5.600011 0.4850869
vt -5.606189 0.4887465
vt -5.600793 0.4855461
vt -5.601667 0.4857874
vt -5.602573 0.4857943
vt -5.60345 0.4855663
vt -5.604239 0.4851191
vt -5.604885 0.484483
vt -5.601719 0.4789025
vt -5.60609 0.4784803
vt -5.600842 0.4791304
vt -5.600053 0.4795777
vt -5.602625 0.4789094
vt -5.603499 0.4791507
vt -5.604281 0.4796099
vt -5.604917 0.4802557
vt -5.605364 0.4810441
vt -5.605592 0.4819214
vt -5.605585 0.4828278
vt -5.605344 0.4837015
vt 5.601178 -0.004372695
vt 5.591354 -0.007844911
vt 5.60117 -0.007844908
vt 5.591354 -0.004372689
vt 5.591392 0.5324374
vt 5.594674 0.5334865
vt 5.594024 0.5341186
vt 5.595465 0.5330442
vt 5.596344 0.5328216
vt 5.601216 0.5324374
vt 5.59725 0.5328341
vt 5.598122 0.5330807
vt 5.598901 0.5335446
vt 5.599533 0.5341943
vt 5.599976 0.5349855
vt 5.600198 0.5358641
vt 5.601217 0.5428541
vt 5.600186 0.5367705
vt 5.599939 0.5376427
vt 5.599475 0.5384214
vt 5.593314 0.5357696
vt 5.591392 0.5428541
vt 5.59356 0.5348973
vt 5.593301 0.5366759
vt 5.593524 0.5375546
vt 5.593966 0.5383457
vt 5.594598 0.5389954
vt 5.595377 0.5394594
vt 5.596249 0.539706
vt 5.597156 0.5397184
vt 5.598034 0.5394959
vt 5.598825 0.5390535
vt 0.5431507 0.01347881
vt 0.5329143 0.009915725
vt 0.5431806 0.01000671
vt 0.5327345 0.01338716
vt 0.5327643 0.009915064
vn 0.8791656670938934 -0.00013745619939183355 0.4765162231332135
vn -0.8791656670938934 0.00013745619939183355 -0.4765162231332135
vn 0.004307407862539557 0.999960567955585 -0.007765872227227777
vn -0.004307407862539557 -0.999960567955585 0.007765872227227777
vn -0.47649678886236596 0.008798317732573016 0.8791321856290615
vn 0.47649678886236596 -0.008798317732573016 -0.8791321856290615
vn -0.004193076690203292 -0.999961294047843 0.007734889400219739
vn 0.004193076690203292 0.999961294047843 -0.007734889400219739
vn -0.8791540586179476 0.002333728861812662 -0.47653194533545157
vn 0.8791540586179476 -0.002333728861812662 0.47653194533545157
usemtl material_0_0
f 1/1/1 2/2/1 3/3/1
f 2/2/1 1/1/1 4/4/1
f 4/4/1 1/1/1 5/5/1
f 6/5/2 7/1/2 8/4/2
f 8/4/2 7/1/2 9/2/2
f 10/3/2 9/2/2 7/1/2
f 11/6/3 12/7/3 13/8/3
f 12/7/3 11/6/3 14/9/3
f 12/7/3 14/9/3 15/10/3
f 15/10/3 14/9/3 16/11/3
f 16/11/3 14/9/3 17/12/3
f 17/12/3 14/9/3 18/13/3
f 18/13/3 14/9/3 19/14/3
f 19/14/3 14/9/3 20/15/3
f 19/14/3 20/15/3 21/16/3
f 21/16/3 20/15/3 22/17/3
f 22/17/3 20/15/3 23/18/3
f 23/18/3 20/15/3 24/19/3
f 24/19/3 20/15/3 25/20/3
f 25/20/3 20/15/3 26/21/3
f 11/6/3 27/22/3 28/23/3
f 27/22/3 11/6/3 29/24/3
f 29/24/3 11/6/3 30/25/3
f 30/25/3 11/6/3 13/8/3
f 28/23/3 27/22/3 31/26/3
f 28/23/3 31/26/3 32/27/3
f 28/23/3 32/27/3 33/28/3
f 28/23/3 33/28/3 34/29/3
f 28/23/3 34/29/3 35/30/3
f 28/23/3 35/30/3 36/31/3
f 28/23/3 36/31/3 20/15/3
f 20/15/3 36/31/3 37/32/3
f 20/15/3 37/32/3 38/33/3
f 20/15/3 38/33/3 26/21/3
f 39/21/4 40/33/4 41/15/4
f 40/33/4 42/32/4 41/15/4
f 42/32/4 43/31/4 41/15/4
f 41/15/4 43/31/4 44/23/4
f 43/31/4 45/30/4 44/23/4
f 45/30/4 46/29/4 44/23/4
f 46/29/4 47/28/4 44/23/4
f 47/28/4 48/27/4 44/23/4
f 48/27/4 49/26/4 44/23/4
f 49/26/4 50/22/4 44/23/4
f 51/8/4 52/6/4 53/25/4
f 53/25/4 52/6/4 54/24/4
f 54/24/4 52/6/4 50/22/4
f 44/23/4 50/22/4 52/6/4
f 39/21/4 41/15/4 55/20/4
f 55/20/4 41/15/4 56/19/4
f 56/19/4 41/15/4 57/18/4
f 57/18/4 41/15/4 58/17/4
f 58/17/4 41/15/4 59/16/4
f 59/16/4 41/15/4 60/14/4
f 41/15/4 61/9/4 60/14/4
f 60/14/4 61/9/4 62/13/4
f 62/13/4 61/9/4 63/12/4
f 63/12/4 61/9/4 64/11/4
f 64/11/4 61/9/4 65/10/4
f 65/10/4 61/9/4 66/7/4
f 61/9/4 52/6/4 66/7/4
f 51/8/4 66/7/4 52/6/4
f 67/34/5 68/35/5 69/36/5
f 68/35/5 67/34/5 70/37/5
f 71/37/6 72/34/6 73/35/6
f 74/36/6 73/35/6 72/34/6
f 75/38/7 76/39/7 77/40/7
f 76/39/7 75/38/7 78/41/7
f 78/41/7 75/38/7 79/42/7
f 79/42/7 75/38/7 80/43/7
f 79/42/7 80/43/7 81/44/7
f 81/44/7 80/43/7 82/45/7
f 82/45/7 80/43/7 83/46/7
f 83/46/7 80/43/7 84/47/7
f 84/47/7 80/43/7 85/48/7
f 85/48/7 80/43/7 86/49/7
f 86/49/7 80/43/7 87/50/7
f 86/49/7 87/50/7 88/51/7
f 88/51/7 87/50/7 89/52/7
f 89/52/7 87/50/7 90/53/7
f 75/38/7 91/54/7 92/55/7
f 91/54/7 75/38/7 93/56/7
f 93/56/7 75/38/7 77/40/7
f 92/55/7 91/54/7 94/57/7
f 92/55/7 94/57/7 95/58/7
f 92/55/7 95/58/7 96/59/7
f 92/55/7 96/59/7 97/60/7
f 92/55/7 97/60/7 98/61/7
f 92/55/7 98/61/7 87/50/7
f 87/50/7 98/61/7 99/62/7
f 87/50/7 99/62/7 100/63/7
f 87/50/7 100/63/7 101/64/7
f 87/50/7 101/64/7 102/65/7
f 87/50/7 102/65/7 90/53/7
f 103/53/8 104/65/8 105/50/8
f 104/65/8 106/64/8 105/50/8
f 106/64/8 107/63/8 105/50/8
f 107/63/8 108/62/8 105/50/8
f 108/62/8 109/61/8 105/50/8
f 105/50/8 109/61/8 110/55/8
f 109/61/8 111/60/8 110/55/8
f 111/60/8 112/59/8 110/55/8
f 112/59/8 113/58/8 110/55/8
f 113/58/8 114/57/8 110/55/8
f 114/57/8 115/54/8 110/55/8
f 116/40/8 117/38/8 118/56/8
f 118/56/8 117/38/8 115/54/8
f 110/55/8 115/54/8 117/38/8
f 103/53/8 105/50/8 119/52/8
f 119/52/8 105/50/8 120/51/8
f 120/51/8 105/50/8 121/49/8
f 105/50/8 122/43/8 121/49/8
f 121/49/8 122/43/8 123/48/8
f 123/48/8 122/43/8 124/47/8
f 124/47/8 122/43/8 125/46/8
f 125/46/8 122/43/8 126/45/8
f 126/45/8 122/43/8 127/44/8
f 127/44/8 122/43/8 128/42/8
f 122/43/8 117/38/8 128/42/8
f 128/42/8 117/38/8 129/41/8
f 129/41/8 117/38/8 130/39/8
f 116/40/8 130/39/8 117/38/8
f 131/66/9 132/67/9 133/68/9
f 132/67/9 131/66/9 134/69/9
f 132/67/9 134/69/9 135/70/9
f 136/70/10 137/69/10 138/67/10
f 137/69/10 139/66/10 138/67/10
f 140/68/10 138/67/10 139/66/10
