# SSTK version 0.8.0
# 22
mtllib original-22.mtl
o #ID133
v 0.093089 -0.019974 -0.255915
v -0.036702 -0.019974 -0.301646
v 0.015576 -0.019974 -0.326279
v -0.084257 -0.019974 -0.208315
v 0.009700 -0.019974 -0.160441
v 0.059896 -0.019974 -0.175208
v 0.043577 -0.019974 -0.143180
v -0.011834 -0.019974 -0.350452
v -0.011293 -0.019974 -0.350670
v 0.015576 -0.019974 -0.326279
v -0.036702 -0.019974 -0.301646
vt -0.06404936 0.2294075
vt -0.04649957 0.2094378
vt -0.04585125 0.2205836
vt -0.05980258 0.1941882
vt -0.07515424 0.2075803
vt -0.07612434 0.2176421
vt -0.08068945 0.212409
vt -0.03954311 0.2174122
vt -0.03954311 0.2175249
vn 0 -1 0
usemtl material_0_0
f 1/1/1 2/2/1 3/3/1
f 2/2/1 1/1/1 4/4/1
f 4/4/1 1/1/1 5/5/1
f 5/5/1 1/1/1 6/6/1
f 5/5/1 6/6/1 7/7/1
f 3/3/1 8/8/1 9/9/1
f 8/8/1 10/3/1 11/2/1
