# SSTK version 0.8.0
# 35
mtllib original-35.mtl
o #ID260
v 0.391009 0.016966 0.532668
v 0.367335 -0.036953 0.567635
v 0.391009 -0.036953 0.532668
v 0.367335 0.016966 0.567635
v 0.367335 0.016966 0.567635
v 0.391009 0.016966 0.532668
v 0.367335 -0.036953 0.567635
v 0.391009 -0.036953 0.532668
v 0.404826 0.016966 0.492766
v 0.404826 -0.036953 0.492766
v 0.404826 0.016966 0.492766
v 0.404826 -0.036953 0.492766
v 0.335417 -0.036953 0.595283
v 0.335417 0.016966 0.595283
v 0.335417 0.016966 0.595283
v 0.335417 -0.036953 0.595283
v 0.407845 0.016966 0.450647
v 0.407845 -0.036953 0.450647
v 0.407845 0.016966 0.450647
v 0.407845 -0.036953 0.450647
v 0.297432 -0.036953 0.613728
v 0.297432 0.016966 0.613728
v 0.297432 0.016966 0.613728
v 0.297432 -0.036953 0.613728
v 0.399860 0.016966 0.409182
v 0.399860 -0.036953 0.409182
v 0.399860 0.016966 0.409182
v 0.399860 -0.036953 0.409182
v 0.255966 0.016966 0.621712
v 0.255966 -0.036953 0.621712
v 0.255966 0.016966 0.621712
v 0.255966 -0.036953 0.621712
v 0.381415 0.016966 0.371197
v 0.381415 -0.036953 0.371197
v 0.381415 0.016966 0.371197
v 0.381415 -0.036953 0.371197
v 0.213848 0.016966 0.618693
v 0.213848 -0.036953 0.618693
v 0.213848 0.016966 0.618693
v 0.213848 -0.036953 0.618693
v 0.353768 0.016966 0.339279
v 0.353768 -0.036953 0.339279
v 0.353768 0.016966 0.339279
v 0.353768 -0.036953 0.339279
v 0.173945 0.016966 0.604876
v 0.173945 -0.036953 0.604876
v 0.173945 0.016966 0.604876
v 0.173945 -0.036953 0.604876
v 0.318801 0.016966 0.315605
v 0.318801 -0.036953 0.315605
v 0.318801 0.016966 0.315605
v 0.318801 -0.036953 0.315605
v 0.138979 0.016966 0.581202
v 0.138979 -0.036953 0.581202
v 0.138979 0.016966 0.581202
v 0.138979 -0.036953 0.581202
v 0.278899 -0.036953 0.301788
v 0.278899 0.016966 0.301788
v 0.278899 -0.036953 0.301788
v 0.278899 0.016966 0.301788
v 0.111331 0.016966 0.549284
v 0.111331 -0.036953 0.549284
v 0.111331 0.016966 0.549284
v 0.111331 -0.036953 0.549284
v 0.236780 0.016966 0.298769
v 0.236780 -0.036953 0.298769
v 0.236780 0.016966 0.298769
v 0.236780 -0.036953 0.298769
v 0.092886 0.016966 0.511299
v 0.092886 -0.036953 0.511299
v 0.092886 0.016966 0.511299
v 0.092886 -0.036953 0.511299
v 0.195315 0.016966 0.306754
v 0.195315 -0.036953 0.306754
v 0.195315 0.016966 0.306754
v 0.195315 -0.036953 0.306754
v 0.084902 -0.036953 0.469834
v 0.084902 0.016966 0.469834
v 0.084902 0.016966 0.469834
v 0.084902 -0.036953 0.469834
v 0.157329 0.016966 0.325198
v 0.157329 -0.036953 0.325198
v 0.157329 0.016966 0.325198
v 0.157329 -0.036953 0.325198
v 0.087921 -0.036953 0.427715
v 0.087921 0.016966 0.427715
v 0.087921 0.016966 0.427715
v 0.087921 -0.036953 0.427715
v 0.125412 0.016966 0.352846
v 0.125412 -0.036953 0.352846
v 0.125412 0.016966 0.352846
v 0.125412 -0.036953 0.352846
v 0.101738 -0.036953 0.387813
v 0.101738 0.016966 0.387813
v 0.101738 0.016966 0.387813
v 0.101738 -0.036953 0.387813
vt 0.03272492 0.01041667
vt 0.02454369 -3.112865e-17
vt 0.03272492 -3.122502e-17
vt 0.02454369 0.01041667
vt 0.04090615 0.01041667
vt 0.03272492 -3.083953e-17
vt 0.04090615 -3.083953e-17
vt 0.01636246 -2.158767e-17
vt 0.02454369 -2.158767e-17
vt 0.01636246 0.01041667
vt 0.04908739 0.01041667
vt 0.04090615 -1.541976e-17
vt 0.04908739 -1.541976e-17
vt 0.008181231 -6.167906e-18
vt 0.01636246 -6.167906e-18
vt 0.008181231 0.01041667
vt 0.05726862 0.01041667
vt 0.04908739 6.162976e-33
vt 0.05726862 9.244464e-33
vt 0.008181231 1.532339e-17
vt 2.800538e-14 0.01041667
vt 2.867151e-14 1.541976e-17
vt 0.06544985 0.01041667
vt 0.05726862 2.158767e-17
vt 0.06544985 2.158767e-17
vt 0.1963495 3.392348e-17
vt 0.1881683 0.01041667
vt 0.1881683 3.392348e-17
vt 0.1963495 0.01041667
vt 0.07363108 0.01041667
vt 0.06544985 4.086238e-17
vt 0.07363108 4.095875e-17
vt 0.1881683 4.625929e-17
vt 0.1799871 0.01041667
vt 0.1799871 4.625929e-17
vt 0.08181231 0.01041667
vt 0.07363108 4.934325e-17
vt 0.08181231 4.934325e-17
vt 0.1799871 5.030698e-17
vt 0.1718058 0.01041667
vt 0.1718058 5.040335e-17
vt 0.08999354 4.625929e-17
vt 0.08999354 0.01041667
vt 0.08181231 4.625929e-17
vt 0.1718058 4.009139e-17
vt 0.1636246 0.01041667
vt 0.1636246 4.009139e-17
vt 0.09817477 0.01041667
vt 0.08999354 3.498359e-17
vt 0.09817477 3.507996e-17
vt 0.1636246 2.158767e-17
vt 0.1554434 0.01041667
vt 0.1554434 2.158767e-17
vt 0.106356 0.01041667
vt 0.09817477 1.541976e-17
vt 0.106356 1.541976e-17
vt 0.1472622 3.083953e-18
vt 0.1554434 3.083953e-18
vt 0.1472622 0.01041667
vt 0.1145372 0.01041667
vt 0.106356 -3.083953e-18
vt 0.1145372 -3.083953e-18
vt 0.1390809 -1.541976e-17
vt 0.1472622 -1.541976e-17
vt 0.1390809 0.01041667
vt 0.1227185 0.01041667
vt 0.1145372 -2.332239e-17
vt 0.1227185 -2.322602e-17
vt 0.1308997 -3.083953e-17
vt 0.1390809 -3.083953e-17
vt 0.1308997 0.01041667
vt 0.1227185 -3.083953e-17
vn 0.8941542316925617 0 0.44775909811670406
vn 0.7477981072739495 0 0.6639261937576334
vn 0.9795752398960931 0 0.20107796841651163
vn 0.5504807289090481 0 0.8348478706325863
vn 0.998239828493247 0 -0.05930636399049485
vn 0.31564902604016365 0 0.948876015272752
vn 0.948876015272752 0 -0.31564902604016365
vn 0.05930636399049485 0 0.998239828493247
vn 0.8348478706325863 0 -0.5504807289090481
vn -0.20107796841651163 0 0.9795752398960931
vn 0.6639261937576334 0 -0.7477981072739495
vn -0.4477590981167041 0 0.8941542316925617
vn 0.4477590981167097 0 -0.8941542316925589
vn 0.44775909811669856 0 -0.8941542316925647
vn -0.6639261937576334 0 0.7477981072739495
vn 0.20107796841651163 0 -0.9795752398960931
vn -0.8348478706325863 0 0.5504807289090481
vn -0.05930636399049485 0 -0.998239828493247
vn -0.948876015272752 0 0.31564902604016365
vn -0.31564902604016365 0 -0.948876015272752
vn -0.998239828493247 0 0.05930636399049485
vn -0.5504807289090481 0 -0.8348478706325863
vn -0.9795752398960931 0 -0.20107796841651163
vn -0.7477981072739495 0 -0.6639261937576334
vn -0.8941542316925561 0 -0.4477590981167153
vn -0.8941542316925674 0 -0.4477590981166928
vn -0.8941542316925617 0 -0.44775909811670406
vn 0.4477590981167041 0 -0.8941542316925617
vn -0.4477590981167097 0 0.8941542316925589
vn -0.44775909811669856 0 0.8941542316925647
vn 0.8941542316925674 0 0.4477590981166928
vn 0.8941542316925561 0 0.4477590981167153
usemtl material_0_0
f 1/1/1 2/2/2 3/3/1
f 2/2/2 1/1/1 4/4/2
f 9/5/3 3/6/1 10/7/3
f 3/6/1 9/5/3 1/1/1
f 4/4/2 13/8/4 2/9/2
f 13/8/4 4/4/2 14/10/4
f 17/11/5 10/12/3 18/13/5
f 10/12/3 17/11/5 9/5/3
f 14/10/4 21/14/6 13/15/4
f 21/14/6 14/10/4 22/16/6
f 25/17/7 18/18/5 26/19/7
f 18/18/5 25/17/7 17/11/5
f 21/20/6 29/21/8 30/22/8
f 29/21/8 21/20/6 22/16/6
f 33/23/9 26/24/7 34/25/9
f 26/24/7 33/23/9 25/17/7
f 30/26/8 37/27/10 38/28/10
f 37/27/10 30/26/8 29/29/8
f 41/30/11 34/31/9 42/32/11
f 34/31/9 41/30/11 33/23/9
f 38/33/10 45/34/12 46/35/12
f 45/34/12 38/33/10 37/27/10
f 49/36/13 42/37/11 50/38/14
f 42/37/11 49/36/13 41/30/11
f 46/39/12 53/40/15 54/41/15
f 53/40/15 46/39/12 45/34/12
f 49/36/13 57/42/16 58/43/16
f 57/42/16 49/36/13 50/44/14
f 54/45/15 61/46/17 62/47/17
f 61/46/17 54/45/15 53/40/15
f 65/48/18 57/49/16 66/50/18
f 57/49/16 65/48/18 58/43/16
f 62/51/17 69/52/19 70/53/19
f 69/52/19 62/51/17 61/46/17
f 73/54/20 66/55/18 74/56/20
f 66/55/18 73/54/20 65/48/18
f 69/52/19 77/57/21 70/58/19
f 77/57/21 69/52/19 78/59/21
f 81/60/22 74/61/20 82/62/22
f 74/61/20 81/60/22 73/54/20
f 78/59/21 85/63/23 77/64/21
f 85/63/23 78/59/21 86/65/23
f 89/66/24 82/67/22 90/68/24
f 82/67/22 89/66/24 81/60/22
f 86/65/23 93/69/25 85/70/23
f 93/69/25 86/65/23 94/71/26
f 94/71/26 90/72/24 93/69/25
f 90/72/24 94/71/26 89/66/24
usemtl material_1_0
f 5//24 6//27 7//24
f 8//27 7//24 6//27
f 6//27 11//23 8//27
f 12//23 8//27 11//23
f 15//22 5//24 16//22
f 7//24 16//22 5//24
f 11//23 19//21 12//23
f 20//21 12//23 19//21
f 23//20 15//22 24//20
f 16//22 24//20 15//22
f 19//21 27//19 20//21
f 28//19 20//21 27//19
f 23//20 24//20 31//18
f 32//18 31//18 24//20
f 27//19 35//17 28//19
f 36//17 28//19 35//17
f 31//18 32//18 39//16
f 40//16 39//16 32//18
f 35//17 43//15 36//17
f 44//15 36//17 43//15
f 39//16 40//16 47//28
f 48//28 47//28 40//16
f 43//15 51//29 44//15
f 52//30 44//15 51//29
f 47//28 48//28 55//11
f 56//11 55//11 48//28
f 52//30 51//29 59//10
f 60//10 59//10 51//29
f 55//11 56//11 63//9
f 64//9 63//9 56//11
f 60//10 67//8 59//10
f 68//8 59//10 67//8
f 63//9 64//9 71//7
f 72//7 71//7 64//9
f 67//8 75//6 68//8
f 76//6 68//8 75//6
f 79//5 71//7 80//5
f 72//7 80//5 71//7
f 75//6 83//4 76//6
f 84//4 76//6 83//4
f 87//3 79//5 88//3
f 80//5 88//3 79//5
f 83//4 91//2 84//4
f 92//2 84//4 91//2
f 95//31 87//3 96//32
f 88//3 96//32 87//3
f 91//2 95//31 92//2
f 96//32 92//2 95//31
