# SSTK version 0.8.0
# 3
mtllib original-3.mtl
o #ID430
v -0.089766 0.015971 0.068497
v -0.166642 0.015971 0.005125
v -0.078307 0.015971 0.060323
v -0.168965 0.015971 0.019007
v -0.102950 0.015971 0.073426
v -0.167616 0.015971 0.033018
v -0.116961 0.015971 0.074775
v -0.162687 0.015971 0.046202
v -0.130844 0.015971 0.072452
v -0.154513 0.015971 0.057662
v -0.143652 0.015971 0.066615
vn 0 -1 0
usemtl material_0_0
f 1//1 2//1 3//1
f 2//1 1//1 4//1
f 4//1 1//1 5//1
f 4//1 5//1 6//1
f 6//1 5//1 7//1
f 6//1 7//1 8//1
f 8//1 7//1 9//1
f 8//1 9//1 10//1
f 10//1 9//1 11//1
