# SSTK version 0.8.0
# 24
mtllib original-24.mtl
o #ID156
v 0.059896 0.033944 -0.175208
v 0.123270 0.033944 -0.244422
v 0.093089 0.033944 -0.255915
v 0.191640 0.033944 -0.236444
v 0.264683 0.033944 -0.243514
v 0.043577 0.033944 -0.143180
v 0.295657 0.033944 -0.252728
v 0.301051 0.033944 -0.254332
v 0.337419 0.033944 -0.265150
v 0.360218 0.033944 -0.276909
v 0.416453 0.033944 -0.205492
v 0.383017 0.033944 -0.288668
v 0.139661 0.033944 -0.094223
v 0.383017 0.033944 -0.288668
v 0.416453 -0.019974 -0.205492
v 0.383017 -0.019974 -0.288668
v 0.416453 0.033944 -0.205492
v 0.139661 -0.019974 -0.094223
v 0.043577 0.033944 -0.143180
v 0.043577 -0.019974 -0.143180
v 0.139661 -0.002001 -0.094223
v 0.139661 0.015971 -0.094223
v 0.139661 0.033944 -0.094223
v 0.139661 -0.019974 -0.094223
v 0.173013 -0.002001 -0.107630
v 0.139661 -0.002001 -0.094223
v 0.416453 -0.019974 -0.205492
v 0.178063 -0.002001 -0.109660
v 0.173013 0.015971 -0.107630
v 0.211415 -0.002001 -0.123068
v 0.217122 -0.002001 -0.125362
v 0.211415 0.015971 -0.123068
v 0.250474 -0.002001 -0.138770
v 0.257350 -0.002001 -0.141533
v 0.257350 0.015971 -0.141533
v 0.290702 -0.002001 -0.154941
v 0.297733 -0.002001 -0.157768
v 0.290702 0.015971 -0.154941
v 0.297733 0.015971 -0.157768
v 0.331085 -0.002001 -0.171175
v 0.341134 -0.002001 -0.175215
v 0.374486 -0.002001 -0.188622
v 0.416453 0.033944 -0.205492
v 0.139661 0.033944 -0.094223
v 0.139661 0.015971 -0.094223
v 0.178063 0.015971 -0.109660
v 0.217122 0.015971 -0.125362
v 0.250474 0.015971 -0.138770
v 0.331085 0.015971 -0.171175
v 0.341134 0.015971 -0.175215
v 0.374486 0.015971 -0.188622
v 0.416453 -0.019974 -0.205492
v 0.360218 -0.019974 -0.276909
v 0.383017 -0.019974 -0.288668
v 0.353327 -0.019981 -0.273355
v 0.337419 -0.019974 -0.265150
v 0.043577 -0.019974 -0.143180
v 0.139661 -0.019974 -0.094223
v 0.123270 -0.019974 -0.244422
v 0.059896 -0.019974 -0.175208
v 0.093089 -0.019974 -0.255915
v 0.191640 -0.019974 -0.236444
v 0.264683 -0.019974 -0.243514
v 0.295657 -0.019974 -0.252728
v 0.301051 -0.019974 -0.254332
vt 0.05709326 0.1632316
vt 0.0512132 0.175492
vt 0.04803702 0.1720556
vt 0.05598076 0.1842524
vt 0.05897777 0.1944541
vt 0.06051708 0.1593067
vt 0.05941309 0.1991162
vt 0.05948889 0.199928
vt 0.06 0.2054019
vt 0.05965128 0.2091024
vt 0.07229152 0.2128029
vt 0.05930257 0.2128029
vt 0.07229152 0.1695782
vt -0.05930257 0.0105607
vt -0.07229152 0.002748204
vt -0.05930257 0.002748204
vt -0.07229152 0.0105607
vt 0.1659527 0.002748204
vt 0.1503277 0.0105607
vt 0.1503277 0.002748204
vt 0.1659527 0.005352371
vt 0.1659527 0.007956537
vt 0.1659527 0.0105607
vt 0.1695782 0.002748204
vt 0.1747866 0.005352371
vt 0.1695782 0.005352371
vt 0.2128029 0.002748204
vt 0.1755752 0.005352371
vt 0.1747866 0.007956537
vt 0.1807835 0.005352371
vt 0.1816749 0.005352371
vt 0.1807835 0.007956537
vt 0.1868832 0.005352371
vt 0.1879569 0.005352371
vt 0.1879569 0.007956537
vt 0.1931652 0.005352371
vt 0.1942633 0.005352371
vt 0.1931652 0.007956537
vt 0.1942633 0.007956537
vt 0.1994717 0.005352371
vt 0.2010409 0.005352371
vt 0.2062493 0.005352371
vt 0.2128029 0.0105607
vt 0.1695782 0.0105607
vt 0.1695782 0.007956537
vt 0.1755752 0.007956537
vt 0.1816749 0.007956537
vt 0.1868832 0.007956537
vt 0.1994717 0.007956537
vt 0.2010409 0.007956537
vt 0.2062493 0.007956537
vt -0.07229153 0.2128029
vt -0.05965129 0.2091024
vt -0.05930257 0.2128029
vt -0.05975667 0.207984
vt -0.06000001 0.2054019
vt -0.06051709 0.1593067
vt -0.07229153 0.1695782
vt -0.05121321 0.175492
vt -0.05709326 0.1632315
vt -0.04803703 0.1720556
vt -0.05598077 0.1842524
vt -0.05897778 0.1944541
vt -0.0594131 0.1991162
vt -0.05948889 0.199928
vn 0 1 0
vn 0.9278362348883077 0 -0.37298782986618906
vn -0.45399111816058746 0 0.8910062090868388
vn 0.3729878298662018 0 0.9278362348883025
vn -0.0000024881746332330085 -1 0.0000036798130748777787
usemtl material_0_0
f 1/1/1 2/2/1 3/3/1
f 2/2/1 1/1/1 4/4/1
f 4/4/1 1/1/1 5/5/1
f 5/5/1 1/1/1 6/6/1
f 5/5/1 6/6/1 7/7/1
f 7/7/1 6/6/1 8/8/1
f 8/8/1 6/6/1 9/9/1
f 10/10/1 11/11/1 12/12/1
f 11/11/1 10/10/1 9/9/1
f 11/11/1 9/9/1 6/6/1
f 11/11/1 6/6/1 13/13/1
f 14/14/2 15/15/2 16/16/2
f 15/15/2 14/14/2 17/17/2
f 18/18/3 19/19/3 20/20/3
f 19/19/3 18/18/3 21/21/3
f 19/19/3 21/21/3 22/22/3
f 19/19/3 22/22/3 23/23/3
f 24/24/4 25/25/4 26/26/4
f 25/25/4 24/24/4 27/27/4
f 25/25/4 27/27/4 28/28/4
f 25/25/4 28/28/4 29/29/4
f 28/28/4 27/27/4 30/30/4
f 30/30/4 27/27/4 31/31/4
f 30/30/4 31/31/4 32/32/4
f 31/31/4 27/27/4 33/33/4
f 33/33/4 27/27/4 34/34/4
f 33/33/4 34/34/4 35/35/4
f 34/34/4 27/27/4 36/36/4
f 36/36/4 27/27/4 37/37/4
f 36/36/4 37/37/4 38/38/4
f 38/38/4 37/37/4 39/39/4
f 37/37/4 27/27/4 40/40/4
f 40/40/4 27/27/4 41/41/4
f 41/41/4 27/27/4 42/42/4
f 42/42/4 27/27/4 43/43/4
f 29/29/4 44/44/4 45/45/4
f 44/44/4 29/29/4 43/43/4
f 43/43/4 29/29/4 46/46/4
f 46/46/4 29/29/4 28/28/4
f 43/43/4 46/46/4 32/32/4
f 43/43/4 32/32/4 47/47/4
f 47/47/4 32/32/4 31/31/4
f 43/43/4 47/47/4 48/48/4
f 43/43/4 48/48/4 35/35/4
f 35/35/4 48/48/4 33/33/4
f 43/43/4 35/35/4 38/38/4
f 43/43/4 38/38/4 39/39/4
f 43/43/4 39/39/4 49/49/4
f 43/43/4 49/49/4 50/50/4
f 50/50/4 49/49/4 40/40/4
f 50/50/4 40/40/4 41/41/4
f 43/43/4 50/50/4 51/51/4
f 43/43/4 51/51/4 42/42/4
f 52/52/5 53/53/5 54/54/5
f 53/53/5 52/52/5 55/55/5
f 55/55/5 52/52/5 56/56/5
f 56/56/5 52/52/5 57/57/5
f 57/57/5 52/52/5 58/58/5
f 59/59/5 60/60/5 61/61/5
f 60/60/5 59/59/5 62/62/5
f 60/60/5 62/62/5 63/63/5
f 60/60/5 63/63/5 57/57/5
f 57/57/5 63/63/5 64/64/5
f 57/57/5 64/64/5 65/65/5
f 57/57/5 65/65/5 56/56/5
