# SSTK version 0.8.0
# 32
mtllib original-32.mtl
o #ID238
v 0.414013 -0.036953 0.327862
v 0.399830 0.016966 0.314649
v 0.399830 -0.036953 0.314649
v 0.414013 0.016966 0.327862
v 0.414013 0.016966 0.327862
v 0.414013 -0.036953 0.327862
v 0.399830 0.016966 0.314649
v 0.399830 -0.036953 0.314649
v 0.358886 0.016966 0.289130
v 0.358886 -0.036953 0.289130
v 0.358886 0.016966 0.289130
v 0.358886 -0.036953 0.289130
v 0.358886 -0.036953 0.289130
v 0.335429 0.016966 0.274509
v 0.335429 -0.036953 0.274509
v 0.358886 0.016966 0.289130
v 0.358886 0.016966 0.289130
v 0.358886 -0.036953 0.289130
v 0.335429 0.016966 0.274509
v 0.335429 -0.036953 0.274509
v 0.300069 0.016966 0.260748
v 0.300069 -0.036953 0.260748
v 0.300069 0.016966 0.260748
v 0.300069 -0.036953 0.260748
v 0.300069 -0.036953 0.260748
v 0.294826 0.016966 0.258707
v 0.294826 -0.036953 0.258707
v 0.300069 0.016966 0.260748
v 0.300069 0.016966 0.260748
v 0.300069 -0.036953 0.260748
v 0.294826 0.016966 0.258707
v 0.294826 -0.036953 0.258707
vt 4.346199 0.0005076859
vt 4.342454 0.01092435
vt 4.342454 0.0005076859
vt 4.346199 0.01092435
vt 3.56075 0.0005076859
vt 3.55143 0.01092435
vt 3.55143 0.0005076859
vt 3.56075 0.01092435
vt 3.54609 0.01092435
vt 3.54609 0.0005076859
vt 2.665174 0.0005076859
vt 2.657844 0.01092435
vt 2.657844 0.0005076859
vt 2.665174 0.01092435
vt 2.656757 0.01092435
vt 2.656757 0.0005076859
vn -0.6816343955074975 0 0.7316929348170094
vn -0.6081096522785412 0 0.79385304106344
vn -0.5289479399803824 0 0.8486542740070954
vn -0.44775909811671677 0 0.8941542316925556
vn -0.44775909811671677 0 0.8941542316925554
vn -0.36269182327657207 0 0.9319091379143764
vn 0.6816343955074975 0 -0.7316929348170094
vn 0.6081096522785412 0 -0.79385304106344
vn 0.5289479399803824 0 -0.8486542740070954
vn 0.44775909811671677 0 -0.8941542316925556
vn 0.44775909811671677 0 -0.8941542316925554
vn 0.36269182327657207 0 -0.9319091379143764
usemtl material_0_0
f 1/1/1 2/2/2 3/3/2
f 2/2/2 1/1/1 4/4/1
f 3/5/2 9/6/3 10/7/3
f 9/6/3 3/5/2 2/8/2
f 13/7/3 14/9/4 15/10/5
f 14/9/4 13/7/3 16/6/3
f 15/11/5 21/12/6 22/13/6
f 21/12/6 15/11/5 14/14/4
f 25/13/6 26/15/6 27/16/6
f 26/15/6 25/13/6 28/12/6
usemtl material_1_0
f 5//7 6//7 7//8
f 8//8 7//8 6//7
f 7//8 8//8 11//9
f 12//9 11//9 8//8
f 17//9 18//9 19//10
f 20//11 19//10 18//9
f 19//10 20//11 23//12
f 24//12 23//12 20//11
f 29//12 30//12 31//12
f 32//12 31//12 30//12
