# SSTK version 0.8.0
# 19
mtllib original-19.mtl
o #ID108
v -0.036702 -0.019974 -0.301646
v -0.084257 -0.002001 -0.208315
v -0.084257 -0.019974 -0.208315
v -0.067938 -0.002001 -0.240343
v -0.067938 0.015971 -0.240343
v -0.084257 0.033944 -0.208315
v -0.084257 0.015971 -0.208315
v -0.011834 0.033944 -0.350452
v -0.011834 -0.019974 -0.350452
v -0.011834 -0.019974 -0.350452
v -0.036702 -0.019974 -0.301646
v -0.011834 0.033944 -0.350452
v -0.067938 0.015971 -0.240343
v -0.084257 0.033944 -0.208315
v -0.084257 0.015971 -0.208315
v -0.067938 -0.002001 -0.240343
v -0.084257 -0.002001 -0.208315
v -0.084257 -0.019974 -0.208315
v 0.043577 0.033944 -0.143180
v 0.009700 -0.019974 -0.160441
v 0.043577 -0.019974 -0.143180
v -0.084257 -0.002001 -0.208315
v -0.084257 0.015971 -0.208315
v -0.084257 0.033944 -0.208315
v -0.084257 -0.019974 -0.208315
v -0.067938 -0.002001 -0.240343
v -0.084257 0.015971 -0.208315
v -0.084257 -0.002001 -0.208315
v -0.067938 0.015971 -0.240343
v -0.067938 0.015971 -0.240343
v -0.067938 -0.002001 -0.240343
v -0.084257 0.015971 -0.208315
v -0.084257 -0.002001 -0.208315
vn 0.8910062090868388 0 0.45399111816058746
vn -0.8910062090868388 0 -0.45399111816058746
vn -0.45399111816058746 0 0.8910062090868388
usemtl material_0_0
f 1//1 2//1 3//1
f 2//1 1//1 4//1
f 4//1 1//1 5//1
f 5//1 6//1 7//1
f 6//1 5//1 8//1
f 8//1 5//1 1//1
f 8//1 1//1 9//1
f 26//1 27//1 28//1
f 27//1 26//1 29//1
usemtl material_1_0
f 10//2 11//2 12//2
f 11//2 13//2 12//2
f 12//2 13//2 14//2
f 15//2 14//2 13//2
f 13//2 11//2 16//2
f 16//2 11//2 17//2
f 18//2 17//2 11//2
f 19//3 20//3 21//3
f 20//3 19//3 22//3
f 22//3 19//3 23//3
f 23//3 19//3 24//3
f 22//3 25//3 20//3
f 30//2 31//2 32//2
f 33//2 32//2 31//2
