# SSTK version 0.8.0
# 48
mtllib original-48.mtl
o #ID370
v 0.140935 -0.042827 0.243645
v 0.112884 -0.042827 0.243437
v 0.200409 -0.042827 0.232319
v 0.125147 -0.042827 0.244184
v 0.100246 -0.042827 0.251394
v 0.096406 -0.042827 0.252125
v 0.096406 -0.042827 0.252125
v 0.092398 -0.042827 0.246039
v 0.112884 -0.042827 0.243437
v 0.094805 -0.042827 0.252969
v 0.115559 -0.042827 0.242026
v 0.066791 -0.042827 0.172322
v 0.183755 -0.042827 0.206066
vt -7.010735 4.578422
vt -7.014321 4.571126
vt -7.000083 4.592363
vt -7.012923 4.574401
vt -7.018023 4.568884
vt -7.01871 4.567984
vt -7.017653 4.566156
vt -7.019137 4.567679
vt -7.013608 4.571636
vt -7.001875 4.549955
vt -6.995442 4.584641
vn 0 -1 0
usemtl material_0_0
f 1/1/1 2/2/1 3/3/1
f 2/2/1 1/1/1 4/4/1
f 2/2/1 4/4/1 5/5/1
f 2/2/1 5/5/1 6/6/1
f 7/6/1 8/7/1 9/2/1
f 8/7/1 7/6/1 10/8/1
f 11/9/1 12/10/1 13/11/1
f 12/10/1 11/9/1 8/7/1
