# SSTK version 0.8.0
# 42
mtllib original-42.mtl
o #ID321
v 0.093357 -0.036953 0.245089
v 0.065342 -0.001007 0.164442
v 0.065342 -0.036953 0.164442
v 0.065342 0.016966 0.164442
v 0.093357 0.016966 0.245089
v 0.093357 0.016966 0.245089
v 0.093357 -0.036953 0.245089
v 0.065342 0.016966 0.164442
v 0.065342 -0.001007 0.164442
v 0.065342 -0.036953 0.164442
vt 5.519334 0.0005076859
vt 5.502841 0.00745213
vt 5.502841 0.0005076859
vt 5.502841 0.01092435
vt 5.519334 0.01092435
vn -0.9446279894831047 0 0.3281432027105052
vn 0.9446279894831047 0 -0.3281432027105052
usemtl material_0_0
f 1/1/1 2/2/1 3/3/1
f 2/2/1 1/1/1 4/4/1
f 4/4/1 1/1/1 5/5/1
usemtl material_1_0
f 6//2 7//2 8//2
f 8//2 7//2 9//2
f 10//2 9//2 7//2
