# SSTK version 0.8.0
# 36
mtllib original-36.mtl
o #ID268
v 0.264710 -0.036953 0.246986
v 0.192493 0.016966 0.233955
v 0.192493 -0.036953 0.233955
v 0.264710 0.016966 0.246986
v 0.264710 0.016966 0.246986
v 0.264710 -0.036953 0.246986
v 0.192493 0.016966 0.233955
v 0.192493 -0.036953 0.233955
v 0.123698 0.016966 0.236304
v 0.123698 -0.036953 0.236304
v 0.123698 0.016966 0.236304
v 0.123698 -0.036953 0.236304
v 0.294826 -0.036953 0.258707
v 0.294826 0.016966 0.258707
v 0.294826 0.016966 0.258707
v 0.294826 -0.036953 0.258707
v 0.093357 0.016966 0.245089
v 0.093357 -0.036953 0.245089
v 0.093357 0.016966 0.245089
v 0.093357 -0.036953 0.245089
vt 1.642892 0.0005076859
vt 1.628715 0.01092435
vt 1.628715 0.0005076859
vt 1.642892 0.01092435
vt 0.447681 0.0005076859
vt 0.4343828 0.01092435
vt 0.4343828 0.0005076859
vt 0.447681 0.01092435
vt 2.656757 0.0005076859
vt 2.650514 0.01092435
vt 2.650514 0.0005076859
vt 2.656757 0.01092435
vt -0.9624599 0.0005076859
vt -0.9685624 0.01092435
vt -0.9685624 0.0005076859
vt -0.9624599 0.01092435
vn -0.2713910238289695 0 0.9624691746674611
vn -0.07213069732461494 0 0.9973951887308585
vn 0.1573204776715483 0 0.9875476025514902
vn -0.36269182327657207 0 0.9319091379143764
vn 0.27810360149353075 0 0.9605510849696269
vn 0.2713910238289695 0 -0.9624691746674611
vn 0.07213069732461494 0 -0.9973951887308585
vn -0.1573204776715483 0 -0.9875476025514902
vn 0.36269182327657207 0 -0.9319091379143764
vn -0.27810360149353075 0 -0.9605510849696269
usemtl material_0_0
f 1/1/1 2/2/2 3/3/2
f 2/2/2 1/1/1 4/4/1
f 3/5/2 9/6/3 10/7/3
f 9/6/3 3/5/2 2/8/2
f 13/9/4 4/10/1 1/11/1
f 4/10/1 13/9/4 14/12/4
f 10/13/3 17/14/5 18/15/5
f 17/14/5 10/13/3 9/16/3
usemtl material_1_0
f 5//6 6//6 7//7
f 8//7 7//7 6//6
f 7//7 8//7 11//8
f 12//8 11//8 8//7
f 15//9 16//9 5//6
f 6//6 5//6 16//9
f 11//8 12//8 19//10
f 20//10 19//10 12//8
