# SSTK version 0.8.0
# 2
mtllib original-2.mtl
o #ID417
v -0.168965 0.033944 0.019007
v -0.078307 0.033944 0.060323
v -0.166642 0.033944 0.005125
v -0.089766 0.033944 0.068497
v -0.167616 0.033944 0.033018
v -0.102950 0.033944 0.073426
v -0.162687 0.033944 0.046202
v -0.116961 0.033944 0.074775
v -0.154513 0.033944 0.057662
v -0.130844 0.033944 0.072452
v -0.143652 0.033944 0.066615
v -0.078307 0.033944 0.060323
v -0.089766 0.015971 0.068497
v -0.078307 0.015971 0.060323
v -0.089766 0.033944 0.068497
v -0.078307 0.033944 0.060323
v -0.166642 0.015971 0.005125
v -0.166642 0.033944 0.005125
v -0.078307 0.015971 0.060323
v -0.168965 0.033944 0.019007
v -0.168965 0.015971 0.019007
v -0.167616 0.033944 0.033018
v -0.167616 0.015971 0.033018
v -0.162687 0.015971 0.046202
v -0.162687 0.033944 0.046202
v -0.154513 0.015971 0.057662
v -0.154513 0.033944 0.057662
v -0.143652 0.015971 0.066615
v -0.143652 0.033944 0.066615
v -0.130844 0.015971 0.072452
v -0.130844 0.033944 0.072452
v -0.116961 0.015971 0.074775
v -0.116961 0.033944 0.074775
v -0.102950 0.015971 0.073426
v -0.102950 0.033944 0.073426
v -0.160805 0.015971 -0.007684
v -0.063516 0.015971 0.036653
v -0.151852 0.015971 -0.018545
v -0.069353 0.015971 0.049462
v -0.166642 0.015971 0.005125
v -0.078307 0.015971 0.060323
v -0.063516 0.015971 0.036653
v -0.151852 0.033944 -0.018545
v -0.151852 0.015971 -0.018545
v -0.063516 0.033944 0.036653
v -0.099315 0.033944 -0.030674
v -0.075645 0.033944 -0.015884
v -0.086506 0.033944 -0.024837
v -0.113197 0.033944 -0.032997
v -0.067472 0.033944 -0.004424
v -0.127208 0.033944 -0.031648
v -0.062542 0.033944 0.008760
v -0.140392 0.033944 -0.026719
v -0.061193 0.033944 0.022771
v -0.151852 0.033944 -0.018545
v -0.063516 0.033944 0.036653
v -0.151852 0.033944 -0.018545
v -0.140392 0.015971 -0.026719
v -0.151852 0.015971 -0.018545
v -0.140392 0.033944 -0.026719
v -0.061193 0.033944 0.022771
v -0.061193 0.015971 0.022771
v -0.062542 0.033944 0.008760
v -0.062542 0.015971 0.008760
v -0.067472 0.015971 -0.004424
v -0.067472 0.033944 -0.004424
v -0.075645 0.015971 -0.015884
v -0.075645 0.033944 -0.015884
v -0.086506 0.015971 -0.024837
v -0.086506 0.033944 -0.024837
v -0.099315 0.015971 -0.030674
v -0.099315 0.033944 -0.030674
v -0.113197 0.015971 -0.032997
v -0.113197 0.033944 -0.032997
v -0.127208 0.015971 -0.031648
v -0.127208 0.033944 -0.031648
vt 0.1747638 0.1466176
vt 0.1722515 0.1657004
vt 0.1722515 0.145577
vt 0.1747638 0.1646598
vt 0.1769212 0.148273
vt 0.1769212 0.1630044
vt 0.1785766 0.1504304
vt 0.1785766 0.160847
vt 0.1796172 0.1529427
vt 0.1796172 0.1583347
vt 0.1799721 0.1556387
vt -0.09572882 0.01408094
vt -0.09844812 0.01060872
vt -0.09572882 0.01060872
vt -0.09844812 0.01408094
vt -0.1657004 0.01408094
vt -0.145577 0.01060872
vt -0.145577 0.01408094
vt -0.1657004 0.01060872
vt 0.2175688 0.01408094
vt 0.2148495 0.01060872
vt 0.2175688 0.01060872
vt 0.2148495 0.01408094
vt 0.2306239 0.01408094
vt 0.2279046 0.01060872
vt 0.2306239 0.01060872
vt 0.2279046 0.01408094
vt 0.228055 0.01060872
vt 0.2253357 0.01408094
vt 0.2253357 0.01060872
vt 0.228055 0.01408094
vt 0.2100371 0.01060872
vt 0.2073178 0.01408094
vt 0.2073178 0.01060872
vt 0.2100371 0.01408094
vt 0.1777983 0.01060872
vt 0.175079 0.01408094
vt 0.175079 0.01060872
vt 0.1777983 0.01408094
vt 0.1335354 0.01060872
vt 0.1308161 0.01408094
vt 0.1308161 0.01060872
vt 0.1335354 0.01408094
vt 0.080265 0.01060872
vt 0.07754571 0.01408094
vt 0.07754571 0.01060872
vt 0.080265 0.01408094
vt 0.02161731 0.01060872
vt 0.01889802 0.01408094
vt 0.01889802 0.01060872
vt 0.02161731 0.01408094
vt -0.0384109 0.01408094
vt -0.0411302 0.01060872
vt -0.0384109 0.01060872
vt -0.0411302 0.01408094
vt 0.1695555 0.145222
vt 0.1668594 0.1657004
vt 0.1668594 0.145577
vt 0.1695555 0.1660554
vt 0.1657004 0.01060872
vt 0.145577 0.01408094
vt 0.145577 0.01060872
vt 0.1657004 0.01408094
vt 0.1594937 0.1529427
vt 0.1594937 0.1583347
vt 0.1591388 0.1556387
vt 0.1605344 0.1504304
vt 0.1605344 0.160847
vt 0.1621898 0.148273
vt 0.1621898 0.1630044
vt 0.1643471 0.1466176
vt 0.1643471 0.1646598
vt 0.09844812 0.01408094
vt 0.09572882 0.01060872
vt 0.09844812 0.01060872
vt 0.09572882 0.01408094
vt -0.2148495 0.01408094
vt -0.2175688 0.01060872
vt -0.2148495 0.01060872
vt -0.2175688 0.01408094
vt -0.2279046 0.01408094
vt -0.2306239 0.01060872
vt -0.2279046 0.01060872
vt -0.2306239 0.01408094
vt -0.228055 0.01408094
vt -0.2253357 0.01060872
vt -0.2253357 0.01408094
vt -0.228055 0.01060872
vt -0.2100371 0.01408094
vt -0.2073178 0.01060872
vt -0.2073178 0.01408094
vt -0.2100371 0.01060872
vt -0.1777983 0.01408094
vt -0.175079 0.01060872
vt -0.175079 0.01408094
vt -0.1777983 0.01060872
vt -0.1335354 0.01408094
vt -0.1308161 0.01060872
vt -0.1308161 0.01408094
vt -0.1335354 0.01060872
vt -0.080265 0.01408094
vt -0.07754571 0.01060872
vt -0.07754571 0.01408094
vt -0.080265 0.01060872
vt -0.02161731 0.01408094
vt -0.01889802 0.01060872
vt -0.01889802 0.01408094
vt -0.02161731 0.01060872
vt 0.0411302 0.01408094
vt 0.0384109 0.01060872
vt 0.0411302 0.01060872
vt 0.0384109 0.01408094
vn 0 1 0
vn 0.5807029659690042 0 0.8141155110393128
vn 0.46947155682433767 0 0.8829475960287411
vn 0.529919268354428 0 -0.8480480935812
vn -0.41071886698303967 0 -0.9117620371040727
vn -0.9993908269155337 0 -0.03489949966813121
vn -0.9743700658784202 0 0.22495104960876042
vn -0.8829475960287411 0 0.46947155682433767
vn -0.7313536798621114 0 0.6819983833940869
vn -0.529919268354428 0 0.8480480935812
vn -0.29237174452532305 0 0.9563047437941626
vn -0.03489949966813121 0 0.9993908269155337
vn 0.22495104960876042 0 0.9743700658784202
vn 0.41071886698303967 0 0.9117620371040727
vn -0.5807029659690042 0 -0.8141155110393128
vn -0.46947155682433767 0 -0.8829475960287411
vn 0.9993908269155337 0 0.03489949966813121
vn 0.9743700658784202 0 -0.22495104960876042
vn 0.8829475960287411 0 -0.46947155682433767
vn 0.7313536798621114 0 -0.6819983833940869
vn 0.29237174452532305 0 -0.9563047437941626
vn 0.03489949966813121 0 -0.9993908269155337
vn -0.22495104960876042 0 -0.9743700658784202
usemtl material_0_0
f 1/1/1 2/2/1 3/3/1
f 2/2/1 1/1/1 4/4/1
f 4/4/1 1/1/1 5/5/1
f 4/4/1 5/5/1 6/6/1
f 6/6/1 5/5/1 7/7/1
f 6/6/1 7/7/1 8/8/1
f 8/8/1 7/7/1 9/9/1
f 8/8/1 9/9/1 10/10/1
f 10/10/1 9/9/1 11/11/1
f 12/12/2 13/13/3 14/14/2
f 13/13/3 12/12/2 15/15/3
f 16/16/4 17/17/5 18/18/5
f 17/17/5 16/16/4 19/19/4
f 20/20/6 17/21/5 21/22/6
f 17/21/5 20/20/6 18/23/5
f 22/24/7 21/25/6 23/26/7
f 21/25/6 22/24/7 20/27/6
f 24/28/8 22/29/7 23/30/7
f 22/29/7 24/28/8 25/31/8
f 26/32/9 25/33/8 24/34/8
f 25/33/8 26/32/9 27/35/9
f 28/36/10 27/37/9 26/38/9
f 27/37/9 28/36/10 29/39/10
f 30/40/11 29/41/10 28/42/10
f 29/41/10 30/40/11 31/43/11
f 32/44/12 31/45/11 30/46/11
f 31/45/11 32/44/12 33/47/12
f 34/48/13 33/49/12 32/50/12
f 33/49/12 34/48/13 35/51/13
f 15/52/3 34/53/13 13/54/3
f 34/53/13 15/52/3 35/55/13
f 36/56/1 37/57/1 38/58/1
f 37/57/1 36/56/1 39/59/1
f 39/59/1 36/56/1 40/3/1
f 39/59/1 40/3/1 41/2/1
f 42/60/14 43/61/10 44/62/10
f 43/61/10 42/60/14 45/63/14
f 46/64/1 47/65/1 48/66/1
f 47/65/1 46/64/1 49/67/1
f 47/65/1 49/67/1 50/68/1
f 50/68/1 49/67/1 51/69/1
f 50/68/1 51/69/1 52/70/1
f 52/70/1 51/69/1 53/71/1
f 52/70/1 53/71/1 54/72/1
f 54/72/1 53/71/1 55/58/1
f 54/72/1 55/58/1 56/57/1
f 57/73/15 58/74/16 59/75/15
f 58/74/16 57/73/15 60/76/16
f 61/77/17 42/78/14 62/79/17
f 42/78/14 61/77/17 45/80/14
f 63/81/18 62/82/17 64/83/18
f 62/82/17 63/81/18 61/84/17
f 63/85/18 65/86/19 66/87/19
f 65/86/19 63/85/18 64/88/18
f 66/89/19 67/90/20 68/91/20
f 67/90/20 66/89/19 65/92/19
f 68/93/20 69/94/4 70/95/4
f 69/94/4 68/93/20 67/96/20
f 70/97/4 71/98/21 72/99/21
f 71/98/21 70/97/4 69/100/4
f 72/101/21 73/102/22 74/103/22
f 73/102/22 72/101/21 71/104/21
f 74/105/22 75/106/23 76/107/23
f 75/106/23 74/105/22 73/108/22
f 60/109/16 75/110/23 58/111/16
f 75/110/23 60/109/16 76/112/23
