# SSTK version 0.8.0
# 26
mtllib original-26.mtl
o #ID182
v 0.218118 -0.002001 -0.106392
v 0.184766 0.015971 -0.092984
v 0.184766 -0.002001 -0.092984
v 0.218118 0.015971 -0.106392
v 0.184766 0.015971 -0.092984
v 0.211415 0.015971 -0.123068
v 0.178063 0.015971 -0.109660
v 0.218118 0.015971 -0.106392
v 0.184766 -0.002001 -0.092984
v 0.178063 0.015971 -0.109660
v 0.178063 -0.002001 -0.109660
v 0.184766 0.015971 -0.092984
v 0.218118 -0.002001 -0.106392
v 0.178063 -0.002001 -0.109660
v 0.211415 -0.002001 -0.123068
v 0.184766 -0.002001 -0.092984
v 0.211415 0.015971 -0.123068
v 0.218118 -0.002001 -0.106392
v 0.211415 -0.002001 -0.123068
v 0.218118 0.015971 -0.106392
vt 0.5423505 0.01605711
vt 0.5267255 0.02386961
vt 0.5267255 0.01605711
vt 0.5423505 0.02386961
vt 0.2246871 0.5267255
vt 0.2168746 0.5423505
vt 0.2168746 0.5267255
vt 0.2246871 0.5423505
vt 0.2246871 0.01605711
vt 0.2168746 0.02386961
vt 0.2168746 0.01605711
vt 0.2246871 0.02386961
vt -0.2246871 0.5423505
vt -0.2168746 0.5267255
vt -0.2168746 0.5423505
vt -0.2246871 0.5267255
vt -0.2168746 0.02386961
vt -0.2246871 0.01605711
vt -0.2168746 0.01605711
vt -0.2246871 0.02386961
vn 0.3729878298662308 0 0.9278362348882909
vn 0 1 0
vn -0.9278362348882909 0 0.3729878298662308
vn 0 -1 0
vn 0.9278362348882909 0 -0.3729878298662308
usemtl material_0_0
f 1/1/1 2/2/1 3/3/1
f 2/2/1 1/1/1 4/4/1
f 5/5/2 6/6/2 7/7/2
f 6/6/2 5/5/2 8/8/2
f 9/9/3 10/10/3 11/11/3
f 10/10/3 9/9/3 12/12/3
f 13/13/4 14/14/4 15/15/4
f 14/14/4 13/13/4 16/16/4
f 17/17/5 18/18/5 19/19/5
f 18/18/5 17/17/5 20/20/5
