# SSTK version 0.8.0
# 7
mtllib original-7.mtl
o #ID28
v 0.323656 0.033944 -0.606044
v 0.360002 -0.019974 -0.584549
v 0.323656 -0.019974 -0.606044
v 0.360002 0.033944 -0.584549
v 0.360002 0.033944 -0.584549
v 0.323656 0.033944 -0.606044
v 0.360002 -0.019974 -0.584549
v 0.323656 -0.019974 -0.606044
v 0.282984 -0.019974 -0.617400
v 0.282984 0.033944 -0.617400
v 0.282984 -0.019974 -0.617400
v 0.282984 0.033944 -0.617400
v 0.389546 -0.019974 -0.554379
v 0.389546 0.033944 -0.554379
v 0.389546 0.033944 -0.554379
v 0.389546 -0.019974 -0.554379
v 0.240760 -0.019974 -0.617842
v 0.240760 0.033944 -0.617842
v 0.240760 -0.019974 -0.617842
v 0.240760 0.033944 -0.617842
v 0.410276 -0.019974 -0.517590
v 0.410276 0.033944 -0.517590
v 0.410276 0.033944 -0.517590
v 0.410276 -0.019974 -0.517590
v 0.199859 -0.019974 -0.607340
v 0.199859 0.033944 -0.607340
v 0.199859 -0.019974 -0.607340
v 0.199859 0.033944 -0.607340
v 0.420777 -0.019974 -0.476690
v 0.420777 0.033944 -0.476690
v 0.420777 0.033944 -0.476690
v 0.420777 -0.019974 -0.476690
v 0.163070 -0.019974 -0.586611
v 0.163070 0.033944 -0.586611
v 0.172372 -0.019974 -0.591852
v 0.182875 -0.019989 -0.597770
v 0.195234 -0.020006 -0.604734
v 0.195234 -0.020006 -0.604734
v 0.182875 -0.019989 -0.597770
v 0.172372 -0.019974 -0.591852
v 0.163070 -0.019974 -0.586611
v 0.163070 0.033944 -0.586611
v 0.420698 -0.019974 -0.469146
v 0.420335 -0.019974 -0.434465
v 0.420335 0.033944 -0.434465
v 0.420335 0.033944 -0.434465
v 0.420335 -0.019974 -0.434465
v 0.420698 -0.019974 -0.469146
v 0.132901 -0.019974 -0.557066
v 0.132901 0.033944 -0.557066
v 0.147985 -0.019974 -0.571839
v 0.147985 -0.019974 -0.571839
v 0.132901 -0.019974 -0.557066
v 0.132901 0.033944 -0.557066
v 0.408980 -0.019974 -0.393794
v 0.408980 0.033944 -0.393794
v 0.408980 0.033944 -0.393794
v 0.408980 -0.019974 -0.393794
v 0.111405 -0.019974 -0.520720
v 0.111405 0.033944 -0.520720
v 0.111405 -0.019974 -0.520720
v 0.111405 0.033944 -0.520720
v 0.387484 0.033944 -0.357447
v 0.387484 -0.019974 -0.357447
v 0.387484 0.033944 -0.357447
v 0.387484 -0.019974 -0.357447
v 0.100050 -0.019974 -0.480049
v 0.103660 -0.020109 -0.492971
v 0.100050 0.033944 -0.480049
v 0.100050 0.033944 -0.480049
v 0.100050 -0.019974 -0.480049
v 0.103660 -0.020109 -0.492971
v 0.377418 -0.020036 -0.347591
v 0.357314 0.033944 -0.327903
v 0.357314 -0.019974 -0.327903
v 0.377418 -0.020036 -0.347591
v 0.357314 0.033944 -0.327903
v 0.357314 -0.019974 -0.327903
v 0.099607 0.033944 -0.437824
v 0.099829 -0.019974 -0.458936
v 0.099607 -0.019974 -0.437824
v 0.099607 0.033944 -0.437824
v 0.099829 -0.019974 -0.458936
v 0.099607 -0.019974 -0.437824
v 0.320526 0.033944 -0.307173
v 0.320526 -0.019974 -0.307173
v 0.320526 0.033944 -0.307173
v 0.320526 -0.019974 -0.307173
v 0.110109 0.033944 -0.396924
v 0.110109 -0.019974 -0.396924
v 0.110109 0.033944 -0.396924
v 0.110109 -0.019974 -0.396924
v 0.315261 -0.019974 -0.305821
v 0.279625 0.033944 -0.296672
v 0.279625 -0.019974 -0.296672
v 0.315261 -0.019974 -0.305821
v 0.279625 0.033944 -0.296672
v 0.279625 -0.019974 -0.296672
v 0.130838 0.033944 -0.360135
v 0.130838 -0.019974 -0.360135
v 0.130838 0.033944 -0.360135
v 0.130838 -0.019974 -0.360135
v 0.237401 0.033944 -0.297114
v 0.237401 -0.019974 -0.297114
v 0.237401 0.033944 -0.297114
v 0.237401 -0.019974 -0.297114
v 0.160383 0.033944 -0.329965
v 0.145611 -0.019974 -0.345050
v 0.160383 -0.019974 -0.329965
v 0.160383 0.033944 -0.329965
v 0.145611 -0.019974 -0.345050
v 0.160383 -0.019974 -0.329965
v 0.196729 0.033944 -0.308470
v 0.196729 -0.019974 -0.308470
v 0.196729 0.033944 -0.308470
v 0.196729 -0.019974 -0.308470
vt -5.609498 0.01092435
vt -5.617656 0.0005076859
vt -5.609498 0.0005076859
vt -5.617656 0.01092435
vt -5.329099 0.01092435
vt -5.320941 0.0005076859
vt -5.320941 0.01092435
vt -5.329099 0.0005076859
vt -5.5155 0.01092435
vt -5.523658 0.0005076859
vt -5.5155 0.0005076859
vt -5.523658 0.01092435
vt -4.67765 0.01092435
vt -4.669492 0.0005076859
vt -4.669492 0.01092435
vt -4.67765 0.0005076859
vt -5.045351 0.01092435
vt -5.053509 0.0005076859
vt -5.045351 0.0005076859
vt -5.053509 0.01092435
vt -3.707705 0.01092435
vt -3.699548 0.0005076859
vt -3.699548 0.01092435
vt -3.707705 0.0005076859
vt -4.231092 0.01092435
vt -4.23925 0.0005076859
vt -4.231092 0.0005076859
vt -4.23925 0.01092435
vt -2.485376 0.01091593
vt -2.477218 0.0004992602
vt -2.477218 0.01091593
vt -2.47928 0.0004992602
vt -2.481609 0.0004964701
vt -2.48435 0.0004931866
vt -2.485376 0.0004992602
vt -3.128213 0.01092435
vt -3.12967 0.0005076859
vt -3.128213 0.0005076859
vt -3.136371 0.0005076859
vt -3.136371 0.01092435
vt -1.093928 0.01092435
vt -1.08577 0.0005076859
vt -1.08577 0.01092435
vt -1.089849 0.0005076859
vt -1.093928 0.0005076859
vt -1.811873 0.01092435
vt -1.820031 0.0005076859
vt -1.811873 0.0005076859
vt -1.820031 0.01092435
vt 0.3717795 0.01092435
vt 0.3799374 0.0005076859
vt 0.3799374 0.01092435
vt 0.3717795 0.0005076859
vt -0.3717795 0.0005076859
vt -0.3799374 0.01092435
vt -0.3799374 0.0005076859
vt -0.3717795 0.01092435
vt 1.82006 0.0004447132
vt 1.811902 0.0004447132
vt 1.817468 0.0004186666
vt 1.82006 0.01086138
vt 1.811902 0.01086138
vt 1.091197 0.0005177841
vt 1.085761 0.01094636
vt 1.085761 0.0005296895
vt 1.093919 0.01094636
vt 1.093919 0.0005296895
vt 3.136371 0.01092435
vt 3.132292 0.0005076859
vt 3.136371 0.0005076859
vt 3.128213 0.0005076859
vt 3.128213 0.01092435
vt 2.485365 0.0005076859
vt 2.477207 0.01092435
vt 2.477207 0.0005076859
vt 2.485365 0.01092435
vt 4.23925 0.01092435
vt 4.231092 0.0005076859
vt 4.23925 0.0005076859
vt 4.231092 0.01092435
vt 3.706655 0.0005076859
vt 3.699548 0.01092435
vt 3.699548 0.0005076859
vt 3.707705 0.01092435
vt 3.707705 0.0005076859
vt 5.053509 0.01092435
vt 5.045351 0.0005076859
vt 5.053509 0.0005076859
vt 5.045351 0.01092435
vt 4.67765 0.0005076859
vt 4.669492 0.01092435
vt 4.669492 0.0005076859
vt 4.67765 0.01092435
vt 5.523658 0.01092435
vt 5.519579 0.0005076859
vt 5.523658 0.0005076859
vt 5.5155 0.0005076859
vt 5.5155 0.01092435
vt 5.329099 0.0005076859
vt 5.320941 0.01092435
vt 5.320941 0.0005076859
vt 5.329099 0.01092435
vt 5.617656 0.01092435
vt 5.609498 0.0005076859
vt 5.617656 0.0005076859
vt 5.609498 0.01092435
vn 0.3923370697216523 0 -0.919821517318565
vn 0.6170358335428079 0 -0.7869350545782877
vn 0.14090118335091792 0 -0.9900236646314627
vn 0.7996846499569766 0 -0.6004202366869289
vn -0.12013692592931276 0 -0.992757331389829
vn 0.9278362348882964 0 -0.37298782986621726
vn -0.3732166270157384 -8.483102568229637e-7 -0.9277442262381781
vn -0.3729868200552963 -8.467172826500197e-7 -0.9278366408287189
vn 0.992757331389829 0 -0.12013692592931276
vn -0.600419402158241 -8.467174878185501e-7 -0.7996852765377286
vn -0.4909018773290035 -0.0000016789470485536694 -0.871214868348814
vn 0.9999451700820774 0 0.010471715691598292
vn 0.9900236646314627 0 0.14090118335091792
vn -0.7869350545782877 0 -0.6170358335428079
vn -0.699663364454324 0 -0.7144726561880838
vn 0.919821517318565 0 0.3923370697216523
vn -0.9198994830739269 -0.000006499423023241775 -0.3921542311362707
vn -0.9198226824767581 -0.000006489770692484162 -0.3923343379811969
vn 0.7869356363300325 -0.0000021685060333986872 0.6170350916026934
vn 0.7868226656049546 -0.000002171520828213997 0.6171791416481914
vn -0.9899648582738857 -0.000006510455513990936 -0.1413137620346286
vn -0.9631641884570695 -0.000012868489414819018 -0.2689140121084
vn -0.9900240875444544 -0.0000064897658926162 -0.1408982116268807
vn 0.699664677985846 -0.000004299909076228449 0.7144713698675916
vn 0.6004209732724357 -0.0000021685069488605104 0.7996840969094474
vn 0.6004943345054483 -0.000002170017064656111 0.7996290103680268
vn -0.992757331389829 0 0.12013692592931276
vn -0.9999451700820774 0 -0.010471715691598292
vn 0.3729878298662156 0 0.927836234888297
vn -0.9278362348882964 0 0.37298782986621726
vn 0.2486899339443462 0 0.9685831491176982
vn 0.12013692592931276 0 0.992757331389829
vn -0.7996846499569766 0 0.6004202366869289
vn -0.14090118335091792 0 0.9900236646314627
vn -0.6170358335428079 0 0.7869350545782877
vn -0.7144726561880838 0 0.699663364454324
vn -0.3923370697216523 0 0.919821517318565
vn 0.3732166270157384 8.483102568229637e-7 0.9277442262381781
vn 0.3729868200552963 8.467172826500197e-7 0.9278366408287189
vn 0.4909018773290035 0.0000016789470485536694 0.871214868348814
vn 0.600419402158241 8.467174878185501e-7 0.7996852765377286
vn -0.9900236646314627 0 -0.14090118335091792
vn 0.699663364454324 0 0.7144726561880838
vn 0.7869350545782877 0 0.6170358335428079
vn -0.919821517318565 0 -0.3923370697216523
vn 0.9198994830739269 0.000006499423023241775 0.3921542311362707
vn 0.9198226824767581 0.000006489770692484162 0.3923343379811969
vn -0.7869356363300325 0.0000021685060333986872 -0.6170350916026934
vn -0.7868226656049546 0.000002171520828213997 -0.6171791416481914
vn 0.9900240875444544 0.0000064897658926162 0.1408982116268807
vn 0.9899648582738857 0.000006510455513990936 0.1413137620346286
vn 0.9631641884570695 0.000012868489414819018 0.2689140121084
vn -0.699664677985846 0.000004299909076228449 -0.7144713698675916
vn -0.6004209732724357 0.0000021685069488605104 -0.7996840969094474
vn -0.6004943345054483 0.000002170017064656111 -0.7996290103680268
vn -0.3729878298662156 0 -0.927836234888297
vn -0.2486899339443462 0 -0.9685831491176982
vn 0.7144726561880838 0 -0.699663364454324
usemtl material_0_0
f 1/1/1 2/2/2 3/3/1
f 2/2/2 1/1/1 4/4/2
f 1/5/1 9/6/3 10/7/3
f 9/6/3 1/5/1 3/8/1
f 4/9/2 13/10/4 2/11/2
f 13/10/4 4/9/2 14/12/4
f 10/13/3 17/14/5 18/15/5
f 17/14/5 10/13/3 9/16/3
f 14/17/4 21/18/6 13/19/4
f 21/18/6 14/17/4 22/20/6
f 18/21/5 25/22/7 26/23/8
f 25/22/7 18/21/5 17/24/5
f 22/25/6 29/26/9 21/27/6
f 29/26/9 22/25/6 30/28/9
f 26/29/8 33/30/10 34/31/10
f 33/30/10 26/29/8 35/32/11
f 35/32/11 26/29/8 36/33/11
f 36/33/11 26/29/8 37/34/11
f 37/34/11 26/29/8 25/35/7
f 30/36/9 43/37/12 29/38/9
f 43/37/12 30/36/9 44/39/13
f 44/39/13 30/36/9 45/40/13
f 34/41/10 49/42/14 50/43/14
f 49/42/14 34/41/10 51/44/15
f 51/44/15 34/41/10 33/45/10
f 45/46/13 55/47/16 44/48/13
f 55/47/16 45/46/13 56/49/16
f 50/50/14 59/51/17 60/52/18
f 59/51/17 50/50/14 49/53/14
f 55/54/16 63/55/19 64/56/20
f 63/55/19 55/54/16 56/57/16
f 67/58/21 59/59/17 68/60/22
f 59/59/17 67/58/21 69/61/23
f 59/59/17 69/61/23 60/62/18
f 73/63/24 74/64/25 75/65/26
f 74/64/25 73/63/24 63/66/19
f 63/66/19 73/63/24 64/67/20
f 79/68/27 80/69/28 81/70/27
f 80/69/28 79/68/27 67/71/21
f 67/71/21 79/68/27 69/72/23
f 75/73/26 85/74/29 86/75/29
f 85/74/29 75/73/26 74/76/25
f 89/77/30 81/78/27 90/79/30
f 81/78/27 89/77/30 79/80/27
f 93/81/31 94/82/32 95/83/32
f 94/82/32 93/81/31 85/84/29
f 85/84/29 93/81/31 86/85/29
f 99/86/33 90/87/30 100/88/33
f 90/87/30 99/86/33 89/89/30
f 95/90/32 103/91/34 104/92/34
f 103/91/34 95/90/32 94/93/32
f 107/94/35 108/95/36 109/96/35
f 108/95/36 107/94/35 100/97/33
f 100/97/33 107/94/35 99/98/33
f 104/99/34 113/100/37 114/101/37
f 113/100/37 104/99/34 103/102/34
f 113/103/37 109/104/35 114/105/37
f 109/104/35 113/103/37 107/106/35
usemtl material_1_0
f 5//35 6//37 7//35
f 8//37 7//35 6//37
f 8//37 6//37 11//34
f 12//34 11//34 6//37
f 15//33 5//35 16//33
f 7//35 16//33 5//35
f 11//34 12//34 19//32
f 20//32 19//32 12//34
f 23//30 15//33 24//30
f 16//33 24//30 15//33
f 19//32 20//32 27//38
f 28//39 27//38 20//32
f 31//27 23//30 32//27
f 24//30 32//27 23//30
f 27//38 28//39 38//40
f 38//40 28//39 39//40
f 39//40 28//39 40//40
f 40//40 28//39 41//41
f 42//41 41//41 28//39
f 46//42 31//27 47//42
f 47//42 31//27 48//28
f 32//27 48//28 31//27
f 41//41 42//41 52//43
f 52//43 42//41 53//44
f 54//44 53//44 42//41
f 57//45 46//42 58//45
f 47//42 58//45 46//42
f 53//44 54//44 61//46
f 62//47 61//46 54//44
f 57//45 58//45 65//48
f 66//49 65//48 58//45
f 62//47 70//50 61//46
f 70//50 71//51 61//46
f 72//52 61//46 71//51
f 66//49 76//53 65//48
f 65//48 76//53 77//54
f 78//55 77//54 76//53
f 70//50 82//9 71//51
f 71//51 82//9 83//12
f 84//9 83//12 82//9
f 77//54 78//55 87//56
f 88//56 87//56 78//55
f 82//9 91//6 84//9
f 92//6 84//9 91//6
f 88//56 96//57 87//56
f 87//56 96//57 97//5
f 98//5 97//5 96//57
f 91//6 101//4 92//6
f 102//4 92//6 101//4
f 97//5 98//5 105//3
f 106//3 105//3 98//5
f 101//4 110//2 102//4
f 102//4 110//2 111//58
f 112//2 111//58 110//2
f 105//3 106//3 115//1
f 116//1 115//1 106//3
f 110//2 115//1 112//2
f 116//1 112//2 115//1
