# SSTK version 0.8.0
# 41
mtllib original-41.mtl
o #ID313
v 0.318801 0.016966 0.315605
v 0.123698 0.016966 0.236304
v 0.192493 0.016966 0.233955
v 0.278899 0.016966 0.301788
v 0.236780 0.016966 0.298769
v 0.093357 0.016966 0.245089
v 0.195315 0.016966 0.306754
v 0.358886 0.016966 0.289130
v 0.300069 0.016966 0.260748
v 0.335429 0.016966 0.274509
v 0.399830 0.016966 0.314649
v 0.294826 0.016966 0.258707
v 0.264710 0.016966 0.246986
v 0.414013 0.016966 0.327862
v 0.418753 0.016966 0.333426
v 0.427258 0.016966 0.343410
v 0.450251 0.016966 0.388972
v 0.353768 0.016966 0.339279
v 0.381415 0.016966 0.371197
v 0.461724 0.016966 0.438514
v 0.399860 0.016966 0.409182
v 0.461017 0.016966 0.489197
v 0.407845 0.016966 0.450647
v 0.404826 0.016966 0.492766
v 0.450419 0.016966 0.529558
v 0.391009 0.016966 0.532668
v 0.423924 0.016966 0.582466
v 0.367335 0.016966 0.567635
v 0.389665 0.016966 0.619707
v 0.335417 0.016966 0.595283
v 0.347356 0.016966 0.647703
v 0.297432 0.016966 0.613728
v 0.255966 0.016966 0.621712
v 0.299424 0.016966 0.664850
v 0.213848 0.016966 0.618693
v 0.173945 0.016966 0.604876
v 0.248614 0.016966 0.670165
v 0.031918 0.016966 0.554615
v 0.085613 0.016966 0.604636
v 0.197841 0.016966 0.663343
v 0.117813 0.016966 0.624706
v 0.150013 0.016966 0.644776
v -0.070105 0.016966 0.211493
v 0.065342 0.016966 0.164442
v 0.157329 0.016966 0.325198
v 0.125412 0.016966 0.352846
v -0.018311 0.016966 0.328928
v 0.101738 0.016966 0.387813
v 0.087921 0.016966 0.427715
v -0.025860 0.016966 0.355113
v -0.033410 0.016966 0.381298
v 0.084902 0.016966 0.469834
v -0.031552 0.016966 0.410152
v -0.029693 0.016966 0.439007
v 0.092886 0.016966 0.511299
v -0.018552 0.016966 0.468564
v 0.111331 0.016966 0.549284
v -0.007410 0.016966 0.498122
v 0.138979 0.016966 0.581202
v 0.173945 0.016966 0.604876
v 0.138979 0.016966 0.581202
v 0.031918 0.016966 0.554615
v -0.007410 0.016966 0.498122
v 0.111331 0.016966 0.549284
v -0.018552 0.016966 0.468564
v 0.092886 0.016966 0.511299
v -0.029693 0.016966 0.439007
v 0.084902 0.016966 0.469834
v -0.031552 0.016966 0.410152
v -0.033410 0.016966 0.381298
v 0.087921 0.016966 0.427715
v -0.025860 0.016966 0.355113
v -0.018311 0.016966 0.328928
v 0.101738 0.016966 0.387813
v 0.125412 0.016966 0.352846
v -0.070105 0.016966 0.211493
v 0.157329 0.016966 0.325198
v 0.195315 0.016966 0.306754
v 0.093357 0.016966 0.245089
v 0.065342 0.016966 0.164442
v 0.150013 0.016966 0.644776
v 0.197841 0.016966 0.663343
v 0.117813 0.016966 0.624706
v 0.085613 0.016966 0.604636
v 0.248614 0.016966 0.670165
v 0.299424 0.016966 0.664850
v 0.213848 0.016966 0.618693
v 0.255966 0.016966 0.621712
v 0.347356 0.016966 0.647703
v 0.297432 0.016966 0.613728
v 0.335417 0.016966 0.595283
v 0.389665 0.016966 0.619707
v 0.367335 0.016966 0.567635
v 0.423924 0.016966 0.582466
v 0.391009 0.016966 0.532668
v 0.450419 0.016966 0.529558
v 0.404826 0.016966 0.492766
v 0.461017 0.016966 0.489197
v 0.407845 0.016966 0.450647
v 0.399860 0.016966 0.409182
v 0.461724 0.016966 0.438514
v 0.381415 0.016966 0.371197
v 0.450251 0.016966 0.388972
v 0.353768 0.016966 0.339279
v 0.318801 0.016966 0.315605
v 0.192493 0.016966 0.233955
v 0.427258 0.016966 0.343410
v 0.418753 0.016966 0.333426
v 0.414013 0.016966 0.327862
v 0.399830 0.016966 0.314649
v 0.264710 0.016966 0.246986
v 0.294826 0.016966 0.258707
v 0.300069 0.016966 0.260748
v 0.358886 0.016966 0.289130
v 0.335429 0.016966 0.274509
v 0.236780 0.016966 0.298769
v 0.123698 0.016966 0.236304
v 0.278899 0.016966 0.301788
vt -4.746253 3.119823
vt -4.749431 3.079261
vt -4.743075 3.090941
vt -4.747318 3.111735
vt -4.75044 3.104198
vt -4.753573 3.074779
vt -4.755406 3.097726
vt -4.738212 3.124457
vt -4.738397 3.111842
vt -4.737716 3.119141
vt -4.739079 3.133738
vt -4.738498 3.11076
vt -4.739079 3.104544
vt -4.740134 3.137331
vt -4.740685 3.138631
vt -4.741674 3.140964
vt -4.747556 3.148877
vt -4.747318 3.127911
vt -4.75044 3.135448
vt -4.755121 3.155144
vt -4.755406 3.14192
vt -4.763938 3.159406
vt -4.761878 3.146887
vt -4.769415 3.150009
vt -4.771826 3.161067
vt -4.777503 3.151073
vt -4.783258 3.161067
vt -4.785591 3.150009
vt -4.792654 3.15837
vt -4.793128 3.146887
vt -4.80115 3.153484
vt -4.7996 3.14192
vt -4.804566 3.135448
vt -4.808259 3.146687
vt -4.807688 3.127911
vt -4.808753 3.119823
vt -4.813572 3.13837
vt -4.812357 3.090941
vt -4.816353 3.104544
vt -4.816786 3.129009
vt -4.817034 3.111842
vt -4.817716 3.119141
vt -4.76191 3.043636
vt -4.742066 3.062964
vt -4.761878 3.09276
vt -4.769415 3.089638
vt -4.777716 3.062742
vt -4.777503 3.088573
vt -4.785591 3.089638
vt -4.782892 3.063703
vt -4.788068 3.064664
vt -4.793128 3.09276
vt -4.792892 3.067481
vt -4.797716 3.070298
vt -4.7996 3.097726
vt -4.801858 3.074779
vt -4.804566 3.104198
vt -4.806 3.079261
vt -4.807688 3.111735
vn 0 -1 0
vn 0 1 0
usemtl material_0_0
f 1/1/1 2/2/1 3/3/1
f 2/2/1 1/1/1 4/4/1
f 2/2/1 4/4/1 5/5/1
f 2/2/1 5/5/1 6/6/1
f 6/6/1 5/5/1 7/7/1
f 8/8/1 9/9/1 10/10/1
f 9/9/1 8/8/1 11/11/1
f 9/9/1 11/11/1 12/12/1
f 12/12/1 11/11/1 13/13/1
f 13/13/1 11/11/1 3/3/1
f 3/3/1 11/11/1 14/14/1
f 3/3/1 14/14/1 15/15/1
f 3/3/1 15/15/1 16/16/1
f 3/3/1 16/16/1 17/17/1
f 3/3/1 17/17/1 1/1/1
f 1/1/1 17/17/1 18/18/1
f 18/18/1 17/17/1 19/19/1
f 19/19/1 17/17/1 20/20/1
f 19/19/1 20/20/1 21/21/1
f 21/21/1 20/20/1 22/22/1
f 21/21/1 22/22/1 23/23/1
f 23/23/1 22/22/1 24/24/1
f 24/24/1 22/22/1 25/25/1
f 24/24/1 25/25/1 26/26/1
f 26/26/1 25/25/1 27/27/1
f 26/26/1 27/27/1 28/28/1
f 28/28/1 27/27/1 29/29/1
f 28/28/1 29/29/1 30/30/1
f 30/30/1 29/29/1 31/31/1
f 30/30/1 31/31/1 32/32/1
f 32/32/1 31/31/1 33/33/1
f 33/33/1 31/31/1 34/34/1
f 33/33/1 34/34/1 35/35/1
f 35/35/1 34/34/1 36/36/1
f 36/36/1 34/34/1 37/37/1
f 36/36/1 37/37/1 38/38/1
f 38/38/1 37/37/1 39/39/1
f 39/39/1 37/37/1 40/40/1
f 39/39/1 40/40/1 41/41/1
f 41/41/1 40/40/1 42/42/1
f 6/6/1 43/43/1 44/44/1
f 43/43/1 6/6/1 7/7/1
f 43/43/1 7/7/1 45/45/1
f 43/43/1 45/45/1 46/46/1
f 43/43/1 46/46/1 47/47/1
f 47/47/1 46/46/1 48/48/1
f 47/47/1 48/48/1 49/49/1
f 47/47/1 49/49/1 50/50/1
f 50/50/1 49/49/1 51/51/1
f 51/51/1 49/49/1 52/52/1
f 51/51/1 52/52/1 53/53/1
f 53/53/1 52/52/1 54/54/1
f 54/54/1 52/52/1 55/55/1
f 54/54/1 55/55/1 56/56/1
f 56/56/1 55/55/1 57/57/1
f 56/56/1 57/57/1 58/58/1
f 58/58/1 57/57/1 59/59/1
f 58/58/1 59/59/1 38/38/1
f 38/38/1 59/59/1 36/36/1
usemtl material_1_0
f 60//2 61//2 62//2
f 62//2 61//2 63//2
f 61//2 64//2 63//2
f 63//2 64//2 65//2
f 64//2 66//2 65//2
f 65//2 66//2 67//2
f 66//2 68//2 67//2
f 67//2 68//2 69//2
f 69//2 68//2 70//2
f 68//2 71//2 70//2
f 70//2 71//2 72//2
f 72//2 71//2 73//2
f 71//2 74//2 73//2
f 74//2 75//2 73//2
f 73//2 75//2 76//2
f 75//2 77//2 76//2
f 77//2 78//2 76//2
f 78//2 79//2 76//2
f 80//2 76//2 79//2
f 81//2 82//2 83//2
f 83//2 82//2 84//2
f 82//2 85//2 84//2
f 84//2 85//2 62//2
f 62//2 85//2 60//2
f 85//2 86//2 60//2
f 60//2 86//2 87//2
f 87//2 86//2 88//2
f 86//2 89//2 88//2
f 88//2 89//2 90//2
f 90//2 89//2 91//2
f 89//2 92//2 91//2
f 91//2 92//2 93//2
f 92//2 94//2 93//2
f 93//2 94//2 95//2
f 94//2 96//2 95//2
f 95//2 96//2 97//2
f 96//2 98//2 97//2
f 97//2 98//2 99//2
f 99//2 98//2 100//2
f 98//2 101//2 100//2
f 100//2 101//2 102//2
f 101//2 103//2 102//2
f 102//2 103//2 104//2
f 104//2 103//2 105//2
f 105//2 103//2 106//2
f 103//2 107//2 106//2
f 107//2 108//2 106//2
f 108//2 109//2 106//2
f 109//2 110//2 106//2
f 106//2 110//2 111//2
f 111//2 110//2 112//2
f 112//2 110//2 113//2
f 110//2 114//2 113//2
f 115//2 113//2 114//2
f 78//2 116//2 79//2
f 79//2 116//2 117//2
f 116//2 118//2 117//2
f 118//2 105//2 117//2
f 106//2 117//2 105//2
