# SSTK version 0.8.0
# 9
mtllib original-9.mtl
o mesh11/mesh11-geometry#mesh11-geometry
v -0.187514 0.055222 -0.712842
v 0.182672 0.050922 -0.708608
v 0.182672 0.055222 -0.712842
v -0.187514 0.050922 -0.708608
v 0.182672 0.05828 -0.718044
v 0.182672 0.045673 -0.705631
v -0.187514 0.05828 -0.718044
v -0.187514 0.045673 -0.705631
v 0.182672 0.059887 -0.723861
v 0.182672 0.039832 -0.704114
v -0.187514 0.059887 -0.723861
v -0.187514 0.039832 -0.704114
v 0.182672 0.059934 -0.729895
v 0.182672 0.033798 -0.704161
v -0.187514 0.059934 -0.729895
v -0.187514 0.033798 -0.704161
v 0.182672 0.058417 -0.735736
v 0.182672 0.027981 -0.705768
v -0.187514 0.058417 -0.735736
v -0.187514 0.027981 -0.705768
v 0.182672 0.055441 -0.740985
v 0.182672 0.022779 -0.708826
v -0.187514 0.055441 -0.740985
v -0.187514 0.022779 -0.708826
v 0.182672 0.051207 -0.745285
v -0.187514 0.018545 -0.713126
v -0.187514 0.051207 -0.745285
v 0.182672 0.018545 -0.713126
v 0.182672 0.046004 -0.748343
v -0.187514 0.015568 -0.718375
v -0.187514 0.046004 -0.748343
v 0.182672 0.015568 -0.718375
v 0.182672 0.040188 -0.74995
v -0.187514 0.014052 -0.724216
v -0.187514 0.040188 -0.74995
v 0.182672 0.014052 -0.724216
v 0.182672 0.034153 -0.749997
v -0.187514 0.014098 -0.73025
v -0.187514 0.034153 -0.749997
v 0.182672 0.014098 -0.73025
v 0.182672 0.028313 -0.74848
v -0.187514 0.015706 -0.736067
v -0.187514 0.028313 -0.74848
v 0.182672 0.015706 -0.736067
v 0.182672 0.023063 -0.745503
v -0.187514 0.018763 -0.741269
v -0.187514 0.023063 -0.745503
v 0.182672 0.018763 -0.741269
vn 0.0 0.7886112046505487 0.6148921595691478
vn 0.0 0.6025939580775398 0.7980479444798064
vn 0.0 -0.7886112046505487 -0.6148921595691478
vn 0.0 -0.6025939580775398 -0.7980479444798064
vn 0.0 0.9208856349218691 0.3898328454537228
vn 0.0 -0.9208856349218691 -0.3898328454537228
vn 0.0 0.37551097817436374 0.9268179461310254
vn 0.0 -0.37551097817436374 -0.9268179461310254
vn 0.0 0.9904033579031165 0.13820704994402885
vn 0.0 -0.9904033579031165 -0.13820704994402885
vn 0.0 0.12283796778126359 0.992426739699898
vn 0.0 -0.12283796778126359 -0.992426739699898
vn 0.0 0.992426739699898 -0.12283796778126359
vn 0.0 -0.992426739699898 0.12283796778126359
vn 0.0 -0.13820704994402885 0.9904033579031165
vn 0.0 0.13820704994402885 -0.9904033579031165
vn 0.0 0.9268179461310254 -0.37551097817436374
vn 0.0 -0.9268179461310254 0.37551097817436374
vn 0.0 -0.3898328454537228 0.9208856349218691
vn 0.0 0.3898328454537228 -0.9208856349218691
vn 0.0 0.7980479444798064 -0.6025939580775398
vn 0.0 -0.7980479444798064 0.6025939580775398
vn 0.0 -0.6148921595691478 0.7886112046505487
vn 0.0 0.6148921595691478 -0.7886112046505487
usemtl material_0_0
f 1//1 2//2 3//1
f 2//2 1//1 4//2
f 3//3 2//4 1//3
f 4//4 1//3 2//4
f 5//5 1//1 3//1
f 3//3 1//3 5//6
f 4//2 6//7 2//2
f 2//4 6//8 4//4
f 1//1 5//5 7//5
f 7//6 5//6 1//3
f 6//7 4//2 8//7
f 8//8 4//4 6//8
f 9//9 7//5 5//5
f 5//6 7//6 9//10
f 8//7 10//11 6//7
f 6//8 10//12 8//8
f 7//5 9//9 11//9
f 11//10 9//10 7//6
f 10//11 8//7 12//11
f 12//12 8//8 10//12
f 13//13 11//9 9//9
f 9//10 11//10 13//14
f 12//11 14//15 10//11
f 10//12 14//16 12//12
f 11//9 13//13 15//13
f 15//14 13//14 11//10
f 14//15 12//11 16//15
f 16//16 12//12 14//16
f 17//17 15//13 13//13
f 13//14 15//14 17//18
f 16//15 18//19 14//15
f 14//16 18//20 16//16
f 15//13 17//17 19//17
f 19//18 17//18 15//14
f 18//19 16//15 20//19
f 20//20 16//16 18//20
f 21//21 19//17 17//17
f 17//18 19//18 21//22
f 20//19 22//23 18//19
f 18//20 22//24 20//20
f 19//17 21//21 23//21
f 23//22 21//22 19//18
f 22//23 20//19 24//23
f 24//24 20//20 22//24
f 25//24 23//21 21//21
f 21//22 23//22 25//23
f 26//22 22//23 24//23
f 24//24 22//24 26//21
f 23//21 25//24 27//24
f 27//23 25//23 23//22
f 22//23 26//22 28//22
f 28//21 26//21 22//24
f 29//20 27//24 25//24
f 25//23 27//23 29//19
f 30//18 28//22 26//22
f 26//21 28//21 30//17
f 27//24 29//20 31//20
f 31//19 29//19 27//23
f 28//22 30//18 32//18
f 32//17 30//17 28//21
f 33//16 31//20 29//20
f 29//19 31//19 33//15
f 34//14 32//18 30//18
f 30//17 32//17 34//13
f 31//20 33//16 35//16
f 35//15 33//15 31//19
f 32//18 34//14 36//14
f 36//13 34//13 32//17
f 37//12 35//16 33//16
f 33//15 35//15 37//11
f 38//10 36//14 34//14
f 34//13 36//13 38//9
f 35//16 37//12 39//12
f 39//11 37//11 35//15
f 36//14 38//10 40//10
f 40//9 38//9 36//13
f 41//8 39//12 37//12
f 37//11 39//11 41//7
f 42//6 40//10 38//10
f 38//9 40//9 42//5
f 39//12 41//8 43//8
f 43//7 41//7 39//11
f 40//10 42//6 44//6
f 44//5 42//5 40//9
f 45//4 43//8 41//8
f 41//7 43//7 45//2
f 46//3 44//6 42//6
f 42//5 44//5 46//1
f 43//8 45//4 47//4
f 47//2 45//2 43//7
f 44//6 46//3 48//3
f 48//1 46//1 44//5
f 48//3 47//4 45//4
f 45//2 47//2 48//1
f 47//4 48//3 46//3
f 46//1 48//1 47//2
