# SSTK version 0.8.0
# 2
mtllib original-2.mtl
o Group2/mesh3/mesh3-geometry#mesh3-geometry
v -0.171419 -0.086873 -0.300134
v -0.171419 -0.188338 -0.654185
v -0.171419 -0.188338 -0.300095
v -0.171419 -0.119111 -0.654205
v -0.139229 -0.188338 -0.300095
v -0.171419 -0.091767 -0.654185
v -0.139229 -0.119111 -0.654205
v -0.139229 -0.091767 -0.300095
v -0.171419 -0.079557 -0.678651
v -0.171419 -0.11429 -0.654708
v -0.139229 -0.123957 -0.654185
v -0.139229 -0.11429 -0.654708
v -0.139229 -0.086873 -0.300134
v -0.171419 -0.082004 -0.300634
v -0.171419 -0.082163 -0.674564
v -0.171419 -0.109543 -0.65569
v -0.139229 -0.188338 -0.654185
v -0.139229 -0.088529 -0.667269
v -0.171419 -0.077203 -0.301589
v -0.171419 -0.085164 -0.670758
v -0.139229 -0.082163 -0.674564
v -0.171419 -0.104918 -0.65714
v -0.139229 -0.109543 -0.65569
v -0.139229 -0.092225 -0.664134
v -0.139229 -0.085164 -0.670758
v -0.139229 -0.082004 -0.300634
v -0.171419 -0.039598 -0.75848
v -0.171419 -0.088529 -0.667269
v -0.139229 -0.079557 -0.678651
v -0.171419 -0.100461 -0.659044
v -0.139229 -0.104918 -0.65714
v -0.139229 -0.096216 -0.661383
v -0.171419 -0.092225 -0.664134
v -0.139229 -0.077203 -0.301589
v -0.171419 -0.072514 -0.302991
v -0.171419 -0.096216 -0.661383
v -0.139229 -0.100461 -0.659044
v -0.171419 -0.067977 -0.304827
v -0.139229 -0.077371 -0.682977
v -0.139229 -0.072514 -0.302991
v -0.171419 -0.063632 -0.307082
v -0.139229 -0.041783 -0.754154
v -0.139229 -0.067977 -0.304827
v -0.171419 -0.059519 -0.309735
v -0.139229 -0.039598 -0.75848
v -0.139229 -0.063632 -0.307082
v -0.171419 -0.055673 -0.312763
v -0.171419 -0.036992 -0.762567
v -0.139229 0.053212 -0.497476
v -0.139229 -0.059519 -0.309735
v -0.171419 -0.05213 -0.31614
v -0.139229 -0.036992 -0.762567
v -0.171419 0.055734 -0.502076
v -0.139229 -0.043607 -0.328043
v -0.139229 -0.055673 -0.312763
v -0.171419 -0.048919 -0.319834
v -0.171419 -0.033991 -0.766373
v -0.171419 -0.046069 -0.323814
v -0.139229 -0.046069 -0.323814
v -0.139229 -0.033991 -0.766373
v -0.139229 -0.05213 -0.31614
v -0.139229 -0.048919 -0.319834
v -0.171419 -0.030626 -0.769862
v -0.139229 0.055734 -0.502076
v -0.139229 -0.030626 -0.769862
v -0.171419 -0.026929 -0.772997
v -0.139229 0.056464 -0.776145
v -0.139229 0.058052 -0.506782
v -0.139229 -0.026929 -0.772997
v -0.171419 -0.022939 -0.775748
v -0.139229 0.052985 -0.778488
v -0.171419 0.058052 -0.506782
v -0.139229 -0.022939 -0.775748
v -0.171419 -0.018694 -0.778087
v -0.139229 0.049236 -0.780366
v -0.171419 0.052985 -0.778488
v -0.139229 0.059613 -0.773376
v -0.139229 0.06016 -0.511585
v -0.171419 0.056464 -0.776145
v -0.139229 -0.018694 -0.778087
v -0.171419 -0.014236 -0.779991
v -0.139229 0.045277 -0.781749
v -0.171419 0.049236 -0.780366
v -0.171419 0.06016 -0.511585
v -0.171419 0.059613 -0.773376
v -0.139229 -0.014236 -0.779991
v -0.171419 -0.009611 -0.781441
v -0.139229 0.041173 -0.782614
v -0.171419 0.045277 -0.781749
v -0.139229 0.062382 -0.770226
v -0.139229 0.062055 -0.516476
v -0.139229 -0.009611 -0.781441
v -0.171419 -0.004865 -0.782423
v -0.139229 0.036993 -0.782946
v -0.171419 0.041173 -0.782614
v -0.171419 0.062382 -0.770226
v -0.171419 0.062055 -0.516476
v -0.139229 -0.004865 -0.782423
v -0.171419 -4.4e-05 -0.782926
v -0.139229 0.004803 -0.782946
v -0.171419 0.036993 -0.782946
v -0.171419 0.064725 -0.766748
v -0.139229 0.063733 -0.521446
v -0.139229 -4.4e-05 -0.782926
v -0.139229 0.064725 -0.766748
v -0.171419 0.063733 -0.521446
v -0.171419 0.066604 -0.762999
v -0.171419 0.06519 -0.526485
v -0.139229 0.06519 -0.526485
v -0.139229 0.066604 -0.762999
v -0.171419 0.067986 -0.75904
v -0.171419 0.066425 -0.531584
v -0.139229 0.066425 -0.531584
v -0.139229 0.067986 -0.75904
v -0.171419 0.067434 -0.536731
v -0.139229 0.067434 -0.536731
v -0.171419 0.068851 -0.754936
v -0.171419 0.068215 -0.541918
v -0.139229 0.068851 -0.754936
v -0.139229 0.068215 -0.541918
v -0.171419 0.069183 -0.750756
v -0.171419 0.068768 -0.547135
v -0.139229 0.068768 -0.547135
v -0.139229 0.069183 -0.750756
v -0.171419 0.069091 -0.552371
v -0.139229 0.069183 -0.557615
v -0.139229 0.069091 -0.552371
vn -1.0 0.0 0.0
vn 1.0 0.0 0.0
vn -0.0003429999653004103 0.00029099997056098944 0.9999998988350154
vn 0.0003429999653004103 -0.00029099997056098944 -0.9999998988350154
vn 5.499999984528501e-05 -5.0999999856536986e-05 -0.999999997187
vn -5.499999984528501e-05 5.0999999856536986e-05 0.999999997187
vn 0.0 -0.10382396749313617 -0.9945956885961171
vn 0.0 0.10382396749313617 0.9945956885961171
vn 0.0 0.10203794941954591 0.994780506884938
vn 0.0 -0.10203794941954591 -0.994780506884938
vn 0.0 -0.843161817099672 -0.5376598833697553
vn 0.0 0.843161817099672 0.5376598833697553
vn 0.0 -0.20250408637034004 -0.9792814176748753
vn 0.0 0.20250408637034004 0.9792814176748753
vn 0.0 0.19509198978800762 0.9807849486613037
vn 0.0 -0.19509198978800762 -0.9807849486613037
vn 0.0 -0.7853332747810928 -0.6190732166081847
vn 0.0 0.7853332747810928 0.6190732166081847
vn 0.0 -0.2991651128412127 -0.9542013599124163
vn 0.0 0.2991651128412127 0.9542013599124163
vn 0.0 -0.6468360638630979 -0.7626290752955162
vn 0.0 0.6468360638630979 0.7626290752955162
vn 0.0 -0.7196730831589493 -0.6943130802285754
vn 0.0 0.7196730831589493 0.6943130802285754
vn -5.700002380010933e-05 -0.8943423734318418 -0.4473831868044413
vn 5.700002380010933e-05 0.8943423734318418 0.4473831868044413
vn 0.0 -0.392841993675244 -0.9196059851943439
vn 0.0 0.392841993675244 0.9196059851943439
vn 0.0 -0.5675488232082854 -0.8233397435292982
vn 0.0 0.5675488232082854 0.8233397435292982
vn 0.0 0.2864188518375712 0.9581045043793749
vn 0.0 -0.2864188518375712 -0.9581045043793749
vn 0.0 -0.48260190444386714 -0.8758398265819798
vn 0.0 0.48260190444386714 0.8758398265819798
vn 0.0 0.37520908305610423 0.9269402051870431
vn 0.0 -0.37520908305610423 -0.9269402051870431
vn 0.0 0.46067694173519647 0.8875678877435272
vn 0.0 -0.46067694173519647 -0.8875678877435272
vn 0.0 0.5420652555510334 0.8403363961678638
vn 0.0 -0.5420652555510334 -0.8403363961678638
vn 0.0 0.6186537857565191 0.7856637279199841
vn 0.0 -0.6186537857565191 -0.7856637279199841
vn 0.0 0.6897641348999441 0.724034141602267
vn 0.0 -0.6897641348999441 -0.724034141602267
vn -0.0010220004325062683 0.8683303674735818 0.49598520989875333
vn 0.0010220004325062683 -0.8683303674735818 -0.49598520989875333
vn 0.0 0.7547669847771048 0.6559929867692776
vn 0.0 -0.7547669847771048 -0.6559929867692776
vn 0.0 0.8130862781385688 0.5821431991381242
vn 0.0 -0.8130862781385688 -0.5821431991381242
vn 0.0 0.8971205700833291 0.441785788288128
vn 0.0 -0.8971205700833291 -0.441785788288128
vn 0.0 0.504340816090642 -0.8635046851204834
vn 0.0 0.6107508633964235 -0.7918228228969683
vn 0.0 -0.504340816090642 0.8635046851204834
vn 0.0 -0.6107508633964235 0.7918228228969683
vn 0.0 0.9156861658161288 0.4018940727765929
vn 0.0 -0.9156861658161288 -0.4018940727765929
vn 0.0 0.38962896446096973 -0.920971915995853
vn 0.0 -0.38962896446096973 0.920971915995853
vn 0.0 0.7071067811865476 -0.7071067811865476
vn 0.0 -0.7071067811865476 0.7071067811865476
vn 0.0 0.26850388859010743 -0.9632786003083383
vn 0.0 -0.26850388859010743 0.9632786003083383
vn 0.0 0.9324787267530013 0.3612248941492011
vn 0.0 -0.9324787267530013 -0.3612248941492011
vn 0.0 0.1429579654610023 -0.9897287608790858
vn 0.0 -0.1429579654610023 0.9897287608790858
vn 0.0 0.7918228228969683 -0.6107508633964235
vn 0.0 -0.7918228228969683 0.6107508633964235
vn 0.0 0.07917199766818678 -0.9968609706399527
vn 0.0 -0.07917199766818678 0.9968609706399527
vn 0.0 0.8635046851204834 -0.504340816090642
vn 0.0 -0.8635046851204834 0.504340816090642
vn 0.0 0.9474658476451353 0.31985694856620717
vn 0.0 -0.9474658476451353 -0.31985694856620717
vn -0.0001639999824913627 -0.0004319999538796874 -0.999999893240017
vn 0.0001639999824913627 0.0004319999538796874 0.999999893240017
vn 0.0 0.920971915995853 -0.38962896446096973
vn 0.0 -0.920971915995853 0.38962896446096973
vn 0.0 0.9606189787117231 0.27786899384214525
vn 0.0 -0.9606189787117231 -0.27786899384214525
vn 0.0 0.9632786003083383 -0.26850388859010743
vn 0.0 -0.9632786003083383 0.26850388859010743
vn 0.0 0.9719123579587892 0.2353430866776985
vn 0.0 -0.9719123579587892 -0.2353430866776985
vn 0.0 0.9897287608790858 -0.1429579654610023
vn 0.0 -0.9897287608790858 0.1429579654610023
vn 0.0 0.9813240333552044 0.1923620065383847
vn 0.0 -0.9813240333552044 -0.1923620065383847
vn 0.0 0.9888359906258349 0.14900799858740418
vn 0.0 -0.9888359906258349 -0.14900799858740418
vn 0.0 0.9968609706399527 -0.07917199766818678
vn 0.0 -0.9968609706399527 0.07917199766818678
vn 0.0 0.9944336203347632 0.105364959772667
vn 0.0 -0.9944336203347632 -0.105364959772667
vn -0.000807999689540945 0.9999996157682214 0.0003399998693611953
vn 0.000807999689540945 -0.9999996157682214 -0.0003399998693611953
vn 0.0 0.9981059128668548 0.06151899462948428
vn 0.0 -0.9981059128668548 -0.06151899462948428
usemtl material_0_0
f 1//1 2//1 3//1
f 2//1 1//1 4//1
f 3//2 2//2 1//2
f 4//2 1//2 2//2
f 5//3 1//3 3//3
f 3//4 1//4 5//4
f 4//1 1//1 6//1
f 6//2 1//2 4//2
f 7//5 2//5 4//5
f 4//6 2//6 7//6
f 8//3 1//3 5//3
f 5//4 1//4 8//4
f 6//1 1//1 9//1
f 9//2 1//2 6//2
f 6//1 10//1 4//1
f 4//2 10//2 6//2
f 11//5 2//5 7//5
f 7//6 2//6 11//6
f 4//7 12//7 7//7
f 7//8 12//8 4//8
f 1//3 8//3 13//3
f 13//4 8//4 1//4
f 5//2 11//2 8//2
f 8//1 11//1 5//1
f 9//1 1//1 14//1
f 14//2 1//2 9//2
f 15//1 6//1 9//1
f 9//2 6//2 15//2
f 10//1 6//1 16//1
f 16//2 6//2 10//2
f 12//7 4//7 10//7
f 10//8 4//8 12//8
f 2//5 11//5 17//5
f 17//6 11//6 2//6
f 8//2 11//2 7//2
f 7//1 11//1 8//1
f 8//2 7//2 12//2
f 12//1 7//1 8//1
f 8//2 18//2 13//2
f 13//1 18//1 8//1
f 13//9 14//9 1//9
f 1//10 14//10 13//10
f 11//2 5//2 17//2
f 17//1 5//1 11//1
f 9//1 14//1 19//1
f 19//2 14//2 9//2
f 20//1 6//1 15//1
f 15//2 6//2 20//2
f 9//11 21//11 15//11
f 15//12 21//12 9//12
f 16//1 6//1 22//1
f 22//2 6//2 16//2
f 23//13 10//13 16//13
f 16//14 10//14 23//14
f 10//13 23//13 12//13
f 12//14 23//14 10//14
f 8//2 12//2 23//2
f 23//1 12//1 8//1
f 8//2 24//2 18//2
f 18//1 24//1 8//1
f 13//2 18//2 25//2
f 25//1 18//1 13//1
f 14//9 13//9 26//9
f 26//10 13//10 14//10
f 26//15 19//15 14//15
f 14//16 19//16 26//16
f 9//1 19//1 27//1
f 27//2 19//2 9//2
f 28//1 6//1 20//1
f 20//2 6//2 28//2
f 15//17 25//17 20//17
f 20//18 25//18 15//18
f 21//11 9//11 29//11
f 29//12 9//12 21//12
f 25//17 15//17 21//17
f 21//18 15//18 25//18
f 22//1 6//1 30//1
f 30//2 6//2 22//2
f 31//19 16//19 22//19
f 22//20 16//20 31//20
f 16//19 31//19 23//19
f 23//20 31//20 16//20
f 8//2 23//2 31//2
f 31//1 23//1 8//1
f 8//2 32//2 24//2
f 24//1 32//1 8//1
f 33//21 18//21 24//21
f 24//22 18//22 33//22
f 18//23 20//23 25//23
f 25//24 20//24 18//24
f 13//2 25//2 26//2
f 26//1 25//1 13//1
f 19//15 26//15 34//15
f 34//16 26//16 19//16
f 27//1 19//1 35//1
f 35//2 19//2 27//2
f 27//25 29//25 9//25
f 9//26 29//26 27//26
f 33//1 6//1 28//1
f 28//2 6//2 33//2
f 20//23 18//23 28//23
f 28//24 18//24 20//24
f 26//2 21//2 29//2
f 29//1 21//1 26//1
f 26//2 25//2 21//2
f 21//1 25//1 26//1
f 30//1 6//1 36//1
f 36//2 6//2 30//2
f 37//27 22//27 30//27
f 30//28 22//28 37//28
f 22//27 37//27 31//27
f 31//28 37//28 22//28
f 8//2 31//2 37//2
f 37//1 31//1 8//1
f 8//2 37//2 32//2
f 32//1 37//1 8//1
f 36//29 24//29 32//29
f 32//30 24//30 36//30
f 18//21 33//21 28//21
f 28//22 33//22 18//22
f 24//29 36//29 33//29
f 33//30 36//30 24//30
f 26//2 29//2 34//2
f 34//1 29//1 26//1
f 34//31 35//31 19//31
f 19//32 35//32 34//32
f 27//1 35//1 38//1
f 38//2 35//2 27//2
f 29//25 27//25 39//25
f 39//26 27//26 29//26
f 36//1 6//1 33//1
f 33//2 6//2 36//2
f 32//33 30//33 36//33
f 36//34 30//34 32//34
f 30//33 32//33 37//33
f 37//34 32//34 30//34
f 34//2 29//2 39//2
f 39//1 29//1 34//1
f 35//31 34//31 40//31
f 40//32 34//32 35//32
f 40//35 38//35 35//35
f 35//36 38//36 40//36
f 27//1 38//1 41//1
f 41//2 38//2 27//2
f 39//25 27//25 42//25
f 42//26 27//26 39//26
f 34//2 39//2 42//2
f 42//1 39//1 34//1
f 34//2 42//2 40//2
f 40//1 42//1 34//1
f 38//35 40//35 43//35
f 43//36 40//36 38//36
f 43//37 41//37 38//37
f 38//38 41//38 43//38
f 27//1 41//1 44//1
f 44//2 41//2 27//2
f 42//25 27//25 45//25
f 45//26 27//26 42//26
f 40//2 42//2 43//2
f 43//1 42//1 40//1
f 41//37 43//37 46//37
f 46//38 43//38 41//38
f 46//39 44//39 41//39
f 41//40 44//40 46//40
f 27//1 44//1 47//1
f 47//2 44//2 27//2
f 48//11 45//11 27//11
f 27//12 45//12 48//12
f 49//2 42//2 45//2
f 45//1 42//1 49//1
f 43//2 42//2 46//2
f 46//1 42//1 43//1
f 44//39 46//39 50//39
f 50//40 46//40 44//40
f 50//41 47//41 44//41
f 44//42 47//42 50//42
f 27//1 47//1 51//1
f 51//2 47//2 27//2
f 45//11 48//11 52//11
f 52//12 48//12 45//12
f 27//1 53//1 48//1
f 48//2 53//2 27//2
f 54//2 42//2 49//2
f 49//1 42//1 54//1
f 49//2 45//2 52//2
f 52//1 45//1 49//1
f 46//2 42//2 50//2
f 50//1 42//1 46//1
f 47//41 50//41 55//41
f 55//42 50//42 47//42
f 55//43 51//43 47//43
f 47//44 51//44 55//44
f 27//1 51//1 56//1
f 56//2 51//2 27//2
f 57//17 52//17 48//17
f 48//18 52//18 57//18
f 27//1 58//1 53//1
f 53//2 58//2 27//2
f 48//1 53//1 57//1
f 57//2 53//2 48//2
f 59//2 42//2 54//2
f 54//1 42//1 59//1
f 53//45 54//45 49//45
f 49//46 54//46 53//46
f 49//2 52//2 60//2
f 60//1 52//1 49//1
f 50//2 42//2 55//2
f 55//1 42//1 50//1
f 51//43 55//43 61//43
f 61//44 55//44 51//44
f 51//47 62//47 56//47
f 56//48 62//48 51//48
f 27//1 56//1 58//1
f 58//2 56//2 27//2
f 52//17 57//17 60//17
f 60//18 57//18 52//18
f 58//45 54//45 53//45
f 53//46 54//46 58//46
f 57//1 53//1 63//1
f 63//2 53//2 57//2
f 62//2 42//2 59//2
f 59//1 42//1 62//1
f 54//45 58//45 59//45
f 59//46 58//46 54//46
f 53//45 49//45 64//45
f 64//46 49//46 53//46
f 49//2 60//2 65//2
f 65//1 60//1 49//1
f 55//2 42//2 61//2
f 61//1 42//1 55//1
f 62//47 51//47 61//47
f 61//48 51//48 62//48
f 59//49 56//49 62//49
f 62//50 56//50 59//50
f 56//49 59//49 58//49
f 58//50 59//50 56//50
f 63//23 60//23 57//23
f 57//24 60//24 63//24
f 63//1 53//1 66//1
f 66//2 53//2 63//2
f 61//2 42//2 62//2
f 62//1 42//1 61//1
f 49//2 67//2 64//2
f 64//1 67//1 49//1
f 68//51 53//51 64//51
f 64//52 53//52 68//52
f 60//23 63//23 65//23
f 65//24 63//24 60//24
f 49//2 65//2 69//2
f 69//1 65//1 49//1
f 66//1 53//1 70//1
f 70//2 53//2 66//2
f 69//21 63//21 66//21
f 66//22 63//22 69//22
f 49//2 71//2 67//2
f 67//1 71//1 49//1
f 64//2 67//2 68//2
f 68//1 67//1 64//1
f 53//51 68//51 72//51
f 72//52 68//52 53//52
f 63//21 69//21 65//21
f 65//22 69//22 63//22
f 49//2 69//2 73//2
f 73//1 69//1 49//1
f 70//1 53//1 74//1
f 74//2 53//2 70//2
f 73//29 66//29 70//29
f 70//30 66//30 73//30
f 66//29 73//29 69//29
f 69//30 73//30 66//30
f 49//2 75//2 71//2
f 71//1 75//1 49//1
f 76//53 67//54 71//53
f 71//55 67//56 76//55
f 68//2 67//2 77//2
f 77//1 67//1 68//1
f 78//57 72//57 68//57
f 68//58 72//58 78//58
f 79//1 53//1 72//1
f 72//2 53//2 79//2
f 49//2 73//2 80//2
f 80//1 73//1 49//1
f 74//1 53//1 81//1
f 81//2 53//2 74//2
f 80//33 70//33 74//33
f 74//34 70//34 80//34
f 70//33 80//33 73//33
f 73//34 80//34 70//34
f 49//2 82//2 75//2
f 75//1 82//1 49//1
f 83//59 71//53 75//59
f 75//60 71//55 83//60
f 67//54 76//53 79//54
f 79//56 76//55 67//56
f 71//53 83//59 76//53
f 76//55 83//60 71//55
f 79//54 77//61 67//54
f 67//56 77//62 79//56
f 68//2 77//2 78//2
f 78//1 77//1 68//1
f 72//57 78//57 84//57
f 84//58 78//58 72//58
f 76//1 53//1 79//1
f 79//2 53//2 76//2
f 79//1 72//1 85//1
f 85//2 72//2 79//2
f 49//2 80//2 86//2
f 86//1 80//1 49//1
f 81//1 53//1 87//1
f 87//2 53//2 81//2
f 86//27 74//27 81//27
f 81//28 74//28 86//28
f 74//27 86//27 80//27
f 80//28 86//28 74//28
f 49//2 88//2 82//2
f 82//1 88//1 49//1
f 89//63 75//59 82//63
f 82//64 75//60 89//64
f 75//59 89//63 83//59
f 83//60 89//64 75//60
f 83//1 53//1 76//1
f 76//2 53//2 83//2
f 77//61 79//54 85//61
f 85//62 79//56 77//62
f 78//2 77//2 90//2
f 90//1 77//1 78//1
f 91//65 84//65 78//65
f 78//66 84//66 91//66
f 85//1 72//1 84//1
f 84//2 72//2 85//2
f 49//2 86//2 92//2
f 92//1 86//1 49//1
f 87//1 53//1 93//1
f 93//2 53//2 87//2
f 92//19 81//19 87//19
f 87//20 81//20 92//20
f 81//19 92//19 86//19
f 86//20 92//20 81//20
f 49//2 94//2 88//2
f 88//1 94//1 49//1
f 95//67 82//63 88//67
f 88//68 82//64 95//68
f 82//63 95//67 89//63
f 89//64 95//68 82//64
f 89//1 53//1 83//1
f 83//2 53//2 89//2
f 96//69 77//61 85//61
f 85//62 77//62 96//70
f 77//61 96//69 90//69
f 90//70 96//70 77//62
f 78//2 90//2 91//2
f 91//1 90//1 78//1
f 84//65 91//65 97//65
f 97//66 91//66 84//66
f 85//1 84//1 96//1
f 96//2 84//2 85//2
f 49//2 92//2 98//2
f 98//1 92//1 49//1
f 93//1 53//1 99//1
f 99//2 53//2 93//2
f 98//13 87//13 93//13
f 93//14 87//14 98//14
f 87//13 98//13 92//13
f 92//14 98//14 87//14
f 49//2 100//2 94//2
f 94//1 100//1 49//1
f 101//71 88//67 94//71
f 94//72 88//68 101//72
f 88//67 101//71 95//67
f 95//68 101//72 88//68
f 95//1 53//1 89//1
f 89//2 53//2 95//2
f 102//73 90//69 96//69
f 96//70 90//70 102//74
f 91//2 90//2 103//2
f 103//1 90//1 91//1
f 103//75 97//75 91//75
f 91//76 97//76 103//76
f 96//1 84//1 97//1
f 97//2 84//2 96//2
f 49//2 98//2 104//2
f 104//1 98//1 49//1
f 99//1 53//1 101//1
f 101//2 53//2 99//2
f 104//7 93//7 99//7
f 99//8 93//8 104//8
f 93//7 104//7 98//7
f 98//8 104//8 93//8
f 49//2 104//2 100//2
f 100//1 104//1 49//1
f 100//77 99//77 94//77
f 94//78 99//78 100//78
f 94//77 99//77 101//77
f 101//78 99//78 94//78
f 101//1 53//1 95//1
f 95//2 53//2 101//2
f 90//69 102//73 105//73
f 105//74 102//74 90//70
f 96//1 106//1 102//1
f 102//2 106//2 96//2
f 103//2 90//2 105//2
f 105//1 90//1 103//1
f 97//75 103//75 106//75
f 106//76 103//76 97//76
f 96//1 97//1 106//1
f 106//2 97//2 96//2
f 99//77 100//77 104//77
f 104//78 100//78 99//78
f 107//79 105//73 102//73
f 102//74 105//74 107//80
f 102//1 106//1 108//1
f 108//2 106//2 102//2
f 103//2 105//2 109//2
f 109//1 105//1 103//1
f 109//81 106//81 103//81
f 103//82 106//82 109//82
f 105//73 107//79 110//79
f 110//80 107//80 105//74
f 102//1 108//1 107//1
f 107//2 108//2 102//2
f 106//81 109//81 108//81
f 108//82 109//82 106//82
f 109//2 105//2 110//2
f 110//1 105//1 109//1
f 111//83 110//79 107//79
f 107//80 110//80 111//84
f 107//1 108//1 112//1
f 112//2 108//2 107//2
f 113//85 108//85 109//85
f 109//86 108//86 113//86
f 109//2 110//2 113//2
f 113//1 110//1 109//1
f 110//79 111//83 114//83
f 114//84 111//84 110//80
f 107//1 115//1 111//1
f 111//2 115//2 107//2
f 108//85 113//85 112//85
f 112//86 113//86 108//86
f 107//1 112//1 115//1
f 115//2 112//2 107//2
f 113//2 110//2 116//2
f 116//1 110//1 113//1
f 117//87 114//83 111//83
f 111//84 114//84 117//88
f 116//2 110//2 114//2
f 114//1 110//1 116//1
f 111//1 115//1 118//1
f 118//2 115//2 111//2
f 116//89 112//89 113//89
f 113//90 112//90 116//90
f 112//89 116//89 115//89
f 115//90 116//90 112//90
f 114//83 117//87 119//87
f 119//88 117//88 114//84
f 111//1 118//1 117//1
f 117//2 118//2 111//2
f 116//2 114//2 120//2
f 120//1 114//1 116//1
f 115//91 120//91 118//91
f 118//92 120//92 115//92
f 120//91 115//91 116//91
f 116//92 115//92 120//92
f 121//93 119//87 117//87
f 117//88 119//88 121//94
f 120//2 114//2 119//2
f 119//1 114//1 120//1
f 117//1 118//1 122//1
f 122//2 118//2 117//2
f 123//95 118//95 120//95
f 120//96 118//96 123//96
f 119//87 121//93 124//93
f 124//94 121//94 119//88
f 117//1 125//1 121//1
f 121//2 125//2 117//2
f 120//2 119//2 123//2
f 123//1 119//1 120//1
f 118//95 123//95 122//95
f 122//96 123//96 118//96
f 117//1 122//1 125//1
f 125//2 122//2 117//2
f 121//97 126//97 124//97
f 124//98 126//98 121//98
f 127//2 119//2 124//2
f 124//1 119//1 127//1
f 125//97 126//97 121//97
f 121//98 126//98 125//98
f 123//2 119//2 127//2
f 127//1 119//1 123//1
f 127//99 122//99 123//99
f 123//100 122//100 127//100
f 122//99 127//99 125//99
f 125//100 127//100 122//100
f 127//2 124//2 126//2
f 126//1 124//1 127//1
f 126//97 125//97 127//97
f 127//98 125//98 126//98
