# SSTK version 0.8.0
# 8
mtllib original-8.mtl
o Group8/mesh10/mesh10-geometry#mesh10-geometry
v 0.087604 0.044033 -0.799839
v -0.105536 0.039868 -0.784293
v 0.087604 0.039868 -0.784293
v -0.105536 0.044033 -0.799839
v 0.087604 -0.053412 -0.809287
v 0.087604 -0.047163 -0.832607
v -0.105536 -0.047163 -0.832607
v -0.105536 -0.053412 -0.809287
vn 0.0 0.965925849201117 0.2588189595935754
vn 0.0 -0.2588189595935754 0.965925849201117
vn 1.0 0.0 0.0
vn 0.0 0.33814082803903284 -0.9410955214074058
vn -1.0 0.0 0.0
vn 0.0 -0.965925849201117 -0.2588189595935754
vn 0.0 0.2588189595935754 -0.965925849201117
vn 0.0 -0.33814082803903284 0.9410955214074058
usemtl material_0_0
f 1//1 2//1 3//1
f 2//1 1//1 4//1
f 2//2 5//2 3//2
f 3//3 6//3 1//3
f 1//4 7//4 4//4
f 7//5 2//5 4//5
f 5//2 2//2 8//2
f 6//3 3//3 5//3
f 7//4 1//4 6//4
f 2//5 7//5 8//5
f 7//6 5//6 8//6
f 5//6 7//6 6//6
usemtl material_1_0
f 3//6 2//6 1//6
f 4//6 1//6 2//6
f 3//7 5//7 2//7
f 1//5 6//5 3//5
f 4//8 7//8 1//8
f 4//3 2//3 7//3
f 8//7 2//7 5//7
f 5//5 3//5 6//5
f 6//8 1//8 7//8
f 8//3 7//3 2//3
f 8//1 5//1 7//1
f 6//1 7//1 5//1
