# SSTK version 0.8.0
# 7
mtllib original-7.mtl
o Group7/mesh9/mesh9-geometry#mesh9-geometry
v 0.198767 -0.188338 -0.815136
v 0.198767 -0.284908 0.971412
v 0.198767 -0.284908 -0.815136
v 0.198767 -0.220528 0.971412
v 0.174624 -0.284908 0.939222
v -0.203609 -0.284908 -0.815136
v 0.198767 -0.204433 0.713892
v -0.203609 -0.220528 0.971412
v -0.203609 -0.284908 0.971412
v 0.174624 -0.284908 -0.799041
v -0.203609 -0.188338 -0.815136
v -0.179466 -0.284908 -0.799041
v 0.198767 -0.188338 0.713892
v -0.179466 -0.284908 0.939222
v 0.042256 -0.284908 0.833282
v 0.174624 -0.317098 0.939222
v -0.203609 -0.188338 0.713892
v 0.009993 -0.284908 0.877089
v -0.003301 -0.284908 0.789485
v -0.179466 -0.317098 -0.799041
v 0.040962 -0.284908 0.844875
v 0.040506 -0.284908 0.821749
v 0.174624 -0.317098 -0.799041
v -0.203609 -0.204433 0.713892
v -0.047098 -0.284908 0.835043
v 0.02068 -0.284908 0.872414
v -0.00154 -0.284908 0.87884
v -0.179466 -0.317098 0.939222
v -0.014835 -0.284908 0.791236
v 0.008292 -0.284908 0.79078
v 0.036711 -0.284908 0.855739
v 0.042256 -0.317098 0.833282
v 0.03583 -0.284908 0.811061
v 0.040506 -0.317098 0.821749
v -0.045348 -0.284908 0.846576
v -0.045804 -0.284908 0.82345
v 0.029793 -0.284908 0.865131
v 0.009993 -0.317098 0.877089
v -0.00154 -0.317098 0.87884
v -0.013134 -0.284908 0.877545
v -0.013134 -0.317098 0.877545
v -0.025522 -0.284908 0.795911
v -0.003301 -0.317098 0.789485
v 0.019155 -0.284908 0.795031
v 0.008292 -0.317098 0.79078
v 0.040962 -0.317098 0.844875
v 0.028548 -0.284908 0.801949
v 0.03583 -0.317098 0.811061
v -0.047098 -0.317098 0.835043
v -0.040672 -0.284908 0.857264
v -0.045348 -0.317098 0.846576
v -0.041553 -0.284908 0.812586
v 0.02068 -0.317098 0.872414
v -0.023997 -0.284908 0.873294
v -0.023997 -0.317098 0.873294
v -0.034635 -0.284908 0.803194
v -0.014835 -0.317098 0.791236
v 0.019155 -0.317098 0.795031
v 0.036711 -0.317098 0.855739
v 0.028548 -0.317098 0.801949
v -0.045804 -0.317098 0.82345
v -0.03339 -0.284908 0.866377
v -0.040672 -0.317098 0.857264
v 0.029793 -0.317098 0.865131
v -0.03339 -0.317098 0.866377
v -0.025522 -0.317098 0.795911
v -0.041553 -0.317098 0.812586
v -0.034635 -0.317098 0.803194
vn 1.0 0.0 0.0
vn 0.0 1.0 0.0
vn 0.0 -1.0 0.0
vn 0.0 0.0 -1.0
vn 0.0 0.0 1.0
vn -1.0 0.0 0.0
vn 0.9998058574016998 0.0 -0.019703997189697894
vn 0.9708381107046762 0.0 0.23973602733710078
vn 0.9606383274586062 0.0 -0.2778020946960829
vn 0.2778020946960829 0.0 0.9606383274586062
vn 0.5169678777244456 0.0 0.8560047975339172
vn 0.019703997189697894 0.0 0.9998058574016998
vn -0.019703997189697894 0.0 -0.9998058574016998
vn -0.2778020946960829 0.0 -0.9606383274586062
vn 0.23973602733710078 0.0 -0.9708381107046762
vn 0.875709764283483 0.0 0.4828378700335823
vn 0.8560047975339172 0.0 -0.5169678777244456
vn -0.9606383274586062 0.0 0.2778020946960829
vn -0.9998058574016998 0.0 0.019703997189697894
vn -0.9708381107046762 0.0 -0.23973602733710078
vn 0.720902988211434 0.0 0.6930359886671291
vn -0.23973602733710078 0.0 0.9708381107046762
vn -0.5169678777244456 0.0 -0.8560047975339172
vn 0.4828378700335823 0.0 -0.875709764283483
vn 0.6930359886671291 0.0 -0.720902988211434
vn -0.8560047975339172 0.0 0.5169678777244456
vn -0.875709764283483 0.0 -0.4828378700335823
vn -0.4828378700335823 0.0 0.875709764283483
vn -0.720902988211434 0.0 -0.6930359886671291
vn -0.6930359886671291 0.0 0.720902988211434
usemtl material_0_0
f 1//1 2//1 3//1
f 2//1 1//1 4//1
f 5//2 2//2 3//2
f 3//3 2//3 5//3
f 6//4 1//4 3//4
f 4//1 1//1 7//1
f 8//5 2//5 4//5
f 2//2 5//2 9//2
f 9//3 5//3 2//3
f 5//2 3//2 10//2
f 10//3 3//3 5//3
f 1//4 6//4 11//4
f 6//2 12//2 3//2
f 3//3 12//3 6//3
f 7//1 1//1 13//1
f 2//5 8//5 9//5
f 14//2 9//2 5//2
f 5//3 9//3 14//3
f 10//2 3//2 12//2
f 12//3 3//3 10//3
f 15//2 5//2 10//2
f 6//6 8//6 11//6
f 17//2 1//2 11//2
f 6//2 14//2 12//2
f 12//3 14//3 6//3
f 1//2 17//2 13//2
f 8//6 6//6 9//6
f 9//2 14//2 6//2
f 6//3 14//3 9//3
f 5//2 18//2 14//2
f 12//2 19//2 10//2
f 21//2 5//2 15//2
f 15//2 10//2 22//2
f 11//6 8//6 24//6
f 11//6 24//6 17//6
f 14//2 25//2 12//2
f 18//2 5//2 26//2
f 14//2 18//2 27//2
f 12//2 29//2 19//2
f 30//2 10//2 19//2
f 31//2 5//2 21//2
f 22//2 10//2 33//2
f 25//2 14//2 35//2
f 12//2 25//2 36//2
f 26//2 5//2 37//2
f 40//2 14//2 27//2
f 12//2 42//2 29//2
f 44//2 10//2 30//2
f 37//2 5//2 31//2
f 33//2 10//2 47//2
f 35//2 14//2 50//2
f 12//2 36//2 52//2
f 54//2 14//2 40//2
f 12//2 56//2 42//2
f 47//2 10//2 44//2
f 50//2 14//2 62//2
f 12//2 52//2 56//2
f 62//2 14//2 54//2
usemtl material_1_0
f 3//6 2//6 1//6
f 4//6 1//6 2//6
f 3//5 1//5 6//5
f 7//6 1//6 4//6
f 4//4 2//4 8//4
f 11//5 6//5 1//5
f 13//6 1//6 7//6
f 9//4 8//4 2//4
f 10//3 5//3 15//3
f 5//6 10//6 16//6
f 11//1 8//1 6//1
f 11//3 1//3 17//3
f 13//3 17//3 1//3
f 9//1 6//1 8//1
f 14//3 18//3 5//3
f 5//4 16//4 14//4
f 10//3 19//3 12//3
f 12//5 20//5 10//5
f 15//3 5//3 21//3
f 22//3 10//3 15//3
f 23//6 16//6 10//6
f 24//1 8//1 11//1
f 17//1 24//1 11//1
f 12//1 14//1 20//1
f 12//3 25//3 14//3
f 26//3 5//3 18//3
f 27//3 18//3 14//3
f 28//4 14//4 16//4
f 19//3 29//3 12//3
f 19//3 10//3 30//3
f 23//5 10//5 20//5
f 21//3 5//3 31//3
f 15//7 21//8 32//7
f 33//3 10//3 22//3
f 22//9 15//7 34//9
f 23//2 32//2 16//2
f 28//1 20//1 14//1
f 35//3 14//3 25//3
f 36//3 25//3 12//3
f 37//3 5//3 26//3
f 18//10 38//10 26//11
f 27//12 39//12 18//10
f 27//3 14//3 40//3
f 16//2 41//2 28//2
f 29//3 42//3 12//3
f 19//13 43//13 29//14
f 30//3 10//3 44//3
f 30//15 45//15 19//13
f 20//2 43//2 23//2
f 31//3 5//3 37//3
f 21//8 31//16 46//8
f 46//8 32//7 21//8
f 32//7 34//9 15//7
f 47//3 10//3 33//3
f 33//17 22//9 48//17
f 34//9 48//17 22//9
f 46//2 16//2 32//2
f 34//2 32//2 23//2
f 20//2 28//2 49//2
f 50//3 14//3 35//3
f 35//18 25//19 51//18
f 25//19 36//20 49//19
f 52//3 36//3 12//3
f 26//11 53//11 37//21
f 53//11 26//11 38//10
f 38//10 18//10 39//12
f 39//12 27//12 41//22
f 40//3 14//3 54//3
f 40//22 41//22 27//12
f 55//2 28//2 41//2
f 39//2 41//2 16//2
f 42//3 56//3 12//3
f 29//14 57//14 42//23
f 57//14 29//14 43//13
f 43//13 19//13 45//15
f 44//3 10//3 47//3
f 44//24 58//24 30//15
f 45//15 30//15 58//24
f 43//2 45//2 23//2
f 43//2 20//2 57//2
f 31//16 37//21 59//16
f 59//16 46//8 31//16
f 47//25 33//17 60//25
f 48//17 60//25 33//17
f 48//2 34//2 23//2
f 59//2 16//2 46//2
f 49//2 28//2 51//2
f 61//2 20//2 49//2
f 62//3 14//3 50//3
f 50//26 35//18 63//26
f 49//19 51//18 25//19
f 51//18 63//26 35//18
f 61//20 49//19 36//20
f 36//20 52//27 61//20
f 56//3 52//3 12//3
f 64//21 37//21 53//11
f 38//2 16//2 53//2
f 39//2 16//2 38//2
f 54//3 14//3 62//3
f 54//28 55//28 40//22
f 41//22 40//22 55//28
f 65//2 28//2 55//2
f 42//23 66//23 56//29
f 66//23 42//23 57//14
f 47//25 60//25 44//24
f 58//24 44//24 60//25
f 45//2 58//2 23//2
f 57//2 20//2 66//2
f 64//21 59//16 37//21
f 60//2 48//2 23//2
f 64//2 16//2 59//2
f 51//2 28//2 63//2
f 67//2 20//2 61//2
f 62//30 50//26 65//30
f 63//26 65//30 50//26
f 67//27 61//20 52//27
f 52//27 56//29 67//27
f 53//2 16//2 64//2
f 62//30 65//30 54//28
f 55//28 54//28 65//30
f 63//2 28//2 65//2
f 68//29 56//29 66//23
f 58//2 60//2 23//2
f 66//2 20//2 68//2
f 68//2 20//2 67//2
f 68//29 67//27 56//29
usemtl material_2_0
f 16//1 10//1 5//1
f 14//5 16//5 5//5
f 10//4 20//4 12//4
f 10//1 16//1 23//1
f 20//6 14//6 12//6
f 16//5 14//5 28//5
f 20//4 10//4 23//4
f 32//19 21//20 15//19
f 34//18 15//19 22//18
f 16//3 32//3 23//3
f 14//6 20//6 28//6
f 26//23 38//14 18//14
f 18//14 39//13 27//13
f 28//3 41//3 16//3
f 29//10 43//12 19//12
f 19//12 45//22 30//22
f 23//3 43//3 20//3
f 46//20 31//27 21//20
f 21//20 32//19 46//20
f 15//19 34//18 32//19
f 48//26 22//18 33//26
f 22//18 48//26 34//18
f 32//3 16//3 46//3
f 23//3 32//3 34//3
f 49//3 28//3 20//3
f 51//9 25//7 35//9
f 49//7 36//8 25//7
f 37//29 53//23 26//23
f 38//14 26//23 53//23
f 39//13 18//14 38//14
f 41//15 27//13 39//13
f 27//13 41//15 40//15
f 41//3 28//3 55//3
f 16//3 41//3 39//3
f 42//11 57//10 29//10
f 43//12 29//10 57//10
f 45//22 19//12 43//12
f 30//22 58//28 44//28
f 58//28 30//22 45//22
f 23//3 45//3 43//3
f 57//3 20//3 43//3
f 59//27 37//29 31//27
f 31//27 46//20 59//27
f 60//30 33//26 47//30
f 33//26 60//30 48//26
f 23//3 34//3 48//3
f 46//3 16//3 59//3
f 51//3 28//3 49//3
f 49//3 20//3 61//3
f 63//17 35//9 50//17
f 25//7 51//9 49//7
f 35//9 63//17 51//9
f 36//8 49//7 61//8
f 61//8 52//16 36//8
f 53//23 37//29 64//29
f 53//3 16//3 38//3
f 38//3 16//3 39//3
f 40//15 55//24 54//24
f 55//24 40//15 41//15
f 55//3 28//3 65//3
f 56//21 66//11 42//11
f 57//10 42//11 66//11
f 44//28 60//30 47//30
f 60//30 44//28 58//28
f 23//3 58//3 45//3
f 66//3 20//3 57//3
f 37//29 59//27 64//29
f 23//3 48//3 60//3
f 59//3 16//3 64//3
f 63//3 28//3 51//3
f 61//3 20//3 67//3
f 65//25 50//17 62//25
f 50//17 65//25 63//17
f 52//16 61//8 67//16
f 67//16 56//21 52//16
f 64//3 16//3 53//3
f 54//24 65//25 62//25
f 65//25 54//24 55//24
f 65//3 28//3 63//3
f 66//11 56//21 68//21
f 23//3 60//3 58//3
f 68//3 20//3 66//3
f 67//3 20//3 68//3
f 56//21 67//16 68//21
