# SSTK version 0.8.0
# 16
mtllib original-16.mtl
o mesh14/mesh14-geometry#mesh14-geometry
v -0.075047 0.093487 -0.096939
v -0.075112 0.093487 -0.101341
v -0.079029 0.093487 -0.097138
v -0.079310 0.093487 -0.102101
v -0.081573 0.093487 -0.097800
v -0.083273 0.093487 -0.098727
v -0.081907 0.093487 -0.105382
v -0.084953 0.093487 -0.100313
v -0.086221 0.093487 -0.102452
v -0.086981 0.093487 -0.104932
v -0.082796 0.093487 -0.111838
v -0.087138 0.093487 -0.107539
v -0.087221 0.093487 -0.111525
v -0.087219 0.093487 -0.114265
v -0.082133 0.093487 -0.118334
v -0.087045 0.093487 -0.117637
v -0.086553 0.093487 -0.119994
v -0.085650 0.093487 -0.121909
v -0.079678 0.093487 -0.121054
v -0.083889 0.093487 -0.123985
v -0.081579 0.093487 -0.125576
v -0.078899 0.093487 -0.126427
v -0.074732 0.093487 -0.121603
v -0.075507 0.093487 -0.126554
v -0.070753 0.093487 -0.126581
v -0.072581 0.093487 -0.121600
v -0.068273 0.093487 -0.121575
v -0.068344 0.093487 -0.126576
v -0.063656 0.093487 -0.126244
v -0.065030 0.093487 -0.121509
v -0.060136 0.093487 -0.125190
v -0.061162 0.093487 -0.120098
v -0.058052 0.093487 -0.123475
v -0.056735 0.093487 -0.121394
v -0.060007 0.093487 -0.117141
v -0.055668 0.093487 -0.117880
v -0.055352 0.093487 -0.110948
v -0.059853 0.093487 -0.113142
v -0.059728 0.093487 -0.109639
v -0.055530 0.093487 -0.105058
v -0.059903 0.093487 -0.107119
v -0.060528 0.093487 -0.104516
v -0.056102 0.093487 -0.102771
v -0.057340 0.093487 -0.100300
v -0.055725 0.093487 -0.103552
v -0.062503 0.093487 -0.102458
v -0.059260 0.093487 -0.098683
v -0.062020 0.093487 -0.097833
v -0.063672 0.093487 -0.097702
v -0.065229 0.093487 -0.101779
v -0.065693 0.093487 -0.097616
v -0.066604 0.093487 -0.101721
v -0.066679 0.093487 -0.097585
vn 0 1 0
vn -9.999999999995e-7 1 0
vn 0 -1 0
vn 9.999999999995e-7 -1 0
usemtl material_0_0
f 1//1 2//1 3//1
f 2//1 4//1 3//1
f 3//1 4//1 5//1
f 4//1 6//1 5//1
f 4//1 7//1 6//1
f 7//1 8//1 6//1
f 7//1 9//1 8//1
f 7//1 10//1 9//1
f 7//1 11//1 10//1
f 11//1 12//1 10//1
f 11//1 13//2 12//1
f 11//1 14//1 13//2
f 15//1 14//1 11//1
f 15//1 16//1 14//1
f 15//1 17//1 16//1
f 15//1 18//1 17//1
f 19//1 18//1 15//1
f 19//1 20//1 18//1
f 19//1 21//2 20//1
f 22//1 21//2 19//1
f 23//1 22//1 19//1
f 23//1 24//1 22//1
f 25//1 24//1 23//1
f 25//1 23//1 26//1
f 27//1 25//1 26//1
f 27//1 28//1 25//1
f 29//1 28//1 27//1
f 29//1 27//1 30//1
f 31//1 29//1 30//1
f 31//1 30//1 32//1
f 33//1 31//1 32//1
f 34//1 33//1 32//1
f 34//1 32//1 35//1
f 36//1 34//1 35//1
f 37//1 36//1 35//1
f 37//1 35//1 38//1
f 37//1 38//1 39//1
f 37//1 39//1 40//1
f 40//1 39//1 41//1
f 40//1 41//1 42//1
f 40//1 42//1 43//1
f 43//1 42//1 44//1
f 40//1 43//1 45//1
f 44//1 42//1 46//1
f 44//1 46//1 47//1
f 47//1 46//1 48//1
f 48//1 46//1 49//1
f 46//1 50//1 49//1
f 49//1 50//1 51//1
f 50//1 52//1 51//1
f 51//1 52//1 53//1
usemtl material_1_0
f 3//3 2//3 1//3
f 3//3 4//3 2//3
f 5//3 4//3 3//3
f 5//3 6//3 4//3
f 6//3 7//3 4//3
f 6//3 8//3 7//3
f 8//3 9//3 7//3
f 9//3 10//3 7//3
f 10//3 11//3 7//3
f 10//3 12//3 11//3
f 12//3 13//4 11//3
f 13//4 14//3 11//3
f 11//3 14//3 15//3
f 14//3 16//3 15//3
f 16//3 17//3 15//3
f 17//3 18//3 15//3
f 15//3 18//3 19//3
f 18//3 20//3 19//3
f 20//3 21//4 19//3
f 19//3 21//4 22//3
f 19//3 22//3 23//3
f 22//3 24//3 23//3
f 23//3 24//3 25//3
f 26//3 23//3 25//3
f 26//3 25//3 27//3
f 25//3 28//3 27//3
f 27//3 28//3 29//3
f 30//3 27//3 29//3
f 30//3 29//3 31//3
f 32//3 30//3 31//3
f 32//3 31//3 33//3
f 32//3 33//3 34//3
f 35//3 32//3 34//3
f 35//3 34//3 36//3
f 35//3 36//3 37//3
f 38//3 35//3 37//3
f 39//3 38//3 37//3
f 40//3 39//3 37//3
f 41//3 39//3 40//3
f 42//3 41//3 40//3
f 43//3 42//3 40//3
f 44//3 42//3 43//3
f 45//3 43//3 40//3
f 46//3 42//3 44//3
f 47//3 46//3 44//3
f 48//3 46//3 47//3
f 49//3 46//3 48//3
f 49//3 50//3 46//3
f 51//3 50//3 49//3
f 51//3 52//3 50//3
f 53//3 52//3 51//3
