# SSTK version 0.8.0
# 11
mtllib original-11.mtl
o mesh10/mesh10-geometry#mesh10-geometry
v -0.078810 -0.027151 -0.458676
v -0.107303 -0.018497 -0.446874
v -0.078810 -0.018497 -0.458676
v -0.107303 -0.027151 -0.446874
v -0.070679 -0.018497 -0.416627
v -0.048233 -0.027151 -0.462701
v -0.110847 -0.027151 -0.444154
v -0.048233 -0.018497 -0.462701
v -0.110847 -0.018497 -0.444154
v -0.017656 -0.018497 -0.458676
v -0.110847 -0.018497 -0.416627
v -0.017656 -0.027151 -0.458676
v -0.110847 -0.027151 -0.416627
v 0.010837 -0.018497 -0.446873
v -0.070679 -0.027151 -0.416627
v 0.010837 -0.027151 -0.446873
v 0.035305 -0.018497 -0.428099
v 0.035305 -0.027151 -0.428099
v 0.054080 -0.018497 -0.403631
v -0.070679 -0.027151 -0.270133
v 0.054080 -0.027151 -0.403631
v 0.041554 -0.018497 -0.382366
v -0.070679 -0.018497 -0.270133
v -0.010428 -0.027151 -0.306756
v 0.059186 -0.027151 -0.391304
v 0.025014 -0.018497 -0.363463
v 0.059186 -0.018497 -0.391304
v -0.025848 -0.018497 -0.270133
v -0.025848 -0.027151 -0.270133
v 0.006112 -0.027151 -0.337473
v 0.006112 -0.018497 -0.337473
v 0.025014 -0.027151 -0.363463
v -0.010428 -0.018497 -0.306756
v 0.041554 -0.027151 -0.382366
vn -0.24978904974824176 -0.5576311110583808 -0.7916141576586831
vn -0.44644185864269004 0.4502928574233448 -0.7732567551629792
vn -0.1794829511215042 0.5576308481406907 -0.81045277928983
vn -0.44644185864269004 -0.4502928574233448 -0.7732567551629792
vn -0.14002800840280102 0.9801960588196069 0.14002800840280097
vn -0.02617599654344667 -0.8021898940704304 -0.5964949212325527
vn -0.68801400904016 -0.6414980084289631 -0.339289004458088
vn 0.036393992392237215 0.5576308834334099 -0.829290826645893
vn -0.598821963438926 0.7444509545475484 -0.295304981970155
vn 0.24978904974824204 0.5576311110583807 -0.7916141576586829
vn -0.8164962475939515 0.4082491237972789 0.4082481237969755
vn 0.17948406437008685 -0.5576311999886107 -0.8104522906602565
vn -0.3333331111109446 -0.6666662222218889 0.6666672222222221
vn 0.4461619414443723 0.557630926814849 -0.6999909081310992
vn -0.09016696346674324 -0.9918365981341755 0.09016696346674322
vn 0.38312813041032484 -0.5576311898082096 -0.7363832506523826
vn 0.6121310939954914 0.5576310856267691 -0.5606630860923464
vn 0.5606627734491144 -0.5576317746738709 -0.6121307526520917
vn 0.624886969663613 0.7097989655413903 -0.3251179842164975
vn -0.577350269189626 -0.5773502691896258 0.5773502691896257
vn 0.6999909081310994 -0.557630926814849 -0.446161941444372
vn 0.48756978203563434 0.6070707286136445 0.627487719486384
vn -0.577350269189626 0.5773502691896258 0.5773502691896257
vn 0.6326089281894015 -0.7074649196921243 0.31511796422938654
vn 0.7749601056096329 -0.5631860767495958 0.2868070390853491
vn 0.6577430672430502 0.5550460567440264 0.5092130520583807
vn 0.7749605050460577 0.5631856403030205 0.28680681682142045
vn 0.2837180862338555 0.6156841871323117 0.7351442234412396
vn 0.6707357503008888 -0.36388386453461374 0.6462987593982048
vn 0.6937739006970266 -0.5554769204920944 0.45839193438830456
vn 0.7136983595395563 0.5554762798320783 0.4267092149631422
vn 0.6421568996045559 -0.5550469132234173 0.5287319173375299
vn 0.7559590500059368 0.5550890367185859 0.34699002295304393
vn 0.42984114550254177 -0.7135922415531555 0.5531931872575854
vn 0.1794829511215042 -0.5576308481406907 0.81045277928983
vn 0.44644185864269004 -0.4502928574233448 0.7732567551629792
vn 0.24978904974824176 0.5576311110583808 0.7916141576586831
vn 0.44644185864269004 0.4502928574233448 0.7732567551629792
vn 0.14002800840280102 -0.9801960588196069 -0.14002800840280097
vn 0.02617599654344667 0.8021898940704304 0.5964949212325527
vn 0.68801400904016 0.6414980084289631 0.339289004458088
vn -0.036393992392237215 -0.5576308834334099 0.829290826645893
vn 0.598821963438926 -0.7444509545475484 0.295304981970155
vn -0.24978904974824204 -0.5576311110583807 0.7916141576586829
vn 0.8164962475939515 -0.4082491237972789 -0.4082481237969755
vn -0.17948406437008685 0.5576311999886107 0.8104522906602565
vn 0.3333331111109446 0.6666662222218889 -0.6666672222222221
vn -0.4461619414443723 -0.557630926814849 0.6999909081310992
vn 0.09016696346674324 0.9918365981341755 -0.09016696346674322
vn -0.38312813041032484 0.5576311898082096 0.7363832506523826
vn -0.6121310939954914 -0.5576310856267691 0.5606630860923464
vn -0.5606627734491144 0.5576317746738709 0.6121307526520917
vn -0.624886969663613 -0.7097989655413903 0.3251179842164975
vn 0.577350269189626 0.5773502691896258 -0.5773502691896257
vn -0.6999909081310994 0.557630926814849 0.446161941444372
vn -0.48756978203563434 -0.6070707286136445 -0.627487719486384
vn 0.577350269189626 -0.5773502691896258 -0.5773502691896257
vn -0.6326089281894015 0.7074649196921243 -0.31511796422938654
vn -0.7749601056096329 0.5631860767495958 -0.2868070390853491
vn -0.6577430672430502 -0.5550460567440264 -0.5092130520583807
vn -0.7749605050460577 -0.5631856403030205 -0.28680681682142045
vn -0.2837180862338555 -0.6156841871323117 -0.7351442234412396
vn -0.6707357503008888 0.36388386453461374 -0.6462987593982048
vn -0.6937739006970266 0.5554769204920944 -0.45839193438830456
vn -0.7136983595395563 -0.5554762798320783 -0.4267092149631422
vn -0.6421568996045559 0.5550469132234173 -0.5287319173375299
vn -0.7559590500059368 -0.5550890367185859 -0.34699002295304393
vn -0.42984114550254177 0.7135922415531555 -0.5531931872575854
usemtl material_0_0
f 1//1 2//2 3//3
f 4//4 2//2 1//1
f 5//5 3//3 2//2
f 1//1 3//3 6//6
f 7//7 2//2 4//4
f 1//1 7//7 4//4
f 8//8 3//3 5//5
f 5//5 2//2 9//9
f 6//6 3//3 8//8
f 6//6 7//7 1//1
f 7//7 9//9 2//2
f 10//10 8//8 5//5
f 5//5 9//9 11//11
f 6//6 8//8 12//12
f 6//6 13//13 7//7
f 11//11 9//9 7//7
f 12//12 8//8 10//10
f 14//14 10//10 5//5
f 13//13 5//5 11//11
f 12//12 15//15 6//6
f 6//6 15//15 13//13
f 11//11 7//7 13//13
f 16//16 12//12 10//10
f 16//16 10//10 14//14
f 17//17 14//14 5//5
f 15//15 5//5 13//13
f 16//16 15//15 12//12
f 18//18 16//16 14//14
f 18//18 14//14 17//17
f 19//19 17//17 5//5
f 20//20 5//5 15//15
f 18//18 15//15 16//16
f 21//21 18//18 17//17
f 21//21 17//17 19//19
f 19//19 5//5 22//22
f 23//23 5//5 20//20
f 24//24 20//20 15//15
f 21//21 15//15 18//18
f 25//25 21//21 19//19
f 22//22 5//5 26//26
f 27//27 19//19 22//22
f 28//28 5//5 23//23
f 20//20 28//28 23//23
f 24//24 29//29 20//20
f 30//30 24//24 15//15
f 25//25 15//15 21//21
f 25//25 19//19 27//27
f 26//26 5//5 31//31
f 32//32 22//22 26//26
f 25//25 27//27 22//22
f 33//33 5//5 28//28
f 29//29 28//28 20//20
f 29//29 24//24 33//33
f 24//24 30//30 31//31
f 32//32 30//30 15//15
f 25//25 34//34 15//15
f 31//31 5//5 33//33
f 30//30 26//26 31//31
f 32//32 34//34 22//22
f 30//30 32//32 26//26
f 25//25 22//22 34//34
f 29//29 33//33 28//28
f 24//24 31//31 33//33
f 34//34 32//32 15//15
usemtl material_1_0
f 3//35 2//36 1//37
f 1//37 2//36 4//38
f 2//36 3//35 5//39
f 6//40 3//35 1//37
f 4//38 2//36 7//41
f 4//38 7//41 1//37
f 5//39 3//35 8//42
f 9//43 2//36 5//39
f 8//42 3//35 6//40
f 1//37 7//41 6//40
f 2//36 9//43 7//41
f 5//39 8//42 10//44
f 11//45 9//43 5//39
f 12//46 8//42 6//40
f 7//41 13//47 6//40
f 7//41 9//43 11//45
f 10//44 8//42 12//46
f 5//39 10//44 14//48
f 11//45 5//39 13//47
f 6//40 15//49 12//46
f 13//47 15//49 6//40
f 13//47 7//41 11//45
f 10//44 12//46 16//50
f 14//48 10//44 16//50
f 5//39 14//48 17//51
f 13//47 5//39 15//49
f 12//46 15//49 16//50
f 14//48 16//50 18//52
f 17//51 14//48 18//52
f 5//39 17//51 19//53
f 15//49 5//39 20//54
f 16//50 15//49 18//52
f 17//51 18//52 21//55
f 19//53 17//51 21//55
f 22//56 5//39 19//53
f 20//54 5//39 23//57
f 15//49 20//54 24//58
f 18//52 15//49 21//55
f 19//53 21//55 25//59
f 26//60 5//39 22//56
f 22//56 19//53 27//61
f 23//57 5//39 28//62
f 23//57 28//62 20//54
f 20//54 29//63 24//58
f 15//49 24//58 30//64
f 21//55 15//49 25//59
f 27//61 19//53 25//59
f 31//65 5//39 26//60
f 26//60 22//56 32//66
f 22//56 27//61 25//59
f 28//62 5//39 33//67
f 20//54 28//62 29//63
f 33//67 24//58 29//63
f 31//65 30//64 24//58
f 15//49 30//64 32//66
f 15//49 34//68 25//59
f 33//67 5//39 31//65
f 31//65 26//60 30//64
f 22//56 34//68 32//66
f 26//60 32//66 30//64
f 34//68 22//56 25//59
f 28//62 33//67 29//63
f 33//67 31//65 24//58
f 15//49 32//66 34//68
