# SSTK version 0.8.0
# 8
mtllib original-8.mtl
o mesh7/mesh7-geometry#mesh7-geometry
v 0.043917 -0.044872 0.517863
v 0.018597 -0.044872 0.568602
v 0.033617 -0.044872 0.549028
v -0.000977 -0.044872 0.583621
v 0.018597 -0.053230 0.568602
v 0.033617 -0.053230 0.549028
v -0.023771 -0.044872 0.593063
v -0.000977 -0.053230 0.583621
v 0.043917 -0.053230 0.517863
v -0.048233 -0.044872 0.596284
v -0.023771 -0.053230 0.593063
v 0.052186 -0.044872 0.423351
v -0.072694 -0.044872 0.593063
v -0.048233 -0.053231 0.596284
v 0.052186 -0.053230 0.423351
v -0.140382 -0.044872 0.517863
v -0.095489 -0.044872 0.583621
v -0.072694 -0.053230 0.593063
v -0.140382 -0.053230 0.517863
v 0.069908 -0.044872 -0.226421
v -0.148652 -0.044872 0.423351
v -0.130083 -0.044872 0.549027
v -0.115063 -0.044872 0.568602
v -0.095489 -0.053230 0.583621
v -0.130083 -0.053230 0.549027
v -0.148652 -0.053230 0.423351
v 0.069908 -0.053230 -0.226421
v -0.107303 -0.044872 0.009860
v -0.115063 -0.053230 0.568602
v -0.158781 -0.053230 0.038459
v -0.107303 -0.053230 0.009860
v 0.069908 -0.044872 -0.344561
v -0.113210 -0.044872 -0.344561
v -0.158781 -0.044872 0.038459
v 0.069908 -0.053230 -0.344561
v -0.113210 -0.053230 -0.344561
v 0.065882 -0.044872 -0.375138
v -0.119117 -0.044872 -0.356375
v -0.119117 -0.053230 -0.356375
v 0.065882 -0.053230 -0.375138
v -0.130931 -0.044872 -0.368189
v -0.130931 -0.053230 -0.368189
v -0.160056 -0.053230 -0.380671
v 0.054080 -0.044872 -0.403631
v -0.160056 -0.044872 -0.380671
v 0.054080 -0.053230 -0.403631
v 0.035305 -0.053230 -0.428099
v 0.035305 -0.044872 -0.428099
v -0.150545 -0.053230 -0.403631
v 0.010837 -0.053230 -0.446873
v 0.010837 -0.044872 -0.446873
v -0.150545 -0.044872 -0.403631
v -0.131771 -0.053230 -0.428099
v -0.017656 -0.053230 -0.458676
v -0.017656 -0.044872 -0.458676
v -0.131771 -0.044872 -0.428099
v -0.107303 -0.053230 -0.446874
v -0.048233 -0.053230 -0.462701
v -0.048233 -0.044872 -0.462701
v -0.107303 -0.044872 -0.446874
v -0.078810 -0.053230 -0.458676
v -0.078810 -0.044872 -0.458676
vn 0.2774440168727585 0.9582970582788375 0.06849500416552387
vn 0.5606620572354692 0.5576310569260481 0.612132062489811
vn 0.8111009754617625 0.3198089903248188 0.4897319851841387
vn 0.3831298368346153 0.5576307625190495 0.7363826863930903
vn 0.6121291570028851 -0.5576311430248785 0.5606651438030589
vn 0.8610353725894596 -0.3198111383895053 0.39539717109728956
vn 0.17948599994067974 0.5576309998157031 0.8104519997321457
vn 0.4461622537537384 -0.5576313171515077 0.6999903981179022
vn 0.2819190633614575 -0.9582972153778024 0.04677701051315774
vn -0.036393992392237215 0.5576308834334099 0.829290826645893
vn 0.24979387705997677 -0.557629725553676 0.7916136103947917
vn 0.5984892388059321 0.8001153192576778 0.04032501609026947
vn -0.24979092495807154 0.557630832477128 0.7916137621842209
vn 0.03639502124949393 -0.5576313255770479 0.8292904841871954
vn 0.5137698546635197 -0.8575837574045971 0.02430299312510964
vn -0.695478820757744 0.7092198172163462 0.11539697025931953
vn -0.4461619414443723 0.557630926814849 0.6999909081310992
vn -0.17948909413801625 -0.5576322924656674 0.8104504250631244
vn -0.6844389283354836 -0.7092189257408817 0.16897298230760022
vn 0.7069608756028218 0.7071358755720288 0.01285199773855641
vn -0.7061925552870305 0.7072525546195136 0.03295297924841142
vn -0.7532011202278556 0.5595150893112045 0.34587705520976453
vn -0.6121307526520919 0.5576317746738709 0.5606627734491142
vn -0.3831301189647941 -0.5576311731486884 0.7363822286522403
vn -0.7095213198334809 -0.5595142522142547 0.4283961931096948
vn -0.8300801303848467 -0.5548590871544979 0.05566300874326759
vn 0.831995271966819 -0.5547311813333318 0.007562002471905767
vn -0.41205218808703287 0.8361683816808513 -0.36198816523460364
vn -0.5606637717487791 -0.5576307729835398 0.6121307507961127
vn -0.7497140861706424 -0.504758058015885 -0.4279580491886452
vn -0.5195460748923123 -0.8361681205332252 -0.17576902533701907
vn 0.5986989987924242 0.8005479983852948 -0.02612299994730978
vn -0.689727774289037 0.7149547660335935 0.11452196252309459
vn -0.7497141437479546 0.5047570967806209 -0.4279590820555986
vn 0.44483221409490475 -0.894767430645852 -0.038930018736769385
vn -0.7854128537522133 -0.563278895114663 0.25659995221981013
vn 0.6877400791420382 0.709800081680604 -0.15230701752680706
vn -0.6977861290988193 0.5591321034461582 0.4477340828361856
vn -0.645417734794035 -0.559131770249448 0.5203917861679366
vn 0.7916149724335922 -0.5576299805816515 -0.24978899130159796
vn -0.445539064526982 0.6069860879091945 0.6580750953083647
vn -0.3928001140053397 -0.7135142070886097 0.5801771683891953
vn -0.15246302424208016 -0.9797681557860883 0.12965102061490283
vn 0.7363828400219501 0.557631878855324 -0.3831279167660437
vn -0.21871392475279938 0.9756736643253875 0.015003994837966437
vn 0.6999909081310994 -0.557630926814849 -0.446161941444372
vn 0.5606627734491144 -0.5576317746738709 -0.6121307526520917
vn 0.6121307507961129 0.5576307729835398 -0.5606637717487789
vn -0.8409429953811205 -0.31840599825115506 -0.4375299975968666
vn 0.38312813041032484 -0.5576311898082096 -0.7363832506523826
vn 0.4461619414443723 0.557630926814849 -0.6999909081310992
vn -0.7993834779910938 0.31840419038968343 -0.5095143046639151
vn -0.6121307507961127 -0.5576307729835398 -0.5606637717487791
vn 0.17948406437008685 -0.5576311999886107 -0.8104522906602565
vn 0.24978904974824204 0.5576311110583807 -0.7916141576586829
vn -0.5606627734491142 0.5576317746738709 -0.6121307526520919
vn -0.44616299117712677 -0.5576299889728671 -0.6999909861576785
vn -0.036391995041481655 -0.5576309240211189 -0.8292908870066364
vn 0.036393992392237215 0.5576308834334099 -0.829290826645893
vn -0.3831281304103245 0.5576311898082096 -0.7363832506523829
vn -0.24978904974824176 -0.5576311110583808 -0.7916141576586831
vn -0.1794829511215042 0.5576308481406907 -0.81045277928983
vn -0.8111009754617625 -0.3198089903248188 -0.4897319851841387
vn -0.5606620572354692 -0.5576310569260481 -0.612132062489811
vn -0.2774440168727585 -0.9582970582788375 -0.06849500416552387
vn -0.3831298368346153 -0.5576307625190495 -0.7363826863930903
vn -0.6121291570028851 0.5576311430248785 -0.5606651438030589
vn -0.8610353725894596 0.3198111383895053 -0.39539717109728956
vn -0.17948599994067974 -0.5576309998157031 -0.8104519997321457
vn -0.4461622537537384 0.5576313171515077 -0.6999903981179022
vn -0.2819190633614575 0.9582972153778024 -0.04677701051315774
vn 0.036393992392237215 -0.5576308834334099 -0.829290826645893
vn -0.24979387705997677 0.557629725553676 -0.7916136103947917
vn -0.5984892388059321 -0.8001153192576778 -0.04032501609026947
vn 0.24979092495807154 -0.557630832477128 -0.7916137621842209
vn -0.03639502124949393 0.5576313255770479 -0.8292904841871954
vn -0.5137698546635197 0.8575837574045971 -0.02430299312510964
vn 0.695478820757744 -0.7092198172163462 -0.11539697025931953
vn 0.4461619414443723 -0.557630926814849 -0.6999909081310992
vn 0.17948909413801625 0.5576322924656674 -0.8104504250631244
vn 0.6844389283354836 0.7092189257408817 -0.16897298230760022
vn -0.7069608756028218 -0.7071358755720288 -0.01285199773855641
vn 0.7061925552870305 -0.7072525546195136 -0.03295297924841142
vn 0.7532011202278556 -0.5595150893112045 -0.34587705520976453
vn 0.6121307526520919 -0.5576317746738709 -0.5606627734491142
vn 0.3831301189647941 0.5576311731486884 -0.7363822286522403
vn 0.7095213198334809 0.5595142522142547 -0.4283961931096948
vn 0.8300801303848467 0.5548590871544979 -0.05566300874326759
vn -0.831995271966819 0.5547311813333318 -0.007562002471905767
vn 0.41205218808703287 -0.8361683816808513 0.36198816523460364
vn 0.5606637717487791 0.5576307729835398 -0.6121307507961127
vn 0.7497140861706424 0.504758058015885 0.4279580491886452
vn 0.5195460748923123 0.8361681205332252 0.17576902533701907
vn -0.5986989987924242 -0.8005479983852948 0.02612299994730978
vn 0.689727774289037 -0.7149547660335935 -0.11452196252309459
vn 0.7497141437479546 -0.5047570967806209 0.4279590820555986
vn -0.44483221409490475 0.894767430645852 0.038930018736769385
vn 0.7854128537522133 0.563278895114663 -0.25659995221981013
vn -0.6877400791420382 -0.709800081680604 0.15230701752680706
vn 0.6977861290988193 -0.5591321034461582 -0.4477340828361856
vn 0.645417734794035 0.559131770249448 -0.5203917861679366
vn -0.7916149724335922 0.5576299805816515 0.24978899130159796
vn 0.445539064526982 -0.6069860879091945 -0.6580750953083647
vn 0.3928001140053397 0.7135142070886097 -0.5801771683891953
vn 0.15246302424208016 0.9797681557860883 -0.12965102061490283
vn -0.7363828400219501 -0.557631878855324 0.3831279167660437
vn 0.21871392475279938 -0.9756736643253875 -0.015003994837966437
vn -0.6999909081310994 0.557630926814849 0.446161941444372
vn -0.5606627734491144 0.5576317746738709 0.6121307526520917
vn -0.6121307507961129 -0.5576307729835398 0.5606637717487789
vn 0.8409429953811205 0.31840599825115506 0.4375299975968666
vn -0.38312813041032484 0.5576311898082096 0.7363832506523826
vn -0.4461619414443723 -0.557630926814849 0.6999909081310992
vn 0.7993834779910938 -0.31840419038968343 0.5095143046639151
vn 0.6121307507961127 0.5576307729835398 0.5606637717487791
vn -0.17948406437008685 0.5576311999886107 0.8104522906602565
vn -0.24978904974824204 -0.5576311110583807 0.7916141576586829
vn 0.5606627734491142 -0.5576317746738709 0.6121307526520919
vn 0.44616299117712677 0.5576299889728671 0.6999909861576785
vn 0.036391995041481655 0.5576309240211189 0.8292908870066364
vn -0.036393992392237215 -0.5576308834334099 0.829290826645893
vn 0.3831281304103245 -0.5576311898082096 0.7363832506523829
vn 0.24978904974824176 0.5576311110583808 0.7916141576586831
vn 0.1794829511215042 -0.5576308481406907 0.81045277928983
usemtl material_0_0
f 1//1 2//2 3//3
f 1//1 4//4 2//2
f 5//5 3//3 2//2
f 6//6 1//1 3//3
f 1//1 7//7 4//4
f 8//8 2//2 4//4
f 5//5 6//6 3//3
f 5//5 2//2 8//8
f 6//6 9//9 1//1
f 1//1 10//10 7//7
f 11//11 4//4 7//7
f 8//8 4//4 11//11
f 9//9 6//6 5//5
f 9//9 5//5 8//8
f 9//9 12//12 1//1
f 1//1 13//13 10//10
f 14//14 7//7 10//10
f 14//14 11//11 7//7
f 9//9 8//8 11//11
f 9//9 15//15 12//12
f 12//12 16//16 1//1
f 1//1 17//17 13//13
f 18//18 10//10 13//13
f 14//14 10//10 18//18
f 9//9 11//11 14//14
f 15//15 9//9 19//19
f 15//15 20//20 12//12
f 12//12 21//21 16//16
f 1//1 16//16 22//22
f 1//1 23//23 17//17
f 24//24 13//13 17//17
f 18//18 13//13 24//24
f 9//9 14//14 18//18
f 9//9 25//25 19//19
f 15//15 19//19 26//26
f 15//15 27//27 20//20
f 20//20 28//28 12//12
f 12//12 28//28 21//21
f 16//16 21//21 26//26
f 22//22 16//16 19//19
f 1//1 22//22 23//23
f 29//29 17//17 23//23
f 24//24 17//17 29//29
f 9//9 18//18 24//24
f 9//9 29//29 25//25
f 22//22 19//19 25//25
f 16//16 26//26 19//19
f 15//15 26//26 30//30
f 27//27 15//15 31//31
f 27//27 32//32 20//20
f 20//20 33//33 28//28
f 28//28 34//34 21//21
f 21//21 30//30 26//26
f 23//23 22//22 25//25
f 23//23 25//25 29//29
f 9//9 24//24 29//29
f 15//15 30//30 31//31
f 27//27 31//31 35//35
f 27//27 35//35 32//32
f 32//32 33//33 20//20
f 28//28 33//33 31//31
f 30//30 34//34 28//28
f 21//21 34//34 30//30
f 31//31 30//30 28//28
f 35//35 31//31 36//36
f 35//35 37//37 32//32
f 32//32 38//38 33//33
f 31//31 33//33 36//36
f 35//35 36//36 39//39
f 35//35 40//40 37//37
f 32//32 37//37 41//41
f 32//32 41//41 38//38
f 33//33 38//38 36//36
f 36//36 38//38 39//39
f 35//35 39//39 42//42
f 35//35 43//43 40//40
f 40//40 44//44 37//37
f 37//37 45//45 41//41
f 39//39 38//38 41//41
f 39//39 41//41 42//42
f 35//35 42//42 43//43
f 40//40 43//43 46//46
f 40//40 46//46 44//44
f 37//37 44//44 45//45
f 43//43 41//41 45//45
f 42//42 41//41 43//43
f 46//46 43//43 47//47
f 46//46 48//48 44//44
f 44//44 48//48 45//45
f 45//45 49//49 43//43
f 47//47 43//43 50//50
f 46//46 47//47 48//48
f 48//48 51//51 45//45
f 45//45 52//52 49//49
f 53//53 43//43 49//49
f 50//50 43//43 54//54
f 47//47 50//50 51//51
f 47//47 51//51 48//48
f 51//51 55//55 45//45
f 56//56 52//52 45//45
f 52//52 53//53 49//49
f 57//57 43//43 53//53
f 54//54 43//43 58//58
f 50//50 54//54 55//55
f 50//50 55//55 51//51
f 55//55 59//59 45//45
f 52//52 56//56 53//53
f 60//60 56//56 45//45
f 61//61 43//43 57//57
f 57//57 53//53 56//56
f 58//58 43//43 61//61
f 58//58 59//59 54//54
f 54//54 59//59 55//55
f 59//59 62//62 45//45
f 57//57 56//56 60//60
f 62//62 60//60 45//45
f 57//57 60//60 61//61
f 61//61 62//62 58//58
f 58//58 62//62 59//59
f 61//61 60//60 62//62
usemtl material_1_0
f 3//63 2//64 1//65
f 2//64 4//66 1//65
f 2//64 3//63 5//67
f 3//63 1//65 6//68
f 4//66 7//69 1//65
f 4//66 2//64 8//70
f 3//63 6//68 5//67
f 8//70 2//64 5//67
f 1//65 9//71 6//68
f 7//69 10//72 1//65
f 7//69 4//66 11//73
f 11//73 4//66 8//70
f 5//67 6//68 9//71
f 8//70 5//67 9//71
f 1//65 12//74 9//71
f 10//72 13//75 1//65
f 10//72 7//69 14//76
f 7//69 11//73 14//76
f 11//73 8//70 9//71
f 12//74 15//77 9//71
f 1//65 16//78 12//74
f 13//75 17//79 1//65
f 13//75 10//72 18//80
f 18//80 10//72 14//76
f 14//76 11//73 9//71
f 19//81 9//71 15//77
f 12//74 20//82 15//77
f 16//78 21//83 12//74
f 22//84 16//78 1//65
f 17//79 23//85 1//65
f 17//79 13//75 24//86
f 24//86 13//75 18//80
f 18//80 14//76 9//71
f 19//81 25//87 9//71
f 26//88 19//81 15//77
f 20//82 27//89 15//77
f 12//74 28//90 20//82
f 21//83 28//90 12//74
f 26//88 21//83 16//78
f 19//81 16//78 22//84
f 23//85 22//84 1//65
f 23//85 17//79 29//91
f 29//91 17//79 24//86
f 24//86 18//80 9//71
f 25//87 29//91 9//71
f 25//87 19//81 22//84
f 19//81 26//88 16//78
f 30//92 26//88 15//77
f 31//93 15//77 27//89
f 20//82 32//94 27//89
f 28//90 33//95 20//82
f 21//83 34//96 28//90
f 26//88 30//92 21//83
f 25//87 22//84 23//85
f 29//91 25//87 23//85
f 29//91 24//86 9//71
f 31//93 30//92 15//77
f 35//97 31//93 27//89
f 32//94 35//97 27//89
f 20//82 33//95 32//94
f 31//93 33//95 28//90
f 28//90 34//96 30//92
f 30//92 34//96 21//83
f 28//90 30//92 31//93
f 36//98 31//93 35//97
f 32//94 37//99 35//97
f 33//95 38//100 32//94
f 36//98 33//95 31//93
f 39//101 36//98 35//97
f 37//99 40//102 35//97
f 41//103 37//99 32//94
f 38//100 41//103 32//94
f 36//98 38//100 33//95
f 39//101 38//100 36//98
f 42//104 39//101 35//97
f 40//102 43//105 35//97
f 37//99 44//106 40//102
f 41//103 45//107 37//99
f 41//103 38//100 39//101
f 42//104 41//103 39//101
f 43//105 42//104 35//97
f 46//108 43//105 40//102
f 44//106 46//108 40//102
f 45//107 44//106 37//99
f 45//107 41//103 43//105
f 43//105 41//103 42//104
f 47//109 43//105 46//108
f 44//106 48//110 46//108
f 45//107 48//110 44//106
f 43//105 49//111 45//107
f 50//112 43//105 47//109
f 48//110 47//109 46//108
f 45//107 51//113 48//110
f 49//111 52//114 45//107
f 49//111 43//105 53//115
f 54//116 43//105 50//112
f 51//113 50//112 47//109
f 48//110 51//113 47//109
f 45//107 55//117 51//113
f 45//107 52//114 56//118
f 49//111 53//115 52//114
f 53//115 43//105 57//119
f 58//120 43//105 54//116
f 55//117 54//116 50//112
f 51//113 55//117 50//112
f 45//107 59//121 55//117
f 53//115 56//118 52//114
f 45//107 56//118 60//122
f 57//119 43//105 61//123
f 56//118 53//115 57//119
f 61//123 43//105 58//120
f 54//116 59//121 58//120
f 55//117 59//121 54//116
f 45//107 62//124 59//121
f 60//122 56//118 57//119
f 45//107 60//122 62//124
f 61//123 60//122 57//119
f 58//120 62//124 61//123
f 59//121 62//124 58//120
f 62//124 60//122 61//123
