# SSTK version 0.8.0
# 38
mtllib original-38.mtl
o mesh33/mesh33-geometry#mesh33-geometry
v -0.080419 0.057698 -0.425484
v -0.114349 0.057698 -0.422367
v -0.114349 0.060883 -0.422367
v -0.073830 0.057698 -0.353772
v -0.107760 0.057698 -0.350655
v -0.080419 0.060883 -0.425484
v -0.073818 0.060883 -0.353645
v -0.107748 0.060883 -0.350527
v -0.068926 0.056109 -0.300407
v -0.068889 0.059286 -0.300000
v -0.102856 0.056109 -0.297289
v -0.102819 0.059286 -0.296882
v -0.061139 0.050538 -0.215659
v -0.061087 0.053706 -0.215097
v -0.095017 0.053706 -0.211979
v -0.095069 0.050538 -0.212541
v -0.049016 0.041771 -0.083732
v -0.048987 0.044951 -0.083411
v -0.082917 0.044951 -0.080293
v -0.082947 0.041771 -0.080615
v -0.032815 0.039921 0.092585
v -0.032812 0.043145 0.092624
v -0.066742 0.043145 0.095742
v -0.066745 0.039921 0.095703
v -0.027148 0.042042 0.154259
v -0.027207 0.044923 0.153621
v -0.061137 0.044923 0.156739
v -0.061078 0.042042 0.157377
v -0.025201 0.044977 0.175454
v -0.025317 0.047793 0.174187
v -0.059247 0.047793 0.177305
v -0.059131 0.044977 0.178571
vn 0.6028699067492959 -0.3333339484405755 -0.7248698878785841
vn -0.44389199763760673 -0.8164979956545976 -0.3691759980352455
vn -0.724871711006754 0.3333338671058137 -0.6028677596475238
vn 0.7035359229360864 -0.7070379225524843 -0.0716559921509462
vn -0.7054530531978641 -0.7069340533095455 0.05079600383050124
vn 0.369181999649831 0.8164979992255517 -0.44388699957897315
vn 0.705453806355426 0.7069338059491712 -0.05078898605860285
vn -0.7035360170392908 0.7070370171240833 0.07166400173566616
vn 0.7015024088308124 -0.7064474117127264 -0.09394905475286727
vn 0.7076468000547788 0.7060468005068578 -0.027090992345454586
vn -0.7076458970318683 -0.7060478972643901 0.027085996058771017
vn -0.7015039201923589 0.7064459196301249 0.09394898931175277
vn 0.6998976320397652 -0.7055866290488638 -0.1108639417150162
vn 0.7083996393899639 0.7055726408290443 -0.018362990652340195
vn -0.6998992850445404 0.7055852873602505 0.11086204515023984
vn -0.7083970411313044 -0.7055750409674519 0.018371001066666122
vn 0.7011873407329555 -0.7061863431621563 -0.09816904770398398
vn 0.7061286186828815 0.7066896183799356 -0.04440897601867076
vn -0.7011923464911283 0.7061873489593868 0.09812604848855712
vn -0.7061369164890755 -0.7066879164239118 0.04430399476041036
vn 0.7045057665958693 -0.7070217657623139 -0.06157797959909543
vn 0.7031695394476587 0.706956536967303 -0.0759279502697523
vn -0.7043820884010141 0.7070470887354757 0.06269200786794137
vn -0.7029670034635185 -0.7068960034828766 0.07832900038592684
vn 0.7089778596706082 -0.7050358604508559 -0.016577996718684124
vn 0.6980396803240762 0.7029846780594531 -0.13620993762097056
vn -0.7088200209155071 0.70513902080689 0.01879200055450481
vn -0.6979272579099929 -0.7029542597676565 0.13694105060479425
vn 0.45763086408342457 -0.4462918674511119 0.7690237715995893
vn 0.8049638899928373 0.5472249252156995 0.22929896866377594
vn -0.2545900428804773 0.8357291407614532 0.48656008195107814
vn -0.8132583949395173 -0.24842212064027006 0.5262102555414434
vn 0.724871711006754 -0.3333338671058137 0.6028677596475238
vn 0.44389199763760673 0.8164979956545976 0.3691759980352455
vn -0.6028699067492959 0.3333339484405755 0.7248698878785841
vn -0.7035359229360864 0.7070379225524843 0.0716559921509462
vn 0.7054530531978641 0.7069340533095455 -0.05079600383050124
vn -0.369181999649831 -0.8164979992255517 0.44388699957897315
vn -0.705453806355426 -0.7069338059491712 0.05078898605860285
vn 0.7035360170392908 -0.7070370171240833 -0.07166400173566616
vn -0.7015024088308124 0.7064474117127264 0.09394905475286727
vn -0.7076468000547788 -0.7060468005068578 0.027090992345454586
vn 0.7076458970318683 0.7060478972643901 -0.027085996058771017
vn 0.7015039201923589 -0.7064459196301249 -0.09394898931175277
vn -0.6998976320397652 0.7055866290488638 0.1108639417150162
vn -0.7083996393899639 -0.7055726408290443 0.018362990652340195
vn 0.6998992850445404 -0.7055852873602505 -0.11086204515023984
vn 0.7083970411313044 0.7055750409674519 -0.018371001066666122
vn -0.7011873407329555 0.7061863431621563 0.09816904770398398
vn -0.7061286186828815 -0.7066896183799356 0.04440897601867076
vn 0.7011923464911283 -0.7061873489593868 -0.09812604848855712
vn 0.7061369164890755 0.7066879164239118 -0.04430399476041036
vn -0.7045057665958693 0.7070217657623139 0.06157797959909543
vn -0.7031695394476587 -0.706956536967303 0.0759279502697523
vn 0.7043820884010141 -0.7070470887354757 -0.06269200786794137
vn 0.7029670034635185 0.7068960034828766 -0.07832900038592684
vn -0.7089778596706082 0.7050358604508559 0.016577996718684124
vn -0.6980396803240762 -0.7029846780594531 0.13620993762097056
vn 0.7088200209155071 -0.70513902080689 -0.01879200055450481
vn 0.6979272579099929 0.7029542597676565 -0.13694105060479425
vn -0.45763086408342457 0.4462918674511119 -0.7690237715995893
vn -0.8049638899928373 -0.5472249252156995 -0.22929896866377594
vn 0.2545900428804773 -0.8357291407614532 -0.48656008195107814
vn 0.8132583949395173 0.24842212064027006 -0.5262102555414434
usemtl material_0_0
f 1//1 2//2 3//3
f 4//4 2//2 1//1
f 5//5 3//3 2//2
f 1//1 3//3 6//6
f 4//4 5//5 2//2
f 7//7 4//4 1//1
f 8//8 3//3 5//5
f 6//6 3//3 8//8
f 7//7 1//1 6//6
f 9//9 5//5 4//4
f 10//10 4//4 7//7
f 11//11 8//8 5//5
f 7//7 6//6 8//8
f 9//9 11//11 5//5
f 10//10 9//9 4//4
f 10//10 7//7 12//12
f 12//12 8//8 11//11
f 7//7 8//8 12//12
f 13//13 11//11 9//9
f 14//14 9//9 10//10
f 10//10 12//12 15//15
f 16//16 12//12 11//11
f 13//13 16//16 11//11
f 14//14 13//13 9//9
f 14//14 10//10 15//15
f 15//15 12//12 16//16
f 17//17 16//16 13//13
f 18//18 13//13 14//14
f 14//14 15//15 19//19
f 20//20 15//15 16//16
f 17//17 20//20 16//16
f 18//18 17//17 13//13
f 18//18 14//14 19//19
f 19//19 15//15 20//20
f 21//21 20//20 17//17
f 22//22 17//17 18//18
f 18//18 19//19 23//23
f 24//24 19//19 20//20
f 21//21 24//24 20//20
f 22//22 21//21 17//17
f 22//22 18//18 23//23
f 23//23 19//19 24//24
f 25//25 24//24 21//21
f 26//26 21//21 22//22
f 22//22 23//23 27//27
f 28//28 23//23 24//24
f 25//25 28//28 24//24
f 25//25 21//21 26//26
f 26//26 22//22 27//27
f 28//28 27//27 23//23
f 29//29 28//28 25//25
f 30//30 25//25 26//26
f 26//26 27//27 31//31
f 32//32 27//27 28//28
f 29//29 32//32 28//28
f 29//29 25//25 30//30
f 30//30 26//26 31//31
f 32//32 31//31 27//27
f 29//29 31//31 32//32
f 29//29 30//30 31//31
usemtl material_1_0
f 3//33 2//34 1//35
f 1//35 2//34 4//36
f 2//34 3//33 5//37
f 6//38 3//33 1//35
f 2//34 5//37 4//36
f 1//35 4//36 7//39
f 5//37 3//33 8//40
f 8//40 3//33 6//38
f 6//38 1//35 7//39
f 4//36 5//37 9//41
f 7//39 4//36 10//42
f 5//37 8//40 11//43
f 8//40 6//38 7//39
f 5//37 11//43 9//41
f 4//36 9//41 10//42
f 12//44 7//39 10//42
f 11//43 8//40 12//44
f 12//44 8//40 7//39
f 9//41 11//43 13//45
f 10//42 9//41 14//46
f 15//47 12//44 10//42
f 11//43 12//44 16//48
f 11//43 16//48 13//45
f 9//41 13//45 14//46
f 15//47 10//42 14//46
f 16//48 12//44 15//47
f 13//45 16//48 17//49
f 14//46 13//45 18//50
f 19//51 15//47 14//46
f 16//48 15//47 20//52
f 16//48 20//52 17//49
f 13//45 17//49 18//50
f 19//51 14//46 18//50
f 20//52 15//47 19//51
f 17//49 20//52 21//53
f 18//50 17//49 22//54
f 23//55 19//51 18//50
f 20//52 19//51 24//56
f 20//52 24//56 21//53
f 17//49 21//53 22//54
f 23//55 18//50 22//54
f 24//56 19//51 23//55
f 21//53 24//56 25//57
f 22//54 21//53 26//58
f 27//59 23//55 22//54
f 24//56 23//55 28//60
f 24//56 28//60 25//57
f 26//58 21//53 25//57
f 27//59 22//54 26//58
f 23//55 27//59 28//60
f 25//57 28//60 29//61
f 26//58 25//57 30//62
f 31//63 27//59 26//58
f 28//60 27//59 32//64
f 28//60 32//64 29//61
f 30//62 25//57 29//61
f 31//63 26//58 30//62
f 27//59 31//63 32//64
f 32//64 31//63 29//61
f 31//63 30//62 29//61
