# SSTK version 0.8.0
# 19
mtllib original-19.mtl
o mesh17/mesh17-geometry#mesh17-geometry
v -0.056517 0.093487 0.009097
v -0.062425 0.093487 0.008150
v -0.065209 0.093487 0.008558
v -0.060941 0.093487 0.006773
v -0.058384 0.093487 0.011536
v -0.055816 0.093487 0.007315
v -0.061040 0.093487 0.012895
v -0.060502 0.093487 0.004193
v -0.064744 0.093487 0.013316
v -0.055434 0.093487 0.005169
v -0.067955 0.093487 0.013189
v -0.055319 0.093487 0.002395
v -0.068108 0.093487 0.008312
v -0.060502 0.093487 -0.009869
v -0.070199 0.093487 0.012765
v -0.055316 0.093487 -0.014732
v -0.071893 0.093487 0.011976
v -0.087029 0.093487 -0.014732
v -0.069506 0.093487 0.007110
v -0.069774 0.093487 -0.009869
v -0.073553 0.093487 0.010273
v -0.087029 0.093487 -0.009858
v -0.074627 0.093487 0.007787
v -0.075008 0.093487 -0.009858
v -0.069869 0.093487 0.004258
v -0.075008 0.093487 0.004728
vn 0 1 0
vn -9.999999999995e-7 1 0
vn 0 1 -0.000021999999994676
vn 0 1 -0.000043999999957408004
vn 0 1 -0.000028999999987805504
vn 0 -1 0
vn 9.999999999995e-7 -1 0
vn 0 -1 0.000021999999994676
vn 0 -1 0.000043999999957408004
vn 0 -1 0.000028999999987805504
usemtl material_0_0
f 1//1 2//1 3//1
f 1//1 4//1 2//1
f 1//1 3//1 5//1
f 6//1 4//1 1//1
f 5//1 3//1 7//1
f 6//1 8//1 4//1
f 7//1 3//1 9//1
f 10//1 8//1 6//1
f 9//1 3//1 11//2
f 12//1 8//1 10//1
f 3//1 13//2 11//2
f 12//1 14//1 8//1
f 11//2 13//2 15//2
f 16//1 14//1 12//1
f 13//2 17//2 15//2
f 16//1 18//1 14//1
f 13//2 19//2 17//2
f 14//1 18//1 20//3
f 19//2 21//1 17//2
f 20//3 18//1 22//4
f 19//2 23//1 21//1
f 20//3 22//4 24//5
f 19//2 25//1 23//1
f 20//3 24//5 25//1
f 25//1 26//1 23//1
f 25//1 24//5 26//1
usemtl material_1_0
f 3//6 2//6 1//6
f 2//6 4//6 1//6
f 5//6 3//6 1//6
f 1//6 4//6 6//6
f 7//6 3//6 5//6
f 4//6 8//6 6//6
f 9//6 3//6 7//6
f 6//6 8//6 10//6
f 11//7 3//6 9//6
f 10//6 8//6 12//6
f 11//7 13//7 3//6
f 8//6 14//6 12//6
f 15//7 13//7 11//7
f 12//6 14//6 16//6
f 15//7 17//7 13//7
f 14//6 18//6 16//6
f 17//7 19//7 13//7
f 20//8 18//6 14//6
f 17//7 21//6 19//7
f 22//9 18//6 20//8
f 21//6 23//6 19//7
f 24//10 22//9 20//8
f 23//6 25//6 19//7
f 25//6 24//10 20//8
f 23//6 26//6 25//6
f 26//6 24//10 25//6
