# SSTK version 0.8.0
# 18
mtllib original-18.mtl
o mesh16/mesh16-geometry#mesh16-geometry
v -0.062733 0.093487 -0.056201
v -0.087029 0.093487 -0.061048
v -0.087172 0.093487 -0.056201
v -0.055316 0.093487 -0.061048
v -0.055316 0.093487 -0.054850
v -0.077150 0.093487 -0.040397
v -0.087029 0.093487 -0.040458
v -0.062733 0.093487 -0.025300
v -0.055316 0.093487 -0.026589
v -0.055316 0.093487 -0.020093
v -0.087172 0.093487 -0.020093
v -0.087172 0.093487 -0.025238
vn 0 1 0
vn -9.999999999995e-7 1 0
vn 0 -1 0
vn 9.999999999995e-7 -1 0
usemtl material_0_0
f 1//1 2//1 3//1
f 4//1 2//1 1//1
f 5//1 4//1 1//1
f 5//1 1//1 6//1
f 1//1 7//1 6//1
f 8//1 6//1 7//1
f 9//2 6//1 8//1
f 10//1 9//2 8//1
f 10//1 8//1 11//1
f 8//1 12//1 11//1
usemtl material_1_0
f 3//3 2//3 1//3
f 1//3 2//3 4//3
f 1//3 4//3 5//3
f 6//3 1//3 5//3
f 6//3 7//3 1//3
f 7//3 6//3 8//3
f 8//3 6//3 9//4
f 8//3 9//4 10//3
f 11//3 8//3 10//3
f 11//3 12//3 8//3
