# SSTK version 0.8.0
# 1
mtllib original-1.mtl
o BLADE_MAIN1/BLADE_MAIN/mesh1/mesh1-geometry#mesh1-geometry
v 0.112769 -0.018170 0.426426
v 0.042172 -0.018175 0.504991
v 0.067435 -0.018176 0.517864
v 0.005590 -0.018175 0.382387
v 0.042172 -0.044166 0.504991
v 0.067435 -0.044166 0.517863
v 0.005590 -0.031171 0.382387
v -0.016213 -0.018175 0.387024
v 0.009436 -0.044166 0.568481
v 0.112769 -0.044173 0.426426
v 0.008014 -0.030991 0.375726
v 0.009436 -0.018175 0.568481
v -0.016214 -0.044166 0.387023
v 0.321448 -0.017421 -0.000613
v 0.002366 -0.030753 0.363613
v -0.010252 -0.018175 0.578979
v 0.005590 -0.044166 0.382387
v -0.010252 -0.044166 0.578979
v 0.321616 -0.033580 -0.001063
v 0.289587 -0.018536 0.033220
v -0.071091 -0.018176 0.535877
v -0.039036 -0.018175 0.576063
v -0.039036 -0.044166 0.576063
v 0.344841 -0.017736 -0.057998
v 0.301902 -0.018172 0.013600
v -0.062703 -0.018176 0.556672
v -0.071091 -0.044166 0.535876
v 0.293937 -0.018569 0.010616
v -0.062703 -0.044166 0.556672
v 0.175332 -0.024843 -0.069541
v 0.344957 -0.031877 -0.058307
v 0.317087 -0.017886 -0.014926
v 0.309945 -0.017950 -0.000718
v 0.297177 -0.023398 0.013564
v 0.195566 -0.024478 -0.109689
v 0.364159 -0.018357 -0.116898
v 0.323451 -0.017943 -0.029165
v 0.302950 -0.026059 -0.001386
v 0.297767 -0.018560 -0.005335
v 0.221443 -0.024054 -0.155492
v 0.364231 -0.030478 -0.117091
v 0.338944 -0.018267 -0.073212
v 0.329181 -0.018027 -0.043543
v 0.308790 -0.027941 -0.016509
v 0.302107 -0.018580 -0.020682
v 0.318495 -0.018859 -0.064467
v 0.372510 -0.018933 -0.157240
v 0.343010 -0.018467 -0.088779
v 0.334333 -0.018136 -0.058188
v 0.314673 -0.029035 -0.031746
v 0.307031 -0.018699 -0.035543
v 0.325096 -0.018866 -0.078752
v 0.312483 -0.018797 -0.050096
v 0.372555 -0.029034 -0.157362
v 0.349704 -0.018970 -0.122471
v 0.346577 -0.018698 -0.105021
v 0.332353 -0.027572 -0.077534
v 0.326478 -0.028850 -0.062318
v 0.320575 -0.029339 -0.047032
v 0.332435 -0.018919 -0.093049
v 0.250765 -0.023647 -0.197797
v 0.376170 -0.019640 -0.199331
v 0.343933 -0.022666 -0.107523
v 0.338179 -0.025507 -0.092622
v 0.340541 -0.018957 -0.107482
v 0.376195 -0.027722 -0.199397
v 0.287130 -0.023235 -0.238173
v 0.375813 -0.020507 -0.244143
v 0.321608 -0.022912 -0.267585
v 0.375821 -0.025557 -0.244164
v 0.369353 -0.021512 -0.292351
v 0.367133 -0.022599 -0.293159
v 0.369353 -0.023532 -0.292351
vn 0.40255930930249734 0.9132218944089976 0.06302201255067771
vn 0.2886920327920644 0.8724687349803462 0.39427809561802984
vn -0.004941028702317611 0.4097373127380804 0.9121901779703284
vn 0.06218108394786073 0.7230408927249196 -0.6880010030854756
vn -0.004202062884259654 -0.872463943121154 0.48866042465192966
vn 0.5481720167512792 -0.40974597791480477 0.7291197937468681
vn -0.015125411907949094 -0.00004200001389160333 -0.9998856035320309
vn -0.20620387880453042 0.9135699167060987 -0.3505281267681366
vn 0.6412712812182185 -0.5704900907495357 0.5131395524039546
vn 0.4821674298585815 -0.8742742111187348 0.056206524143411665
vn -0.9909834864972642 -0.012766007167439333 0.13337450487528568
vn 0.5219617657117347 0.5704897070355492 0.6341115117245401
vn -0.3299793162260669 -0.8636158044666171 -0.381157963498672
vn 0.4355589793213828 0.876631910298386 0.2044623911117097
vn -0.5414427332228262 0.8406981939399828 -0.008143300697301077
vn 0.07662010997033113 0.5697599326417933 0.8182316162946488
vn 0.06218518720737815 -0.7230409214516713 -0.6880006020333861
vn 0.23938041954458442 -0.5697604964423941 0.7861742754837348
vn 0.5249581163906604 -0.8245881313235299 0.21088714924323668
vn -0.03038581673789765 0.997174542021484 -0.06869959887375143
vn -0.9365656199108509 0.3340359201027475 -0.10613596790020989
vn -0.38962233202789104 0.5694832528512159 0.723797805403654
vn -0.23785748357199152 -0.5694832430703385 0.7868371199752139
vn 0.3912001462213675 0.9091659509863036 0.14275755378806004
vn -0.3995232841394683 0.8893483904711927 -0.22235239102989812
vn -0.7036400052321663 0.565495055910385 0.43023956672740793
vn -0.9329448167897184 -0.33401217613830136 0.1343496744192364
vn 0.4029990522074867 0.910643752147312 0.09121250240472642
vn -0.6206141002001397 -0.5654942962579503 0.5431890458509785
vn -0.22206807501831652 0.9708584619827654 -0.09010891661827106
vn 0.6562911433309305 -0.7232164098965552 0.2150347870501839
vn -0.40544951713414307 0.8928793097238874 -0.19590106513922917
vn -0.4721064636152746 0.8464020873569843 -0.2464122430611336
vn -0.15696545951300567 0.9536998304026678 -0.25655112163035587
vn -0.11923210909360674 0.9904626439492222 -0.06904676025858439
vn 0.4726761146993486 0.872293576268288 0.1252246277447388
vn -0.4811793610793335 0.8508129323171034 -0.2111487074865876
vn 0.05087382022824261 0.9902148268624604 -0.12994787830946591
vn 0.39715484439933885 0.9115992535096391 0.1060887862632319
vn -0.12809625045280112 0.987672846054581 -0.08996499200454246
vn 0.8051477187058529 -0.5647581940510324 0.18106720662499073
vn -0.42732999226905544 0.8941021537064902 -0.1340537819113852
vn -0.5354004204681581 0.8190352564177825 -0.20622230361233176
vn 0.03320574539218758 0.9958428144534883 -0.0848202061675427
vn 0.47674060023056364 0.8668646780978525 0.1458219117900619
vn 0.37378817600711145 0.9124230284174156 0.1666331800418763
vn 0.5737018232021831 0.8146908670618062 0.08452815614085821
vn -0.5616027855633859 0.8144318839991767 -0.1459555328618873
vn -0.42273262677909285 0.8943549195466446 -0.14637760805247244
vn 0.015566055220040212 0.9990875855466439 -0.03977052088500003
vn 0.4697438009572871 0.8676352363337806 0.16294127204065115
vn 0.44973242743824743 0.8653403566298254 0.22119405710431672
vn 0.4621870437963168 0.8678949646318806 0.1820479797016382
vn 0.6914998420145831 -0.7195334483854658 0.06402800284505619
vn -0.045608412755757395 0.9983840826781055 0.033898320620617955
vn -0.443479439209958 0.8905032683201098 -0.10163619487772861
vn -0.03734087302606103 0.9947442244272208 0.09533932646258224
vn -0.17819758989275833 0.9838735769936573 -0.015440318977212738
vn 0.22055533945138955 0.9715757254348393 0.08599972084401095
vn 0.44465179755961415 0.8629546197765651 0.2399877145465738
vn -0.7790464643471611 0.005794002017271779 -0.626939419664142
vn 0.581264377556675 0.813538162082426 0.016952351435698735
vn -0.06940313922545038 0.981453997327576 0.17869318788184257
vn 0.17085998976806047 0.9608735463298236 0.21801121957368758
vn 0.3625203420940033 0.9077798742696511 0.21098507397212546
vn 0.5843608439183556 -0.8112479085371979 -0.0199808655730698
vn -0.6962893866930705 0.008002006046396929 -0.7177165581744794
vn 0.6491320600764694 0.7594598736814293 -0.04299149739967409
vn -0.6074897118891458 0.007801005881015436 -0.794289238411353
vn 0.6540122986822386 -0.7506401106670454 -0.09384741568173437
vn 0.7872195159469202 0.3755181641603344 -0.4891539043061487
vn -0.4928549542047136 -0.024876007667872166 -0.8697558153633567
vn 0.5572878830227396 -0.5445951701826769 -0.6267745336640078
vn 0.004941028702317611 -0.4097373127380804 -0.9121901779703284
vn -0.2886920327920644 -0.8724687349803462 -0.39427809561802984
vn -0.40255930930249734 -0.9132218944089976 -0.06302201255067771
vn -0.06218108394786073 -0.7230408927249196 0.6880010030854756
vn 0.004202062884259654 0.872463943121154 -0.48866042465192966
vn -0.5481720167512792 0.40974597791480477 -0.7291197937468681
vn 0.015125411907949094 0.00004200001389160333 0.9998856035320309
vn 0.20620387880453042 -0.9135699167060987 0.3505281267681366
vn -0.6412712812182185 0.5704900907495357 -0.5131395524039546
vn -0.4821674298585815 0.8742742111187348 -0.056206524143411665
vn 0.9909834864972642 0.012766007167439333 -0.13337450487528568
vn -0.5219617657117347 -0.5704897070355492 -0.6341115117245401
vn 0.3299793162260669 0.8636158044666171 0.381157963498672
vn -0.4355589793213828 -0.876631910298386 -0.2044623911117097
vn 0.5414427332228262 -0.8406981939399828 0.008143300697301077
vn -0.07662010997033113 -0.5697599326417933 -0.8182316162946488
vn -0.06218518720737815 0.7230409214516713 0.6880006020333861
vn -0.23938041954458442 0.5697604964423941 -0.7861742754837348
vn -0.5249581163906604 0.8245881313235299 -0.21088714924323668
vn 0.03038581673789765 -0.997174542021484 0.06869959887375143
vn 0.9365656199108509 -0.3340359201027475 0.10613596790020989
vn 0.38962233202789104 -0.5694832528512159 -0.723797805403654
vn 0.23785748357199152 0.5694832430703385 -0.7868371199752139
vn -0.3912001462213675 -0.9091659509863036 -0.14275755378806004
vn 0.3995232841394683 -0.8893483904711927 0.22235239102989812
vn 0.7036400052321663 -0.565495055910385 -0.43023956672740793
vn 0.9329448167897184 0.33401217613830136 -0.1343496744192364
vn -0.4029990522074867 -0.910643752147312 -0.09121250240472642
vn 0.6206141002001397 0.5654942962579503 -0.5431890458509785
vn 0.22206807501831652 -0.9708584619827654 0.09010891661827106
vn -0.6562911433309305 0.7232164098965552 -0.2150347870501839
vn 0.40544951713414307 -0.8928793097238874 0.19590106513922917
vn 0.4721064636152746 -0.8464020873569843 0.2464122430611336
vn 0.15696545951300567 -0.9536998304026678 0.25655112163035587
vn 0.11923210909360674 -0.9904626439492222 0.06904676025858439
vn -0.4726761146993486 -0.872293576268288 -0.1252246277447388
vn 0.4811793610793335 -0.8508129323171034 0.2111487074865876
vn -0.05087382022824261 -0.9902148268624604 0.12994787830946591
vn -0.39715484439933885 -0.9115992535096391 -0.1060887862632319
vn 0.12809625045280112 -0.987672846054581 0.08996499200454246
vn -0.8051477187058529 0.5647581940510324 -0.18106720662499073
vn 0.42732999226905544 -0.8941021537064902 0.1340537819113852
vn 0.5354004204681581 -0.8190352564177825 0.20622230361233176
vn -0.03320574539218758 -0.9958428144534883 0.0848202061675427
vn -0.47674060023056364 -0.8668646780978525 -0.1458219117900619
vn -0.37378817600711145 -0.9124230284174156 -0.1666331800418763
vn -0.5737018232021831 -0.8146908670618062 -0.08452815614085821
vn 0.5616027855633859 -0.8144318839991767 0.1459555328618873
vn 0.42273262677909285 -0.8943549195466446 0.14637760805247244
vn -0.015566055220040212 -0.9990875855466439 0.03977052088500003
vn -0.4697438009572871 -0.8676352363337806 -0.16294127204065115
vn -0.44973242743824743 -0.8653403566298254 -0.22119405710431672
vn -0.4621870437963168 -0.8678949646318806 -0.1820479797016382
vn -0.6914998420145831 0.7195334483854658 -0.06402800284505619
vn 0.045608412755757395 -0.9983840826781055 -0.033898320620617955
vn 0.443479439209958 -0.8905032683201098 0.10163619487772861
vn 0.03734087302606103 -0.9947442244272208 -0.09533932646258224
vn 0.17819758989275833 -0.9838735769936573 0.015440318977212738
vn -0.22055533945138955 -0.9715757254348393 -0.08599972084401095
vn -0.44465179755961415 -0.8629546197765651 -0.2399877145465738
vn 0.7790464643471611 -0.005794002017271779 0.626939419664142
vn -0.581264377556675 -0.813538162082426 -0.016952351435698735
vn 0.06940313922545038 -0.981453997327576 -0.17869318788184257
vn -0.17085998976806047 -0.9608735463298236 -0.21801121957368758
vn -0.3625203420940033 -0.9077798742696511 -0.21098507397212546
vn -0.5843608439183556 0.8112479085371979 0.0199808655730698
vn 0.6962893866930705 -0.008002006046396929 0.7177165581744794
vn -0.6491320600764694 -0.7594598736814293 0.04299149739967409
vn 0.6074897118891458 -0.007801005881015436 0.794289238411353
vn -0.6540122986822386 0.7506401106670454 0.09384741568173437
vn -0.7872195159469202 -0.3755181641603344 0.4891539043061487
vn 0.4928549542047136 0.024876007667872166 0.8697558153633567
vn -0.5572878830227396 0.5445951701826769 0.6267745336640078
usemtl material_0_0
f 1//1 2//2 3//3
f 1//1 4//4 2//2
f 5//5 3//3 2//2
f 6//6 1//1 3//3
f 7//7 4//4 1//1
f 2//2 4//4 8//8
f 6//6 3//3 5//5
f 9//9 5//5 2//2
f 6//6 10//10 1//1
f 7//7 8//8 4//4
f 1//1 11//11 7//7
f 2//2 8//8 12//12
f 10//10 6//6 5//5
f 5//5 9//9 13//13
f 9//9 2//2 12//12
f 10//10 14//14 1//1
f 13//13 8//8 7//7
f 1//1 15//15 11//11
f 10//10 7//7 11//11
f 12//12 8//8 16//16
f 10//10 5//5 17//17
f 9//9 18//18 13//13
f 5//5 13//13 17//17
f 18//18 9//9 12//12
f 10//10 19//19 14//14
f 14//14 20//20 1//1
f 21//21 8//8 13//13
f 13//13 7//7 17//17
f 20//20 15//15 1//1
f 10//10 11//11 15//15
f 10//10 17//17 7//7
f 16//16 8//8 22//22
f 18//18 12//12 16//16
f 18//18 23//23 13//13
f 19//19 10//10 15//15
f 14//14 19//19 24//24
f 14//14 25//25 20//20
f 26//26 8//8 21//21
f 21//21 13//13 27//27
f 20//20 28//28 15//15
f 22//22 8//8 26//26
f 23//23 16//16 22//22
f 23//23 18//18 16//16
f 23//23 29//29 13//13
f 19//19 15//15 30//30
f 19//19 31//31 24//24
f 24//24 32//32 14//14
f 14//14 33//33 25//25
f 20//20 25//25 34//34
f 26//26 21//21 27//27
f 29//29 27//27 13//13
f 20//20 34//34 28//28
f 28//28 30//30 15//15
f 29//29 22//22 26//26
f 23//23 22//22 29//29
f 19//19 30//30 35//35
f 31//31 19//19 35//35
f 24//24 31//31 36//36
f 24//24 37//37 32//32
f 14//14 32//32 33//33
f 34//34 25//25 33//33
f 26//26 27//27 29//29
f 34//34 38//38 28//28
f 28//28 39//39 30//30
f 39//39 35//35 30//30
f 31//31 35//35 40//40
f 31//31 41//41 36//36
f 24//24 36//36 42//42
f 24//24 43//43 37//37
f 44//44 32//32 37//37
f 38//38 33//33 32//32
f 34//34 33//33 38//38
f 28//28 38//38 39//39
f 39//39 45//45 35//35
f 46//46 40//40 35//35
f 31//31 40//40 41//41
f 36//36 41//41 47//47
f 36//36 48//48 42//42
f 24//24 42//42 49//49
f 24//24 49//49 43//43
f 50//50 37//37 43//43
f 38//38 32//32 44//44
f 44//44 37//37 50//50
f 38//38 44//44 39//39
f 39//39 44//44 45//45
f 45//45 51//51 35//35
f 52//52 40//40 46//46
f 46//46 35//35 53//53
f 41//41 40//40 54//54
f 41//41 54//54 47//47
f 36//36 47//47 55//55
f 36//36 56//56 48//48
f 42//42 48//48 57//57
f 49//49 42//42 58//58
f 43//43 49//49 58//58
f 50//50 43//43 59//59
f 44//44 50//50 45//45
f 45//45 50//50 51//51
f 53//53 35//35 51//51
f 60//60 40//40 52//52
f 46//46 57//57 52//52
f 53//53 58//58 46//46
f 54//54 40//40 61//61
f 47//47 54//54 62//62
f 47//47 40//40 55//55
f 36//36 55//55 56//56
f 48//48 56//56 63//63
f 57//57 48//48 64//64
f 58//58 42//42 57//57
f 43//43 58//58 59//59
f 50//50 59//59 51//51
f 51//51 59//59 53//53
f 65//65 40//40 60//60
f 52//52 64//64 60//60
f 46//46 58//58 57//57
f 52//52 57//57 64//64
f 59//59 58//58 53//53
f 47//47 61//61 40//40
f 54//54 61//61 66//66
f 54//54 66//66 62//62
f 47//47 62//62 61//61
f 55//55 40//40 65//65
f 56//56 55//55 63//63
f 48//48 63//63 64//64
f 60//60 63//63 65//65
f 60//60 64//64 63//63
f 66//66 61//61 67//67
f 62//62 66//66 68//68
f 62//62 67//67 61//61
f 65//65 63//63 55//55
f 66//66 67//67 69//69
f 66//66 70//70 68//68
f 62//62 68//68 69//69
f 62//62 69//69 67//67
f 66//66 69//69 70//70
f 68//68 70//70 71//71
f 68//68 72//72 69//69
f 70//70 69//69 72//72
f 70//70 73//73 71//71
f 68//68 71//71 72//72
f 70//70 72//72 73//73
f 73//73 72//72 71//71
usemtl material_1_0
f 3//74 2//75 1//76
f 2//75 4//77 1//76
f 2//75 3//74 5//78
f 3//74 1//76 6//79
f 1//76 4//77 7//80
f 8//81 4//77 2//75
f 5//78 3//74 6//79
f 2//75 5//78 9//82
f 1//76 10//83 6//79
f 4//77 8//81 7//80
f 7//80 11//84 1//76
f 12//85 8//81 2//75
f 5//78 6//79 10//83
f 13//86 9//82 5//78
f 12//85 2//75 9//82
f 1//76 14//87 10//83
f 7//80 8//81 13//86
f 11//84 15//88 1//76
f 11//84 7//80 10//83
f 16//89 8//81 12//85
f 17//90 5//78 10//83
f 13//86 18//91 9//82
f 17//90 13//86 5//78
f 12//85 9//82 18//91
f 14//87 19//92 10//83
f 1//76 20//93 14//87
f 13//86 8//81 21//94
f 17//90 7//80 13//86
f 1//76 15//88 20//93
f 15//88 11//84 10//83
f 7//80 17//90 10//83
f 22//95 8//81 16//89
f 16//89 12//85 18//91
f 13//86 23//96 18//91
f 15//88 10//83 19//92
f 24//97 19//92 14//87
f 20//93 25//98 14//87
f 21//94 8//81 26//99
f 27//100 13//86 21//94
f 15//88 28//101 20//93
f 26//99 8//81 22//95
f 22//95 16//89 23//96
f 16//89 18//91 23//96
f 13//86 29//102 23//96
f 30//103 15//88 19//92
f 24//97 31//104 19//92
f 14//87 32//105 24//97
f 25//98 33//106 14//87
f 34//107 25//98 20//93
f 27//100 21//94 26//99
f 13//86 27//100 29//102
f 28//101 34//107 20//93
f 15//88 30//103 28//101
f 26//99 22//95 29//102
f 29//102 22//95 23//96
f 35//108 30//103 19//92
f 35//108 19//92 31//104
f 36//109 31//104 24//97
f 32//105 37//110 24//97
f 33//106 32//105 14//87
f 33//106 25//98 34//107
f 29//102 27//100 26//99
f 28//101 38//111 34//107
f 30//103 39//112 28//101
f 30//103 35//108 39//112
f 40//113 35//108 31//104
f 36//109 41//114 31//104
f 42//115 36//109 24//97
f 37//110 43//116 24//97
f 37//110 32//105 44//117
f 32//105 33//106 38//111
f 38//111 33//106 34//107
f 39//112 38//111 28//101
f 35//108 45//118 39//112
f 35//108 40//113 46//119
f 41//114 40//113 31//104
f 47//120 41//114 36//109
f 42//115 48//121 36//109
f 49//122 42//115 24//97
f 43//116 49//122 24//97
f 43//116 37//110 50//123
f 44//117 32//105 38//111
f 50//123 37//110 44//117
f 39//112 44//117 38//111
f 45//118 44//117 39//112
f 35//108 51//124 45//118
f 46//119 40//113 52//125
f 53//126 35//108 46//119
f 54//127 40//113 41//114
f 47//120 54//127 41//114
f 55//128 47//120 36//109
f 48//121 56//129 36//109
f 57//130 48//121 42//115
f 58//131 42//115 49//122
f 58//131 49//122 43//116
f 59//132 43//116 50//123
f 45//118 50//123 44//117
f 51//124 50//123 45//118
f 51//124 35//108 53//126
f 52//125 40//113 60//133
f 52//125 57//130 46//119
f 46//119 58//131 53//126
f 61//134 40//113 54//127
f 62//135 54//127 47//120
f 55//128 40//113 47//120
f 56//129 55//128 36//109
f 63//136 56//129 48//121
f 64//137 48//121 57//130
f 57//130 42//115 58//131
f 59//132 58//131 43//116
f 51//124 59//132 50//123
f 53//126 59//132 51//124
f 60//133 40//113 65//138
f 60//133 64//137 52//125
f 57//130 58//131 46//119
f 64//137 57//130 52//125
f 53//126 58//131 59//132
f 40//113 61//134 47//120
f 66//139 61//134 54//127
f 62//135 66//139 54//127
f 61//134 62//135 47//120
f 65//138 40//113 55//128
f 63//136 55//128 56//129
f 64//137 63//136 48//121
f 65//138 63//136 60//133
f 63//136 64//137 60//133
f 67//140 61//134 66//139
f 68//141 66//139 62//135
f 61//134 67//140 62//135
f 55//128 63//136 65//138
f 69//142 67//140 66//139
f 68//141 70//143 66//139
f 69//142 68//141 62//135
f 67//140 69//142 62//135
f 70//143 69//142 66//139
f 71//144 70//143 68//141
f 69//142 72//145 68//141
f 72//145 69//142 70//143
f 71//144 73//146 70//143
f 72//145 71//144 68//141
f 73//146 72//145 70//143
f 71//144 72//145 73//146
