# SSTK version 0.8.0
# 12
mtllib original-12.mtl
o mesh11/mesh11-geometry#mesh11-geometry
v 0.043917 0.021848 0.517863
v 0.018597 0.021848 0.568602
v 0.033617 0.021848 0.549028
v -0.000977 0.021848 0.583621
v 0.018597 0.013017 0.568602
v 0.033617 0.013017 0.549028
v -0.023771 0.021848 0.593063
v -0.000977 0.013017 0.583621
v 0.043917 0.013017 0.517863
v -0.048233 0.021848 0.596284
v -0.023771 0.013017 0.593063
v 0.052186 0.021848 0.423351
v -0.072694 0.021848 0.593063
v -0.048233 0.013017 0.596284
v 0.052186 0.013017 0.423351
v -0.140382 0.021848 0.517863
v -0.095489 0.021848 0.583621
v -0.072694 0.013017 0.593063
v -0.140382 0.013017 0.517863
v 0.069908 0.021848 -0.226421
v -0.148652 0.021848 0.423351
v -0.130083 0.021848 0.549027
v -0.115063 0.021848 0.568602
v -0.095489 0.013017 0.583621
v -0.130083 0.013017 0.549027
v -0.148652 0.013017 0.423351
v 0.069908 0.013017 -0.226421
v 0.005007 0.021848 0.042622
v -0.091868 0.021848 0.042622
v -0.115063 0.013017 0.568602
v -0.166373 0.013017 -0.250049
v 0.069908 0.021848 -0.344561
v 0.005007 0.021848 -0.030035
v -0.019211 0.021848 0.042622
v -0.116087 0.021848 0.042622
v 0.069908 0.013017 -0.344561
v -0.166373 0.021848 -0.250049
v 0.005007 0.021848 -0.054253
v -0.019211 0.021848 -0.005816
v -0.166373 0.013017 -0.344561
v 0.065882 0.021848 -0.375138
v -0.166373 0.021848 -0.344561
v 0.005007 0.021848 -0.223785
v 0.005007 0.021848 -0.078472
v -0.116087 0.021848 -0.030035
v -0.091868 0.021848 -0.005816
v -0.162347 0.013017 -0.375138
v 0.065882 0.013017 -0.375138
v -0.162347 0.021848 -0.375138
v -0.116087 0.021848 -0.223785
v 0.005007 0.021848 -0.199566
v 0.005007 0.021848 -0.102691
v -0.116087 0.021848 -0.054253
v 0.054080 0.021848 -0.403631
v -0.116087 0.021848 -0.199566
v 0.005007 0.021848 -0.175347
v 0.005007 0.021848 -0.126910
v -0.043430 0.021848 -0.102691
v -0.116087 0.021848 -0.078472
v 0.054080 0.013017 -0.403631
v 0.035305 0.021848 -0.428099
v -0.150545 0.013017 -0.403631
v -0.116087 0.021848 -0.175347
v -0.043430 0.021848 -0.199566
v 0.005007 0.021848 -0.151128
v -0.043430 0.021848 -0.078472
v -0.116087 0.021848 -0.102691
v 0.035305 0.013017 -0.428099
v 0.010837 0.021848 -0.446873
v -0.150545 0.021848 -0.403631
v -0.131771 0.013017 -0.428099
v -0.116087 0.021848 -0.151128
v -0.067649 0.021848 -0.175347
v -0.043430 0.021848 -0.175347
v -0.116087 0.021848 -0.126910
v -0.067649 0.021848 -0.102691
v 0.010837 0.013017 -0.446873
v -0.017656 0.021848 -0.458676
v -0.131771 0.021848 -0.428099
v -0.107303 0.013017 -0.446874
v -0.067649 0.021848 -0.199566
v -0.067649 0.021848 -0.078472
v -0.017656 0.013017 -0.458676
v -0.048233 0.021848 -0.462701
v -0.107303 0.021848 -0.446874
v -0.078810 0.013017 -0.458676
v -0.048233 0.013017 -0.462701
v -0.078810 0.021848 -0.458676
vn 0.2774440168727585 0.9582970582788375 0.06849500416552387
vn 0.5606620572354692 0.5576310569260481 0.612132062489811
vn 0.8111003739481804 0.31981014744466474 0.48973222578521813
vn 0.3831298368346153 0.5576307625190495 0.7363826863930903
vn 0.6121288138032978 -0.5576308303804374 0.5606658294572546
vn 0.8610355661242876 -0.31980983884786285 0.39539780075909864
vn 0.17948696772519468 0.5576308997284936 0.8104518542669921
vn 0.4461622537537384 -0.5576313171515077 0.6999903981179022
vn 0.2819190633614575 -0.9582972153778024 0.04677701051315774
vn -0.03639299371691414 0.5576309037275421 0.8292908568266778
vn 0.2497920603005598 -0.557631134613845 0.7916131910978221
vn 0.44605891179029766 0.8944988231097445 0.03005499405652042
vn -0.24979206030056014 0.557631134613845 0.7916131910978221
vn 0.03639399239223684 -0.5576308834334099 0.829290826645893
vn 0.5991762513050581 -0.8001153355824442 0.028342011887138394
vn -0.695478820757744 0.7092198172163462 0.11539697025931953
vn -0.44616225375373875 0.5576313171515077 0.699990398117902
vn -0.179486967725195 -0.5576308997284936 0.8104518542669921
vn -0.6844389283354836 -0.7092189257408817 0.16897298230760022
vn 0.24247703302513168 0.9701471321330782 0.004408000600365368
vn -0.5991891098068071 0.8001191466290482 0.027960005123922917
vn -0.7532008597125869 0.5595148957875626 0.3458779355785109
vn -0.6121307526520919 0.5576317746738709 0.5606627734491142
vn -0.3831301189647941 -0.5576311731486884 0.7363822286522403
vn -0.7095213198334809 -0.5595142522142547 0.4283961931096948
vn -0.8300800841796707 -0.554859056269092 0.055664005644970406
vn 0.831994810432916 -0.5547318736062985 0.00756199827702554
vn 0 1 0
vn -0.5606630860923466 -0.5576310856267691 0.6121310939954911
vn -0.5998781353034285 -0.8000221804462232 0.010523002373479104
vn 0.5986989987924242 0.8005479983852948 -0.02612299994730978
vn 0.596986933439244 -0.8005479107433159 -0.052245994174859194
vn -0.20950496928343118 0.9778058566390049 0.0018369997306682579
vn -0.8307716624538036 -0.5554317743256165 -0.036248985271877344
vn 0.81045277928983 0.5576308481406907 -0.1794829511215042
vn -0.8283956916541987 0.5554317932569386 -0.0724989730144012
vn -0.2550749444388164 -0.9652697897420613 -0.05648898769540062
vn 0.7916141576586831 -0.5576311110583808 -0.24978904974824176
vn -0.2491450150258117 0.9652700582149563 -0.07861600474129214
vn 0.7363832506523829 0.5576311898082096 -0.3831281304103245
vn 0.6999903981179022 -0.5576313171515077 -0.4461622537537384
vn 0.6121307507961129 0.5576307729835398 -0.5606637717487789
vn -0.8409435559562708 -0.3184048318725818 -0.4375297689709985
vn 0.5606627734491144 -0.5576317746738709 -0.6121307526520917
vn 0.4461619414443723 0.557630926814849 -0.6999909081310992
vn -0.7993832234636143 0.31840508900856307 -0.5095141424321511
vn -0.6121307507961127 -0.5576307729835398 -0.5606637717487791
vn 0.38312813041032484 -0.5576311898082096 -0.7363832506523826
vn 0.24978998735350813 0.557630971767981 -0.7916139599217736
vn -0.5606630860923464 0.5576310856267691 -0.6121310939954914
vn -0.446161941444372 -0.557630926814849 -0.6999909081310994
vn 0.17948406437008685 -0.5576311999886107 -0.8104522906602565
vn 0.036393992392237215 0.5576308834334099 -0.829290826645893
vn -0.3831281304103245 0.5576311898082096 -0.7363832506523829
vn -0.24978904974824176 -0.5576311110583808 -0.7916141576586831
vn -0.036391995041481655 -0.5576309240211189 -0.8292908870066364
vn -0.1794829511215042 0.5576308481406907 -0.81045277928983
vn -0.8111003739481804 -0.31981014744466474 -0.48973222578521813
vn -0.5606620572354692 -0.5576310569260481 -0.612132062489811
vn -0.2774440168727585 -0.9582970582788375 -0.06849500416552387
vn -0.3831298368346153 -0.5576307625190495 -0.7363826863930903
vn -0.6121288138032978 0.5576308303804374 -0.5606658294572546
vn -0.8610355661242876 0.31980983884786285 -0.39539780075909864
vn -0.17948696772519468 -0.5576308997284936 -0.8104518542669921
vn -0.4461622537537384 0.5576313171515077 -0.6999903981179022
vn -0.2819190633614575 0.9582972153778024 -0.04677701051315774
vn 0.03639299371691414 -0.5576309037275421 -0.8292908568266778
vn -0.2497920603005598 0.557631134613845 -0.7916131910978221
vn -0.44605891179029766 -0.8944988231097445 -0.03005499405652042
vn 0.24979206030056014 -0.557631134613845 -0.7916131910978221
vn -0.03639399239223684 0.5576308834334099 -0.829290826645893
vn -0.5991762513050581 0.8001153355824442 -0.028342011887138394
vn 0.695478820757744 -0.7092198172163462 -0.11539697025931953
vn 0.44616225375373875 -0.5576313171515077 -0.699990398117902
vn 0.179486967725195 0.5576308997284936 -0.8104518542669921
vn 0.6844389283354836 0.7092189257408817 -0.16897298230760022
vn -0.24247703302513168 -0.9701471321330782 -0.004408000600365368
vn 0.5991891098068071 -0.8001191466290482 -0.027960005123922917
vn 0.7532008597125869 -0.5595148957875626 -0.3458779355785109
vn 0.6121307526520919 -0.5576317746738709 -0.5606627734491142
vn 0.3831301189647941 0.5576311731486884 -0.7363822286522403
vn 0.7095213198334809 0.5595142522142547 -0.4283961931096948
vn 0.8300800841796707 0.554859056269092 -0.055664005644970406
vn -0.831994810432916 0.5547318736062985 -0.00756199827702554
vn 0 -1 0
vn 0.5606630860923466 0.5576310856267691 -0.6121310939954911
vn 0.5998781353034285 0.8000221804462232 -0.010523002373479104
vn -0.5986989987924242 -0.8005479983852948 0.02612299994730978
vn -0.596986933439244 0.8005479107433159 0.052245994174859194
vn 0.20950496928343118 -0.9778058566390049 -0.0018369997306682579
vn 0.8307716624538036 0.5554317743256165 0.036248985271877344
vn -0.81045277928983 -0.5576308481406907 0.1794829511215042
vn 0.8283956916541987 -0.5554317932569386 0.0724989730144012
vn 0.2550749444388164 0.9652697897420613 0.05648898769540062
vn -0.7916141576586831 0.5576311110583808 0.24978904974824176
vn 0.2491450150258117 -0.9652700582149563 0.07861600474129214
vn -0.7363832506523829 -0.5576311898082096 0.3831281304103245
vn -0.6999903981179022 0.5576313171515077 0.4461622537537384
vn -0.6121307507961129 -0.5576307729835398 0.5606637717487789
vn 0.8409435559562708 0.3184048318725818 0.4375297689709985
vn -0.5606627734491144 0.5576317746738709 0.6121307526520917
vn -0.4461619414443723 -0.557630926814849 0.6999909081310992
vn 0.7993832234636143 -0.31840508900856307 0.5095141424321511
vn 0.6121307507961127 0.5576307729835398 0.5606637717487791
vn -0.38312813041032484 0.5576311898082096 0.7363832506523826
vn -0.24978998735350813 -0.557630971767981 0.7916139599217736
vn 0.5606630860923464 -0.5576310856267691 0.6121310939954914
vn 0.446161941444372 0.557630926814849 0.6999909081310994
vn -0.17948406437008685 0.5576311999886107 0.8104522906602565
vn -0.036393992392237215 -0.5576308834334099 0.829290826645893
vn 0.3831281304103245 -0.5576311898082096 0.7363832506523829
vn 0.24978904974824176 0.5576311110583808 0.7916141576586831
vn 0.036391995041481655 0.5576309240211189 0.8292908870066364
vn 0.1794829511215042 -0.5576308481406907 0.81045277928983
usemtl material_0_0
f 1//1 2//2 3//3
f 1//1 4//4 2//2
f 5//5 3//3 2//2
f 6//6 1//1 3//3
f 1//1 7//7 4//4
f 8//8 2//2 4//4
f 5//5 6//6 3//3
f 5//5 2//2 8//8
f 6//6 9//9 1//1
f 1//1 10//10 7//7
f 11//11 4//4 7//7
f 8//8 4//4 11//11
f 9//9 6//6 5//5
f 9//9 5//5 8//8
f 9//9 12//12 1//1
f 1//1 13//13 10//10
f 14//14 7//7 10//10
f 11//11 7//7 14//14
f 9//9 8//8 11//11
f 9//9 15//15 12//12
f 12//12 16//16 1//1
f 1//1 17//17 13//13
f 18//18 10//10 13//13
f 14//14 10//10 18//18
f 9//9 11//11 14//14
f 15//15 9//9 19//19
f 15//15 20//20 12//12
f 12//12 21//21 16//16
f 1//1 16//16 22//22
f 1//1 23//23 17//17
f 24//24 13//13 17//17
f 18//18 13//13 24//24
f 9//9 14//14 18//18
f 9//9 25//25 19//19
f 15//15 19//19 26//26
f 15//15 27//27 20//20
f 20//20 28//28 12//12
f 12//12 29//28 21//21
f 16//16 21//21 26//26
f 22//22 16//16 19//19
f 1//1 22//22 23//23
f 30//29 17//17 23//23
f 24//24 17//17 30//29
f 9//9 18//18 24//24
f 9//9 30//29 25//25
f 22//22 19//19 25//25
f 16//16 26//26 19//19
f 15//15 26//26 31//30
f 27//27 15//15 31//30
f 27//27 32//31 20//20
f 20//20 33//28 28//28
f 12//12 28//28 34//28
f 12//12 34//28 29//28
f 29//28 35//28 21//21
f 21//21 31//30 26//26
f 23//23 22//22 25//25
f 23//23 25//25 30//29
f 9//9 24//24 30//29
f 27//27 31//30 36//32
f 27//27 36//32 32//31
f 32//31 37//33 20//20
f 20//20 38//28 33//28
f 39//28 29//28 34//28
f 35//28 37//33 21//21
f 21//21 37//33 31//30
f 36//32 31//30 40//34
f 36//32 41//35 32//31
f 32//31 42//36 37//33
f 20//20 37//33 43//28
f 20//20 44//28 38//28
f 38//28 45//28 33//28
f 39//28 46//28 29//28
f 45//28 37//33 35//28
f 37//33 40//34 31//30
f 36//32 40//34 47//37
f 36//32 48//38 41//35
f 32//31 41//35 49//39
f 32//31 49//39 42//36
f 37//33 42//36 40//34
f 43//28 37//33 50//28
f 20//20 43//28 51//28
f 20//20 52//28 44//28
f 38//28 53//28 45//28
f 53//28 37//33 45//28
f 42//36 47//37 40//34
f 36//32 47//37 48//38
f 48//38 54//40 41//35
f 41//35 54//40 49//39
f 42//36 49//39 47//37
f 50//28 37//33 55//28
f 20//20 51//28 56//28
f 20//20 57//28 52//28
f 52//28 58//28 44//28
f 59//28 37//33 53//28
f 48//38 47//37 60//41
f 48//38 60//41 54//40
f 54//40 61//42 49//39
f 49//39 62//43 47//37
f 55//28 37//33 63//28
f 51//28 64//28 56//28
f 20//20 56//28 65//28
f 20//20 65//28 57//28
f 44//28 58//28 66//28
f 67//28 37//33 59//28
f 60//41 47//37 68//44
f 60//41 61//42 54//40
f 61//42 69//45 49//39
f 49//39 70//46 62//43
f 71//47 47//37 62//43
f 63//28 37//33 72//28
f 73//28 55//28 63//28
f 56//28 64//28 74//28
f 65//28 75//28 57//28
f 75//28 37//33 67//28
f 76//28 67//28 59//28
f 68//44 47//37 77//48
f 60//41 68//44 61//42
f 68//44 69//45 61//42
f 69//45 78//49 49//39
f 79//50 70//46 49//39
f 70//46 71//47 62//43
f 80//51 47//37 71//47
f 72//28 37//33 75//28
f 81//28 55//28 73//28
f 65//28 72//28 75//28
f 76//28 59//28 82//28
f 77//48 47//37 83//52
f 77//48 69//45 68//44
f 77//48 78//49 69//45
f 78//49 84//53 49//39
f 70//46 79//50 71//47
f 85//54 79//50 49//39
f 86//55 47//37 80//51
f 71//47 79//50 80//51
f 83//52 47//37 87//56
f 77//48 83//52 78//49
f 83//52 84//53 78//49
f 84//53 88//57 49//39
f 80//51 79//50 85//54
f 88//57 85//54 49//39
f 87//56 47//37 86//55
f 86//55 80//51 85//54
f 83//52 87//56 84//53
f 87//56 88//57 84//53
f 86//55 85//54 88//57
f 86//55 88//57 87//56
usemtl material_1_0
f 3//58 2//59 1//60
f 2//59 4//61 1//60
f 2//59 3//58 5//62
f 3//58 1//60 6//63
f 4//61 7//64 1//60
f 4//61 2//59 8//65
f 3//58 6//63 5//62
f 8//65 2//59 5//62
f 1//60 9//66 6//63
f 7//64 10//67 1//60
f 7//64 4//61 11//68
f 11//68 4//61 8//65
f 5//62 6//63 9//66
f 8//65 5//62 9//66
f 1//60 12//69 9//66
f 10//67 13//70 1//60
f 10//67 7//64 14//71
f 14//71 7//64 11//68
f 11//68 8//65 9//66
f 12//69 15//72 9//66
f 1//60 16//73 12//69
f 13//70 17//74 1//60
f 13//70 10//67 18//75
f 18//75 10//67 14//71
f 14//71 11//68 9//66
f 19//76 9//66 15//72
f 12//69 20//77 15//72
f 16//73 21//78 12//69
f 22//79 16//73 1//60
f 17//74 23//80 1//60
f 17//74 13//70 24//81
f 24//81 13//70 18//75
f 18//75 14//71 9//66
f 19//76 25//82 9//66
f 26//83 19//76 15//72
f 20//77 27//84 15//72
f 12//69 28//85 20//77
f 21//78 29//85 12//69
f 26//83 21//78 16//73
f 19//76 16//73 22//79
f 23//80 22//79 1//60
f 23//80 17//74 30//86
f 30//86 17//74 24//81
f 24//81 18//75 9//66
f 25//82 30//86 9//66
f 25//82 19//76 22//79
f 19//76 26//83 16//73
f 31//87 26//83 15//72
f 31//87 15//72 27//84
f 20//77 32//88 27//84
f 28//85 33//85 20//77
f 34//85 28//85 12//69
f 29//85 34//85 12//69
f 21//78 35//85 29//85
f 26//83 31//87 21//78
f 25//82 22//79 23//80
f 30//86 25//82 23//80
f 30//86 24//81 9//66
f 36//89 31//87 27//84
f 32//88 36//89 27//84
f 20//77 37//90 32//88
f 33//85 38//85 20//77
f 34//85 29//85 39//85
f 21//78 37//90 35//85
f 31//87 37//90 21//78
f 40//91 31//87 36//89
f 32//88 41//92 36//89
f 37//90 42//93 32//88
f 43//85 37//90 20//77
f 38//85 44//85 20//77
f 33//85 45//85 38//85
f 29//85 46//85 39//85
f 35//85 37//90 45//85
f 31//87 40//91 37//90
f 47//94 40//91 36//89
f 41//92 48//95 36//89
f 49//96 41//92 32//88
f 42//93 49//96 32//88
f 40//91 42//93 37//90
f 50//85 37//90 43//85
f 51//85 43//85 20//77
f 44//85 52//85 20//77
f 45//85 53//85 38//85
f 45//85 37//90 53//85
f 40//91 47//94 42//93
f 48//95 47//94 36//89
f 41//92 54//97 48//95
f 49//96 54//97 41//92
f 47//94 49//96 42//93
f 55//85 37//90 50//85
f 56//85 51//85 20//77
f 52//85 57//85 20//77
f 44//85 58//85 52//85
f 53//85 37//90 59//85
f 60//98 47//94 48//95
f 54//97 60//98 48//95
f 49//96 61//99 54//97
f 47//94 62//100 49//96
f 63//85 37//90 55//85
f 56//85 64//85 51//85
f 65//85 56//85 20//77
f 57//85 65//85 20//77
f 66//85 58//85 44//85
f 59//85 37//90 67//85
f 68//101 47//94 60//98
f 54//97 61//99 60//98
f 49//96 69//102 61//99
f 62//100 70//103 49//96
f 62//100 47//94 71//104
f 72//85 37//90 63//85
f 63//85 55//85 73//85
f 74//85 64//85 56//85
f 57//85 75//85 65//85
f 67//85 37//90 75//85
f 59//85 67//85 76//85
f 77//105 47//94 68//101
f 61//99 68//101 60//98
f 61//99 69//102 68//101
f 49//96 78//106 69//102
f 49//96 70//103 79//107
f 62//100 71//104 70//103
f 71//104 47//94 80//108
f 75//85 37//90 72//85
f 73//85 55//85 81//85
f 75//85 72//85 65//85
f 82//85 59//85 76//85
f 83//109 47//94 77//105
f 68//101 69//102 77//105
f 69//102 78//106 77//105
f 49//96 84//110 78//106
f 71//104 79//107 70//103
f 49//96 79//107 85//111
f 80//108 47//94 86//112
f 80//108 79//107 71//104
f 87//113 47//94 83//109
f 78//106 83//109 77//105
f 78//106 84//110 83//109
f 49//96 88//114 84//110
f 85//111 79//107 80//108
f 49//96 85//111 88//114
f 86//112 47//94 87//113
f 85//111 80//108 86//112
f 84//110 87//113 83//109
f 84//110 88//114 87//113
f 88//114 85//111 86//112
f 87//113 88//114 86//112
