# SSTK version 0.8.0
# 34
mtllib original-34.mtl
o mesh30/mesh30-geometry#mesh30-geometry
v -0.070679 0.012382 -0.416626
v -0.106121 0.012382 -0.293761
v -0.070679 0.012382 -0.293761
v -0.141842 0.012382 -0.416626
v -0.106121 -0.008129 -0.293761
v -0.070679 -0.008129 -0.293761
v -0.070679 -0.008129 -0.416626
v -0.150545 0.012382 -0.403631
v -0.118526 -0.008129 -0.290437
v -0.141842 -0.008129 -0.416626
v -0.162348 0.012382 -0.375138
v -0.118526 0.012382 -0.290437
v -0.166373 -0.008129 -0.344561
v -0.150545 -0.008129 -0.403631
v -0.166373 0.012382 -0.344561
v -0.127607 -0.008129 -0.281356
v -0.166373 -0.008129 -0.250049
v -0.162348 -0.008129 -0.375138
v -0.166373 0.012382 -0.250049
v -0.127607 0.012382 -0.281356
v -0.130931 -0.008129 -0.268951
v -0.148652 0.012382 0.423351
v -0.130931 0.012382 -0.268951
v -0.122200 -0.008129 0.060495
v -0.122200 0.012382 0.060495
v -0.148652 -0.008128 0.423351
v -0.121002 0.012382 0.105708
v -0.140382 0.012382 0.517864
v -0.121002 -0.008129 0.105708
v -0.115059 0.012382 0.097798
v -0.113210 0.012382 0.399723
v -0.071861 0.012382 0.437528
v -0.140382 -0.008128 0.517864
v -0.115059 -0.008129 0.066053
v -0.113210 -0.008128 0.399723
v -0.115059 -0.008129 0.097798
v -0.115059 0.012382 0.066053
v -0.106407 0.012382 0.418900
v -0.091485 0.012382 0.432574
v -0.130083 0.012382 0.549028
v -0.071861 -0.008128 0.437528
v -0.106407 -0.008128 0.418900
v -0.110193 0.012382 0.073336
v -0.115063 0.012382 0.568602
v -0.130083 -0.008128 0.549028
v -0.091485 -0.008128 0.432574
v -0.110193 -0.008129 0.073336
v -0.110193 0.012382 0.090515
v -0.015976 -0.008128 0.439353
v -0.095489 0.012382 0.583622
v -0.115063 -0.008128 0.568602
v -0.110193 -0.008129 0.090515
v -0.108484 -0.008129 0.081926
v -0.108484 0.012382 0.081926
v -0.015976 0.012382 0.439353
v -0.000977 -0.008128 0.556849
v -0.072694 0.012382 0.593064
v -0.095489 -0.008128 0.583622
v -0.000977 0.012382 0.556849
v -0.023771 -0.008128 0.593064
v -0.048233 0.012382 0.596284
v -0.072694 -0.008128 0.593064
v -0.023771 0.012382 0.593064
v -0.000977 -0.008128 0.583622
v -0.048233 -0.008128 0.596284
v 0.004930 -0.008128 0.562756
v -0.000977 0.012382 0.583622
v 0.004930 0.012382 0.562756
v 0.007293 -0.008128 0.573389
v 0.006159 0.012382 0.579058
v 0.007293 0.012382 0.573389
v 0.006159 -0.008128 0.579058
vn 0.6666669999996669 0.6666659999996668 -0.33333399999983326
vn 0.07728099355824296 0.8957849253318508 0.4377179635140207
vn 0.40824812379677144 0.4082471237964684 0.8164972475938466
vn -0.24798997106949155 0.5969279303623919 -0.7630059109877357
vn 0.0386409968868688 -0.8957849278306423 0.44280496432519806
vn 0.8164959142597684 -0.40824995712967427 0.40824795712988443
vn 0.3333331111109446 -0.6666672222222222 -0.6666662222218888
vn -0.7192832413504971 0.5563651866844752 -0.41604013959938024
vn 0.29306998605338563 -0.7178739658378145 0.631479969949132
vn -0.49598011885049004 -0.5969281430404157 -0.6306191511137089
vn -0.7916141576586829 0.5576311110583807 -0.24978904974824204
vn 0.40034211150410093 0.7178741999437857 0.5695461586311573
vn -0.705761194244563 -0.7077801948002466 -0.030795008475619123
vn -0.7451520939096614 -0.5563650701173034 -0.3677040463408248
vn -0.7037430199264839 0.7077800200407915 -0.06158900174389277
vn 0.6741744407410105 -0.5664993703485179 0.4738853098021488
vn -0.514388043935685 -0.8575100732429397 0.009023000770685994
vn -0.8104522906602565 -0.5576311999886107 -0.17948406437008685
vn -0.5144471376069111 0.8575102293711544 0.004511001206625205
vn 0.7474840969038445 0.5665000734410742 0.346908044973162
vn 0.8182640197627128 -0.5582560134829994 0.1370920033110463
vn -0.3933539471023548 0.9192038763868499 0.018354997531647543
vn 0.8276770248381741 0.5582560167529842 0.057454001724166065
vn 0.4581580593887423 -0.8765251136195752 -0.14763101913667198
vn 0.3905859867355049 0.8765249702327743 -0.28132999044589296
vn -0.3928990427816004 -0.9192041000893824 0.02634700286884617
vn 0.6761629686980501 0.7247729664477234 0.13231699387458348
vn -0.8193117793618254 0.5569988500019009 0.1359429633909725
vn 0.6278070508514314 -0.724773058705533 0.28383502299021224
vn 0.4861508685608658 0.8000977836799916 0.3514269049857749
vn 0.80614022188005 0.5589301538385595 -0.19425505346628252
vn 0.029706988890212144 0.958229641642304 -0.2844528936206112
vn -0.8063049498046964 -0.5569989653248659 0.19905898760788154
vn 0.5758289840385968 -0.559093984502474 -0.5965189834650905
vn 0.8221209729398885 -0.5589299816028199 -0.10823299643751078
vn 0.49254703545624584 -0.8000980575954608 0.3424040246481259
vn 0.6365671918722022 0.5590941685205123 -0.5312211601191125
vn 0.6478929550433574 0.5649449607990354 -0.5109519645455551
vn 0.3292609039641571 0.5652148351432479 -0.7563857793842355
vn -0.7532011202278556 0.5595150893112045 0.34587705520976453
vn 0.05003197843562161 -0.9582295869916381 -0.28158987863140933
vn 0.7232777846664933 -0.5649448318052146 -0.3971228817689902
vn 0.6639659931355877 0.7131639926269542 -0.22482499767564665
vn -0.612132062489811 0.5576310569260481 0.5606620572354692
vn -0.7095209228459897 -0.5595149391577894 0.42839595341579806
vn 0.4510209964019802 -0.5652149954909974 -0.6907329944896775
vn 0.6284703581904981 -0.7131644064610376 -0.3105181769767801
vn 0.7419780260975937 0.5613130197430632 0.3666010128944579
vn 0.4104150192330745 -0.388199018191977 -0.8251430386682665
vn -0.4461619414443723 0.557630926814849 0.6999909081310992
vn -0.5606641149482098 -0.5576311143263792 0.6121301254998492
vn 0.7838839901285488 -0.5613129929313854 0.2654309966574276
vn 0.9449517801314802 -0.3211549252746442 -0.06265498542162744
vn 0.9449518393369394 0.3211549453964379 0.0626539893474132
vn 0.7828188067052301 0.3881989041453561 -0.4863088799198966
vn 0.5474340605754981 -0.8137240900414235 -0.1953690216182671
vn -0.24978697680041131 0.557630948208634 0.7916149264767881
vn -0.38312699506800635 -0.5576309928216162 0.7363839905205288
vn 0.48948802098533095 0.8137240348859777 -0.31345601343848645
vn 0.21196801765163725 -0.7097990591085191 0.6717550559404046
vn -0.036393992392237215 0.5576308834334099 0.829290826645893
vn -0.17948295112150447 -0.5576308481406905 0.8104527792898298
vn 0.15230604408361992 0.7097992054450215 0.6877411990605293
vn 0.29240285074168704 -0.8009935911293213 0.5224077333346898
vn 0.03638999769029034 -0.5576309646066061 0.8292909473640759
vn 0.6795232678266742 -0.5685432240851019 -0.4636881827576325
vn 0.26115003558260874 0.8009931091381222 0.5387120734014107
vn 0.7560151882103827 0.568543141539117 -0.3243450807458799
vn 0.8243470328823794 -0.5621270224226853 -0.06682200266546275
vn 0.6948089523218639 0.3375979768338589 0.635033956423654
vn 0.8255819858437459 0.5621269903612086 0.04927099915515037
vn 0.8439670187390219 -0.3375980074958575 0.4168300092550854
vn -0.40824812379677144 -0.4082471237964684 -0.8164972475938466
vn -0.07728099355824296 -0.8957849253318508 -0.4377179635140207
vn -0.6666669999996669 -0.6666659999996668 0.33333399999983326
vn 0.24798997106949155 -0.5969279303623919 0.7630059109877357
vn -0.0386409968868688 0.8957849278306423 -0.44280496432519806
vn -0.8164959142597684 0.40824995712967427 -0.40824795712988443
vn -0.3333331111109446 0.6666672222222222 0.6666662222218888
vn 0.7192832413504971 -0.5563651866844752 0.41604013959938024
vn -0.29306998605338563 0.7178739658378145 -0.631479969949132
vn 0.49598011885049004 0.5969281430404157 0.6306191511137089
vn 0.7916141576586829 -0.5576311110583807 0.24978904974824204
vn -0.40034211150410093 -0.7178741999437857 -0.5695461586311573
vn 0.705761194244563 0.7077801948002466 0.030795008475619123
vn 0.7451520939096614 0.5563650701173034 0.3677040463408248
vn 0.7037430199264839 -0.7077800200407915 0.06158900174389277
vn -0.6741744407410105 0.5664993703485179 -0.4738853098021488
vn 0.514388043935685 0.8575100732429397 -0.009023000770685994
vn 0.8104522906602565 0.5576311999886107 0.17948406437008685
vn 0.5144471376069111 -0.8575102293711544 -0.004511001206625205
vn -0.7474840969038445 -0.5665000734410742 -0.346908044973162
vn -0.8182640197627128 0.5582560134829994 -0.1370920033110463
vn 0.3933539471023548 -0.9192038763868499 -0.018354997531647543
vn -0.8276770248381741 -0.5582560167529842 -0.057454001724166065
vn -0.4581580593887423 0.8765251136195752 0.14763101913667198
vn -0.3905859867355049 -0.8765249702327743 0.28132999044589296
vn 0.3928990427816004 0.9192041000893824 -0.02634700286884617
vn -0.6761629686980501 -0.7247729664477234 -0.13231699387458348
vn 0.8193117793618254 -0.5569988500019009 -0.1359429633909725
vn -0.6278070508514314 0.724773058705533 -0.28383502299021224
vn -0.4861508685608658 -0.8000977836799916 -0.3514269049857749
vn -0.80614022188005 -0.5589301538385595 0.19425505346628252
vn -0.029706988890212144 -0.958229641642304 0.2844528936206112
vn 0.8063049498046964 0.5569989653248659 -0.19905898760788154
vn -0.5758289840385968 0.559093984502474 0.5965189834650905
vn -0.8221209729398885 0.5589299816028199 0.10823299643751078
vn -0.49254703545624584 0.8000980575954608 -0.3424040246481259
vn -0.6365671918722022 -0.5590941685205123 0.5312211601191125
vn -0.6478929550433574 -0.5649449607990354 0.5109519645455551
vn -0.3292609039641571 -0.5652148351432479 0.7563857793842355
vn 0.7532011202278556 -0.5595150893112045 -0.34587705520976453
vn -0.05003197843562161 0.9582295869916381 0.28158987863140933
vn -0.7232777846664933 0.5649448318052146 0.3971228817689902
vn -0.6639659931355877 -0.7131639926269542 0.22482499767564665
vn 0.612132062489811 -0.5576310569260481 -0.5606620572354692
vn 0.7095209228459897 0.5595149391577894 -0.42839595341579806
vn -0.4510209964019802 0.5652149954909974 0.6907329944896775
vn -0.6284703581904981 0.7131644064610376 0.3105181769767801
vn -0.7419780260975937 -0.5613130197430632 -0.3666010128944579
vn -0.4104150192330745 0.388199018191977 0.8251430386682665
vn 0.4461619414443723 -0.557630926814849 -0.6999909081310992
vn 0.5606641149482098 0.5576311143263792 -0.6121301254998492
vn -0.7838839901285488 0.5613129929313854 -0.2654309966574276
vn -0.9449517801314802 0.3211549252746442 0.06265498542162744
vn -0.9449518393369394 -0.3211549453964379 -0.0626539893474132
vn -0.7828188067052301 -0.3881989041453561 0.4863088799198966
vn -0.5474340605754981 0.8137240900414235 0.1953690216182671
vn 0.24978697680041131 -0.557630948208634 -0.7916149264767881
vn 0.38312699506800635 0.5576309928216162 -0.7363839905205288
vn -0.48948802098533095 -0.8137240348859777 0.31345601343848645
vn -0.21196801765163725 0.7097990591085191 -0.6717550559404046
vn 0.036393992392237215 -0.5576308834334099 -0.829290826645893
vn 0.17948295112150447 0.5576308481406905 -0.8104527792898298
vn -0.15230604408361992 -0.7097992054450215 -0.6877411990605293
vn -0.29240285074168704 0.8009935911293213 -0.5224077333346898
vn -0.03638999769029034 0.5576309646066061 -0.8292909473640759
vn -0.6795232678266742 0.5685432240851019 0.4636881827576325
vn -0.26115003558260874 -0.8009931091381222 -0.5387120734014107
vn -0.7560151882103827 -0.568543141539117 0.3243450807458799
vn -0.8243470328823794 0.5621270224226853 0.06682200266546275
vn -0.6948089523218639 -0.3375979768338589 -0.635033956423654
vn -0.8255819858437459 -0.5621269903612086 -0.04927099915515037
vn -0.8439670187390219 0.3375980074958575 -0.4168300092550854
usemtl material_0_0
f 1//1 2//2 3//3
f 1//1 4//4 2//2
f 5//5 3//3 2//2
f 6//6 1//1 3//3
f 7//7 4//4 1//1
f 2//2 4//4 8//8
f 5//5 6//6 3//3
f 5//5 2//2 9//9
f 6//6 7//7 1//1
f 10//10 4//4 7//7
f 8//8 4//4 10//10
f 2//2 8//8 11//11
f 6//6 5//5 7//7
f 9//9 2//2 12//12
f 5//5 9//9 13//13
f 7//7 5//5 10//10
f 8//8 10//10 14//14
f 11//11 8//8 14//14
f 2//2 11//11 15//15
f 2//2 15//15 12//12
f 16//16 9//9 12//12
f 9//9 17//17 13//13
f 5//5 13//13 18//18
f 5//5 14//14 10//10
f 11//11 14//14 18//18
f 15//15 11//11 18//18
f 12//12 15//15 19//19
f 9//9 16//16 17//17
f 16//16 12//12 20//20
f 19//19 13//13 17//17
f 15//15 18//18 13//13
f 5//5 18//18 14//14
f 19//19 15//15 13//13
f 12//12 19//19 20//20
f 16//16 21//21 17//17
f 21//21 16//16 20//20
f 22//22 19//19 17//17
f 20//20 19//19 23//23
f 24//24 17//17 21//21
f 21//21 20//20 23//23
f 25//25 19//19 22//22
f 22//22 17//17 26//26
f 25//25 23//23 19//19
f 24//24 26//26 17//17
f 24//24 21//21 23//23
f 27//27 25//25 22//22
f 28//28 22//22 26//26
f 24//24 23//23 25//25
f 29//29 26//26 24//24
f 30//30 25//25 27//27
f 31//31 27//27 22//22
f 32//32 22//22 28//28
f 28//28 26//26 33//33
f 24//24 25//25 34//34
f 35//35 26//26 29//29
f 36//36 29//29 24//24
f 37//37 25//25 30//30
f 29//29 30//30 27//27
f 35//35 27//27 31//31
f 38//38 31//31 22//22
f 32//32 39//39 22//22
f 32//32 28//28 40//40
f 41//41 33//33 26//26
f 40//40 28//28 33//33
f 34//34 25//25 37//37
f 36//36 24//24 34//34
f 42//42 26//26 35//35
f 35//35 29//29 27//27
f 29//29 36//36 30//30
f 43//43 37//37 30//30
f 42//42 35//35 31//31
f 42//42 31//31 38//38
f 39//39 38//38 22//22
f 41//41 39//39 32//32
f 32//32 40//40 44//44
f 41//41 45//45 33//33
f 41//41 26//26 46//46
f 40//40 33//33 45//45
f 47//47 34//34 37//37
f 47//47 36//36 34//34
f 46//46 26//26 42//42
f 36//36 48//48 30//30
f 47//47 37//37 43//43
f 48//48 43//43 30//30
f 42//42 38//38 46//46
f 46//46 38//38 39//39
f 46//46 39//39 41//41
f 41//41 32//32 49//49
f 44//44 40//40 45//45
f 32//32 44//44 50//50
f 41//41 51//51 45//45
f 52//52 36//36 47//47
f 36//36 52//52 48//48
f 53//53 47//47 43//43
f 54//54 43//43 48//48
f 49//49 32//32 55//55
f 56//56 41//41 49//49
f 44//44 45//45 51//51
f 51//51 50//50 44//44
f 32//32 50//50 57//57
f 41//41 58//58 51//51
f 53//53 52//52 47//47
f 52//52 54//54 48//48
f 53//53 43//43 54//54
f 59//59 55//55 32//32
f 56//56 49//49 55//55
f 56//56 60//60 41//41
f 58//58 50//50 51//51
f 58//58 57//57 50//50
f 61//61 32//32 57//57
f 41//41 62//62 58//58
f 52//52 53//53 54//54
f 56//56 55//55 59//59
f 59//59 32//32 63//63
f 56//56 64//64 60//60
f 60//60 65//65 41//41
f 62//62 57//57 58//58
f 63//63 32//32 61//61
f 62//62 61//61 57//57
f 65//65 62//62 41//41
f 66//66 56//56 59//59
f 59//59 63//63 67//67
f 66//66 64//64 56//56
f 64//64 67//67 60//60
f 65//65 60//60 63//63
f 65//65 63//63 61//61
f 65//65 61//61 62//62
f 66//66 59//59 68//68
f 60//60 67//67 63//63
f 68//68 59//59 67//67
f 69//69 64//64 66//66
f 64//64 70//70 67//67
f 69//69 66//66 68//68
f 71//71 68//68 67//67
f 69//69 72//72 64//64
f 72//72 70//70 64//64
f 71//71 67//67 70//70
f 69//69 68//68 71//71
f 72//72 69//69 71//71
f 72//72 71//71 70//70
usemtl material_1_0
f 3//73 2//74 1//75
f 2//74 4//76 1//75
f 2//74 3//73 5//77
f 3//73 1//75 6//78
f 1//75 4//76 7//79
f 8//80 4//76 2//74
f 3//73 6//78 5//77
f 9//81 2//74 5//77
f 1//75 7//79 6//78
f 7//79 4//76 10//82
f 10//82 4//76 8//80
f 11//83 8//80 2//74
f 7//79 5//77 6//78
f 12//84 2//74 9//81
f 13//85 9//81 5//77
f 10//82 5//77 7//79
f 14//86 10//82 8//80
f 14//86 8//80 11//83
f 15//87 11//83 2//74
f 12//84 15//87 2//74
f 12//84 9//81 16//88
f 13//85 17//89 9//81
f 18//90 13//85 5//77
f 10//82 14//86 5//77
f 18//90 14//86 11//83
f 18//90 11//83 15//87
f 19//91 15//87 12//84
f 17//89 16//88 9//81
f 20//92 12//84 16//88
f 17//89 13//85 19//91
f 13//85 18//90 15//87
f 14//86 18//90 5//77
f 13//85 15//87 19//91
f 20//92 19//91 12//84
f 17//89 21//93 16//88
f 20//92 16//88 21//93
f 17//89 19//91 22//94
f 23//95 19//91 20//92
f 21//93 17//89 24//96
f 23//95 20//92 21//93
f 22//94 19//91 25//97
f 26//98 17//89 22//94
f 19//91 23//95 25//97
f 17//89 26//98 24//96
f 23//95 21//93 24//96
f 22//94 25//97 27//99
f 26//98 22//94 28//100
f 25//97 23//95 24//96
f 24//96 26//98 29//101
f 27//99 25//97 30//102
f 22//94 27//99 31//103
f 28//100 22//94 32//104
f 33//105 26//98 28//100
f 34//106 25//97 24//96
f 29//101 26//98 35//107
f 24//96 29//101 36//108
f 30//102 25//97 37//109
f 27//99 30//102 29//101
f 31//103 27//99 35//107
f 22//94 31//103 38//110
f 22//94 39//111 32//104
f 40//112 28//100 32//104
f 26//98 33//105 41//113
f 33//105 28//100 40//112
f 37//109 25//97 34//106
f 34//106 24//96 36//108
f 35//107 26//98 42//114
f 27//99 29//101 35//107
f 30//102 36//108 29//101
f 30//102 37//109 43//115
f 31//103 35//107 42//114
f 38//110 31//103 42//114
f 22//94 38//110 39//111
f 32//104 39//111 41//113
f 44//116 40//112 32//104
f 33//105 45//117 41//113
f 46//118 26//98 41//113
f 45//117 33//105 40//112
f 37//109 34//106 47//119
f 34//106 36//108 47//119
f 42//114 26//98 46//118
f 30//102 48//120 36//108
f 43//115 37//109 47//119
f 30//102 43//115 48//120
f 46//118 38//110 42//114
f 39//111 38//110 46//118
f 41//113 39//111 46//118
f 49//121 32//104 41//113
f 45//117 40//112 44//116
f 50//122 44//116 32//104
f 45//117 51//123 41//113
f 47//119 36//108 52//124
f 48//120 52//124 36//108
f 43//115 47//119 53//125
f 48//120 43//115 54//126
f 55//127 32//104 49//121
f 49//121 41//113 56//128
f 51//123 45//117 44//116
f 44//116 50//122 51//123
f 57//129 50//122 32//104
f 51//123 58//130 41//113
f 47//119 52//124 53//125
f 48//120 54//126 52//124
f 54//126 43//115 53//125
f 32//104 55//127 59//131
f 55//127 49//121 56//128
f 41//113 60//132 56//128
f 51//123 50//122 58//130
f 50//122 57//129 58//130
f 57//129 32//104 61//133
f 58//130 62//134 41//113
f 54//126 53//125 52//124
f 59//131 55//127 56//128
f 63//135 32//104 59//131
f 60//132 64//136 56//128
f 41//113 65//137 60//132
f 58//130 57//129 62//134
f 61//133 32//104 63//135
f 57//129 61//133 62//134
f 41//113 62//134 65//137
f 59//131 56//128 66//138
f 67//139 63//135 59//131
f 56//128 64//136 66//138
f 60//132 67//139 64//136
f 63//135 60//132 65//137
f 61//133 63//135 65//137
f 62//134 61//133 65//137
f 68//140 59//131 66//138
f 63//135 67//139 60//132
f 67//139 59//131 68//140
f 66//138 64//136 69//141
f 67//139 70//142 64//136
f 68//140 66//138 69//141
f 67//139 68//140 71//143
f 64//136 72//144 69//141
f 64//136 70//142 72//144
f 70//142 67//139 71//143
f 71//143 68//140 69//141
f 71//143 69//141 72//144
f 70//142 71//143 72//144
