# SSTK version 0.8.0
# 12
mtllib original-12.mtl
o mesh1/mesh1-geometry/material_0/component_8#mesh1-geometry
v -0.720022 0.368824 -0.028840
v -0.720022 0.392282 0.022561
v -0.720022 0.392282 -0.028840
v -0.720022 0.392282 0.022561
v -0.680774 0.392282 -0.028840
v -0.720022 0.392282 -0.028840
v -0.719044 0.368824 -0.028840
v -0.680774 0.368824 0.022561
v -0.719044 0.368824 0.022561
v -0.720022 0.392282 0.022561
v -0.720022 0.368824 -0.028840
v -0.720022 0.368824 0.022561
v -0.680774 0.392282 -0.028840
v -0.720022 0.392282 0.022561
v -0.680774 0.392282 0.022561
v -0.680774 0.392282 -0.028840
v -0.680774 0.368824 0.022561
v -0.680774 0.368824 -0.028840
v -0.680774 0.368824 0.022561
v -0.719044 0.368824 -0.028840
v -0.680774 0.368824 -0.028840
v -0.719044 0.368824 0.022561
v -0.720022 0.392282 0.022561
v -0.720022 0.368824 0.022561
v -0.680774 0.392282 0.022561
v -0.719044 0.368824 0.022561
v -0.680774 0.368824 0.022561
v -0.720022 0.392282 0.022561
v -0.719044 0.368824 0.022561
v -0.680774 0.392282 0.022561
v -0.680774 0.368824 0.022561
v -0.680774 0.392282 -0.028840
v -0.680774 0.392282 0.022561
v -0.720022 0.392282 -0.028840
v -0.720022 0.392282 0.022561
v -0.720022 0.368824 -0.028840
v -0.720022 0.392282 -0.028840
v -0.680774 0.392282 -0.028840
v -0.720022 0.392282 0.022561
v -0.719044 0.368824 0.022561
v -0.680774 0.368824 0.022561
v -0.719044 0.368824 -0.028840
v -0.720022 0.368824 0.022561
v -0.720022 0.368824 -0.028840
v -0.720022 0.392282 0.022561
v -0.680774 0.392282 0.022561
v -0.720022 0.392282 0.022561
v -0.680774 0.392282 -0.028840
v -0.680774 0.368824 -0.028840
v -0.680774 0.368824 0.022561
v -0.680774 0.392282 -0.028840
v -0.680774 0.368824 -0.028840
v -0.719044 0.368824 -0.028840
v -0.680774 0.368824 0.022561
v -0.720022 0.368824 0.022561
v -0.720022 0.392282 0.022561
v -0.719044 0.368824 0.022561
v -0.680774 0.368824 0.022561
v -0.719044 0.368824 0.022561
v -0.680774 0.392282 0.022561
v -0.680774 0.392282 0.022561
v -0.719044 0.368824 0.022561
v -0.720022 0.392282 0.022561
v -0.680774 0.392282 0.022561
v -0.680774 0.392282 -0.028840
v -0.680774 0.368824 0.022561
vt 0 0
vn -1 0 0
vn 0 1 0
vn 0 -1 0
vn 1 0 0
vn 0 0 1
vn 0 0 -1
usemtl material_0_0
f 1/1/1 2/1/1 3/1/1
f 4/1/2 5/1/2 6/1/2
f 7/1/3 8/1/3 9/1/3
f 10/1/1 11/1/1 12/1/1
f 13/1/2 14/1/2 15/1/2
f 16/1/4 17/1/4 18/1/4
f 19/1/3 20/1/3 21/1/3
f 22/1/5 23/1/5 24/1/5
f 25/1/5 26/1/5 27/1/5
f 28/1/5 29/1/5 30/1/5
f 31/1/4 32/1/4 33/1/4
usemtl material_1_0
f 34/1/4 35/1/4 36/1/4
f 37/1/3 38/1/3 39/1/3
f 40/1/2 41/1/2 42/1/2
f 43/1/4 44/1/4 45/1/4
f 46/1/3 47/1/3 48/1/3
f 49/1/1 50/1/1 51/1/1
f 52/1/2 53/1/2 54/1/2
f 55/1/6 56/1/6 57/1/6
f 58/1/6 59/1/6 60/1/6
f 61/1/6 62/1/6 63/1/6
f 64/1/1 65/1/1 66/1/1
