# SSTK version 0.8.0
# 6
mtllib original-6.mtl
o mesh1/mesh1-geometry/material_0/component_2#mesh1-geometry
v -0.733826 0.294212 0.022561
v -0.733826 0.406086 -0.028840
v -0.733826 0.406086 0.022561
v -0.719044 0.294212 -0.028840
v -0.733826 0.294212 0.022561
v -0.719044 0.294212 0.022561
v -0.733826 0.406086 -0.028840
v -0.733826 0.294212 0.022561
v -0.733826 0.294212 -0.028840
v -0.733826 0.406086 -0.028840
v -0.666971 0.406086 0.022561
v -0.733826 0.406086 0.022561
v -0.733826 0.294212 0.022561
v -0.719044 0.294212 -0.028840
v -0.733826 0.294212 -0.028840
v -0.719044 0.355020 0.022561
v -0.719044 0.294212 -0.028840
v -0.719044 0.294212 0.022561
v -0.666971 0.406086 0.022561
v -0.733826 0.406086 -0.028840
v -0.666971 0.406086 -0.028840
v -0.719044 0.294212 -0.028840
v -0.719044 0.355020 0.022561
v -0.719044 0.355020 -0.028840
v -0.666971 0.355020 -0.028840
v -0.666971 0.406086 0.022561
v -0.666971 0.406086 -0.028840
v -0.666971 0.355020 -0.028840
v -0.719044 0.355020 0.022561
v -0.666971 0.355020 0.022561
v -0.719044 0.355020 0.022561
v -0.666971 0.355020 -0.028840
v -0.719044 0.355020 -0.028840
v -0.666971 0.406086 0.022561
v -0.666971 0.355020 -0.028840
v -0.666971 0.355020 0.022561
v -0.733826 0.406086 0.022561
v -0.733826 0.406086 -0.028840
v -0.733826 0.294212 0.022561
v -0.719044 0.294212 0.022561
v -0.733826 0.294212 0.022561
v -0.719044 0.294212 -0.028840
v -0.733826 0.294212 -0.028840
v -0.733826 0.294212 0.022561
v -0.733826 0.406086 -0.028840
v -0.733826 0.406086 0.022561
v -0.666971 0.406086 0.022561
v -0.733826 0.406086 -0.028840
v -0.733826 0.294212 -0.028840
v -0.719044 0.294212 -0.028840
v -0.733826 0.294212 0.022561
v -0.719044 0.294212 0.022561
v -0.719044 0.294212 -0.028840
v -0.719044 0.355020 0.022561
v -0.666971 0.406086 -0.028840
v -0.733826 0.406086 -0.028840
v -0.666971 0.406086 0.022561
v -0.719044 0.355020 -0.028840
v -0.719044 0.355020 0.022561
v -0.719044 0.294212 -0.028840
v -0.666971 0.406086 -0.028840
v -0.666971 0.406086 0.022561
v -0.666971 0.355020 -0.028840
v -0.666971 0.355020 0.022561
v -0.719044 0.355020 0.022561
v -0.666971 0.355020 -0.028840
v -0.719044 0.355020 -0.028840
v -0.666971 0.355020 -0.028840
v -0.719044 0.355020 0.022561
v -0.666971 0.355020 0.022561
v -0.666971 0.355020 -0.028840
v -0.666971 0.406086 0.022561
vt 0 0
vn 1 0 0
vn 0 1 0
vn 0 -1 0
vn -1 0 0
usemtl material_0_0
f 1/1/1 2/1/1 3/1/1
f 4/1/2 5/1/2 6/1/2
f 7/1/1 8/1/1 9/1/1
f 10/1/3 11/1/3 12/1/3
f 13/1/2 14/1/2 15/1/2
f 16/1/4 17/1/4 18/1/4
f 19/1/3 20/1/3 21/1/3
f 22/1/4 23/1/4 24/1/4
f 25/1/4 26/1/4 27/1/4
f 28/1/2 29/1/2 30/1/2
f 31/1/2 32/1/2 33/1/2
f 34/1/4 35/1/4 36/1/4
usemtl material_1_0
f 37/1/4 38/1/4 39/1/4
f 40/1/3 41/1/3 42/1/3
f 43/1/4 44/1/4 45/1/4
f 46/1/2 47/1/2 48/1/2
f 49/1/3 50/1/3 51/1/3
f 52/1/1 53/1/1 54/1/1
f 55/1/2 56/1/2 57/1/2
f 58/1/1 59/1/1 60/1/1
f 61/1/1 62/1/1 63/1/1
f 64/1/3 65/1/3 66/1/3
f 67/1/3 68/1/3 69/1/3
f 70/1/1 71/1/1 72/1/1
