# SSTK version 0.8.0
# 14
mtllib original-14.mtl
o mesh1/mesh1-geometry/material_0/component_10#mesh1-geometry
v -0.369764 0.295444 -0.028840
v -0.385890 0.295444 0.022561
v -0.369764 0.295444 0.022561
v -0.330793 0.404630 -0.028840
v -0.314667 0.404630 0.022561
v -0.330793 0.404630 0.022561
v -0.385890 0.295444 0.022561
v -0.369764 0.295444 -0.028840
v -0.385890 0.295444 -0.028840
v -0.369764 0.388504 0.022561
v -0.369764 0.295444 -0.028840
v -0.369764 0.295444 0.022561
v -0.436619 0.404630 -0.028840
v -0.330793 0.404630 0.022561
v -0.436619 0.404630 0.022561
v -0.314667 0.404630 0.022561
v -0.330793 0.404630 -0.028840
v -0.314667 0.404630 -0.028840
v -0.330793 0.404630 0.022561
v -0.436619 0.404630 -0.028840
v -0.330793 0.404630 -0.028840
v -0.314667 0.404630 0.022561
v -0.314667 0.388504 -0.028840
v -0.314667 0.388504 0.022561
v -0.434603 0.388504 0.022561
v -0.436619 0.404630 -0.028840
v -0.436619 0.404630 0.022561
v -0.385890 0.388504 -0.028840
v -0.385890 0.295444 0.022561
v -0.385890 0.295444 -0.028840
v -0.369764 0.295444 -0.028840
v -0.369764 0.388504 0.022561
v -0.369764 0.388504 -0.028840
v -0.385890 0.388504 -0.028840
v -0.434603 0.388504 0.022561
v -0.385890 0.388504 0.022561
v -0.385890 0.295444 0.022561
v -0.385890 0.388504 -0.028840
v -0.385890 0.388504 0.022561
v -0.314667 0.388504 -0.028840
v -0.314667 0.404630 0.022561
v -0.314667 0.404630 -0.028840
v -0.314667 0.388504 -0.028840
v -0.330793 0.388504 0.022561
v -0.314667 0.388504 0.022561
v -0.436619 0.404630 -0.028840
v -0.434603 0.388504 0.022561
v -0.434603 0.388504 -0.028840
v -0.369764 0.388504 0.022561
v -0.330793 0.388504 -0.028840
v -0.369764 0.388504 -0.028840
v -0.434603 0.388504 0.022561
v -0.385890 0.388504 -0.028840
v -0.434603 0.388504 -0.028840
v -0.330793 0.388504 -0.028840
v -0.369764 0.388504 0.022561
v -0.330793 0.388504 0.022561
v -0.330793 0.388504 0.022561
v -0.314667 0.388504 -0.028840
v -0.330793 0.388504 -0.028840
v -0.369764 0.295444 0.022561
v -0.385890 0.295444 0.022561
v -0.369764 0.295444 -0.028840
v -0.330793 0.404630 0.022561
v -0.314667 0.404630 0.022561
v -0.330793 0.404630 -0.028840
v -0.385890 0.295444 -0.028840
v -0.369764 0.295444 -0.028840
v -0.385890 0.295444 0.022561
v -0.369764 0.295444 0.022561
v -0.369764 0.295444 -0.028840
v -0.369764 0.388504 0.022561
v -0.436619 0.404630 0.022561
v -0.330793 0.404630 0.022561
v -0.436619 0.404630 -0.028840
v -0.314667 0.404630 -0.028840
v -0.330793 0.404630 -0.028840
v -0.314667 0.404630 0.022561
v -0.330793 0.404630 -0.028840
v -0.436619 0.404630 -0.028840
v -0.330793 0.404630 0.022561
v -0.314667 0.388504 0.022561
v -0.314667 0.388504 -0.028840
v -0.314667 0.404630 0.022561
v -0.436619 0.404630 0.022561
v -0.436619 0.404630 -0.028840
v -0.434603 0.388504 0.022561
v -0.385890 0.295444 -0.028840
v -0.385890 0.295444 0.022561
v -0.385890 0.388504 -0.028840
v -0.369764 0.388504 -0.028840
v -0.369764 0.388504 0.022561
v -0.369764 0.295444 -0.028840
v -0.385890 0.388504 0.022561
v -0.434603 0.388504 0.022561
v -0.385890 0.388504 -0.028840
v -0.385890 0.388504 0.022561
v -0.385890 0.388504 -0.028840
v -0.385890 0.295444 0.022561
v -0.314667 0.404630 -0.028840
v -0.314667 0.404630 0.022561
v -0.314667 0.388504 -0.028840
v -0.314667 0.388504 0.022561
v -0.330793 0.388504 0.022561
v -0.314667 0.388504 -0.028840
v -0.434603 0.388504 -0.028840
v -0.434603 0.388504 0.022561
v -0.436619 0.404630 -0.028840
v -0.369764 0.388504 -0.028840
v -0.330793 0.388504 -0.028840
v -0.369764 0.388504 0.022561
v -0.434603 0.388504 -0.028840
v -0.385890 0.388504 -0.028840
v -0.434603 0.388504 0.022561
v -0.330793 0.388504 0.022561
v -0.369764 0.388504 0.022561
v -0.330793 0.388504 -0.028840
v -0.330793 0.388504 -0.028840
v -0.314667 0.388504 -0.028840
v -0.330793 0.388504 0.022561
vt 0 0
vn 0 1 0
vn 0 -1 0
vn -1 0 0
vn 0.9922778455358263 0.1240349840116843 0
vn 1 0 0
vn -0.9922778455358263 -0.1240349840116843 0
usemtl material_0_0
f 1/1/1 2/1/1 3/1/1
f 4/1/2 5/1/2 6/1/2
f 7/1/1 8/1/1 9/1/1
f 10/1/3 11/1/3 12/1/3
f 13/1/2 14/1/2 15/1/2
f 16/1/2 17/1/2 18/1/2
f 19/1/2 20/1/2 21/1/2
f 22/1/3 23/1/3 24/1/3
f 25/1/4 26/1/4 27/1/4
f 28/1/5 29/1/5 30/1/5
f 31/1/3 32/1/3 33/1/3
f 34/1/1 35/1/1 36/1/1
f 37/1/5 38/1/5 39/1/5
f 40/1/3 41/1/3 42/1/3
f 43/1/1 44/1/1 45/1/1
f 46/1/4 47/1/4 48/1/4
f 49/1/1 50/1/1 51/1/1
f 52/1/1 53/1/1 54/1/1
f 55/1/1 56/1/1 57/1/1
f 58/1/1 59/1/1 60/1/1
usemtl material_1_0
f 61/1/2 62/1/2 63/1/2
f 64/1/1 65/1/1 66/1/1
f 67/1/2 68/1/2 69/1/2
f 70/1/5 71/1/5 72/1/5
f 73/1/1 74/1/1 75/1/1
f 76/1/1 77/1/1 78/1/1
f 79/1/1 80/1/1 81/1/1
f 82/1/5 83/1/5 84/1/5
f 85/1/6 86/1/6 87/1/6
f 88/1/3 89/1/3 90/1/3
f 91/1/5 92/1/5 93/1/5
f 94/1/2 95/1/2 96/1/2
f 97/1/3 98/1/3 99/1/3
f 100/1/5 101/1/5 102/1/5
f 103/1/2 104/1/2 105/1/2
f 106/1/6 107/1/6 108/1/6
f 109/1/2 110/1/2 111/1/2
f 112/1/2 113/1/2 114/1/2
f 115/1/2 116/1/2 117/1/2
f 118/1/2 119/1/2 120/1/2
