# SSTK version 0.8.0
# 24
mtllib original-24.mtl
o mesh1/mesh1-geometry/material_3/component_4#mesh1-geometry
v -0.141017 0.405978 -0.028840
v -0.170537 0.355733 -0.028840
v -0.153352 0.405978 -0.028840
v -0.149035 0.328382 -0.028840
v -0.163177 0.317264 -0.028840
v -0.166385 0.350451 -0.028840
v -0.170537 0.355733 -0.028840
v -0.183890 0.344564 -0.028840
v -0.153352 0.405978 -0.028840
v -0.153352 0.405978 -0.028840
v -0.183890 0.344564 -0.028840
v -0.183978 0.355793 -0.028840
v -0.166385 0.350451 -0.028840
v -0.163177 0.317264 -0.028840
v -0.170537 0.355733 -0.028840
v -0.183890 0.344564 -0.028840
v -0.170537 0.355733 -0.028840
v -0.163177 0.317264 -0.028840
v -0.225182 0.403337 -0.028840
v -0.209056 0.403337 -0.028840
v -0.197269 0.350451 -0.028840
v -0.183978 0.355793 -0.028840
v -0.197269 0.350451 -0.028840
v -0.209056 0.403337 -0.028840
v -0.183978 0.355793 -0.028840
v -0.183890 0.344564 -0.028840
v -0.197269 0.350451 -0.028840
v -0.215283 0.318956 -0.028840
v -0.197269 0.350451 -0.028840
v -0.197269 0.318956 -0.028840
v -0.183890 0.344564 -0.028840
v -0.197269 0.318956 -0.028840
v -0.197269 0.350451 -0.028840
v -0.153352 0.405978 -0.028840
v -0.170537 0.355733 -0.028840
v -0.141017 0.405978 -0.028840
v -0.166385 0.350451 -0.028840
v -0.163177 0.317264 -0.028840
v -0.149035 0.328382 -0.028840
v -0.153352 0.405978 -0.028840
v -0.183890 0.344564 -0.028840
v -0.170537 0.355733 -0.028840
v -0.183978 0.355793 -0.028840
v -0.183890 0.344564 -0.028840
v -0.153352 0.405978 -0.028840
v -0.170537 0.355733 -0.028840
v -0.163177 0.317264 -0.028840
v -0.166385 0.350451 -0.028840
v -0.163177 0.317264 -0.028840
v -0.170537 0.355733 -0.028840
v -0.183890 0.344564 -0.028840
v -0.197269 0.350451 -0.028840
v -0.209056 0.403337 -0.028840
v -0.225182 0.403337 -0.028840
v -0.209056 0.403337 -0.028840
v -0.197269 0.350451 -0.028840
v -0.183978 0.355793 -0.028840
v -0.197269 0.350451 -0.028840
v -0.183890 0.344564 -0.028840
v -0.183978 0.355793 -0.028840
v -0.197269 0.318956 -0.028840
v -0.197269 0.350451 -0.028840
v -0.215283 0.318956 -0.028840
v -0.197269 0.350451 -0.028840
v -0.197269 0.318956 -0.028840
v -0.183890 0.344564 -0.028840
vt 0 0
vn 0 0 -1
vn 0 0 1
usemtl material_0_0
f 1/1/1 2/1/1 3/1/1
f 4/1/1 5/1/1 6/1/1
f 7/1/1 8/1/1 9/1/1
f 10/1/1 11/1/1 12/1/1
f 13/1/1 14/1/1 15/1/1
f 16/1/1 17/1/1 18/1/1
f 19/1/1 20/1/1 21/1/1
f 22/1/1 23/1/1 24/1/1
f 25/1/1 26/1/1 27/1/1
f 28/1/1 29/1/1 30/1/1
f 31/1/1 32/1/1 33/1/1
usemtl material_1_0
f 34/1/2 35/1/2 36/1/2
f 37/1/2 38/1/2 39/1/2
f 40/1/2 41/1/2 42/1/2
f 43/1/2 44/1/2 45/1/2
f 46/1/2 47/1/2 48/1/2
f 49/1/2 50/1/2 51/1/2
f 52/1/2 53/1/2 54/1/2
f 55/1/2 56/1/2 57/1/2
f 58/1/2 59/1/2 60/1/2
f 61/1/2 62/1/2 63/1/2
f 64/1/2 65/1/2 66/1/2
