# SSTK version 0.8.0
# 13
mtllib original-13.mtl
o mesh1/mesh1-geometry/material_0/component_9#mesh1-geometry
v -0.264352 0.404630 0.022561
v -0.219394 0.293859 -0.028840
v -0.219394 0.293859 0.022561
v -0.219394 0.293859 -0.028840
v -0.235520 0.293859 0.022561
v -0.219394 0.293859 0.022561
v -0.302989 0.297852 0.022561
v -0.264352 0.404630 -0.028840
v -0.264352 0.404630 0.022561
v -0.219394 0.293859 -0.028840
v -0.264352 0.404630 0.022561
v -0.264352 0.404630 -0.028840
v -0.235520 0.293859 0.022561
v -0.219394 0.293859 -0.028840
v -0.235520 0.293859 -0.028840
v -0.264352 0.404630 -0.028840
v -0.302989 0.297852 0.022561
v -0.302989 0.297852 -0.028840
v -0.254021 0.341455 -0.028840
v -0.235520 0.293859 0.022561
v -0.235520 0.293859 -0.028840
v -0.302989 0.297852 0.022561
v -0.286863 0.297852 -0.028840
v -0.302989 0.297852 -0.028840
v -0.286863 0.297852 -0.028840
v -0.302989 0.297852 0.022561
v -0.286863 0.297852 0.022561
v -0.235520 0.293859 0.022561
v -0.254021 0.341455 -0.028840
v -0.254021 0.341455 0.022561
v -0.270147 0.341455 0.022561
v -0.286863 0.297852 -0.028840
v -0.286863 0.297852 0.022561
v -0.254021 0.341455 -0.028840
v -0.270147 0.341455 0.022561
v -0.254021 0.341455 0.022561
v -0.286863 0.297852 -0.028840
v -0.270147 0.341455 0.022561
v -0.270147 0.341455 -0.028840
v -0.270147 0.341455 0.022561
v -0.254021 0.341455 -0.028840
v -0.270147 0.341455 -0.028840
v -0.219394 0.293859 0.022561
v -0.219394 0.293859 -0.028840
v -0.264352 0.404630 0.022561
v -0.219394 0.293859 0.022561
v -0.235520 0.293859 0.022561
v -0.219394 0.293859 -0.028840
v -0.264352 0.404630 0.022561
v -0.264352 0.404630 -0.028840
v -0.302989 0.297852 0.022561
v -0.264352 0.404630 -0.028840
v -0.264352 0.404630 0.022561
v -0.219394 0.293859 -0.028840
v -0.235520 0.293859 -0.028840
v -0.219394 0.293859 -0.028840
v -0.235520 0.293859 0.022561
v -0.302989 0.297852 -0.028840
v -0.302989 0.297852 0.022561
v -0.264352 0.404630 -0.028840
v -0.235520 0.293859 -0.028840
v -0.235520 0.293859 0.022561
v -0.254021 0.341455 -0.028840
v -0.302989 0.297852 -0.028840
v -0.286863 0.297852 -0.028840
v -0.302989 0.297852 0.022561
v -0.286863 0.297852 0.022561
v -0.302989 0.297852 0.022561
v -0.286863 0.297852 -0.028840
v -0.254021 0.341455 0.022561
v -0.254021 0.341455 -0.028840
v -0.235520 0.293859 0.022561
v -0.286863 0.297852 0.022561
v -0.286863 0.297852 -0.028840
v -0.270147 0.341455 0.022561
v -0.254021 0.341455 0.022561
v -0.270147 0.341455 0.022561
v -0.254021 0.341455 -0.028840
v -0.270147 0.341455 -0.028840
v -0.270147 0.341455 0.022561
v -0.286863 0.297852 -0.028840
v -0.270147 0.341455 -0.028840
v -0.254021 0.341455 -0.028840
v -0.270147 0.341455 0.022561
vt 0 0
vn -0.9265908659871529 -0.3760709601513764 0
vn 0 1 0
vn 0.9403336160563588 -0.34025386186547896 0
vn 0.9320622658394144 0.36229812668339384 0
vn -0.9337346694744889 0.35796587410166214 0
vn 0.9265908659871529 0.3760709601513764 0
vn 0 -1 0
vn -0.9403336160563588 0.34025386186547896 0
vn -0.9320622658394144 -0.36229812668339384 0
vn 0.9337346694744889 -0.35796587410166214 0
usemtl material_0_0
f 1/1/1 2/1/1 3/1/1
f 4/1/2 5/1/2 6/1/2
f 7/1/3 8/1/3 9/1/3
f 10/1/1 11/1/1 12/1/1
f 13/1/2 14/1/2 15/1/2
f 16/1/3 17/1/3 18/1/3
f 19/1/4 20/1/4 21/1/4
f 22/1/2 23/1/2 24/1/2
f 25/1/2 26/1/2 27/1/2
f 28/1/4 29/1/4 30/1/4
f 31/1/5 32/1/5 33/1/5
f 34/1/2 35/1/2 36/1/2
f 37/1/5 38/1/5 39/1/5
f 40/1/2 41/1/2 42/1/2
usemtl material_1_0
f 43/1/6 44/1/6 45/1/6
f 46/1/7 47/1/7 48/1/7
f 49/1/8 50/1/8 51/1/8
f 52/1/6 53/1/6 54/1/6
f 55/1/7 56/1/7 57/1/7
f 58/1/8 59/1/8 60/1/8
f 61/1/9 62/1/9 63/1/9
f 64/1/7 65/1/7 66/1/7
f 67/1/7 68/1/7 69/1/7
f 70/1/9 71/1/9 72/1/9
f 73/1/10 74/1/10 75/1/10
f 76/1/7 77/1/7 78/1/7
f 79/1/10 80/1/10 81/1/10
f 82/1/7 83/1/7 84/1/7
