# SSTK version 0.8.0
# 10
mtllib original-10.mtl
o mesh1/mesh1-geometry/material_0/component_6#mesh1-geometry
v -0.153352 0.405978 -0.028840
v -0.141017 0.405978 0.022561
v -0.153352 0.405978 0.022561
v -0.149035 0.328382 -0.028840
v -0.163177 0.317264 0.022561
v -0.149035 0.328382 0.022561
v -0.166385 0.350451 0.022561
v -0.149035 0.328382 -0.028840
v -0.149035 0.328382 0.022561
v -0.141017 0.405978 0.022561
v -0.153352 0.405978 -0.028840
v -0.141017 0.405978 -0.028840
v -0.183978 0.355793 0.022561
v -0.153352 0.405978 -0.028840
v -0.153352 0.405978 0.022561
v -0.163177 0.317264 0.022561
v -0.149035 0.328382 -0.028840
v -0.163177 0.317264 -0.028840
v -0.141017 0.405978 0.022561
v -0.170537 0.355733 -0.028840
v -0.170537 0.355733 0.022561
v -0.170537 0.355733 0.022561
v -0.166385 0.350451 -0.028840
v -0.166385 0.350451 0.022561
v -0.149035 0.328382 -0.028840
v -0.166385 0.350451 0.022561
v -0.166385 0.350451 -0.028840
v -0.225182 0.403337 -0.028840
v -0.209056 0.403337 0.022561
v -0.225182 0.403337 0.022561
v -0.209056 0.403337 0.022561
v -0.183978 0.355793 -0.028840
v -0.183978 0.355793 0.022561
v -0.170537 0.355733 -0.028840
v -0.141017 0.405978 0.022561
v -0.141017 0.405978 -0.028840
v -0.153352 0.405978 -0.028840
v -0.183978 0.355793 0.022561
v -0.183978 0.355793 -0.028840
v -0.197269 0.318956 -0.028840
v -0.215283 0.318956 0.022561
v -0.197269 0.318956 0.022561
v -0.183890 0.344564 0.022561
v -0.197269 0.318956 -0.028840
v -0.197269 0.318956 0.022561
v -0.166385 0.350451 -0.028840
v -0.170537 0.355733 0.022561
v -0.170537 0.355733 -0.028840
v -0.209056 0.403337 0.022561
v -0.225182 0.403337 -0.028840
v -0.209056 0.403337 -0.028840
v -0.197269 0.350451 0.022561
v -0.225182 0.403337 -0.028840
v -0.225182 0.403337 0.022561
v -0.183978 0.355793 -0.028840
v -0.209056 0.403337 0.022561
v -0.209056 0.403337 -0.028840
v -0.215283 0.318956 0.022561
v -0.197269 0.318956 -0.028840
v -0.215283 0.318956 -0.028840
v -0.197269 0.318956 -0.028840
v -0.183890 0.344564 0.022561
v -0.183890 0.344564 -0.028840
v -0.225182 0.403337 -0.028840
v -0.197269 0.350451 0.022561
v -0.197269 0.350451 -0.028840
v -0.197269 0.350451 -0.028840
v -0.215283 0.318956 0.022561
v -0.215283 0.318956 -0.028840
v -0.215283 0.318956 0.022561
v -0.197269 0.350451 -0.028840
v -0.197269 0.350451 0.022561
v -0.153352 0.405978 0.022561
v -0.141017 0.405978 0.022561
v -0.153352 0.405978 -0.028840
v -0.149035 0.328382 0.022561
v -0.163177 0.317264 0.022561
v -0.149035 0.328382 -0.028840
v -0.149035 0.328382 0.022561
v -0.149035 0.328382 -0.028840
v -0.166385 0.350451 0.022561
v -0.141017 0.405978 -0.028840
v -0.153352 0.405978 -0.028840
v -0.141017 0.405978 0.022561
v -0.153352 0.405978 0.022561
v -0.153352 0.405978 -0.028840
v -0.183978 0.355793 0.022561
v -0.163177 0.317264 -0.028840
v -0.149035 0.328382 -0.028840
v -0.163177 0.317264 0.022561
v -0.170537 0.355733 0.022561
v -0.170537 0.355733 -0.028840
v -0.141017 0.405978 0.022561
v -0.166385 0.350451 0.022561
v -0.166385 0.350451 -0.028840
v -0.170537 0.355733 0.022561
v -0.166385 0.350451 -0.028840
v -0.166385 0.350451 0.022561
v -0.149035 0.328382 -0.028840
v -0.225182 0.403337 0.022561
v -0.209056 0.403337 0.022561
v -0.225182 0.403337 -0.028840
v -0.183978 0.355793 0.022561
v -0.183978 0.355793 -0.028840
v -0.209056 0.403337 0.022561
v -0.141017 0.405978 -0.028840
v -0.141017 0.405978 0.022561
v -0.170537 0.355733 -0.028840
v -0.183978 0.355793 -0.028840
v -0.183978 0.355793 0.022561
v -0.153352 0.405978 -0.028840
v -0.197269 0.318956 0.022561
v -0.215283 0.318956 0.022561
v -0.197269 0.318956 -0.028840
v -0.197269 0.318956 0.022561
v -0.197269 0.318956 -0.028840
v -0.183890 0.344564 0.022561
v -0.170537 0.355733 -0.028840
v -0.170537 0.355733 0.022561
v -0.166385 0.350451 -0.028840
v -0.209056 0.403337 -0.028840
v -0.225182 0.403337 -0.028840
v -0.209056 0.403337 0.022561
v -0.225182 0.403337 0.022561
v -0.225182 0.403337 -0.028840
v -0.197269 0.350451 0.022561
v -0.209056 0.403337 -0.028840
v -0.209056 0.403337 0.022561
v -0.183978 0.355793 -0.028840
v -0.215283 0.318956 -0.028840
v -0.197269 0.318956 -0.028840
v -0.215283 0.318956 0.022561
v -0.183890 0.344564 -0.028840
v -0.183890 0.344564 0.022561
v -0.197269 0.318956 -0.028840
v -0.197269 0.350451 -0.028840
v -0.197269 0.350451 0.022561
v -0.225182 0.403337 -0.028840
v -0.215283 0.318956 -0.028840
v -0.215283 0.318956 0.022561
v -0.197269 0.350451 -0.028840
v -0.197269 0.350451 0.022561
v -0.197269 0.350451 -0.028840
v -0.215283 0.318956 0.022561
vt 0 0
vn 0 -1 0
vn -0.6180258328000326 0.7861577895001908 0
vn -0.7861577895001908 -0.6180258328000326 0
vn 0.8536098275698845 -0.5209129123722237 0
vn -0.8622018408329287 0.5065648879110247 0
vn -0.8844911120196904 -0.4665570412695229 0
vn 0 1 0
vn -0.8863211543951202 0.463071065033977 0
vn 0.8843735862789209 0.46677977665293097 0
vn 0.8680361063876131 -0.496501075535021 0
vn 0.6180258328000326 -0.7861577895001908 0
vn 0.7861577895001908 0.6180258328000326 0
vn -0.8536098275698845 0.5209129123722237 0
vn 0.8622018408329287 -0.5065648879110247 0
vn 0.8844911120196904 0.4665570412695229 0
vn 0.8863211543951202 -0.463071065033977 0
vn -0.8843735862789209 -0.46677977665293097 0
vn -0.8680361063876131 0.496501075535021 0
usemtl material_0_0
f 1/1/1 2/1/1 3/1/1
f 4/1/2 5/1/2 6/1/2
f 7/1/3 8/1/3 9/1/3
f 10/1/1 11/1/1 12/1/1
f 13/1/4 14/1/4 15/1/4
f 16/1/2 17/1/2 18/1/2
f 19/1/5 20/1/5 21/1/5
f 22/1/3 23/1/3 24/1/3
f 25/1/3 26/1/3 27/1/3
f 28/1/1 29/1/1 30/1/1
f 31/1/6 32/1/6 33/1/6
f 34/1/5 35/1/5 36/1/5
f 37/1/4 38/1/4 39/1/4
f 40/1/7 41/1/7 42/1/7
f 43/1/8 44/1/8 45/1/8
f 46/1/3 47/1/3 48/1/3
f 49/1/1 50/1/1 51/1/1
f 52/1/9 53/1/9 54/1/9
f 55/1/6 56/1/6 57/1/6
f 58/1/7 59/1/7 60/1/7
f 61/1/8 62/1/8 63/1/8
f 64/1/9 65/1/9 66/1/9
f 67/1/10 68/1/10 69/1/10
f 70/1/10 71/1/10 72/1/10
usemtl material_1_0
f 73/1/7 74/1/7 75/1/7
f 76/1/11 77/1/11 78/1/11
f 79/1/12 80/1/12 81/1/12
f 82/1/7 83/1/7 84/1/7
f 85/1/13 86/1/13 87/1/13
f 88/1/11 89/1/11 90/1/11
f 91/1/14 92/1/14 93/1/14
f 94/1/12 95/1/12 96/1/12
f 97/1/12 98/1/12 99/1/12
f 100/1/7 101/1/7 102/1/7
f 103/1/15 104/1/15 105/1/15
f 106/1/14 107/1/14 108/1/14
f 109/1/13 110/1/13 111/1/13
f 112/1/1 113/1/1 114/1/1
f 115/1/16 116/1/16 117/1/16
f 118/1/12 119/1/12 120/1/12
f 121/1/7 122/1/7 123/1/7
f 124/1/17 125/1/17 126/1/17
f 127/1/15 128/1/15 129/1/15
f 130/1/1 131/1/1 132/1/1
f 133/1/16 134/1/16 135/1/16
f 136/1/17 137/1/17 138/1/17
f 139/1/18 140/1/18 141/1/18
f 142/1/18 143/1/18 144/1/18
