# SSTK version 0.8.0
# 3
mtllib original-3.mtl
o Group3/mesh7/mesh7-geometry#mesh7-geometry
v -0.494196 -0.043950 0.026855
v -0.500177 -0.055141 0.015593
v -0.494196 -0.055141 0.026855
v -0.500177 -0.043950 0.015593
v 0.002255 -0.055141 0.121766
v -0.485670 -0.043950 0.036336
v 0.002255 -0.043950 0.121766
v -0.501439 -0.055141 0.010522
v -0.485670 -0.055141 0.036336
v -0.281522 -0.043950 -0.023130
v -0.501439 -0.043950 0.010522
v -0.281522 -0.055141 -0.023130
v -0.475104 -0.055141 0.043475
v -0.475104 -0.043950 0.043475
v -0.503257 -0.055141 0.003219
v -0.294151 -0.055141 -0.027342
v -0.214645 -0.055141 0.176465
v -0.344875 -0.043950 0.109970
v -0.294151 -0.043950 -0.027342
v -0.503257 -0.043950 0.003219
v 0.015462 0.017238 0.123968
v 0.015462 -0.055141 0.123968
v -0.214645 -0.043950 0.176465
v -0.503254 -0.055141 -0.009532
v -0.306875 -0.055141 -0.031257
v 0.002255 0.000609 0.121766
v -0.068392 -0.055141 0.214631
v -0.070556 -0.043950 0.200489
v -0.306875 -0.043950 -0.031257
v -0.503254 -0.043950 -0.009532
v -0.319688 -0.055141 -0.034874
v 0.002255 0.000812 0.121766
v -0.225688 -0.055141 0.188404
v -0.214645 0.000609 0.176465
v -0.070556 0.000609 0.200489
v -0.319688 -0.043950 -0.034874
v -0.500168 -0.055141 -0.021904
v -0.332581 -0.055141 -0.038190
v 0.002255 0.017238 0.121766
v -0.225688 0.017238 0.188404
v -0.214645 0.017238 0.176465
v -0.332581 -0.043950 -0.038190
v -0.500168 -0.043950 -0.021904
v -0.345548 -0.055141 -0.041204
v -0.070556 0.000812 0.200489
v -0.281522 0.000609 -0.023130
v -0.068392 0.017238 0.214631
v -0.475104 0.017238 0.043475
v -0.345548 -0.043950 -0.041204
v -0.494182 -0.055141 -0.033163
v -0.358583 -0.055141 -0.043914
v -0.475104 0.000609 0.043475
v -0.281522 0.017238 -0.023130
v -0.501439 0.000609 0.010522
v -0.358583 -0.043950 -0.043914
v -0.494182 -0.043950 -0.033163
v -0.384824 -0.055141 -0.048415
v -0.371677 -0.055141 -0.046318
v -0.485670 0.017238 0.036336
v -0.485670 0.000609 0.036336
v -0.294151 0.000609 -0.027342
v -0.500177 0.017238 0.015593
v -0.500177 0.000609 0.015593
v -0.371677 -0.043950 -0.046318
v -0.384824 -0.043950 -0.048415
v -0.485651 -0.043950 -0.042640
v -0.398016 -0.055141 -0.050204
v -0.494196 0.017238 0.026855
v -0.494196 0.000609 0.026855
v -0.294151 0.017238 -0.027342
v -0.501439 0.017238 0.010522
v -0.503257 0.000609 0.003219
v -0.398016 -0.043950 -0.050204
v -0.485651 -0.055141 -0.042640
v -0.411247 -0.043950 -0.051685
v -0.411247 -0.055141 -0.051685
v -0.306875 0.000609 -0.031257
v -0.475082 -0.043950 -0.049774
v -0.424508 -0.043950 -0.052855
v -0.306875 0.017238 -0.031257
v -0.503257 0.017238 0.003219
v -0.319688 0.000609 -0.034874
v -0.475082 -0.055141 -0.049774
v -0.437793 -0.043950 -0.053715
v -0.424508 -0.055141 -0.052855
v -0.503254 0.000609 -0.009532
v -0.463102 -0.043950 -0.054140
v -0.437793 -0.055141 -0.053715
v -0.450422 -0.043950 -0.055481
v -0.319688 0.017238 -0.034874
v -0.332581 0.000609 -0.038190
v -0.503254 0.017238 -0.009532
v -0.463102 -0.055141 -0.054140
v -0.450422 -0.055141 -0.055481
v -0.345548 0.000609 -0.041204
v -0.500168 0.000609 -0.021904
v -0.332581 0.017238 -0.038190
v -0.500168 0.017238 -0.021904
v -0.345548 0.017238 -0.041204
v -0.358583 0.000609 -0.043914
v -0.494182 0.000609 -0.033163
v -0.371677 0.000609 -0.046318
v -0.358583 0.017238 -0.043914
v -0.494182 0.017238 -0.033163
v -0.384824 0.000609 -0.048415
v -0.371677 0.017238 -0.046318
v -0.384824 0.017238 -0.048415
v -0.485651 0.017238 -0.042640
v -0.398016 0.000609 -0.050204
v -0.398016 0.017238 -0.050204
v -0.485651 0.000609 -0.042640
v -0.411247 0.017238 -0.051685
v -0.411247 0.000609 -0.051685
v -0.475082 0.017238 -0.049774
v -0.424508 0.017238 -0.052855
v -0.475082 0.000609 -0.049774
v -0.437793 0.017238 -0.053715
v -0.424508 0.000609 -0.052855
v -0.463102 0.017238 -0.054140
v -0.437793 0.000609 -0.053715
v -0.450422 0.017238 -0.055481
v -0.463102 0.000609 -0.054140
v -0.450422 0.000609 -0.055481
vn -0.8194835012438562 0 0.5731027754156411
vn -0.9337387505863642 0 0.3579552285599628
vn 0.8194835012438562 0 -0.5731027754156411
vn 0.9337387505863642 0 -0.3579552285599628
vn 0 -1 0
vn 0 1 0
vn -0.6565985544030314 0 0.7542402391518563
vn 0.6565985544030314 0 -0.7542402391518563
vn -0.9703860716997339 0 0.24155925122246666
vn 0.9703860716997339 0 -0.24155925122246666
vn -0.5598416769819254 0 0.8285995997549512
vn 0.5598416769819254 0 -0.8285995997549512
vn 0.4547488138825638 0 -0.8906197371900094
vn -0.4547488138825638 0 0.8906197371900094
vn -0.9925833309041756 0 0.12156615981091072
vn 0.9925833309041756 0 -0.12156615981091072
vn 0.3052579198140335 0 -0.9522697109489565
vn 0.31637162154698606 0 -0.9486353340877255
vn -0.31637162154698606 0 0.9486353340877255
vn -0.3052579198140335 0 0.9522697109489565
vn 0.16446179551090168 0 -0.9863834537426764
vn -0.16446179551090168 0 0.9863834537426764
vn -0.9925255070065918 0 -0.1220373628906667
vn 0.9925255070065918 0 0.1220373628906667
vn 0.2829054652443147 0 -0.9591477976489848
vn -0.2829054652443147 0 0.9591477976489848
vn -0.7341367950357223 0 -0.6790015951193915
vn 0.7341367950357223 0 0.6790015951193915
vn -0.9335689618340861 0 -0.35839781458600856
vn 0.9335689618340861 0 0.35839781458600856
vn 0.260398188895897 0 -0.9655013118684702
vn -0.260398188895897 0 0.9655013118684702
vn 0.23774914434818717 0 -0.9713265899591675
vn -0.23774914434818717 0 0.9713265899591675
vn -0.8192119952692549 0 -0.5734908079533326
vn 0.8192119952692549 0 0.5734908079533326
vn 0.21497001915598807 0 -0.9766206483912134
vn -0.21497001915598807 0 0.9766206483912134
vn 0.1920728273267441 0 -0.981380674867154
vn -0.1920728273267441 0 0.981380674867154
vn -0.6562409034961985 0 -0.7545514406443693
vn 0.6562409034961985 0 0.7545514406443693
vn 0.1690705301827559 0 -0.9856039548539373
vn -0.1690705301827559 0 0.9856039548539373
vn 0.12280149140905891 0 -0.9924312538950549
vn 0.14597592484655922 0 -0.9892881427396123
vn -0.14597592484655922 0 0.9892881427396123
vn -0.12280149140905891 0 0.9924312538950549
vn -0.45432655312626535 0 -0.8908352165941841
vn 0.45432655312626535 0 0.8908352165941841
vn 0.09956023876627111 0 -0.9950315366141935
vn -0.09956023876627111 0 0.9950315366141935
vn 0.07626468457405043 0 -0.9970876079296245
vn -0.07626468457405043 0 0.9970876079296245
vn -0.22545141431904364 0 -0.9742544122463819
vn 0.22545141431904364 0 0.9742544122463819
vn 0.06459976983826952 0 -0.9979112534373196
vn -0.06459976983826952 0 0.9979112534373196
vn 0.13846194222999494 0 -0.9903677552070734
vn 0.016802361566898585 0 -0.9998588303584538
vn -0.016802361566898585 0 0.9998588303584538
vn -0.13846194222999494 0 0.9903677552070734
usemtl material_0_0
f 1//1 2//2 3//1
f 2//2 1//1 4//2
f 3//3 2//4 1//3
f 4//4 1//3 2//4
f 2//5 5//5 3//5
f 3//6 5//6 2//6
f 3//1 6//7 1//1
f 1//3 6//8 3//3
f 7//6 4//6 1//6
f 1//5 4//5 7//5
f 4//2 8//9 2//2
f 2//4 8//10 4//4
f 8//5 5//5 2//5
f 2//6 5//6 8//6
f 3//5 5//5 9//5
f 9//6 5//6 3//6
f 6//7 3//1 9//7
f 9//8 3//3 6//8
f 7//6 1//6 6//6
f 6//5 1//5 7//5
f 10//6 4//6 7//6
f 7//5 4//5 10//5
f 8//9 4//2 11//9
f 11//10 4//4 8//10
f 8//5 12//5 5//5
f 5//6 12//6 8//6
f 9//5 5//5 13//5
f 13//6 5//6 9//6
f 13//11 6//7 9//7
f 9//8 6//8 13//12
f 7//6 6//6 14//6
f 14//5 6//5 7//5
f 10//6 11//6 4//6
f 4//5 11//5 10//5
f 7//13 12//13 10//13
f 10//14 12//14 7//14
f 11//9 15//15 8//9
f 8//10 15//16 11//10
f 8//5 16//5 12//5
f 12//6 16//6 8//6
f 12//13 7//13 5//13
f 5//14 7//14 12//14
f 13//5 5//5 17//5
f 17//6 5//6 13//6
f 6//7 13//11 14//11
f 14//12 13//12 6//8
f 7//6 14//6 18//6
f 18//5 14//5 7//5
f 19//6 11//6 10//6
f 10//5 11//5 19//5
f 16//17 10//18 12//18
f 12//19 10//19 16//20
f 15//15 11//9 20//15
f 20//16 11//10 15//16
f 15//5 16//5 8//5
f 8//6 16//6 15//6
f 7//21 21//21 5//21
f 5//22 21//22 7//22
f 17//5 5//5 22//5
f 22//6 5//6 17//6
f 17//14 14//14 13//14
f 13//13 14//13 17//13
f 14//14 17//14 18//14
f 18//13 17//13 14//13
f 7//6 18//6 23//6
f 23//5 18//5 7//5
f 19//6 20//6 11//6
f 11//5 20//5 19//5
f 10//18 16//17 19//17
f 19//20 16//20 10//19
f 20//15 24//23 15//15
f 15//16 24//24 20//16
f 15//5 25//5 16//5
f 16//6 25//6 15//6
f 26//21 21//21 7//21
f 7//22 21//22 26//22
f 5//21 21//21 22//21
f 22//22 21//22 5//22
f 17//5 22//5 27//5
f 27//6 22//6 17//6
f 18//14 17//14 23//14
f 23//13 17//13 18//13
f 7//6 23//6 28//6
f 28//5 23//5 7//5
f 29//6 20//6 19//6
f 19//5 20//5 29//5
f 25//25 19//17 16//17
f 16//20 19//20 25//26
f 24//23 20//15 30//23
f 30//24 20//16 24//24
f 24//5 31//5 15//5
f 15//6 31//6 24//6
f 15//5 31//5 25//5
f 25//6 31//6 15//6
f 32//21 21//21 26//21
f 26//22 21//22 32//22
f 28//27 26//27 7//27
f 7//28 26//28 28//28
f 17//5 27//5 33//5
f 33//6 27//6 17//6
f 17//27 34//27 23//27
f 23//28 34//28 17//28
f 23//21 35//21 28//21
f 28//22 35//22 23//22
f 36//6 20//6 29//6
f 29//5 20//5 36//5
f 19//17 25//25 29//25
f 29//26 25//26 19//20
f 36//6 30//6 20//6
f 20//5 30//5 36//5
f 30//23 37//29 24//23
f 24//24 37//30 30//24
f 24//5 38//5 31//5
f 31//6 38//6 24//6
f 31//31 29//25 25//25
f 25//26 29//26 31//32
f 21//21 32//21 39//21
f 39//22 32//22 21//22
f 35//27 32//27 26//27
f 26//28 32//28 35//28
f 26//13 39//13 32//13
f 32//14 39//14 26//14
f 26//27 28//27 35//27
f 35//28 28//28 26//28
f 27//22 40//22 33//22
f 33//21 40//21 27//21
f 33//27 41//27 17//27
f 17//28 41//28 33//28
f 17//27 41//27 34//27
f 34//28 41//28 17//28
f 35//21 23//21 34//21
f 34//22 23//22 35//22
f 29//25 31//31 36//31
f 36//32 31//32 29//26
f 42//6 30//6 36//6
f 36//5 30//5 42//5
f 37//29 30//23 43//29
f 43//30 30//24 37//30
f 37//5 44//5 24//5
f 24//6 44//6 37//6
f 24//5 44//5 38//5
f 38//6 44//6 24//6
f 38//33 36//31 31//31
f 31//32 36//32 38//34
f 39//6 41//6 21//6
f 21//5 41//5 39//5
f 32//27 35//27 45//27
f 45//28 35//28 32//28
f 34//5 26//5 35//5
f 35//6 26//6 34//6
f 46//13 39//13 26//13
f 26//14 39//14 46//14
f 40//22 27//22 47//22
f 47//21 27//21 40//21
f 41//27 33//27 40//27
f 40//28 33//28 41//28
f 48//14 34//14 41//14
f 41//13 34//13 48//13
f 49//6 30//6 42//6
f 42//5 30//5 49//5
f 36//31 38//33 42//33
f 42//34 38//34 36//32
f 49//6 43//6 30//6
f 30//5 43//5 49//5
f 43//29 50//35 37//29
f 37//30 50//36 43//30
f 37//5 51//5 44//5
f 44//6 51//6 37//6
f 44//37 42//33 38//33
f 38//34 42//34 44//38
f 39//6 48//6 41//6
f 41//5 48//5 39//5
f 21//6 41//6 47//6
f 47//5 41//5 21//5
f 52//5 26//5 34//5
f 34//6 26//6 52//6
f 39//13 46//13 53//13
f 53//14 46//14 39//14
f 54//5 46//5 26//5
f 26//6 46//6 54//6
f 47//6 41//6 40//6
f 40//5 41//5 47//5
f 34//14 48//14 52//14
f 52//13 48//13 34//13
f 42//33 44//37 49//37
f 49//38 44//38 42//34
f 55//6 43//6 49//6
f 49//5 43//5 55//5
f 50//35 43//29 56//35
f 56//36 43//30 50//36
f 50//5 57//5 37//5
f 37//6 57//6 50//6
f 37//5 58//5 51//5
f 51//6 58//6 37//6
f 51//39 49//37 44//37
f 44//38 49//38 51//40
f 39//6 59//6 48//6
f 48//5 59//5 39//5
f 60//5 26//5 52//5
f 52//6 26//6 60//6
f 61//17 53//18 46//18
f 46//19 53//19 61//20
f 53//6 62//6 39//6
f 39//5 62//5 53//5
f 54//5 61//5 46//5
f 46//6 61//6 54//6
f 54//5 26//5 63//5
f 63//6 26//6 54//6
f 59//7 52//11 48//11
f 48//12 52//12 59//8
f 64//6 43//6 55//6
f 55//5 43//5 64//5
f 49//37 51//39 55//39
f 55//40 51//40 49//38
f 65//6 56//6 43//6
f 43//5 56//5 65//5
f 66//41 50//35 56//35
f 56//36 50//36 66//42
f 50//5 67//5 57//5
f 57//6 67//6 50//6
f 37//5 57//5 58//5
f 58//6 57//6 37//6
f 58//43 55//39 51//39
f 51//40 55//40 58//44
f 39//6 68//6 59//6
f 59//5 68//5 39//5
f 69//5 26//5 60//5
f 60//6 26//6 69//6
f 52//11 59//7 60//7
f 60//8 59//8 52//12
f 53//18 61//17 70//17
f 70//20 61//20 53//19
f 53//6 71//6 62//6
f 62//5 71//5 53//5
f 39//6 62//6 68//6
f 68//5 62//5 39//5
f 72//5 61//5 54//5
f 54//6 61//6 72//6
f 63//5 26//5 69//5
f 69//6 26//6 63//6
f 62//2 54//9 63//2
f 63//4 54//10 62//4
f 65//6 43//6 64//6
f 64//5 43//5 65//5
f 55//39 58//43 64//43
f 64//44 58//44 55//40
f 73//6 56//6 65//6
f 65//5 56//5 73//5
f 50//35 66//41 74//41
f 74//42 66//42 50//36
f 75//6 66//6 56//6
f 56//5 66//5 75//5
f 50//5 76//5 67//5
f 67//6 76//6 50//6
f 67//45 65//46 57//46
f 57//47 65//47 67//48
f 57//46 64//43 58//43
f 58//44 64//44 57//47
f 69//1 59//7 68//1
f 68//3 59//8 69//3
f 59//7 69//1 60//7
f 60//8 69//3 59//8
f 77//25 70//17 61//17
f 61//20 70//20 77//26
f 70//6 71//6 53//6
f 53//5 71//5 70//5
f 54//9 62//2 71//9
f 71//10 62//4 54//10
f 63//2 68//1 62//2
f 62//4 68//3 63//4
f 72//5 77//5 61//5
f 61//6 77//6 72//6
f 71//9 72//15 54//9
f 54//10 72//16 71//10
f 68//1 63//2 69//1
f 69//3 63//4 68//3
f 64//43 57//46 65//46
f 65//47 57//47 64//44
f 75//6 56//6 73//6
f 73//5 56//5 75//5
f 65//46 67//45 73//45
f 73//48 67//48 65//47
f 78//49 74//41 66//41
f 66//42 74//42 78//50
f 74//5 76//5 50//5
f 50//6 76//6 74//6
f 79//6 66//6 75//6
f 75//5 66//5 79//5
f 76//51 73//45 67//45
f 67//48 73//48 76//52
f 70//17 77//25 80//25
f 80//26 77//26 70//20
f 70//6 81//6 71//6
f 71//5 81//5 70//5
f 72//5 82//5 77//5
f 77//6 82//6 72//6
f 72//15 71//9 81//15
f 81//16 71//10 72//16
f 73//45 76//51 75//51
f 75//52 76//52 73//48
f 74//41 78//49 83//49
f 83//50 78//50 74//42
f 84//6 78//6 66//6
f 66//5 78//5 84//5
f 74//5 85//5 76//5
f 76//6 85//6 74//6
f 84//6 66//6 79//6
f 79//5 66//5 84//5
f 75//51 85//53 79//53
f 79//54 85//54 75//52
f 82//31 80//25 77//25
f 77//26 80//26 82//32
f 80//6 81//6 70//6
f 70//5 81//5 80//5
f 86//5 82//5 72//5
f 72//6 82//6 86//6
f 81//15 86//23 72//15
f 72//16 86//24 81//16
f 85//53 75//51 76//51
f 76//52 75//52 85//54
f 87//55 83//49 78//49
f 78//50 83//50 87//56
f 83//5 88//5 74//5
f 74//6 88//6 83//6
f 89//6 78//6 84//6
f 84//5 78//5 89//5
f 74//5 88//5 85//5
f 85//6 88//6 74//6
f 79//53 88//57 84//57
f 84//58 88//58 79//54
f 88//57 79//53 85//53
f 85//54 79//54 88//58
f 80//25 82//31 90//31
f 90//32 82//32 80//26
f 90//6 81//6 80//6
f 80//5 81//5 90//5
f 86//5 91//5 82//5
f 82//6 91//6 86//6
f 86//23 81//15 92//23
f 92//24 81//16 86//24
f 83//49 87//55 93//55
f 93//56 87//56 83//50
f 78//6 89//6 87//6
f 87//5 89//5 78//5
f 83//5 94//5 88//5
f 88//6 94//6 83//6
f 84//59 94//60 89//60
f 89//61 94//61 84//62
f 94//60 84//59 88//59
f 88//62 84//62 94//61
f 91//33 90//31 82//31
f 82//32 90//32 91//34
f 90//6 92//6 81//6
f 81//5 92//5 90//5
f 86//5 95//5 91//5
f 91//6 95//6 86//6
f 92//23 96//29 86//23
f 86//24 96//30 92//24
f 89//60 93//55 87//55
f 87//56 93//56 89//61
f 94//5 83//5 93//5
f 93//6 83//6 94//6
f 93//55 89//60 94//60
f 94//61 89//61 93//56
f 90//31 91//33 97//33
f 97//34 91//34 90//32
f 97//6 92//6 90//6
f 90//5 92//5 97//5
f 96//5 95//5 86//5
f 86//6 95//6 96//6
f 95//37 97//33 91//33
f 91//34 97//34 95//38
f 96//29 92//23 98//29
f 98//30 92//24 96//30
f 99//6 92//6 97//6
f 97//5 92//5 99//5
f 96//5 100//5 95//5
f 95//6 100//6 96//6
f 97//33 95//37 99//37
f 99//38 95//38 97//34
f 99//6 98//6 92//6
f 92//5 98//5 99//5
f 98//29 101//35 96//29
f 96//30 101//36 98//30
f 96//5 102//5 100//5
f 100//6 102//6 96//6
f 100//39 99//37 95//37
f 95//38 99//38 100//40
f 103//6 98//6 99//6
f 99//5 98//5 103//5
f 101//35 98//29 104//35
f 104//36 98//30 101//36
f 101//5 105//5 96//5
f 96//6 105//6 101//6
f 96//5 105//5 102//5
f 102//6 105//6 96//6
f 102//43 103//39 100//39
f 100//40 103//40 102//44
f 99//37 100//39 103//39
f 103//40 100//40 99//38
f 106//6 98//6 103//6
f 103//5 98//5 106//5
f 107//6 104//6 98//6
f 98//5 104//5 107//5
f 108//41 101//35 104//35
f 104//36 101//36 108//42
f 101//5 109//5 105//5
f 105//6 109//6 101//6
f 105//46 106//43 102//43
f 102//44 106//44 105//47
f 103//39 102//43 106//43
f 106//44 102//44 103//40
f 107//6 98//6 106//6
f 106//5 98//5 107//5
f 110//6 104//6 107//6
f 107//5 104//5 110//5
f 101//35 108//41 111//41
f 111//42 108//42 101//36
f 112//6 108//6 104//6
f 104//5 108//5 112//5
f 101//5 113//5 109//5
f 109//6 113//6 101//6
f 109//45 107//46 105//46
f 105//47 107//47 109//48
f 106//43 105//46 107//46
f 107//47 105//47 106//44
f 112//6 104//6 110//6
f 110//5 104//5 112//5
f 107//46 109//45 110//45
f 110//48 109//48 107//47
f 114//49 111//41 108//41
f 108//42 111//42 114//50
f 111//5 113//5 101//5
f 101//6 113//6 111//6
f 115//6 108//6 112//6
f 112//5 108//5 115//5
f 113//51 110//45 109//45
f 109//48 110//48 113//52
f 110//45 113//51 112//51
f 112//52 113//52 110//48
f 111//41 114//49 116//49
f 116//50 114//50 111//42
f 117//6 114//6 108//6
f 108//5 114//5 117//5
f 111//5 118//5 113//5
f 113//6 118//6 111//6
f 117//6 108//6 115//6
f 115//5 108//5 117//5
f 112//51 118//53 115//53
f 115//54 118//54 112//52
f 118//53 112//51 113//51
f 113//52 112//52 118//54
f 119//55 116//49 114//49
f 114//50 116//50 119//56
f 116//5 120//5 111//5
f 111//6 120//6 116//6
f 121//6 114//6 117//6
f 117//5 114//5 121//5
f 111//5 120//5 118//5
f 118//6 120//6 111//6
f 115//53 120//57 117//57
f 117//58 120//58 115//54
f 120//57 115//53 118//53
f 118//54 115//54 120//58
f 116//49 119//55 122//55
f 122//56 119//56 116//50
f 114//6 121//6 119//6
f 119//5 121//5 114//5
f 116//5 123//5 120//5
f 120//6 123//6 116//6
f 117//59 123//60 121//60
f 121//61 123//61 117//62
f 123//60 117//59 120//59
f 120//62 117//62 123//61
f 121//60 122//55 119//55
f 119//56 122//56 121//61
f 123//5 116//5 122//5
f 122//6 116//6 123//6
f 122//55 121//60 123//60
f 123//61 121//61 122//56
