# SSTK version 0.8.0
# 51
mtllib original-51.mtl
o #ID456
v 0.090530 0.026738 0.230814
v 0.087908 0.026738 0.231704
v 0.090530 -0.029270 0.230814
v 0.087908 -0.029270 0.231704
v 0.087908 0.026738 0.231704
v 0.090530 -0.029270 0.230814
v 0.087908 -0.029270 0.231704
v 0.090530 0.026738 0.230814
v 0.085424 -0.029270 0.232929
v 0.085424 0.026738 0.232929
v 0.085424 -0.029270 0.232929
v 0.085424 0.026738 0.232929
vn -0.3214395053927337 0 -0.9469301158865288
vn -0.38268341623421775 0 -0.9238795391929125
vn 0.38268341623421775 0 0.9238795391929125
vn 0.3214395053927337 0 0.9469301158865288
vn -0.4422887145616827 0 -0.8968727295282058
vn 0.4422887145616827 0 0.8968727295282058
usemtl material_0_0
f 3//1 2//2 1//1
f 2//2 3//1 4//2
f 7//3 6//4 5//3
f 8//4 5//3 6//4
f 9//5 2//2 4//2
f 2//2 9//5 10//5
f 12//6 11//6 5//3
f 7//3 5//3 11//6
