# SSTK version 0.8.0
# 30
mtllib original-30.mtl
o #ID327
v -0.179094 -0.022439 -0.043813
v -0.182266 -0.021718 -0.048282
v -0.175922 -0.021718 -0.039344
v -0.185222 -0.019603 -0.052446
v -0.172967 -0.019603 -0.035179
v -0.170429 -0.016238 -0.031603
v -0.187760 -0.016238 -0.056022
v -0.189707 -0.011852 -0.058766
v -0.168481 -0.011852 -0.028859
v -0.190932 -0.006746 -0.060491
v -0.167257 -0.006746 -0.027134
v -0.166839 -0.001266 -0.026546
v -0.191349 -0.001266 -0.061079
v -0.190932 0.004215 -0.060491
v -0.167257 0.004215 -0.027134
v -0.168481 0.009321 -0.028859
v -0.189707 0.009321 -0.058766
v -0.170429 0.013706 -0.031603
v -0.187760 0.013706 -0.056022
v -0.172967 0.017071 -0.035179
v -0.185222 0.017071 -0.052446
v -0.175922 0.019187 -0.039344
v -0.182266 0.019187 -0.048282
v -0.179094 0.019908 -0.043813
vn -0.8154819360712797 0 0.5787825256013154
usemtl material_0_0
f 3//1 2//1 1//1
f 3//1 4//1 2//1
f 5//1 4//1 3//1
f 6//1 4//1 5//1
f 6//1 7//1 4//1
f 6//1 8//1 7//1
f 9//1 8//1 6//1
f 9//1 10//1 8//1
f 11//1 10//1 9//1
f 12//1 10//1 11//1
f 12//1 13//1 10//1
f 12//1 14//1 13//1
f 15//1 14//1 12//1
f 16//1 14//1 15//1
f 16//1 17//1 14//1
f 18//1 17//1 16//1
f 18//1 19//1 17//1
f 20//1 19//1 18//1
f 20//1 21//1 19//1
f 22//1 21//1 20//1
f 22//1 23//1 21//1
f 23//1 22//1 24//1
