# SSTK version 0.8.0
# 5
mtllib original-5.mtl
o 3dw.200065ca496c39086372ead55db87fa8/Model/mesh25/mesh25-geometry/material_0/component_4#mesh25-geometry
v -0.204955 0.923464 0.006510
v -0.207499 0.923909 0.006510
v -0.223271 0.919679 0.006510
v 0.197835 0.923909 0.006510
v 0.195291 0.923464 0.006510
v 0.213607 0.919679 0.006510
v -0.207499 0.923909 0.006510
v -0.204955 0.923464 0.006510
v -0.169312 0.930830 0.006510
v 0.195291 0.923464 0.006510
v 0.197835 0.923909 0.006510
v 0.159648 0.930830 0.006510
v -0.207499 0.923909 0.006510
v -0.169312 0.930830 0.006510
v -0.191131 0.927291 0.006510
v 0.159648 0.930830 0.006510
v 0.197835 0.923909 0.006510
v 0.181467 0.927291 0.006510
v -0.191131 0.927291 0.006510
v -0.169312 0.930830 0.006510
v -0.157437 0.934255 0.006510
v 0.159648 0.930830 0.006510
v 0.181467 0.927291 0.006510
v 0.147773 0.934255 0.006510
v -0.157437 0.934255 0.006510
v -0.169312 0.930830 0.006510
v -0.114796 0.938822 0.006510
v 0.159648 0.930830 0.006510
v 0.147773 0.934255 0.006510
v 0.105132 0.938822 0.006510
v -0.157437 0.934255 0.006510
v -0.114796 0.938822 0.006510
v -0.106857 0.941670 0.006510
v 0.105132 0.938822 0.006510
v 0.147773 0.934255 0.006510
v 0.097193 0.941670 0.006510
v -0.106857 0.941670 0.006510
v -0.114796 0.938822 0.006510
v -0.059907 0.943628 0.006510
v 0.105132 0.938822 0.006510
v 0.097193 0.941670 0.006510
v 0.050243 0.943628 0.006510
v -0.106857 0.941670 0.006510
v -0.059907 0.943628 0.006510
v -0.055931 0.946128 0.006510
v 0.050243 0.943628 0.006510
v 0.097193 0.941670 0.006510
v 0.046267 0.946128 0.006510
v -0.055931 0.946128 0.006510
v -0.059907 0.943628 0.006510
v -0.004832 0.945232 0.006510
v 0.050243 0.943628 0.006510
v 0.046267 0.946128 0.006510
v -0.004832 0.945232 0.006510
v -0.055931 0.946128 0.006510
v -0.004832 0.945232 0.006510
v 0.046267 0.946128 0.006510
v -0.055931 0.946128 0.006510
v 0.046267 0.946128 0.006510
v -0.004832 0.947616 0.006510
vn 0 0 1
vn 0 0 -1
usemtl material_0_2
f 1//1 2//1 3//1
f 3//2 2//2 1//2
f 4//1 5//1 6//1
f 6//2 5//2 4//2
f 7//1 8//1 9//1
f 9//2 8//2 7//2
f 10//1 11//1 12//1
f 12//2 11//2 10//2
f 13//1 14//1 15//1
f 15//2 14//2 13//2
f 16//1 17//1 18//1
f 18//2 17//2 16//2
f 19//1 20//1 21//1
f 21//2 20//2 19//2
f 22//1 23//1 24//1
f 24//2 23//2 22//2
f 25//1 26//1 27//1
f 27//2 26//2 25//2
f 28//1 29//1 30//1
f 30//2 29//2 28//2
f 31//1 32//1 33//1
f 33//2 32//2 31//2
f 34//1 35//1 36//1
f 36//2 35//2 34//2
f 37//1 38//1 39//1
f 39//2 38//2 37//2
f 40//1 41//1 42//1
f 42//2 41//2 40//2
f 43//1 44//1 45//1
f 45//2 44//2 43//2
f 46//1 47//1 48//1
f 48//2 47//2 46//2
f 49//1 50//1 51//1
f 51//2 50//2 49//2
f 52//1 53//1 54//1
f 54//2 53//2 52//2
f 55//1 56//1 57//1
f 57//2 56//2 55//2
f 58//1 59//1 60//1
f 60//2 59//2 58//2
