# SSTK version 0.8.0
# 4
mtllib original-4.mtl
o 3dw.200065ca496c39086372ead55db87fa8/Model/mesh25/mesh25-geometry/material_0/component_3#mesh25-geometry
v -0.235281 0.864981 0.077109
v -0.211189 0.868741 0.077231
v -0.235281 0.862281 0.077231
v -0.235281 0.864981 0.077109
v -0.211189 0.868741 0.077231
v -0.235281 0.862281 0.077231
v -0.211189 0.868741 0.077231
v -0.211791 0.871280 0.076987
v -0.194365 0.872218 0.077231
v -0.211189 0.868741 0.077231
v -0.211791 0.871280 0.076987
v -0.194365 0.872218 0.077231
v -0.211189 0.868741 0.077231
v -0.235281 0.864981 0.077109
v -0.211791 0.871280 0.076987
v -0.211189 0.868741 0.077231
v -0.235281 0.864981 0.077109
v -0.211791 0.871280 0.076987
v -0.194365 0.872218 0.077231
v -0.211791 0.871280 0.076987
v -0.194892 0.874772 0.076987
v -0.194365 0.872218 0.077231
v -0.211791 0.871280 0.076987
v -0.194892 0.874772 0.076987
v -0.237627 0.873731 0.074708
v -0.211791 0.871280 0.076987
v -0.235281 0.864981 0.077109
v -0.237627 0.873731 0.074708
v -0.211791 0.871280 0.076987
v -0.235281 0.864981 0.077109
v -0.211791 0.871280 0.076987
v -0.237627 0.873731 0.074708
v -0.213879 0.880084 0.074651
v -0.211791 0.871280 0.076987
v -0.237627 0.873731 0.074708
v -0.213879 0.880084 0.074651
v -0.278826 0.879770 0.065828
v -0.239851 0.882024 0.070928
v -0.270896 0.873687 0.070902
v -0.239851 0.882024 0.070928
v -0.213879 0.880084 0.074651
v -0.237627 0.873731 0.074708
v -0.239851 0.882024 0.070928
v -0.213879 0.880084 0.074651
v -0.237627 0.873731 0.074708
v -0.239851 0.882024 0.070928
v -0.278826 0.879770 0.065828
v -0.241904 0.889679 0.065840
v -0.213879 0.880084 0.074651
v -0.239851 0.882024 0.070928
v -0.215862 0.888445 0.070902
v -0.213879 0.880084 0.074651
v -0.239851 0.882024 0.070928
v -0.215862 0.888445 0.070902
v -0.285906 0.885202 0.059551
v -0.241904 0.889679 0.065840
v -0.278826 0.879770 0.065828
v -0.241904 0.889679 0.065840
v -0.215862 0.888445 0.070902
v -0.239851 0.882024 0.070928
v -0.241904 0.889679 0.065840
v -0.285906 0.885202 0.059551
v -0.243738 0.896515 0.059556
v -0.215862 0.888445 0.070902
v -0.241904 0.889679 0.065840
v -0.217693 0.896164 0.065828
v -0.243738 0.896515 0.059556
v -0.217693 0.896164 0.065828
v -0.241904 0.889679 0.065840
v -0.217693 0.896164 0.065828
v -0.243738 0.896515 0.059556
v -0.219328 0.903056 0.059551
vn 0.021846005922889437 -0.08639702266529614 -0.996021237976274
vn -0.021846005922889437 0.08639702266529614 0.996021237976274
vn 0.0620680148648315 -0.24537105602022574 -0.9674402340187523
vn 0.05920399574403534 -0.24525598502879536 -0.967648897428967
vn -0.0620680148648315 0.24537105602022574 0.9674402340187523
vn -0.05920399574403534 0.24525598502879536 0.967648897428967
vn 0.1403009924475693 -0.5208949611881335 -0.8420119185184021
vn -0.1403009924475693 0.5208949611881335 0.8420119185184021
vn 0.10228905359673449 -0.3882361947311076 -0.9158654959190208
vn 0.09696301453671652 -0.38914503205379125 -0.9160591235503341
vn -0.10228905359673449 0.3882361947311076 0.9158654959190208
vn -0.09696301453671652 0.38914503205379125 0.9160591235503341
vn 0.17213096709477774 -0.6408888591991196 -0.748085824168235
vn -0.17213096709477774 0.6408888591991196 0.748085824168235
vn 0.13893692139840313 -0.5214176937264865 -0.8419145565562374
vn 0.1289969796895318 -0.5236079542742889 -0.8421368590981355
vn -0.13893692139840313 0.5214176937264865 0.8419145565562374
vn -0.1289969796895318 0.5236079542742889 0.8421368590981355
vn 0.17149193879640176 -0.6411127714162157 -0.748040727002795
vn 0.15910398128344588 -0.6440629019192807 -0.7482438783652504
vn -0.17149193879640176 0.6411127714162157 0.748040727002795
vn -0.15910398128344588 0.6440629019192807 0.7482438783652504
usemtl material_0_2
f 1//1 2//1 3//1
f 3//2 2//2 1//2
f 4//1 5//1 6//1
f 6//2 5//2 4//2
f 7//1 8//1 9//1
f 9//2 8//2 7//2
f 10//1 11//1 12//1
f 12//2 11//2 10//2
f 13//1 14//1 15//1
f 15//2 14//2 13//2
f 16//1 17//1 18//1
f 18//2 17//2 16//2
f 19//1 20//1 21//1
f 21//2 20//2 19//2
f 22//1 23//1 24//1
f 24//2 23//2 22//2
f 25//3 26//4 27//3
f 27//5 26//6 25//5
f 28//3 29//4 30//3
f 30//5 29//6 28//5
f 31//4 32//3 33//4
f 33//6 32//5 31//6
f 34//4 35//3 36//4
f 36//6 35//5 34//6
f 37//7 38//7 39//7
f 39//8 38//8 37//8
f 40//9 41//10 42//9
f 42//11 41//12 40//11
f 43//9 44//10 45//9
f 45//11 44//12 43//11
f 46//7 47//7 48//7
f 48//8 47//8 46//8
f 49//10 50//9 51//10
f 51//12 50//11 49//12
f 52//10 53//9 54//10
f 54//12 53//11 52//12
f 55//13 56//13 57//13
f 57//14 56//14 55//14
f 58//15 59//16 60//15
f 60//17 59//18 58//17
f 61//13 62//13 63//13
f 63//14 62//14 61//14
f 64//16 65//15 66//16
f 66//18 65//17 64//18
f 67//19 68//20 69//19
f 69//21 68//22 67//21
f 70//20 71//19 72//20
f 72//22 71//21 70//22
