# SSTK version 0.8.0
# 53
mtllib original-53.mtl
o 3dw.200065ca496c39086372ead55db87fa8/Model/mesh25/mesh25-geometry/material_5/component_1#mesh25-geometry
v 0.241554 -0.497801 0.077231
v 0.244255 -0.497801 0.076987
v 0.241554 0.209410 0.077231
v 0.241554 0.209410 0.077231
v 0.244255 -0.497801 0.076987
v 0.241554 -0.497801 0.077231
v 0.244255 0.209410 0.076987
v 0.241554 0.209410 0.077231
v 0.244255 -0.497801 0.076987
v 0.244255 -0.497801 0.076987
v 0.241554 0.209410 0.077231
v 0.244255 0.209410 0.076987
v 0.241554 0.845900 0.077231
v 0.241554 0.209410 0.077231
v 0.244255 0.209410 0.076987
v 0.244255 0.209410 0.076987
v 0.241554 0.209410 0.077231
v 0.241554 0.845900 0.077231
v 0.244255 -0.497801 0.076987
v 0.253619 -0.497801 0.074651
v 0.244255 0.209410 0.076987
v 0.244255 0.209410 0.076987
v 0.253619 -0.497801 0.074651
v 0.244255 -0.497801 0.076987
v 0.295712 0.845900 0.024143
v 0.295733 0.845900 0.023053
v 0.295733 0.209410 0.023053
v 0.295733 0.209410 0.023053
v 0.295733 0.845900 0.023053
v 0.295712 0.845900 0.024143
v 0.295728 0.841229 0.023053
v 0.295733 0.209410 0.023053
v 0.295733 0.845900 0.023053
v 0.295733 0.845900 0.023053
v 0.295733 0.209410 0.023053
v 0.295728 0.841229 0.023053
v 0.295733 -0.497801 0.023053
v 0.295712 0.845900 0.024143
v 0.295733 0.209410 0.023053
v 0.295733 0.209410 0.023053
v 0.295712 0.845900 0.024143
v 0.295733 -0.497801 0.023053
v 0.295489 -0.497801 0.025753
v 0.295712 0.845900 0.024143
v 0.295733 -0.497801 0.023053
v 0.295733 -0.497801 0.023053
v 0.295712 0.845900 0.024143
v 0.295489 -0.497801 0.025753
v 0.244255 0.845900 0.076987
v 0.241554 0.845900 0.077231
v 0.244255 0.209410 0.076987
v 0.244255 0.209410 0.076987
v 0.241554 0.845900 0.077231
v 0.244255 0.845900 0.076987
v 0.253619 0.209410 0.074651
v 0.244255 0.209410 0.076987
v 0.253619 -0.497801 0.074651
v 0.253619 -0.497801 0.074651
v 0.244255 0.209410 0.076987
v 0.253619 0.209410 0.074651
v 0.295489 0.845900 0.025753
v 0.295712 0.845900 0.024143
v 0.295489 -0.497801 0.025753
v 0.295489 -0.497801 0.025753
v 0.295712 0.845900 0.024143
v 0.295489 0.845900 0.025753
v 0.253619 0.845900 0.074651
v 0.244255 0.845900 0.076987
v 0.253619 0.209410 0.074651
v 0.253619 0.209410 0.074651
v 0.244255 0.845900 0.076987
v 0.253619 0.845900 0.074651
v 0.244255 0.845900 0.076987
v 0.244255 0.209410 0.076987
v 0.253619 0.209410 0.074651
v 0.253619 0.209410 0.074651
v 0.244255 0.209410 0.076987
v 0.244255 0.845900 0.076987
v 0.253619 -0.497801 0.074651
v 0.262512 -0.497801 0.070902
v 0.253619 0.209410 0.074651
v 0.253619 0.209410 0.074651
v 0.262512 -0.497801 0.070902
v 0.253619 -0.497801 0.074651
v 0.295489 0.209410 0.025753
v 0.295489 0.845900 0.025753
v 0.295489 -0.497801 0.025753
v 0.295489 -0.497801 0.025753
v 0.295489 0.845900 0.025753
v 0.295489 0.209410 0.025753
v 0.295578 0.841286 0.025761
v 0.295489 0.845900 0.025753
v 0.295460 0.845902 0.026842
v 0.295460 0.845902 0.026842
v 0.295489 0.845900 0.025753
v 0.295578 0.841286 0.025761
v 0.295489 -0.497801 0.025753
v 0.295489 0.209410 0.025753
v 0.293153 -0.497801 0.035117
v 0.293153 -0.497801 0.035117
v 0.295489 0.209410 0.025753
v 0.295489 -0.497801 0.025753
v 0.262512 0.845900 0.070902
v 0.253619 0.845900 0.074651
v 0.262512 0.209410 0.070902
v 0.262512 0.209410 0.070902
v 0.253619 0.845900 0.074651
v 0.262512 0.845900 0.070902
v 0.253619 0.845900 0.074651
v 0.253619 0.209410 0.074651
v 0.262512 0.209410 0.070902
v 0.262512 0.209410 0.070902
v 0.253619 0.209410 0.074651
v 0.253619 0.845900 0.074651
v 0.262512 0.209410 0.070902
v 0.253619 0.209410 0.074651
v 0.262512 -0.497801 0.070902
v 0.262512 -0.497801 0.070902
v 0.253619 0.209410 0.074651
v 0.262512 0.209410 0.070902
v 0.295489 0.845900 0.025753
v 0.295489 0.209410 0.025753
v 0.295578 0.841286 0.025761
v 0.295578 0.841286 0.025761
v 0.295489 0.209410 0.025753
v 0.295489 0.845900 0.025753
v 0.295460 0.845902 0.026842
v 0.293153 -0.497801 0.035117
v 0.295578 0.841286 0.025761
v 0.295578 0.841286 0.025761
v 0.293153 -0.497801 0.035117
v 0.295460 0.845902 0.026842
v 0.293153 0.845900 0.035117
v 0.293153 -0.497801 0.035117
v 0.295460 0.845902 0.026842
v 0.295460 0.845902 0.026842
v 0.293153 -0.497801 0.035117
v 0.293153 0.845900 0.035117
v 0.295578 0.841286 0.025761
v 0.293153 -0.497801 0.035117
v 0.295489 0.209410 0.025753
v 0.295489 0.209410 0.025753
v 0.293153 -0.497801 0.035117
v 0.295578 0.841286 0.025761
v 0.270722 0.845900 0.065828
v 0.262512 0.845900 0.070902
v 0.270722 0.209410 0.065828
v 0.270722 0.209410 0.065828
v 0.262512 0.845900 0.070902
v 0.270722 0.845900 0.065828
v 0.262512 0.845900 0.070902
v 0.262512 0.209410 0.070902
v 0.270722 0.209410 0.065828
v 0.270722 0.209410 0.065828
v 0.262512 0.209410 0.070902
v 0.262512 0.845900 0.070902
v 0.262512 -0.497801 0.070902
v 0.270722 -0.497801 0.065828
v 0.262512 0.209410 0.070902
v 0.262512 0.209410 0.070902
v 0.270722 -0.497801 0.065828
v 0.262512 -0.497801 0.070902
v 0.293153 0.209410 0.035117
v 0.293153 -0.497801 0.035117
v 0.293153 0.845900 0.035117
v 0.293153 0.845900 0.035117
v 0.293153 -0.497801 0.035117
v 0.293153 0.209410 0.035117
v 0.293153 0.845900 0.035117
v 0.289404 0.845900 0.044010
v 0.293423 0.841480 0.035184
v 0.293423 0.841480 0.035184
v 0.289404 0.845900 0.044010
v 0.293153 0.845900 0.035117
v 0.293153 -0.497801 0.035117
v 0.293153 0.209410 0.035117
v 0.289404 -0.497801 0.044010
v 0.289404 -0.497801 0.044010
v 0.293153 0.209410 0.035117
v 0.293153 -0.497801 0.035117
v 0.278053 0.845900 0.059551
v 0.270722 0.845900 0.065828
v 0.278053 0.209410 0.059551
v 0.278053 0.209410 0.059551
v 0.270722 0.845900 0.065828
v 0.278053 0.845900 0.059551
v 0.270722 0.845900 0.065828
v 0.270722 0.209410 0.065828
v 0.278053 0.209410 0.059551
v 0.278053 0.209410 0.059551
v 0.270722 0.209410 0.065828
v 0.270722 0.845900 0.065828
v 0.270722 0.209410 0.065828
v 0.262512 0.209410 0.070902
v 0.270722 -0.497801 0.065828
v 0.270722 -0.497801 0.065828
v 0.262512 0.209410 0.070902
v 0.270722 0.209410 0.065828
v 0.293423 0.841480 0.035184
v 0.293153 0.209410 0.035117
v 0.293153 0.845900 0.035117
v 0.293153 0.845900 0.035117
v 0.293153 0.209410 0.035117
v 0.293423 0.841480 0.035184
v 0.289404 -0.497801 0.044010
v 0.293423 0.841480 0.035184
v 0.289404 0.845900 0.044010
v 0.289404 0.845900 0.044010
v 0.293423 0.841480 0.035184
v 0.289404 -0.497801 0.044010
v 0.284330 0.845900 0.052220
v 0.284330 -0.497801 0.052220
v 0.289404 0.845900 0.044010
v 0.289404 0.845900 0.044010
v 0.284330 -0.497801 0.052220
v 0.284330 0.845900 0.052220
v 0.293423 0.841480 0.035184
v 0.289404 -0.497801 0.044010
v 0.293153 0.209410 0.035117
v 0.293153 0.209410 0.035117
v 0.289404 -0.497801 0.044010
v 0.293423 0.841480 0.035184
v 0.278053 0.845900 0.059551
v 0.278053 -0.497801 0.059551
v 0.284330 0.845900 0.052220
v 0.284330 0.845900 0.052220
v 0.278053 -0.497801 0.059551
v 0.278053 0.845900 0.059551
v 0.278053 0.209410 0.059551
v 0.278053 -0.497801 0.059551
v 0.278053 0.845900 0.059551
v 0.278053 0.845900 0.059551
v 0.278053 -0.497801 0.059551
v 0.278053 0.209410 0.059551
v 0.278053 0.209410 0.059551
v 0.270722 0.209410 0.065828
v 0.278053 -0.497801 0.059551
v 0.278053 -0.497801 0.059551
v 0.270722 0.209410 0.065828
v 0.278053 0.209410 0.059551
v 0.270722 -0.497801 0.065828
v 0.278053 -0.497801 0.059551
v 0.270722 0.209410 0.065828
v 0.270722 0.209410 0.065828
v 0.278053 -0.497801 0.059551
v 0.270722 -0.497801 0.065828
v 0.289404 0.209410 0.044010
v 0.289404 -0.497801 0.044010
v 0.289404 0.845900 0.044010
v 0.289404 0.845900 0.044010
v 0.289404 -0.497801 0.044010
v 0.289404 0.209410 0.044010
v 0.284330 0.209410 0.052220
v 0.284330 -0.497801 0.052220
v 0.284330 0.845900 0.052220
v 0.284330 0.845900 0.052220
v 0.284330 -0.497801 0.052220
v 0.284330 0.209410 0.052220
v 0.289404 0.845900 0.044010
v 0.284330 -0.497801 0.052220
v 0.289404 0.209410 0.044010
v 0.289404 0.209410 0.044010
v 0.284330 -0.497801 0.052220
v 0.289404 0.845900 0.044010
v 0.289404 -0.497801 0.044010
v 0.289404 0.209410 0.044010
v 0.284330 -0.497801 0.052220
v 0.284330 -0.497801 0.052220
v 0.289404 0.209410 0.044010
v 0.289404 -0.497801 0.044010
v 0.284330 0.845900 0.052220
v 0.278053 -0.497801 0.059551
v 0.284330 0.209410 0.052220
v 0.284330 0.209410 0.052220
v 0.278053 -0.497801 0.059551
v 0.284330 0.845900 0.052220
v 0.284330 -0.497801 0.052220
v 0.284330 0.209410 0.052220
v 0.278053 -0.497801 0.059551
v 0.278053 -0.497801 0.059551
v 0.284330 0.209410 0.052220
v 0.284330 -0.497801 0.052220
vn 0.08980602418232048 0 0.9959592752821596
vn 0.1664230670126762 0 0.9860544420903413
vn -0.08980602418232048 0 -0.9959592752821596
vn -0.1664230670126762 0 -0.9860544420903413
vn 0.31622806105986906 0 0.9486831997027857
vn -0.31622806105986906 0 -0.9486831997027857
vn -0.996627142674678 0.000027000004638338625 -0.08206301088253208
vn 0.996627142674678 -0.000027000004638338625 0.08206301088253208
vn -0.1614270938275542 -0.0004580002438062985 0.9868845340839864
vn 0.1614270938275542 0.0004580002438062985 -0.9868845340839864
vn 0.45849381091422997 0 0.8886976006231513
vn -0.45849381091422997 0 -0.8886976006231513
vn 0.9708321750812141 -0.00010000001651326084 0.23976004218191874
vn -0.9708321750812141 0.00010000001651326084 -0.23976004218191874
vn 0.9481131656951968 -0.00008200001089088151 0.31793304060985966
vn -0.9481131656951968 0.00008200001089088151 -0.31793304060985966
vn 0.5898308568545041 0 0.8075268170793348
vn -0.5898308568545041 0 -0.8075268170793348
vn 0.8873289585213462 -0.000031999999059949423 0.4611369843608549
vn -0.8873289585213462 0.000031999999059949423 -0.4611369843608549
vn 0.7071067811865476 0 0.7071067811865476
vn -0.7071067811865476 0 -0.7071067811865476
vn 0.8075268170793348 0 0.5898308568545041
vn -0.8075268170793348 0 -0.5898308568545041
usemtl material_0_0
f 1//1 2//2 3//1
f 4//3 5//4 6//3
f 7//2 8//1 9//2
f 10//4 11//3 12//4
f 13//1 14//1 15//2
f 16//4 17//3 18//3
f 19//2 20//5 21//2
f 22//4 23//6 24//4
f 25//7 26//7 27//7
f 28//8 29//8 30//8
f 31//7 32//7 33//7
f 34//8 35//8 36//8
f 37//7 38//7 39//7
f 40//8 41//8 42//8
f 43//9 44//7 45//7
f 46//8 47//8 48//10
f 49//2 50//1 51//2
f 52//4 53//3 54//4
f 55//5 56//2 57//5
f 58//6 59//4 60//6
f 61//9 62//7 63//9
f 64//10 65//8 66//10
f 67//5 68//2 69//5
f 70//6 71//4 72//6
f 73//2 74//2 75//5
f 76//6 77//4 78//4
f 79//5 80//11 81//5
f 82//6 83//12 84//6
f 85//9 86//9 87//9
f 88//10 89//10 90//10
f 91//9 92//9 93//13
f 94//14 95//10 96//10
f 97//9 98//9 99//15
f 100//16 101//10 102//10
f 103//11 104//5 105//11
f 106//12 107//6 108//12
f 109//5 110//5 111//11
f 112//12 113//6 114//6
f 115//11 116//5 117//11
f 118//12 119//6 120//12
f 121//9 122//9 123//9
f 124//10 125//10 126//10
f 127//13 128//15 129//9
f 130//10 131//16 132//14
f 133//15 134//15 135//13
f 136//14 137//16 138//16
f 139//9 140//15 141//9
f 142//10 143//16 144//10
f 145//17 146//11 147//17
f 148//18 149//12 150//18
f 151//11 152//11 153//17
f 154//18 155//12 156//12
f 157//11 158//17 159//11
f 160//12 161//18 162//12
f 163//15 164//15 165//15
f 166//16 167//16 168//16
f 169//15 170//19 171//15
f 172//16 173//20 174//16
f 175//15 176//15 177//19
f 178//20 179//16 180//16
f 181//21 182//17 183//21
f 184//22 185//18 186//22
f 187//17 188//17 189//21
f 190//22 191//18 192//18
f 193//17 194//11 195//17
f 196//18 197//12 198//18
f 199//15 200//15 201//15
f 202//16 203//16 204//16
f 205//19 206//15 207//19
f 208//20 209//16 210//20
f 211//23 212//23 213//19
f 214//20 215//24 216//24
f 217//15 218//19 219//15
f 220//16 221//20 222//16
f 223//21 224//21 225//23
f 226//24 227//22 228//22
f 229//21 230//21 231//21
f 232//22 233//22 234//22
f 235//21 236//17 237//21
f 238//22 239//18 240//22
f 241//17 242//21 243//17
f 244//18 245//22 246//18
f 247//19 248//19 249//19
f 250//20 251//20 252//20
f 253//23 254//23 255//23
f 256//24 257//24 258//24
f 259//19 260//23 261//19
f 262//20 263//24 264//20
f 265//19 266//19 267//23
f 268//24 269//20 270//20
f 271//23 272//21 273//23
f 274//24 275//22 276//24
f 277//23 278//23 279//21
f 280//22 281//24 282//24
