# SSTK version 0.8.0
# 3
mtllib original-3.mtl
o Component_2_1/Component_2/mesh7/mesh7-geometry#mesh7-geometry
v -0.153617 0.179057 -0.952282
v -0.153617 0.060658 0.848866
v -0.153617 0.060658 -0.947039
v -0.153617 0.307583 0.848866
v -0.164642 0.060658 -0.947039
v 0.158542 0.060658 -0.947039
v -0.153617 0.307583 0.788273
v 0.158541 0.307583 0.848866
v -0.164642 0.060658 0.859891
v 0.169566 0.06017 -0.958053
v 0.158541 0.179057 -0.952282
v -0.153617 0.190051 -0.953094
v -0.164642 0.307583 0.788273
v -0.164642 0.307583 0.859891
v -0.153617 0.318578 0.848866
v 0.158541 0.060658 0.848866
v 0.169566 0.060658 0.859891
v -0.164642 0.060171 -0.958053
v 0.158541 0.190051 -0.953094
v -0.164642 0.179057 -0.952282
v 0.169566 0.060658 -0.947036
v -0.153617 0.318578 0.787462
v 0.169566 0.307583 0.859891
v 0.158541 0.318578 0.848866
v -0.164642 0.178569 -0.963296
v 0.169566 0.178569 -0.963296
v 0.158541 0.307583 0.788273
v 0.158541 0.318578 0.787462
v 0.169566 0.307583 0.788273
v 0.169566 0.179057 -0.952282
vn 1.0 0.0 0.0
vn -1.0 0.0 0.0
vn 0.0 1.0 0.0
vn 0.0 0.04423700286191299 0.9990210646316698
vn 0.0 -0.04423700286191299 -0.9990210646316698
vn 0.0 0.0 -1.0
vn 0.0 0.0 1.0
vn 0.0 0.9990209320460991 -0.04423999699077339
vn 0.0 -0.99728474300524 0.07364198102286897
vn 0.0 -1.0 0.0
vn -1.0 -1.0000000002215446e-06 0.0
vn 1.0 1.0000000002215446e-06 0.0
vn 0.0 0.07364198102286897 0.99728474300524
vn 0.0 -0.9990210646316698 0.04423700286191299
vn 0.0 -0.9990209320460991 0.04423999699077339
vn 0.0 -0.07364198102286897 -0.99728474300524
vn 0.0 0.99728474300524 -0.07364198102286897
vn 0.0 0.9990210646316698 -0.04423700286191299
usemtl material_0_0
f 1//1 2//1 3//1
f 2//1 1//1 4//1
f 3//2 2//2 1//2
f 4//2 1//2 2//2
f 3//3 5//3 2//3
f 6//4 1//4 3//4
f 3//5 1//5 6//5
f 4//1 1//1 7//1
f 7//2 1//2 4//2
f 8//6 2//6 4//6
f 4//7 2//7 8//7
f 9//3 2//3 5//3
f 3//8 10//8 5//8
f 1//4 6//4 11//4
f 11//5 6//5 1//5
f 3//8 6//8 10//8
f 1//1 12//1 7//1
f 7//9 13//9 1//9
f 4//10 14//10 7//10
f 4//1 7//1 15//1
f 2//6 8//6 16//6
f 16//7 8//7 2//7
f 8//10 14//10 4//10
f 4//6 15//6 8//6
f 17//3 2//3 9//3
f 9//1 5//1 14//1
f 18//8 5//8 10//8
f 16//11 11//11 6//11
f 6//12 11//12 16//12
f 11//13 19//13 1//13
f 1//14 20//14 11//14
f 21//8 10//8 6//8
f 22//1 7//1 12//1
f 12//13 1//13 19//13
f 20//9 1//9 13//9
f 13//10 7//10 14//10
f 15//1 7//1 22//1
f 11//11 16//11 8//11
f 8//12 16//12 11//12
f 2//3 17//3 16//3
f 14//10 8//10 23//10
f 24//6 8//6 15//6
f 9//6 14//6 17//6
f 20//1 14//1 5//1
f 5//1 18//1 25//1
f 10//4 26//4 18//4
f 6//3 16//3 21//3
f 11//2 27//2 19//2
f 25//14 11//14 20//14
f 10//2 21//2 26//2
f 22//9 12//9 28//9
f 19//9 28//9 12//9
f 13//1 14//1 20//1
f 15//10 22//10 24//10
f 11//11 8//11 27//11
f 27//12 8//12 11//12
f 17//3 21//3 16//3
f 23//10 8//10 29//10
f 23//6 17//6 14//6
f 24//2 28//2 8//2
f 25//1 20//1 5//1
f 25//4 18//4 26//4
f 28//2 19//2 27//2
f 11//9 30//9 27//9
f 11//14 25//14 30//14
f 17//2 26//2 21//2
f 28//10 24//10 22//10
f 27//10 29//10 8//10
f 8//2 28//2 27//2
f 29//2 30//2 23//2
f 23//2 30//2 17//2
f 26//14 30//14 25//14
f 29//9 27//9 30//9
f 30//2 26//2 17//2
usemtl material_1_0
f 2//10 5//10 3//10
f 5//10 2//10 9//10
f 5//15 10//15 3//15
f 10//15 6//15 3//15
f 7//2 12//2 1//2
f 15//2 7//2 4//2
f 8//7 15//7 4//7
f 9//10 2//10 17//10
f 14//2 5//2 9//2
f 10//15 5//15 18//15
f 1//16 19//16 11//16
f 6//15 10//15 21//15
f 12//2 7//2 22//2
f 19//16 1//16 12//16
f 22//2 7//2 15//2
f 16//10 17//10 2//10
f 15//7 8//7 24//7
f 17//7 14//7 9//7
f 5//2 14//2 20//2
f 25//2 18//2 5//2
f 18//5 26//5 10//5
f 21//10 16//10 6//10
f 19//1 27//1 11//1
f 26//1 21//1 10//1
f 20//2 14//2 13//2
f 16//10 21//10 17//10
f 14//7 17//7 23//7
f 8//1 28//1 24//1
f 5//2 20//2 25//2
f 26//5 18//5 25//5
f 27//1 19//1 28//1
f 21//1 26//1 17//1
f 27//1 28//1 8//1
f 23//1 30//1 29//1
f 17//1 30//1 23//1
f 17//1 26//1 30//1
usemtl material_2_0
f 1//17 13//17 7//17
f 7//3 14//3 4//3
f 4//3 14//3 8//3
f 11//18 20//18 1//18
f 13//17 1//17 20//17
f 14//3 7//3 13//3
f 23//3 8//3 14//3
f 20//18 11//18 25//18
f 28//17 12//17 22//17
f 12//17 28//17 19//17
f 24//3 22//3 15//3
f 29//3 8//3 23//3
f 27//17 30//17 11//17
f 30//18 25//18 11//18
f 22//3 24//3 28//3
f 8//3 29//3 27//3
f 25//18 30//18 26//18
f 30//17 27//17 29//17
