# SSTK version 0.8.0
# 16
mtllib original-16.mtl
o mesh2/mesh2-geometry/material_2/component_9#mesh2-geometry
v 0.328000 -0.646428 0.106590
v 0.344227 -0.647193 0.106590
v 0.345671 -0.644944 0.106590
v 0.345671 -0.644944 0.106590
v 0.344227 -0.647193 0.106590
v 0.328000 -0.646428 0.106590
v 0.326774 -0.644053 0.106590
v 0.345671 -0.644944 0.106590
v 0.346484 -0.642398 0.106590
v 0.346484 -0.642398 0.106590
v 0.345671 -0.644944 0.106590
v 0.326774 -0.644053 0.106590
v 0.329799 -0.648405 0.106590
v 0.344227 -0.647193 0.106590
v 0.328000 -0.646428 0.106590
v 0.328000 -0.646428 0.106590
v 0.344227 -0.647193 0.106590
v 0.329799 -0.648405 0.106590
v 0.328000 -0.646428 0.106590
v 0.345671 -0.644944 0.106590
v 0.326774 -0.644053 0.106590
v 0.326774 -0.644053 0.106590
v 0.345671 -0.644944 0.106590
v 0.328000 -0.646428 0.106590
v 0.329799 -0.648405 0.106590
v 0.342250 -0.648992 0.106590
v 0.344227 -0.647193 0.106590
v 0.344227 -0.647193 0.106590
v 0.342250 -0.648992 0.106590
v 0.329799 -0.648405 0.106590
v 0.326205 -0.641442 0.106590
v 0.346484 -0.642398 0.106590
v 0.346610 -0.639728 0.106590
v 0.346610 -0.639728 0.106590
v 0.346484 -0.642398 0.106590
v 0.326205 -0.641442 0.106590
v 0.326774 -0.644053 0.106590
v 0.346484 -0.642398 0.106590
v 0.326205 -0.641442 0.106590
v 0.326205 -0.641442 0.106590
v 0.346484 -0.642398 0.106590
v 0.326774 -0.644053 0.106590
v 0.332048 -0.649849 0.106590
v 0.342250 -0.648992 0.106590
v 0.329799 -0.648405 0.106590
v 0.329799 -0.648405 0.106590
v 0.342250 -0.648992 0.106590
v 0.332048 -0.649849 0.106590
v 0.326331 -0.638772 0.106590
v 0.346610 -0.639728 0.106590
v 0.346040 -0.637117 0.106590
v 0.346040 -0.637117 0.106590
v 0.346610 -0.639728 0.106590
v 0.326331 -0.638772 0.106590
v 0.326205 -0.641442 0.106590
v 0.346610 -0.639728 0.106590
v 0.326331 -0.638772 0.106590
v 0.326331 -0.638772 0.106590
v 0.346610 -0.639728 0.106590
v 0.326205 -0.641442 0.106590
v 0.332048 -0.649849 0.106590
v 0.339875 -0.650218 0.106590
v 0.342250 -0.648992 0.106590
v 0.342250 -0.648992 0.106590
v 0.339875 -0.650218 0.106590
v 0.332048 -0.649849 0.106590
v 0.339875 -0.650218 0.106590
v 0.334594 -0.650661 0.106590
v 0.337264 -0.650787 0.106590
v 0.337264 -0.650787 0.106590
v 0.334594 -0.650661 0.106590
v 0.339875 -0.650218 0.106590
v 0.334594 -0.650661 0.106590
v 0.339875 -0.650218 0.106590
v 0.332048 -0.649849 0.106590
v 0.332048 -0.649849 0.106590
v 0.339875 -0.650218 0.106590
v 0.334594 -0.650661 0.106590
v 0.326331 -0.638772 0.106590
v 0.346040 -0.637117 0.106590
v 0.327143 -0.636226 0.106590
v 0.327143 -0.636226 0.106590
v 0.346040 -0.637117 0.106590
v 0.326331 -0.638772 0.106590
v 0.327143 -0.636226 0.106590
v 0.344814 -0.634742 0.106590
v 0.328587 -0.633977 0.106590
v 0.328587 -0.633977 0.106590
v 0.344814 -0.634742 0.106590
v 0.327143 -0.636226 0.106590
v 0.327143 -0.636226 0.106590
v 0.346040 -0.637117 0.106590
v 0.344814 -0.634742 0.106590
v 0.344814 -0.634742 0.106590
v 0.346040 -0.637117 0.106590
v 0.327143 -0.636226 0.106590
v 0.328587 -0.633977 0.106590
v 0.344814 -0.634742 0.106590
v 0.343016 -0.632765 0.106590
v 0.343016 -0.632765 0.106590
v 0.344814 -0.634742 0.106590
v 0.328587 -0.633977 0.106590
v 0.328587 -0.633977 0.106590
v 0.343016 -0.632765 0.106590
v 0.330564 -0.632178 0.106590
v 0.330564 -0.632178 0.106590
v 0.343016 -0.632765 0.106590
v 0.328587 -0.633977 0.106590
v 0.330564 -0.632178 0.106590
v 0.343016 -0.632765 0.106590
v 0.340766 -0.631321 0.106590
v 0.340766 -0.631321 0.106590
v 0.343016 -0.632765 0.106590
v 0.330564 -0.632178 0.106590
v 0.330564 -0.632178 0.106590
v 0.340766 -0.631321 0.106590
v 0.332939 -0.630952 0.106590
v 0.332939 -0.630952 0.106590
v 0.340766 -0.631321 0.106590
v 0.330564 -0.632178 0.106590
v 0.332939 -0.630952 0.106590
v 0.340766 -0.631321 0.106590
v 0.338220 -0.630508 0.106590
v 0.338220 -0.630508 0.106590
v 0.340766 -0.631321 0.106590
v 0.332939 -0.630952 0.106590
v 0.332939 -0.630952 0.106590
v 0.338220 -0.630508 0.106590
v 0.335550 -0.630382 0.106590
v 0.335550 -0.630382 0.106590
v 0.338220 -0.630508 0.106590
v 0.332939 -0.630952 0.106590
vt 0.001610000035725534 -0.004286999814212322
vt 0.0004140000091865659 -0.004342999774962664
vt 0.00030700000934302807 -0.004176999907940626
vt 0.06065100058913231 0.02512199990451336
vt 0.06054399907588959 0.024956999346613884
vt 0.059349000453948975 0.025012999773025513
vt 0.0017000000225380063 -0.004112000111490488
vt 0.0002479999966453761 -0.0039900001138448715
vt 0.06071100011467934 0.025310000404715538
vt 0.05925799906253815 0.02518800087273121
vt 0.0014769999543204904 -0.00443200021982193
vt 0.059480998665094376 0.024867000058293343
vt 0.0005600000149570405 -0.004476000089198351
vt 0.060398999601602554 0.024824000895023346
vt 0.0017419999931007624 -0.003918999806046486
vt 0.00023799999326001853 -0.0037930000107735395
vt 0.06072000041604042 0.02550699934363365
vt 0.05921600013971329 0.025381000712513924
vt 0.001310999970883131 -0.004538999870419502
vt 0.05964700132608414 0.024761000648140907
vt 0.0017330000409856439 -0.0037219999358057976
vt 0.0002800000074785203 -0.003599999938160181
vt 0.06067800149321556 0.02569900080561638
vt 0.05922599881887436 0.0255769994109869
vt 0.0007350000087171793 -0.00456599984318018
vt 0.06022400036454201 0.024733999744057655
vt 0.0011239999439567327 -0.004598999861627817
vt 0.0009270000155083835 -0.004608000162988901
vt 0.06003100052475929 0.024692000821232796
vt 0.059835001826286316 0.02470099925994873
vt 0.001673000049777329 -0.0035349999088793993
vt 0.0592849999666214 0.02576499991118908
vt 0.000371000001905486 -0.003425000002607703
vt 0.0015660000499337912 -0.003369000041857362
vt 0.05939200147986412 0.02593100070953369
vt 0.06058799847960472 0.025874000042676926
vt 0.0005029999883845448 -0.003280000062659383
vt 0.060454998165369034 0.026019999757409096
vt 0.001420999993570149 -0.003235999960452318
vt 0.05953799933195114 0.02606300078332424
vt 0.0006689999718219042 -0.003172999946400523
vt 0.06028899922966957 0.026126999408006668
vt 0.001246000058017671 -0.003145999973639846
vt 0.05971299856901169 0.02615400031208992
vt 0.0008570000063627958 -0.0031129999551922083
vt 0.06010200083255768 0.026186000555753708
vt 0.0010529999854043126 -0.003103999886661768
vt 0.059905000030994415 0.02619599923491478
vn 0 0 1
vn 0 0 -1
usemtl material_0_0
f 1/1/1 2/2/1 3/3/1
f 4/4/2 5/5/2 6/6/2
f 7/7/1 8/3/1 9/8/1
f 10/9/2 11/4/2 12/10/2
f 13/11/1 14/2/1 15/1/1
f 16/6/2 17/5/2 18/12/2
f 19/1/1 20/3/1 21/7/1
f 22/10/2 23/4/2 24/6/2
f 25/11/1 26/13/1 27/2/1
f 28/5/2 29/14/2 30/12/2
f 31/15/1 32/8/1 33/16/1
f 34/17/2 35/9/2 36/18/2
f 37/7/1 38/8/1 39/15/1
f 40/18/2 41/9/2 42/10/2
f 43/19/1 44/13/1 45/11/1
f 46/12/2 47/14/2 48/20/2
f 49/21/1 50/16/1 51/22/1
f 52/23/2 53/17/2 54/24/2
f 55/15/1 56/16/1 57/21/1
f 58/24/2 59/17/2 60/18/2
f 61/19/1 62/25/1 63/13/1
f 64/14/2 65/26/2 66/20/2
f 67/25/1 68/27/1 69/28/1
f 70/29/2 71/30/2 72/26/2
f 73/27/1 74/25/1 75/19/1
f 76/20/2 77/26/2 78/30/2
f 79/21/1 80/22/1 81/31/1
f 82/32/2 83/23/2 84/24/2
f 85/31/1 86/33/1 87/34/1
f 88/35/2 89/36/2 90/32/2
f 91/31/1 92/22/1 93/33/1
f 94/36/2 95/23/2 96/32/2
f 97/34/1 98/33/1 99/37/1
f 100/38/2 101/36/2 102/35/2
f 103/34/1 104/37/1 105/39/1
f 106/40/2 107/38/2 108/35/2
f 109/39/1 110/37/1 111/41/1
f 112/42/2 113/38/2 114/40/2
f 115/39/1 116/41/1 117/43/1
f 118/44/2 119/42/2 120/40/2
f 121/43/1 122/41/1 123/45/1
f 124/46/2 125/42/2 126/44/2
f 127/43/1 128/45/1 129/47/1
f 130/48/2 131/46/2 132/44/2
