# SSTK version 0.8.0
# 10
mtllib original-10.mtl
o mesh2/mesh2-geometry/material_2/component_3#mesh2-geometry
v -0.018323 -0.939824 0.106590
v 0.022648 -0.941261 0.106590
v 0.028926 -0.937686 0.106590
v 0.028926 -0.937686 0.106590
v 0.022648 -0.941261 0.106590
v -0.018323 -0.939824 0.106590
v -0.023720 -0.936137 0.106590
v 0.028926 -0.937686 0.106590
v 0.033974 -0.932911 0.106590
v 0.033974 -0.932911 0.106590
v 0.028926 -0.937686 0.106590
v -0.023720 -0.936137 0.106590
v -0.011969 -0.942326 0.106590
v 0.014821 -0.943493 0.106590
v 0.022648 -0.941261 0.106590
v 0.022648 -0.941261 0.106590
v 0.014821 -0.943493 0.106590
v -0.011969 -0.942326 0.106590
v 0.014821 -0.943493 0.106590
v -0.004279 -0.943759 0.106590
v 0.005127 -0.944237 0.106590
v 0.005127 -0.944237 0.106590
v -0.004279 -0.943759 0.106590
v 0.014821 -0.943493 0.106590
v -0.018323 -0.939824 0.106590
v 0.028926 -0.937686 0.106590
v -0.023720 -0.936137 0.106590
v -0.023720 -0.936137 0.106590
v 0.028926 -0.937686 0.106590
v -0.018323 -0.939824 0.106590
v -0.023720 -0.936137 0.106590
v 0.033974 -0.932911 0.106590
v -0.028108 -0.931488 0.106590
v -0.028108 -0.931488 0.106590
v 0.033974 -0.932911 0.106590
v -0.023720 -0.936137 0.106590
v -0.011969 -0.942326 0.106590
v 0.022648 -0.941261 0.106590
v -0.018323 -0.939824 0.106590
v -0.018323 -0.939824 0.106590
v 0.022648 -0.941261 0.106590
v -0.011969 -0.942326 0.106590
v -0.028108 -0.931488 0.106590
v 0.033974 -0.932911 0.106590
v 0.037785 -0.927043 0.106590
v 0.037785 -0.927043 0.106590
v 0.033974 -0.932911 0.106590
v -0.028108 -0.931488 0.106590
v -0.004279 -0.943759 0.106590
v 0.014821 -0.943493 0.106590
v -0.011969 -0.942326 0.106590
v -0.011969 -0.942326 0.106590
v 0.014821 -0.943493 0.106590
v -0.004279 -0.943759 0.106590
v 0.003730 -0.927658 0.106590
v -0.031433 -0.926095 0.106590
v -0.028108 -0.931488 0.106590
v -0.028108 -0.931488 0.106590
v -0.031433 -0.926095 0.106590
v 0.003730 -0.927658 0.106590
v 0.008201 -0.927035 0.106590
v 0.037785 -0.927043 0.106590
v 0.040351 -0.920188 0.106590
v 0.040351 -0.920188 0.106590
v 0.037785 -0.927043 0.106590
v 0.008201 -0.927035 0.106590
v -0.028108 -0.931488 0.106590
v 0.037785 -0.927043 0.106590
v 0.003730 -0.927658 0.106590
v 0.003730 -0.927658 0.106590
v 0.037785 -0.927043 0.106590
v -0.028108 -0.931488 0.106590
v -0.031433 -0.926095 0.106590
v 0.003730 -0.927658 0.106590
v -0.001584 -0.926627 0.106590
v -0.001584 -0.926627 0.106590
v 0.003730 -0.927658 0.106590
v -0.031433 -0.926095 0.106590
v -0.031433 -0.926095 0.106590
v -0.005866 -0.923535 0.106590
v -0.033529 -0.919391 0.106590
v -0.033529 -0.919391 0.106590
v -0.005866 -0.923535 0.106590
v -0.031433 -0.926095 0.106590
v 0.014791 -0.922010 0.106590
v 0.040351 -0.920188 0.106590
v 0.016848 -0.917515 0.106590
v 0.016848 -0.917515 0.106590
v 0.040351 -0.920188 0.106590
v 0.014791 -0.922010 0.106590
v 0.003730 -0.927658 0.106590
v 0.037785 -0.927043 0.106590
v 0.008201 -0.927035 0.106590
v 0.008201 -0.927035 0.106590
v 0.037785 -0.927043 0.106590
v 0.003730 -0.927658 0.106590
v 0.008201 -0.927035 0.106590
v 0.040351 -0.920188 0.106590
v 0.011898 -0.925168 0.106590
v 0.011898 -0.925168 0.106590
v 0.040351 -0.920188 0.106590
v 0.008201 -0.927035 0.106590
v -0.031433 -0.926095 0.106590
v -0.001584 -0.926627 0.106590
v -0.005866 -0.923535 0.106590
v -0.005866 -0.923535 0.106590
v -0.001584 -0.926627 0.106590
v -0.031433 -0.926095 0.106590
v -0.033529 -0.919391 0.106590
v -0.005866 -0.923535 0.106590
v -0.008689 -0.918459 0.106590
v -0.008689 -0.918459 0.106590
v -0.005866 -0.923535 0.106590
v -0.033529 -0.919391 0.106590
v -0.033529 -0.919391 0.106590
v -0.008689 -0.918459 0.106590
v -0.034227 -0.910805 0.106590
v -0.034227 -0.910805 0.106590
v -0.008689 -0.918459 0.106590
v -0.033529 -0.919391 0.106590
v 0.011898 -0.925168 0.106590
v 0.040351 -0.920188 0.106590
v 0.014791 -0.922010 0.106590
v 0.014791 -0.922010 0.106590
v 0.040351 -0.920188 0.106590
v 0.011898 -0.925168 0.106590
v -0.034227 -0.910805 0.106590
v -0.008689 -0.918459 0.106590
v -0.009631 -0.911472 0.106590
v -0.009631 -0.911472 0.106590
v -0.008689 -0.918459 0.106590
v -0.034227 -0.910805 0.106590
v -0.034227 -0.910805 0.106590
v -0.008682 -0.903689 0.106590
v -0.033377 -0.901688 0.106590
v -0.033377 -0.901688 0.106590
v -0.008682 -0.903689 0.106590
v -0.034227 -0.910805 0.106590
v 0.014274 -0.898469 0.106590
v 0.039075 -0.898993 0.106590
v 0.037096 -0.893884 0.106590
v 0.037096 -0.893884 0.106590
v 0.039075 -0.898993 0.106590
v 0.014274 -0.898469 0.106590
v -0.034227 -0.910805 0.106590
v -0.009631 -0.911472 0.106590
v -0.008682 -0.903689 0.106590
v -0.008682 -0.903689 0.106590
v -0.009631 -0.911472 0.106590
v -0.034227 -0.910805 0.106590
v -0.033377 -0.901688 0.106590
v -0.008682 -0.903689 0.106590
v -0.007496 -0.900644 0.106590
v -0.007496 -0.900644 0.106590
v -0.008682 -0.903689 0.106590
v -0.033377 -0.901688 0.106590
v -0.033377 -0.901688 0.106590
v -0.007496 -0.900644 0.106590
v -0.030826 -0.894239 0.106590
v -0.030826 -0.894239 0.106590
v -0.007496 -0.900644 0.106590
v -0.033377 -0.901688 0.106590
v 0.004094 -0.893770 0.106590
v 0.037096 -0.893884 0.106590
v 0.034498 -0.889427 0.106590
v 0.034498 -0.889427 0.106590
v 0.037096 -0.893884 0.106590
v 0.004094 -0.893770 0.106590
v 0.039075 -0.898993 0.106590
v 0.014274 -0.898469 0.106590
v 0.015815 -0.902090 0.106590
v 0.015815 -0.902090 0.106590
v 0.014274 -0.898469 0.106590
v 0.039075 -0.898993 0.106590
v 0.014274 -0.898469 0.106590
v 0.037096 -0.893884 0.106590
v 0.011837 -0.895865 0.106590
v 0.011837 -0.895865 0.106590
v 0.037096 -0.893884 0.106590
v 0.014274 -0.898469 0.106590
v -0.030826 -0.894239 0.106590
v -0.007496 -0.900644 0.106590
v -0.005835 -0.898165 0.106590
v -0.005835 -0.898165 0.106590
v -0.007496 -0.900644 0.106590
v -0.030826 -0.894239 0.106590
v -0.030826 -0.894239 0.106590
v 0.004094 -0.893770 0.106590
v -0.027880 -0.889636 0.106590
v -0.027880 -0.889636 0.106590
v 0.004094 -0.893770 0.106590
v -0.030826 -0.894239 0.106590
v -0.024024 -0.885533 0.106590
v 0.034498 -0.889427 0.106590
v 0.031281 -0.885624 0.106590
v 0.031281 -0.885624 0.106590
v 0.034498 -0.889427 0.106590
v -0.024024 -0.885533 0.106590
v 0.008459 -0.894294 0.106590
v 0.037096 -0.893884 0.106590
v 0.004094 -0.893770 0.106590
v 0.004094 -0.893770 0.106590
v 0.037096 -0.893884 0.106590
v 0.008459 -0.894294 0.106590
v 0.004094 -0.893770 0.106590
v 0.034498 -0.889427 0.106590
v -0.027880 -0.889636 0.106590
v -0.027880 -0.889636 0.106590
v 0.034498 -0.889427 0.106590
v 0.004094 -0.893770 0.106590
v 0.011837 -0.895865 0.106590
v 0.037096 -0.893884 0.106590
v 0.008459 -0.894294 0.106590
v 0.008459 -0.894294 0.106590
v 0.037096 -0.893884 0.106590
v 0.011837 -0.895865 0.106590
v -0.006913 -0.877569 0.106590
v 0.010792 -0.877179 0.106590
v 0.003366 -0.876826 0.106590
v 0.003366 -0.876826 0.106590
v 0.010792 -0.877179 0.106590
v -0.006913 -0.877569 0.106590
v -0.030826 -0.894239 0.106590
v -0.005835 -0.898165 0.106590
v -0.001455 -0.894869 0.106590
v -0.001455 -0.894869 0.106590
v -0.005835 -0.898165 0.106590
v -0.030826 -0.894239 0.106590
v -0.030826 -0.894239 0.106590
v -0.001455 -0.894869 0.106590
v 0.004094 -0.893770 0.106590
v 0.004094 -0.893770 0.106590
v -0.001455 -0.894869 0.106590
v -0.030826 -0.894239 0.106590
v -0.027880 -0.889636 0.106590
v 0.034498 -0.889427 0.106590
v -0.024024 -0.885533 0.106590
v -0.024024 -0.885533 0.106590
v 0.034498 -0.889427 0.106590
v -0.027880 -0.889636 0.106590
v -0.024024 -0.885533 0.106590
v 0.031281 -0.885624 0.106590
v 0.027445 -0.882474 0.106590
v 0.027445 -0.882474 0.106590
v 0.031281 -0.885624 0.106590
v -0.024024 -0.885533 0.106590
v -0.015157 -0.879799 0.106590
v 0.017281 -0.878238 0.106590
v -0.006913 -0.877569 0.106590
v -0.006913 -0.877569 0.106590
v 0.017281 -0.878238 0.106590
v -0.015157 -0.879799 0.106590
v -0.006913 -0.877569 0.106590
v 0.017281 -0.878238 0.106590
v 0.010792 -0.877179 0.106590
v 0.010792 -0.877179 0.106590
v 0.017281 -0.878238 0.106590
v -0.006913 -0.877569 0.106590
v -0.024024 -0.885533 0.106590
v 0.027445 -0.882474 0.106590
v -0.019652 -0.882173 0.106590
v -0.019652 -0.882173 0.106590
v 0.027445 -0.882474 0.106590
v -0.024024 -0.885533 0.106590
v -0.019652 -0.882173 0.106590
v 0.027445 -0.882474 0.106590
v 0.022832 -0.880003 0.106590
v 0.022832 -0.880003 0.106590
v 0.027445 -0.882474 0.106590
v -0.019652 -0.882173 0.106590
v -0.019652 -0.882173 0.106590
v 0.022832 -0.880003 0.106590
v -0.015157 -0.879799 0.106590
v -0.015157 -0.879799 0.106590
v 0.022832 -0.880003 0.106590
v -0.019652 -0.882173 0.106590
v -0.015157 -0.879799 0.106590
v 0.022832 -0.880003 0.106590
v 0.017281 -0.878238 0.106590
v 0.017281 -0.878238 0.106590
v 0.022832 -0.880003 0.106590
v -0.015157 -0.879799 0.106590
vt 0.02398199960589409 -0.025909999385476112
vt 0.027000999078154564 -0.026016000658273697
vt 0.0274640005081892 -0.025752000510692596
vt 0.037307001650333405 0.0035470000002533197
vt 0.03684400022029877 0.0032840000931173563
vt 0.033824000507593155 0.003389999968931079
vt 0.023584000766277313 -0.025637999176979065
vt 0.02783600054681301 -0.025400999933481216
vt 0.037679001688957214 0.003898999886587262
vt 0.03342700004577637 0.0036609999369829893
vt 0.024450000375509262 -0.026094000786542892
vt 0.02642500028014183 -0.026179999113082886
vt 0.0362670011818409 0.0031190000008791685
vt 0.034292999655008316 0.0032049999572336674
vt 0.02501700073480606 -0.026200000196695328
vt 0.025709999725222588 -0.026234999299049377
vt 0.03555300086736679 0.0030640000477433205
vt 0.03485900163650513 0.003100000089034438
vt 0.023260999470949173 -0.025296000763773918
vt 0.03310300037264824 0.004004000220447779
vt 0.028116999194025993 -0.024968000128865242
vt 0.0379600003361702 0.00433199992403388
vt 0.025606999173760414 -0.025012999773025513
vt 0.023016000166535378 -0.024898000061511993
vt 0.032857999205589294 0.004401999991387129
vt 0.03545000031590462 0.0042860000394284725
vt 0.025937000289559364 -0.024966999888420105
vt 0.02830599993467331 -0.024462999776005745
vt 0.03814899921417236 0.00483699981123209
vt 0.03577899932861328 0.00433199992403388
vt 0.02521499991416931 -0.02493700012564659
vt 0.035057999193668365 0.004362000152468681
vt 0.024900000542402267 -0.024709999561309814
vt 0.022861000150442123 -0.024404000490903854
vt 0.03270399942994118 0.004896000027656555
vt 0.034742001444101334 0.0045900000259280205
vt 0.02642199955880642 -0.02459700033068657
vt 0.02657400071620941 -0.02426600083708763
vt 0.03641600161790848 0.005034000147134066
vt 0.03626500070095062 0.00470300018787384
vt 0.026209000498056412 -0.02483000047504902
vt 0.036051999777555466 0.004470000043511391
vt 0.024692000821232796 -0.024335000663995743
vt 0.03453399986028671 0.004964000079780817
vt 0.02281000092625618 -0.023770999163389206
vt 0.032652001827955246 0.005528000183403492
vt 0.024622000753879547 -0.023819999769330025
vt 0.0344650000333786 0.0054790000431239605
vt 0.024692000821232796 -0.023246999830007553
vt 0.022871999070048332 -0.02309899963438511
vt 0.032715000212192535 0.006200000178068876
vt 0.0345349982380867 0.006053000222891569
vt 0.02638399973511696 -0.02286200039088726
vt 0.02821199968457222 -0.022901000455021858
vt 0.02806599996984005 -0.022523999214172363
vt 0.03790900111198425 0.006775999907404184
vt 0.038054998964071274 0.006399000063538551
vt 0.03622699901461601 0.006438000127673149
vt 0.024779999628663063 -0.02302199974656105
vt 0.03462199866771698 0.006277000065892935
vt 0.02305999957025051 -0.022549999877810478
vt 0.032903000712394714 0.006748999934643507
vt 0.025634000077843666 -0.022515999153256416
vt 0.02787500061094761 -0.022196000441908836
vt 0.037716999650001526 0.007104000076651573
vt 0.03547700121998787 0.006783999968320131
vt 0.02649799920618534 -0.023128999397158623
vt 0.03633999824523926 0.006171000190079212
vt 0.026204999536275864 -0.022670000791549683
vt 0.03604700043797493 0.006628999952226877
vt 0.024901999160647392 -0.022840000689029694
vt 0.034745000302791595 0.006459999829530716
vt 0.023276999592781067 -0.022211000323295593
vt 0.03311999887228012 0.007089000195264816
vt 0.023561999201774597 -0.021909000352025032
vt 0.02763799950480461 -0.021914999932050705
vt 0.03748000040650368 0.00738399988040328
vt 0.03340400010347366 0.0073910001665353775
vt 0.02595599927008152 -0.022554000839591026
vt 0.03579799830913544 0.0067449999041855335
vt 0.02482300065457821 -0.02132200077176094
vt 0.026127999648451805 -0.021292999386787415
vt 0.02558000013232231 -0.02126700058579445
vt 0.035422999411821365 0.00803299993276596
vt 0.03596999868750572 0.00800700020045042
vt 0.034664999693632126 0.007977999746799469
vt 0.025225000455975533 -0.022597000002861023
vt 0.035068001598119736 0.006703000050038099
vt 0.027355000376701355 -0.021683000028133392
vt 0.03719700127840042 0.007615999784320593
vt 0.02421499975025654 -0.02148599922657013
vt 0.02660599909722805 -0.02137099951505661
vt 0.036448001861572266 0.007929000072181225
vt 0.03405800089240074 0.007814000360667706
vt 0.0238840002566576 -0.021661000326275826
vt 0.03372599929571152 0.007639000192284584
vt 0.027015000581741333 -0.021500999107956886
vt 0.0368570014834404 0.007799000013619661
vn 0 0 1
vn 0 0 -1
usemtl material_0_0
f 1/1/1 2/2/1 3/3/1
f 4/4/2 5/5/2 6/6/2
f 7/7/1 8/3/1 9/8/1
f 10/9/2 11/4/2 12/10/2
f 13/11/1 14/12/1 15/2/1
f 16/5/2 17/13/2 18/14/2
f 19/12/1 20/15/1 21/16/1
f 22/17/2 23/18/2 24/13/2
f 25/1/1 26/3/1 27/7/1
f 28/10/2 29/4/2 30/6/2
f 31/7/1 32/8/1 33/19/1
f 34/20/2 35/9/2 36/10/2
f 37/11/1 38/2/1 39/1/1
f 40/6/2 41/5/2 42/14/2
f 43/19/1 44/8/1 45/21/1
f 46/22/2 47/9/2 48/20/2
f 49/15/1 50/12/1 51/11/1
f 52/14/2 53/13/2 54/18/2
f 55/23/1 56/24/1 57/19/1
f 58/20/2 59/25/2 60/26/2
f 61/27/1 62/21/1 63/28/1
f 64/29/2 65/22/2 66/30/2
f 67/19/1 68/21/1 69/23/1
f 70/26/2 71/22/2 72/20/2
f 73/24/1 74/23/1 75/31/1
f 76/32/2 77/26/2 78/25/2
f 79/24/1 80/33/1 81/34/1
f 82/35/2 83/36/2 84/25/2
f 85/37/1 86/28/1 87/38/1
f 88/39/2 89/29/2 90/40/2
f 91/23/1 92/21/1 93/27/1
f 94/30/2 95/22/2 96/26/2
f 97/27/1 98/28/1 99/41/1
f 100/42/2 101/29/2 102/30/2
f 103/24/1 104/31/1 105/33/1
f 106/36/2 107/32/2 108/25/2
f 109/34/1 110/33/1 111/43/1
f 112/44/2 113/36/2 114/35/2
f 115/34/1 116/43/1 117/45/1
f 118/46/2 119/44/2 120/35/2
f 121/41/1 122/28/1 123/37/1
f 124/40/2 125/29/2 126/42/2
f 127/45/1 128/43/1 129/47/1
f 130/48/2 131/44/2 132/46/2
f 133/45/1 134/49/1 135/50/1
f 136/51/2 137/52/2 138/46/2
f 139/53/1 140/54/1 141/55/1
f 142/56/2 143/57/2 144/58/2
f 145/45/1 146/47/1 147/49/1
f 148/52/2 149/48/2 150/46/2
f 151/50/1 152/49/1 153/59/1
f 154/60/2 155/52/2 156/51/2
f 157/50/1 158/59/1 159/61/1
f 160/62/2 161/60/2 162/51/2
f 163/63/1 164/55/1 165/64/1
f 166/65/2 167/56/2 168/66/2
f 169/54/1 170/53/1 171/67/1
f 172/68/2 173/58/2 174/57/2
f 175/53/1 176/55/1 177/69/1
f 178/70/2 179/56/2 180/58/2
f 181/61/1 182/59/1 183/71/1
f 184/72/2 185/60/2 186/62/2
f 187/61/1 188/63/1 189/73/1
f 190/74/2 191/66/2 192/62/2
f 193/75/1 194/64/1 195/76/1
f 196/77/2 197/65/2 198/78/2
f 199/79/1 200/55/1 201/63/1
f 202/66/2 203/56/2 204/80/2
f 205/63/1 206/64/1 207/73/1
f 208/74/2 209/65/2 210/66/2
f 211/69/1 212/55/1 213/79/1
f 214/80/2 215/56/2 216/70/2
f 217/81/1 218/82/1 219/83/1
f 220/84/2 221/85/2 222/86/2
f 223/61/1 224/71/1 225/87/1
f 226/88/2 227/72/2 228/62/2
f 229/61/1 230/87/1 231/63/1
f 232/66/2 233/88/2 234/62/2
f 235/73/1 236/64/1 237/75/1
f 238/78/2 239/65/2 240/74/2
f 241/75/1 242/76/1 243/89/1
f 244/90/2 245/77/2 246/78/2
f 247/91/1 248/92/1 249/81/1
f 250/86/2 251/93/2 252/94/2
f 253/81/1 254/92/1 255/82/1
f 256/85/2 257/93/2 258/86/2
f 259/75/1 260/89/1 261/95/1
f 262/96/2 263/90/2 264/78/2
f 265/95/1 266/89/1 267/97/1
f 268/98/2 269/90/2 270/96/2
f 271/95/1 272/97/1 273/91/1
f 274/94/2 275/98/2 276/96/2
f 277/91/1 278/97/1 279/92/1
f 280/93/2 281/98/2 282/94/2
