# SSTK version 0.8.0
# 51
mtllib original-51.mtl
o Group4/mesh3/mesh3-geometry/material_7#mesh3-geometry
v 0.390771 0.317760 -0.160505
v 0.398519 0.333375 -0.160505
v 0.390771 0.317760 -0.138247
v 0.398519 0.333375 -0.160505
v 0.401961 0.350463 -0.160505
v 0.398519 0.333375 -0.138247
v 0.372574 0.410423 -0.160505
v 0.372574 0.410423 -0.138247
v 0.385652 0.398897 -0.160505
v 0.356959 0.418171 -0.160505
v 0.356959 0.418171 -0.138247
v 0.372574 0.410423 -0.160505
v 0.379246 0.304683 -0.160505
v 0.390771 0.317760 -0.160505
v 0.379246 0.304683 -0.138247
v 0.398519 0.333375 -0.138247
v 0.390771 0.317760 -0.138247
v 0.398519 0.333375 -0.160505
v 0.390771 0.317760 -0.138247
v 0.379246 0.304683 -0.138247
v 0.390771 0.317760 -0.160505
v 0.401961 0.350463 -0.138247
v 0.398519 0.333375 -0.138247
v 0.401961 0.350463 -0.160505
v 0.401961 0.350463 -0.160505
v 0.400864 0.367860 -0.160505
v 0.401961 0.350463 -0.138247
v 0.395301 0.384380 -0.160505
v 0.385652 0.398897 -0.160505
v 0.395301 0.384380 -0.138247
v 0.385652 0.398897 -0.138247
v 0.385652 0.398897 -0.160505
v 0.372574 0.410423 -0.138247
v 0.372574 0.410423 -0.138247
v 0.372574 0.410423 -0.160505
v 0.356959 0.418171 -0.138247
v 0.356959 0.418171 -0.138247
v 0.356959 0.418171 -0.160505
v 0.339871 0.421613 -0.138247
v 0.339871 0.421613 -0.160505
v 0.339871 0.421613 -0.138247
v 0.356959 0.418171 -0.160505
v 0.379246 0.304683 -0.160505
v 0.379246 0.304683 -0.138247
v 0.364728 0.295034 -0.160505
v 0.398519 0.333375 -0.138247
v 0.275382 0.325606 -0.138247
v 0.390771 0.317760 -0.138247
v 0.390771 0.317760 -0.138247
v 0.285031 0.311089 -0.138247
v 0.379246 0.304683 -0.138247
v 0.275382 0.325606 -0.160505
v 0.285031 0.311089 -0.160505
v 0.275382 0.325606 -0.138247
v 0.269819 0.342126 -0.160505
v 0.275382 0.325606 -0.160505
v 0.269819 0.342126 -0.138247
v 0.401961 0.350463 -0.138247
v 0.269819 0.342126 -0.138247
v 0.398519 0.333375 -0.138247
v 0.268722 0.359523 -0.160505
v 0.269819 0.342126 -0.160505
v 0.268722 0.359523 -0.138247
v 0.400864 0.367860 -0.138247
v 0.401961 0.350463 -0.138247
v 0.400864 0.367860 -0.160505
v 0.400864 0.367860 -0.160505
v 0.395301 0.384380 -0.160505
v 0.400864 0.367860 -0.138247
v 0.385652 0.398897 -0.138247
v 0.395301 0.384380 -0.138247
v 0.385652 0.398897 -0.160505
v 0.395301 0.384380 -0.138247
v 0.400864 0.367860 -0.138247
v 0.395301 0.384380 -0.160505
v 0.372574 0.410423 -0.138247
v 0.291437 0.405304 -0.138247
v 0.385652 0.398897 -0.138247
v 0.356959 0.418171 -0.138247
v 0.305954 0.414952 -0.138247
v 0.372574 0.410423 -0.138247
v 0.291437 0.405304 -0.160505
v 0.279912 0.392226 -0.160505
v 0.291437 0.405304 -0.138247
v 0.291437 0.405304 -0.160505
v 0.291437 0.405304 -0.138247
v 0.305954 0.414952 -0.160505
v 0.339871 0.421613 -0.138247
v 0.322474 0.420515 -0.138247
v 0.356959 0.418171 -0.138247
v 0.305954 0.414952 -0.160505
v 0.305954 0.414952 -0.138247
v 0.322474 0.420515 -0.160505
v 0.339871 0.421613 -0.138247
v 0.339871 0.421613 -0.160505
v 0.322474 0.420515 -0.138247
v 0.322474 0.420515 -0.160505
v 0.322474 0.420515 -0.138247
v 0.339871 0.421613 -0.160505
v 0.364728 0.295034 -0.160505
v 0.364728 0.295034 -0.138247
v 0.348208 0.289471 -0.160505
v 0.364728 0.295034 -0.138247
v 0.364728 0.295034 -0.160505
v 0.379246 0.304683 -0.138247
v 0.298109 0.299564 -0.160505
v 0.298109 0.299564 -0.138247
v 0.285031 0.311089 -0.160505
v 0.275382 0.325606 -0.138247
v 0.285031 0.311089 -0.138247
v 0.390771 0.317760 -0.138247
v 0.269819 0.342126 -0.138247
v 0.275382 0.325606 -0.138247
v 0.398519 0.333375 -0.138247
v 0.285031 0.311089 -0.138247
v 0.298109 0.299564 -0.138247
v 0.379246 0.304683 -0.138247
v 0.285031 0.311089 -0.138247
v 0.275382 0.325606 -0.138247
v 0.285031 0.311089 -0.160505
v 0.275382 0.325606 -0.138247
v 0.269819 0.342126 -0.138247
v 0.275382 0.325606 -0.160505
v 0.269819 0.342126 -0.138247
v 0.268722 0.359523 -0.138247
v 0.269819 0.342126 -0.160505
v 0.268722 0.359523 -0.138247
v 0.269819 0.342126 -0.138247
v 0.401961 0.350463 -0.138247
v 0.268722 0.359523 -0.160505
v 0.268722 0.359523 -0.138247
v 0.272164 0.376611 -0.160505
v 0.400864 0.367860 -0.138247
v 0.268722 0.359523 -0.138247
v 0.401961 0.350463 -0.138247
v 0.385652 0.398897 -0.138247
v 0.279912 0.392226 -0.138247
v 0.395301 0.384380 -0.138247
v 0.395301 0.384380 -0.138247
v 0.272164 0.376611 -0.138247
v 0.400864 0.367860 -0.138247
v 0.279912 0.392226 -0.160505
v 0.272164 0.376611 -0.160505
v 0.279912 0.392226 -0.138247
v 0.291437 0.405304 -0.138247
v 0.279912 0.392226 -0.138247
v 0.385652 0.398897 -0.138247
v 0.305954 0.414952 -0.138247
v 0.291437 0.405304 -0.138247
v 0.372574 0.410423 -0.138247
v 0.322474 0.420515 -0.138247
v 0.305954 0.414952 -0.138247
v 0.356959 0.418171 -0.138247
v 0.279912 0.392226 -0.138247
v 0.291437 0.405304 -0.138247
v 0.279912 0.392226 -0.160505
v 0.305954 0.414952 -0.138247
v 0.305954 0.414952 -0.160505
v 0.291437 0.405304 -0.138247
v 0.322474 0.420515 -0.138247
v 0.322474 0.420515 -0.160505
v 0.305954 0.414952 -0.138247
v 0.348208 0.289471 -0.138247
v 0.348208 0.289471 -0.160505
v 0.364728 0.295034 -0.138247
v 0.379246 0.304683 -0.138247
v 0.298109 0.299564 -0.138247
v 0.364728 0.295034 -0.138247
v 0.313724 0.291816 -0.160505
v 0.313724 0.291816 -0.138247
v 0.298109 0.299564 -0.160505
v 0.285031 0.311089 -0.138247
v 0.285031 0.311089 -0.160505
v 0.298109 0.299564 -0.138247
v 0.298109 0.299564 -0.138247
v 0.298109 0.299564 -0.160505
v 0.313724 0.291816 -0.138247
v 0.272164 0.376611 -0.138247
v 0.272164 0.376611 -0.160505
v 0.268722 0.359523 -0.138247
v 0.272164 0.376611 -0.138247
v 0.268722 0.359523 -0.138247
v 0.400864 0.367860 -0.138247
v 0.279912 0.392226 -0.138247
v 0.272164 0.376611 -0.138247
v 0.395301 0.384380 -0.138247
v 0.272164 0.376611 -0.138247
v 0.279912 0.392226 -0.138247
v 0.272164 0.376611 -0.160505
v 0.348208 0.289471 -0.160505
v 0.348208 0.289471 -0.138247
v 0.330812 0.288373 -0.160505
v 0.364728 0.295034 -0.138247
v 0.313724 0.291816 -0.138247
v 0.348208 0.289471 -0.138247
v 0.330812 0.288373 -0.160505
v 0.330812 0.288373 -0.138247
v 0.313724 0.291816 -0.160505
v 0.298109 0.299564 -0.138247
v 0.313724 0.291816 -0.138247
v 0.364728 0.295034 -0.138247
v 0.313724 0.291816 -0.138247
v 0.313724 0.291816 -0.160505
v 0.330812 0.288373 -0.138247
v 0.330812 0.288373 -0.138247
v 0.330812 0.288373 -0.160505
v 0.348208 0.289471 -0.138247
v 0.330812 0.288373 -0.138247
v 0.348208 0.289471 -0.138247
v 0.313724 0.291816 -0.138247
v 0.390771 0.317760 -0.138247
v 0.398519 0.333375 -0.160505
v 0.390771 0.317760 -0.160505
v 0.398519 0.333375 -0.138247
v 0.401961 0.350463 -0.160505
v 0.398519 0.333375 -0.160505
v 0.385652 0.398897 -0.160505
v 0.372574 0.410423 -0.138247
v 0.372574 0.410423 -0.160505
v 0.372574 0.410423 -0.160505
v 0.356959 0.418171 -0.138247
v 0.356959 0.418171 -0.160505
v 0.379246 0.304683 -0.138247
v 0.390771 0.317760 -0.160505
v 0.379246 0.304683 -0.160505
v 0.398519 0.333375 -0.160505
v 0.390771 0.317760 -0.138247
v 0.398519 0.333375 -0.138247
v 0.390771 0.317760 -0.160505
v 0.379246 0.304683 -0.138247
v 0.390771 0.317760 -0.138247
v 0.401961 0.350463 -0.160505
v 0.398519 0.333375 -0.138247
v 0.401961 0.350463 -0.138247
v 0.401961 0.350463 -0.138247
v 0.400864 0.367860 -0.160505
v 0.401961 0.350463 -0.160505
v 0.395301 0.384380 -0.138247
v 0.385652 0.398897 -0.160505
v 0.395301 0.384380 -0.160505
v 0.372574 0.410423 -0.138247
v 0.385652 0.398897 -0.160505
v 0.385652 0.398897 -0.138247
v 0.356959 0.418171 -0.138247
v 0.372574 0.410423 -0.160505
v 0.372574 0.410423 -0.138247
v 0.339871 0.421613 -0.138247
v 0.356959 0.418171 -0.160505
v 0.356959 0.418171 -0.138247
v 0.356959 0.418171 -0.160505
v 0.339871 0.421613 -0.138247
v 0.339871 0.421613 -0.160505
v 0.364728 0.295034 -0.160505
v 0.379246 0.304683 -0.138247
v 0.379246 0.304683 -0.160505
v 0.390771 0.317760 -0.138247
v 0.275382 0.325606 -0.138247
v 0.398519 0.333375 -0.138247
v 0.379246 0.304683 -0.138247
v 0.285031 0.311089 -0.138247
v 0.390771 0.317760 -0.138247
v 0.275382 0.325606 -0.138247
v 0.285031 0.311089 -0.160505
v 0.275382 0.325606 -0.160505
v 0.269819 0.342126 -0.138247
v 0.275382 0.325606 -0.160505
v 0.269819 0.342126 -0.160505
v 0.398519 0.333375 -0.138247
v 0.269819 0.342126 -0.138247
v 0.401961 0.350463 -0.138247
v 0.268722 0.359523 -0.138247
v 0.269819 0.342126 -0.160505
v 0.268722 0.359523 -0.160505
v 0.400864 0.367860 -0.160505
v 0.401961 0.350463 -0.138247
v 0.400864 0.367860 -0.138247
v 0.400864 0.367860 -0.138247
v 0.395301 0.384380 -0.160505
v 0.400864 0.367860 -0.160505
v 0.385652 0.398897 -0.160505
v 0.395301 0.384380 -0.138247
v 0.385652 0.398897 -0.138247
v 0.395301 0.384380 -0.160505
v 0.400864 0.367860 -0.138247
v 0.395301 0.384380 -0.138247
v 0.385652 0.398897 -0.138247
v 0.291437 0.405304 -0.138247
v 0.372574 0.410423 -0.138247
v 0.372574 0.410423 -0.138247
v 0.305954 0.414952 -0.138247
v 0.356959 0.418171 -0.138247
v 0.291437 0.405304 -0.138247
v 0.279912 0.392226 -0.160505
v 0.291437 0.405304 -0.160505
v 0.305954 0.414952 -0.160505
v 0.291437 0.405304 -0.138247
v 0.291437 0.405304 -0.160505
v 0.356959 0.418171 -0.138247
v 0.322474 0.420515 -0.138247
v 0.339871 0.421613 -0.138247
v 0.322474 0.420515 -0.160505
v 0.305954 0.414952 -0.138247
v 0.305954 0.414952 -0.160505
v 0.322474 0.420515 -0.138247
v 0.339871 0.421613 -0.160505
v 0.339871 0.421613 -0.138247
v 0.339871 0.421613 -0.160505
v 0.322474 0.420515 -0.138247
v 0.322474 0.420515 -0.160505
v 0.348208 0.289471 -0.160505
v 0.364728 0.295034 -0.138247
v 0.364728 0.295034 -0.160505
v 0.379246 0.304683 -0.138247
v 0.364728 0.295034 -0.160505
v 0.364728 0.295034 -0.138247
v 0.285031 0.311089 -0.160505
v 0.298109 0.299564 -0.138247
v 0.298109 0.299564 -0.160505
v 0.390771 0.317760 -0.138247
v 0.285031 0.311089 -0.138247
v 0.275382 0.325606 -0.138247
v 0.398519 0.333375 -0.138247
v 0.275382 0.325606 -0.138247
v 0.269819 0.342126 -0.138247
v 0.379246 0.304683 -0.138247
v 0.298109 0.299564 -0.138247
v 0.285031 0.311089 -0.138247
v 0.285031 0.311089 -0.160505
v 0.275382 0.325606 -0.138247
v 0.285031 0.311089 -0.138247
v 0.275382 0.325606 -0.160505
v 0.269819 0.342126 -0.138247
v 0.275382 0.325606 -0.138247
v 0.269819 0.342126 -0.160505
v 0.268722 0.359523 -0.138247
v 0.269819 0.342126 -0.138247
v 0.401961 0.350463 -0.138247
v 0.269819 0.342126 -0.138247
v 0.268722 0.359523 -0.138247
v 0.272164 0.376611 -0.160505
v 0.268722 0.359523 -0.138247
v 0.268722 0.359523 -0.160505
v 0.401961 0.350463 -0.138247
v 0.268722 0.359523 -0.138247
v 0.400864 0.367860 -0.138247
v 0.395301 0.384380 -0.138247
v 0.279912 0.392226 -0.138247
v 0.385652 0.398897 -0.138247
v 0.400864 0.367860 -0.138247
v 0.272164 0.376611 -0.138247
v 0.395301 0.384380 -0.138247
v 0.279912 0.392226 -0.138247
v 0.272164 0.376611 -0.160505
v 0.279912 0.392226 -0.160505
v 0.385652 0.398897 -0.138247
v 0.279912 0.392226 -0.138247
v 0.291437 0.405304 -0.138247
v 0.372574 0.410423 -0.138247
v 0.291437 0.405304 -0.138247
v 0.305954 0.414952 -0.138247
v 0.356959 0.418171 -0.138247
v 0.305954 0.414952 -0.138247
v 0.322474 0.420515 -0.138247
v 0.279912 0.392226 -0.160505
v 0.291437 0.405304 -0.138247
v 0.279912 0.392226 -0.138247
v 0.291437 0.405304 -0.138247
v 0.305954 0.414952 -0.160505
v 0.305954 0.414952 -0.138247
v 0.305954 0.414952 -0.138247
v 0.322474 0.420515 -0.160505
v 0.322474 0.420515 -0.138247
v 0.364728 0.295034 -0.138247
v 0.348208 0.289471 -0.160505
v 0.348208 0.289471 -0.138247
v 0.364728 0.295034 -0.138247
v 0.298109 0.299564 -0.138247
v 0.379246 0.304683 -0.138247
v 0.298109 0.299564 -0.160505
v 0.313724 0.291816 -0.138247
v 0.313724 0.291816 -0.160505
v 0.298109 0.299564 -0.138247
v 0.285031 0.311089 -0.160505
v 0.285031 0.311089 -0.138247
v 0.313724 0.291816 -0.138247
v 0.298109 0.299564 -0.160505
v 0.298109 0.299564 -0.138247
v 0.268722 0.359523 -0.138247
v 0.272164 0.376611 -0.160505
v 0.272164 0.376611 -0.138247
v 0.400864 0.367860 -0.138247
v 0.268722 0.359523 -0.138247
v 0.272164 0.376611 -0.138247
v 0.395301 0.384380 -0.138247
v 0.272164 0.376611 -0.138247
v 0.279912 0.392226 -0.138247
v 0.272164 0.376611 -0.160505
v 0.279912 0.392226 -0.138247
v 0.272164 0.376611 -0.138247
v 0.330812 0.288373 -0.160505
v 0.348208 0.289471 -0.138247
v 0.348208 0.289471 -0.160505
v 0.348208 0.289471 -0.138247
v 0.313724 0.291816 -0.138247
v 0.364728 0.295034 -0.138247
v 0.313724 0.291816 -0.160505
v 0.330812 0.288373 -0.138247
v 0.330812 0.288373 -0.160505
v 0.364728 0.295034 -0.138247
v 0.313724 0.291816 -0.138247
v 0.298109 0.299564 -0.138247
v 0.330812 0.288373 -0.138247
v 0.313724 0.291816 -0.160505
v 0.313724 0.291816 -0.138247
v 0.348208 0.289471 -0.138247
v 0.330812 0.288373 -0.160505
v 0.330812 0.288373 -0.138247
v 0.313724 0.291816 -0.138247
v 0.348208 0.289471 -0.138247
v 0.330812 0.288373 -0.138247
vt -0.1599999964237213 1.3959569931030273
vt -0.1599999964237213 1.411620020866394
vt -0.14000000059604645 1.3959569931030273
vt -0.1599999964237213 1.3174329996109009
vt -0.1599999964237213 1.3330960273742676
vt -0.14000000059604645 1.3174329996109009
vt -0.1599999964237213 0.25661900639533997
vt -0.14000000059604645 0.25661900639533997
vt -0.1599999964237213 0.24095599353313446
vt -0.1599999964237213 -0.11074899882078171
vt -0.14000000059604645 -0.11074899882078171
vt -0.1599999964237213 -0.12641200423240662
vt -0.1599999964237213 1.3788150548934937
vt -0.1599999964237213 1.3944779634475708
vt -0.14000000059604645 1.3788150548934937
vt -0.14000000059604645 1.411620020866394
vt -0.14000000059604645 1.3944779634475708
vt -0.14000000059604645 1.3330960273742676
vt -0.1599999964237213 1.1485949754714966
vt -0.1599999964237213 1.1642580032348633
vt -0.14000000059604645 1.1485949754714966
vt -0.1599999964237213 0.5913689732551575
vt -0.1599999964237213 0.6070320010185242
vt -0.14000000059604645 0.5913689732551575
vt -0.14000000059604645 0.24095599353313446
vt -0.14000000059604645 -0.12641200423240662
vt -0.14000000059604645 -0.48569899797439575
vt -0.1599999964237213 -0.48569899797439575
vt -0.14000000059604645 -0.47003600001335144
vt -0.1599999964237213 -0.47003600001335144
vt -0.1599999964237213 1.2828389406204224
vt -0.14000000059604645 1.2828389406204224
vt -0.1599999964237213 1.2671749591827393
vt -0.7869430184364319 1.1853699684143066
vt -0.6762970089912415 1.1783889532089233
vt -0.7799810171127319 1.1713390350341797
vt -0.6849669814109802 1.165343999862671
vt -0.7696250081062317 1.1595879793167114
vt 0.1599999964237213 0.6070320010185242
vt 0.1599999964237213 0.5913689732551575
vt 0.14000000059604645 0.6070320010185242
vt 0.1599999964237213 0.9166110157966614
vt 0.1599999964237213 0.9009479880332947
vt 0.14000000059604645 0.9166110157966614
vt -0.7900360226631165 1.2007240056991577
vt -0.6712989807128906 1.1932330131530762
vt 0.1599999964237213 1.1642580032348633
vt 0.1599999964237213 1.1485949754714966
vt 0.14000000059604645 1.1642580032348633
vt -0.14000000059604645 1.1642580032348633
vt -0.1599999964237213 0.9009479880332947
vt -0.1599999964237213 0.9166110157966614
vt -0.14000000059604645 0.9009479880332947
vt -0.14000000059604645 0.6070320010185242
vt -0.14000000059604645 0.9166110157966614
vt -0.7636299729347229 1.254601001739502
vt -0.6907240152359009 1.2500009536743164
vt -0.7753810286521912 1.2442450523376465
vt -0.7495989799499512 1.2615629434585571
vt -0.7037680149078369 1.2586719989776611
vt 0.1599999964237213 1.3944779634475708
vt 0.1599999964237213 1.3788150548934937
vt 0.14000000059604645 1.3944779634475708
vt 0.1599999964237213 1.2671749591827393
vt 0.14000000059604645 1.2671749591827393
vt 0.1599999964237213 1.2828389406204224
vt -0.7342439889907837 1.2646559476852417
vt -0.718612015247345 1.2636699676513672
vt 0.1599999964237213 1.06864595413208
vt 0.14000000059604645 1.06864595413208
vt 0.1599999964237213 1.0843089818954468
vt 0.14000000059604645 0.8124200105667114
vt 0.1599999964237213 0.8124200105667114
vt 0.14000000059604645 0.7967569828033447
vt 0.1599999964237213 0.7967569828033447
vt -0.1599999964237213 1.0843089818954468
vt -0.14000000059604645 1.0843089818954468
vt -0.1599999964237213 1.06864595413208
vt -0.14000000059604645 1.2671749591827393
vt 0.1599999964237213 0.24095599353313446
vt 0.14000000059604645 0.24095599353313446
vt 0.1599999964237213 0.25661900639533997
vt -0.6967179775238037 1.1549880504608154
vt 0.14000000059604645 0.5913689732551575
vt 0.14000000059604645 0.9009479880332947
vt 0.14000000059604645 1.1485949754714966
vt -0.6703119874000549 1.2088650465011597
vt 0.1599999964237213 1.3174329996109009
vt 0.14000000059604645 1.3174329996109009
vt 0.1599999964237213 1.3330960273742676
vt -0.7890499830245972 1.2163560390472412
vt -0.6803669929504395 1.2382500171661377
vt -0.7840510010719299 1.2311999797821045
vt -0.6734060049057007 1.2242200374603271
vt 0.1599999964237213 1.411620020866394
vt 0.1599999964237213 1.3959569931030273
vt 0.14000000059604645 1.411620020866394
vt 0.14000000059604645 1.3788150548934937
vt 0.14000000059604645 1.2828389406204224
vt 0.14000000059604645 1.0843089818954468
vt -0.14000000059604645 1.06864595413208
vt -0.7565799951553345 1.1509180068969727
vt 0.1599999964237213 -0.12641200423240662
vt 0.14000000059604645 -0.12641200423240662
vt 0.1599999964237213 -0.11074899882078171
vt 0.14000000059604645 0.25661900639533997
vt 0.14000000059604645 -0.11074899882078171
vt 0.14000000059604645 1.3330960273742676
vt 0.14000000059604645 1.3959569931030273
vt -0.1599999964237213 0.8124200105667114
vt -0.14000000059604645 0.8124200105667114
vt -0.1599999964237213 0.7967569828033447
vt -0.7107489705085754 1.1480259895324707
vt -0.7417359948158264 1.1459189653396606
vt 0.1599999964237213 -0.48569899797439575
vt 0.14000000059604645 -0.48569899797439575
vt 0.1599999964237213 -0.47003600001335144
vt 0.14000000059604645 -0.47003600001335144
vt -0.14000000059604645 0.7967569828033447
vt -0.7261040210723877 1.1449329853057861
vt 0 0
vn 0.8301110929383367 -0.5575980392547306 0
vn 0.9461429992842821 -0.3237490152963294 0
vn 0.9976963479031323 -0.06783802311942758 0
vn 0.5575980392547306 0.8301110929383367 0
vn 0.7534468081512699 0.657508864797018 0
vn 0.3237490152963294 0.9461429992842821 0
vn 0.657508864797018 -0.7534468081512699 0
vn 0.9812584833522644 0.19269610491448338 0
vn 0.8979492039663649 0.44009911053781015 0
vn 0.06783802311942758 0.9976963479031323 0
vn 0.44009911053781015 -0.8979492039663649 0
vn 0 0 1
vn -0.8979492039663649 -0.44009911053781015 0
vn -0.7534468081512699 -0.657508864797018 0
vn -0.9812584833522644 -0.19269610491448338 0
vn -0.9976963479031323 0.06783802311942758 0
vn -0.657508864797018 0.7534468081512699 0
vn -0.8301110929383367 0.5575980392547306 0
vn -0.44009911053781015 0.8979492039663649 0
vn -0.19269610491448338 0.9812584833522644 0
vn 0.19269610491448338 -0.9812584833522644 0
vn -0.5575980392547306 -0.8301110929383367 0
vn -0.9461429992842821 0.3237490152963294 0
vn -0.3237490152963294 -0.9461429992842821 0
vn -0.06783802311942758 -0.9976963479031323 0
vn 0 0 -1
usemtl material_0_0
f 1/1/1 2/2/2 3/3/1
f 4/4/2 5/5/3 6/6/2
f 7/7/4 8/8/4 9/9/5
f 10/10/6 11/11/6 12/12/4
f 13/13/7 14/14/1 15/15/7
f 16/16/2 17/3/1 18/2/2
f 19/17/1 20/15/7 21/14/1
f 22/18/3 23/6/2 24/5/3
f 25/19/3 26/20/8 27/21/3
f 28/22/9 29/23/5 30/24/9
f 31/25/5 32/9/5 33/8/4
f 34/26/4 35/12/4 36/11/6
f 37/27/6 38/28/6 39/29/10
f 40/30/10 41/29/10 42/28/6
f 43/31/7 44/32/7 45/33/11
f 46/34/12 47/35/12 48/36/12
f 49/36/12 50/37/12 51/38/12
f 52/39/13 53/40/14 54/41/13
f 55/42/15 56/43/13 57/44/15
f 58/45/12 59/46/12 60/34/12
f 61/47/16 62/48/15 63/49/16
f 64/50/8 65/21/3 66/20/8
f 67/51/8 68/52/9 69/53/8
f 70/54/5 71/24/9 72/23/5
f 73/55/9 74/53/8 75/52/9
f 76/56/12 77/57/12 78/58/12
f 79/59/12 80/60/12 81/56/12
f 82/61/17 83/62/18 84/63/17
f 85/64/17 86/65/17 87/66/19
f 88/67/12 89/68/12 90/59/12
f 91/69/19 92/70/19 93/71/20
f 94/72/10 95/73/10 96/74/20
f 97/75/20 98/74/20 99/73/10
f 100/76/11 101/77/11 102/78/21
f 103/79/11 104/33/11 105/32/7
f 106/80/22 107/81/22 108/82/14
f 109/35/12 110/37/12 111/36/12
f 112/46/12 113/35/12 114/34/12
f 115/37/12 116/83/12 117/38/12
f 118/84/14 119/41/13 120/40/14
f 121/85/13 122/44/15 123/43/13
f 124/86/15 125/49/16 126/48/15
f 127/87/12 128/46/12 129/45/12
f 130/88/16 131/89/16 132/90/23
f 133/91/12 134/87/12 135/45/12
f 136/58/12 137/92/12 138/93/12
f 139/93/12 140/94/12 141/91/12
f 142/95/18 143/96/23 144/97/18
f 145/57/12 146/92/12 147/58/12
f 148/60/12 149/57/12 150/56/12
f 151/68/12 152/60/12 153/59/12
f 154/98/18 155/63/17 156/62/18
f 157/99/19 158/66/19 159/65/17
f 160/100/20 161/71/20 162/70/19
f 163/101/21 164/78/21 165/77/11
f 166/38/12 167/83/12 168/102/12
f 169/103/24 170/104/24 171/105/22
f 172/106/14 173/82/14 174/81/22
f 175/107/22 176/105/22 177/104/24
f 178/108/23 179/90/23 180/89/16
f 181/94/12 182/87/12 183/91/12
f 184/92/12 185/94/12 186/93/12
f 187/109/23 188/97/18 189/96/23
f 190/110/21 191/111/21 192/112/25
f 193/102/12 194/113/12 195/114/12
f 196/115/25 197/116/25 198/117/24
f 199/83/12 200/113/12 201/102/12
f 202/118/24 203/117/24 204/116/25
f 205/119/25 206/112/25 207/111/21
f 208/120/12 209/114/12 210/113/12
usemtl material_1_0
f 211/121/18 212/121/23 213/121/18
f 214/121/23 215/121/16 216/121/23
f 217/121/14 218/121/22 219/121/22
f 220/121/22 221/121/24 222/121/24
f 223/121/17 224/121/18 225/121/17
f 226/121/23 227/121/18 228/121/23
f 229/121/18 230/121/17 231/121/18
f 232/121/16 233/121/23 234/121/16
f 235/121/16 236/121/15 237/121/16
f 238/121/13 239/121/14 240/121/13
f 241/121/22 242/121/14 243/121/14
f 244/121/24 245/121/22 246/121/22
f 247/121/25 248/121/24 249/121/24
f 250/121/24 251/121/25 252/121/25
f 253/121/19 254/121/17 255/121/17
f 256/121/26 257/121/26 258/121/26
f 259/121/26 260/121/26 261/121/26
f 262/121/9 263/121/5 264/121/9
f 265/121/8 266/121/9 267/121/8
f 268/121/26 269/121/26 270/121/26
f 271/121/3 272/121/8 273/121/3
f 274/121/15 275/121/16 276/121/15
f 277/121/15 278/121/13 279/121/15
f 280/121/14 281/121/13 282/121/14
f 283/121/13 284/121/15 285/121/13
f 286/121/26 287/121/26 288/121/26
f 289/121/26 290/121/26 291/121/26
f 292/121/7 293/121/1 294/121/7
f 295/121/11 296/121/7 297/121/7
f 298/121/26 299/121/26 300/121/26
f 301/121/21 302/121/11 303/121/11
f 304/121/21 305/121/25 306/121/25
f 307/121/25 308/121/21 309/121/21
f 310/121/20 311/121/19 312/121/19
f 313/121/17 314/121/19 315/121/19
f 316/121/5 317/121/4 318/121/4
f 319/121/26 320/121/26 321/121/26
f 322/121/26 323/121/26 324/121/26
f 325/121/26 326/121/26 327/121/26
f 328/121/5 329/121/9 330/121/5
f 331/121/9 332/121/8 333/121/9
f 334/121/8 335/121/3 336/121/8
f 337/121/26 338/121/26 339/121/26
f 340/121/2 341/121/3 342/121/3
f 343/121/26 344/121/26 345/121/26
f 346/121/26 347/121/26 348/121/26
f 349/121/26 350/121/26 351/121/26
f 352/121/1 353/121/2 354/121/1
f 355/121/26 356/121/26 357/121/26
f 358/121/26 359/121/26 360/121/26
f 361/121/26 362/121/26 363/121/26
f 364/121/1 365/121/7 366/121/1
f 367/121/7 368/121/11 369/121/11
f 370/121/11 371/121/21 372/121/21
f 373/121/19 374/121/20 375/121/20
f 376/121/26 377/121/26 378/121/26
f 379/121/4 380/121/6 381/121/6
f 382/121/4 383/121/5 384/121/5
f 385/121/6 386/121/4 387/121/4
f 388/121/3 389/121/2 390/121/2
f 391/121/26 392/121/26 393/121/26
f 394/121/26 395/121/26 396/121/26
f 397/121/2 398/121/1 399/121/2
f 400/121/10 401/121/20 402/121/20
f 403/121/26 404/121/26 405/121/26
f 406/121/6 407/121/10 408/121/10
f 409/121/26 410/121/26 411/121/26
f 412/121/10 413/121/6 414/121/6
f 415/121/20 416/121/10 417/121/10
f 418/121/26 419/121/26 420/121/26
