# SSTK version 0.8.0
# 52
mtllib original-52.mtl
o Group4/mesh3/mesh3-geometry/material_8#mesh3-geometry
v 0.390771 0.317760 -0.160505
v 0.275382 0.325606 -0.160505
v 0.398519 0.333375 -0.160505
v 0.398519 0.333375 -0.160505
v 0.275382 0.325606 -0.160505
v 0.390771 0.317760 -0.160505
v 0.398519 0.333375 -0.160505
v 0.269819 0.342126 -0.160505
v 0.401961 0.350463 -0.160505
v 0.401961 0.350463 -0.160505
v 0.269819 0.342126 -0.160505
v 0.398519 0.333375 -0.160505
v 0.385652 0.398897 -0.160505
v 0.291437 0.405304 -0.160505
v 0.372574 0.410423 -0.160505
v 0.372574 0.410423 -0.160505
v 0.291437 0.405304 -0.160505
v 0.385652 0.398897 -0.160505
v 0.372574 0.410423 -0.160505
v 0.305954 0.414952 -0.160505
v 0.356959 0.418171 -0.160505
v 0.356959 0.418171 -0.160505
v 0.305954 0.414952 -0.160505
v 0.372574 0.410423 -0.160505
v 0.379246 0.304683 -0.160505
v 0.285031 0.311089 -0.160505
v 0.390771 0.317760 -0.160505
v 0.390771 0.317760 -0.160505
v 0.285031 0.311089 -0.160505
v 0.379246 0.304683 -0.160505
v 0.390771 0.317760 -0.160505
v 0.285031 0.311089 -0.160505
v 0.275382 0.325606 -0.160505
v 0.275382 0.325606 -0.160505
v 0.285031 0.311089 -0.160505
v 0.390771 0.317760 -0.160505
v 0.398519 0.333375 -0.160505
v 0.275382 0.325606 -0.160505
v 0.269819 0.342126 -0.160505
v 0.269819 0.342126 -0.160505
v 0.275382 0.325606 -0.160505
v 0.398519 0.333375 -0.160505
v 0.401961 0.350463 -0.160505
v 0.269819 0.342126 -0.160505
v 0.268722 0.359523 -0.160505
v 0.268722 0.359523 -0.160505
v 0.269819 0.342126 -0.160505
v 0.401961 0.350463 -0.160505
v 0.401961 0.350463 -0.160505
v 0.268722 0.359523 -0.160505
v 0.400864 0.367860 -0.160505
v 0.400864 0.367860 -0.160505
v 0.268722 0.359523 -0.160505
v 0.401961 0.350463 -0.160505
v 0.395301 0.384380 -0.160505
v 0.279912 0.392226 -0.160505
v 0.385652 0.398897 -0.160505
v 0.385652 0.398897 -0.160505
v 0.279912 0.392226 -0.160505
v 0.395301 0.384380 -0.160505
v 0.385652 0.398897 -0.160505
v 0.279912 0.392226 -0.160505
v 0.291437 0.405304 -0.160505
v 0.291437 0.405304 -0.160505
v 0.279912 0.392226 -0.160505
v 0.385652 0.398897 -0.160505
v 0.372574 0.410423 -0.160505
v 0.291437 0.405304 -0.160505
v 0.305954 0.414952 -0.160505
v 0.305954 0.414952 -0.160505
v 0.291437 0.405304 -0.160505
v 0.372574 0.410423 -0.160505
v 0.356959 0.418171 -0.160505
v 0.305954 0.414952 -0.160505
v 0.322474 0.420515 -0.160505
v 0.322474 0.420515 -0.160505
v 0.305954 0.414952 -0.160505
v 0.356959 0.418171 -0.160505
v 0.356959 0.418171 -0.160505
v 0.322474 0.420515 -0.160505
v 0.339871 0.421613 -0.160505
v 0.339871 0.421613 -0.160505
v 0.322474 0.420515 -0.160505
v 0.356959 0.418171 -0.160505
v 0.364728 0.295034 -0.160505
v 0.298109 0.299564 -0.160505
v 0.379246 0.304683 -0.160505
v 0.379246 0.304683 -0.160505
v 0.298109 0.299564 -0.160505
v 0.364728 0.295034 -0.160505
v 0.379246 0.304683 -0.160505
v 0.298109 0.299564 -0.160505
v 0.285031 0.311089 -0.160505
v 0.285031 0.311089 -0.160505
v 0.298109 0.299564 -0.160505
v 0.379246 0.304683 -0.160505
v 0.400864 0.367860 -0.160505
v 0.268722 0.359523 -0.160505
v 0.272164 0.376611 -0.160505
v 0.272164 0.376611 -0.160505
v 0.268722 0.359523 -0.160505
v 0.400864 0.367860 -0.160505
v 0.400864 0.367860 -0.160505
v 0.272164 0.376611 -0.160505
v 0.395301 0.384380 -0.160505
v 0.395301 0.384380 -0.160505
v 0.272164 0.376611 -0.160505
v 0.400864 0.367860 -0.160505
v 0.395301 0.384380 -0.160505
v 0.272164 0.376611 -0.160505
v 0.279912 0.392226 -0.160505
v 0.279912 0.392226 -0.160505
v 0.272164 0.376611 -0.160505
v 0.395301 0.384380 -0.160505
v 0.348208 0.289471 -0.160505
v 0.313724 0.291816 -0.160505
v 0.364728 0.295034 -0.160505
v 0.364728 0.295034 -0.160505
v 0.313724 0.291816 -0.160505
v 0.348208 0.289471 -0.160505
v 0.364728 0.295034 -0.160505
v 0.313724 0.291816 -0.160505
v 0.298109 0.299564 -0.160505
v 0.298109 0.299564 -0.160505
v 0.313724 0.291816 -0.160505
v 0.364728 0.295034 -0.160505
v 0.313724 0.291816 -0.160505
v 0.348208 0.289471 -0.160505
v 0.330812 0.288373 -0.160505
v 0.330812 0.288373 -0.160505
v 0.348208 0.289471 -0.160505
v 0.313724 0.291816 -0.160505
vt -0.06397499889135361 0.09607400000095367
vt -0.05547099933028221 0.09665299952030182
vt -0.06454599648714066 0.09722500294446945
vt -0.05506100133061409 0.09786999970674515
vt -0.06480000168085098 0.09848500043153763
vt -0.06359799951314926 0.10205399990081787
vt -0.05665399879217148 0.10252600163221359
vt -0.06263399869203568 0.10290399938821793
vt -0.0577239990234375 0.10323700308799744
vt -0.061482999473810196 0.10347499698400497
vt -0.06312499940395355 0.09511099755764008
vt -0.056182000786066055 0.0955829992890358
vt -0.054979998618364334 0.09915199875831604
vt -0.06471899896860123 0.09976699948310852
vt -0.0643090009689331 0.10098399966955185
vt -0.05580399930477142 0.1015629991889
vt -0.05894099920988083 0.10364700108766556
vt -0.06022299826145172 0.10372799634933472
vt -0.06205499917268753 0.09439899772405624
vt -0.05714600160717964 0.09473299980163574
vt -0.055233001708984375 0.10041200369596481
vt -0.0608379989862442 0.09398899972438812
vt -0.058295998722314835 0.0941620022058487
vt -0.05955599993467331 0.09390900284051895
vn 0 0 -1
vn 0 0 1
usemtl material_0_0
f 1/1/1 2/2/1 3/3/1
f 4/3/2 5/2/2 6/1/2
f 7/3/1 8/4/1 9/5/1
f 10/5/2 11/4/2 12/3/2
f 13/6/1 14/7/1 15/8/1
f 16/8/2 17/7/2 18/6/2
f 19/8/1 20/9/1 21/10/1
f 22/10/2 23/9/2 24/8/2
f 25/11/1 26/12/1 27/1/1
f 28/1/2 29/12/2 30/11/2
f 31/1/1 32/12/1 33/2/1
f 34/2/2 35/12/2 36/1/2
f 37/3/1 38/2/1 39/4/1
f 40/4/2 41/2/2 42/3/2
f 43/5/1 44/4/1 45/13/1
f 46/13/2 47/4/2 48/5/2
f 49/5/1 50/13/1 51/14/1
f 52/14/2 53/13/2 54/5/2
f 55/15/1 56/16/1 57/6/1
f 58/6/2 59/16/2 60/15/2
f 61/6/1 62/16/1 63/7/1
f 64/7/2 65/16/2 66/6/2
f 67/8/1 68/7/1 69/9/1
f 70/9/2 71/7/2 72/8/2
f 73/10/1 74/9/1 75/17/1
f 76/17/2 77/9/2 78/10/2
f 79/10/1 80/17/1 81/18/1
f 82/18/2 83/17/2 84/10/2
f 85/19/1 86/20/1 87/11/1
f 88/11/2 89/20/2 90/19/2
f 91/11/1 92/20/1 93/12/1
f 94/12/2 95/20/2 96/11/2
f 97/14/1 98/13/1 99/21/1
f 100/21/2 101/13/2 102/14/2
f 103/14/1 104/21/1 105/15/1
f 106/15/2 107/21/2 108/14/2
f 109/15/1 110/21/1 111/16/1
f 112/16/2 113/21/2 114/15/2
f 115/22/1 116/23/1 117/19/1
f 118/19/2 119/23/2 120/22/2
f 121/19/1 122/23/1 123/20/1
f 124/20/2 125/23/2 126/19/2
f 127/23/1 128/22/1 129/24/1
f 130/24/2 131/22/2 132/23/2
