# SSTK version 0.8.0
# 15
mtllib original-15.mtl
o mesh2/mesh2-geometry/material_2/component_8#mesh2-geometry
v -0.338103 -0.647193 0.106590
v -0.321876 -0.646428 0.106590
v -0.339547 -0.644944 0.106590
v -0.339547 -0.644944 0.106590
v -0.321876 -0.646428 0.106590
v -0.338103 -0.647193 0.106590
v -0.339916 -0.637117 0.106590
v -0.320207 -0.638772 0.106590
v -0.321019 -0.636226 0.106590
v -0.321019 -0.636226 0.106590
v -0.320207 -0.638772 0.106590
v -0.339916 -0.637117 0.106590
v -0.338691 -0.634742 0.106590
v -0.321019 -0.636226 0.106590
v -0.322463 -0.633977 0.106590
v -0.322463 -0.633977 0.106590
v -0.321019 -0.636226 0.106590
v -0.338691 -0.634742 0.106590
v -0.336127 -0.648992 0.106590
v -0.323675 -0.648405 0.106590
v -0.338103 -0.647193 0.106590
v -0.338103 -0.647193 0.106590
v -0.323675 -0.648405 0.106590
v -0.336127 -0.648992 0.106590
v -0.338103 -0.647193 0.106590
v -0.323675 -0.648405 0.106590
v -0.321876 -0.646428 0.106590
v -0.321876 -0.646428 0.106590
v -0.323675 -0.648405 0.106590
v -0.338103 -0.647193 0.106590
v -0.339547 -0.644944 0.106590
v -0.321876 -0.646428 0.106590
v -0.320650 -0.644053 0.106590
v -0.320650 -0.644053 0.106590
v -0.321876 -0.646428 0.106590
v -0.339547 -0.644944 0.106590
v -0.339547 -0.644944 0.106590
v -0.320650 -0.644053 0.106590
v -0.340360 -0.642398 0.106590
v -0.340360 -0.642398 0.106590
v -0.320650 -0.644053 0.106590
v -0.339547 -0.644944 0.106590
v -0.340486 -0.639728 0.106590
v -0.320081 -0.641442 0.106590
v -0.320207 -0.638772 0.106590
v -0.320207 -0.638772 0.106590
v -0.320081 -0.641442 0.106590
v -0.340486 -0.639728 0.106590
v -0.340486 -0.639728 0.106590
v -0.320207 -0.638772 0.106590
v -0.339916 -0.637117 0.106590
v -0.339916 -0.637117 0.106590
v -0.320207 -0.638772 0.106590
v -0.340486 -0.639728 0.106590
v -0.339916 -0.637117 0.106590
v -0.321019 -0.636226 0.106590
v -0.338691 -0.634742 0.106590
v -0.338691 -0.634742 0.106590
v -0.321019 -0.636226 0.106590
v -0.339916 -0.637117 0.106590
v -0.336892 -0.632765 0.106590
v -0.322463 -0.633977 0.106590
v -0.324440 -0.632178 0.106590
v -0.324440 -0.632178 0.106590
v -0.322463 -0.633977 0.106590
v -0.336892 -0.632765 0.106590
v -0.338691 -0.634742 0.106590
v -0.322463 -0.633977 0.106590
v -0.336892 -0.632765 0.106590
v -0.336892 -0.632765 0.106590
v -0.322463 -0.633977 0.106590
v -0.338691 -0.634742 0.106590
v -0.328470 -0.650661 0.106590
v -0.333751 -0.650218 0.106590
v -0.331140 -0.650787 0.106590
v -0.331140 -0.650787 0.106590
v -0.333751 -0.650218 0.106590
v -0.328470 -0.650661 0.106590
v -0.333751 -0.650218 0.106590
v -0.328470 -0.650661 0.106590
v -0.325924 -0.649849 0.106590
v -0.325924 -0.649849 0.106590
v -0.328470 -0.650661 0.106590
v -0.333751 -0.650218 0.106590
v -0.336127 -0.648992 0.106590
v -0.325924 -0.649849 0.106590
v -0.323675 -0.648405 0.106590
v -0.323675 -0.648405 0.106590
v -0.325924 -0.649849 0.106590
v -0.336127 -0.648992 0.106590
v -0.340360 -0.642398 0.106590
v -0.320650 -0.644053 0.106590
v -0.320081 -0.641442 0.106590
v -0.320081 -0.641442 0.106590
v -0.320650 -0.644053 0.106590
v -0.340360 -0.642398 0.106590
v -0.340360 -0.642398 0.106590
v -0.320081 -0.641442 0.106590
v -0.340486 -0.639728 0.106590
v -0.340486 -0.639728 0.106590
v -0.320081 -0.641442 0.106590
v -0.340360 -0.642398 0.106590
v -0.336892 -0.632765 0.106590
v -0.324440 -0.632178 0.106590
v -0.334643 -0.631321 0.106590
v -0.334643 -0.631321 0.106590
v -0.324440 -0.632178 0.106590
v -0.336892 -0.632765 0.106590
v -0.332097 -0.630508 0.106590
v -0.326815 -0.630952 0.106590
v -0.329427 -0.630382 0.106590
v -0.329427 -0.630382 0.106590
v -0.326815 -0.630952 0.106590
v -0.332097 -0.630508 0.106590
v -0.334643 -0.631321 0.106590
v -0.326815 -0.630952 0.106590
v -0.332097 -0.630508 0.106590
v -0.332097 -0.630508 0.106590
v -0.326815 -0.630952 0.106590
v -0.334643 -0.631321 0.106590
v -0.334643 -0.631321 0.106590
v -0.324440 -0.632178 0.106590
v -0.326815 -0.630952 0.106590
v -0.326815 -0.630952 0.106590
v -0.324440 -0.632178 0.106590
v -0.334643 -0.631321 0.106590
v -0.333751 -0.650218 0.106590
v -0.325924 -0.649849 0.106590
v -0.336127 -0.648992 0.106590
v -0.336127 -0.648992 0.106590
v -0.325924 -0.649849 0.106590
v -0.333751 -0.650218 0.106590
vt 0.0004140000091865659 -0.004342999774962664
vt 0.001610000035725534 -0.004286999814212322
vt 0.00030700000934302807 -0.004176999907940626
vt 0.0101500004529953 0.02512199990451336
vt 0.01145199965685606 0.025012999773025513
vt 0.010255999863147736 0.024956999346613884
vt 0.0002800000074785203 -0.003599999938160181
vt 0.0017330000409856439 -0.0037219999358057976
vt 0.001673000049777329 -0.0035349999088793993
vt 0.011514999903738499 0.02576499991118908
vt 0.011575000360608101 0.0255769994109869
vt 0.010122999548912048 0.02569900080561638
vt 0.000371000001905486 -0.003425000002607703
vt 0.0015660000499337912 -0.003369000041857362
vt 0.011408999562263489 0.02593100070953369
vt 0.010212999768555164 0.025874000042676926
vt 0.0005600000149570405 -0.004476000089198351
vt 0.0014769999543204904 -0.00443200021982193
vt 0.01131999958306551 0.024867000058293343
vt 0.010401999577879906 0.024824000895023346
vt 0.0017000000225380063 -0.004112000111490488
vt 0.011543000116944313 0.02518800087273121
vt 0.0002479999966453761 -0.0039900001138448715
vt 0.010089999996125698 0.025310000404715538
vt 0.00023799999326001853 -0.0037930000107735395
vt 0.0017419999931007624 -0.003918999806046486
vt 0.011584999971091747 0.025381000712513924
vt 0.010080999694764614 0.02550699934363365
vt 0.0005029999883845448 -0.003280000062659383
vt 0.001420999993570149 -0.003235999960452318
vt 0.011262999847531319 0.02606300078332424
vt 0.010346000082790852 0.026019999757409096
vt 0.0011239999439567327 -0.004598999861627817
vt 0.0007350000087171793 -0.00456599984318018
vt 0.0009270000155083835 -0.004608000162988901
vt 0.010769999586045742 0.024692000821232796
vt 0.010576999746263027 0.024733999744057655
vt 0.010966000147163868 0.02470099925994873
vt 0.001310999970883131 -0.004538999870419502
vt 0.011153999716043472 0.024761000648140907
vt 0.0006689999718219042 -0.003172999946400523
vt 0.010510999709367752 0.026126999408006668
vt 0.0008570000063627958 -0.0031129999551922083
vt 0.001246000058017671 -0.003145999973639846
vt 0.0010529999854043126 -0.003103999886661768
vt 0.01089600007981062 0.02619599923491478
vt 0.011087999679148197 0.02615400031208992
vt 0.010699000209569931 0.026186000555753708
vn 0 0 1
vn 0 0 -1
usemtl material_0_0
f 1/1/1 2/2/1 3/3/1
f 4/4/2 5/5/2 6/6/2
f 7/7/1 8/8/1 9/9/1
f 10/10/2 11/11/2 12/12/2
f 13/13/1 14/9/1 15/14/1
f 16/15/2 17/10/2 18/16/2
f 19/17/1 20/18/1 21/1/1
f 22/6/2 23/19/2 24/20/2
f 25/1/1 26/18/1 27/2/1
f 28/5/2 29/19/2 30/6/2
f 31/3/1 32/2/1 33/21/1
f 34/22/2 35/5/2 36/4/2
f 37/3/1 38/21/1 39/23/1
f 40/24/2 41/22/2 42/4/2
f 43/25/1 44/26/1 45/8/1
f 46/11/2 47/27/2 48/28/2
f 49/25/1 50/8/1 51/7/1
f 52/12/2 53/11/2 54/28/2
f 55/7/1 56/9/1 57/13/1
f 58/16/2 59/10/2 60/12/2
f 61/29/1 62/14/1 63/30/1
f 64/31/2 65/15/2 66/32/2
f 67/13/1 68/14/1 69/29/1
f 70/32/2 71/15/2 72/16/2
f 73/33/1 74/34/1 75/35/1
f 76/36/2 77/37/2 78/38/2
f 79/34/1 80/33/1 81/39/1
f 82/40/2 83/38/2 84/37/2
f 85/17/1 86/39/1 87/18/1
f 88/19/2 89/40/2 90/20/2
f 91/23/1 92/21/1 93/26/1
f 94/27/2 95/22/2 96/24/2
f 97/23/1 98/26/1 99/25/1
f 100/28/2 101/27/2 102/24/2
f 103/29/1 104/30/1 105/41/1
f 106/42/2 107/31/2 108/32/2
f 109/43/1 110/44/1 111/45/1
f 112/46/2 113/47/2 114/48/2
f 115/41/1 116/44/1 117/43/1
f 118/48/2 119/47/2 120/42/2
f 121/41/1 122/30/1 123/44/1
f 124/47/2 125/31/2 126/42/2
f 127/34/1 128/39/1 129/17/1
f 130/20/2 131/40/2 132/37/2
