# SSTK version 0.8.0
# 46
mtllib original-46.mtl
o Group4/mesh3/mesh3-geometry/material_4/component_2#mesh3-geometry
v 0.394443 0.730814 -0.160505
v 0.375845 0.712789 -0.160505
v 0.394443 0.701887 -0.160505
v 0.375845 0.712789 -0.160505
v 0.316096 0.698901 -0.160505
v 0.394443 0.701887 -0.160505
v 0.316096 0.730814 -0.160505
v 0.375845 0.712789 -0.160505
v 0.394443 0.730814 -0.160505
v 0.316096 0.712789 -0.160505
v 0.375845 0.712789 -0.160505
v 0.316096 0.730814 -0.160505
v 0.394443 0.679642 -0.160505
v 0.375845 0.668723 -0.160505
v 0.394443 0.650698 -0.160505
v 0.346772 0.690804 -0.160505
v 0.316096 0.682585 -0.160505
v 0.394443 0.679642 -0.160505
v 0.394443 0.701887 -0.160505
v 0.316096 0.698901 -0.160505
v 0.346772 0.690804 -0.160505
v 0.375845 0.668723 -0.160505
v 0.316096 0.668723 -0.160505
v 0.394443 0.650698 -0.160505
v 0.316096 0.682585 -0.160505
v 0.375845 0.668723 -0.160505
v 0.394443 0.679642 -0.160505
v 0.316096 0.698901 -0.160505
v 0.316096 0.682585 -0.160505
v 0.346772 0.690804 -0.160505
v 0.316096 0.650698 -0.160505
v 0.394443 0.650698 -0.160505
v 0.316096 0.668723 -0.160505
v 0.394443 0.701887 -0.160505
v 0.375845 0.712789 -0.160505
v 0.394443 0.730814 -0.160505
v 0.394443 0.701887 -0.160505
v 0.316096 0.698901 -0.160505
v 0.375845 0.712789 -0.160505
v 0.394443 0.730814 -0.160505
v 0.375845 0.712789 -0.160505
v 0.316096 0.730814 -0.160505
v 0.316096 0.730814 -0.160505
v 0.375845 0.712789 -0.160505
v 0.316096 0.712789 -0.160505
v 0.394443 0.650698 -0.160505
v 0.375845 0.668723 -0.160505
v 0.394443 0.679642 -0.160505
v 0.394443 0.679642 -0.160505
v 0.316096 0.682585 -0.160505
v 0.346772 0.690804 -0.160505
v 0.346772 0.690804 -0.160505
v 0.316096 0.698901 -0.160505
v 0.394443 0.701887 -0.160505
v 0.394443 0.650698 -0.160505
v 0.316096 0.668723 -0.160505
v 0.375845 0.668723 -0.160505
v 0.394443 0.679642 -0.160505
v 0.375845 0.668723 -0.160505
v 0.316096 0.682585 -0.160505
v 0.346772 0.690804 -0.160505
v 0.316096 0.682585 -0.160505
v 0.316096 0.698901 -0.160505
v 0.316096 0.668723 -0.160505
v 0.394443 0.650698 -0.160505
v 0.316096 0.650698 -0.160505
vt -0.7832810282707214 1.5424909591674805
vt -0.7665690183639526 1.5262949466705322
vt -0.7832810282707214 1.5164990425109863
vt -0.7128810286521912 1.5138150453567505
vt -0.7128810286521912 1.5424909591674805
vt -0.7128810286521912 1.5262949466705322
vt -0.7832810282707214 1.4965100288391113
vt -0.7665690183639526 1.486698031425476
vt -0.7832810282707214 1.4705020189285278
vt -0.7404450178146362 1.5065399408340454
vt -0.7128810286521912 1.499155044555664
vt -0.7128810286521912 1.486698031425476
vt -0.7128810286521912 1.4705020189285278
vt 0 0
vn 0 0 1
vn 0 0 -1
usemtl material_0_0
f 1/1/1 2/2/1 3/3/1
f 4/2/1 5/4/1 6/3/1
f 7/5/1 8/2/1 9/1/1
f 10/6/1 11/2/1 12/5/1
f 13/7/1 14/8/1 15/9/1
f 16/10/1 17/11/1 18/7/1
f 19/3/1 20/4/1 21/10/1
f 22/8/1 23/12/1 24/9/1
f 25/11/1 26/8/1 27/7/1
f 28/4/1 29/11/1 30/10/1
f 31/13/1 32/9/1 33/12/1
usemtl material_1_0
f 34/14/2 35/14/2 36/14/2
f 37/14/2 38/14/2 39/14/2
f 40/14/2 41/14/2 42/14/2
f 43/14/2 44/14/2 45/14/2
f 46/14/2 47/14/2 48/14/2
f 49/14/2 50/14/2 51/14/2
f 52/14/2 53/14/2 54/14/2
f 55/14/2 56/14/2 57/14/2
f 58/14/2 59/14/2 60/14/2
f 61/14/2 62/14/2 63/14/2
f 64/14/2 65/14/2 66/14/2
