# SSTK version 0.8.0
# 44
mtllib original-44.mtl
o Group4/mesh3/mesh3-geometry/material_4/component_0#mesh3-geometry
v 0.370394 0.805197 -0.160505
v 0.364786 0.804792 -0.160505
v 0.375835 0.804825 -0.160505
v 0.375835 0.804825 -0.160505
v 0.364786 0.804792 -0.160505
v 0.380615 0.803709 -0.160505
v 0.364786 0.804792 -0.160505
v 0.359825 0.803576 -0.160505
v 0.380615 0.803709 -0.160505
v 0.380615 0.803709 -0.160505
v 0.359825 0.803576 -0.160505
v 0.384733 0.801849 -0.160505
v 0.359825 0.803576 -0.160505
v 0.355513 0.801549 -0.160505
v 0.384733 0.801849 -0.160505
v 0.384733 0.801849 -0.160505
v 0.355513 0.801549 -0.160505
v 0.388190 0.799246 -0.160505
v 0.355513 0.801549 -0.160505
v 0.351849 0.798711 -0.160505
v 0.388190 0.799246 -0.160505
v 0.345586 0.785142 -0.160505
v 0.345169 0.778913 -0.160505
v 0.363473 0.781196 -0.160505
v 0.346839 0.790519 -0.160505
v 0.345586 0.785142 -0.160505
v 0.394053 0.786943 -0.160505
v 0.394443 0.781342 -0.160505
v 0.378517 0.766864 -0.160505
v 0.394443 0.744758 -0.160505
v 0.394053 0.786943 -0.160505
v 0.375952 0.781536 -0.160505
v 0.394443 0.781342 -0.160505
v 0.388190 0.799246 -0.160505
v 0.351849 0.798711 -0.160505
v 0.390926 0.795895 -0.160505
v 0.351849 0.798711 -0.160505
v 0.348926 0.795042 -0.160505
v 0.390926 0.795895 -0.160505
v 0.345169 0.766864 -0.160505
v 0.361041 0.766864 -0.160505
v 0.345169 0.778913 -0.160505
v 0.363473 0.781196 -0.160505
v 0.345169 0.778913 -0.160505
v 0.361649 0.777674 -0.160505
v 0.366245 0.783128 -0.160505
v 0.345586 0.785142 -0.160505
v 0.363473 0.781196 -0.160505
v 0.348926 0.795042 -0.160505
v 0.346839 0.790519 -0.160505
v 0.392880 0.791794 -0.160505
v 0.345586 0.785142 -0.160505
v 0.369699 0.783771 -0.160505
v 0.394053 0.786943 -0.160505
v 0.392880 0.791794 -0.160505
v 0.346839 0.790519 -0.160505
v 0.394053 0.786943 -0.160505
v 0.378517 0.766864 -0.160505
v 0.316096 0.766864 -0.160505
v 0.394443 0.744758 -0.160505
v 0.378517 0.773131 -0.160505
v 0.378517 0.766864 -0.160505
v 0.394443 0.781342 -0.160505
v 0.375952 0.781536 -0.160505
v 0.377876 0.778318 -0.160505
v 0.394443 0.781342 -0.160505
v 0.373106 0.783212 -0.160505
v 0.375952 0.781536 -0.160505
v 0.394053 0.786943 -0.160505
v 0.390926 0.795895 -0.160505
v 0.348926 0.795042 -0.160505
v 0.392880 0.791794 -0.160505
v 0.316096 0.744758 -0.160505
v 0.394443 0.744758 -0.160505
v 0.316096 0.766864 -0.160505
v 0.345169 0.766864 -0.160505
v 0.316096 0.766864 -0.160505
v 0.378517 0.766864 -0.160505
v 0.361041 0.772257 -0.160505
v 0.345169 0.778913 -0.160505
v 0.361041 0.766864 -0.160505
v 0.361041 0.766864 -0.160505
v 0.345169 0.766864 -0.160505
v 0.378517 0.766864 -0.160505
v 0.361649 0.777674 -0.160505
v 0.345169 0.778913 -0.160505
v 0.361041 0.772257 -0.160505
v 0.369699 0.783771 -0.160505
v 0.345586 0.785142 -0.160505
v 0.366245 0.783128 -0.160505
v 0.369699 0.783771 -0.160505
v 0.373106 0.783212 -0.160505
v 0.394053 0.786943 -0.160505
v 0.377876 0.778318 -0.160505
v 0.378517 0.773131 -0.160505
v 0.394443 0.781342 -0.160505
v 0.375835 0.804825 -0.160505
v 0.364786 0.804792 -0.160505
v 0.370394 0.805197 -0.160505
v 0.380615 0.803709 -0.160505
v 0.364786 0.804792 -0.160505
v 0.375835 0.804825 -0.160505
v 0.380615 0.803709 -0.160505
v 0.359825 0.803576 -0.160505
v 0.364786 0.804792 -0.160505
v 0.384733 0.801849 -0.160505
v 0.359825 0.803576 -0.160505
v 0.380615 0.803709 -0.160505
v 0.384733 0.801849 -0.160505
v 0.355513 0.801549 -0.160505
v 0.359825 0.803576 -0.160505
v 0.388190 0.799246 -0.160505
v 0.355513 0.801549 -0.160505
v 0.384733 0.801849 -0.160505
v 0.388190 0.799246 -0.160505
v 0.351849 0.798711 -0.160505
v 0.355513 0.801549 -0.160505
v 0.363473 0.781196 -0.160505
v 0.345169 0.778913 -0.160505
v 0.345586 0.785142 -0.160505
v 0.394053 0.786943 -0.160505
v 0.345586 0.785142 -0.160505
v 0.346839 0.790519 -0.160505
v 0.394443 0.744758 -0.160505
v 0.378517 0.766864 -0.160505
v 0.394443 0.781342 -0.160505
v 0.394443 0.781342 -0.160505
v 0.375952 0.781536 -0.160505
v 0.394053 0.786943 -0.160505
v 0.390926 0.795895 -0.160505
v 0.351849 0.798711 -0.160505
v 0.388190 0.799246 -0.160505
v 0.390926 0.795895 -0.160505
v 0.348926 0.795042 -0.160505
v 0.351849 0.798711 -0.160505
v 0.345169 0.778913 -0.160505
v 0.361041 0.766864 -0.160505
v 0.345169 0.766864 -0.160505
v 0.361649 0.777674 -0.160505
v 0.345169 0.778913 -0.160505
v 0.363473 0.781196 -0.160505
v 0.363473 0.781196 -0.160505
v 0.345586 0.785142 -0.160505
v 0.366245 0.783128 -0.160505
v 0.392880 0.791794 -0.160505
v 0.346839 0.790519 -0.160505
v 0.348926 0.795042 -0.160505
v 0.394053 0.786943 -0.160505
v 0.369699 0.783771 -0.160505
v 0.345586 0.785142 -0.160505
v 0.394053 0.786943 -0.160505
v 0.346839 0.790519 -0.160505
v 0.392880 0.791794 -0.160505
v 0.394443 0.744758 -0.160505
v 0.316096 0.766864 -0.160505
v 0.378517 0.766864 -0.160505
v 0.394443 0.781342 -0.160505
v 0.378517 0.766864 -0.160505
v 0.378517 0.773131 -0.160505
v 0.394443 0.781342 -0.160505
v 0.377876 0.778318 -0.160505
v 0.375952 0.781536 -0.160505
v 0.394053 0.786943 -0.160505
v 0.375952 0.781536 -0.160505
v 0.373106 0.783212 -0.160505
v 0.392880 0.791794 -0.160505
v 0.348926 0.795042 -0.160505
v 0.390926 0.795895 -0.160505
v 0.316096 0.766864 -0.160505
v 0.394443 0.744758 -0.160505
v 0.316096 0.744758 -0.160505
v 0.378517 0.766864 -0.160505
v 0.316096 0.766864 -0.160505
v 0.345169 0.766864 -0.160505
v 0.361041 0.766864 -0.160505
v 0.345169 0.778913 -0.160505
v 0.361041 0.772257 -0.160505
v 0.378517 0.766864 -0.160505
v 0.345169 0.766864 -0.160505
v 0.361041 0.766864 -0.160505
v 0.361041 0.772257 -0.160505
v 0.345169 0.778913 -0.160505
v 0.361649 0.777674 -0.160505
v 0.366245 0.783128 -0.160505
v 0.345586 0.785142 -0.160505
v 0.369699 0.783771 -0.160505
v 0.394053 0.786943 -0.160505
v 0.373106 0.783212 -0.160505
v 0.369699 0.783771 -0.160505
v 0.394443 0.781342 -0.160505
v 0.378517 0.773131 -0.160505
v 0.377876 0.778318 -0.160505
vt -0.7616710066795349 1.6093289852142334
vt -0.7566310167312622 1.608963966369629
vt -0.7665600180625916 1.6089940071105957
vt -0.7708550095558167 1.6079920530319214
vt -0.7521740198135376 1.6078720092773438
vt -0.7745559811592102 1.6063209772109985
vt -0.7483000159263611 1.6060500144958496
vt -0.7776619791984558 1.6039810180664062
vt -0.7450069785118103 1.6035009622573853
vt -0.7393800020217896 1.5913079977035522
vt -0.7390040159225464 1.5857110023498535
vt -0.7554519772529602 1.5877629518508911
vt -0.7405049800872803 1.5961389541625977
vt -0.782929003238678 1.592926025390625
vt -0.7832810282707214 1.5878939628601074
vt -0.7689700126647949 1.574884057044983
vt -0.7832810282707214 1.5550199747085571
vt -0.766664981842041 1.5880680084228516
vt -0.7801200151443481 1.6009700298309326
vt -0.7423809766769409 1.600203037261963
vt -0.7390040159225464 1.574884057044983
vt -0.7532669901847839 1.574884057044983
vt -0.7538130283355713 1.5845969915390015
vt -0.7579429745674133 1.5894980430603027
vt -0.7818760275840759 1.5972850322723389
vt -0.7610459923744202 1.590075969696045
vt -0.7128810286521912 1.574884057044983
vt -0.7689700126647949 1.58051598072052
vt -0.7683939933776855 1.5851759910583496
vt -0.7641080021858215 1.5895739793777466
vt -0.7128810286521912 1.5550199747085571
vt -0.7532669901847839 1.5797300338745117
vt 0 0
vn 0 0 1
vn 0 0 -1
usemtl material_0_0
f 1/1/1 2/2/1 3/3/1
f 4/3/1 5/2/1 6/4/1
f 7/2/1 8/5/1 9/4/1
f 10/4/1 11/5/1 12/6/1
f 13/5/1 14/7/1 15/6/1
f 16/6/1 17/7/1 18/8/1
f 19/7/1 20/9/1 21/8/1
f 22/10/1 23/11/1 24/12/1
f 25/13/1 26/10/1 27/14/1
f 28/15/1 29/16/1 30/17/1
f 31/14/1 32/18/1 33/15/1
f 34/8/1 35/9/1 36/19/1
f 37/9/1 38/20/1 39/19/1
f 40/21/1 41/22/1 42/11/1
f 43/12/1 44/11/1 45/23/1
f 46/24/1 47/10/1 48/12/1
f 49/20/1 50/13/1 51/25/1
f 52/10/1 53/26/1 54/14/1
f 55/25/1 56/13/1 57/14/1
f 58/16/1 59/27/1 60/17/1
f 61/28/1 62/16/1 63/15/1
f 64/18/1 65/29/1 66/15/1
f 67/30/1 68/18/1 69/14/1
f 70/19/1 71/20/1 72/25/1
f 73/31/1 74/17/1 75/27/1
f 76/21/1 77/27/1 78/16/1
f 79/32/1 80/11/1 81/22/1
f 82/22/1 83/21/1 84/16/1
f 85/23/1 86/11/1 87/32/1
f 88/26/1 89/10/1 90/24/1
f 91/26/1 92/30/1 93/14/1
f 94/29/1 95/28/1 96/15/1
usemtl material_1_0
f 97/33/2 98/33/2 99/33/2
f 100/33/2 101/33/2 102/33/2
f 103/33/2 104/33/2 105/33/2
f 106/33/2 107/33/2 108/33/2
f 109/33/2 110/33/2 111/33/2
f 112/33/2 113/33/2 114/33/2
f 115/33/2 116/33/2 117/33/2
f 118/33/2 119/33/2 120/33/2
f 121/33/2 122/33/2 123/33/2
f 124/33/2 125/33/2 126/33/2
f 127/33/2 128/33/2 129/33/2
f 130/33/2 131/33/2 132/33/2
f 133/33/2 134/33/2 135/33/2
f 136/33/2 137/33/2 138/33/2
f 139/33/2 140/33/2 141/33/2
f 142/33/2 143/33/2 144/33/2
f 145/33/2 146/33/2 147/33/2
f 148/33/2 149/33/2 150/33/2
f 151/33/2 152/33/2 153/33/2
f 154/33/2 155/33/2 156/33/2
f 157/33/2 158/33/2 159/33/2
f 160/33/2 161/33/2 162/33/2
f 163/33/2 164/33/2 165/33/2
f 166/33/2 167/33/2 168/33/2
f 169/33/2 170/33/2 171/33/2
f 172/33/2 173/33/2 174/33/2
f 175/33/2 176/33/2 177/33/2
f 178/33/2 179/33/2 180/33/2
f 181/33/2 182/33/2 183/33/2
f 184/33/2 185/33/2 186/33/2
f 187/33/2 188/33/2 189/33/2
f 190/33/2 191/33/2 192/33/2
