# SSTK version 0.8.0
# 7
mtllib original-7.mtl
o mesh2/mesh2-geometry/material_2/component_0#mesh2-geometry
v -0.443935 0.800818 0.057098
v -0.384895 0.878351 0.039816
v -0.445494 0.798770 0.048532
v -0.445494 0.798770 0.048532
v -0.384895 0.878351 0.039816
v -0.443935 0.800818 0.057098
v -0.445494 0.798770 0.048532
v -0.384895 0.878351 0.039816
v -0.446017 0.798083 0.039816
v -0.446017 0.798083 0.039816
v -0.384895 0.878351 0.039816
v -0.445494 0.798770 0.048532
v -0.441365 0.804193 0.065369
v -0.384895 0.878351 0.039816
v -0.443935 0.800818 0.057098
v -0.443935 0.800818 0.057098
v -0.384895 0.878351 0.039816
v -0.441365 0.804193 0.065369
v -0.437828 0.808837 0.073203
v -0.384895 0.878351 0.039816
v -0.441365 0.804193 0.065369
v -0.441365 0.804193 0.065369
v -0.384895 0.878351 0.039816
v -0.437828 0.808837 0.073203
v -0.433387 0.814670 0.080465
v -0.384895 0.878351 0.039816
v -0.437828 0.808837 0.073203
v -0.437828 0.808837 0.073203
v -0.384895 0.878351 0.039816
v -0.433387 0.814670 0.080465
v -0.428115 0.821593 0.087032
v -0.384895 0.878351 0.039816
v -0.433387 0.814670 0.080465
v -0.433387 0.814670 0.080465
v -0.384895 0.878351 0.039816
v -0.428115 0.821593 0.087032
v -0.422104 0.829487 0.092791
v -0.384895 0.878351 0.039816
v -0.428115 0.821593 0.087032
v -0.428115 0.821593 0.087032
v -0.384895 0.878351 0.039816
v -0.422104 0.829487 0.092791
v -0.415456 0.838217 0.097644
v -0.384895 0.878351 0.039816
v -0.422104 0.829487 0.092791
v -0.422104 0.829487 0.092791
v -0.384895 0.878351 0.039816
v -0.415456 0.838217 0.097644
v -0.408286 0.847634 0.101507
v -0.384895 0.878351 0.039816
v -0.415456 0.838217 0.097644
v -0.415456 0.838217 0.097644
v -0.384895 0.878351 0.039816
v -0.408286 0.847634 0.101507
v -0.384895 0.878351 0.039816
v -0.392873 0.867874 0.106018
v -0.384895 0.878351 0.106590
v -0.384895 0.878351 0.106590
v -0.392873 0.867874 0.106018
v -0.384895 0.878351 0.039816
v -0.400715 0.857576 0.104315
v -0.384895 0.878351 0.039816
v -0.408286 0.847634 0.101507
v -0.408286 0.847634 0.101507
v -0.384895 0.878351 0.039816
v -0.400715 0.857576 0.104315
v -0.392873 0.867874 0.106018
v -0.384895 0.878351 0.039816
v -0.400715 0.857576 0.104315
v -0.400715 0.857576 0.104315
v -0.384895 0.878351 0.039816
v -0.392873 0.867874 0.106018
vt -0.003648000070825219 0.0769760012626648
vt -0.004920999985188246 0.08415800333023071
vt -0.004279000218957663 0.07678599655628204
vt -0.004279000218957663 0.10605999827384949
vt -0.004920999985188246 0.11343199759721756
vt -0.003648000070825219 0.10625000298023224
vt -0.004920999985188246 0.07672300189733505
vt -0.004920999985188246 0.10599599778652191
vt -0.0030380000825971365 0.07728900015354156
vt -0.0030380000825971365 0.10656200349330902
vt -0.0024610001128166914 0.07771900296211243
vt -0.0024610001128166914 0.10699199885129929
vt -0.0019249999895691872 0.07825899869203568
vt -0.0019249999895691872 0.10753300040960312
vt -0.0014410000294446945 0.07890000194311142
vt -0.0014410000294446945 0.10817400366067886
vt -0.001016999944113195 0.0796319991350174
vt -0.001016999944113195 0.10890500247478485
vt -0.0006590000120922923 0.08043999969959259
vt -0.0006590000120922923 0.10971400141716003
vt -0.000375000003259629 0.08131299912929535
vt -0.000375000003259629 0.1105860024690628
vt -0.00004199999966658652 0.083187997341156
vt 0 0.08415800333023071
vt 0 0.11343199759721756
vt -0.00004199999966658652 0.11246100068092346
vt -0.00016799999866634607 0.08223400264978409
vt -0.00016799999866634607 0.11150699853897095
vn -0.7955992914417279 0.6058232146900784 0
vn 0.7955992914417279 -0.6058232146900784 0
usemtl material_0_0
f 1/1/1 2/2/1 3/3/1
f 4/4/2 5/5/2 6/6/2
f 7/3/1 8/2/1 9/7/1
f 10/8/2 11/5/2 12/4/2
f 13/9/1 14/2/1 15/1/1
f 16/6/2 17/5/2 18/10/2
f 19/11/1 20/2/1 21/9/1
f 22/10/2 23/5/2 24/12/2
f 25/13/1 26/2/1 27/11/1
f 28/12/2 29/5/2 30/14/2
f 31/15/1 32/2/1 33/13/1
f 34/14/2 35/5/2 36/16/2
f 37/17/1 38/2/1 39/15/1
f 40/16/2 41/5/2 42/18/2
f 43/19/1 44/2/1 45/17/1
f 46/18/2 47/5/2 48/20/2
f 49/21/1 50/2/1 51/19/1
f 52/20/2 53/5/2 54/22/2
f 55/2/1 56/23/1 57/24/1
f 58/25/2 59/26/2 60/5/2
f 61/27/1 62/2/1 63/21/1
f 64/22/2 65/5/2 66/28/2
f 67/23/1 68/2/1 69/27/1
f 70/28/2 71/5/2 72/26/2
