# SSTK version 0.8.0
# 38
mtllib original-38.mtl
o Group4/mesh3/mesh3-geometry/material_1/component_2#mesh3-geometry
v 0.363473 0.781196 -0.160505
v 0.361649 0.777674 -0.160505
v 0.377876 0.778318 -0.160505
v 0.366245 0.783128 -0.160505
v 0.363473 0.781196 -0.160505
v 0.375952 0.781536 -0.160505
v 0.378517 0.773131 -0.160505
v 0.361041 0.772257 -0.160505
v 0.378517 0.766864 -0.160505
v 0.375952 0.781536 -0.160505
v 0.363473 0.781196 -0.160505
v 0.377876 0.778318 -0.160505
v 0.373106 0.783212 -0.160505
v 0.366245 0.783128 -0.160505
v 0.375952 0.781536 -0.160505
v 0.361041 0.766864 -0.160505
v 0.378517 0.766864 -0.160505
v 0.361041 0.772257 -0.160505
v 0.361649 0.777674 -0.160505
v 0.361041 0.772257 -0.160505
v 0.378517 0.773131 -0.160505
v 0.377876 0.778318 -0.160505
v 0.361649 0.777674 -0.160505
v 0.378517 0.773131 -0.160505
v 0.369699 0.783771 -0.160505
v 0.366245 0.783128 -0.160505
v 0.373106 0.783212 -0.160505
v 0.377876 0.778318 -0.160505
v 0.361649 0.777674 -0.160505
v 0.363473 0.781196 -0.160505
v 0.375952 0.781536 -0.160505
v 0.363473 0.781196 -0.160505
v 0.366245 0.783128 -0.160505
v 0.378517 0.766864 -0.160505
v 0.361041 0.772257 -0.160505
v 0.378517 0.773131 -0.160505
v 0.377876 0.778318 -0.160505
v 0.363473 0.781196 -0.160505
v 0.375952 0.781536 -0.160505
v 0.375952 0.781536 -0.160505
v 0.366245 0.783128 -0.160505
v 0.373106 0.783212 -0.160505
v 0.361041 0.772257 -0.160505
v 0.378517 0.766864 -0.160505
v 0.361041 0.766864 -0.160505
v 0.378517 0.773131 -0.160505
v 0.361041 0.772257 -0.160505
v 0.361649 0.777674 -0.160505
v 0.378517 0.773131 -0.160505
v 0.361649 0.777674 -0.160505
v 0.377876 0.778318 -0.160505
v 0.373106 0.783212 -0.160505
v 0.366245 0.783128 -0.160505
v 0.369699 0.783771 -0.160505
vt -0.7554519772529602 1.5877629518508911
vt -0.7538130283355713 1.5845969915390015
vt -0.7683939933776855 1.5851759910583496
vt -0.7579429745674133 1.5894980430603027
vt -0.766664981842041 1.5880680084228516
vt -0.7689700126647949 1.58051598072052
vt -0.7532669901847839 1.5797300338745117
vt -0.7689700126647949 1.574884057044983
vt -0.7641080021858215 1.5895739793777466
vt -0.7532669901847839 1.574884057044983
vt -0.7610459923744202 1.590075969696045
vn 0 0 1
vn 0 0 -1
usemtl material_0_0
f 1/1/1 2/2/1 3/3/1
f 4/4/1 5/1/1 6/5/1
f 7/6/1 8/7/1 9/8/1
f 10/5/1 11/1/1 12/3/1
f 13/9/1 14/4/1 15/5/1
f 16/10/1 17/8/1 18/7/1
f 19/2/1 20/7/1 21/6/1
f 22/3/1 23/2/1 24/6/1
f 25/11/1 26/4/1 27/9/1
usemtl material_1_0
f 28/3/2 29/2/2 30/1/2
f 31/5/2 32/1/2 33/4/2
f 34/8/2 35/7/2 36/6/2
f 37/3/2 38/1/2 39/5/2
f 40/5/2 41/4/2 42/9/2
f 43/7/2 44/8/2 45/10/2
f 46/6/2 47/7/2 48/2/2
f 49/6/2 50/2/2 51/3/2
f 52/9/2 53/4/2 54/11/2
