# SSTK version 0.8.0
# 94
mtllib original-94.mtl
o #ID403
v 0.228223 0.059803 0.088355
v 0.230304 0.059803 0.087795
v 0.229822 0.060178 0.088015
v 0.229822 0.060178 0.088015
v 0.230304 0.059803 0.087795
v 0.228223 0.059803 0.088355
v 0.229318 0.060556 0.088168
v 0.229318 0.060556 0.088168
v 0.230304 0.061348 0.087795
v 0.230304 0.061348 0.087795
vn 0.22805576994735371 -0.13273545114515714 0.9645578602670818
vn 0.337638966306042 -0.11582123298610283 0.9341227812345476
vn 0.31611371661163884 -0.08285446826343934 0.945096426434234
vn 0.2252655146607815 0.04961654575185141 0.9730332195214446
vn 0.350928362126759 0.04294983421388238 0.9354168035672819
vn -0.31611371661163884 0.08285446826343934 -0.945096426434234
vn -0.337638966306042 0.11582123298610283 -0.9341227812345476
vn -0.22805576994735371 0.13273545114515714 -0.9645578602670818
vn -0.2252655146607815 -0.04961654575185141 -0.9730332195214446
vn -0.350928362126759 -0.04294983421388238 -0.9354168035672819
usemtl material_0_0
f 1//1 2//2 3//3
f 1//1 3//3 7//4
f 3//3 2//2 9//5
f 7//4 3//3 9//5
usemtl material_1_0
f 4//6 5//7 6//8
f 8//9 4//6 6//8
f 10//10 5//7 4//6
f 10//10 4//6 8//9
