# SSTK version 0.8.0
# 139
mtllib original-139.mtl
o #ID612
v 0.104485 0.069826 0.454911
v 0.111882 0.069826 0.461143
v 0.106814 0.069826 0.465080
v 0.130254 0.069826 0.436899
v 0.105832 0.069826 0.453865
v 0.122573 0.069826 0.431773
v 0.141726 0.069826 0.408726
v 0.133027 0.069826 0.406101
v 0.136525 0.069826 0.386009
v 0.135302 0.069826 0.387982
v 0.135302 0.069826 0.387982
v 0.133027 0.069826 0.406101
v 0.136525 0.069826 0.386009
v 0.141726 0.069826 0.408726
v 0.122573 0.069826 0.431773
v 0.130254 0.069826 0.436899
v 0.105832 0.069826 0.453865
v 0.104485 0.069826 0.454911
v 0.111882 0.069826 0.461143
v 0.106814 0.069826 0.465080
v 0.101612 0.069826 0.442363
v 0.101612 0.069826 0.442363
vn 0 -1 0
vn 0 1 0
usemtl material_0_0
f 1//1 2//1 3//1
f 2//1 1//1 4//1
f 4//1 1//1 5//1
f 4//1 5//1 6//1
f 4//1 6//1 7//1
f 7//1 6//1 8//1
f 7//1 8//1 9//1
f 9//1 8//1 10//1
f 21//1 5//1 1//1
f 5//1 21//1 6//1
f 6//1 21//1 10//1
f 6//1 10//1 8//1
usemtl material_1_0
f 11//2 12//2 13//2
f 13//2 12//2 14//2
f 12//2 15//2 14//2
f 14//2 15//2 16//2
f 15//2 17//2 16//2
f 17//2 18//2 16//2
f 16//2 18//2 19//2
f 20//2 19//2 18//2
f 12//2 11//2 15//2
f 11//2 22//2 15//2
f 15//2 22//2 17//2
f 18//2 17//2 22//2
