# SSTK version 0.8.0
# 150
mtllib original-150.mtl
o #ID675
v 0.084132 -0.015255 0.037298
v 0.069143 -0.061652 0.037388
v 0.084132 -0.076425 0.037298
v -0.018015 -0.015255 0.037912
v 0.069143 -0.076425 0.037388
v -0.018015 -0.061652 0.037912
v -0.018015 -0.061652 0.037912
v -0.018015 -0.015255 0.037912
v 0.069143 -0.061652 0.037388
v 0.069143 -0.076425 0.037388
v 0.084132 -0.076425 0.037298
v 0.084132 -0.015255 0.037298
v -0.025230 -0.015255 0.037482
v -0.018015 -0.061652 0.037912
v -0.018015 -0.015255 0.037912
v -0.025230 -0.061652 0.037482
v -0.025230 -0.061652 0.037482
v -0.025230 -0.015255 0.037482
v -0.018015 -0.061652 0.037912
v -0.018015 -0.015255 0.037912
v -0.018015 -0.061652 0.037912
v 0.069082 -0.061652 0.027086
v 0.069143 -0.061652 0.037388
v -0.025230 -0.061652 0.037482
v -0.032328 -0.061652 0.036114
v -0.039186 -0.061652 0.033832
v -0.045687 -0.061652 0.030675
v -0.051721 -0.061652 0.026695
v 0.083800 -0.061652 -0.017958
v 0.084070 -0.061652 0.026996
v -0.057184 -0.061652 0.021962
v -0.061982 -0.061652 0.016556
v -0.066034 -0.061652 0.010571
v -0.069270 -0.061652 0.004107
v -0.071634 -0.061652 -0.002723
v -0.073087 -0.061652 -0.009803
v -0.073603 -0.061652 -0.017013
v 0.079533 -0.061652 -0.025942
v -0.073935 -0.061652 -0.072269
v 0.074533 -0.061652 -0.033487
v 0.068843 -0.061652 -0.040528
v 0.062514 -0.061652 -0.047001
v 0.055604 -0.061652 -0.052848
v 0.048173 -0.061652 -0.058017
v 0.040287 -0.061652 -0.062463
v 0.032018 -0.061652 -0.066145
v 0.023438 -0.061652 -0.069031
v 0.014624 -0.061652 -0.071096
v 0.005655 -0.061652 -0.072320
v -0.003390 -0.061652 -0.072693
v -0.003390 -0.061652 -0.072693
v -0.073935 -0.061652 -0.072269
v 0.005655 -0.061652 -0.072320
v 0.014624 -0.061652 -0.071096
v 0.023438 -0.061652 -0.069031
v 0.032018 -0.061652 -0.066145
v 0.040287 -0.061652 -0.062463
v 0.048173 -0.061652 -0.058017
v 0.055604 -0.061652 -0.052848
v 0.062514 -0.061652 -0.047001
v 0.068843 -0.061652 -0.040528
v 0.074533 -0.061652 -0.033487
v 0.079533 -0.061652 -0.025942
v -0.073603 -0.061652 -0.017013
v 0.083800 -0.061652 -0.017958
v -0.073087 -0.061652 -0.009803
v -0.071634 -0.061652 -0.002723
v -0.069270 -0.061652 0.004107
v -0.066034 -0.061652 0.010571
v -0.061982 -0.061652 0.016556
v -0.057184 -0.061652 0.021962
v -0.051721 -0.061652 0.026695
v 0.069082 -0.061652 0.027086
v 0.084070 -0.061652 0.026996
v -0.045687 -0.061652 0.030675
v -0.039186 -0.061652 0.033832
v -0.032328 -0.061652 0.036114
v -0.025230 -0.061652 0.037482
v -0.018015 -0.061652 0.037912
v 0.069143 -0.061652 0.037388
v 0.069143 -0.061652 0.037388
v 0.069082 -0.076425 0.027086
v 0.069143 -0.076425 0.037388
v 0.069082 -0.068366 0.027086
v 0.069082 -0.061652 0.027086
v 0.069082 -0.061652 0.027086
v 0.069143 -0.061652 0.037388
v 0.069082 -0.068366 0.027086
v 0.069082 -0.076425 0.027086
v 0.069143 -0.076425 0.037388
v 0.083800 -0.015255 -0.017958
v 0.084070 -0.061652 0.026996
v 0.083800 -0.061652 -0.017958
v 0.084070 -0.068366 0.026996
v 0.084132 -0.076425 0.037298
v 0.084070 -0.076425 0.026996
v 0.084132 -0.015255 0.037298
v 0.083800 -0.015255 -0.017958
v 0.084070 -0.061652 0.026996
v 0.084132 -0.015255 0.037298
v 0.084070 -0.068366 0.026996
v 0.084132 -0.076425 0.037298
v 0.084070 -0.076425 0.026996
v 0.083800 -0.061652 -0.017958
v 0.083800 -0.015255 -0.017958
v -0.018015 -0.015255 0.037912
v 0.084132 -0.015255 0.037298
v -0.025230 -0.015255 0.037482
v -0.032328 -0.015255 0.036114
v -0.039186 -0.015255 0.033832
v -0.045687 -0.015255 0.030675
v -0.051721 -0.015255 0.026695
v -0.057184 -0.015255 0.021962
v -0.061982 -0.015255 0.016556
v -0.066034 -0.015255 0.010571
v -0.069270 -0.015255 0.004107
v -0.071634 -0.015255 -0.002723
v -0.073087 -0.015255 -0.009803
v -0.073603 -0.015255 -0.017013
v 0.079533 -0.015255 -0.025942
v -0.073935 -0.015255 -0.072269
v 0.074533 -0.015255 -0.033487
v 0.068843 -0.015255 -0.040528
v 0.062514 -0.015255 -0.047001
v 0.055604 -0.015255 -0.052848
v 0.048173 -0.015255 -0.058017
v 0.040287 -0.015255 -0.062463
v 0.032018 -0.015255 -0.066145
v 0.023438 -0.015255 -0.069031
v 0.014624 -0.015255 -0.071096
v 0.005655 -0.015255 -0.072320
v -0.003390 -0.015255 -0.072693
v -0.003390 -0.015255 -0.072693
v 0.005655 -0.015255 -0.072320
v -0.073935 -0.015255 -0.072269
v 0.014624 -0.015255 -0.071096
v 0.023438 -0.015255 -0.069031
v 0.032018 -0.015255 -0.066145
v 0.040287 -0.015255 -0.062463
v 0.048173 -0.015255 -0.058017
v 0.055604 -0.015255 -0.052848
v 0.062514 -0.015255 -0.047001
v 0.068843 -0.015255 -0.040528
v 0.074533 -0.015255 -0.033487
v 0.079533 -0.015255 -0.025942
v -0.073603 -0.015255 -0.017013
v 0.083800 -0.015255 -0.017958
v -0.073087 -0.015255 -0.009803
v -0.071634 -0.015255 -0.002723
v -0.069270 -0.015255 0.004107
v -0.066034 -0.015255 0.010571
v -0.061982 -0.015255 0.016556
v -0.057184 -0.015255 0.021962
v -0.051721 -0.015255 0.026695
v -0.045687 -0.015255 0.030675
v -0.039186 -0.015255 0.033832
v -0.032328 -0.015255 0.036114
v -0.025230 -0.015255 0.037482
v -0.018015 -0.015255 0.037912
v 0.084132 -0.015255 0.037298
v -0.032328 -0.015255 0.036114
v -0.032328 -0.061652 0.036114
v -0.032328 -0.061652 0.036114
v -0.032328 -0.015255 0.036114
v -0.039186 -0.015255 0.033832
v -0.039186 -0.061652 0.033832
v -0.039186 -0.061652 0.033832
v -0.039186 -0.015255 0.033832
v -0.045687 -0.015255 0.030675
v -0.045687 -0.061652 0.030675
v -0.045687 -0.061652 0.030675
v -0.045687 -0.015255 0.030675
v -0.051721 -0.015255 0.026695
v -0.051721 -0.061652 0.026695
v -0.051721 -0.061652 0.026695
v -0.051721 -0.015255 0.026695
v -0.057184 -0.015255 0.021962
v -0.057184 -0.061652 0.021962
v -0.057184 -0.061652 0.021962
v -0.057184 -0.015255 0.021962
v -0.061982 -0.061652 0.016556
v -0.061982 -0.015255 0.016556
v -0.061982 -0.015255 0.016556
v -0.061982 -0.061652 0.016556
v -0.066034 -0.061652 0.010571
v -0.066034 -0.015255 0.010571
v -0.066034 -0.015255 0.010571
v -0.066034 -0.061652 0.010571
v -0.069270 -0.061652 0.004107
v -0.069270 -0.015255 0.004107
v -0.069270 -0.015255 0.004107
v -0.069270 -0.061652 0.004107
v -0.071634 -0.061652 -0.002723
v -0.071634 -0.015255 -0.002723
v -0.071634 -0.015255 -0.002723
v -0.071634 -0.061652 -0.002723
v -0.073087 -0.061652 -0.009803
v -0.073087 -0.015255 -0.009803
v -0.073087 -0.015255 -0.009803
v -0.073087 -0.061652 -0.009803
v -0.073603 -0.061652 -0.017013
v -0.073603 -0.015255 -0.017013
v -0.073603 -0.015255 -0.017013
v -0.073603 -0.061652 -0.017013
v -0.073603 -0.061652 -0.017013
v -0.073935 -0.015255 -0.072269
v -0.073935 -0.061652 -0.072269
v -0.073603 -0.015255 -0.017013
v -0.073603 -0.015255 -0.017013
v -0.073603 -0.061652 -0.017013
v -0.073935 -0.015255 -0.072269
v -0.073935 -0.061652 -0.072269
v -0.003390 -0.061652 -0.072693
v -0.073935 -0.015255 -0.072269
v -0.003390 -0.015255 -0.072693
v -0.073935 -0.061652 -0.072269
v -0.073935 -0.061652 -0.072269
v -0.003390 -0.061652 -0.072693
v -0.073935 -0.015255 -0.072269
v -0.003390 -0.015255 -0.072693
v 0.005655 -0.061652 -0.072320
v -0.003390 -0.015255 -0.072693
v 0.005655 -0.015255 -0.072320
v -0.003390 -0.061652 -0.072693
v -0.003390 -0.061652 -0.072693
v 0.005655 -0.061652 -0.072320
v -0.003390 -0.015255 -0.072693
v 0.005655 -0.015255 -0.072320
v 0.014624 -0.061652 -0.071096
v 0.014624 -0.015255 -0.071096
v 0.014624 -0.061652 -0.071096
v 0.014624 -0.015255 -0.071096
v 0.023438 -0.061652 -0.069031
v 0.023438 -0.015255 -0.069031
v 0.023438 -0.061652 -0.069031
v 0.023438 -0.015255 -0.069031
v 0.032018 -0.061652 -0.066145
v 0.032018 -0.015255 -0.066145
v 0.032018 -0.061652 -0.066145
v 0.032018 -0.015255 -0.066145
v 0.040287 -0.061652 -0.062463
v 0.040287 -0.015255 -0.062463
v 0.040287 -0.061652 -0.062463
v 0.040287 -0.015255 -0.062463
v 0.048173 -0.061652 -0.058017
v 0.048173 -0.015255 -0.058017
v 0.048173 -0.061652 -0.058017
v 0.048173 -0.015255 -0.058017
v 0.055604 -0.061652 -0.052848
v 0.055604 -0.015255 -0.052848
v 0.055604 -0.061652 -0.052848
v 0.055604 -0.015255 -0.052848
v 0.062514 -0.061652 -0.047001
v 0.062514 -0.015255 -0.047001
v 0.062514 -0.061652 -0.047001
v 0.062514 -0.015255 -0.047001
v 0.068843 -0.061652 -0.040528
v 0.068843 -0.015255 -0.040528
v 0.068843 -0.015255 -0.040528
v 0.068843 -0.061652 -0.040528
v 0.074533 -0.015255 -0.033487
v 0.074533 -0.061652 -0.033487
v 0.074533 -0.015255 -0.033487
v 0.074533 -0.061652 -0.033487
v 0.079533 -0.061652 -0.025942
v 0.079533 -0.015255 -0.025942
v 0.079533 -0.015255 -0.025942
v 0.079533 -0.061652 -0.025942
v 0.083800 -0.015255 -0.017958
v 0.083800 -0.061652 -0.017958
v 0.083800 -0.015255 -0.017958
v 0.083800 -0.061652 -0.017958
vn 0.006006100171284289 0 0.9999819632177036
vn -0.12456912344664416 0 0.992210931951334
vn -0.059408711202374426 0 0.9982337426841837
vn 0 -1 0
vn -0.9999819632177035 0 0.006006100171292565
vn 0.9999819632177036 0 -0.006006100171285563
vn 0 1 0
vn -0.253012894003535 0 0.9674629065075084
vn -0.377127600798146 0 0.9261613103105928
vn -0.49478954792718316 0 0.8690128326221734
vn -0.6039854904846396 0 0.796995311958627
vn -0.7028470730958535 0 0.7113409814150962
vn -0.7896827476980863 0 0.6135154097396417
vn -0.8630067324311755 0 0.5051924185678811
vn -0.9215644404469864 0 0.3882254269153848
vn -0.9643539207117903 0 0.2646157886593277
vn -0.9906430251486086 0 0.13647855774594514
vn -0.9974481071654103 0 0.07139519250019663
vn -0.9999819632177036 0 0.006006100171285432
vn -0.0060061001712873536 0 -0.9999819632177035
vn 0.08830988681343437 0 -0.9960930498156276
vn 0.041197809671712264 0 -0.9991510098469868
vn 0.18183901789699777 0 -0.983328313214999
vn 0.2737477653896289 0 -0.9618015184767515
vn 0.3632173462702182 0 -0.9317044377743516
vn 0.4494503130685402 0 -0.8933053319456854
vn 0.5316785201907926 0 -0.8469462504596906
vn 0.6091690669578177 0 -0.7930403822389764
vn 0.6812315122622727 0 -0.7320680478622578
vn 0.747223795457434 0 -0.6645724937899453
vn 0.806557890077793 0 -0.5911551149683631
vn 0.8587049427078817 0 -0.5124703126709426
vn 0.8819356111256805 0 -0.4713698949109628
vn -0.006006100171284289 0 -0.9999819632177036
vn 0.12456912344664416 0 -0.992210931951334
vn 0.059408711202374426 0 -0.9982337426841837
vn 0.9999819632177035 0 -0.006006100171292565
vn -0.9999819632177036 0 0.006006100171285563
vn 0.253012894003535 0 -0.9674629065075084
vn 0.377127600798146 0 -0.9261613103105928
vn 0.49478954792718316 0 -0.8690128326221734
vn 0.6039854904846396 0 -0.796995311958627
vn 0.7028470730958535 0 -0.7113409814150962
vn 0.7896827476980863 0 -0.6135154097396417
vn 0.8630067324311755 0 -0.5051924185678811
vn 0.9215644404469864 0 -0.3882254269153848
vn 0.9643539207117903 0 -0.2646157886593277
vn 0.9906430251486086 0 -0.13647855774594514
vn 0.9974481071654103 0 -0.07139519250019663
vn 0.9999819632177036 0 -0.006006100171285432
vn 0.0060061001712873536 0 0.9999819632177035
vn -0.041197809671712264 0 0.9991510098469868
vn -0.08830988681343437 0 0.9960930498156276
vn -0.18183901789699777 0 0.983328313214999
vn -0.2737477653896289 0 0.9618015184767515
vn -0.3632173462702182 0 0.9317044377743516
vn -0.4494503130685402 0 0.8933053319456854
vn -0.5316785201907926 0 0.8469462504596906
vn -0.6091690669578177 0 0.7930403822389764
vn -0.6812315122622727 0 0.7320680478622578
vn -0.747223795457434 0 0.6645724937899453
vn -0.806557890077793 0 0.5911551149683631
vn -0.8587049427078817 0 0.5124703126709426
vn -0.8819356111256805 0 0.4713698949109628
usemtl material_0_0
f 1//1 2//1 3//1
f 2//1 1//1 4//1
f 3//1 2//1 5//1
f 2//1 4//1 6//1
f 13//2 14//3 15//3
f 14//3 13//2 16//2
f 21//4 22//4 23//4
f 22//4 21//4 24//4
f 22//4 24//4 25//4
f 22//4 25//4 26//4
f 22//4 26//4 27//4
f 22//4 27//4 28//4
f 22//4 29//4 30//4
f 29//4 22//4 28//4
f 29//4 28//4 31//4
f 29//4 31//4 32//4
f 29//4 32//4 33//4
f 29//4 33//4 34//4
f 29//4 34//4 35//4
f 29//4 35//4 36//4
f 29//4 36//4 37//4
f 29//4 37//4 38//4
f 38//4 37//4 39//4
f 38//4 39//4 40//4
f 40//4 39//4 41//4
f 41//4 39//4 42//4
f 42//4 39//4 43//4
f 43//4 39//4 44//4
f 44//4 39//4 45//4
f 45//4 39//4 46//4
f 46//4 39//4 47//4
f 47//4 39//4 48//4
f 48//4 39//4 49//4
f 49//4 39//4 50//4
f 81//5 82//5 83//5
f 82//5 81//5 84//5
f 84//5 81//5 85//5
f 91//6 92//6 93//6
f 94//6 95//6 96//6
f 95//6 94//6 97//6
f 97//6 94//6 92//6
f 97//6 92//6 91//6
f 105//7 106//7 107//7
f 106//7 105//7 108//7
f 108//7 105//7 109//7
f 109//7 105//7 110//7
f 110//7 105//7 111//7
f 111//7 105//7 112//7
f 112//7 105//7 113//7
f 113//7 105//7 114//7
f 114//7 105//7 115//7
f 115//7 105//7 116//7
f 116//7 105//7 117//7
f 117//7 105//7 118//7
f 118//7 105//7 119//7
f 119//7 105//7 120//7
f 119//7 120//7 121//7
f 121//7 120//7 122//7
f 121//7 122//7 123//7
f 121//7 123//7 124//7
f 121//7 124//7 125//7
f 121//7 125//7 126//7
f 121//7 126//7 127//7
f 121//7 127//7 128//7
f 121//7 128//7 129//7
f 121//7 129//7 130//7
f 121//7 130//7 131//7
f 121//7 131//7 132//7
f 161//8 16//2 13//2
f 16//2 161//8 162//8
f 165//9 162//8 161//8
f 162//8 165//9 166//9
f 169//10 166//9 165//9
f 166//9 169//10 170//10
f 173//11 170//10 169//10
f 170//10 173//11 174//11
f 177//12 174//11 173//11
f 174//11 177//12 178//12
f 177//12 181//13 178//12
f 181//13 177//12 182//13
f 182//13 185//14 181//13
f 185//14 182//13 186//14
f 186//14 189//15 185//14
f 189//15 186//14 190//15
f 190//15 193//16 189//15
f 193//16 190//15 194//16
f 194//16 197//17 193//16
f 197//17 194//16 198//17
f 198//17 201//18 197//17
f 201//18 198//17 202//18
f 205//19 206//19 207//19
f 206//19 205//19 208//19
f 213//20 214//20 215//20
f 214//20 213//20 216//20
f 221//21 222//22 223//21
f 222//22 221//21 224//22
f 229//23 223//21 230//23
f 223//21 229//23 221//21
f 233//24 230//23 234//24
f 230//23 233//24 229//23
f 237//25 234//24 238//25
f 234//24 237//25 233//24
f 241//26 238//25 242//26
f 238//25 241//26 237//25
f 245//27 242//26 246//27
f 242//26 245//27 241//26
f 249//28 246//27 250//28
f 246//27 249//28 245//27
f 253//29 250//28 254//29
f 250//28 253//29 249//28
f 254//29 257//30 253//29
f 257//30 254//29 258//30
f 257//30 261//31 262//31
f 261//31 257//30 258//30
f 261//31 265//32 262//31
f 265//32 261//31 266//32
f 265//32 269//33 270//33
f 269//33 265//32 266//32
usemtl material_1_0
f 7//34 8//34 9//34
f 10//34 9//34 11//34
f 8//34 12//34 9//34
f 11//34 9//34 12//34
f 17//35 18//35 19//36
f 20//36 19//36 18//35
f 51//7 52//7 53//7
f 53//7 52//7 54//7
f 54//7 52//7 55//7
f 55//7 52//7 56//7
f 56//7 52//7 57//7
f 57//7 52//7 58//7
f 58//7 52//7 59//7
f 59//7 52//7 60//7
f 60//7 52//7 61//7
f 61//7 52//7 62//7
f 62//7 52//7 63//7
f 52//7 64//7 63//7
f 63//7 64//7 65//7
f 64//7 66//7 65//7
f 66//7 67//7 65//7
f 67//7 68//7 65//7
f 68//7 69//7 65//7
f 69//7 70//7 65//7
f 70//7 71//7 65//7
f 71//7 72//7 65//7
f 72//7 73//7 65//7
f 74//7 65//7 73//7
f 72//7 75//7 73//7
f 75//7 76//7 73//7
f 76//7 77//7 73//7
f 77//7 78//7 73//7
f 78//7 79//7 73//7
f 80//7 73//7 79//7
f 86//37 87//37 88//37
f 88//37 87//37 89//37
f 90//37 89//37 87//37
f 98//38 99//38 100//38
f 99//38 101//38 100//38
f 100//38 101//38 102//38
f 103//38 102//38 101//38
f 104//38 99//38 98//38
f 133//4 134//4 135//4
f 134//4 136//4 135//4
f 136//4 137//4 135//4
f 137//4 138//4 135//4
f 138//4 139//4 135//4
f 139//4 140//4 135//4
f 140//4 141//4 135//4
f 141//4 142//4 135//4
f 142//4 143//4 135//4
f 143//4 144//4 135//4
f 144//4 145//4 135//4
f 135//4 145//4 146//4
f 145//4 147//4 146//4
f 146//4 147//4 148//4
f 148//4 147//4 149//4
f 149//4 147//4 150//4
f 150//4 147//4 151//4
f 151//4 147//4 152//4
f 152//4 147//4 153//4
f 153//4 147//4 154//4
f 154//4 147//4 155//4
f 155//4 147//4 156//4
f 156//4 147//4 157//4
f 157//4 147//4 158//4
f 158//4 147//4 159//4
f 160//4 159//4 147//4
f 163//39 164//39 17//35
f 18//35 17//35 164//39
f 167//40 168//40 163//39
f 164//39 163//39 168//40
f 171//41 172//41 167//40
f 168//40 167//40 172//41
f 175//42 176//42 171//41
f 172//41 171//41 176//42
f 179//43 180//43 175//42
f 176//42 175//42 180//43
f 183//44 180//43 184//44
f 179//43 184//44 180//43
f 187//45 183//44 188//45
f 184//44 188//45 183//44
f 191//46 187//45 192//46
f 188//45 192//46 187//45
f 195//47 191//46 196//47
f 192//46 196//47 191//46
f 199//48 195//47 200//48
f 196//47 200//48 195//47
f 203//49 199//48 204//49
f 200//48 204//49 199//48
f 209//50 210//50 211//50
f 212//50 211//50 210//50
f 217//51 218//51 219//51
f 220//51 219//51 218//51
f 225//52 226//53 227//52
f 228//53 227//52 226//53
f 226//53 231//54 228//53
f 232//54 228//53 231//54
f 231//54 235//55 232//54
f 236//55 232//54 235//55
f 235//55 239//56 236//55
f 240//56 236//55 239//56
f 239//56 243//57 240//56
f 244//57 240//56 243//57
f 243//57 247//58 244//57
f 248//58 244//57 247//58
f 247//58 251//59 248//58
f 252//59 248//58 251//59
f 251//59 255//60 252//59
f 256//60 252//59 255//60
f 259//61 256//60 260//61
f 255//60 260//61 256//60
f 259//61 260//61 263//62
f 264//62 263//62 260//61
f 267//63 263//62 268//63
f 264//62 268//63 263//62
f 267//63 268//63 271//64
f 272//64 271//64 268//63
