# SSTK version 0.8.0
# 147
mtllib original-147.mtl
o #ID657
v 0.067661 -0.061652 0.027095
v 0.069082 -0.068366 0.027086
v 0.069082 -0.061652 0.027086
v 0.067661 -0.068366 0.027095
v 0.067661 -0.068366 0.027095
v 0.067661 -0.061652 0.027095
v 0.069082 -0.068366 0.027086
v 0.069082 -0.061652 0.027086
vn 0.0060061001716470285 0 0.9999819632177014
vn -0.0060061001716470285 0 -0.9999819632177014
usemtl material_0_0
f 5//2 6//2 7//2
f 8//2 7//2 6//2
usemtl material_1_0
f 1//1 2//1 3//1
f 2//1 1//1 4//1
