# SSTK version 0.8.0
# 146
mtllib original-146.mtl
o #ID651
v 0.071024 -0.076411 0.356735
v 0.078549 -0.093576 0.361840
v 0.071085 -0.076411 0.367036
v 0.071085 -0.076411 0.367036
v 0.078549 -0.093576 0.361840
v 0.086074 -0.076411 0.366946
v 0.086074 -0.076411 0.366946
v 0.078549 -0.093576 0.361840
v 0.086012 -0.076411 0.356645
vn -0.9164345302232048 -0.40014679122861124 0.0055042968688080365
vn 0.005752667567050333 -0.28742171611746276 0.9577868572495427
vn 0.9164345302232055 -0.40014679122861124 -0.0055042968686739155
usemtl material_0_0
f 1//1 2//1 3//1
f 4//2 5//2 6//2
f 7//3 8//3 9//3
