# SSTK version 0.8.0
# 127
mtllib original-127.mtl
o #ID529
v 0.152058 0.050269 0.469578
v 0.141726 0.050269 0.408726
v 0.157380 0.050269 0.477084
v 0.151808 0.050269 0.468813
v 0.151808 0.050269 0.468813
v 0.152058 0.050269 0.469578
v 0.141726 0.050269 0.408726
v 0.157380 0.050269 0.477084
v 0.125067 0.050269 0.500578
v 0.139088 0.050269 0.501612
v 0.131999 0.050269 0.502150
v 0.145703 0.050269 0.499012
v 0.118904 0.050269 0.497036
v 0.151261 0.050269 0.494580
v 0.114056 0.050269 0.491838
v 0.131059 0.050269 0.492966
v 0.125999 0.050269 0.491898
v 0.121388 0.050269 0.489557
v 0.111945 0.050269 0.487488
v 0.117540 0.050269 0.486102
v 0.114717 0.050269 0.481769
v 0.101612 0.050269 0.442363
v 0.113362 0.050269 0.477617
v 0.113112 0.050269 0.476853
v 0.112835 0.050269 0.471689
v 0.113903 0.050269 0.466629
v 0.116244 0.050269 0.462018
v 0.119699 0.050269 0.458170
v 0.124032 0.050269 0.455348
v 0.128948 0.050269 0.453743
v 0.134111 0.050269 0.453465
v 0.136223 0.050269 0.492688
v 0.155269 0.050269 0.488709
v 0.141139 0.050269 0.491083
v 0.145472 0.050269 0.488260
v 0.157372 0.050269 0.481919
v 0.148926 0.050269 0.484412
v 0.151268 0.050269 0.479801
v 0.157380 0.050269 0.477084
v 0.152336 0.050269 0.474742
v 0.152336 0.050269 0.474742
v 0.157380 0.050269 0.477084
v 0.151268 0.050269 0.479801
v 0.157372 0.050269 0.481919
v 0.148926 0.050269 0.484412
v 0.145472 0.050269 0.488260
v 0.155269 0.050269 0.488709
v 0.141139 0.050269 0.491083
v 0.136223 0.050269 0.492688
v 0.131059 0.050269 0.492966
v 0.151261 0.050269 0.494580
v 0.134111 0.050269 0.453465
v 0.101612 0.050269 0.442363
v 0.128948 0.050269 0.453743
v 0.124032 0.050269 0.455348
v 0.119699 0.050269 0.458170
v 0.116244 0.050269 0.462018
v 0.113903 0.050269 0.466629
v 0.112835 0.050269 0.471689
v 0.113112 0.050269 0.476853
v 0.113362 0.050269 0.477617
v 0.114717 0.050269 0.481769
v 0.111945 0.050269 0.487488
v 0.117540 0.050269 0.486102
v 0.121388 0.050269 0.489557
v 0.114056 0.050269 0.491838
v 0.125999 0.050269 0.491898
v 0.118904 0.050269 0.497036
v 0.145703 0.050269 0.499012
v 0.125067 0.050269 0.500578
v 0.139088 0.050269 0.501612
v 0.131999 0.050269 0.502150
v 0.152058 0.069826 0.469578
v 0.151808 0.069826 0.468813
v 0.151808 0.069826 0.468813
v 0.152058 0.069826 0.469578
v 0.150453 0.050269 0.464662
v 0.150453 0.050269 0.464662
v 0.136525 0.069826 0.386009
v 0.141726 0.050269 0.408726
v 0.136525 0.050269 0.386009
v 0.157380 0.050269 0.477084
v 0.157380 0.069826 0.477084
v 0.141726 0.069826 0.408726
v 0.141726 0.069826 0.408726
v 0.136525 0.069826 0.386009
v 0.157380 0.069826 0.477084
v 0.157380 0.050269 0.477084
v 0.141726 0.050269 0.408726
v 0.136525 0.050269 0.386009
v 0.125067 0.069826 0.500578
v 0.131999 0.050269 0.502150
v 0.131999 0.069826 0.502150
v 0.125067 0.050269 0.500578
v 0.125067 0.050269 0.500578
v 0.125067 0.069826 0.500578
v 0.131999 0.050269 0.502150
v 0.131999 0.069826 0.502150
v 0.118904 0.069826 0.497036
v 0.125067 0.050269 0.500578
v 0.125067 0.069826 0.500578
v 0.118904 0.050269 0.497036
v 0.118904 0.050269 0.497036
v 0.118904 0.069826 0.497036
v 0.125067 0.050269 0.500578
v 0.125067 0.069826 0.500578
v 0.118904 0.069826 0.497036
v 0.114056 0.050269 0.491838
v 0.118904 0.050269 0.497036
v 0.114056 0.069826 0.491838
v 0.114056 0.069826 0.491838
v 0.118904 0.069826 0.497036
v 0.114056 0.050269 0.491838
v 0.118904 0.050269 0.497036
v 0.114056 0.069826 0.491838
v 0.111945 0.050269 0.487488
v 0.114056 0.050269 0.491838
v 0.111945 0.069826 0.487488
v 0.111945 0.069826 0.487488
v 0.114056 0.069826 0.491838
v 0.111945 0.050269 0.487488
v 0.114056 0.050269 0.491838
v 0.111945 0.069826 0.487488
v 0.101612 0.050269 0.442363
v 0.111945 0.050269 0.487488
v 0.101612 0.069826 0.442363
v 0.106814 0.069826 0.465080
v 0.104485 0.069826 0.454911
v 0.104485 0.069826 0.454911
v 0.106814 0.069826 0.465080
v 0.101612 0.069826 0.442363
v 0.111945 0.069826 0.487488
v 0.101612 0.050269 0.442363
v 0.111945 0.050269 0.487488
v 0.101612 0.050269 0.442363
v 0.134111 0.050269 0.453465
v 0.136525 0.050269 0.386009
v 0.136525 0.050269 0.386009
v 0.101612 0.050269 0.442363
v 0.134111 0.050269 0.453465
v 0.128948 0.069826 0.453743
v 0.134111 0.050269 0.453465
v 0.134111 0.069826 0.453465
v 0.128948 0.050269 0.453743
v 0.128948 0.050269 0.453743
v 0.128948 0.069826 0.453743
v 0.134111 0.050269 0.453465
v 0.134111 0.069826 0.453465
v 0.124032 0.069826 0.455348
v 0.128948 0.050269 0.453743
v 0.128948 0.069826 0.453743
v 0.124032 0.050269 0.455348
v 0.124032 0.050269 0.455348
v 0.124032 0.069826 0.455348
v 0.128948 0.050269 0.453743
v 0.128948 0.069826 0.453743
v 0.119699 0.069826 0.458170
v 0.124032 0.050269 0.455348
v 0.124032 0.069826 0.455348
v 0.119699 0.050269 0.458170
v 0.119699 0.050269 0.458170
v 0.119699 0.069826 0.458170
v 0.124032 0.050269 0.455348
v 0.124032 0.069826 0.455348
v 0.119699 0.069826 0.458170
v 0.116244 0.050269 0.462018
v 0.119699 0.050269 0.458170
v 0.116244 0.069826 0.462018
v 0.116244 0.069826 0.462018
v 0.119699 0.069826 0.458170
v 0.116244 0.050269 0.462018
v 0.119699 0.050269 0.458170
v 0.116244 0.069826 0.462018
v 0.113903 0.050269 0.466629
v 0.116244 0.050269 0.462018
v 0.113903 0.069826 0.466629
v 0.113903 0.069826 0.466629
v 0.116244 0.069826 0.462018
v 0.113903 0.050269 0.466629
v 0.116244 0.050269 0.462018
v 0.113903 0.069826 0.466629
v 0.112835 0.050269 0.471689
v 0.113903 0.050269 0.466629
v 0.112835 0.069826 0.471689
v 0.112835 0.069826 0.471689
v 0.113903 0.069826 0.466629
v 0.112835 0.050269 0.471689
v 0.113903 0.050269 0.466629
v 0.112835 0.069826 0.471689
v 0.113112 0.050269 0.476853
v 0.112835 0.050269 0.471689
v 0.113112 0.069826 0.476853
v 0.113112 0.069826 0.476853
v 0.112835 0.069826 0.471689
v 0.113112 0.050269 0.476853
v 0.112835 0.050269 0.471689
v 0.113112 0.069826 0.476853
v 0.113362 0.050269 0.477617
v 0.113112 0.050269 0.476853
v 0.113362 0.069826 0.477617
v 0.113362 0.069826 0.477617
v 0.113112 0.069826 0.476853
v 0.113362 0.050269 0.477617
v 0.113112 0.050269 0.476853
v 0.113362 0.069826 0.477617
v 0.114717 0.050269 0.481769
v 0.113362 0.050269 0.477617
v 0.114717 0.069826 0.481769
v 0.114717 0.069826 0.481769
v 0.113362 0.069826 0.477617
v 0.114717 0.050269 0.481769
v 0.113362 0.050269 0.477617
v 0.114717 0.069826 0.481769
v 0.117540 0.050269 0.486102
v 0.114717 0.050269 0.481769
v 0.117540 0.069826 0.486102
v 0.117540 0.069826 0.486102
v 0.114717 0.069826 0.481769
v 0.117540 0.050269 0.486102
v 0.114717 0.050269 0.481769
v 0.117540 0.050269 0.486102
v 0.121388 0.069826 0.489557
v 0.121388 0.050269 0.489557
v 0.117540 0.069826 0.486102
v 0.117540 0.069826 0.486102
v 0.117540 0.050269 0.486102
v 0.121388 0.069826 0.489557
v 0.121388 0.050269 0.489557
v 0.121388 0.050269 0.489557
v 0.125999 0.069826 0.491898
v 0.125999 0.050269 0.491898
v 0.121388 0.069826 0.489557
v 0.121388 0.069826 0.489557
v 0.121388 0.050269 0.489557
v 0.125999 0.069826 0.491898
v 0.125999 0.050269 0.491898
v 0.125999 0.050269 0.491898
v 0.131059 0.069826 0.492966
v 0.131059 0.050269 0.492966
v 0.125999 0.069826 0.491898
v 0.125999 0.069826 0.491898
v 0.125999 0.050269 0.491898
v 0.131059 0.069826 0.492966
v 0.131059 0.050269 0.492966
v 0.131059 0.050269 0.492966
v 0.136223 0.069826 0.492688
v 0.136223 0.050269 0.492688
v 0.131059 0.069826 0.492966
v 0.131059 0.069826 0.492966
v 0.131059 0.050269 0.492966
v 0.136223 0.069826 0.492688
v 0.136223 0.050269 0.492688
v 0.136223 0.050269 0.492688
v 0.141139 0.069826 0.491083
v 0.141139 0.050269 0.491083
v 0.136223 0.069826 0.492688
v 0.136223 0.069826 0.492688
v 0.136223 0.050269 0.492688
v 0.141139 0.069826 0.491083
v 0.141139 0.050269 0.491083
v 0.141139 0.050269 0.491083
v 0.145472 0.069826 0.488260
v 0.145472 0.050269 0.488260
v 0.141139 0.069826 0.491083
v 0.141139 0.069826 0.491083
v 0.141139 0.050269 0.491083
v 0.145472 0.069826 0.488260
v 0.145472 0.050269 0.488260
v 0.145472 0.069826 0.488260
v 0.148926 0.050269 0.484412
v 0.145472 0.050269 0.488260
v 0.148926 0.069826 0.484412
v 0.148926 0.069826 0.484412
v 0.145472 0.069826 0.488260
v 0.148926 0.050269 0.484412
v 0.145472 0.050269 0.488260
v 0.148926 0.069826 0.484412
v 0.151268 0.050269 0.479801
v 0.148926 0.050269 0.484412
v 0.151268 0.069826 0.479801
v 0.151268 0.069826 0.479801
v 0.148926 0.069826 0.484412
v 0.151268 0.050269 0.479801
v 0.148926 0.050269 0.484412
v 0.151268 0.069826 0.479801
v 0.152336 0.050269 0.474742
v 0.151268 0.050269 0.479801
v 0.152336 0.069826 0.474742
v 0.152336 0.069826 0.474742
v 0.151268 0.069826 0.479801
v 0.152336 0.050269 0.474742
v 0.151268 0.050269 0.479801
v 0.152336 0.069826 0.474742
v 0.152058 0.050269 0.469578
v 0.152336 0.050269 0.474742
v 0.152058 0.069826 0.469578
v 0.152058 0.069826 0.469578
v 0.152336 0.069826 0.474742
v 0.152058 0.050269 0.469578
v 0.152336 0.050269 0.474742
v 0.157380 0.069826 0.477084
v 0.157372 0.050269 0.481919
v 0.157380 0.050269 0.477084
v 0.157372 0.069826 0.481919
v 0.157372 0.069826 0.481919
v 0.157380 0.069826 0.477084
v 0.157372 0.050269 0.481919
v 0.157380 0.050269 0.477084
v 0.157372 0.069826 0.481919
v 0.155269 0.050269 0.488709
v 0.157372 0.050269 0.481919
v 0.155269 0.069826 0.488709
v 0.155269 0.069826 0.488709
v 0.157372 0.069826 0.481919
v 0.155269 0.050269 0.488709
v 0.157372 0.050269 0.481919
v 0.155269 0.069826 0.488709
v 0.151261 0.050269 0.494580
v 0.155269 0.050269 0.488709
v 0.151261 0.069826 0.494580
v 0.151261 0.069826 0.494580
v 0.155269 0.069826 0.488709
v 0.151261 0.050269 0.494580
v 0.155269 0.050269 0.488709
v 0.145703 0.069826 0.499012
v 0.151261 0.050269 0.494580
v 0.151261 0.069826 0.494580
v 0.145703 0.050269 0.499012
v 0.145703 0.050269 0.499012
v 0.145703 0.069826 0.499012
v 0.151261 0.050269 0.494580
v 0.151261 0.069826 0.494580
v 0.139088 0.069826 0.501612
v 0.145703 0.050269 0.499012
v 0.145703 0.069826 0.499012
v 0.139088 0.050269 0.501612
v 0.139088 0.050269 0.501612
v 0.139088 0.069826 0.501612
v 0.145703 0.050269 0.499012
v 0.145703 0.069826 0.499012
v 0.131999 0.069826 0.502150
v 0.139088 0.050269 0.501612
v 0.139088 0.069826 0.501612
v 0.131999 0.050269 0.502150
v 0.131999 0.050269 0.502150
v 0.131999 0.069826 0.502150
v 0.139088 0.050269 0.501612
v 0.139088 0.069826 0.501612
v 0.151808 0.069826 0.468813
v 0.150453 0.050269 0.464662
v 0.151808 0.050269 0.468813
v 0.150453 0.069826 0.464662
v 0.150453 0.069826 0.464662
v 0.151808 0.069826 0.468813
v 0.150453 0.050269 0.464662
v 0.151808 0.050269 0.468813
v 0.147630 0.050269 0.460329
v 0.147630 0.050269 0.460329
v 0.151261 0.069826 0.494580
v 0.136223 0.069826 0.492688
v 0.131059 0.069826 0.492966
v 0.155269 0.069826 0.488709
v 0.141139 0.069826 0.491083
v 0.145472 0.069826 0.488260
v 0.157372 0.069826 0.481919
v 0.148926 0.069826 0.484412
v 0.151268 0.069826 0.479801
v 0.157380 0.069826 0.477084
v 0.152336 0.069826 0.474742
v 0.152058 0.069826 0.469578
v 0.141726 0.069826 0.408726
v 0.151808 0.069826 0.468813
v 0.150453 0.069826 0.464662
v 0.147630 0.069826 0.460329
v 0.143782 0.069826 0.456874
v 0.139171 0.069826 0.454533
v 0.134111 0.069826 0.453465
v 0.130254 0.069826 0.436899
v 0.139088 0.069826 0.501612
v 0.125067 0.069826 0.500578
v 0.131999 0.069826 0.502150
v 0.145703 0.069826 0.499012
v 0.118904 0.069826 0.497036
v 0.114056 0.069826 0.491838
v 0.125999 0.069826 0.491898
v 0.121388 0.069826 0.489557
v 0.111945 0.069826 0.487488
v 0.117540 0.069826 0.486102
v 0.114717 0.069826 0.481769
v 0.106814 0.069826 0.465080
v 0.113362 0.069826 0.477617
v 0.113112 0.069826 0.476853
v 0.112835 0.069826 0.471689
v 0.113903 0.069826 0.466629
v 0.116244 0.069826 0.462018
v 0.111882 0.069826 0.461143
v 0.119699 0.069826 0.458170
v 0.124032 0.069826 0.455348
v 0.128948 0.069826 0.453743
v 0.134111 0.069826 0.453465
v 0.128948 0.069826 0.453743
v 0.130254 0.069826 0.436899
v 0.124032 0.069826 0.455348
v 0.119699 0.069826 0.458170
v 0.111882 0.069826 0.461143
v 0.116244 0.069826 0.462018
v 0.106814 0.069826 0.465080
v 0.113903 0.069826 0.466629
v 0.112835 0.069826 0.471689
v 0.113112 0.069826 0.476853
v 0.113362 0.069826 0.477617
v 0.114717 0.069826 0.481769
v 0.111945 0.069826 0.487488
v 0.117540 0.069826 0.486102
v 0.121388 0.069826 0.489557
v 0.114056 0.069826 0.491838
v 0.125999 0.069826 0.491898
v 0.131059 0.069826 0.492966
v 0.151261 0.069826 0.494580
v 0.118904 0.069826 0.497036
v 0.145703 0.069826 0.499012
v 0.125067 0.069826 0.500578
v 0.139088 0.069826 0.501612
v 0.131999 0.069826 0.502150
v 0.141726 0.069826 0.408726
v 0.139171 0.069826 0.454533
v 0.143782 0.069826 0.456874
v 0.147630 0.069826 0.460329
v 0.150453 0.069826 0.464662
v 0.151808 0.069826 0.468813
v 0.152058 0.069826 0.469578
v 0.157380 0.069826 0.477084
v 0.152336 0.069826 0.474742
v 0.151268 0.069826 0.479801
v 0.157372 0.069826 0.481919
v 0.148926 0.069826 0.484412
v 0.145472 0.069826 0.488260
v 0.155269 0.069826 0.488709
v 0.141139 0.069826 0.491083
v 0.136223 0.069826 0.492688
v 0.139171 0.050269 0.454533
v 0.139171 0.050269 0.454533
v 0.134111 0.069826 0.453465
v 0.139171 0.050269 0.454533
v 0.139171 0.069826 0.454533
v 0.134111 0.050269 0.453465
v 0.134111 0.050269 0.453465
v 0.134111 0.069826 0.453465
v 0.139171 0.050269 0.454533
v 0.139171 0.069826 0.454533
v 0.150453 0.069826 0.464662
v 0.147630 0.050269 0.460329
v 0.150453 0.050269 0.464662
v 0.147630 0.069826 0.460329
v 0.147630 0.069826 0.460329
v 0.150453 0.069826 0.464662
v 0.147630 0.050269 0.460329
v 0.150453 0.050269 0.464662
v 0.143782 0.050269 0.456874
v 0.143782 0.050269 0.456874
v 0.139171 0.069826 0.454533
v 0.143782 0.050269 0.456874
v 0.143782 0.069826 0.456874
v 0.139171 0.050269 0.454533
v 0.139171 0.050269 0.454533
v 0.139171 0.069826 0.454533
v 0.143782 0.050269 0.456874
v 0.143782 0.069826 0.456874
v 0.143782 0.069826 0.456874
v 0.147630 0.050269 0.460329
v 0.147630 0.069826 0.460329
v 0.143782 0.050269 0.456874
v 0.143782 0.050269 0.456874
v 0.143782 0.069826 0.456874
v 0.147630 0.050269 0.460329
v 0.147630 0.069826 0.460329
vn -0.3268103542908175 -0.9390476888869463 0.10669784592200061
vn 0 -1 0
vn -0.3504672117133325 -0.929559294741691 0.11442137507132151
vn -0.950618937314736 0 0.31036049364988777
vn 0.974770814649322 0 -0.223208106725309
vn -0.22108150778258082 0 0.9752553342159072
vn -0.498275307589924 0 0.8670188682180835
vn -0.7313460824082303 0 0.682006530574403
vn -0.8996550180757117 0 0.43660147554857276
vn -0.974770814649322 0 0.223208106725309
vn 0.0537469077890734 0 0.998554590347024
vn 0.31036049364988777 0 0.950618937314736
vn 0.54582348564017 0 0.8379001864921711
vn 0.7440895255195581 0 0.6680799188810266
vn 0.8916470887403741 0 0.45273112234616214
vn 0.9784403918594002 0 0.20652941576933612
vn 0.998554590347024 0 -0.0537469077890734
vn 0.950618937314736 0 -0.31036049364988777
vn 0.8379001864921711 0 -0.54582348564017
vn 0.6680799188810266 0 -0.7440895255195581
vn 0.45273112234616214 0 -0.8916470887403741
vn 0.20652941576933612 0 -0.9784403918594002
vn -0.0537469077890734 0 -0.998554590347024
vn -0.31036049364988777 0 -0.950618937314736
vn -0.54582348564017 0 -0.8379001864921711
vn -0.7440895255195581 0 -0.6680799188810266
vn -0.8916470887403741 0 -0.45273112234616214
vn -0.9784403918594002 0 -0.20652941576933612
vn -0.998554590347024 0 0.0537469077890734
vn 0.999998705776405 0 0.0016088646664708425
vn 0.9552495774079701 0 0.2958010224152288
vn 0.8259115988828386 0 0.563799637132548
vn 0.6234379307264984 0 0.7818728455007642
vn 0.3657578503439216 0 0.9307100487862981
vn 0.07568936365244851 0 0.997131445813383
vn 0 1 0
vn -0.20652941576933612 0 0.9784403918594002
vn -0.8379001864921711 0 0.54582348564017
vn -0.45273112234616214 0 0.8916470887403741
vn -0.6680799188810266 0 0.7440895255195581
vn 0.3504672117133325 0.929559294741691 -0.11442137507132151
vn 0.3268103542908175 0.9390476888869463 -0.10669784592200061
vn 0.22108150778258082 0 -0.9752553342159072
vn 0.498275307589924 0 -0.8670188682180835
vn 0.7313460824082303 0 -0.682006530574403
vn 0.8996550180757117 0 -0.43660147554857276
vn -0.999998705776405 0 -0.0016088646664708425
vn -0.9552495774079701 0 -0.2958010224152288
vn -0.8259115988828386 0 -0.563799637132548
vn -0.6234379307264984 0 -0.7818728455007642
vn -0.3657578503439216 0 -0.9307100487862981
vn -0.07568936365244851 0 -0.997131445813383
usemtl material_0_0
f 1//1 2//2 3//2
f 2//2 1//1 4//3
f 9//2 10//2 11//2
f 10//2 9//2 12//2
f 12//2 9//2 13//2
f 12//2 13//2 14//2
f 14//2 13//2 15//2
f 14//2 15//2 16//2
f 16//2 15//2 17//2
f 17//2 15//2 18//2
f 18//2 15//2 19//2
f 18//2 19//2 20//2
f 20//2 19//2 21//2
f 21//2 19//2 22//2
f 21//2 22//2 23//2
f 23//2 22//2 24//2
f 24//2 22//2 25//2
f 25//2 22//2 26//2
f 26//2 22//2 27//2
f 27//2 22//2 28//2
f 28//2 22//2 29//2
f 29//2 22//2 30//2
f 30//2 22//2 31//2
f 14//2 32//2 33//2
f 32//2 14//2 16//2
f 33//2 32//2 34//2
f 33//2 34//2 35//2
f 33//2 35//2 36//2
f 36//2 35//2 37//2
f 36//2 37//2 38//2
f 36//2 38//2 39//2
f 39//2 38//2 40//2
f 39//2 40//2 1//1
f 73//4 4//3 1//1
f 4//3 73//4 74//4
f 2//2 4//3 77//2
f 79//5 80//5 81//5
f 80//5 79//5 82//5
f 82//5 79//5 83//5
f 83//5 79//5 84//5
f 91//6 92//6 93//6
f 92//6 91//6 94//6
f 99//7 100//7 101//7
f 100//7 99//7 102//7
f 107//8 108//8 109//8
f 108//8 107//8 110//8
f 115//9 116//9 117//9
f 116//9 115//9 118//9
f 123//10 124//10 125//10
f 124//10 123//10 126//10
f 126//10 123//10 127//10
f 126//10 127//10 128//10
f 135//2 2//2 136//2
f 2//2 135//2 137//2
f 141//11 142//11 143//11
f 142//11 141//11 144//11
f 149//12 150//12 151//12
f 150//12 149//12 152//12
f 157//13 158//13 159//13
f 158//13 157//13 160//13
f 165//14 166//14 167//14
f 166//14 165//14 168//14
f 173//15 174//15 175//15
f 174//15 173//15 176//15
f 181//16 182//16 183//16
f 182//16 181//16 184//16
f 189//17 190//17 191//17
f 190//17 189//17 192//17
f 197//18 198//18 199//18
f 198//18 197//18 200//18
f 205//18 206//18 207//18
f 206//18 205//18 208//18
f 213//19 214//19 215//19
f 214//19 213//19 216//19
f 221//20 222//20 223//20
f 222//20 221//20 224//20
f 229//21 230//21 231//21
f 230//21 229//21 232//21
f 237//22 238//22 239//22
f 238//22 237//22 240//22
f 245//23 246//23 247//23
f 246//23 245//23 248//23
f 253//24 254//24 255//24
f 254//24 253//24 256//24
f 261//25 262//25 263//25
f 262//25 261//25 264//25
f 269//26 270//26 271//26
f 270//26 269//26 272//26
f 277//27 278//27 279//27
f 278//27 277//27 280//27
f 285//28 286//28 287//28
f 286//28 285//28 288//28
f 293//29 294//29 295//29
f 294//29 293//29 296//29
f 301//30 302//30 303//30
f 302//30 301//30 304//30
f 309//31 310//31 311//31
f 310//31 309//31 312//31
f 317//32 318//32 319//32
f 318//32 317//32 320//32
f 325//33 326//33 327//33
f 326//33 325//33 328//33
f 333//34 334//34 335//34
f 334//34 333//34 336//34
f 341//35 342//35 343//35
f 342//35 341//35 344//35
f 349//4 350//4 351//4
f 350//4 349//4 352//4
f 2//2 77//2 357//2
f 359//36 360//36 361//36
f 360//36 359//36 362//36
f 360//36 362//36 363//36
f 363//36 362//36 364//36
f 364//36 362//36 365//36
f 364//36 365//36 366//36
f 366//36 365//36 367//36
f 367//36 365//36 368//36
f 367//36 368//36 369//36
f 369//36 368//36 370//36
f 370//36 368//36 371//36
f 370//36 371//36 372//36
f 372//36 371//36 373//36
f 373//36 371//36 374//36
f 374//36 371//36 375//36
f 375//36 371//36 376//36
f 376//36 371//36 377//36
f 377//36 371//36 378//36
f 379//36 380//36 381//36
f 380//36 379//36 382//36
f 380//36 382//36 383//36
f 383//36 382//36 359//36
f 383//36 359//36 384//36
f 384//36 359//36 361//36
f 384//36 361//36 385//36
f 384//36 385//36 386//36
f 384//36 386//36 387//36
f 387//36 386//36 388//36
f 387//36 388//36 389//36
f 387//36 389//36 390//36
f 390//36 389//36 391//36
f 390//36 391//36 392//36
f 390//36 392//36 393//36
f 390//36 393//36 394//36
f 390//36 394//36 395//36
f 390//36 395//36 396//36
f 396//36 395//36 397//36
f 396//36 397//36 378//36
f 378//36 397//36 398//36
f 378//36 398//36 399//36
f 378//36 399//36 377//36
f 2//2 441//2 136//2
f 443//37 444//37 445//37
f 444//37 443//37 446//37
f 451//38 452//38 453//38
f 452//38 451//38 454//38
f 2//2 357//2 459//2
f 2//2 459//2 441//2
f 461//39 462//39 463//39
f 462//39 461//39 464//39
f 469//40 470//40 471//40
f 470//40 469//40 472//40
usemtl material_1_0
f 5//41 6//42 7//36
f 8//36 7//36 6//42
f 6//42 41//36 42//36
f 41//36 43//36 42//36
f 42//36 43//36 44//36
f 43//36 45//36 44//36
f 45//36 46//36 44//36
f 44//36 46//36 47//36
f 46//36 48//36 47//36
f 48//36 49//36 47//36
f 50//36 51//36 49//36
f 47//36 49//36 51//36
f 52//36 53//36 54//36
f 54//36 53//36 55//36
f 55//36 53//36 56//36
f 56//36 53//36 57//36
f 57//36 53//36 58//36
f 58//36 53//36 59//36
f 59//36 53//36 60//36
f 60//36 53//36 61//36
f 61//36 53//36 62//36
f 53//36 63//36 62//36
f 62//36 63//36 64//36
f 64//36 63//36 65//36
f 63//36 66//36 65//36
f 65//36 66//36 67//36
f 67//36 66//36 50//36
f 50//36 66//36 51//36
f 66//36 68//36 51//36
f 51//36 68//36 69//36
f 68//36 70//36 69//36
f 69//36 70//36 71//36
f 72//36 71//36 70//36
f 75//18 76//18 5//41
f 6//42 5//41 76//18
f 78//36 5//41 7//36
f 85//10 86//10 87//10
f 87//10 86//10 88//10
f 88//10 86//10 89//10
f 90//10 89//10 86//10
f 95//43 96//43 97//43
f 98//43 97//43 96//43
f 103//44 104//44 105//44
f 106//44 105//44 104//44
f 111//45 112//45 113//45
f 114//45 113//45 112//45
f 119//46 120//46 121//46
f 122//46 121//46 120//46
f 129//5 130//5 131//5
f 130//5 132//5 131//5
f 131//5 132//5 133//5
f 134//5 133//5 132//5
f 138//36 139//36 7//36
f 140//36 7//36 139//36
f 145//23 146//23 147//23
f 148//23 147//23 146//23
f 153//24 154//24 155//24
f 156//24 155//24 154//24
f 161//25 162//25 163//25
f 164//25 163//25 162//25
f 169//26 170//26 171//26
f 172//26 171//26 170//26
f 177//27 178//27 179//27
f 180//27 179//27 178//27
f 185//28 186//28 187//28
f 188//28 187//28 186//28
f 193//29 194//29 195//29
f 196//29 195//29 194//29
f 201//4 202//4 203//4
f 204//4 203//4 202//4
f 209//4 210//4 211//4
f 212//4 211//4 210//4
f 217//38 218//38 219//38
f 220//38 219//38 218//38
f 225//40 226//40 227//40
f 228//40 227//40 226//40
f 233//39 234//39 235//39
f 236//39 235//39 234//39
f 241//37 242//37 243//37
f 244//37 243//37 242//37
f 249//11 250//11 251//11
f 252//11 251//11 250//11
f 257//12 258//12 259//12
f 260//12 259//12 258//12
f 265//13 266//13 267//13
f 268//13 267//13 266//13
f 273//14 274//14 275//14
f 276//14 275//14 274//14
f 281//15 282//15 283//15
f 284//15 283//15 282//15
f 289//16 290//16 291//16
f 292//16 291//16 290//16
f 297//17 298//17 299//17
f 300//17 299//17 298//17
f 305//47 306//47 307//47
f 308//47 307//47 306//47
f 313//48 314//48 315//48
f 316//48 315//48 314//48
f 321//49 322//49 323//49
f 324//49 323//49 322//49
f 329//50 330//50 331//50
f 332//50 331//50 330//50
f 337//51 338//51 339//51
f 340//51 339//51 338//51
f 345//52 346//52 347//52
f 348//52 347//52 346//52
f 353//18 354//18 355//18
f 356//18 355//18 354//18
f 358//36 78//36 7//36
f 400//2 401//2 402//2
f 401//2 403//2 402//2
f 403//2 404//2 402//2
f 402//2 404//2 405//2
f 404//2 406//2 405//2
f 405//2 406//2 407//2
f 406//2 408//2 407//2
f 408//2 409//2 407//2
f 409//2 410//2 407//2
f 410//2 411//2 407//2
f 411//2 412//2 407//2
f 407//2 412//2 413//2
f 412//2 414//2 413//2
f 414//2 415//2 413//2
f 413//2 415//2 416//2
f 415//2 417//2 416//2
f 417//2 418//2 416//2
f 418//2 419//2 416//2
f 416//2 419//2 420//2
f 419//2 421//2 420//2
f 420//2 421//2 422//2
f 421//2 423//2 422//2
f 424//2 422//2 423//2
f 402//2 425//2 400//2
f 400//2 425//2 426//2
f 426//2 425//2 427//2
f 427//2 425//2 428//2
f 428//2 425//2 429//2
f 429//2 425//2 430//2
f 430//2 425//2 431//2
f 425//2 432//2 431//2
f 431//2 432//2 433//2
f 433//2 432//2 434//2
f 432//2 435//2 434//2
f 434//2 435//2 436//2
f 436//2 435//2 437//2
f 435//2 438//2 437//2
f 437//2 438//2 439//2
f 439//2 438//2 440//2
f 438//2 419//2 440//2
f 418//2 440//2 419//2
f 140//36 442//36 7//36
f 447//22 448//22 449//22
f 450//22 449//22 448//22
f 455//19 456//19 457//19
f 458//19 457//19 456//19
f 460//36 358//36 7//36
f 442//36 460//36 7//36
f 465//21 466//21 467//21
f 468//21 467//21 466//21
f 473//20 474//20 475//20
f 476//20 475//20 474//20
