# SSTK version 0.8.0
# 11
mtllib original-11.mtl
o #ID59
v -0.374745 -0.035292 0.592275
v 0.017564 -0.015255 0.483653
v -0.374745 -0.015255 0.592275
v 0.017564 -0.035292 0.483653
v 0.022298 -0.035292 0.476440
v 0.021606 -0.035292 0.473734
v 0.022124 -0.035292 0.475602
v 0.017564 -0.035292 0.483653
v -0.079750 -0.035292 0.432855
v -0.083398 -0.035292 0.417717
v -0.082475 -0.035292 0.448186
v -0.091116 -0.035292 0.461140
v -0.104223 -0.035292 0.469544
v -0.374745 -0.035292 0.592275
v -0.119601 -0.035292 0.471991
v -0.287689 -0.035292 0.495101
v 0.088696 -0.035292 0.390307
v 0.082366 -0.035292 0.367445
v 0.086361 -0.035292 0.378647
v 0.089323 -0.035292 0.402183
v 0.076796 -0.035292 0.356938
v 0.069767 -0.035292 0.347345
v 0.088229 -0.035292 0.414025
v 0.061427 -0.035292 0.338868
v 0.085437 -0.035292 0.425585
v 0.051950 -0.035292 0.331683
v 0.081005 -0.035292 0.436620
v -0.141067 -0.035292 0.385106
v 0.075026 -0.035292 0.446900
v -0.106400 -0.035292 0.397715
v 0.029694 -0.035292 0.459452
v 0.028261 -0.035292 0.459952
v 0.026905 -0.035292 0.460634
v 0.025650 -0.035292 0.461488
v 0.024517 -0.035292 0.462499
v 0.023525 -0.035292 0.463648
v 0.022692 -0.035292 0.464918
v 0.022032 -0.035292 0.466285
v 0.021556 -0.035292 0.467726
v -0.092808 -0.035292 0.405311
v 0.021272 -0.035292 0.469218
v 0.021186 -0.035292 0.470733
v 0.021298 -0.035292 0.472247
v 0.022361 -0.035292 0.477294
v 0.022312 -0.035292 0.478148
v 0.022152 -0.035292 0.478989
v 0.021883 -0.035292 0.479801
v 0.021511 -0.035292 0.480572
v 0.021042 -0.035292 0.481288
v 0.020483 -0.035292 0.481936
v 0.019844 -0.035292 0.482505
v 0.019136 -0.035292 0.482987
v 0.018372 -0.035292 0.483372
v -0.121898 -0.035292 0.396204
v -0.137572 -0.035292 0.398241
v -0.142619 -0.035292 0.385998
v -0.139361 -0.035292 0.398238
v -0.143886 -0.035292 0.387261
v -0.141089 -0.035292 0.397772
v -0.144783 -0.035292 0.388809
v -0.142637 -0.035292 0.396874
v -0.145249 -0.035292 0.390537
v -0.143900 -0.035292 0.395607
v -0.145252 -0.035292 0.392326
v -0.144792 -0.035292 0.394056
v 0.018372 -0.015255 0.483372
v 0.018372 -0.035292 0.483372
v 0.022297 -0.015255 0.476440
v 0.022124 -0.015255 0.475602
v 0.021606 -0.015255 0.473734
v 0.082366 -0.015255 0.367445
v 0.088696 -0.015255 0.390307
v 0.086361 -0.015255 0.378647
v 0.089323 -0.015255 0.402183
v 0.076796 -0.015255 0.356938
v 0.069767 -0.015255 0.347345
v 0.088229 -0.015255 0.414025
v 0.061427 -0.015255 0.338868
v 0.085437 -0.015255 0.425585
v 0.051950 -0.015255 0.331683
v 0.081005 -0.015255 0.436620
v -0.141067 -0.015255 0.385106
v 0.075026 -0.015255 0.446900
v -0.106400 -0.015255 0.397715
v 0.029694 -0.015255 0.459452
v 0.028261 -0.015255 0.459952
v 0.026905 -0.015255 0.460634
v 0.025650 -0.015255 0.461488
v 0.024517 -0.015255 0.462499
v 0.023525 -0.015255 0.463648
v 0.022692 -0.015255 0.464918
v 0.022032 -0.015255 0.466285
v 0.021556 -0.015255 0.467726
v -0.092808 -0.015255 0.405311
v 0.021272 -0.015255 0.469218
v 0.021186 -0.015255 0.470733
v 0.021298 -0.015255 0.472247
v 0.022361 -0.015255 0.477294
v 0.022312 -0.015255 0.478148
v 0.022152 -0.015255 0.478989
v 0.021883 -0.015255 0.479801
v 0.021511 -0.015255 0.480572
v 0.021042 -0.015255 0.481288
v 0.020483 -0.015255 0.481936
v 0.019844 -0.015255 0.482505
v 0.019136 -0.015255 0.482987
v 0.018372 -0.015255 0.483372
v 0.017564 -0.015255 0.483653
v -0.083398 -0.015255 0.417717
v -0.121898 -0.015255 0.396204
v -0.137572 -0.015255 0.398241
v -0.142619 -0.015255 0.385998
v -0.139361 -0.015255 0.398238
v -0.143886 -0.015255 0.387261
v -0.141089 -0.015255 0.397772
v -0.144783 -0.015255 0.388809
v -0.142637 -0.015255 0.396874
v -0.145249 -0.015255 0.390537
v -0.143900 -0.015255 0.395607
v -0.145252 -0.015255 0.392326
v -0.144792 -0.015255 0.394056
v -0.104223 -0.015255 0.469544
v -0.374745 -0.015255 0.592275
v -0.091116 -0.015255 0.461140
v -0.082475 -0.015255 0.448186
v -0.079750 -0.015255 0.432855
v -0.119601 -0.015255 0.471991
v -0.287689 -0.015255 0.495101
v -0.413648 -0.024912 0.593966
v -0.374745 -0.035292 0.592275
v -0.374745 -0.015255 0.592275
v -0.413648 -0.025634 0.593966
v -0.428862 -0.025634 0.538996
v -0.287689 -0.035292 0.495101
v -0.374745 -0.035292 0.592275
v -0.119601 -0.035292 0.471991
v -0.287689 -0.015255 0.495101
v -0.119601 -0.015255 0.471991
v -0.287689 -0.035292 0.495101
v -0.104223 -0.015255 0.469544
v -0.104223 -0.035292 0.469544
v -0.091116 -0.015255 0.461140
v -0.091116 -0.035292 0.461140
v -0.082475 -0.015255 0.448186
v -0.082475 -0.035292 0.448186
v -0.079750 -0.035292 0.432855
v -0.079750 -0.015255 0.432855
v -0.083398 -0.035292 0.417717
v -0.083398 -0.015255 0.417717
v -0.092808 -0.035292 0.405311
v -0.092808 -0.015255 0.405311
v -0.106400 -0.035292 0.397715
v -0.106400 -0.015255 0.397715
v -0.121898 -0.035292 0.396204
v -0.121898 -0.015255 0.396204
v -0.137572 -0.035292 0.398241
v -0.137572 -0.015255 0.398241
v -0.139361 -0.015255 0.398238
v -0.139361 -0.035292 0.398238
v -0.141089 -0.035292 0.397772
v -0.141089 -0.015255 0.397772
v -0.142637 -0.035292 0.396874
v -0.142637 -0.015255 0.396874
v -0.143900 -0.015255 0.395607
v -0.143900 -0.035292 0.395607
v -0.144792 -0.035292 0.394056
v -0.144792 -0.015255 0.394056
v -0.145252 -0.035292 0.392326
v -0.145252 -0.015255 0.392326
v -0.145249 -0.035292 0.390537
v -0.145249 -0.015255 0.390537
v -0.144783 -0.035292 0.388809
v -0.144783 -0.015255 0.388809
v -0.143886 -0.015255 0.387261
v -0.143886 -0.035292 0.387261
v -0.142619 -0.015255 0.385998
v -0.142619 -0.035292 0.385998
v -0.141067 -0.035292 0.385106
v -0.141067 -0.015255 0.385106
v 0.051950 -0.015255 0.331683
v 0.051950 -0.035292 0.331683
v 0.061427 -0.035292 0.338868
v 0.051950 -0.015255 0.331683
v 0.061427 -0.015255 0.338868
v 0.051950 -0.035292 0.331683
v 0.069767 -0.015255 0.347345
v 0.069767 -0.035292 0.347345
v 0.076796 -0.015255 0.356938
v 0.076796 -0.035292 0.356938
v 0.082366 -0.015255 0.367445
v 0.082366 -0.035292 0.367445
v 0.086361 -0.015255 0.378647
v 0.086361 -0.035292 0.378647
v 0.088696 -0.015255 0.390307
v 0.088696 -0.035292 0.390307
v 0.089323 -0.015255 0.402183
v 0.089323 -0.035292 0.402183
v 0.088229 -0.015255 0.414025
v 0.088229 -0.035292 0.414025
v 0.085437 -0.015255 0.425585
v 0.085437 -0.035292 0.425585
v 0.081005 -0.035292 0.436620
v 0.081005 -0.015255 0.436620
v 0.075026 -0.035292 0.446900
v 0.075026 -0.015255 0.446900
v 0.029694 -0.015255 0.459452
v 0.075026 -0.035292 0.446900
v 0.075026 -0.015255 0.446900
v 0.029694 -0.035292 0.459452
v 0.028261 -0.035292 0.459952
v 0.028261 -0.015255 0.459952
v 0.026905 -0.035292 0.460634
v 0.026905 -0.015255 0.460634
v 0.025650 -0.035292 0.461488
v 0.025650 -0.015255 0.461488
v 0.024517 -0.035292 0.462499
v 0.024517 -0.015255 0.462499
v 0.023525 -0.015255 0.463648
v 0.023525 -0.035292 0.463648
v 0.022692 -0.015255 0.464918
v 0.022692 -0.035292 0.464918
v 0.022032 -0.035292 0.466285
v 0.022032 -0.015255 0.466285
v 0.021556 -0.035292 0.467726
v 0.021556 -0.015255 0.467726
v 0.021272 -0.035292 0.469218
v 0.021272 -0.015255 0.469218
v 0.021186 -0.035292 0.470733
v 0.021186 -0.015255 0.470733
v 0.021298 -0.035292 0.472247
v 0.021298 -0.015255 0.472247
v 0.021606 -0.035292 0.473734
v 0.021606 -0.015255 0.473734
v 0.022124 -0.035292 0.475602
v 0.022124 -0.015255 0.475602
v 0.022297 -0.015255 0.476440
v 0.022298 -0.035292 0.476440
v 0.022361 -0.035292 0.477294
v 0.022361 -0.015255 0.477294
v 0.022312 -0.035292 0.478148
v 0.022312 -0.015255 0.478148
v 0.022152 -0.015255 0.478989
v 0.022152 -0.035292 0.478989
v 0.021883 -0.035292 0.479801
v 0.021883 -0.015255 0.479801
v 0.021511 -0.015255 0.480572
v 0.021511 -0.035292 0.480572
v 0.021042 -0.015255 0.481288
v 0.021042 -0.035292 0.481288
v 0.020483 -0.035292 0.481936
v 0.020483 -0.015255 0.481936
v 0.019844 -0.035292 0.482505
v 0.019844 -0.015255 0.482505
v 0.019136 -0.015255 0.482987
v 0.019136 -0.035292 0.482987
v -0.428862 -0.024912 0.538996
v -0.374745 -0.015255 0.592275
v -0.287689 -0.015255 0.495101
v -0.413648 -0.024912 0.593966
v -0.374745 -0.015255 0.592275
v -0.428862 -0.024912 0.538996
v -0.428862 -0.024912 0.538996
v -0.413648 -0.025634 0.593966
v -0.413648 -0.024912 0.593966
v -0.428862 -0.025634 0.538996
v -0.413648 -0.025634 0.593966
v -0.428862 -0.025634 0.538996
v -0.374745 -0.035292 0.592275
v -0.287689 -0.035292 0.495101
v -0.428862 -0.024912 0.538996
v -0.287689 -0.015255 0.495101
v -0.428862 -0.025634 0.538996
vn 0.26683815299995894 -1.8840480835011656e-7 0.9637413553975647
vn 0.29822801465403836 -1.7873772350943555e-7 0.9544946575416118
vn 2.314993821672038e-7 -1 -2.595900491549042e-7
vn 0.3903488074750288 -1.486305037996239e-7 0.9206670454093601
vn -2.314993821269419e-7 1 2.5959004919424485e-7
vn 0.04342221211669513 -2.4929303378894445e-7 0.9990568109446182
vn -0.09406285466871309 -0.9919934355015358 -0.08426863766213954
vn -0.14668274121003402 2.2282526452112007e-7 -0.9891835893458102
vn -0.13620321259947926 2.256399611573491e-7 -0.9906809198109804
vn -0.3560011324413492 1.601691093750567e-7 -0.9344855235371233
vn -0.7006840397686542 2.3002234476775822e-8 -0.7134717068065688
vn -0.9278948530840215 -1.180210235861075e-7 -0.37284197942314395
vn -0.9995409720528466 -2.3925765980597564e-7 0.030295959921968648
vn -0.9036106929950801 -3.203819415641361e-7 0.4283546608884376
vn -0.656186998828899 -3.477931178966159e-7 0.7545983186886926
vn -0.298751300408272 -3.168955899164262e-7 0.9543310015420573
vn 0.01600427730729848 -2.558518350676071e-7 0.999871923352089
vn 0.06371551144393302 -2.4431250028542206e-7 0.9979681024969578
vn -0.1322026542547392 -2.8791639978220116e-7 0.9912227086825236
vn -0.3842453501126161 -3.286141637206314e-7 0.9232310170898317
vn -0.6101022442977045 -3.4691739810964373e-7 0.7923226940475602
vn -0.7943817287650851 -3.4157878869699923e-7 0.6074188579588867
vn -0.924525388162354 -3.129621521933932e-7 0.38112046211552414
vn -0.9916641807729728 -2.630176656926939e-7 0.1288493405951294
vn -0.9912227086825359 -1.9514896138269972e-7 -0.13220265425481573
vn -0.9232310170898517 -1.1398114666242421e-7 -0.3842453501126915
vn -0.7923226940475875 -2.5045743772690224e-8 -0.6101022442977672
vn -0.6074188579589247 6.559650527721817e-8 -0.7943817287651268
vn -0.38569638452649463 1.5021600057516724e-7 -0.9226257632231868
vn -0.26674820248432424 1.8843209582493254e-7 -0.9637662561385653
vn 0.6602312183867134 3.478114645742168e-7 -0.7510624063734482
vn 0.6041372522269995 3.467196100529161e-7 -0.7968802798861888
vn 0.7617535013057333 3.4452530023786647e-7 -0.6478669641587982
vn 0.8473130909262188 3.340191163145923e-7 -0.5310937073106268
vn 0.9151159800768129 3.1651309514910207e-7 -0.40319070302767845
vn 0.9637413553975482 2.923740730346172e-7 -0.26683815299992514
vn 0.9637413553975491 2.9237407303461646e-7 -0.26683815299992125
vn 0.9921701379863973 2.6210792973208207e-7 -0.12489362388842887
vn 0.9998065639902449 2.263489677834866e-7 0.019668111296434112
vn 0.9864906183413094 1.8584651690716368e-7 0.1638177643741573
vn 0.952501330800351 1.414493711361468e-7 0.30453442305187833
vn 0.898551053653339 9.408799193411595e-8 0.4388690054885005
vn 0.8644280959455263 6.960399726041305e-8 0.5027564688196339
vn 0.2668381529999729 -1.8840480835011217e-7 0.9637413553975607
vn 0.3903488074750288 -1.48630503799624e-7 0.9206670454093601
vn 0.507180449069138 -1.0631310396136368e-7 0.8618398877297431
vn 0.6153341440824275 -6.217663843303424e-8 0.7882663833542202
vn 0.7129592982224877 -1.697631305166932e-8 0.7012054186029208
vn 0.7983855056176707 2.8514474998834604e-8 0.6021466469387798
vn 0.8701511151770841 7.351737209338157e-8 0.49278498024602113
vn 0.9270281982481696 1.1726236659759309e-7 0.3749916261101558
vn 0.9680435724773722 1.5900096989548032e-7 0.25078206033371203
vn 0.9924954552974965 1.9801902817278944e-7 0.12228152441712528
vn 0.9999654606921647 2.336489249634358e-7 -0.00831128285237323
vn 0.9903257829231785 2.652810094782029e-7 -0.13876182355937594
vn 0.9719560550747651 2.860531004050208e-7 -0.23516255442441963
vn 0.9719560550747651 2.860531004050207e-7 -0.23516255442441963
vn 0.9903257829231785 2.652810094782028e-7 -0.13876182355937594
vn 0.9924954552974965 1.9801902817278955e-7 0.12228152441712528
vn 0.9680435724773722 1.5900096989548045e-7 0.25078206033371203
vn 0.9270281982481696 1.1726236659759322e-7 0.3749916261101558
vn 0.7129592982224877 -1.6976313051669198e-8 0.7012054186029208
vn 0.6153341440824275 -6.217663843303413e-8 0.7882663833542202
vn 0.507180449069138 -1.0631310396136352e-7 0.8618398877297431
vn -0.09406331396045003 0.9919934357009097 -0.0842681226388883
vn -0.23771421975724794 0.969104277747702 0.06579398586730852
vn -0.9637662561385558 -2.9235648148148603e-7 0.2667482024842646
vn -0.23771377106312766 -0.9691044219677867 0.06579348272761464
vn -0.2969132152284288 1.7914843054767232e-7 -0.9549044677991013
usemtl material_0_0
f 1//1 2//2 3//1
f 2//2 1//1 4//2
f 5//3 6//3 7//3
f 8//3 9//3 10//3
f 9//3 8//3 11//3
f 11//3 8//3 12//3
f 12//3 8//3 13//3
f 13//3 8//3 14//3
f 13//3 14//3 15//3
f 15//3 14//3 16//3
f 17//3 18//3 19//3
f 18//3 17//3 20//3
f 18//3 20//3 21//3
f 21//3 20//3 22//3
f 22//3 20//3 23//3
f 22//3 23//3 24//3
f 24//3 23//3 25//3
f 24//3 25//3 26//3
f 26//3 25//3 27//3
f 26//3 27//3 28//3
f 28//3 27//3 29//3
f 28//3 29//3 30//3
f 30//3 29//3 31//3
f 30//3 31//3 32//3
f 30//3 32//3 33//3
f 30//3 33//3 34//3
f 30//3 34//3 35//3
f 30//3 35//3 36//3
f 30//3 36//3 37//3
f 30//3 37//3 38//3
f 30//3 38//3 39//3
f 30//3 39//3 40//3
f 40//3 39//3 41//3
f 40//3 41//3 42//3
f 40//3 42//3 43//3
f 40//3 43//3 6//3
f 40//3 6//3 5//3
f 40//3 5//3 44//3
f 40//3 44//3 45//3
f 40//3 45//3 46//3
f 40//3 46//3 47//3
f 40//3 47//3 48//3
f 40//3 48//3 49//3
f 40//3 49//3 50//3
f 40//3 50//3 51//3
f 40//3 51//3 52//3
f 40//3 52//3 53//3
f 40//3 53//3 8//3
f 40//3 8//3 10//3
f 28//3 30//3 54//3
f 28//3 54//3 55//3
f 28//3 55//3 56//3
f 56//3 55//3 57//3
f 56//3 57//3 58//3
f 58//3 57//3 59//3
f 58//3 59//3 60//3
f 60//3 59//3 61//3
f 60//3 61//3 62//3
f 62//3 61//3 63//3
f 62//3 63//3 64//3
f 64//3 63//3 65//3
f 4//2 66//4 2//2
f 66//4 4//2 67//4
f 68//5 69//5 70//5
f 71//5 72//5 73//5
f 72//5 71//5 74//5
f 74//5 71//5 75//5
f 74//5 75//5 76//5
f 74//5 76//5 77//5
f 77//5 76//5 78//5
f 77//5 78//5 79//5
f 79//5 78//5 80//5
f 79//5 80//5 81//5
f 81//5 80//5 82//5
f 81//5 82//5 83//5
f 83//5 82//5 84//5
f 83//5 84//5 85//5
f 85//5 84//5 86//5
f 86//5 84//5 87//5
f 87//5 84//5 88//5
f 88//5 84//5 89//5
f 89//5 84//5 90//5
f 90//5 84//5 91//5
f 91//5 84//5 92//5
f 92//5 84//5 93//5
f 93//5 84//5 94//5
f 93//5 94//5 95//5
f 95//5 94//5 96//5
f 96//5 94//5 97//5
f 97//5 94//5 70//5
f 70//5 94//5 68//5
f 68//5 94//5 98//5
f 98//5 94//5 99//5
f 99//5 94//5 100//5
f 100//5 94//5 101//5
f 101//5 94//5 102//5
f 102//5 94//5 103//5
f 103//5 94//5 104//5
f 104//5 94//5 105//5
f 105//5 94//5 106//5
f 106//5 94//5 107//5
f 107//5 94//5 108//5
f 108//5 94//5 109//5
f 84//5 82//5 110//5
f 110//5 82//5 111//5
f 111//5 82//5 112//5
f 111//5 112//5 113//5
f 113//5 112//5 114//5
f 113//5 114//5 115//5
f 115//5 114//5 116//5
f 115//5 116//5 117//5
f 117//5 116//5 118//5
f 117//5 118//5 119//5
f 119//5 118//5 120//5
f 119//5 120//5 121//5
f 108//5 122//5 123//5
f 122//5 108//5 124//5
f 124//5 108//5 125//5
f 125//5 108//5 126//5
f 126//5 108//5 109//5
f 123//5 122//5 127//5
f 123//5 127//5 128//5
f 129//6 130//6 131//6
f 130//6 129//6 132//6
f 133//7 134//7 135//7
f 136//8 137//9 138//8
f 137//9 136//8 139//9
f 140//10 136//8 138//8
f 136//8 140//10 141//10
f 142//11 141//10 140//10
f 141//10 142//11 143//11
f 144//12 143//11 142//11
f 143//11 144//12 145//12
f 144//12 146//13 145//12
f 146//13 144//12 147//13
f 147//13 148//14 146//13
f 148//14 147//13 149//14
f 149//14 150//15 148//14
f 150//15 149//14 151//15
f 152//16 151//15 153//16
f 151//15 152//16 150//15
f 154//17 153//16 155//17
f 153//16 154//17 152//16
f 156//18 155//17 157//18
f 155//17 156//18 154//17
f 158//19 156//18 157//18
f 156//18 158//19 159//19
f 160//20 158//19 161//20
f 158//19 160//20 159//19
f 161//20 162//21 160//20
f 162//21 161//20 163//21
f 164//22 162//21 163//21
f 162//21 164//22 165//22
f 164//22 166//23 165//22
f 166//23 164//22 167//23
f 167//23 168//24 166//23
f 168//24 167//23 169//24
f 169//24 170//25 168//24
f 170//25 169//24 171//25
f 171//25 172//26 170//25
f 172//26 171//25 173//26
f 174//27 172//26 173//26
f 172//26 174//27 175//27
f 176//28 175//27 174//27
f 175//27 176//28 177//28
f 178//29 176//28 179//29
f 176//28 178//29 177//28
f 180//30 178//29 179//29
f 178//29 180//30 181//30
f 182//31 183//32 184//31
f 183//32 182//31 185//32
f 182//31 186//33 187//33
f 186//33 182//31 184//31
f 187//33 188//34 189//34
f 188//34 187//33 186//33
f 189//34 190//35 191//35
f 190//35 189//34 188//34
f 191//35 192//36 193//37
f 192//36 191//35 190//35
f 193//37 194//38 195//38
f 194//38 193//37 192//36
f 195//38 196//39 197//39
f 196//39 195//38 194//38
f 197//39 198//40 199//40
f 198//40 197//39 196//39
f 199//40 200//41 201//41
f 200//41 199//40 198//40
f 202//42 200//41 203//42
f 200//41 202//42 201//41
f 204//43 203//42 205//43
f 203//42 204//43 202//42
f 206//2 207//44 208//44
f 207//44 206//2 209//2
f 210//45 206//2 211//45
f 206//2 210//45 209//2
f 212//46 211//45 213//46
f 211//45 212//46 210//45
f 214//47 213//46 215//47
f 213//46 214//47 212//46
f 216//48 215//47 217//48
f 215//47 216//48 214//47
f 218//49 216//48 217//48
f 216//48 218//49 219//49
f 220//50 219//49 218//49
f 219//49 220//50 221//50
f 222//51 220//50 223//51
f 220//50 222//51 221//50
f 224//52 223//51 225//52
f 223//51 224//52 222//51
f 226//53 225//52 227//53
f 225//52 226//53 224//52
f 228//54 227//53 229//54
f 227//53 228//54 226//53
f 230//55 229//54 231//55
f 229//54 230//55 228//54
f 232//56 231//55 233//56
f 231//55 232//56 230//55
f 234//57 233//56 235//57
f 233//56 234//57 232//56
f 234//57 236//58 237//58
f 236//58 234//57 235//57
f 238//54 236//58 239//54
f 236//58 238//54 237//58
f 240//59 239//54 241//59
f 239//54 240//59 238//54
f 240//59 242//60 243//60
f 242//60 240//59 241//59
f 244//61 242//60 245//61
f 242//60 244//61 243//60
f 244//61 246//50 247//50
f 246//50 244//61 245//61
f 248//49 247//50 246//50
f 247//50 248//49 249//49
f 250//62 248//49 251//62
f 248//49 250//62 249//49
f 252//63 251//62 253//63
f 251//62 252//63 250//62
f 254//64 252//63 253//63
f 252//63 254//64 255//64
f 67//4 254//64 66//4
f 254//64 67//4 255//64
f 256//65 257//65 258//65
f 259//66 260//66 261//66
f 262//67 263//67 264//67
f 263//67 262//67 265//67
f 266//68 267//68 268//68
f 269//69 270//69 271//69
f 270//69 269//69 272//69
