# SSTK version 0.8.0
# 92
mtllib original-92.mtl
o #ID391
v 0.205844 0.069473 0.057126
v 0.196934 0.067259 0.033157
v 0.202920 0.059803 0.021151
v 0.202920 0.059803 0.021151
v 0.196934 0.067259 0.033157
v 0.205844 0.069473 0.057126
v 0.195752 0.059803 0.014603
v 0.195752 0.059803 0.014603
v 0.208937 0.059803 0.028771
v 0.208937 0.059803 0.028771
v 0.179406 0.070347 -0.044617
v 0.205844 0.069473 0.057126
v 0.206748 0.070347 0.056882
v 0.174651 0.068358 -0.054085
v 0.196934 0.067259 0.033157
v 0.168576 0.067706 -0.073954
v 0.168115 0.067259 -0.073829
v 0.168115 0.067259 -0.073829
v 0.168576 0.067706 -0.073954
v 0.196934 0.067259 0.033157
v 0.174651 0.068358 -0.054085
v 0.205844 0.069473 0.057126
v 0.179406 0.070347 -0.044617
v 0.206748 0.070347 0.056882
v 0.191617 0.063663 0.021405
v 0.191617 0.063663 0.021405
v 0.205844 0.069473 0.057126
v 0.208937 0.059803 0.028771
v 0.213646 0.059803 0.037262
v 0.213646 0.059803 0.037262
v 0.208937 0.059803 0.028771
v 0.205844 0.069473 0.057126
v 0.205844 0.069473 0.057126
v 0.208937 0.059803 0.028771
v 0.213646 0.059803 0.037262
v 0.213646 0.059803 0.037262
v 0.208937 0.059803 0.028771
v 0.205844 0.069473 0.057126
v 0.186174 0.072717 -0.036051
v 0.204284 0.072717 0.031177
v 0.207925 0.071018 0.056565
v 0.207925 0.071018 0.056565
v 0.204284 0.072717 0.031177
v 0.186174 0.072717 -0.036051
v 0.174651 0.068358 -0.054085
v 0.193605 0.070347 -0.048442
v 0.190906 0.068358 -0.058464
v 0.179406 0.070347 -0.044617
v 0.179406 0.070347 -0.044617
v 0.174651 0.068358 -0.054085
v 0.193605 0.070347 -0.048442
v 0.190906 0.068358 -0.058464
v 0.170935 0.067706 -0.072844
v 0.168576 0.067706 -0.073954
v 0.189368 0.067706 -0.064171
v 0.189368 0.067706 -0.064171
v 0.170935 0.067706 -0.072844
v 0.168576 0.067706 -0.073954
v 0.170496 0.059803 -0.074471
v 0.168576 0.067706 -0.073954
v 0.170496 0.067706 -0.074471
v 0.165424 0.059803 -0.073104
v 0.168115 0.067259 -0.073829
v 0.166109 0.063663 -0.073289
v 0.166109 0.063663 -0.073289
v 0.165424 0.059803 -0.073104
v 0.168115 0.067259 -0.073829
v 0.168576 0.067706 -0.073954
v 0.170496 0.059803 -0.074471
v 0.170496 0.067706 -0.074471
v 0.191617 0.063663 0.021405
v 0.166109 0.063663 -0.073289
v 0.166109 0.063663 -0.073289
v 0.191617 0.063663 0.021405
v 0.187621 0.059803 0.009297
v 0.187621 0.059803 0.009297
v 0.205844 0.069473 0.057126
v 0.213646 0.059803 0.037262
v 0.216922 0.059803 0.046402
v 0.216922 0.059803 0.046402
v 0.213646 0.059803 0.037262
v 0.205844 0.069473 0.057126
v 0.193369 0.074207 -0.028625
v 0.205816 0.074207 0.017580
v 0.205816 0.074207 0.017580
v 0.193369 0.074207 -0.028625
v 0.198636 0.072717 -0.039408
v 0.186174 0.072717 -0.036051
v 0.186174 0.072717 -0.036051
v 0.198636 0.072717 -0.039408
v 0.211714 0.066333 0.018782
v 0.204284 0.072717 0.031177
v 0.207925 0.071018 0.056565
v 0.207925 0.071018 0.056565
v 0.204284 0.072717 0.031177
v 0.211714 0.066333 0.018782
v 0.170935 0.067706 -0.072844
v 0.170496 0.067706 -0.074471
v 0.168576 0.067706 -0.073954
v 0.168576 0.067706 -0.073954
v 0.170496 0.067706 -0.074471
v 0.170935 0.067706 -0.072844
v 0.165424 0.059803 -0.073104
v 0.187621 0.059803 0.009297
v 0.187621 0.059803 0.009297
v 0.165424 0.059803 -0.073104
v 0.228223 0.059803 0.088355
v 0.206402 0.069338 0.058472
v 0.206959 0.069203 0.059818
v 0.207549 0.069042 0.061145
v 0.208139 0.068881 0.062471
v 0.208762 0.068694 0.063776
v 0.209384 0.068506 0.065081
v 0.210037 0.068293 0.066362
v 0.210691 0.068079 0.067644
v 0.211375 0.067840 0.068901
v 0.212058 0.067601 0.070158
v 0.212772 0.067337 0.071388
v 0.213485 0.067072 0.072618
v 0.214227 0.066783 0.073820
v 0.214969 0.066493 0.075022
v 0.215739 0.066179 0.076194
v 0.216508 0.065865 0.077366
v 0.217304 0.065526 0.078507
v 0.218101 0.065188 0.079648
v 0.218922 0.064826 0.080756
v 0.219744 0.064463 0.081864
v 0.220590 0.064078 0.082938
v 0.221436 0.063692 0.084012
v 0.222306 0.063284 0.085050
v 0.223175 0.062875 0.086089
v 0.223546 0.062694 0.086491
v 0.223933 0.062494 0.086860
v 0.227796 0.060107 0.088400
v 0.224335 0.062278 0.087194
v 0.227363 0.060407 0.088400
v 0.224750 0.062047 0.087490
v 0.226924 0.060703 0.088356
v 0.225174 0.061801 0.087746
v 0.226484 0.060991 0.088268
v 0.225606 0.061542 0.087962
v 0.226044 0.061271 0.088137
v 0.226044 0.061271 0.088137
v 0.226484 0.060991 0.088268
v 0.225606 0.061542 0.087962
v 0.225174 0.061801 0.087746
v 0.226924 0.060703 0.088356
v 0.224750 0.062047 0.087490
v 0.227363 0.060407 0.088400
v 0.224335 0.062278 0.087194
v 0.227796 0.060107 0.088400
v 0.223933 0.062494 0.086860
v 0.228223 0.059803 0.088355
v 0.223546 0.062694 0.086491
v 0.223175 0.062875 0.086089
v 0.222306 0.063284 0.085050
v 0.221436 0.063692 0.084012
v 0.220590 0.064078 0.082938
v 0.219744 0.064463 0.081864
v 0.218922 0.064826 0.080756
v 0.218101 0.065188 0.079648
v 0.217304 0.065526 0.078507
v 0.216508 0.065865 0.077366
v 0.215739 0.066179 0.076194
v 0.214969 0.066493 0.075022
v 0.214227 0.066783 0.073820
v 0.213485 0.067072 0.072618
v 0.212772 0.067337 0.071388
v 0.212058 0.067601 0.070158
v 0.211375 0.067840 0.068901
v 0.210691 0.068079 0.067644
v 0.210037 0.068293 0.066362
v 0.209384 0.068506 0.065081
v 0.208762 0.068694 0.063776
v 0.208139 0.068881 0.062471
v 0.207549 0.069042 0.061145
v 0.206959 0.069203 0.059818
v 0.206402 0.069338 0.058472
v 0.200534 0.074715 -0.022722
v 0.207701 0.074715 0.003888
v 0.207701 0.074715 0.003888
v 0.200534 0.074715 -0.022722
v 0.200988 0.074207 -0.030677
v 0.193369 0.074207 -0.028625
v 0.193369 0.074207 -0.028625
v 0.200988 0.074207 -0.030677
v 0.209584 0.070075 0.010877
v 0.205816 0.074207 0.017580
v 0.205816 0.074207 0.017580
v 0.209584 0.070075 0.010877
v 0.214035 0.063588 0.027398
v 0.214035 0.063588 0.027398
v 0.200534 0.074715 -0.022722
v 0.200534 0.074715 -0.022722
v 0.207701 0.074715 0.003888
v 0.207701 0.074715 0.003888
v 0.216486 0.061912 0.036497
v 0.214035 0.063588 0.027398
v 0.207925 0.071018 0.056565
v 0.207925 0.071018 0.056565
v 0.214035 0.063588 0.027398
v 0.216486 0.061912 0.036497
v 0.207925 0.071018 0.056565
v 0.219003 0.061348 0.045841
v 0.216486 0.061912 0.036497
v 0.216486 0.061912 0.036497
v 0.219003 0.061348 0.045841
v 0.207925 0.071018 0.056565
v 0.230304 0.061348 0.087795
v 0.208482 0.070883 0.057911
v 0.209040 0.070749 0.059258
v 0.209630 0.070587 0.060584
v 0.210220 0.070426 0.061910
v 0.210842 0.070239 0.063215
v 0.211464 0.070051 0.064520
v 0.212118 0.069838 0.065802
v 0.212771 0.069624 0.067084
v 0.213455 0.069385 0.068340
v 0.214139 0.069146 0.069597
v 0.214853 0.068882 0.070827
v 0.215566 0.068617 0.072057
v 0.216308 0.068328 0.073259
v 0.217050 0.068038 0.074461
v 0.217819 0.067724 0.075634
v 0.218589 0.067410 0.076806
v 0.219385 0.067071 0.077947
v 0.220181 0.066733 0.079088
v 0.221003 0.066371 0.080196
v 0.221825 0.066008 0.081304
v 0.222671 0.065623 0.082378
v 0.223517 0.065237 0.083452
v 0.224387 0.064829 0.084490
v 0.225256 0.064421 0.085528
v 0.225627 0.064239 0.085931
v 0.226014 0.064040 0.086300
v 0.229877 0.061652 0.087839
v 0.226416 0.063823 0.086633
v 0.229443 0.061953 0.087839
v 0.226831 0.063592 0.086929
v 0.229005 0.062248 0.087796
v 0.227255 0.063346 0.087186
v 0.228565 0.062536 0.087708
v 0.227687 0.063087 0.087402
v 0.228124 0.062817 0.087576
v 0.228124 0.062817 0.087576
v 0.227687 0.063087 0.087402
v 0.228565 0.062536 0.087708
v 0.227255 0.063346 0.087186
v 0.229005 0.062248 0.087796
v 0.226831 0.063592 0.086929
v 0.229443 0.061953 0.087839
v 0.226416 0.063823 0.086633
v 0.229877 0.061652 0.087839
v 0.226014 0.064040 0.086300
v 0.230304 0.061348 0.087795
v 0.225627 0.064239 0.085931
v 0.225256 0.064421 0.085528
v 0.224387 0.064829 0.084490
v 0.223517 0.065237 0.083452
v 0.222671 0.065623 0.082378
v 0.221825 0.066008 0.081304
v 0.221003 0.066371 0.080196
v 0.220181 0.066733 0.079088
v 0.219385 0.067071 0.077947
v 0.218589 0.067410 0.076806
v 0.217819 0.067724 0.075634
v 0.217050 0.068038 0.074461
v 0.216308 0.068328 0.073259
v 0.215566 0.068617 0.072057
v 0.214853 0.068882 0.070827
v 0.214139 0.069146 0.069597
v 0.213455 0.069385 0.068340
v 0.212771 0.069624 0.067084
v 0.212118 0.069838 0.065802
v 0.211464 0.070051 0.064520
v 0.210842 0.070239 0.063215
v 0.210220 0.070426 0.061910
v 0.209630 0.070587 0.060584
v 0.209040 0.070749 0.059258
v 0.208482 0.070883 0.057911
vn -0.44462318769181797 -0.8552966336072104 0.2660411425079582
vn -0.44486308548192455 -0.8457682559928684 0.2945723889475788
vn -0.36912577763107346 -0.8693823520683626 0.32851253583438345
vn -0.2647071022507248 -0.8909879976904543 0.368877402384016
vn -0.3416132687847739 -0.9002932560520244 0.26976365154969656
vn -0.6307477249004928 0.7571582661562882 0.16990782066772403
vn -0.6482902331789361 0.7300514234205985 0.2162052097576714
vn -0.5526756789827597 0.8121170891360295 0.18712409624141832
vn -0.6592623618650337 0.7306403332991117 0.17758896808276112
vn -0.681642972155475 0.7082707018731323 0.18361773165789466
vn -0.7520878362133494 0.627152004611235 0.20259380477208988
vn -0.2260478026904426 -0.8998296746236095 0.373107152927402
vn -0.44307597948993194 -0.8621599765640446 0.2456905598718101
vn -0.43287643855919994 0.8938797365846839 0.11660619822118985
vn -0.4426680503775139 0.8887215009783357 0.11924382949983092
vn -0.45554082981134153 0.8755409396137867 0.16096774656744672
vn -0.018026695049531402 0.9935415237319583 -0.11202802723412435
vn -0.054746767437771855 0.9775980319479038 -0.203236018920613
vn -0.03871997288841241 0.9888577283011902 -0.14373989313523844
vn -0.053302800826950734 0.978776782653121 -0.1978757720470277
vn 0.018019680050682177 0.9991038778579487 -0.0382979422434154
vn -0.00713055308543094 0.9971674803739476 -0.07487437009664111
vn -0.2601035480345011 0 -0.965580729043338
vn -0.8553055906360436 0.46407870880339075 0.23039813076955737
vn -0.9044917898085945 0.3500434112055563 0.24364772200950963
vn -0.23849506522891167 -0.8997427188940267 0.36549027847350707
vn -0.5576814347076744 -0.8147619528246186 0.15860131655129564
vn -0.5337839156999045 -0.8236898026894746 0.19133698096670076
vn -0.5451174333833312 -0.8196752410250372 0.17600989481309437
vn -0.23911498156132938 0.9688525012431244 0.06441161718096153
vn -0.2511479134163009 0.9655815837037862 0.06765301766164272
vn -0.05031513358258784 0.9811115622557681 -0.18678460787927006
vn -0.05356926774456305 0.9785617458553058 -0.19886488654844808
vn 0.7294651066961444 0.6816476359407637 0.05689603263102715
vn 0.6655276686331612 0.7463531251747599 0.005471272756731322
vn 0.6706431418392702 0.741369504041906 -0.024678630039177547
vn 0 1 0
vn -0.9497058727384546 0.1805856152981423 0.25582726757224616
vn -0.5626652856757388 -0.8126714587099036 0.15156805894962433
vn -0.09074814601467561 0.9955738053340853 0.024445288452128504
vn -0.031235931109550932 0.9927629591673707 -0.1159569899271492
vn -0.03441275123492086 0.9912091816998896 -0.12775022765646615
vn 0.808884570376421 0.5733864472486178 0.13012968115906773
vn 0.8380251673260188 0.5253795439152467 0.14727577453065938
vn 0.7675220965930053 0.6410175341701368 -0.002520342816937625
vn -0.017435745019787313 0.9977507013014603 -0.0647266007762601
vn 0.8310202958046427 0.539739461273933 0.1344863632659048
vn 0.675023101516118 0.736349919421353 -0.04618017526740005
vn 0.5676169912251264 0.8105116296706021 -0.14450553429277174
vn 0.5798212381565948 0.8048212308411634 -0.1267679698104703
vn 0.5904984047947214 0.799390815311019 -0.11084204225506591
vn 0.5626652856757388 0.8126714587099036 -0.15156805894962433
vn 0.36912577763107346 0.8693823520683626 -0.32851253583438345
vn 0.44486308548192455 0.8457682559928684 -0.2945723889475788
vn 0.44462318769181797 0.8552966336072104 -0.2660411425079582
vn 0.2647071022507248 0.8909879976904543 -0.368877402384016
vn 0.3416132687847739 0.9002932560520244 -0.26976365154969656
vn 0.7520878362133494 -0.627152004611235 -0.20259380477208988
vn 0.6592623618650337 -0.7306403332991117 -0.17758896808276112
vn 0.681642972155475 -0.7082707018731323 -0.18361773165789466
vn 0.6482902331789361 -0.7300514234205985 -0.2162052097576714
vn 0.6307477249004928 -0.7571582661562882 -0.16990782066772403
vn 0.5526756789827597 -0.8121170891360295 -0.18712409624141832
vn 0.2260478026904426 0.8998296746236095 -0.373107152927402
vn 0.44307597948993194 0.8621599765640446 -0.2456905598718101
vn 0.45554082981134153 -0.8755409396137867 -0.16096774656744672
vn 0.4426680503775139 -0.8887215009783357 -0.11924382949983092
vn 0.43287643855919994 -0.8938797365846839 -0.11660619822118985
vn 0.053302800826950734 -0.978776782653121 0.1978757720470277
vn 0.018026695049531402 -0.9935415237319583 0.11202802723412435
vn 0.054746767437771855 -0.9775980319479038 0.203236018920613
vn 0.03871997288841241 -0.9888577283011902 0.14373989313523844
vn 0.00713055308543094 -0.9971674803739476 0.07487437009664111
vn -0.018019680050682177 -0.9991038778579487 0.0382979422434154
vn 0.2601035480345011 0 0.965580729043338
vn 0.9044917898085945 -0.3500434112055563 -0.24364772200950963
vn 0.8553055906360436 -0.46407870880339075 -0.23039813076955737
vn 0.23849506522891167 0.8997427188940267 -0.36549027847350707
vn 0.5451174333833312 0.8196752410250372 -0.17600989481309437
vn 0.5337839156999045 0.8236898026894746 -0.19133698096670076
vn 0.5576814347076744 0.8147619528246186 -0.15860131655129564
vn 0.2511479134163009 -0.9655815837037862 -0.06765301766164272
vn 0.23911498156132938 -0.9688525012431244 -0.06441161718096153
vn 0.05356926774456305 -0.9785617458553058 0.19886488654844808
vn 0.05031513358258784 -0.9811115622557681 0.18678460787927006
vn -0.6706431418392702 -0.741369504041906 0.024678630039177547
vn -0.6655276686331612 -0.7463531251747599 -0.005471272756731322
vn -0.7294651066961444 -0.6816476359407637 -0.05689603263102715
vn 0 -1 0
vn 0.9497058727384546 -0.1805856152981423 -0.25582726757224616
vn 0.09074814601467561 -0.9955738053340853 -0.024445288452128504
vn 0.03441275123492086 -0.9912091816998896 0.12775022765646615
vn 0.031235931109550932 -0.9927629591673707 0.1159569899271492
vn -0.8380251673260188 -0.5253795439152467 -0.14727577453065938
vn -0.808884570376421 -0.5733864472486178 -0.13012968115906773
vn -0.7675220965930053 -0.6410175341701368 0.002520342816937625
vn 0.017435745019787313 -0.9977507013014603 0.0647266007762601
vn -0.8310202958046427 -0.539739461273933 -0.1344863632659048
vn -0.675023101516118 -0.736349919421353 0.04618017526740005
vn -0.5904984047947214 -0.799390815311019 0.11084204225506591
vn -0.5798212381565948 -0.8048212308411634 0.1267679698104703
vn -0.5676169912251264 -0.8105116296706021 0.14450553429277174
usemtl material_0_0
f 1//1 2//2 3//3
f 2//2 7//4 3//3
f 1//1 3//3 9//5
f 11//6 12//7 13//8
f 12//7 11//6 14//9
f 12//7 14//9 15//10
f 15//10 14//9 16//9
f 15//10 16//9 17//11
f 2//2 25//12 7//4
f 27//13 28//13 29//13
f 33//13 34//13 35//13
f 13//8 39//14 11//6
f 39//14 13//8 40//15
f 40//15 13//8 41//16
f 45//17 46//18 47//19
f 46//18 45//17 48//20
f 45//17 53//21 54//21
f 53//21 45//17 55//22
f 59//23 60//23 61//23
f 60//23 59//23 62//23
f 60//23 62//23 63//23
f 63//23 62//23 64//23
f 17//11 71//24 15//10
f 71//24 17//11 72//25
f 25//12 75//26 7//4
f 77//27 78//28 79//29
f 40//15 83//30 39//14
f 83//30 40//15 84//31
f 48//20 87//32 46//18
f 87//32 48//20 88//33
f 91//34 92//35 93//36
f 45//17 47//19 55//22
f 97//37 98//37 99//37
f 103//38 71//24 72//25
f 71//24 103//38 104//38
f 107//39 77//27 79//29
f 77//27 107//39 108//39
f 108//39 107//39 109//39
f 109//39 107//39 110//39
f 110//39 107//39 111//39
f 111//39 107//39 112//39
f 112//39 107//39 113//39
f 113//39 107//39 114//39
f 114//39 107//39 115//39
f 115//39 107//39 116//39
f 116//39 107//39 117//39
f 117//39 107//39 118//39
f 118//39 107//39 119//39
f 119//39 107//39 120//39
f 120//39 107//39 121//39
f 121//39 107//39 122//39
f 122//39 107//39 123//39
f 123//39 107//39 124//39
f 124//39 107//39 125//39
f 125//39 107//39 126//39
f 126//39 107//39 127//39
f 127//39 107//39 128//39
f 128//39 107//39 129//39
f 129//39 107//39 130//39
f 130//39 107//39 131//39
f 131//39 107//39 132//39
f 132//39 107//39 133//39
f 133//39 107//39 134//39
f 133//39 134//39 135//39
f 135//39 134//39 136//39
f 135//39 136//39 137//39
f 137//39 136//39 138//39
f 137//39 138//39 139//39
f 139//39 138//39 140//39
f 139//39 140//39 141//39
f 141//39 140//39 142//39
f 84//31 179//40 83//30
f 179//40 84//31 180//40
f 88//33 183//41 87//32
f 183//41 88//33 184//42
f 187//43 188//44 92//35
f 91//34 187//43 92//35
f 191//45 91//34 93//36
f 193//46 183//41 184//42
f 187//43 195//47 188//44
f 197//48 198//48 199//48
f 197//48 198//48 199//48
f 203//49 204//50 205//51
f 203//49 209//52 204//50
f 209//52 203//49 210//52
f 209//52 210//52 211//52
f 209//52 211//52 212//52
f 209//52 212//52 213//52
f 209//52 213//52 214//52
f 209//52 214//52 215//52
f 209//52 215//52 216//52
f 209//52 216//52 217//52
f 209//52 217//52 218//52
f 209//52 218//52 219//52
f 209//52 219//52 220//52
f 209//52 220//52 221//52
f 209//52 221//52 222//52
f 209//52 222//52 223//52
f 209//52 223//52 224//52
f 209//52 224//52 225//52
f 209//52 225//52 226//52
f 209//52 226//52 227//52
f 209//52 227//52 228//52
f 209//52 228//52 229//52
f 209//52 229//52 230//52
f 209//52 230//52 231//52
f 209//52 231//52 232//52
f 209//52 232//52 233//52
f 209//52 233//52 234//52
f 209//52 234//52 235//52
f 209//52 235//52 236//52
f 236//52 235//52 237//52
f 236//52 237//52 238//52
f 238//52 237//52 239//52
f 238//52 239//52 240//52
f 240//52 239//52 241//52
f 240//52 241//52 242//52
f 242//52 241//52 243//52
f 242//52 243//52 244//52
usemtl material_1_0
f 4//53 5//54 6//55
f 4//53 8//56 5//54
f 10//57 4//53 6//55
f 18//58 19//59 20//60
f 19//59 21//59 20//60
f 20//60 21//59 22//61
f 21//59 23//62 22//61
f 24//63 22//61 23//62
f 8//56 26//64 5//54
f 30//65 31//65 32//65
f 36//65 37//65 38//65
f 42//66 24//63 43//67
f 43//67 24//63 44//68
f 23//62 44//68 24//63
f 49//69 50//70 51//71
f 52//72 51//71 50//70
f 56//73 50//70 57//74
f 58//74 57//74 50//70
f 65//75 66//75 67//75
f 67//75 66//75 68//75
f 66//75 69//75 68//75
f 70//75 68//75 69//75
f 73//76 18//58 74//77
f 20//60 74//77 18//58
f 8//56 76//78 26//64
f 80//79 81//80 82//81
f 85//82 43//67 86//83
f 44//68 86//83 43//67
f 89//84 49//69 90//85
f 51//71 90//85 49//69
f 94//86 95//87 96//88
f 56//73 52//72 50//70
f 100//89 101//89 102//89
f 105//90 106//90 74//77
f 73//76 74//77 106//90
f 143//52 144//52 145//52
f 145//52 144//52 146//52
f 144//52 147//52 146//52
f 146//52 147//52 148//52
f 147//52 149//52 148//52
f 148//52 149//52 150//52
f 149//52 151//52 150//52
f 150//52 151//52 152//52
f 151//52 153//52 152//52
f 152//52 153//52 154//52
f 154//52 153//52 155//52
f 155//52 153//52 156//52
f 156//52 153//52 157//52
f 157//52 153//52 158//52
f 158//52 153//52 159//52
f 159//52 153//52 160//52
f 160//52 153//52 161//52
f 161//52 153//52 162//52
f 162//52 153//52 163//52
f 163//52 153//52 164//52
f 164//52 153//52 165//52
f 165//52 153//52 166//52
f 166//52 153//52 167//52
f 167//52 153//52 168//52
f 168//52 153//52 169//52
f 169//52 153//52 170//52
f 170//52 153//52 171//52
f 171//52 153//52 172//52
f 172//52 153//52 173//52
f 173//52 153//52 174//52
f 174//52 153//52 175//52
f 175//52 153//52 176//52
f 176//52 153//52 177//52
f 177//52 153//52 178//52
f 178//52 153//52 82//81
f 80//79 82//81 153//52
f 181//91 85//82 182//91
f 86//83 182//91 85//82
f 185//92 89//84 186//93
f 90//85 186//93 89//84
f 95//87 189//94 190//95
f 95//87 190//95 96//88
f 94//86 96//88 192//96
f 185//92 186//93 194//97
f 189//94 196//98 190//95
f 200//99 201//99 202//99
f 200//99 201//99 202//99
f 206//100 207//101 208//102
f 245//39 246//39 247//39
f 246//39 248//39 247//39
f 247//39 248//39 249//39
f 248//39 250//39 249//39
f 249//39 250//39 251//39
f 250//39 252//39 251//39
f 251//39 252//39 253//39
f 252//39 254//39 253//39
f 253//39 254//39 255//39
f 254//39 256//39 255//39
f 256//39 257//39 255//39
f 257//39 258//39 255//39
f 258//39 259//39 255//39
f 259//39 260//39 255//39
f 260//39 261//39 255//39
f 261//39 262//39 255//39
f 262//39 263//39 255//39
f 263//39 264//39 255//39
f 264//39 265//39 255//39
f 265//39 266//39 255//39
f 266//39 267//39 255//39
f 267//39 268//39 255//39
f 268//39 269//39 255//39
f 269//39 270//39 255//39
f 270//39 271//39 255//39
f 271//39 272//39 255//39
f 272//39 273//39 255//39
f 273//39 274//39 255//39
f 274//39 275//39 255//39
f 275//39 276//39 255//39
f 276//39 277//39 255//39
f 277//39 278//39 255//39
f 278//39 279//39 255//39
f 279//39 280//39 255//39
f 280//39 208//102 255//39
f 207//101 255//39 208//102
