# SSTK version 0.8.0
# 141
mtllib original-141.mtl
o #ID624
v 0.056716 0.095035 0.480197
v 0.002482 0.095035 0.480523
v 0.029620 0.095035 0.483950
v -0.022850 0.095035 0.470150
v 0.081921 0.095035 0.469521
v -0.044649 0.095035 0.453539
v 0.103520 0.095035 0.452649
v -0.061431 0.095035 0.431821
v 0.120039 0.095035 0.430731
v 0.130353 0.095035 0.405260
v -0.072050 0.095035 0.406476
v 0.133855 0.095035 0.377204
v -0.075889 0.095035 0.378464
v -0.080806 0.095035 -0.440158
v 0.129797 0.095035 -0.298381
v 0.128938 0.095035 -0.441418
v 0.125099 0.095035 -0.469430
v -0.077303 0.095035 -0.468214
v -0.066989 0.095035 -0.493685
v 0.114480 0.095035 -0.494775
v -0.050470 0.095035 -0.515603
v 0.097699 0.095035 -0.516493
v -0.028872 0.095035 -0.532475
v 0.075899 0.095035 -0.533104
v -0.003666 0.095035 -0.543151
v 0.050567 0.095035 -0.543477
v 0.023429 0.095035 -0.546904
v 0.023429 0.095035 -0.546904
v 0.050567 0.095035 -0.543477
v -0.003666 0.095035 -0.543151
v 0.075899 0.095035 -0.533104
v -0.028872 0.095035 -0.532475
v 0.097699 0.095035 -0.516493
v -0.050470 0.095035 -0.515603
v 0.114480 0.095035 -0.494775
v -0.066989 0.095035 -0.493685
v 0.125099 0.095035 -0.469430
v -0.077303 0.095035 -0.468214
v -0.080806 0.095035 -0.440158
v 0.128938 0.095035 -0.441418
v 0.129797 0.095035 -0.298381
v 0.133855 0.095035 0.377204
v -0.075889 0.095035 0.378464
v -0.072050 0.095035 0.406476
v 0.130353 0.095035 0.405260
v -0.061431 0.095035 0.431821
v 0.120039 0.095035 0.430731
v 0.103520 0.095035 0.452649
v -0.044649 0.095035 0.453539
v 0.081921 0.095035 0.469521
v -0.022850 0.095035 0.470150
v 0.056716 0.095035 0.480197
v 0.002482 0.095035 0.480523
v 0.029620 0.095035 0.483950
vn 0 1 0
vn 0 -1 0
usemtl material_0_0
f 1//1 2//1 3//1
f 2//1 1//1 4//1
f 4//1 1//1 5//1
f 4//1 5//1 6//1
f 6//1 5//1 7//1
f 6//1 7//1 8//1
f 8//1 7//1 9//1
f 8//1 9//1 10//1
f 8//1 10//1 11//1
f 11//1 10//1 12//1
f 11//1 12//1 13//1
f 13//1 12//1 14//1
f 14//1 12//1 15//1
f 14//1 15//1 16//1
f 14//1 16//1 17//1
f 14//1 17//1 18//1
f 18//1 17//1 19//1
f 19//1 17//1 20//1
f 19//1 20//1 21//1
f 21//1 20//1 22//1
f 21//1 22//1 23//1
f 23//1 22//1 24//1
f 23//1 24//1 25//1
f 25//1 24//1 26//1
f 25//1 26//1 27//1
usemtl material_1_0
f 28//2 29//2 30//2
f 29//2 31//2 30//2
f 30//2 31//2 32//2
f 31//2 33//2 32//2
f 32//2 33//2 34//2
f 33//2 35//2 34//2
f 34//2 35//2 36//2
f 35//2 37//2 36//2
f 36//2 37//2 38//2
f 38//2 37//2 39//2
f 37//2 40//2 39//2
f 40//2 41//2 39//2
f 41//2 42//2 39//2
f 39//2 42//2 43//2
f 43//2 42//2 44//2
f 42//2 45//2 44//2
f 44//2 45//2 46//2
f 45//2 47//2 46//2
f 47//2 48//2 46//2
f 46//2 48//2 49//2
f 48//2 50//2 49//2
f 49//2 50//2 51//2
f 50//2 52//2 51//2
f 51//2 52//2 53//2
f 54//2 53//2 52//2
