# SSTK version 0.8.0
# 142
mtllib original-142.mtl
o #ID630
v 0.058271 0.105711 0.485896
v 0.081975 0.103751 0.478489
v 0.058915 0.103751 0.488256
v 0.081959 0.105711 0.475862
v 0.081959 0.105711 0.475862
v 0.058271 0.105711 0.485896
v 0.081975 0.103751 0.478489
v 0.058915 0.103751 0.488256
v 0.057521 0.106942 0.483147
v 0.081959 0.105711 0.475862
v 0.058271 0.105711 0.485896
v 0.081941 0.106942 0.472804
v 0.081941 0.106942 0.472804
v 0.057521 0.106942 0.483147
v 0.081959 0.105711 0.475862
v 0.058271 0.105711 0.485896
v 0.081987 0.101198 0.480504
v 0.058915 0.103751 0.488256
v 0.081975 0.103751 0.478489
v 0.059409 0.101198 0.490067
v 0.059409 0.101198 0.490067
v 0.081987 0.101198 0.480504
v 0.058915 0.103751 0.488256
v 0.081975 0.103751 0.478489
v 0.047070 0.105711 0.487447
v 0.058915 0.103751 0.488256
v 0.047085 0.103751 0.489894
v 0.058271 0.105711 0.485896
v 0.058271 0.105711 0.485896
v 0.047070 0.105711 0.487447
v 0.058915 0.103751 0.488256
v 0.047085 0.103751 0.489894
v 0.056716 0.107362 0.480197
v 0.081941 0.106942 0.472804
v 0.057521 0.106942 0.483147
v 0.081921 0.107362 0.469521
v 0.081921 0.107362 0.469521
v 0.056716 0.107362 0.480197
v 0.081941 0.106942 0.472804
v 0.057521 0.106942 0.483147
v 0.047053 0.106942 0.484597
v 0.058271 0.105711 0.485896
v 0.047070 0.105711 0.487447
v 0.057521 0.106942 0.483147
v 0.057521 0.106942 0.483147
v 0.047053 0.106942 0.484597
v 0.058271 0.105711 0.485896
v 0.047070 0.105711 0.487447
v 0.059720 0.098225 0.491206
v 0.081987 0.101198 0.480504
v 0.081995 0.098225 0.481771
v 0.059409 0.101198 0.490067
v 0.059409 0.101198 0.490067
v 0.059720 0.098225 0.491206
v 0.081987 0.101198 0.480504
v 0.081995 0.098225 0.481771
v 0.047096 0.101198 0.491772
v 0.058915 0.103751 0.488256
v 0.059409 0.101198 0.490067
v 0.047085 0.103751 0.489894
v 0.047085 0.103751 0.489894
v 0.047096 0.101198 0.491772
v 0.058915 0.103751 0.488256
v 0.059409 0.101198 0.490067
v 0.046824 0.107362 0.446426
v 0.056716 0.107362 0.480197
v 0.047035 0.107362 0.481538
v 0.081921 0.107362 0.469521
v 0.081781 0.107362 0.446216
v 0.081781 0.107362 0.446216
v 0.046824 0.107362 0.446426
v 0.081921 0.107362 0.469521
v 0.056716 0.107362 0.480197
v 0.047035 0.107362 0.481538
v 0.047035 0.107362 0.481538
v 0.057521 0.106942 0.483147
v 0.047053 0.106942 0.484597
v 0.056716 0.107362 0.480197
v 0.056716 0.107362 0.480197
v 0.047035 0.107362 0.481538
v 0.057521 0.106942 0.483147
v 0.047053 0.106942 0.484597
v 0.059826 0.095035 0.491616
v 0.081995 0.098225 0.481771
v 0.081998 0.095035 0.482276
v 0.059720 0.098225 0.491206
v 0.059720 0.098225 0.491206
v 0.059826 0.095035 0.491616
v 0.081995 0.098225 0.481771
v 0.081998 0.095035 0.482276
v 0.047104 0.098225 0.492953
v 0.059409 0.101198 0.490067
v 0.059720 0.098225 0.491206
v 0.047096 0.101198 0.491772
v 0.047096 0.101198 0.491772
v 0.047104 0.098225 0.492953
v 0.059409 0.101198 0.490067
v 0.059720 0.098225 0.491206
v 0.047106 0.095035 0.493368
v 0.059720 0.098225 0.491206
v 0.059826 0.095035 0.491616
v 0.047104 0.098225 0.492953
v 0.047104 0.098225 0.492953
v 0.047106 0.095035 0.493368
v 0.059720 0.098225 0.491206
v 0.059826 0.095035 0.491616
vn -0.24511001192535592 -0.7778409432388157 -0.5786921021366211
vn -0.1559192638482577 -0.9166126266186007 -0.3681174756573871
vn -0.3151997625153799 -0.5889476403255784 -0.7441705360098458
vn -0.08617752091855721 -0.7780600836526428 -0.6222507059978107
vn -0.0535532236933578 -0.990528082156158 -0.12643642945011
vn -0.054810027566543885 -0.9167170681196005 -0.3957596213566495
vn -0.3629429138128401 -0.3660774107702126 -0.8568895906923031
vn -0.1108405736479526 -0.5892220041644213 -0.800332304134886
vn 0 -1 0
vn -0.01882357965419984 -0.9905414030399902 -0.1359168926681661
vn -0.3854345970053836 -0.1374056014547965 -0.9124471886745792
vn -0.12764890982679586 -0.36630359651864286 -0.9216981235727553
vn -0.13567834761907893 -0.12938089850772796 -0.9822687865796659
vn 0.24511001192535592 0.7778409432388157 0.5786921021366211
vn 0.1559192638482577 0.9166126266186007 0.3681174756573871
vn 0.3151997625153799 0.5889476403255784 0.7441705360098458
vn 0.08617752091855721 0.7780600836526428 0.6222507059978107
vn 0.0535532236933578 0.990528082156158 0.12643642945011
vn 0.054810027566543885 0.9167170681196005 0.3957596213566495
vn 0.3629429138128401 0.3660774107702126 0.8568895906923031
vn 0.1108405736479526 0.5892220041644213 0.800332304134886
vn 0 1 0
vn 0.01882357965419984 0.9905414030399902 0.1359168926681661
vn 0.3854345970053836 0.1374056014547965 0.9124471886745792
vn 0.12764890982679586 0.36630359651864286 0.9216981235727553
vn 0.13567834761907893 0.12938089850772796 0.9822687865796659
usemtl material_0_0
f 1//1 2//1 3//1
f 2//1 1//1 4//1
f 9//2 10//2 11//2
f 10//2 9//2 12//2
f 17//3 18//3 19//3
f 18//3 17//3 20//3
f 25//4 26//4 27//4
f 26//4 25//4 28//4
f 33//5 34//5 35//5
f 34//5 33//5 36//5
f 41//6 42//6 43//6
f 42//6 41//6 44//6
f 49//7 50//7 51//7
f 50//7 49//7 52//7
f 57//8 58//8 59//8
f 58//8 57//8 60//8
f 65//9 66//9 67//9
f 66//9 65//9 68//9
f 68//9 65//9 69//9
f 75//10 76//10 77//10
f 76//10 75//10 78//10
f 83//11 84//11 85//11
f 84//11 83//11 86//11
f 91//12 92//12 93//12
f 92//12 91//12 94//12
f 99//13 100//13 101//13
f 100//13 99//13 102//13
usemtl material_1_0
f 5//14 6//14 7//14
f 8//14 7//14 6//14
f 13//15 14//15 15//15
f 16//15 15//15 14//15
f 21//16 22//16 23//16
f 24//16 23//16 22//16
f 29//17 30//17 31//17
f 32//17 31//17 30//17
f 37//18 38//18 39//18
f 40//18 39//18 38//18
f 45//19 46//19 47//19
f 48//19 47//19 46//19
f 53//20 54//20 55//20
f 56//20 55//20 54//20
f 61//21 62//21 63//21
f 64//21 63//21 62//21
f 70//22 71//22 72//22
f 72//22 71//22 73//22
f 74//22 73//22 71//22
f 79//23 80//23 81//23
f 82//23 81//23 80//23
f 87//24 88//24 89//24
f 90//24 89//24 88//24
f 95//25 96//25 97//25
f 98//25 97//25 96//25
f 103//26 104//26 105//26
f 106//26 105//26 104//26
