# SSTK version 0.8.0
# 78
mtllib original-78.mtl
o mesh20/mesh20-geometry/material_10/component_0#mesh20-geometry
v -0.050197 -0.800929 0.053982
v -0.050197 -0.784770 0.053982
v 0.066954 -0.800929 0.053982
v 0.066954 -0.784770 0.053982
v 0.066954 -0.800929 0.053982
v -0.050197 -0.784770 0.053982
v 0.066954 -0.800929 0.053982
v -0.050197 -0.784770 0.053982
v -0.050197 -0.800929 0.053982
v -0.050197 -0.784770 0.053982
v 0.066954 -0.800929 0.053982
v 0.066954 -0.784770 0.053982
vt 0 0
vn 0 0 -1
vn 0 0 1
usemtl material_0_0
f 1/1/1 2/1/1 3/1/1
f 4/1/1 5/1/1 6/1/1
usemtl material_1_0
f 7/1/2 8/1/2 9/1/2
f 10/1/2 11/1/2 12/1/2
