# SSTK version 0.8.0
# 5
mtllib original-5.mtl
o mesh4/mesh4-geometry#mesh4-geometry
v 0.286396 0.707163 -0.053242
v 0.281375 0.712718 -0.053242
v 0.252634 0.707163 -0.053242
v 0.286396 0.715838 -0.053242
v 0.252634 0.712718 -0.053242
v 0.252634 0.725314 -0.053242
v 0.262491 0.726146 -0.053242
v 0.257493 0.728226 -0.053242
v 0.252634 0.730514 -0.053242
v 0.262905 0.730543 -0.053242
v 0.280891 0.743169 -0.053242
v 0.286396 0.740970 -0.053242
v 0.286396 0.748724 -0.053242
v 0.252634 0.743169 -0.053242
v 0.252634 0.748724 -0.053242
vn 0 0 1
vn 0 0 -1
usemtl material_0_0
f 1//1 2//1 3//1
f 2//1 1//1 4//1
f 3//2 2//2 1//2
f 4//2 1//2 2//2
f 5//1 3//1 2//1
f 2//2 3//2 5//2
f 2//1 4//1 6//1
f 6//2 4//2 2//2
f 6//1 4//1 7//1
f 7//2 4//2 6//2
f 6//1 7//1 8//1
f 8//2 7//2 6//2
f 6//1 8//1 9//1
f 9//2 8//2 6//2
f 9//1 8//1 10//1
f 10//2 8//2 9//2
f 9//1 10//1 11//1
f 11//2 10//2 9//2
f 11//1 10//1 12//1
f 12//2 10//2 11//2
f 11//1 12//1 13//1
f 13//2 12//2 11//2
f 11//1 13//1 14//1
f 14//2 13//2 11//2
f 14//1 13//1 15//1
f 15//2 13//2 14//2
