# SSTK version 0.8.0
# 33
mtllib original-33.mtl
o mesh20/mesh20-geometry/material_1/component_4#mesh20-geometry
v -0.196151 -0.833692 -0.051050
v -0.196151 -0.878128 -0.047011
v -0.196151 -0.878128 -0.051050
v -0.196151 -0.878128 -0.051050
v -0.196151 -0.878128 -0.047011
v -0.196151 -0.833692 -0.051050
v -0.196151 -0.878128 -0.047011
v 0.213877 -0.878128 -0.051050
v -0.196151 -0.878128 -0.051050
v -0.196151 -0.878128 -0.051050
v 0.213877 -0.878128 -0.051050
v -0.196151 -0.878128 -0.047011
v 0.213877 -0.878128 -0.051050
v 0.213877 -0.833692 -0.047011
v 0.213877 -0.833692 -0.051050
v 0.213877 -0.833692 -0.051050
v 0.213877 -0.833692 -0.047011
v 0.213877 -0.878128 -0.051050
v -0.196151 -0.878128 -0.047011
v -0.196151 -0.833692 -0.051050
v -0.196151 -0.833692 -0.047011
v -0.196151 -0.833692 -0.047011
v -0.196151 -0.833692 -0.051050
v -0.196151 -0.878128 -0.047011
v 0.213877 -0.878128 -0.051050
v -0.196151 -0.878128 -0.047011
v 0.213877 -0.878128 -0.047011
v 0.213877 -0.878128 -0.047011
v -0.196151 -0.878128 -0.047011
v 0.213877 -0.878128 -0.051050
v 0.213877 -0.833692 -0.047011
v -0.196151 -0.833692 -0.051050
v 0.213877 -0.833692 -0.051050
v 0.213877 -0.833692 -0.051050
v -0.196151 -0.833692 -0.051050
v 0.213877 -0.833692 -0.047011
v 0.213877 -0.833692 -0.047011
v 0.213877 -0.878128 -0.051050
v 0.213877 -0.878128 -0.047011
v 0.213877 -0.878128 -0.047011
v 0.213877 -0.878128 -0.051050
v 0.213877 -0.833692 -0.047011
v -0.196151 -0.833692 -0.051050
v 0.213877 -0.833692 -0.047011
v -0.196151 -0.833692 -0.047011
v -0.196151 -0.833692 -0.047011
v 0.213877 -0.833692 -0.047011
v -0.196151 -0.833692 -0.051050
vt 0 0
vn 1 0 0
vn -1 0 0
vn 0 1 0
vn 0 -1 0
usemtl material_0_0
f 1/1/1 2/1/1 3/1/1
f 4/1/2 5/1/2 6/1/2
f 7/1/3 8/1/3 9/1/3
f 10/1/4 11/1/4 12/1/4
f 13/1/2 14/1/2 15/1/2
f 16/1/1 17/1/1 18/1/1
f 19/1/1 20/1/1 21/1/1
f 22/1/2 23/1/2 24/1/2
f 25/1/3 26/1/3 27/1/3
f 28/1/4 29/1/4 30/1/4
f 31/1/4 32/1/4 33/1/4
f 34/1/3 35/1/3 36/1/3
f 37/1/2 38/1/2 39/1/2
f 40/1/1 41/1/1 42/1/1
f 43/1/4 44/1/4 45/1/4
f 46/1/3 47/1/3 48/1/3
