# SSTK version 0.8.0
# 3
mtllib original-3.mtl
o mesh2/mesh2-geometry#mesh2-geometry
v 0.257355 0.646498 -0.053242
v 0.252634 0.640408 -0.053242
v 0.257355 0.640408 -0.053242
v 0.252634 0.643438 -0.053242
v 0.247012 0.643773 -0.053242
v 0.248431 0.645310 -0.053242
v 0.250783 0.643171 -0.053242
v 0.250282 0.646201 -0.053242
v 0.249421 0.642547 -0.053242
v 0.252634 0.646498 -0.053242
v 0.245955 0.641537 -0.053242
v 0.248439 0.641522 -0.053242
v 0.247728 0.640051 -0.053242
vn 0 0 1
vn 0 0 -1
usemtl material_0_0
f 1//1 2//1 3//1
f 2//1 1//1 4//1
f 3//2 2//2 1//2
f 4//2 1//2 2//2
f 4//1 1//1 5//1
f 5//2 1//2 4//2
f 5//1 1//1 6//1
f 6//2 1//2 5//2
f 5//1 7//1 4//1
f 4//2 7//2 5//2
f 6//1 1//1 8//1
f 8//2 1//2 6//2
f 5//1 9//1 7//1
f 7//2 9//2 5//2
f 8//1 1//1 10//1
f 10//2 1//2 8//2
f 11//1 9//1 5//1
f 5//2 9//2 11//2
f 11//1 12//1 9//1
f 9//2 12//2 11//2
f 12//1 11//1 13//1
f 13//2 11//2 12//2
