# SSTK version 0.8.0
# 7
mtllib original-7.mtl
o mesh6/mesh6-geometry#mesh6-geometry
v 0.270229 0.811023 -0.053242
v 0.252634 0.801100 -0.053242
v 0.252634 0.794178 -0.053242
v 0.264402 0.812033 -0.053242
v 0.273591 0.814439 -0.053242
v 0.277736 0.810934 -0.053242
v 0.266936 0.814113 -0.053242
v 0.286396 0.803031 -0.053242
v 0.264679 0.816014 -0.053242
v 0.286396 0.796169 -0.053242
v 0.277437 0.817885 -0.053242
v 0.270482 0.817618 -0.053242
v 0.286396 0.832918 -0.053242
v 0.252634 0.826976 -0.053242
v 0.286396 0.826650 -0.053242
v 0.252634 0.834107 -0.053242
vn 0 0 1
vn 0 0 -1
usemtl material_0_0
f 1//1 2//1 3//1
f 2//1 1//1 4//1
f 3//2 2//2 1//2
f 4//2 1//2 2//2
f 1//1 5//1 4//1
f 4//2 5//2 1//2
f 1//1 6//1 5//1
f 5//2 6//2 1//2
f 4//1 5//1 7//1
f 7//2 5//2 4//2
f 1//1 8//1 6//1
f 6//2 8//2 1//2
f 7//1 5//1 9//1
f 9//2 5//2 7//2
f 8//1 1//1 10//1
f 10//2 1//2 8//2
f 9//1 5//1 11//1
f 11//2 5//2 9//2
f 9//1 11//1 12//1
f 12//2 11//2 9//2
f 12//1 11//1 13//1
f 13//2 11//2 12//2
f 12//1 14//1 9//1
f 9//2 14//2 12//2
f 13//1 11//1 15//1
f 15//2 11//2 13//2
f 14//1 12//1 16//1
f 16//2 12//2 14//2
