# SSTK version 0.8.0
# 71
mtllib original-71.mtl
o mesh20/mesh20-geometry/material_7/component_2#mesh20-geometry
v 0.036977 -0.897433 -0.006857
v -0.013519 -0.897433 -0.006857
v 0.036977 -0.897433 0.011322
v -0.013519 -0.897433 0.011322
v 0.036977 -0.897433 0.011322
v -0.013519 -0.897433 -0.006857
v 0.036977 -0.897433 0.011322
v -0.013519 -0.897433 -0.006857
v 0.036977 -0.897433 -0.006857
v -0.013519 -0.897433 -0.006857
v 0.036977 -0.897433 0.011322
v -0.013519 -0.897433 0.011322
vt 0 0
vn 0 1 0
vn 0 -1 0
usemtl material_0_0
f 1/1/1 2/1/1 3/1/1
f 4/1/1 5/1/1 6/1/1
usemtl material_1_0
f 7/1/2 8/1/2 9/1/2
f 10/1/2 11/1/2 12/1/2
