# SSTK version 0.8.0
# 38
mtllib original-38.mtl
o mesh20/mesh20-geometry/material_1/component_9#mesh20-geometry
v -0.330572 0.832191 0.041863
v -0.330916 0.834804 0.037823
v -0.330916 0.834804 0.041863
v -0.330916 0.834804 0.041863
v -0.330916 0.834804 0.037823
v -0.330572 0.832191 0.041863
v -0.329563 0.829755 0.041863
v -0.330572 0.832191 0.037823
v -0.330572 0.832191 0.041863
v -0.330572 0.832191 0.041863
v -0.330572 0.832191 0.037823
v -0.329563 0.829755 0.041863
v -0.325867 0.826058 0.037823
v -0.327958 0.827663 0.041863
v -0.325867 0.826058 0.041863
v -0.325867 0.826058 0.041863
v -0.327958 0.827663 0.041863
v -0.325867 0.826058 0.037823
v -0.323431 0.825049 0.037823
v -0.325867 0.826058 0.041863
v -0.323431 0.825049 0.041863
v -0.323431 0.825049 0.041863
v -0.325867 0.826058 0.041863
v -0.323431 0.825049 0.037823
v -0.330916 0.834804 0.037823
v -0.330572 0.832191 0.041863
v -0.330572 0.832191 0.037823
v -0.330572 0.832191 0.037823
v -0.330572 0.832191 0.041863
v -0.330916 0.834804 0.037823
v -0.330572 0.837418 0.037823
v -0.330916 0.834804 0.041863
v -0.330916 0.834804 0.037823
v -0.330916 0.834804 0.037823
v -0.330916 0.834804 0.041863
v -0.330572 0.837418 0.037823
v -0.327958 0.827663 0.041863
v -0.329563 0.829755 0.037823
v -0.329563 0.829755 0.041863
v -0.329563 0.829755 0.041863
v -0.329563 0.829755 0.037823
v -0.327958 0.827663 0.041863
v -0.330572 0.832191 0.037823
v -0.329563 0.829755 0.041863
v -0.329563 0.829755 0.037823
v -0.329563 0.829755 0.037823
v -0.329563 0.829755 0.041863
v -0.330572 0.832191 0.037823
v -0.327958 0.827663 0.041863
v -0.325867 0.826058 0.037823
v -0.327958 0.827663 0.037823
v -0.327958 0.827663 0.037823
v -0.325867 0.826058 0.037823
v -0.327958 0.827663 0.041863
v -0.325867 0.826058 0.041863
v -0.323431 0.825049 0.037823
v -0.325867 0.826058 0.037823
v -0.325867 0.826058 0.037823
v -0.323431 0.825049 0.037823
v -0.325867 0.826058 0.041863
v -0.323431 0.825049 0.041863
v -0.320817 0.824705 0.037823
v -0.323431 0.825049 0.037823
v -0.323431 0.825049 0.037823
v -0.320817 0.824705 0.037823
v -0.323431 0.825049 0.041863
v -0.327958 0.841946 0.037823
v -0.325867 0.843551 0.041863
v -0.327958 0.841946 0.041863
v -0.327958 0.841946 0.041863
v -0.325867 0.843551 0.041863
v -0.327958 0.841946 0.037823
v -0.325867 0.843551 0.037823
v -0.323431 0.844559 0.041863
v -0.325867 0.843551 0.041863
v -0.325867 0.843551 0.041863
v -0.323431 0.844559 0.041863
v -0.325867 0.843551 0.037823
v -0.323431 0.844559 0.037823
v -0.320817 0.844904 0.041863
v -0.323431 0.844559 0.041863
v -0.323431 0.844559 0.041863
v -0.320817 0.844904 0.041863
v -0.323431 0.844559 0.037823
v -0.330916 0.834804 0.041863
v -0.330572 0.837418 0.037823
v -0.330572 0.837418 0.041863
v -0.330572 0.837418 0.041863
v -0.330572 0.837418 0.037823
v -0.330916 0.834804 0.041863
v -0.329563 0.829755 0.037823
v -0.327958 0.827663 0.041863
v -0.327958 0.827663 0.037823
v -0.327958 0.827663 0.037823
v -0.327958 0.827663 0.041863
v -0.329563 0.829755 0.037823
v -0.320817 0.824705 0.037823
v -0.323431 0.825049 0.041863
v -0.320817 0.824705 0.041863
v -0.320817 0.824705 0.041863
v -0.323431 0.825049 0.041863
v -0.320817 0.824705 0.037823
v -0.330572 0.837418 0.041863
v -0.329563 0.839854 0.037823
v -0.329563 0.839854 0.041863
v -0.329563 0.839854 0.041863
v -0.329563 0.839854 0.037823
v -0.330572 0.837418 0.041863
v -0.329563 0.839854 0.041863
v -0.327958 0.841946 0.037823
v -0.327958 0.841946 0.041863
v -0.327958 0.841946 0.041863
v -0.327958 0.841946 0.037823
v -0.329563 0.839854 0.041863
v -0.325867 0.843551 0.041863
v -0.327958 0.841946 0.037823
v -0.325867 0.843551 0.037823
v -0.325867 0.843551 0.037823
v -0.327958 0.841946 0.037823
v -0.325867 0.843551 0.041863
v -0.323431 0.844559 0.041863
v -0.325867 0.843551 0.037823
v -0.323431 0.844559 0.037823
v -0.323431 0.844559 0.037823
v -0.325867 0.843551 0.037823
v -0.323431 0.844559 0.041863
v -0.320817 0.844904 0.041863
v -0.323431 0.844559 0.037823
v -0.320817 0.844904 0.037823
v -0.320817 0.844904 0.037823
v -0.323431 0.844559 0.037823
v -0.320817 0.844904 0.041863
v -0.320817 0.844904 0.037823
v -0.318203 0.844559 0.041863
v -0.320817 0.844904 0.041863
v -0.320817 0.844904 0.041863
v -0.318203 0.844559 0.041863
v -0.320817 0.844904 0.037823
v -0.318203 0.844559 0.037823
v -0.315768 0.843551 0.041863
v -0.318203 0.844559 0.041863
v -0.318203 0.844559 0.041863
v -0.315768 0.843551 0.041863
v -0.318203 0.844559 0.037823
v -0.329563 0.839854 0.037823
v -0.330572 0.837418 0.041863
v -0.330572 0.837418 0.037823
v -0.330572 0.837418 0.037823
v -0.330572 0.837418 0.041863
v -0.329563 0.839854 0.037823
v -0.320817 0.824705 0.041863
v -0.318203 0.825049 0.037823
v -0.320817 0.824705 0.037823
v -0.320817 0.824705 0.037823
v -0.318203 0.825049 0.037823
v -0.320817 0.824705 0.041863
v -0.327958 0.841946 0.037823
v -0.329563 0.839854 0.041863
v -0.329563 0.839854 0.037823
v -0.329563 0.839854 0.037823
v -0.329563 0.839854 0.041863
v -0.327958 0.841946 0.037823
v -0.318203 0.844559 0.041863
v -0.320817 0.844904 0.037823
v -0.318203 0.844559 0.037823
v -0.318203 0.844559 0.037823
v -0.320817 0.844904 0.037823
v -0.318203 0.844559 0.041863
v -0.315768 0.843551 0.041863
v -0.318203 0.844559 0.037823
v -0.315768 0.843551 0.037823
v -0.315768 0.843551 0.037823
v -0.318203 0.844559 0.037823
v -0.315768 0.843551 0.041863
v -0.315768 0.843551 0.037823
v -0.313676 0.841946 0.041863
v -0.315768 0.843551 0.041863
v -0.315768 0.843551 0.041863
v -0.313676 0.841946 0.041863
v -0.315768 0.843551 0.037823
v -0.318203 0.825049 0.037823
v -0.320817 0.824705 0.041863
v -0.318203 0.825049 0.041863
v -0.318203 0.825049 0.041863
v -0.320817 0.824705 0.041863
v -0.318203 0.825049 0.037823
v -0.313676 0.841946 0.041863
v -0.315768 0.843551 0.037823
v -0.313676 0.841946 0.037823
v -0.313676 0.841946 0.037823
v -0.315768 0.843551 0.037823
v -0.313676 0.841946 0.041863
v -0.313676 0.841946 0.041863
v -0.312071 0.839854 0.037823
v -0.312071 0.839854 0.041863
v -0.312071 0.839854 0.041863
v -0.312071 0.839854 0.037823
v -0.313676 0.841946 0.041863
v -0.315768 0.826058 0.037823
v -0.318203 0.825049 0.041863
v -0.315768 0.826058 0.041863
v -0.315768 0.826058 0.041863
v -0.318203 0.825049 0.041863
v -0.315768 0.826058 0.037823
v -0.318203 0.825049 0.041863
v -0.315768 0.826058 0.037823
v -0.318203 0.825049 0.037823
v -0.318203 0.825049 0.037823
v -0.315768 0.826058 0.037823
v -0.318203 0.825049 0.041863
v -0.312071 0.839854 0.037823
v -0.313676 0.841946 0.041863
v -0.313676 0.841946 0.037823
v -0.313676 0.841946 0.037823
v -0.313676 0.841946 0.041863
v -0.312071 0.839854 0.037823
v -0.311062 0.837418 0.037823
v -0.312071 0.839854 0.041863
v -0.312071 0.839854 0.037823
v -0.312071 0.839854 0.037823
v -0.312071 0.839854 0.041863
v -0.311062 0.837418 0.037823
v -0.312071 0.839854 0.041863
v -0.311062 0.837418 0.037823
v -0.311062 0.837418 0.041863
v -0.311062 0.837418 0.041863
v -0.311062 0.837418 0.037823
v -0.312071 0.839854 0.041863
v -0.311062 0.837418 0.041863
v -0.310718 0.834804 0.037823
v -0.310718 0.834804 0.041863
v -0.310718 0.834804 0.041863
v -0.310718 0.834804 0.037823
v -0.311062 0.837418 0.041863
v -0.315768 0.826058 0.041863
v -0.313676 0.827663 0.037823
v -0.315768 0.826058 0.037823
v -0.315768 0.826058 0.037823
v -0.313676 0.827663 0.037823
v -0.315768 0.826058 0.041863
v -0.310718 0.834804 0.037823
v -0.311062 0.837418 0.041863
v -0.311062 0.837418 0.037823
v -0.311062 0.837418 0.037823
v -0.311062 0.837418 0.041863
v -0.310718 0.834804 0.037823
v -0.311062 0.832191 0.037823
v -0.310718 0.834804 0.041863
v -0.310718 0.834804 0.037823
v -0.310718 0.834804 0.037823
v -0.310718 0.834804 0.041863
v -0.311062 0.832191 0.037823
v -0.313676 0.827663 0.037823
v -0.315768 0.826058 0.041863
v -0.313676 0.827663 0.041863
v -0.313676 0.827663 0.041863
v -0.315768 0.826058 0.041863
v -0.313676 0.827663 0.037823
v -0.310718 0.834804 0.041863
v -0.311062 0.832191 0.037823
v -0.311062 0.832191 0.041863
v -0.311062 0.832191 0.041863
v -0.311062 0.832191 0.037823
v -0.310718 0.834804 0.041863
v -0.312071 0.829755 0.041863
v -0.313676 0.827663 0.037823
v -0.313676 0.827663 0.041863
v -0.313676 0.827663 0.041863
v -0.313676 0.827663 0.037823
v -0.312071 0.829755 0.041863
v -0.313676 0.827663 0.037823
v -0.312071 0.829755 0.041863
v -0.312071 0.829755 0.037823
v -0.312071 0.829755 0.037823
v -0.312071 0.829755 0.041863
v -0.313676 0.827663 0.037823
v -0.312071 0.829755 0.037823
v -0.311062 0.832191 0.041863
v -0.311062 0.832191 0.037823
v -0.311062 0.832191 0.037823
v -0.311062 0.832191 0.041863
v -0.312071 0.829755 0.037823
v -0.311062 0.832191 0.041863
v -0.312071 0.829755 0.037823
v -0.312071 0.829755 0.041863
v -0.312071 0.829755 0.041863
v -0.312071 0.829755 0.037823
v -0.311062 0.832191 0.041863
vt 0 0
vn 0.9659258451755842 0.25881897461707376 0
vn 1 0 0
vn -1 0 0
vn -0.9659258451755842 -0.25881897461707376 0
vn 0.8660252955903434 0.5000001873976233 0
vn -0.8660252955903434 -0.5000001873976233 0
vn 0.5000001873976233 0.8660252955903434 0
vn 0.7071067811865476 0.7071067811865476 0
vn -0.5000001873976233 -0.8660252955903434 0
vn -0.7071067811865476 -0.7071067811865476 0
vn 0.25881897461707376 0.9659258451755842 0
vn -0.25881897461707376 -0.9659258451755842 0
vn 0.9659258451755842 -0.25881897461707376 0
vn -0.9659258451755842 0.25881897461707376 0
vn 0 1 0
vn 0 -1 0
vn 0.7071067811865476 -0.7071067811865476 0
vn 0.5000001873976233 -0.8660252955903434 0
vn -0.7071067811865476 0.7071067811865476 0
vn -0.5000001873976233 0.8660252955903434 0
vn 0.25881897461707376 -0.9659258451755842 0
vn -0.25881897461707376 0.9659258451755842 0
vn 0.8660252955903434 -0.5000001873976233 0
vn -0.8660252955903434 0.5000001873976233 0
usemtl material_0_0
f 1/1/1 2/1/2 3/1/2
f 4/1/3 5/1/3 6/1/4
f 7/1/5 8/1/1 9/1/1
f 10/1/4 11/1/4 12/1/6
f 13/1/7 14/1/8 15/1/7
f 16/1/9 17/1/10 18/1/9
f 19/1/11 20/1/7 21/1/11
f 22/1/12 23/1/9 24/1/12
f 25/1/2 26/1/1 27/1/1
f 28/1/4 29/1/4 30/1/3
f 31/1/13 32/1/2 33/1/2
f 34/1/3 35/1/3 36/1/14
f 37/1/8 38/1/5 39/1/5
f 40/1/6 41/1/6 42/1/10
f 43/1/1 44/1/5 45/1/5
f 46/1/6 47/1/6 48/1/4
f 49/1/8 50/1/7 51/1/8
f 52/1/10 53/1/9 54/1/10
f 55/1/7 56/1/11 57/1/7
f 58/1/9 59/1/12 60/1/9
f 61/1/11 62/1/15 63/1/11
f 64/1/12 65/1/16 66/1/12
f 67/1/17 68/1/18 69/1/17
f 70/1/19 71/1/20 72/1/19
f 73/1/18 74/1/21 75/1/18
f 76/1/20 77/1/22 78/1/20
f 79/1/21 80/1/16 81/1/21
f 82/1/22 83/1/15 84/1/22
f 85/1/2 86/1/13 87/1/13
f 88/1/14 89/1/14 90/1/3
f 91/1/5 92/1/8 93/1/8
f 94/1/10 95/1/10 96/1/6
f 97/1/15 98/1/11 99/1/15
f 100/1/16 101/1/12 102/1/16
f 103/1/13 104/1/23 105/1/23
f 106/1/24 107/1/24 108/1/14
f 109/1/23 110/1/17 111/1/17
f 112/1/19 113/1/19 114/1/24
f 115/1/18 116/1/17 117/1/18
f 118/1/20 119/1/19 120/1/20
f 121/1/21 122/1/18 123/1/21
f 124/1/22 125/1/20 126/1/22
f 127/1/16 128/1/21 129/1/16
f 130/1/15 131/1/22 132/1/15
f 133/1/16 134/1/12 135/1/16
f 136/1/15 137/1/11 138/1/15
f 139/1/12 140/1/9 141/1/12
f 142/1/11 143/1/7 144/1/11
f 145/1/23 146/1/13 147/1/13
f 148/1/14 149/1/14 150/1/24
f 151/1/15 152/1/22 153/1/15
f 154/1/16 155/1/21 156/1/16
f 157/1/17 158/1/23 159/1/23
f 160/1/24 161/1/24 162/1/19
f 163/1/12 164/1/16 165/1/12
f 166/1/11 167/1/15 168/1/11
f 169/1/9 170/1/12 171/1/9
f 172/1/7 173/1/11 174/1/7
f 175/1/9 176/1/10 177/1/9
f 178/1/7 179/1/8 180/1/7
f 181/1/22 182/1/15 183/1/22
f 184/1/21 185/1/16 186/1/21
f 187/1/10 188/1/9 189/1/10
f 190/1/8 191/1/7 192/1/8
f 193/1/10 194/1/6 195/1/6
f 196/1/5 197/1/5 198/1/8
f 199/1/20 200/1/22 201/1/20
f 202/1/18 203/1/21 204/1/18
f 205/1/22 206/1/20 207/1/22
f 208/1/21 209/1/18 210/1/21
f 211/1/6 212/1/10 213/1/10
f 214/1/8 215/1/8 216/1/5
f 217/1/4 218/1/6 219/1/6
f 220/1/5 221/1/5 222/1/1
f 223/1/6 224/1/4 225/1/4
f 226/1/1 227/1/1 228/1/5
f 229/1/4 230/1/3 231/1/3
f 232/1/2 233/1/2 234/1/1
f 235/1/20 236/1/19 237/1/20
f 238/1/18 239/1/17 240/1/18
f 241/1/3 242/1/4 243/1/4
f 244/1/1 245/1/1 246/1/2
f 247/1/14 248/1/3 249/1/3
f 250/1/2 251/1/2 252/1/13
f 253/1/19 254/1/20 255/1/19
f 256/1/17 257/1/18 258/1/17
f 259/1/3 260/1/14 261/1/14
f 262/1/13 263/1/13 264/1/2
f 265/1/24 266/1/19 267/1/19
f 268/1/17 269/1/17 270/1/23
f 271/1/19 272/1/24 273/1/24
f 274/1/23 275/1/23 276/1/17
f 277/1/24 278/1/14 279/1/14
f 280/1/13 281/1/13 282/1/23
f 283/1/14 284/1/24 285/1/24
f 286/1/23 287/1/23 288/1/13
