# SSTK version 0.8.0
# 76
mtllib original-76.mtl
o mesh20/mesh20-geometry/material_9/component_3#mesh20-geometry
v -0.500587 0.479467 -0.000975
v -0.500587 0.479467 -0.007034
v -0.500587 0.529963 -0.000975
v -0.500587 0.529963 -0.007034
v -0.500587 0.529963 -0.000975
v -0.500587 0.479467 -0.007034
v -0.500587 0.529963 -0.000975
v -0.500587 0.479467 -0.007034
v -0.500587 0.479467 -0.000975
v -0.500587 0.479467 -0.007034
v -0.500587 0.529963 -0.000975
v -0.500587 0.529963 -0.007034
vt 0 0
vn 1 0 0
vn -1 0 0
usemtl material_0_0
f 1/1/1 2/1/1 3/1/1
f 4/1/1 5/1/1 6/1/1
usemtl material_1_0
f 7/1/2 8/1/2 9/1/2
f 10/1/2 11/1/2 12/1/2
