# SSTK version 0.8.0
# 14
mtllib original-14.mtl
o mesh11/mesh11-geometry#mesh11-geometry
v -0.034411 -0.638684 -0.053242
v -0.049816 -0.645552 -0.053242
v -0.034411 -0.696885 -0.053242
v -0.118576 -0.638684 -0.053242
v -0.049816 -0.690016 -0.053242
v -0.118576 -0.645552 -0.053242
v -0.121275 -0.696885 -0.053242
v -0.049816 -0.663378 -0.053242
v -0.121275 -0.690016 -0.053242
v -0.049816 -0.670206 -0.053242
v -0.114209 -0.663378 -0.053242
v -0.114209 -0.670206 -0.053242
vn 0 0 1
vn 0 0 -1
usemtl material_0_0
f 1//1 2//1 3//1
f 2//1 1//1 4//1
f 3//2 2//2 1//2
f 4//2 1//2 2//2
f 5//1 3//1 2//1
f 2//2 3//2 5//2
f 2//1 4//1 6//1
f 6//2 4//2 2//2
f 3//1 5//1 7//1
f 7//2 5//2 3//2
f 5//1 2//1 8//1
f 8//2 2//2 5//2
f 7//1 5//1 9//1
f 9//2 5//2 7//2
f 5//1 8//1 10//1
f 10//2 8//2 5//2
f 11//1 10//1 8//1
f 8//2 10//2 11//2
f 10//1 11//1 12//1
f 12//2 11//2 10//2
