# SSTK version 0.8.0
# 25
mtllib original-25.mtl
o mesh19/mesh19-geometry#mesh19-geometry
v 0.329721 0.845138 0.042034
v 0.336422 0.842349 0.042034
v 0.329721 0.821504 0.042034
v 0.347166 0.845138 0.042034
v 0.336422 0.824293 0.042034
v 0.347062 0.842349 0.042034
v 0.347995 0.821504 0.042034
v 0.352218 0.842228 0.042034
v 0.347235 0.824293 0.042034
v 0.352374 0.845053 0.042034
v 0.351704 0.824402 0.042034
v 0.355733 0.841865 0.042034
v 0.352326 0.821605 0.042034
v 0.356182 0.844799 0.042034
v 0.355094 0.824729 0.042034
v 0.359183 0.840860 0.042034
v 0.356130 0.821907 0.042034
v 0.360215 0.844142 0.042034
v 0.357655 0.825253 0.042034
v 0.362072 0.839197 0.042034
v 0.359412 0.822405 0.042034
v 0.363609 0.843106 0.042034
v 0.359637 0.825954 0.042034
v 0.363213 0.838094 0.042034
v 0.362176 0.823093 0.042034
v 0.364028 0.836777 0.042034
v 0.361757 0.827258 0.042034
v 0.367111 0.841307 0.042034
v 0.363350 0.828944 0.042034
v 0.364680 0.833498 0.042034
v 0.364581 0.824019 0.042034
v 0.366788 0.825237 0.042034
v 0.364347 0.831022 0.042034
v 0.368705 0.826778 0.042034
v 0.369603 0.839068 0.042034
v 0.370241 0.828678 0.042034
v 0.371093 0.836435 0.042034
v 0.371252 0.830911 0.042034
v 0.371589 0.833450 0.042034
vn 0 0 -1
vn 0 0 1
usemtl material_0_0
f 1//1 2//1 3//1
f 2//1 1//1 4//1
f 3//2 2//2 1//2
f 4//2 1//2 2//2
f 5//1 3//1 2//1
f 2//2 3//2 5//2
f 2//1 4//1 6//1
f 6//2 4//2 2//2
f 3//1 5//1 7//1
f 7//2 5//2 3//2
f 6//1 4//1 8//1
f 8//2 4//2 6//2
f 7//1 5//1 9//1
f 9//2 5//2 7//2
f 8//1 4//1 10//1
f 10//2 4//2 8//2
f 7//1 9//1 11//1
f 11//2 9//2 7//2
f 8//1 10//1 12//1
f 12//2 10//2 8//2
f 7//1 11//1 13//1
f 13//2 11//2 7//2
f 12//1 10//1 14//1
f 14//2 10//2 12//2
f 13//1 11//1 15//1
f 15//2 11//2 13//2
f 12//1 14//1 16//1
f 16//2 14//2 12//2
f 13//1 15//1 17//1
f 17//2 15//2 13//2
f 16//1 14//1 18//1
f 18//2 14//2 16//2
f 17//1 15//1 19//1
f 19//2 15//2 17//2
f 16//1 18//1 20//1
f 20//2 18//2 16//2
f 17//1 19//1 21//1
f 21//2 19//2 17//2
f 20//1 18//1 22//1
f 22//2 18//2 20//2
f 21//1 19//1 23//1
f 23//2 19//2 21//2
f 20//1 22//1 24//1
f 24//2 22//2 20//2
f 21//1 23//1 25//1
f 25//2 23//2 21//2
f 24//1 22//1 26//1
f 26//2 22//2 24//2
f 25//1 23//1 27//1
f 27//2 23//2 25//2
f 26//1 22//1 28//1
f 28//2 22//2 26//2
f 25//1 27//1 29//1
f 29//2 27//2 25//2
f 26//1 28//1 30//1
f 30//2 28//2 26//2
f 25//1 29//1 31//1
f 31//2 29//2 25//2
f 30//1 28//1 32//1
f 32//2 28//2 30//2
f 31//1 29//1 33//1
f 33//2 29//2 31//2
f 32//1 28//1 34//1
f 34//2 28//2 32//2
f 31//1 30//1 32//1
f 32//2 30//2 31//2
f 31//1 33//1 30//1
f 30//2 33//2 31//2
f 34//1 28//1 35//1
f 35//2 28//2 34//2
f 34//1 35//1 36//1
f 36//2 35//2 34//2
f 36//1 35//1 37//1
f 37//2 35//2 36//2
f 36//1 37//1 38//1
f 38//2 37//2 36//2
f 38//1 37//1 39//1
f 39//2 37//2 38//2
