# SSTK version 0.8.0
# 43
mtllib original-43.mtl
o mesh20/mesh20-geometry/material_1/component_14#mesh20-geometry
v 0.517415 0.570369 0.014266
v 0.513375 0.701659 0.014266
v 0.513375 0.570369 0.014266
v 0.513375 0.570369 0.014266
v 0.513375 0.701659 0.014266
v 0.517415 0.570369 0.014266
v 0.513375 0.701659 0.014266
v 0.517415 0.701659 -0.014012
v 0.513375 0.701659 -0.014012
v 0.513375 0.701659 -0.014012
v 0.517415 0.701659 -0.014012
v 0.513375 0.701659 0.014266
v 0.513375 0.570369 -0.014012
v 0.517415 0.570369 0.014266
v 0.513375 0.570369 0.014266
v 0.513375 0.570369 0.014266
v 0.517415 0.570369 0.014266
v 0.513375 0.570369 -0.014012
v 0.513375 0.701659 0.014266
v 0.517415 0.570369 0.014266
v 0.517415 0.701659 0.014266
v 0.517415 0.701659 0.014266
v 0.517415 0.570369 0.014266
v 0.513375 0.701659 0.014266
v 0.517415 0.701659 -0.014012
v 0.513375 0.570369 -0.014012
v 0.513375 0.701659 -0.014012
v 0.513375 0.701659 -0.014012
v 0.513375 0.570369 -0.014012
v 0.517415 0.701659 -0.014012
v 0.517415 0.701659 -0.014012
v 0.513375 0.701659 0.014266
v 0.517415 0.701659 0.014266
v 0.517415 0.701659 0.014266
v 0.513375 0.701659 0.014266
v 0.517415 0.701659 -0.014012
v 0.517415 0.570369 0.014266
v 0.513375 0.570369 -0.014012
v 0.517415 0.570369 -0.014012
v 0.517415 0.570369 -0.014012
v 0.513375 0.570369 -0.014012
v 0.517415 0.570369 0.014266
v 0.513375 0.570369 -0.014012
v 0.517415 0.701659 -0.014012
v 0.517415 0.570369 -0.014012
v 0.517415 0.570369 -0.014012
v 0.517415 0.701659 -0.014012
v 0.513375 0.570369 -0.014012
vt 0 0
vn 0 0 1
vn 0 0 -1
vn 0 1 0
vn 0 -1 0
usemtl material_0_0
f 1/1/1 2/1/1 3/1/1
f 4/1/2 5/1/2 6/1/2
f 7/1/3 8/1/3 9/1/3
f 10/1/4 11/1/4 12/1/4
f 13/1/4 14/1/4 15/1/4
f 16/1/3 17/1/3 18/1/3
f 19/1/1 20/1/1 21/1/1
f 22/1/2 23/1/2 24/1/2
f 25/1/2 26/1/2 27/1/2
f 28/1/1 29/1/1 30/1/1
f 31/1/3 32/1/3 33/1/3
f 34/1/4 35/1/4 36/1/4
f 37/1/4 38/1/4 39/1/4
f 40/1/3 41/1/3 42/1/3
f 43/1/2 44/1/2 45/1/2
f 46/1/1 47/1/1 48/1/1
