# SSTK version 0.8.0
# 44
mtllib original-44.mtl
o mesh20/mesh20-geometry/material_1/component_15#mesh20-geometry
v -0.496547 0.438257 0.010325
v -0.500587 0.438257 -0.017952
v -0.496547 0.438257 -0.017952
v -0.496547 0.438257 -0.017952
v -0.500587 0.438257 -0.017952
v -0.496547 0.438257 0.010325
v -0.500587 0.438257 -0.017952
v -0.496547 0.569547 -0.017952
v -0.496547 0.438257 -0.017952
v -0.496547 0.438257 -0.017952
v -0.496547 0.569547 -0.017952
v -0.500587 0.438257 -0.017952
v -0.500587 0.438257 -0.017952
v -0.496547 0.438257 0.010325
v -0.500587 0.438257 0.010325
v -0.500587 0.438257 0.010325
v -0.496547 0.438257 0.010325
v -0.500587 0.438257 -0.017952
v -0.496547 0.569547 -0.017952
v -0.500587 0.438257 -0.017952
v -0.500587 0.569547 -0.017952
v -0.500587 0.569547 -0.017952
v -0.500587 0.438257 -0.017952
v -0.496547 0.569547 -0.017952
v -0.500587 0.569547 0.010325
v -0.496547 0.438257 0.010325
v -0.496547 0.569547 0.010325
v -0.496547 0.569547 0.010325
v -0.496547 0.438257 0.010325
v -0.500587 0.569547 0.010325
v -0.496547 0.438257 0.010325
v -0.500587 0.569547 0.010325
v -0.500587 0.438257 0.010325
v -0.500587 0.438257 0.010325
v -0.500587 0.569547 0.010325
v -0.496547 0.438257 0.010325
v -0.500587 0.569547 0.010325
v -0.496547 0.569547 -0.017952
v -0.500587 0.569547 -0.017952
v -0.500587 0.569547 -0.017952
v -0.496547 0.569547 -0.017952
v -0.500587 0.569547 0.010325
v -0.496547 0.569547 -0.017952
v -0.500587 0.569547 0.010325
v -0.496547 0.569547 0.010325
v -0.496547 0.569547 0.010325
v -0.500587 0.569547 0.010325
v -0.496547 0.569547 -0.017952
vt 0 0
vn 0 -1 0
vn 0 1 0
vn 0 0 -1
vn 0 0 1
usemtl material_0_0
f 1/1/1 2/1/1 3/1/1
f 4/1/2 5/1/2 6/1/2
f 7/1/3 8/1/3 9/1/3
f 10/1/4 11/1/4 12/1/4
f 13/1/1 14/1/1 15/1/1
f 16/1/2 17/1/2 18/1/2
f 19/1/3 20/1/3 21/1/3
f 22/1/4 23/1/4 24/1/4
f 25/1/4 26/1/4 27/1/4
f 28/1/3 29/1/3 30/1/3
f 31/1/4 32/1/4 33/1/4
f 34/1/3 35/1/3 36/1/3
f 37/1/2 38/1/2 39/1/2
f 40/1/1 41/1/1 42/1/1
f 43/1/2 44/1/2 45/1/2
f 46/1/1 47/1/1 48/1/1
