# SSTK version 0.8.0
# 2
mtllib original-2.mtl
o mesh1/mesh1-geometry#mesh1-geometry
v 0.279749 0.604899 -0.053242
v 0.277046 0.609600 -0.053242
v 0.277782 0.604253 -0.053242
v 0.281482 0.605857 -0.053242
v 0.282979 0.607127 -0.053242
v 0.284242 0.608709 -0.053242
v 0.285245 0.610553 -0.053242
v 0.279705 0.610566 -0.053242
v 0.285961 0.612608 -0.053242
v 0.281605 0.612274 -0.053242
v 0.282745 0.614613 -0.053242
v 0.286391 0.614876 -0.053242
v 0.283125 0.617473 -0.053242
v 0.286534 0.617354 -0.053242
v 0.286237 0.620778 -0.053242
v 0.282751 0.620332 -0.053242
v 0.281629 0.622613 -0.053242
v 0.285348 0.623920 -0.053242
v 0.279935 0.624105 -0.053242
v 0.283946 0.626567 -0.053242
v 0.277852 0.624603 -0.053242
v 0.272163 0.626705 -0.053242
v 0.276506 0.624432 -0.053242
v 0.282112 0.628510 -0.053242
v 0.270919 0.624098 -0.053242
v 0.273775 0.628584 -0.053242
v 0.275347 0.623920 -0.053242
v 0.279999 0.629702 -0.053242
v 0.267223 0.624158 -0.053242
v 0.275670 0.629720 -0.053242
v 0.274376 0.623066 -0.053242
v 0.269857 0.627530 -0.053242
v 0.277759 0.630099 -0.053242
v 0.268035 0.622872 -0.053242
v 0.266234 0.625211 -0.053242
v 0.273591 0.621870 -0.053242
v 0.265119 0.625962 -0.053242
v 0.268614 0.621424 -0.053242
v 0.262514 0.626564 -0.053242
v 0.272555 0.618966 -0.053242
v 0.255109 0.628079 -0.053242
v 0.269077 0.618038 -0.053242
v 0.261077 0.626401 -0.053242
v 0.268052 0.630099 -0.053242
v 0.272209 0.615720 -0.053242
v 0.259762 0.625914 -0.053242
v 0.256731 0.629899 -0.053242
v 0.272255 0.614859 -0.053242
v 0.253764 0.625862 -0.053242
v 0.258521 0.631199 -0.053242
v 0.268617 0.614265 -0.053242
v 0.258567 0.625102 -0.053242
v 0.265603 0.631704 -0.053242
v 0.257493 0.623964 -0.053242
v 0.260479 0.631978 -0.053242
v 0.252804 0.623370 -0.053242
v 0.262606 0.632238 -0.053242
v 0.256607 0.622591 -0.053242
v 0.255973 0.621071 -0.053242
v 0.252227 0.620604 -0.053242
v 0.255593 0.619405 -0.053242
v 0.255467 0.617592 -0.053242
v 0.252035 0.617563 -0.053242
v 0.252201 0.614817 -0.053242
v 0.255855 0.614654 -0.053242
v 0.252697 0.612315 -0.053242
v 0.257021 0.612200 -0.053242
v 0.259068 0.610310 -0.053242
v 0.253525 0.610056 -0.053242
v 0.262099 0.609065 -0.053242
v 0.254684 0.608041 -0.053242
v 0.256106 0.606350 -0.053242
v 0.257723 0.605066 -0.053242
v 0.259537 0.604189 -0.053242
v 0.261547 0.603718 -0.053242
vn 0 0 1
vn 0 0 -1
usemtl material_0_0
f 1//1 2//1 3//1
f 2//1 1//1 4//1
f 3//2 2//2 1//2
f 4//2 1//2 2//2
f 2//1 4//1 5//1
f 5//2 4//2 2//2
f 2//1 5//1 6//1
f 6//2 5//2 2//2
f 2//1 6//1 7//1
f 7//2 6//2 2//2
f 2//1 7//1 8//1
f 8//2 7//2 2//2
f 8//1 7//1 9//1
f 9//2 7//2 8//2
f 8//1 9//1 10//1
f 10//2 9//2 8//2
f 10//1 9//1 11//1
f 11//2 9//2 10//2
f 11//1 9//1 12//1
f 12//2 9//2 11//2
f 11//1 12//1 13//1
f 13//2 12//2 11//2
f 13//1 12//1 14//1
f 14//2 12//2 13//2
f 13//1 14//1 15//1
f 15//2 14//2 13//2
f 13//1 15//1 16//1
f 16//2 15//2 13//2
f 16//1 15//1 17//1
f 17//2 15//2 16//2
f 17//1 15//1 18//1
f 18//2 15//2 17//2
f 17//1 18//1 19//1
f 19//2 18//2 17//2
f 19//1 18//1 20//1
f 20//2 18//2 19//2
f 19//1 20//1 21//1
f 21//2 20//2 19//2
f 22//1 21//1 20//1
f 20//2 21//2 22//2
f 22//1 23//1 21//1
f 21//2 23//2 22//2
f 22//1 20//1 24//1
f 24//2 20//2 22//2
f 25//1 23//1 22//1
f 22//2 23//2 25//2
f 22//1 24//1 26//1
f 26//2 24//2 22//2
f 23//1 25//1 27//1
f 27//2 25//2 23//2
f 26//1 24//1 28//1
f 28//2 24//2 26//2
f 29//1 27//1 25//1
f 25//2 27//2 29//2
f 26//1 28//1 30//1
f 30//2 28//2 26//2
f 29//1 31//1 27//1
f 27//2 31//2 29//2
f 29//1 25//1 32//1
f 32//2 25//2 29//2
f 30//1 28//1 33//1
f 33//2 28//2 30//2
f 34//1 31//1 29//1
f 29//2 31//2 34//2
f 29//1 32//1 35//1
f 35//2 32//2 29//2
f 34//1 36//1 31//1
f 31//2 36//2 34//2
f 35//1 32//1 37//1
f 37//2 32//2 35//2
f 38//1 36//1 34//1
f 34//2 36//2 38//2
f 37//1 32//1 39//1
f 39//2 32//2 37//2
f 38//1 40//1 36//1
f 36//2 40//2 38//2
f 41//1 39//1 32//1
f 32//2 39//2 41//2
f 42//1 40//1 38//1
f 38//2 40//2 42//2
f 41//1 43//1 39//1
f 39//2 43//2 41//2
f 41//1 32//1 44//1
f 44//2 32//2 41//2
f 42//1 45//1 40//1
f 40//2 45//2 42//2
f 41//1 46//1 43//1
f 43//2 46//2 41//2
f 41//1 44//1 47//1
f 47//2 44//2 41//2
f 42//1 48//1 45//1
f 45//2 48//2 42//2
f 49//1 46//1 41//1
f 41//2 46//2 49//2
f 47//1 44//1 50//1
f 50//2 44//2 47//2
f 48//1 42//1 51//1
f 51//2 42//2 48//2
f 49//1 52//1 46//1
f 46//2 52//2 49//2
f 50//1 44//1 53//1
f 53//2 44//2 50//2
f 49//1 54//1 52//1
f 52//2 54//2 49//2
f 50//1 53//1 55//1
f 55//2 53//2 50//2
f 56//1 54//1 49//1
f 49//2 54//2 56//2
f 55//1 53//1 57//1
f 57//2 53//2 55//2
f 56//1 58//1 54//1
f 54//2 58//2 56//2
f 56//1 59//1 58//1
f 58//2 59//2 56//2
f 60//1 59//1 56//1
f 56//2 59//2 60//2
f 60//1 61//1 59//1
f 59//2 61//2 60//2
f 60//1 62//1 61//1
f 61//2 62//2 60//2
f 63//1 62//1 60//1
f 60//2 62//2 63//2
f 64//1 62//1 63//1
f 63//2 62//2 64//2
f 64//1 65//1 62//1
f 62//2 65//2 64//2
f 66//1 65//1 64//1
f 64//2 65//2 66//2
f 66//1 67//1 65//1
f 65//2 67//2 66//2
f 66//1 68//1 67//1
f 67//2 68//2 66//2
f 69//1 68//1 66//1
f 66//2 68//2 69//2
f 69//1 70//1 68//1
f 68//2 70//2 69//2
f 71//1 70//1 69//1
f 69//2 70//2 71//2
f 72//1 70//1 71//1
f 71//2 70//2 72//2
f 73//1 70//1 72//1
f 72//2 70//2 73//2
f 74//1 70//1 73//1
f 73//2 70//2 74//2
f 70//1 74//1 75//1
f 75//2 74//2 70//2
