# SSTK version 0.8.0
# 4
mtllib original-4.mtl
o mesh3/mesh3-geometry#mesh3-geometry
v 0.279011 0.655234 -0.053242
v 0.276331 0.660253 -0.053242
v 0.276769 0.654757 -0.053242
v 0.280969 0.656102 -0.053242
v 0.282644 0.657359 -0.053242
v 0.284035 0.659005 -0.053242
v 0.285128 0.661005 -0.053242
v 0.279164 0.660855 -0.053242
v 0.280321 0.661584 -0.053242
v 0.285909 0.663320 -0.053242
v 0.281306 0.662600 -0.053242
v 0.282092 0.663855 -0.053242
v 0.286378 0.665952 -0.053242
v 0.282653 0.665304 -0.053242
v 0.283102 0.668780 -0.053242
v 0.286534 0.668898 -0.053242
v 0.282679 0.672088 -0.053242
v 0.286365 0.671869 -0.053242
v 0.285860 0.674513 -0.053242
v 0.281409 0.674706 -0.053242
v 0.285018 0.676831 -0.053242
v 0.279524 0.676411 -0.053242
v 0.277253 0.676979 -0.053242
v 0.283839 0.678821 -0.053242
v 0.269054 0.677855 -0.053242
v 0.271167 0.679983 -0.053242
v 0.274832 0.676355 -0.053242
v 0.282411 0.680420 -0.053242
v 0.266486 0.674554 -0.053242
v 0.273177 0.681406 -0.053242
v 0.272267 0.674483 -0.053242
v 0.280823 0.681561 -0.053242
v 0.269161 0.670837 -0.053242
v 0.275151 0.682208 -0.053242
v 0.263112 0.669611 -0.053242
v 0.279072 0.682246 -0.053242
v 0.265116 0.664887 -0.053242
v 0.277160 0.682475 -0.053242
v 0.258863 0.663432 -0.053242
v 0.256618 0.661174 -0.053242
v 0.262387 0.660851 -0.053242
v 0.260003 0.657891 -0.053242
v 0.257775 0.655801 -0.053242
v 0.255513 0.654371 -0.053242
v 0.252634 0.682534 -0.053242
v 0.254102 0.653873 -0.053242
v 0.256618 0.682534 -0.053242
v 0.252634 0.653747 -0.053242
vn 0 0 1
vn 0 0 -1
usemtl material_0_0
f 1//1 2//1 3//1
f 2//1 1//1 4//1
f 3//2 2//2 1//2
f 4//2 1//2 2//2
f 2//1 4//1 5//1
f 5//2 4//2 2//2
f 2//1 5//1 6//1
f 6//2 5//2 2//2
f 2//1 6//1 7//1
f 7//2 6//2 2//2
f 2//1 7//1 8//1
f 8//2 7//2 2//2
f 8//1 7//1 9//1
f 9//2 7//2 8//2
f 9//1 7//1 10//1
f 10//2 7//2 9//2
f 9//1 10//1 11//1
f 11//2 10//2 9//2
f 11//1 10//1 12//1
f 12//2 10//2 11//2
f 12//1 10//1 13//1
f 13//2 10//2 12//2
f 12//1 13//1 14//1
f 14//2 13//2 12//2
f 14//1 13//1 15//1
f 15//2 13//2 14//2
f 15//1 13//1 16//1
f 16//2 13//2 15//2
f 15//1 16//1 17//1
f 17//2 16//2 15//2
f 17//1 16//1 18//1
f 18//2 16//2 17//2
f 17//1 18//1 19//1
f 19//2 18//2 17//2
f 17//1 19//1 20//1
f 20//2 19//2 17//2
f 20//1 19//1 21//1
f 21//2 19//2 20//2
f 20//1 21//1 22//1
f 22//2 21//2 20//2
f 22//1 21//1 23//1
f 23//2 21//2 22//2
f 23//1 21//1 24//1
f 24//2 21//2 23//2
f 23//1 24//1 25//1
f 25//2 24//2 23//2
f 25//1 24//1 26//1
f 26//2 24//2 25//2
f 25//1 27//1 23//1
f 23//2 27//2 25//2
f 26//1 24//1 28//1
f 28//2 24//2 26//2
f 29//1 27//1 25//1
f 25//2 27//2 29//2
f 26//1 28//1 30//1
f 30//2 28//2 26//2
f 29//1 31//1 27//1
f 27//2 31//2 29//2
f 30//1 28//1 32//1
f 32//2 28//2 30//2
f 29//1 33//1 31//1
f 31//2 33//2 29//2
f 30//1 32//1 34//1
f 34//2 32//2 30//2
f 35//1 33//1 29//1
f 29//2 33//2 35//2
f 34//1 32//1 36//1
f 36//2 32//2 34//2
f 35//1 37//1 33//1
f 33//2 37//2 35//2
f 34//1 36//1 38//1
f 38//2 36//2 34//2
f 39//1 37//1 35//1
f 35//2 37//2 39//2
f 40//1 37//1 39//1
f 39//2 37//2 40//2
f 37//1 40//1 41//1
f 41//2 40//2 37//2
f 40//1 42//1 41//1
f 41//2 42//2 40//2
f 40//1 43//1 42//1
f 42//2 43//2 40//2
f 40//1 44//1 43//1
f 43//2 44//2 40//2
f 45//1 44//1 40//1
f 40//2 44//2 45//2
f 45//1 46//1 44//1
f 44//2 46//2 45//2
f 45//1 40//1 47//1
f 47//2 40//2 45//2
f 46//1 45//1 48//1
f 48//2 45//2 46//2
