# SSTK version 0.8.0
# 55
mtllib original-55.mtl
o mesh20/mesh20-geometry/material_3/component_4#mesh20-geometry
v -0.330916 0.834804 0.037823
v -0.330572 0.837418 0.037823
v -0.330572 0.832191 0.037823
v -0.329563 0.829755 0.037823
v -0.330572 0.832191 0.037823
v -0.330572 0.837418 0.037823
v -0.325867 0.826058 0.037823
v -0.327958 0.827663 0.037823
v -0.327958 0.841946 0.037823
v -0.323431 0.825049 0.037823
v -0.325867 0.826058 0.037823
v -0.323431 0.844559 0.037823
v -0.320817 0.824705 0.037823
v -0.323431 0.825049 0.037823
v -0.320817 0.844904 0.037823
v -0.327958 0.827663 0.037823
v -0.329563 0.829755 0.037823
v -0.329563 0.839854 0.037823
v -0.329563 0.839854 0.037823
v -0.329563 0.829755 0.037823
v -0.330572 0.837418 0.037823
v -0.327958 0.841946 0.037823
v -0.327958 0.827663 0.037823
v -0.329563 0.839854 0.037823
v -0.325867 0.843551 0.037823
v -0.325867 0.826058 0.037823
v -0.327958 0.841946 0.037823
v -0.323431 0.844559 0.037823
v -0.325867 0.826058 0.037823
v -0.325867 0.843551 0.037823
v -0.320817 0.844904 0.037823
v -0.323431 0.825049 0.037823
v -0.323431 0.844559 0.037823
v -0.318203 0.825049 0.037823
v -0.320817 0.824705 0.037823
v -0.320817 0.844904 0.037823
v -0.318203 0.844559 0.037823
v -0.318203 0.825049 0.037823
v -0.320817 0.844904 0.037823
v -0.315768 0.843551 0.037823
v -0.315768 0.826058 0.037823
v -0.318203 0.844559 0.037823
v -0.315768 0.826058 0.037823
v -0.318203 0.825049 0.037823
v -0.318203 0.844559 0.037823
v -0.313676 0.841946 0.037823
v -0.315768 0.826058 0.037823
v -0.315768 0.843551 0.037823
v -0.313676 0.827663 0.037823
v -0.315768 0.826058 0.037823
v -0.313676 0.841946 0.037823
v -0.312071 0.839854 0.037823
v -0.312071 0.829755 0.037823
v -0.313676 0.841946 0.037823
v -0.311062 0.837418 0.037823
v -0.311062 0.832191 0.037823
v -0.312071 0.839854 0.037823
v -0.312071 0.829755 0.037823
v -0.313676 0.827663 0.037823
v -0.313676 0.841946 0.037823
v -0.311062 0.832191 0.037823
v -0.312071 0.829755 0.037823
v -0.312071 0.839854 0.037823
v -0.310718 0.834804 0.037823
v -0.311062 0.832191 0.037823
v -0.311062 0.837418 0.037823
v -0.330572 0.832191 0.037823
v -0.330572 0.837418 0.037823
v -0.330916 0.834804 0.037823
v -0.330572 0.837418 0.037823
v -0.330572 0.832191 0.037823
v -0.329563 0.829755 0.037823
v -0.327958 0.841946 0.037823
v -0.327958 0.827663 0.037823
v -0.325867 0.826058 0.037823
v -0.323431 0.844559 0.037823
v -0.325867 0.826058 0.037823
v -0.323431 0.825049 0.037823
v -0.320817 0.844904 0.037823
v -0.323431 0.825049 0.037823
v -0.320817 0.824705 0.037823
v -0.329563 0.839854 0.037823
v -0.329563 0.829755 0.037823
v -0.327958 0.827663 0.037823
v -0.330572 0.837418 0.037823
v -0.329563 0.829755 0.037823
v -0.329563 0.839854 0.037823
v -0.329563 0.839854 0.037823
v -0.327958 0.827663 0.037823
v -0.327958 0.841946 0.037823
v -0.327958 0.841946 0.037823
v -0.325867 0.826058 0.037823
v -0.325867 0.843551 0.037823
v -0.325867 0.843551 0.037823
v -0.325867 0.826058 0.037823
v -0.323431 0.844559 0.037823
v -0.323431 0.844559 0.037823
v -0.323431 0.825049 0.037823
v -0.320817 0.844904 0.037823
v -0.320817 0.844904 0.037823
v -0.320817 0.824705 0.037823
v -0.318203 0.825049 0.037823
v -0.320817 0.844904 0.037823
v -0.318203 0.825049 0.037823
v -0.318203 0.844559 0.037823
v -0.318203 0.844559 0.037823
v -0.315768 0.826058 0.037823
v -0.315768 0.843551 0.037823
v -0.318203 0.844559 0.037823
v -0.318203 0.825049 0.037823
v -0.315768 0.826058 0.037823
v -0.315768 0.843551 0.037823
v -0.315768 0.826058 0.037823
v -0.313676 0.841946 0.037823
v -0.313676 0.841946 0.037823
v -0.315768 0.826058 0.037823
v -0.313676 0.827663 0.037823
v -0.313676 0.841946 0.037823
v -0.312071 0.829755 0.037823
v -0.312071 0.839854 0.037823
v -0.312071 0.839854 0.037823
v -0.311062 0.832191 0.037823
v -0.311062 0.837418 0.037823
v -0.313676 0.841946 0.037823
v -0.313676 0.827663 0.037823
v -0.312071 0.829755 0.037823
v -0.312071 0.839854 0.037823
v -0.312071 0.829755 0.037823
v -0.311062 0.832191 0.037823
v -0.311062 0.837418 0.037823
v -0.311062 0.832191 0.037823
v -0.310718 0.834804 0.037823
vt 0 0
vt 0.05347700044512749 0.4376539885997772
vt 0.05347700044512749 0.4389280080795288
vt 0.05339299887418747 0.4382910132408142
vt 0.05372299998998642 0.43705999851226807
vt 0.054113999009132385 0.4400309920310974
vt 0.054113999009132385 0.4365510046482086
vt 0.05462300032377243 0.43615999817848206
vt 0.05521700158715248 0.440667986869812
vt 0.05521700158715248 0.435914009809494
vt 0.05585400015115738 0.44075098633766174
vt 0.05585400015115738 0.4358299970626831
vt 0.05372299998998642 0.43952101469039917
vt 0.05462300032377243 0.440421998500824
vt 0.05649099871516228 0.435914009809494
vt 0.05649099871516228 0.440667986869812
vt 0.05708400160074234 0.43615999817848206
vt 0.05708400160074234 0.440421998500824
vt 0.05759400129318237 0.4400309920310974
vt 0.05759400129318237 0.4365510046482086
vt 0.05798500031232834 0.43705999851226807
vt 0.05798500031232834 0.43952101469039917
vt 0.05823000147938728 0.4376539885997772
vt 0.05823000147938728 0.4389280080795288
vt 0.058313999325037 0.4382910132408142
vn 0 0 -1
vn 0 0 1
usemtl material_0_0
f 1/1/1 2/1/1 3/1/1
f 4/1/1 5/1/1 6/1/1
f 7/1/1 8/1/1 9/1/1
f 10/1/1 11/1/1 12/1/1
f 13/1/1 14/1/1 15/1/1
f 16/1/1 17/1/1 18/1/1
f 19/1/1 20/1/1 21/1/1
f 22/1/1 23/1/1 24/1/1
f 25/1/1 26/1/1 27/1/1
f 28/1/1 29/1/1 30/1/1
f 31/1/1 32/1/1 33/1/1
f 34/1/1 35/1/1 36/1/1
f 37/1/1 38/1/1 39/1/1
f 40/1/1 41/1/1 42/1/1
f 43/1/1 44/1/1 45/1/1
f 46/1/1 47/1/1 48/1/1
f 49/1/1 50/1/1 51/1/1
f 52/1/1 53/1/1 54/1/1
f 55/1/1 56/1/1 57/1/1
f 58/1/1 59/1/1 60/1/1
f 61/1/1 62/1/1 63/1/1
f 64/1/1 65/1/1 66/1/1
usemtl material_1_0
f 67/2/2 68/3/2 69/4/2
f 70/3/2 71/2/2 72/5/2
f 73/6/2 74/7/2 75/8/2
f 76/9/2 77/8/2 78/10/2
f 79/11/2 80/10/2 81/12/2
f 82/13/2 83/5/2 84/7/2
f 85/3/2 86/5/2 87/13/2
f 88/13/2 89/7/2 90/6/2
f 91/6/2 92/8/2 93/14/2
f 94/14/2 95/8/2 96/9/2
f 97/9/2 98/10/2 99/11/2
f 100/11/2 101/12/2 102/15/2
f 103/11/2 104/15/2 105/16/2
f 106/16/2 107/17/2 108/18/2
f 109/16/2 110/15/2 111/17/2
f 112/18/2 113/17/2 114/19/2
f 115/19/2 116/17/2 117/20/2
f 118/19/2 119/21/2 120/22/2
f 121/22/2 122/23/2 123/24/2
f 124/19/2 125/20/2 126/21/2
f 127/22/2 128/21/2 129/23/2
f 130/24/2 131/23/2 132/25/2
