# SSTK version 0.8.0
# 18
mtllib original-18.mtl
o mesh14/mesh14-geometry#mesh14-geometry
v 0.106453 -0.853930 -0.053242
v 0.136865 -0.848610 -0.053242
v 0.136865 -0.844487 -0.053242
v 0.112780 -0.855887 -0.053242
v 0.106453 -0.857798 -0.053242
v 0.136865 -0.867356 -0.053242
v 0.136865 -0.863234 -0.053242
vn 0 0 1
vn 0 0 -1
usemtl material_0_0
f 1//1 2//1 3//1
f 2//1 1//1 4//1
f 3//2 2//2 1//2
f 4//2 1//2 2//2
f 5//1 4//1 1//1
f 1//2 4//2 5//2
f 6//1 4//1 5//1
f 5//2 4//2 6//2
f 4//1 6//1 7//1
f 7//2 6//2 4//2
