# SSTK version 0.8.0
# 61
mtllib original-61.mtl
o mesh20/mesh20-geometry/material_5/component_3#mesh20-geometry
v -0.327887 0.822560 0.041863
v -0.330815 0.824807 0.041863
v -0.330572 0.832191 0.041863
v -0.324477 0.821147 0.041863
v -0.327887 0.822560 0.041863
v -0.325867 0.826058 0.041863
v -0.330572 0.832191 0.041863
v -0.330815 0.824807 0.041863
v -0.330916 0.834804 0.041863
v -0.329563 0.829755 0.041863
v -0.327887 0.822560 0.041863
v -0.330572 0.832191 0.041863
v -0.330815 0.824807 0.041863
v -0.333062 0.827735 0.041863
v -0.333062 0.841874 0.041863
v -0.325867 0.826058 0.041863
v -0.327887 0.822560 0.041863
v -0.327958 0.827663 0.041863
v -0.323431 0.825049 0.041863
v -0.324477 0.821147 0.041863
v -0.325867 0.826058 0.041863
v -0.324477 0.848462 0.041863
v -0.325867 0.843551 0.041863
v -0.327887 0.847049 0.041863
v -0.320817 0.848943 0.041863
v -0.323431 0.844559 0.041863
v -0.324477 0.848462 0.041863
v -0.330916 0.834804 0.041863
v -0.330815 0.824807 0.041863
v -0.333062 0.841874 0.041863
v -0.327958 0.827663 0.041863
v -0.327887 0.822560 0.041863
v -0.329563 0.829755 0.041863
v -0.333062 0.841874 0.041863
v -0.333062 0.827735 0.041863
v -0.334474 0.838464 0.041863
v -0.333062 0.827735 0.041863
v -0.334474 0.831145 0.041863
v -0.334474 0.838464 0.041863
v -0.320817 0.820666 0.041863
v -0.324477 0.821147 0.041863
v -0.323431 0.825049 0.041863
v -0.327887 0.847049 0.041863
v -0.330572 0.837418 0.041863
v -0.330815 0.844802 0.041863
v -0.325867 0.843551 0.041863
v -0.327958 0.841946 0.041863
v -0.327887 0.847049 0.041863
v -0.323431 0.844559 0.041863
v -0.325867 0.843551 0.041863
v -0.324477 0.848462 0.041863
v -0.320817 0.844904 0.041863
v -0.323431 0.844559 0.041863
v -0.320817 0.848943 0.041863
v -0.317158 0.848462 0.041863
v -0.318203 0.844559 0.041863
v -0.320817 0.848943 0.041863
v -0.333062 0.841874 0.041863
v -0.330815 0.844802 0.041863
v -0.330916 0.834804 0.041863
v -0.334956 0.834804 0.041863
v -0.334474 0.838464 0.041863
v -0.334474 0.831145 0.041863
v -0.320817 0.824705 0.041863
v -0.320817 0.820666 0.041863
v -0.323431 0.825049 0.041863
v -0.330572 0.837418 0.041863
v -0.330916 0.834804 0.041863
v -0.330815 0.844802 0.041863
v -0.329563 0.839854 0.041863
v -0.330572 0.837418 0.041863
v -0.327887 0.847049 0.041863
v -0.327958 0.841946 0.041863
v -0.329563 0.839854 0.041863
v -0.327887 0.847049 0.041863
v -0.318203 0.844559 0.041863
v -0.320817 0.844904 0.041863
v -0.320817 0.848943 0.041863
v -0.315768 0.843551 0.041863
v -0.318203 0.844559 0.041863
v -0.317158 0.848462 0.041863
v -0.313748 0.847049 0.041863
v -0.315768 0.843551 0.041863
v -0.317158 0.848462 0.041863
v -0.317158 0.821147 0.041863
v -0.320817 0.820666 0.041863
v -0.320817 0.824705 0.041863
v -0.313676 0.841946 0.041863
v -0.315768 0.843551 0.041863
v -0.313748 0.847049 0.041863
v -0.310819 0.844802 0.041863
v -0.313676 0.841946 0.041863
v -0.313748 0.847049 0.041863
v -0.318203 0.825049 0.041863
v -0.317158 0.821147 0.041863
v -0.320817 0.824705 0.041863
v -0.312071 0.839854 0.041863
v -0.313676 0.841946 0.041863
v -0.310819 0.844802 0.041863
v -0.308572 0.841874 0.041863
v -0.310718 0.834804 0.041863
v -0.310819 0.844802 0.041863
v -0.315768 0.826058 0.041863
v -0.317158 0.821147 0.041863
v -0.318203 0.825049 0.041863
v -0.311062 0.837418 0.041863
v -0.312071 0.839854 0.041863
v -0.310819 0.844802 0.041863
v -0.310718 0.834804 0.041863
v -0.311062 0.837418 0.041863
v -0.310819 0.844802 0.041863
v -0.308572 0.827735 0.041863
v -0.310718 0.834804 0.041863
v -0.308572 0.841874 0.041863
v -0.307160 0.838464 0.041863
v -0.307160 0.831145 0.041863
v -0.308572 0.841874 0.041863
v -0.313748 0.822560 0.041863
v -0.317158 0.821147 0.041863
v -0.315768 0.826058 0.041863
v -0.308572 0.827735 0.041863
v -0.310819 0.824807 0.041863
v -0.310718 0.834804 0.041863
v -0.307160 0.831145 0.041863
v -0.308572 0.827735 0.041863
v -0.308572 0.841874 0.041863
v -0.306678 0.834804 0.041863
v -0.307160 0.831145 0.041863
v -0.307160 0.838464 0.041863
v -0.310819 0.824807 0.041863
v -0.313748 0.822560 0.041863
v -0.313676 0.827663 0.041863
v -0.313676 0.827663 0.041863
v -0.313748 0.822560 0.041863
v -0.315768 0.826058 0.041863
v -0.310718 0.834804 0.041863
v -0.310819 0.824807 0.041863
v -0.311062 0.832191 0.041863
v -0.312071 0.829755 0.041863
v -0.310819 0.824807 0.041863
v -0.313676 0.827663 0.041863
v -0.311062 0.832191 0.041863
v -0.310819 0.824807 0.041863
v -0.312071 0.829755 0.041863
v -0.330572 0.832191 0.041863
v -0.330815 0.824807 0.041863
v -0.327887 0.822560 0.041863
v -0.325867 0.826058 0.041863
v -0.327887 0.822560 0.041863
v -0.324477 0.821147 0.041863
v -0.330916 0.834804 0.041863
v -0.330815 0.824807 0.041863
v -0.330572 0.832191 0.041863
v -0.330572 0.832191 0.041863
v -0.327887 0.822560 0.041863
v -0.329563 0.829755 0.041863
v -0.333062 0.841874 0.041863
v -0.333062 0.827735 0.041863
v -0.330815 0.824807 0.041863
v -0.327958 0.827663 0.041863
v -0.327887 0.822560 0.041863
v -0.325867 0.826058 0.041863
v -0.325867 0.826058 0.041863
v -0.324477 0.821147 0.041863
v -0.323431 0.825049 0.041863
v -0.327887 0.847049 0.041863
v -0.325867 0.843551 0.041863
v -0.324477 0.848462 0.041863
v -0.324477 0.848462 0.041863
v -0.323431 0.844559 0.041863
v -0.320817 0.848943 0.041863
v -0.333062 0.841874 0.041863
v -0.330815 0.824807 0.041863
v -0.330916 0.834804 0.041863
v -0.329563 0.829755 0.041863
v -0.327887 0.822560 0.041863
v -0.327958 0.827663 0.041863
v -0.334474 0.838464 0.041863
v -0.333062 0.827735 0.041863
v -0.333062 0.841874 0.041863
v -0.334474 0.838464 0.041863
v -0.334474 0.831145 0.041863
v -0.333062 0.827735 0.041863
v -0.323431 0.825049 0.041863
v -0.324477 0.821147 0.041863
v -0.320817 0.820666 0.041863
v -0.330815 0.844802 0.041863
v -0.330572 0.837418 0.041863
v -0.327887 0.847049 0.041863
v -0.327887 0.847049 0.041863
v -0.327958 0.841946 0.041863
v -0.325867 0.843551 0.041863
v -0.324477 0.848462 0.041863
v -0.325867 0.843551 0.041863
v -0.323431 0.844559 0.041863
v -0.320817 0.848943 0.041863
v -0.323431 0.844559 0.041863
v -0.320817 0.844904 0.041863
v -0.320817 0.848943 0.041863
v -0.318203 0.844559 0.041863
v -0.317158 0.848462 0.041863
v -0.330916 0.834804 0.041863
v -0.330815 0.844802 0.041863
v -0.333062 0.841874 0.041863
v -0.334474 0.831145 0.041863
v -0.334474 0.838464 0.041863
v -0.334956 0.834804 0.041863
v -0.323431 0.825049 0.041863
v -0.320817 0.820666 0.041863
v -0.320817 0.824705 0.041863
v -0.330815 0.844802 0.041863
v -0.330916 0.834804 0.041863
v -0.330572 0.837418 0.041863
v -0.327887 0.847049 0.041863
v -0.330572 0.837418 0.041863
v -0.329563 0.839854 0.041863
v -0.327887 0.847049 0.041863
v -0.329563 0.839854 0.041863
v -0.327958 0.841946 0.041863
v -0.320817 0.848943 0.041863
v -0.320817 0.844904 0.041863
v -0.318203 0.844559 0.041863
v -0.317158 0.848462 0.041863
v -0.318203 0.844559 0.041863
v -0.315768 0.843551 0.041863
v -0.317158 0.848462 0.041863
v -0.315768 0.843551 0.041863
v -0.313748 0.847049 0.041863
v -0.320817 0.824705 0.041863
v -0.320817 0.820666 0.041863
v -0.317158 0.821147 0.041863
v -0.313748 0.847049 0.041863
v -0.315768 0.843551 0.041863
v -0.313676 0.841946 0.041863
v -0.313748 0.847049 0.041863
v -0.313676 0.841946 0.041863
v -0.310819 0.844802 0.041863
v -0.320817 0.824705 0.041863
v -0.317158 0.821147 0.041863
v -0.318203 0.825049 0.041863
v -0.310819 0.844802 0.041863
v -0.313676 0.841946 0.041863
v -0.312071 0.839854 0.041863
v -0.310819 0.844802 0.041863
v -0.310718 0.834804 0.041863
v -0.308572 0.841874 0.041863
v -0.318203 0.825049 0.041863
v -0.317158 0.821147 0.041863
v -0.315768 0.826058 0.041863
v -0.310819 0.844802 0.041863
v -0.312071 0.839854 0.041863
v -0.311062 0.837418 0.041863
v -0.310819 0.844802 0.041863
v -0.311062 0.837418 0.041863
v -0.310718 0.834804 0.041863
v -0.308572 0.841874 0.041863
v -0.310718 0.834804 0.041863
v -0.308572 0.827735 0.041863
v -0.308572 0.841874 0.041863
v -0.307160 0.831145 0.041863
v -0.307160 0.838464 0.041863
v -0.315768 0.826058 0.041863
v -0.317158 0.821147 0.041863
v -0.313748 0.822560 0.041863
v -0.310718 0.834804 0.041863
v -0.310819 0.824807 0.041863
v -0.308572 0.827735 0.041863
v -0.308572 0.841874 0.041863
v -0.308572 0.827735 0.041863
v -0.307160 0.831145 0.041863
v -0.307160 0.838464 0.041863
v -0.307160 0.831145 0.041863
v -0.306678 0.834804 0.041863
v -0.313676 0.827663 0.041863
v -0.313748 0.822560 0.041863
v -0.310819 0.824807 0.041863
v -0.315768 0.826058 0.041863
v -0.313748 0.822560 0.041863
v -0.313676 0.827663 0.041863
v -0.311062 0.832191 0.041863
v -0.310819 0.824807 0.041863
v -0.310718 0.834804 0.041863
v -0.313676 0.827663 0.041863
v -0.310819 0.824807 0.041863
v -0.312071 0.829755 0.041863
v -0.312071 0.829755 0.041863
v -0.310819 0.824807 0.041863
v -0.311062 0.832191 0.041863
vt 0 0
vt 0.023768000304698944 0.1945129930973053
vt 0.023740999400615692 0.1937129944562912
vt 0.02405799925327301 0.19347000122070312
vt 0.02427699975669384 0.19384899735450745
vt 0.024428000673651695 0.1933169960975647
vt 0.023730000481009483 0.19479599595069885
vt 0.02387700043618679 0.1942490041255951
vt 0.02349800057709217 0.1955610066652298
vt 0.02349800057709217 0.1940300017595291
vt 0.0240509994328022 0.194022998213768
vt 0.02454099990427494 0.19373999536037445
vt 0.02405799925327301 0.19612200558185577
vt 0.02427699975669384 0.19574299454689026
vt 0.024428000673651695 0.196274995803833
vt 0.02454099990427494 0.19585199654102325
vt 0.024824000895023346 0.19632700085639954
vt 0.02334499917924404 0.19519199430942535
vt 0.02334499917924404 0.19439999759197235
vt 0.024824000895023346 0.19326500594615936
vt 0.023740999400615692 0.1958789974451065
vt 0.023768000304698944 0.1950789988040924
vt 0.0240509994328022 0.1955689936876297
vt 0.024824000895023346 0.19588999450206757
vt 0.025107000023126602 0.19585199654102325
vt 0.025219999253749847 0.196274995803833
vt 0.02329299971461296 0.19479599595069885
vt 0.024824000895023346 0.19370199739933014
vt 0.02387700043618679 0.1953430026769638
vt 0.025371000170707703 0.19574299454689026
vt 0.025589000433683395 0.19612200558185577
vt 0.025219999253749847 0.1933169960975647
vt 0.025597000494599342 0.1955689936876297
vt 0.025906000286340714 0.1958789974451065
vt 0.025107000023126602 0.19373999536037445
vt 0.025770999491214752 0.1953430026769638
vt 0.025916999205946922 0.19479599595069885
vt 0.026149999350309372 0.1955610066652298
vt 0.025371000170707703 0.19384899735450745
vt 0.0258799996227026 0.1950789988040924
vt 0.026149999350309372 0.1940300017595291
vt 0.0263030007481575 0.19439999759197235
vt 0.0263030007481575 0.19519199430942535
vt 0.025589000433683395 0.19347000122070312
vt 0.025906000286340714 0.1937129944562912
vt 0.026355000212788582 0.19479599595069885
vt 0.025597000494599342 0.194022998213768
vt 0.0258799996227026 0.1945129930973053
vt 0.025770999491214752 0.1942490041255951
vn 0 0 -1
vn 0 0 1
usemtl material_0_0
f 1/1/1 2/1/1 3/1/1
f 4/1/1 5/1/1 6/1/1
f 7/1/1 8/1/1 9/1/1
f 10/1/1 11/1/1 12/1/1
f 13/1/1 14/1/1 15/1/1
f 16/1/1 17/1/1 18/1/1
f 19/1/1 20/1/1 21/1/1
f 22/1/1 23/1/1 24/1/1
f 25/1/1 26/1/1 27/1/1
f 28/1/1 29/1/1 30/1/1
f 31/1/1 32/1/1 33/1/1
f 34/1/1 35/1/1 36/1/1
f 37/1/1 38/1/1 39/1/1
f 40/1/1 41/1/1 42/1/1
f 43/1/1 44/1/1 45/1/1
f 46/1/1 47/1/1 48/1/1
f 49/1/1 50/1/1 51/1/1
f 52/1/1 53/1/1 54/1/1
f 55/1/1 56/1/1 57/1/1
f 58/1/1 59/1/1 60/1/1
f 61/1/1 62/1/1 63/1/1
f 64/1/1 65/1/1 66/1/1
f 67/1/1 68/1/1 69/1/1
f 70/1/1 71/1/1 72/1/1
f 73/1/1 74/1/1 75/1/1
f 76/1/1 77/1/1 78/1/1
f 79/1/1 80/1/1 81/1/1
f 82/1/1 83/1/1 84/1/1
f 85/1/1 86/1/1 87/1/1
f 88/1/1 89/1/1 90/1/1
f 91/1/1 92/1/1 93/1/1
f 94/1/1 95/1/1 96/1/1
f 97/1/1 98/1/1 99/1/1
f 100/1/1 101/1/1 102/1/1
f 103/1/1 104/1/1 105/1/1
f 106/1/1 107/1/1 108/1/1
f 109/1/1 110/1/1 111/1/1
f 112/1/1 113/1/1 114/1/1
f 115/1/1 116/1/1 117/1/1
f 118/1/1 119/1/1 120/1/1
f 121/1/1 122/1/1 123/1/1
f 124/1/1 125/1/1 126/1/1
f 127/1/1 128/1/1 129/1/1
f 130/1/1 131/1/1 132/1/1
f 133/1/1 134/1/1 135/1/1
f 136/1/1 137/1/1 138/1/1
f 139/1/1 140/1/1 141/1/1
f 142/1/1 143/1/1 144/1/1
usemtl material_1_0
f 145/2/2 146/3/2 147/4/2
f 148/5/2 149/4/2 150/6/2
f 151/7/2 152/3/2 153/2/2
f 154/2/2 155/4/2 156/8/2
f 157/9/2 158/10/2 159/3/2
f 160/11/2 161/4/2 162/5/2
f 163/5/2 164/6/2 165/12/2
f 166/13/2 167/14/2 168/15/2
f 169/15/2 170/16/2 171/17/2
f 172/9/2 173/3/2 174/7/2
f 175/8/2 176/4/2 177/11/2
f 178/18/2 179/10/2 180/9/2
f 181/18/2 182/19/2 183/10/2
f 184/12/2 185/6/2 186/20/2
f 187/21/2 188/22/2 189/13/2
f 190/13/2 191/23/2 192/14/2
f 193/15/2 194/14/2 195/16/2
f 196/17/2 197/16/2 198/24/2
f 199/17/2 200/25/2 201/26/2
f 202/7/2 203/21/2 204/9/2
f 205/19/2 206/18/2 207/27/2
f 208/12/2 209/20/2 210/28/2
f 211/21/2 212/7/2 213/22/2
f 214/13/2 215/22/2 216/29/2
f 217/13/2 218/29/2 219/23/2
f 220/17/2 221/24/2 222/25/2
f 223/26/2 224/25/2 225/30/2
f 226/26/2 227/30/2 228/31/2
f 229/28/2 230/20/2 231/32/2
f 232/31/2 233/30/2 234/33/2
f 235/31/2 236/33/2 237/34/2
f 238/28/2 239/32/2 240/35/2
f 241/34/2 242/33/2 243/36/2
f 244/34/2 245/37/2 246/38/2
f 247/35/2 248/32/2 249/39/2
f 250/34/2 251/36/2 252/40/2
f 253/34/2 254/40/2 255/37/2
f 256/38/2 257/37/2 258/41/2
f 259/38/2 260/42/2 261/43/2
f 262/39/2 263/32/2 264/44/2
f 265/37/2 266/45/2 267/41/2
f 268/38/2 269/41/2 270/42/2
f 271/43/2 272/42/2 273/46/2
f 274/47/2 275/44/2 276/45/2
f 277/39/2 278/44/2 279/47/2
f 280/48/2 281/45/2 282/37/2
f 283/47/2 284/45/2 285/49/2
f 286/49/2 287/45/2 288/48/2
