# SSTK version 0.8.0
# 56
mtllib original-56.mtl
o mesh20/mesh20-geometry/material_3/component_5#mesh20-geometry
v 0.517415 0.701659 0.014266
v 0.517415 0.606825 0.002375
v 0.517415 0.570369 0.014266
v 0.517415 0.701659 -0.014012
v 0.517415 0.657321 0.002375
v 0.517415 0.701659 0.014266
v 0.517415 0.570369 0.014266
v 0.517415 0.606825 -0.003684
v 0.517415 0.570369 -0.014012
v 0.517415 0.606825 -0.003684
v 0.517415 0.570369 0.014266
v 0.517415 0.606825 0.002375
v 0.517415 0.657321 0.002375
v 0.517415 0.606825 0.002375
v 0.517415 0.701659 0.014266
v 0.517415 0.701659 -0.014012
v 0.517415 0.570369 -0.014012
v 0.517415 0.606825 -0.003684
v 0.517415 0.657321 0.002375
v 0.517415 0.701659 -0.014012
v 0.517415 0.657321 -0.003684
v 0.517415 0.657321 -0.003684
v 0.517415 0.701659 -0.014012
v 0.517415 0.606825 -0.003684
v 0.517415 0.570369 0.014266
v 0.517415 0.606825 0.002375
v 0.517415 0.701659 0.014266
v 0.517415 0.701659 0.014266
v 0.517415 0.657321 0.002375
v 0.517415 0.701659 -0.014012
v 0.517415 0.570369 -0.014012
v 0.517415 0.606825 -0.003684
v 0.517415 0.570369 0.014266
v 0.517415 0.606825 0.002375
v 0.517415 0.570369 0.014266
v 0.517415 0.606825 -0.003684
v 0.517415 0.701659 0.014266
v 0.517415 0.606825 0.002375
v 0.517415 0.657321 0.002375
v 0.517415 0.606825 -0.003684
v 0.517415 0.570369 -0.014012
v 0.517415 0.701659 -0.014012
v 0.517415 0.657321 -0.003684
v 0.517415 0.701659 -0.014012
v 0.517415 0.657321 0.002375
v 0.517415 0.606825 -0.003684
v 0.517415 0.701659 -0.014012
v 0.517415 0.657321 -0.003684
vt 0 0
vt 0.37386199831962585 0.016405999660491943
vt 0.38274499773979187 0.013508999720215797
vt 0.40584999322891235 0.016405999660491943
vt 0.39504799246788025 0.013508999720215797
vt 0.40584999322891235 0.00951599981635809
vt 0.37386199831962585 0.00951599981635809
vt 0.38274499773979187 0.012032999657094479
vt 0.39504799246788025 0.012032999657094479
vn -1 0 0
vn 1 0 0
usemtl material_0_0
f 1/1/1 2/1/1 3/1/1
f 4/1/1 5/1/1 6/1/1
f 7/1/1 8/1/1 9/1/1
f 10/1/1 11/1/1 12/1/1
f 13/1/1 14/1/1 15/1/1
f 16/1/1 17/1/1 18/1/1
f 19/1/1 20/1/1 21/1/1
f 22/1/1 23/1/1 24/1/1
usemtl material_1_0
f 25/2/2 26/3/2 27/4/2
f 28/4/2 29/5/2 30/6/2
f 31/7/2 32/8/2 33/2/2
f 34/3/2 35/2/2 36/8/2
f 37/4/2 38/3/2 39/5/2
f 40/8/2 41/7/2 42/6/2
f 43/9/2 44/6/2 45/5/2
f 46/8/2 47/6/2 48/9/2
