# SSTK version 0.8.0
# 79
mtllib original-79.mtl
o mesh20/mesh20-geometry/material_10/component_1#mesh20-geometry
v 0.517415 0.606825 -0.003684
v 0.517415 0.606825 0.002375
v 0.517415 0.657321 -0.003684
v 0.517415 0.657321 0.002375
v 0.517415 0.657321 -0.003684
v 0.517415 0.606825 0.002375
v 0.517415 0.657321 -0.003684
v 0.517415 0.606825 0.002375
v 0.517415 0.606825 -0.003684
v 0.517415 0.606825 0.002375
v 0.517415 0.657321 -0.003684
v 0.517415 0.657321 0.002375
vt 0 0
vn -1 0 0
vn 1 0 0
usemtl material_0_0
f 1/1/1 2/1/1 3/1/1
f 4/1/1 5/1/1 6/1/1
usemtl material_1_0
f 7/1/2 8/1/2 9/1/2
f 10/1/2 11/1/2 12/1/2
