# SSTK version 0.8.0
# 5
mtllib original-5.mtl
o #ID117
v -0.301775 0.548752 -0.079035
v -0.007454 0.548752 -0.101576
v -0.272588 0.548752 -0.153131
v -0.032333 0.548752 -0.097858
v -0.055400 0.548752 -0.087828
v -0.075087 0.548752 -0.072169
v -0.310791 0.548752 0.000091
v -0.090050 0.548752 -0.051949
v -0.099270 0.548752 -0.028544
v -0.102115 0.548752 -0.003552
v -0.299019 0.548752 0.078854
v -0.098399 0.548752 0.021327
v -0.088368 0.548752 0.044394
v -0.072709 0.548752 0.064081
v -0.052488 0.548752 0.079043
v -0.267264 0.548752 0.151886
v -0.029084 0.548752 0.088262
v -0.004091 0.548752 0.091110
v 0.261041 0.548752 0.142665
v 0.213671 0.548752 0.206681
v -0.217688 0.548752 0.214210
v -0.153672 0.548752 0.261581
v 0.151347 0.548752 0.256257
v -0.079576 0.548752 0.290768
v 0.078314 0.548752 0.288012
v -0.000448 0.548752 0.299784
v -0.089861 0.548752 -0.298479
v 0.068029 0.548752 -0.301235
v -0.011097 0.548752 -0.310251
v -0.162894 0.548752 -0.266724
v 0.142125 0.548752 -0.272048
v -0.225218 0.548752 -0.217148
v 0.206141 0.548752 -0.224678
v 0.255717 0.548752 -0.162353
v 0.287472 0.548752 -0.089320
v 0.017537 0.548752 -0.098729
v 0.040943 0.548752 -0.089510
v 0.061162 0.548752 -0.074547
v 0.299244 0.548752 -0.010557
v 0.076821 0.548752 -0.054861
v 0.086852 0.548752 -0.031793
v 0.090570 0.548752 -0.006915
v 0.087722 0.548752 0.018078
v 0.290228 0.548752 0.068568
v 0.078503 0.548752 0.041482
v 0.063540 0.548752 0.061702
v 0.043855 0.548752 0.077361
v 0.020786 0.548752 0.087392
v -0.011097 0.548752 -0.310251
v -0.089861 0.527407 -0.298479
v -0.089861 0.548752 -0.298479
v -0.011097 0.527407 -0.310251
v -0.162894 0.527407 -0.266724
v -0.162894 0.548752 -0.266724
v -0.225218 0.527407 -0.217148
v -0.225218 0.548752 -0.217148
v -0.272588 0.548752 -0.153131
v -0.272588 0.527407 -0.153131
v -0.301775 0.548752 -0.079035
v -0.301775 0.527407 -0.079035
v -0.310791 0.548752 0.000091
v -0.310791 0.527407 0.000091
v -0.299019 0.548752 0.078854
v -0.299019 0.527407 0.078854
v -0.267264 0.548752 0.151886
v -0.267264 0.527407 0.151886
v -0.217688 0.548752 0.214210
v -0.217688 0.527407 0.214210
v -0.153672 0.527407 0.261581
v -0.153672 0.548752 0.261581
v -0.079576 0.527407 0.290768
v -0.079576 0.548752 0.290768
v -0.000448 0.527407 0.299784
v -0.000448 0.548752 0.299784
v 0.078314 0.527407 0.288012
v 0.078314 0.548752 0.288012
v 0.151347 0.527407 0.256257
v 0.151347 0.548752 0.256257
v 0.213671 0.527407 0.206681
v 0.213671 0.548752 0.206681
v 0.261041 0.548752 0.142665
v 0.261041 0.527407 0.142665
v 0.290228 0.548752 0.068568
v 0.290228 0.527407 0.068568
v 0.299244 0.548752 -0.010557
v 0.299244 0.527407 -0.010557
v 0.287472 0.548752 -0.089320
v 0.287472 0.527407 -0.089320
v 0.255717 0.548752 -0.162353
v 0.255717 0.527407 -0.162353
v 0.206141 0.548752 -0.224678
v 0.206141 0.527407 -0.224678
v 0.142125 0.527407 -0.272048
v 0.142125 0.548752 -0.272048
v 0.068029 0.527407 -0.301235
v 0.068029 0.548752 -0.301235
vn 0 1 0
vn -0.01745240832921448 0 -0.9998476951233675
vn -0.27563732229841925 0 -0.9612617055496163
vn -0.5150380781539518 0 -0.8571672987529821
vn -0.7193398016530974 0 -0.6946583690978483
vn -0.8746197071393962 0 -0.48480962024633667
vn -0.9702957356271962 0 -0.2419218580940513
vn -0.9998476951233675 0 0.017452408329214537
vn -0.9612617055496163 0 0.27563732229841925
vn -0.8571672987529821 0 0.5150380781539518
vn -0.6946583690978483 0 0.7193398016530974
vn -0.4848096202463367 0 0.8746197071393962
vn -0.24192185809405137 0 0.9702957356271962
vn 0.017452408329214776 0 0.9998476951233675
vn 0.27563732229841925 0 0.9612617055496163
vn 0.5150380781539518 0 0.8571672987529821
vn 0.7193398016530974 0 0.6946583690978483
vn 0.8746197071393962 0 0.48480962024633667
vn 0.9702957356271962 0 0.2419218580940513
vn 0.9998476951233676 0 -0.017452408329211046
vn 0.9612617055496163 0 -0.27563732229841925
vn 0.8571672987529821 0 -0.5150380781539518
vn 0.6946583690978483 0 -0.7193398016530974
vn 0.4848096202463367 0 -0.8746197071393962
vn 0.24192185809405137 0 -0.9702957356271962
usemtl material_0_0
f 1//1 2//1 3//1
f 2//1 1//1 4//1
f 4//1 1//1 5//1
f 5//1 1//1 6//1
f 6//1 1//1 7//1
f 6//1 7//1 8//1
f 8//1 7//1 9//1
f 9//1 7//1 10//1
f 10//1 7//1 11//1
f 10//1 11//1 12//1
f 12//1 11//1 13//1
f 13//1 11//1 14//1
f 14//1 11//1 15//1
f 15//1 11//1 16//1
f 15//1 16//1 17//1
f 17//1 16//1 18//1
f 18//1 16//1 19//1
f 19//1 16//1 20//1
f 20//1 16//1 21//1
f 20//1 21//1 22//1
f 20//1 22//1 23//1
f 23//1 22//1 24//1
f 23//1 24//1 25//1
f 25//1 24//1 26//1
f 27//1 28//1 29//1
f 28//1 27//1 30//1
f 28//1 30//1 31//1
f 31//1 30//1 32//1
f 31//1 32//1 33//1
f 33//1 32//1 3//1
f 33//1 3//1 34//1
f 34//1 3//1 35//1
f 35//1 3//1 2//1
f 35//1 2//1 36//1
f 35//1 36//1 37//1
f 35//1 37//1 38//1
f 35//1 38//1 39//1
f 39//1 38//1 40//1
f 39//1 40//1 41//1
f 39//1 41//1 42//1
f 39//1 42//1 43//1
f 39//1 43//1 44//1
f 44//1 43//1 45//1
f 44//1 45//1 46//1
f 44//1 46//1 47//1
f 44//1 47//1 19//1
f 19//1 47//1 48//1
f 19//1 48//1 18//1
f 49//2 50//3 51//3
f 50//3 49//2 52//2
f 51//3 53//4 54//4
f 53//4 51//3 50//3
f 54//4 55//5 56//5
f 55//5 54//4 53//4
f 57//6 55//5 58//6
f 55//5 57//6 56//5
f 59//7 58//6 60//7
f 58//6 59//7 57//6
f 61//8 60//7 62//8
f 60//7 61//8 59//7
f 63//9 62//8 64//9
f 62//8 63//9 61//8
f 65//10 64//9 66//10
f 64//9 65//10 63//9
f 67//11 66//10 68//11
f 66//10 67//11 65//10
f 69//12 67//11 68//11
f 67//11 69//12 70//12
f 71//13 70//12 69//12
f 70//12 71//13 72//13
f 73//14 72//13 71//13
f 72//13 73//14 74//14
f 75//15 74//14 73//14
f 74//14 75//15 76//15
f 77//16 76//15 75//15
f 76//15 77//16 78//16
f 79//17 78//16 77//16
f 78//16 79//17 80//17
f 81//18 79//17 82//18
f 79//17 81//18 80//17
f 83//19 82//18 84//19
f 82//18 83//19 81//18
f 85//20 84//19 86//20
f 84//19 85//20 83//19
f 87//21 86//20 88//21
f 86//20 87//21 85//20
f 89//22 88//21 90//22
f 88//21 89//22 87//21
f 91//23 90//22 92//23
f 90//22 91//23 89//22
f 91//23 93//24 94//24
f 93//24 91//23 92//23
f 94//24 95//25 96//25
f 95//25 94//24 93//24
f 96//25 52//2 49//2
f 52//2 96//25 95//25
