# SSTK version 0.8.0
# 6
mtllib original-6.mtl
o #ID123
v -0.090050 0.762203 -0.051949
v -0.006754 0.762203 -0.061434
v -0.075087 0.762203 -0.072169
v -0.021266 0.762203 -0.059265
v -0.034723 0.762203 -0.053414
v -0.046207 0.762203 -0.044279
v -0.099270 0.762203 -0.028544
v -0.054934 0.762203 -0.032484
v -0.060312 0.762203 -0.018831
v -0.102115 0.762203 -0.003552
v -0.061973 0.762203 -0.004252
v -0.098399 0.762203 0.021327
v -0.059804 0.762203 0.010260
v -0.053953 0.762203 0.023716
v -0.088368 0.762203 0.044394
v -0.044820 0.762203 0.035200
v -0.033024 0.762203 0.043928
v -0.072709 0.762203 0.064081
v -0.019371 0.762203 0.049306
v -0.004792 0.762203 0.050967
v -0.032333 0.762203 -0.097858
v 0.017537 0.762203 -0.098729
v -0.007454 0.762203 -0.101576
v -0.055400 0.762203 -0.087828
v 0.040943 0.762203 -0.089510
v 0.061162 0.762203 -0.074547
v 0.076821 0.762203 -0.054861
v 0.007824 0.762203 -0.059772
v 0.021477 0.762203 -0.054395
v 0.033273 0.762203 -0.045667
v 0.086852 0.762203 -0.031793
v 0.042406 0.762203 -0.034183
v 0.048259 0.762203 -0.020727
v 0.090570 0.762203 -0.006915
v 0.050427 0.762203 -0.006214
v 0.087722 0.762203 0.018078
v 0.048767 0.762203 0.008365
v 0.043387 0.762203 0.022017
v 0.078503 0.762203 0.041482
v 0.034660 0.762203 0.033813
v 0.023176 0.762203 0.042947
v 0.063540 0.762203 0.061702
v 0.009719 0.762203 0.048798
v -0.052488 0.762203 0.079043
v 0.043855 0.762203 0.077361
v -0.029084 0.762203 0.088262
v 0.020786 0.762203 0.087392
v -0.004091 0.762203 0.091110
v 0.086852 0.762203 -0.031793
v 0.090570 0.548752 -0.006915
v 0.086852 0.548752 -0.031793
v 0.090570 0.762203 -0.006915
v 0.076821 0.762203 -0.054861
v 0.076821 0.548752 -0.054861
v 0.061162 0.762203 -0.074547
v 0.061162 0.548752 -0.074547
v 0.040943 0.548752 -0.089510
v 0.040943 0.762203 -0.089510
v 0.017537 0.548752 -0.098729
v 0.017537 0.762203 -0.098729
v -0.007454 0.548752 -0.101576
v -0.007454 0.762203 -0.101576
v -0.032333 0.548752 -0.097858
v -0.032333 0.762203 -0.097858
v -0.055400 0.548752 -0.087828
v -0.055400 0.762203 -0.087828
v -0.075087 0.548752 -0.072169
v -0.075087 0.762203 -0.072169
v -0.090050 0.762203 -0.051949
v -0.090050 0.548752 -0.051949
v -0.099270 0.762203 -0.028544
v -0.099270 0.548752 -0.028544
v -0.102115 0.762203 -0.003552
v -0.102115 0.548752 -0.003552
v -0.098399 0.762203 0.021327
v -0.098399 0.548752 0.021327
v -0.088368 0.762203 0.044394
v -0.088368 0.548752 0.044394
v -0.072709 0.762203 0.064081
v -0.072709 0.548752 0.064081
v -0.052488 0.548752 0.079043
v -0.052488 0.762203 0.079043
v -0.029084 0.548752 0.088262
v -0.029084 0.762203 0.088262
v -0.004091 0.548752 0.091110
v -0.004091 0.762203 0.091110
v 0.020786 0.548752 0.087392
v 0.020786 0.762203 0.087392
v 0.043855 0.548752 0.077361
v 0.043855 0.762203 0.077361
v 0.063540 0.548752 0.061702
v 0.063540 0.762203 0.061702
v 0.078503 0.762203 0.041482
v 0.078503 0.548752 0.041482
v 0.087722 0.762203 0.018078
v 0.087722 0.548752 0.018078
vn 0 1 0
vn 0.9612617055496163 0 -0.27563732229841925
vn 0.9998476951233675 0 -0.017452408329215126
vn 0.8571672987529821 0 -0.5150380781539518
vn 0.6946583690978483 0 -0.7193398016530974
vn 0.4848096202463367 0 -0.8746197071393962
vn 0.24192185809405137 0 -0.9702957356271962
vn -0.017452408329221333 0 -0.9998476951233674
vn -0.27563732229841925 0 -0.9612617055496163
vn -0.5150380781539518 0 -0.8571672987529821
vn -0.7193398016530974 0 -0.6946583690978483
vn -0.8746197071393962 0 -0.48480962024633667
vn -0.9702957356271962 0 -0.2419218580940513
vn -0.9998476951233674 0 0.01745240832922139
vn -0.9612617055496163 0 0.27563732229841925
vn -0.8571672987529821 0 0.5150380781539518
vn -0.6946583690978483 0 0.7193398016530974
vn -0.4848096202463367 0 0.8746197071393962
vn -0.24192185809405137 0 0.9702957356271962
vn 0.017452408329222215 0 0.9998476951233674
vn 0.27563732229841925 0 0.9612617055496163
vn 0.5150380781539518 0 0.8571672987529821
vn 0.7193398016530974 0 0.6946583690978483
vn 0.8746197071393962 0 0.48480962024633667
vn 0.9702957356271962 0 0.2419218580940513
usemtl material_0_0
f 1//1 2//1 3//1
f 2//1 1//1 4//1
f 4//1 1//1 5//1
f 5//1 1//1 6//1
f 6//1 1//1 7//1
f 6//1 7//1 8//1
f 8//1 7//1 9//1
f 9//1 7//1 10//1
f 9//1 10//1 11//1
f 11//1 10//1 12//1
f 11//1 12//1 13//1
f 13//1 12//1 14//1
f 14//1 12//1 15//1
f 14//1 15//1 16//1
f 16//1 15//1 17//1
f 17//1 15//1 18//1
f 17//1 18//1 19//1
f 19//1 18//1 20//1
f 21//1 22//1 23//1
f 22//1 21//1 24//1
f 22//1 24//1 25//1
f 25//1 24//1 3//1
f 25//1 3//1 26//1
f 26//1 3//1 27//1
f 27//1 3//1 2//1
f 27//1 2//1 28//1
f 27//1 28//1 29//1
f 27//1 29//1 30//1
f 27//1 30//1 31//1
f 31//1 30//1 32//1
f 31//1 32//1 33//1
f 31//1 33//1 34//1
f 34//1 33//1 35//1
f 34//1 35//1 36//1
f 36//1 35//1 37//1
f 36//1 37//1 38//1
f 36//1 38//1 39//1
f 39//1 38//1 40//1
f 39//1 40//1 41//1
f 39//1 41//1 42//1
f 42//1 41//1 43//1
f 42//1 43//1 20//1
f 42//1 20//1 18//1
f 42//1 18//1 44//1
f 42//1 44//1 45//1
f 45//1 44//1 46//1
f 45//1 46//1 47//1
f 47//1 46//1 48//1
f 49//2 50//3 51//2
f 50//3 49//2 52//3
f 53//4 51//2 54//4
f 51//2 53//4 49//2
f 55//5 54//4 56//5
f 54//4 55//5 53//4
f 55//5 57//6 58//6
f 57//6 55//5 56//5
f 58//6 59//7 60//7
f 59//7 58//6 57//6
f 60//7 61//8 62//8
f 61//8 60//7 59//7
f 62//8 63//9 64//9
f 63//9 62//8 61//8
f 64//9 65//10 66//10
f 65//10 64//9 63//9
f 66//10 67//11 68//11
f 67//11 66//10 65//10
f 69//12 67//11 70//12
f 67//11 69//12 68//11
f 71//13 70//12 72//13
f 70//12 71//13 69//12
f 73//14 72//13 74//14
f 72//13 73//14 71//13
f 75//15 74//14 76//15
f 74//14 75//15 73//14
f 77//16 76//15 78//16
f 76//15 77//16 75//15
f 79//17 78//16 80//17
f 78//16 79//17 77//16
f 81//18 79//17 80//17
f 79//17 81//18 82//18
f 83//19 82//18 81//18
f 82//18 83//19 84//19
f 85//20 84//19 83//19
f 84//19 85//20 86//20
f 87//21 86//20 85//20
f 86//20 87//21 88//21
f 89//22 88//21 87//21
f 88//21 89//22 90//22
f 91//23 90//22 89//22
f 90//22 91//23 92//23
f 93//24 91//23 94//24
f 91//23 93//24 92//23
f 95//25 94//24 96//25
f 94//24 95//25 93//24
f 52//3 96//25 50//3
f 96//25 52//3 95//25
