# SSTK version 0.8.0
# 84
mtllib original-84.mtl
o mesh76/mesh76-geometry#mesh76-geometry
v 0.180249 -0.200705 0.066742
v 0.182302 -0.202990 0.066742
v 0.180249 -0.217224 0.066742
v 0.183244 -0.200705 0.066742
v 0.182302 -0.217224 0.066742
v 0.186861 -0.212675 0.066742
v 0.187649 -0.209902 0.066742
v 0.188170 -0.212675 0.066742
v 0.191909 -0.200705 0.066742
v 0.192763 -0.202990 0.066742
v 0.194959 -0.200705 0.066742
v 0.192763 -0.217224 0.066742
v 0.194959 -0.217224 0.066742
vn 0 0 -1
vn 0 0 1
usemtl material_0_0
f 1//1 2//1 3//1
f 2//1 1//1 4//1
f 3//2 2//2 1//2
f 4//2 1//2 2//2
f 5//1 3//1 2//1
f 2//2 3//2 5//2
f 2//1 4//1 6//1
f 6//2 4//2 2//2
f 6//1 4//1 7//1
f 7//2 4//2 6//2
f 6//1 7//1 8//1
f 8//2 7//2 6//2
f 8//1 7//1 9//1
f 9//2 7//2 8//2
f 8//1 9//1 10//1
f 10//2 9//2 8//2
f 10//1 9//1 11//1
f 11//2 9//2 10//2
f 10//1 11//1 12//1
f 12//2 11//2 10//2
f 12//1 11//1 13//1
f 13//2 11//2 12//2
