# SSTK version 0.8.0
# 7
mtllib original-7.mtl
o mesh5/mesh5-geometry#mesh5-geometry
v -0.065364 0.702329 0.066742
v -0.061703 0.685810 0.066742
v -0.067716 0.702329 0.066742
v -0.060183 0.687796 0.066742
v -0.058774 0.685810 0.066742
v -0.055003 0.702329 0.066742
v -0.052762 0.702329 0.066742
vn 0 0 -1
vn 0 0 1
usemtl material_0_0
f 1//1 2//1 3//1
f 2//1 1//1 4//1
f 3//2 2//2 1//2
f 4//2 1//2 2//2
f 2//1 4//1 5//1
f 5//2 4//2 2//2
f 5//1 4//1 6//1
f 6//2 4//2 5//2
f 5//1 6//1 7//1
f 7//2 6//2 5//2
