# SSTK version 0.8.0
# 138
mtllib original-138.mtl
o mesh109/mesh109-geometry/material_1#mesh109-geometry
v 0.332188 0.876909 0.031909
v -0.327973 0.876909 -0.072327
v 0.332188 0.876909 -0.072327
v 0.332188 0.876909 -0.072327
v -0.327973 0.876909 -0.072327
v 0.332188 0.876909 0.031909
v -0.327973 0.876909 -0.072327
v 0.332188 0.876909 0.031909
v -0.327973 0.876909 0.031909
v -0.327973 0.876909 0.031909
v 0.332188 0.876909 0.031909
v -0.327973 0.876909 -0.072327
v -0.327973 0.876909 0.031909
v 0.332188 0.876909 0.031909
v 0.332188 0.876909 0.066655
v 0.332188 0.876909 0.066655
v 0.332188 0.876909 0.031909
v -0.327973 0.876909 0.031909
v 0.332188 -0.964591 0.066655
v 0.332188 0.876909 0.031909
v 0.332188 0.876909 0.066655
v 0.332188 0.876909 0.066655
v 0.332188 0.876909 0.031909
v 0.332188 -0.964591 0.066655
v 0.332188 0.876909 0.031909
v 0.332188 -0.964591 0.066655
v 0.332188 -0.964591 0.031909
v 0.332188 -0.964591 0.031909
v 0.332188 -0.964591 0.066655
v 0.332188 0.876909 0.031909
v -0.327973 0.876909 0.031909
v 0.332188 0.876909 0.066655
v -0.327973 0.876909 0.066655
v -0.327973 0.876909 0.066655
v 0.332188 0.876909 0.066655
v -0.327973 0.876909 0.031909
v -0.327973 -0.964591 0.031909
v -0.327973 0.876909 0.066655
v -0.327973 0.876909 0.031909
v -0.327973 0.876909 0.031909
v -0.327973 0.876909 0.066655
v -0.327973 -0.964591 0.031909
v 0.332188 -0.964591 0.066655
v -0.327973 -0.964591 0.031909
v 0.332188 -0.964591 0.031909
v 0.332188 -0.964591 0.031909
v -0.327973 -0.964591 0.031909
v 0.332188 -0.964591 0.066655
v -0.327973 0.876909 0.066655
v -0.327973 -0.964591 0.031909
v -0.327973 -0.964591 0.066655
v -0.327973 -0.964591 0.066655
v -0.327973 -0.964591 0.031909
v -0.327973 0.876909 0.066655
v -0.327973 -0.964591 0.031909
v 0.332188 -0.964591 0.066655
v -0.327973 -0.964591 0.066655
v -0.327973 -0.964591 0.066655
v 0.332188 -0.964591 0.066655
v -0.327973 -0.964591 0.031909
vn 0 -1 0
vn 0 1 0
vn 1 0 0
vn -1 0 0
usemtl material_0_0
f 1//1 2//1 3//1
f 4//2 5//2 6//2
f 7//1 8//1 9//1
f 10//2 11//2 12//2
f 13//1 14//1 15//1
f 16//2 17//2 18//2
f 19//3 20//3 21//3
f 22//4 23//4 24//4
f 25//3 26//3 27//3
f 28//4 29//4 30//4
f 31//1 32//1 33//1
f 34//2 35//2 36//2
f 37//4 38//4 39//4
f 40//3 41//3 42//3
f 43//1 44//1 45//1
f 46//2 47//2 48//2
f 49//4 50//4 51//4
f 52//3 53//3 54//3
f 55//1 56//1 57//1
f 58//2 59//2 60//2
