# SSTK version 0.8.0
# 85
mtllib original-85.mtl
o mesh77/mesh77-geometry#mesh77-geometry
v 0.211833 -0.200705 0.066742
v 0.209636 -0.210756 0.066742
v 0.209636 -0.200705 0.066742
v 0.210147 -0.215948 0.066742
v 0.210919 -0.214948 0.066742
v 0.209453 -0.212781 0.066742
v 0.211439 -0.213724 0.066742
v 0.209220 -0.216677 0.066742
v 0.211734 -0.212272 0.066742
v 0.209208 -0.213550 0.066742
v 0.211833 -0.210590 0.066742
v 0.208838 -0.214228 0.066742
v 0.208255 -0.214868 0.066742
v 0.208150 -0.217179 0.066742
v 0.207506 -0.215321 0.066742
v 0.206913 -0.217471 0.066742
v 0.206586 -0.215592 0.066742
v 0.205487 -0.217568 0.066742
v 0.205487 -0.215682 0.066742
v 0.204396 -0.215590 0.066742
v 0.204034 -0.217465 0.066742
v 0.203474 -0.215316 0.066742
v 0.202781 -0.217157 0.066742
v 0.202724 -0.214861 0.066742
v 0.202148 -0.214228 0.066742
v 0.201778 -0.213560 0.066742
v 0.201718 -0.216649 0.066742
v 0.201532 -0.212819 0.066742
v 0.201349 -0.210700 0.066742
v 0.200839 -0.215948 0.066742
v 0.201349 -0.200705 0.066742
v 0.200066 -0.214944 0.066742
v 0.199547 -0.213751 0.066742
v 0.199251 -0.212317 0.066742
v 0.199153 -0.210590 0.066742
v 0.199153 -0.200705 0.066742
vn 0 0 -1
vn 0 0 1
usemtl material_0_0
f 1//1 2//1 3//1
f 2//1 1//1 4//1
f 3//2 2//2 1//2
f 4//2 1//2 2//2
f 4//1 1//1 5//1
f 5//2 1//2 4//2
f 4//1 6//1 2//1
f 2//2 6//2 4//2
f 5//1 1//1 7//1
f 7//2 1//2 5//2
f 8//1 6//1 4//1
f 4//2 6//2 8//2
f 7//1 1//1 9//1
f 9//2 1//2 7//2
f 8//1 10//1 6//1
f 6//2 10//2 8//2
f 9//1 1//1 11//1
f 11//2 1//2 9//2
f 8//1 12//1 10//1
f 10//2 12//2 8//2
f 8//1 13//1 12//1
f 12//2 13//2 8//2
f 14//1 13//1 8//1
f 8//2 13//2 14//2
f 14//1 15//1 13//1
f 13//2 15//2 14//2
f 16//1 15//1 14//1
f 14//2 15//2 16//2
f 16//1 17//1 15//1
f 15//2 17//2 16//2
f 18//1 17//1 16//1
f 16//2 17//2 18//2
f 18//1 19//1 17//1
f 17//2 19//2 18//2
f 18//1 20//1 19//1
f 19//2 20//2 18//2
f 21//1 20//1 18//1
f 18//2 20//2 21//2
f 21//1 22//1 20//1
f 20//2 22//2 21//2
f 23//1 22//1 21//1
f 21//2 22//2 23//2
f 23//1 24//1 22//1
f 22//2 24//2 23//2
f 23//1 25//1 24//1
f 24//2 25//2 23//2
f 23//1 26//1 25//1
f 25//2 26//2 23//2
f 27//1 26//1 23//1
f 23//2 26//2 27//2
f 27//1 28//1 26//1
f 26//2 28//2 27//2
f 27//1 29//1 28//1
f 28//2 29//2 27//2
f 30//1 29//1 27//1
f 27//2 29//2 30//2
f 30//1 31//1 29//1
f 29//2 31//2 30//2
f 32//1 31//1 30//1
f 30//2 31//2 32//2
f 33//1 31//1 32//1
f 32//2 31//2 33//2
f 34//1 31//1 33//1
f 33//2 31//2 34//2
f 35//1 31//1 34//1
f 34//2 31//2 35//2
f 31//1 35//1 36//1
f 36//2 35//2 31//2
