# SSTK version 0.8.0
# 59
mtllib original-59.mtl
o mesh53/mesh53-geometry#mesh53-geometry
v -0.044264 0.337503 0.066742
v -0.058264 0.335551 0.066742
v -0.058264 0.337503 0.066742
v -0.052362 0.335551 0.066742
v -0.050166 0.335551 0.066742
v -0.044264 0.335551 0.066742
v -0.052362 0.320985 0.066742
v -0.050166 0.320985 0.066742
vn 0 0 -1
vn 0 0 1
usemtl material_0_0
f 1//1 2//1 3//1
f 2//1 1//1 4//1
f 3//2 2//2 1//2
f 4//2 1//2 2//2
f 4//1 1//1 5//1
f 5//2 1//2 4//2
f 5//1 1//1 6//1
f 6//2 1//2 5//2
f 4//1 5//1 7//1
f 7//2 5//2 4//2
f 8//1 7//1 5//1
f 5//2 7//2 8//2
