# SSTK version 0.8.0
# 115
mtllib original-115.mtl
o mesh109/mesh109-geometry/material_0/component_1#mesh109-geometry
v 0.253419 0.655561 0.066655
v 0.254011 0.651065 0.084027
v 0.254011 0.651065 0.066655
v 0.254011 0.651065 0.066655
v 0.254011 0.633692 0.084027
v 0.254011 0.633692 0.066655
v 0.251684 0.659751 0.066655
v 0.253419 0.655561 0.084027
v 0.253419 0.655561 0.066655
v 0.254011 0.651065 0.084027
v 0.253419 0.655561 0.066655
v 0.253419 0.655561 0.084027
v 0.254011 0.633692 0.084027
v 0.254011 0.651065 0.066655
v 0.254011 0.651065 0.084027
v 0.253419 0.629196 0.084027
v 0.254011 0.633692 0.066655
v 0.254011 0.633692 0.084027
v 0.248923 0.663349 0.066655
v 0.251684 0.659751 0.084027
v 0.251684 0.659751 0.066655
v 0.253419 0.655561 0.084027
v 0.251684 0.659751 0.066655
v 0.251684 0.659751 0.084027
v 0.253419 0.655561 0.084027
v 0.254011 0.633692 0.084027
v 0.254011 0.651065 0.084027
v 0.254011 0.633692 0.066655
v 0.253419 0.629196 0.084027
v 0.253419 0.629196 0.066655
v 0.253419 0.655561 0.084027
v 0.253419 0.629196 0.084027
v 0.254011 0.633692 0.084027
v 0.245325 0.666110 0.084027
v 0.248923 0.663349 0.066655
v 0.245325 0.666110 0.066655
v 0.251684 0.659751 0.084027
v 0.248923 0.663349 0.066655
v 0.248923 0.663349 0.084027
v 0.251684 0.659751 0.084027
v 0.253419 0.629196 0.084027
v 0.253419 0.655561 0.084027
v 0.251684 0.625006 0.084027
v 0.253419 0.629196 0.066655
v 0.253419 0.629196 0.084027
v 0.241135 0.667845 0.084027
v 0.245325 0.666110 0.066655
v 0.241135 0.667845 0.066655
v 0.248923 0.663349 0.066655
v 0.245325 0.666110 0.084027
v 0.248923 0.663349 0.084027
v 0.245325 0.666110 0.066655
v 0.241135 0.667845 0.084027
v 0.245325 0.666110 0.084027
v 0.248923 0.663349 0.084027
v 0.251684 0.625006 0.084027
v 0.251684 0.659751 0.084027
v 0.251684 0.659751 0.084027
v 0.251684 0.625006 0.084027
v 0.253419 0.629196 0.084027
v 0.253419 0.629196 0.066655
v 0.251684 0.625006 0.084027
v 0.251684 0.625006 0.066655
v 0.236638 0.668438 0.084027
v 0.241135 0.667845 0.066655
v 0.236638 0.668438 0.066655
v 0.241135 0.667845 0.066655
v 0.236638 0.668438 0.084027
v 0.241135 0.667845 0.084027
v 0.245325 0.666110 0.084027
v 0.248923 0.621408 0.084027
v 0.248923 0.663349 0.084027
v 0.241135 0.667845 0.084027
v 0.245325 0.618647 0.084027
v 0.245325 0.666110 0.084027
v 0.248923 0.663349 0.084027
v 0.248923 0.621408 0.084027
v 0.251684 0.625006 0.084027
v 0.248923 0.621408 0.084027
v 0.251684 0.625006 0.066655
v 0.251684 0.625006 0.084027
v 0.184520 0.668438 0.084027
v 0.236638 0.668438 0.066655
v 0.184520 0.668438 0.066655
v 0.236638 0.668438 0.066655
v 0.184520 0.668438 0.084027
v 0.236638 0.668438 0.084027
v 0.236638 0.668438 0.084027
v 0.241135 0.616912 0.084027
v 0.241135 0.667845 0.084027
v 0.245325 0.666110 0.084027
v 0.245325 0.618647 0.084027
v 0.248923 0.621408 0.084027
v 0.241135 0.667845 0.084027
v 0.241135 0.616912 0.084027
v 0.245325 0.618647 0.084027
v 0.251684 0.625006 0.066655
v 0.248923 0.621408 0.084027
v 0.248923 0.621408 0.066655
v 0.180024 0.667845 0.084027
v 0.184520 0.668438 0.066655
v 0.180024 0.667845 0.066655
v 0.184520 0.668438 0.066655
v 0.180024 0.667845 0.084027
v 0.184520 0.668438 0.084027
v 0.184520 0.668438 0.084027
v 0.236638 0.616320 0.084027
v 0.236638 0.668438 0.084027
v 0.236638 0.668438 0.084027
v 0.236638 0.616320 0.084027
v 0.241135 0.616912 0.084027
v 0.245325 0.618647 0.066655
v 0.248923 0.621408 0.084027
v 0.245325 0.618647 0.084027
v 0.241135 0.616912 0.066655
v 0.245325 0.618647 0.084027
v 0.241135 0.616912 0.084027
v 0.248923 0.621408 0.084027
v 0.245325 0.618647 0.066655
v 0.248923 0.621408 0.066655
v 0.175834 0.666110 0.084027
v 0.180024 0.667845 0.066655
v 0.175834 0.666110 0.066655
v 0.180024 0.667845 0.066655
v 0.175834 0.666110 0.084027
v 0.180024 0.667845 0.084027
v 0.180024 0.667845 0.084027
v 0.184520 0.616320 0.084027
v 0.184520 0.668438 0.084027
v 0.184520 0.668438 0.084027
v 0.184520 0.616320 0.084027
v 0.236638 0.616320 0.084027
v 0.236638 0.616320 0.066655
v 0.241135 0.616912 0.084027
v 0.236638 0.616320 0.084027
v 0.245325 0.618647 0.084027
v 0.241135 0.616912 0.066655
v 0.245325 0.618647 0.066655
v 0.241135 0.616912 0.084027
v 0.236638 0.616320 0.066655
v 0.241135 0.616912 0.066655
v 0.172236 0.663349 0.084027
v 0.175834 0.666110 0.066655
v 0.172236 0.663349 0.066655
v 0.175834 0.666110 0.066655
v 0.172236 0.663349 0.084027
v 0.175834 0.666110 0.084027
v 0.175834 0.666110 0.084027
v 0.180024 0.616912 0.084027
v 0.180024 0.667845 0.084027
v 0.180024 0.667845 0.084027
v 0.180024 0.616912 0.084027
v 0.184520 0.616320 0.084027
v 0.184520 0.616320 0.066655
v 0.236638 0.616320 0.084027
v 0.184520 0.616320 0.084027
v 0.236638 0.616320 0.084027
v 0.184520 0.616320 0.066655
v 0.236638 0.616320 0.066655
v 0.169475 0.659751 0.066655
v 0.172236 0.663349 0.084027
v 0.172236 0.663349 0.066655
v 0.172236 0.663349 0.084027
v 0.175834 0.618647 0.084027
v 0.175834 0.666110 0.084027
v 0.175834 0.666110 0.084027
v 0.175834 0.618647 0.084027
v 0.180024 0.616912 0.084027
v 0.180024 0.616912 0.066655
v 0.184520 0.616320 0.084027
v 0.180024 0.616912 0.084027
v 0.184520 0.616320 0.084027
v 0.180024 0.616912 0.066655
v 0.184520 0.616320 0.066655
v 0.172236 0.663349 0.084027
v 0.169475 0.659751 0.066655
v 0.169475 0.659751 0.084027
v 0.172236 0.663349 0.084027
v 0.172236 0.621408 0.084027
v 0.175834 0.618647 0.084027
v 0.175834 0.618647 0.066655
v 0.180024 0.616912 0.084027
v 0.175834 0.618647 0.084027
v 0.180024 0.616912 0.084027
v 0.175834 0.618647 0.066655
v 0.180024 0.616912 0.066655
v 0.167740 0.655561 0.066655
v 0.169475 0.659751 0.084027
v 0.169475 0.659751 0.066655
v 0.169475 0.659751 0.084027
v 0.172236 0.621408 0.084027
v 0.172236 0.663349 0.084027
v 0.172236 0.621408 0.066655
v 0.175834 0.618647 0.084027
v 0.172236 0.621408 0.084027
v 0.175834 0.618647 0.084027
v 0.172236 0.621408 0.066655
v 0.175834 0.618647 0.066655
v 0.167148 0.651065 0.066655
v 0.167740 0.655561 0.084027
v 0.167740 0.655561 0.066655
v 0.169475 0.659751 0.084027
v 0.167740 0.655561 0.066655
v 0.167740 0.655561 0.084027
v 0.169475 0.659751 0.084027
v 0.169475 0.625006 0.084027
v 0.172236 0.621408 0.084027
v 0.169475 0.625006 0.084027
v 0.172236 0.621408 0.066655
v 0.172236 0.621408 0.084027
v 0.167740 0.655561 0.084027
v 0.167148 0.651065 0.066655
v 0.167148 0.651065 0.084027
v 0.167740 0.655561 0.084027
v 0.169475 0.625006 0.084027
v 0.169475 0.659751 0.084027
v 0.172236 0.621408 0.066655
v 0.169475 0.625006 0.084027
v 0.169475 0.625006 0.066655
v 0.167148 0.633692 0.066655
v 0.167148 0.651065 0.084027
v 0.167148 0.651065 0.066655
v 0.167148 0.651065 0.084027
v 0.167740 0.629196 0.084027
v 0.167740 0.655561 0.084027
v 0.167740 0.655561 0.084027
v 0.167740 0.629196 0.084027
v 0.169475 0.625006 0.084027
v 0.167740 0.629196 0.084027
v 0.169475 0.625006 0.066655
v 0.169475 0.625006 0.084027
v 0.167148 0.651065 0.084027
v 0.167148 0.633692 0.066655
v 0.167148 0.633692 0.084027
v 0.167740 0.629196 0.084027
v 0.167148 0.651065 0.084027
v 0.167148 0.633692 0.084027
v 0.169475 0.625006 0.066655
v 0.167740 0.629196 0.084027
v 0.167740 0.629196 0.066655
v 0.167740 0.629196 0.066655
v 0.167148 0.633692 0.084027
v 0.167148 0.633692 0.066655
v 0.167148 0.633692 0.084027
v 0.167740 0.629196 0.066655
v 0.167740 0.629196 0.084027
v 0.254011 0.651065 0.066655
v 0.254011 0.651065 0.084027
v 0.253419 0.655561 0.066655
v 0.254011 0.633692 0.066655
v 0.254011 0.633692 0.084027
v 0.254011 0.651065 0.066655
v 0.253419 0.655561 0.066655
v 0.253419 0.655561 0.084027
v 0.251684 0.659751 0.066655
v 0.253419 0.655561 0.084027
v 0.253419 0.655561 0.066655
v 0.254011 0.651065 0.084027
v 0.254011 0.651065 0.084027
v 0.254011 0.651065 0.066655
v 0.254011 0.633692 0.084027
v 0.254011 0.633692 0.084027
v 0.254011 0.633692 0.066655
v 0.253419 0.629196 0.084027
v 0.251684 0.659751 0.066655
v 0.251684 0.659751 0.084027
v 0.248923 0.663349 0.066655
v 0.251684 0.659751 0.084027
v 0.251684 0.659751 0.066655
v 0.253419 0.655561 0.084027
v 0.254011 0.651065 0.084027
v 0.254011 0.633692 0.084027
v 0.253419 0.655561 0.084027
v 0.253419 0.629196 0.066655
v 0.253419 0.629196 0.084027
v 0.254011 0.633692 0.066655
v 0.254011 0.633692 0.084027
v 0.253419 0.629196 0.084027
v 0.253419 0.655561 0.084027
v 0.245325 0.666110 0.066655
v 0.248923 0.663349 0.066655
v 0.245325 0.666110 0.084027
v 0.248923 0.663349 0.084027
v 0.248923 0.663349 0.066655
v 0.251684 0.659751 0.084027
v 0.253419 0.655561 0.084027
v 0.253419 0.629196 0.084027
v 0.251684 0.659751 0.084027
v 0.253419 0.629196 0.084027
v 0.253419 0.629196 0.066655
v 0.251684 0.625006 0.084027
v 0.241135 0.667845 0.066655
v 0.245325 0.666110 0.066655
v 0.241135 0.667845 0.084027
v 0.248923 0.663349 0.084027
v 0.245325 0.666110 0.084027
v 0.248923 0.663349 0.066655
v 0.245325 0.666110 0.084027
v 0.241135 0.667845 0.084027
v 0.245325 0.666110 0.066655
v 0.251684 0.659751 0.084027
v 0.251684 0.625006 0.084027
v 0.248923 0.663349 0.084027
v 0.253419 0.629196 0.084027
v 0.251684 0.625006 0.084027
v 0.251684 0.659751 0.084027
v 0.251684 0.625006 0.066655
v 0.251684 0.625006 0.084027
v 0.253419 0.629196 0.066655
v 0.236638 0.668438 0.066655
v 0.241135 0.667845 0.066655
v 0.236638 0.668438 0.084027
v 0.241135 0.667845 0.084027
v 0.236638 0.668438 0.084027
v 0.241135 0.667845 0.066655
v 0.248923 0.663349 0.084027
v 0.248923 0.621408 0.084027
v 0.245325 0.666110 0.084027
v 0.245325 0.666110 0.084027
v 0.245325 0.618647 0.084027
v 0.241135 0.667845 0.084027
v 0.251684 0.625006 0.084027
v 0.248923 0.621408 0.084027
v 0.248923 0.663349 0.084027
v 0.251684 0.625006 0.084027
v 0.251684 0.625006 0.066655
v 0.248923 0.621408 0.084027
v 0.184520 0.668438 0.066655
v 0.236638 0.668438 0.066655
v 0.184520 0.668438 0.084027
v 0.236638 0.668438 0.084027
v 0.184520 0.668438 0.084027
v 0.236638 0.668438 0.066655
v 0.241135 0.667845 0.084027
v 0.241135 0.616912 0.084027
v 0.236638 0.668438 0.084027
v 0.248923 0.621408 0.084027
v 0.245325 0.618647 0.084027
v 0.245325 0.666110 0.084027
v 0.245325 0.618647 0.084027
v 0.241135 0.616912 0.084027
v 0.241135 0.667845 0.084027
v 0.248923 0.621408 0.066655
v 0.248923 0.621408 0.084027
v 0.251684 0.625006 0.066655
v 0.180024 0.667845 0.066655
v 0.184520 0.668438 0.066655
v 0.180024 0.667845 0.084027
v 0.184520 0.668438 0.084027
v 0.180024 0.667845 0.084027
v 0.184520 0.668438 0.066655
v 0.236638 0.668438 0.084027
v 0.236638 0.616320 0.084027
v 0.184520 0.668438 0.084027
v 0.241135 0.616912 0.084027
v 0.236638 0.616320 0.084027
v 0.236638 0.668438 0.084027
v 0.245325 0.618647 0.084027
v 0.248923 0.621408 0.084027
v 0.245325 0.618647 0.066655
v 0.241135 0.616912 0.084027
v 0.245325 0.618647 0.084027
v 0.241135 0.616912 0.066655
v 0.248923 0.621408 0.066655
v 0.245325 0.618647 0.066655
v 0.248923 0.621408 0.084027
v 0.175834 0.666110 0.066655
v 0.180024 0.667845 0.066655
v 0.175834 0.666110 0.084027
v 0.180024 0.667845 0.084027
v 0.175834 0.666110 0.084027
v 0.180024 0.667845 0.066655
v 0.184520 0.668438 0.084027
v 0.184520 0.616320 0.084027
v 0.180024 0.667845 0.084027
v 0.236638 0.616320 0.084027
v 0.184520 0.616320 0.084027
v 0.184520 0.668438 0.084027
v 0.236638 0.616320 0.084027
v 0.241135 0.616912 0.084027
v 0.236638 0.616320 0.066655
v 0.245325 0.618647 0.066655
v 0.241135 0.616912 0.066655
v 0.245325 0.618647 0.084027
v 0.241135 0.616912 0.066655
v 0.236638 0.616320 0.066655
v 0.241135 0.616912 0.084027
v 0.172236 0.663349 0.066655
v 0.175834 0.666110 0.066655
v 0.172236 0.663349 0.084027
v 0.175834 0.666110 0.084027
v 0.172236 0.663349 0.084027
v 0.175834 0.666110 0.066655
v 0.180024 0.667845 0.084027
v 0.180024 0.616912 0.084027
v 0.175834 0.666110 0.084027
v 0.184520 0.616320 0.084027
v 0.180024 0.616912 0.084027
v 0.180024 0.667845 0.084027
v 0.184520 0.616320 0.084027
v 0.236638 0.616320 0.084027
v 0.184520 0.616320 0.066655
v 0.236638 0.616320 0.066655
v 0.184520 0.616320 0.066655
v 0.236638 0.616320 0.084027
v 0.172236 0.663349 0.066655
v 0.172236 0.663349 0.084027
v 0.169475 0.659751 0.066655
v 0.175834 0.666110 0.084027
v 0.175834 0.618647 0.084027
v 0.172236 0.663349 0.084027
v 0.180024 0.616912 0.084027
v 0.175834 0.618647 0.084027
v 0.175834 0.666110 0.084027
v 0.180024 0.616912 0.084027
v 0.184520 0.616320 0.084027
v 0.180024 0.616912 0.066655
v 0.184520 0.616320 0.066655
v 0.180024 0.616912 0.066655
v 0.184520 0.616320 0.084027
v 0.169475 0.659751 0.084027
v 0.169475 0.659751 0.066655
v 0.172236 0.663349 0.084027
v 0.175834 0.618647 0.084027
v 0.172236 0.621408 0.084027
v 0.172236 0.663349 0.084027
v 0.175834 0.618647 0.084027
v 0.180024 0.616912 0.084027
v 0.175834 0.618647 0.066655
v 0.180024 0.616912 0.066655
v 0.175834 0.618647 0.066655
v 0.180024 0.616912 0.084027
v 0.169475 0.659751 0.066655
v 0.169475 0.659751 0.084027
v 0.167740 0.655561 0.066655
v 0.172236 0.663349 0.084027
v 0.172236 0.621408 0.084027
v 0.169475 0.659751 0.084027
v 0.172236 0.621408 0.084027
v 0.175834 0.618647 0.084027
v 0.172236 0.621408 0.066655
v 0.175834 0.618647 0.066655
v 0.172236 0.621408 0.066655
v 0.175834 0.618647 0.084027
v 0.167740 0.655561 0.066655
v 0.167740 0.655561 0.084027
v 0.167148 0.651065 0.066655
v 0.167740 0.655561 0.084027
v 0.167740 0.655561 0.066655
v 0.169475 0.659751 0.084027
v 0.172236 0.621408 0.084027
v 0.169475 0.625006 0.084027
v 0.169475 0.659751 0.084027
v 0.172236 0.621408 0.084027
v 0.172236 0.621408 0.066655
v 0.169475 0.625006 0.084027
v 0.167148 0.651065 0.084027
v 0.167148 0.651065 0.066655
v 0.167740 0.655561 0.084027
v 0.169475 0.659751 0.084027
v 0.169475 0.625006 0.084027
v 0.167740 0.655561 0.084027
v 0.169475 0.625006 0.066655
v 0.169475 0.625006 0.084027
v 0.172236 0.621408 0.066655
v 0.167148 0.651065 0.066655
v 0.167148 0.651065 0.084027
v 0.167148 0.633692 0.066655
v 0.167740 0.655561 0.084027
v 0.167740 0.629196 0.084027
v 0.167148 0.651065 0.084027
v 0.169475 0.625006 0.084027
v 0.167740 0.629196 0.084027
v 0.167740 0.655561 0.084027
v 0.169475 0.625006 0.084027
v 0.169475 0.625006 0.066655
v 0.167740 0.629196 0.084027
v 0.167148 0.633692 0.084027
v 0.167148 0.633692 0.066655
v 0.167148 0.651065 0.084027
v 0.167148 0.633692 0.084027
v 0.167148 0.651065 0.084027
v 0.167740 0.629196 0.084027
v 0.167740 0.629196 0.066655
v 0.167740 0.629196 0.084027
v 0.169475 0.625006 0.066655
v 0.167148 0.633692 0.066655
v 0.167148 0.633692 0.084027
v 0.167740 0.629196 0.066655
v 0.167740 0.629196 0.084027
v 0.167740 0.629196 0.066655
v 0.167148 0.633692 0.084027
vn 0.9659258451755842 0.25881897461707376 0
vn 0.9914448878896857 0.13052599081182487 0
vn 1 0 0
vn 0.8660252955903434 0.5000001873976233 0
vn 0.9659258451755842 -0.25881897461707376 0
vn 0.9914448878896857 -0.13052599081182487 0
vn 0.7071067811865476 0.7071067811865476 0
vn 0 0 1
vn 0.5000001873976233 0.8660252955903434 0
vn 0.8660252955903434 -0.5000001873976233 0
vn 0.25881897461707376 0.9659258451755842 0
vn 0.13052599081182487 0.9914448878896857 0
vn 0.7071067811865476 -0.7071067811865476 0
vn 0 1 0
vn -0.25881897461707376 0.9659258451755842 0
vn -0.13052599081182487 0.9914448878896857 0
vn 0.5000001873976233 -0.8660252955903434 0
vn 0.25881897461707376 -0.9659258451755842 0
vn -0.5000001873976233 0.8660252955903434 0
vn 0.13052599081182487 -0.9914448878896857 0
vn -0.7071067811865476 0.7071067811865476 0
vn 0 -1 0
vn -0.8660252955903434 0.5000001873976233 0
vn -0.25881897461707376 -0.9659258451755842 0
vn -0.13052599081182487 -0.9914448878896857 0
vn -0.5000001873976233 -0.8660252955903434 0
vn -0.9659258451755842 0.25881897461707376 0
vn -0.7071067811865476 -0.7071067811865476 0
vn -0.9914448878896857 0.13052599081182487 0
vn -0.8660252955903434 -0.5000001873976233 0
vn -1 0 0
vn -0.9659258451755842 -0.25881897461707376 0
vn -0.9914448878896857 -0.13052599081182487 0
vn 0 0 -1
usemtl material_0_0
f 1//1 2//2 3//2
f 4//3 5//3 6//3
f 7//4 8//1 9//1
f 10//2 11//1 12//1
f 13//3 14//3 15//3
f 16//5 17//6 18//6
f 19//7 20//4 21//4
f 22//1 23//4 24//4
f 25//8 26//8 27//8
f 28//6 29//5 30//5
f 31//8 32//8 33//8
f 34//9 35//7 36//9
f 37//4 38//7 39//7
f 40//8 41//8 42//8
f 43//10 44//5 45//5
f 46//11 47//9 48//11
f 49//7 50//9 51//7
f 52//9 53//11 54//9
f 55//8 56//8 57//8
f 58//8 59//8 60//8
f 61//5 62//10 63//10
f 64//12 65//11 66//12
f 67//11 68//12 69//11
f 70//8 71//8 72//8
f 73//8 74//8 75//8
f 76//8 77//8 78//8
f 79//13 80//10 81//10
f 82//14 83//14 84//14
f 85//14 86//14 87//14
f 88//8 89//8 90//8
f 91//8 92//8 93//8
f 94//8 95//8 96//8
f 97//10 98//13 99//13
f 100//15 101//16 102//15
f 103//16 104//15 105//16
f 106//8 107//8 108//8
f 109//8 110//8 111//8
f 112//17 113//13 114//17
f 115//18 116//17 117//18
f 118//13 119//17 120//13
f 121//19 122//15 123//19
f 124//15 125//19 126//15
f 127//8 128//8 129//8
f 130//8 131//8 132//8
f 133//20 134//18 135//20
f 136//17 137//18 138//17
f 139//18 140//20 141//18
f 142//21 143//19 144//21
f 145//19 146//21 147//19
f 148//8 149//8 150//8
f 151//8 152//8 153//8
f 154//22 155//22 156//22
f 157//22 158//22 159//22
f 160//23 161//21 162//21
f 163//8 164//8 165//8
f 166//8 167//8 168//8
f 169//24 170//25 171//24
f 172//25 173//24 174//25
f 175//21 176//23 177//23
f 178//8 179//8 180//8
f 181//26 182//24 183//26
f 184//24 185//26 186//24
f 187//27 188//23 189//23
f 190//8 191//8 192//8
f 193//28 194//26 195//28
f 196//26 197//28 198//26
f 199//29 200//27 201//27
f 202//23 203//27 204//27
f 205//8 206//8 207//8
f 208//30 209//28 210//28
f 211//27 212//29 213//29
f 214//8 215//8 216//8
f 217//28 218//30 219//30
f 220//31 221//31 222//31
f 223//8 224//8 225//8
f 226//8 227//8 228//8
f 229//32 230//30 231//30
f 232//31 233//31 234//31
f 235//8 236//8 237//8
f 238//30 239//32 240//32
f 241//32 242//33 243//33
f 244//33 245//32 246//32
usemtl material_1_0
f 247//33 248//33 249//32
f 250//31 251//31 252//31
f 253//32 254//32 255//30
f 256//32 257//32 258//33
f 259//31 260//31 261//31
f 262//29 263//29 264//27
f 265//30 266//30 267//28
f 268//30 269//30 270//32
f 271//34 272//34 273//34
f 274//27 275//27 276//29
f 277//34 278//34 279//34
f 280//26 281//28 282//26
f 283//28 284//28 285//30
f 286//34 287//34 288//34
f 289//27 290//27 291//23
f 292//24 293//26 294//24
f 295//28 296//26 297//28
f 298//26 299//24 300//26
f 301//34 302//34 303//34
f 304//34 305//34 306//34
f 307//23 308//23 309//27
f 310//25 311//24 312//25
f 313//24 314//25 315//24
f 316//34 317//34 318//34
f 319//34 320//34 321//34
f 322//34 323//34 324//34
f 325//23 326//23 327//21
f 328//22 329//22 330//22
f 331//22 332//22 333//22
f 334//34 335//34 336//34
f 337//34 338//34 339//34
f 340//34 341//34 342//34
f 343//21 344//21 345//23
f 346//18 347//20 348//18
f 349//20 350//18 351//20
f 352//34 353//34 354//34
f 355//34 356//34 357//34
f 358//19 359//21 360//19
f 361//15 362//19 363//15
f 364//21 365//19 366//21
f 367//17 368//18 369//17
f 370//18 371//17 372//18
f 373//34 374//34 375//34
f 376//34 377//34 378//34
f 379//16 380//15 381//16
f 382//19 383//15 384//19
f 385//15 386//16 387//15
f 388//13 389//17 390//13
f 391//17 392//13 393//17
f 394//34 395//34 396//34
f 397//34 398//34 399//34
f 400//14 401//14 402//14
f 403//14 404//14 405//14
f 406//13 407//13 408//10
f 409//34 410//34 411//34
f 412//34 413//34 414//34
f 415//11 416//12 417//11
f 418//12 419//11 420//12
f 421//10 422//10 423//13
f 424//34 425//34 426//34
f 427//9 428//11 429//9
f 430//11 431//9 432//11
f 433//10 434//10 435//5
f 436//34 437//34 438//34
f 439//7 440//9 441//7
f 442//9 443//7 444//9
f 445//5 446//5 447//6
f 448//5 449//5 450//10
f 451//34 452//34 453//34
f 454//7 455//7 456//4
f 457//6 458//6 459//5
f 460//34 461//34 462//34
f 463//4 464//4 465//7
f 466//3 467//3 468//3
f 469//34 470//34 471//34
f 472//34 473//34 474//34
f 475//4 476//4 477//1
f 478//3 479//3 480//3
f 481//34 482//34 483//34
f 484//1 485//1 486//4
f 487//2 488//2 489//1
f 490//1 491//1 492//2
