# SSTK version 0.8.0
# 124
mtllib original-124.mtl
o mesh109/mesh109-geometry/material_0/component_10#mesh109-geometry
v -0.105726 -0.281970 0.066655
v -0.108487 -0.278372 0.084027
v -0.108487 -0.278372 0.066655
v -0.102128 -0.284731 0.084027
v -0.105726 -0.281970 0.066655
v -0.102128 -0.284731 0.066655
v -0.108487 -0.278372 0.084027
v -0.105726 -0.281970 0.066655
v -0.105726 -0.281970 0.084027
v -0.110223 -0.274182 0.084027
v -0.108487 -0.278372 0.066655
v -0.108487 -0.278372 0.084027
v -0.108487 -0.278372 0.066655
v -0.110223 -0.274182 0.084027
v -0.110223 -0.274182 0.066655
v -0.110815 -0.269686 0.066655
v -0.110815 -0.252313 0.084027
v -0.110815 -0.252313 0.066655
v -0.097938 -0.286466 0.084027
v -0.102128 -0.284731 0.066655
v -0.097938 -0.286466 0.066655
v -0.105726 -0.281970 0.066655
v -0.102128 -0.284731 0.084027
v -0.105726 -0.281970 0.084027
v -0.102128 -0.284731 0.066655
v -0.097938 -0.286466 0.084027
v -0.102128 -0.284731 0.084027
v -0.108487 -0.243627 0.084027
v -0.108487 -0.278372 0.084027
v -0.105726 -0.281970 0.084027
v -0.110223 -0.247817 0.084027
v -0.110223 -0.274182 0.084027
v -0.108487 -0.278372 0.084027
v -0.110815 -0.269686 0.084027
v -0.110223 -0.274182 0.066655
v -0.110223 -0.274182 0.084027
v -0.110815 -0.252313 0.084027
v -0.110815 -0.269686 0.066655
v -0.110815 -0.269686 0.084027
v -0.110223 -0.247817 0.084027
v -0.110815 -0.252313 0.066655
v -0.110815 -0.252313 0.084027
v -0.093442 -0.287058 0.084027
v -0.097938 -0.286466 0.066655
v -0.093442 -0.287058 0.066655
v -0.097938 -0.286466 0.066655
v -0.093442 -0.287058 0.084027
v -0.097938 -0.286466 0.084027
v -0.105726 -0.240029 0.084027
v -0.105726 -0.281970 0.084027
v -0.102128 -0.284731 0.084027
v -0.102128 -0.237268 0.084027
v -0.102128 -0.284731 0.084027
v -0.097938 -0.286466 0.084027
v -0.110223 -0.247817 0.084027
v -0.108487 -0.278372 0.084027
v -0.108487 -0.243627 0.084027
v -0.108487 -0.243627 0.084027
v -0.105726 -0.281970 0.084027
v -0.105726 -0.240029 0.084027
v -0.110815 -0.252313 0.084027
v -0.110223 -0.274182 0.084027
v -0.110223 -0.247817 0.084027
v -0.110223 -0.274182 0.066655
v -0.110815 -0.269686 0.084027
v -0.110815 -0.269686 0.066655
v -0.110223 -0.274182 0.084027
v -0.110815 -0.252313 0.084027
v -0.110815 -0.269686 0.084027
v -0.110815 -0.252313 0.066655
v -0.110223 -0.247817 0.084027
v -0.110223 -0.247817 0.066655
v -0.041324 -0.287058 0.084027
v -0.093442 -0.287058 0.066655
v -0.041324 -0.287058 0.066655
v -0.093442 -0.287058 0.066655
v -0.041324 -0.287058 0.084027
v -0.093442 -0.287058 0.084027
v -0.097938 -0.235532 0.084027
v -0.097938 -0.286466 0.084027
v -0.093442 -0.287058 0.084027
v -0.105726 -0.240029 0.084027
v -0.102128 -0.284731 0.084027
v -0.102128 -0.237268 0.084027
v -0.102128 -0.237268 0.084027
v -0.097938 -0.286466 0.084027
v -0.097938 -0.235532 0.084027
v -0.108487 -0.243627 0.084027
v -0.110223 -0.247817 0.066655
v -0.110223 -0.247817 0.084027
v -0.105726 -0.240029 0.084027
v -0.108487 -0.243627 0.066655
v -0.108487 -0.243627 0.084027
v -0.036828 -0.286466 0.084027
v -0.041324 -0.287058 0.066655
v -0.036828 -0.286466 0.066655
v -0.041324 -0.287058 0.066655
v -0.036828 -0.286466 0.084027
v -0.041324 -0.287058 0.084027
v -0.093442 -0.234940 0.084027
v -0.093442 -0.287058 0.084027
v -0.041324 -0.287058 0.084027
v -0.097938 -0.235532 0.084027
v -0.093442 -0.287058 0.084027
v -0.093442 -0.234940 0.084027
v -0.102128 -0.237268 0.066655
v -0.105726 -0.240029 0.084027
v -0.102128 -0.237268 0.084027
v -0.097938 -0.235532 0.066655
v -0.102128 -0.237268 0.084027
v -0.097938 -0.235532 0.084027
v -0.110223 -0.247817 0.066655
v -0.108487 -0.243627 0.084027
v -0.108487 -0.243627 0.066655
v -0.108487 -0.243627 0.066655
v -0.105726 -0.240029 0.084027
v -0.105726 -0.240029 0.066655
v -0.032638 -0.284731 0.084027
v -0.036828 -0.286466 0.066655
v -0.032638 -0.284731 0.066655
v -0.036828 -0.286466 0.066655
v -0.032638 -0.284731 0.084027
v -0.036828 -0.286466 0.084027
v -0.041324 -0.234940 0.084027
v -0.041324 -0.287058 0.084027
v -0.036828 -0.286466 0.084027
v -0.093442 -0.234940 0.084027
v -0.041324 -0.287058 0.084027
v -0.041324 -0.234940 0.084027
v -0.093442 -0.234940 0.066655
v -0.097938 -0.235532 0.084027
v -0.093442 -0.234940 0.084027
v -0.105726 -0.240029 0.084027
v -0.102128 -0.237268 0.066655
v -0.105726 -0.240029 0.066655
v -0.102128 -0.237268 0.084027
v -0.097938 -0.235532 0.066655
v -0.102128 -0.237268 0.066655
v -0.097938 -0.235532 0.084027
v -0.093442 -0.234940 0.066655
v -0.097938 -0.235532 0.066655
v -0.029040 -0.281970 0.084027
v -0.032638 -0.284731 0.066655
v -0.029040 -0.281970 0.066655
v -0.032638 -0.284731 0.066655
v -0.029040 -0.281970 0.084027
v -0.032638 -0.284731 0.084027
v -0.036828 -0.235532 0.084027
v -0.036828 -0.286466 0.084027
v -0.032638 -0.284731 0.084027
v -0.041324 -0.234940 0.084027
v -0.036828 -0.286466 0.084027
v -0.036828 -0.235532 0.084027
v -0.041324 -0.234940 0.066655
v -0.093442 -0.234940 0.084027
v -0.041324 -0.234940 0.084027
v -0.093442 -0.234940 0.084027
v -0.041324 -0.234940 0.066655
v -0.093442 -0.234940 0.066655
v -0.026279 -0.278372 0.066655
v -0.029040 -0.281970 0.084027
v -0.029040 -0.281970 0.066655
v -0.032638 -0.237268 0.084027
v -0.032638 -0.284731 0.084027
v -0.029040 -0.281970 0.084027
v -0.036828 -0.235532 0.084027
v -0.032638 -0.284731 0.084027
v -0.032638 -0.237268 0.084027
v -0.036828 -0.235532 0.066655
v -0.041324 -0.234940 0.084027
v -0.036828 -0.235532 0.084027
v -0.041324 -0.234940 0.084027
v -0.036828 -0.235532 0.066655
v -0.041324 -0.234940 0.066655
v -0.024544 -0.274182 0.066655
v -0.026279 -0.278372 0.084027
v -0.026279 -0.278372 0.066655
v -0.029040 -0.281970 0.084027
v -0.026279 -0.278372 0.066655
v -0.026279 -0.278372 0.084027
v -0.032638 -0.237268 0.084027
v -0.029040 -0.281970 0.084027
v -0.029040 -0.240029 0.084027
v -0.032638 -0.237268 0.066655
v -0.036828 -0.235532 0.084027
v -0.032638 -0.237268 0.084027
v -0.036828 -0.235532 0.084027
v -0.032638 -0.237268 0.066655
v -0.036828 -0.235532 0.066655
v -0.023951 -0.269686 0.066655
v -0.024544 -0.274182 0.084027
v -0.024544 -0.274182 0.066655
v -0.026279 -0.278372 0.084027
v -0.024544 -0.274182 0.066655
v -0.024544 -0.274182 0.084027
v -0.029040 -0.240029 0.084027
v -0.029040 -0.281970 0.084027
v -0.026279 -0.278372 0.084027
v -0.029040 -0.240029 0.066655
v -0.032638 -0.237268 0.084027
v -0.029040 -0.240029 0.084027
v -0.032638 -0.237268 0.084027
v -0.029040 -0.240029 0.066655
v -0.032638 -0.237268 0.066655
v -0.023951 -0.252313 0.066655
v -0.023951 -0.269686 0.084027
v -0.023951 -0.269686 0.066655
v -0.024544 -0.274182 0.084027
v -0.023951 -0.269686 0.066655
v -0.023951 -0.269686 0.084027
v -0.026279 -0.243627 0.084027
v -0.026279 -0.278372 0.084027
v -0.024544 -0.274182 0.084027
v -0.029040 -0.240029 0.084027
v -0.026279 -0.278372 0.084027
v -0.026279 -0.243627 0.084027
v -0.026279 -0.243627 0.084027
v -0.029040 -0.240029 0.066655
v -0.029040 -0.240029 0.084027
v -0.023951 -0.269686 0.084027
v -0.023951 -0.252313 0.066655
v -0.023951 -0.252313 0.084027
v -0.024544 -0.247817 0.084027
v -0.024544 -0.274182 0.084027
v -0.023951 -0.269686 0.084027
v -0.026279 -0.243627 0.084027
v -0.024544 -0.274182 0.084027
v -0.024544 -0.247817 0.084027
v -0.029040 -0.240029 0.066655
v -0.026279 -0.243627 0.084027
v -0.026279 -0.243627 0.066655
v -0.024544 -0.247817 0.066655
v -0.023951 -0.252313 0.084027
v -0.023951 -0.252313 0.066655
v -0.024544 -0.247817 0.084027
v -0.023951 -0.269686 0.084027
v -0.023951 -0.252313 0.084027
v -0.024544 -0.247817 0.084027
v -0.026279 -0.243627 0.066655
v -0.026279 -0.243627 0.084027
v -0.023951 -0.252313 0.084027
v -0.024544 -0.247817 0.066655
v -0.024544 -0.247817 0.084027
v -0.026279 -0.243627 0.066655
v -0.024544 -0.247817 0.084027
v -0.024544 -0.247817 0.066655
v -0.108487 -0.278372 0.066655
v -0.108487 -0.278372 0.084027
v -0.105726 -0.281970 0.066655
v -0.102128 -0.284731 0.066655
v -0.105726 -0.281970 0.066655
v -0.102128 -0.284731 0.084027
v -0.105726 -0.281970 0.084027
v -0.105726 -0.281970 0.066655
v -0.108487 -0.278372 0.084027
v -0.108487 -0.278372 0.084027
v -0.108487 -0.278372 0.066655
v -0.110223 -0.274182 0.084027
v -0.110223 -0.274182 0.066655
v -0.110223 -0.274182 0.084027
v -0.108487 -0.278372 0.066655
v -0.110815 -0.252313 0.066655
v -0.110815 -0.252313 0.084027
v -0.110815 -0.269686 0.066655
v -0.097938 -0.286466 0.066655
v -0.102128 -0.284731 0.066655
v -0.097938 -0.286466 0.084027
v -0.105726 -0.281970 0.084027
v -0.102128 -0.284731 0.084027
v -0.105726 -0.281970 0.066655
v -0.102128 -0.284731 0.084027
v -0.097938 -0.286466 0.084027
v -0.102128 -0.284731 0.066655
v -0.105726 -0.281970 0.084027
v -0.108487 -0.278372 0.084027
v -0.108487 -0.243627 0.084027
v -0.108487 -0.278372 0.084027
v -0.110223 -0.274182 0.084027
v -0.110223 -0.247817 0.084027
v -0.110223 -0.274182 0.084027
v -0.110223 -0.274182 0.066655
v -0.110815 -0.269686 0.084027
v -0.110815 -0.269686 0.084027
v -0.110815 -0.269686 0.066655
v -0.110815 -0.252313 0.084027
v -0.110815 -0.252313 0.084027
v -0.110815 -0.252313 0.066655
v -0.110223 -0.247817 0.084027
v -0.093442 -0.287058 0.066655
v -0.097938 -0.286466 0.066655
v -0.093442 -0.287058 0.084027
v -0.097938 -0.286466 0.084027
v -0.093442 -0.287058 0.084027
v -0.097938 -0.286466 0.066655
v -0.102128 -0.284731 0.084027
v -0.105726 -0.281970 0.084027
v -0.105726 -0.240029 0.084027
v -0.097938 -0.286466 0.084027
v -0.102128 -0.284731 0.084027
v -0.102128 -0.237268 0.084027
v -0.108487 -0.243627 0.084027
v -0.108487 -0.278372 0.084027
v -0.110223 -0.247817 0.084027
v -0.105726 -0.240029 0.084027
v -0.105726 -0.281970 0.084027
v -0.108487 -0.243627 0.084027
v -0.110223 -0.247817 0.084027
v -0.110223 -0.274182 0.084027
v -0.110815 -0.252313 0.084027
v -0.110815 -0.269686 0.066655
v -0.110815 -0.269686 0.084027
v -0.110223 -0.274182 0.066655
v -0.110815 -0.269686 0.084027
v -0.110815 -0.252313 0.084027
v -0.110223 -0.274182 0.084027
v -0.110223 -0.247817 0.066655
v -0.110223 -0.247817 0.084027
v -0.110815 -0.252313 0.066655
v -0.041324 -0.287058 0.066655
v -0.093442 -0.287058 0.066655
v -0.041324 -0.287058 0.084027
v -0.093442 -0.287058 0.084027
v -0.041324 -0.287058 0.084027
v -0.093442 -0.287058 0.066655
v -0.093442 -0.287058 0.084027
v -0.097938 -0.286466 0.084027
v -0.097938 -0.235532 0.084027
v -0.102128 -0.237268 0.084027
v -0.102128 -0.284731 0.084027
v -0.105726 -0.240029 0.084027
v -0.097938 -0.235532 0.084027
v -0.097938 -0.286466 0.084027
v -0.102128 -0.237268 0.084027
v -0.110223 -0.247817 0.084027
v -0.110223 -0.247817 0.066655
v -0.108487 -0.243627 0.084027
v -0.108487 -0.243627 0.084027
v -0.108487 -0.243627 0.066655
v -0.105726 -0.240029 0.084027
v -0.036828 -0.286466 0.066655
v -0.041324 -0.287058 0.066655
v -0.036828 -0.286466 0.084027
v -0.041324 -0.287058 0.084027
v -0.036828 -0.286466 0.084027
v -0.041324 -0.287058 0.066655
v -0.041324 -0.287058 0.084027
v -0.093442 -0.287058 0.084027
v -0.093442 -0.234940 0.084027
v -0.093442 -0.234940 0.084027
v -0.093442 -0.287058 0.084027
v -0.097938 -0.235532 0.084027
v -0.102128 -0.237268 0.084027
v -0.105726 -0.240029 0.084027
v -0.102128 -0.237268 0.066655
v -0.097938 -0.235532 0.084027
v -0.102128 -0.237268 0.084027
v -0.097938 -0.235532 0.066655
v -0.108487 -0.243627 0.066655
v -0.108487 -0.243627 0.084027
v -0.110223 -0.247817 0.066655
v -0.105726 -0.240029 0.066655
v -0.105726 -0.240029 0.084027
v -0.108487 -0.243627 0.066655
v -0.032638 -0.284731 0.066655
v -0.036828 -0.286466 0.066655
v -0.032638 -0.284731 0.084027
v -0.036828 -0.286466 0.084027
v -0.032638 -0.284731 0.084027
v -0.036828 -0.286466 0.066655
v -0.036828 -0.286466 0.084027
v -0.041324 -0.287058 0.084027
v -0.041324 -0.234940 0.084027
v -0.041324 -0.234940 0.084027
v -0.041324 -0.287058 0.084027
v -0.093442 -0.234940 0.084027
v -0.093442 -0.234940 0.084027
v -0.097938 -0.235532 0.084027
v -0.093442 -0.234940 0.066655
v -0.105726 -0.240029 0.066655
v -0.102128 -0.237268 0.066655
v -0.105726 -0.240029 0.084027
v -0.102128 -0.237268 0.066655
v -0.097938 -0.235532 0.066655
v -0.102128 -0.237268 0.084027
v -0.097938 -0.235532 0.066655
v -0.093442 -0.234940 0.066655
v -0.097938 -0.235532 0.084027
v -0.029040 -0.281970 0.066655
v -0.032638 -0.284731 0.066655
v -0.029040 -0.281970 0.084027
v -0.032638 -0.284731 0.084027
v -0.029040 -0.281970 0.084027
v -0.032638 -0.284731 0.066655
v -0.032638 -0.284731 0.084027
v -0.036828 -0.286466 0.084027
v -0.036828 -0.235532 0.084027
v -0.036828 -0.235532 0.084027
v -0.036828 -0.286466 0.084027
v -0.041324 -0.234940 0.084027
v -0.041324 -0.234940 0.084027
v -0.093442 -0.234940 0.084027
v -0.041324 -0.234940 0.066655
v -0.093442 -0.234940 0.066655
v -0.041324 -0.234940 0.066655
v -0.093442 -0.234940 0.084027
v -0.029040 -0.281970 0.066655
v -0.029040 -0.281970 0.084027
v -0.026279 -0.278372 0.066655
v -0.029040 -0.281970 0.084027
v -0.032638 -0.284731 0.084027
v -0.032638 -0.237268 0.084027
v -0.032638 -0.237268 0.084027
v -0.032638 -0.284731 0.084027
v -0.036828 -0.235532 0.084027
v -0.036828 -0.235532 0.084027
v -0.041324 -0.234940 0.084027
v -0.036828 -0.235532 0.066655
v -0.041324 -0.234940 0.066655
v -0.036828 -0.235532 0.066655
v -0.041324 -0.234940 0.084027
v -0.026279 -0.278372 0.066655
v -0.026279 -0.278372 0.084027
v -0.024544 -0.274182 0.066655
v -0.026279 -0.278372 0.084027
v -0.026279 -0.278372 0.066655
v -0.029040 -0.281970 0.084027
v -0.029040 -0.240029 0.084027
v -0.029040 -0.281970 0.084027
v -0.032638 -0.237268 0.084027
v -0.032638 -0.237268 0.084027
v -0.036828 -0.235532 0.084027
v -0.032638 -0.237268 0.066655
v -0.036828 -0.235532 0.066655
v -0.032638 -0.237268 0.066655
v -0.036828 -0.235532 0.084027
v -0.024544 -0.274182 0.066655
v -0.024544 -0.274182 0.084027
v -0.023951 -0.269686 0.066655
v -0.024544 -0.274182 0.084027
v -0.024544 -0.274182 0.066655
v -0.026279 -0.278372 0.084027
v -0.026279 -0.278372 0.084027
v -0.029040 -0.281970 0.084027
v -0.029040 -0.240029 0.084027
v -0.029040 -0.240029 0.084027
v -0.032638 -0.237268 0.084027
v -0.029040 -0.240029 0.066655
v -0.032638 -0.237268 0.066655
v -0.029040 -0.240029 0.066655
v -0.032638 -0.237268 0.084027
v -0.023951 -0.269686 0.066655
v -0.023951 -0.269686 0.084027
v -0.023951 -0.252313 0.066655
v -0.023951 -0.269686 0.084027
v -0.023951 -0.269686 0.066655
v -0.024544 -0.274182 0.084027
v -0.024544 -0.274182 0.084027
v -0.026279 -0.278372 0.084027
v -0.026279 -0.243627 0.084027
v -0.026279 -0.243627 0.084027
v -0.026279 -0.278372 0.084027
v -0.029040 -0.240029 0.084027
v -0.029040 -0.240029 0.084027
v -0.029040 -0.240029 0.066655
v -0.026279 -0.243627 0.084027
v -0.023951 -0.252313 0.084027
v -0.023951 -0.252313 0.066655
v -0.023951 -0.269686 0.084027
v -0.023951 -0.269686 0.084027
v -0.024544 -0.274182 0.084027
v -0.024544 -0.247817 0.084027
v -0.024544 -0.247817 0.084027
v -0.024544 -0.274182 0.084027
v -0.026279 -0.243627 0.084027
v -0.026279 -0.243627 0.066655
v -0.026279 -0.243627 0.084027
v -0.029040 -0.240029 0.066655
v -0.023951 -0.252313 0.066655
v -0.023951 -0.252313 0.084027
v -0.024544 -0.247817 0.066655
v -0.023951 -0.252313 0.084027
v -0.023951 -0.269686 0.084027
v -0.024544 -0.247817 0.084027
v -0.026279 -0.243627 0.084027
v -0.026279 -0.243627 0.066655
v -0.024544 -0.247817 0.084027
v -0.024544 -0.247817 0.084027
v -0.024544 -0.247817 0.066655
v -0.023951 -0.252313 0.084027
v -0.024544 -0.247817 0.066655
v -0.024544 -0.247817 0.084027
v -0.026279 -0.243627 0.066655
vn -0.7071067811865476 -0.7071067811865476 0
vn -0.8660252955903434 -0.5000001873976233 0
vn -0.5000001873976233 -0.8660252955903434 0
vn -0.9659258451755842 -0.25881897461707376 0
vn -1 0 0
vn -0.25881897461707376 -0.9659258451755842 0
vn 0 0 1
vn -0.9914448878896857 -0.13052599081182487 0
vn -0.9659258451755842 0.25881897461707376 0
vn -0.9914448878896857 0.13052599081182487 0
vn -0.13052599081182487 -0.9914448878896857 0
vn 0 -1 0
vn -0.8660252955903434 0.5000001873976233 0
vn -0.7071067811865476 0.7071067811865476 0
vn 0.25881897461707376 -0.9659258451755842 0
vn 0.13052599081182487 -0.9914448878896857 0
vn -0.5000001873976233 0.8660252955903434 0
vn -0.25881897461707376 0.9659258451755842 0
vn 0.5000001873976233 -0.8660252955903434 0
vn -0.13052599081182487 0.9914448878896857 0
vn 0.7071067811865476 -0.7071067811865476 0
vn 0 1 0
vn 0.8660252955903434 -0.5000001873976233 0
vn 0.25881897461707376 0.9659258451755842 0
vn 0.13052599081182487 0.9914448878896857 0
vn 0.9659258451755842 -0.25881897461707376 0
vn 0.5000001873976233 0.8660252955903434 0
vn 0.9914448878896857 -0.13052599081182487 0
vn 0.7071067811865476 0.7071067811865476 0
vn 1 0 0
vn 0.8660252955903434 0.5000001873976233 0
vn 0.9659258451755842 0.25881897461707376 0
vn 0.9914448878896857 0.13052599081182487 0
vn 0 0 -1
usemtl material_0_0
f 1//1 2//2 3//2
f 4//3 5//1 6//3
f 7//2 8//1 9//1
f 10//4 11//2 12//2
f 13//2 14//4 15//4
f 16//5 17//5 18//5
f 19//6 20//3 21//6
f 22//1 23//3 24//1
f 25//3 26//6 27//3
f 28//7 29//7 30//7
f 31//7 32//7 33//7
f 34//8 35//4 36//4
f 37//5 38//5 39//5
f 40//9 41//10 42//10
f 43//11 44//6 45//11
f 46//6 47//11 48//6
f 49//7 50//7 51//7
f 52//7 53//7 54//7
f 55//7 56//7 57//7
f 58//7 59//7 60//7
f 61//7 62//7 63//7
f 64//4 65//8 66//8
f 67//7 68//7 69//7
f 70//10 71//9 72//9
f 73//12 74//12 75//12
f 76//12 77//12 78//12
f 79//7 80//7 81//7
f 82//7 83//7 84//7
f 85//7 86//7 87//7
f 88//13 89//9 90//9
f 91//14 92//13 93//13
f 94//15 95//16 96//15
f 97//16 98//15 99//16
f 100//7 101//7 102//7
f 103//7 104//7 105//7
f 106//17 107//14 108//17
f 109//18 110//17 111//18
f 112//9 113//13 114//13
f 115//13 116//14 117//14
f 118//19 119//15 120//19
f 121//15 122//19 123//15
f 124//7 125//7 126//7
f 127//7 128//7 129//7
f 130//20 131//18 132//20
f 133//14 134//17 135//14
f 136//17 137//18 138//17
f 139//18 140//20 141//18
f 142//21 143//19 144//21
f 145//19 146//21 147//19
f 148//7 149//7 150//7
f 151//7 152//7 153//7
f 154//22 155//22 156//22
f 157//22 158//22 159//22
f 160//23 161//21 162//21
f 163//7 164//7 165//7
f 166//7 167//7 168//7
f 169//24 170//25 171//24
f 172//25 173//24 174//25
f 175//26 176//23 177//23
f 178//21 179//23 180//23
f 181//7 182//7 183//7
f 184//27 185//24 186//27
f 187//24 188//27 189//24
f 190//28 191//26 192//26
f 193//23 194//26 195//26
f 196//7 197//7 198//7
f 199//29 200//27 201//29
f 202//27 203//29 204//27
f 205//30 206//30 207//30
f 208//26 209//28 210//28
f 211//7 212//7 213//7
f 214//7 215//7 216//7
f 217//31 218//29 219//29
f 220//30 221//30 222//30
f 223//7 224//7 225//7
f 226//7 227//7 228//7
f 229//29 230//31 231//31
f 232//32 233//33 234//33
f 235//7 236//7 237//7
f 238//32 239//31 240//31
f 241//33 242//32 243//32
f 244//31 245//32 246//32
usemtl material_1_0
f 247//31 248//31 249//29
f 250//27 251//29 252//27
f 253//29 254//29 255//31
f 256//31 257//31 258//32
f 259//32 260//32 261//31
f 262//30 263//30 264//30
f 265//24 266//27 267//24
f 268//29 269//27 270//29
f 271//27 272//24 273//27
f 274//34 275//34 276//34
f 277//34 278//34 279//34
f 280//32 281//32 282//33
f 283//30 284//30 285//30
f 286//28 287//28 288//26
f 289//25 290//24 291//25
f 292//24 293//25 294//24
f 295//34 296//34 297//34
f 298//34 299//34 300//34
f 301//34 302//34 303//34
f 304//34 305//34 306//34
f 307//34 308//34 309//34
f 310//33 311//33 312//32
f 313//34 314//34 315//34
f 316//26 317//26 318//28
f 319//22 320//22 321//22
f 322//22 323//22 324//22
f 325//34 326//34 327//34
f 328//34 329//34 330//34
f 331//34 332//34 333//34
f 334//26 335//26 336//23
f 337//23 338//23 339//21
f 340//18 341//20 342//18
f 343//20 344//18 345//20
f 346//34 347//34 348//34
f 349//34 350//34 351//34
f 352//19 353//21 354//19
f 355//15 356//19 357//15
f 358//23 359//23 360//26
f 361//21 362//21 363//23
f 364//17 365//18 366//17
f 367//18 368//17 369//18
f 370//34 371//34 372//34
f 373//34 374//34 375//34
f 376//16 377//15 378//16
f 379//21 380//19 381//21
f 382//19 383//15 384//19
f 385//15 386//16 387//15
f 388//14 389//17 390//14
f 391//17 392//14 393//17
f 394//34 395//34 396//34
f 397//34 398//34 399//34
f 400//12 401//12 402//12
f 403//12 404//12 405//12
f 406//14 407//14 408//13
f 409//34 410//34 411//34
f 412//34 413//34 414//34
f 415//6 416//11 417//6
f 418//11 419//6 420//11
f 421//13 422//13 423//9
f 424//13 425//13 426//14
f 427//34 428//34 429//34
f 430//3 431//6 432//3
f 433//6 434//3 435//6
f 436//9 437//9 438//10
f 439//9 440//9 441//13
f 442//34 443//34 444//34
f 445//1 446//3 447//1
f 448//3 449//1 450//3
f 451//5 452//5 453//5
f 454//10 455//10 456//9
f 457//34 458//34 459//34
f 460//34 461//34 462//34
f 463//1 464//1 465//2
f 466//5 467//5 468//5
f 469//34 470//34 471//34
f 472//34 473//34 474//34
f 475//2 476//2 477//1
f 478//8 479//8 480//4
f 481//34 482//34 483//34
f 484//2 485//2 486//4
f 487//4 488//4 489//8
f 490//4 491//4 492//2
