# SSTK version 0.8.0
# 128
mtllib original-128.mtl
o mesh109/mesh109-geometry/material_0/component_14#mesh109-geometry
v 0.115030 0.286239 0.066655
v 0.115030 0.268867 0.084027
v 0.115030 0.268867 0.066655
v 0.115030 0.268867 0.066655
v 0.114438 0.264370 0.084027
v 0.114438 0.264370 0.066655
v 0.115030 0.268867 0.084027
v 0.115030 0.286239 0.066655
v 0.115030 0.286239 0.084027
v 0.114438 0.264370 0.084027
v 0.115030 0.268867 0.066655
v 0.115030 0.268867 0.084027
v 0.114438 0.290736 0.066655
v 0.115030 0.286239 0.084027
v 0.115030 0.286239 0.066655
v 0.112702 0.260180 0.084027
v 0.114438 0.264370 0.066655
v 0.114438 0.264370 0.084027
v 0.114438 0.290736 0.084027
v 0.115030 0.268867 0.084027
v 0.115030 0.286239 0.084027
v 0.114438 0.290736 0.084027
v 0.114438 0.264370 0.084027
v 0.115030 0.268867 0.084027
v 0.115030 0.286239 0.084027
v 0.114438 0.290736 0.066655
v 0.114438 0.290736 0.084027
v 0.114438 0.264370 0.066655
v 0.112702 0.260180 0.084027
v 0.112702 0.260180 0.066655
v 0.112702 0.294926 0.084027
v 0.112702 0.260180 0.084027
v 0.114438 0.264370 0.084027
v 0.112702 0.294926 0.084027
v 0.114438 0.264370 0.084027
v 0.114438 0.290736 0.084027
v 0.112702 0.294926 0.066655
v 0.114438 0.290736 0.084027
v 0.114438 0.290736 0.066655
v 0.109941 0.256582 0.084027
v 0.112702 0.260180 0.066655
v 0.112702 0.260180 0.084027
v 0.109941 0.298524 0.084027
v 0.112702 0.260180 0.084027
v 0.112702 0.294926 0.084027
v 0.114438 0.290736 0.084027
v 0.112702 0.294926 0.066655
v 0.112702 0.294926 0.084027
v 0.112702 0.260180 0.066655
v 0.109941 0.256582 0.084027
v 0.109941 0.256582 0.066655
v 0.109941 0.298524 0.084027
v 0.109941 0.256582 0.084027
v 0.112702 0.260180 0.084027
v 0.112702 0.294926 0.084027
v 0.109941 0.298524 0.066655
v 0.109941 0.298524 0.084027
v 0.109941 0.298524 0.066655
v 0.112702 0.294926 0.084027
v 0.112702 0.294926 0.066655
v 0.109941 0.256582 0.084027
v 0.106343 0.253821 0.066655
v 0.109941 0.256582 0.066655
v 0.106343 0.301285 0.084027
v 0.109941 0.256582 0.084027
v 0.109941 0.298524 0.084027
v 0.109941 0.298524 0.066655
v 0.106343 0.301285 0.084027
v 0.109941 0.298524 0.084027
v 0.106343 0.253821 0.066655
v 0.109941 0.256582 0.084027
v 0.106343 0.253821 0.084027
v 0.106343 0.301285 0.084027
v 0.106343 0.253821 0.084027
v 0.109941 0.256582 0.084027
v 0.106343 0.301285 0.084027
v 0.109941 0.298524 0.066655
v 0.106343 0.301285 0.066655
v 0.106343 0.253821 0.084027
v 0.102153 0.252086 0.066655
v 0.106343 0.253821 0.066655
v 0.102153 0.303020 0.084027
v 0.106343 0.253821 0.084027
v 0.106343 0.301285 0.084027
v 0.106343 0.301285 0.066655
v 0.102153 0.303020 0.084027
v 0.106343 0.301285 0.084027
v 0.102153 0.252086 0.066655
v 0.106343 0.253821 0.084027
v 0.102153 0.252086 0.084027
v 0.102153 0.303020 0.084027
v 0.102153 0.252086 0.084027
v 0.106343 0.253821 0.084027
v 0.102153 0.303020 0.084027
v 0.106343 0.301285 0.066655
v 0.102153 0.303020 0.066655
v 0.102153 0.252086 0.084027
v 0.097657 0.251494 0.066655
v 0.102153 0.252086 0.066655
v 0.097657 0.303612 0.084027
v 0.102153 0.252086 0.084027
v 0.102153 0.303020 0.084027
v 0.102153 0.303020 0.066655
v 0.097657 0.303612 0.084027
v 0.102153 0.303020 0.084027
v 0.097657 0.251494 0.066655
v 0.102153 0.252086 0.084027
v 0.097657 0.251494 0.084027
v 0.097657 0.303612 0.084027
v 0.097657 0.251494 0.084027
v 0.102153 0.252086 0.084027
v 0.097657 0.303612 0.084027
v 0.102153 0.303020 0.066655
v 0.097657 0.303612 0.066655
v 0.097657 0.251494 0.084027
v 0.045539 0.251494 0.066655
v 0.097657 0.251494 0.066655
v 0.045539 0.303612 0.084027
v 0.097657 0.251494 0.084027
v 0.097657 0.303612 0.084027
v 0.097657 0.303612 0.066655
v 0.045539 0.303612 0.084027
v 0.097657 0.303612 0.084027
v 0.045539 0.251494 0.066655
v 0.097657 0.251494 0.084027
v 0.045539 0.251494 0.084027
v 0.045539 0.303612 0.084027
v 0.045539 0.251494 0.084027
v 0.097657 0.251494 0.084027
v 0.045539 0.303612 0.084027
v 0.097657 0.303612 0.066655
v 0.045539 0.303612 0.066655
v 0.045539 0.251494 0.084027
v 0.041043 0.252086 0.066655
v 0.045539 0.251494 0.066655
v 0.041043 0.303020 0.084027
v 0.045539 0.251494 0.084027
v 0.045539 0.303612 0.084027
v 0.045539 0.303612 0.066655
v 0.041043 0.303020 0.084027
v 0.045539 0.303612 0.084027
v 0.041043 0.303020 0.084027
v 0.045539 0.303612 0.066655
v 0.041043 0.303020 0.066655
v 0.041043 0.252086 0.066655
v 0.045539 0.251494 0.084027
v 0.041043 0.252086 0.084027
v 0.041043 0.303020 0.084027
v 0.041043 0.252086 0.084027
v 0.045539 0.251494 0.084027
v 0.028166 0.286239 0.066655
v 0.028759 0.290736 0.084027
v 0.028759 0.290736 0.066655
v 0.036853 0.301285 0.084027
v 0.041043 0.303020 0.066655
v 0.036853 0.301285 0.066655
v 0.041043 0.303020 0.066655
v 0.036853 0.301285 0.084027
v 0.041043 0.303020 0.084027
v 0.041043 0.252086 0.084027
v 0.036853 0.253821 0.066655
v 0.041043 0.252086 0.066655
v 0.036853 0.301285 0.084027
v 0.041043 0.252086 0.084027
v 0.041043 0.303020 0.084027
v 0.028759 0.290736 0.084027
v 0.028166 0.286239 0.066655
v 0.028166 0.286239 0.084027
v 0.030494 0.294926 0.084027
v 0.028759 0.290736 0.066655
v 0.028759 0.290736 0.084027
v 0.028759 0.290736 0.066655
v 0.030494 0.294926 0.084027
v 0.030494 0.294926 0.066655
v 0.033255 0.298524 0.084027
v 0.036853 0.301285 0.066655
v 0.033255 0.298524 0.066655
v 0.036853 0.301285 0.066655
v 0.033255 0.298524 0.084027
v 0.036853 0.301285 0.084027
v 0.036853 0.253821 0.066655
v 0.041043 0.252086 0.084027
v 0.036853 0.253821 0.084027
v 0.036853 0.301285 0.084027
v 0.036853 0.253821 0.084027
v 0.041043 0.252086 0.084027
v 0.028166 0.268867 0.066655
v 0.028166 0.286239 0.084027
v 0.028166 0.286239 0.066655
v 0.028166 0.286239 0.084027
v 0.028759 0.264370 0.084027
v 0.028759 0.290736 0.084027
v 0.028759 0.290736 0.084027
v 0.030494 0.260180 0.084027
v 0.030494 0.294926 0.084027
v 0.033255 0.298524 0.084027
v 0.030494 0.294926 0.066655
v 0.030494 0.294926 0.084027
v 0.030494 0.294926 0.066655
v 0.033255 0.298524 0.084027
v 0.033255 0.298524 0.066655
v 0.033255 0.298524 0.084027
v 0.036853 0.253821 0.084027
v 0.036853 0.301285 0.084027
v 0.036853 0.253821 0.084027
v 0.033255 0.256582 0.066655
v 0.036853 0.253821 0.066655
v 0.028166 0.286239 0.084027
v 0.028166 0.268867 0.066655
v 0.028166 0.268867 0.084027
v 0.028759 0.264370 0.084027
v 0.028166 0.286239 0.084027
v 0.028166 0.268867 0.084027
v 0.028759 0.290736 0.084027
v 0.028759 0.264370 0.084027
v 0.030494 0.260180 0.084027
v 0.030494 0.294926 0.084027
v 0.030494 0.260180 0.084027
v 0.033255 0.256582 0.084027
v 0.030494 0.294926 0.084027
v 0.033255 0.256582 0.084027
v 0.033255 0.298524 0.084027
v 0.033255 0.298524 0.084027
v 0.033255 0.256582 0.084027
v 0.036853 0.253821 0.084027
v 0.033255 0.256582 0.066655
v 0.036853 0.253821 0.084027
v 0.033255 0.256582 0.084027
v 0.028759 0.264370 0.066655
v 0.028166 0.268867 0.084027
v 0.028166 0.268867 0.066655
v 0.028166 0.268867 0.084027
v 0.028759 0.264370 0.066655
v 0.028759 0.264370 0.084027
v 0.028759 0.264370 0.084027
v 0.030494 0.260180 0.066655
v 0.030494 0.260180 0.084027
v 0.030494 0.260180 0.084027
v 0.033255 0.256582 0.066655
v 0.033255 0.256582 0.084027
v 0.033255 0.256582 0.066655
v 0.030494 0.260180 0.084027
v 0.030494 0.260180 0.066655
v 0.030494 0.260180 0.066655
v 0.028759 0.264370 0.084027
v 0.028759 0.264370 0.066655
v 0.115030 0.268867 0.066655
v 0.115030 0.268867 0.084027
v 0.115030 0.286239 0.066655
v 0.114438 0.264370 0.066655
v 0.114438 0.264370 0.084027
v 0.115030 0.268867 0.066655
v 0.115030 0.286239 0.084027
v 0.115030 0.286239 0.066655
v 0.115030 0.268867 0.084027
v 0.115030 0.268867 0.084027
v 0.115030 0.268867 0.066655
v 0.114438 0.264370 0.084027
v 0.115030 0.286239 0.066655
v 0.115030 0.286239 0.084027
v 0.114438 0.290736 0.066655
v 0.114438 0.264370 0.084027
v 0.114438 0.264370 0.066655
v 0.112702 0.260180 0.084027
v 0.115030 0.286239 0.084027
v 0.115030 0.268867 0.084027
v 0.114438 0.290736 0.084027
v 0.115030 0.268867 0.084027
v 0.114438 0.264370 0.084027
v 0.114438 0.290736 0.084027
v 0.114438 0.290736 0.084027
v 0.114438 0.290736 0.066655
v 0.115030 0.286239 0.084027
v 0.112702 0.260180 0.066655
v 0.112702 0.260180 0.084027
v 0.114438 0.264370 0.066655
v 0.114438 0.264370 0.084027
v 0.112702 0.260180 0.084027
v 0.112702 0.294926 0.084027
v 0.114438 0.290736 0.084027
v 0.114438 0.264370 0.084027
v 0.112702 0.294926 0.084027
v 0.114438 0.290736 0.066655
v 0.114438 0.290736 0.084027
v 0.112702 0.294926 0.066655
v 0.112702 0.260180 0.084027
v 0.112702 0.260180 0.066655
v 0.109941 0.256582 0.084027
v 0.112702 0.294926 0.084027
v 0.112702 0.260180 0.084027
v 0.109941 0.298524 0.084027
v 0.112702 0.294926 0.084027
v 0.112702 0.294926 0.066655
v 0.114438 0.290736 0.084027
v 0.109941 0.256582 0.066655
v 0.109941 0.256582 0.084027
v 0.112702 0.260180 0.066655
v 0.112702 0.260180 0.084027
v 0.109941 0.256582 0.084027
v 0.109941 0.298524 0.084027
v 0.109941 0.298524 0.084027
v 0.109941 0.298524 0.066655
v 0.112702 0.294926 0.084027
v 0.112702 0.294926 0.066655
v 0.112702 0.294926 0.084027
v 0.109941 0.298524 0.066655
v 0.109941 0.256582 0.066655
v 0.106343 0.253821 0.066655
v 0.109941 0.256582 0.084027
v 0.109941 0.298524 0.084027
v 0.109941 0.256582 0.084027
v 0.106343 0.301285 0.084027
v 0.109941 0.298524 0.084027
v 0.106343 0.301285 0.084027
v 0.109941 0.298524 0.066655
v 0.106343 0.253821 0.084027
v 0.109941 0.256582 0.084027
v 0.106343 0.253821 0.066655
v 0.109941 0.256582 0.084027
v 0.106343 0.253821 0.084027
v 0.106343 0.301285 0.084027
v 0.106343 0.301285 0.066655
v 0.109941 0.298524 0.066655
v 0.106343 0.301285 0.084027
v 0.106343 0.253821 0.066655
v 0.102153 0.252086 0.066655
v 0.106343 0.253821 0.084027
v 0.106343 0.301285 0.084027
v 0.106343 0.253821 0.084027
v 0.102153 0.303020 0.084027
v 0.106343 0.301285 0.084027
v 0.102153 0.303020 0.084027
v 0.106343 0.301285 0.066655
v 0.102153 0.252086 0.084027
v 0.106343 0.253821 0.084027
v 0.102153 0.252086 0.066655
v 0.106343 0.253821 0.084027
v 0.102153 0.252086 0.084027
v 0.102153 0.303020 0.084027
v 0.102153 0.303020 0.066655
v 0.106343 0.301285 0.066655
v 0.102153 0.303020 0.084027
v 0.102153 0.252086 0.066655
v 0.097657 0.251494 0.066655
v 0.102153 0.252086 0.084027
v 0.102153 0.303020 0.084027
v 0.102153 0.252086 0.084027
v 0.097657 0.303612 0.084027
v 0.102153 0.303020 0.084027
v 0.097657 0.303612 0.084027
v 0.102153 0.303020 0.066655
v 0.097657 0.251494 0.084027
v 0.102153 0.252086 0.084027
v 0.097657 0.251494 0.066655
v 0.102153 0.252086 0.084027
v 0.097657 0.251494 0.084027
v 0.097657 0.303612 0.084027
v 0.097657 0.303612 0.066655
v 0.102153 0.303020 0.066655
v 0.097657 0.303612 0.084027
v 0.097657 0.251494 0.066655
v 0.045539 0.251494 0.066655
v 0.097657 0.251494 0.084027
v 0.097657 0.303612 0.084027
v 0.097657 0.251494 0.084027
v 0.045539 0.303612 0.084027
v 0.097657 0.303612 0.084027
v 0.045539 0.303612 0.084027
v 0.097657 0.303612 0.066655
v 0.045539 0.251494 0.084027
v 0.097657 0.251494 0.084027
v 0.045539 0.251494 0.066655
v 0.097657 0.251494 0.084027
v 0.045539 0.251494 0.084027
v 0.045539 0.303612 0.084027
v 0.045539 0.303612 0.066655
v 0.097657 0.303612 0.066655
v 0.045539 0.303612 0.084027
v 0.045539 0.251494 0.066655
v 0.041043 0.252086 0.066655
v 0.045539 0.251494 0.084027
v 0.045539 0.303612 0.084027
v 0.045539 0.251494 0.084027
v 0.041043 0.303020 0.084027
v 0.045539 0.303612 0.084027
v 0.041043 0.303020 0.084027
v 0.045539 0.303612 0.066655
v 0.041043 0.303020 0.066655
v 0.045539 0.303612 0.066655
v 0.041043 0.303020 0.084027
v 0.041043 0.252086 0.084027
v 0.045539 0.251494 0.084027
v 0.041043 0.252086 0.066655
v 0.045539 0.251494 0.084027
v 0.041043 0.252086 0.084027
v 0.041043 0.303020 0.084027
v 0.028759 0.290736 0.066655
v 0.028759 0.290736 0.084027
v 0.028166 0.286239 0.066655
v 0.036853 0.301285 0.066655
v 0.041043 0.303020 0.066655
v 0.036853 0.301285 0.084027
v 0.041043 0.303020 0.084027
v 0.036853 0.301285 0.084027
v 0.041043 0.303020 0.066655
v 0.041043 0.252086 0.066655
v 0.036853 0.253821 0.066655
v 0.041043 0.252086 0.084027
v 0.041043 0.303020 0.084027
v 0.041043 0.252086 0.084027
v 0.036853 0.301285 0.084027
v 0.028166 0.286239 0.084027
v 0.028166 0.286239 0.066655
v 0.028759 0.290736 0.084027
v 0.028759 0.290736 0.084027
v 0.028759 0.290736 0.066655
v 0.030494 0.294926 0.084027
v 0.030494 0.294926 0.066655
v 0.030494 0.294926 0.084027
v 0.028759 0.290736 0.066655
v 0.033255 0.298524 0.066655
v 0.036853 0.301285 0.066655
v 0.033255 0.298524 0.084027
v 0.036853 0.301285 0.084027
v 0.033255 0.298524 0.084027
v 0.036853 0.301285 0.066655
v 0.036853 0.253821 0.084027
v 0.041043 0.252086 0.084027
v 0.036853 0.253821 0.066655
v 0.041043 0.252086 0.084027
v 0.036853 0.253821 0.084027
v 0.036853 0.301285 0.084027
v 0.028166 0.286239 0.066655
v 0.028166 0.286239 0.084027
v 0.028166 0.268867 0.066655
v 0.028759 0.290736 0.084027
v 0.028759 0.264370 0.084027
v 0.028166 0.286239 0.084027
v 0.030494 0.294926 0.084027
v 0.030494 0.260180 0.084027
v 0.028759 0.290736 0.084027
v 0.030494 0.294926 0.084027
v 0.030494 0.294926 0.066655
v 0.033255 0.298524 0.084027
v 0.033255 0.298524 0.066655
v 0.033255 0.298524 0.084027
v 0.030494 0.294926 0.066655
v 0.036853 0.301285 0.084027
v 0.036853 0.253821 0.084027
v 0.033255 0.298524 0.084027
v 0.036853 0.253821 0.066655
v 0.033255 0.256582 0.066655
v 0.036853 0.253821 0.084027
v 0.028166 0.268867 0.084027
v 0.028166 0.268867 0.066655
v 0.028166 0.286239 0.084027
v 0.028166 0.268867 0.084027
v 0.028166 0.286239 0.084027
v 0.028759 0.264370 0.084027
v 0.030494 0.260180 0.084027
v 0.028759 0.264370 0.084027
v 0.028759 0.290736 0.084027
v 0.033255 0.256582 0.084027
v 0.030494 0.260180 0.084027
v 0.030494 0.294926 0.084027
v 0.033255 0.298524 0.084027
v 0.033255 0.256582 0.084027
v 0.030494 0.294926 0.084027
v 0.036853 0.253821 0.084027
v 0.033255 0.256582 0.084027
v 0.033255 0.298524 0.084027
v 0.033255 0.256582 0.084027
v 0.036853 0.253821 0.084027
v 0.033255 0.256582 0.066655
v 0.028166 0.268867 0.066655
v 0.028166 0.268867 0.084027
v 0.028759 0.264370 0.066655
v 0.028759 0.264370 0.084027
v 0.028759 0.264370 0.066655
v 0.028166 0.268867 0.084027
v 0.030494 0.260180 0.084027
v 0.030494 0.260180 0.066655
v 0.028759 0.264370 0.084027
v 0.033255 0.256582 0.084027
v 0.033255 0.256582 0.066655
v 0.030494 0.260180 0.084027
v 0.030494 0.260180 0.066655
v 0.030494 0.260180 0.084027
v 0.033255 0.256582 0.066655
v 0.028759 0.264370 0.066655
v 0.028759 0.264370 0.084027
v 0.030494 0.260180 0.066655
vn 1 0 0
vn 0.9914448878896857 -0.13052599081182487 0
vn 0.9659258451755842 -0.25881897461707376 0
vn 0.9659258451755842 0.25881897461707376 0
vn 0.9914448878896857 0.13052599081182487 0
vn 0.8660252955903434 -0.5000001873976233 0
vn 0 0 1
vn 0.8660252955903434 0.5000001873976233 0
vn 0.7071067811865476 -0.7071067811865476 0
vn 0.7071067811865476 0.7071067811865476 0
vn 0.5000001873976233 -0.8660252955903434 0
vn 0.5000001873976233 0.8660252955903434 0
vn 0.25881897461707376 -0.9659258451755842 0
vn 0.25881897461707376 0.9659258451755842 0
vn 0.13052599081182487 -0.9914448878896857 0
vn 0.13052599081182487 0.9914448878896857 0
vn 0 -1 0
vn 0 1 0
vn -0.13052599081182487 -0.9914448878896857 0
vn -0.25881897461707376 -0.9659258451755842 0
vn -0.13052599081182487 0.9914448878896857 0
vn -0.25881897461707376 0.9659258451755842 0
vn -0.9914448878896857 0.13052599081182487 0
vn -0.9659258451755842 0.25881897461707376 0
vn -0.5000001873976233 0.8660252955903434 0
vn -0.5000001873976233 -0.8660252955903434 0
vn -0.8660252955903434 0.5000001873976233 0
vn -0.7071067811865476 0.7071067811865476 0
vn -1 0 0
vn -0.7071067811865476 -0.7071067811865476 0
vn -0.9659258451755842 -0.25881897461707376 0
vn -0.9914448878896857 -0.13052599081182487 0
vn -0.8660252955903434 -0.5000001873976233 0
vn 0 0 -1
usemtl material_0_0
f 1//1 2//1 3//1
f 4//2 5//3 6//3
f 7//1 8//1 9//1
f 10//3 11//2 12//2
f 13//4 14//5 15//5
f 16//6 17//3 18//3
f 19//7 20//7 21//7
f 22//7 23//7 24//7
f 25//5 26//4 27//4
f 28//3 29//6 30//6
f 31//7 32//7 33//7
f 34//7 35//7 36//7
f 37//8 38//4 39//4
f 40//9 41//6 42//6
f 43//7 44//7 45//7
f 46//4 47//8 48//8
f 49//6 50//9 51//9
f 52//7 53//7 54//7
f 55//8 56//10 57//10
f 58//10 59//8 60//8
f 61//9 62//11 63//9
f 64//7 65//7 66//7
f 67//10 68//12 69//10
f 70//11 71//9 72//11
f 73//7 74//7 75//7
f 76//12 77//10 78//12
f 79//11 80//13 81//11
f 82//7 83//7 84//7
f 85//12 86//14 87//12
f 88//13 89//11 90//13
f 91//7 92//7 93//7
f 94//14 95//12 96//14
f 97//13 98//15 99//13
f 100//7 101//7 102//7
f 103//14 104//16 105//14
f 106//15 107//13 108//15
f 109//7 110//7 111//7
f 112//16 113//14 114//16
f 115//17 116//17 117//17
f 118//7 119//7 120//7
f 121//18 122//18 123//18
f 124//17 125//17 126//17
f 127//7 128//7 129//7
f 130//18 131//18 132//18
f 133//19 134//20 135//19
f 136//7 137//7 138//7
f 139//21 140//22 141//21
f 142//22 143//21 144//22
f 145//20 146//19 147//20
f 148//7 149//7 150//7
f 151//23 152//24 153//24
f 154//25 155//22 156//25
f 157//22 158//25 159//22
f 160//20 161//26 162//20
f 163//7 164//7 165//7
f 166//24 167//23 168//23
f 169//27 170//24 171//24
f 172//24 173//27 174//27
f 175//28 176//25 177//28
f 178//25 179//28 180//25
f 181//26 182//20 183//26
f 184//7 185//7 186//7
f 187//29 188//29 189//29
f 190//7 191//7 192//7
f 193//7 194//7 195//7
f 196//28 197//27 198//27
f 199//27 200//28 201//28
f 202//7 203//7 204//7
f 205//26 206//30 207//26
f 208//29 209//29 210//29
f 211//7 212//7 213//7
f 214//7 215//7 216//7
f 217//7 218//7 219//7
f 220//7 221//7 222//7
f 223//7 224//7 225//7
f 226//30 227//26 228//30
f 229//31 230//32 231//32
f 232//32 233//31 234//31
f 235//31 236//33 237//33
f 238//33 239//30 240//30
f 241//30 242//33 243//33
f 244//33 245//31 246//31
usemtl material_1_0
f 247//29 248//29 249//29
f 250//24 251//24 252//23
f 253//29 254//29 255//29
f 256//23 257//23 258//24
f 259//32 260//32 261//31
f 262//24 263//24 264//27
f 265//34 266//34 267//34
f 268//34 269//34 270//34
f 271//31 272//31 273//32
f 274//27 275//27 276//24
f 277//34 278//34 279//34
f 280//34 281//34 282//34
f 283//31 284//31 285//33
f 286//27 287//27 288//28
f 289//34 290//34 291//34
f 292//33 293//33 294//31
f 295//28 296//28 297//27
f 298//34 299//34 300//34
f 301//30 302//30 303//33
f 304//33 305//33 306//30
f 307//28 308//25 309//28
f 310//34 311//34 312//34
f 313//30 314//26 315//30
f 316//25 317//28 318//25
f 319//34 320//34 321//34
f 322//26 323//30 324//26
f 325//25 326//22 327//25
f 328//34 329//34 330//34
f 331//26 332//20 333//26
f 334//22 335//25 336//22
f 337//34 338//34 339//34
f 340//20 341//26 342//20
f 343//22 344//21 345//22
f 346//34 347//34 348//34
f 349//20 350//19 351//20
f 352//21 353//22 354//21
f 355//34 356//34 357//34
f 358//19 359//20 360//19
f 361//18 362//18 363//18
f 364//34 365//34 366//34
f 367//17 368//17 369//17
f 370//18 371//18 372//18
f 373//34 374//34 375//34
f 376//17 377//17 378//17
f 379//16 380//14 381//16
f 382//34 383//34 384//34
f 385//15 386//13 387//15
f 388//13 389//15 390//13
f 391//14 392//16 393//14
f 394//34 395//34 396//34
f 397//3 398//3 399//2
f 400//11 401//13 402//11
f 403//13 404//11 405//13
f 406//14 407//12 408//14
f 409//34 410//34 411//34
f 412//2 413//2 414//3
f 415//3 416//3 417//6
f 418//6 419//6 420//3
f 421//9 422//11 423//9
f 424//11 425//9 426//11
f 427//12 428//14 429//12
f 430//34 431//34 432//34
f 433//1 434//1 435//1
f 436//34 437//34 438//34
f 439//34 440//34 441//34
f 442//6 443//6 444//9
f 445//9 446//9 447//6
f 448//34 449//34 450//34
f 451//12 452//10 453//12
f 454//1 455//1 456//1
f 457//34 458//34 459//34
f 460//34 461//34 462//34
f 463//34 464//34 465//34
f 466//34 467//34 468//34
f 469//34 470//34 471//34
f 472//10 473//12 474//10
f 475//5 476//5 477//4
f 478//4 479//4 480//5
f 481//8 482//8 483//4
f 484//10 485//10 486//8
f 487//8 488//8 489//10
f 490//4 491//4 492//8
