# SSTK version 0.8.0
# 157
mtllib original-157.mtl
o mesh109/mesh109-geometry/material_5/component_5#mesh109-geometry
v -0.100745 0.401237 0.084027
v -0.070174 0.417749 0.084027
v -0.070174 0.383004 0.084027
v -0.070174 0.401237 0.084027
v -0.070174 0.383004 0.084027
v -0.070174 0.417749 0.084027
v -0.039603 0.383004 0.084027
v -0.070174 0.401237 0.084027
v -0.039603 0.417749 0.084027
v -0.070174 0.383004 0.084027
v -0.070174 0.417749 0.084027
v -0.100745 0.401237 0.084027
v -0.070174 0.417749 0.084027
v -0.070174 0.383004 0.084027
v -0.070174 0.401237 0.084027
v -0.039603 0.417749 0.084027
v -0.070174 0.401237 0.084027
v -0.039603 0.383004 0.084027
vn 0 0 -1
vn 0 0 1
usemtl material_0_0
f 1//1 2//1 3//1
f 4//1 5//1 6//1
f 7//1 8//1 9//1
usemtl material_1_0
f 10//2 11//2 12//2
f 13//2 14//2 15//2
f 16//2 17//2 18//2
