# SSTK version 0.8.0
# 13
mtllib original-13.mtl
o mesh10/mesh10-geometry#mesh10-geometry
v 0.185824 0.702628 0.066742
v 0.179301 0.700942 0.066742
v 0.179301 0.702628 0.066742
v 0.181464 0.700942 0.066742
v 0.183661 0.700942 0.066742
v 0.185824 0.700942 0.066742
v 0.181464 0.687796 0.066742
v 0.183661 0.687796 0.066742
v 0.185824 0.686110 0.066742
v 0.179301 0.686110 0.066742
v 0.185824 0.687796 0.066742
v 0.179301 0.687796 0.066742
vn 0 0 -1
vn 0 0 1
usemtl material_0_0
f 1//1 2//1 3//1
f 2//1 1//1 4//1
f 3//2 2//2 1//2
f 4//2 1//2 2//2
f 4//1 1//1 5//1
f 5//2 1//2 4//2
f 5//1 1//1 6//1
f 6//2 1//2 5//2
f 4//1 5//1 7//1
f 7//2 5//2 4//2
f 8//1 7//1 5//1
f 5//2 7//2 8//2
f 9//1 7//1 8//1
f 8//2 7//2 9//2
f 10//1 7//1 9//1
f 9//2 7//2 10//2
f 9//1 8//1 11//1
f 11//2 8//2 9//2
f 7//1 10//1 12//1
f 12//2 10//2 7//2
