# SSTK version 0.8.0
# 100
mtllib original-100.mtl
o _1_1_1_1/_1_1_1/mesh100/mesh100-geometry#mesh100-geometry
v -0.194938 0.176024 0.084201
v -0.197933 0.172773 0.084201
v -0.197933 0.175791 0.084201
v -0.191055 0.172773 0.084201
v -0.192519 0.176701 0.084201
v -0.190911 0.178109 0.084201
v -0.191055 0.150631 0.084201
v -0.186795 0.150631 0.084201
v -0.180050 0.147258 0.084201
v -0.190448 0.179111 0.084201
v -0.197933 0.147258 0.084201
v -0.180050 0.150631 0.084201
v -0.190234 0.180406 0.084201
v -0.197933 0.150631 0.084201
v -0.186795 0.180406 0.084201
vn 0 0 -1
vn 0 0 1
usemtl material_0_0
f 1//1 2//1 3//1
f 2//1 1//1 4//1
f 3//2 2//2 1//2
f 4//2 1//2 2//2
f 4//1 1//1 5//1
f 5//2 1//2 4//2
f 4//1 5//1 6//1
f 6//2 5//2 4//2
f 4//1 6//1 7//1
f 7//2 6//2 4//2
f 8//1 7//1 6//1
f 6//2 7//2 8//2
f 9//1 7//1 8//1
f 8//2 7//2 9//2
f 8//1 6//1 10//1
f 10//2 6//2 8//2
f 11//1 7//1 9//1
f 9//2 7//2 11//2
f 9//1 8//1 12//1
f 12//2 8//2 9//2
f 8//1 10//1 13//1
f 13//2 10//2 8//2
f 7//1 11//1 14//1
f 14//2 11//2 7//2
f 8//1 13//1 15//1
f 15//2 13//2 8//2
