# SSTK version 0.8.0
# 141
mtllib original-141.mtl
o mesh109/mesh109-geometry/material_2/component_2#mesh109-geometry
v 0.254011 -0.035155 0.066655
v 0.254011 -0.035155 0.084027
v 0.254011 -0.017782 0.066655
v 0.254011 -0.139391 0.066655
v 0.254011 -0.139391 0.084027
v 0.254011 -0.035155 0.066655
v 0.254011 -0.017782 0.084027
v 0.254011 -0.017782 0.066655
v 0.254011 -0.035155 0.084027
v 0.254011 -0.035155 0.084027
v 0.254011 -0.035155 0.066655
v 0.254011 -0.139391 0.084027
v 0.254011 -0.017782 0.066655
v 0.254011 -0.017782 0.084027
v 0.253419 -0.013286 0.066655
v 0.254011 -0.156763 0.066655
v 0.254011 -0.156763 0.084027
v 0.254011 -0.139391 0.066655
v 0.254011 -0.139391 0.084027
v 0.254011 -0.139391 0.066655
v 0.254011 -0.156763 0.084027
v 0.253419 -0.013286 0.084027
v 0.253419 -0.013286 0.066655
v 0.254011 -0.017782 0.084027
v 0.254011 -0.156763 0.084027
v 0.254011 -0.156763 0.066655
v 0.253419 -0.161260 0.084027
v 0.253419 -0.013286 0.066655
v 0.253419 -0.013286 0.084027
v 0.251684 -0.009096 0.066655
v 0.253419 -0.161260 0.066655
v 0.253419 -0.161260 0.084027
v 0.254011 -0.156763 0.066655
v 0.251684 -0.009096 0.084027
v 0.251684 -0.009096 0.066655
v 0.253419 -0.013286 0.084027
v 0.253419 -0.161260 0.084027
v 0.253419 -0.161260 0.066655
v 0.251684 -0.165450 0.084027
v 0.251684 -0.009096 0.066655
v 0.251684 -0.009096 0.084027
v 0.248923 -0.005498 0.066655
v 0.167148 -0.139391 0.066655
v 0.167148 -0.139391 0.084027
v 0.167148 -0.156763 0.066655
v 0.251684 -0.165450 0.066655
v 0.251684 -0.165450 0.084027
v 0.253419 -0.161260 0.066655
v 0.248923 -0.005498 0.084027
v 0.248923 -0.005498 0.066655
v 0.251684 -0.009096 0.084027
v 0.167148 -0.156763 0.066655
v 0.167148 -0.156763 0.084027
v 0.167740 -0.161260 0.066655
v 0.167148 -0.156763 0.084027
v 0.167148 -0.156763 0.066655
v 0.167148 -0.139391 0.084027
v 0.167148 -0.139391 0.084027
v 0.167148 -0.139391 0.066655
v 0.167148 -0.035155 0.084027
v 0.167148 -0.035155 0.066655
v 0.167148 -0.035155 0.084027
v 0.167148 -0.139391 0.066655
v 0.251684 -0.165450 0.084027
v 0.251684 -0.165450 0.066655
v 0.248923 -0.169048 0.084027
v 0.245325 -0.002737 0.066655
v 0.248923 -0.005498 0.066655
v 0.245325 -0.002737 0.084027
v 0.248923 -0.005498 0.084027
v 0.245325 -0.002737 0.084027
v 0.248923 -0.005498 0.066655
v 0.167740 -0.161260 0.084027
v 0.167740 -0.161260 0.066655
v 0.167148 -0.156763 0.084027
v 0.167148 -0.035155 0.084027
v 0.167148 -0.035155 0.066655
v 0.167148 -0.017782 0.084027
v 0.167148 -0.017782 0.066655
v 0.167148 -0.017782 0.084027
v 0.167148 -0.035155 0.066655
v 0.248923 -0.169048 0.066655
v 0.248923 -0.169048 0.084027
v 0.251684 -0.165450 0.066655
v 0.245325 -0.002737 0.084027
v 0.241135 -0.001002 0.084027
v 0.245325 -0.002737 0.066655
v 0.167740 -0.161260 0.066655
v 0.167740 -0.161260 0.084027
v 0.169475 -0.165450 0.066655
v 0.167148 -0.017782 0.084027
v 0.167148 -0.017782 0.066655
v 0.167740 -0.013286 0.084027
v 0.248923 -0.169048 0.066655
v 0.245325 -0.171809 0.066655
v 0.248923 -0.169048 0.084027
v 0.241135 -0.001002 0.066655
v 0.245325 -0.002737 0.066655
v 0.241135 -0.001002 0.084027
v 0.169475 -0.165450 0.084027
v 0.169475 -0.165450 0.066655
v 0.167740 -0.161260 0.084027
v 0.167740 -0.013286 0.066655
v 0.167740 -0.013286 0.084027
v 0.167148 -0.017782 0.066655
v 0.245325 -0.171809 0.084027
v 0.248923 -0.169048 0.084027
v 0.245325 -0.171809 0.066655
v 0.241135 -0.001002 0.084027
v 0.236638 -0.000409 0.084027
v 0.241135 -0.001002 0.066655
v 0.169475 -0.165450 0.066655
v 0.169475 -0.165450 0.084027
v 0.172236 -0.169048 0.066655
v 0.167740 -0.013286 0.084027
v 0.167740 -0.013286 0.066655
v 0.169475 -0.009096 0.084027
v 0.245325 -0.171809 0.066655
v 0.241135 -0.173544 0.066655
v 0.245325 -0.171809 0.084027
v 0.236638 -0.000409 0.066655
v 0.241135 -0.001002 0.066655
v 0.236638 -0.000409 0.084027
v 0.241135 -0.173544 0.084027
v 0.245325 -0.171809 0.084027
v 0.241135 -0.173544 0.066655
v 0.172236 -0.169048 0.084027
v 0.172236 -0.169048 0.066655
v 0.169475 -0.165450 0.084027
v 0.169475 -0.009096 0.066655
v 0.169475 -0.009096 0.084027
v 0.167740 -0.013286 0.066655
v 0.172236 -0.005498 0.066655
v 0.172236 -0.005498 0.084027
v 0.169475 -0.009096 0.066655
v 0.172236 -0.005498 0.066655
v 0.175834 -0.002737 0.066655
v 0.172236 -0.005498 0.084027
v 0.236638 -0.000409 0.084027
v 0.184520 -0.000409 0.084027
v 0.236638 -0.000409 0.066655
v 0.241135 -0.173544 0.066655
v 0.236638 -0.174136 0.066655
v 0.241135 -0.173544 0.084027
v 0.175834 -0.171809 0.066655
v 0.172236 -0.169048 0.066655
v 0.175834 -0.171809 0.084027
v 0.172236 -0.169048 0.084027
v 0.175834 -0.171809 0.084027
v 0.172236 -0.169048 0.066655
v 0.169475 -0.009096 0.084027
v 0.169475 -0.009096 0.066655
v 0.172236 -0.005498 0.084027
v 0.175834 -0.002737 0.084027
v 0.172236 -0.005498 0.084027
v 0.175834 -0.002737 0.066655
v 0.175834 -0.002737 0.066655
v 0.180024 -0.001002 0.066655
v 0.175834 -0.002737 0.084027
v 0.184520 -0.000409 0.066655
v 0.236638 -0.000409 0.066655
v 0.184520 -0.000409 0.084027
v 0.236638 -0.174136 0.084027
v 0.241135 -0.173544 0.084027
v 0.236638 -0.174136 0.066655
v 0.175834 -0.171809 0.084027
v 0.180024 -0.173544 0.084027
v 0.175834 -0.171809 0.066655
v 0.180024 -0.001002 0.084027
v 0.175834 -0.002737 0.084027
v 0.180024 -0.001002 0.066655
v 0.184520 -0.000409 0.084027
v 0.180024 -0.001002 0.084027
v 0.184520 -0.000409 0.066655
v 0.236638 -0.174136 0.066655
v 0.184520 -0.174136 0.066655
v 0.236638 -0.174136 0.084027
v 0.180024 -0.173544 0.066655
v 0.175834 -0.171809 0.066655
v 0.180024 -0.173544 0.084027
v 0.180024 -0.001002 0.066655
v 0.184520 -0.000409 0.066655
v 0.180024 -0.001002 0.084027
v 0.184520 -0.174136 0.084027
v 0.236638 -0.174136 0.084027
v 0.184520 -0.174136 0.066655
v 0.180024 -0.173544 0.084027
v 0.184520 -0.174136 0.084027
v 0.180024 -0.173544 0.066655
v 0.184520 -0.174136 0.066655
v 0.180024 -0.173544 0.066655
v 0.184520 -0.174136 0.084027
v 0.254011 -0.017782 0.066655
v 0.254011 -0.035155 0.084027
v 0.254011 -0.035155 0.066655
v 0.254011 -0.035155 0.066655
v 0.254011 -0.139391 0.084027
v 0.254011 -0.139391 0.066655
v 0.254011 -0.035155 0.084027
v 0.254011 -0.017782 0.066655
v 0.254011 -0.017782 0.084027
v 0.254011 -0.139391 0.084027
v 0.254011 -0.035155 0.066655
v 0.254011 -0.035155 0.084027
v 0.253419 -0.013286 0.066655
v 0.254011 -0.017782 0.084027
v 0.254011 -0.017782 0.066655
v 0.254011 -0.139391 0.066655
v 0.254011 -0.156763 0.084027
v 0.254011 -0.156763 0.066655
v 0.254011 -0.156763 0.084027
v 0.254011 -0.139391 0.066655
v 0.254011 -0.139391 0.084027
v 0.254011 -0.017782 0.084027
v 0.253419 -0.013286 0.066655
v 0.253419 -0.013286 0.084027
v 0.253419 -0.161260 0.084027
v 0.254011 -0.156763 0.066655
v 0.254011 -0.156763 0.084027
v 0.251684 -0.009096 0.066655
v 0.253419 -0.013286 0.084027
v 0.253419 -0.013286 0.066655
v 0.254011 -0.156763 0.066655
v 0.253419 -0.161260 0.084027
v 0.253419 -0.161260 0.066655
v 0.253419 -0.013286 0.084027
v 0.251684 -0.009096 0.066655
v 0.251684 -0.009096 0.084027
v 0.251684 -0.165450 0.084027
v 0.253419 -0.161260 0.066655
v 0.253419 -0.161260 0.084027
v 0.248923 -0.005498 0.066655
v 0.251684 -0.009096 0.084027
v 0.251684 -0.009096 0.066655
v 0.167148 -0.156763 0.066655
v 0.167148 -0.139391 0.084027
v 0.167148 -0.139391 0.066655
v 0.253419 -0.161260 0.066655
v 0.251684 -0.165450 0.084027
v 0.251684 -0.165450 0.066655
v 0.251684 -0.009096 0.084027
v 0.248923 -0.005498 0.066655
v 0.248923 -0.005498 0.084027
v 0.167740 -0.161260 0.066655
v 0.167148 -0.156763 0.084027
v 0.167148 -0.156763 0.066655
v 0.167148 -0.139391 0.084027
v 0.167148 -0.156763 0.066655
v 0.167148 -0.156763 0.084027
v 0.167148 -0.035155 0.084027
v 0.167148 -0.139391 0.066655
v 0.167148 -0.139391 0.084027
v 0.167148 -0.139391 0.066655
v 0.167148 -0.035155 0.084027
v 0.167148 -0.035155 0.066655
v 0.248923 -0.169048 0.084027
v 0.251684 -0.165450 0.066655
v 0.251684 -0.165450 0.084027
v 0.245325 -0.002737 0.084027
v 0.248923 -0.005498 0.066655
v 0.245325 -0.002737 0.066655
v 0.248923 -0.005498 0.066655
v 0.245325 -0.002737 0.084027
v 0.248923 -0.005498 0.084027
v 0.167148 -0.156763 0.084027
v 0.167740 -0.161260 0.066655
v 0.167740 -0.161260 0.084027
v 0.167148 -0.017782 0.084027
v 0.167148 -0.035155 0.066655
v 0.167148 -0.035155 0.084027
v 0.167148 -0.035155 0.066655
v 0.167148 -0.017782 0.084027
v 0.167148 -0.017782 0.066655
v 0.251684 -0.165450 0.066655
v 0.248923 -0.169048 0.084027
v 0.248923 -0.169048 0.066655
v 0.245325 -0.002737 0.066655
v 0.241135 -0.001002 0.084027
v 0.245325 -0.002737 0.084027
v 0.169475 -0.165450 0.066655
v 0.167740 -0.161260 0.084027
v 0.167740 -0.161260 0.066655
v 0.167740 -0.013286 0.084027
v 0.167148 -0.017782 0.066655
v 0.167148 -0.017782 0.084027
v 0.248923 -0.169048 0.084027
v 0.245325 -0.171809 0.066655
v 0.248923 -0.169048 0.066655
v 0.241135 -0.001002 0.084027
v 0.245325 -0.002737 0.066655
v 0.241135 -0.001002 0.066655
v 0.167740 -0.161260 0.084027
v 0.169475 -0.165450 0.066655
v 0.169475 -0.165450 0.084027
v 0.167148 -0.017782 0.066655
v 0.167740 -0.013286 0.084027
v 0.167740 -0.013286 0.066655
v 0.245325 -0.171809 0.066655
v 0.248923 -0.169048 0.084027
v 0.245325 -0.171809 0.084027
v 0.241135 -0.001002 0.066655
v 0.236638 -0.000409 0.084027
v 0.241135 -0.001002 0.084027
v 0.172236 -0.169048 0.066655
v 0.169475 -0.165450 0.084027
v 0.169475 -0.165450 0.066655
v 0.169475 -0.009096 0.084027
v 0.167740 -0.013286 0.066655
v 0.167740 -0.013286 0.084027
v 0.245325 -0.171809 0.084027
v 0.241135 -0.173544 0.066655
v 0.245325 -0.171809 0.066655
v 0.236638 -0.000409 0.084027
v 0.241135 -0.001002 0.066655
v 0.236638 -0.000409 0.066655
v 0.241135 -0.173544 0.066655
v 0.245325 -0.171809 0.084027
v 0.241135 -0.173544 0.084027
v 0.169475 -0.165450 0.084027
v 0.172236 -0.169048 0.066655
v 0.172236 -0.169048 0.084027
v 0.167740 -0.013286 0.066655
v 0.169475 -0.009096 0.084027
v 0.169475 -0.009096 0.066655
v 0.169475 -0.009096 0.066655
v 0.172236 -0.005498 0.084027
v 0.172236 -0.005498 0.066655
v 0.172236 -0.005498 0.084027
v 0.175834 -0.002737 0.066655
v 0.172236 -0.005498 0.066655
v 0.236638 -0.000409 0.066655
v 0.184520 -0.000409 0.084027
v 0.236638 -0.000409 0.084027
v 0.241135 -0.173544 0.084027
v 0.236638 -0.174136 0.066655
v 0.241135 -0.173544 0.066655
v 0.175834 -0.171809 0.084027
v 0.172236 -0.169048 0.066655
v 0.175834 -0.171809 0.066655
v 0.172236 -0.169048 0.066655
v 0.175834 -0.171809 0.084027
v 0.172236 -0.169048 0.084027
v 0.172236 -0.005498 0.084027
v 0.169475 -0.009096 0.066655
v 0.169475 -0.009096 0.084027
v 0.175834 -0.002737 0.066655
v 0.172236 -0.005498 0.084027
v 0.175834 -0.002737 0.084027
v 0.175834 -0.002737 0.084027
v 0.180024 -0.001002 0.066655
v 0.175834 -0.002737 0.066655
v 0.184520 -0.000409 0.084027
v 0.236638 -0.000409 0.066655
v 0.184520 -0.000409 0.066655
v 0.236638 -0.174136 0.066655
v 0.241135 -0.173544 0.084027
v 0.236638 -0.174136 0.084027
v 0.175834 -0.171809 0.066655
v 0.180024 -0.173544 0.084027
v 0.175834 -0.171809 0.084027
v 0.180024 -0.001002 0.066655
v 0.175834 -0.002737 0.084027
v 0.180024 -0.001002 0.084027
v 0.184520 -0.000409 0.066655
v 0.180024 -0.001002 0.084027
v 0.184520 -0.000409 0.084027
v 0.236638 -0.174136 0.084027
v 0.184520 -0.174136 0.066655
v 0.236638 -0.174136 0.066655
v 0.180024 -0.173544 0.084027
v 0.175834 -0.171809 0.066655
v 0.180024 -0.173544 0.066655
v 0.180024 -0.001002 0.084027
v 0.184520 -0.000409 0.066655
v 0.180024 -0.001002 0.066655
v 0.184520 -0.174136 0.066655
v 0.236638 -0.174136 0.084027
v 0.184520 -0.174136 0.084027
v 0.180024 -0.173544 0.066655
v 0.184520 -0.174136 0.084027
v 0.180024 -0.173544 0.084027
v 0.184520 -0.174136 0.084027
v 0.180024 -0.173544 0.066655
v 0.184520 -0.174136 0.066655
vn -1 0 0
vn -0.9914448878896857 -0.13052599081182487 0
vn -0.9659258451755842 -0.25881897461707376 0
vn -0.9914448878896857 0.13052599081182487 0
vn -0.9659258451755842 0.25881897461707376 0
vn -0.8660252955903434 -0.5000001873976233 0
vn -0.8660252955903434 0.5000001873976233 0
vn -0.7071067811865476 -0.7071067811865476 0
vn 1 0 0
vn 0.9914448878896857 0.13052599081182487 0
vn 0.9659258451755842 0.25881897461707376 0
vn -0.7071067811865476 0.7071067811865476 0
vn -0.5000001873976233 -0.8660252955903434 0
vn -0.25881897461707376 -0.9659258451755842 0
vn 0.8660252955903434 0.5000001873976233 0
vn 0.9914448878896857 -0.13052599081182487 0
vn 0.9659258451755842 -0.25881897461707376 0
vn -0.5000001873976233 0.8660252955903434 0
vn -0.13052599081182487 -0.9914448878896857 0
vn 0.7071067811865476 0.7071067811865476 0
vn 0.8660252955903434 -0.5000001873976233 0
vn -0.25881897461707376 0.9659258451755842 0
vn 0.7071067811865476 -0.7071067811865476 0
vn 0.5000001873976233 -0.8660252955903434 0
vn 0 -1 0
vn -0.13052599081182487 0.9914448878896857 0
vn 0.5000001873976233 0.8660252955903434 0
vn 0.25881897461707376 -0.9659258451755842 0
vn 0.25881897461707376 0.9659258451755842 0
vn 0.13052599081182487 -0.9914448878896857 0
vn 0 1 0
vn 0.13052599081182487 0.9914448878896857 0
usemtl material_0_0
f 1//1 2//1 3//1
f 4//1 5//1 6//1
f 7//1 8//1 9//1
f 10//1 11//1 12//1
f 13//2 14//2 15//3
f 16//1 17//1 18//1
f 19//1 20//1 21//1
f 22//3 23//3 24//2
f 25//4 26//4 27//5
f 28//3 29//3 30//6
f 31//5 32//5 33//4
f 34//6 35//6 36//3
f 37//5 38//5 39//7
f 40//6 41//6 42//8
f 43//9 44//9 45//9
f 46//7 47//7 48//5
f 49//8 50//8 51//6
f 52//10 53//10 54//11
f 55//9 56//9 57//9
f 58//9 59//9 60//9
f 61//9 62//9 63//9
f 64//7 65//7 66//12
f 67//13 68//8 69//13
f 70//8 71//13 72//8
f 73//11 74//11 75//10
f 76//9 77//9 78//9
f 79//9 80//9 81//9
f 82//12 83//12 84//7
f 85//13 86//14 87//13
f 88//11 89//11 90//15
f 91//16 92//16 93//17
f 94//12 95//18 96//12
f 97//14 98//13 99//14
f 100//15 101//15 102//11
f 103//17 104//17 105//16
f 106//18 107//12 108//18
f 109//14 110//19 111//14
f 112//15 113//15 114//20
f 115//17 116//17 117//21
f 118//18 119//22 120//18
f 121//19 122//14 123//19
f 124//22 125//18 126//22
f 127//20 128//20 129//15
f 130//21 131//21 132//17
f 133//23 134//23 135//21
f 136//23 137//24 138//23
f 139//25 140//25 141//25
f 142//22 143//26 144//22
f 145//27 146//20 147//27
f 148//20 149//27 150//20
f 151//21 152//21 153//23
f 154//24 155//23 156//24
f 157//24 158//28 159//24
f 160//25 161//25 162//25
f 163//26 164//22 165//26
f 166//27 167//29 168//27
f 169//28 170//24 171//28
f 172//30 173//28 174//30
f 175//31 176//31 177//31
f 178//29 179//27 180//29
f 181//28 182//30 183//28
f 184//31 185//31 186//31
f 187//29 188//32 189//29
f 190//32 191//29 192//32
usemtl material_1_0
f 193//9 194//9 195//9
f 196//9 197//9 198//9
f 199//9 200//9 201//9
f 202//9 203//9 204//9
f 205//11 206//10 207//10
f 208//9 209//9 210//9
f 211//9 212//9 213//9
f 214//10 215//11 216//11
f 217//17 218//16 219//16
f 220//15 221//11 222//11
f 223//16 224//17 225//17
f 226//11 227//15 228//15
f 229//21 230//17 231//17
f 232//20 233//15 234//15
f 235//1 236//1 237//1
f 238//17 239//21 240//21
f 241//15 242//20 243//20
f 244//3 245//2 246//2
f 247//1 248//1 249//1
f 250//1 251//1 252//1
f 253//1 254//1 255//1
f 256//23 257//21 258//21
f 259//27 260//20 261//27
f 262//20 263//27 264//20
f 265//2 266//3 267//3
f 268//1 269//1 270//1
f 271//1 272//1 273//1
f 274//21 275//23 276//23
f 277//27 278//29 279//27
f 280//6 281//3 282//3
f 283//5 284//4 285//4
f 286//23 287//24 288//23
f 289//29 290//27 291//29
f 292//3 293//6 294//6
f 295//4 296//5 297//5
f 298//24 299//23 300//24
f 301//29 302//32 303//29
f 304//8 305//6 306//6
f 307//7 308//5 309//5
f 310//24 311//28 312//24
f 313//32 314//29 315//32
f 316//28 317//24 318//28
f 319//6 320//8 321//8
f 322//5 323//7 324//7
f 325//7 326//12 327//12
f 328//12 329//18 330//12
f 331//31 332//31 333//31
f 334//28 335//30 336//28
f 337//13 338//8 339//13
f 340//8 341//13 342//8
f 343//12 344//7 345//7
f 346//18 347//12 348//18
f 349//18 350//22 351//18
f 352//31 353//31 354//31
f 355//30 356//28 357//30
f 358//13 359//14 360//13
f 361//22 362//18 363//22
f 364//26 365//22 366//26
f 367//25 368//25 369//25
f 370//14 371//13 372//14
f 373//22 374//26 375//22
f 376//25 377//25 378//25
f 379//14 380//19 381//14
f 382//19 383//14 384//19
