# SSTK version 0.8.0
# 3
mtllib original-3.mtl
o mesh2/mesh2-geometry#mesh2-geometry
v -0.208755 0.702673 0.066742
v -0.206559 0.700720 0.066742
v -0.208755 0.686154 0.066742
v -0.198205 0.702673 0.066742
v -0.206559 0.686154 0.066742
v -0.198205 0.700720 0.066742
v -0.206559 0.696061 0.066742
v -0.206559 0.694108 0.066742
v -0.199381 0.696061 0.066742
v -0.199381 0.694108 0.066742
vn 0 0 -1
vn 0 0 1
usemtl material_0_0
f 1//1 2//1 3//1
f 2//1 1//1 4//1
f 3//2 2//2 1//2
f 4//2 1//2 2//2
f 2//1 5//1 3//1
f 3//2 5//2 2//2
f 2//1 4//1 6//1
f 6//2 4//2 2//2
f 5//1 2//1 7//1
f 7//2 2//2 5//2
f 5//1 7//1 8//1
f 8//2 7//2 5//2
f 9//1 8//1 7//1
f 7//2 8//2 9//2
f 8//1 9//1 10//1
f 10//2 9//2 8//2
