# SSTK version 0.8.0
# 37
mtllib original-37.mtl
o mesh33/mesh33-geometry#mesh33-geometry
v -0.223243 0.459455 0.066742
v -0.221047 0.457569 0.066742
v -0.223243 0.442937 0.066742
v -0.218617 0.459455 0.066742
v -0.221047 0.442937 0.066742
v -0.218462 0.457569 0.066742
v -0.221047 0.451335 0.066742
v -0.216121 0.459261 0.066742
v -0.221047 0.449504 0.066742
v -0.216920 0.457442 0.066742
v -0.218828 0.451335 0.066742
v -0.215788 0.456993 0.066742
v -0.217952 0.449504 0.066742
v -0.215173 0.458991 0.066742
v -0.217009 0.451518 0.066742
v -0.215293 0.456572 0.066742
v -0.212427 0.442937 0.066742
v -0.214962 0.456066 0.066742
v -0.215788 0.450159 0.066742
v -0.214324 0.458568 0.066742
v -0.216290 0.451780 0.066742
v -0.209576 0.442937 0.066742
v -0.214775 0.455477 0.066742
v -0.215689 0.452200 0.066742
v -0.214712 0.454807 0.066742
v -0.214382 0.450918 0.066742
v -0.215255 0.452701 0.066742
v -0.213314 0.451973 0.066742
v -0.214772 0.453957 0.066742
v -0.214951 0.453271 0.066742
v -0.213524 0.457929 0.066742
v -0.212921 0.457143 0.066742
v -0.212921 0.452611 0.066742
v -0.212641 0.453322 0.066742
v -0.212542 0.456168 0.066742
v -0.212416 0.454962 0.066742
vn 0 0 -1
vn 0 0 1
usemtl material_0_0
f 1//1 2//1 3//1
f 2//1 1//1 4//1
f 3//2 2//2 1//2
f 4//2 1//2 2//2
f 2//1 5//1 3//1
f 3//2 5//2 2//2
f 2//1 4//1 6//1
f 6//2 4//2 2//2
f 5//1 2//1 7//1
f 7//2 2//2 5//2
f 6//1 4//1 8//1
f 8//2 4//2 6//2
f 5//1 7//1 9//1
f 9//2 7//2 5//2
f 6//1 8//1 10//1
f 10//2 8//2 6//2
f 11//1 9//1 7//1
f 7//2 9//2 11//2
f 10//1 8//1 12//1
f 12//2 8//2 10//2
f 9//1 11//1 13//1
f 13//2 11//2 9//2
f 12//1 8//1 14//1
f 14//2 8//2 12//2
f 13//1 11//1 15//1
f 15//2 11//2 13//2
f 12//1 14//1 16//1
f 16//2 14//2 12//2
f 13//1 15//1 17//1
f 17//2 15//2 13//2
f 16//1 14//1 18//1
f 18//2 14//2 16//2
f 17//1 15//1 19//1
f 19//2 15//2 17//2
f 18//1 14//1 20//1
f 20//2 14//2 18//2
f 19//1 15//1 21//1
f 21//2 15//2 19//2
f 17//1 19//1 22//1
f 22//2 19//2 17//2
f 18//1 20//1 23//1
f 24//1 19//1 21//1
f 21//2 19//2 24//2
f 23//1 20//1 25//1
f 23//2 20//2 18//2
f 25//2 20//2 23//2
f 19//1 24//1 26//1
f 26//2 24//2 19//2
f 25//1 20//1 26//1
f 26//2 20//2 25//2
f 26//1 24//1 27//1
f 27//2 24//2 26//2
f 26//1 20//1 28//1
f 28//2 20//2 26//2
f 26//1 29//1 25//1
f 25//2 29//2 26//2
f 26//1 27//1 30//1
f 30//2 27//2 26//2
f 28//1 20//1 31//1
f 31//2 20//2 28//2
f 26//1 30//1 29//1
f 29//2 30//2 26//2
f 28//1 31//1 32//1
f 32//2 31//2 28//2
f 28//1 32//1 33//1
f 33//2 32//2 28//2
f 33//1 32//1 34//1
f 34//2 32//2 33//2
f 34//1 32//1 35//1
f 35//2 32//2 34//2
f 34//1 35//1 36//1
f 36//2 35//2 34//2
