# SSTK version 0.8.0
# 121
mtllib original-121.mtl
o mesh109/mesh109-geometry/material_0/component_7#mesh109-geometry
v -0.105726 0.663349 0.084027
v -0.102128 0.666110 0.066655
v -0.105726 0.663349 0.066655
v -0.102128 0.666110 0.084027
v -0.097938 0.667845 0.066655
v -0.102128 0.666110 0.066655
v -0.108487 0.659751 0.066655
v -0.105726 0.663349 0.084027
v -0.105726 0.663349 0.066655
v -0.102128 0.666110 0.066655
v -0.105726 0.663349 0.084027
v -0.102128 0.666110 0.084027
v -0.097938 0.667845 0.066655
v -0.102128 0.666110 0.084027
v -0.097938 0.667845 0.084027
v -0.097938 0.667845 0.084027
v -0.093442 0.668438 0.066655
v -0.097938 0.667845 0.066655
v -0.110223 0.655561 0.066655
v -0.108487 0.659751 0.084027
v -0.108487 0.659751 0.066655
v -0.105726 0.663349 0.084027
v -0.108487 0.659751 0.066655
v -0.108487 0.659751 0.084027
v -0.105726 0.663349 0.084027
v -0.102128 0.618647 0.084027
v -0.102128 0.666110 0.084027
v -0.102128 0.666110 0.084027
v -0.097938 0.616912 0.084027
v -0.097938 0.667845 0.084027
v -0.093442 0.668438 0.066655
v -0.097938 0.667845 0.084027
v -0.093442 0.668438 0.084027
v -0.093442 0.668438 0.084027
v -0.041324 0.668438 0.066655
v -0.093442 0.668438 0.066655
v -0.110815 0.651065 0.066655
v -0.110223 0.655561 0.084027
v -0.110223 0.655561 0.066655
v -0.108487 0.659751 0.084027
v -0.110223 0.655561 0.066655
v -0.110223 0.655561 0.084027
v -0.108487 0.659751 0.084027
v -0.105726 0.621408 0.084027
v -0.105726 0.663349 0.084027
v -0.105726 0.663349 0.084027
v -0.105726 0.621408 0.084027
v -0.102128 0.618647 0.084027
v -0.102128 0.666110 0.084027
v -0.102128 0.618647 0.084027
v -0.097938 0.616912 0.084027
v -0.097938 0.667845 0.084027
v -0.097938 0.616912 0.084027
v -0.093442 0.616320 0.084027
v -0.097938 0.667845 0.084027
v -0.093442 0.616320 0.084027
v -0.093442 0.668438 0.084027
v -0.041324 0.668438 0.066655
v -0.093442 0.668438 0.084027
v -0.041324 0.668438 0.084027
v -0.041324 0.668438 0.084027
v -0.036828 0.667845 0.066655
v -0.041324 0.668438 0.066655
v -0.110223 0.655561 0.084027
v -0.110815 0.651065 0.066655
v -0.110815 0.651065 0.084027
v -0.110223 0.655561 0.084027
v -0.108487 0.625006 0.084027
v -0.108487 0.659751 0.084027
v -0.108487 0.659751 0.084027
v -0.108487 0.625006 0.084027
v -0.105726 0.621408 0.084027
v -0.105726 0.621408 0.066655
v -0.102128 0.618647 0.084027
v -0.105726 0.621408 0.084027
v -0.102128 0.618647 0.066655
v -0.097938 0.616912 0.084027
v -0.102128 0.618647 0.084027
v -0.097938 0.616912 0.066655
v -0.093442 0.616320 0.084027
v -0.097938 0.616912 0.084027
v -0.093442 0.668438 0.084027
v -0.093442 0.616320 0.084027
v -0.041324 0.616320 0.084027
v -0.093442 0.668438 0.084027
v -0.041324 0.616320 0.084027
v -0.041324 0.668438 0.084027
v -0.036828 0.667845 0.066655
v -0.041324 0.668438 0.084027
v -0.036828 0.667845 0.084027
v -0.036828 0.667845 0.084027
v -0.032638 0.666110 0.066655
v -0.036828 0.667845 0.066655
v -0.110815 0.633692 0.066655
v -0.110815 0.651065 0.084027
v -0.110815 0.651065 0.066655
v -0.110815 0.651065 0.084027
v -0.110223 0.629196 0.084027
v -0.110223 0.655561 0.084027
v -0.110223 0.655561 0.084027
v -0.110223 0.629196 0.084027
v -0.108487 0.625006 0.084027
v -0.108487 0.625006 0.084027
v -0.105726 0.621408 0.066655
v -0.105726 0.621408 0.084027
v -0.102128 0.618647 0.084027
v -0.105726 0.621408 0.066655
v -0.102128 0.618647 0.066655
v -0.097938 0.616912 0.084027
v -0.102128 0.618647 0.066655
v -0.097938 0.616912 0.066655
v -0.093442 0.616320 0.084027
v -0.097938 0.616912 0.066655
v -0.093442 0.616320 0.066655
v -0.093442 0.616320 0.066655
v -0.041324 0.616320 0.084027
v -0.093442 0.616320 0.084027
v -0.041324 0.668438 0.084027
v -0.041324 0.616320 0.084027
v -0.036828 0.616912 0.084027
v -0.041324 0.668438 0.084027
v -0.036828 0.616912 0.084027
v -0.036828 0.667845 0.084027
v -0.032638 0.666110 0.066655
v -0.036828 0.667845 0.084027
v -0.032638 0.666110 0.084027
v -0.032638 0.666110 0.084027
v -0.029040 0.663349 0.066655
v -0.032638 0.666110 0.066655
v -0.110815 0.651065 0.084027
v -0.110815 0.633692 0.066655
v -0.110815 0.633692 0.084027
v -0.110223 0.629196 0.084027
v -0.110815 0.651065 0.084027
v -0.110815 0.633692 0.084027
v -0.110223 0.629196 0.084027
v -0.108487 0.625006 0.066655
v -0.108487 0.625006 0.084027
v -0.105726 0.621408 0.066655
v -0.108487 0.625006 0.084027
v -0.108487 0.625006 0.066655
v -0.041324 0.616320 0.084027
v -0.093442 0.616320 0.066655
v -0.041324 0.616320 0.066655
v -0.041324 0.616320 0.066655
v -0.036828 0.616912 0.084027
v -0.041324 0.616320 0.084027
v -0.036828 0.667845 0.084027
v -0.036828 0.616912 0.084027
v -0.032638 0.618647 0.084027
v -0.036828 0.667845 0.084027
v -0.032638 0.618647 0.084027
v -0.032638 0.666110 0.084027
v -0.029040 0.663349 0.066655
v -0.032638 0.666110 0.084027
v -0.029040 0.663349 0.084027
v -0.029040 0.663349 0.066655
v -0.026279 0.659751 0.084027
v -0.026279 0.659751 0.066655
v -0.110223 0.629196 0.066655
v -0.110815 0.633692 0.084027
v -0.110815 0.633692 0.066655
v -0.110815 0.633692 0.084027
v -0.110223 0.629196 0.066655
v -0.110223 0.629196 0.084027
v -0.108487 0.625006 0.066655
v -0.110223 0.629196 0.084027
v -0.110223 0.629196 0.066655
v -0.036828 0.616912 0.084027
v -0.041324 0.616320 0.066655
v -0.036828 0.616912 0.066655
v -0.036828 0.616912 0.066655
v -0.032638 0.618647 0.084027
v -0.036828 0.616912 0.084027
v -0.032638 0.666110 0.084027
v -0.032638 0.618647 0.084027
v -0.029040 0.621408 0.084027
v -0.032638 0.666110 0.084027
v -0.029040 0.621408 0.084027
v -0.029040 0.663349 0.084027
v -0.026279 0.659751 0.084027
v -0.029040 0.663349 0.066655
v -0.029040 0.663349 0.084027
v -0.024544 0.655561 0.084027
v -0.026279 0.659751 0.066655
v -0.026279 0.659751 0.084027
v -0.026279 0.659751 0.066655
v -0.024544 0.655561 0.084027
v -0.024544 0.655561 0.066655
v -0.032638 0.618647 0.084027
v -0.036828 0.616912 0.066655
v -0.032638 0.618647 0.066655
v -0.032638 0.618647 0.066655
v -0.029040 0.621408 0.084027
v -0.032638 0.618647 0.084027
v -0.029040 0.663349 0.084027
v -0.029040 0.621408 0.084027
v -0.026279 0.625006 0.084027
v -0.029040 0.663349 0.084027
v -0.026279 0.625006 0.084027
v -0.026279 0.659751 0.084027
v -0.026279 0.659751 0.084027
v -0.024544 0.629196 0.084027
v -0.024544 0.655561 0.084027
v -0.023951 0.651065 0.084027
v -0.024544 0.655561 0.066655
v -0.024544 0.655561 0.084027
v -0.024544 0.655561 0.066655
v -0.023951 0.651065 0.084027
v -0.023951 0.651065 0.066655
v -0.029040 0.621408 0.084027
v -0.032638 0.618647 0.066655
v -0.029040 0.621408 0.066655
v -0.029040 0.621408 0.084027
v -0.026279 0.625006 0.066655
v -0.026279 0.625006 0.084027
v -0.026279 0.659751 0.084027
v -0.026279 0.625006 0.084027
v -0.024544 0.629196 0.084027
v -0.024544 0.655561 0.084027
v -0.024544 0.629196 0.084027
v -0.023951 0.633692 0.084027
v -0.024544 0.655561 0.084027
v -0.023951 0.633692 0.084027
v -0.023951 0.651065 0.084027
v -0.023951 0.633692 0.084027
v -0.023951 0.651065 0.066655
v -0.023951 0.651065 0.084027
v -0.026279 0.625006 0.066655
v -0.029040 0.621408 0.084027
v -0.029040 0.621408 0.066655
v -0.024544 0.629196 0.066655
v -0.026279 0.625006 0.084027
v -0.026279 0.625006 0.066655
v -0.026279 0.625006 0.084027
v -0.024544 0.629196 0.066655
v -0.024544 0.629196 0.084027
v -0.024544 0.629196 0.084027
v -0.023951 0.633692 0.066655
v -0.023951 0.633692 0.084027
v -0.023951 0.651065 0.066655
v -0.023951 0.633692 0.084027
v -0.023951 0.633692 0.066655
v -0.023951 0.633692 0.066655
v -0.024544 0.629196 0.084027
v -0.024544 0.629196 0.066655
v -0.105726 0.663349 0.066655
v -0.102128 0.666110 0.066655
v -0.105726 0.663349 0.084027
v -0.102128 0.666110 0.066655
v -0.097938 0.667845 0.066655
v -0.102128 0.666110 0.084027
v -0.105726 0.663349 0.066655
v -0.105726 0.663349 0.084027
v -0.108487 0.659751 0.066655
v -0.102128 0.666110 0.084027
v -0.105726 0.663349 0.084027
v -0.102128 0.666110 0.066655
v -0.097938 0.667845 0.084027
v -0.102128 0.666110 0.084027
v -0.097938 0.667845 0.066655
v -0.097938 0.667845 0.066655
v -0.093442 0.668438 0.066655
v -0.097938 0.667845 0.084027
v -0.108487 0.659751 0.066655
v -0.108487 0.659751 0.084027
v -0.110223 0.655561 0.066655
v -0.108487 0.659751 0.084027
v -0.108487 0.659751 0.066655
v -0.105726 0.663349 0.084027
v -0.102128 0.666110 0.084027
v -0.102128 0.618647 0.084027
v -0.105726 0.663349 0.084027
v -0.097938 0.667845 0.084027
v -0.097938 0.616912 0.084027
v -0.102128 0.666110 0.084027
v -0.093442 0.668438 0.084027
v -0.097938 0.667845 0.084027
v -0.093442 0.668438 0.066655
v -0.093442 0.668438 0.066655
v -0.041324 0.668438 0.066655
v -0.093442 0.668438 0.084027
v -0.110223 0.655561 0.066655
v -0.110223 0.655561 0.084027
v -0.110815 0.651065 0.066655
v -0.110223 0.655561 0.084027
v -0.110223 0.655561 0.066655
v -0.108487 0.659751 0.084027
v -0.105726 0.663349 0.084027
v -0.105726 0.621408 0.084027
v -0.108487 0.659751 0.084027
v -0.102128 0.618647 0.084027
v -0.105726 0.621408 0.084027
v -0.105726 0.663349 0.084027
v -0.097938 0.616912 0.084027
v -0.102128 0.618647 0.084027
v -0.102128 0.666110 0.084027
v -0.093442 0.616320 0.084027
v -0.097938 0.616912 0.084027
v -0.097938 0.667845 0.084027
v -0.093442 0.668438 0.084027
v -0.093442 0.616320 0.084027
v -0.097938 0.667845 0.084027
v -0.041324 0.668438 0.084027
v -0.093442 0.668438 0.084027
v -0.041324 0.668438 0.066655
v -0.041324 0.668438 0.066655
v -0.036828 0.667845 0.066655
v -0.041324 0.668438 0.084027
v -0.110815 0.651065 0.084027
v -0.110815 0.651065 0.066655
v -0.110223 0.655561 0.084027
v -0.108487 0.659751 0.084027
v -0.108487 0.625006 0.084027
v -0.110223 0.655561 0.084027
v -0.105726 0.621408 0.084027
v -0.108487 0.625006 0.084027
v -0.108487 0.659751 0.084027
v -0.105726 0.621408 0.084027
v -0.102128 0.618647 0.084027
v -0.105726 0.621408 0.066655
v -0.102128 0.618647 0.084027
v -0.097938 0.616912 0.084027
v -0.102128 0.618647 0.066655
v -0.097938 0.616912 0.084027
v -0.093442 0.616320 0.084027
v -0.097938 0.616912 0.066655
v -0.041324 0.616320 0.084027
v -0.093442 0.616320 0.084027
v -0.093442 0.668438 0.084027
v -0.041324 0.668438 0.084027
v -0.041324 0.616320 0.084027
v -0.093442 0.668438 0.084027
v -0.036828 0.667845 0.084027
v -0.041324 0.668438 0.084027
v -0.036828 0.667845 0.066655
v -0.036828 0.667845 0.066655
v -0.032638 0.666110 0.066655
v -0.036828 0.667845 0.084027
v -0.110815 0.651065 0.066655
v -0.110815 0.651065 0.084027
v -0.110815 0.633692 0.066655
v -0.110223 0.655561 0.084027
v -0.110223 0.629196 0.084027
v -0.110815 0.651065 0.084027
v -0.108487 0.625006 0.084027
v -0.110223 0.629196 0.084027
v -0.110223 0.655561 0.084027
v -0.105726 0.621408 0.084027
v -0.105726 0.621408 0.066655
v -0.108487 0.625006 0.084027
v -0.102128 0.618647 0.066655
v -0.105726 0.621408 0.066655
v -0.102128 0.618647 0.084027
v -0.097938 0.616912 0.066655
v -0.102128 0.618647 0.066655
v -0.097938 0.616912 0.084027
v -0.093442 0.616320 0.066655
v -0.097938 0.616912 0.066655
v -0.093442 0.616320 0.084027
v -0.093442 0.616320 0.084027
v -0.041324 0.616320 0.084027
v -0.093442 0.616320 0.066655
v -0.036828 0.616912 0.084027
v -0.041324 0.616320 0.084027
v -0.041324 0.668438 0.084027
v -0.036828 0.667845 0.084027
v -0.036828 0.616912 0.084027
v -0.041324 0.668438 0.084027
v -0.032638 0.666110 0.084027
v -0.036828 0.667845 0.084027
v -0.032638 0.666110 0.066655
v -0.032638 0.666110 0.066655
v -0.029040 0.663349 0.066655
v -0.032638 0.666110 0.084027
v -0.110815 0.633692 0.084027
v -0.110815 0.633692 0.066655
v -0.110815 0.651065 0.084027
v -0.110815 0.633692 0.084027
v -0.110815 0.651065 0.084027
v -0.110223 0.629196 0.084027
v -0.108487 0.625006 0.084027
v -0.108487 0.625006 0.066655
v -0.110223 0.629196 0.084027
v -0.108487 0.625006 0.066655
v -0.108487 0.625006 0.084027
v -0.105726 0.621408 0.066655
v -0.041324 0.616320 0.066655
v -0.093442 0.616320 0.066655
v -0.041324 0.616320 0.084027
v -0.041324 0.616320 0.084027
v -0.036828 0.616912 0.084027
v -0.041324 0.616320 0.066655
v -0.032638 0.618647 0.084027
v -0.036828 0.616912 0.084027
v -0.036828 0.667845 0.084027
v -0.032638 0.666110 0.084027
v -0.032638 0.618647 0.084027
v -0.036828 0.667845 0.084027
v -0.029040 0.663349 0.084027
v -0.032638 0.666110 0.084027
v -0.029040 0.663349 0.066655
v -0.026279 0.659751 0.066655
v -0.026279 0.659751 0.084027
v -0.029040 0.663349 0.066655
v -0.110815 0.633692 0.066655
v -0.110815 0.633692 0.084027
v -0.110223 0.629196 0.066655
v -0.110223 0.629196 0.084027
v -0.110223 0.629196 0.066655
v -0.110815 0.633692 0.084027
v -0.110223 0.629196 0.066655
v -0.110223 0.629196 0.084027
v -0.108487 0.625006 0.066655
v -0.036828 0.616912 0.066655
v -0.041324 0.616320 0.066655
v -0.036828 0.616912 0.084027
v -0.036828 0.616912 0.084027
v -0.032638 0.618647 0.084027
v -0.036828 0.616912 0.066655
v -0.029040 0.621408 0.084027
v -0.032638 0.618647 0.084027
v -0.032638 0.666110 0.084027
v -0.029040 0.663349 0.084027
v -0.029040 0.621408 0.084027
v -0.032638 0.666110 0.084027
v -0.029040 0.663349 0.084027
v -0.029040 0.663349 0.066655
v -0.026279 0.659751 0.084027
v -0.026279 0.659751 0.084027
v -0.026279 0.659751 0.066655
v -0.024544 0.655561 0.084027
v -0.024544 0.655561 0.066655
v -0.024544 0.655561 0.084027
v -0.026279 0.659751 0.066655
v -0.032638 0.618647 0.066655
v -0.036828 0.616912 0.066655
v -0.032638 0.618647 0.084027
v -0.032638 0.618647 0.084027
v -0.029040 0.621408 0.084027
v -0.032638 0.618647 0.066655
v -0.026279 0.625006 0.084027
v -0.029040 0.621408 0.084027
v -0.029040 0.663349 0.084027
v -0.026279 0.659751 0.084027
v -0.026279 0.625006 0.084027
v -0.029040 0.663349 0.084027
v -0.024544 0.655561 0.084027
v -0.024544 0.629196 0.084027
v -0.026279 0.659751 0.084027
v -0.024544 0.655561 0.084027
v -0.024544 0.655561 0.066655
v -0.023951 0.651065 0.084027
v -0.023951 0.651065 0.066655
v -0.023951 0.651065 0.084027
v -0.024544 0.655561 0.066655
v -0.029040 0.621408 0.066655
v -0.032638 0.618647 0.066655
v -0.029040 0.621408 0.084027
v -0.026279 0.625006 0.084027
v -0.026279 0.625006 0.066655
v -0.029040 0.621408 0.084027
v -0.024544 0.629196 0.084027
v -0.026279 0.625006 0.084027
v -0.026279 0.659751 0.084027
v -0.023951 0.633692 0.084027
v -0.024544 0.629196 0.084027
v -0.024544 0.655561 0.084027
v -0.023951 0.651065 0.084027
v -0.023951 0.633692 0.084027
v -0.024544 0.655561 0.084027
v -0.023951 0.651065 0.084027
v -0.023951 0.651065 0.066655
v -0.023951 0.633692 0.084027
v -0.029040 0.621408 0.066655
v -0.029040 0.621408 0.084027
v -0.026279 0.625006 0.066655
v -0.026279 0.625006 0.066655
v -0.026279 0.625006 0.084027
v -0.024544 0.629196 0.066655
v -0.024544 0.629196 0.084027
v -0.024544 0.629196 0.066655
v -0.026279 0.625006 0.084027
v -0.023951 0.633692 0.084027
v -0.023951 0.633692 0.066655
v -0.024544 0.629196 0.084027
v -0.023951 0.633692 0.066655
v -0.023951 0.633692 0.084027
v -0.023951 0.651065 0.066655
v -0.024544 0.629196 0.066655
v -0.024544 0.629196 0.084027
v -0.023951 0.633692 0.066655
vn -0.7071067811865476 0.7071067811865476 0
vn -0.5000001873976233 0.8660252955903434 0
vn -0.25881897461707376 0.9659258451755842 0
vn -0.8660252955903434 0.5000001873976233 0
vn -0.13052599081182487 0.9914448878896857 0
vn -0.9659258451755842 0.25881897461707376 0
vn 0 0 1
vn 0 1 0
vn -0.9914448878896857 0.13052599081182487 0
vn 0.13052599081182487 0.9914448878896857 0
vn 0.25881897461707376 0.9659258451755842 0
vn -0.7071067811865476 -0.7071067811865476 0
vn -0.5000001873976233 -0.8660252955903434 0
vn -0.25881897461707376 -0.9659258451755842 0
vn -0.13052599081182487 -0.9914448878896857 0
vn 0.5000001873976233 0.8660252955903434 0
vn -1 0 0
vn -0.8660252955903434 -0.5000001873976233 0
vn 0 -1 0
vn 0.7071067811865476 0.7071067811865476 0
vn -0.9659258451755842 -0.25881897461707376 0
vn 0.13052599081182487 -0.9914448878896857 0
vn 0.25881897461707376 -0.9659258451755842 0
vn 0.8660252955903434 0.5000001873976233 0
vn -0.9914448878896857 -0.13052599081182487 0
vn 0.5000001873976233 -0.8660252955903434 0
vn 0.9659258451755842 0.25881897461707376 0
vn 0.7071067811865476 -0.7071067811865476 0
vn 0.9914448878896857 0.13052599081182487 0
vn 0.8660252955903434 -0.5000001873976233 0
vn 1 0 0
vn 0.9659258451755842 -0.25881897461707376 0
vn 0.9914448878896857 -0.13052599081182487 0
vn 0 0 -1
usemtl material_0_0
f 1//1 2//2 3//1
f 4//2 5//3 6//2
f 7//4 8//1 9//1
f 10//2 11//1 12//2
f 13//3 14//2 15//3
f 16//3 17//5 18//3
f 19//6 20//4 21//4
f 22//1 23//4 24//4
f 25//7 26//7 27//7
f 28//7 29//7 30//7
f 31//5 32//3 33//5
f 34//8 35//8 36//8
f 37//9 38//6 39//6
f 40//4 41//6 42//6
f 43//7 44//7 45//7
f 46//7 47//7 48//7
f 49//7 50//7 51//7
f 52//7 53//7 54//7
f 55//7 56//7 57//7
f 58//8 59//8 60//8
f 61//10 62//11 63//10
f 64//6 65//9 66//9
f 67//7 68//7 69//7
f 70//7 71//7 72//7
f 73//12 74//13 75//12
f 76//13 77//14 78//13
f 79//14 80//15 81//14
f 82//7 83//7 84//7
f 85//7 86//7 87//7
f 88//11 89//10 90//11
f 91//11 92//16 93//11
f 94//17 95//17 96//17
f 97//7 98//7 99//7
f 100//7 101//7 102//7
f 103//18 104//12 105//12
f 106//13 107//12 108//13
f 109//14 110//13 111//14
f 112//15 113//14 114//15
f 115//19 116//19 117//19
f 118//7 119//7 120//7
f 121//7 122//7 123//7
f 124//16 125//11 126//16
f 127//16 128//20 129//16
f 130//17 131//17 132//17
f 133//7 134//7 135//7
f 136//21 137//18 138//18
f 139//12 140//18 141//18
f 142//19 143//19 144//19
f 145//22 146//23 147//22
f 148//7 149//7 150//7
f 151//7 152//7 153//7
f 154//20 155//16 156//20
f 157//20 158//24 159//24
f 160//21 161//25 162//25
f 163//25 164//21 165//21
f 166//18 167//21 168//21
f 169//23 170//22 171//23
f 172//23 173//26 174//23
f 175//7 176//7 177//7
f 178//7 179//7 180//7
f 181//24 182//20 183//20
f 184//27 185//24 186//24
f 187//24 188//27 189//27
f 190//26 191//23 192//26
f 193//26 194//28 195//26
f 196//7 197//7 198//7
f 199//7 200//7 201//7
f 202//7 203//7 204//7
f 205//29 206//27 207//27
f 208//27 209//29 210//29
f 211//28 212//26 213//28
f 214//28 215//30 216//30
f 217//7 218//7 219//7
f 220//7 221//7 222//7
f 223//7 224//7 225//7
f 226//31 227//31 228//31
f 229//30 230//28 231//28
f 232//32 233//30 234//30
f 235//30 236//32 237//32
f 238//32 239//33 240//33
f 241//31 242//31 243//31
f 244//33 245//32 246//32
usemtl material_1_0
f 247//28 248//26 249//28
f 250//26 251//23 252//26
f 253//28 254//28 255//30
f 256//26 257//28 258//26
f 259//23 260//26 261//23
f 262//23 263//22 264//23
f 265//30 266//30 267//32
f 268//30 269//30 270//28
f 271//34 272//34 273//34
f 274//34 275//34 276//34
f 277//22 278//23 279//22
f 280//19 281//19 282//19
f 283//32 284//32 285//33
f 286//32 287//32 288//30
f 289//34 290//34 291//34
f 292//34 293//34 294//34
f 295//34 296//34 297//34
f 298//34 299//34 300//34
f 301//34 302//34 303//34
f 304//19 305//19 306//19
f 307//15 308//14 309//15
f 310//33 311//33 312//32
f 313//34 314//34 315//34
f 316//34 317//34 318//34
f 319//20 320//16 321//20
f 322//16 323//11 324//16
f 325//11 326//10 327//11
f 328//34 329//34 330//34
f 331//34 332//34 333//34
f 334//14 335//15 336//14
f 337//14 338//13 339//14
f 340//31 341//31 342//31
f 343//34 344//34 345//34
f 346//34 347//34 348//34
f 349//20 350//20 351//24
f 352//16 353//20 354//16
f 355//11 356//16 357//11
f 358//10 359//11 360//10
f 361//8 362//8 363//8
f 364//34 365//34 366//34
f 367//34 368//34 369//34
f 370//13 371//14 372//13
f 373//13 374//12 375//13
f 376//31 377//31 378//31
f 379//34 380//34 381//34
f 382//24 383//24 384//27
f 385//24 386//24 387//20
f 388//8 389//8 390//8
f 391//5 392//3 393//5
f 394//34 395//34 396//34
f 397//34 398//34 399//34
f 400//12 401//13 402//12
f 403//18 404//18 405//12
f 406//29 407//29 408//27
f 409//27 410//27 411//29
f 412//27 413//27 414//24
f 415//3 416//5 417//3
f 418//3 419//2 420//3
f 421//34 422//34 423//34
f 424//34 425//34 426//34
f 427//12 428//12 429//18
f 430//18 431//18 432//21
f 433//21 434//21 435//18
f 436//2 437//3 438//2
f 439//2 440//1 441//2
f 442//34 443//34 444//34
f 445//34 446//34 447//34
f 448//34 449//34 450//34
f 451//21 452//21 453//25
f 454//25 455//25 456//21
f 457//1 458//2 459//1
f 460//4 461//4 462//1
f 463//34 464//34 465//34
f 466//34 467//34 468//34
f 469//34 470//34 471//34
f 472//17 473//17 474//17
f 475//1 476//1 477//4
f 478//4 479//4 480//6
f 481//6 482//6 483//4
f 484//9 485//9 486//6
f 487//17 488//17 489//17
f 490//6 491//6 492//9
