# SSTK version 0.8.0
# 154
mtllib original-154.mtl
o mesh109/mesh109-geometry/material_5/component_2#mesh109-geometry
v -0.081090 0.503838 0.084027
v -0.081090 0.538583 0.084027
v -0.072404 0.503838 0.084027
v -0.072404 0.538583 0.084027
v -0.072404 0.503838 0.084027
v -0.081090 0.538583 0.084027
v -0.072404 0.503838 0.084027
v -0.081090 0.538583 0.084027
v -0.081090 0.503838 0.084027
v -0.081090 0.538583 0.084027
v -0.072404 0.503838 0.084027
v -0.072404 0.538583 0.084027
vn 0 0 -1
vn 0 0 1
usemtl material_0_0
f 1//1 2//1 3//1
f 4//1 5//1 6//1
usemtl material_1_0
f 7//2 8//2 9//2
f 10//2 11//2 12//2
