# SSTK version 0.8.0
# 101
mtllib original-101.mtl
o __1_1/__12/mesh101/mesh101-geometry#mesh101-geometry
v 0.207399 0.186014 0.084201
v 0.198702 0.168109 0.084201
v 0.194331 0.168109 0.084201
v 0.208775 0.182065 0.084201
v 0.210195 0.186014 0.084201
v 0.218870 0.168153 0.084201
v 0.223263 0.168153 0.084201
vn 0 0 -1
vn 0 0 1
usemtl material_0_0
f 1//1 2//1 3//1
f 2//1 1//1 4//1
f 3//2 2//2 1//2
f 4//2 1//2 2//2
f 4//1 1//1 5//1
f 5//2 1//2 4//2
f 4//1 5//1 6//1
f 6//2 5//2 4//2
f 6//1 5//1 7//1
f 7//2 5//2 6//2
