# SSTK version 0.8.0
# 2
mtllib original-2.mtl
o mesh1/mesh1-geometry#mesh1-geometry
v -0.225495 0.700775 0.066742
v -0.225206 0.695924 0.066742
v -0.225296 0.694408 0.066742
v -0.224401 0.701735 0.066742
v -0.225506 0.688062 0.066742
v -0.224937 0.697258 0.066742
v -0.226390 0.689285 0.066742
v -0.225204 0.692878 0.066742
v -0.224487 0.698407 0.066742
v -0.226394 0.699518 0.066742
v -0.224401 0.687094 0.066742
v -0.223859 0.699372 0.066742
v -0.227043 0.690758 0.066742
v -0.224930 0.691539 0.066742
v -0.223071 0.702440 0.066742
v -0.227049 0.698030 0.066742
v -0.224472 0.690390 0.066742
v -0.223073 0.700137 0.066742
v -0.227446 0.692469 0.066742
v -0.223831 0.689432 0.066742
v -0.222152 0.700683 0.066742
v -0.227448 0.696323 0.066742
v -0.223083 0.686387 0.066742
v -0.221559 0.702872 0.066742
v -0.227581 0.694408 0.066742
v -0.223037 0.688678 0.066742
v -0.221096 0.701010 0.066742
v -0.221578 0.685954 0.066742
v -0.219915 0.703016 0.066742
v -0.222117 0.688138 0.066742
v -0.219904 0.701120 0.066742
v -0.221073 0.687815 0.066742
v -0.218230 0.702871 0.066742
v -0.219915 0.685810 0.066742
v -0.218722 0.701010 0.066742
v -0.219904 0.687707 0.066742
v -0.217672 0.700683 0.066742
v -0.218228 0.685952 0.066742
v -0.216726 0.702434 0.066742
v -0.218736 0.687815 0.066742
v -0.216753 0.700137 0.066742
v -0.217692 0.688138 0.066742
v -0.215966 0.699372 0.066742
v -0.216737 0.686376 0.066742
v -0.215418 0.701728 0.066742
v -0.216775 0.688678 0.066742
v -0.215335 0.698407 0.066742
v -0.215983 0.689432 0.066742
v -0.214324 0.700775 0.066742
v -0.215438 0.687081 0.066742
v -0.214884 0.697258 0.066742
v -0.215344 0.690390 0.066742
v -0.214614 0.695924 0.066742
v -0.214324 0.688062 0.066742
v -0.214524 0.694408 0.066742
v -0.214889 0.691539 0.066742
v -0.214615 0.692878 0.066742
v -0.213432 0.699541 0.066742
v -0.213446 0.689273 0.066742
v -0.212787 0.690752 0.066742
v -0.212777 0.698058 0.066742
v -0.212376 0.692473 0.066742
v -0.212373 0.696341 0.066742
v -0.212238 0.694408 0.066742
vn 0 0 -1
vn 0 0 1
usemtl material_0_0
f 1//1 2//1 3//1
f 2//1 1//1 4//1
f 3//2 2//2 1//2
f 4//2 1//2 2//2
f 5//1 1//1 3//1
f 3//2 1//2 5//2
f 2//1 4//1 6//1
f 6//2 4//2 2//2
f 7//1 1//1 5//1
f 5//2 1//2 7//2
f 5//1 3//1 8//1
f 8//2 3//2 5//2
f 6//1 4//1 9//1
f 9//2 4//2 6//2
f 7//1 10//1 1//1
f 1//2 10//2 7//2
f 5//1 8//1 11//1
f 11//2 8//2 5//2
f 9//1 4//1 12//1
f 12//2 4//2 9//2
f 13//1 10//1 7//1
f 7//2 10//2 13//2
f 11//1 8//1 14//1
f 14//2 8//2 11//2
f 12//1 4//1 15//1
f 15//2 4//2 12//2
f 13//1 16//1 10//1
f 10//2 16//2 13//2
f 11//1 14//1 17//1
f 17//2 14//2 11//2
f 12//1 15//1 18//1
f 18//2 15//2 12//2
f 19//1 16//1 13//1
f 13//2 16//2 19//2
f 11//1 17//1 20//1
f 20//2 17//2 11//2
f 18//1 15//1 21//1
f 21//2 15//2 18//2
f 19//1 22//1 16//1
f 16//2 22//2 19//2
f 11//1 20//1 23//1
f 23//2 20//2 11//2
f 21//1 15//1 24//1
f 24//2 15//2 21//2
f 22//1 19//1 25//1
f 25//2 19//2 22//2
f 23//1 20//1 26//1
f 26//2 20//2 23//2
f 21//1 24//1 27//1
f 27//2 24//2 21//2
f 23//1 26//1 28//1
f 28//2 26//2 23//2
f 27//1 24//1 29//1
f 29//2 24//2 27//2
f 28//1 26//1 30//1
f 30//2 26//2 28//2
f 27//1 29//1 31//1
f 31//2 29//2 27//2
f 28//1 30//1 32//1
f 32//2 30//2 28//2
f 31//1 29//1 33//1
f 33//2 29//2 31//2
f 28//1 32//1 34//1
f 34//2 32//2 28//2
f 31//1 33//1 35//1
f 35//2 33//2 31//2
f 34//1 32//1 36//1
f 36//2 32//2 34//2
f 35//1 33//1 37//1
f 37//2 33//2 35//2
f 34//1 36//1 38//1
f 38//2 36//2 34//2
f 37//1 33//1 39//1
f 39//2 33//2 37//2
f 38//1 36//1 40//1
f 40//2 36//2 38//2
f 37//1 39//1 41//1
f 41//2 39//2 37//2
f 38//1 40//1 42//1
f 42//2 40//2 38//2
f 41//1 39//1 43//1
f 43//2 39//2 41//2
f 38//1 42//1 44//1
f 44//2 42//2 38//2
f 43//1 39//1 45//1
f 45//2 39//2 43//2
f 44//1 42//1 46//1
f 46//2 42//2 44//2
f 43//1 45//1 47//1
f 47//2 45//2 43//2
f 44//1 46//1 48//1
f 48//2 46//2 44//2
f 47//1 45//1 49//1
f 49//2 45//2 47//2
f 44//1 48//1 50//1
f 50//2 48//2 44//2
f 47//1 49//1 51//1
f 51//2 49//2 47//2
f 50//1 48//1 52//1
f 52//2 48//2 50//2
f 51//1 49//1 53//1
f 53//2 49//2 51//2
f 50//1 52//1 54//1
f 54//2 52//2 50//2
f 53//1 49//1 55//1
f 55//2 49//2 53//2
f 54//1 52//1 56//1
f 56//2 52//2 54//2
f 54//1 55//1 49//1
f 54//1 56//1 57//1
f 57//2 56//2 54//2
f 54//1 57//1 55//1
f 55//2 57//2 54//2
f 49//2 55//2 54//2
f 54//1 49//1 58//1
f 58//2 49//2 54//2
f 54//1 58//1 59//1
f 59//2 58//2 54//2
f 59//1 58//1 60//1
f 60//2 58//2 59//2
f 60//1 58//1 61//1
f 61//2 58//2 60//2
f 60//1 61//1 62//1
f 62//2 61//2 60//2
f 62//1 61//1 63//1
f 63//2 61//2 62//2
f 62//1 63//1 64//1
f 64//2 63//2 62//2
