# SSTK version 0.8.0
# 10
mtllib original-10.mtl
o mesh7/mesh7-geometry#mesh7-geometry
v 0.081427 0.702628 0.066742
v 0.083624 0.700742 0.066742
v 0.081427 0.686110 0.066742
v 0.086053 0.702628 0.066742
v 0.083624 0.686110 0.066742
v 0.086209 0.700742 0.066742
v 0.083624 0.694508 0.066742
v 0.088549 0.702434 0.066742
v 0.083624 0.692677 0.066742
v 0.087751 0.700615 0.066742
v 0.085843 0.694508 0.066742
v 0.088882 0.700165 0.066742
v 0.086719 0.692677 0.066742
v 0.089498 0.702164 0.066742
v 0.087662 0.694691 0.066742
v 0.089377 0.699745 0.066742
v 0.092243 0.686110 0.066742
v 0.089708 0.699239 0.066742
v 0.088882 0.693332 0.066742
v 0.090346 0.701741 0.066742
v 0.088380 0.694953 0.066742
v 0.095095 0.686110 0.066742
v 0.089896 0.698650 0.066742
v 0.088982 0.695373 0.066742
v 0.089958 0.697980 0.066742
v 0.090288 0.694090 0.066742
v 0.089416 0.695874 0.066742
v 0.091356 0.695146 0.066742
v 0.089899 0.697130 0.066742
v 0.089720 0.696443 0.066742
v 0.091147 0.701101 0.066742
v 0.091750 0.700315 0.066742
v 0.091749 0.695784 0.066742
v 0.092030 0.696495 0.066742
v 0.092128 0.699340 0.066742
v 0.092255 0.698135 0.066742
vn 0 0 -1
vn 0 0 1
usemtl material_0_0
f 1//1 2//1 3//1
f 2//1 1//1 4//1
f 3//2 2//2 1//2
f 4//2 1//2 2//2
f 2//1 5//1 3//1
f 3//2 5//2 2//2
f 2//1 4//1 6//1
f 6//2 4//2 2//2
f 5//1 2//1 7//1
f 7//2 2//2 5//2
f 6//1 4//1 8//1
f 8//2 4//2 6//2
f 5//1 7//1 9//1
f 9//2 7//2 5//2
f 6//1 8//1 10//1
f 10//2 8//2 6//2
f 11//1 9//1 7//1
f 7//2 9//2 11//2
f 10//1 8//1 12//1
f 12//2 8//2 10//2
f 9//1 11//1 13//1
f 13//2 11//2 9//2
f 12//1 8//1 14//1
f 14//2 8//2 12//2
f 13//1 11//1 15//1
f 15//2 11//2 13//2
f 12//1 14//1 16//1
f 16//2 14//2 12//2
f 13//1 15//1 17//1
f 17//2 15//2 13//2
f 16//1 14//1 18//1
f 18//2 14//2 16//2
f 17//1 15//1 19//1
f 19//2 15//2 17//2
f 18//1 14//1 20//1
f 20//2 14//2 18//2
f 19//1 15//1 21//1
f 21//2 15//2 19//2
f 17//1 19//1 22//1
f 22//2 19//2 17//2
f 18//1 20//1 23//1
f 24//1 19//1 21//1
f 21//2 19//2 24//2
f 23//1 20//1 25//1
f 23//2 20//2 18//2
f 25//2 20//2 23//2
f 19//1 24//1 26//1
f 26//2 24//2 19//2
f 25//1 20//1 26//1
f 26//2 20//2 25//2
f 26//1 24//1 27//1
f 27//2 24//2 26//2
f 26//1 20//1 28//1
f 28//2 20//2 26//2
f 26//1 29//1 25//1
f 25//2 29//2 26//2
f 26//1 27//1 30//1
f 30//2 27//2 26//2
f 28//1 20//1 31//1
f 31//2 20//2 28//2
f 26//1 30//1 29//1
f 29//2 30//2 26//2
f 28//1 31//1 32//1
f 32//2 31//2 28//2
f 28//1 32//1 33//1
f 33//2 32//2 28//2
f 33//1 32//1 34//1
f 34//2 32//2 33//2
f 34//1 32//1 35//1
f 35//2 32//2 34//2
f 34//1 35//1 36//1
f 36//2 35//2 34//2
