# SSTK version 0.8.0
# 41
mtllib original-41.mtl
o mesh37/mesh37-geometry#mesh37-geometry
v -0.076280 0.459112 0.066742
v -0.074084 0.457159 0.066742
v -0.076280 0.442593 0.066742
v -0.065397 0.459112 0.066742
v -0.074084 0.444546 0.066742
v -0.065397 0.457159 0.066742
v -0.065397 0.442593 0.066742
v -0.074084 0.452633 0.066742
v -0.065397 0.444546 0.066742
v -0.074084 0.450680 0.066742
v -0.065397 0.452633 0.066742
v -0.065397 0.450680 0.066742
vn 0 0 -1
vn 0 0 1
usemtl material_0_0
f 1//1 2//1 3//1
f 2//1 1//1 4//1
f 3//2 2//2 1//2
f 4//2 1//2 2//2
f 5//1 3//1 2//1
f 2//2 3//2 5//2
f 2//1 4//1 6//1
f 6//2 4//2 2//2
f 3//1 5//1 7//1
f 7//2 5//2 3//2
f 5//1 2//1 8//1
f 8//2 2//2 5//2
f 7//1 5//1 9//1
f 9//2 5//2 7//2
f 5//1 8//1 10//1
f 10//2 8//2 5//2
f 11//1 10//1 8//1
f 8//2 10//2 11//2
f 10//1 11//1 12//1
f 12//2 11//2 10//2
