# SSTK version 0.8.0
# 25
mtllib original-25.mtl
o mesh21/mesh21-geometry#mesh21-geometry
v -0.085737 0.581064 0.066742
v -0.089521 0.564546 0.066742
v -0.091750 0.564546 0.066742
v -0.087901 0.569149 0.066742
v -0.087235 0.571035 0.066742
v -0.084329 0.579145 0.066742
v -0.080756 0.569149 0.066742
v -0.082809 0.581064 0.066742
v -0.081433 0.571035 0.066742
v -0.076796 0.564546 0.066742
v -0.079137 0.564546 0.066742
vn 0 0 -1
vn 0 0 1
usemtl material_0_0
f 1//1 2//1 3//1
f 2//1 1//1 4//1
f 3//2 2//2 1//2
f 4//2 1//2 2//2
f 4//1 1//1 5//1
f 5//2 1//2 4//2
f 5//1 1//1 6//1
f 6//2 1//2 5//2
f 5//1 7//1 4//1
f 4//2 7//2 5//2
f 6//1 1//1 8//1
f 8//2 1//2 6//2
f 7//1 5//1 9//1
f 9//2 5//2 7//2
f 6//1 8//1 9//1
f 9//2 8//2 6//2
f 9//1 10//1 7//1
f 7//2 10//2 9//2
f 9//1 8//1 10//1
f 10//2 8//2 9//2
f 7//1 10//1 11//1
f 11//2 10//2 7//2
