# SSTK version 0.8.0
# 69
mtllib original-69.mtl
o mesh63/mesh63-geometry#mesh63-geometry
v -0.215988 -0.200705 0.066742
v -0.213791 -0.202591 0.066742
v -0.215988 -0.217224 0.066742
v -0.211861 -0.200705 0.066742
v -0.213791 -0.215338 0.066742
v -0.211728 -0.202591 0.066742
v -0.211817 -0.217224 0.066742
v -0.209691 -0.200793 0.066742
v -0.211728 -0.215338 0.066742
v -0.209099 -0.202807 0.066742
v -0.209763 -0.217146 0.066742
v -0.208017 -0.201055 0.066742
v -0.210243 -0.215279 0.066742
v -0.208031 -0.203109 0.066742
v -0.208960 -0.215105 0.066742
v -0.207024 -0.203579 0.066742
v -0.208150 -0.216913 0.066742
v -0.206701 -0.201469 0.066742
v -0.207827 -0.214772 0.066742
v -0.205848 -0.204485 0.066742
v -0.206823 -0.216505 0.066742
v -0.205604 -0.202014 0.066742
v -0.206791 -0.214240 0.066742
v -0.205005 -0.205675 0.066742
v -0.205627 -0.215903 0.066742
v -0.204104 -0.203243 0.066742
v -0.205714 -0.213327 0.066742
v -0.204498 -0.207159 0.066742
v -0.204944 -0.212165 0.066742
v -0.204328 -0.208948 0.066742
v -0.204852 -0.215347 0.066742
v -0.204158 -0.214689 0.066742
v -0.204482 -0.210717 0.066742
v -0.203014 -0.213063 0.066742
v -0.202975 -0.204821 0.066742
v -0.202584 -0.212122 0.066742
v -0.202563 -0.205738 0.066742
v -0.202278 -0.211128 0.066742
v -0.202268 -0.206737 0.066742
v -0.202032 -0.208981 0.066742
vn 0 0 -1
vn 0 0 1
usemtl material_0_0
f 1//1 2//1 3//1
f 2//1 1//1 4//1
f 3//2 2//2 1//2
f 4//2 1//2 2//2
f 5//1 3//1 2//1
f 2//2 3//2 5//2
f 2//1 4//1 6//1
f 6//2 4//2 2//2
f 3//1 5//1 7//1
f 7//2 5//2 3//2
f 6//1 4//1 8//1
f 8//2 4//2 6//2
f 7//1 5//1 9//1
f 9//2 5//2 7//2
f 6//1 8//1 10//1
f 10//2 8//2 6//2
f 7//1 9//1 11//1
f 11//2 9//2 7//2
f 10//1 8//1 12//1
f 12//2 8//2 10//2
f 11//1 9//1 13//1
f 13//2 9//2 11//2
f 10//1 12//1 14//1
f 14//2 12//2 10//2
f 11//1 13//1 15//1
f 15//2 13//2 11//2
f 14//1 12//1 16//1
f 16//2 12//2 14//2
f 11//1 15//1 17//1
f 17//2 15//2 11//2
f 16//1 12//1 18//1
f 18//2 12//2 16//2
f 17//1 15//1 19//1
f 19//2 15//2 17//2
f 16//1 18//1 20//1
f 20//2 18//2 16//2
f 17//1 19//1 21//1
f 21//2 19//2 17//2
f 20//1 18//1 22//1
f 22//2 18//2 20//2
f 21//1 19//1 23//1
f 23//2 19//2 21//2
f 20//1 22//1 24//1
f 24//2 22//2 20//2
f 21//1 23//1 25//1
f 25//2 23//2 21//2
f 24//1 22//1 26//1
f 26//2 22//2 24//2
f 25//1 23//1 27//1
f 27//2 23//2 25//2
f 24//1 26//1 28//1
f 28//2 26//2 24//2
f 25//1 27//1 29//1
f 29//2 27//2 25//2
f 28//1 26//1 30//1
f 30//2 26//2 28//2
f 25//1 29//1 31//1
f 31//2 29//2 25//2
f 30//1 26//1 32//1
f 32//2 26//2 30//2
f 31//1 29//1 33//1
f 33//2 29//2 31//2
f 32//1 26//1 34//1
f 34//2 26//2 32//2
f 32//1 33//1 30//1
f 30//2 33//2 32//2
f 31//1 33//1 32//1
f 32//2 33//2 31//2
f 34//1 26//1 35//1
f 35//2 26//2 34//2
f 34//1 35//1 36//1
f 36//2 35//2 34//2
f 36//1 35//1 37//1
f 37//2 35//2 36//2
f 36//1 37//1 38//1
f 38//2 37//2 36//2
f 38//1 37//1 39//1
f 39//2 37//2 38//2
f 38//1 39//1 40//1
f 40//2 39//2 38//2
