# SSTK version 0.8.0
# 129
mtllib original-129.mtl
o mesh109/mesh109-geometry/material_0/component_15#mesh109-geometry
v 0.115030 -0.139391 0.066655
v 0.115030 -0.156763 0.084027
v 0.115030 -0.156763 0.066655
v 0.115030 -0.156763 0.084027
v 0.115030 -0.139391 0.066655
v 0.115030 -0.139391 0.084027
v 0.114438 -0.161260 0.084027
v 0.115030 -0.156763 0.066655
v 0.115030 -0.156763 0.084027
v 0.114438 -0.134894 0.066655
v 0.115030 -0.139391 0.084027
v 0.115030 -0.139391 0.066655
v 0.115030 -0.156763 0.066655
v 0.114438 -0.161260 0.084027
v 0.114438 -0.161260 0.066655
v 0.114438 -0.134894 0.084027
v 0.115030 -0.156763 0.084027
v 0.115030 -0.139391 0.084027
v 0.114438 -0.134894 0.084027
v 0.114438 -0.161260 0.084027
v 0.115030 -0.156763 0.084027
v 0.115030 -0.139391 0.084027
v 0.114438 -0.134894 0.066655
v 0.114438 -0.134894 0.084027
v 0.112702 -0.165450 0.084027
v 0.114438 -0.161260 0.066655
v 0.114438 -0.161260 0.084027
v 0.112702 -0.130704 0.084027
v 0.114438 -0.161260 0.084027
v 0.114438 -0.134894 0.084027
v 0.112702 -0.130704 0.066655
v 0.114438 -0.134894 0.084027
v 0.114438 -0.134894 0.066655
v 0.114438 -0.161260 0.066655
v 0.112702 -0.165450 0.084027
v 0.112702 -0.165450 0.066655
v 0.112702 -0.130704 0.084027
v 0.112702 -0.165450 0.084027
v 0.114438 -0.161260 0.084027
v 0.114438 -0.134894 0.084027
v 0.112702 -0.130704 0.066655
v 0.112702 -0.130704 0.084027
v 0.109941 -0.169048 0.084027
v 0.112702 -0.165450 0.066655
v 0.112702 -0.165450 0.084027
v 0.109941 -0.127106 0.084027
v 0.112702 -0.165450 0.084027
v 0.112702 -0.130704 0.084027
v 0.109941 -0.127106 0.066655
v 0.112702 -0.130704 0.084027
v 0.112702 -0.130704 0.066655
v 0.112702 -0.165450 0.066655
v 0.109941 -0.169048 0.084027
v 0.109941 -0.169048 0.066655
v 0.109941 -0.127106 0.084027
v 0.109941 -0.169048 0.084027
v 0.112702 -0.165450 0.084027
v 0.112702 -0.130704 0.084027
v 0.109941 -0.127106 0.066655
v 0.109941 -0.127106 0.084027
v 0.109941 -0.169048 0.084027
v 0.106343 -0.171809 0.066655
v 0.109941 -0.169048 0.066655
v 0.106343 -0.124345 0.084027
v 0.109941 -0.169048 0.084027
v 0.109941 -0.127106 0.084027
v 0.109941 -0.127106 0.066655
v 0.106343 -0.124345 0.084027
v 0.109941 -0.127106 0.084027
v 0.106343 -0.124345 0.084027
v 0.109941 -0.127106 0.066655
v 0.106343 -0.124345 0.066655
v 0.106343 -0.171809 0.066655
v 0.109941 -0.169048 0.084027
v 0.106343 -0.171809 0.084027
v 0.106343 -0.124345 0.084027
v 0.106343 -0.171809 0.084027
v 0.109941 -0.169048 0.084027
v 0.106343 -0.124345 0.066655
v 0.102153 -0.122610 0.084027
v 0.106343 -0.124345 0.084027
v 0.106343 -0.171809 0.084027
v 0.102153 -0.173544 0.066655
v 0.106343 -0.171809 0.066655
v 0.102153 -0.122610 0.084027
v 0.106343 -0.171809 0.084027
v 0.106343 -0.124345 0.084027
v 0.102153 -0.122610 0.084027
v 0.106343 -0.124345 0.066655
v 0.102153 -0.122610 0.066655
v 0.102153 -0.173544 0.066655
v 0.106343 -0.171809 0.084027
v 0.102153 -0.173544 0.084027
v 0.102153 -0.122610 0.084027
v 0.102153 -0.173544 0.084027
v 0.106343 -0.171809 0.084027
v 0.102153 -0.122610 0.066655
v 0.097657 -0.122018 0.084027
v 0.102153 -0.122610 0.084027
v 0.102153 -0.173544 0.084027
v 0.097657 -0.174136 0.066655
v 0.102153 -0.173544 0.066655
v 0.097657 -0.122018 0.084027
v 0.102153 -0.173544 0.084027
v 0.102153 -0.122610 0.084027
v 0.097657 -0.122018 0.084027
v 0.102153 -0.122610 0.066655
v 0.097657 -0.122018 0.066655
v 0.097657 -0.174136 0.066655
v 0.102153 -0.173544 0.084027
v 0.097657 -0.174136 0.084027
v 0.097657 -0.122018 0.084027
v 0.097657 -0.174136 0.084027
v 0.102153 -0.173544 0.084027
v 0.097657 -0.122018 0.066655
v 0.045539 -0.122018 0.084027
v 0.097657 -0.122018 0.084027
v 0.028166 -0.156763 0.066655
v 0.028166 -0.139391 0.084027
v 0.028166 -0.139391 0.066655
v 0.097657 -0.174136 0.084027
v 0.045539 -0.174136 0.066655
v 0.097657 -0.174136 0.066655
v 0.045539 -0.122018 0.084027
v 0.097657 -0.174136 0.084027
v 0.097657 -0.122018 0.084027
v 0.045539 -0.122018 0.084027
v 0.097657 -0.122018 0.066655
v 0.045539 -0.122018 0.066655
v 0.028166 -0.139391 0.084027
v 0.028166 -0.156763 0.066655
v 0.028166 -0.156763 0.084027
v 0.028759 -0.134894 0.084027
v 0.028166 -0.139391 0.066655
v 0.028166 -0.139391 0.084027
v 0.045539 -0.174136 0.066655
v 0.097657 -0.174136 0.084027
v 0.045539 -0.174136 0.084027
v 0.045539 -0.122018 0.084027
v 0.045539 -0.174136 0.084027
v 0.097657 -0.174136 0.084027
v 0.045539 -0.122018 0.066655
v 0.041043 -0.122610 0.084027
v 0.045539 -0.122018 0.084027
v 0.028759 -0.161260 0.066655
v 0.028166 -0.156763 0.084027
v 0.028166 -0.156763 0.066655
v 0.030494 -0.165450 0.066655
v 0.028759 -0.161260 0.084027
v 0.028759 -0.161260 0.066655
v 0.033255 -0.169048 0.066655
v 0.030494 -0.165450 0.084027
v 0.030494 -0.165450 0.066655
v 0.028166 -0.139391 0.066655
v 0.028759 -0.134894 0.084027
v 0.028759 -0.134894 0.066655
v 0.028759 -0.161260 0.084027
v 0.028166 -0.139391 0.084027
v 0.028166 -0.156763 0.084027
v 0.028166 -0.139391 0.084027
v 0.028759 -0.161260 0.084027
v 0.028759 -0.134894 0.084027
v 0.045539 -0.174136 0.084027
v 0.041043 -0.173544 0.066655
v 0.045539 -0.174136 0.066655
v 0.041043 -0.122610 0.084027
v 0.045539 -0.174136 0.084027
v 0.045539 -0.122018 0.084027
v 0.041043 -0.122610 0.084027
v 0.045539 -0.122018 0.066655
v 0.041043 -0.122610 0.066655
v 0.036853 -0.171809 0.084027
v 0.033255 -0.169048 0.066655
v 0.036853 -0.171809 0.066655
v 0.041043 -0.173544 0.084027
v 0.036853 -0.171809 0.066655
v 0.041043 -0.173544 0.066655
v 0.028166 -0.156763 0.084027
v 0.028759 -0.161260 0.066655
v 0.028759 -0.161260 0.084027
v 0.028759 -0.161260 0.084027
v 0.030494 -0.165450 0.066655
v 0.030494 -0.165450 0.084027
v 0.030494 -0.165450 0.084027
v 0.033255 -0.169048 0.066655
v 0.033255 -0.169048 0.084027
v 0.030494 -0.130704 0.084027
v 0.028759 -0.134894 0.066655
v 0.028759 -0.134894 0.084027
v 0.028759 -0.134894 0.066655
v 0.030494 -0.130704 0.084027
v 0.030494 -0.130704 0.066655
v 0.028759 -0.134894 0.084027
v 0.028759 -0.161260 0.084027
v 0.030494 -0.165450 0.084027
v 0.041043 -0.173544 0.066655
v 0.045539 -0.174136 0.084027
v 0.041043 -0.173544 0.084027
v 0.041043 -0.122610 0.084027
v 0.041043 -0.173544 0.084027
v 0.045539 -0.174136 0.084027
v 0.041043 -0.122610 0.066655
v 0.036853 -0.124345 0.084027
v 0.041043 -0.122610 0.084027
v 0.033255 -0.169048 0.066655
v 0.036853 -0.171809 0.084027
v 0.033255 -0.169048 0.084027
v 0.036853 -0.171809 0.066655
v 0.041043 -0.173544 0.084027
v 0.036853 -0.171809 0.084027
v 0.030494 -0.130704 0.084027
v 0.030494 -0.165450 0.084027
v 0.033255 -0.169048 0.084027
v 0.028759 -0.134894 0.084027
v 0.030494 -0.165450 0.084027
v 0.030494 -0.130704 0.084027
v 0.033255 -0.127106 0.084027
v 0.030494 -0.130704 0.066655
v 0.030494 -0.130704 0.084027
v 0.036853 -0.124345 0.084027
v 0.041043 -0.173544 0.084027
v 0.041043 -0.122610 0.084027
v 0.036853 -0.124345 0.084027
v 0.041043 -0.122610 0.066655
v 0.036853 -0.124345 0.066655
v 0.033255 -0.127106 0.084027
v 0.033255 -0.169048 0.084027
v 0.036853 -0.171809 0.084027
v 0.036853 -0.124345 0.084027
v 0.036853 -0.171809 0.084027
v 0.041043 -0.173544 0.084027
v 0.030494 -0.130704 0.084027
v 0.033255 -0.169048 0.084027
v 0.033255 -0.127106 0.084027
v 0.030494 -0.130704 0.066655
v 0.033255 -0.127106 0.084027
v 0.033255 -0.127106 0.066655
v 0.036853 -0.124345 0.066655
v 0.033255 -0.127106 0.084027
v 0.036853 -0.124345 0.084027
v 0.033255 -0.127106 0.084027
v 0.036853 -0.171809 0.084027
v 0.036853 -0.124345 0.084027
v 0.033255 -0.127106 0.084027
v 0.036853 -0.124345 0.066655
v 0.033255 -0.127106 0.066655
v 0.115030 -0.156763 0.066655
v 0.115030 -0.156763 0.084027
v 0.115030 -0.139391 0.066655
v 0.115030 -0.139391 0.084027
v 0.115030 -0.139391 0.066655
v 0.115030 -0.156763 0.084027
v 0.115030 -0.156763 0.084027
v 0.115030 -0.156763 0.066655
v 0.114438 -0.161260 0.084027
v 0.115030 -0.139391 0.066655
v 0.115030 -0.139391 0.084027
v 0.114438 -0.134894 0.066655
v 0.114438 -0.161260 0.066655
v 0.114438 -0.161260 0.084027
v 0.115030 -0.156763 0.066655
v 0.115030 -0.139391 0.084027
v 0.115030 -0.156763 0.084027
v 0.114438 -0.134894 0.084027
v 0.115030 -0.156763 0.084027
v 0.114438 -0.161260 0.084027
v 0.114438 -0.134894 0.084027
v 0.114438 -0.134894 0.084027
v 0.114438 -0.134894 0.066655
v 0.115030 -0.139391 0.084027
v 0.114438 -0.161260 0.084027
v 0.114438 -0.161260 0.066655
v 0.112702 -0.165450 0.084027
v 0.114438 -0.134894 0.084027
v 0.114438 -0.161260 0.084027
v 0.112702 -0.130704 0.084027
v 0.114438 -0.134894 0.066655
v 0.114438 -0.134894 0.084027
v 0.112702 -0.130704 0.066655
v 0.112702 -0.165450 0.066655
v 0.112702 -0.165450 0.084027
v 0.114438 -0.161260 0.066655
v 0.114438 -0.161260 0.084027
v 0.112702 -0.165450 0.084027
v 0.112702 -0.130704 0.084027
v 0.112702 -0.130704 0.084027
v 0.112702 -0.130704 0.066655
v 0.114438 -0.134894 0.084027
v 0.112702 -0.165450 0.084027
v 0.112702 -0.165450 0.066655
v 0.109941 -0.169048 0.084027
v 0.112702 -0.130704 0.084027
v 0.112702 -0.165450 0.084027
v 0.109941 -0.127106 0.084027
v 0.112702 -0.130704 0.066655
v 0.112702 -0.130704 0.084027
v 0.109941 -0.127106 0.066655
v 0.109941 -0.169048 0.066655
v 0.109941 -0.169048 0.084027
v 0.112702 -0.165450 0.066655
v 0.112702 -0.165450 0.084027
v 0.109941 -0.169048 0.084027
v 0.109941 -0.127106 0.084027
v 0.109941 -0.127106 0.084027
v 0.109941 -0.127106 0.066655
v 0.112702 -0.130704 0.084027
v 0.109941 -0.169048 0.066655
v 0.106343 -0.171809 0.066655
v 0.109941 -0.169048 0.084027
v 0.109941 -0.127106 0.084027
v 0.109941 -0.169048 0.084027
v 0.106343 -0.124345 0.084027
v 0.109941 -0.127106 0.084027
v 0.106343 -0.124345 0.084027
v 0.109941 -0.127106 0.066655
v 0.106343 -0.124345 0.066655
v 0.109941 -0.127106 0.066655
v 0.106343 -0.124345 0.084027
v 0.106343 -0.171809 0.084027
v 0.109941 -0.169048 0.084027
v 0.106343 -0.171809 0.066655
v 0.109941 -0.169048 0.084027
v 0.106343 -0.171809 0.084027
v 0.106343 -0.124345 0.084027
v 0.106343 -0.124345 0.084027
v 0.102153 -0.122610 0.084027
v 0.106343 -0.124345 0.066655
v 0.106343 -0.171809 0.066655
v 0.102153 -0.173544 0.066655
v 0.106343 -0.171809 0.084027
v 0.106343 -0.124345 0.084027
v 0.106343 -0.171809 0.084027
v 0.102153 -0.122610 0.084027
v 0.102153 -0.122610 0.066655
v 0.106343 -0.124345 0.066655
v 0.102153 -0.122610 0.084027
v 0.102153 -0.173544 0.084027
v 0.106343 -0.171809 0.084027
v 0.102153 -0.173544 0.066655
v 0.106343 -0.171809 0.084027
v 0.102153 -0.173544 0.084027
v 0.102153 -0.122610 0.084027
v 0.102153 -0.122610 0.084027
v 0.097657 -0.122018 0.084027
v 0.102153 -0.122610 0.066655
v 0.102153 -0.173544 0.066655
v 0.097657 -0.174136 0.066655
v 0.102153 -0.173544 0.084027
v 0.102153 -0.122610 0.084027
v 0.102153 -0.173544 0.084027
v 0.097657 -0.122018 0.084027
v 0.097657 -0.122018 0.066655
v 0.102153 -0.122610 0.066655
v 0.097657 -0.122018 0.084027
v 0.097657 -0.174136 0.084027
v 0.102153 -0.173544 0.084027
v 0.097657 -0.174136 0.066655
v 0.102153 -0.173544 0.084027
v 0.097657 -0.174136 0.084027
v 0.097657 -0.122018 0.084027
v 0.097657 -0.122018 0.084027
v 0.045539 -0.122018 0.084027
v 0.097657 -0.122018 0.066655
v 0.028166 -0.139391 0.066655
v 0.028166 -0.139391 0.084027
v 0.028166 -0.156763 0.066655
v 0.097657 -0.174136 0.066655
v 0.045539 -0.174136 0.066655
v 0.097657 -0.174136 0.084027
v 0.097657 -0.122018 0.084027
v 0.097657 -0.174136 0.084027
v 0.045539 -0.122018 0.084027
v 0.045539 -0.122018 0.066655
v 0.097657 -0.122018 0.066655
v 0.045539 -0.122018 0.084027
v 0.028166 -0.156763 0.084027
v 0.028166 -0.156763 0.066655
v 0.028166 -0.139391 0.084027
v 0.028166 -0.139391 0.084027
v 0.028166 -0.139391 0.066655
v 0.028759 -0.134894 0.084027
v 0.045539 -0.174136 0.084027
v 0.097657 -0.174136 0.084027
v 0.045539 -0.174136 0.066655
v 0.097657 -0.174136 0.084027
v 0.045539 -0.174136 0.084027
v 0.045539 -0.122018 0.084027
v 0.045539 -0.122018 0.084027
v 0.041043 -0.122610 0.084027
v 0.045539 -0.122018 0.066655
v 0.028166 -0.156763 0.066655
v 0.028166 -0.156763 0.084027
v 0.028759 -0.161260 0.066655
v 0.028759 -0.161260 0.066655
v 0.028759 -0.161260 0.084027
v 0.030494 -0.165450 0.066655
v 0.030494 -0.165450 0.066655
v 0.030494 -0.165450 0.084027
v 0.033255 -0.169048 0.066655
v 0.028759 -0.134894 0.066655
v 0.028759 -0.134894 0.084027
v 0.028166 -0.139391 0.066655
v 0.028166 -0.156763 0.084027
v 0.028166 -0.139391 0.084027
v 0.028759 -0.161260 0.084027
v 0.028759 -0.134894 0.084027
v 0.028759 -0.161260 0.084027
v 0.028166 -0.139391 0.084027
v 0.045539 -0.174136 0.066655
v 0.041043 -0.173544 0.066655
v 0.045539 -0.174136 0.084027
v 0.045539 -0.122018 0.084027
v 0.045539 -0.174136 0.084027
v 0.041043 -0.122610 0.084027
v 0.041043 -0.122610 0.066655
v 0.045539 -0.122018 0.066655
v 0.041043 -0.122610 0.084027
v 0.036853 -0.171809 0.066655
v 0.033255 -0.169048 0.066655
v 0.036853 -0.171809 0.084027
v 0.041043 -0.173544 0.066655
v 0.036853 -0.171809 0.066655
v 0.041043 -0.173544 0.084027
v 0.028759 -0.161260 0.084027
v 0.028759 -0.161260 0.066655
v 0.028166 -0.156763 0.084027
v 0.030494 -0.165450 0.084027
v 0.030494 -0.165450 0.066655
v 0.028759 -0.161260 0.084027
v 0.033255 -0.169048 0.084027
v 0.033255 -0.169048 0.066655
v 0.030494 -0.165450 0.084027
v 0.028759 -0.134894 0.084027
v 0.028759 -0.134894 0.066655
v 0.030494 -0.130704 0.084027
v 0.030494 -0.130704 0.066655
v 0.030494 -0.130704 0.084027
v 0.028759 -0.134894 0.066655
v 0.030494 -0.165450 0.084027
v 0.028759 -0.161260 0.084027
v 0.028759 -0.134894 0.084027
v 0.041043 -0.173544 0.084027
v 0.045539 -0.174136 0.084027
v 0.041043 -0.173544 0.066655
v 0.045539 -0.174136 0.084027
v 0.041043 -0.173544 0.084027
v 0.041043 -0.122610 0.084027
v 0.041043 -0.122610 0.084027
v 0.036853 -0.124345 0.084027
v 0.041043 -0.122610 0.066655
v 0.033255 -0.169048 0.084027
v 0.036853 -0.171809 0.084027
v 0.033255 -0.169048 0.066655
v 0.036853 -0.171809 0.084027
v 0.041043 -0.173544 0.084027
v 0.036853 -0.171809 0.066655
v 0.033255 -0.169048 0.084027
v 0.030494 -0.165450 0.084027
v 0.030494 -0.130704 0.084027
v 0.030494 -0.130704 0.084027
v 0.030494 -0.165450 0.084027
v 0.028759 -0.134894 0.084027
v 0.030494 -0.130704 0.084027
v 0.030494 -0.130704 0.066655
v 0.033255 -0.127106 0.084027
v 0.041043 -0.122610 0.084027
v 0.041043 -0.173544 0.084027
v 0.036853 -0.124345 0.084027
v 0.036853 -0.124345 0.066655
v 0.041043 -0.122610 0.066655
v 0.036853 -0.124345 0.084027
v 0.036853 -0.171809 0.084027
v 0.033255 -0.169048 0.084027
v 0.033255 -0.127106 0.084027
v 0.041043 -0.173544 0.084027
v 0.036853 -0.171809 0.084027
v 0.036853 -0.124345 0.084027
v 0.033255 -0.127106 0.084027
v 0.033255 -0.169048 0.084027
v 0.030494 -0.130704 0.084027
v 0.033255 -0.127106 0.066655
v 0.033255 -0.127106 0.084027
v 0.030494 -0.130704 0.066655
v 0.036853 -0.124345 0.084027
v 0.033255 -0.127106 0.084027
v 0.036853 -0.124345 0.066655
v 0.036853 -0.124345 0.084027
v 0.036853 -0.171809 0.084027
v 0.033255 -0.127106 0.084027
v 0.033255 -0.127106 0.066655
v 0.036853 -0.124345 0.066655
v 0.033255 -0.127106 0.084027
vn 1 0 0
vn 0.9659258451755842 -0.25881897461707376 0
vn 0.9914448878896857 -0.13052599081182487 0
vn 0.9659258451755842 0.25881897461707376 0
vn 0.9914448878896857 0.13052599081182487 0
vn 0 0 1
vn 0.8660252955903434 -0.5000001873976233 0
vn 0.8660252955903434 0.5000001873976233 0
vn 0.7071067811865476 -0.7071067811865476 0
vn 0.7071067811865476 0.7071067811865476 0
vn 0.5000001873976233 -0.8660252955903434 0
vn 0.5000001873976233 0.8660252955903434 0
vn 0.25881897461707376 0.9659258451755842 0
vn 0.25881897461707376 -0.9659258451755842 0
vn 0.13052599081182487 0.9914448878896857 0
vn 0.13052599081182487 -0.9914448878896857 0
vn 0 1 0
vn -1 0 0
vn 0 -1 0
vn -0.9659258451755842 0.25881897461707376 0
vn -0.9914448878896857 0.13052599081182487 0
vn -0.13052599081182487 0.9914448878896857 0
vn -0.25881897461707376 0.9659258451755842 0
vn -0.9659258451755842 -0.25881897461707376 0
vn -0.9914448878896857 -0.13052599081182487 0
vn -0.8660252955903434 -0.5000001873976233 0
vn -0.7071067811865476 -0.7071067811865476 0
vn -0.13052599081182487 -0.9914448878896857 0
vn -0.25881897461707376 -0.9659258451755842 0
vn -0.5000001873976233 -0.8660252955903434 0
vn -0.8660252955903434 0.5000001873976233 0
vn -0.5000001873976233 0.8660252955903434 0
vn -0.7071067811865476 0.7071067811865476 0
vn 0 0 -1
usemtl material_0_0
f 1//1 2//1 3//1
f 4//1 5//1 6//1
f 7//2 8//3 9//3
f 10//4 11//5 12//5
f 13//3 14//2 15//2
f 16//6 17//6 18//6
f 19//6 20//6 21//6
f 22//5 23//4 24//4
f 25//7 26//2 27//2
f 28//6 29//6 30//6
f 31//8 32//4 33//4
f 34//2 35//7 36//7
f 37//6 38//6 39//6
f 40//4 41//8 42//8
f 43//9 44//7 45//7
f 46//6 47//6 48//6
f 49//10 50//8 51//8
f 52//7 53//9 54//9
f 55//6 56//6 57//6
f 58//8 59//10 60//10
f 61//9 62//11 63//9
f 64//6 65//6 66//6
f 67//10 68//12 69//10
f 70//12 71//10 72//12
f 73//11 74//9 75//11
f 76//6 77//6 78//6
f 79//12 80//13 81//12
f 82//11 83//14 84//11
f 85//6 86//6 87//6
f 88//13 89//12 90//13
f 91//14 92//11 93//14
f 94//6 95//6 96//6
f 97//13 98//15 99//13
f 100//14 101//16 102//14
f 103//6 104//6 105//6
f 106//15 107//13 108//15
f 109//16 110//14 111//16
f 112//6 113//6 114//6
f 115//17 116//17 117//17
f 118//18 119//18 120//18
f 121//19 122//19 123//19
f 124//6 125//6 126//6
f 127//17 128//17 129//17
f 130//18 131//18 132//18
f 133//20 134//21 135//21
f 136//19 137//19 138//19
f 139//6 140//6 141//6
f 142//22 143//23 144//22
f 145//24 146//25 147//25
f 148//26 149//24 150//24
f 151//27 152//26 153//26
f 154//21 155//20 156//20
f 157//6 158//6 159//6
f 160//6 161//6 162//6
f 163//28 164//29 165//28
f 166//6 167//6 168//6
f 169//23 170//22 171//23
f 172//30 173//27 174//30
f 175//29 176//30 177//29
f 178//25 179//24 180//24
f 181//24 182//26 183//26
f 184//26 185//27 186//27
f 187//31 188//20 189//20
f 190//20 191//31 192//31
f 193//6 194//6 195//6
f 196//29 197//28 198//29
f 199//6 200//6 201//6
f 202//23 203//32 204//23
f 205//27 206//30 207//27
f 208//30 209//29 210//30
f 211//6 212//6 213//6
f 214//6 215//6 216//6
f 217//33 218//31 219//31
f 220//6 221//6 222//6
f 223//32 224//23 225//32
f 226//6 227//6 228//6
f 229//6 230//6 231//6
f 232//6 233//6 234//6
f 235//31 236//33 237//33
f 238//32 239//33 240//32
f 241//6 242//6 243//6
f 244//33 245//32 246//33
usemtl material_1_0
f 247//18 248//18 249//18
f 250//18 251//18 252//18
f 253//21 254//21 255//20
f 256//25 257//25 258//24
f 259//20 260//20 261//21
f 262//34 263//34 264//34
f 265//34 266//34 267//34
f 268//24 269//24 270//25
f 271//20 272//20 273//31
f 274//34 275//34 276//34
f 277//24 278//24 279//26
f 280//31 281//31 282//20
f 283//34 284//34 285//34
f 286//26 287//26 288//24
f 289//31 290//31 291//33
f 292//34 293//34 294//34
f 295//26 296//26 297//27
f 298//33 299//33 300//31
f 301//34 302//34 303//34
f 304//27 305//27 306//26
f 307//33 308//32 309//33
f 310//34 311//34 312//34
f 313//27 314//30 315//27
f 316//30 317//27 318//30
f 319//32 320//33 321//32
f 322//34 323//34 324//34
f 325//30 326//29 327//30
f 328//32 329//23 330//32
f 331//34 332//34 333//34
f 334//29 335//30 336//29
f 337//23 338//32 339//23
f 340//34 341//34 342//34
f 343//29 344//28 345//29
f 346//23 347//22 348//23
f 349//34 350//34 351//34
f 352//28 353//29 354//28
f 355//22 356//23 357//22
f 358//34 359//34 360//34
f 361//19 362//19 363//19
f 364//1 365//1 366//1
f 367//17 368//17 369//17
f 370//34 371//34 372//34
f 373//19 374//19 375//19
f 376//1 377//1 378//1
f 379//3 380//3 381//2
f 382//17 383//17 384//17
f 385//34 386//34 387//34
f 388//16 389//14 390//16
f 391//5 392//5 393//4
f 394//4 395//4 396//8
f 397//8 398//8 399//10
f 400//2 401//2 402//3
f 403//34 404//34 405//34
f 406//34 407//34 408//34
f 409//15 410//13 411//15
f 412//34 413//34 414//34
f 415//14 416//16 417//14
f 418//12 419//10 420//12
f 421//13 422//12 423//13
f 424//4 425//4 426//5
f 427//8 428//8 429//4
f 430//10 431//10 432//8
f 433//2 434//2 435//7
f 436//7 437//7 438//2
f 439//34 440//34 441//34
f 442//13 443//15 444//13
f 445//34 446//34 447//34
f 448//14 449//11 450//14
f 451//10 452//12 453//10
f 454//12 455//13 456//12
f 457//34 458//34 459//34
f 460//34 461//34 462//34
f 463//7 464//7 465//9
f 466//34 467//34 468//34
f 469//11 470//14 471//11
f 472//34 473//34 474//34
f 475//34 476//34 477//34
f 478//34 479//34 480//34
f 481//9 482//9 483//7
f 484//11 485//9 486//11
f 487//34 488//34 489//34
f 490//9 491//11 492//9
