# SSTK version 0.8.0
# 140
mtllib original-140.mtl
o mesh109/mesh109-geometry/material_2/component_1#mesh109-geometry
v 0.254011 0.164631 0.066655
v 0.254011 0.164631 0.084027
v 0.254011 0.182003 0.066655
v 0.254011 0.060395 0.066655
v 0.254011 0.060395 0.084027
v 0.254011 0.164631 0.066655
v 0.254011 0.182003 0.084027
v 0.254011 0.182003 0.066655
v 0.254011 0.164631 0.084027
v 0.254011 0.164631 0.084027
v 0.254011 0.164631 0.066655
v 0.254011 0.060395 0.084027
v 0.254011 0.182003 0.066655
v 0.254011 0.182003 0.084027
v 0.253419 0.186500 0.066655
v 0.254011 0.043022 0.066655
v 0.254011 0.043022 0.084027
v 0.254011 0.060395 0.066655
v 0.254011 0.060395 0.084027
v 0.254011 0.060395 0.066655
v 0.254011 0.043022 0.084027
v 0.254011 0.164631 0.084027
v 0.254011 0.060395 0.084027
v 0.254011 0.182003 0.084027
v 0.253419 0.186500 0.084027
v 0.253419 0.186500 0.066655
v 0.254011 0.182003 0.084027
v 0.254011 0.043022 0.084027
v 0.254011 0.043022 0.066655
v 0.253419 0.038526 0.084027
v 0.254011 0.060395 0.084027
v 0.254011 0.043022 0.084027
v 0.254011 0.182003 0.084027
v 0.253419 0.186500 0.066655
v 0.253419 0.186500 0.084027
v 0.251684 0.190690 0.066655
v 0.254011 0.182003 0.084027
v 0.254011 0.043022 0.084027
v 0.253419 0.186500 0.084027
v 0.253419 0.038526 0.066655
v 0.253419 0.038526 0.084027
v 0.254011 0.043022 0.066655
v 0.254011 0.043022 0.084027
v 0.253419 0.038526 0.084027
v 0.253419 0.186500 0.084027
v 0.251684 0.190690 0.084027
v 0.251684 0.190690 0.066655
v 0.253419 0.186500 0.084027
v 0.253419 0.038526 0.084027
v 0.253419 0.038526 0.066655
v 0.251684 0.034336 0.084027
v 0.253419 0.186500 0.084027
v 0.253419 0.038526 0.084027
v 0.251684 0.190690 0.084027
v 0.251684 0.190690 0.066655
v 0.251684 0.190690 0.084027
v 0.248923 0.194288 0.066655
v 0.251684 0.034336 0.066655
v 0.251684 0.034336 0.084027
v 0.253419 0.038526 0.066655
v 0.253419 0.038526 0.084027
v 0.251684 0.034336 0.084027
v 0.251684 0.190690 0.084027
v 0.248923 0.194288 0.084027
v 0.248923 0.194288 0.066655
v 0.251684 0.190690 0.084027
v 0.251684 0.034336 0.084027
v 0.251684 0.034336 0.066655
v 0.248923 0.030738 0.084027
v 0.251684 0.190690 0.084027
v 0.251684 0.034336 0.084027
v 0.248923 0.194288 0.084027
v 0.245325 0.197049 0.066655
v 0.248923 0.194288 0.066655
v 0.245325 0.197049 0.084027
v 0.248923 0.194288 0.084027
v 0.245325 0.197049 0.084027
v 0.248923 0.194288 0.066655
v 0.248923 0.030738 0.066655
v 0.248923 0.030738 0.084027
v 0.251684 0.034336 0.066655
v 0.251684 0.034336 0.084027
v 0.248923 0.030738 0.084027
v 0.248923 0.194288 0.084027
v 0.245325 0.197049 0.084027
v 0.241135 0.198784 0.084027
v 0.245325 0.197049 0.066655
v 0.248923 0.194288 0.084027
v 0.248923 0.030738 0.084027
v 0.245325 0.197049 0.084027
v 0.248923 0.030738 0.066655
v 0.245325 0.027977 0.066655
v 0.248923 0.030738 0.084027
v 0.241135 0.198784 0.066655
v 0.245325 0.197049 0.066655
v 0.241135 0.198784 0.084027
v 0.245325 0.197049 0.084027
v 0.245325 0.027977 0.084027
v 0.241135 0.198784 0.084027
v 0.248923 0.030738 0.084027
v 0.245325 0.027977 0.084027
v 0.245325 0.197049 0.084027
v 0.167148 0.182003 0.066655
v 0.167148 0.182003 0.084027
v 0.167148 0.164631 0.066655
v 0.167740 0.186500 0.084027
v 0.167740 0.038526 0.084027
v 0.167148 0.182003 0.084027
v 0.169475 0.190690 0.084027
v 0.169475 0.034336 0.084027
v 0.167740 0.186500 0.084027
v 0.245325 0.027977 0.084027
v 0.248923 0.030738 0.084027
v 0.245325 0.027977 0.066655
v 0.241135 0.198784 0.084027
v 0.236638 0.199376 0.084027
v 0.241135 0.198784 0.066655
v 0.245325 0.027977 0.084027
v 0.241135 0.026242 0.084027
v 0.241135 0.198784 0.084027
v 0.167148 0.164631 0.084027
v 0.167148 0.164631 0.066655
v 0.167148 0.182003 0.084027
v 0.167148 0.182003 0.084027
v 0.167740 0.038526 0.084027
v 0.167148 0.164631 0.084027
v 0.169475 0.034336 0.084027
v 0.167740 0.038526 0.084027
v 0.167740 0.186500 0.084027
v 0.172236 0.030738 0.084027
v 0.169475 0.034336 0.084027
v 0.169475 0.190690 0.084027
v 0.245325 0.027977 0.066655
v 0.241135 0.026242 0.066655
v 0.245325 0.027977 0.084027
v 0.236638 0.199376 0.066655
v 0.241135 0.198784 0.066655
v 0.236638 0.199376 0.084027
v 0.241135 0.198784 0.084027
v 0.241135 0.026242 0.084027
v 0.236638 0.199376 0.084027
v 0.241135 0.026242 0.084027
v 0.245325 0.027977 0.084027
v 0.241135 0.026242 0.066655
v 0.172236 0.194288 0.084027
v 0.172236 0.030738 0.084027
v 0.169475 0.190690 0.084027
v 0.167148 0.164631 0.066655
v 0.167148 0.164631 0.084027
v 0.167148 0.060395 0.066655
v 0.167148 0.164631 0.084027
v 0.167740 0.038526 0.084027
v 0.167148 0.060395 0.084027
v 0.169475 0.034336 0.084027
v 0.169475 0.034336 0.066655
v 0.167740 0.038526 0.084027
v 0.172236 0.030738 0.084027
v 0.172236 0.030738 0.066655
v 0.169475 0.034336 0.084027
v 0.236638 0.199376 0.084027
v 0.184520 0.199376 0.084027
v 0.236638 0.199376 0.066655
v 0.241135 0.026242 0.084027
v 0.236638 0.025650 0.084027
v 0.236638 0.199376 0.084027
v 0.241135 0.026242 0.066655
v 0.236638 0.025650 0.066655
v 0.241135 0.026242 0.084027
v 0.175834 0.027977 0.084027
v 0.172236 0.030738 0.084027
v 0.172236 0.194288 0.084027
v 0.167148 0.060395 0.084027
v 0.167148 0.060395 0.066655
v 0.167148 0.164631 0.084027
v 0.167148 0.060395 0.066655
v 0.167148 0.060395 0.084027
v 0.167148 0.043022 0.066655
v 0.167148 0.043022 0.084027
v 0.167148 0.060395 0.084027
v 0.167740 0.038526 0.084027
v 0.167740 0.038526 0.066655
v 0.167740 0.038526 0.084027
v 0.169475 0.034336 0.066655
v 0.169475 0.034336 0.066655
v 0.169475 0.034336 0.084027
v 0.172236 0.030738 0.066655
v 0.172236 0.030738 0.084027
v 0.175834 0.027977 0.084027
v 0.172236 0.030738 0.066655
v 0.184520 0.199376 0.066655
v 0.236638 0.199376 0.066655
v 0.184520 0.199376 0.084027
v 0.236638 0.199376 0.084027
v 0.236638 0.025650 0.084027
v 0.184520 0.199376 0.084027
v 0.236638 0.025650 0.084027
v 0.241135 0.026242 0.084027
v 0.236638 0.025650 0.066655
v 0.175834 0.197049 0.084027
v 0.175834 0.027977 0.084027
v 0.172236 0.194288 0.084027
v 0.167148 0.043022 0.084027
v 0.167148 0.043022 0.066655
v 0.167148 0.060395 0.084027
v 0.167740 0.038526 0.084027
v 0.167740 0.038526 0.066655
v 0.167148 0.043022 0.084027
v 0.175834 0.027977 0.066655
v 0.172236 0.030738 0.066655
v 0.175834 0.027977 0.084027
v 0.236638 0.025650 0.084027
v 0.184520 0.025650 0.084027
v 0.184520 0.199376 0.084027
v 0.236638 0.025650 0.066655
v 0.184520 0.025650 0.066655
v 0.236638 0.025650 0.084027
v 0.167148 0.043022 0.066655
v 0.167148 0.043022 0.084027
v 0.167740 0.038526 0.066655
v 0.180024 0.026242 0.084027
v 0.175834 0.027977 0.084027
v 0.175834 0.197049 0.084027
v 0.175834 0.027977 0.084027
v 0.180024 0.026242 0.084027
v 0.175834 0.027977 0.066655
v 0.184520 0.199376 0.084027
v 0.184520 0.025650 0.084027
v 0.180024 0.198784 0.084027
v 0.184520 0.025650 0.084027
v 0.236638 0.025650 0.084027
v 0.184520 0.025650 0.066655
v 0.180024 0.198784 0.084027
v 0.180024 0.026242 0.084027
v 0.175834 0.197049 0.084027
v 0.180024 0.026242 0.066655
v 0.175834 0.027977 0.066655
v 0.180024 0.026242 0.084027
v 0.184520 0.025650 0.084027
v 0.180024 0.026242 0.084027
v 0.180024 0.198784 0.084027
v 0.184520 0.025650 0.066655
v 0.180024 0.026242 0.066655
v 0.184520 0.025650 0.084027
v 0.180024 0.026242 0.084027
v 0.184520 0.025650 0.084027
v 0.180024 0.026242 0.066655
v 0.254011 0.182003 0.066655
v 0.254011 0.164631 0.084027
v 0.254011 0.164631 0.066655
v 0.254011 0.164631 0.066655
v 0.254011 0.060395 0.084027
v 0.254011 0.060395 0.066655
v 0.254011 0.164631 0.084027
v 0.254011 0.182003 0.066655
v 0.254011 0.182003 0.084027
v 0.254011 0.060395 0.084027
v 0.254011 0.164631 0.066655
v 0.254011 0.164631 0.084027
v 0.253419 0.186500 0.066655
v 0.254011 0.182003 0.084027
v 0.254011 0.182003 0.066655
v 0.254011 0.060395 0.066655
v 0.254011 0.043022 0.084027
v 0.254011 0.043022 0.066655
v 0.254011 0.043022 0.084027
v 0.254011 0.060395 0.066655
v 0.254011 0.060395 0.084027
v 0.254011 0.182003 0.084027
v 0.254011 0.060395 0.084027
v 0.254011 0.164631 0.084027
v 0.254011 0.182003 0.084027
v 0.253419 0.186500 0.066655
v 0.253419 0.186500 0.084027
v 0.253419 0.038526 0.084027
v 0.254011 0.043022 0.066655
v 0.254011 0.043022 0.084027
v 0.254011 0.182003 0.084027
v 0.254011 0.043022 0.084027
v 0.254011 0.060395 0.084027
v 0.251684 0.190690 0.066655
v 0.253419 0.186500 0.084027
v 0.253419 0.186500 0.066655
v 0.253419 0.186500 0.084027
v 0.254011 0.043022 0.084027
v 0.254011 0.182003 0.084027
v 0.254011 0.043022 0.066655
v 0.253419 0.038526 0.084027
v 0.253419 0.038526 0.066655
v 0.253419 0.186500 0.084027
v 0.253419 0.038526 0.084027
v 0.254011 0.043022 0.084027
v 0.253419 0.186500 0.084027
v 0.251684 0.190690 0.066655
v 0.251684 0.190690 0.084027
v 0.251684 0.034336 0.084027
v 0.253419 0.038526 0.066655
v 0.253419 0.038526 0.084027
v 0.251684 0.190690 0.084027
v 0.253419 0.038526 0.084027
v 0.253419 0.186500 0.084027
v 0.248923 0.194288 0.066655
v 0.251684 0.190690 0.084027
v 0.251684 0.190690 0.066655
v 0.253419 0.038526 0.066655
v 0.251684 0.034336 0.084027
v 0.251684 0.034336 0.066655
v 0.251684 0.190690 0.084027
v 0.251684 0.034336 0.084027
v 0.253419 0.038526 0.084027
v 0.251684 0.190690 0.084027
v 0.248923 0.194288 0.066655
v 0.248923 0.194288 0.084027
v 0.248923 0.030738 0.084027
v 0.251684 0.034336 0.066655
v 0.251684 0.034336 0.084027
v 0.248923 0.194288 0.084027
v 0.251684 0.034336 0.084027
v 0.251684 0.190690 0.084027
v 0.245325 0.197049 0.084027
v 0.248923 0.194288 0.066655
v 0.245325 0.197049 0.066655
v 0.248923 0.194288 0.066655
v 0.245325 0.197049 0.084027
v 0.248923 0.194288 0.084027
v 0.167148 0.182003 0.066655
v 0.167740 0.186500 0.084027
v 0.167740 0.186500 0.066655
v 0.167740 0.186500 0.066655
v 0.167740 0.186500 0.084027
v 0.167148 0.182003 0.066655
v 0.251684 0.034336 0.066655
v 0.248923 0.030738 0.084027
v 0.248923 0.030738 0.066655
v 0.248923 0.194288 0.084027
v 0.248923 0.030738 0.084027
v 0.251684 0.034336 0.084027
v 0.245325 0.197049 0.066655
v 0.241135 0.198784 0.084027
v 0.245325 0.197049 0.084027
v 0.245325 0.197049 0.084027
v 0.248923 0.030738 0.084027
v 0.248923 0.194288 0.084027
v 0.167740 0.186500 0.084027
v 0.167148 0.182003 0.066655
v 0.167148 0.182003 0.084027
v 0.167148 0.182003 0.084027
v 0.167148 0.182003 0.066655
v 0.167740 0.186500 0.084027
v 0.169475 0.190690 0.084027
v 0.167740 0.186500 0.066655
v 0.167740 0.186500 0.084027
v 0.167740 0.186500 0.084027
v 0.167740 0.186500 0.066655
v 0.169475 0.190690 0.084027
v 0.248923 0.030738 0.084027
v 0.245325 0.027977 0.066655
v 0.248923 0.030738 0.066655
v 0.241135 0.198784 0.084027
v 0.245325 0.197049 0.066655
v 0.241135 0.198784 0.066655
v 0.241135 0.198784 0.084027
v 0.245325 0.027977 0.084027
v 0.245325 0.197049 0.084027
v 0.245325 0.197049 0.084027
v 0.245325 0.027977 0.084027
v 0.248923 0.030738 0.084027
v 0.167740 0.186500 0.066655
v 0.169475 0.190690 0.084027
v 0.169475 0.190690 0.066655
v 0.169475 0.190690 0.066655
v 0.169475 0.190690 0.084027
v 0.167740 0.186500 0.066655
v 0.167148 0.164631 0.066655
v 0.167148 0.182003 0.084027
v 0.167148 0.182003 0.066655
v 0.167148 0.182003 0.084027
v 0.167740 0.038526 0.084027
v 0.167740 0.186500 0.084027
v 0.167740 0.186500 0.084027
v 0.169475 0.034336 0.084027
v 0.169475 0.190690 0.084027
v 0.245325 0.027977 0.066655
v 0.248923 0.030738 0.084027
v 0.245325 0.027977 0.084027
v 0.241135 0.198784 0.066655
v 0.236638 0.199376 0.084027
v 0.241135 0.198784 0.084027
v 0.241135 0.198784 0.084027
v 0.241135 0.026242 0.084027
v 0.245325 0.027977 0.084027
v 0.172236 0.194288 0.084027
v 0.169475 0.190690 0.066655
v 0.169475 0.190690 0.084027
v 0.169475 0.190690 0.084027
v 0.169475 0.190690 0.066655
v 0.172236 0.194288 0.084027
v 0.167148 0.182003 0.084027
v 0.167148 0.164631 0.066655
v 0.167148 0.164631 0.084027
v 0.167148 0.164631 0.084027
v 0.167740 0.038526 0.084027
v 0.167148 0.182003 0.084027
v 0.167740 0.186500 0.084027
v 0.167740 0.038526 0.084027
v 0.169475 0.034336 0.084027
v 0.169475 0.190690 0.084027
v 0.169475 0.034336 0.084027
v 0.172236 0.030738 0.084027
v 0.245325 0.027977 0.084027
v 0.241135 0.026242 0.066655
v 0.245325 0.027977 0.066655
v 0.236638 0.199376 0.084027
v 0.241135 0.198784 0.066655
v 0.236638 0.199376 0.066655
v 0.236638 0.199376 0.084027
v 0.241135 0.026242 0.084027
v 0.241135 0.198784 0.084027
v 0.241135 0.026242 0.066655
v 0.245325 0.027977 0.084027
v 0.241135 0.026242 0.084027
v 0.169475 0.190690 0.066655
v 0.172236 0.194288 0.084027
v 0.172236 0.194288 0.066655
v 0.172236 0.194288 0.066655
v 0.172236 0.194288 0.084027
v 0.169475 0.190690 0.066655
v 0.169475 0.190690 0.084027
v 0.172236 0.030738 0.084027
v 0.172236 0.194288 0.084027
v 0.167148 0.060395 0.066655
v 0.167148 0.164631 0.084027
v 0.167148 0.164631 0.066655
v 0.167148 0.060395 0.084027
v 0.167740 0.038526 0.084027
v 0.167148 0.164631 0.084027
v 0.167740 0.038526 0.084027
v 0.169475 0.034336 0.066655
v 0.169475 0.034336 0.084027
v 0.169475 0.034336 0.084027
v 0.172236 0.030738 0.066655
v 0.172236 0.030738 0.084027
v 0.236638 0.199376 0.066655
v 0.184520 0.199376 0.084027
v 0.236638 0.199376 0.084027
v 0.236638 0.199376 0.084027
v 0.236638 0.025650 0.084027
v 0.241135 0.026242 0.084027
v 0.241135 0.026242 0.084027
v 0.236638 0.025650 0.066655
v 0.241135 0.026242 0.066655
v 0.172236 0.194288 0.084027
v 0.175834 0.197049 0.066655
v 0.172236 0.194288 0.066655
v 0.172236 0.194288 0.066655
v 0.175834 0.197049 0.066655
v 0.172236 0.194288 0.084027
v 0.172236 0.194288 0.084027
v 0.172236 0.030738 0.084027
v 0.175834 0.027977 0.084027
v 0.167148 0.164631 0.084027
v 0.167148 0.060395 0.066655
v 0.167148 0.060395 0.084027
v 0.167148 0.043022 0.066655
v 0.167148 0.060395 0.084027
v 0.167148 0.060395 0.066655
v 0.167740 0.038526 0.084027
v 0.167148 0.060395 0.084027
v 0.167148 0.043022 0.084027
v 0.169475 0.034336 0.066655
v 0.167740 0.038526 0.084027
v 0.167740 0.038526 0.066655
v 0.172236 0.030738 0.066655
v 0.169475 0.034336 0.084027
v 0.169475 0.034336 0.066655
v 0.172236 0.030738 0.066655
v 0.175834 0.027977 0.084027
v 0.172236 0.030738 0.084027
v 0.184520 0.199376 0.084027
v 0.236638 0.199376 0.066655
v 0.184520 0.199376 0.066655
v 0.184520 0.199376 0.084027
v 0.236638 0.025650 0.084027
v 0.236638 0.199376 0.084027
v 0.236638 0.025650 0.066655
v 0.241135 0.026242 0.084027
v 0.236638 0.025650 0.084027
v 0.175834 0.197049 0.066655
v 0.172236 0.194288 0.084027
v 0.175834 0.197049 0.084027
v 0.175834 0.197049 0.084027
v 0.172236 0.194288 0.084027
v 0.175834 0.197049 0.066655
v 0.172236 0.194288 0.084027
v 0.175834 0.027977 0.084027
v 0.175834 0.197049 0.084027
v 0.167148 0.060395 0.084027
v 0.167148 0.043022 0.066655
v 0.167148 0.043022 0.084027
v 0.167148 0.043022 0.084027
v 0.167740 0.038526 0.066655
v 0.167740 0.038526 0.084027
v 0.175834 0.027977 0.084027
v 0.172236 0.030738 0.066655
v 0.175834 0.027977 0.066655
v 0.184520 0.199376 0.066655
v 0.180024 0.198784 0.084027
v 0.184520 0.199376 0.084027
v 0.184520 0.199376 0.084027
v 0.180024 0.198784 0.084027
v 0.184520 0.199376 0.066655
v 0.184520 0.199376 0.084027
v 0.184520 0.025650 0.084027
v 0.236638 0.025650 0.084027
v 0.236638 0.025650 0.084027
v 0.184520 0.025650 0.066655
v 0.236638 0.025650 0.066655
v 0.167740 0.038526 0.066655
v 0.167148 0.043022 0.084027
v 0.167148 0.043022 0.066655
v 0.175834 0.197049 0.084027
v 0.180024 0.198784 0.066655
v 0.175834 0.197049 0.066655
v 0.175834 0.197049 0.066655
v 0.180024 0.198784 0.066655
v 0.175834 0.197049 0.084027
v 0.175834 0.197049 0.084027
v 0.175834 0.027977 0.084027
v 0.180024 0.026242 0.084027
v 0.175834 0.027977 0.066655
v 0.180024 0.026242 0.084027
v 0.175834 0.027977 0.084027
v 0.180024 0.198784 0.084027
v 0.184520 0.199376 0.066655
v 0.180024 0.198784 0.066655
v 0.180024 0.198784 0.066655
v 0.184520 0.199376 0.066655
v 0.180024 0.198784 0.084027
v 0.180024 0.198784 0.084027
v 0.184520 0.025650 0.084027
v 0.184520 0.199376 0.084027
v 0.184520 0.025650 0.066655
v 0.236638 0.025650 0.084027
v 0.184520 0.025650 0.084027
v 0.180024 0.198784 0.066655
v 0.175834 0.197049 0.084027
v 0.180024 0.198784 0.084027
v 0.180024 0.198784 0.084027
v 0.175834 0.197049 0.084027
v 0.180024 0.198784 0.066655
v 0.175834 0.197049 0.084027
v 0.180024 0.026242 0.084027
v 0.180024 0.198784 0.084027
v 0.180024 0.026242 0.084027
v 0.175834 0.027977 0.066655
v 0.180024 0.026242 0.066655
v 0.180024 0.198784 0.084027
v 0.180024 0.026242 0.084027
v 0.184520 0.025650 0.084027
v 0.184520 0.025650 0.084027
v 0.180024 0.026242 0.066655
v 0.184520 0.025650 0.066655
v 0.180024 0.026242 0.066655
v 0.184520 0.025650 0.084027
v 0.180024 0.026242 0.084027
vn -1 0 0
vn -0.9914448878896857 -0.13052599081182487 0
vn -0.9659258451755842 -0.25881897461707376 0
vn 0 0 -1
vn -0.9914448878896857 0.13052599081182487 0
vn -0.9659258451755842 0.25881897461707376 0
vn -0.8660252955903434 -0.5000001873976233 0
vn -0.8660252955903434 0.5000001873976233 0
vn -0.7071067811865476 -0.7071067811865476 0
vn -0.7071067811865476 0.7071067811865476 0
vn -0.5000001873976233 -0.8660252955903434 0
vn -0.25881897461707376 -0.9659258451755842 0
vn -0.5000001873976233 0.8660252955903434 0
vn 1 0 0
vn -0.13052599081182487 -0.9914448878896857 0
vn -0.25881897461707376 0.9659258451755842 0
vn 0.8660252955903434 0.5000001873976233 0
vn 0.9659258451755842 0.25881897461707376 0
vn 0.7071067811865476 0.7071067811865476 0
vn 0 -1 0
vn -0.13052599081182487 0.9914448878896857 0
vn 0.5000001873976233 0.8660252955903434 0
vn 0.9914448878896857 0.13052599081182487 0
vn 0 1 0
vn 0.25881897461707376 0.9659258451755842 0
vn 0.13052599081182487 0.9914448878896857 0
vn 0 0 1
vn 0.9659258451755842 -0.25881897461707376 0
vn 0.9914448878896857 -0.13052599081182487 0
vn 0.8660252955903434 -0.5000001873976233 0
vn 0.7071067811865476 -0.7071067811865476 0
vn 0.5000001873976233 -0.8660252955903434 0
vn 0.25881897461707376 -0.9659258451755842 0
vn 0.13052599081182487 -0.9914448878896857 0
usemtl material_0_0
f 1//1 2//1 3//1
f 4//1 5//1 6//1
f 7//1 8//1 9//1
f 10//1 11//1 12//1
f 13//2 14//2 15//3
f 16//1 17//1 18//1
f 19//1 20//1 21//1
f 22//4 23//4 24//4
f 25//3 26//3 27//2
f 28//5 29//5 30//6
f 31//4 32//4 33//4
f 34//3 35//3 36//7
f 37//4 38//4 39//4
f 40//6 41//6 42//5
f 43//4 44//4 45//4
f 46//7 47//7 48//3
f 49//6 50//6 51//8
f 52//4 53//4 54//4
f 55//7 56//7 57//9
f 58//8 59//8 60//6
f 61//4 62//4 63//4
f 64//9 65//9 66//7
f 67//8 68//8 69//10
f 70//4 71//4 72//4
f 73//11 74//9 75//11
f 76//9 77//11 78//9
f 79//10 80//10 81//8
f 82//4 83//4 84//4
f 85//11 86//12 87//11
f 88//4 89//4 90//4
f 91//10 92//13 93//10
f 94//12 95//11 96//12
f 97//4 98//4 99//4
f 100//4 101//4 102//4
f 103//14 104//14 105//14
f 106//4 107//4 108//4
f 109//4 110//4 111//4
f 112//13 113//10 114//13
f 115//12 116//15 117//12
f 118//4 119//4 120//4
f 121//14 122//14 123//14
f 124//4 125//4 126//4
f 127//4 128//4 129//4
f 130//4 131//4 132//4
f 133//13 134//16 135//13
f 136//15 137//12 138//15
f 139//4 140//4 141//4
f 142//16 143//13 144//16
f 145//4 146//4 147//4
f 148//14 149//14 150//14
f 151//4 152//4 153//4
f 154//17 155//17 156//18
f 157//19 158//19 159//17
f 160//20 161//20 162//20
f 163//4 164//4 165//4
f 166//16 167//21 168//16
f 169//4 170//4 171//4
f 172//14 173//14 174//14
f 175//14 176//14 177//14
f 178//4 179//4 180//4
f 181//18 182//18 183//17
f 184//17 185//17 186//19
f 187//19 188//22 189//19
f 190//20 191//20 192//20
f 193//4 194//4 195//4
f 196//21 197//16 198//21
f 199//4 200//4 201//4
f 202//14 203//14 204//14
f 205//18 206//18 207//23
f 208//22 209//19 210//22
f 211//4 212//4 213//4
f 214//24 215//24 216//24
f 217//23 218//23 219//18
f 220//4 221//4 222//4
f 223//22 224//25 225//22
f 226//4 227//4 228//4
f 229//24 230//24 231//24
f 232//4 233//4 234//4
f 235//25 236//22 237//25
f 238//4 239//4 240//4
f 241//26 242//25 243//26
f 244//25 245//26 246//25
usemtl material_1_0
f 247//14 248//14 249//14
f 250//14 251//14 252//14
f 253//14 254//14 255//14
f 256//14 257//14 258//14
f 259//18 260//23 261//23
f 262//14 263//14 264//14
f 265//14 266//14 267//14
f 268//27 269//27 270//27
f 271//23 272//18 273//18
f 274//28 275//29 276//29
f 277//27 278//27 279//27
f 280//17 281//18 282//18
f 283//27 284//27 285//27
f 286//29 287//28 288//28
f 289//27 290//27 291//27
f 292//18 293//17 294//17
f 295//30 296//28 297//28
f 298//27 299//27 300//27
f 301//19 302//17 303//17
f 304//28 305//30 306//30
f 307//27 308//27 309//27
f 310//17 311//19 312//19
f 313//31 314//30 315//30
f 316//27 317//27 318//27
f 319//22 320//19 321//22
f 322//19 323//22 324//19
f 325//5 326//6 327//6
f 328//28 329//28 330//29
f 331//30 332//31 333//31
f 334//27 335//27 336//27
f 337//22 338//25 339//22
f 340//27 341//27 342//27
f 343//6 344//5 345//5
f 346//29 347//29 348//28
f 349//8 350//6 351//6
f 352//28 353//28 354//30
f 355//31 356//32 357//31
f 358//25 359//22 360//25
f 361//27 362//27 363//27
f 364//27 365//27 366//27
f 367//6 368//8 369//8
f 370//30 371//30 372//28
f 373//1 374//1 375//1
f 376//27 377//27 378//27
f 379//27 380//27 381//27
f 382//32 383//31 384//32
f 385//25 386//26 387//25
f 388//27 389//27 390//27
f 391//10 392//8 393//8
f 394//30 395//30 396//31
f 397//1 398//1 399//1
f 400//27 401//27 402//27
f 403//27 404//27 405//27
f 406//27 407//27 408//27
f 409//32 410//33 411//32
f 412//26 413//25 414//26
f 415//27 416//27 417//27
f 418//33 419//32 420//33
f 421//8 422//10 423//10
f 424//31 425//31 426//30
f 427//27 428//27 429//27
f 430//1 431//1 432//1
f 433//27 434//27 435//27
f 436//3 437//7 438//7
f 439//7 440//9 441//9
f 442//24 443//24 444//24
f 445//27 446//27 447//27
f 448//33 449//34 450//33
f 451//10 452//13 453//10
f 454//31 455//32 456//31
f 457//27 458//27 459//27
f 460//1 461//1 462//1
f 463//1 464//1 465//1
f 466//27 467//27 468//27
f 469//7 470//3 471//3
f 472//9 473//7 474//7
f 475//9 476//11 477//9
f 478//24 479//24 480//24
f 481//27 482//27 483//27
f 484//34 485//33 486//34
f 487//13 488//10 489//13
f 490//32 491//31 492//32
f 493//27 494//27 495//27
f 496//1 497//1 498//1
f 499//2 500//3 501//3
f 502//11 503//9 504//11
f 505//21 506//16 507//21
f 508//34 509//33 510//34
f 511//27 512//27 513//27
f 514//20 515//20 516//20
f 517//3 518//2 519//2
f 520//13 521//16 522//13
f 523//32 524//33 525//32
f 526//27 527//27 528//27
f 529//11 530//12 531//11
f 532//16 533//21 534//16
f 535//33 536//34 537//33
f 538//27 539//27 540//27
f 541//20 542//20 543//20
f 544//16 545//13 546//16
f 547//33 548//32 549//33
f 550//27 551//27 552//27
f 553//12 554//11 555//12
f 556//27 557//27 558//27
f 559//15 560//12 561//15
f 562//12 563//15 564//12
