# SSTK version 0.8.0
# 136
mtllib original-136.mtl
o mesh109/mesh109-geometry/material_0/component_22#mesh109-geometry
v 0.087787 0.173623 0.066655
v 0.088971 0.164631 0.084027
v 0.088971 0.164631 0.066655
v 0.084316 0.182003 0.066655
v 0.087787 0.173623 0.084027
v 0.087787 0.173623 0.066655
v 0.088971 0.164631 0.084027
v 0.087787 0.173623 0.066655
v 0.087787 0.173623 0.084027
v 0.087787 0.155638 0.084027
v 0.088971 0.164631 0.066655
v 0.088971 0.164631 0.084027
v 0.088971 0.164631 0.066655
v 0.087787 0.155638 0.084027
v 0.087787 0.155638 0.066655
v 0.045233 0.198192 0.084027
v 0.054225 0.199376 0.066655
v 0.045233 0.198192 0.066655
v 0.054225 0.199376 0.084027
v 0.063218 0.198192 0.066655
v 0.054225 0.199376 0.066655
v 0.019480 0.164631 0.066655
v 0.020664 0.173623 0.084027
v 0.020664 0.173623 0.066655
v 0.020664 0.155638 0.066655
v 0.019480 0.164631 0.084027
v 0.019480 0.164631 0.066655
v 0.078794 0.189199 0.066655
v 0.084316 0.182003 0.084027
v 0.084316 0.182003 0.066655
v 0.087787 0.173623 0.084027
v 0.084316 0.182003 0.066655
v 0.084316 0.182003 0.084027
v 0.087787 0.173623 0.084027
v 0.087787 0.155638 0.084027
v 0.088971 0.164631 0.084027
v 0.084316 0.147258 0.084027
v 0.087787 0.155638 0.066655
v 0.087787 0.155638 0.084027
v 0.054225 0.199376 0.066655
v 0.045233 0.198192 0.084027
v 0.054225 0.199376 0.084027
v 0.045233 0.198192 0.066655
v 0.036853 0.194721 0.084027
v 0.045233 0.198192 0.084027
v 0.063218 0.198192 0.066655
v 0.054225 0.199376 0.084027
v 0.063218 0.198192 0.084027
v 0.063218 0.198192 0.084027
v 0.071598 0.194721 0.066655
v 0.063218 0.198192 0.066655
v 0.020664 0.173623 0.084027
v 0.019480 0.164631 0.066655
v 0.019480 0.164631 0.084027
v 0.024135 0.182003 0.084027
v 0.020664 0.173623 0.066655
v 0.020664 0.173623 0.084027
v 0.020664 0.173623 0.066655
v 0.024135 0.182003 0.084027
v 0.024135 0.182003 0.066655
v 0.019480 0.164631 0.084027
v 0.020664 0.155638 0.066655
v 0.020664 0.155638 0.084027
v 0.071598 0.194721 0.084027
v 0.078794 0.189199 0.066655
v 0.071598 0.194721 0.066655
v 0.084316 0.182003 0.084027
v 0.078794 0.189199 0.066655
v 0.078794 0.189199 0.084027
v 0.084316 0.182003 0.084027
v 0.087787 0.155638 0.084027
v 0.087787 0.173623 0.084027
v 0.087787 0.155638 0.066655
v 0.084316 0.147258 0.084027
v 0.084316 0.147258 0.066655
v 0.084316 0.182003 0.084027
v 0.084316 0.147258 0.084027
v 0.087787 0.155638 0.084027
v 0.045233 0.198192 0.084027
v 0.045233 0.131069 0.084027
v 0.054225 0.199376 0.084027
v 0.036853 0.194721 0.084027
v 0.045233 0.198192 0.066655
v 0.036853 0.194721 0.066655
v 0.036853 0.194721 0.084027
v 0.045233 0.131069 0.084027
v 0.045233 0.198192 0.084027
v 0.054225 0.199376 0.084027
v 0.063218 0.131069 0.084027
v 0.063218 0.198192 0.084027
v 0.071598 0.194721 0.066655
v 0.063218 0.198192 0.084027
v 0.071598 0.194721 0.084027
v 0.020664 0.155638 0.084027
v 0.020664 0.173623 0.084027
v 0.019480 0.164631 0.084027
v 0.020664 0.173623 0.084027
v 0.024135 0.147258 0.084027
v 0.024135 0.182003 0.084027
v 0.029657 0.189199 0.084027
v 0.024135 0.182003 0.066655
v 0.024135 0.182003 0.084027
v 0.024135 0.147258 0.066655
v 0.020664 0.155638 0.084027
v 0.020664 0.155638 0.066655
v 0.078794 0.189199 0.066655
v 0.071598 0.194721 0.084027
v 0.078794 0.189199 0.084027
v 0.078794 0.189199 0.084027
v 0.084316 0.147258 0.084027
v 0.084316 0.182003 0.084027
v 0.078794 0.140062 0.084027
v 0.084316 0.147258 0.066655
v 0.084316 0.147258 0.084027
v 0.054225 0.199376 0.084027
v 0.045233 0.131069 0.084027
v 0.054225 0.129885 0.084027
v 0.036853 0.194721 0.066655
v 0.029657 0.189199 0.084027
v 0.036853 0.194721 0.084027
v 0.036853 0.194721 0.084027
v 0.036853 0.134540 0.084027
v 0.045233 0.131069 0.084027
v 0.054225 0.199376 0.084027
v 0.054225 0.129885 0.084027
v 0.063218 0.131069 0.084027
v 0.063218 0.198192 0.084027
v 0.063218 0.131069 0.084027
v 0.071598 0.134540 0.084027
v 0.063218 0.198192 0.084027
v 0.071598 0.134540 0.084027
v 0.071598 0.194721 0.084027
v 0.020664 0.173623 0.084027
v 0.020664 0.155638 0.084027
v 0.024135 0.147258 0.084027
v 0.024135 0.182003 0.084027
v 0.024135 0.147258 0.084027
v 0.029657 0.140062 0.084027
v 0.024135 0.182003 0.066655
v 0.029657 0.189199 0.084027
v 0.029657 0.189199 0.066655
v 0.024135 0.182003 0.084027
v 0.029657 0.140062 0.084027
v 0.029657 0.189199 0.084027
v 0.020664 0.155638 0.084027
v 0.024135 0.147258 0.066655
v 0.024135 0.147258 0.084027
v 0.071598 0.194721 0.084027
v 0.078794 0.140062 0.084027
v 0.078794 0.189199 0.084027
v 0.078794 0.189199 0.084027
v 0.078794 0.140062 0.084027
v 0.084316 0.147258 0.084027
v 0.084316 0.147258 0.066655
v 0.078794 0.140062 0.084027
v 0.078794 0.140062 0.066655
v 0.045233 0.131069 0.066655
v 0.054225 0.129885 0.084027
v 0.045233 0.131069 0.084027
v 0.029657 0.189199 0.084027
v 0.036853 0.194721 0.066655
v 0.029657 0.189199 0.066655
v 0.029657 0.189199 0.084027
v 0.036853 0.134540 0.084027
v 0.036853 0.194721 0.084027
v 0.036853 0.134540 0.066655
v 0.045233 0.131069 0.084027
v 0.036853 0.134540 0.084027
v 0.054225 0.129885 0.066655
v 0.063218 0.131069 0.084027
v 0.054225 0.129885 0.084027
v 0.063218 0.131069 0.066655
v 0.071598 0.134540 0.084027
v 0.063218 0.131069 0.084027
v 0.071598 0.194721 0.084027
v 0.071598 0.134540 0.084027
v 0.078794 0.140062 0.084027
v 0.024135 0.147258 0.084027
v 0.029657 0.140062 0.066655
v 0.029657 0.140062 0.084027
v 0.029657 0.189199 0.084027
v 0.029657 0.140062 0.084027
v 0.036853 0.134540 0.084027
v 0.029657 0.140062 0.066655
v 0.024135 0.147258 0.084027
v 0.024135 0.147258 0.066655
v 0.078794 0.140062 0.084027
v 0.071598 0.134540 0.066655
v 0.078794 0.140062 0.066655
v 0.054225 0.129885 0.084027
v 0.045233 0.131069 0.066655
v 0.054225 0.129885 0.066655
v 0.045233 0.131069 0.084027
v 0.036853 0.134540 0.066655
v 0.045233 0.131069 0.066655
v 0.036853 0.134540 0.084027
v 0.029657 0.140062 0.066655
v 0.036853 0.134540 0.066655
v 0.063218 0.131069 0.084027
v 0.054225 0.129885 0.066655
v 0.063218 0.131069 0.066655
v 0.071598 0.134540 0.084027
v 0.063218 0.131069 0.066655
v 0.071598 0.134540 0.066655
v 0.071598 0.134540 0.066655
v 0.078794 0.140062 0.084027
v 0.071598 0.134540 0.084027
v 0.029657 0.140062 0.066655
v 0.036853 0.134540 0.084027
v 0.029657 0.140062 0.084027
v 0.088971 0.164631 0.066655
v 0.088971 0.164631 0.084027
v 0.087787 0.173623 0.066655
v 0.087787 0.173623 0.066655
v 0.087787 0.173623 0.084027
v 0.084316 0.182003 0.066655
v 0.087787 0.173623 0.084027
v 0.087787 0.173623 0.066655
v 0.088971 0.164631 0.084027
v 0.088971 0.164631 0.084027
v 0.088971 0.164631 0.066655
v 0.087787 0.155638 0.084027
v 0.087787 0.155638 0.066655
v 0.087787 0.155638 0.084027
v 0.088971 0.164631 0.066655
v 0.045233 0.198192 0.066655
v 0.054225 0.199376 0.066655
v 0.045233 0.198192 0.084027
v 0.054225 0.199376 0.066655
v 0.063218 0.198192 0.066655
v 0.054225 0.199376 0.084027
v 0.020664 0.173623 0.066655
v 0.020664 0.173623 0.084027
v 0.019480 0.164631 0.066655
v 0.019480 0.164631 0.066655
v 0.019480 0.164631 0.084027
v 0.020664 0.155638 0.066655
v 0.084316 0.182003 0.066655
v 0.084316 0.182003 0.084027
v 0.078794 0.189199 0.066655
v 0.084316 0.182003 0.084027
v 0.084316 0.182003 0.066655
v 0.087787 0.173623 0.084027
v 0.088971 0.164631 0.084027
v 0.087787 0.155638 0.084027
v 0.087787 0.173623 0.084027
v 0.087787 0.155638 0.084027
v 0.087787 0.155638 0.066655
v 0.084316 0.147258 0.084027
v 0.054225 0.199376 0.084027
v 0.045233 0.198192 0.084027
v 0.054225 0.199376 0.066655
v 0.045233 0.198192 0.084027
v 0.036853 0.194721 0.084027
v 0.045233 0.198192 0.066655
v 0.063218 0.198192 0.084027
v 0.054225 0.199376 0.084027
v 0.063218 0.198192 0.066655
v 0.063218 0.198192 0.066655
v 0.071598 0.194721 0.066655
v 0.063218 0.198192 0.084027
v 0.019480 0.164631 0.084027
v 0.019480 0.164631 0.066655
v 0.020664 0.173623 0.084027
v 0.020664 0.173623 0.084027
v 0.020664 0.173623 0.066655
v 0.024135 0.182003 0.084027
v 0.024135 0.182003 0.066655
v 0.024135 0.182003 0.084027
v 0.020664 0.173623 0.066655
v 0.020664 0.155638 0.084027
v 0.020664 0.155638 0.066655
v 0.019480 0.164631 0.084027
v 0.071598 0.194721 0.066655
v 0.078794 0.189199 0.066655
v 0.071598 0.194721 0.084027
v 0.078794 0.189199 0.084027
v 0.078794 0.189199 0.066655
v 0.084316 0.182003 0.084027
v 0.087787 0.173623 0.084027
v 0.087787 0.155638 0.084027
v 0.084316 0.182003 0.084027
v 0.084316 0.147258 0.066655
v 0.084316 0.147258 0.084027
v 0.087787 0.155638 0.066655
v 0.087787 0.155638 0.084027
v 0.084316 0.147258 0.084027
v 0.084316 0.182003 0.084027
v 0.054225 0.199376 0.084027
v 0.045233 0.131069 0.084027
v 0.045233 0.198192 0.084027
v 0.036853 0.194721 0.066655
v 0.045233 0.198192 0.066655
v 0.036853 0.194721 0.084027
v 0.045233 0.198192 0.084027
v 0.045233 0.131069 0.084027
v 0.036853 0.194721 0.084027
v 0.063218 0.198192 0.084027
v 0.063218 0.131069 0.084027
v 0.054225 0.199376 0.084027
v 0.071598 0.194721 0.084027
v 0.063218 0.198192 0.084027
v 0.071598 0.194721 0.066655
v 0.019480 0.164631 0.084027
v 0.020664 0.173623 0.084027
v 0.020664 0.155638 0.084027
v 0.024135 0.182003 0.084027
v 0.024135 0.147258 0.084027
v 0.020664 0.173623 0.084027
v 0.024135 0.182003 0.084027
v 0.024135 0.182003 0.066655
v 0.029657 0.189199 0.084027
v 0.020664 0.155638 0.066655
v 0.020664 0.155638 0.084027
v 0.024135 0.147258 0.066655
v 0.078794 0.189199 0.084027
v 0.071598 0.194721 0.084027
v 0.078794 0.189199 0.066655
v 0.084316 0.182003 0.084027
v 0.084316 0.147258 0.084027
v 0.078794 0.189199 0.084027
v 0.084316 0.147258 0.084027
v 0.084316 0.147258 0.066655
v 0.078794 0.140062 0.084027
v 0.054225 0.129885 0.084027
v 0.045233 0.131069 0.084027
v 0.054225 0.199376 0.084027
v 0.036853 0.194721 0.084027
v 0.029657 0.189199 0.084027
v 0.036853 0.194721 0.066655
v 0.045233 0.131069 0.084027
v 0.036853 0.134540 0.084027
v 0.036853 0.194721 0.084027
v 0.063218 0.131069 0.084027
v 0.054225 0.129885 0.084027
v 0.054225 0.199376 0.084027
v 0.071598 0.134540 0.084027
v 0.063218 0.131069 0.084027
v 0.063218 0.198192 0.084027
v 0.071598 0.194721 0.084027
v 0.071598 0.134540 0.084027
v 0.063218 0.198192 0.084027
v 0.024135 0.147258 0.084027
v 0.020664 0.155638 0.084027
v 0.020664 0.173623 0.084027
v 0.029657 0.140062 0.084027
v 0.024135 0.147258 0.084027
v 0.024135 0.182003 0.084027
v 0.029657 0.189199 0.066655
v 0.029657 0.189199 0.084027
v 0.024135 0.182003 0.066655
v 0.029657 0.189199 0.084027
v 0.029657 0.140062 0.084027
v 0.024135 0.182003 0.084027
v 0.024135 0.147258 0.084027
v 0.024135 0.147258 0.066655
v 0.020664 0.155638 0.084027
v 0.078794 0.189199 0.084027
v 0.078794 0.140062 0.084027
v 0.071598 0.194721 0.084027
v 0.084316 0.147258 0.084027
v 0.078794 0.140062 0.084027
v 0.078794 0.189199 0.084027
v 0.078794 0.140062 0.066655
v 0.078794 0.140062 0.084027
v 0.084316 0.147258 0.066655
v 0.045233 0.131069 0.084027
v 0.054225 0.129885 0.084027
v 0.045233 0.131069 0.066655
v 0.029657 0.189199 0.066655
v 0.036853 0.194721 0.066655
v 0.029657 0.189199 0.084027
v 0.036853 0.194721 0.084027
v 0.036853 0.134540 0.084027
v 0.029657 0.189199 0.084027
v 0.036853 0.134540 0.084027
v 0.045233 0.131069 0.084027
v 0.036853 0.134540 0.066655
v 0.054225 0.129885 0.084027
v 0.063218 0.131069 0.084027
v 0.054225 0.129885 0.066655
v 0.063218 0.131069 0.084027
v 0.071598 0.134540 0.084027
v 0.063218 0.131069 0.066655
v 0.078794 0.140062 0.084027
v 0.071598 0.134540 0.084027
v 0.071598 0.194721 0.084027
v 0.029657 0.140062 0.084027
v 0.029657 0.140062 0.066655
v 0.024135 0.147258 0.084027
v 0.036853 0.134540 0.084027
v 0.029657 0.140062 0.084027
v 0.029657 0.189199 0.084027
v 0.024135 0.147258 0.066655
v 0.024135 0.147258 0.084027
v 0.029657 0.140062 0.066655
v 0.078794 0.140062 0.066655
v 0.071598 0.134540 0.066655
v 0.078794 0.140062 0.084027
v 0.054225 0.129885 0.066655
v 0.045233 0.131069 0.066655
v 0.054225 0.129885 0.084027
v 0.045233 0.131069 0.066655
v 0.036853 0.134540 0.066655
v 0.045233 0.131069 0.084027
v 0.036853 0.134540 0.066655
v 0.029657 0.140062 0.066655
v 0.036853 0.134540 0.084027
v 0.063218 0.131069 0.066655
v 0.054225 0.129885 0.066655
v 0.063218 0.131069 0.084027
v 0.071598 0.134540 0.066655
v 0.063218 0.131069 0.066655
v 0.071598 0.134540 0.084027
v 0.071598 0.134540 0.084027
v 0.078794 0.140062 0.084027
v 0.071598 0.134540 0.066655
v 0.029657 0.140062 0.084027
v 0.036853 0.134540 0.084027
v 0.029657 0.140062 0.066655
vn 0.9659258451755842 0.25881897461707376 0
vn 1 0 0
vn 0.8660252955903434 0.5000001873976233 0
vn 0.9659258451755842 -0.25881897461707376 0
vn -0.25881897461707376 0.9659258451755842 0
vn 0 1 0
vn 0.25881897461707376 0.9659258451755842 0
vn -1 0 0
vn -0.9659258451755842 0.25881897461707376 0
vn -0.9659258451755842 -0.25881897461707376 0
vn 0.7071067811865476 0.7071067811865476 0
vn 0 0 1
vn 0.8660252955903434 -0.5000001873976233 0
vn -0.5000001873976233 0.8660252955903434 0
vn 0.5000001873976233 0.8660252955903434 0
vn -0.8660252955903434 0.5000001873976233 0
vn -0.7071067811865476 0.7071067811865476 0
vn -0.8660252955903434 -0.5000001873976233 0
vn 0.7071067811865476 -0.7071067811865476 0
vn -0.25881897461707376 -0.9659258451755842 0
vn 0 -1 0
vn -0.5000001873976233 -0.8660252955903434 0
vn 0.25881897461707376 -0.9659258451755842 0
vn 0.5000001873976233 -0.8660252955903434 0
vn -0.7071067811865476 -0.7071067811865476 0
vn 0 0 -1
usemtl material_0_0
f 1//1 2//2 3//2
f 4//3 5//1 6//1
f 7//2 8//1 9//1
f 10//4 11//2 12//2
f 13//2 14//4 15//4
f 16//5 17//6 18//5
f 19//6 20//7 21//6
f 22//8 23//9 24//9
f 25//10 26//8 27//8
f 28//11 29//3 30//3
f 31//1 32//3 33//3
f 34//12 35//12 36//12
f 37//13 38//4 39//4
f 40//6 41//5 42//6
f 43//5 44//14 45//5
f 46//7 47//6 48//7
f 49//7 50//15 51//7
f 52//9 53//8 54//8
f 55//16 56//9 57//9
f 58//9 59//16 60//16
f 61//8 62//10 63//10
f 64//15 65//11 66//15
f 67//3 68//11 69//11
f 70//12 71//12 72//12
f 73//4 74//13 75//13
f 76//12 77//12 78//12
f 79//12 80//12 81//12
f 82//14 83//5 84//14
f 85//12 86//12 87//12
f 88//12 89//12 90//12
f 91//15 92//7 93//15
f 94//12 95//12 96//12
f 97//12 98//12 99//12
f 100//17 101//16 102//16
f 103//18 104//10 105//10
f 106//11 107//15 108//11
f 109//12 110//12 111//12
f 112//19 113//13 114//13
f 115//12 116//12 117//12
f 118//14 119//17 120//14
f 121//12 122//12 123//12
f 124//12 125//12 126//12
f 127//12 128//12 129//12
f 130//12 131//12 132//12
f 133//12 134//12 135//12
f 136//12 137//12 138//12
f 139//16 140//17 141//17
f 142//12 143//12 144//12
f 145//10 146//18 147//18
f 148//12 149//12 150//12
f 151//12 152//12 153//12
f 154//13 155//19 156//19
f 157//20 158//21 159//20
f 160//17 161//14 162//17
f 163//12 164//12 165//12
f 166//22 167//20 168//22
f 169//21 170//23 171//21
f 172//23 173//24 174//23
f 175//12 176//12 177//12
f 178//18 179//25 180//25
f 181//12 182//12 183//12
f 184//25 185//18 186//18
f 187//19 188//24 189//19
f 190//21 191//20 192//21
f 193//20 194//22 195//20
f 196//22 197//25 198//22
f 199//23 200//21 201//23
f 202//24 203//23 204//24
f 205//24 206//19 207//24
f 208//25 209//22 210//25
usemtl material_1_0
f 211//8 212//8 213//10
f 214//10 215//10 216//18
f 217//10 218//10 219//8
f 220//8 221//8 222//9
f 223//9 224//9 225//8
f 226//23 227//21 228//23
f 229//21 230//20 231//21
f 232//4 233//4 234//2
f 235//2 236//2 237//1
f 238//18 239//18 240//25
f 241//18 242//18 243//10
f 244//26 245//26 246//26
f 247//9 248//9 249//16
f 250//21 251//23 252//21
f 253//23 254//24 255//23
f 256//20 257//21 258//20
f 259//20 260//22 261//20
f 262//2 263//2 264//4
f 265//4 266//4 267//13
f 268//13 269//13 270//4
f 271//1 272//1 273//2
f 274//22 275//25 276//22
f 277//25 278//25 279//18
f 280//26 281//26 282//26
f 283//16 284//16 285//9
f 286//26 287//26 288//26
f 289//26 290//26 291//26
f 292//24 293//23 294//24
f 295//26 296//26 297//26
f 298//26 299//26 300//26
f 301//22 302//20 303//22
f 304//26 305//26 306//26
f 307//26 308//26 309//26
f 310//13 311//13 312//19
f 313//1 314//1 315//3
f 316//25 317//22 318//25
f 319//26 320//26 321//26
f 322//16 323//16 324//17
f 325//26 326//26 327//26
f 328//24 329//19 330//24
f 331//26 332//26 333//26
f 334//26 335//26 336//26
f 337//26 338//26 339//26
f 340//26 341//26 342//26
f 343//26 344//26 345//26
f 346//26 347//26 348//26
f 349//19 350//19 351//13
f 352//26 353//26 354//26
f 355//3 356//3 357//1
f 358//26 359//26 360//26
f 361//26 362//26 363//26
f 364//17 365//17 366//16
f 367//7 368//6 369//7
f 370//19 371//24 372//19
f 373//26 374//26 375//26
f 376//15 377//7 378//15
f 379//6 380//5 381//6
f 382//5 383//14 384//5
f 385//26 386//26 387//26
f 388//11 389//11 390//3
f 391//26 392//26 393//26
f 394//3 395//3 396//11
f 397//17 398//14 399//17
f 400//6 401//7 402//6
f 403//7 404//15 405//7
f 406//15 407//11 408//15
f 409//5 410//6 411//5
f 412//14 413//5 414//14
f 415//14 416//17 417//14
f 418//11 419//15 420//11
