# SSTK version 0.8.0
# 143
mtllib original-143.mtl
o mesh109/mesh109-geometry/material_4/component_0#mesh109-geometry
v 0.254011 0.512084 0.066655
v 0.254011 0.512084 0.084027
v 0.254011 0.529456 0.066655
v 0.254011 0.529456 0.084027
v 0.254011 0.529456 0.066655
v 0.254011 0.512084 0.084027
v 0.254011 0.512084 0.084027
v 0.254011 0.512084 0.066655
v 0.253419 0.507587 0.084027
v 0.254011 0.529456 0.066655
v 0.254011 0.529456 0.084027
v 0.253419 0.533953 0.066655
v 0.253419 0.507587 0.066655
v 0.253419 0.507587 0.084027
v 0.254011 0.512084 0.066655
v 0.254011 0.529456 0.084027
v 0.254011 0.512084 0.084027
v 0.253419 0.533953 0.084027
v 0.254011 0.512084 0.084027
v 0.253419 0.507587 0.084027
v 0.253419 0.533953 0.084027
v 0.253419 0.533953 0.084027
v 0.253419 0.533953 0.066655
v 0.254011 0.529456 0.084027
v 0.253419 0.507587 0.084027
v 0.253419 0.507587 0.066655
v 0.251684 0.503397 0.084027
v 0.253419 0.533953 0.084027
v 0.253419 0.507587 0.084027
v 0.251684 0.538143 0.084027
v 0.253419 0.533953 0.066655
v 0.253419 0.533953 0.084027
v 0.251684 0.538143 0.066655
v 0.251684 0.503397 0.066655
v 0.251684 0.503397 0.084027
v 0.253419 0.507587 0.066655
v 0.253419 0.507587 0.084027
v 0.251684 0.503397 0.084027
v 0.251684 0.538143 0.084027
v 0.251684 0.538143 0.084027
v 0.251684 0.538143 0.066655
v 0.253419 0.533953 0.084027
v 0.251684 0.503397 0.084027
v 0.251684 0.503397 0.066655
v 0.248923 0.499799 0.084027
v 0.251684 0.538143 0.084027
v 0.251684 0.503397 0.084027
v 0.248923 0.541741 0.084027
v 0.251684 0.538143 0.066655
v 0.251684 0.538143 0.084027
v 0.248923 0.541741 0.066655
v 0.248923 0.499799 0.066655
v 0.248923 0.499799 0.084027
v 0.251684 0.503397 0.066655
v 0.251684 0.503397 0.084027
v 0.248923 0.499799 0.084027
v 0.248923 0.541741 0.084027
v 0.248923 0.541741 0.084027
v 0.248923 0.541741 0.066655
v 0.251684 0.538143 0.084027
v 0.248923 0.499799 0.066655
v 0.245325 0.497038 0.066655
v 0.248923 0.499799 0.084027
v 0.248923 0.541741 0.084027
v 0.248923 0.499799 0.084027
v 0.245325 0.544502 0.084027
v 0.248923 0.541741 0.084027
v 0.245325 0.544502 0.084027
v 0.248923 0.541741 0.066655
v 0.245325 0.544502 0.066655
v 0.248923 0.541741 0.066655
v 0.245325 0.544502 0.084027
v 0.245325 0.497038 0.084027
v 0.248923 0.499799 0.084027
v 0.245325 0.497038 0.066655
v 0.248923 0.499799 0.084027
v 0.245325 0.497038 0.084027
v 0.245325 0.544502 0.084027
v 0.245325 0.544502 0.084027
v 0.241135 0.546237 0.084027
v 0.245325 0.544502 0.066655
v 0.241135 0.546237 0.066655
v 0.245325 0.544502 0.066655
v 0.241135 0.546237 0.084027
v 0.236638 0.546829 0.066655
v 0.241135 0.546237 0.066655
v 0.236638 0.546829 0.084027
v 0.245325 0.497038 0.066655
v 0.241135 0.495303 0.066655
v 0.245325 0.497038 0.084027
v 0.245325 0.544502 0.084027
v 0.245325 0.497038 0.084027
v 0.241135 0.546237 0.084027
v 0.184520 0.546829 0.066655
v 0.236638 0.546829 0.066655
v 0.184520 0.546829 0.084027
v 0.241135 0.546237 0.084027
v 0.236638 0.546829 0.084027
v 0.241135 0.546237 0.066655
v 0.236638 0.546829 0.084027
v 0.184520 0.546829 0.084027
v 0.236638 0.546829 0.066655
v 0.241135 0.495303 0.084027
v 0.245325 0.497038 0.084027
v 0.241135 0.495303 0.066655
v 0.245325 0.497038 0.084027
v 0.241135 0.495303 0.084027
v 0.241135 0.546237 0.084027
v 0.180024 0.546237 0.066655
v 0.184520 0.546829 0.066655
v 0.180024 0.546237 0.084027
v 0.184520 0.546829 0.084027
v 0.180024 0.546237 0.084027
v 0.184520 0.546829 0.066655
v 0.241135 0.546237 0.084027
v 0.241135 0.495303 0.084027
v 0.236638 0.546829 0.084027
v 0.236638 0.546829 0.084027
v 0.193369 0.537711 0.084027
v 0.184520 0.546829 0.084027
v 0.241135 0.495303 0.066655
v 0.236638 0.494711 0.066655
v 0.241135 0.495303 0.084027
v 0.175834 0.544502 0.066655
v 0.180024 0.546237 0.066655
v 0.175834 0.544502 0.084027
v 0.180024 0.546237 0.084027
v 0.175834 0.544502 0.084027
v 0.180024 0.546237 0.066655
v 0.184520 0.546829 0.084027
v 0.184520 0.494711 0.084027
v 0.180024 0.546237 0.084027
v 0.241135 0.495303 0.084027
v 0.236638 0.494711 0.084027
v 0.236638 0.546829 0.084027
v 0.193369 0.502965 0.084027
v 0.184520 0.546829 0.084027
v 0.193369 0.537711 0.084027
v 0.228115 0.537711 0.084027
v 0.193369 0.537711 0.084027
v 0.236638 0.546829 0.084027
v 0.236638 0.494711 0.084027
v 0.241135 0.495303 0.084027
v 0.236638 0.494711 0.066655
v 0.172236 0.541741 0.066655
v 0.175834 0.544502 0.066655
v 0.172236 0.541741 0.084027
v 0.175834 0.544502 0.084027
v 0.172236 0.541741 0.084027
v 0.175834 0.544502 0.066655
v 0.180024 0.546237 0.084027
v 0.180024 0.495303 0.084027
v 0.175834 0.544502 0.084027
v 0.184520 0.494711 0.084027
v 0.180024 0.495303 0.084027
v 0.180024 0.546237 0.084027
v 0.193369 0.502965 0.084027
v 0.184520 0.494711 0.084027
v 0.184520 0.546829 0.084027
v 0.236638 0.494711 0.084027
v 0.228115 0.537711 0.084027
v 0.236638 0.546829 0.084027
v 0.236638 0.494711 0.066655
v 0.184520 0.494711 0.066655
v 0.236638 0.494711 0.084027
v 0.172236 0.541741 0.066655
v 0.172236 0.541741 0.084027
v 0.169475 0.538143 0.066655
v 0.175834 0.544502 0.084027
v 0.175834 0.497038 0.084027
v 0.172236 0.541741 0.084027
v 0.180024 0.495303 0.084027
v 0.175834 0.497038 0.084027
v 0.175834 0.544502 0.084027
v 0.180024 0.495303 0.084027
v 0.184520 0.494711 0.084027
v 0.180024 0.495303 0.066655
v 0.236638 0.494711 0.084027
v 0.184520 0.494711 0.084027
v 0.193369 0.502965 0.084027
v 0.228115 0.537711 0.084027
v 0.236638 0.494711 0.084027
v 0.228115 0.502965 0.084027
v 0.228115 0.502965 0.084027
v 0.236638 0.494711 0.084027
v 0.193369 0.502965 0.084027
v 0.184520 0.494711 0.084027
v 0.236638 0.494711 0.084027
v 0.184520 0.494711 0.066655
v 0.169475 0.538143 0.084027
v 0.169475 0.538143 0.066655
v 0.172236 0.541741 0.084027
v 0.175834 0.497038 0.084027
v 0.172236 0.499799 0.084027
v 0.172236 0.541741 0.084027
v 0.175834 0.497038 0.084027
v 0.180024 0.495303 0.084027
v 0.175834 0.497038 0.066655
v 0.184520 0.494711 0.066655
v 0.180024 0.495303 0.066655
v 0.184520 0.494711 0.084027
v 0.180024 0.495303 0.066655
v 0.175834 0.497038 0.066655
v 0.180024 0.495303 0.084027
v 0.167148 0.529456 0.066655
v 0.167148 0.529456 0.084027
v 0.167148 0.512084 0.066655
v 0.167740 0.533953 0.066655
v 0.167740 0.533953 0.084027
v 0.167148 0.529456 0.066655
v 0.169475 0.538143 0.066655
v 0.169475 0.538143 0.084027
v 0.167740 0.533953 0.066655
v 0.172236 0.541741 0.084027
v 0.172236 0.499799 0.084027
v 0.169475 0.538143 0.084027
v 0.172236 0.499799 0.084027
v 0.175834 0.497038 0.084027
v 0.172236 0.499799 0.066655
v 0.175834 0.497038 0.066655
v 0.172236 0.499799 0.066655
v 0.175834 0.497038 0.084027
v 0.167148 0.512084 0.084027
v 0.167148 0.512084 0.066655
v 0.167148 0.529456 0.084027
v 0.167148 0.529456 0.084027
v 0.167148 0.529456 0.066655
v 0.167740 0.533953 0.084027
v 0.167740 0.533953 0.084027
v 0.167740 0.533953 0.066655
v 0.169475 0.538143 0.084027
v 0.172236 0.499799 0.084027
v 0.169475 0.503397 0.084027
v 0.169475 0.538143 0.084027
v 0.172236 0.499799 0.084027
v 0.172236 0.499799 0.066655
v 0.169475 0.503397 0.084027
v 0.167148 0.512084 0.066655
v 0.167148 0.512084 0.084027
v 0.167740 0.507587 0.066655
v 0.167148 0.512084 0.084027
v 0.167148 0.529456 0.084027
v 0.167740 0.507587 0.084027
v 0.167740 0.533953 0.084027
v 0.167740 0.507587 0.084027
v 0.167148 0.529456 0.084027
v 0.169475 0.538143 0.084027
v 0.169475 0.503397 0.084027
v 0.167740 0.533953 0.084027
v 0.169475 0.503397 0.066655
v 0.169475 0.503397 0.084027
v 0.172236 0.499799 0.066655
v 0.167740 0.507587 0.084027
v 0.167740 0.507587 0.066655
v 0.167148 0.512084 0.084027
v 0.169475 0.503397 0.084027
v 0.167740 0.507587 0.084027
v 0.167740 0.533953 0.084027
v 0.169475 0.503397 0.084027
v 0.169475 0.503397 0.066655
v 0.167740 0.507587 0.084027
v 0.167740 0.507587 0.066655
v 0.167740 0.507587 0.084027
v 0.169475 0.503397 0.066655
v 0.254011 0.529456 0.066655
v 0.254011 0.512084 0.084027
v 0.254011 0.512084 0.066655
v 0.254011 0.512084 0.084027
v 0.254011 0.529456 0.066655
v 0.254011 0.529456 0.084027
v 0.253419 0.507587 0.084027
v 0.254011 0.512084 0.066655
v 0.254011 0.512084 0.084027
v 0.253419 0.533953 0.066655
v 0.254011 0.529456 0.084027
v 0.254011 0.529456 0.066655
v 0.254011 0.512084 0.066655
v 0.253419 0.507587 0.084027
v 0.253419 0.507587 0.066655
v 0.253419 0.533953 0.084027
v 0.254011 0.512084 0.084027
v 0.254011 0.529456 0.084027
v 0.253419 0.533953 0.084027
v 0.253419 0.507587 0.084027
v 0.254011 0.512084 0.084027
v 0.254011 0.529456 0.084027
v 0.253419 0.533953 0.066655
v 0.253419 0.533953 0.084027
v 0.251684 0.503397 0.084027
v 0.253419 0.507587 0.066655
v 0.253419 0.507587 0.084027
v 0.251684 0.538143 0.084027
v 0.253419 0.507587 0.084027
v 0.253419 0.533953 0.084027
v 0.251684 0.538143 0.066655
v 0.253419 0.533953 0.084027
v 0.253419 0.533953 0.066655
v 0.253419 0.507587 0.066655
v 0.251684 0.503397 0.084027
v 0.251684 0.503397 0.066655
v 0.251684 0.538143 0.084027
v 0.251684 0.503397 0.084027
v 0.253419 0.507587 0.084027
v 0.253419 0.533953 0.084027
v 0.251684 0.538143 0.066655
v 0.251684 0.538143 0.084027
v 0.248923 0.499799 0.084027
v 0.251684 0.503397 0.066655
v 0.251684 0.503397 0.084027
v 0.248923 0.541741 0.084027
v 0.251684 0.503397 0.084027
v 0.251684 0.538143 0.084027
v 0.248923 0.541741 0.066655
v 0.251684 0.538143 0.084027
v 0.251684 0.538143 0.066655
v 0.251684 0.503397 0.066655
v 0.248923 0.499799 0.084027
v 0.248923 0.499799 0.066655
v 0.248923 0.541741 0.084027
v 0.248923 0.499799 0.084027
v 0.251684 0.503397 0.084027
v 0.251684 0.538143 0.084027
v 0.248923 0.541741 0.066655
v 0.248923 0.541741 0.084027
v 0.248923 0.499799 0.084027
v 0.245325 0.497038 0.066655
v 0.248923 0.499799 0.066655
v 0.245325 0.544502 0.084027
v 0.248923 0.499799 0.084027
v 0.248923 0.541741 0.084027
v 0.248923 0.541741 0.066655
v 0.245325 0.544502 0.084027
v 0.248923 0.541741 0.084027
v 0.245325 0.544502 0.084027
v 0.248923 0.541741 0.066655
v 0.245325 0.544502 0.066655
v 0.245325 0.497038 0.066655
v 0.248923 0.499799 0.084027
v 0.245325 0.497038 0.084027
v 0.245325 0.544502 0.084027
v 0.245325 0.497038 0.084027
v 0.248923 0.499799 0.084027
v 0.245325 0.544502 0.066655
v 0.241135 0.546237 0.084027
v 0.245325 0.544502 0.084027
v 0.241135 0.546237 0.084027
v 0.245325 0.544502 0.066655
v 0.241135 0.546237 0.066655
v 0.236638 0.546829 0.084027
v 0.241135 0.546237 0.066655
v 0.236638 0.546829 0.066655
v 0.245325 0.497038 0.084027
v 0.241135 0.495303 0.066655
v 0.245325 0.497038 0.066655
v 0.241135 0.546237 0.084027
v 0.245325 0.497038 0.084027
v 0.245325 0.544502 0.084027
v 0.184520 0.546829 0.084027
v 0.236638 0.546829 0.066655
v 0.184520 0.546829 0.066655
v 0.241135 0.546237 0.066655
v 0.236638 0.546829 0.084027
v 0.241135 0.546237 0.084027
v 0.236638 0.546829 0.066655
v 0.184520 0.546829 0.084027
v 0.236638 0.546829 0.084027
v 0.241135 0.495303 0.066655
v 0.245325 0.497038 0.084027
v 0.241135 0.495303 0.084027
v 0.241135 0.546237 0.084027
v 0.241135 0.495303 0.084027
v 0.245325 0.497038 0.084027
v 0.180024 0.546237 0.084027
v 0.184520 0.546829 0.066655
v 0.180024 0.546237 0.066655
v 0.184520 0.546829 0.066655
v 0.180024 0.546237 0.084027
v 0.184520 0.546829 0.084027
v 0.236638 0.546829 0.084027
v 0.241135 0.495303 0.084027
v 0.241135 0.546237 0.084027
v 0.184520 0.546829 0.084027
v 0.193369 0.537711 0.084027
v 0.236638 0.546829 0.084027
v 0.241135 0.495303 0.084027
v 0.236638 0.494711 0.066655
v 0.241135 0.495303 0.066655
v 0.175834 0.544502 0.084027
v 0.180024 0.546237 0.066655
v 0.175834 0.544502 0.066655
v 0.180024 0.546237 0.066655
v 0.175834 0.544502 0.084027
v 0.180024 0.546237 0.084027
v 0.180024 0.546237 0.084027
v 0.184520 0.494711 0.084027
v 0.184520 0.546829 0.084027
v 0.236638 0.546829 0.084027
v 0.236638 0.494711 0.084027
v 0.241135 0.495303 0.084027
v 0.193369 0.537711 0.084027
v 0.184520 0.546829 0.084027
v 0.193369 0.502965 0.084027
v 0.236638 0.546829 0.084027
v 0.193369 0.537711 0.084027
v 0.228115 0.537711 0.084027
v 0.236638 0.494711 0.066655
v 0.241135 0.495303 0.084027
v 0.236638 0.494711 0.084027
v 0.172236 0.541741 0.084027
v 0.175834 0.544502 0.066655
v 0.172236 0.541741 0.066655
v 0.175834 0.544502 0.066655
v 0.172236 0.541741 0.084027
v 0.175834 0.544502 0.084027
v 0.175834 0.544502 0.084027
v 0.180024 0.495303 0.084027
v 0.180024 0.546237 0.084027
v 0.180024 0.546237 0.084027
v 0.180024 0.495303 0.084027
v 0.184520 0.494711 0.084027
v 0.184520 0.546829 0.084027
v 0.184520 0.494711 0.084027
v 0.193369 0.502965 0.084027
v 0.236638 0.546829 0.084027
v 0.228115 0.537711 0.084027
v 0.236638 0.494711 0.084027
v 0.236638 0.494711 0.084027
v 0.184520 0.494711 0.066655
v 0.236638 0.494711 0.066655
v 0.169475 0.538143 0.066655
v 0.172236 0.541741 0.084027
v 0.172236 0.541741 0.066655
v 0.172236 0.541741 0.084027
v 0.175834 0.497038 0.084027
v 0.175834 0.544502 0.084027
v 0.175834 0.544502 0.084027
v 0.175834 0.497038 0.084027
v 0.180024 0.495303 0.084027
v 0.180024 0.495303 0.066655
v 0.184520 0.494711 0.084027
v 0.180024 0.495303 0.084027
v 0.193369 0.502965 0.084027
v 0.184520 0.494711 0.084027
v 0.236638 0.494711 0.084027
v 0.228115 0.502965 0.084027
v 0.236638 0.494711 0.084027
v 0.228115 0.537711 0.084027
v 0.193369 0.502965 0.084027
v 0.236638 0.494711 0.084027
v 0.228115 0.502965 0.084027
v 0.184520 0.494711 0.066655
v 0.236638 0.494711 0.084027
v 0.184520 0.494711 0.084027
v 0.172236 0.541741 0.084027
v 0.169475 0.538143 0.066655
v 0.169475 0.538143 0.084027
v 0.172236 0.541741 0.084027
v 0.172236 0.499799 0.084027
v 0.175834 0.497038 0.084027
v 0.175834 0.497038 0.066655
v 0.180024 0.495303 0.084027
v 0.175834 0.497038 0.084027
v 0.184520 0.494711 0.084027
v 0.180024 0.495303 0.066655
v 0.184520 0.494711 0.066655
v 0.180024 0.495303 0.084027
v 0.175834 0.497038 0.066655
v 0.180024 0.495303 0.066655
v 0.167148 0.512084 0.066655
v 0.167148 0.529456 0.084027
v 0.167148 0.529456 0.066655
v 0.167148 0.529456 0.066655
v 0.167740 0.533953 0.084027
v 0.167740 0.533953 0.066655
v 0.167740 0.533953 0.066655
v 0.169475 0.538143 0.084027
v 0.169475 0.538143 0.066655
v 0.169475 0.538143 0.084027
v 0.172236 0.499799 0.084027
v 0.172236 0.541741 0.084027
v 0.172236 0.499799 0.066655
v 0.175834 0.497038 0.084027
v 0.172236 0.499799 0.084027
v 0.175834 0.497038 0.084027
v 0.172236 0.499799 0.066655
v 0.175834 0.497038 0.066655
v 0.167148 0.529456 0.084027
v 0.167148 0.512084 0.066655
v 0.167148 0.512084 0.084027
v 0.167740 0.533953 0.084027
v 0.167148 0.529456 0.066655
v 0.167148 0.529456 0.084027
v 0.169475 0.538143 0.084027
v 0.167740 0.533953 0.066655
v 0.167740 0.533953 0.084027
v 0.169475 0.538143 0.084027
v 0.169475 0.503397 0.084027
v 0.172236 0.499799 0.084027
v 0.169475 0.503397 0.084027
v 0.172236 0.499799 0.066655
v 0.172236 0.499799 0.084027
v 0.167740 0.507587 0.066655
v 0.167148 0.512084 0.084027
v 0.167148 0.512084 0.066655
v 0.167740 0.507587 0.084027
v 0.167148 0.529456 0.084027
v 0.167148 0.512084 0.084027
v 0.167148 0.529456 0.084027
v 0.167740 0.507587 0.084027
v 0.167740 0.533953 0.084027
v 0.167740 0.533953 0.084027
v 0.169475 0.503397 0.084027
v 0.169475 0.538143 0.084027
v 0.172236 0.499799 0.066655
v 0.169475 0.503397 0.084027
v 0.169475 0.503397 0.066655
v 0.167148 0.512084 0.084027
v 0.167740 0.507587 0.066655
v 0.167740 0.507587 0.084027
v 0.167740 0.533953 0.084027
v 0.167740 0.507587 0.084027
v 0.169475 0.503397 0.084027
v 0.167740 0.507587 0.084027
v 0.169475 0.503397 0.066655
v 0.169475 0.503397 0.084027
v 0.169475 0.503397 0.066655
v 0.167740 0.507587 0.084027
v 0.167740 0.507587 0.066655
vn -1 0 0
vn -0.9914448878896857 0.13052599081182487 0
vn -0.9659258451755842 0.25881897461707376 0
vn -0.9914448878896857 -0.13052599081182487 0
vn -0.9659258451755842 -0.25881897461707376 0
vn 0 0 -1
vn -0.8660252955903434 0.5000001873976233 0
vn -0.8660252955903434 -0.5000001873976233 0
vn -0.7071067811865476 0.7071067811865476 0
vn -0.7071067811865476 -0.7071067811865476 0
vn -0.5000001873976233 0.8660252955903434 0
vn -0.5000001873976233 -0.8660252955903434 0
vn -0.25881897461707376 -0.9659258451755842 0
vn -0.13052599081182487 -0.9914448878896857 0
vn -0.25881897461707376 0.9659258451755842 0
vn 0 -1 0
vn 0.25881897461707376 -0.9659258451755842 0
vn 0.13052599081182487 -0.9914448878896857 0
vn -0.13052599081182487 0.9914448878896857 0
vn 0.5000001873976233 -0.8660252955903434 0
vn 0.7071067811865476 -0.7071067811865476 0
vn 0 1 0
vn 0.8660252955903434 -0.5000001873976233 0
vn 0.25881897461707376 0.9659258451755842 0
vn 0.13052599081182487 0.9914448878896857 0
vn 0.5000001873976233 0.8660252955903434 0
vn 1 0 0
vn 0.9659258451755842 -0.25881897461707376 0
vn 0.9914448878896857 -0.13052599081182487 0
vn 0.7071067811865476 0.7071067811865476 0
vn 0.8660252955903434 0.5000001873976233 0
vn 0.9914448878896857 0.13052599081182487 0
vn 0.9659258451755842 0.25881897461707376 0
vn 0 0 1
usemtl material_0_0
f 1//1 2//1 3//1
f 4//1 5//1 6//1
f 7//2 8//2 9//3
f 10//4 11//4 12//5
f 13//3 14//3 15//2
f 16//6 17//6 18//6
f 19//6 20//6 21//6
f 22//5 23//5 24//4
f 25//3 26//3 27//7
f 28//6 29//6 30//6
f 31//5 32//5 33//8
f 34//7 35//7 36//3
f 37//6 38//6 39//6
f 40//8 41//8 42//5
f 43//7 44//7 45//9
f 46//6 47//6 48//6
f 49//8 50//8 51//10
f 52//9 53//9 54//7
f 55//6 56//6 57//6
f 58//10 59//10 60//8
f 61//9 62//11 63//9
f 64//6 65//6 66//6
f 67//10 68//12 69//10
f 70//12 71//10 72//12
f 73//11 74//9 75//11
f 76//6 77//6 78//6
f 79//12 80//13 81//12
f 82//13 83//12 84//13
f 85//14 86//13 87//14
f 88//11 89//15 90//11
f 91//6 92//6 93//6
f 94//16 95//16 96//16
f 97//13 98//14 99//13
f 100//16 101//16 102//16
f 103//15 104//11 105//15
f 106//6 107//6 108//6
f 109//17 110//18 111//17
f 112//18 113//17 114//18
f 115//6 116//6 117//6
f 118//6 119//6 120//6
f 121//15 122//19 123//15
f 124//20 125//17 126//20
f 127//17 128//20 129//17
f 130//6 131//6 132//6
f 133//6 134//6 135//6
f 136//6 137//6 138//6
f 139//6 140//6 141//6
f 142//19 143//15 144//19
f 145//21 146//20 147//21
f 148//20 149//21 150//20
f 151//6 152//6 153//6
f 154//6 155//6 156//6
f 157//6 158//6 159//6
f 160//6 161//6 162//6
f 163//22 164//22 165//22
f 166//21 167//21 168//23
f 169//6 170//6 171//6
f 172//6 173//6 174//6
f 175//24 176//25 177//24
f 178//6 179//6 180//6
f 181//6 182//6 183//6
f 184//6 185//6 186//6
f 187//22 188//22 189//22
f 190//23 191//23 192//21
f 193//6 194//6 195//6
f 196//26 197//24 198//26
f 199//25 200//24 201//25
f 202//24 203//26 204//24
f 205//27 206//27 207//27
f 208//28 209//28 210//29
f 211//23 212//23 213//28
f 214//6 215//6 216//6
f 217//30 218//26 219//30
f 220//26 221//30 222//26
f 223//27 224//27 225//27
f 226//29 227//29 228//28
f 229//28 230//28 231//23
f 232//6 233//6 234//6
f 235//30 236//30 237//31
f 238//32 239//32 240//33
f 241//6 242//6 243//6
f 244//6 245//6 246//6
f 247//6 248//6 249//6
f 250//31 251//31 252//30
f 253//33 254//33 255//32
f 256//6 257//6 258//6
f 259//31 260//31 261//33
f 262//33 263//33 264//31
usemtl material_1_0
f 265//27 266//27 267//27
f 268//27 269//27 270//27
f 271//28 272//29 273//29
f 274//33 275//32 276//32
f 277//29 278//28 279//28
f 280//34 281//34 282//34
f 283//34 284//34 285//34
f 286//32 287//33 288//33
f 289//23 290//28 291//28
f 292//34 293//34 294//34
f 295//31 296//33 297//33
f 298//28 299//23 300//23
f 301//34 302//34 303//34
f 304//33 305//31 306//31
f 307//21 308//23 309//23
f 310//34 311//34 312//34
f 313//30 314//31 315//31
f 316//23 317//21 318//21
f 319//34 320//34 321//34
f 322//31 323//30 324//30
f 325//21 326//20 327//21
f 328//34 329//34 330//34
f 331//30 332//26 333//30
f 334//26 335//30 336//26
f 337//20 338//21 339//20
f 340//34 341//34 342//34
f 343//26 344//24 345//26
f 346//24 347//26 348//24
f 349//25 350//24 351//25
f 352//20 353//17 354//20
f 355//34 356//34 357//34
f 358//22 359//22 360//22
f 361//24 362//25 363//24
f 364//22 365//22 366//22
f 367//17 368//20 369//17
f 370//34 371//34 372//34
f 373//15 374//19 375//15
f 376//19 377//15 378//19
f 379//34 380//34 381//34
f 382//34 383//34 384//34
f 385//17 386//18 387//17
f 388//11 389//15 390//11
f 391//15 392//11 393//15
f 394//34 395//34 396//34
f 397//34 398//34 399//34
f 400//34 401//34 402//34
f 403//34 404//34 405//34
f 406//18 407//17 408//18
f 409//9 410//11 411//9
f 412//11 413//9 414//11
f 415//34 416//34 417//34
f 418//34 419//34 420//34
f 421//34 422//34 423//34
f 424//34 425//34 426//34
f 427//16 428//16 429//16
f 430//7 431//9 432//9
f 433//34 434//34 435//34
f 436//34 437//34 438//34
f 439//13 440//14 441//13
f 442//34 443//34 444//34
f 445//34 446//34 447//34
f 448//34 449//34 450//34
f 451//16 452//16 453//16
f 454//9 455//7 456//7
f 457//34 458//34 459//34
f 460//12 461//13 462//12
f 463//14 464//13 465//14
f 466//13 467//12 468//13
f 469//1 470//1 471//1
f 472//2 473//3 474//3
f 475//3 476//7 477//7
f 478//34 479//34 480//34
f 481//10 482//12 483//10
f 484//12 485//10 486//12
f 487//1 488//1 489//1
f 490//3 491//2 492//2
f 493//7 494//3 495//3
f 496//34 497//34 498//34
f 499//8 500//10 501//10
f 502//5 503//4 504//4
f 505//34 506//34 507//34
f 508//34 509//34 510//34
f 511//34 512//34 513//34
f 514//10 515//8 516//8
f 517//4 518//5 519//5
f 520//34 521//34 522//34
f 523//5 524//8 525//8
f 526//8 527//5 528//5
