# SSTK version 0.8.0
# 148
mtllib original-148.mtl
o mesh109/mesh109-geometry/material_4/component_5#mesh109-geometry
v -0.110223 0.533953 0.066655
v -0.110223 0.533953 0.084027
v -0.110815 0.529456 0.066655
v -0.105726 0.541741 0.066655
v -0.102128 0.544502 0.066655
v -0.105726 0.541741 0.084027
v -0.102128 0.544502 0.066655
v -0.097938 0.546237 0.066655
v -0.102128 0.544502 0.084027
v -0.097938 0.546237 0.066655
v -0.093442 0.546829 0.066655
v -0.097938 0.546237 0.084027
v -0.093442 0.546829 0.066655
v -0.041324 0.546829 0.066655
v -0.093442 0.546829 0.084027
v -0.110815 0.529456 0.084027
v -0.110815 0.529456 0.066655
v -0.110223 0.533953 0.084027
v -0.110223 0.533953 0.084027
v -0.110223 0.533953 0.066655
v -0.108487 0.538143 0.084027
v -0.105726 0.541741 0.066655
v -0.105726 0.541741 0.084027
v -0.108487 0.538143 0.066655
v -0.102128 0.544502 0.084027
v -0.105726 0.541741 0.084027
v -0.102128 0.544502 0.066655
v -0.097938 0.546237 0.084027
v -0.102128 0.544502 0.084027
v -0.097938 0.546237 0.066655
v -0.093442 0.546829 0.084027
v -0.097938 0.546237 0.084027
v -0.093442 0.546829 0.066655
v -0.041324 0.546829 0.084027
v -0.093442 0.546829 0.084027
v -0.041324 0.546829 0.066655
v -0.041324 0.546829 0.066655
v -0.036828 0.546237 0.066655
v -0.041324 0.546829 0.084027
v -0.108487 0.538143 0.066655
v -0.108487 0.538143 0.084027
v -0.110223 0.533953 0.066655
v -0.110815 0.529456 0.066655
v -0.110815 0.529456 0.084027
v -0.110815 0.512084 0.066655
v -0.110223 0.533953 0.084027
v -0.110223 0.507587 0.084027
v -0.110815 0.529456 0.084027
v -0.108487 0.538143 0.084027
v -0.108487 0.503397 0.084027
v -0.110223 0.533953 0.084027
v -0.108487 0.538143 0.084027
v -0.108487 0.538143 0.066655
v -0.105726 0.541741 0.084027
v -0.102128 0.544502 0.084027
v -0.102128 0.497038 0.084027
v -0.105726 0.541741 0.084027
v -0.097938 0.546237 0.084027
v -0.097938 0.495303 0.084027
v -0.102128 0.544502 0.084027
v -0.093442 0.546829 0.084027
v -0.093442 0.494711 0.084027
v -0.097938 0.546237 0.084027
v -0.041324 0.546829 0.084027
v -0.081090 0.538583 0.084027
v -0.093442 0.546829 0.084027
v -0.036828 0.546237 0.084027
v -0.041324 0.546829 0.084027
v -0.036828 0.546237 0.066655
v -0.036828 0.546237 0.066655
v -0.032638 0.544502 0.066655
v -0.036828 0.546237 0.084027
v -0.110815 0.512084 0.084027
v -0.110815 0.512084 0.066655
v -0.110815 0.529456 0.084027
v -0.110815 0.512084 0.084027
v -0.110815 0.529456 0.084027
v -0.110223 0.507587 0.084027
v -0.108487 0.503397 0.084027
v -0.110223 0.507587 0.084027
v -0.110223 0.533953 0.084027
v -0.105726 0.499799 0.084027
v -0.108487 0.503397 0.084027
v -0.108487 0.538143 0.084027
v -0.105726 0.541741 0.084027
v -0.105726 0.499799 0.084027
v -0.108487 0.538143 0.084027
v -0.102128 0.497038 0.084027
v -0.105726 0.499799 0.084027
v -0.105726 0.541741 0.084027
v -0.097938 0.495303 0.084027
v -0.102128 0.497038 0.084027
v -0.102128 0.544502 0.084027
v -0.093442 0.494711 0.084027
v -0.097938 0.495303 0.084027
v -0.097938 0.546237 0.084027
v -0.081090 0.503838 0.084027
v -0.093442 0.494711 0.084027
v -0.093442 0.546829 0.084027
v -0.081090 0.503838 0.084027
v -0.093442 0.546829 0.084027
v -0.081090 0.538583 0.084027
v -0.072404 0.538583 0.084027
v -0.081090 0.538583 0.084027
v -0.041324 0.546829 0.084027
v -0.036828 0.546237 0.084027
v -0.036828 0.495303 0.084027
v -0.041324 0.546829 0.084027
v -0.032638 0.544502 0.084027
v -0.036828 0.546237 0.084027
v -0.032638 0.544502 0.066655
v -0.032638 0.544502 0.066655
v -0.029040 0.541741 0.066655
v -0.032638 0.544502 0.084027
v -0.110815 0.512084 0.066655
v -0.110815 0.512084 0.084027
v -0.110223 0.507587 0.066655
v -0.110223 0.507587 0.084027
v -0.110223 0.507587 0.066655
v -0.110815 0.512084 0.084027
v -0.108487 0.503397 0.084027
v -0.108487 0.503397 0.066655
v -0.110223 0.507587 0.084027
v -0.105726 0.499799 0.084027
v -0.105726 0.499799 0.066655
v -0.108487 0.503397 0.084027
v -0.105726 0.499799 0.084027
v -0.102128 0.497038 0.084027
v -0.105726 0.499799 0.066655
v -0.102128 0.497038 0.084027
v -0.097938 0.495303 0.084027
v -0.102128 0.497038 0.066655
v -0.097938 0.495303 0.084027
v -0.093442 0.494711 0.084027
v -0.097938 0.495303 0.066655
v -0.041324 0.494711 0.084027
v -0.093442 0.494711 0.084027
v -0.081090 0.503838 0.084027
v -0.062612 0.538583 0.084027
v -0.072404 0.538583 0.084027
v -0.041324 0.546829 0.084027
v -0.036828 0.495303 0.084027
v -0.041324 0.494711 0.084027
v -0.041324 0.546829 0.084027
v -0.032638 0.497038 0.084027
v -0.036828 0.495303 0.084027
v -0.036828 0.546237 0.084027
v -0.032638 0.544502 0.084027
v -0.032638 0.497038 0.084027
v -0.036828 0.546237 0.084027
v -0.029040 0.541741 0.084027
v -0.032638 0.544502 0.084027
v -0.029040 0.541741 0.066655
v -0.026279 0.538143 0.066655
v -0.026279 0.538143 0.084027
v -0.029040 0.541741 0.066655
v -0.110223 0.507587 0.066655
v -0.110223 0.507587 0.084027
v -0.108487 0.503397 0.066655
v -0.108487 0.503397 0.066655
v -0.108487 0.503397 0.084027
v -0.105726 0.499799 0.066655
v -0.102128 0.497038 0.066655
v -0.105726 0.499799 0.066655
v -0.102128 0.497038 0.084027
v -0.097938 0.495303 0.066655
v -0.102128 0.497038 0.066655
v -0.097938 0.495303 0.084027
v -0.093442 0.494711 0.066655
v -0.097938 0.495303 0.066655
v -0.093442 0.494711 0.084027
v -0.093442 0.494711 0.084027
v -0.041324 0.494711 0.084027
v -0.093442 0.494711 0.066655
v -0.072404 0.503838 0.084027
v -0.041324 0.494711 0.084027
v -0.081090 0.503838 0.084027
v -0.072404 0.538583 0.084027
v -0.062612 0.503838 0.084027
v -0.072404 0.503838 0.084027
v -0.062612 0.503838 0.084027
v -0.072404 0.538583 0.084027
v -0.062612 0.538583 0.084027
v -0.053925 0.538583 0.084027
v -0.062612 0.538583 0.084027
v -0.041324 0.546829 0.084027
v -0.041324 0.494711 0.084027
v -0.053925 0.538583 0.084027
v -0.041324 0.546829 0.084027
v -0.041324 0.494711 0.084027
v -0.036828 0.495303 0.084027
v -0.041324 0.494711 0.066655
v -0.036828 0.495303 0.084027
v -0.032638 0.497038 0.084027
v -0.036828 0.495303 0.066655
v -0.029040 0.499799 0.084027
v -0.032638 0.497038 0.084027
v -0.032638 0.544502 0.084027
v -0.029040 0.541741 0.084027
v -0.029040 0.499799 0.084027
v -0.032638 0.544502 0.084027
v -0.029040 0.541741 0.084027
v -0.029040 0.541741 0.066655
v -0.026279 0.538143 0.084027
v -0.026279 0.538143 0.084027
v -0.026279 0.538143 0.066655
v -0.024544 0.533953 0.084027
v -0.024544 0.533953 0.066655
v -0.024544 0.533953 0.084027
v -0.026279 0.538143 0.066655
v -0.023951 0.529456 0.066655
v -0.023951 0.529456 0.084027
v -0.024544 0.533953 0.066655
v -0.041324 0.494711 0.066655
v -0.093442 0.494711 0.066655
v -0.041324 0.494711 0.084027
v -0.062612 0.503838 0.084027
v -0.041324 0.494711 0.084027
v -0.072404 0.503838 0.084027
v -0.053925 0.538583 0.084027
v -0.041324 0.494711 0.084027
v -0.053925 0.503838 0.084027
v -0.036828 0.495303 0.066655
v -0.041324 0.494711 0.066655
v -0.036828 0.495303 0.084027
v -0.032638 0.497038 0.066655
v -0.036828 0.495303 0.066655
v -0.032638 0.497038 0.084027
v -0.032638 0.497038 0.084027
v -0.029040 0.499799 0.084027
v -0.032638 0.497038 0.066655
v -0.026279 0.503397 0.084027
v -0.029040 0.499799 0.084027
v -0.029040 0.541741 0.084027
v -0.026279 0.538143 0.084027
v -0.026279 0.503397 0.084027
v -0.029040 0.541741 0.084027
v -0.024544 0.533953 0.084027
v -0.024544 0.507587 0.084027
v -0.026279 0.538143 0.084027
v -0.024544 0.533953 0.084027
v -0.024544 0.533953 0.066655
v -0.023951 0.529456 0.084027
v -0.023951 0.529456 0.084027
v -0.023951 0.529456 0.066655
v -0.023951 0.512084 0.084027
v -0.023951 0.512084 0.066655
v -0.023951 0.512084 0.084027
v -0.023951 0.529456 0.066655
v -0.053925 0.503838 0.084027
v -0.041324 0.494711 0.084027
v -0.062612 0.503838 0.084027
v -0.029040 0.499799 0.066655
v -0.032638 0.497038 0.066655
v -0.029040 0.499799 0.084027
v -0.026279 0.503397 0.084027
v -0.026279 0.503397 0.066655
v -0.029040 0.499799 0.084027
v -0.024544 0.507587 0.084027
v -0.026279 0.503397 0.084027
v -0.026279 0.538143 0.084027
v -0.023951 0.512084 0.084027
v -0.024544 0.507587 0.084027
v -0.024544 0.533953 0.084027
v -0.023951 0.529456 0.084027
v -0.023951 0.512084 0.084027
v -0.024544 0.533953 0.084027
v -0.024544 0.507587 0.066655
v -0.024544 0.507587 0.084027
v -0.023951 0.512084 0.066655
v -0.023951 0.512084 0.084027
v -0.023951 0.512084 0.066655
v -0.024544 0.507587 0.084027
v -0.029040 0.499799 0.066655
v -0.029040 0.499799 0.084027
v -0.026279 0.503397 0.066655
v -0.026279 0.503397 0.066655
v -0.026279 0.503397 0.084027
v -0.024544 0.507587 0.066655
v -0.024544 0.507587 0.084027
v -0.024544 0.507587 0.066655
v -0.026279 0.503397 0.084027
v -0.110815 0.529456 0.066655
v -0.110223 0.533953 0.084027
v -0.110223 0.533953 0.066655
v -0.105726 0.541741 0.084027
v -0.102128 0.544502 0.066655
v -0.105726 0.541741 0.066655
v -0.102128 0.544502 0.084027
v -0.097938 0.546237 0.066655
v -0.102128 0.544502 0.066655
v -0.097938 0.546237 0.084027
v -0.093442 0.546829 0.066655
v -0.097938 0.546237 0.066655
v -0.093442 0.546829 0.084027
v -0.041324 0.546829 0.066655
v -0.093442 0.546829 0.066655
v -0.110223 0.533953 0.084027
v -0.110815 0.529456 0.066655
v -0.110815 0.529456 0.084027
v -0.108487 0.538143 0.084027
v -0.110223 0.533953 0.066655
v -0.110223 0.533953 0.084027
v -0.108487 0.538143 0.066655
v -0.105726 0.541741 0.084027
v -0.105726 0.541741 0.066655
v -0.102128 0.544502 0.066655
v -0.105726 0.541741 0.084027
v -0.102128 0.544502 0.084027
v -0.097938 0.546237 0.066655
v -0.102128 0.544502 0.084027
v -0.097938 0.546237 0.084027
v -0.093442 0.546829 0.066655
v -0.097938 0.546237 0.084027
v -0.093442 0.546829 0.084027
v -0.041324 0.546829 0.066655
v -0.093442 0.546829 0.084027
v -0.041324 0.546829 0.084027
v -0.041324 0.546829 0.084027
v -0.036828 0.546237 0.066655
v -0.041324 0.546829 0.066655
v -0.110223 0.533953 0.066655
v -0.108487 0.538143 0.084027
v -0.108487 0.538143 0.066655
v -0.110815 0.512084 0.066655
v -0.110815 0.529456 0.084027
v -0.110815 0.529456 0.066655
v -0.110815 0.529456 0.084027
v -0.110223 0.507587 0.084027
v -0.110223 0.533953 0.084027
v -0.110223 0.533953 0.084027
v -0.108487 0.503397 0.084027
v -0.108487 0.538143 0.084027
v -0.105726 0.541741 0.084027
v -0.108487 0.538143 0.066655
v -0.108487 0.538143 0.084027
v -0.105726 0.541741 0.084027
v -0.102128 0.497038 0.084027
v -0.102128 0.544502 0.084027
v -0.102128 0.544502 0.084027
v -0.097938 0.495303 0.084027
v -0.097938 0.546237 0.084027
v -0.097938 0.546237 0.084027
v -0.093442 0.494711 0.084027
v -0.093442 0.546829 0.084027
v -0.093442 0.546829 0.084027
v -0.081090 0.538583 0.084027
v -0.041324 0.546829 0.084027
v -0.036828 0.546237 0.066655
v -0.041324 0.546829 0.084027
v -0.036828 0.546237 0.084027
v -0.036828 0.546237 0.084027
v -0.032638 0.544502 0.066655
v -0.036828 0.546237 0.066655
v -0.110815 0.529456 0.084027
v -0.110815 0.512084 0.066655
v -0.110815 0.512084 0.084027
v -0.110223 0.507587 0.084027
v -0.110815 0.529456 0.084027
v -0.110815 0.512084 0.084027
v -0.110223 0.533953 0.084027
v -0.110223 0.507587 0.084027
v -0.108487 0.503397 0.084027
v -0.108487 0.538143 0.084027
v -0.108487 0.503397 0.084027
v -0.105726 0.499799 0.084027
v -0.108487 0.538143 0.084027
v -0.105726 0.499799 0.084027
v -0.105726 0.541741 0.084027
v -0.105726 0.541741 0.084027
v -0.105726 0.499799 0.084027
v -0.102128 0.497038 0.084027
v -0.102128 0.544502 0.084027
v -0.102128 0.497038 0.084027
v -0.097938 0.495303 0.084027
v -0.097938 0.546237 0.084027
v -0.097938 0.495303 0.084027
v -0.093442 0.494711 0.084027
v -0.093442 0.546829 0.084027
v -0.093442 0.494711 0.084027
v -0.081090 0.503838 0.084027
v -0.081090 0.538583 0.084027
v -0.093442 0.546829 0.084027
v -0.081090 0.503838 0.084027
v -0.041324 0.546829 0.084027
v -0.081090 0.538583 0.084027
v -0.072404 0.538583 0.084027
v -0.041324 0.546829 0.084027
v -0.036828 0.495303 0.084027
v -0.036828 0.546237 0.084027
v -0.032638 0.544502 0.066655
v -0.036828 0.546237 0.084027
v -0.032638 0.544502 0.084027
v -0.032638 0.544502 0.084027
v -0.029040 0.541741 0.066655
v -0.032638 0.544502 0.066655
v -0.110223 0.507587 0.066655
v -0.110815 0.512084 0.084027
v -0.110815 0.512084 0.066655
v -0.110815 0.512084 0.084027
v -0.110223 0.507587 0.066655
v -0.110223 0.507587 0.084027
v -0.110223 0.507587 0.084027
v -0.108487 0.503397 0.066655
v -0.108487 0.503397 0.084027
v -0.108487 0.503397 0.084027
v -0.105726 0.499799 0.066655
v -0.105726 0.499799 0.084027
v -0.105726 0.499799 0.066655
v -0.102128 0.497038 0.084027
v -0.105726 0.499799 0.084027
v -0.102128 0.497038 0.066655
v -0.097938 0.495303 0.084027
v -0.102128 0.497038 0.084027
v -0.097938 0.495303 0.066655
v -0.093442 0.494711 0.084027
v -0.097938 0.495303 0.084027
v -0.081090 0.503838 0.084027
v -0.093442 0.494711 0.084027
v -0.041324 0.494711 0.084027
v -0.041324 0.546829 0.084027
v -0.072404 0.538583 0.084027
v -0.062612 0.538583 0.084027
v -0.041324 0.546829 0.084027
v -0.041324 0.494711 0.084027
v -0.036828 0.495303 0.084027
v -0.036828 0.546237 0.084027
v -0.036828 0.495303 0.084027
v -0.032638 0.497038 0.084027
v -0.036828 0.546237 0.084027
v -0.032638 0.497038 0.084027
v -0.032638 0.544502 0.084027
v -0.029040 0.541741 0.066655
v -0.032638 0.544502 0.084027
v -0.029040 0.541741 0.084027
v -0.029040 0.541741 0.066655
v -0.026279 0.538143 0.084027
v -0.026279 0.538143 0.066655
v -0.108487 0.503397 0.066655
v -0.110223 0.507587 0.084027
v -0.110223 0.507587 0.066655
v -0.105726 0.499799 0.066655
v -0.108487 0.503397 0.084027
v -0.108487 0.503397 0.066655
v -0.102128 0.497038 0.084027
v -0.105726 0.499799 0.066655
v -0.102128 0.497038 0.066655
v -0.097938 0.495303 0.084027
v -0.102128 0.497038 0.066655
v -0.097938 0.495303 0.066655
v -0.093442 0.494711 0.084027
v -0.097938 0.495303 0.066655
v -0.093442 0.494711 0.066655
v -0.093442 0.494711 0.066655
v -0.041324 0.494711 0.084027
v -0.093442 0.494711 0.084027
v -0.081090 0.503838 0.084027
v -0.041324 0.494711 0.084027
v -0.072404 0.503838 0.084027
v -0.072404 0.503838 0.084027
v -0.062612 0.503838 0.084027
v -0.072404 0.538583 0.084027
v -0.062612 0.538583 0.084027
v -0.072404 0.538583 0.084027
v -0.062612 0.503838 0.084027
v -0.041324 0.546829 0.084027
v -0.062612 0.538583 0.084027
v -0.053925 0.538583 0.084027
v -0.041324 0.546829 0.084027
v -0.053925 0.538583 0.084027
v -0.041324 0.494711 0.084027
v -0.041324 0.494711 0.066655
v -0.036828 0.495303 0.084027
v -0.041324 0.494711 0.084027
v -0.036828 0.495303 0.066655
v -0.032638 0.497038 0.084027
v -0.036828 0.495303 0.084027
v -0.032638 0.544502 0.084027
v -0.032638 0.497038 0.084027
v -0.029040 0.499799 0.084027
v -0.032638 0.544502 0.084027
v -0.029040 0.499799 0.084027
v -0.029040 0.541741 0.084027
v -0.026279 0.538143 0.084027
v -0.029040 0.541741 0.066655
v -0.029040 0.541741 0.084027
v -0.024544 0.533953 0.084027
v -0.026279 0.538143 0.066655
v -0.026279 0.538143 0.084027
v -0.026279 0.538143 0.066655
v -0.024544 0.533953 0.084027
v -0.024544 0.533953 0.066655
v -0.024544 0.533953 0.066655
v -0.023951 0.529456 0.084027
v -0.023951 0.529456 0.066655
v -0.041324 0.494711 0.084027
v -0.093442 0.494711 0.066655
v -0.041324 0.494711 0.066655
v -0.072404 0.503838 0.084027
v -0.041324 0.494711 0.084027
v -0.062612 0.503838 0.084027
v -0.053925 0.503838 0.084027
v -0.041324 0.494711 0.084027
v -0.053925 0.538583 0.084027
v -0.036828 0.495303 0.084027
v -0.041324 0.494711 0.066655
v -0.036828 0.495303 0.066655
v -0.032638 0.497038 0.084027
v -0.036828 0.495303 0.066655
v -0.032638 0.497038 0.066655
v -0.032638 0.497038 0.066655
v -0.029040 0.499799 0.084027
v -0.032638 0.497038 0.084027
v -0.029040 0.541741 0.084027
v -0.029040 0.499799 0.084027
v -0.026279 0.503397 0.084027
v -0.029040 0.541741 0.084027
v -0.026279 0.503397 0.084027
v -0.026279 0.538143 0.084027
v -0.026279 0.538143 0.084027
v -0.024544 0.507587 0.084027
v -0.024544 0.533953 0.084027
v -0.023951 0.529456 0.084027
v -0.024544 0.533953 0.066655
v -0.024544 0.533953 0.084027
v -0.023951 0.512084 0.084027
v -0.023951 0.529456 0.066655
v -0.023951 0.529456 0.084027
v -0.023951 0.529456 0.066655
v -0.023951 0.512084 0.084027
v -0.023951 0.512084 0.066655
v -0.062612 0.503838 0.084027
v -0.041324 0.494711 0.084027
v -0.053925 0.503838 0.084027
v -0.029040 0.499799 0.084027
v -0.032638 0.497038 0.066655
v -0.029040 0.499799 0.066655
v -0.029040 0.499799 0.084027
v -0.026279 0.503397 0.066655
v -0.026279 0.503397 0.084027
v -0.026279 0.538143 0.084027
v -0.026279 0.503397 0.084027
v -0.024544 0.507587 0.084027
v -0.024544 0.533953 0.084027
v -0.024544 0.507587 0.084027
v -0.023951 0.512084 0.084027
v -0.024544 0.533953 0.084027
v -0.023951 0.512084 0.084027
v -0.023951 0.529456 0.084027
v -0.023951 0.512084 0.066655
v -0.024544 0.507587 0.084027
v -0.024544 0.507587 0.066655
v -0.024544 0.507587 0.084027
v -0.023951 0.512084 0.066655
v -0.023951 0.512084 0.084027
v -0.026279 0.503397 0.066655
v -0.029040 0.499799 0.084027
v -0.029040 0.499799 0.066655
v -0.024544 0.507587 0.066655
v -0.026279 0.503397 0.084027
v -0.026279 0.503397 0.066655
v -0.026279 0.503397 0.084027
v -0.024544 0.507587 0.066655
v -0.024544 0.507587 0.084027
vn 0.9659258451755842 -0.25881897461707376 0
vn 0.9914448878896857 -0.13052599081182487 0
vn 0.7071067811865476 -0.7071067811865476 0
vn 0.5000001873976233 -0.8660252955903434 0
vn 0.25881897461707376 -0.9659258451755842 0
vn 0.13052599081182487 -0.9914448878896857 0
vn 0 -1 0
vn 0.8660252955903434 -0.5000001873976233 0
vn -0.13052599081182487 -0.9914448878896857 0
vn -0.25881897461707376 -0.9659258451755842 0
vn 1 0 0
vn 0 0 -1
vn -0.5000001873976233 -0.8660252955903434 0
vn -0.7071067811865476 -0.7071067811865476 0
vn 0.9914448878896857 0.13052599081182487 0
vn 0.9659258451755842 0.25881897461707376 0
vn 0.8660252955903434 0.5000001873976233 0
vn 0.7071067811865476 0.7071067811865476 0
vn 0.5000001873976233 0.8660252955903434 0
vn 0.25881897461707376 0.9659258451755842 0
vn 0.13052599081182487 0.9914448878896857 0
vn -0.8660252955903434 -0.5000001873976233 0
vn 0 1 0
vn -0.13052599081182487 0.9914448878896857 0
vn -0.25881897461707376 0.9659258451755842 0
vn -0.5000001873976233 0.8660252955903434 0
vn -0.9659258451755842 -0.25881897461707376 0
vn -0.9914448878896857 -0.13052599081182487 0
vn -0.7071067811865476 0.7071067811865476 0
vn -1 0 0
vn -0.8660252955903434 0.5000001873976233 0
vn -0.9659258451755842 0.25881897461707376 0
vn -0.9914448878896857 0.13052599081182487 0
vn 0 0 1
usemtl material_0_0
f 1//1 2//1 3//2
f 4//3 5//4 6//3
f 7//4 8//5 9//4
f 10//5 11//6 12//5
f 13//7 14//7 15//7
f 16//2 17//2 18//1
f 19//1 20//1 21//8
f 22//3 23//3 24//8
f 25//4 26//3 27//4
f 28//5 29//4 30//5
f 31//6 32//5 33//6
f 34//7 35//7 36//7
f 37//9 38//10 39//9
f 40//8 41//8 42//1
f 43//11 44//11 45//11
f 46//12 47//12 48//12
f 49//12 50//12 51//12
f 52//8 53//8 54//3
f 55//12 56//12 57//12
f 58//12 59//12 60//12
f 61//12 62//12 63//12
f 64//12 65//12 66//12
f 67//10 68//9 69//10
f 70//10 71//13 72//10
f 73//11 74//11 75//11
f 76//12 77//12 78//12
f 79//12 80//12 81//12
f 82//12 83//12 84//12
f 85//12 86//12 87//12
f 88//12 89//12 90//12
f 91//12 92//12 93//12
f 94//12 95//12 96//12
f 97//12 98//12 99//12
f 100//12 101//12 102//12
f 103//12 104//12 105//12
f 106//12 107//12 108//12
f 109//13 110//10 111//13
f 112//13 113//14 114//13
f 115//15 116//15 117//16
f 118//16 119//16 120//15
f 121//17 122//17 123//16
f 124//18 125//18 126//17
f 127//18 128//19 129//18
f 130//19 131//20 132//19
f 133//20 134//21 135//20
f 136//12 137//12 138//12
f 139//12 140//12 141//12
f 142//12 143//12 144//12
f 145//12 146//12 147//12
f 148//12 149//12 150//12
f 151//14 152//13 153//14
f 154//22 155//22 156//14
f 157//16 158//16 159//17
f 160//17 161//17 162//18
f 163//19 164//18 165//19
f 166//20 167//19 168//20
f 169//21 170//20 171//21
f 172//23 173//23 174//23
f 175//12 176//12 177//12
f 178//12 179//12 180//12
f 181//12 182//12 183//12
f 184//12 185//12 186//12
f 187//12 188//12 189//12
f 190//24 191//25 192//24
f 193//25 194//26 195//25
f 196//12 197//12 198//12
f 199//12 200//12 201//12
f 202//14 203//14 204//22
f 205//22 206//22 207//27
f 208//27 209//27 210//22
f 211//28 212//28 213//27
f 214//23 215//23 216//23
f 217//12 218//12 219//12
f 220//12 221//12 222//12
f 223//25 224//24 225//25
f 226//26 227//25 228//26
f 229//26 230//29 231//26
f 232//12 233//12 234//12
f 235//12 236//12 237//12
f 238//12 239//12 240//12
f 241//27 242//27 243//28
f 244//30 245//30 246//30
f 247//30 248//30 249//30
f 250//12 251//12 252//12
f 253//29 254//26 255//29
f 256//31 257//31 258//29
f 259//12 260//12 261//12
f 262//12 263//12 264//12
f 265//12 266//12 267//12
f 268//32 269//32 270//33
f 271//33 272//33 273//32
f 274//29 275//29 276//31
f 277//31 278//31 279//32
f 280//32 281//32 282//31
usemtl material_1_0
f 283//33 284//32 285//32
f 286//29 287//26 288//29
f 289//26 290//25 291//26
f 292//25 293//24 294//25
f 295//23 296//23 297//23
f 298//32 299//33 300//33
f 301//31 302//32 303//32
f 304//31 305//29 306//29
f 307//26 308//29 309//26
f 310//25 311//26 312//25
f 313//24 314//25 315//24
f 316//23 317//23 318//23
f 319//21 320//20 321//21
f 322//32 323//31 324//31
f 325//30 326//30 327//30
f 328//34 329//34 330//34
f 331//34 332//34 333//34
f 334//29 335//31 336//31
f 337//34 338//34 339//34
f 340//34 341//34 342//34
f 343//34 344//34 345//34
f 346//34 347//34 348//34
f 349//20 350//21 351//20
f 352//20 353//19 354//20
f 355//30 356//30 357//30
f 358//34 359//34 360//34
f 361//34 362//34 363//34
f 364//34 365//34 366//34
f 367//34 368//34 369//34
f 370//34 371//34 372//34
f 373//34 374//34 375//34
f 376//34 377//34 378//34
f 379//34 380//34 381//34
f 382//34 383//34 384//34
f 385//34 386//34 387//34
f 388//34 389//34 390//34
f 391//19 392//20 393//19
f 394//19 395//18 396//19
f 397//27 398//28 399//28
f 400//28 401//27 402//27
f 403//27 404//22 405//22
f 406//22 407//14 408//14
f 409//14 410//13 411//14
f 412//13 413//10 414//13
f 415//10 416//9 417//10
f 418//34 419//34 420//34
f 421//34 422//34 423//34
f 424//34 425//34 426//34
f 427//34 428//34 429//34
f 430//34 431//34 432//34
f 433//18 434//19 435//18
f 436//18 437//17 438//17
f 439//22 440//27 441//27
f 442//14 443//22 444//22
f 445//13 446//14 447//13
f 448//10 449//13 450//10
f 451//9 452//10 453//9
f 454//7 455//7 456//7
f 457//34 458//34 459//34
f 460//34 461//34 462//34
f 463//34 464//34 465//34
f 466//34 467//34 468//34
f 469//34 470//34 471//34
f 472//6 473//5 474//6
f 475//5 476//4 477//5
f 478//34 479//34 480//34
f 481//34 482//34 483//34
f 484//17 485//18 486//18
f 487//16 488//17 489//17
f 490//17 491//16 492//16
f 493//16 494//15 495//15
f 496//7 497//7 498//7
f 499//34 500//34 501//34
f 502//34 503//34 504//34
f 505//5 506//6 507//5
f 508//4 509//5 510//4
f 511//4 512//3 513//4
f 514//34 515//34 516//34
f 517//34 518//34 519//34
f 520//34 521//34 522//34
f 523//15 524//16 525//16
f 526//11 527//11 528//11
f 529//11 530//11 531//11
f 532//34 533//34 534//34
f 535//3 536//4 537//3
f 538//3 539//8 540//8
f 541//34 542//34 543//34
f 544//34 545//34 546//34
f 547//34 548//34 549//34
f 550//2 551//1 552//1
f 553//1 554//2 555//2
f 556//8 557//3 558//3
f 559//1 560//8 561//8
f 562//8 563//1 564//1
