# SSTK version 0.8.0
# 62
mtllib original-62.mtl
o mesh55/mesh55-geometry#mesh55-geometry
v 0.051474 0.337802 0.066742
v 0.053671 0.335850 0.066742
v 0.051474 0.321284 0.066742
v 0.062357 0.337802 0.066742
v 0.053671 0.323237 0.066742
v 0.062357 0.335850 0.066742
v 0.062357 0.321284 0.066742
v 0.053671 0.331324 0.066742
v 0.062357 0.323237 0.066742
v 0.053671 0.329371 0.066742
v 0.062357 0.331324 0.066742
v 0.062357 0.329371 0.066742
vn 0 0 -1
vn 0 0 1
usemtl material_0_0
f 1//1 2//1 3//1
f 2//1 1//1 4//1
f 3//2 2//2 1//2
f 4//2 1//2 2//2
f 5//1 3//1 2//1
f 2//2 3//2 5//2
f 2//1 4//1 6//1
f 6//2 4//2 2//2
f 3//1 5//1 7//1
f 7//2 5//2 3//2
f 5//1 2//1 8//1
f 8//2 2//2 5//2
f 7//1 5//1 9//1
f 9//2 5//2 7//2
f 5//1 8//1 10//1
f 10//2 8//2 5//2
f 11//1 10//1 8//1
f 8//2 10//2 11//2
f 10//1 11//1 12//1
f 12//2 11//2 10//2
