# SSTK version 0.8.0
# 147
mtllib original-147.mtl
o mesh109/mesh109-geometry/material_4/component_4#mesh109-geometry
v 0.115030 0.651065 0.066655
v 0.115030 0.651065 0.084027
v 0.114438 0.655561 0.066655
v 0.114438 0.655561 0.066655
v 0.114438 0.655561 0.084027
v 0.112702 0.659751 0.066655
v 0.114438 0.655561 0.084027
v 0.114438 0.655561 0.066655
v 0.115030 0.651065 0.084027
v 0.115030 0.651065 0.084027
v 0.115030 0.651065 0.066655
v 0.115030 0.633692 0.084027
v 0.112702 0.659751 0.066655
v 0.112702 0.659751 0.084027
v 0.109941 0.663349 0.066655
v 0.112702 0.659751 0.084027
v 0.112702 0.659751 0.066655
v 0.114438 0.655561 0.084027
v 0.115030 0.651065 0.084027
v 0.115030 0.633692 0.084027
v 0.114438 0.655561 0.084027
v 0.115030 0.633692 0.066655
v 0.115030 0.633692 0.084027
v 0.115030 0.651065 0.066655
v 0.106343 0.666110 0.066655
v 0.109941 0.663349 0.066655
v 0.106343 0.666110 0.084027
v 0.109941 0.663349 0.084027
v 0.109941 0.663349 0.066655
v 0.112702 0.659751 0.084027
v 0.114438 0.655561 0.084027
v 0.114438 0.629196 0.084027
v 0.112702 0.659751 0.084027
v 0.115030 0.633692 0.084027
v 0.114438 0.629196 0.084027
v 0.114438 0.655561 0.084027
v 0.115030 0.633692 0.084027
v 0.115030 0.633692 0.066655
v 0.114438 0.629196 0.084027
v 0.102153 0.667845 0.066655
v 0.106343 0.666110 0.066655
v 0.102153 0.667845 0.084027
v 0.109941 0.663349 0.084027
v 0.106343 0.666110 0.084027
v 0.109941 0.663349 0.066655
v 0.106343 0.666110 0.084027
v 0.102153 0.667845 0.084027
v 0.106343 0.666110 0.066655
v 0.112702 0.659751 0.084027
v 0.112702 0.625006 0.084027
v 0.109941 0.663349 0.084027
v 0.114438 0.629196 0.084027
v 0.112702 0.625006 0.084027
v 0.112702 0.659751 0.084027
v 0.114438 0.629196 0.066655
v 0.114438 0.629196 0.084027
v 0.115030 0.633692 0.066655
v 0.097657 0.668438 0.066655
v 0.102153 0.667845 0.066655
v 0.097657 0.668438 0.084027
v 0.102153 0.667845 0.084027
v 0.097657 0.668438 0.084027
v 0.102153 0.667845 0.066655
v 0.109941 0.663349 0.084027
v 0.109941 0.621408 0.084027
v 0.106343 0.666110 0.084027
v 0.106343 0.666110 0.084027
v 0.106343 0.618647 0.084027
v 0.102153 0.667845 0.084027
v 0.112702 0.625006 0.084027
v 0.109941 0.621408 0.084027
v 0.109941 0.663349 0.084027
v 0.114438 0.629196 0.084027
v 0.114438 0.629196 0.066655
v 0.112702 0.625006 0.084027
v 0.045539 0.668438 0.066655
v 0.097657 0.668438 0.066655
v 0.045539 0.668438 0.084027
v 0.097657 0.668438 0.084027
v 0.045539 0.668438 0.084027
v 0.097657 0.668438 0.066655
v 0.102153 0.667845 0.084027
v 0.102153 0.616912 0.084027
v 0.097657 0.668438 0.084027
v 0.109941 0.621408 0.084027
v 0.106343 0.618647 0.084027
v 0.106343 0.666110 0.084027
v 0.106343 0.618647 0.084027
v 0.102153 0.616912 0.084027
v 0.102153 0.667845 0.084027
v 0.112702 0.625006 0.084027
v 0.112702 0.625006 0.066655
v 0.109941 0.621408 0.084027
v 0.112702 0.625006 0.066655
v 0.112702 0.625006 0.084027
v 0.114438 0.629196 0.066655
v 0.041043 0.667845 0.066655
v 0.045539 0.668438 0.066655
v 0.041043 0.667845 0.084027
v 0.045539 0.668438 0.084027
v 0.041043 0.667845 0.084027
v 0.045539 0.668438 0.066655
v 0.097657 0.668438 0.084027
v 0.097657 0.616320 0.084027
v 0.045539 0.668438 0.084027
v 0.102153 0.616912 0.084027
v 0.097657 0.616320 0.084027
v 0.097657 0.668438 0.084027
v 0.106343 0.618647 0.084027
v 0.109941 0.621408 0.084027
v 0.106343 0.618647 0.066655
v 0.102153 0.616912 0.084027
v 0.106343 0.618647 0.084027
v 0.102153 0.616912 0.066655
v 0.109941 0.621408 0.066655
v 0.109941 0.621408 0.084027
v 0.112702 0.625006 0.066655
v 0.033255 0.663349 0.066655
v 0.036853 0.666110 0.066655
v 0.033255 0.663349 0.084027
v 0.036853 0.666110 0.066655
v 0.041043 0.667845 0.066655
v 0.036853 0.666110 0.084027
v 0.041043 0.667845 0.084027
v 0.036853 0.666110 0.084027
v 0.041043 0.667845 0.066655
v 0.045539 0.668438 0.084027
v 0.045539 0.616320 0.084027
v 0.041043 0.667845 0.084027
v 0.097657 0.616320 0.084027
v 0.045539 0.616320 0.084027
v 0.045539 0.668438 0.084027
v 0.097657 0.616320 0.084027
v 0.102153 0.616912 0.084027
v 0.097657 0.616320 0.066655
v 0.109941 0.621408 0.066655
v 0.106343 0.618647 0.066655
v 0.109941 0.621408 0.084027
v 0.106343 0.618647 0.066655
v 0.102153 0.616912 0.066655
v 0.106343 0.618647 0.084027
v 0.102153 0.616912 0.066655
v 0.097657 0.616320 0.066655
v 0.102153 0.616912 0.084027
v 0.033255 0.663349 0.066655
v 0.033255 0.663349 0.084027
v 0.030494 0.659751 0.066655
v 0.036853 0.666110 0.084027
v 0.033255 0.663349 0.084027
v 0.036853 0.666110 0.066655
v 0.041043 0.667845 0.084027
v 0.041043 0.616912 0.084027
v 0.036853 0.666110 0.084027
v 0.045539 0.616320 0.084027
v 0.041043 0.616912 0.084027
v 0.041043 0.667845 0.084027
v 0.045539 0.616320 0.084027
v 0.097657 0.616320 0.084027
v 0.045539 0.616320 0.066655
v 0.097657 0.616320 0.066655
v 0.045539 0.616320 0.066655
v 0.097657 0.616320 0.084027
v 0.030494 0.659751 0.066655
v 0.030494 0.659751 0.084027
v 0.028759 0.655561 0.066655
v 0.030494 0.659751 0.084027
v 0.030494 0.659751 0.066655
v 0.033255 0.663349 0.084027
v 0.036853 0.666110 0.084027
v 0.036853 0.618647 0.084027
v 0.033255 0.663349 0.084027
v 0.041043 0.616912 0.084027
v 0.036853 0.618647 0.084027
v 0.036853 0.666110 0.084027
v 0.041043 0.616912 0.084027
v 0.045539 0.616320 0.084027
v 0.041043 0.616912 0.066655
v 0.045539 0.616320 0.066655
v 0.041043 0.616912 0.066655
v 0.045539 0.616320 0.084027
v 0.028759 0.655561 0.066655
v 0.028759 0.655561 0.084027
v 0.028166 0.651065 0.066655
v 0.028759 0.655561 0.084027
v 0.028759 0.655561 0.066655
v 0.030494 0.659751 0.084027
v 0.033255 0.663349 0.084027
v 0.033255 0.621408 0.084027
v 0.030494 0.659751 0.084027
v 0.036853 0.618647 0.084027
v 0.033255 0.621408 0.084027
v 0.033255 0.663349 0.084027
v 0.036853 0.618647 0.084027
v 0.041043 0.616912 0.084027
v 0.036853 0.618647 0.066655
v 0.041043 0.616912 0.066655
v 0.036853 0.618647 0.066655
v 0.041043 0.616912 0.084027
v 0.028166 0.651065 0.084027
v 0.028166 0.651065 0.066655
v 0.028759 0.655561 0.084027
v 0.030494 0.659751 0.084027
v 0.030494 0.625006 0.084027
v 0.028759 0.655561 0.084027
v 0.033255 0.621408 0.084027
v 0.030494 0.625006 0.084027
v 0.030494 0.659751 0.084027
v 0.033255 0.621408 0.084027
v 0.036853 0.618647 0.084027
v 0.033255 0.621408 0.066655
v 0.036853 0.618647 0.066655
v 0.033255 0.621408 0.066655
v 0.036853 0.618647 0.084027
v 0.028166 0.651065 0.066655
v 0.028166 0.651065 0.084027
v 0.028166 0.633692 0.066655
v 0.028759 0.655561 0.084027
v 0.028759 0.629196 0.084027
v 0.028166 0.651065 0.084027
v 0.030494 0.625006 0.084027
v 0.028759 0.629196 0.084027
v 0.028759 0.655561 0.084027
v 0.033255 0.621408 0.084027
v 0.033255 0.621408 0.066655
v 0.030494 0.625006 0.084027
v 0.028166 0.633692 0.084027
v 0.028166 0.633692 0.066655
v 0.028166 0.651065 0.084027
v 0.028166 0.633692 0.084027
v 0.028166 0.651065 0.084027
v 0.028759 0.629196 0.084027
v 0.030494 0.625006 0.084027
v 0.030494 0.625006 0.066655
v 0.028759 0.629196 0.084027
v 0.030494 0.625006 0.066655
v 0.030494 0.625006 0.084027
v 0.033255 0.621408 0.066655
v 0.028166 0.633692 0.066655
v 0.028166 0.633692 0.084027
v 0.028759 0.629196 0.066655
v 0.028759 0.629196 0.084027
v 0.028759 0.629196 0.066655
v 0.028166 0.633692 0.084027
v 0.028759 0.629196 0.066655
v 0.028759 0.629196 0.084027
v 0.030494 0.625006 0.066655
v 0.114438 0.655561 0.066655
v 0.115030 0.651065 0.084027
v 0.115030 0.651065 0.066655
v 0.112702 0.659751 0.066655
v 0.114438 0.655561 0.084027
v 0.114438 0.655561 0.066655
v 0.115030 0.651065 0.084027
v 0.114438 0.655561 0.066655
v 0.114438 0.655561 0.084027
v 0.115030 0.633692 0.084027
v 0.115030 0.651065 0.066655
v 0.115030 0.651065 0.084027
v 0.109941 0.663349 0.066655
v 0.112702 0.659751 0.084027
v 0.112702 0.659751 0.066655
v 0.114438 0.655561 0.084027
v 0.112702 0.659751 0.066655
v 0.112702 0.659751 0.084027
v 0.114438 0.655561 0.084027
v 0.115030 0.633692 0.084027
v 0.115030 0.651065 0.084027
v 0.115030 0.651065 0.066655
v 0.115030 0.633692 0.084027
v 0.115030 0.633692 0.066655
v 0.106343 0.666110 0.084027
v 0.109941 0.663349 0.066655
v 0.106343 0.666110 0.066655
v 0.112702 0.659751 0.084027
v 0.109941 0.663349 0.066655
v 0.109941 0.663349 0.084027
v 0.112702 0.659751 0.084027
v 0.114438 0.629196 0.084027
v 0.114438 0.655561 0.084027
v 0.114438 0.655561 0.084027
v 0.114438 0.629196 0.084027
v 0.115030 0.633692 0.084027
v 0.114438 0.629196 0.084027
v 0.115030 0.633692 0.066655
v 0.115030 0.633692 0.084027
v 0.102153 0.667845 0.084027
v 0.106343 0.666110 0.066655
v 0.102153 0.667845 0.066655
v 0.109941 0.663349 0.066655
v 0.106343 0.666110 0.084027
v 0.109941 0.663349 0.084027
v 0.106343 0.666110 0.066655
v 0.102153 0.667845 0.084027
v 0.106343 0.666110 0.084027
v 0.109941 0.663349 0.084027
v 0.112702 0.625006 0.084027
v 0.112702 0.659751 0.084027
v 0.112702 0.659751 0.084027
v 0.112702 0.625006 0.084027
v 0.114438 0.629196 0.084027
v 0.115030 0.633692 0.066655
v 0.114438 0.629196 0.084027
v 0.114438 0.629196 0.066655
v 0.097657 0.668438 0.084027
v 0.102153 0.667845 0.066655
v 0.097657 0.668438 0.066655
v 0.102153 0.667845 0.066655
v 0.097657 0.668438 0.084027
v 0.102153 0.667845 0.084027
v 0.106343 0.666110 0.084027
v 0.109941 0.621408 0.084027
v 0.109941 0.663349 0.084027
v 0.102153 0.667845 0.084027
v 0.106343 0.618647 0.084027
v 0.106343 0.666110 0.084027
v 0.109941 0.663349 0.084027
v 0.109941 0.621408 0.084027
v 0.112702 0.625006 0.084027
v 0.112702 0.625006 0.084027
v 0.114438 0.629196 0.066655
v 0.114438 0.629196 0.084027
v 0.045539 0.668438 0.084027
v 0.097657 0.668438 0.066655
v 0.045539 0.668438 0.066655
v 0.097657 0.668438 0.066655
v 0.045539 0.668438 0.084027
v 0.097657 0.668438 0.084027
v 0.097657 0.668438 0.084027
v 0.102153 0.616912 0.084027
v 0.102153 0.667845 0.084027
v 0.106343 0.666110 0.084027
v 0.106343 0.618647 0.084027
v 0.109941 0.621408 0.084027
v 0.102153 0.667845 0.084027
v 0.102153 0.616912 0.084027
v 0.106343 0.618647 0.084027
v 0.109941 0.621408 0.084027
v 0.112702 0.625006 0.066655
v 0.112702 0.625006 0.084027
v 0.114438 0.629196 0.066655
v 0.112702 0.625006 0.084027
v 0.112702 0.625006 0.066655
v 0.041043 0.667845 0.084027
v 0.045539 0.668438 0.066655
v 0.041043 0.667845 0.066655
v 0.045539 0.668438 0.066655
v 0.041043 0.667845 0.084027
v 0.045539 0.668438 0.084027
v 0.045539 0.668438 0.084027
v 0.097657 0.616320 0.084027
v 0.097657 0.668438 0.084027
v 0.097657 0.668438 0.084027
v 0.097657 0.616320 0.084027
v 0.102153 0.616912 0.084027
v 0.106343 0.618647 0.066655
v 0.109941 0.621408 0.084027
v 0.106343 0.618647 0.084027
v 0.102153 0.616912 0.066655
v 0.106343 0.618647 0.084027
v 0.102153 0.616912 0.084027
v 0.112702 0.625006 0.066655
v 0.109941 0.621408 0.084027
v 0.109941 0.621408 0.066655
v 0.033255 0.663349 0.084027
v 0.036853 0.666110 0.066655
v 0.033255 0.663349 0.066655
v 0.036853 0.666110 0.084027
v 0.041043 0.667845 0.066655
v 0.036853 0.666110 0.066655
v 0.041043 0.667845 0.066655
v 0.036853 0.666110 0.084027
v 0.041043 0.667845 0.084027
v 0.041043 0.667845 0.084027
v 0.045539 0.616320 0.084027
v 0.045539 0.668438 0.084027
v 0.045539 0.668438 0.084027
v 0.045539 0.616320 0.084027
v 0.097657 0.616320 0.084027
v 0.097657 0.616320 0.066655
v 0.102153 0.616912 0.084027
v 0.097657 0.616320 0.084027
v 0.109941 0.621408 0.084027
v 0.106343 0.618647 0.066655
v 0.109941 0.621408 0.066655
v 0.106343 0.618647 0.084027
v 0.102153 0.616912 0.066655
v 0.106343 0.618647 0.066655
v 0.102153 0.616912 0.084027
v 0.097657 0.616320 0.066655
v 0.102153 0.616912 0.066655
v 0.030494 0.659751 0.066655
v 0.033255 0.663349 0.084027
v 0.033255 0.663349 0.066655
v 0.036853 0.666110 0.066655
v 0.033255 0.663349 0.084027
v 0.036853 0.666110 0.084027
v 0.036853 0.666110 0.084027
v 0.041043 0.616912 0.084027
v 0.041043 0.667845 0.084027
v 0.041043 0.667845 0.084027
v 0.041043 0.616912 0.084027
v 0.045539 0.616320 0.084027
v 0.045539 0.616320 0.066655
v 0.097657 0.616320 0.084027
v 0.045539 0.616320 0.084027
v 0.097657 0.616320 0.084027
v 0.045539 0.616320 0.066655
v 0.097657 0.616320 0.066655
v 0.028759 0.655561 0.066655
v 0.030494 0.659751 0.084027
v 0.030494 0.659751 0.066655
v 0.033255 0.663349 0.084027
v 0.030494 0.659751 0.066655
v 0.030494 0.659751 0.084027
v 0.033255 0.663349 0.084027
v 0.036853 0.618647 0.084027
v 0.036853 0.666110 0.084027
v 0.036853 0.666110 0.084027
v 0.036853 0.618647 0.084027
v 0.041043 0.616912 0.084027
v 0.041043 0.616912 0.066655
v 0.045539 0.616320 0.084027
v 0.041043 0.616912 0.084027
v 0.045539 0.616320 0.084027
v 0.041043 0.616912 0.066655
v 0.045539 0.616320 0.066655
v 0.028166 0.651065 0.066655
v 0.028759 0.655561 0.084027
v 0.028759 0.655561 0.066655
v 0.030494 0.659751 0.084027
v 0.028759 0.655561 0.066655
v 0.028759 0.655561 0.084027
v 0.030494 0.659751 0.084027
v 0.033255 0.621408 0.084027
v 0.033255 0.663349 0.084027
v 0.033255 0.663349 0.084027
v 0.033255 0.621408 0.084027
v 0.036853 0.618647 0.084027
v 0.036853 0.618647 0.066655
v 0.041043 0.616912 0.084027
v 0.036853 0.618647 0.084027
v 0.041043 0.616912 0.084027
v 0.036853 0.618647 0.066655
v 0.041043 0.616912 0.066655
v 0.028759 0.655561 0.084027
v 0.028166 0.651065 0.066655
v 0.028166 0.651065 0.084027
v 0.028759 0.655561 0.084027
v 0.030494 0.625006 0.084027
v 0.030494 0.659751 0.084027
v 0.030494 0.659751 0.084027
v 0.030494 0.625006 0.084027
v 0.033255 0.621408 0.084027
v 0.033255 0.621408 0.066655
v 0.036853 0.618647 0.084027
v 0.033255 0.621408 0.084027
v 0.036853 0.618647 0.084027
v 0.033255 0.621408 0.066655
v 0.036853 0.618647 0.066655
v 0.028166 0.633692 0.066655
v 0.028166 0.651065 0.084027
v 0.028166 0.651065 0.066655
v 0.028166 0.651065 0.084027
v 0.028759 0.629196 0.084027
v 0.028759 0.655561 0.084027
v 0.028759 0.655561 0.084027
v 0.028759 0.629196 0.084027
v 0.030494 0.625006 0.084027
v 0.030494 0.625006 0.084027
v 0.033255 0.621408 0.066655
v 0.033255 0.621408 0.084027
v 0.028166 0.651065 0.084027
v 0.028166 0.633692 0.066655
v 0.028166 0.633692 0.084027
v 0.028759 0.629196 0.084027
v 0.028166 0.651065 0.084027
v 0.028166 0.633692 0.084027
v 0.028759 0.629196 0.084027
v 0.030494 0.625006 0.066655
v 0.030494 0.625006 0.084027
v 0.033255 0.621408 0.066655
v 0.030494 0.625006 0.084027
v 0.030494 0.625006 0.066655
v 0.028759 0.629196 0.066655
v 0.028166 0.633692 0.084027
v 0.028166 0.633692 0.066655
v 0.028166 0.633692 0.084027
v 0.028759 0.629196 0.066655
v 0.028759 0.629196 0.084027
v 0.030494 0.625006 0.066655
v 0.028759 0.629196 0.084027
v 0.028759 0.629196 0.066655
vn -0.9914448878896857 -0.13052599081182487 0
vn -0.9659258451755842 -0.25881897461707376 0
vn -0.8660252955903434 -0.5000001873976233 0
vn -1 0 0
vn -0.7071067811865476 -0.7071067811865476 0
vn 0 0 -1
vn -0.5000001873976233 -0.8660252955903434 0
vn -0.9914448878896857 0.13052599081182487 0
vn -0.9659258451755842 0.25881897461707376 0
vn -0.25881897461707376 -0.9659258451755842 0
vn -0.13052599081182487 -0.9914448878896857 0
vn -0.8660252955903434 0.5000001873976233 0
vn 0 -1 0
vn -0.7071067811865476 0.7071067811865476 0
vn 0.25881897461707376 -0.9659258451755842 0
vn 0.13052599081182487 -0.9914448878896857 0
vn -0.5000001873976233 0.8660252955903434 0
vn -0.25881897461707376 0.9659258451755842 0
vn 0.7071067811865476 -0.7071067811865476 0
vn 0.5000001873976233 -0.8660252955903434 0
vn -0.13052599081182487 0.9914448878896857 0
vn 0.8660252955903434 -0.5000001873976233 0
vn 0 1 0
vn 0.9659258451755842 -0.25881897461707376 0
vn 0.25881897461707376 0.9659258451755842 0
vn 0.13052599081182487 0.9914448878896857 0
vn 0.9914448878896857 -0.13052599081182487 0
vn 0.5000001873976233 0.8660252955903434 0
vn 0.7071067811865476 0.7071067811865476 0
vn 1 0 0
vn 0.8660252955903434 0.5000001873976233 0
vn 0.9659258451755842 0.25881897461707376 0
vn 0.9914448878896857 0.13052599081182487 0
vn 0 0 1
usemtl material_0_0
f 1//1 2//1 3//2
f 4//2 5//2 6//3
f 7//2 8//2 9//1
f 10//4 11//4 12//4
f 13//3 14//3 15//5
f 16//3 17//3 18//2
f 19//6 20//6 21//6
f 22//4 23//4 24//4
f 25//7 26//5 27//7
f 28//5 29//5 30//3
f 31//6 32//6 33//6
f 34//6 35//6 36//6
f 37//8 38//8 39//9
f 40//10 41//7 42//10
f 43//5 44//7 45//5
f 46//7 47//10 48//7
f 49//6 50//6 51//6
f 52//6 53//6 54//6
f 55//9 56//9 57//8
f 58//11 59//10 60//11
f 61//10 62//11 63//10
f 64//6 65//6 66//6
f 67//6 68//6 69//6
f 70//6 71//6 72//6
f 73//9 74//9 75//12
f 76//13 77//13 78//13
f 79//13 80//13 81//13
f 82//6 83//6 84//6
f 85//6 86//6 87//6
f 88//6 89//6 90//6
f 91//12 92//12 93//14
f 94//12 95//12 96//9
f 97//15 98//16 99//15
f 100//16 101//15 102//16
f 103//6 104//6 105//6
f 106//6 107//6 108//6
f 109//17 110//14 111//17
f 112//18 113//17 114//18
f 115//14 116//14 117//12
f 118//19 119//20 120//19
f 121//20 122//15 123//20
f 124//15 125//20 126//15
f 127//6 128//6 129//6
f 130//6 131//6 132//6
f 133//21 134//18 135//21
f 136//14 137//17 138//14
f 139//17 140//18 141//17
f 142//18 143//21 144//18
f 145//19 146//19 147//22
f 148//20 149//19 150//20
f 151//6 152//6 153//6
f 154//6 155//6 156//6
f 157//23 158//23 159//23
f 160//23 161//23 162//23
f 163//22 164//22 165//24
f 166//22 167//22 168//19
f 169//6 170//6 171//6
f 172//6 173//6 174//6
f 175//25 176//26 177//25
f 178//26 179//25 180//26
f 181//24 182//24 183//27
f 184//24 185//24 186//22
f 187//6 188//6 189//6
f 190//6 191//6 192//6
f 193//28 194//25 195//28
f 196//25 197//28 198//25
f 199//27 200//27 201//24
f 202//6 203//6 204//6
f 205//6 206//6 207//6
f 208//29 209//28 210//29
f 211//28 212//29 213//28
f 214//30 215//30 216//30
f 217//6 218//6 219//6
f 220//6 221//6 222//6
f 223//29 224//29 225//31
f 226//30 227//30 228//30
f 229//6 230//6 231//6
f 232//31 233//31 234//32
f 235//31 236//31 237//29
f 238//33 239//33 240//32
f 241//32 242//32 243//33
f 244//32 245//32 246//31
usemtl material_1_0
f 247//32 248//33 249//33
f 250//31 251//32 252//32
f 253//33 254//32 255//32
f 256//30 257//30 258//30
f 259//29 260//31 261//31
f 262//32 263//31 264//31
f 265//34 266//34 267//34
f 268//30 269//30 270//30
f 271//28 272//29 273//28
f 274//31 275//29 276//29
f 277//34 278//34 279//34
f 280//34 281//34 282//34
f 283//24 284//27 285//27
f 286//25 287//28 288//25
f 289//29 290//28 291//29
f 292//28 293//25 294//28
f 295//34 296//34 297//34
f 298//34 299//34 300//34
f 301//27 302//24 303//24
f 304//26 305//25 306//26
f 307//25 308//26 309//25
f 310//34 311//34 312//34
f 313//34 314//34 315//34
f 316//34 317//34 318//34
f 319//22 320//24 321//24
f 322//23 323//23 324//23
f 325//23 326//23 327//23
f 328//34 329//34 330//34
f 331//34 332//34 333//34
f 334//34 335//34 336//34
f 337//19 338//22 339//22
f 340//24 341//22 342//22
f 343//18 344//21 345//18
f 346//21 347//18 348//21
f 349//34 350//34 351//34
f 352//34 353//34 354//34
f 355//20 356//19 357//20
f 358//15 359//20 360//15
f 361//22 362//19 363//19
f 364//14 365//17 366//14
f 367//17 368//18 369//17
f 370//18 371//17 372//18
f 373//34 374//34 375//34
f 376//34 377//34 378//34
f 379//16 380//15 381//16
f 382//19 383//20 384//19
f 385//20 386//15 387//20
f 388//15 389//16 390//15
f 391//12 392//14 393//14
f 394//17 395//14 396//17
f 397//34 398//34 399//34
f 400//34 401//34 402//34
f 403//13 404//13 405//13
f 406//13 407//13 408//13
f 409//9 410//12 411//12
f 412//14 413//12 414//12
f 415//34 416//34 417//34
f 418//34 419//34 420//34
f 421//10 422//11 423//10
f 424//11 425//10 426//11
f 427//8 428//9 429//9
f 430//12 431//9 432//9
f 433//34 434//34 435//34
f 436//34 437//34 438//34
f 439//7 440//10 441//7
f 442//10 443//7 444//10
f 445//9 446//8 447//8
f 448//34 449//34 450//34
f 451//34 452//34 453//34
f 454//5 455//7 456//5
f 457//7 458//5 459//7
f 460//4 461//4 462//4
f 463//34 464//34 465//34
f 466//34 467//34 468//34
f 469//3 470//5 471//5
f 472//4 473//4 474//4
f 475//34 476//34 477//34
f 478//2 479//3 480//3
f 481//5 482//3 483//3
f 484//2 485//1 486//1
f 487//1 488//2 489//2
f 490//3 491//2 492//2
