# SSTK version 0.8.0
# 118
mtllib original-118.mtl
o mesh109/mesh109-geometry/material_0/component_4#mesh109-geometry
v -0.249796 -0.156763 0.066655
v -0.249796 -0.139391 0.084027
v -0.249796 -0.139391 0.066655
v -0.249796 -0.139391 0.084027
v -0.249796 -0.156763 0.066655
v -0.249796 -0.156763 0.084027
v -0.249204 -0.134894 0.084027
v -0.249796 -0.139391 0.066655
v -0.249796 -0.139391 0.084027
v -0.249204 -0.161260 0.066655
v -0.249796 -0.156763 0.084027
v -0.249796 -0.156763 0.066655
v -0.249204 -0.161260 0.084027
v -0.249796 -0.139391 0.084027
v -0.249796 -0.156763 0.084027
v -0.249796 -0.139391 0.066655
v -0.249204 -0.134894 0.084027
v -0.249204 -0.134894 0.066655
v -0.249796 -0.139391 0.084027
v -0.249204 -0.161260 0.084027
v -0.249204 -0.134894 0.084027
v -0.249796 -0.156763 0.084027
v -0.249204 -0.161260 0.066655
v -0.249204 -0.161260 0.084027
v -0.247469 -0.130704 0.084027
v -0.249204 -0.134894 0.066655
v -0.249204 -0.134894 0.084027
v -0.249204 -0.134894 0.084027
v -0.249204 -0.161260 0.084027
v -0.247469 -0.165450 0.084027
v -0.247469 -0.165450 0.066655
v -0.249204 -0.161260 0.084027
v -0.249204 -0.161260 0.066655
v -0.249204 -0.134894 0.066655
v -0.247469 -0.130704 0.084027
v -0.247469 -0.130704 0.066655
v -0.249204 -0.134894 0.084027
v -0.247469 -0.165450 0.084027
v -0.247469 -0.130704 0.084027
v -0.249204 -0.161260 0.084027
v -0.247469 -0.165450 0.066655
v -0.247469 -0.165450 0.084027
v -0.244708 -0.127106 0.084027
v -0.247469 -0.130704 0.066655
v -0.247469 -0.130704 0.084027
v -0.247469 -0.130704 0.084027
v -0.247469 -0.165450 0.084027
v -0.244708 -0.169048 0.084027
v -0.244708 -0.169048 0.066655
v -0.247469 -0.165450 0.084027
v -0.247469 -0.165450 0.066655
v -0.247469 -0.130704 0.066655
v -0.244708 -0.127106 0.084027
v -0.244708 -0.127106 0.066655
v -0.247469 -0.130704 0.084027
v -0.244708 -0.169048 0.084027
v -0.244708 -0.127106 0.084027
v -0.247469 -0.165450 0.084027
v -0.244708 -0.169048 0.066655
v -0.244708 -0.169048 0.084027
v -0.241110 -0.171809 0.084027
v -0.244708 -0.169048 0.066655
v -0.241110 -0.171809 0.066655
v -0.236920 -0.173544 0.084027
v -0.241110 -0.171809 0.066655
v -0.236920 -0.173544 0.066655
v -0.232423 -0.174136 0.084027
v -0.236920 -0.173544 0.066655
v -0.232423 -0.174136 0.066655
v -0.244708 -0.127106 0.084027
v -0.241110 -0.124345 0.066655
v -0.244708 -0.127106 0.066655
v -0.244708 -0.127106 0.084027
v -0.244708 -0.169048 0.084027
v -0.241110 -0.171809 0.084027
v -0.244708 -0.169048 0.066655
v -0.241110 -0.171809 0.084027
v -0.244708 -0.169048 0.084027
v -0.180305 -0.174136 0.084027
v -0.232423 -0.174136 0.066655
v -0.180305 -0.174136 0.066655
v -0.241110 -0.171809 0.066655
v -0.236920 -0.173544 0.084027
v -0.241110 -0.171809 0.084027
v -0.236920 -0.173544 0.066655
v -0.232423 -0.174136 0.084027
v -0.236920 -0.173544 0.084027
v -0.232423 -0.174136 0.066655
v -0.180305 -0.174136 0.084027
v -0.232423 -0.174136 0.084027
v -0.241110 -0.124345 0.066655
v -0.244708 -0.127106 0.084027
v -0.241110 -0.124345 0.084027
v -0.244708 -0.127106 0.084027
v -0.241110 -0.171809 0.084027
v -0.241110 -0.124345 0.084027
v -0.175809 -0.173544 0.084027
v -0.180305 -0.174136 0.066655
v -0.175809 -0.173544 0.066655
v -0.180305 -0.174136 0.066655
v -0.175809 -0.173544 0.084027
v -0.180305 -0.174136 0.084027
v -0.241110 -0.124345 0.084027
v -0.241110 -0.171809 0.084027
v -0.236920 -0.173544 0.084027
v -0.232423 -0.122018 0.084027
v -0.236920 -0.173544 0.084027
v -0.232423 -0.174136 0.084027
v -0.232423 -0.122018 0.084027
v -0.232423 -0.174136 0.084027
v -0.180305 -0.174136 0.084027
v -0.241110 -0.124345 0.084027
v -0.236920 -0.122610 0.066655
v -0.241110 -0.124345 0.066655
v -0.175809 -0.173544 0.066655
v -0.171619 -0.171809 0.084027
v -0.175809 -0.173544 0.084027
v -0.180305 -0.122018 0.084027
v -0.180305 -0.174136 0.084027
v -0.175809 -0.173544 0.084027
v -0.241110 -0.124345 0.084027
v -0.236920 -0.173544 0.084027
v -0.236920 -0.122610 0.084027
v -0.236920 -0.122610 0.084027
v -0.236920 -0.173544 0.084027
v -0.232423 -0.122018 0.084027
v -0.232423 -0.122018 0.084027
v -0.180305 -0.174136 0.084027
v -0.180305 -0.122018 0.084027
v -0.236920 -0.122610 0.066655
v -0.241110 -0.124345 0.084027
v -0.236920 -0.122610 0.084027
v -0.171619 -0.171809 0.084027
v -0.175809 -0.173544 0.066655
v -0.171619 -0.171809 0.066655
v -0.175809 -0.122610 0.084027
v -0.175809 -0.173544 0.084027
v -0.171619 -0.171809 0.084027
v -0.180305 -0.122018 0.084027
v -0.175809 -0.173544 0.084027
v -0.175809 -0.122610 0.084027
v -0.232423 -0.122018 0.066655
v -0.236920 -0.122610 0.084027
v -0.232423 -0.122018 0.084027
v -0.180305 -0.122018 0.066655
v -0.232423 -0.122018 0.084027
v -0.180305 -0.122018 0.084027
v -0.236920 -0.122610 0.084027
v -0.232423 -0.122018 0.066655
v -0.236920 -0.122610 0.066655
v -0.168021 -0.169048 0.084027
v -0.171619 -0.171809 0.066655
v -0.168021 -0.169048 0.066655
v -0.171619 -0.171809 0.066655
v -0.168021 -0.169048 0.084027
v -0.171619 -0.171809 0.084027
v -0.175809 -0.122610 0.084027
v -0.171619 -0.171809 0.084027
v -0.171619 -0.124345 0.084027
v -0.175809 -0.122610 0.066655
v -0.180305 -0.122018 0.084027
v -0.175809 -0.122610 0.084027
v -0.232423 -0.122018 0.084027
v -0.180305 -0.122018 0.066655
v -0.232423 -0.122018 0.066655
v -0.180305 -0.122018 0.084027
v -0.175809 -0.122610 0.066655
v -0.180305 -0.122018 0.066655
v -0.162933 -0.156763 0.066655
v -0.163525 -0.161260 0.084027
v -0.163525 -0.161260 0.066655
v -0.165260 -0.165450 0.066655
v -0.168021 -0.169048 0.084027
v -0.168021 -0.169048 0.066655
v -0.171619 -0.124345 0.084027
v -0.171619 -0.171809 0.084027
v -0.168021 -0.169048 0.084027
v -0.171619 -0.124345 0.066655
v -0.175809 -0.122610 0.084027
v -0.171619 -0.124345 0.084027
v -0.175809 -0.122610 0.084027
v -0.171619 -0.124345 0.066655
v -0.175809 -0.122610 0.066655
v -0.162933 -0.139391 0.066655
v -0.162933 -0.156763 0.084027
v -0.162933 -0.156763 0.066655
v -0.163525 -0.161260 0.084027
v -0.162933 -0.156763 0.066655
v -0.162933 -0.156763 0.084027
v -0.165260 -0.165450 0.084027
v -0.163525 -0.161260 0.066655
v -0.163525 -0.161260 0.084027
v -0.168021 -0.169048 0.084027
v -0.165260 -0.165450 0.066655
v -0.165260 -0.165450 0.084027
v -0.171619 -0.124345 0.084027
v -0.168021 -0.169048 0.084027
v -0.168021 -0.127106 0.084027
v -0.171619 -0.124345 0.084027
v -0.168021 -0.127106 0.066655
v -0.171619 -0.124345 0.066655
v -0.162933 -0.156763 0.084027
v -0.162933 -0.139391 0.066655
v -0.162933 -0.139391 0.084027
v -0.163525 -0.161260 0.066655
v -0.165260 -0.165450 0.084027
v -0.165260 -0.165450 0.066655
v -0.163525 -0.134894 0.084027
v -0.163525 -0.161260 0.084027
v -0.162933 -0.156763 0.084027
v -0.165260 -0.130704 0.084027
v -0.165260 -0.165450 0.084027
v -0.163525 -0.161260 0.084027
v -0.168021 -0.127106 0.084027
v -0.168021 -0.169048 0.084027
v -0.165260 -0.165450 0.084027
v -0.168021 -0.127106 0.066655
v -0.171619 -0.124345 0.084027
v -0.168021 -0.127106 0.084027
v -0.163525 -0.134894 0.066655
v -0.162933 -0.139391 0.084027
v -0.162933 -0.139391 0.066655
v -0.163525 -0.134894 0.084027
v -0.162933 -0.156763 0.084027
v -0.162933 -0.139391 0.084027
v -0.165260 -0.130704 0.084027
v -0.163525 -0.161260 0.084027
v -0.163525 -0.134894 0.084027
v -0.168021 -0.127106 0.084027
v -0.165260 -0.165450 0.084027
v -0.165260 -0.130704 0.084027
v -0.165260 -0.130704 0.084027
v -0.168021 -0.127106 0.066655
v -0.168021 -0.127106 0.084027
v -0.162933 -0.139391 0.084027
v -0.163525 -0.134894 0.066655
v -0.163525 -0.134894 0.084027
v -0.163525 -0.134894 0.084027
v -0.165260 -0.130704 0.066655
v -0.165260 -0.130704 0.084027
v -0.168021 -0.127106 0.066655
v -0.165260 -0.130704 0.084027
v -0.165260 -0.130704 0.066655
v -0.165260 -0.130704 0.066655
v -0.163525 -0.134894 0.084027
v -0.163525 -0.134894 0.066655
v -0.249796 -0.139391 0.066655
v -0.249796 -0.139391 0.084027
v -0.249796 -0.156763 0.066655
v -0.249796 -0.156763 0.084027
v -0.249796 -0.156763 0.066655
v -0.249796 -0.139391 0.084027
v -0.249796 -0.139391 0.084027
v -0.249796 -0.139391 0.066655
v -0.249204 -0.134894 0.084027
v -0.249796 -0.156763 0.066655
v -0.249796 -0.156763 0.084027
v -0.249204 -0.161260 0.066655
v -0.249796 -0.156763 0.084027
v -0.249796 -0.139391 0.084027
v -0.249204 -0.161260 0.084027
v -0.249204 -0.134894 0.066655
v -0.249204 -0.134894 0.084027
v -0.249796 -0.139391 0.066655
v -0.249204 -0.134894 0.084027
v -0.249204 -0.161260 0.084027
v -0.249796 -0.139391 0.084027
v -0.249204 -0.161260 0.084027
v -0.249204 -0.161260 0.066655
v -0.249796 -0.156763 0.084027
v -0.249204 -0.134894 0.084027
v -0.249204 -0.134894 0.066655
v -0.247469 -0.130704 0.084027
v -0.247469 -0.165450 0.084027
v -0.249204 -0.161260 0.084027
v -0.249204 -0.134894 0.084027
v -0.249204 -0.161260 0.066655
v -0.249204 -0.161260 0.084027
v -0.247469 -0.165450 0.066655
v -0.247469 -0.130704 0.066655
v -0.247469 -0.130704 0.084027
v -0.249204 -0.134894 0.066655
v -0.247469 -0.130704 0.084027
v -0.247469 -0.165450 0.084027
v -0.249204 -0.134894 0.084027
v -0.247469 -0.165450 0.084027
v -0.247469 -0.165450 0.066655
v -0.249204 -0.161260 0.084027
v -0.247469 -0.130704 0.084027
v -0.247469 -0.130704 0.066655
v -0.244708 -0.127106 0.084027
v -0.244708 -0.169048 0.084027
v -0.247469 -0.165450 0.084027
v -0.247469 -0.130704 0.084027
v -0.247469 -0.165450 0.066655
v -0.247469 -0.165450 0.084027
v -0.244708 -0.169048 0.066655
v -0.244708 -0.127106 0.066655
v -0.244708 -0.127106 0.084027
v -0.247469 -0.130704 0.066655
v -0.244708 -0.127106 0.084027
v -0.244708 -0.169048 0.084027
v -0.247469 -0.130704 0.084027
v -0.244708 -0.169048 0.084027
v -0.244708 -0.169048 0.066655
v -0.247469 -0.165450 0.084027
v -0.241110 -0.171809 0.066655
v -0.244708 -0.169048 0.066655
v -0.241110 -0.171809 0.084027
v -0.236920 -0.173544 0.066655
v -0.241110 -0.171809 0.066655
v -0.236920 -0.173544 0.084027
v -0.232423 -0.174136 0.066655
v -0.236920 -0.173544 0.066655
v -0.232423 -0.174136 0.084027
v -0.244708 -0.127106 0.066655
v -0.241110 -0.124345 0.066655
v -0.244708 -0.127106 0.084027
v -0.241110 -0.171809 0.084027
v -0.244708 -0.169048 0.084027
v -0.244708 -0.127106 0.084027
v -0.244708 -0.169048 0.084027
v -0.241110 -0.171809 0.084027
v -0.244708 -0.169048 0.066655
v -0.180305 -0.174136 0.066655
v -0.232423 -0.174136 0.066655
v -0.180305 -0.174136 0.084027
v -0.241110 -0.171809 0.084027
v -0.236920 -0.173544 0.084027
v -0.241110 -0.171809 0.066655
v -0.236920 -0.173544 0.084027
v -0.232423 -0.174136 0.084027
v -0.236920 -0.173544 0.066655
v -0.232423 -0.174136 0.084027
v -0.180305 -0.174136 0.084027
v -0.232423 -0.174136 0.066655
v -0.241110 -0.124345 0.084027
v -0.244708 -0.127106 0.084027
v -0.241110 -0.124345 0.066655
v -0.241110 -0.124345 0.084027
v -0.241110 -0.171809 0.084027
v -0.244708 -0.127106 0.084027
v -0.175809 -0.173544 0.066655
v -0.180305 -0.174136 0.066655
v -0.175809 -0.173544 0.084027
v -0.180305 -0.174136 0.084027
v -0.175809 -0.173544 0.084027
v -0.180305 -0.174136 0.066655
v -0.236920 -0.173544 0.084027
v -0.241110 -0.171809 0.084027
v -0.241110 -0.124345 0.084027
v -0.232423 -0.174136 0.084027
v -0.236920 -0.173544 0.084027
v -0.232423 -0.122018 0.084027
v -0.180305 -0.174136 0.084027
v -0.232423 -0.174136 0.084027
v -0.232423 -0.122018 0.084027
v -0.241110 -0.124345 0.066655
v -0.236920 -0.122610 0.066655
v -0.241110 -0.124345 0.084027
v -0.175809 -0.173544 0.084027
v -0.171619 -0.171809 0.084027
v -0.175809 -0.173544 0.066655
v -0.175809 -0.173544 0.084027
v -0.180305 -0.174136 0.084027
v -0.180305 -0.122018 0.084027
v -0.236920 -0.122610 0.084027
v -0.236920 -0.173544 0.084027
v -0.241110 -0.124345 0.084027
v -0.232423 -0.122018 0.084027
v -0.236920 -0.173544 0.084027
v -0.236920 -0.122610 0.084027
v -0.180305 -0.122018 0.084027
v -0.180305 -0.174136 0.084027
v -0.232423 -0.122018 0.084027
v -0.236920 -0.122610 0.084027
v -0.241110 -0.124345 0.084027
v -0.236920 -0.122610 0.066655
v -0.171619 -0.171809 0.066655
v -0.175809 -0.173544 0.066655
v -0.171619 -0.171809 0.084027
v -0.171619 -0.171809 0.084027
v -0.175809 -0.173544 0.084027
v -0.175809 -0.122610 0.084027
v -0.175809 -0.122610 0.084027
v -0.175809 -0.173544 0.084027
v -0.180305 -0.122018 0.084027
v -0.232423 -0.122018 0.084027
v -0.236920 -0.122610 0.084027
v -0.232423 -0.122018 0.066655
v -0.180305 -0.122018 0.084027
v -0.232423 -0.122018 0.084027
v -0.180305 -0.122018 0.066655
v -0.236920 -0.122610 0.066655
v -0.232423 -0.122018 0.066655
v -0.236920 -0.122610 0.084027
v -0.168021 -0.169048 0.066655
v -0.171619 -0.171809 0.066655
v -0.168021 -0.169048 0.084027
v -0.171619 -0.171809 0.084027
v -0.168021 -0.169048 0.084027
v -0.171619 -0.171809 0.066655
v -0.171619 -0.124345 0.084027
v -0.171619 -0.171809 0.084027
v -0.175809 -0.122610 0.084027
v -0.175809 -0.122610 0.084027
v -0.180305 -0.122018 0.084027
v -0.175809 -0.122610 0.066655
v -0.232423 -0.122018 0.066655
v -0.180305 -0.122018 0.066655
v -0.232423 -0.122018 0.084027
v -0.180305 -0.122018 0.066655
v -0.175809 -0.122610 0.066655
v -0.180305 -0.122018 0.084027
v -0.163525 -0.161260 0.066655
v -0.163525 -0.161260 0.084027
v -0.162933 -0.156763 0.066655
v -0.168021 -0.169048 0.066655
v -0.168021 -0.169048 0.084027
v -0.165260 -0.165450 0.066655
v -0.168021 -0.169048 0.084027
v -0.171619 -0.171809 0.084027
v -0.171619 -0.124345 0.084027
v -0.171619 -0.124345 0.084027
v -0.175809 -0.122610 0.084027
v -0.171619 -0.124345 0.066655
v -0.175809 -0.122610 0.066655
v -0.171619 -0.124345 0.066655
v -0.175809 -0.122610 0.084027
v -0.162933 -0.156763 0.066655
v -0.162933 -0.156763 0.084027
v -0.162933 -0.139391 0.066655
v -0.162933 -0.156763 0.084027
v -0.162933 -0.156763 0.066655
v -0.163525 -0.161260 0.084027
v -0.163525 -0.161260 0.084027
v -0.163525 -0.161260 0.066655
v -0.165260 -0.165450 0.084027
v -0.165260 -0.165450 0.084027
v -0.165260 -0.165450 0.066655
v -0.168021 -0.169048 0.084027
v -0.168021 -0.127106 0.084027
v -0.168021 -0.169048 0.084027
v -0.171619 -0.124345 0.084027
v -0.171619 -0.124345 0.066655
v -0.168021 -0.127106 0.066655
v -0.171619 -0.124345 0.084027
v -0.162933 -0.139391 0.084027
v -0.162933 -0.139391 0.066655
v -0.162933 -0.156763 0.084027
v -0.165260 -0.165450 0.066655
v -0.165260 -0.165450 0.084027
v -0.163525 -0.161260 0.066655
v -0.162933 -0.156763 0.084027
v -0.163525 -0.161260 0.084027
v -0.163525 -0.134894 0.084027
v -0.163525 -0.161260 0.084027
v -0.165260 -0.165450 0.084027
v -0.165260 -0.130704 0.084027
v -0.165260 -0.165450 0.084027
v -0.168021 -0.169048 0.084027
v -0.168021 -0.127106 0.084027
v -0.168021 -0.127106 0.084027
v -0.171619 -0.124345 0.084027
v -0.168021 -0.127106 0.066655
v -0.162933 -0.139391 0.066655
v -0.162933 -0.139391 0.084027
v -0.163525 -0.134894 0.066655
v -0.162933 -0.139391 0.084027
v -0.162933 -0.156763 0.084027
v -0.163525 -0.134894 0.084027
v -0.163525 -0.134894 0.084027
v -0.163525 -0.161260 0.084027
v -0.165260 -0.130704 0.084027
v -0.165260 -0.130704 0.084027
v -0.165260 -0.165450 0.084027
v -0.168021 -0.127106 0.084027
v -0.168021 -0.127106 0.084027
v -0.168021 -0.127106 0.066655
v -0.165260 -0.130704 0.084027
v -0.163525 -0.134894 0.084027
v -0.163525 -0.134894 0.066655
v -0.162933 -0.139391 0.084027
v -0.165260 -0.130704 0.084027
v -0.165260 -0.130704 0.066655
v -0.163525 -0.134894 0.084027
v -0.165260 -0.130704 0.066655
v -0.165260 -0.130704 0.084027
v -0.168021 -0.127106 0.066655
v -0.163525 -0.134894 0.066655
v -0.163525 -0.134894 0.084027
v -0.165260 -0.130704 0.066655
vn -1 0 0
vn -0.9659258451755842 0.25881897461707376 0
vn -0.9914448878896857 0.13052599081182487 0
vn -0.9659258451755842 -0.25881897461707376 0
vn -0.9914448878896857 -0.13052599081182487 0
vn 0 0 1
vn -0.8660252955903434 0.5000001873976233 0
vn -0.8660252955903434 -0.5000001873976233 0
vn -0.7071067811865476 0.7071067811865476 0
vn -0.7071067811865476 -0.7071067811865476 0
vn -0.5000001873976233 -0.8660252955903434 0
vn -0.25881897461707376 -0.9659258451755842 0
vn -0.13052599081182487 -0.9914448878896857 0
vn -0.5000001873976233 0.8660252955903434 0
vn 0 -1 0
vn 0.25881897461707376 -0.9659258451755842 0
vn 0.13052599081182487 -0.9914448878896857 0
vn -0.25881897461707376 0.9659258451755842 0
vn 0.5000001873976233 -0.8660252955903434 0
vn -0.13052599081182487 0.9914448878896857 0
vn 0 1 0
vn 0.7071067811865476 -0.7071067811865476 0
vn 0.25881897461707376 0.9659258451755842 0
vn 0.13052599081182487 0.9914448878896857 0
vn 0.9914448878896857 -0.13052599081182487 0
vn 0.9659258451755842 -0.25881897461707376 0
vn 0.8660252955903434 -0.5000001873976233 0
vn 0.5000001873976233 0.8660252955903434 0
vn 1 0 0
vn 0.7071067811865476 0.7071067811865476 0
vn 0.9659258451755842 0.25881897461707376 0
vn 0.9914448878896857 0.13052599081182487 0
vn 0.8660252955903434 0.5000001873976233 0
vn 0 0 -1
usemtl material_0_0
f 1//1 2//1 3//1
f 4//1 5//1 6//1
f 7//2 8//3 9//3
f 10//4 11//5 12//5
f 13//6 14//6 15//6
f 16//3 17//2 18//2
f 19//6 20//6 21//6
f 22//5 23//4 24//4
f 25//7 26//2 27//2
f 28//6 29//6 30//6
f 31//8 32//4 33//4
f 34//2 35//7 36//7
f 37//6 38//6 39//6
f 40//4 41//8 42//8
f 43//9 44//7 45//7
f 46//6 47//6 48//6
f 49//10 50//8 51//8
f 52//7 53//9 54//9
f 55//6 56//6 57//6
f 58//8 59//10 60//10
f 61//11 62//10 63//11
f 64//12 65//11 66//12
f 67//13 68//12 69//13
f 70//9 71//14 72//9
f 73//6 74//6 75//6
f 76//10 77//11 78//10
f 79//15 80//15 81//15
f 82//11 83//12 84//11
f 85//12 86//13 87//12
f 88//15 89//15 90//15
f 91//14 92//9 93//14
f 94//6 95//6 96//6
f 97//16 98//17 99//16
f 100//17 101//16 102//17
f 103//6 104//6 105//6
f 106//6 107//6 108//6
f 109//6 110//6 111//6
f 112//14 113//18 114//14
f 115//16 116//19 117//16
f 118//6 119//6 120//6
f 121//6 122//6 123//6
f 124//6 125//6 126//6
f 127//6 128//6 129//6
f 130//18 131//14 132//18
f 133//19 134//16 135//19
f 136//6 137//6 138//6
f 139//6 140//6 141//6
f 142//20 143//18 144//20
f 145//21 146//21 147//21
f 148//18 149//20 150//18
f 151//22 152//19 153//22
f 154//19 155//22 156//19
f 157//6 158//6 159//6
f 160//23 161//24 162//23
f 163//21 164//21 165//21
f 166//24 167//23 168//24
f 169//25 170//26 171//26
f 172//27 173//22 174//22
f 175//6 176//6 177//6
f 178//28 179//23 180//28
f 181//23 182//28 183//23
f 184//29 185//29 186//29
f 187//26 188//25 189//25
f 190//27 191//26 192//26
f 193//22 194//27 195//27
f 196//6 197//6 198//6
f 199//28 200//30 201//28
f 202//29 203//29 204//29
f 205//26 206//27 207//27
f 208//6 209//6 210//6
f 211//6 212//6 213//6
f 214//6 215//6 216//6
f 217//30 218//28 219//30
f 220//31 221//32 222//32
f 223//6 224//6 225//6
f 226//6 227//6 228//6
f 229//6 230//6 231//6
f 232//33 233//30 234//30
f 235//32 236//31 237//31
f 238//31 239//33 240//33
f 241//30 242//33 243//33
f 244//33 245//31 246//31
usemtl material_1_0
f 247//29 248//29 249//29
f 250//29 251//29 252//29
f 253//25 254//25 255//26
f 256//32 257//32 258//31
f 259//34 260//34 261//34
f 262//26 263//26 264//25
f 265//34 266//34 267//34
f 268//31 269//31 270//32
f 271//26 272//26 273//27
f 274//34 275//34 276//34
f 277//31 278//31 279//33
f 280//27 281//27 282//26
f 283//34 284//34 285//34
f 286//33 287//33 288//31
f 289//27 290//27 291//22
f 292//34 293//34 294//34
f 295//33 296//33 297//30
f 298//22 299//22 300//27
f 301//34 302//34 303//34
f 304//30 305//30 306//33
f 307//28 308//30 309//28
f 310//23 311//28 312//23
f 313//24 314//23 315//24
f 316//22 317//19 318//22
f 319//34 320//34 321//34
f 322//30 323//28 324//30
f 325//21 326//21 327//21
f 328//28 329//23 330//28
f 331//23 332//24 333//23
f 334//21 335//21 336//21
f 337//19 338//22 339//19
f 340//34 341//34 342//34
f 343//18 344//20 345//18
f 346//20 347//18 348//20
f 349//34 350//34 351//34
f 352//34 353//34 354//34
f 355//34 356//34 357//34
f 358//19 359//16 360//19
f 361//18 362//14 363//18
f 364//34 365//34 366//34
f 367//34 368//34 369//34
f 370//34 371//34 372//34
f 373//34 374//34 375//34
f 376//16 377//19 378//16
f 379//14 380//18 381//14
f 382//34 383//34 384//34
f 385//34 386//34 387//34
f 388//17 389//16 390//17
f 391//15 392//15 393//15
f 394//16 395//17 396//16
f 397//9 398//14 399//9
f 400//14 401//9 402//14
f 403//34 404//34 405//34
f 406//12 407//13 408//12
f 409//15 410//15 411//15
f 412//13 413//12 414//13
f 415//2 416//2 417//3
f 418//9 419//9 420//7
f 421//34 422//34 423//34
f 424//11 425//12 426//11
f 427//12 428//11 429//12
f 430//1 431//1 432//1
f 433//3 434//3 435//2
f 436//2 437//2 438//7
f 439//7 440//7 441//9
f 442//34 443//34 444//34
f 445//11 446//10 447//11
f 448//1 449//1 450//1
f 451//7 452//7 453//2
f 454//34 455//34 456//34
f 457//34 458//34 459//34
f 460//34 461//34 462//34
f 463//10 464//11 465//10
f 466//5 467//5 468//4
f 469//34 470//34 471//34
f 472//34 473//34 474//34
f 475//34 476//34 477//34
f 478//10 479//10 480//8
f 481//4 482//4 483//5
f 484//8 485//8 486//4
f 487//8 488//8 489//10
f 490//4 491//4 492//8
