# SSTK version 0.8.0
# 17
mtllib original-17.mtl
o mesh14/mesh14-geometry#mesh14-geometry
v 0.256324 0.702628 0.066742
v 0.252852 0.693354 0.066742
v 0.251764 0.695240 0.066742
v 0.258665 0.702628 0.066742
v 0.252852 0.686110 0.066742
v 0.250655 0.686110 0.066742
v 0.250655 0.693121 0.066742
v 0.247249 0.702628 0.066742
v 0.244820 0.702628 0.066742
vn 0 0 -1
vn 0 0 1
usemtl material_0_0
f 1//1 2//1 3//1
f 2//1 1//1 4//1
f 3//2 2//2 1//2
f 4//2 1//2 2//2
f 5//1 3//1 2//1
f 2//2 3//2 5//2
f 6//1 3//1 5//1
f 5//2 3//2 6//2
f 7//1 3//1 6//1
f 6//2 3//2 7//2
f 7//1 8//1 3//1
f 3//2 8//2 7//2
f 8//1 7//1 9//1
f 9//2 7//2 8//2
