# SSTK version 0.8.0
# 146
mtllib original-146.mtl
o mesh109/mesh109-geometry/material_4/component_3#mesh109-geometry
v -0.249796 0.407848 0.066655
v -0.249796 0.407848 0.084027
v -0.249796 0.390475 0.066655
v -0.249796 0.390475 0.066655
v -0.249796 0.390475 0.084027
v -0.249204 0.385979 0.066655
v -0.249796 0.390475 0.084027
v -0.249796 0.390475 0.066655
v -0.249796 0.407848 0.084027
v -0.249796 0.407848 0.084027
v -0.249796 0.407848 0.066655
v -0.249204 0.412344 0.084027
v -0.249204 0.385979 0.084027
v -0.249204 0.385979 0.066655
v -0.249796 0.390475 0.084027
v -0.249204 0.412344 0.066655
v -0.249204 0.412344 0.084027
v -0.249796 0.407848 0.066655
v -0.249796 0.390475 0.084027
v -0.249796 0.407848 0.084027
v -0.249204 0.385979 0.084027
v -0.249204 0.412344 0.084027
v -0.249204 0.385979 0.084027
v -0.249796 0.407848 0.084027
v -0.249204 0.385979 0.066655
v -0.249204 0.385979 0.084027
v -0.247469 0.381789 0.066655
v -0.249204 0.412344 0.084027
v -0.249204 0.412344 0.066655
v -0.247469 0.416534 0.084027
v -0.247469 0.416534 0.066655
v -0.247469 0.416534 0.084027
v -0.249204 0.412344 0.066655
v -0.247469 0.381789 0.084027
v -0.249204 0.385979 0.084027
v -0.249204 0.412344 0.084027
v -0.247469 0.381789 0.084027
v -0.247469 0.381789 0.066655
v -0.249204 0.385979 0.084027
v -0.247469 0.416534 0.084027
v -0.247469 0.381789 0.084027
v -0.249204 0.412344 0.084027
v -0.247469 0.416534 0.084027
v -0.247469 0.416534 0.066655
v -0.244708 0.420132 0.084027
v -0.247469 0.381789 0.066655
v -0.247469 0.381789 0.084027
v -0.244708 0.378191 0.066655
v -0.244708 0.378191 0.084027
v -0.247469 0.381789 0.084027
v -0.247469 0.416534 0.084027
v -0.244708 0.420132 0.066655
v -0.244708 0.420132 0.084027
v -0.247469 0.416534 0.066655
v -0.244708 0.420132 0.084027
v -0.244708 0.378191 0.084027
v -0.247469 0.416534 0.084027
v -0.244708 0.378191 0.084027
v -0.244708 0.378191 0.066655
v -0.247469 0.381789 0.084027
v -0.244708 0.420132 0.066655
v -0.241110 0.422893 0.066655
v -0.244708 0.420132 0.084027
v -0.241110 0.375430 0.084027
v -0.244708 0.378191 0.084027
v -0.244708 0.420132 0.084027
v -0.244708 0.378191 0.084027
v -0.241110 0.375430 0.084027
v -0.244708 0.378191 0.066655
v -0.241110 0.422893 0.084027
v -0.244708 0.420132 0.084027
v -0.241110 0.422893 0.066655
v -0.241110 0.422893 0.084027
v -0.241110 0.375430 0.084027
v -0.244708 0.420132 0.084027
v -0.162933 0.390475 0.066655
v -0.162933 0.390475 0.084027
v -0.162933 0.407848 0.066655
v -0.241110 0.375430 0.066655
v -0.244708 0.378191 0.066655
v -0.241110 0.375430 0.084027
v -0.241110 0.422893 0.066655
v -0.236920 0.424628 0.066655
v -0.241110 0.422893 0.084027
v -0.236920 0.373695 0.084027
v -0.241110 0.375430 0.084027
v -0.241110 0.422893 0.084027
v -0.236920 0.424628 0.066655
v -0.232423 0.425220 0.066655
v -0.236920 0.424628 0.084027
v -0.232423 0.425220 0.066655
v -0.180305 0.425220 0.066655
v -0.232423 0.425220 0.084027
v -0.162933 0.407848 0.084027
v -0.162933 0.407848 0.066655
v -0.162933 0.390475 0.084027
v -0.162933 0.390475 0.084027
v -0.162933 0.390475 0.066655
v -0.163525 0.385979 0.084027
v -0.162933 0.407848 0.066655
v -0.162933 0.407848 0.084027
v -0.163525 0.412344 0.066655
v -0.241110 0.375430 0.084027
v -0.236920 0.373695 0.084027
v -0.241110 0.375430 0.066655
v -0.236920 0.424628 0.084027
v -0.241110 0.422893 0.084027
v -0.236920 0.424628 0.066655
v -0.236920 0.424628 0.084027
v -0.236920 0.373695 0.084027
v -0.241110 0.422893 0.084027
v -0.232423 0.425220 0.084027
v -0.236920 0.424628 0.084027
v -0.232423 0.425220 0.066655
v -0.180305 0.425220 0.084027
v -0.232423 0.425220 0.084027
v -0.180305 0.425220 0.066655
v -0.175809 0.424628 0.066655
v -0.171619 0.422893 0.066655
v -0.175809 0.424628 0.084027
v -0.171619 0.422893 0.066655
v -0.168021 0.420132 0.066655
v -0.171619 0.422893 0.084027
v -0.180305 0.425220 0.066655
v -0.175809 0.424628 0.066655
v -0.180305 0.425220 0.084027
v -0.163525 0.385979 0.066655
v -0.163525 0.385979 0.084027
v -0.162933 0.390475 0.066655
v -0.162933 0.407848 0.084027
v -0.162933 0.390475 0.084027
v -0.163525 0.412344 0.084027
v -0.162933 0.390475 0.084027
v -0.163525 0.385979 0.084027
v -0.163525 0.412344 0.084027
v -0.163525 0.412344 0.084027
v -0.163525 0.412344 0.066655
v -0.162933 0.407848 0.084027
v -0.236920 0.373695 0.066655
v -0.241110 0.375430 0.066655
v -0.236920 0.373695 0.084027
v -0.232423 0.425220 0.084027
v -0.236920 0.373695 0.084027
v -0.236920 0.424628 0.084027
v -0.180305 0.425220 0.084027
v -0.180305 0.373103 0.084027
v -0.232423 0.425220 0.084027
v -0.171619 0.422893 0.084027
v -0.175809 0.424628 0.084027
v -0.171619 0.422893 0.066655
v -0.175809 0.424628 0.084027
v -0.180305 0.425220 0.084027
v -0.175809 0.424628 0.066655
v -0.168021 0.420132 0.084027
v -0.171619 0.422893 0.084027
v -0.168021 0.420132 0.066655
v -0.165260 0.416534 0.066655
v -0.165260 0.416534 0.084027
v -0.168021 0.420132 0.066655
v -0.163525 0.385979 0.084027
v -0.163525 0.385979 0.066655
v -0.165260 0.381789 0.084027
v -0.163525 0.412344 0.084027
v -0.163525 0.385979 0.084027
v -0.165260 0.416534 0.084027
v -0.163525 0.412344 0.066655
v -0.163525 0.412344 0.084027
v -0.165260 0.416534 0.066655
v -0.236920 0.373695 0.084027
v -0.232423 0.373103 0.084027
v -0.236920 0.373695 0.066655
v -0.232423 0.373103 0.084027
v -0.236920 0.373695 0.084027
v -0.232423 0.425220 0.084027
v -0.180305 0.373103 0.084027
v -0.232423 0.373103 0.084027
v -0.232423 0.425220 0.084027
v -0.175809 0.373695 0.084027
v -0.180305 0.373103 0.084027
v -0.180305 0.425220 0.084027
v -0.171619 0.422893 0.084027
v -0.175809 0.373695 0.084027
v -0.175809 0.424628 0.084027
v -0.175809 0.424628 0.084027
v -0.175809 0.373695 0.084027
v -0.180305 0.425220 0.084027
v -0.168021 0.420132 0.084027
v -0.168021 0.378191 0.084027
v -0.171619 0.422893 0.084027
v -0.168021 0.420132 0.084027
v -0.168021 0.420132 0.066655
v -0.165260 0.416534 0.084027
v -0.165260 0.416534 0.084027
v -0.165260 0.416534 0.066655
v -0.163525 0.412344 0.084027
v -0.165260 0.381789 0.066655
v -0.165260 0.381789 0.084027
v -0.163525 0.385979 0.066655
v -0.163525 0.385979 0.084027
v -0.165260 0.381789 0.084027
v -0.165260 0.416534 0.084027
v -0.232423 0.373103 0.066655
v -0.236920 0.373695 0.066655
v -0.232423 0.373103 0.084027
v -0.232423 0.373103 0.084027
v -0.180305 0.373103 0.084027
v -0.232423 0.373103 0.066655
v -0.180305 0.373103 0.084027
v -0.175809 0.373695 0.084027
v -0.180305 0.373103 0.066655
v -0.171619 0.375430 0.084027
v -0.175809 0.373695 0.084027
v -0.171619 0.422893 0.084027
v -0.168021 0.378191 0.084027
v -0.171619 0.375430 0.084027
v -0.171619 0.422893 0.084027
v -0.165260 0.381789 0.084027
v -0.168021 0.378191 0.084027
v -0.168021 0.420132 0.084027
v -0.165260 0.416534 0.084027
v -0.165260 0.381789 0.084027
v -0.168021 0.420132 0.084027
v -0.165260 0.381789 0.084027
v -0.165260 0.381789 0.066655
v -0.168021 0.378191 0.084027
v -0.180305 0.373103 0.066655
v -0.232423 0.373103 0.066655
v -0.180305 0.373103 0.084027
v -0.175809 0.373695 0.066655
v -0.180305 0.373103 0.066655
v -0.175809 0.373695 0.084027
v -0.175809 0.373695 0.084027
v -0.171619 0.375430 0.084027
v -0.175809 0.373695 0.066655
v -0.171619 0.375430 0.084027
v -0.168021 0.378191 0.084027
v -0.171619 0.375430 0.066655
v -0.168021 0.378191 0.066655
v -0.168021 0.378191 0.084027
v -0.165260 0.381789 0.066655
v -0.171619 0.375430 0.066655
v -0.175809 0.373695 0.066655
v -0.171619 0.375430 0.084027
v -0.168021 0.378191 0.066655
v -0.171619 0.375430 0.066655
v -0.168021 0.378191 0.084027
v -0.249796 0.390475 0.066655
v -0.249796 0.407848 0.084027
v -0.249796 0.407848 0.066655
v -0.249204 0.385979 0.066655
v -0.249796 0.390475 0.084027
v -0.249796 0.390475 0.066655
v -0.249796 0.407848 0.084027
v -0.249796 0.390475 0.066655
v -0.249796 0.390475 0.084027
v -0.249204 0.412344 0.084027
v -0.249796 0.407848 0.066655
v -0.249796 0.407848 0.084027
v -0.249796 0.390475 0.084027
v -0.249204 0.385979 0.066655
v -0.249204 0.385979 0.084027
v -0.249796 0.407848 0.066655
v -0.249204 0.412344 0.084027
v -0.249204 0.412344 0.066655
v -0.249204 0.385979 0.084027
v -0.249796 0.407848 0.084027
v -0.249796 0.390475 0.084027
v -0.249796 0.407848 0.084027
v -0.249204 0.385979 0.084027
v -0.249204 0.412344 0.084027
v -0.247469 0.381789 0.066655
v -0.249204 0.385979 0.084027
v -0.249204 0.385979 0.066655
v -0.247469 0.416534 0.084027
v -0.249204 0.412344 0.066655
v -0.249204 0.412344 0.084027
v -0.249204 0.412344 0.066655
v -0.247469 0.416534 0.084027
v -0.247469 0.416534 0.066655
v -0.249204 0.412344 0.084027
v -0.249204 0.385979 0.084027
v -0.247469 0.381789 0.084027
v -0.249204 0.385979 0.084027
v -0.247469 0.381789 0.066655
v -0.247469 0.381789 0.084027
v -0.249204 0.412344 0.084027
v -0.247469 0.381789 0.084027
v -0.247469 0.416534 0.084027
v -0.244708 0.420132 0.084027
v -0.247469 0.416534 0.066655
v -0.247469 0.416534 0.084027
v -0.244708 0.378191 0.066655
v -0.247469 0.381789 0.084027
v -0.247469 0.381789 0.066655
v -0.247469 0.416534 0.084027
v -0.247469 0.381789 0.084027
v -0.244708 0.378191 0.084027
v -0.247469 0.416534 0.066655
v -0.244708 0.420132 0.084027
v -0.244708 0.420132 0.066655
v -0.247469 0.416534 0.084027
v -0.244708 0.378191 0.084027
v -0.244708 0.420132 0.084027
v -0.247469 0.381789 0.084027
v -0.244708 0.378191 0.066655
v -0.244708 0.378191 0.084027
v -0.244708 0.420132 0.084027
v -0.241110 0.422893 0.066655
v -0.244708 0.420132 0.066655
v -0.244708 0.420132 0.084027
v -0.244708 0.378191 0.084027
v -0.241110 0.375430 0.084027
v -0.244708 0.378191 0.066655
v -0.241110 0.375430 0.084027
v -0.244708 0.378191 0.084027
v -0.241110 0.422893 0.066655
v -0.244708 0.420132 0.084027
v -0.241110 0.422893 0.084027
v -0.244708 0.420132 0.084027
v -0.241110 0.375430 0.084027
v -0.241110 0.422893 0.084027
v -0.162933 0.407848 0.066655
v -0.162933 0.390475 0.084027
v -0.162933 0.390475 0.066655
v -0.241110 0.375430 0.084027
v -0.244708 0.378191 0.066655
v -0.241110 0.375430 0.066655
v -0.241110 0.422893 0.084027
v -0.236920 0.424628 0.066655
v -0.241110 0.422893 0.066655
v -0.241110 0.422893 0.084027
v -0.241110 0.375430 0.084027
v -0.236920 0.373695 0.084027
v -0.236920 0.424628 0.084027
v -0.232423 0.425220 0.066655
v -0.236920 0.424628 0.066655
v -0.232423 0.425220 0.084027
v -0.180305 0.425220 0.066655
v -0.232423 0.425220 0.066655
v -0.162933 0.390475 0.084027
v -0.162933 0.407848 0.066655
v -0.162933 0.407848 0.084027
v -0.163525 0.385979 0.084027
v -0.162933 0.390475 0.066655
v -0.162933 0.390475 0.084027
v -0.163525 0.412344 0.066655
v -0.162933 0.407848 0.084027
v -0.162933 0.407848 0.066655
v -0.241110 0.375430 0.066655
v -0.236920 0.373695 0.084027
v -0.241110 0.375430 0.084027
v -0.236920 0.424628 0.066655
v -0.241110 0.422893 0.084027
v -0.236920 0.424628 0.084027
v -0.241110 0.422893 0.084027
v -0.236920 0.373695 0.084027
v -0.236920 0.424628 0.084027
v -0.232423 0.425220 0.066655
v -0.236920 0.424628 0.084027
v -0.232423 0.425220 0.084027
v -0.180305 0.425220 0.066655
v -0.232423 0.425220 0.084027
v -0.180305 0.425220 0.084027
v -0.175809 0.424628 0.084027
v -0.171619 0.422893 0.066655
v -0.175809 0.424628 0.066655
v -0.171619 0.422893 0.084027
v -0.168021 0.420132 0.066655
v -0.171619 0.422893 0.066655
v -0.180305 0.425220 0.084027
v -0.175809 0.424628 0.066655
v -0.180305 0.425220 0.066655
v -0.162933 0.390475 0.066655
v -0.163525 0.385979 0.084027
v -0.163525 0.385979 0.066655
v -0.163525 0.412344 0.084027
v -0.162933 0.390475 0.084027
v -0.162933 0.407848 0.084027
v -0.163525 0.412344 0.084027
v -0.163525 0.385979 0.084027
v -0.162933 0.390475 0.084027
v -0.162933 0.407848 0.084027
v -0.163525 0.412344 0.066655
v -0.163525 0.412344 0.084027
v -0.236920 0.373695 0.084027
v -0.241110 0.375430 0.066655
v -0.236920 0.373695 0.066655
v -0.236920 0.424628 0.084027
v -0.236920 0.373695 0.084027
v -0.232423 0.425220 0.084027
v -0.232423 0.425220 0.084027
v -0.180305 0.373103 0.084027
v -0.180305 0.425220 0.084027
v -0.171619 0.422893 0.066655
v -0.175809 0.424628 0.084027
v -0.171619 0.422893 0.084027
v -0.175809 0.424628 0.066655
v -0.180305 0.425220 0.084027
v -0.175809 0.424628 0.084027
v -0.168021 0.420132 0.066655
v -0.171619 0.422893 0.084027
v -0.168021 0.420132 0.084027
v -0.168021 0.420132 0.066655
v -0.165260 0.416534 0.084027
v -0.165260 0.416534 0.066655
v -0.165260 0.381789 0.084027
v -0.163525 0.385979 0.066655
v -0.163525 0.385979 0.084027
v -0.165260 0.416534 0.084027
v -0.163525 0.385979 0.084027
v -0.163525 0.412344 0.084027
v -0.165260 0.416534 0.066655
v -0.163525 0.412344 0.084027
v -0.163525 0.412344 0.066655
v -0.236920 0.373695 0.066655
v -0.232423 0.373103 0.084027
v -0.236920 0.373695 0.084027
v -0.232423 0.425220 0.084027
v -0.236920 0.373695 0.084027
v -0.232423 0.373103 0.084027
v -0.232423 0.425220 0.084027
v -0.232423 0.373103 0.084027
v -0.180305 0.373103 0.084027
v -0.180305 0.425220 0.084027
v -0.180305 0.373103 0.084027
v -0.175809 0.373695 0.084027
v -0.175809 0.424628 0.084027
v -0.175809 0.373695 0.084027
v -0.171619 0.422893 0.084027
v -0.180305 0.425220 0.084027
v -0.175809 0.373695 0.084027
v -0.175809 0.424628 0.084027
v -0.171619 0.422893 0.084027
v -0.168021 0.378191 0.084027
v -0.168021 0.420132 0.084027
v -0.165260 0.416534 0.084027
v -0.168021 0.420132 0.066655
v -0.168021 0.420132 0.084027
v -0.163525 0.412344 0.084027
v -0.165260 0.416534 0.066655
v -0.165260 0.416534 0.084027
v -0.163525 0.385979 0.066655
v -0.165260 0.381789 0.084027
v -0.165260 0.381789 0.066655
v -0.165260 0.416534 0.084027
v -0.165260 0.381789 0.084027
v -0.163525 0.385979 0.084027
v -0.232423 0.373103 0.084027
v -0.236920 0.373695 0.066655
v -0.232423 0.373103 0.066655
v -0.232423 0.373103 0.066655
v -0.180305 0.373103 0.084027
v -0.232423 0.373103 0.084027
v -0.180305 0.373103 0.066655
v -0.175809 0.373695 0.084027
v -0.180305 0.373103 0.084027
v -0.171619 0.422893 0.084027
v -0.175809 0.373695 0.084027
v -0.171619 0.375430 0.084027
v -0.171619 0.422893 0.084027
v -0.171619 0.375430 0.084027
v -0.168021 0.378191 0.084027
v -0.168021 0.420132 0.084027
v -0.168021 0.378191 0.084027
v -0.165260 0.381789 0.084027
v -0.168021 0.420132 0.084027
v -0.165260 0.381789 0.084027
v -0.165260 0.416534 0.084027
v -0.168021 0.378191 0.084027
v -0.165260 0.381789 0.066655
v -0.165260 0.381789 0.084027
v -0.180305 0.373103 0.084027
v -0.232423 0.373103 0.066655
v -0.180305 0.373103 0.066655
v -0.175809 0.373695 0.084027
v -0.180305 0.373103 0.066655
v -0.175809 0.373695 0.066655
v -0.175809 0.373695 0.066655
v -0.171619 0.375430 0.084027
v -0.175809 0.373695 0.084027
v -0.171619 0.375430 0.066655
v -0.168021 0.378191 0.084027
v -0.171619 0.375430 0.084027
v -0.165260 0.381789 0.066655
v -0.168021 0.378191 0.084027
v -0.168021 0.378191 0.066655
v -0.171619 0.375430 0.084027
v -0.175809 0.373695 0.066655
v -0.171619 0.375430 0.066655
v -0.168021 0.378191 0.084027
v -0.171619 0.375430 0.066655
v -0.168021 0.378191 0.066655
vn 1 0 0
vn 0.9914448878896857 0.13052599081182487 0
vn 0.9659258451755842 0.25881897461707376 0
vn 0.9914448878896857 -0.13052599081182487 0
vn 0.9659258451755842 -0.25881897461707376 0
vn 0 0 -1
vn 0.8660252955903434 0.5000001873976233 0
vn 0.8660252955903434 -0.5000001873976233 0
vn 0.7071067811865476 -0.7071067811865476 0
vn 0.7071067811865476 0.7071067811865476 0
vn 0.5000001873976233 -0.8660252955903434 0
vn 0.5000001873976233 0.8660252955903434 0
vn -1 0 0
vn 0.25881897461707376 -0.9659258451755842 0
vn 0.13052599081182487 -0.9914448878896857 0
vn 0 -1 0
vn -0.9914448878896857 0.13052599081182487 0
vn -0.9659258451755842 0.25881897461707376 0
vn -0.9914448878896857 -0.13052599081182487 0
vn -0.9659258451755842 -0.25881897461707376 0
vn 0.25881897461707376 0.9659258451755842 0
vn -0.25881897461707376 -0.9659258451755842 0
vn -0.5000001873976233 -0.8660252955903434 0
vn -0.7071067811865476 -0.7071067811865476 0
vn -0.13052599081182487 -0.9914448878896857 0
vn -0.8660252955903434 -0.5000001873976233 0
vn -0.8660252955903434 0.5000001873976233 0
vn 0.13052599081182487 0.9914448878896857 0
vn 0 1 0
vn -0.13052599081182487 0.9914448878896857 0
vn -0.25881897461707376 0.9659258451755842 0
vn -0.7071067811865476 0.7071067811865476 0
vn -0.5000001873976233 0.8660252955903434 0
vn 0 0 1
usemtl material_0_0
f 1//1 2//1 3//1
f 4//2 5//2 6//3
f 7//1 8//1 9//1
f 10//4 11//4 12//5
f 13//3 14//3 15//2
f 16//5 17//5 18//4
f 19//6 20//6 21//6
f 22//6 23//6 24//6
f 25//3 26//3 27//7
f 28//5 29//5 30//8
f 31//8 32//8 33//5
f 34//6 35//6 36//6
f 37//7 38//7 39//3
f 40//6 41//6 42//6
f 43//8 44//8 45//9
f 46//7 47//7 48//10
f 49//6 50//6 51//6
f 52//9 53//9 54//8
f 55//6 56//6 57//6
f 58//10 59//10 60//7
f 61//9 62//11 63//9
f 64//6 65//6 66//6
f 67//10 68//12 69//10
f 70//11 71//9 72//11
f 73//6 74//6 75//6
f 76//13 77//13 78//13
f 79//12 80//10 81//12
f 82//11 83//14 84//11
f 85//6 86//6 87//6
f 88//14 89//15 90//14
f 91//16 92//16 93//16
f 94//13 95//13 96//13
f 97//17 98//17 99//18
f 100//19 101//19 102//20
f 103//12 104//21 105//12
f 106//14 107//11 108//14
f 109//6 110//6 111//6
f 112//15 113//14 114//15
f 115//16 116//16 117//16
f 118//22 119//23 120//22
f 121//23 122//24 123//23
f 124//25 125//22 126//25
f 127//18 128//18 129//17
f 130//6 131//6 132//6
f 133//6 134//6 135//6
f 136//20 137//20 138//19
f 139//21 140//12 141//21
f 142//6 143//6 144//6
f 145//6 146//6 147//6
f 148//23 149//22 150//23
f 151//22 152//25 153//22
f 154//24 155//23 156//24
f 157//26 158//26 159//24
f 160//18 161//18 162//27
f 163//6 164//6 165//6
f 166//20 167//20 168//26
f 169//21 170//28 171//21
f 172//6 173//6 174//6
f 175//6 176//6 177//6
f 178//6 179//6 180//6
f 181//6 182//6 183//6
f 184//6 185//6 186//6
f 187//6 188//6 189//6
f 190//24 191//24 192//26
f 193//26 194//26 195//20
f 196//27 197//27 198//18
f 199//6 200//6 201//6
f 202//28 203//21 204//28
f 205//29 206//29 207//29
f 208//30 209//31 210//30
f 211//6 212//6 213//6
f 214//6 215//6 216//6
f 217//6 218//6 219//6
f 220//6 221//6 222//6
f 223//27 224//27 225//32
f 226//29 227//29 228//29
f 229//31 230//30 231//31
f 232//31 233//33 234//31
f 235//33 236//32 237//33
f 238//32 239//32 240//27
f 241//33 242//31 243//33
f 244//32 245//33 246//32
usemtl material_1_0
f 247//13 248//13 249//13
f 250//20 251//19 252//19
f 253//13 254//13 255//13
f 256//18 257//17 258//17
f 259//19 260//20 261//20
f 262//17 263//18 264//18
f 265//34 266//34 267//34
f 268//34 269//34 270//34
f 271//26 272//20 273//20
f 274//27 275//18 276//18
f 277//18 278//27 279//27
f 280//34 281//34 282//34
f 283//20 284//26 285//26
f 286//34 287//34 288//34
f 289//32 290//27 291//27
f 292//24 293//26 294//26
f 295//34 296//34 297//34
f 298//27 299//32 300//32
f 301//34 302//34 303//34
f 304//26 305//24 306//24
f 307//32 308//33 309//32
f 310//34 311//34 312//34
f 313//24 314//23 315//24
f 316//33 317//32 318//33
f 319//34 320//34 321//34
f 322//1 323//1 324//1
f 325//23 326//24 327//23
f 328//33 329//31 330//33
f 331//34 332//34 333//34
f 334//31 335//30 336//31
f 337//29 338//29 339//29
f 340//1 341//1 342//1
f 343//5 344//4 345//4
f 346//3 347//2 348//2
f 349//23 350//22 351//23
f 352//31 353//33 354//31
f 355//34 356//34 357//34
f 358//30 359//31 360//30
f 361//29 362//29 363//29
f 364//21 365//12 366//21
f 367//12 368//10 369//12
f 370//28 371//21 372//28
f 373//4 374//5 375//5
f 376//34 377//34 378//34
f 379//34 380//34 381//34
f 382//2 383//3 384//3
f 385//22 386//23 387//22
f 388//34 389//34 390//34
f 391//34 392//34 393//34
f 394//12 395//21 396//12
f 397//21 398//28 399//21
f 400//10 401//12 402//10
f 403//10 404//7 405//7
f 406//8 407//5 408//5
f 409//34 410//34 411//34
f 412//7 413//3 414//3
f 415//22 416//25 417//22
f 418//34 419//34 420//34
f 421//34 422//34 423//34
f 424//34 425//34 426//34
f 427//34 428//34 429//34
f 430//34 431//34 432//34
f 433//34 434//34 435//34
f 436//7 437//10 438//10
f 439//3 440//7 441//7
f 442//5 443//8 444//8
f 445//34 446//34 447//34
f 448//25 449//22 450//25
f 451//16 452//16 453//16
f 454//15 455//14 456//15
f 457//34 458//34 459//34
f 460//34 461//34 462//34
f 463//34 464//34 465//34
f 466//34 467//34 468//34
f 469//9 470//8 471//8
f 472//16 473//16 474//16
f 475//14 476//15 477//14
f 478//14 479//11 480//14
f 481//11 482//9 483//11
f 484//8 485//9 486//9
f 487//11 488//14 489//11
f 490//9 491//11 492//9
