# SSTK version 0.8.0
# 97
mtllib original-97.mtl
o _0_1/_0/mesh97/mesh97-geometry#mesh97-geometry
v -0.074455 -0.133424 0.084201
v -0.074028 -0.142486 0.084201
v -0.074305 -0.148277 0.084201
v -0.072486 -0.132111 0.084201
v -0.074499 -0.163078 0.084201
v -0.073631 -0.140095 0.084201
v -0.076036 -0.135264 0.084201
v -0.074061 -0.154068 0.084201
v -0.072996 -0.138204 0.084201
v -0.076069 -0.161234 0.084201
v -0.072528 -0.164396 0.084201
v -0.072056 -0.136673 0.084201
v -0.077249 -0.137654 0.084201
v -0.073679 -0.156275 0.084201
v -0.070129 -0.131322 0.084201
v -0.077268 -0.158843 0.084201
v -0.073018 -0.158239 0.084201
v -0.070833 -0.135586 0.084201
v -0.078116 -0.140619 0.084201
v -0.072134 -0.159764 0.084201
v -0.069288 -0.134937 0.084201
v -0.078124 -0.155887 0.084201
v -0.070156 -0.165186 0.084201
v -0.067383 -0.131059 0.084201
v -0.078636 -0.144160 0.084201
v -0.070944 -0.160879 0.084201
v -0.067383 -0.134720 0.084201
v -0.078638 -0.152365 0.084201
v -0.069382 -0.161561 0.084201
v -0.064610 -0.131326 0.084201
v -0.078809 -0.148277 0.084201
v -0.067383 -0.165450 0.084201
v -0.065467 -0.134937 0.084201
v -0.067383 -0.161789 0.084201
v -0.063933 -0.135586 0.084201
v -0.065475 -0.161572 0.084201
v -0.062238 -0.132127 0.084201
v -0.064646 -0.165190 0.084201
v -0.062732 -0.136662 0.084201
v -0.063922 -0.160923 0.084201
v -0.061814 -0.138159 0.084201
v -0.062294 -0.164409 0.084201
v -0.060267 -0.133462 0.084201
v -0.062701 -0.159836 0.084201
v -0.061146 -0.140078 0.084201
v -0.061792 -0.158305 0.084201
v -0.060738 -0.142375 0.084201
v -0.060325 -0.163109 0.084201
v -0.060460 -0.148232 0.084201
v -0.061140 -0.156350 0.084201
v -0.060738 -0.154079 0.084201
v -0.058741 -0.161290 0.084201
v -0.058697 -0.135330 0.084201
v -0.057523 -0.158913 0.084201
v -0.057498 -0.137738 0.084201
v -0.056653 -0.155945 0.084201
v -0.056642 -0.140691 0.084201
v -0.056131 -0.152385 0.084201
v -0.056128 -0.144189 0.084201
v -0.055957 -0.148232 0.084201
vn 0 0 -1
vn 0 0 1
usemtl material_0_0
f 1//1 2//1 3//1
f 2//1 1//1 4//1
f 3//2 2//2 1//2
f 4//2 1//2 2//2
f 5//1 1//1 3//1
f 3//2 1//2 5//2
f 2//1 4//1 6//1
f 6//2 4//2 2//2
f 5//1 7//1 1//1
f 1//2 7//2 5//2
f 5//1 3//1 8//1
f 8//2 3//2 5//2
f 6//1 4//1 9//1
f 9//2 4//2 6//2
f 10//1 7//1 5//1
f 5//2 7//2 10//2
f 5//1 8//1 11//1
f 11//2 8//2 5//2
f 9//1 4//1 12//1
f 12//2 4//2 9//2
f 10//1 13//1 7//1
f 7//2 13//2 10//2
f 11//1 8//1 14//1
f 14//2 8//2 11//2
f 12//1 4//1 15//1
f 15//2 4//2 12//2
f 16//1 13//1 10//1
f 10//2 13//2 16//2
f 11//1 14//1 17//1
f 17//2 14//2 11//2
f 12//1 15//1 18//1
f 18//2 15//2 12//2
f 16//1 19//1 13//1
f 13//2 19//2 16//2
f 11//1 17//1 20//1
f 20//2 17//2 11//2
f 18//1 15//1 21//1
f 21//2 15//2 18//2
f 22//1 19//1 16//1
f 16//2 19//2 22//2
f 11//1 20//1 23//1
f 23//2 20//2 11//2
f 21//1 15//1 24//1
f 24//2 15//2 21//2
f 22//1 25//1 19//1
f 19//2 25//2 22//2
f 23//1 20//1 26//1
f 26//2 20//2 23//2
f 21//1 24//1 27//1
f 27//2 24//2 21//2
f 28//1 25//1 22//1
f 22//2 25//2 28//2
f 23//1 26//1 29//1
f 29//2 26//2 23//2
f 27//1 24//1 30//1
f 30//2 24//2 27//2
f 25//1 28//1 31//1
f 31//2 28//2 25//2
f 23//1 29//1 32//1
f 32//2 29//2 23//2
f 27//1 30//1 33//1
f 33//2 30//2 27//2
f 32//1 29//1 34//1
f 34//2 29//2 32//2
f 33//1 30//1 35//1
f 35//2 30//2 33//2
f 32//1 34//1 36//1
f 36//2 34//2 32//2
f 35//1 30//1 37//1
f 37//2 30//2 35//2
f 32//1 36//1 38//1
f 38//2 36//2 32//2
f 35//1 37//1 39//1
f 39//2 37//2 35//2
f 38//1 36//1 40//1
f 40//2 36//2 38//2
f 39//1 37//1 41//1
f 41//2 37//2 39//2
f 38//1 40//1 42//1
f 42//2 40//2 38//2
f 41//1 37//1 43//1
f 43//2 37//2 41//2
f 42//1 40//1 44//1
f 44//2 40//2 42//2
f 41//1 43//1 45//1
f 45//2 43//2 41//2
f 42//1 44//1 46//1
f 46//2 44//2 42//2
f 45//1 43//1 47//1
f 47//2 43//2 45//2
f 42//1 46//1 48//1
f 48//2 46//2 42//2
f 47//1 43//1 49//1
f 49//2 43//2 47//2
f 48//1 46//1 50//1
f 50//2 46//2 48//2
f 49//1 43//1 48//1
f 48//2 43//2 49//2
f 48//1 50//1 51//1
f 51//2 50//2 48//2
f 48//1 43//1 52//1
f 52//2 43//2 48//2
f 48//1 51//1 49//1
f 49//2 51//2 48//2
f 52//1 43//1 53//1
f 53//2 43//2 52//2
f 52//1 53//1 54//1
f 54//2 53//2 52//2
f 54//1 53//1 55//1
f 55//2 53//2 54//2
f 54//1 55//1 56//1
f 56//2 55//2 54//2
f 56//1 55//1 57//1
f 57//2 55//2 56//2
f 56//1 57//1 58//1
f 58//2 57//2 56//2
f 58//1 57//1 59//1
f 59//2 57//2 58//2
f 58//1 59//1 60//1
f 60//2 59//2 58//2
