# SSTK version 0.8.0
# 26
mtllib original-26.mtl
o mesh22/mesh22-geometry#mesh22-geometry
v -0.061853 0.581064 0.066742
v -0.064049 0.571013 0.066742
v -0.064049 0.581064 0.066742
v -0.063539 0.565821 0.066742
v -0.062767 0.566821 0.066742
v -0.064232 0.568988 0.066742
v -0.062247 0.568046 0.066742
v -0.064466 0.565092 0.066742
v -0.061951 0.569497 0.066742
v -0.064478 0.568219 0.066742
v -0.061853 0.571180 0.066742
v -0.064848 0.567541 0.066742
v -0.065431 0.566902 0.066742
v -0.065536 0.564590 0.066742
v -0.066180 0.566448 0.066742
v -0.066773 0.564299 0.066742
v -0.067100 0.566178 0.066742
v -0.068199 0.564202 0.066742
v -0.068199 0.566088 0.066742
v -0.069290 0.566179 0.066742
v -0.069652 0.564304 0.066742
v -0.070212 0.566454 0.066742
v -0.070905 0.564612 0.066742
v -0.070962 0.566908 0.066742
v -0.071538 0.567541 0.066742
v -0.071908 0.568209 0.066742
v -0.071968 0.565120 0.066742
v -0.072153 0.568950 0.066742
v -0.072336 0.571069 0.066742
v -0.072847 0.565821 0.066742
v -0.072336 0.581064 0.066742
v -0.073619 0.566825 0.066742
v -0.074139 0.568018 0.066742
v -0.074434 0.569452 0.066742
v -0.074533 0.571180 0.066742
v -0.074533 0.581064 0.066742
vn 0 0 -1
vn 0 0 1
usemtl material_0_0
f 1//1 2//1 3//1
f 2//1 1//1 4//1
f 3//2 2//2 1//2
f 4//2 1//2 2//2
f 4//1 1//1 5//1
f 5//2 1//2 4//2
f 4//1 6//1 2//1
f 2//2 6//2 4//2
f 5//1 1//1 7//1
f 7//2 1//2 5//2
f 8//1 6//1 4//1
f 4//2 6//2 8//2
f 7//1 1//1 9//1
f 9//2 1//2 7//2
f 8//1 10//1 6//1
f 6//2 10//2 8//2
f 9//1 1//1 11//1
f 11//2 1//2 9//2
f 8//1 12//1 10//1
f 10//2 12//2 8//2
f 8//1 13//1 12//1
f 12//2 13//2 8//2
f 14//1 13//1 8//1
f 8//2 13//2 14//2
f 14//1 15//1 13//1
f 13//2 15//2 14//2
f 16//1 15//1 14//1
f 14//2 15//2 16//2
f 16//1 17//1 15//1
f 15//2 17//2 16//2
f 18//1 17//1 16//1
f 16//2 17//2 18//2
f 18//1 19//1 17//1
f 17//2 19//2 18//2
f 18//1 20//1 19//1
f 19//2 20//2 18//2
f 21//1 20//1 18//1
f 18//2 20//2 21//2
f 21//1 22//1 20//1
f 20//2 22//2 21//2
f 23//1 22//1 21//1
f 21//2 22//2 23//2
f 23//1 24//1 22//1
f 22//2 24//2 23//2
f 23//1 25//1 24//1
f 24//2 25//2 23//2
f 23//1 26//1 25//1
f 25//2 26//2 23//2
f 27//1 26//1 23//1
f 23//2 26//2 27//2
f 27//1 28//1 26//1
f 26//2 28//2 27//2
f 27//1 29//1 28//1
f 28//2 29//2 27//2
f 30//1 29//1 27//1
f 27//2 29//2 30//2
f 30//1 31//1 29//1
f 29//2 31//2 30//2
f 32//1 31//1 30//1
f 30//2 31//2 32//2
f 33//1 31//1 32//1
f 32//2 31//2 33//2
f 34//1 31//1 33//1
f 33//2 31//2 34//2
f 35//1 31//1 34//1
f 34//2 31//2 35//2
f 31//1 35//1 36//1
f 36//2 35//2 31//2
