# SSTK version 0.8.0
# 61
mtllib original-61.mtl
o mesh54/mesh54-geometry#mesh54-geometry
v 0.035677 0.337802 0.066742
v 0.037873 0.335917 0.066742
v 0.035677 0.321284 0.066742
v 0.040303 0.337802 0.066742
v 0.037873 0.321284 0.066742
v 0.040458 0.335917 0.066742
v 0.037873 0.329682 0.066742
v 0.042799 0.337608 0.066742
v 0.037873 0.327852 0.066742
v 0.042000 0.335789 0.066742
v 0.040092 0.329682 0.066742
v 0.043132 0.335340 0.066742
v 0.040968 0.327852 0.066742
v 0.043747 0.337338 0.066742
v 0.041911 0.329865 0.066742
v 0.043627 0.334920 0.066742
v 0.046493 0.321284 0.066742
v 0.043958 0.334413 0.066742
v 0.043132 0.328506 0.066742
v 0.044596 0.336915 0.066742
v 0.042630 0.330127 0.066742
v 0.049344 0.321284 0.066742
v 0.044145 0.333824 0.066742
v 0.043231 0.330547 0.066742
v 0.044208 0.333154 0.066742
v 0.044538 0.329265 0.066742
v 0.043666 0.331048 0.066742
v 0.045606 0.330320 0.066742
v 0.044148 0.332304 0.066742
v 0.043969 0.331618 0.066742
v 0.045396 0.336276 0.066742
v 0.045999 0.335489 0.066742
v 0.045999 0.330958 0.066742
v 0.046280 0.331669 0.066742
v 0.046378 0.334515 0.066742
v 0.046504 0.333310 0.066742
vn 0 0 -1
vn 0 0 1
usemtl material_0_0
f 1//1 2//1 3//1
f 2//1 1//1 4//1
f 3//2 2//2 1//2
f 4//2 1//2 2//2
f 2//1 5//1 3//1
f 3//2 5//2 2//2
f 2//1 4//1 6//1
f 6//2 4//2 2//2
f 5//1 2//1 7//1
f 7//2 2//2 5//2
f 6//1 4//1 8//1
f 8//2 4//2 6//2
f 5//1 7//1 9//1
f 9//2 7//2 5//2
f 6//1 8//1 10//1
f 10//2 8//2 6//2
f 11//1 9//1 7//1
f 7//2 9//2 11//2
f 10//1 8//1 12//1
f 12//2 8//2 10//2
f 9//1 11//1 13//1
f 13//2 11//2 9//2
f 12//1 8//1 14//1
f 14//2 8//2 12//2
f 13//1 11//1 15//1
f 15//2 11//2 13//2
f 12//1 14//1 16//1
f 16//2 14//2 12//2
f 13//1 15//1 17//1
f 17//2 15//2 13//2
f 16//1 14//1 18//1
f 18//2 14//2 16//2
f 17//1 15//1 19//1
f 19//2 15//2 17//2
f 18//1 14//1 20//1
f 20//2 14//2 18//2
f 19//1 15//1 21//1
f 21//2 15//2 19//2
f 17//1 19//1 22//1
f 22//2 19//2 17//2
f 18//1 20//1 23//1
f 24//1 19//1 21//1
f 21//2 19//2 24//2
f 23//1 20//1 25//1
f 23//2 20//2 18//2
f 25//2 20//2 23//2
f 19//1 24//1 26//1
f 26//2 24//2 19//2
f 25//1 20//1 26//1
f 26//2 20//2 25//2
f 26//1 24//1 27//1
f 27//2 24//2 26//2
f 26//1 20//1 28//1
f 28//2 20//2 26//2
f 26//1 29//1 25//1
f 25//2 29//2 26//2
f 26//1 27//1 30//1
f 30//2 27//2 26//2
f 28//1 20//1 31//1
f 31//2 20//2 28//2
f 26//1 30//1 29//1
f 29//2 30//2 26//2
f 28//1 31//1 32//1
f 32//2 31//2 28//2
f 28//1 32//1 33//1
f 33//2 32//2 28//2
f 33//1 32//1 34//1
f 34//2 32//2 33//2
f 34//1 32//1 35//1
f 35//2 32//2 34//2
f 34//1 35//1 36//1
f 36//2 35//2 34//2
