# SSTK version 0.8.0
# 32
mtllib original-32.mtl
o mesh28/mesh28-geometry#mesh28-geometry
v 0.209148 0.581064 0.066742
v 0.195148 0.579112 0.066742
v 0.195148 0.581064 0.066742
v 0.201050 0.579112 0.066742
v 0.203247 0.579112 0.066742
v 0.209148 0.579112 0.066742
v 0.201050 0.564546 0.066742
v 0.203247 0.564546 0.066742
vn 0 0 -1
vn 0 0 1
usemtl material_0_0
f 1//1 2//1 3//1
f 2//1 1//1 4//1
f 3//2 2//2 1//2
f 4//2 1//2 2//2
f 4//1 1//1 5//1
f 5//2 1//2 4//2
f 5//1 1//1 6//1
f 6//2 1//2 5//2
f 4//1 5//1 7//1
f 7//2 5//2 4//2
f 8//1 7//1 5//1
f 5//2 7//2 8//2
