# SSTK version 0.8.0
# 127
mtllib original-127.mtl
o mesh109/mesh109-geometry/material_0/component_13#mesh109-geometry
v -0.155430 0.069387 0.066655
v -0.154246 0.060395 0.084027
v -0.154246 0.060395 0.066655
v -0.154246 0.060395 0.066655
v -0.155430 0.051402 0.084027
v -0.155430 0.051402 0.066655
v -0.154246 0.060395 0.084027
v -0.155430 0.069387 0.066655
v -0.155430 0.069387 0.084027
v -0.155430 0.051402 0.084027
v -0.154246 0.060395 0.066655
v -0.154246 0.060395 0.084027
v -0.158901 0.043022 0.084027
v -0.155430 0.051402 0.066655
v -0.155430 0.051402 0.084027
v -0.158901 0.077767 0.066655
v -0.155430 0.069387 0.084027
v -0.155430 0.069387 0.066655
v -0.155430 0.069387 0.084027
v -0.155430 0.051402 0.084027
v -0.154246 0.060395 0.084027
v -0.155430 0.051402 0.066655
v -0.158901 0.043022 0.084027
v -0.158901 0.043022 0.066655
v -0.158901 0.077767 0.084027
v -0.158901 0.043022 0.084027
v -0.155430 0.051402 0.084027
v -0.223737 0.060395 0.066655
v -0.222553 0.069387 0.084027
v -0.222553 0.069387 0.066655
v -0.222553 0.051402 0.066655
v -0.223737 0.060395 0.084027
v -0.223737 0.060395 0.066655
v -0.164423 0.084963 0.066655
v -0.158901 0.077767 0.084027
v -0.158901 0.077767 0.066655
v -0.155430 0.069387 0.084027
v -0.158901 0.077767 0.066655
v -0.158901 0.077767 0.084027
v -0.158901 0.077767 0.084027
v -0.155430 0.051402 0.084027
v -0.155430 0.069387 0.084027
v -0.164423 0.035826 0.084027
v -0.158901 0.043022 0.066655
v -0.158901 0.043022 0.084027
v -0.164423 0.084963 0.084027
v -0.158901 0.043022 0.084027
v -0.158901 0.077767 0.084027
v -0.222553 0.069387 0.084027
v -0.223737 0.060395 0.066655
v -0.223737 0.060395 0.084027
v -0.219082 0.077767 0.084027
v -0.222553 0.069387 0.066655
v -0.222553 0.069387 0.084027
v -0.223737 0.060395 0.084027
v -0.222553 0.051402 0.066655
v -0.222553 0.051402 0.084027
v -0.171619 0.090485 0.084027
v -0.164423 0.084963 0.066655
v -0.171619 0.090485 0.066655
v -0.179999 0.093956 0.084027
v -0.171619 0.090485 0.066655
v -0.179999 0.093956 0.066655
v -0.158901 0.077767 0.084027
v -0.164423 0.084963 0.066655
v -0.164423 0.084963 0.084027
v -0.158901 0.043022 0.066655
v -0.164423 0.035826 0.084027
v -0.164423 0.035826 0.066655
v -0.164423 0.084963 0.084027
v -0.164423 0.035826 0.084027
v -0.158901 0.043022 0.084027
v -0.222553 0.069387 0.066655
v -0.219082 0.077767 0.084027
v -0.219082 0.077767 0.066655
v -0.222553 0.051402 0.084027
v -0.222553 0.069387 0.084027
v -0.223737 0.060395 0.084027
v -0.222553 0.069387 0.084027
v -0.219082 0.043022 0.084027
v -0.219082 0.077767 0.084027
v -0.219082 0.043022 0.066655
v -0.222553 0.051402 0.084027
v -0.222553 0.051402 0.066655
v -0.164423 0.084963 0.066655
v -0.171619 0.090485 0.084027
v -0.164423 0.084963 0.084027
v -0.171619 0.090485 0.066655
v -0.179999 0.093956 0.084027
v -0.171619 0.090485 0.084027
v -0.179999 0.093956 0.066655
v -0.188992 0.095140 0.084027
v -0.179999 0.093956 0.084027
v -0.164423 0.035826 0.084027
v -0.171619 0.030305 0.066655
v -0.164423 0.035826 0.066655
v -0.171619 0.090485 0.084027
v -0.164423 0.035826 0.084027
v -0.164423 0.084963 0.084027
v -0.213560 0.084963 0.084027
v -0.219082 0.077767 0.066655
v -0.219082 0.077767 0.084027
v -0.222553 0.069387 0.084027
v -0.222553 0.051402 0.084027
v -0.219082 0.043022 0.084027
v -0.219082 0.077767 0.084027
v -0.219082 0.043022 0.084027
v -0.213560 0.035826 0.084027
v -0.222553 0.051402 0.084027
v -0.219082 0.043022 0.066655
v -0.219082 0.043022 0.084027
v -0.188992 0.095140 0.084027
v -0.179999 0.093956 0.066655
v -0.188992 0.095140 0.066655
v -0.179999 0.093956 0.084027
v -0.171619 0.030305 0.084027
v -0.171619 0.090485 0.084027
v -0.188992 0.095140 0.084027
v -0.179999 0.026833 0.084027
v -0.179999 0.093956 0.084027
v -0.171619 0.030305 0.066655
v -0.164423 0.035826 0.084027
v -0.171619 0.030305 0.084027
v -0.171619 0.090485 0.084027
v -0.171619 0.030305 0.084027
v -0.164423 0.035826 0.084027
v -0.219082 0.077767 0.066655
v -0.213560 0.084963 0.084027
v -0.213560 0.084963 0.066655
v -0.219082 0.077767 0.084027
v -0.213560 0.035826 0.084027
v -0.213560 0.084963 0.084027
v -0.219082 0.043022 0.084027
v -0.213560 0.035826 0.066655
v -0.213560 0.035826 0.084027
v -0.213560 0.035826 0.066655
v -0.219082 0.043022 0.084027
v -0.219082 0.043022 0.066655
v -0.206364 0.030305 0.084027
v -0.213560 0.035826 0.066655
v -0.206364 0.030305 0.066655
v -0.197984 0.026833 0.084027
v -0.206364 0.030305 0.066655
v -0.197984 0.026833 0.066655
v -0.188992 0.025650 0.084027
v -0.197984 0.026833 0.066655
v -0.188992 0.025650 0.066655
v -0.179999 0.026833 0.084027
v -0.188992 0.025650 0.066655
v -0.179999 0.026833 0.066655
v -0.171619 0.030305 0.084027
v -0.179999 0.026833 0.066655
v -0.171619 0.030305 0.066655
v -0.188992 0.095140 0.066655
v -0.197984 0.093956 0.084027
v -0.188992 0.095140 0.084027
v -0.179999 0.093956 0.084027
v -0.179999 0.026833 0.084027
v -0.171619 0.030305 0.084027
v -0.188992 0.095140 0.084027
v -0.188992 0.025650 0.084027
v -0.179999 0.026833 0.084027
v -0.213560 0.084963 0.084027
v -0.206364 0.090485 0.066655
v -0.213560 0.084963 0.066655
v -0.213560 0.084963 0.084027
v -0.213560 0.035826 0.084027
v -0.206364 0.030305 0.084027
v -0.213560 0.035826 0.066655
v -0.206364 0.030305 0.084027
v -0.213560 0.035826 0.084027
v -0.206364 0.030305 0.066655
v -0.197984 0.026833 0.084027
v -0.206364 0.030305 0.084027
v -0.197984 0.026833 0.066655
v -0.188992 0.025650 0.084027
v -0.197984 0.026833 0.084027
v -0.188992 0.025650 0.066655
v -0.179999 0.026833 0.084027
v -0.188992 0.025650 0.084027
v -0.179999 0.026833 0.066655
v -0.171619 0.030305 0.084027
v -0.179999 0.026833 0.084027
v -0.197984 0.093956 0.084027
v -0.188992 0.095140 0.066655
v -0.197984 0.093956 0.066655
v -0.197984 0.093956 0.084027
v -0.188992 0.025650 0.084027
v -0.188992 0.095140 0.084027
v -0.206364 0.090485 0.066655
v -0.213560 0.084963 0.084027
v -0.206364 0.090485 0.084027
v -0.213560 0.084963 0.084027
v -0.206364 0.030305 0.084027
v -0.206364 0.090485 0.084027
v -0.206364 0.090485 0.084027
v -0.206364 0.030305 0.084027
v -0.197984 0.026833 0.084027
v -0.197984 0.093956 0.084027
v -0.197984 0.026833 0.084027
v -0.188992 0.025650 0.084027
v -0.206364 0.090485 0.084027
v -0.197984 0.093956 0.066655
v -0.206364 0.090485 0.066655
v -0.197984 0.093956 0.066655
v -0.206364 0.090485 0.084027
v -0.197984 0.093956 0.084027
v -0.206364 0.090485 0.084027
v -0.197984 0.026833 0.084027
v -0.197984 0.093956 0.084027
v -0.154246 0.060395 0.066655
v -0.154246 0.060395 0.084027
v -0.155430 0.069387 0.066655
v -0.155430 0.051402 0.066655
v -0.155430 0.051402 0.084027
v -0.154246 0.060395 0.066655
v -0.155430 0.069387 0.084027
v -0.155430 0.069387 0.066655
v -0.154246 0.060395 0.084027
v -0.154246 0.060395 0.084027
v -0.154246 0.060395 0.066655
v -0.155430 0.051402 0.084027
v -0.155430 0.051402 0.084027
v -0.155430 0.051402 0.066655
v -0.158901 0.043022 0.084027
v -0.155430 0.069387 0.066655
v -0.155430 0.069387 0.084027
v -0.158901 0.077767 0.066655
v -0.154246 0.060395 0.084027
v -0.155430 0.051402 0.084027
v -0.155430 0.069387 0.084027
v -0.158901 0.043022 0.066655
v -0.158901 0.043022 0.084027
v -0.155430 0.051402 0.066655
v -0.155430 0.051402 0.084027
v -0.158901 0.043022 0.084027
v -0.158901 0.077767 0.084027
v -0.222553 0.069387 0.066655
v -0.222553 0.069387 0.084027
v -0.223737 0.060395 0.066655
v -0.223737 0.060395 0.066655
v -0.223737 0.060395 0.084027
v -0.222553 0.051402 0.066655
v -0.158901 0.077767 0.066655
v -0.158901 0.077767 0.084027
v -0.164423 0.084963 0.066655
v -0.158901 0.077767 0.084027
v -0.158901 0.077767 0.066655
v -0.155430 0.069387 0.084027
v -0.155430 0.069387 0.084027
v -0.155430 0.051402 0.084027
v -0.158901 0.077767 0.084027
v -0.158901 0.043022 0.084027
v -0.158901 0.043022 0.066655
v -0.164423 0.035826 0.084027
v -0.158901 0.077767 0.084027
v -0.158901 0.043022 0.084027
v -0.164423 0.084963 0.084027
v -0.223737 0.060395 0.084027
v -0.223737 0.060395 0.066655
v -0.222553 0.069387 0.084027
v -0.222553 0.069387 0.084027
v -0.222553 0.069387 0.066655
v -0.219082 0.077767 0.084027
v -0.222553 0.051402 0.084027
v -0.222553 0.051402 0.066655
v -0.223737 0.060395 0.084027
v -0.171619 0.090485 0.066655
v -0.164423 0.084963 0.066655
v -0.171619 0.090485 0.084027
v -0.179999 0.093956 0.066655
v -0.171619 0.090485 0.066655
v -0.179999 0.093956 0.084027
v -0.164423 0.084963 0.084027
v -0.164423 0.084963 0.066655
v -0.158901 0.077767 0.084027
v -0.164423 0.035826 0.066655
v -0.164423 0.035826 0.084027
v -0.158901 0.043022 0.066655
v -0.158901 0.043022 0.084027
v -0.164423 0.035826 0.084027
v -0.164423 0.084963 0.084027
v -0.219082 0.077767 0.066655
v -0.219082 0.077767 0.084027
v -0.222553 0.069387 0.066655
v -0.223737 0.060395 0.084027
v -0.222553 0.069387 0.084027
v -0.222553 0.051402 0.084027
v -0.219082 0.077767 0.084027
v -0.219082 0.043022 0.084027
v -0.222553 0.069387 0.084027
v -0.222553 0.051402 0.066655
v -0.222553 0.051402 0.084027
v -0.219082 0.043022 0.066655
v -0.164423 0.084963 0.084027
v -0.171619 0.090485 0.084027
v -0.164423 0.084963 0.066655
v -0.171619 0.090485 0.084027
v -0.179999 0.093956 0.084027
v -0.171619 0.090485 0.066655
v -0.179999 0.093956 0.084027
v -0.188992 0.095140 0.084027
v -0.179999 0.093956 0.066655
v -0.164423 0.035826 0.066655
v -0.171619 0.030305 0.066655
v -0.164423 0.035826 0.084027
v -0.164423 0.084963 0.084027
v -0.164423 0.035826 0.084027
v -0.171619 0.090485 0.084027
v -0.219082 0.077767 0.084027
v -0.219082 0.077767 0.066655
v -0.213560 0.084963 0.084027
v -0.219082 0.043022 0.084027
v -0.222553 0.051402 0.084027
v -0.222553 0.069387 0.084027
v -0.213560 0.035826 0.084027
v -0.219082 0.043022 0.084027
v -0.219082 0.077767 0.084027
v -0.219082 0.043022 0.084027
v -0.219082 0.043022 0.066655
v -0.222553 0.051402 0.084027
v -0.188992 0.095140 0.066655
v -0.179999 0.093956 0.066655
v -0.188992 0.095140 0.084027
v -0.171619 0.090485 0.084027
v -0.171619 0.030305 0.084027
v -0.179999 0.093956 0.084027
v -0.179999 0.093956 0.084027
v -0.179999 0.026833 0.084027
v -0.188992 0.095140 0.084027
v -0.171619 0.030305 0.084027
v -0.164423 0.035826 0.084027
v -0.171619 0.030305 0.066655
v -0.164423 0.035826 0.084027
v -0.171619 0.030305 0.084027
v -0.171619 0.090485 0.084027
v -0.213560 0.084963 0.066655
v -0.213560 0.084963 0.084027
v -0.219082 0.077767 0.066655
v -0.213560 0.084963 0.084027
v -0.213560 0.035826 0.084027
v -0.219082 0.077767 0.084027
v -0.213560 0.035826 0.084027
v -0.213560 0.035826 0.066655
v -0.219082 0.043022 0.084027
v -0.219082 0.043022 0.066655
v -0.219082 0.043022 0.084027
v -0.213560 0.035826 0.066655
v -0.206364 0.030305 0.066655
v -0.213560 0.035826 0.066655
v -0.206364 0.030305 0.084027
v -0.197984 0.026833 0.066655
v -0.206364 0.030305 0.066655
v -0.197984 0.026833 0.084027
v -0.188992 0.025650 0.066655
v -0.197984 0.026833 0.066655
v -0.188992 0.025650 0.084027
v -0.179999 0.026833 0.066655
v -0.188992 0.025650 0.066655
v -0.179999 0.026833 0.084027
v -0.171619 0.030305 0.066655
v -0.179999 0.026833 0.066655
v -0.171619 0.030305 0.084027
v -0.188992 0.095140 0.084027
v -0.197984 0.093956 0.084027
v -0.188992 0.095140 0.066655
v -0.171619 0.030305 0.084027
v -0.179999 0.026833 0.084027
v -0.179999 0.093956 0.084027
v -0.179999 0.026833 0.084027
v -0.188992 0.025650 0.084027
v -0.188992 0.095140 0.084027
v -0.213560 0.084963 0.066655
v -0.206364 0.090485 0.066655
v -0.213560 0.084963 0.084027
v -0.206364 0.030305 0.084027
v -0.213560 0.035826 0.084027
v -0.213560 0.084963 0.084027
v -0.213560 0.035826 0.084027
v -0.206364 0.030305 0.084027
v -0.213560 0.035826 0.066655
v -0.206364 0.030305 0.084027
v -0.197984 0.026833 0.084027
v -0.206364 0.030305 0.066655
v -0.197984 0.026833 0.084027
v -0.188992 0.025650 0.084027
v -0.197984 0.026833 0.066655
v -0.188992 0.025650 0.084027
v -0.179999 0.026833 0.084027
v -0.188992 0.025650 0.066655
v -0.179999 0.026833 0.084027
v -0.171619 0.030305 0.084027
v -0.179999 0.026833 0.066655
v -0.197984 0.093956 0.066655
v -0.188992 0.095140 0.066655
v -0.197984 0.093956 0.084027
v -0.188992 0.095140 0.084027
v -0.188992 0.025650 0.084027
v -0.197984 0.093956 0.084027
v -0.206364 0.090485 0.084027
v -0.213560 0.084963 0.084027
v -0.206364 0.090485 0.066655
v -0.206364 0.090485 0.084027
v -0.206364 0.030305 0.084027
v -0.213560 0.084963 0.084027
v -0.197984 0.026833 0.084027
v -0.206364 0.030305 0.084027
v -0.206364 0.090485 0.084027
v -0.188992 0.025650 0.084027
v -0.197984 0.026833 0.084027
v -0.197984 0.093956 0.084027
v -0.206364 0.090485 0.066655
v -0.197984 0.093956 0.066655
v -0.206364 0.090485 0.084027
v -0.197984 0.093956 0.084027
v -0.206364 0.090485 0.084027
v -0.197984 0.093956 0.066655
v -0.197984 0.093956 0.084027
v -0.197984 0.026833 0.084027
v -0.206364 0.090485 0.084027
vn 0.9659258451755842 0.25881897461707376 0
vn 1 0 0
vn 0.9659258451755842 -0.25881897461707376 0
vn 0.8660252955903434 -0.5000001873976233 0
vn 0.8660252955903434 0.5000001873976233 0
vn 0 0 1
vn -1 0 0
vn -0.9659258451755842 0.25881897461707376 0
vn -0.9659258451755842 -0.25881897461707376 0
vn 0.7071067811865476 0.7071067811865476 0
vn 0.7071067811865476 -0.7071067811865476 0
vn -0.8660252955903434 0.5000001873976233 0
vn 0.5000001873976233 0.8660252955903434 0
vn 0.25881897461707376 0.9659258451755842 0
vn -0.8660252955903434 -0.5000001873976233 0
vn 0 1 0
vn 0.5000001873976233 -0.8660252955903434 0
vn -0.7071067811865476 0.7071067811865476 0
vn -0.7071067811865476 -0.7071067811865476 0
vn -0.5000001873976233 -0.8660252955903434 0
vn -0.25881897461707376 -0.9659258451755842 0
vn 0 -1 0
vn 0.25881897461707376 -0.9659258451755842 0
vn -0.25881897461707376 0.9659258451755842 0
vn -0.5000001873976233 0.8660252955903434 0
vn 0 0 -1
usemtl material_0_0
f 1//1 2//2 3//2
f 4//2 5//3 6//3
f 7//2 8//1 9//1
f 10//3 11//2 12//2
f 13//4 14//3 15//3
f 16//5 17//1 18//1
f 19//6 20//6 21//6
f 22//3 23//4 24//4
f 25//6 26//6 27//6
f 28//7 29//8 30//8
f 31//9 32//7 33//7
f 34//10 35//5 36//5
f 37//1 38//5 39//5
f 40//6 41//6 42//6
f 43//11 44//4 45//4
f 46//6 47//6 48//6
f 49//8 50//7 51//7
f 52//12 53//8 54//8
f 55//7 56//9 57//9
f 58//13 59//10 60//13
f 61//14 62//13 63//14
f 64//5 65//10 66//10
f 67//4 68//11 69//11
f 70//6 71//6 72//6
f 73//8 74//12 75//12
f 76//6 77//6 78//6
f 79//6 80//6 81//6
f 82//15 83//9 84//9
f 85//10 86//13 87//10
f 88//13 89//14 90//13
f 91//14 92//16 93//14
f 94//11 95//17 96//11
f 97//6 98//6 99//6
f 100//18 101//12 102//12
f 103//6 104//6 105//6
f 106//6 107//6 108//6
f 109//9 110//15 111//15
f 112//16 113//14 114//16
f 115//6 116//6 117//6
f 118//6 119//6 120//6
f 121//17 122//11 123//17
f 124//6 125//6 126//6
f 127//12 128//18 129//18
f 130//6 131//6 132//6
f 133//15 134//19 135//19
f 136//19 137//15 138//15
f 139//20 140//19 141//20
f 142//21 143//20 144//21
f 145//22 146//21 147//22
f 148//23 149//22 150//23
f 151//17 152//23 153//17
f 154//16 155//24 156//16
f 157//6 158//6 159//6
f 160//6 161//6 162//6
f 163//18 164//25 165//18
f 166//6 167//6 168//6
f 169//19 170//20 171//19
f 172//20 173//21 174//20
f 175//21 176//22 177//21
f 178//22 179//23 180//22
f 181//23 182//17 183//23
f 184//24 185//16 186//24
f 187//6 188//6 189//6
f 190//25 191//18 192//25
f 193//6 194//6 195//6
f 196//6 197//6 198//6
f 199//6 200//6 201//6
f 202//25 203//24 204//25
f 205//24 206//25 207//24
f 208//6 209//6 210//6
usemtl material_1_0
f 211//7 212//7 213//9
f 214//8 215//8 216//7
f 217//9 218//9 219//7
f 220//7 221//7 222//8
f 223//8 224//8 225//12
f 226//9 227//9 228//15
f 229//26 230//26 231//26
f 232//12 233//12 234//8
f 235//26 236//26 237//26
f 238//3 239//3 240//2
f 241//2 242//2 243//1
f 244//15 245//15 246//19
f 247//15 248//15 249//9
f 250//26 251//26 252//26
f 253//12 254//12 255//18
f 256//26 257//26 258//26
f 259//2 260//2 261//3
f 262//3 263//3 264//4
f 265//1 266//1 267//2
f 268//20 269//19 270//20
f 271//21 272//20 273//21
f 274//19 275//19 276//15
f 277//18 278//18 279//12
f 280//26 281//26 282//26
f 283//4 284//4 285//3
f 286//26 287//26 288//26
f 289//26 290//26 291//26
f 292//1 293//1 294//5
f 295//19 296//20 297//19
f 298//20 299//21 300//20
f 301//21 302//22 303//21
f 304//18 305//25 306//18
f 307//26 308//26 309//26
f 310//4 311//4 312//11
f 313//26 314//26 315//26
f 316//26 317//26 318//26
f 319//5 320//5 321//1
f 322//22 323//21 324//22
f 325//26 326//26 327//26
f 328//26 329//26 330//26
f 331//25 332//18 333//25
f 334//26 335//26 336//26
f 337//11 338//11 339//4
f 340//26 341//26 342//26
f 343//10 344//10 345//5
f 346//5 347//5 348//10
f 349//13 350//10 351//13
f 352//14 353//13 354//14
f 355//16 356//14 357//16
f 358//24 359//16 360//24
f 361//25 362//24 363//25
f 364//22 365//23 366//22
f 367//26 368//26 369//26
f 370//26 371//26 372//26
f 373//11 374//17 375//11
f 376//26 377//26 378//26
f 379//10 380//13 381//10
f 382//13 383//14 384//13
f 385//14 386//16 387//14
f 388//16 389//24 390//16
f 391//24 392//25 393//24
f 394//23 395//22 396//23
f 397//26 398//26 399//26
f 400//17 401//11 402//17
f 403//26 404//26 405//26
f 406//26 407//26 408//26
f 409//26 410//26 411//26
f 412//17 413//23 414//17
f 415//23 416//17 417//23
f 418//26 419//26 420//26
