mtllib new-11.mtl
v -0.193477 -0.000320 0.094306
v -0.282509 -0.000320 -0.022705
v -0.182068 -0.000320 -0.118352
v -0.193477 -0.016605 0.094306
v -0.282509 -0.016605 -0.022705
v -0.071222 -0.000320 -0.008351
v -0.792681 -0.000320 -0.632156
v -0.213690 -0.016605 0.003882
v -0.071222 -0.016605 -0.008351
v -0.362106 -0.000320 -0.296202
v -0.792681 -0.016605 -0.632156
v -0.781208 -0.000320 -0.636401
v -0.215841 -0.016605 -0.007249
v -0.208731 -0.016605 0.014076
v -0.158758 -0.016605 0.031343
v -0.182068 -0.016605 -0.118352
v -0.069311 -0.000320 -0.005830
v -0.730303 -0.000320 -0.602982
v -0.796234 -0.000320 -0.636401
v -0.781208 -0.016605 -0.636401
v -0.215038 -0.016605 -0.018557
v -0.201303 -0.016605 0.022640
v -0.069311 -0.016605 -0.005830
v -0.169888 -0.016605 0.033495
v -0.148563 -0.016605 0.026385
v -0.153075 -0.016605 -0.048696
v -0.362106 -0.016605 -0.296202
v -0.796234 -0.016605 -0.636401
v -0.730303 -0.016605 -0.602982
v -0.191911 -0.016605 0.028990
v -0.063971 -0.016605 0.001216
v -0.181197 -0.016605 0.032692
v -0.140000 -0.016605 0.018956
v -0.163790 -0.016605 -0.052399
v -0.143683 -0.016605 -0.042347
v -0.063971 -0.000320 0.001216
v -0.058903 -0.016605 0.008461
v -0.133650 -0.016605 0.009565
v -0.175098 -0.016605 -0.053202
v -0.136255 -0.016605 -0.033783
v -0.058903 -0.000320 0.008461
v -0.204987 -0.016605 -0.038663
v -0.129948 -0.016605 -0.001150
v -0.186229 -0.016605 -0.051050
v -0.131296 -0.016605 -0.023589
v -0.054115 -0.000320 0.015895
v -0.196423 -0.016605 -0.046092
v -0.129145 -0.016605 -0.012458
vn 0.000000 -1.000000 0.000000
vn 0.000000 1.000000 0.000000
vn 0.795823 0.000000 -0.605529
vn 0.643060 0.000000 0.765815
vn -0.643060 0.000000 -0.765815
vn 0.766799 0.000000 -0.641888
vn -0.704396 0.000000 0.709807
vn -0.796950 0.000000 0.604045
vn -0.702772 0.000000 0.711416
vn -0.640120 0.000000 0.768275
vn -0.595428 0.000000 0.803409
vn 0.000000 0.000000 1.000000
vn -0.548811 0.000000 0.835947
vn -0.808337 0.000000 0.588720
vn -0.830223 0.000000 0.557431
vn -0.850899 0.000000 0.525330
vn 0.000000 0.000000 -1.000000
vn -0.795823 0.000000 0.605529
vn -0.766799 0.000000 0.641888
vn 0.704396 0.000000 -0.709807
vn 0.796950 0.000000 -0.604045
vn 0.702772 0.000000 -0.711416
vn 0.640120 0.000000 -0.768275
vn 0.595428 0.000000 -0.803409
vn 0.548811 0.000000 -0.835947
vn 0.808337 0.000000 -0.588720
vn 0.830223 0.000000 -0.557431
vn 0.850899 0.000000 -0.525330
vt -1.707962 -0.398345
vt -1.686606 -0.370277
vt 1.315964 -0.002025
vt 1.351233 -0.005932
vt 1.351233 -0.002025
vt 1.315964 -0.005932
vt 1.686606 -0.370277
vt 1.710699 -0.347335
vt 1.175891 -0.002025
vt 1.366540 -0.005932
vt 1.366540 -0.002025
vt -1.703114 -0.376655
vt -1.737287 -0.373720
vt 1.667513 -0.304674
vt 1.175891 -0.005932
vt 1.566983 -0.223070
vt 1.564231 -0.224088
vt -1.702598 -0.373985
vt -1.704303 -0.379100
vt -1.716290 -0.383242
vt -1.458928 -0.005932
vt -1.496386 -0.002025
vt -1.496386 -0.005932
vt -1.347996 -0.002025
vt -1.347237 -0.005932
vt -1.347237 -0.002025
vt 1.579194 -0.231086
vt -1.461115 -0.005932
vt -1.400411 -0.002025
vt -1.461115 -0.002025
vt 1.174563 -0.002025
vt -1.564231 -0.224088
vt -1.566983 -0.223070
vt 1.563379 -0.223070
vt -1.702790 -0.371272
vt -1.706085 -0.381154
vt -1.713620 -0.383758
vt -1.718735 -0.382053
vt -1.458928 -0.002025
vt -1.717653 -0.364043
vt -1.710699 -0.347335
vt -1.347996 -0.005932
vt -1.476136 -0.005932
vt -1.361178 -0.002025
vt -1.476136 -0.002025
vt -1.400411 -0.005932
vt 1.174563 -0.005932
vt -1.563379 -0.223070
vt -1.579194 -0.231086
vt -1.566983 -0.005932
vt -1.563379 -0.002025
vt -1.566983 -0.002025
vt -1.446944 -0.005932
vt -1.432337 -0.002025
vt -1.446944 -0.002025
vt -1.708338 -0.382677
vt -1.710908 -0.383565
vt -1.720790 -0.380271
vt -1.715083 -0.363155
vt -1.719906 -0.365566
vt 0.008641 0.001447
vt 0.009427 0.000000
vt 0.009427 0.001447
vt -1.361178 -0.005932
vt -1.667513 -0.304674
vt -1.563379 -0.005932
vt -1.432337 -0.005932
vt 0.008641 0.000000
vt -1.722313 -0.378018
vt -1.712371 -0.362962
vt -1.721688 -0.367620
vt -1.705201 -0.366449
vt 0.007856 0.001447
vt 0.007856 0.000000
vt -1.723201 -0.375448
vt -1.709701 -0.363478
vt -1.722877 -0.370065
vt -1.707255 -0.364668
vt 0.007070 0.001447
vt -1.723393 -0.372735
usemtl material-0
f 1//3 4//3 2//3
f 5//3 2//3 4//3
f 4//4 6//4 1//4
f 1//5 6//5 4//5
f 2//6 5//6 7//6
f 4//2 8//2 5//2
f 6//4 4//4 9//4
f 9//5 4//5 6//5
f 3//1 2//1 10//1
f 11//6 7//6 5//6
f 2//1 7//1 12//1
f 13//2 5//2 8//2
f 14//2 8//2 4//2
f 9//7 6//7 16//7
f 6//8 9//8 17//8
f 10//1 2//1 18//1
f 3//9 10//9 16//9
f 7//6 11//6 19//6
f 5//2 20//2 11//2
f 19//1 12//1 7//1
f 18//1 2//1 12//1
f 13//2 21//2 5//2
f 22//2 14//2 4//2
f 15//2 24//2 4//2
f 25//2 15//2 9//2
f 3//7 16//7 6//7
f 9//2 16//2 26//2
f 23//8 17//8 9//8
f 10//10 18//11 27//10
f 27//9 16//9 10//9
f 28//6 19//6 11//6
f 28//2 11//2 20//2
f 29//2 20//2 5//2
f 12//12 19//12 20//12
f 18//11 12//13 29//11
f 16//2 5//2 21//2
f 30//2 22//2 4//2
f 24//2 32//2 4//2
f 33//2 25//2 9//2
f 26//2 16//2 34//2
f 35//2 9//2 26//2
f 17//8 23//8 36//14
f 29//11 27//10 18//11
f 16//2 27//2 5//2
f 28//12 20//12 19//12
f 20//13 29//11 12//13
f 27//2 29//2 5//2
f 32//2 30//2 4//2
f 31//14 36//14 23//8
f 38//2 33//2 9//2
f 34//2 16//2 39//2
f 40//2 9//2 35//2
f 36//14 31//14 41//15
f 37//15 41//15 31//14
f 43//2 38//2 9//2
f 39//2 16//2 44//2
f 45//2 9//2 40//2
f 47//2 16//2 42//2
f 41//15 37//15 46//16
f 48//2 43//2 9//2
f 44//2 16//2 47//2
f 48//2 9//2 45//2
usemtl material-1
f 2/3/18 4/4/18 1/5/18
f 4/4/18 2/3/18 5/6/18
f 7/9/19 5/10/19 2/11/19
f 5/2/1 8/12/1 4/1/1
f 10/14/2 2/7/2 3/8/2
f 5/10/19 7/9/19 11/15/19
f 12/16/2 7/17/2 2/7/2
f 8/12/1 5/2/1 13/18/1
f 4/1/1 8/12/1 14/19/1
f 16/21/20 6/22/20 9/23/20
f 17/24/21 9/25/21 6/26/21
f 18/27/2 2/7/2 10/14/2
f 16/28/22 10/29/22 3/30/22
f 19/31/19 11/15/19 7/9/19
f 11/32/1 20/33/1 5/2/1
f 7/17/2 12/16/2 19/34/2
f 12/16/2 2/7/2 18/27/2
f 5/2/1 21/35/1 13/18/1
f 4/1/1 14/19/1 22/36/1
f 4/1/1 24/37/1 15/20/1
f 9/13/1 15/20/1 25/38/1
f 6/22/20 16/21/20 3/39/20
f 26/40/1 16/41/1 9/13/1
f 9/25/21 17/24/21 23/42/21
f 27/43/23 18/44/24 10/45/23
f 10/29/22 16/28/22 27/46/22
f 11/15/19 19/31/19 28/47/19
f 20/33/1 11/32/1 28/48/1
f 5/2/1 20/33/1 29/49/1
f 20/50/17 19/51/17 12/52/17
f 29/53/24 12/54/25 18/55/24
f 21/35/1 5/2/1 16/41/1
f 4/1/1 22/36/1 30/56/1
f 4/1/1 32/57/1 24/37/1
f 9/13/1 25/38/1 33/58/1
f 34/59/1 16/41/1 26/40/1
f 26/40/1 9/13/1 35/60/1
f 36/61/26 23/62/21 17/63/21
f 18/44/24 27/43/23 29/64/24
f 5/2/1 27/65/1 16/41/1
f 19/51/17 20/50/17 28/66/17
f 12/54/25 29/53/24 20/67/25
f 5/2/1 29/49/1 27/65/1
f 4/1/1 30/56/1 32/57/1
f 23/62/21 36/61/26 31/68/26
f 9/13/1 33/58/1 38/69/1
f 39/70/1 16/41/1 34/59/1
f 35/60/1 9/13/1 40/71/1
f 41/73/27 31/68/26 36/61/26
f 31/68/26 41/73/27 37/74/27
f 9/13/1 38/69/1 43/75/1
f 44/76/1 16/41/1 39/70/1
f 40/71/1 9/13/1 45/77/1
f 42/72/1 16/41/1 47/78/1
f 46/79/28 37/74/27 41/73/27
f 9/13/1 43/75/1 48/80/1
f 47/78/1 16/41/1 44/76/1
f 45/77/1 9/13/1 48/80/1