# SSTK version 0.8.0
# 2
mtllib original-2.mtl
o #ID18
v -0.101658 0.494961 0.106625
v 0.004701 0.682044 0.150811
v -0.101750 0.682044 0.106717
v 0.004701 0.494961 0.150680
v 0.004701 0.494961 0.131878
v -0.101658 0.494961 0.106625
v -0.088363 0.494961 0.093330
v 0.004701 0.494961 0.150680
v 0.004701 0.494961 0.150680
v 0.111151 0.682044 0.106717
v 0.004701 0.682044 0.150811
v 0.111059 0.494961 0.106625
v -0.101750 0.682044 -0.106184
v 0.111151 0.682044 -0.106184
v 0.004701 0.682044 -0.150277
v -0.145843 0.682044 0.000267
v 0.004701 0.682044 -0.041825
v -0.025040 0.682044 -0.029473
v -0.037391 0.682044 0.000267
v -0.101750 0.682044 0.106717
v -0.025040 0.682044 0.030007
v 0.004701 0.682044 0.042359
v 0.155244 0.682044 0.000267
v 0.034441 0.682044 -0.029473
v 0.046792 0.682044 0.000267
v 0.034441 0.682044 0.030007
v 0.111151 0.682044 0.106717
v 0.004701 0.682044 0.150811
v -0.101750 0.682044 0.106717
v -0.145713 0.494961 0.000267
v -0.101658 0.494961 0.106625
v -0.145843 0.682044 0.000267
v -0.145713 0.494961 0.000267
v -0.126911 0.494961 0.000267
v 0.004701 0.606550 0.131878
v -0.088363 0.494961 0.093330
v -0.088363 0.606550 0.093330
v 0.004701 0.494961 0.131878
v 0.111059 0.494961 0.106625
v 0.097764 0.494961 0.093330
v 0.155244 0.682044 0.000267
v 0.111059 0.494961 0.106625
v 0.155114 0.494961 0.000267
v 0.111151 0.682044 0.106717
v 0.111151 0.682044 -0.106184
v 0.155114 0.494961 0.000267
v 0.111059 0.494961 -0.106091
v 0.155244 0.682044 0.000267
v 0.111151 0.682044 -0.106184
v 0.004701 0.494961 -0.150146
v 0.004701 0.682044 -0.150277
v 0.111059 0.494961 -0.106091
v 0.004701 0.682044 -0.150277
v -0.101658 0.494961 -0.106091
v -0.101750 0.682044 -0.106184
v 0.004701 0.494961 -0.150146
v -0.145843 0.682044 0.000267
v -0.101658 0.494961 -0.106091
v -0.145713 0.494961 0.000267
v -0.101750 0.682044 -0.106184
v -0.088363 0.494961 -0.092796
v -0.101658 0.494961 -0.106091
v -0.126911 0.606550 0.000267
v -0.088363 0.494961 0.093330
v -0.126911 0.494961 0.000267
v -0.088363 0.606550 0.093330
v 0.004701 0.606547 0.075491
v -0.088363 0.606550 0.093330
v -0.048527 0.606547 0.053443
v 0.004701 0.606550 0.131878
v 0.097764 0.606550 0.093330
v 0.004701 0.494961 0.131878
v 0.004701 0.606550 0.131878
v 0.097764 0.494961 0.093330
v 0.136312 0.494961 0.000267
v 0.155114 0.494961 0.000267
v 0.097764 0.494961 -0.092796
v 0.111059 0.494961 -0.106091
v 0.004701 0.494961 -0.131344
v 0.004701 0.494961 -0.150146
v -0.088363 0.606550 -0.092796
v -0.126911 0.494961 0.000267
v -0.088363 0.494961 -0.092796
v -0.126911 0.606550 0.000267
v -0.126911 0.606550 0.000267
v -0.070574 0.606547 0.000216
v 0.097764 0.606550 0.093330
v 0.057928 0.606547 0.053443
v -0.048478 0.304457 0.053344
v 0.004701 0.606547 0.075491
v -0.048527 0.606547 0.053443
v 0.004701 0.304457 0.075372
v 0.097764 0.606550 0.093330
v 0.136312 0.494961 0.000267
v 0.097764 0.494961 0.093330
v 0.136312 0.606550 0.000267
v 0.136312 0.606550 0.000267
v 0.097764 0.494961 -0.092796
v 0.136312 0.494961 0.000267
v 0.097764 0.606550 -0.092796
v 0.097764 0.494961 -0.092796
v 0.004701 0.606550 -0.131344
v 0.004701 0.494961 -0.131344
v 0.097764 0.606550 -0.092796
v 0.004701 0.494961 -0.131344
v -0.088363 0.606550 -0.092796
v -0.088363 0.494961 -0.092796
v 0.004701 0.606550 -0.131344
v -0.048527 0.606547 -0.053011
v -0.088363 0.606550 -0.092796
v -0.048527 0.606547 0.053443
v -0.070506 0.304457 0.000165
v -0.048478 0.304457 0.053344
v -0.070574 0.606547 0.000216
v 0.057880 0.304457 0.053344
v 0.004701 0.606547 0.075491
v 0.004701 0.304457 0.075372
v 0.057928 0.606547 0.053443
v 0.136312 0.606550 0.000267
v 0.079975 0.606547 0.000216
v 0.004701 0.285655 0.056570
v -0.048478 0.304457 0.053344
v -0.035184 0.285655 0.040050
v 0.004701 0.304457 0.075372
v 0.057928 0.606547 -0.053011
v 0.097764 0.606550 -0.092796
v 0.004701 0.606547 -0.075059
v 0.004701 0.606550 -0.131344
v -0.070574 0.606547 0.000216
v -0.048478 0.304457 -0.053014
v -0.070506 0.304457 0.000165
v -0.048527 0.606547 -0.053011
v -0.070506 0.304457 0.000165
v -0.051508 0.285655 0.000165
v 0.057880 0.304457 0.053344
v 0.044585 0.285655 0.040050
v 0.079975 0.606547 0.000216
v 0.057880 0.304457 0.053344
v 0.079907 0.304457 0.000165
v 0.057928 0.606547 0.053443
v -0.015242 -0.596642 0.020107
v 0.004701 0.285655 0.056570
v -0.035184 0.285655 0.040050
v 0.004701 -0.596642 0.028368
v 0.057928 0.606547 -0.053011
v 0.079907 0.304457 0.000165
v 0.057880 0.304457 -0.053014
v 0.079975 0.606547 0.000216
v 0.057928 0.606547 -0.053011
v 0.004701 0.304457 -0.075041
v 0.004701 0.606547 -0.075059
v 0.057880 0.304457 -0.053014
v 0.004701 0.606547 -0.075059
v -0.048478 0.304457 -0.053014
v -0.048527 0.606547 -0.053011
v 0.004701 0.304457 -0.075041
v -0.035184 0.285655 -0.039719
v -0.048478 0.304457 -0.053014
v -0.035184 0.285655 0.040050
v -0.023502 -0.596642 0.000165
v -0.015242 -0.596642 0.020107
v -0.051508 0.285655 0.000165
v 0.004701 -0.596642 0.028368
v 0.044585 0.285655 0.040050
v 0.004701 0.285655 0.056570
v 0.024643 -0.596642 0.020107
v 0.060909 0.285655 0.000165
v 0.068156 0.292879 0.000165
v 0.079907 0.304457 0.000165
v 0.057880 0.304457 -0.053014
v 0.004701 0.285655 -0.056240
v 0.004701 0.304457 -0.075041
v 0.044585 0.285655 -0.039719
v -0.051508 0.285655 0.000165
v -0.015242 -0.596642 -0.019777
v -0.023502 -0.596642 0.000165
v -0.035184 0.285655 -0.039719
v 0.060909 0.285655 0.000165
v 0.024643 -0.596642 0.020107
v 0.032903 -0.596642 0.000165
v 0.044585 0.285655 0.040050
v 0.044585 0.285655 -0.039719
v 0.004701 -0.596642 -0.028037
v 0.004701 0.285655 -0.056240
v 0.024643 -0.596642 -0.019777
v 0.004701 0.285655 -0.056240
v -0.015242 -0.596642 -0.019777
v -0.035184 0.285655 -0.039719
v 0.004701 -0.596642 -0.028037
v 0.044585 0.285655 -0.039719
v 0.032903 -0.596642 0.000165
v 0.024643 -0.596642 -0.019777
v 0.060909 0.285655 0.000165
vt 0.02261872 0.08036935
vt 0.03065756 0.09342755
vt 0.02261524 0.09342755
vt 0.03065407 0.08036935
vt -0.03551323 0.01792608
vt -0.03375057 0.01050238
vt -0.03282261 0.01143035
vt -0.03682557 0.01792608
vt 0.002469001 0.08037819
vt 0.01050784 0.09343639
vt 0.002465513 0.09343639
vt 0.01050435 0.08037819
vt 0.01889674 0.01049594
vt 0.01889674 0.02535621
vt 0.01581908 0.01792608
vt 0.02632688 0.007418277
vt 0.02338891 0.01792608
vt 0.02425103 0.01585023
vt 0.02632688 0.01498811
vt 0.03375701 0.01049594
vt 0.02840272 0.01585023
vt 0.02926485 0.01792608
vt 0.02632688 0.02843388
vt 0.02425103 0.02000192
vt 0.02632688 0.02086405
vt 0.02840272 0.02000192
vt 0.03375701 0.02535621
vt 0.03683468 0.01792608
vt 0.03520404 0.09341211
vt 0.0271652 0.08035391
vt 0.03520055 0.08035391
vt 0.02716172 0.09341211
vt -0.02632688 0.007427391
vt -0.02632688 0.008739727
vt -0.03015186 0.08814064
vt -0.02312094 0.08035185
vt -0.02312094 0.08814064
vt -0.03015186 0.08035185
vt -0.03375057 0.02534977
vt -0.03282261 0.02442181
vt -0.01344169 0.09343346
vt -0.02148052 0.08037526
vt -0.01344517 0.08037526
vt -0.02148401 0.09343346
vt -0.02716172 0.09342047
vt -0.03520055 0.08036227
vt -0.0271652 0.08036227
vt -0.03520404 0.09342047
vt -0.03065756 0.09340503
vt -0.02261872 0.08034683
vt -0.02261523 0.09340503
vt -0.03065407 0.08034683
vt -0.01050784 0.09339619
vt -0.002469005 0.08033799
vt -0.002465518 0.09339619
vt -0.01050435 0.08033799
vt 0.02148401 0.09339912
vt 0.01344518 0.08034092
vt 0.02148052 0.08034092
vt 0.01344169 0.09339912
vt -0.01983115 0.01143035
vt -0.01890318 0.01050238
vt -0.02766741 0.08814064
vt -0.03469834 0.08035185
vt -0.02766741 0.08035185
vt -0.03469834 0.08814064
vt -0.03158235 0.01792404
vt -0.03282754 0.0114283
vt -0.03004346 0.01420883
vt -0.03551816 0.01792404
vt -0.01000214 0.08814064
vt -0.002971207 0.08035185
vt -0.002971207 0.08814064
vt -0.01000214 0.08035185
vt -0.02632688 0.02711243
vt -0.02632688 0.02842477
vt -0.01983115 0.02442181
vt -0.01890318 0.02534977
vt -0.01714053 0.01792608
vt -0.01582819 0.01792608
vt -0.01394738 0.08814064
vt -0.02097831 0.08035185
vt -0.01394738 0.08035185
vt -0.02097831 0.08814064
vt -0.03004057 0.01420594
vt -0.02632892 0.008734791
vt -0.02632537 0.01266705
vt -0.03282465 0.01142541
vt -0.03282754 0.02442385
vt -0.03158235 0.01792812
vt -0.03004346 0.02164332
vt -0.03551816 0.01792812
vt 0.02462485 0.0670629
vt 0.0286457 0.08814853
vt 0.02462439 0.08814853
vt 0.02864252 0.0670629
vt 0.02097831 0.08814064
vt 0.01394738 0.08035185
vt 0.02097831 0.08035185
vt 0.01394738 0.08814064
vt 0.03469834 0.08814064
vt 0.02766741 0.08035185
vt 0.03469834 0.08035185
vt 0.02766741 0.08814064
vt 0.03015186 0.08035185
vt 0.02312093 0.08814064
vt 0.02312093 0.08035185
vt 0.03015186 0.08814064
vt 0.01000214 0.08035185
vt 0.002971211 0.08814064
vt 0.002971211 0.08035185
vt 0.01000214 0.08814064
vt -0.02260608 0.01420594
vt -0.02632483 0.008734788
vt -0.0198291 0.01142541
vt -0.02632128 0.01266705
vt 0.03319025 0.08813997
vt 0.02916748 0.06705435
vt 0.03318515 0.06705435
vt 0.02916895 0.08813997
vt 0.008498219 0.06706788
vt 0.004477371 0.08815351
vt 0.004480545 0.06706788
vt 0.008498675 0.08815351
vt -0.02632892 0.02711736
vt -0.03004057 0.02164621
vt -0.02632537 0.0231851
vt -0.03282465 0.02442674
vt 0.02814032 0.06260254
vt 0.02462485 0.06438923
vt 0.02512706 0.06260254
vt 0.02864253 0.06438923
vt -0.02632483 0.02711737
vt -0.02260608 0.02164622
vt -0.0198291 0.02442675
vt -0.02632128 0.0231851
vt -0.0198262 0.02442386
vt -0.0210643 0.01792813
vt -0.01713558 0.01792813
vt -0.02260318 0.02164333
vt -0.0210643 0.01792403
vt -0.0198262 0.0114283
vt -0.01713558 0.01792403
vt -0.02260318 0.01420883
vt 0.01947023 0.0881373
vt 0.01544746 0.06705167
vt 0.01946514 0.06705167
vt 0.01544893 0.0881373
vt 0.0326786 0.04619728
vt 0.02916497 0.04798757
vt 0.02967057 0.04619176
vt 0.03318264 0.04798344
vt 0.008498219 0.07369963
vt 0.004982754 0.07191294
vt 0.007996011 0.07191294
vt 0.004480545 0.07369963
vt -0.01544891 0.08814899
vt -0.01946512 0.06706337
vt -0.01544745 0.06706337
vt -0.01947022 0.08814899
vt 0.02588038 0.004726131
vt 0.02814032 0.06633647
vt 0.02512706 0.06633647
vt 0.027387 0.004726131
vt -0.02916894 0.08814205
vt -0.03318515 0.06705642
vt -0.02916748 0.06705642
vt -0.03319025 0.08814205
vt -0.02864568 0.08813976
vt -0.02462484 0.06705414
vt -0.02462438 0.08813976
vt -0.02864251 0.06705414
vt -0.008498705 0.08813905
vt -0.004480577 0.06705342
vt -0.0044774 0.08813905
vt -0.008498248 0.06705342
vt 0.01598439 0.03253881
vt 0.01949803 0.0343291
vt 0.01548035 0.03432497
vt 0.01899243 0.03253329
vt 0.03267317 0.06562688
vt 0.03040712 0.004016768
vt 0.03191374 0.004016619
vt 0.02966513 0.06562681
vt 0.005736074 0.005131128
vt 0.007996014 0.06674147
vt 0.004982757 0.06674147
vt 0.007242701 0.005131128
vt -0.01959736 0.07058083
vt -0.01909006 0.06879559
vt -0.01608202 0.06879559
vt -0.01946512 0.0704487
vt -0.01576133 0.06934091
vt -0.01544745 0.0704487
vt -0.03287127 0.05556142
vt -0.02916747 0.05666922
vt -0.03318515 0.05666922
vt -0.0286425 0.04069759
vt -0.02512704 0.03891091
vt -0.02462483 0.04069759
vt -0.02814029 0.03891091
vt -0.008498252 0.03138723
vt -0.00498279 0.02960054
vt -0.004480581 0.03138723
vt -0.007996044 0.02960054
vt 0.01903497 0.06503906
vt 0.01678636 0.003428872
vt 0.01829298 0.003429021
vt 0.01602693 0.06503914
vt -0.01605658 0.0666025
vt -0.0183052 0.004992314
vt -0.01679858 0.004992463
vt -0.01906462 0.06660258
vt -0.01953491 0.0705428
vt -0.01602198 0.06875281
vt -0.01582944 0.06944061
vt -0.03265519 0.05512683
vt -0.02914225 0.05691682
vt -0.03284772 0.05581463
vt -0.02814029 0.06530589
vt -0.02588035 0.003695555
vt -0.02512704 0.06530589
vt -0.02738698 0.003695555
vt -0.02911953 0.05706268
vt -0.03263488 0.05527743
vt -0.02962683 0.05527743
vt -0.007996045 0.0649009
vt -0.005736108 0.003290557
vt -0.004982791 0.0649009
vt -0.007242735 0.003290557
vt -0.02963546 0.06601483
vt -0.03190151 0.004404718
vt -0.03039488 0.004404569
vt -0.0326435 0.06601476
vn -0.3826834074145148 -0.000644706012491219 0.923879317900219
vn 0 -1 0
vn 0.38268340742129936 -0.0006446785125021157 0.9238793179165985
vn 0 1 0
vn -0.9238793178847919 -0.000644731912480955 0.3826834074081247
vn 0.3826835015895716 0 -0.9238795038375645
vn 0.9238793179506657 -0.0006446213125247761 0.38268340743541046
vn 0.9238793179506657 -0.0006446213125247761 -0.38268340743541046
vn 0.38268328672155955 -0.000644634177632322 -0.9238793679430025
vn -0.3826832867147754 -0.0006446616776199393 -0.9238793679266242
vn -0.9238793178847919 -0.000644731912480955 -0.3826834074081247
vn 0.9238795038375645 0 -0.3826835015895716
vn 0 -0.9999999984339107 0.00005596586991235245
vn -0.00003957975993798178 -0.9999999984330825 0.00003958885993796752
vn -0.00003959397993795947 -0.9999999984330818 0.000039574649937989764
vn -0.3826835869449008 0 -0.9238794684822172
vn 0.9238795038375645 0 0.3826835015895716
vn -0.00005601639991211483 -0.9999999984310814 9.102404985719067e-9
vn -0.00005601641991211473 -0.9999999984310801 -1.9339959969657153e-8
vn 0.0000395797599379818 -0.999999998433083 0.000039588849937967555
vn 0.000039593969937959504 -0.9999999984330823 0.000039574649937989784
vn -0.38268368238857436 -0.0003633890832765281 0.9238793574822932
vn -0.9238795038375645 0 -0.3826835015895716
vn -0.9238795038375645 0 0.3826835015895716
vn -0.3826835869449008 0 0.9238794684822172
vn 0.3826835015895716 0 0.9238795038375645
vn -0.00003962519993775182 -0.9999999984290759 -0.000039644569937721395
vn -0.00003963942993772949 -0.9999999984290766 -0.000039630319937743804
vn -0.9238795049256737 -0.0002723622014521021 0.3826834020402808
vn 0.38268371774865917 -0.00036335511685220927 0.9238793428490127
vn 0.000056016379912114924 -0.9999999984310826 9.102401985719083e-9
vn 0.00005601640991211478 -0.9999999984310808 -1.9339949969657183e-8
vn -5.576678851625314e-8 -0.7071069811865128 0.7071065811865235
vn -0.49939259972502203 -0.7081431996100787 0.49913949972516136
vn -0.4995525182261689 -0.7081439258366246 0.4989784182052229
vn -3.806891898712767e-8 -0.7071069811865135 0.7071065811865241
vn 0.00003962518993775185 -0.9999999984290762 -0.0000396445699377214
vn 0.00003963942993772951 -0.999999998429077 -0.00003963030993774384
vn 0 -0.9999999984282453 -0.00005606700991187641
vn -0.9238796650352278 -0.00014350429456899512 -0.3826830855171323
vn -0.705472998094072 -0.7087367980852544 1.5155829959054532e-7
vn -0.7054729980940626 -0.7087367980852449 2.2206069940007088e-7
vn 0.5001081090131335 -0.7078194127565834 0.49888230899104163
vn 0.5012955917791008 -0.7071056884039582 0.4987025918216242
vn 0.9238794196082479 -0.00027221140577736506 0.3826836081220069
vn -0.3825169978123035 -0.02951873983117602 0.9234767947184388
vn 0.9238795796999287 -0.00014335349685014553 -0.38268329159143866
vn 0.38268288286908647 -0.0000522508276609761 -0.9238797586422468
vn -0.3826827975130228 -0.00005228489966021114 -0.9238797939958944
vn -0.49955219741434287 -0.7081440963346817 -0.49897849741731226
vn -0.4993923893128007 -0.7081432848454471 -0.49913958931821073
vn -0.9247610858319463 -0.029415879549326014 0.37940959418715214
vn 0.3825169127829669 -0.029518710986457572 0.923476830860789
vn 0.7066079553946187 -0.7076052553316631 2.2075628606452385e-7
vn 0.7039397201748377 -0.7102597203559684 1.8082960518255731e-7
vn 0.7018174951530691 -0.712356795080282 1.441406990045275e-7
vn 0.5001078882374976 -0.7078195833521331 -0.49888228826632364
vn -5.5766628516259626e-8 -0.7071067811865465 -0.7071067811865465
vn -3.806885898713079e-8 -0.707106781186547 -0.707106781186547
vn 0.5012954170387959 -0.7071057240341917 -0.4987027169506713
vn -0.9247612548684974 -0.02941588856440433 -0.37940918148353814
vn 0.9247610874641041 -0.02941581960124441 0.37940959485679143
vn 0.38251579665939545 -0.029518749742205495 -0.9234772919350455
vn -0.38251588168881445 -0.02951877858692447 -0.9234772557927808
vn 0.9247612562286299 -0.029415838607671385 -0.3794091820415706
usemtl material_0_0
f 1/1/1 2/2/1 3/3/1
f 2/2/1 1/1/1 4/4/1
f 5/5/2 6/6/2 7/7/2
f 6/6/2 5/5/2 8/8/2
f 9/9/3 10/10/3 11/11/3
f 10/10/3 9/9/3 12/12/3
f 13/13/4 14/14/4 15/15/4
f 14/14/4 13/13/4 16/16/4
f 14/14/4 16/16/4 17/17/4
f 17/17/4 16/16/4 18/18/4
f 18/18/4 16/16/4 19/19/4
f 19/19/4 16/16/4 20/20/4
f 19/19/4 20/20/4 21/21/4
f 21/21/4 20/20/4 22/22/4
f 17/17/4 23/23/4 14/14/4
f 23/23/4 17/17/4 24/24/4
f 23/23/4 24/24/4 25/25/4
f 23/23/4 25/25/4 26/26/4
f 23/23/4 26/26/4 27/27/4
f 27/27/4 26/26/4 22/22/4
f 27/27/4 22/22/4 20/20/4
f 27/27/4 20/20/4 28/28/4
f 29/29/5 30/30/5 31/31/5
f 30/30/5 29/29/5 32/32/5
f 7/7/2 33/33/2 34/34/2
f 33/33/2 7/7/2 6/6/2
f 35/35/6 36/36/6 37/37/6
f 36/36/6 35/35/6 38/38/6
f 39/39/2 5/5/2 40/40/2
f 5/5/2 39/39/2 8/8/2
f 41/41/7 42/42/7 43/43/7
f 42/42/7 41/41/7 44/44/7
f 45/45/8 46/46/8 47/47/8
f 46/46/8 45/45/8 48/48/8
f 49/49/9 50/50/9 51/51/9
f 50/50/9 49/49/9 52/52/9
f 53/53/10 54/54/10 55/55/10
f 54/54/10 53/53/10 56/56/10
f 57/57/11 58/58/11 59/59/11
f 58/58/11 57/57/11 60/60/11
f 61/61/2 33/33/2 62/62/2
f 33/33/2 61/61/2 34/34/2
f 63/63/12 64/64/12 65/65/12
f 64/64/12 63/63/12 66/66/12
f 67/67/13 68/68/14 69/69/15
f 68/68/14 67/67/13 70/70/13
f 71/71/16 72/72/16 73/73/16
f 72/72/16 71/71/16 74/74/16
f 39/39/2 75/75/2 76/76/2
f 75/75/2 39/39/2 40/40/2
f 76/76/2 77/77/2 78/78/2
f 77/77/2 76/76/2 75/75/2
f 78/78/2 79/79/2 80/80/2
f 79/79/2 78/78/2 77/77/2
f 79/79/2 62/62/2 80/80/2
f 62/62/2 79/79/2 61/61/2
f 81/81/17 82/82/17 83/83/17
f 82/82/17 81/81/17 84/84/17
f 69/85/15 85/86/18 86/87/19
f 85/86/18 69/85/15 68/88/14
f 87/89/20 67/90/13 88/91/21
f 67/90/13 87/89/20 70/92/13
f 89/93/22 90/94/22 91/95/22
f 90/94/22 89/93/22 92/96/22
f 93/97/23 94/98/23 95/99/23
f 94/98/23 93/97/23 96/100/23
f 97/101/24 98/102/24 99/103/24
f 98/102/24 97/101/24 100/104/24
f 101/105/25 102/106/25 103/107/25
f 102/106/25 101/105/25 104/108/25
f 105/109/26 106/110/26 107/111/26
f 106/110/26 105/109/26 108/112/26
f 109/113/27 85/114/18 110/115/28
f 85/114/18 109/113/27 86/116/19
f 111/117/29 112/118/29 113/119/29
f 112/118/29 111/117/29 114/120/29
f 115/121/30 116/122/30 117/123/30
f 116/122/30 115/121/30 118/124/30
f 119/125/31 88/126/21 120/127/32
f 88/126/21 119/125/31 87/128/20
f 121/129/33 122/130/34 123/131/35
f 122/130/34 121/129/33 124/132/36
f 119/133/31 125/134/37 126/135/38
f 125/134/37 119/133/31 120/136/32
f 126/137/38 127/138/39 128/139/39
f 127/138/39 126/137/38 125/140/37
f 127/141/39 110/142/28 128/143/39
f 110/142/28 127/141/39 109/144/27
f 129/145/40 130/146/40 131/147/40
f 130/146/40 129/145/40 132/148/40
f 123/149/35 133/150/41 134/151/42
f 133/150/41 123/149/35 122/152/34
f 135/153/43 121/154/33 136/155/44
f 121/154/33 135/153/43 124/156/36
f 137/157/45 138/158/45 139/159/45
f 138/158/45 137/157/45 140/160/45
f 141/161/46 142/162/46 143/163/46
f 142/162/46 141/161/46 144/164/46
f 145/165/47 146/166/47 147/167/47
f 146/166/47 145/165/47 148/168/47
f 149/169/48 150/170/48 151/171/48
f 150/170/48 149/169/48 152/172/48
f 153/173/49 154/174/49 155/175/49
f 154/174/49 153/173/49 156/176/49
f 157/177/50 133/178/41 158/179/51
f 133/178/41 157/177/50 134/180/42
f 159/181/52 160/182/52 161/183/52
f 160/182/52 159/181/52 162/184/52
f 163/185/53 164/186/53 165/187/53
f 164/186/53 163/185/53 166/188/53
f 135/189/43 136/190/44 167/191/54
f 135/192/43 168/193/55 169/194/56
f 168/195/55 170/196/57 169/197/56
f 170/198/57 171/199/58 172/200/59
f 171/199/58 170/198/57 173/201/60
f 172/202/59 157/203/50 158/204/51
f 157/203/50 172/202/59 171/205/58
f 174/206/61 175/207/61 176/208/61
f 175/207/61 174/206/61 177/209/61
f 178/210/62 179/211/62 180/212/62
f 179/211/62 178/210/62 181/213/62
f 135/214/43 167/215/54 168/216/55
f 167/217/54 170/218/57 168/219/55
f 182/220/63 183/221/63 184/222/63
f 183/221/63 182/220/63 185/223/63
f 170/224/57 167/225/54 173/226/60
f 186/227/64 187/228/64 188/229/64
f 187/228/64 186/227/64 189/230/64
f 190/231/65 191/232/65 192/233/65
f 191/232/65 190/231/65 193/234/65
