# SSTK version 0.8.0
# 53
mtllib original-53.mtl
o #ID179
v 0.19398 -0.142731 0.030635
v 0.19398 -0.145812 0.030635
v 0.193777 -0.144271 0.030635
v 0.194574 -0.141296 0.030635
v 0.194574 -0.147247 0.030635
v 0.19552 -0.140063 0.030635
v 0.19552 -0.148479 0.030635
v 0.196753 -0.139117 0.030635
v 0.196753 -0.149425 0.030635
v 0.198188 -0.138523 0.030635
v 0.198188 -0.15002 0.030635
v 0.199728 -0.13832 0.030635
v 0.199728 -0.150223 0.030635
v 0.201269 -0.138523 0.030635
v 0.201269 -0.15002 0.030635
v 0.202704 -0.139117 0.030635
v 0.202704 -0.149425 0.030635
v 0.203936 -0.140063 0.030635
v 0.203936 -0.148479 0.030635
v 0.204882 -0.141296 0.030635
v 0.204882 -0.147247 0.030635
v 0.205477 -0.142731 0.030635
v 0.205477 -0.145812 0.030635
v 0.20568 -0.144271 0.030635
v 0.20568 -0.144271 0.030635
v 0.205477 -0.142731 0.030635
v 0.205477 -0.145812 0.030635
v 0.204882 -0.147247 0.030635
v 0.204882 -0.141296 0.030635
v 0.203936 -0.148479 0.030635
v 0.203936 -0.140063 0.030635
v 0.202704 -0.149425 0.030635
v 0.202704 -0.139117 0.030635
v 0.201269 -0.15002 0.030635
v 0.201269 -0.138523 0.030635
v 0.199728 -0.150223 0.030635
v 0.199728 -0.13832 0.030635
v 0.198188 -0.15002 0.030635
v 0.198188 -0.138523 0.030635
v 0.196753 -0.149425 0.030635
v 0.196753 -0.139117 0.030635
v 0.19552 -0.148479 0.030635
v 0.19552 -0.140063 0.030635
v 0.194574 -0.147247 0.030635
v 0.194574 -0.141296 0.030635
v 0.19398 -0.145812 0.030635
v 0.19398 -0.142731 0.030635
v 0.193777 -0.144271 0.030635
v 0.19552 -0.140063 0.023517
v 0.194574 -0.141296 0.030635
v 0.194574 -0.141296 0.023517
v 0.19552 -0.140063 0.030635
v 0.19552 -0.140063 0.030635
v 0.19552 -0.140063 0.023517
v 0.194574 -0.141296 0.030635
v 0.194574 -0.141296 0.023517
v 0.196753 -0.139117 0.023517
v 0.196753 -0.139117 0.030635
v 0.196753 -0.139117 0.030635
v 0.196753 -0.139117 0.023517
v 0.198188 -0.138523 0.023517
v 0.198188 -0.138523 0.030635
v 0.198188 -0.138523 0.030635
v 0.198188 -0.138523 0.023517
v 0.199728 -0.13832 0.023517
v 0.199728 -0.13832 0.030635
v 0.199728 -0.13832 0.030635
v 0.199728 -0.13832 0.023517
v 0.201269 -0.138523 0.023517
v 0.201269 -0.138523 0.030635
v 0.201269 -0.138523 0.030635
v 0.201269 -0.138523 0.023517
v 0.202704 -0.139117 0.023517
v 0.202704 -0.139117 0.030635
v 0.202704 -0.139117 0.030635
v 0.202704 -0.139117 0.023517
v 0.203936 -0.140063 0.023517
v 0.203936 -0.140063 0.030635
v 0.203936 -0.140063 0.030635
v 0.203936 -0.140063 0.023517
v 0.204882 -0.141296 0.030635
v 0.204882 -0.141296 0.023517
v 0.204882 -0.141296 0.030635
v 0.204882 -0.141296 0.023517
v 0.205477 -0.142731 0.030635
v 0.205477 -0.142731 0.023517
v 0.205477 -0.142731 0.030635
v 0.205477 -0.142731 0.023517
v 0.20568 -0.144271 0.030635
v 0.20568 -0.144271 0.023517
v 0.20568 -0.144271 0.030635
v 0.20568 -0.144271 0.023517
v 0.205477 -0.145812 0.030635
v 0.205477 -0.145812 0.023517
v 0.205477 -0.145812 0.030635
v 0.205477 -0.145812 0.023517
v 0.204882 -0.147247 0.030635
v 0.204882 -0.147247 0.023517
v 0.204882 -0.147247 0.030635
v 0.204882 -0.147247 0.023517
v 0.203936 -0.148479 0.030635
v 0.203936 -0.148479 0.023517
v 0.203936 -0.148479 0.030635
v 0.203936 -0.148479 0.023517
v 0.202704 -0.149425 0.030635
v 0.202704 -0.149425 0.023517
v 0.202704 -0.149425 0.030635
v 0.202704 -0.149425 0.023517
v 0.201269 -0.15002 0.030635
v 0.201269 -0.15002 0.023517
v 0.201269 -0.15002 0.030635
v 0.201269 -0.15002 0.023517
v 0.199728 -0.150223 0.030635
v 0.199728 -0.150223 0.023517
v 0.199728 -0.150223 0.030635
v 0.199728 -0.150223 0.023517
v 0.198188 -0.15002 0.030635
v 0.198188 -0.15002 0.023517
v 0.198188 -0.15002 0.030635
v 0.198188 -0.15002 0.023517
v 0.196753 -0.149425 0.030635
v 0.196753 -0.149425 0.023517
v 0.196753 -0.149425 0.030635
v 0.196753 -0.149425 0.023517
v 0.19552 -0.148479 0.030635
v 0.19552 -0.148479 0.023517
v 0.19552 -0.148479 0.030635
v 0.19552 -0.148479 0.023517
v 0.194574 -0.147247 0.023517
v 0.194574 -0.147247 0.030635
v 0.194574 -0.147247 0.030635
v 0.194574 -0.147247 0.023517
v 0.19398 -0.145812 0.023517
v 0.19398 -0.145812 0.030635
v 0.19398 -0.145812 0.030635
v 0.19398 -0.145812 0.023517
v 0.193777 -0.144271 0.023517
v 0.193777 -0.144271 0.030635
v 0.193777 -0.144271 0.030635
v 0.193777 -0.144271 0.023517
v 0.19398 -0.142731 0.023517
v 0.19398 -0.142731 0.030635
v 0.19398 -0.142731 0.030635
v 0.19398 -0.142731 0.023517
vt 0.6417605 0.311536
vt 0.6416172 0.3128513
vt 0.6416172 0.3102207
vt 0.641197 0.308995
vt 0.641197 0.314077
vt 0.6405287 0.3079425
vt 0.6405287 0.3151296
vt 0.6396576 0.3071349
vt 0.6396576 0.3159372
vt 0.6386433 0.3066272
vt 0.6386433 0.3164449
vt 0.6375547 0.306454
vt 0.6375547 0.316618
vt 0.6364662 0.3066272
vt 0.6364662 0.3164449
vt 0.6354518 0.3071349
vt 0.6354518 0.3159372
vt 0.6345808 0.3079425
vt 0.6345808 0.3151296
vt 0.6339124 0.308995
vt 0.6339124 0.314077
vt 0.6334922 0.3102207
vt 0.6334922 0.3128513
vt 0.6333489 0.311536
vt 0.6375547 0.3166181
vt 0.6416172 0.3128514
vt 0.6334922 0.3128514
vn 2.155486499999957e-08 6.005635459696654e-09 -1.0
vn 0.7071067811865474 -0.7071067811865475 1.0994964777102639e-08
vn 0.8660254028383289 -0.5000000016387101 1.5664238531655648e-08
vn 0.50000000163871 -0.866025402838329 5.5763980876656445e-09
vn 0.25881900959356163 -0.9659258358036645 0.0
vn 0.0 -1.0 -6.005635594919914e-09
vn -0.2588190095935616 -0.9659258358036644 -1.137980688616576e-08
vn -0.50000000163871 -0.8660254028383287 -1.597846309408927e-08
vn -0.7071067811865475 -0.7071067811865474 -1.9488212189631675e-08
vn -0.8660254028383289 -0.5000000016387098 -2.1669872701814102e-08
vn -0.9659258358036644 -0.25881900959356147 -2.2374764585571877e-08
vn -1.0 0.0 -2.1554855556281404e-08
vn -1.0 0.0 -2.155485555482854e-08
vn -0.9659258358036642 0.25881900959356163 -1.926602584680187e-08
vn -0.8660254028383289 0.5000000016387101 -1.5664238531655648e-08
vn -0.7071067811865474 0.7071067811865475 -1.0994964777102639e-08
vn -0.50000000163871 0.866025402838329 -5.5763980876656445e-09
vn -0.25881900959356163 0.9659258358036645 0.0
vn 0.0 1.0 6.005635594919914e-09
vn 0.2588190095935616 0.9659258358036644 1.137980688616576e-08
vn 0.50000000163871 0.8660254028383287 1.597846309408927e-08
vn 0.7071067811865475 0.7071067811865474 1.9488212189631675e-08
vn 0.8660254028383289 0.5000000016387098 2.1669872701814102e-08
vn 0.9659258358036644 0.25881900959356147 2.2374764585571877e-08
vn 1.0 0.0 2.155485555628139e-08
vn 1.0 0.0 2.1554855554828527e-08
vn 0.9659258358036642 -0.25881900959356163 1.926602584680187e-08
vn -2.155486499999957e-08 -6.005635459696654e-09 1.0
vn 1.0 0.0 2.1554855556281404e-08
vn 1.0 0.0 2.155485555482854e-08
vn -1.0 0.0 -2.1554855554828527e-08
vn -1.0 0.0 -2.155485555628139e-08
usemtl material_0_0
f 1//1 2//1 3//1
f 2//1 1//1 4//1
f 2//1 4//1 5//1
f 5//1 4//1 6//1
f 5//1 6//1 7//1
f 7//1 6//1 8//1
f 7//1 8//1 9//1
f 9//1 8//1 10//1
f 9//1 10//1 11//1
f 11//1 10//1 12//1
f 11//1 12//1 13//1
f 13//1 12//1 14//1
f 13//1 14//1 15//1
f 15//1 14//1 16//1
f 15//1 16//1 17//1
f 17//1 16//1 18//1
f 17//1 18//1 19//1
f 19//1 18//1 20//1
f 19//1 20//1 21//1
f 21//1 20//1 22//1
f 21//1 22//1 23//1
f 23//1 22//1 24//1
f 49//2 50//3 51//3
f 50//3 49//2 52//2
f 57//4 52//2 49//2
f 52//2 57//4 58//4
f 61//5 58//4 57//4
f 58//4 61//5 62//5
f 65//6 62//5 61//5
f 62//5 65//6 66//6
f 69//7 66//6 65//6
f 66//6 69//7 70//7
f 73//8 70//7 69//7
f 70//7 73//8 74//8
f 77//9 74//8 73//8
f 74//8 77//9 78//9
f 81//10 77//9 82//10
f 77//9 81//10 78//9
f 85//11 82//10 86//11
f 82//10 85//11 81//10
f 89//12 86//11 90//13
f 86//11 89//12 85//11
f 93//14 90//13 94//14
f 90//13 93//14 89//12
f 97//15 94//14 98//15
f 94//14 97//15 93//14
f 101//16 98//15 102//16
f 98//15 101//16 97//15
f 105//17 102//16 106//17
f 102//16 105//17 101//16
f 109//18 106//17 110//18
f 106//17 109//18 105//17
f 113//19 110//18 114//19
f 110//18 113//19 109//18
f 117//20 114//19 118//20
f 114//19 117//20 113//19
f 121//21 118//20 122//21
f 118//20 121//21 117//20
f 125//22 122//21 126//22
f 122//21 125//22 121//21
f 129//23 125//22 126//22
f 125//22 129//23 130//23
f 133//24 130//23 129//23
f 130//23 133//24 134//24
f 137//25 134//24 133//24
f 134//24 137//25 138//26
f 141//27 138//26 137//25
f 138//26 141//27 142//27
f 51//3 142//27 141//27
f 142//27 51//3 50//3
usemtl material_1_0
f 25/1/28 26/2/28 27/3/28
f 27/3/28 26/2/28 28/4/28
f 26/2/28 29/5/28 28/4/28
f 28/4/28 29/5/28 30/6/28
f 29/5/28 31/7/28 30/6/28
f 30/6/28 31/7/28 32/8/28
f 31/7/28 33/9/28 32/8/28
f 32/8/28 33/9/28 34/10/28
f 33/9/28 35/11/28 34/10/28
f 34/10/28 35/11/28 36/12/28
f 35/11/28 37/13/28 36/12/28
f 36/12/28 37/13/28 38/14/28
f 37/13/28 39/15/28 38/14/28
f 38/14/28 39/15/28 40/16/28
f 39/15/28 41/17/28 40/16/28
f 40/16/28 41/17/28 42/18/28
f 41/17/28 43/19/28 42/18/28
f 42/18/28 43/19/28 44/20/28
f 43/19/28 45/21/28 44/20/28
f 44/20/28 45/21/28 46/22/28
f 45/21/28 47/23/28 46/22/28
f 48/24/28 46/22/28 47/23/28
f 53/19/16 54/19/16 55/21/15
f 56/21/15 55/21/15 54/19/16
f 59/17/17 60/17/17 53/19/16
f 54/19/16 53/19/16 60/17/17
f 63/15/18 64/15/18 59/17/17
f 60/17/17 59/17/17 64/15/18
f 67/25/19 68/25/19 63/15/18
f 64/15/18 63/15/18 68/25/19
f 71/11/20 72/11/20 67/25/19
f 68/25/19 67/25/19 72/11/20
f 75/9/21 76/9/21 71/11/20
f 72/11/20 71/11/20 76/9/21
f 79/7/22 80/7/22 75/9/21
f 76/9/21 75/9/21 80/7/22
f 79/7/22 83/5/23 80/7/22
f 84/5/23 80/7/22 83/5/23
f 83/5/23 87/26/24 84/5/23
f 88/26/24 84/5/23 87/26/24
f 87/26/24 91/1/29 88/26/24
f 92/1/30 88/26/24 91/1/29
f 91/1/29 95/3/27 92/1/30
f 96/3/27 92/1/30 95/3/27
f 95/3/27 99/4/3 96/3/27
f 100/4/3 96/3/27 99/4/3
f 99/4/3 103/6/2 100/4/3
f 104/6/2 100/4/3 103/6/2
f 103/6/2 107/8/4 104/6/2
f 108/8/4 104/6/2 107/8/4
f 107/8/4 111/10/5 108/8/4
f 112/10/5 108/8/4 111/10/5
f 111/10/5 115/12/6 112/10/5
f 116/12/6 112/10/5 115/12/6
f 115/12/6 119/14/7 116/12/6
f 120/14/7 116/12/6 119/14/7
f 119/14/7 123/16/8 120/14/7
f 124/16/8 120/14/7 123/16/8
f 123/16/8 127/18/9 124/16/8
f 128/18/9 124/16/8 127/18/9
f 131/20/10 132/20/10 127/18/9
f 128/18/9 127/18/9 132/20/10
f 135/22/11 136/22/11 131/20/10
f 132/20/10 131/20/10 136/22/11
f 139/24/31 140/24/32 135/22/11
f 136/22/11 135/22/11 140/24/32
f 143/27/14 144/27/14 139/24/31
f 140/24/32 139/24/31 144/27/14
f 55/21/15 56/21/15 143/27/14
f 144/27/14 143/27/14 56/21/15
