# SSTK version 0.8.0
# 207
mtllib original-207.mtl
o #ID1236
v -0.31065 0.30242 -0.065648
v -0.307613 0.302215 -0.065165
v -0.307492 0.302179 -0.065235
v -0.308593 0.30261 -0.064273
v -0.309388 0.303058 -0.063146
v -0.309819 0.303433 -0.062111
v -0.31243 0.303632 -0.062453
v -0.311265 0.302734 -0.064877
v -0.311899 0.303152 -0.063782
v -0.312396 0.303589 -0.062577
v -0.312396 0.303589 -0.062577
v -0.311899 0.303152 -0.063782
v -0.31243 0.303632 -0.062453
v -0.311265 0.302734 -0.064877
v -0.31065 0.30242 -0.065648
v -0.309819 0.303433 -0.062111
v -0.309388 0.303058 -0.063146
v -0.308593 0.30261 -0.064273
v -0.307613 0.302215 -0.065165
v -0.307492 0.302179 -0.065235
v -0.305619 0.300779 -0.068355
v -0.304747 0.301462 -0.066233
v -0.3043 0.300678 -0.068182
v -0.305261 0.301544 -0.066185
v -0.306504 0.301843 -0.065803
v -0.306371 0.300926 -0.068213
v -0.307514 0.301209 -0.067838
v -0.30861 0.301542 -0.067313
v -0.309621 0.301919 -0.066643
v -0.310505 0.302333 -0.065831
v -0.310505 0.302333 -0.065831
v -0.309621 0.301919 -0.066643
v -0.30861 0.301542 -0.067313
v -0.307514 0.301209 -0.067838
v -0.306504 0.301843 -0.065803
v -0.306371 0.300926 -0.068213
v -0.305619 0.300779 -0.068355
v -0.305261 0.301544 -0.066185
v -0.304747 0.301462 -0.066233
v -0.3043 0.300678 -0.068182
v -0.309948 0.303526 -0.061805
v -0.310274 0.30396 -0.06025
v -0.310353 0.304367 -0.058699
v -0.312981 0.304567 -0.059043
v -0.312747 0.303964 -0.061295
v -0.312949 0.304335 -0.059934
v -0.312949 0.304335 -0.059934
v -0.312747 0.303964 -0.061295
v -0.312981 0.304567 -0.059043
v -0.310353 0.304367 -0.058699
v -0.310274 0.30396 -0.06025
v -0.309948 0.303526 -0.061805
v -0.305182 0.300684 -0.068438
v -0.30423 0.300532 -0.068495
v -0.305182 0.300684 -0.068438
v -0.30423 0.300532 -0.068495
v -0.29491 0.300687 -0.061212
v -0.297729 0.30117 -0.061892
v -0.294844 0.300846 -0.060701
v -0.295781 0.300097 -0.06357
v -0.296417 0.299885 -0.064656
v -0.296735 0.299828 -0.065059
v -0.29773 0.301168 -0.061899
v -0.298339 0.300879 -0.063189
v -0.299176 0.300713 -0.064292
v -0.300185 0.300665 -0.065176
v -0.301307 0.300733 -0.065808
v -0.302542 0.300917 -0.066187
v -0.303891 0.301217 -0.066313
v -0.303891 0.301217 -0.066313
v -0.302542 0.300917 -0.066187
v -0.301307 0.300733 -0.065808
v -0.300185 0.300665 -0.065176
v -0.296735 0.299828 -0.065059
v -0.299176 0.300713 -0.064292
v -0.298339 0.300879 -0.063189
v -0.29773 0.301168 -0.061899
v -0.297729 0.30117 -0.061892
v -0.296417 0.299885 -0.064656
v -0.295781 0.300097 -0.06357
v -0.29491 0.300687 -0.061212
v -0.294844 0.300846 -0.060701
v -0.310364 0.304412 -0.058482
v -0.312611 0.305246 -0.055469
v -0.312688 0.305201 -0.055735
v -0.312916 0.304955 -0.057077
v -0.313003 0.304679 -0.058496
v -0.310139 0.304834 -0.056261
v -0.309761 0.305029 -0.055096
v -0.310364 0.304412 -0.058482
v -0.310139 0.304834 -0.056261
v -0.312611 0.305246 -0.055469
v -0.309761 0.305029 -0.055096
v -0.313003 0.304679 -0.058496
v -0.312916 0.304955 -0.057077
v -0.312688 0.305201 -0.055735
v -0.297181 0.299725 -0.065621
v -0.298071 0.299634 -0.066465
v -0.299088 0.299626 -0.067188
v -0.300202 0.299703 -0.067767
v -0.301383 0.299865 -0.068181
v -0.302633 0.300113 -0.06843
v -0.30395 0.300447 -0.068512
v -0.30395 0.300447 -0.068512
v -0.302633 0.300113 -0.06843
v -0.301383 0.299865 -0.068181
v -0.300202 0.299703 -0.067767
v -0.299088 0.299626 -0.067188
v -0.298071 0.299634 -0.066465
v -0.297181 0.299725 -0.065621
v -0.297356 0.301506 -0.060423
v -0.297211 0.30195 -0.058761
v -0.294684 0.301876 -0.056987
v -0.294592 0.301357 -0.058721
v -0.297242 0.302164 -0.058043
v -0.297211 0.30195 -0.058761
v -0.297242 0.302164 -0.058043
v -0.294684 0.301876 -0.056987
v -0.294592 0.301357 -0.058721
v -0.297356 0.301506 -0.060423
v -0.308523 0.30525 -0.052772
v -0.308345 0.30544 -0.051351
v -0.308083 0.305263 -0.052394
v -0.310762 0.305624 -0.051668
v -0.30952 0.305116 -0.054342
v -0.311183 0.305587 -0.052196
v -0.31182 0.30549 -0.053282
v -0.312324 0.305364 -0.05447
v -0.312324 0.305364 -0.05447
v -0.31182 0.30549 -0.053282
v -0.311183 0.305587 -0.052196
v -0.310762 0.305624 -0.051668
v -0.30952 0.305116 -0.054342
v -0.308523 0.30525 -0.052772
v -0.308345 0.30544 -0.051351
v -0.308083 0.305263 -0.052394
v -0.294715 0.302012 -0.056434
v -0.29517 0.302577 -0.05441
v -0.295518 0.302834 -0.053621
v -0.297303 0.302483 -0.056725
v -0.297644 0.302955 -0.055003
v -0.297824 0.303093 -0.054573
v -0.297824 0.303093 -0.054573
v -0.297644 0.302955 -0.055003
v -0.295518 0.302834 -0.053621
v -0.297303 0.302483 -0.056725
v -0.29517 0.302577 -0.05441
v -0.294715 0.302012 -0.056434
v -0.300037 0.304018 -0.051724
v -0.298433 0.30398 -0.049952
v -0.297569 0.303741 -0.050705
v -0.299995 0.304348 -0.049097
v -0.301686 0.304691 -0.048602
v -0.300092 0.304033 -0.05168
v -0.301205 0.304292 -0.051094
v -0.302414 0.304537 -0.050743
v -0.30372 0.304768 -0.050625
v -0.305534 0.305037 -0.050869
v -0.307164 0.305213 -0.051599
v -0.307164 0.305213 -0.051599
v -0.305534 0.305037 -0.050869
v -0.301686 0.304691 -0.048602
v -0.30372 0.304768 -0.050625
v -0.302414 0.304537 -0.050743
v -0.301205 0.304292 -0.051094
v -0.300092 0.304033 -0.05168
v -0.300037 0.304018 -0.051724
v -0.299995 0.304348 -0.049097
v -0.298433 0.30398 -0.049952
v -0.297569 0.303741 -0.050705
v -0.30873 0.305612 -0.049847
v -0.309531 0.305631 -0.050404
v -0.31042 0.305633 -0.051236
v -0.31042 0.305633 -0.051236
v -0.309531 0.305631 -0.050404
v -0.30873 0.305612 -0.049847
v -0.295952 0.30309 -0.052648
v -0.297062 0.303567 -0.051149
v -0.298237 0.303346 -0.053595
v -0.299078 0.3037 -0.0525
v -0.299078 0.3037 -0.0525
v -0.298237 0.303346 -0.053595
v -0.297062 0.303567 -0.051149
v -0.295952 0.30309 -0.052648
v -0.301748 0.304702 -0.048584
v -0.303693 0.304996 -0.048413
v -0.304996 0.305178 -0.048493
v -0.306235 0.305338 -0.048734
v -0.307408 0.305476 -0.049136
v -0.308516 0.305593 -0.049698
v -0.308516 0.305593 -0.049698
v -0.307408 0.305476 -0.049136
v -0.306235 0.305338 -0.048734
v -0.304996 0.305178 -0.048493
v -0.303693 0.304996 -0.048413
v -0.301748 0.304702 -0.048584
vn 0.1138832867299122 0.939580698394004 -0.322829224527502
vn 0.11125652344143085 0.9481239936978889 -0.29779670677509507
vn 0.10854925187762368 0.9560026281349031 -0.2725363001802998
vn 0.11889181904018636 0.920516832291495 -0.3721740141833484
vn 0.17550151238681277 0.9266006036220621 -0.3325816298552457
vn 0.18132675318823555 0.9158748140070626 -0.3581814256012464
vn 0.11642959746982556 0.9303736282868551 -0.347633514813182
vn 0.10576518090127965 0.9632048978785162 -0.2470830856448025
vn 0.10290447202964444 0.9697295735687461 -0.22143898433310671
vn 0.12127018656390097 0.9100107078132625 -0.3964518300070787
vn 0.18624624634181022 0.9060062903240093 -0.3800854346287329
vn 0.23391878307477396 0.9193710833836006 -0.31628913032679684
vn 0.22542968257422988 0.9291347088393386 -0.29307021521219073
vn 0.2422364303178966 0.908965962170943 -0.33926743351152155
vn 0.09997086418581475 0.9755673270015481 -0.1956379738215354
vn 0.09696476011042086 0.9807166536575666 -0.16968406093511937
vn 0.2503831398077164 0.8979196144935727 -0.3620064215007011
vn 0.21678136614455984 0.9382418923730262 -0.2696441927592379
vn 0.20797380798126358 0.9466917838445943 -0.24601130379499292
vn 0.09388990155794481 0.9851705047470976 -0.14360975928462746
vn 0.12206187785960007 0.9862587370110399 -0.1113310452783775
vn 0.12793580011493946 0.9826019741551782 -0.13463205946317852
vn 0.09074695245785666 0.9889273183168299 -0.11742124895560771
vn 0.19901895385708973 0.9544719305560432 -0.2222043874144913
vn 0.18991765419498174 0.9615810420235296 -0.19822508480517403
vn 0.17131275252239175 0.9737541773562235 -0.14984906707919984
vn 0.16182221022628707 0.9788088294520307 -0.12548644414527396
vn 0.15221237764621556 0.9831712555255351 -0.10102313794190347
vn 0.11506395478576306 0.9898125876662724 -0.08385301191046958
vn 0.08753958690503713 0.9919821597206029 -0.09114941316620787
vn 0.1806818107349334 0.9680089714615545 -0.17410546929803497
vn 0.14249447713575775 0.9868357889044278 -0.07648823257980725
vn -0.11125652344143085 -0.9481239936978889 0.29779670677509507
vn -0.10854925187762368 -0.9560026281349031 0.2725363001802998
vn -0.1138832867299122 -0.939580698394004 0.322829224527502
vn -0.11642959746982556 -0.9303736282868551 0.347633514813182
vn -0.11889181904018636 -0.920516832291495 0.3721740141833484
vn -0.17550151238681277 -0.9266006036220621 0.3325816298552457
vn -0.18132675318823555 -0.9158748140070626 0.3581814256012464
vn -0.10576518090127965 -0.9632048978785162 0.2470830856448025
vn -0.10290447202964444 -0.9697295735687461 0.22143898433310671
vn -0.12127018656390097 -0.9100107078132625 0.3964518300070787
vn -0.18624624634181022 -0.9060062903240093 0.3800854346287329
vn -0.23391878307477396 -0.9193710833836006 0.31628913032679684
vn -0.2422364303178966 -0.908965962170943 0.33926743351152155
vn -0.22542968257422988 -0.9291347088393386 0.29307021521219073
vn -0.09997086418581475 -0.9755673270015481 0.1956379738215354
vn -0.09696476011042086 -0.9807166536575666 0.16968406093511937
vn -0.2503831398077164 -0.8979196144935727 0.3620064215007011
vn -0.21678136614455984 -0.9382418923730262 0.2696441927592379
vn -0.20797380798126358 -0.9466917838445943 0.24601130379499292
vn -0.09388990155794481 -0.9851705047470976 0.14360975928462746
vn -0.09074695245785666 -0.9889273183168299 0.11742124895560771
vn -0.12206187785960007 -0.9862587370110399 0.1113310452783775
vn -0.12793580011493946 -0.9826019741551782 0.13463205946317852
vn -0.18991765419498174 -0.9615810420235296 0.19822508480517403
vn -0.19901895385708973 -0.9544719305560432 0.2222043874144913
vn -0.16182221022628707 -0.9788088294520307 0.12548644414527396
vn -0.15221237764621556 -0.9831712555255351 0.10102313794190347
vn -0.17131275252239175 -0.9737541773562235 0.14984906707919984
vn -0.08753958690503713 -0.9919821597206029 0.09114941316620787
vn -0.11506395478576306 -0.9898125876662724 0.08385301191046958
vn -0.1806818107349334 -0.9680089714615545 0.17410546929803497
vn -0.14249447713575775 -0.9868357889044278 0.07648823257980725
usemtl material_0_0
f 1//1 2//2 3//1
f 2//2 1//1 4//2
f 4//2 1//1 5//2
f 5//2 1//1 6//3
f 6//3 1//1 7//3
f 7//3 1//1 8//2
f 7//3 8//2 9//2
f 7//3 9//2 10//2
f 21//4 22//5 23//6
f 22//5 21//4 24//7
f 24//7 21//4 25//7
f 25//7 21//4 26//7
f 25//7 26//7 27//7
f 25//7 27//7 3//1
f 3//1 27//7 28//7
f 3//1 28//7 1//1
f 1//1 28//7 29//7
f 1//1 29//7 30//7
f 7//3 41//8 6//3
f 41//8 7//3 42//8
f 42//8 7//3 43//9
f 43//9 7//3 44//9
f 44//9 7//3 45//8
f 44//9 45//8 46//8
f 53//10 23//6 54//11
f 23//6 53//10 21//4
f 57//12 58//13 59//13
f 58//13 57//12 60//12
f 58//13 60//12 61//12
f 58//13 61//12 62//14
f 58//13 62//14 63//12
f 63//12 62//14 64//12
f 64//12 62//14 65//12
f 65//12 62//14 66//12
f 66//12 62//14 23//6
f 66//12 23//6 67//12
f 67//12 23//6 68//12
f 68//12 23//6 69//12
f 69//12 23//6 22//5
f 44//9 83//15 43//9
f 83//15 44//9 84//16
f 84//16 44//9 85//15
f 85//15 44//9 86//15
f 86//15 44//9 87//15
f 88//15 84//16 89//16
f 84//16 88//15 83//15
f 97//17 23//6 62//14
f 23//6 97//17 98//17
f 23//6 98//17 99//17
f 23//6 99//17 100//17
f 23//6 100//17 101//17
f 23//6 101//17 102//17
f 23//6 102//17 103//17
f 23//6 103//17 54//11
f 59//13 111//18 112//18
f 111//18 59//13 58//13
f 59//13 113//19 114//18
f 113//19 59//13 115//19
f 115//19 59//13 112//18
f 121//20 122//21 123//22
f 122//21 121//20 124//23
f 124//23 121//20 125//20
f 124//23 125//20 89//16
f 124//23 89//16 84//16
f 124//23 84//16 126//20
f 126//20 84//16 127//20
f 127//20 84//16 128//20
f 115//19 137//24 113//19
f 137//24 115//19 138//24
f 138//24 115//19 139//25
f 139//25 115//19 140//24
f 139//25 140//24 141//24
f 139//25 141//24 142//25
f 149//26 150//27 151//26
f 150//27 149//26 152//27
f 152//27 149//26 153//28
f 153//28 149//26 154//27
f 153//28 154//27 155//27
f 153//28 155//27 156//27
f 153//28 156//27 157//27
f 153//28 157//27 158//27
f 153//28 158//27 122//21
f 122//21 158//27 159//27
f 122//21 159//27 123//22
f 124//23 171//29 122//21
f 171//29 124//23 172//30
f 172//30 124//23 173//30
f 142//25 177//31 139//25
f 177//31 142//25 178//31
f 178//31 142//25 151//26
f 151//26 142//25 179//31
f 151//26 179//31 180//31
f 151//26 180//31 149//26
f 122//21 185//32 153//28
f 185//32 122//21 186//32
f 186//32 122//21 187//32
f 187//32 122//21 188//32
f 188//32 122//21 189//32
f 189//32 122//21 190//32
f 190//32 122//21 171//29
usemtl material_1_0
f 11//33 12//33 13//34
f 12//33 14//33 13//34
f 14//33 15//35 13//34
f 13//34 15//35 16//34
f 16//34 15//35 17//33
f 17//33 15//35 18//33
f 18//33 15//35 19//33
f 20//35 19//33 15//35
f 31//36 32//36 15//35
f 32//36 33//36 15//35
f 15//35 33//36 20//35
f 33//36 34//36 20//35
f 20//35 34//36 35//36
f 34//36 36//36 35//36
f 36//36 37//37 35//36
f 35//36 37//37 38//36
f 38//36 37//37 39//38
f 40//39 39//38 37//37
f 47//40 48//40 49//41
f 48//40 13//34 49//41
f 49//41 13//34 50//41
f 50//41 13//34 51//40
f 51//40 13//34 52//40
f 16//34 52//40 13//34
f 37//37 55//42 40//39
f 56//43 40//39 55//42
f 39//38 40//39 70//44
f 70//44 40//39 71//44
f 71//44 40//39 72//44
f 72//44 40//39 73//44
f 40//39 74//45 73//44
f 73//44 74//45 75//44
f 75//44 74//45 76//44
f 76//44 74//45 77//44
f 77//44 74//45 78//46
f 74//45 79//44 78//46
f 79//44 80//44 78//46
f 80//44 81//44 78//46
f 82//46 78//46 81//44
f 90//47 91//47 92//48
f 93//48 92//48 91//47
f 94//47 49//41 95//47
f 95//47 49//41 96//47
f 96//47 49//41 92//48
f 92//48 49//41 90//47
f 50//41 90//47 49//41
f 56//43 104//49 40//39
f 104//49 105//49 40//39
f 105//49 106//49 40//39
f 106//49 107//49 40//39
f 107//49 108//49 40//39
f 108//49 109//49 40//39
f 109//49 110//49 40//39
f 74//45 40//39 110//49
f 116//50 82//46 117//51
f 117//51 82//46 118//51
f 119//50 118//51 82//46
f 78//46 82//46 120//50
f 116//50 120//50 82//46
f 129//52 92//48 130//52
f 130//52 92//48 131//52
f 131//52 92//48 132//53
f 92//48 93//48 132//53
f 93//48 133//52 132//53
f 133//52 134//52 132//53
f 132//53 134//52 135//54
f 136//55 135//54 134//52
f 143//56 144//57 145//56
f 144//57 146//57 145//56
f 146//57 117//51 145//56
f 145//56 117//51 147//57
f 147//57 117//51 148//57
f 118//51 148//57 117//51
f 136//55 160//58 135//54
f 160//58 161//58 135//54
f 135//54 161//58 162//59
f 161//58 163//58 162//59
f 163//58 164//58 162//59
f 164//58 165//58 162//59
f 165//58 166//58 162//59
f 166//58 167//60 162//59
f 162//59 167//60 168//58
f 168//58 167//60 169//58
f 170//60 169//58 167//60
f 174//61 132//53 175//61
f 175//61 132//53 176//62
f 135//54 176//62 132//53
f 167//60 181//63 170//60
f 181//63 182//63 170//60
f 182//63 143//56 170//60
f 170//60 143//56 183//63
f 183//63 143//56 184//63
f 145//56 184//63 143//56
f 176//62 135//54 191//64
f 191//64 135//54 192//64
f 192//64 135//54 193//64
f 193//64 135//54 194//64
f 194//64 135//54 195//64
f 195//64 135//54 196//64
f 162//59 196//64 135//54
