# SSTK version 0.8.0
# 266
mtllib original-266.mtl
o #ID2061
v -0.006377 -0.308798 -0.264337
v 0.003863 -0.308798 -0.25231
v 0.004395 -0.308798 -0.247052
v -0.003527 -0.308798 -0.264337
v 0.003863 -0.308798 -0.26734
v 0.003863 -0.308798 -0.264337
v -0.006377 -0.308798 -0.26734
v 0.006762 -0.308798 -0.264337
v 0.006762 -0.308798 -0.247052
v 0.006762 -0.308798 -0.26734
v 0.006762 -0.308798 -0.273726
v 0.003863 -0.308798 -0.273726
v 0.00995 -0.308798 -0.26734
v 0.00995 -0.308798 -0.264337
vn 0.0 -1.0 0.0
usemtl material_0_0
f 1//1 2//1 3//1
f 2//1 1//1 4//1
f 4//1 5//1 6//1
f 5//1 4//1 7//1
f 7//1 4//1 1//1
f 3//1 8//1 9//1
f 8//1 3//1 10//1
f 10//1 3//1 11//1
f 11//1 3//1 12//1
f 12//1 3//1 2//1
f 12//1 2//1 6//1
f 12//1 6//1 5//1
f 8//1 13//1 14//1
f 13//1 8//1 10//1
