# SSTK version 0.8.0
# 482
mtllib original-482.mtl
o #ID3212
v 0.436007 0.23008 -0.446804
v 0.439357 0.229821 -0.446791
v 0.439342 0.229762 -0.446804
v 0.436052 0.230162 -0.446785
v 0.436052 0.230162 -0.446785
v 0.436007 0.23008 -0.446804
v 0.439357 0.229821 -0.446791
v 0.439342 0.229762 -0.446804
v 0.4399 0.231736 -0.445888
v 0.43643 0.23074 -0.446503
v 0.436858 0.232475 -0.445688
v 0.43996 0.232583 -0.445497
v 0.436878 0.232823 -0.445528
v 0.436878 0.232823 -0.445528
v 0.436858 0.232475 -0.445688
v 0.43996 0.232583 -0.445497
v 0.4399 0.231736 -0.445888
v 0.43643 0.23074 -0.446503
vn 0.021182650215348733 0.22219590225890531 -0.9747719099098031
vn 0.031062369018543666 0.31660698999638626 -0.9480480700451765
vn 0.04142789908708943 0.41622109082809783 -0.9083191799841607
vn 0.04333335961639708 0.4422118960853766 -0.8958631920694878
vn -0.031062369018543666 -0.31660698999638626 0.9480480700451765
vn -0.021182650215348733 -0.22219590225890531 0.9747719099098031
vn -0.04333335961639708 -0.4422118960853766 0.8958631920694878
vn -0.04142789908708943 -0.41622109082809783 0.9083191799841607
usemtl material_0_0
f 1//1 2//2 3//1
f 2//2 1//1 4//2
f 4//2 9//3 2//2
f 9//3 4//2 10//3
f 9//3 10//3 11//3
f 9//3 11//3 12//4
f 12//4 11//3 13//4
usemtl material_1_0
f 5//5 6//6 7//5
f 8//6 7//5 6//6
f 14//7 15//8 16//7
f 16//7 15//8 17//8
f 15//8 18//8 17//8
f 18//8 5//5 17//8
f 7//5 17//8 5//5
