# SSTK version 0.8.0
# 561
mtllib original-561.mtl
o #ID2752
v 0.411812 0.273296 -0.254757
v 0.418554 0.27333 -0.254775
v 0.411812 0.27333 -0.254775
v 0.418554 0.273296 -0.254757
v 0.418554 0.273296 -0.254757
v 0.411812 0.273296 -0.254757
v 0.418554 0.27333 -0.254775
v 0.411812 0.27333 -0.254775
v 0.418554 0.273296 -0.254757
v 0.411812 0.273342 -0.254775
v 0.418554 0.273342 -0.254775
v 0.411812 0.273296 -0.254757
v 0.411812 0.273296 -0.254757
v 0.418554 0.273296 -0.254757
v 0.411812 0.273342 -0.254775
v 0.418554 0.273342 -0.254775
v 0.411812 0.27333 -0.254775
v 0.418554 0.273342 -0.254775
v 0.411812 0.273342 -0.254775
v 0.418554 0.27333 -0.254775
v 0.418554 0.27333 -0.254775
v 0.411812 0.27333 -0.254775
v 0.418554 0.273342 -0.254775
v 0.411812 0.273342 -0.254775
v 0.418554 0.26298 -0.254775
v 0.411812 0.27333 -0.254775
v 0.418554 0.27333 -0.254775
v 0.411812 0.26298 -0.254775
v 0.411812 0.26298 -0.254775
v 0.418554 0.26298 -0.254775
v 0.411812 0.27333 -0.254775
v 0.418554 0.27333 -0.254775
v 0.418554 0.27333 -0.254775
v 0.411812 0.274015 -0.255141
v 0.418554 0.274015 -0.255141
v 0.411812 0.27333 -0.254775
v 0.411812 0.27333 -0.254775
v 0.418554 0.27333 -0.254775
v 0.411812 0.274015 -0.255141
v 0.418554 0.274015 -0.255141
v 0.411812 0.262466 -0.262955
v 0.418554 0.26298 -0.254775
v 0.418554 0.262466 -0.262955
v 0.411812 0.26298 -0.254775
v 0.411812 0.26298 -0.254775
v 0.411812 0.262466 -0.262955
v 0.418554 0.26298 -0.254775
v 0.418554 0.262466 -0.262955
v 0.411812 0.274703 -0.255617
v 0.418554 0.274703 -0.255617
v 0.411812 0.274703 -0.255617
v 0.418554 0.274703 -0.255617
v 0.411812 0.262157 -0.276932
v 0.418554 0.262157 -0.276932
v 0.411812 0.262157 -0.276932
v 0.418554 0.262157 -0.276932
v 0.411812 0.275354 -0.256182
v 0.418554 0.275354 -0.256182
v 0.411812 0.275354 -0.256182
v 0.418554 0.275354 -0.256182
v 0.411812 0.262202 -0.285114
v 0.418554 0.262202 -0.285114
v 0.411812 0.262202 -0.285114
v 0.418554 0.262202 -0.285114
v 0.411812 0.275961 -0.256829
v 0.418554 0.275961 -0.256829
v 0.411812 0.275961 -0.256829
v 0.418554 0.275961 -0.256829
v 0.411812 0.26199 -0.300193
v 0.418554 0.26199 -0.300193
v 0.411812 0.26199 -0.300193
v 0.418554 0.26199 -0.300193
v 0.411812 0.276519 -0.257553
v 0.418554 0.276519 -0.257553
v 0.411812 0.276519 -0.257553
v 0.418554 0.276519 -0.257553
v 0.411812 0.261864 -0.314422
v 0.418554 0.261864 -0.314422
v 0.411812 0.261864 -0.314422
v 0.418554 0.261864 -0.314422
v 0.418554 0.277023 -0.258347
v 0.411812 0.277023 -0.258347
v 0.411812 0.277023 -0.258347
v 0.418554 0.277023 -0.258347
v 0.411812 0.261816 -0.328285
v 0.418554 0.261816 -0.328285
v 0.411812 0.261816 -0.328285
v 0.418554 0.261816 -0.328285
v 0.418554 0.277468 -0.259203
v 0.411812 0.277468 -0.259203
v 0.411812 0.277468 -0.259203
v 0.418554 0.277468 -0.259203
v 0.411812 0.261845 -0.342043
v 0.418554 0.261845 -0.342043
v 0.411812 0.261845 -0.342043
v 0.418554 0.261845 -0.342043
v 0.418554 0.277849 -0.260114
v 0.411812 0.277849 -0.260114
v 0.411812 0.277849 -0.260114
v 0.418554 0.277849 -0.260114
v 0.418554 0.261932 -0.353463
v 0.411812 0.261932 -0.353463
v 0.411812 0.261932 -0.353463
v 0.418554 0.261932 -0.353463
v 0.418554 0.278164 -0.26107
v 0.411812 0.278164 -0.26107
v 0.411812 0.278164 -0.26107
v 0.418554 0.278164 -0.26107
v 0.411812 0.261932 -0.353463
v 0.418554 0.273911 -0.353463
v 0.411812 0.273911 -0.353463
v 0.418554 0.261932 -0.353463
v 0.418554 0.261932 -0.353463
v 0.411812 0.261932 -0.353463
v 0.418554 0.273911 -0.353463
v 0.411812 0.273911 -0.353463
v 0.418554 0.278408 -0.262063
v 0.411812 0.278408 -0.262063
v 0.411812 0.278408 -0.262063
v 0.418554 0.278408 -0.262063
v 0.418554 0.274403 -0.35336
v 0.411812 0.274403 -0.35336
v 0.418554 0.274403 -0.35336
v 0.411812 0.274403 -0.35336
v 0.418554 0.278452 -0.26232
v 0.411812 0.278452 -0.26232
v 0.411812 0.278452 -0.26232
v 0.418554 0.278452 -0.26232
v 0.418554 0.27501 -0.353127
v 0.411812 0.27501 -0.353127
v 0.418554 0.27501 -0.353127
v 0.411812 0.27501 -0.353127
v 0.418554 0.278452 -0.346203
v 0.411812 0.278452 -0.346203
v 0.411812 0.278452 -0.346203
v 0.418554 0.278452 -0.346203
v 0.418554 0.275592 -0.352794
v 0.411812 0.275592 -0.352794
v 0.418554 0.275592 -0.352794
v 0.411812 0.275592 -0.352794
v 0.418554 0.278396 -0.34743
v 0.411812 0.278396 -0.34743
v 0.411812 0.278396 -0.34743
v 0.418554 0.278396 -0.34743
v 0.418554 0.276138 -0.352367
v 0.411812 0.276138 -0.352367
v 0.418554 0.276138 -0.352367
v 0.411812 0.276138 -0.352367
v 0.418554 0.27828 -0.348271
v 0.411812 0.27828 -0.348271
v 0.411812 0.27828 -0.348271
v 0.418554 0.27828 -0.348271
v 0.418554 0.276642 -0.351852
v 0.411812 0.276642 -0.351852
v 0.418554 0.276642 -0.351852
v 0.411812 0.276642 -0.351852
v 0.418554 0.278088 -0.349086
v 0.411812 0.278088 -0.349086
v 0.411812 0.278088 -0.349086
v 0.418554 0.278088 -0.349086
v 0.418554 0.277096 -0.351257
v 0.411812 0.277096 -0.351257
v 0.418554 0.277096 -0.351257
v 0.411812 0.277096 -0.351257
v 0.418554 0.277824 -0.349863
v 0.411812 0.277824 -0.349863
v 0.411812 0.277824 -0.349863
v 0.418554 0.277824 -0.349863
v 0.411812 0.277492 -0.350591
v 0.418554 0.277492 -0.350591
v 0.411812 0.277492 -0.350591
v 0.418554 0.277492 -0.350591
vn 0.0 0.47124180521689246 0.8820040595234948
vn 0.0 -0.36137682328957166 -0.9324198579980681
vn 0.0 0.0 1.0
vn 0.0 0.0 -1.0
vn 0.0 -0.47124180521689246 -0.8820040595234948
vn 0.0 -0.521853375791415 -0.8530352010175806
vn 0.0 0.9991001014597839 -0.04241446997251311
vn 0.0 0.9980295816668467 -0.0627451521465921
vn 0.0 -0.6139375392446175 -0.7893546084658428
vn 0.0 0.9999655943797098 -0.008295182748654994
vn 0.0 -0.6938121809339967 -0.720155995314634
vn 0.0 0.9999908907284645 -0.004268308809402508
vn 0.0 -0.7619901202697036 -0.647588647685676
vn 0.0 0.9999345286834304 -0.011442829486011219
vn 0.0 -0.8193596584965339 -0.5732798182636845
vn 0.0 0.9999811279877181 -0.006143587584697723
vn 0.0 -0.8669653357509904 -0.49836844463325763
vn 0.0 0.9999997670145943 -0.0006826205076427887
vn 0.0 -0.9058570197120552 -0.42358359250376193
vn 0.0 0.9999882501450309 0.004847635699903251
vn 0.0 -0.9369979234807465 -0.34933492724428367
vn 0.0 0.9999709819096299 0.007618092851289032
vn 0.0 -0.9612163285073557 -0.2757955217381881
vn 0.0 -0.10329780289730527 0.9946504732400169
vn 0.0 -0.9791847390590932 -0.20297104915178302
vn 0.0 -0.283288091735933 0.9590348570727832
vn 0.0 -0.9965319958349452 -0.08321046374838267
vn 0.0 -0.4299247608884724 0.9028647185348367
vn 0.0 -0.9997412821360706 0.02274574230324896
vn 0.0 -0.5585771964423963 0.8294525396998629
vn 0.0 -0.9958452682516431 0.09106152700681626
vn 0.0 -0.6675511108833536 0.7445639760009886
vn 0.0 -0.9831850744634087 0.18261190911980898
vn 0.0 -0.7572870751586391 0.6530821432237096
vn 0.0 -0.9614259530342323 0.2750638777306427
vn 0.0 -0.8294523364091765 0.5585774983163554
vn 0.0 -0.9295639687784251 0.36866085763056416
vn 0.0 -0.8861775126810574 0.46334589241560625
vn 0.0 0.36137682328957166 0.9324198579980681
vn 0.0 0.521853375791415 0.8530352010175806
vn 0.0 -0.9980295816668467 0.0627451521465921
vn 0.0 -0.9991001014597839 0.04241446997251311
vn 0.0 0.6139375392446175 0.7893546084658428
vn 0.0 -0.9999655943797098 0.008295182748654994
vn 0.0 0.6938121809339967 0.720155995314634
vn 0.0 -0.9999908907284645 0.004268308809402508
vn 0.0 0.7619901202697036 0.647588647685676
vn 0.0 -0.9999345286834304 0.011442829486011219
vn 0.0 0.8193596584965339 0.5732798182636845
vn 0.0 -0.9999811279877181 0.006143587584697723
vn 0.0 0.8669653357509904 0.49836844463325763
vn 0.0 -0.9999997670145943 0.0006826205076427887
vn 0.0 0.9058570197120552 0.42358359250376193
vn 0.0 -0.9999882501450309 -0.004847635699903251
vn 0.0 0.9369979234807465 0.34933492724428367
vn 0.0 -0.9999709819096299 -0.007618092851289032
vn 0.0 0.9612163285073557 0.2757955217381881
vn 0.0 0.10329780289730527 -0.9946504732400169
vn 0.0 0.9791847390590932 0.20297104915178302
vn 0.0 0.283288091735933 -0.9590348570727832
vn 0.0 0.9965319958349452 0.08321046374838267
vn 0.0 0.4299247608884724 -0.9028647185348367
vn 0.0 0.9997412821360706 -0.02274574230324896
vn 0.0 0.5585771964423963 -0.8294525396998629
vn 0.0 0.9958452682516431 -0.09106152700681626
vn 0.0 0.6675511108833536 -0.7445639760009886
vn 0.0 0.9831850744634087 -0.18261190911980898
vn 0.0 0.7572870751586391 -0.6530821432237096
vn 0.0 0.9614259530342323 -0.2750638777306427
vn 0.0 0.8294523364091765 -0.5585774983163554
vn 0.0 0.9295639687784251 -0.36866085763056416
vn 0.0 0.8861775126810574 -0.46334589241560625
usemtl material_0_0
f 1//1 2//1 3//1
f 2//1 1//1 4//1
f 9//2 10//2 11//2
f 10//2 9//2 12//2
f 17//3 18//3 19//3
f 18//3 17//3 20//3
f 25//4 26//4 27//4
f 26//4 25//4 28//4
f 33//5 34//6 35//6
f 34//6 33//5 36//5
f 41//7 42//8 43//7
f 42//8 41//7 44//8
f 35//6 49//9 50//9
f 49//9 35//6 34//6
f 53//10 43//7 54//10
f 43//7 53//10 41//7
f 50//9 57//11 58//11
f 57//11 50//9 49//9
f 61//12 54//10 62//12
f 54//10 61//12 53//10
f 58//11 65//13 66//13
f 65//13 58//11 57//11
f 69//14 62//12 70//14
f 62//12 69//14 61//12
f 66//13 73//15 74//15
f 73//15 66//13 65//13
f 77//16 70//14 78//16
f 70//14 77//16 69//14
f 73//15 81//17 74//15
f 81//17 73//15 82//17
f 85//18 78//16 86//18
f 78//16 85//18 77//16
f 82//17 89//19 81//17
f 89//19 82//17 90//19
f 93//20 86//18 94//20
f 86//18 93//20 85//18
f 90//19 97//21 89//19
f 97//21 90//19 98//21
f 101//22 93//20 94//20
f 93//20 101//22 102//22
f 98//21 105//23 97//21
f 105//23 98//21 106//23
f 109//3 110//24 111//24
f 110//24 109//3 112//3
f 106//23 117//25 105//23
f 117//25 106//23 118//25
f 111//24 121//26 122//26
f 121//26 111//24 110//24
f 118//25 125//27 117//25
f 125//27 118//25 126//27
f 122//26 129//28 130//28
f 129//28 122//26 121//26
f 126//27 133//29 125//27
f 133//29 126//27 134//29
f 130//28 137//30 138//30
f 137//30 130//28 129//28
f 134//29 141//31 133//29
f 141//31 134//29 142//31
f 138//30 145//32 146//32
f 145//32 138//30 137//30
f 142//31 149//33 141//31
f 149//33 142//31 150//33
f 146//32 153//34 154//34
f 153//34 146//32 145//32
f 150//33 157//35 149//33
f 157//35 150//33 158//35
f 154//34 161//36 162//36
f 161//36 154//34 153//34
f 158//35 165//37 157//35
f 165//37 158//35 166//37
f 169//38 161//36 170//38
f 161//36 169//38 162//36
f 166//37 170//38 165//37
f 170//38 166//37 169//38
usemtl material_1_0
f 5//5 6//5 7//5
f 8//5 7//5 6//5
f 13//39 14//39 15//39
f 16//39 15//39 14//39
f 21//4 22//4 23//4
f 24//4 23//4 22//4
f 29//3 30//3 31//3
f 32//3 31//3 30//3
f 37//1 38//1 39//40
f 40//40 39//40 38//1
f 45//41 46//42 47//41
f 48//42 47//41 46//42
f 39//40 40//40 51//43
f 52//43 51//43 40//40
f 46//42 55//44 48//42
f 56//44 48//42 55//44
f 51//43 52//43 59//45
f 60//45 59//45 52//43
f 55//44 63//46 56//44
f 64//46 56//44 63//46
f 59//45 60//45 67//47
f 68//47 67//47 60//45
f 63//46 71//48 64//46
f 72//48 64//46 71//48
f 67//47 68//47 75//49
f 76//49 75//49 68//47
f 71//48 79//50 72//48
f 80//50 72//48 79//50
f 83//51 75//49 84//51
f 76//49 84//51 75//49
f 79//50 87//52 80//50
f 88//52 80//50 87//52
f 91//53 83//51 92//53
f 84//51 92//53 83//51
f 87//52 95//54 88//52
f 96//54 88//52 95//54
f 99//55 91//53 100//55
f 92//53 100//55 91//53
f 103//56 104//56 95//54
f 96//54 95//54 104//56
f 107//57 99//55 108//57
f 100//55 108//57 99//55
f 113//4 114//4 115//58
f 116//58 115//58 114//4
f 119//59 107//57 120//59
f 108//57 120//59 107//57
f 115//58 116//58 123//60
f 124//60 123//60 116//58
f 127//61 119//59 128//61
f 120//59 128//61 119//59
f 123//60 124//60 131//62
f 132//62 131//62 124//60
f 135//63 127//61 136//63
f 128//61 136//63 127//61
f 131//62 132//62 139//64
f 140//64 139//64 132//62
f 143//65 135//63 144//65
f 136//63 144//65 135//63
f 139//64 140//64 147//66
f 148//66 147//66 140//64
f 151//67 143//65 152//67
f 144//65 152//67 143//65
f 147//66 148//66 155//68
f 156//68 155//68 148//66
f 159//69 151//67 160//69
f 152//67 160//69 151//67
f 155//68 156//68 163//70
f 164//70 163//70 156//68
f 167//71 159//69 168//71
f 160//69 168//71 159//69
f 164//70 171//72 163//70
f 172//72 163//70 171//72
f 171//72 167//71 172//72
f 168//71 172//72 167//71
