# SSTK version 0.8.0
# 662
mtllib original-662.mtl
o #ID4475
v -0.035421 -0.051543 0.549814
v -0.029233 -0.049885 0.549814
v -0.03436 -0.010937 0.549814
v -0.019748 -0.089382 0.549814
v -0.014199 -0.086179 0.549814
v 0.005185 -0.121875 0.549814
v 0.009715 -0.117345 0.549814
v 0.037678 -0.146808 0.549814
v 0.040882 -0.141259 0.549814
v 0.075517 -0.162482 0.549814
v 0.077175 -0.156293 0.549814
v 0.116123 -0.167827 0.549814
v 0.116123 -0.161421 0.549814
v 0.155071 -0.156293 0.549814
v 0.15673 -0.162482 0.549814
v 0.191365 -0.141259 0.549814
v 0.194569 -0.146808 0.549814
v 0.222531 -0.117345 0.549814
v 0.227062 -0.121875 0.549814
v 0.246446 -0.086179 0.549814
v 0.251995 -0.089382 0.549814
v 0.26148 -0.049885 0.549814
v 0.267668 -0.051543 0.549814
v 0.266607 -0.010937 0.549814
v 0.267668 0.029669 0.549814
v 0.273014 -0.010937 0.549814
v -0.035421 0.029669 0.549814
v -0.040767 -0.010937 0.549814
v -0.029233 0.028011 0.549814
v -0.019748 0.067508 0.549814
v -0.014199 0.064305 0.549814
v 0.005185 0.100001 0.549814
v 0.009715 0.095471 0.549814
v 0.037678 0.124934 0.549814
v 0.040882 0.119386 0.549814
v 0.075517 0.140608 0.549814
v 0.077175 0.134419 0.549814
v 0.116123 0.145954 0.549814
v 0.116123 0.139547 0.549814
v 0.155071 0.134419 0.549814
v 0.15673 0.140608 0.549814
v 0.191365 0.119386 0.549814
v 0.194569 0.124934 0.549814
v 0.222531 0.095471 0.549814
v 0.227062 0.100001 0.549814
v 0.246446 0.064305 0.549814
v 0.251995 0.067508 0.549814
v 0.26148 0.028011 0.549814
v 0.266607 -0.010937 0.549814
v 0.26148 0.028011 0.549814
v 0.267668 0.029669 0.549814
v 0.251995 0.067508 0.549814
v 0.246446 0.064305 0.549814
v 0.227062 0.100001 0.549814
v 0.222531 0.095471 0.549814
v 0.194569 0.124934 0.549814
v 0.191365 0.119386 0.549814
v 0.15673 0.140608 0.549814
v 0.155071 0.134419 0.549814
v 0.116123 0.145954 0.549814
v 0.116123 0.139547 0.549814
v 0.077175 0.134419 0.549814
v 0.075517 0.140608 0.549814
v 0.040882 0.119386 0.549814
v 0.037678 0.124934 0.549814
v 0.009715 0.095471 0.549814
v 0.005185 0.100001 0.549814
v -0.014199 0.064305 0.549814
v -0.019748 0.067508 0.549814
v -0.029233 0.028011 0.549814
v -0.035421 0.029669 0.549814
v -0.03436 -0.010937 0.549814
v -0.035421 -0.051543 0.549814
v -0.040767 -0.010937 0.549814
v 0.273014 -0.010937 0.549814
v 0.267668 -0.051543 0.549814
v 0.26148 -0.049885 0.549814
v 0.251995 -0.089382 0.549814
v 0.246446 -0.086179 0.549814
v 0.227062 -0.121875 0.549814
v 0.222531 -0.117345 0.549814
v 0.194569 -0.146808 0.549814
v 0.191365 -0.141259 0.549814
v 0.15673 -0.162482 0.549814
v 0.155071 -0.156293 0.549814
v 0.116123 -0.167827 0.549814
v 0.116123 -0.161421 0.549814
v 0.077175 -0.156293 0.549814
v 0.075517 -0.162482 0.549814
v 0.040882 -0.141259 0.549814
v 0.037678 -0.146808 0.549814
v 0.009715 -0.117345 0.549814
v 0.005185 -0.121875 0.549814
v -0.014199 -0.086179 0.549814
v -0.019748 -0.089382 0.549814
v -0.029233 -0.049885 0.549814
vt 0.7489166 0.348205
vt 0.7440713 0.3972882
vt 0.7499191 0.3993779
vt 0.7351085 0.4470636
vt 0.7298654 0.4430265
vt 0.7115481 0.4880121
vt 0.7072672 0.4823029
vt 0.6808437 0.5194331
vt 0.6778166 0.5124407
vt 0.6450876 0.5391851
vt 0.6435207 0.5313862
vt 0.6067166 0.5459222
vt 0.6067166 0.5378481
vt 0.5699125 0.5313862
vt 0.5683456 0.5391851
vt 0.5356166 0.5124407
vt 0.5325895 0.5194331
vt 0.506166 0.4823029
vt 0.5018851 0.4880121
vt 0.4835678 0.4430265
vt 0.4783247 0.4470636
vt 0.4693619 0.3972882
vt 0.4635141 0.3993779
vt 0.4645166 0.348205
vt 0.4635141 0.297032
vt 0.4584624 0.348205
vt 0.7549708 0.348205
vt 0.7499191 0.297032
vt 0.7440713 0.2991217
vt 0.7351085 0.2493464
vt 0.7298654 0.2533834
vt 0.7115481 0.2083978
vt 0.7072672 0.214107
vt 0.6808437 0.1769769
vt 0.6778166 0.1839692
vt 0.6450876 0.1572249
vt 0.6435207 0.1650238
vt 0.6067166 0.1504878
vt 0.6067166 0.1585619
vt 0.5699125 0.1650238
vt 0.5683456 0.1572249
vt 0.5356166 0.1839692
vt 0.5325895 0.1769769
vt 0.506166 0.214107
vt 0.5018851 0.2083978
vt 0.4835678 0.2533834
vt 0.4783247 0.2493464
vt 0.4693619 0.2991217
vn 0.0 0.0 1.0
vn 0.0 0.0 -1.0
usemtl material_0_0
f 1//1 2//1 3//1
f 2//1 1//1 4//1
f 2//1 4//1 5//1
f 5//1 4//1 6//1
f 5//1 6//1 7//1
f 7//1 6//1 8//1
f 7//1 8//1 9//1
f 9//1 8//1 10//1
f 9//1 10//1 11//1
f 11//1 10//1 12//1
f 11//1 12//1 13//1
f 13//1 12//1 14//1
f 14//1 12//1 15//1
f 14//1 15//1 16//1
f 16//1 15//1 17//1
f 16//1 17//1 18//1
f 18//1 17//1 19//1
f 18//1 19//1 20//1
f 20//1 19//1 21//1
f 20//1 21//1 22//1
f 22//1 21//1 23//1
f 22//1 23//1 24//1
f 24//1 23//1 25//1
f 25//1 23//1 26//1
f 1//1 27//1 28//1
f 27//1 1//1 3//1
f 27//1 3//1 29//1
f 27//1 29//1 30//1
f 30//1 29//1 31//1
f 30//1 31//1 32//1
f 32//1 31//1 33//1
f 32//1 33//1 34//1
f 34//1 33//1 35//1
f 34//1 35//1 36//1
f 36//1 35//1 37//1
f 36//1 37//1 38//1
f 38//1 37//1 39//1
f 38//1 39//1 40//1
f 38//1 40//1 41//1
f 41//1 40//1 42//1
f 41//1 42//1 43//1
f 43//1 42//1 44//1
f 43//1 44//1 45//1
f 45//1 44//1 46//1
f 45//1 46//1 47//1
f 47//1 46//1 48//1
f 47//1 48//1 25//1
f 25//1 48//1 24//1
usemtl material_1_0
f 49/1/2 50/2/2 51/3/2
f 51/3/2 50/2/2 52/4/2
f 50/2/2 53/5/2 52/4/2
f 52/4/2 53/5/2 54/6/2
f 53/5/2 55/7/2 54/6/2
f 54/6/2 55/7/2 56/8/2
f 55/7/2 57/9/2 56/8/2
f 56/8/2 57/9/2 58/10/2
f 57/9/2 59/11/2 58/10/2
f 58/10/2 59/11/2 60/12/2
f 59/11/2 61/13/2 60/12/2
f 61/13/2 62/14/2 60/12/2
f 60/12/2 62/14/2 63/15/2
f 62/14/2 64/16/2 63/15/2
f 63/15/2 64/16/2 65/17/2
f 64/16/2 66/18/2 65/17/2
f 65/17/2 66/18/2 67/19/2
f 66/18/2 68/20/2 67/19/2
f 67/19/2 68/20/2 69/21/2
f 68/20/2 70/22/2 69/21/2
f 69/21/2 70/22/2 71/23/2
f 70/22/2 72/24/2 71/23/2
f 72/24/2 73/25/2 71/23/2
f 74/26/2 71/23/2 73/25/2
f 75/27/2 76/28/2 51/3/2
f 51/3/2 76/28/2 49/1/2
f 49/1/2 76/28/2 77/29/2
f 76/28/2 78/30/2 77/29/2
f 77/29/2 78/30/2 79/31/2
f 78/30/2 80/32/2 79/31/2
f 79/31/2 80/32/2 81/33/2
f 80/32/2 82/34/2 81/33/2
f 81/33/2 82/34/2 83/35/2
f 82/34/2 84/36/2 83/35/2
f 83/35/2 84/36/2 85/37/2
f 84/36/2 86/38/2 85/37/2
f 85/37/2 86/38/2 87/39/2
f 87/39/2 86/38/2 88/40/2
f 86/38/2 89/41/2 88/40/2
f 88/40/2 89/41/2 90/42/2
f 89/41/2 91/43/2 90/42/2
f 90/42/2 91/43/2 92/44/2
f 91/43/2 93/45/2 92/44/2
f 92/44/2 93/45/2 94/46/2
f 93/45/2 95/47/2 94/46/2
f 94/46/2 95/47/2 96/48/2
f 95/47/2 73/25/2 96/48/2
f 72/24/2 96/48/2 73/25/2
