# SSTK version 0.8.0
# 168
mtllib original-168.mtl
o #ID853
v 0.093322 0.373748 0.043143
v 0.08922 0.373187 0.042672
v 0.094276 0.373187 0.042672
v 0.084575 0.377825 0.046564
v 0.087806 0.379254 0.047763
v 0.080735 0.384926 0.052523
v 0.084339 0.385666 0.053144
v 0.079425 0.392547 0.058918
v 0.083156 0.392547 0.058918
v 0.084339 0.399428 0.064692
v 0.080735 0.400168 0.065313
v 0.087806 0.405841 0.070072
v 0.084575 0.40727 0.071272
v 0.093322 0.411347 0.074693
v 0.08922 0.411908 0.075163
v 0.094276 0.411908 0.075163
v 0.094276 0.411908 0.075163
v 0.093322 0.411347 0.074693
v 0.08922 0.411908 0.075163
v 0.084575 0.40727 0.071272
v 0.087806 0.405841 0.070072
v 0.080735 0.400168 0.065313
v 0.084339 0.399428 0.064692
v 0.079425 0.392547 0.058918
v 0.083156 0.392547 0.058918
v 0.084339 0.385666 0.053144
v 0.080735 0.384926 0.052523
v 0.087806 0.379254 0.047763
v 0.084575 0.377825 0.046564
v 0.093322 0.373748 0.043143
v 0.08922 0.373187 0.042672
v 0.094276 0.373187 0.042672
vn 0.0 -0.6427875875138863 0.7660444617240425
vn 0.0 0.6427875875138863 -0.7660444617240425
usemtl material_0_0
f 17//2 18//2 19//2
f 19//2 18//2 20//2
f 18//2 21//2 20//2
f 20//2 21//2 22//2
f 21//2 23//2 22//2
f 22//2 23//2 24//2
f 23//2 25//2 24//2
f 25//2 26//2 24//2
f 24//2 26//2 27//2
f 26//2 28//2 27//2
f 27//2 28//2 29//2
f 28//2 30//2 29//2
f 29//2 30//2 31//2
f 32//2 31//2 30//2
usemtl material_1_0
f 1//1 2//1 3//1
f 2//1 1//1 4//1
f 4//1 1//1 5//1
f 4//1 5//1 6//1
f 6//1 5//1 7//1
f 6//1 7//1 8//1
f 8//1 7//1 9//1
f 8//1 9//1 10//1
f 8//1 10//1 11//1
f 11//1 10//1 12//1
f 11//1 12//1 13//1
f 13//1 12//1 14//1
f 13//1 14//1 15//1
f 15//1 14//1 16//1
