# SSTK version 0.8.0
# 326
mtllib original-326.mtl
o #ID1805
v -0.125831 -0.313466 -0.18327
v -0.129758 -0.313466 -0.178866
v -0.130567 -0.313466 -0.182001
v -0.124991 -0.313466 -0.180143
v -0.131837 -0.313466 -0.186737
v -0.133723 -0.313466 -0.181156
v -0.134993 -0.313466 -0.185892
v -0.132878 -0.313466 -0.178
v -0.131609 -0.313466 -0.173264
v -0.128481 -0.313466 -0.1741
v -0.137614 -0.313466 -0.176731
v -0.13846 -0.313466 -0.179887
v -0.132878 -0.313466 -0.178
v -0.133723 -0.313466 -0.181156
v -0.137614 -0.313466 -0.176731
v -0.13846 -0.313466 -0.179887
v -0.128481 -0.313466 -0.1741
v -0.129758 -0.313466 -0.178866
v -0.131609 -0.313466 -0.173264
v -0.130567 -0.313466 -0.182001
v -0.131837 -0.313466 -0.186737
v -0.134993 -0.313466 -0.185892
v -0.124991 -0.313466 -0.180143
v -0.125831 -0.313466 -0.18327
vt 0.7137783 0.7566509
vt 0.7131807 0.7539559
vt 0.7104313 0.7577346
vt 0.7098336 0.7550395
vt 0.7168859 0.7599813
vt 0.7159833 0.7559111
vt 0.7146751 0.7606952
vt 0.7154111 0.7532337
vt 0.7145142 0.7491894
vt 0.7122838 0.7499115
vt 0.7193517 0.7548204
vt 0.7187581 0.7521501
vn 0.0 -1.0 0.0
vn 0.0 1.0 0.0
usemtl material_0_0
f 1//1 2//1 3//1
f 2//1 1//1 4//1
f 5//1 6//1 7//1
f 6//1 5//1 8//1
f 8//1 5//1 9//1
f 9//1 5//1 3//1
f 9//1 3//1 2//1
f 9//1 2//1 10//1
f 6//1 11//1 12//1
f 11//1 6//1 8//1
usemtl material_1_0
f 13/1/2 14/2/2 15/3/2
f 16/4/2 15/3/2 14/2/2
f 17/5/2 18/6/2 19/7/2
f 18/6/2 20/8/2 19/7/2
f 20/8/2 21/9/2 19/7/2
f 19/7/2 21/9/2 13/1/2
f 13/1/2 21/9/2 14/2/2
f 22/10/2 14/2/2 21/9/2
f 23/11/2 24/12/2 18/6/2
f 20/8/2 18/6/2 24/12/2
