# SSTK version 0.8.0
# 814
mtllib original-814.mtl
o #ID4955
v -0.564771 -0.298145 0.720154
v -0.565258 -0.258872 0.722605
v -0.565258 -0.298145 0.722605
v -0.564771 -0.258872 0.720154
v -0.564771 -0.258872 0.720154
v -0.564771 -0.298145 0.720154
v -0.565258 -0.258872 0.722605
v -0.565258 -0.298145 0.722605
v -0.413547 -0.298145 0.799946
v -0.521113 -0.298145 0.799946
v -0.46733 -0.298145 0.807027
v -0.565447 -0.298145 0.781582
v -0.369213 -0.298145 0.781582
v -0.565447 -0.298145 0.72548
v -0.369213 -0.298145 0.724062
v -0.565258 -0.298145 0.722605
v -0.36939 -0.298145 0.721372
v -0.564771 -0.298145 0.720154
v -0.369841 -0.298145 0.719103
v -0.563968 -0.298145 0.717788
v -0.370585 -0.298145 0.716913
v -0.562863 -0.298145 0.715547
v -0.371608 -0.298145 0.714838
v -0.561475 -0.298145 0.71347
v -0.372893 -0.298145 0.712915
v -0.559827 -0.298145 0.711591
v -0.374418 -0.298145 0.711176
v -0.557949 -0.298145 0.709944
v -0.376157 -0.298145 0.709651
v -0.555871 -0.298145 0.708555
v -0.378081 -0.298145 0.708366
v -0.55363 -0.298145 0.70745
v -0.380155 -0.298145 0.707342
v -0.551264 -0.298145 0.706647
v -0.382346 -0.298145 0.706599
v -0.548813 -0.298145 0.70616
v -0.384614 -0.298145 0.706148
v -0.545938 -0.298145 0.705971
v -0.387305 -0.298145 0.705971
v -0.387305 -0.298145 0.705971
v -0.384614 -0.298145 0.706148
v -0.545938 -0.298145 0.705971
v -0.548813 -0.298145 0.70616
v -0.382346 -0.298145 0.706599
v -0.551264 -0.298145 0.706647
v -0.380155 -0.298145 0.707342
v -0.55363 -0.298145 0.70745
v -0.378081 -0.298145 0.708366
v -0.555871 -0.298145 0.708555
v -0.376157 -0.298145 0.709651
v -0.557949 -0.298145 0.709944
v -0.374418 -0.298145 0.711176
v -0.559827 -0.298145 0.711591
v -0.372893 -0.298145 0.712915
v -0.561475 -0.298145 0.71347
v -0.371608 -0.298145 0.714838
v -0.562863 -0.298145 0.715547
v -0.370585 -0.298145 0.716913
v -0.563968 -0.298145 0.717788
v -0.369841 -0.298145 0.719103
v -0.564771 -0.298145 0.720154
v -0.36939 -0.298145 0.721372
v -0.565258 -0.298145 0.722605
v -0.369213 -0.298145 0.724062
v -0.565447 -0.298145 0.72548
v -0.369213 -0.298145 0.781582
v -0.565447 -0.298145 0.781582
v -0.413547 -0.298145 0.799946
v -0.521113 -0.298145 0.799946
v -0.46733 -0.298145 0.807027
v -0.563968 -0.298145 0.717788
v -0.563968 -0.258872 0.717788
v -0.563968 -0.258872 0.717788
v -0.563968 -0.298145 0.717788
v -0.565447 -0.258872 0.72548
v -0.565447 -0.298145 0.72548
v -0.565447 -0.258872 0.72548
v -0.565447 -0.298145 0.72548
v -0.565447 -0.298145 0.781582
v -0.521113 -0.258872 0.799946
v -0.521113 -0.298145 0.799946
v -0.565447 -0.258872 0.781582
v -0.565447 -0.258872 0.781582
v -0.565447 -0.298145 0.781582
v -0.521113 -0.258872 0.799946
v -0.521113 -0.298145 0.799946
v -0.46733 -0.258872 0.807027
v -0.46733 -0.298145 0.807027
v -0.46733 -0.258872 0.807027
v -0.46733 -0.298145 0.807027
v -0.413547 -0.258872 0.799946
v -0.413547 -0.298145 0.799946
v -0.413547 -0.258872 0.799946
v -0.413547 -0.298145 0.799946
v -0.369213 -0.258872 0.781582
v -0.369213 -0.298145 0.781582
v -0.369213 -0.258872 0.781582
v -0.369213 -0.298145 0.781582
v -0.369213 -0.258872 0.781582
v -0.369213 -0.298145 0.724062
v -0.369213 -0.298145 0.781582
v -0.369213 -0.258872 0.724062
v -0.369213 -0.258872 0.724062
v -0.369213 -0.258872 0.781582
v -0.369213 -0.298145 0.724062
v -0.369213 -0.298145 0.781582
v -0.36939 -0.298145 0.721372
v -0.36939 -0.258872 0.721372
v -0.36939 -0.258872 0.721372
v -0.36939 -0.298145 0.721372
v -0.369841 -0.298145 0.719103
v -0.369841 -0.258872 0.719103
v -0.369841 -0.258872 0.719103
v -0.369841 -0.298145 0.719103
v -0.370585 -0.298145 0.716913
v -0.370585 -0.258872 0.716913
v -0.370585 -0.258872 0.716913
v -0.370585 -0.298145 0.716913
v -0.371608 -0.298145 0.714838
v -0.371608 -0.258872 0.714838
v -0.371608 -0.258872 0.714838
v -0.371608 -0.298145 0.714838
v -0.372893 -0.298145 0.712915
v -0.372893 -0.258872 0.712915
v -0.372893 -0.258872 0.712915
v -0.372893 -0.298145 0.712915
v -0.374418 -0.298145 0.711176
v -0.374418 -0.258872 0.711176
v -0.374418 -0.258872 0.711176
v -0.374418 -0.298145 0.711176
v -0.376157 -0.258872 0.709651
v -0.376157 -0.298145 0.709651
v -0.376157 -0.298145 0.709651
v -0.376157 -0.258872 0.709651
v -0.378081 -0.258872 0.708366
v -0.378081 -0.298145 0.708366
v -0.378081 -0.298145 0.708366
v -0.378081 -0.258872 0.708366
v -0.380155 -0.258872 0.707342
v -0.380155 -0.298145 0.707342
v -0.380155 -0.298145 0.707342
v -0.380155 -0.258872 0.707342
v -0.382346 -0.258872 0.706599
v -0.382346 -0.298145 0.706599
v -0.382346 -0.298145 0.706599
v -0.382346 -0.258872 0.706599
v -0.384614 -0.258872 0.706148
v -0.384614 -0.298145 0.706148
v -0.384614 -0.298145 0.706148
v -0.384614 -0.258872 0.706148
v -0.387305 -0.258872 0.705971
v -0.387305 -0.298145 0.705971
v -0.387305 -0.298145 0.705971
v -0.387305 -0.258872 0.705971
v -0.545938 -0.258872 0.705971
v -0.545938 -0.298145 0.705971
v -0.545938 -0.298145 0.705971
v -0.545938 -0.258872 0.705971
v -0.548813 -0.258872 0.70616
v -0.548813 -0.298145 0.70616
v -0.548813 -0.298145 0.70616
v -0.548813 -0.258872 0.70616
v -0.551264 -0.258872 0.706647
v -0.551264 -0.298145 0.706647
v -0.551264 -0.298145 0.706647
v -0.551264 -0.258872 0.706647
v -0.55363 -0.258872 0.70745
v -0.55363 -0.298145 0.70745
v -0.55363 -0.298145 0.70745
v -0.55363 -0.258872 0.70745
v -0.555871 -0.258872 0.708555
v -0.555871 -0.298145 0.708555
v -0.555871 -0.298145 0.708555
v -0.555871 -0.258872 0.708555
v -0.557949 -0.258872 0.709944
v -0.557949 -0.298145 0.709944
v -0.557949 -0.298145 0.709944
v -0.557949 -0.258872 0.709944
v -0.559827 -0.258872 0.711591
v -0.559827 -0.298145 0.711591
v -0.559827 -0.298145 0.711591
v -0.559827 -0.258872 0.711591
v -0.561475 -0.258872 0.71347
v -0.561475 -0.298145 0.71347
v -0.561475 -0.258872 0.71347
v -0.561475 -0.298145 0.71347
v -0.562863 -0.258872 0.715547
v -0.562863 -0.298145 0.715547
v -0.562863 -0.258872 0.715547
v -0.562863 -0.298145 0.715547
v -0.565447 -0.258872 0.781582
v -0.565447 -0.298145 0.781582
v -0.565447 -0.258872 0.781582
v -0.565447 -0.298145 0.781582
vn 0.9659258358036645 -1.3619338472934368e-09 0.25881900959356163
vn 0.9914448610250888 0.0 0.1305261948688555
vn -0.9659258358036645 1.3619338472934368e-09 -0.25881900959356163
vn -0.9914448610250888 0.0 -0.1305261948688555
vn 0.0 1.0 1.6502303273224296e-09
vn 0.0 -1.0 -1.6502303273224296e-09
vn 0.9238795391929063 -2.0137214161667864e-09 0.3826834162342326
vn -0.9238795391929063 2.0137214161667864e-09 -0.3826834162342326
vn 0.9994645875820491 0.0 0.03271907959347842
vn -0.9994645875820491 0.0 -0.03271907959347842
vn 0.3826834162342326 4.861557366725581e-09 -0.9238795391929063
vn 0.2588190095935616 5.082809300147198e-09 -0.9659258358036644
vn -0.3826834162342326 -4.861557366725581e-09 0.9238795391929063
vn -0.2588190095935616 -5.082809300147198e-09 0.9659258358036644
vn 0.0 5.262110693036714e-09 -1.0
vn 0.0 -5.262110693036714e-09 1.0
vn -0.2588190095935616 5.082809300147198e-09 -0.9659258358036644
vn 0.2588190095935616 -5.082809300147198e-09 0.9659258358036644
vn -0.3826834162342326 4.861555581011219e-09 -0.9238795391929063
vn 0.3826834162342326 -4.861555581011219e-09 0.9238795391929063
vn -1.0 0.0 0.0
vn -0.9994645875820491 0.0 0.03271907959347842
vn 0.9994645875820491 0.0 -0.03271907959347842
vn 1.0 0.0 0.0
vn -0.9914448610250888 0.0 0.1305261948688555
vn 0.9914448610250888 0.0 -0.1305261948688555
vn -0.9659258358036645 -1.3619352758649183e-09 0.25881900959356163
vn 0.9659258358036645 1.3619352758649183e-09 -0.25881900959356163
vn -0.9238795391929063 -2.013723201881148e-09 0.3826834162342326
vn 0.9238795391929063 2.013723201881148e-09 -0.3826834162342326
vn -0.8660254028383291 -2.631055355141431e-09 0.5000000016387101
vn 0.8660254028383291 2.631055355141431e-09 -0.5000000016387101
vn -0.7933533393698232 -3.20337126709537e-09 0.608761430209528
vn 0.7933533393698232 3.20337126709537e-09 -0.608761430209528
vn -0.7071067811865475 -3.720873787363371e-09 0.7071067811865475
vn 0.7071067811865475 3.720873787363371e-09 -0.7071067811865475
vn -0.608761430209528 -4.1747138102850834e-09 0.7933533393698232
vn 0.608761430209528 4.1747138102850834e-09 -0.7933533393698232
vn -0.5000000016387101 -4.557122347712717e-09 0.8660254028383291
vn 0.5000000016387101 4.557122347712717e-09 -0.8660254028383291
vn -0.1305261948688555 -5.2170922337842905e-09 0.9914448610250888
vn 0.1305261948688555 5.2170922337842905e-09 -0.9914448610250888
vn -0.03271907959347842 -5.259292745702752e-09 0.9994645875820491
vn 0.03271907959347842 5.259292745702752e-09 -0.9994645875820491
vn 0.03271907959347842 -5.259292745702752e-09 0.9994645875820491
vn -0.03271907959347842 5.259292745702752e-09 -0.9994645875820491
vn 0.1305261948688555 -5.2170922337842905e-09 0.9914448610250888
vn -0.1305261948688555 5.2170922337842905e-09 -0.9914448610250888
vn 0.5000000016387101 -4.5571205619984254e-09 0.8660254028383291
vn -0.5000000016387101 4.5571205619984254e-09 -0.8660254028383291
vn 0.608761430209528 -4.174712024570708e-09 0.7933533393698232
vn -0.608761430209528 4.174712024570708e-09 -0.7933533393698232
vn 0.7071067811865475 -3.720873787363371e-09 0.7071067811865475
vn -0.7071067811865475 3.720873787363371e-09 -0.7071067811865475
vn 0.7933533393698232 -3.2033694813809963e-09 0.608761430209528
vn -0.7933533393698232 3.2033694813809963e-09 -0.608761430209528
vn 0.8660254028383291 -2.631055355141431e-09 0.5000000016387101
vn -0.8660254028383291 2.631055355141431e-09 -0.5000000016387101
usemtl material_0_0
f 1//1 2//2 3//2
f 2//2 1//1 4//1
f 5//3 6//3 7//4
f 8//4 7//4 6//3
f 9//5 10//5 11//5
f 10//5 9//5 12//5
f 12//5 9//5 13//5
f 12//5 13//5 14//5
f 14//5 13//5 15//5
f 14//5 15//5 16//5
f 16//5 15//5 17//5
f 16//5 17//5 18//5
f 18//5 17//5 19//5
f 18//5 19//5 20//5
f 20//5 19//5 21//5
f 20//5 21//5 22//5
f 22//5 21//5 23//5
f 22//5 23//5 24//5
f 24//5 23//5 25//5
f 24//5 25//5 26//5
f 26//5 25//5 27//5
f 26//5 27//5 28//5
f 28//5 27//5 29//5
f 28//5 29//5 30//5
f 30//5 29//5 31//5
f 30//5 31//5 32//5
f 32//5 31//5 33//5
f 32//5 33//5 34//5
f 34//5 33//5 35//5
f 34//5 35//5 36//5
f 36//5 35//5 37//5
f 36//5 37//5 38//5
f 38//5 37//5 39//5
f 40//6 41//6 42//6
f 42//6 41//6 43//6
f 41//6 44//6 43//6
f 43//6 44//6 45//6
f 44//6 46//6 45//6
f 45//6 46//6 47//6
f 46//6 48//6 47//6
f 47//6 48//6 49//6
f 48//6 50//6 49//6
f 49//6 50//6 51//6
f 50//6 52//6 51//6
f 51//6 52//6 53//6
f 52//6 54//6 53//6
f 53//6 54//6 55//6
f 54//6 56//6 55//6
f 55//6 56//6 57//6
f 56//6 58//6 57//6
f 57//6 58//6 59//6
f 58//6 60//6 59//6
f 59//6 60//6 61//6
f 60//6 62//6 61//6
f 61//6 62//6 63//6
f 62//6 64//6 63//6
f 63//6 64//6 65//6
f 64//6 66//6 65//6
f 65//6 66//6 67//6
f 66//6 68//6 67//6
f 67//6 68//6 69//6
f 70//6 69//6 68//6
f 71//7 4//1 1//1
f 4//1 71//7 72//7
f 73//8 74//8 5//3
f 6//3 5//3 74//8
f 3//2 75//9 76//9
f 75//9 3//2 2//2
f 7//4 8//4 77//10
f 78//10 77//10 8//4
f 79//11 80//12 81//12
f 80//12 79//11 82//11
f 83//13 84//13 85//14
f 86//14 85//14 84//13
f 81//12 87//15 88//15
f 87//15 81//12 80//12
f 85//14 86//14 89//16
f 90//16 89//16 86//14
f 88//15 91//17 92//17
f 91//17 88//15 87//15
f 89//16 90//16 93//18
f 94//18 93//18 90//16
f 92//17 95//19 96//19
f 95//19 92//17 91//17
f 93//18 94//18 97//20
f 98//20 97//20 94//18
f 99//21 100//22 101//21
f 100//22 99//21 102//22
f 103//23 104//24 105//23
f 106//24 105//23 104//24
f 102//22 107//25 100//22
f 107//25 102//22 108//25
f 109//26 103//23 110//26
f 105//23 110//26 103//23
f 108//25 111//27 107//25
f 111//27 108//25 112//27
f 113//28 109//26 114//28
f 110//26 114//28 109//26
f 112//27 115//29 111//27
f 115//29 112//27 116//29
f 117//30 113//28 118//30
f 114//28 118//30 113//28
f 116//29 119//31 115//29
f 119//31 116//29 120//31
f 121//32 117//30 122//32
f 118//30 122//32 117//30
f 120//31 123//33 119//31
f 123//33 120//31 124//33
f 125//34 121//32 126//34
f 122//32 126//34 121//32
f 124//33 127//35 123//33
f 127//35 124//33 128//35
f 129//36 125//34 130//36
f 126//34 130//36 125//34
f 131//37 127//35 128//35
f 127//35 131//37 132//37
f 133//38 134//38 130//36
f 129//36 130//36 134//38
f 135//39 132//37 131//37
f 132//37 135//39 136//39
f 137//40 138//40 133//38
f 134//38 133//38 138//40
f 139//13 136//39 135//39
f 136//39 139//13 140//13
f 141//11 142//11 137//40
f 138//40 137//40 142//11
f 143//14 140//13 139//13
f 140//13 143//14 144//14
f 145//12 146//12 141//11
f 142//11 141//11 146//12
f 147//41 144//14 143//14
f 144//14 147//41 148//41
f 149//42 150//42 145//12
f 146//12 145//12 150//42
f 151//43 148//41 147//41
f 148//41 151//43 152//43
f 153//44 154//44 149//42
f 150//42 149//42 154//44
f 155//45 152//43 151//43
f 152//43 155//45 156//45
f 157//46 158//46 153//44
f 154//44 153//44 158//46
f 159//47 156//45 155//45
f 156//45 159//47 160//47
f 161//48 162//48 157//46
f 158//46 157//46 162//48
f 163//18 160//47 159//47
f 160//47 163//18 164//18
f 165//17 166//17 161//48
f 162//48 161//48 166//17
f 167//20 164//18 163//18
f 164//18 167//20 168//20
f 169//19 170//19 165//17
f 166//17 165//17 170//19
f 171//49 168//20 167//20
f 168//20 171//49 172//49
f 173//50 174//50 169//19
f 170//19 169//19 174//50
f 175//51 172//49 171//49
f 172//49 175//51 176//51
f 177//52 178//52 173//50
f 174//50 173//50 178//52
f 179//53 176//51 175//51
f 176//51 179//53 180//53
f 181//54 182//54 177//52
f 178//52 177//52 182//54
f 180//53 183//55 184//55
f 183//55 180//53 179//53
f 182//54 181//54 185//56
f 186//56 185//56 181//54
f 184//55 187//57 188//57
f 187//57 184//55 183//55
f 185//56 186//56 189//58
f 190//58 189//58 186//56
f 188//57 72//7 71//7
f 72//7 188//57 187//57
f 189//58 190//58 73//8
f 74//8 73//8 190//58
f 76//9 191//24 192//24
f 191//24 76//9 75//9
f 77//10 78//10 193//21
f 194//21 193//21 78//10
