# SSTK version 0.8.0
# 498
mtllib original-498.mtl
o #ID3308
v 0.330575 0.241064 -0.4466
v 0.333158 0.240917 -0.446549
v 0.333158 0.240797 -0.446604
v 0.330575 0.241119 -0.446575
v 0.330575 0.241119 -0.446575
v 0.330575 0.241064 -0.4466
v 0.333158 0.240917 -0.446549
v 0.333158 0.240797 -0.446604
v 0.330575 0.240132 -0.446804
v 0.333158 0.239885 -0.446804
v 0.330575 0.240132 -0.446804
v 0.333158 0.239885 -0.446804
vn 0.03172253115901789 0.32295731179960363 -0.9458817345588393
vn 0.04333335961639708 0.4422118960853766 -0.8958631920694878
vn 0.031062369018543666 0.31660698999638626 -0.9480480700451765
vn 0.043412037834615815 0.44328787788888485 -0.8953274553412371
vn 0.021132770142270323 0.22167270149234777 -0.9748921065631819
vn 0.021182650215348733 0.22219590225890531 -0.9747719099098031
vn -0.043412037834615815 -0.44328787788888485 0.8953274553412371
vn -0.03172253115901789 -0.32295731179960363 0.9458817345588393
vn -0.04333335961639708 -0.4422118960853766 0.8958631920694878
vn -0.031062369018543666 -0.31660698999638626 0.9480480700451765
vn -0.021132770142270323 -0.22167270149234777 0.9748921065631819
vn -0.021182650215348733 -0.22219590225890531 0.9747719099098031
usemtl material_0_0
f 5//7 6//8 7//9
f 8//10 7//9 6//8
f 6//8 11//11 8//10
f 12//12 8//10 11//11
usemtl material_1_0
f 1//1 2//2 3//3
f 2//2 1//1 4//4
f 9//5 3//3 10//6
f 3//3 9//5 1//1
