# SSTK version 0.8.0
# 209
mtllib original-209.mtl
o #ID1248
v -0.329445 0.306965 -0.051049
v -0.323105 0.306894 -0.049701
v -0.323112 0.306771 -0.051049
v -0.329434 0.307164 -0.048874
v -0.329434 0.307164 -0.048874
v -0.329445 0.306965 -0.051049
v -0.323105 0.306894 -0.049701
v -0.323112 0.306771 -0.051049
v -0.318936 0.306247 -0.052738
v -0.316353 0.306379 -0.048817
v -0.316373 0.306052 -0.052402
v -0.318927 0.306401 -0.051049
v -0.318927 0.306401 -0.051049
v -0.316353 0.306379 -0.048817
v -0.318936 0.306247 -0.052738
v -0.316373 0.306052 -0.052402
v -0.323103 0.30693 -0.048757
v -0.329433 0.307168 -0.048757
v -0.329433 0.307168 -0.048757
v -0.323103 0.30693 -0.048757
v -0.316353 0.306382 -0.048757
v -0.316353 0.306382 -0.048757
v -0.318967 0.30573 -0.056301
v -0.316403 0.305535 -0.055966
v -0.318967 0.30573 -0.056301
v -0.316403 0.305535 -0.055966
v -0.319008 0.305027 -0.059832
v -0.316445 0.304831 -0.059497
v -0.319003 0.305121 -0.059357
v -0.323185 0.30555 -0.059357
v -0.318976 0.305578 -0.057065
v -0.323158 0.306007 -0.057065
v -0.318976 0.305578 -0.057065
v -0.319003 0.305121 -0.059357
v -0.323158 0.306007 -0.057065
v -0.323185 0.30555 -0.059357
v -0.319008 0.305027 -0.059832
v -0.316445 0.304831 -0.059497
v -0.316498 0.303942 -0.062985
v -0.319061 0.304137 -0.063321
v -0.319061 0.304137 -0.063321
v -0.316498 0.303942 -0.062985
v -0.328104 0.305631 -0.059357
v -0.328077 0.306088 -0.057065
v -0.328077 0.306088 -0.057065
v -0.328104 0.305631 -0.059357
v -0.319125 0.303066 -0.066758
v -0.316562 0.30287 -0.066422
v -0.319125 0.303066 -0.066758
v -0.316562 0.30287 -0.066422
v -0.319156 0.302538 -0.068181
v -0.3166 0.302218 -0.068181
v -0.319156 0.302538 -0.068181
v -0.3166 0.302218 -0.068181
vn 0.03053079162582509 0.9953691050269524 -0.09114941316620785
vn 0.059173162035494865 0.9959979791154123 -0.06698180717729013
vn 0.0590592716933229 0.9940809858914866 -0.09118659943250713
vn 0.034056985529838685 0.9973167707309029 -0.06480262768981071
vn 0.09074695245785666 0.9889273183168299 -0.11742124895560771
vn 0.08426880923208256 0.9943336397985852 -0.06480262768981071
vn 0.08753958690503713 0.9919821597206029 -0.09114941316620787
vn 0.05926256787389525 0.99750285110981 -0.038418876568586766
vn 0.0375589916025382 0.9985559618358557 -0.038409806454461466
vn 0.08093816306730842 0.9959787650986444 -0.03840980645446147
vn 0.09696476011042086 0.9807166536575666 -0.16968406093511937
vn 0.10290447202964444 0.9697295735687461 -0.22143898433310671
vn 0.09997086418581475 0.9755673270015481 -0.1956379738215354
vn 0.0581582880267827 0.9789157001389913 -0.19581027949314186
vn 0.058158288026841386 0.9789157001389878 -0.19581027949314186
vn 0.10854925187762368 0.9560026281349031 -0.2725363001802998
vn 0.01624338135966851 0.9805416542712547 -0.19563797382153542
vn 0.1138832867299122 0.939580698394004 -0.322829224527502
vn 0.11642959746982556 0.9303736282868551 -0.347633514813182
vn -0.034056985529838685 -0.9973167707309029 0.06480262768981071
vn -0.03053079162582509 -0.9953691050269524 0.09114941316620785
vn -0.059173162035494865 -0.9959979791154123 0.06698180717729013
vn -0.0590592716933229 -0.9940809858914866 0.09118659943250713
vn -0.08753958690503713 -0.9919821597206029 0.09114941316620787
vn -0.08426880923208256 -0.9943336397985852 0.06480262768981071
vn -0.09074695245785666 -0.9889273183168299 0.11742124895560771
vn -0.0375589916025382 -0.9985559618358557 0.038409806454461466
vn -0.05926256787389525 -0.99750285110981 0.038418876568586766
vn -0.08093816306730842 -0.9959787650986444 0.03840980645446147
vn -0.09696476011042086 -0.9807166536575666 0.16968406093511937
vn -0.09997086418581475 -0.9755673270015481 0.1956379738215354
vn -0.058158288026841386 -0.9789157001389878 0.19581027949314186
vn -0.0581582880267827 -0.9789157001389913 0.19581027949314186
vn -0.10290447202964444 -0.9697295735687461 0.22143898433310671
vn -0.10854925187762368 -0.9560026281349031 0.2725363001802998
vn -0.01624338135966851 -0.9805416542712547 0.19563797382153542
vn -0.1138832867299122 -0.939580698394004 0.322829224527502
vn -0.11642959746982556 -0.9303736282868551 0.347633514813182
usemtl material_0_0
f 1//1 2//2 3//3
f 2//2 1//1 4//4
f 9//5 10//6 11//5
f 10//6 9//5 12//7
f 10//6 12//7 2//2
f 2//2 12//7 3//3
f 4//4 17//8 2//2
f 17//8 4//4 18//9
f 2//2 21//10 10//6
f 21//10 2//2 17//8
f 23//11 11//5 24//11
f 11//5 23//11 9//5
f 27//12 24//11 28//12
f 24//11 27//12 29//13
f 30//14 31//13 29//13
f 31//13 30//14 32//15
f 29//13 23//11 24//11
f 23//11 29//13 31//13
f 39//16 27//12 28//12
f 27//12 39//16 40//16
f 43//17 32//15 30//14
f 32//15 43//17 44//17
f 47//18 39//16 48//18
f 39//16 47//18 40//16
f 51//19 48//18 52//19
f 48//18 51//19 47//18
usemtl material_1_0
f 5//20 6//21 7//22
f 8//23 7//22 6//21
f 8//23 13//24 7//22
f 7//22 13//24 14//25
f 13//24 15//26 14//25
f 16//26 14//25 15//26
f 19//27 5//20 20//28
f 7//22 20//28 5//20
f 20//28 7//22 22//29
f 14//25 22//29 7//22
f 15//26 25//30 16//26
f 26//30 16//26 25//30
f 33//31 34//31 25//30
f 26//30 25//30 34//31
f 35//32 36//33 33//31
f 34//31 33//31 36//33
f 34//31 37//34 26//30
f 38//34 26//30 37//34
f 41//35 42//35 37//34
f 38//34 37//34 42//35
f 45//36 46//36 35//32
f 36//33 35//32 46//36
f 41//35 49//37 42//35
f 50//37 42//35 49//37
f 49//37 53//38 50//37
f 54//38 50//37 53//38
