# SSTK version 0.8.0
# 429
mtllib original-429.mtl
o #ID2424
v -0.468804 0.063566 -0.362549
v -0.469526 0.062639 -0.363757
v -0.468717 0.062639 -0.363757
v -0.469526 0.063566 -0.362549
v -0.469526 0.063566 -0.362549
v -0.468804 0.063566 -0.362549
v -0.469526 0.062639 -0.363757
v -0.468717 0.062639 -0.363757
v -0.469526 0.062056 -0.365164
v -0.468616 0.062056 -0.365164
v -0.469526 0.062056 -0.365164
v -0.468616 0.062056 -0.365164
v -0.469526 0.064775 -0.361622
v -0.46887 0.064775 -0.361622
v -0.46887 0.064775 -0.361622
v -0.469526 0.064775 -0.361622
v -0.469526 0.066182 -0.37231
v -0.469526 0.069202 -0.37231
v -0.469526 0.067692 -0.372509
v -0.469526 0.064775 -0.371727
v -0.469526 0.070609 -0.371727
v -0.469526 0.063566 -0.3708
v -0.469526 0.071817 -0.3708
v -0.469526 0.062639 -0.369592
v -0.469526 0.072745 -0.369592
v -0.469526 0.062056 -0.368185
v -0.469526 0.073328 -0.368185
v -0.469526 0.061857 -0.366674
v -0.469526 0.073526 -0.366674
v -0.469526 0.062056 -0.365164
v -0.469526 0.073328 -0.365164
v -0.469526 0.062639 -0.363757
v -0.469526 0.072745 -0.363757
v -0.469526 0.063566 -0.362549
v -0.469526 0.071817 -0.362549
v -0.469526 0.064775 -0.361622
v -0.469526 0.070609 -0.361622
v -0.469526 0.066182 -0.361039
v -0.469526 0.069202 -0.361039
v -0.469526 0.067692 -0.36084
v -0.469526 0.067692 -0.36084
v -0.469526 0.066182 -0.361039
v -0.469526 0.069202 -0.361039
v -0.469526 0.070609 -0.361622
v -0.469526 0.064775 -0.361622
v -0.469526 0.071817 -0.362549
v -0.469526 0.063566 -0.362549
v -0.469526 0.072745 -0.363757
v -0.469526 0.062639 -0.363757
v -0.469526 0.073328 -0.365164
v -0.469526 0.062056 -0.365164
v -0.469526 0.073526 -0.366674
v -0.469526 0.061857 -0.366674
v -0.469526 0.073328 -0.368185
v -0.469526 0.062056 -0.368185
v -0.469526 0.072745 -0.369592
v -0.469526 0.062639 -0.369592
v -0.469526 0.071817 -0.3708
v -0.469526 0.063566 -0.3708
v -0.469526 0.070609 -0.371727
v -0.469526 0.064775 -0.371727
v -0.469526 0.069202 -0.37231
v -0.469526 0.066182 -0.37231
v -0.469526 0.067692 -0.372509
v -0.469526 0.061857 -0.366674
v -0.468508 0.061857 -0.366674
v -0.469526 0.061857 -0.366674
v -0.468508 0.061857 -0.366674
v -0.468912 0.066182 -0.361039
v -0.469526 0.066182 -0.361039
v -0.469526 0.066182 -0.361039
v -0.468912 0.066182 -0.361039
v -0.469526 0.063566 -0.3708
v -0.468146 0.064775 -0.371727
v -0.468212 0.063566 -0.3708
v -0.469526 0.064775 -0.371727
v -0.469526 0.064775 -0.371727
v -0.469526 0.063566 -0.3708
v -0.468146 0.064775 -0.371727
v -0.468212 0.063566 -0.3708
v -0.468299 0.062639 -0.369592
v -0.469526 0.062639 -0.369592
v -0.469526 0.062639 -0.369592
v -0.468299 0.062639 -0.369592
v -0.4684 0.062056 -0.368185
v -0.469526 0.062056 -0.368185
v -0.469526 0.062056 -0.368185
v -0.4684 0.062056 -0.368185
v -0.468926 0.067692 -0.36084
v -0.469526 0.067692 -0.36084
v -0.469526 0.067692 -0.36084
v -0.468926 0.067692 -0.36084
v -0.468912 0.069202 -0.361039
v -0.469526 0.069202 -0.361039
v -0.469526 0.069202 -0.361039
v -0.468912 0.069202 -0.361039
v -0.46887 0.070609 -0.361622
v -0.469526 0.070609 -0.361622
v -0.469526 0.070609 -0.361622
v -0.46887 0.070609 -0.361622
v -0.468804 0.071817 -0.362549
v -0.469526 0.071817 -0.362549
v -0.469526 0.071817 -0.362549
v -0.468804 0.071817 -0.362549
v -0.469526 0.072745 -0.363757
v -0.468717 0.072745 -0.363757
v -0.469526 0.072745 -0.363757
v -0.468717 0.072745 -0.363757
v -0.469526 0.073328 -0.365164
v -0.468616 0.073328 -0.365164
v -0.469526 0.073328 -0.365164
v -0.468616 0.073328 -0.365164
v -0.469526 0.073526 -0.366674
v -0.468508 0.073526 -0.366674
v -0.469526 0.073526 -0.366674
v -0.468508 0.073526 -0.366674
v -0.469526 0.073328 -0.368185
v -0.4684 0.073328 -0.368185
v -0.469526 0.073328 -0.368185
v -0.4684 0.073328 -0.368185
v -0.469526 0.072745 -0.369592
v -0.468299 0.072745 -0.369592
v -0.469526 0.072745 -0.369592
v -0.468299 0.072745 -0.369592
v -0.469526 0.071817 -0.3708
v -0.468212 0.071817 -0.3708
v -0.469526 0.071817 -0.3708
v -0.468212 0.071817 -0.3708
v -0.469526 0.070609 -0.371727
v -0.468146 0.070609 -0.371727
v -0.469526 0.070609 -0.371727
v -0.468146 0.070609 -0.371727
v -0.468104 0.069202 -0.37231
v -0.469526 0.069202 -0.37231
v -0.468104 0.069202 -0.37231
v -0.469526 0.069202 -0.37231
v -0.468089 0.067692 -0.372509
v -0.469526 0.067692 -0.372509
v -0.468089 0.067692 -0.372509
v -0.469526 0.067692 -0.372509
v -0.468104 0.066182 -0.37231
v -0.469526 0.066182 -0.37231
v -0.468104 0.066182 -0.37231
v -0.469526 0.066182 -0.37231
vn 0.0 -0.7100644693084793 0.7041366695647001
vn 0.0 -0.8660254028383287 0.5000000016387102
vn 0.0 -0.868582895222959 0.4955438972746029
vn 0.0 -0.7071067811865474 0.7071067811865476
vn 0.0 0.7071067811865474 -0.7071067811865476
vn 0.0 0.7100644693084793 -0.7041366695647001
vn 0.0 0.8660254028383287 -0.5000000016387102
vn 0.0 0.868582895222959 -0.4955438972746029
vn 0.0 -0.9659258358036644 0.2588190095935618
vn 0.0 -0.9673947937577495 0.2532731983657194
vn 0.0 0.9659258358036644 -0.2588190095935618
vn 0.0 0.9673947937577495 -0.2532731983657194
vn 0.0 -0.5000000016387098 0.8660254028383292
vn 0.0 -0.5025631884072517 0.8645404800574332
vn 0.0 0.5025631884072517 -0.8645404800574332
vn 0.0 0.5000000016387098 -0.8660254028383292
vn -1.0 0.0 0.0
vn 1.0 0.0 0.0
vn 0.0 -1.0 0.0
vn 0.0 -0.9999823111454317 -0.005947890066292754
vn 0.0 1.0 0.0
vn 0.0 0.9999823111454317 0.005947890066292754
vn 0.0 -0.26029941258303385 0.965527946674216
vn 0.0 -0.2588190095935614 0.9659258358036645
vn 0.0 0.2588190095935614 -0.9659258358036645
vn 0.0 0.26029941258303385 -0.965527946674216
vn 0.0 -0.7071067811865476 -0.7071067811865474
vn 0.0 -0.4974057974638176 -0.8675179955766817
vn 0.0 -0.7041115643554373 -0.7100893640528202
vn 0.0 -0.5000000016387102 -0.8660254028383287
vn 0.0 0.5000000016387102 0.8660254028383287
vn 0.0 0.7071067811865476 0.7071067811865474
vn 0.0 0.4974057974638176 0.8675179955766817
vn 0.0 0.7041115643554373 0.7100893640528202
vn 0.0 -0.8634296221043816 -0.5044693129147548
vn 0.0 -0.8660254028383292 -0.5000000016387098
vn 0.0 0.8660254028383292 0.5000000016387098
vn 0.0 0.8634296221043816 0.5044693129147548
vn 0.0 -0.9644204242604543 -0.264373306650436
vn 0.0 -0.9659258358036645 -0.2588190095935614
vn 0.0 0.9659258358036645 0.2588190095935614
vn 0.0 0.9644204242604543 0.264373306650436
vn 0.0 0.0 1.0
vn 0.0 0.0 -1.0
vn 0.0 0.26029941258303424 0.9655279466742158
vn 0.0 0.2588190095935618 0.9659258358036644
vn 0.0 -0.2588190095935618 -0.9659258358036644
vn 0.0 -0.26029941258303424 -0.9655279466742158
vn 0.0 0.5025631884072521 0.864540480057433
vn 0.0 -0.5025631884072521 -0.864540480057433
vn 0.0 0.7100644693084796 0.7041366695646999
vn 0.0 -0.7100644693084796 -0.7041366695646999
vn 0.0 0.8685828952229592 0.49554389727460246
vn 0.0 -0.8685828952229592 -0.49554389727460246
vn 0.0 0.9673947937577497 0.25327319836571904
vn 0.0 -0.9673947937577497 -0.25327319836571904
vn 0.0 0.9999823111454317 -0.0059478900662931974
vn 0.0 -0.9999823111454317 0.0059478900662931974
vn 0.0 0.9644204242604543 -0.2643733066504364
vn 0.0 -0.9644204242604543 0.2643733066504364
vn 0.0 0.8634296221043813 -0.5044693129147553
vn 0.0 -0.8634296221043813 0.5044693129147553
vn 0.0 0.7041115643554371 -0.7100893640528204
vn 0.0 -0.7041115643554371 0.7100893640528204
vn 0.0 0.49740579746381725 -0.8675179955766821
vn 0.0 -0.49740579746381725 0.8675179955766821
vn 0.0 0.2573209020775046 -0.966326007801725
vn 0.0 -0.2573209020775046 0.966326007801725
vn 0.0 -0.25732090207750496 -0.9663260078017247
vn 0.0 0.25732090207750496 0.9663260078017247
usemtl material_0_0
f 1//1 2//2 3//3
f 2//2 1//1 4//4
f 5//5 6//6 7//7
f 8//8 7//7 6//6
f 3//3 9//9 10//10
f 9//9 3//3 2//2
f 7//7 8//8 11//11
f 12//12 11//11 8//8
f 1//1 13//13 4//4
f 13//13 1//1 14//14
f 15//15 6//6 16//16
f 5//5 16//16 6//6
f 17//17 18//17 19//17
f 18//17 17//17 20//17
f 18//17 20//17 21//17
f 21//17 20//17 22//17
f 21//17 22//17 23//17
f 23//17 22//17 24//17
f 23//17 24//17 25//17
f 25//17 24//17 26//17
f 25//17 26//17 27//17
f 27//17 26//17 28//17
f 27//17 28//17 29//17
f 29//17 28//17 30//17
f 29//17 30//17 31//17
f 31//17 30//17 32//17
f 31//17 32//17 33//17
f 33//17 32//17 34//17
f 33//17 34//17 35//17
f 35//17 34//17 36//17
f 35//17 36//17 37//17
f 37//17 36//17 38//17
f 37//17 38//17 39//17
f 39//17 38//17 40//17
f 41//18 42//18 43//18
f 43//18 42//18 44//18
f 42//18 45//18 44//18
f 44//18 45//18 46//18
f 45//18 47//18 46//18
f 46//18 47//18 48//18
f 47//18 49//18 48//18
f 48//18 49//18 50//18
f 49//18 51//18 50//18
f 50//18 51//18 52//18
f 51//18 53//18 52//18
f 52//18 53//18 54//18
f 53//18 55//18 54//18
f 54//18 55//18 56//18
f 55//18 57//18 56//18
f 56//18 57//18 58//18
f 57//18 59//18 58//18
f 58//18 59//18 60//18
f 59//18 61//18 60//18
f 60//18 61//18 62//18
f 61//18 63//18 62//18
f 64//18 62//18 63//18
f 10//10 65//19 66//20
f 65//19 10//10 9//9
f 11//11 12//12 67//21
f 68//22 67//21 12//12
f 69//23 13//13 14//14
f 13//13 69//23 70//24
f 71//25 72//26 16//16
f 15//15 16//16 72//26
f 73//27 74//28 75//29
f 74//28 73//27 76//30
f 77//31 78//32 79//33
f 80//34 79//33 78//32
f 81//35 73//27 75//29
f 73//27 81//35 82//36
f 83//37 84//38 78//32
f 80//34 78//32 84//38
f 85//39 82//36 81//35
f 82//36 85//39 86//40
f 87//41 88//42 83//37
f 84//38 83//37 88//42
f 66//20 86//40 85//39
f 86//40 66//20 65//19
f 67//21 68//22 87//41
f 88//42 87//41 68//22
f 89//43 70//24 69//23
f 70//24 89//43 90//43
f 91//44 92//44 71//25
f 72//26 71//25 92//44
f 93//45 90//43 89//43
f 90//43 93//45 94//46
f 95//47 96//48 91//44
f 92//44 91//44 96//48
f 97//49 94//46 93//45
f 94//46 97//49 98//31
f 99//30 100//50 95//47
f 96//48 95//47 100//50
f 101//51 98//31 97//49
f 98//31 101//51 102//32
f 103//27 104//52 99//30
f 100//50 99//30 104//52
f 105//37 101//51 106//53
f 101//51 105//37 102//32
f 103//27 107//36 104//52
f 108//54 104//52 107//36
f 109//41 106//53 110//55
f 106//53 109//41 105//37
f 107//36 111//40 108//54
f 112//56 108//54 111//40
f 113//21 110//55 114//57
f 110//55 113//21 109//41
f 111//40 115//19 112//56
f 116//58 112//56 115//19
f 117//11 114//57 118//59
f 114//57 117//11 113//21
f 115//19 119//9 116//58
f 120//60 116//58 119//9
f 121//7 118//59 122//61
f 118//59 121//7 117//11
f 119//9 123//2 120//60
f 124//62 120//60 123//2
f 125//5 122//61 126//63
f 122//61 125//5 121//7
f 123//2 127//4 124//62
f 128//64 124//62 127//4
f 129//16 126//63 130//65
f 126//63 129//16 125//5
f 127//4 131//13 128//64
f 132//66 128//64 131//13
f 129//16 133//67 134//25
f 133//67 129//16 130//65
f 132//66 131//13 135//68
f 136//24 135//68 131//13
f 134//25 137//44 138//44
f 137//44 134//25 133//67
f 135//68 136//24 139//43
f 140//43 139//43 136//24
f 138//44 141//69 142//47
f 141//69 138//44 137//44
f 139//43 140//43 143//70
f 144//46 143//70 140//43
f 142//47 74//28 76//30
f 74//28 142//47 141//69
f 143//70 144//46 79//33
f 77//31 79//33 144//46
