# SSTK version 0.8.0
# 781
mtllib original-781.mtl
o #ID4720
v 0.356077 0.01312 0.102899
v 0.356087 0.013043 0.100358
v 0.35608 0.013096 0.099804
v 0.356204 0.012155 0.103514
v 0.356108 0.012887 0.100857
v 0.356142 0.012627 0.101302
v 0.35619 0.012262 0.101693
v 0.356253 0.011785 0.102011
v 0.356361 0.010961 0.103879
v 0.356332 0.011186 0.102238
v 0.356426 0.010466 0.102374
v 0.356543 0.009582 0.104001
v 0.356537 0.009625 0.102419
v 0.356649 0.008773 0.102376
v 0.356684 0.008511 0.10393
v 0.356745 0.008046 0.102244
v 0.356807 0.007572 0.103718
v 0.356824 0.007444 0.102025
v 0.356914 0.006765 0.103364
v 0.356887 0.006967 0.101719
v 0.356935 0.006604 0.101341
v 0.357002 0.00609 0.102868
v 0.356969 0.006345 0.100911
v 0.356989 0.006189 0.100427
v 0.356996 0.006137 0.099889
v 0.35683 0.007398 0.097881
v 0.356724 0.008206 0.096094
v 0.356698 0.008403 0.097607
v 0.356821 0.007466 0.096266
v 0.356907 0.006812 0.096535
v 0.356923 0.006693 0.098376
v 0.356982 0.006242 0.096901
v 0.356978 0.006276 0.099058
v 0.357046 0.005757 0.097363
v 0.357073 0.005558 0.102256
v 0.357097 0.00537 0.097903
v 0.357123 0.005177 0.101553
v 0.357134 0.005094 0.098501
v 0.357153 0.004949 0.100758
v 0.357156 0.004928 0.099158
v 0.357163 0.004872 0.099872
v 0.355932 0.014223 0.100991
v 0.35592 0.014314 0.099158
v 0.355914 0.014361 0.099864
v 0.355938 0.014174 0.098519
v 0.355986 0.013809 0.102031
v 0.355969 0.01394 0.097948
v 0.356012 0.013613 0.097445
v 0.356067 0.013199 0.097017
v 0.356131 0.012708 0.096673
v 0.356095 0.01298 0.099091
v 0.356141 0.012634 0.098492
v 0.356206 0.012137 0.096414
v 0.356217 0.012059 0.098031
v 0.356292 0.011488 0.096239
v 0.356322 0.011258 0.097735
v 0.356322 0.011258 0.097735
v 0.356217 0.012059 0.098031
v 0.356292 0.011488 0.096239
v 0.356206 0.012137 0.096414
v 0.356141 0.012634 0.098492
v 0.356131 0.012708 0.096673
v 0.356095 0.01298 0.099091
v 0.35608 0.013096 0.099804
v 0.356067 0.013199 0.097017
v 0.356077 0.01312 0.102899
v 0.356012 0.013613 0.097445
v 0.355986 0.013809 0.102031
v 0.355969 0.01394 0.097948
v 0.355938 0.014174 0.098519
v 0.355932 0.014223 0.100991
v 0.35592 0.014314 0.099158
v 0.355914 0.014361 0.099864
v 0.357163 0.004872 0.099872
v 0.357153 0.004949 0.100758
v 0.357156 0.004928 0.099158
v 0.357134 0.005094 0.098501
v 0.357123 0.005177 0.101553
v 0.357097 0.00537 0.097903
v 0.357073 0.005558 0.102256
v 0.357046 0.005757 0.097363
v 0.357002 0.00609 0.102868
v 0.356996 0.006137 0.099889
v 0.356982 0.006242 0.096901
v 0.356978 0.006276 0.099058
v 0.356923 0.006693 0.098376
v 0.356907 0.006812 0.096535
v 0.35683 0.007398 0.097881
v 0.356821 0.007466 0.096266
v 0.356724 0.008206 0.096094
v 0.356698 0.008403 0.097607
v 0.356989 0.006189 0.100427
v 0.356969 0.006345 0.100911
v 0.356935 0.006604 0.101341
v 0.356914 0.006765 0.103364
v 0.356887 0.006967 0.101719
v 0.356824 0.007444 0.102025
v 0.356807 0.007572 0.103718
v 0.356745 0.008046 0.102244
v 0.356684 0.008511 0.10393
v 0.356649 0.008773 0.102376
v 0.356543 0.009582 0.104001
v 0.356537 0.009625 0.102419
v 0.356426 0.010466 0.102374
v 0.356361 0.010961 0.103879
v 0.356332 0.011186 0.102238
v 0.356253 0.011785 0.102011
v 0.356204 0.012155 0.103514
v 0.35619 0.012262 0.101693
v 0.356142 0.012627 0.101302
v 0.356108 0.012887 0.100857
v 0.356087 0.013043 0.100358
vn 0.9914448610250888 0.1305261948688555 0.0
vn -0.9914448610250888 -0.1305261948688555 0.0
usemtl material_0_0
f 1//1 2//1 3//1
f 2//1 1//1 4//1
f 2//1 4//1 5//1
f 5//1 4//1 6//1
f 6//1 4//1 7//1
f 7//1 4//1 8//1
f 8//1 4//1 9//1
f 8//1 9//1 10//1
f 10//1 9//1 11//1
f 11//1 9//1 12//1
f 11//1 12//1 13//1
f 13//1 12//1 14//1
f 14//1 12//1 15//1
f 14//1 15//1 16//1
f 16//1 15//1 17//1
f 16//1 17//1 18//1
f 18//1 17//1 19//1
f 18//1 19//1 20//1
f 20//1 19//1 21//1
f 21//1 19//1 22//1
f 21//1 22//1 23//1
f 23//1 22//1 24//1
f 24//1 22//1 25//1
f 26//1 27//1 28//1
f 27//1 26//1 29//1
f 29//1 26//1 30//1
f 30//1 26//1 31//1
f 30//1 31//1 32//1
f 32//1 31//1 33//1
f 32//1 33//1 25//1
f 32//1 25//1 34//1
f 34//1 25//1 22//1
f 34//1 22//1 35//1
f 34//1 35//1 36//1
f 36//1 35//1 37//1
f 36//1 37//1 38//1
f 38//1 37//1 39//1
f 38//1 39//1 40//1
f 40//1 39//1 41//1
f 42//1 43//1 44//1
f 43//1 42//1 45//1
f 45//1 42//1 46//1
f 45//1 46//1 47//1
f 47//1 46//1 48//1
f 48//1 46//1 1//1
f 48//1 1//1 49//1
f 49//1 1//1 3//1
f 49//1 3//1 50//1
f 50//1 3//1 51//1
f 50//1 51//1 52//1
f 50//1 52//1 53//1
f 53//1 52//1 54//1
f 53//1 54//1 55//1
f 55//1 54//1 56//1
usemtl material_1_0
f 57//2 58//2 59//2
f 59//2 58//2 60//2
f 58//2 61//2 60//2
f 60//2 61//2 62//2
f 61//2 63//2 62//2
f 63//2 64//2 62//2
f 62//2 64//2 65//2
f 64//2 66//2 65//2
f 65//2 66//2 67//2
f 66//2 68//2 67//2
f 67//2 68//2 69//2
f 69//2 68//2 70//2
f 68//2 71//2 70//2
f 70//2 71//2 72//2
f 73//2 72//2 71//2
f 74//2 75//2 76//2
f 76//2 75//2 77//2
f 75//2 78//2 77//2
f 77//2 78//2 79//2
f 78//2 80//2 79//2
f 79//2 80//2 81//2
f 80//2 82//2 81//2
f 82//2 83//2 81//2
f 81//2 83//2 84//2
f 83//2 85//2 84//2
f 85//2 86//2 84//2
f 84//2 86//2 87//2
f 86//2 88//2 87//2
f 87//2 88//2 89//2
f 89//2 88//2 90//2
f 91//2 90//2 88//2
f 83//2 82//2 92//2
f 92//2 82//2 93//2
f 93//2 82//2 94//2
f 82//2 95//2 94//2
f 94//2 95//2 96//2
f 96//2 95//2 97//2
f 95//2 98//2 97//2
f 97//2 98//2 99//2
f 98//2 100//2 99//2
f 99//2 100//2 101//2
f 100//2 102//2 101//2
f 101//2 102//2 103//2
f 103//2 102//2 104//2
f 102//2 105//2 104//2
f 104//2 105//2 106//2
f 106//2 105//2 107//2
f 105//2 108//2 107//2
f 107//2 108//2 109//2
f 109//2 108//2 110//2
f 110//2 108//2 111//2
f 111//2 108//2 112//2
f 108//2 66//2 112//2
f 64//2 112//2 66//2
