# SSTK version 0.8.0
# 513
mtllib original-513.mtl
o #ID3398
v 0.323121 0.227171 -0.449738
v 0.325241 0.224875 -0.450042
v 0.323572 0.223015 -0.450289
v 0.32499 0.227188 -0.449736
v 0.328423 0.223015 -0.450289
v 0.326824 0.224875 -0.450042
v 0.328423 0.227218 -0.449731
v 0.326675 0.227202 -0.449733
vn -9.050874866039051e-06 0.13248069803916834 -0.9911855853295771
vn 0.0 0.13147429731104474 -0.9913195797252099
vn 0.0036738879668119207 0.13147339881233439 -0.9913128910449718
vn 0.005059091145353341 0.15891610456583705 -0.9872791283656326
usemtl material_0_0
f 1//1 2//2 3//2
f 2//2 1//1 4//1
f 5//3 6//2 7//4
f 6//2 5//3 3//2
f 6//2 3//2 2//2
f 7//4 6//2 8//1
