# SSTK version 0.8.0
# 240
mtllib original-240.mtl
o #ID1345
v -0.104241 -0.246246 -0.474784
v 0.380183 -0.246336 -0.474784
v -0.102874 -0.246336 -0.474784
v 0.381379 -0.246258 -0.474784
v 0.382105 -0.246113 -0.474784
v -0.105135 -0.246069 -0.474784
v 0.382805 -0.245876 -0.474784
v -0.105997 -0.245776 -0.474784
v 0.383468 -0.245548 -0.474784
v -0.106814 -0.245373 -0.474784
v 0.384083 -0.245138 -0.474784
v -0.107572 -0.244867 -0.474784
v 0.38464 -0.24465 -0.474784
v -0.108257 -0.244266 -0.474784
v 0.385127 -0.244094 -0.474784
v -0.108858 -0.243581 -0.474784
v 0.385538 -0.243479 -0.474784
v -0.109364 -0.242823 -0.474784
v 0.385865 -0.242815 -0.474784
v -0.109767 -0.242006 -0.474784
v 0.386103 -0.242115 -0.474784
v 0.386247 -0.24139 -0.474784
v -0.11006 -0.241143 -0.474784
v 0.386326 -0.240193 -0.474784
v -0.110237 -0.24025 -0.474784
v -0.110327 -0.238883 -0.474784
v 0.386326 0.126058 -0.474784
v -0.110327 0.124606 -0.474784
v -0.110252 0.125752 -0.474784
v -0.110118 0.126427 -0.474784
v 0.386263 0.127014 -0.474784
v -0.109896 0.127079 -0.474784
v 0.386166 0.127503 -0.474784
v -0.109592 0.127697 -0.474784
v 0.386005 0.127975 -0.474784
v -0.109209 0.128269 -0.474784
v 0.385785 0.128422 -0.474784
v -0.108755 0.128787 -0.474784
v 0.385508 0.128837 -0.474784
v -0.108238 0.129241 -0.474784
v 0.385179 0.129212 -0.474784
v 0.384804 0.129541 -0.474784
v -0.107665 0.129623 -0.474784
v 0.384389 0.129818 -0.474784
v -0.107048 0.129928 -0.474784
v 0.383942 0.130039 -0.474784
v -0.106395 0.130149 -0.474784
v 0.38347 0.130199 -0.474784
v -0.10572 0.130284 -0.474784
v 0.382981 0.130296 -0.474784
v -0.104575 0.130359 -0.474784
v 0.382025 0.130359 -0.474784
vn 0.0 0.0 -1.0
usemtl material_0_0
f 1//1 2//1 3//1
f 2//1 1//1 4//1
f 4//1 1//1 5//1
f 5//1 1//1 6//1
f 5//1 6//1 7//1
f 7//1 6//1 8//1
f 7//1 8//1 9//1
f 9//1 8//1 10//1
f 9//1 10//1 11//1
f 11//1 10//1 12//1
f 11//1 12//1 13//1
f 13//1 12//1 14//1
f 13//1 14//1 15//1
f 15//1 14//1 16//1
f 15//1 16//1 17//1
f 17//1 16//1 18//1
f 17//1 18//1 19//1
f 19//1 18//1 20//1
f 19//1 20//1 21//1
f 21//1 20//1 22//1
f 22//1 20//1 23//1
f 22//1 23//1 24//1
f 24//1 23//1 25//1
f 24//1 25//1 26//1
f 24//1 26//1 27//1
f 27//1 26//1 28//1
f 27//1 28//1 29//1
f 27//1 29//1 30//1
f 27//1 30//1 31//1
f 31//1 30//1 32//1
f 31//1 32//1 33//1
f 33//1 32//1 34//1
f 33//1 34//1 35//1
f 35//1 34//1 36//1
f 35//1 36//1 37//1
f 37//1 36//1 38//1
f 37//1 38//1 39//1
f 39//1 38//1 40//1
f 39//1 40//1 41//1
f 41//1 40//1 42//1
f 42//1 40//1 43//1
f 42//1 43//1 44//1
f 44//1 43//1 45//1
f 44//1 45//1 46//1
f 46//1 45//1 47//1
f 46//1 47//1 48//1
f 48//1 47//1 49//1
f 48//1 49//1 50//1
f 50//1 49//1 51//1
f 50//1 51//1 52//1
