# SSTK version 0.8.0
# 480
mtllib original-480.mtl
o #ID3200
v 0.422003 0.231415 -0.446804
v 0.425242 0.23128 -0.446766
v 0.425298 0.231101 -0.446804
v 0.421958 0.231619 -0.44676
v 0.421958 0.231619 -0.44676
v 0.422003 0.231415 -0.446804
v 0.425242 0.23128 -0.446766
v 0.425298 0.231101 -0.446804
v 0.42505 0.231805 -0.446534
v 0.421761 0.232377 -0.446422
v 0.424775 0.23339 -0.44582
v 0.421651 0.234012 -0.445678
v 0.424757 0.233769 -0.445647
v 0.424757 0.233769 -0.445647
v 0.421651 0.234012 -0.445678
v 0.424775 0.23339 -0.44582
v 0.421761 0.232377 -0.446422
v 0.42505 0.231805 -0.446534
vn 0.021182650215348733 0.22219590225890531 -0.9747719099098031
vn 0.031062369018543666 0.31660698999638626 -0.9480480700451765
vn 0.04142789908708943 0.41622109082809783 -0.9083191799841607
vn 0.04333335961639708 0.4422118960853766 -0.8958631920694878
vn -0.031062369018543666 -0.31660698999638626 0.9480480700451765
vn -0.021182650215348733 -0.22219590225890531 0.9747719099098031
vn -0.04333335961639708 -0.4422118960853766 0.8958631920694878
vn -0.04142789908708943 -0.41622109082809783 0.9083191799841607
usemtl material_0_0
f 1//1 2//2 3//1
f 2//2 1//1 4//2
f 4//2 9//3 2//2
f 9//3 4//2 10//3
f 9//3 10//3 11//3
f 11//3 10//3 12//4
f 11//3 12//4 13//4
usemtl material_1_0
f 5//5 6//6 7//5
f 8//6 7//5 6//6
f 14//7 15//7 16//8
f 15//7 17//8 16//8
f 16//8 17//8 18//8
f 17//8 5//5 18//8
f 7//5 18//8 5//5
