# SSTK version 0.8.0
# 520
mtllib original-520.mtl
o #ID3440
v -0.117872 0.256177 -0.440966
v -0.109658 0.253738 -0.442083
v -0.117872 0.253727 -0.442086
v -0.109658 0.256178 -0.440968
v -0.109658 0.256178 -0.440968
v -0.117872 0.256177 -0.440966
v -0.109658 0.253738 -0.442083
v -0.117872 0.253727 -0.442086
vn -0.000171314700393583 0.4158091009552908 -0.9094519020893993
vn -0.00010843430041161674 0.37443340142134945 -0.9272538035198568
vn 0.000171314700393583 -0.4158091009552908 0.9094519020893993
vn 0.00010843430041161674 -0.37443340142134945 0.9272538035198568
usemtl material_0_0
f 1//1 2//2 3//2
f 2//2 1//1 4//1
f 5//3 6//3 7//4
f 8//4 7//4 6//3
