# SSTK version 0.8.0
# 791
mtllib original-791.mtl
o #ID4893
v 0.287432 -0.109781 0.045408
v 0.290306 -0.010859 0.045408
v 0.307197 -0.062065 0.045408
v 0.28437 -0.055948 0.045408
v 0.25599 -0.150756 0.045408
v 0.266966 -0.097965 0.045408
v 0.23928 -0.134046 0.045408
v 0.215015 -0.182197 0.045408
v 0.203199 -0.161731 0.045408
v 0.167299 -0.201962 0.045408
v 0.161182 -0.179135 0.045408
v 0.116093 -0.208704 0.045408
v 0.116093 -0.185072 0.045408
v 0.071003 -0.179135 0.045408
v 0.064887 -0.201962 0.045408
v 0.028986 -0.161731 0.045408
v 0.01717 -0.182197 0.045408
v -0.007094 -0.134046 0.045408
v -0.023805 -0.150756 0.045408
v -0.03478 -0.097965 0.045408
v -0.055246 -0.109781 0.045408
v -0.052184 -0.055948 0.045408
v -0.05812 -0.010859 0.045408
v -0.075011 -0.062065 0.045408
v -0.075011 0.040347 0.045408
v -0.081752 -0.010859 0.045408
v 0.307197 0.040347 0.045408
v 0.313938 -0.010859 0.045408
v 0.287432 0.088064 0.045408
v 0.28437 0.034231 0.045408
v 0.25599 0.129039 0.045408
v 0.266966 0.076248 0.045408
v 0.23928 0.112329 0.045408
v 0.215015 0.16048 0.045408
v 0.203199 0.140014 0.045408
v 0.167299 0.180245 0.045408
v 0.161182 0.157418 0.045408
v 0.116093 0.186986 0.045408
v 0.116093 0.163354 0.045408
v 0.064887 0.180245 0.045408
v 0.071003 0.157418 0.045408
v 0.028986 0.140014 0.045408
v 0.01717 0.16048 0.045408
v -0.007094 0.112329 0.045408
v -0.023805 0.129039 0.045408
v -0.03478 0.076248 0.045408
v -0.055246 0.088064 0.045408
v -0.052184 0.034231 0.045408
v -0.075011 0.040347 0.045408
v -0.05812 -0.010859 0.045408
v -0.055246 0.088064 0.045408
v -0.052184 0.034231 0.045408
v -0.03478 0.076248 0.045408
v -0.023805 0.129039 0.045408
v -0.007094 0.112329 0.045408
v 0.01717 0.16048 0.045408
v 0.028986 0.140014 0.045408
v 0.064887 0.180245 0.045408
v 0.071003 0.157418 0.045408
v 0.116093 0.163354 0.045408
v 0.116093 0.186986 0.045408
v 0.161182 0.157418 0.045408
v 0.167299 0.180245 0.045408
v 0.203199 0.140014 0.045408
v 0.215015 0.16048 0.045408
v 0.23928 0.112329 0.045408
v 0.25599 0.129039 0.045408
v 0.266966 0.076248 0.045408
v 0.28437 0.034231 0.045408
v 0.287432 0.088064 0.045408
v 0.290306 -0.010859 0.045408
v 0.307197 -0.062065 0.045408
v 0.307197 0.040347 0.045408
v 0.313938 -0.010859 0.045408
v -0.081752 -0.010859 0.045408
v -0.075011 -0.062065 0.045408
v -0.055246 -0.109781 0.045408
v -0.052184 -0.055948 0.045408
v -0.03478 -0.097965 0.045408
v -0.023805 -0.150756 0.045408
v -0.007094 -0.134046 0.045408
v 0.01717 -0.182197 0.045408
v 0.028986 -0.161731 0.045408
v 0.064887 -0.201962 0.045408
v 0.071003 -0.179135 0.045408
v 0.116093 -0.208704 0.045408
v 0.116093 -0.185072 0.045408
v 0.161182 -0.179135 0.045408
v 0.167299 -0.201962 0.045408
v 0.203199 -0.161731 0.045408
v 0.215015 -0.182197 0.045408
v 0.23928 -0.134046 0.045408
v 0.25599 -0.150756 0.045408
v 0.266966 -0.097965 0.045408
v 0.28437 -0.055948 0.045408
v 0.287432 -0.109781 0.045408
vn 0.0 3.4064860409307573e-09 -1.0
vn 0.0 -3.4064860409307573e-09 1.0
usemtl material_0_0
f 1//1 2//1 3//1
f 2//1 1//1 4//1
f 4//1 1//1 5//1
f 4//1 5//1 6//1
f 6//1 5//1 7//1
f 7//1 5//1 8//1
f 7//1 8//1 9//1
f 9//1 8//1 10//1
f 9//1 10//1 11//1
f 11//1 10//1 12//1
f 11//1 12//1 13//1
f 13//1 12//1 14//1
f 14//1 12//1 15//1
f 14//1 15//1 16//1
f 16//1 15//1 17//1
f 16//1 17//1 18//1
f 18//1 17//1 19//1
f 18//1 19//1 20//1
f 20//1 19//1 21//1
f 20//1 21//1 22//1
f 22//1 21//1 23//1
f 23//1 21//1 24//1
f 23//1 24//1 25//1
f 25//1 24//1 26//1
f 3//1 27//1 28//1
f 27//1 3//1 29//1
f 29//1 3//1 2//1
f 29//1 2//1 30//1
f 29//1 30//1 31//1
f 31//1 30//1 32//1
f 31//1 32//1 33//1
f 31//1 33//1 34//1
f 34//1 33//1 35//1
f 34//1 35//1 36//1
f 36//1 35//1 37//1
f 36//1 37//1 38//1
f 38//1 37//1 39//1
f 38//1 39//1 40//1
f 40//1 39//1 41//1
f 40//1 41//1 42//1
f 40//1 42//1 43//1
f 43//1 42//1 44//1
f 43//1 44//1 45//1
f 45//1 44//1 46//1
f 45//1 46//1 47//1
f 47//1 46//1 48//1
f 47//1 48//1 23//1
f 47//1 23//1 25//1
f 49//2 50//2 51//2
f 50//2 52//2 51//2
f 52//2 53//2 51//2
f 51//2 53//2 54//2
f 53//2 55//2 54//2
f 54//2 55//2 56//2
f 55//2 57//2 56//2
f 56//2 57//2 58//2
f 57//2 59//2 58//2
f 59//2 60//2 58//2
f 58//2 60//2 61//2
f 60//2 62//2 61//2
f 61//2 62//2 63//2
f 62//2 64//2 63//2
f 63//2 64//2 65//2
f 64//2 66//2 65//2
f 65//2 66//2 67//2
f 66//2 68//2 67//2
f 68//2 69//2 67//2
f 67//2 69//2 70//2
f 69//2 71//2 70//2
f 71//2 72//2 70//2
f 70//2 72//2 73//2
f 74//2 73//2 72//2
f 75//2 76//2 49//2
f 49//2 76//2 50//2
f 76//2 77//2 50//2
f 50//2 77//2 78//2
f 78//2 77//2 79//2
f 77//2 80//2 79//2
f 79//2 80//2 81//2
f 80//2 82//2 81//2
f 81//2 82//2 83//2
f 82//2 84//2 83//2
f 83//2 84//2 85//2
f 84//2 86//2 85//2
f 85//2 86//2 87//2
f 87//2 86//2 88//2
f 86//2 89//2 88//2
f 88//2 89//2 90//2
f 89//2 91//2 90//2
f 90//2 91//2 92//2
f 91//2 93//2 92//2
f 92//2 93//2 94//2
f 94//2 93//2 95//2
f 93//2 96//2 95//2
f 95//2 96//2 71//2
f 72//2 71//2 96//2
