# SSTK version 0.8.0
# 186
mtllib original-186.mtl
o #ID961
v 0.051282 0.378881 0.04745
v 0.051331 0.373187 0.042672
v 0.054361 0.373187 0.042672
v 0.048555 0.378321 0.046981
v 0.04611 0.392547 0.058918
v 0.048934 0.392547 0.058918
v 0.051282 0.406214 0.070385
v 0.048555 0.406773 0.070855
v 0.054361 0.411908 0.075163
v 0.051331 0.411908 0.075163
v 0.051331 0.411908 0.075163
v 0.054361 0.411908 0.075163
v 0.048555 0.406773 0.070855
v 0.051282 0.406214 0.070385
v 0.04611 0.392547 0.058918
v 0.048934 0.392547 0.058918
v 0.051282 0.378881 0.04745
v 0.048555 0.378321 0.046981
v 0.051331 0.373187 0.042672
v 0.054361 0.373187 0.042672
vn 0.0 -0.6427875875138863 0.7660444617240425
vn 0.0 0.6427875875138863 -0.7660444617240425
usemtl material_0_0
f 1//1 2//1 3//1
f 2//1 1//1 4//1
f 4//1 1//1 5//1
f 5//1 1//1 6//1
f 5//1 6//1 7//1
f 5//1 7//1 8//1
f 8//1 7//1 9//1
f 8//1 9//1 10//1
usemtl material_1_0
f 11//2 12//2 13//2
f 12//2 14//2 13//2
f 13//2 14//2 15//2
f 14//2 16//2 15//2
f 16//2 17//2 15//2
f 15//2 17//2 18//2
f 18//2 17//2 19//2
f 20//2 19//2 17//2
