# SSTK version 0.8.0
# 456
mtllib original-456.mtl
o #ID3056
v -0.323595 0.226207 -0.449856
v -0.308044 0.221593 -0.450477
v -0.321791 0.221472 -0.450493
v 0.323121 0.227171 -0.449738
v -0.064452 0.226609 -0.449806
v 0.323117 0.22721 -0.449733
v 0.323117 0.22721 -0.449733
v -0.064452 0.226609 -0.449806
v 0.323121 0.227171 -0.449738
v -0.323595 0.226207 -0.449856
v -0.308044 0.221593 -0.450477
v -0.321791 0.221472 -0.450493
vn 0.0035836908658408015 0.16550009380433148 -0.9862032630804543
vn -3.6049070113232914e-06 0.11483220036069659 -0.9933849031202988
vn 0.0001228707045152706 0.11398610418877782 -0.9934823365086343
vn -9.050874866039051e-06 0.13248069803916834 -0.9911855853295771
vn -0.00015712870211419196 0.1677620022572645 -0.9858275132644678
vn -5.8490432638074445e-05 0.1590623071741339 -0.9872685445284434
vn 5.8490432638074445e-05 -0.1590623071741339 0.9872685445284434
vn 0.00015712870211419196 -0.1677620022572645 0.9858275132644678
vn 9.050874866039051e-06 -0.13248069803916834 0.9911855853295771
vn -0.0035836908658408015 -0.16550009380433148 0.9862032630804543
vn 3.6049070113232914e-06 -0.11483220036069659 0.9933849031202988
vn -0.0001228707045152706 -0.11398610418877782 0.9934823365086343
usemtl material_0_0
f 1//1 2//2 3//3
f 2//2 1//1 4//4
f 4//4 1//1 5//5
f 4//4 5//5 6//6
f 7//7 8//8 9//9
f 8//8 10//10 9//9
f 9//9 10//10 11//11
f 12//12 11//11 10//10
