# SSTK version 0.8.0
# 377
mtllib original-377.mtl
o #ID2627
v 0.449232 -0.039262 -0.406442
v 0.449232 -0.033446 -0.40647
v 0.449232 -0.038515 -0.407074
v 0.449232 -0.034966 -0.406375
v 0.449232 -0.039831 -0.405753
v 0.449232 -0.03624 -0.406089
v 0.449232 -0.037275 -0.405633
v 0.449232 -0.040252 -0.404962
v 0.449232 -0.038075 -0.405026
v 0.449232 -0.038505 -0.404459
v 0.449232 -0.040558 -0.404022
v 0.449232 -0.038827 -0.403726
v 0.449232 -0.040743 -0.402933
v 0.449232 -0.039027 -0.402755
v 0.449232 -0.040805 -0.401693
v 0.449232 -0.039094 -0.401476
v 0.449232 -0.040805 -0.396461
v 0.449232 -0.039094 -0.39838
v 0.449232 -0.035034 -0.408352
v 0.449232 -0.031645 -0.408306
v 0.449232 -0.033476 -0.408448
v 0.449232 -0.036404 -0.408063
v 0.449232 -0.030029 -0.40788
v 0.449232 -0.037569 -0.407622
v 0.449232 -0.028656 -0.407166
v 0.449232 -0.027552 -0.406164
v 0.449232 -0.031435 -0.406284
v 0.449232 -0.030627 -0.40605
v 0.449232 -0.026916 -0.405192
v 0.449232 -0.02995 -0.405723
v 0.449232 -0.02893 -0.404896
v 0.449232 -0.026513 -0.404037
v 0.449232 -0.028313 -0.403909
v 0.449232 -0.026357 -0.402947
v 0.449232 -0.028091 -0.402902
v 0.449232 -0.026306 -0.401456
v 0.449232 -0.028017 -0.401426
v 0.449232 -0.026306 -0.396461
v 0.449232 -0.028017 -0.39838
v 0.449232 -0.040805 -0.396461
v 0.449232 -0.039094 -0.39838
v 0.449232 -0.026306 -0.396461
v 0.449232 -0.028017 -0.39838
v 0.449232 -0.028017 -0.401426
v 0.449232 -0.026306 -0.401456
v 0.449232 -0.028091 -0.402902
v 0.449232 -0.026357 -0.402947
v 0.449232 -0.028313 -0.403909
v 0.449232 -0.026513 -0.404037
v 0.449232 -0.02893 -0.404896
v 0.449232 -0.026916 -0.405192
v 0.449232 -0.02995 -0.405723
v 0.449232 -0.030627 -0.40605
v 0.449232 -0.027552 -0.406164
v 0.449232 -0.031435 -0.406284
v 0.449232 -0.033446 -0.40647
v 0.449232 -0.038515 -0.407074
v 0.449232 -0.028656 -0.407166
v 0.449232 -0.037569 -0.407622
v 0.449232 -0.030029 -0.40788
v 0.449232 -0.036404 -0.408063
v 0.449232 -0.031645 -0.408306
v 0.449232 -0.035034 -0.408352
v 0.449232 -0.033476 -0.408448
v 0.449232 -0.039094 -0.401476
v 0.449232 -0.040805 -0.401693
v 0.449232 -0.039027 -0.402755
v 0.449232 -0.040743 -0.402933
v 0.449232 -0.038827 -0.403726
v 0.449232 -0.040558 -0.404022
v 0.449232 -0.038505 -0.404459
v 0.449232 -0.040252 -0.404962
v 0.449232 -0.038075 -0.405026
v 0.449232 -0.037275 -0.405633
v 0.449232 -0.039831 -0.405753
v 0.449232 -0.03624 -0.406089
v 0.449232 -0.034966 -0.406375
v 0.449232 -0.039262 -0.406442
vn -1.0 -1.490117e-08 0.0
vn 1.0 1.490117e-08 0.0
usemtl material_0_0
f 40//2 41//2 42//2
f 41//2 43//2 42//2
f 43//2 44//2 42//2
f 42//2 44//2 45//2
f 44//2 46//2 45//2
f 45//2 46//2 47//2
f 46//2 48//2 47//2
f 47//2 48//2 49//2
f 48//2 50//2 49//2
f 49//2 50//2 51//2
f 50//2 52//2 51//2
f 52//2 53//2 51//2
f 51//2 53//2 54//2
f 53//2 55//2 54//2
f 55//2 56//2 54//2
f 56//2 57//2 54//2
f 54//2 57//2 58//2
f 57//2 59//2 58//2
f 58//2 59//2 60//2
f 59//2 61//2 60//2
f 60//2 61//2 62//2
f 61//2 63//2 62//2
f 64//2 62//2 63//2
f 41//2 40//2 65//2
f 40//2 66//2 65//2
f 65//2 66//2 67//2
f 66//2 68//2 67//2
f 67//2 68//2 69//2
f 68//2 70//2 69//2
f 69//2 70//2 71//2
f 70//2 72//2 71//2
f 71//2 72//2 73//2
f 73//2 72//2 74//2
f 72//2 75//2 74//2
f 74//2 75//2 76//2
f 76//2 75//2 77//2
f 75//2 78//2 77//2
f 77//2 78//2 56//2
f 57//2 56//2 78//2
usemtl material_1_0
f 1//1 2//1 3//1
f 2//1 1//1 4//1
f 4//1 1//1 5//1
f 4//1 5//1 6//1
f 6//1 5//1 7//1
f 7//1 5//1 8//1
f 7//1 8//1 9//1
f 9//1 8//1 10//1
f 10//1 8//1 11//1
f 10//1 11//1 12//1
f 12//1 11//1 13//1
f 12//1 13//1 14//1
f 14//1 13//1 15//1
f 14//1 15//1 16//1
f 16//1 15//1 17//1
f 16//1 17//1 18//1
f 19//1 20//1 21//1
f 20//1 19//1 22//1
f 20//1 22//1 23//1
f 23//1 22//1 24//1
f 23//1 24//1 25//1
f 25//1 24//1 3//1
f 25//1 3//1 26//1
f 26//1 3//1 2//1
f 26//1 2//1 27//1
f 26//1 27//1 28//1
f 26//1 28//1 29//1
f 29//1 28//1 30//1
f 29//1 30//1 31//1
f 29//1 31//1 32//1
f 32//1 31//1 33//1
f 32//1 33//1 34//1
f 34//1 33//1 35//1
f 34//1 35//1 36//1
f 36//1 35//1 37//1
f 36//1 37//1 38//1
f 38//1 37//1 39//1
f 38//1 39//1 18//1
f 38//1 18//1 17//1
