# SSTK version 0.8.0
# 530
mtllib original-530.mtl
o #ID3500
v -0.330324 0.245886 -0.445054
v -0.327438 0.244822 -0.445429
v -0.329603 0.243956 -0.445693
v -0.336614 0.244814 -0.445431
v -0.329186 0.249156 -0.443902
v -0.32488 0.238463 -0.447284
v -0.336591 0.243955 -0.445692
v -0.336648 0.245886 -0.445053
v -0.331627 0.249168 -0.443897
v -0.327531 0.238463 -0.447283
v -0.332396 0.251079 -0.443129
v -0.330957 0.253442 -0.442176
v -0.332979 0.252748 -0.442456
v -0.333158 0.253439 -0.442177
vn -0.0003274452871759077 0.32479418727973536 -0.9457846629592173
vn 0.0022825541283192814 0.3090349173731425 -0.9510479534654529
vn -0.0006228729196212014 0.2937495092534415 -0.9558822301113713
vn 0.08535703152331614 0.313467405594266 -0.9457549168783251
vn 0.001314188968790583 0.35238559163153144 -0.9358539777752989
vn 0.004757575054448591 0.24893810284899923 -0.9685077110841929
vn 0.08719868355302064 0.2913522118715141 -0.9526333388162502
vn 0.08458195790951287 0.33350839175716623 -0.9389451767934812
vn -2.485904062258148e-05 0.3528555088370788 -0.9356778234335548
vn -0.00048747241846289376 0.2559574096943215 -0.9666879366130595
vn 2.622018983512878e-05 0.3735545976511075 -0.927608194167247
vn -7.518609616915874e-05 0.39480937988388604 -0.9187630531876826
vn -0.00016608500345613952 0.37380470777867447 -0.9275074193009302
vn -0.00013910190528927083 0.39496621501836554 -0.9186956349328792
usemtl material_0_0
f 1//1 2//2 3//3
f 1//1 3//3 4//4
f 5//5 2//2 1//1
f 2//2 6//6 3//3
f 4//4 3//3 7//7
f 1//1 4//4 8//8
f 9//9 5//5 1//1
f 3//3 6//6 10//10
f 11//11 5//5 9//9
f 12//12 5//5 11//11
f 13//13 12//12 11//11
f 12//12 13//13 14//14
