# SSTK version 0.8.0
# 653
mtllib original-653.mtl
o #ID4034
v 0.206129 0.206356 0.552498
v 0.172953 0.201153 0.552498
v 0.199431 0.190185 0.552498
v 0.116123 0.208635 0.552498
v 0.177522 0.218206 0.552498
v 0.054725 0.218206 0.552498
v 0.116123 0.226289 0.552498
v 0.059294 0.201153 0.552498
v 0.026117 0.206356 0.552498
v 0.032816 0.190185 0.552498
v 0.054725 0.218206 0.552498
v 0.116123 0.208635 0.552498
v 0.026117 0.206356 0.552498
v 0.059294 0.201153 0.552498
v 0.032816 0.190185 0.552498
v 0.116123 0.226289 0.552498
v 0.177522 0.218206 0.552498
v 0.206129 0.206356 0.552498
v 0.172953 0.201153 0.552498
v 0.199431 0.190185 0.552498
v 0.206129 0.206356 0.541529
v 0.199431 0.190185 0.552498
v 0.199431 0.190185 0.541529
v 0.206129 0.206356 0.552498
v 0.206129 0.206356 0.552498
v 0.206129 0.206356 0.541529
v 0.199431 0.190185 0.552498
v 0.199431 0.190185 0.541529
v 0.177522 0.218206 0.541529
v 0.206129 0.206356 0.552498
v 0.206129 0.206356 0.541529
v 0.177522 0.218206 0.552498
v 0.177522 0.218206 0.552498
v 0.177522 0.218206 0.541529
v 0.206129 0.206356 0.552498
v 0.206129 0.206356 0.541529
v 0.116123 0.226289 0.541529
v 0.116123 0.226289 0.552498
v 0.116123 0.226289 0.552498
v 0.116123 0.226289 0.541529
v 0.054725 0.218206 0.552498
v 0.054725 0.218206 0.541529
v 0.054725 0.218206 0.541529
v 0.054725 0.218206 0.552498
v 0.026117 0.206356 0.552498
v 0.026117 0.206356 0.541529
v 0.026117 0.206356 0.541529
v 0.026117 0.206356 0.552498
v 0.032816 0.190185 0.552498
v 0.026117 0.206356 0.541529
v 0.032816 0.190185 0.541529
v 0.026117 0.206356 0.552498
v 0.026117 0.206356 0.552498
v 0.032816 0.190185 0.552498
v 0.026117 0.206356 0.541529
v 0.032816 0.190185 0.541529
v 0.026117 0.206356 0.541529
v 0.059294 0.201153 0.541529
v 0.032816 0.190185 0.541529
v 0.116123 0.208635 0.541529
v 0.054725 0.218206 0.541529
v 0.172953 0.201153 0.541529
v 0.206129 0.206356 0.541529
v 0.199431 0.190185 0.541529
v 0.177522 0.218206 0.541529
v 0.116123 0.226289 0.541529
v 0.116123 0.226289 0.541529
v 0.054725 0.218206 0.541529
v 0.177522 0.218206 0.541529
v 0.116123 0.208635 0.541529
v 0.206129 0.206356 0.541529
v 0.172953 0.201153 0.541529
v 0.199431 0.190185 0.541529
v 0.026117 0.206356 0.541529
v 0.059294 0.201153 0.541529
v 0.032816 0.190185 0.541529
vn 0.0 -1.473375777955395e-09 1.0
vn 0.9238795391929063 -0.3826834162342325 -2.2553479850609927e-09
vn 0.2588190095935616 0.9659258358036645 5.692688003714108e-09
vn 0.3826834162342325 0.9238795391929063 5.444888036462703e-09
vn 0.0 1.0 5.893503777955395e-09
vn -0.25881900959356163 0.9659258358036644 5.692687989346764e-09
vn -0.38268341623423263 0.9238795391929063 5.444888015219503e-09
vn -0.9238795391929063 -0.38268341623423263 -2.2553460363465333e-09
vn 0.0 1.473375777955395e-09 -1.0
vn -0.9238795391929063 0.3826834162342325 2.2553479850609927e-09
vn -0.2588190095935616 -0.9659258358036645 -5.692688003714108e-09
vn -0.3826834162342325 -0.9238795391929063 -5.444888036462703e-09
vn 0.0 -1.0 -5.893503777955395e-09
vn 0.25881900959356163 -0.9659258358036644 -5.692687989346764e-09
vn 0.38268341623423263 -0.9238795391929063 -5.444888015219503e-09
vn 0.9238795391929063 0.38268341623423263 2.2553460363465333e-09
usemtl material_0_0
f 11//9 12//9 13//9
f 12//9 14//9 13//9
f 15//9 13//9 14//9
f 16//9 17//9 11//9
f 11//9 17//9 12//9
f 17//9 18//9 12//9
f 12//9 18//9 19//9
f 20//9 19//9 18//9
f 25//10 26//10 27//10
f 28//10 27//10 26//10
f 33//11 34//11 35//12
f 36//12 35//12 34//11
f 39//13 40//13 33//11
f 34//11 33//11 40//13
f 43//14 40//13 44//14
f 39//13 44//14 40//13
f 47//15 43//14 48//15
f 44//14 48//15 43//14
f 53//16 54//16 55//16
f 56//16 55//16 54//16
f 67//1 68//1 69//1
f 68//1 70//1 69//1
f 69//1 70//1 71//1
f 70//1 72//1 71//1
f 73//1 71//1 72//1
f 68//1 74//1 70//1
f 70//1 74//1 75//1
f 76//1 75//1 74//1
usemtl material_1_0
f 1//1 2//1 3//1
f 2//1 1//1 4//1
f 4//1 1//1 5//1
f 4//1 5//1 6//1
f 6//1 5//1 7//1
f 8//1 9//1 10//1
f 9//1 8//1 4//1
f 9//1 4//1 6//1
f 21//2 22//2 23//2
f 22//2 21//2 24//2
f 29//3 30//4 31//4
f 30//4 29//3 32//3
f 37//5 32//3 29//3
f 32//3 37//5 38//5
f 37//5 41//6 38//5
f 41//6 37//5 42//6
f 42//6 45//7 41//6
f 45//7 42//6 46//7
f 49//8 50//8 51//8
f 50//8 49//8 52//8
f 57//9 58//9 59//9
f 58//9 57//9 60//9
f 60//9 57//9 61//9
f 62//9 63//9 64//9
f 63//9 62//9 60//9
f 63//9 60//9 65//9
f 65//9 60//9 61//9
f 65//9 61//9 66//9
