# SSTK version 0.8.0
# 232
mtllib original-232.mtl
o #ID1475
v -0.209099 -0.065041 -0.46651
v -0.198431 -0.067724 -0.46651
v -0.209099 -0.067724 -0.46651
v -0.210758 -0.055319 -0.46651
v -0.198431 -0.058002 -0.46651
v -0.210758 -0.058002 -0.46651
v -0.195423 -0.055319 -0.46651
v -0.195423 -0.07805 -0.46651
v -0.198431 -0.07805 -0.46651
v -0.198431 -0.065041 -0.46651
v -0.198431 -0.058002 -0.46651
v -0.198431 -0.065041 -0.46651
v -0.195423 -0.055319 -0.46651
v -0.209099 -0.065041 -0.46651
v -0.198431 -0.067724 -0.46651
v -0.195423 -0.07805 -0.46651
v -0.198431 -0.07805 -0.46651
v -0.210758 -0.055319 -0.46651
v -0.210758 -0.058002 -0.46651
v -0.209099 -0.067724 -0.46651
vn -1.257438e-09 -1.229346222044605e-09 -1.0
vn 1.257438e-09 1.229346222044605e-09 1.0
usemtl material_0_0
f 1//1 2//1 3//1
f 4//1 5//1 6//1
f 5//1 4//1 7//1
f 2//1 8//1 9//1
f 8//1 2//1 7//1
f 7//1 2//1 10//1
f 10//1 2//1 1//1
f 7//1 10//1 5//1
usemtl material_1_0
f 11//2 12//2 13//2
f 14//2 15//2 12//2
f 12//2 15//2 13//2
f 13//2 15//2 16//2
f 17//2 16//2 15//2
f 13//2 18//2 11//2
f 19//2 11//2 18//2
f 20//2 15//2 14//2
