# SSTK version 0.8.0
# 593
mtllib original-593.mtl
o #ID3706
v -0.210182 -0.235738 -0.082865
v -0.208282 -0.233006 -0.082696
v -0.210182 -0.232229 -0.082865
v -0.208704 -0.236397 -0.082733
v -0.206605 -0.236986 -0.082546
v -0.206101 -0.233607 -0.082501
v -0.204166 -0.237398 -0.082328
v -0.203826 -0.233995 -0.082298
v -0.201668 -0.237551 -0.082105
v -0.201668 -0.234137 -0.082105
v -0.199123 -0.237413 -0.081878
v -0.198537 -0.233854 -0.081826
v -0.196789 -0.236998 -0.08167
v -0.195921 -0.232912 -0.081593
v -0.19471 -0.236297 -0.081484
v -0.194913 -0.232132 -0.081503
v -0.194139 -0.231111 -0.081433
v -0.192929 -0.235302 -0.081325
v -0.193646 -0.229824 -0.081389
v -0.193482 -0.22825 -0.081375
v -0.209974 -0.216175 -0.082847
v -0.209963 -0.21184 -0.082846
v -0.210182 -0.214074 -0.082865
v -0.209349 -0.217865 -0.082791
v -0.209307 -0.209941 -0.082787
v -0.208382 -0.219213 -0.082705
v -0.208277 -0.20836 -0.082695
v -0.207145 -0.22029 -0.082594
v -0.206938 -0.20708 -0.082576
v -0.206007 -0.21506 -0.082493
v -0.204025 -0.221762 -0.082316
v -0.206148 -0.213791 -0.082505
v -0.205586 -0.216087 -0.082455
v -0.204078 -0.217582 -0.08232
v -0.201879 -0.218548 -0.082124
v -0.200448 -0.222716 -0.081997
v -0.199271 -0.219254 -0.081892
v -0.19781 -0.223422 -0.081761
v -0.195681 -0.220243 -0.081571
v -0.195593 -0.2244 -0.081563
v -0.194012 -0.220888 -0.081422
v -0.194057 -0.225918 -0.081426
v -0.193626 -0.22696 -0.081388
v -0.192535 -0.221739 -0.08129
v -0.191474 -0.234001 -0.081196
v -0.191287 -0.222837 -0.081179
v -0.190372 -0.232382 -0.081097
v -0.190302 -0.224223 -0.081091
v -0.189679 -0.230437 -0.081035
v -0.189661 -0.225971 -0.081034
v -0.189448 -0.228155 -0.081015
v -0.205331 -0.206097 -0.082432
v -0.205726 -0.211519 -0.082468
v -0.205192 -0.210571 -0.08242
v -0.203497 -0.205408 -0.082269
v -0.204436 -0.209776 -0.082352
v -0.202254 -0.208669 -0.082158
v -0.201486 -0.205002 -0.082089
v -0.199158 -0.208281 -0.081881
v -0.199346 -0.204866 -0.081898
v -0.194667 -0.205349 -0.081481
v -0.194713 -0.208823 -0.081485
v -0.190691 -0.210165 -0.081126
v -0.190691 -0.206609 -0.081126
vn -0.08889427092854887 0.0 0.9960410677256646
usemtl material_0_0
f 1//1 2//1 3//1
f 2//1 1//1 4//1
f 2//1 4//1 5//1
f 2//1 5//1 6//1
f 6//1 5//1 7//1
f 6//1 7//1 8//1
f 8//1 7//1 9//1
f 8//1 9//1 10//1
f 10//1 9//1 11//1
f 10//1 11//1 12//1
f 12//1 11//1 13//1
f 12//1 13//1 14//1
f 14//1 13//1 15//1
f 14//1 15//1 16//1
f 16//1 15//1 17//1
f 17//1 15//1 18//1
f 17//1 18//1 19//1
f 19//1 18//1 20//1
f 21//1 22//1 23//1
f 22//1 21//1 24//1
f 22//1 24//1 25//1
f 25//1 24//1 26//1
f 25//1 26//1 27//1
f 27//1 26//1 28//1
f 27//1 28//1 29//1
f 29//1 28//1 30//1
f 30//1 28//1 31//1
f 29//1 30//1 32//1
f 30//1 31//1 33//1
f 33//1 31//1 34//1
f 34//1 31//1 35//1
f 35//1 31//1 36//1
f 35//1 36//1 37//1
f 37//1 36//1 38//1
f 37//1 38//1 39//1
f 39//1 38//1 40//1
f 39//1 40//1 41//1
f 41//1 40//1 42//1
f 41//1 42//1 43//1
f 41//1 43//1 44//1
f 44//1 43//1 20//1
f 44//1 20//1 18//1
f 44//1 18//1 45//1
f 44//1 45//1 46//1
f 46//1 45//1 47//1
f 46//1 47//1 48//1
f 48//1 47//1 49//1
f 48//1 49//1 50//1
f 50//1 49//1 51//1
f 32//1 52//1 29//1
f 52//1 32//1 53//1
f 52//1 53//1 54//1
f 52//1 54//1 55//1
f 55//1 54//1 56//1
f 55//1 56//1 57//1
f 55//1 57//1 58//1
f 58//1 57//1 59//1
f 58//1 59//1 60//1
f 60//1 59//1 61//1
f 61//1 59//1 62//1
f 61//1 62//1 63//1
f 61//1 63//1 64//1
