# SSTK version 0.8.0
# 374
mtllib original-374.mtl
o #ID2609
v 0.449232 -0.039051 -0.435916
v 0.449232 -0.034885 -0.435817
v 0.449232 -0.033565 -0.435904
v 0.449232 -0.039657 -0.43524
v 0.449232 -0.036045 -0.435554
v 0.449232 -0.037046 -0.435117
v 0.449232 -0.040157 -0.43447
v 0.449232 -0.037887 -0.434505
v 0.449232 -0.038554 -0.433757
v 0.449232 -0.040549 -0.433638
v 0.449232 -0.03903 -0.432913
v 0.449232 -0.040828 -0.432774
v 0.449232 -0.039315 -0.431974
v 0.449232 -0.040996 -0.431877
v 0.449232 -0.03941 -0.430939
v 0.449232 -0.041052 -0.430949
v 0.449232 -0.04099 -0.429952
v 0.449232 -0.039316 -0.429921
v 0.449232 -0.040805 -0.42901
v 0.449232 -0.039033 -0.428992
v 0.449232 -0.040496 -0.428123
v 0.449232 -0.038562 -0.428153
v 0.449232 -0.037902 -0.427403
v 0.449232 -0.040063 -0.427289
v 0.449232 -0.037078 -0.426787
v 0.449232 -0.039523 -0.426532
v 0.449232 -0.036116 -0.426346
v 0.449232 -0.038894 -0.425873
v 0.449232 -0.035014 -0.426082
v 0.449232 -0.033773 -0.425994
v 0.449232 -0.028091 -0.425954
v 0.449232 -0.02921 -0.425106
v 0.449232 -0.038173 -0.425311
v 0.449232 -0.037363 -0.424847
v 0.449232 -0.030525 -0.4245
v 0.449232 -0.035603 -0.424223
v 0.449232 -0.032036 -0.424137
v 0.449232 -0.033743 -0.424016
v 0.449232 -0.034649 -0.437826
v 0.449232 -0.032516 -0.437829
v 0.449232 -0.033575 -0.437882
v 0.449232 -0.031514 -0.437671
v 0.449232 -0.035664 -0.43766
v 0.449232 -0.03057 -0.437406
v 0.449232 -0.036622 -0.437381
v 0.449232 -0.029683 -0.437036
v 0.449232 -0.037521 -0.436992
v 0.449232 -0.028872 -0.436566
v 0.449232 -0.038339 -0.436501
v 0.449232 -0.028156 -0.435999
v 0.449232 -0.031907 -0.435754
v 0.449232 -0.027535 -0.435337
v 0.449232 -0.030474 -0.435306
v 0.449232 -0.027008 -0.434579
v 0.449232 -0.029302 -0.434569
v 0.449232 -0.026588 -0.433748
v 0.449232 -0.028427 -0.433555
v 0.449232 -0.026288 -0.432868
v 0.449232 -0.027882 -0.432332
v 0.449232 -0.026108 -0.431938
v 0.449232 -0.0277 -0.430969
v 0.449232 -0.026048 -0.430959
v 0.449232 -0.027788 -0.429986
v 0.449232 -0.026176 -0.429496
v 0.449232 -0.02805 -0.429073
v 0.449232 -0.026559 -0.428175
v 0.449232 -0.028487 -0.428232
v 0.449232 -0.0291 -0.427463
v 0.449232 -0.027197 -0.426994
v 0.449232 -0.029916 -0.42682
v 0.449232 -0.030968 -0.426361
v 0.449232 -0.032253 -0.426086
v 0.449232 -0.033773 -0.425994
v 0.449232 -0.032253 -0.426086
v 0.449232 -0.028091 -0.425954
v 0.449232 -0.030968 -0.426361
v 0.449232 -0.029916 -0.42682
v 0.449232 -0.027197 -0.426994
v 0.449232 -0.0291 -0.427463
v 0.449232 -0.026559 -0.428175
v 0.449232 -0.028487 -0.428232
v 0.449232 -0.02805 -0.429073
v 0.449232 -0.026176 -0.429496
v 0.449232 -0.027788 -0.429986
v 0.449232 -0.026048 -0.430959
v 0.449232 -0.0277 -0.430969
v 0.449232 -0.026108 -0.431938
v 0.449232 -0.027882 -0.432332
v 0.449232 -0.026288 -0.432868
v 0.449232 -0.028427 -0.433555
v 0.449232 -0.026588 -0.433748
v 0.449232 -0.029302 -0.434569
v 0.449232 -0.027008 -0.434579
v 0.449232 -0.030474 -0.435306
v 0.449232 -0.027535 -0.435337
v 0.449232 -0.031907 -0.435754
v 0.449232 -0.028156 -0.435999
v 0.449232 -0.033565 -0.435904
v 0.449232 -0.039051 -0.435916
v 0.449232 -0.038339 -0.436501
v 0.449232 -0.028872 -0.436566
v 0.449232 -0.037521 -0.436992
v 0.449232 -0.029683 -0.437036
v 0.449232 -0.036622 -0.437381
v 0.449232 -0.03057 -0.437406
v 0.449232 -0.035664 -0.43766
v 0.449232 -0.031514 -0.437671
v 0.449232 -0.034649 -0.437826
v 0.449232 -0.032516 -0.437829
v 0.449232 -0.033575 -0.437882
v 0.449232 -0.033743 -0.424016
v 0.449232 -0.035603 -0.424223
v 0.449232 -0.032036 -0.424137
v 0.449232 -0.030525 -0.4245
v 0.449232 -0.037363 -0.424847
v 0.449232 -0.02921 -0.425106
v 0.449232 -0.038173 -0.425311
v 0.449232 -0.038894 -0.425873
v 0.449232 -0.035014 -0.426082
v 0.449232 -0.036116 -0.426346
v 0.449232 -0.039523 -0.426532
v 0.449232 -0.037078 -0.426787
v 0.449232 -0.040063 -0.427289
v 0.449232 -0.037902 -0.427403
v 0.449232 -0.040496 -0.428123
v 0.449232 -0.038562 -0.428153
v 0.449232 -0.039033 -0.428992
v 0.449232 -0.040805 -0.42901
v 0.449232 -0.039316 -0.429921
v 0.449232 -0.04099 -0.429952
v 0.449232 -0.03941 -0.430939
v 0.449232 -0.041052 -0.430949
v 0.449232 -0.040996 -0.431877
v 0.449232 -0.039315 -0.431974
v 0.449232 -0.040828 -0.432774
v 0.449232 -0.03903 -0.432913
v 0.449232 -0.040549 -0.433638
v 0.449232 -0.038554 -0.433757
v 0.449232 -0.040157 -0.43447
v 0.449232 -0.037887 -0.434505
v 0.449232 -0.037046 -0.435117
v 0.449232 -0.039657 -0.43524
v 0.449232 -0.036045 -0.435554
v 0.449232 -0.034885 -0.435817
vn -1.0 -1.490117e-08 0.0
vn 1.0 1.490117e-08 0.0
usemtl material_0_0
f 73//2 74//2 75//2
f 74//2 76//2 75//2
f 76//2 77//2 75//2
f 75//2 77//2 78//2
f 77//2 79//2 78//2
f 78//2 79//2 80//2
f 79//2 81//2 80//2
f 81//2 82//2 80//2
f 80//2 82//2 83//2
f 82//2 84//2 83//2
f 83//2 84//2 85//2
f 84//2 86//2 85//2
f 85//2 86//2 87//2
f 86//2 88//2 87//2
f 87//2 88//2 89//2
f 88//2 90//2 89//2
f 89//2 90//2 91//2
f 90//2 92//2 91//2
f 91//2 92//2 93//2
f 92//2 94//2 93//2
f 93//2 94//2 95//2
f 94//2 96//2 95//2
f 95//2 96//2 97//2
f 96//2 98//2 97//2
f 98//2 99//2 97//2
f 99//2 100//2 97//2
f 97//2 100//2 101//2
f 100//2 102//2 101//2
f 101//2 102//2 103//2
f 102//2 104//2 103//2
f 103//2 104//2 105//2
f 104//2 106//2 105//2
f 105//2 106//2 107//2
f 106//2 108//2 107//2
f 107//2 108//2 109//2
f 110//2 109//2 108//2
f 111//2 112//2 113//2
f 113//2 112//2 114//2
f 112//2 115//2 114//2
f 114//2 115//2 116//2
f 115//2 117//2 116//2
f 117//2 118//2 116//2
f 116//2 118//2 75//2
f 75//2 118//2 73//2
f 73//2 118//2 119//2
f 119//2 118//2 120//2
f 118//2 121//2 120//2
f 120//2 121//2 122//2
f 121//2 123//2 122//2
f 122//2 123//2 124//2
f 123//2 125//2 124//2
f 124//2 125//2 126//2
f 126//2 125//2 127//2
f 125//2 128//2 127//2
f 127//2 128//2 129//2
f 128//2 130//2 129//2
f 129//2 130//2 131//2
f 130//2 132//2 131//2
f 132//2 133//2 131//2
f 131//2 133//2 134//2
f 133//2 135//2 134//2
f 134//2 135//2 136//2
f 135//2 137//2 136//2
f 136//2 137//2 138//2
f 137//2 139//2 138//2
f 138//2 139//2 140//2
f 140//2 139//2 141//2
f 139//2 142//2 141//2
f 141//2 142//2 143//2
f 143//2 142//2 144//2
f 142//2 99//2 144//2
f 98//2 144//2 99//2
usemtl material_1_0
f 1//1 2//1 3//1
f 2//1 1//1 4//1
f 2//1 4//1 5//1
f 5//1 4//1 6//1
f 6//1 4//1 7//1
f 6//1 7//1 8//1
f 8//1 7//1 9//1
f 9//1 7//1 10//1
f 9//1 10//1 11//1
f 11//1 10//1 12//1
f 11//1 12//1 13//1
f 13//1 12//1 14//1
f 13//1 14//1 15//1
f 15//1 14//1 16//1
f 15//1 16//1 17//1
f 15//1 17//1 18//1
f 18//1 17//1 19//1
f 18//1 19//1 20//1
f 20//1 19//1 21//1
f 20//1 21//1 22//1
f 22//1 21//1 23//1
f 23//1 21//1 24//1
f 23//1 24//1 25//1
f 25//1 24//1 26//1
f 25//1 26//1 27//1
f 27//1 26//1 28//1
f 27//1 28//1 29//1
f 29//1 28//1 30//1
f 30//1 28//1 31//1
f 31//1 28//1 32//1
f 32//1 28//1 33//1
f 32//1 33//1 34//1
f 32//1 34//1 35//1
f 35//1 34//1 36//1
f 35//1 36//1 37//1
f 37//1 36//1 38//1
f 39//1 40//1 41//1
f 40//1 39//1 42//1
f 42//1 39//1 43//1
f 42//1 43//1 44//1
f 44//1 43//1 45//1
f 44//1 45//1 46//1
f 46//1 45//1 47//1
f 46//1 47//1 48//1
f 48//1 47//1 49//1
f 48//1 49//1 50//1
f 50//1 49//1 1//1
f 50//1 1//1 3//1
f 50//1 3//1 51//1
f 50//1 51//1 52//1
f 52//1 51//1 53//1
f 52//1 53//1 54//1
f 54//1 53//1 55//1
f 54//1 55//1 56//1
f 56//1 55//1 57//1
f 56//1 57//1 58//1
f 58//1 57//1 59//1
f 58//1 59//1 60//1
f 60//1 59//1 61//1
f 60//1 61//1 62//1
f 62//1 61//1 63//1
f 62//1 63//1 64//1
f 64//1 63//1 65//1
f 64//1 65//1 66//1
f 66//1 65//1 67//1
f 66//1 67//1 68//1
f 66//1 68//1 69//1
f 69//1 68//1 70//1
f 69//1 70//1 31//1
f 31//1 70//1 71//1
f 31//1 71//1 72//1
f 31//1 72//1 30//1
