# SSTK version 0.8.0
# 651
mtllib original-651.mtl
o #ID4534
v 0.266949 0.139889 0.583304
v 0.222773 0.173786 0.552381
v 0.266949 0.139889 0.552381
v 0.222773 0.173786 0.583304
v 0.222773 0.173786 0.583304
v 0.266949 0.139889 0.583304
v 0.222773 0.173786 0.552381
v 0.266949 0.139889 0.552381
v 0.171329 0.195095 0.583304
v 0.171329 0.195095 0.552381
v 0.171329 0.195095 0.552381
v 0.171329 0.195095 0.583304
v 0.300846 0.095713 0.583304
v 0.300846 0.095713 0.552381
v 0.300846 0.095713 0.583304
v 0.300846 0.095713 0.552381
v 0.116123 0.202363 0.552381
v 0.116123 0.202363 0.583304
v 0.116123 0.202363 0.583304
v 0.116123 0.202363 0.552381
v 0.322155 0.044269 0.583304
v 0.322155 0.044269 0.552381
v 0.322155 0.044269 0.583304
v 0.322155 0.044269 0.552381
v 0.060917 0.195095 0.583304
v 0.060917 0.195095 0.552381
v 0.060917 0.195095 0.552381
v 0.060917 0.195095 0.583304
v 0.329423 -0.010937 0.583304
v 0.329423 -0.010937 0.552381
v 0.329423 -0.010937 0.583304
v 0.329423 -0.010937 0.552381
v 0.009473 0.173786 0.583304
v 0.009473 0.173786 0.552381
v 0.009473 0.173786 0.552381
v 0.009473 0.173786 0.583304
v 0.322155 -0.066143 0.583304
v 0.322155 -0.066143 0.552381
v 0.322155 -0.066143 0.583304
v 0.322155 -0.066143 0.552381
v -0.034702 0.139889 0.583304
v -0.034702 0.139889 0.552381
v -0.034702 0.139889 0.552381
v -0.034702 0.139889 0.583304
v 0.300846 -0.117587 0.583304
v 0.300846 -0.117587 0.552381
v 0.300846 -0.117587 0.583304
v 0.300846 -0.117587 0.552381
v -0.0686 0.095713 0.583304
v -0.0686 0.095713 0.552381
v -0.0686 0.095713 0.583304
v -0.0686 0.095713 0.552381
v 0.266949 -0.161763 0.583304
v 0.266949 -0.161763 0.552381
v 0.266949 -0.161763 0.583304
v 0.266949 -0.161763 0.552381
v -0.089908 0.044269 0.583304
v -0.089908 0.044269 0.552381
v -0.089908 0.044269 0.583304
v -0.089908 0.044269 0.552381
v 0.222773 -0.19566 0.552381
v 0.222773 -0.19566 0.583304
v 0.222773 -0.19566 0.583304
v 0.222773 -0.19566 0.552381
v -0.097176 -0.010937 0.583304
v -0.097176 -0.010937 0.552381
v -0.097176 -0.010937 0.583304
v -0.097176 -0.010937 0.552381
v 0.171329 -0.216969 0.583304
v 0.171329 -0.216969 0.552381
v 0.171329 -0.216969 0.552381
v 0.171329 -0.216969 0.583304
v -0.089908 -0.066143 0.583304
v -0.089908 -0.066143 0.552381
v -0.089908 -0.066143 0.583304
v -0.089908 -0.066143 0.552381
v 0.116123 -0.224237 0.552381
v 0.116123 -0.224237 0.583304
v 0.116123 -0.224237 0.583304
v 0.116123 -0.224237 0.552381
v -0.0686 -0.117587 0.583304
v -0.0686 -0.117587 0.552381
v -0.0686 -0.117587 0.583304
v -0.0686 -0.117587 0.552381
v 0.060917 -0.216969 0.583304
v 0.060917 -0.216969 0.552381
v 0.060917 -0.216969 0.552381
v 0.060917 -0.216969 0.583304
v -0.034702 -0.161763 0.583304
v -0.034702 -0.161763 0.552381
v -0.034702 -0.161763 0.583304
v -0.034702 -0.161763 0.552381
v 0.009473 -0.19566 0.552381
v 0.009473 -0.19566 0.583304
v 0.009473 -0.19566 0.583304
v 0.009473 -0.19566 0.552381
vn -0.7071067811865475 -0.7071067811865475 -2.083667787552185e-09
vn -0.5000000016387101 -0.8660254028383291 -2.55196081606758e-09
vn 0.5000000016387101 0.8660254028383291 2.55196081606758e-09
vn 0.7071067811865475 0.7071067811865475 2.083667787552185e-09
vn -0.25881900959356163 -0.9659258358036645 -2.846342891025871e-09
vn 0.25881900959356163 0.9659258358036645 2.846342891025871e-09
vn -0.8660254028383291 -0.5000000016387101 -1.4733758938065694e-09
vn 0.8660254028383291 0.5000000016387101 1.4733758938065694e-09
vn 0.0 -1.0 -2.9467507779553954e-09
vn 0.0 1.0 2.9467507779553954e-09
vn -0.9659258358036645 -0.25881900959356163 0.0
vn 0.9659258358036645 0.25881900959356163 0.0
vn 0.25881900959356163 -0.9659258358036645 -2.846342891025871e-09
vn -0.25881900959356163 0.9659258358036645 2.846342891025871e-09
vn -1.0 0.0 0.0
vn 1.0 0.0 0.0
vn 0.5000000016387101 -0.8660254028383291 -2.55196081606758e-09
vn -0.5000000016387101 0.8660254028383291 2.55196081606758e-09
vn -0.9659258358036645 0.25881900959356163 0.0
vn 0.9659258358036645 -0.25881900959356163 0.0
vn 0.7071067811865475 -0.7071067811865475 -2.083667787552185e-09
vn -0.7071067811865475 0.7071067811865475 2.083667787552185e-09
vn -0.8660254028383291 0.5000000016387101 1.4733758938065694e-09
vn 0.8660254028383291 -0.5000000016387101 -1.4733758938065694e-09
vn -0.5000000016387101 0.8660254028383291 2.5519618160675836e-09
vn 0.5000000016387101 -0.8660254028383291 -2.5519618160675836e-09
usemtl material_0_0
f 1//1 2//2 3//1
f 2//2 1//1 4//2
f 5//3 6//4 7//3
f 8//4 7//3 6//4
f 9//5 2//2 4//2
f 2//2 9//5 10//5
f 11//6 12//6 7//3
f 5//3 7//3 12//6
f 13//7 3//1 14//7
f 3//1 13//7 1//1
f 6//4 15//8 8//4
f 16//8 8//4 15//8
f 9//5 17//9 10//5
f 17//9 9//5 18//9
f 19//10 12//6 20//10
f 11//6 20//10 12//6
f 21//11 14//7 22//11
f 14//7 21//11 13//7
f 15//8 23//12 16//8
f 24//12 16//8 23//12
f 25//13 17//9 18//9
f 17//9 25//13 26//13
f 27//14 28//14 20//10
f 19//10 20//10 28//14
f 29//15 22//11 30//15
f 22//11 29//15 21//11
f 23//12 31//16 24//12
f 32//16 24//12 31//16
f 33//17 26//13 25//13
f 26//13 33//17 34//17
f 35//18 36//18 27//14
f 28//14 27//14 36//18
f 37//19 30//15 38//19
f 30//15 37//19 29//15
f 31//16 39//20 32//16
f 40//20 32//16 39//20
f 41//21 34//17 33//17
f 34//17 41//21 42//21
f 43//22 44//22 35//18
f 36//18 35//18 44//22
f 45//23 38//19 46//23
f 38//19 45//23 37//19
f 39//20 47//24 40//20
f 48//24 40//20 47//24
f 42//21 49//24 50//24
f 49//24 42//21 41//21
f 44//22 43//22 51//23
f 52//23 51//23 43//22
f 53//22 46//23 54//22
f 46//23 53//22 45//23
f 47//24 55//21 48//24
f 56//21 48//24 55//21
f 50//24 57//20 58//20
f 57//20 50//24 49//24
f 51//23 52//23 59//19
f 60//19 59//19 52//23
f 61//25 53//22 54//22
f 53//22 61//25 62//25
f 63//26 64//26 55//21
f 56//21 55//21 64//26
f 58//20 65//16 66//16
f 65//16 58//20 57//20
f 59//19 60//19 67//15
f 68//15 67//15 60//19
f 61//25 69//14 62//25
f 69//14 61//25 70//14
f 71//13 64//26 72//13
f 63//26 72//13 64//26
f 66//16 73//12 74//12
f 73//12 66//16 65//16
f 67//15 68//15 75//11
f 76//11 75//11 68//15
f 77//10 69//14 70//14
f 69//14 77//10 78//10
f 79//9 80//9 72//13
f 71//13 72//13 80//9
f 74//12 81//8 82//8
f 81//8 74//12 73//12
f 75//11 76//11 83//7
f 84//7 83//7 76//11
f 77//10 85//6 78//10
f 85//6 77//10 86//6
f 87//5 80//9 88//5
f 79//9 88//5 80//9
f 82//8 89//4 90//4
f 89//4 82//8 81//8
f 83//7 84//7 91//1
f 92//1 91//1 84//7
f 93//3 85//6 86//6
f 85//6 93//3 94//3
f 95//2 96//2 88//5
f 87//5 88//5 96//2
f 93//3 89//4 94//3
f 89//4 93//3 90//4
f 92//1 96//2 91//1
f 95//2 91//1 96//2
