# SSTK version 0.8.0
# 164
mtllib original-164.mtl
o #ID829
v 0.103654 0.373694 0.043098
v 0.098907 0.373187 0.042672
v 0.105252 0.373187 0.042672
v 0.095333 0.375288 0.044436
v 0.097768 0.377153 0.046001
v 0.090269 0.380343 0.048677
v 0.093252 0.381662 0.049784
v 0.087086 0.38623 0.053617
v 0.090413 0.386913 0.05419
v 0.086 0.392547 0.058918
v 0.089444 0.392547 0.058918
v 0.090413 0.398182 0.063646
v 0.087086 0.398865 0.064219
v 0.093252 0.403432 0.068051
v 0.090269 0.404751 0.069158
v 0.097768 0.407941 0.071835
v 0.095333 0.409806 0.0734
v 0.103654 0.411401 0.074738
v 0.098907 0.411908 0.075163
v 0.105252 0.411908 0.075163
v 0.105252 0.411908 0.075163
v 0.103654 0.411401 0.074738
v 0.098907 0.411908 0.075163
v 0.095333 0.409806 0.0734
v 0.097768 0.407941 0.071835
v 0.090269 0.404751 0.069158
v 0.093252 0.403432 0.068051
v 0.087086 0.398865 0.064219
v 0.090413 0.398182 0.063646
v 0.086 0.392547 0.058918
v 0.089444 0.392547 0.058918
v 0.090413 0.386913 0.05419
v 0.087086 0.38623 0.053617
v 0.093252 0.381662 0.049784
v 0.090269 0.380343 0.048677
v 0.097768 0.377153 0.046001
v 0.095333 0.375288 0.044436
v 0.103654 0.373694 0.043098
v 0.098907 0.373187 0.042672
v 0.105252 0.373187 0.042672
vn 0.0 -0.6427875875138863 0.7660444617240425
vn 0.0 0.6427875875138863 -0.7660444617240425
usemtl material_0_0
f 21//2 22//2 23//2
f 23//2 22//2 24//2
f 22//2 25//2 24//2
f 24//2 25//2 26//2
f 25//2 27//2 26//2
f 26//2 27//2 28//2
f 27//2 29//2 28//2
f 28//2 29//2 30//2
f 29//2 31//2 30//2
f 31//2 32//2 30//2
f 30//2 32//2 33//2
f 32//2 34//2 33//2
f 33//2 34//2 35//2
f 34//2 36//2 35//2
f 35//2 36//2 37//2
f 36//2 38//2 37//2
f 37//2 38//2 39//2
f 40//2 39//2 38//2
usemtl material_1_0
f 1//1 2//1 3//1
f 2//1 1//1 4//1
f 4//1 1//1 5//1
f 4//1 5//1 6//1
f 6//1 5//1 7//1
f 6//1 7//1 8//1
f 8//1 7//1 9//1
f 8//1 9//1 10//1
f 10//1 9//1 11//1
f 10//1 11//1 12//1
f 10//1 12//1 13//1
f 13//1 12//1 14//1
f 13//1 14//1 15//1
f 15//1 14//1 16//1
f 15//1 16//1 17//1
f 17//1 16//1 18//1
f 17//1 18//1 19//1
f 19//1 18//1 20//1
