# SSTK version 0.8.0
# 328
mtllib original-328.mtl
o #ID1821
v -0.144315 -0.313755 -0.353915
v -0.144769 -0.313466 -0.350472
v -0.144315 -0.313466 -0.353915
v -0.144769 -0.313755 -0.350472
v -0.144769 -0.313755 -0.350472
v -0.144315 -0.313755 -0.353915
v -0.144769 -0.313466 -0.350472
v -0.144315 -0.313466 -0.353915
v -0.142987 -0.313755 -0.357123
v -0.142987 -0.313466 -0.357123
v -0.142987 -0.313755 -0.357123
v -0.142987 -0.313466 -0.357123
v -0.131466 -0.313755 -0.363775
v -0.134736 -0.313755 -0.356363
v -0.134909 -0.313755 -0.363322
v -0.13158 -0.313755 -0.357209
v -0.130311 -0.313755 -0.352473
v -0.128023 -0.313755 -0.363322
v -0.125575 -0.313755 -0.353742
v -0.124815 -0.313755 -0.361993
v -0.124735 -0.313755 -0.350615
v -0.12206 -0.313755 -0.359879
v -0.128224 -0.313755 -0.344571
v -0.129501 -0.313755 -0.349338
v -0.128023 -0.313755 -0.337623
v -0.124815 -0.313755 -0.338952
v -0.12206 -0.313755 -0.341066
v -0.119945 -0.313755 -0.357123
v -0.119945 -0.313755 -0.343821
v -0.118617 -0.313755 -0.353915
v -0.118617 -0.313755 -0.347029
v -0.118163 -0.313755 -0.350472
v -0.138203 -0.313755 -0.350358
v -0.138117 -0.313755 -0.338952
v -0.140872 -0.313755 -0.341066
v -0.137357 -0.313755 -0.347202
v -0.134909 -0.313755 -0.337623
v -0.132621 -0.313755 -0.348471
v -0.131466 -0.313755 -0.337169
v -0.131352 -0.313755 -0.343735
v -0.144315 -0.313755 -0.353915
v -0.144315 -0.313755 -0.347029
v -0.144769 -0.313755 -0.350472
v -0.142987 -0.313755 -0.357123
v -0.142987 -0.313755 -0.343821
v -0.140872 -0.313755 -0.359879
v -0.138117 -0.313755 -0.361993
v -0.133467 -0.313755 -0.351627
v -0.134909 -0.313755 -0.363322
v -0.138117 -0.313755 -0.361993
v -0.134736 -0.313755 -0.356363
v -0.133467 -0.313755 -0.351627
v -0.138203 -0.313755 -0.350358
v -0.140872 -0.313755 -0.341066
v -0.140872 -0.313755 -0.359879
v -0.142987 -0.313755 -0.343821
v -0.142987 -0.313755 -0.357123
v -0.144315 -0.313755 -0.347029
v -0.144315 -0.313755 -0.353915
v -0.144769 -0.313755 -0.350472
v -0.128224 -0.313755 -0.344571
v -0.131352 -0.313755 -0.343735
v -0.128023 -0.313755 -0.337623
v -0.131466 -0.313755 -0.337169
v -0.132621 -0.313755 -0.348471
v -0.134909 -0.313755 -0.337623
v -0.137357 -0.313755 -0.347202
v -0.138117 -0.313755 -0.338952
v -0.118163 -0.313755 -0.350472
v -0.118617 -0.313755 -0.353915
v -0.118617 -0.313755 -0.347029
v -0.119945 -0.313755 -0.343821
v -0.119945 -0.313755 -0.357123
v -0.12206 -0.313755 -0.341066
v -0.12206 -0.313755 -0.359879
v -0.124735 -0.313755 -0.350615
v -0.124815 -0.313755 -0.338952
v -0.129501 -0.313755 -0.349338
v -0.124815 -0.313755 -0.361993
v -0.125575 -0.313755 -0.353742
v -0.128023 -0.313755 -0.363322
v -0.130311 -0.313755 -0.352473
v -0.131466 -0.313755 -0.363775
v -0.13158 -0.313755 -0.357209
v -0.144315 -0.313466 -0.347029
v -0.144315 -0.313755 -0.347029
v -0.144315 -0.313755 -0.347029
v -0.144315 -0.313466 -0.347029
v -0.140872 -0.313755 -0.359879
v -0.140872 -0.313466 -0.359879
v -0.140872 -0.313755 -0.359879
v -0.140872 -0.313466 -0.359879
v -0.142987 -0.313466 -0.343821
v -0.142987 -0.313755 -0.343821
v -0.142987 -0.313755 -0.343821
v -0.142987 -0.313466 -0.343821
v -0.138117 -0.313466 -0.361993
v -0.138117 -0.313755 -0.361993
v -0.138117 -0.313755 -0.361993
v -0.138117 -0.313466 -0.361993
v -0.134909 -0.313755 -0.363322
v -0.134909 -0.313466 -0.363322
v -0.134909 -0.313755 -0.363322
v -0.134909 -0.313466 -0.363322
v -0.131466 -0.313466 -0.363775
v -0.131466 -0.313755 -0.363775
v -0.131466 -0.313755 -0.363775
v -0.131466 -0.313466 -0.363775
v -0.128023 -0.313755 -0.363322
v -0.128023 -0.313466 -0.363322
v -0.128023 -0.313755 -0.363322
v -0.128023 -0.313466 -0.363322
v -0.124815 -0.313755 -0.361993
v -0.124815 -0.313466 -0.361993
v -0.124815 -0.313755 -0.361993
v -0.124815 -0.313466 -0.361993
v -0.12206 -0.313755 -0.359879
v -0.12206 -0.313466 -0.359879
v -0.12206 -0.313755 -0.359879
v -0.12206 -0.313466 -0.359879
v -0.119945 -0.313466 -0.357123
v -0.119945 -0.313755 -0.357123
v -0.119945 -0.313755 -0.357123
v -0.119945 -0.313466 -0.357123
v -0.118617 -0.313466 -0.353915
v -0.118617 -0.313755 -0.353915
v -0.118617 -0.313755 -0.353915
v -0.118617 -0.313466 -0.353915
v -0.118163 -0.313466 -0.350472
v -0.118163 -0.313755 -0.350472
v -0.118163 -0.313755 -0.350472
v -0.118163 -0.313466 -0.350472
v -0.118617 -0.313466 -0.347029
v -0.118617 -0.313755 -0.347029
v -0.118617 -0.313755 -0.347029
v -0.118617 -0.313466 -0.347029
v -0.119945 -0.313466 -0.343821
v -0.119945 -0.313755 -0.343821
v -0.119945 -0.313755 -0.343821
v -0.119945 -0.313466 -0.343821
v -0.12206 -0.313466 -0.341066
v -0.12206 -0.313755 -0.341066
v -0.12206 -0.313755 -0.341066
v -0.12206 -0.313466 -0.341066
v -0.124815 -0.313755 -0.338952
v -0.124815 -0.313466 -0.338952
v -0.124815 -0.313755 -0.338952
v -0.124815 -0.313466 -0.338952
v -0.128023 -0.313466 -0.337623
v -0.128023 -0.313755 -0.337623
v -0.128023 -0.313755 -0.337623
v -0.128023 -0.313466 -0.337623
v -0.131466 -0.313755 -0.337169
v -0.131466 -0.313466 -0.337169
v -0.131466 -0.313755 -0.337169
v -0.131466 -0.313466 -0.337169
v -0.134909 -0.313755 -0.337623
v -0.134909 -0.313466 -0.337623
v -0.134909 -0.313755 -0.337623
v -0.134909 -0.313466 -0.337623
v -0.138117 -0.313755 -0.338952
v -0.138117 -0.313466 -0.338952
v -0.138117 -0.313755 -0.338952
v -0.138117 -0.313466 -0.338952
v -0.140872 -0.313466 -0.341066
v -0.140872 -0.313755 -0.341066
v -0.140872 -0.313755 -0.341066
v -0.140872 -0.313466 -0.341066
vt 0.7051935 0.7549423
vt 0.7055138 0.7520022
vt 0.706453 0.7492624
vt 0.7121615 0.7439696
vt 0.7098941 0.7451045
vt 0.7122838 0.7499115
vt 0.7131807 0.7539559
vt 0.7098336 0.7550395
vt 0.707947 0.7629749
vt 0.707947 0.7469097
vt 0.706453 0.7606222
vt 0.7055138 0.7578824
vt 0.7168859 0.7599813
vt 0.7146751 0.7606952
vt 0.7170279 0.765915
vt 0.7145947 0.7663021
vt 0.7137783 0.7566509
vt 0.7121615 0.765915
vt 0.7104313 0.7577346
vt 0.7098941 0.7647802
vt 0.7239959 0.7549423
vt 0.7236755 0.7520022
vt 0.7236755 0.7578824
vt 0.7227364 0.7606222
vt 0.7227364 0.7492624
vt 0.7212423 0.7629749
vt 0.7212423 0.7469097
vt 0.7193517 0.7548204
vt 0.7192953 0.7647802
vt 0.7159833 0.7559111
vt 0.7192953 0.7451045
vt 0.7187581 0.7521501
vt 0.7170279 0.7439696
vt 0.7154111 0.7532337
vt 0.7145947 0.7435825
vt 0.7145142 0.7491894
vn -0.9659258358036645 0.0 -0.25881900959356163
vn -1.0 0.0 0.0
vn -0.8660254028383291 0.0 -0.5000000016387101
vn 0.0 -1.0 0.0
vn -0.9659258358036645 0.0 0.25881900959356163
vn -0.7071067811865475 0.0 -0.7071067811865475
vn -0.8660254028383291 0.0 0.5000000016387101
vn -0.5000000016387101 0.0 -0.8660254028383291
vn -0.25881900959356163 0.0 -0.9659258358036645
vn 0.0 0.0 -1.0
vn 0.25881900959356163 0.0 -0.9659258358036645
vn 0.5000000016387101 0.0 -0.8660254028383291
vn 0.7071067811865475 0.0 -0.7071067811865475
vn 0.8660254028383291 0.0 -0.5000000016387101
vn 0.9659258358036645 0.0 -0.25881900959356163
vn 1.0 0.0 0.0
vn 0.9659258358036645 0.0 0.25881900959356163
vn 0.8660254028383291 0.0 0.5000000016387101
vn 0.7071067811865475 0.0 0.7071067811865475
vn 0.5000000016387101 0.0 0.8660254028383291
vn 0.25881900959356163 0.0 0.9659258358036645
vn 0.0 0.0 1.0
vn -0.25881900959356163 0.0 0.9659258358036645
vn -0.5000000016387101 0.0 0.8660254028383291
vn -0.7071067811865475 0.0 0.7071067811865475
vn 0.0 1.0 0.0
usemtl material_0_0
f 5/1/16 6/2/17 7/1/16
f 8/2/17 7/1/16 6/2/17
f 6/2/17 11/3/18 8/2/17
f 12/3/18 8/2/17 11/3/18
f 49/4/26 50/5/26 51/6/26
f 51/6/26 50/5/26 52/7/26
f 52/7/26 50/5/26 53/8/26
f 53/8/26 50/5/26 54/9/26
f 50/5/26 55/10/26 54/9/26
f 54/9/26 55/10/26 56/11/26
f 55/10/26 57/3/26 56/11/26
f 56/11/26 57/3/26 58/12/26
f 57/3/26 59/2/26 58/12/26
f 60/1/26 58/12/26 59/2/26
f 61/13/26 62/14/26 63/15/26
f 63/15/26 62/14/26 64/16/26
f 62/14/26 65/17/26 64/16/26
f 64/16/26 65/17/26 66/18/26
f 65/17/26 67/19/26 66/18/26
f 66/18/26 67/19/26 68/20/26
f 67/19/26 53/8/26 68/20/26
f 54/9/26 68/20/26 53/8/26
f 69/21/26 70/22/26 71/23/26
f 71/23/26 70/22/26 72/24/26
f 70/22/26 73/25/26 72/24/26
f 72/24/26 73/25/26 74/26/26
f 73/25/26 75/27/26 74/26/26
f 75/27/26 76/28/26 74/26/26
f 74/26/26 76/28/26 77/29/26
f 77/29/26 76/28/26 63/15/26
f 63/15/26 76/28/26 61/13/26
f 78/30/26 61/13/26 76/28/26
f 75/27/26 79/31/26 76/28/26
f 76/28/26 79/31/26 80/32/26
f 79/31/26 81/33/26 80/32/26
f 80/32/26 81/33/26 82/34/26
f 81/33/26 83/35/26 82/34/26
f 82/34/26 83/35/26 84/36/26
f 84/36/26 83/35/26 51/6/26
f 49/4/26 51/6/26 83/35/26
f 87/12/15 5/1/16 88/12/15
f 7/1/16 88/12/15 5/1/16
f 11/3/18 91/10/19 12/3/18
f 92/10/19 12/3/18 91/10/19
f 95/11/14 87/12/15 96/11/14
f 88/12/15 96/11/14 87/12/15
f 99/5/20 100/5/20 91/10/19
f 92/10/19 91/10/19 100/5/20
f 99/5/20 103/4/21 100/5/20
f 104/4/21 100/5/20 103/4/21
f 107/35/22 108/35/22 103/4/21
f 104/4/21 103/4/21 108/35/22
f 107/35/22 111/33/23 108/35/22
f 112/33/23 108/35/22 111/33/23
f 111/33/23 115/31/24 112/33/23
f 116/31/24 112/33/23 115/31/24
f 115/31/24 119/27/25 116/31/24
f 120/27/25 116/31/24 119/27/25
f 123/25/7 124/25/7 119/27/25
f 120/27/25 119/27/25 124/25/7
f 127/22/5 128/22/5 123/25/7
f 124/25/7 123/25/7 128/22/5
f 131/21/2 132/21/2 127/22/5
f 128/22/5 127/22/5 132/21/2
f 135/23/1 136/23/1 131/21/2
f 132/21/2 131/21/2 136/23/1
f 139/24/3 140/24/3 135/23/1
f 136/23/1 135/23/1 140/24/3
f 143/26/6 144/26/6 139/24/3
f 140/24/3 139/24/3 144/26/6
f 143/26/6 147/29/8 144/26/6
f 148/29/8 144/26/6 147/29/8
f 151/15/9 152/15/9 147/29/8
f 148/29/8 147/29/8 152/15/9
f 151/15/9 155/16/10 152/15/9
f 156/16/10 152/15/9 155/16/10
f 155/16/10 159/18/11 156/16/10
f 160/18/11 156/16/10 159/18/11
f 159/18/11 163/20/12 160/18/11
f 164/20/12 160/18/11 163/20/12
f 167/9/13 168/9/13 163/20/12
f 164/20/12 163/20/12 168/9/13
f 167/9/13 95/11/14 168/9/13
f 96/11/14 168/9/13 95/11/14
usemtl material_1_0
f 1//1 2//2 3//1
f 2//2 1//1 4//2
f 9//3 3//1 10//3
f 3//1 9//3 1//1
f 13//4 14//4 15//4
f 14//4 13//4 16//4
f 16//4 13//4 17//4
f 17//4 13//4 18//4
f 17//4 18//4 19//4
f 19//4 18//4 20//4
f 19//4 20//4 21//4
f 21//4 20//4 22//4
f 21//4 23//4 24//4
f 23//4 21//4 25//4
f 25//4 21//4 26//4
f 26//4 21//4 27//4
f 27//4 21//4 22//4
f 27//4 22//4 28//4
f 27//4 28//4 29//4
f 29//4 28//4 30//4
f 29//4 30//4 31//4
f 31//4 30//4 32//4
f 33//4 34//4 35//4
f 34//4 33//4 36//4
f 34//4 36//4 37//4
f 37//4 36//4 38//4
f 37//4 38//4 39//4
f 39//4 38//4 40//4
f 39//4 40//4 25//4
f 25//4 40//4 23//4
f 41//4 42//4 43//4
f 42//4 41//4 44//4
f 42//4 44//4 45//4
f 45//4 44//4 46//4
f 45//4 46//4 35//4
f 35//4 46//4 47//4
f 35//4 47//4 33//4
f 33//4 47//4 48//4
f 48//4 47//4 14//4
f 14//4 47//4 15//4
f 4//2 85//5 2//2
f 85//5 4//2 86//5
f 89//6 10//3 90//6
f 10//3 89//6 9//3
f 86//5 93//7 85//5
f 93//7 86//5 94//7
f 97//8 89//6 90//6
f 89//6 97//8 98//8
f 101//9 97//8 102//9
f 97//8 101//9 98//8
f 105//10 101//9 102//9
f 101//9 105//10 106//10
f 109//11 105//10 110//11
f 105//10 109//11 106//10
f 113//12 110//11 114//12
f 110//11 113//12 109//11
f 117//13 114//12 118//13
f 114//12 117//13 113//12
f 121//14 117//13 118//13
f 117//13 121//14 122//14
f 125//15 122//14 121//14
f 122//14 125//15 126//15
f 129//16 126//15 125//15
f 126//15 129//16 130//16
f 133//17 130//16 129//16
f 130//16 133//17 134//17
f 137//18 134//17 133//17
f 134//17 137//18 138//18
f 141//19 138//18 137//18
f 138//18 141//19 142//19
f 145//20 141//19 146//20
f 141//19 145//20 142//19
f 149//21 145//20 146//20
f 145//20 149//21 150//21
f 153//22 149//21 154//22
f 149//21 153//22 150//21
f 157//23 154//22 158//23
f 154//22 157//23 153//22
f 161//24 158//23 162//24
f 158//23 161//24 157//23
f 165//25 161//24 162//24
f 161//24 165//25 166//25
f 94//7 165//25 93//7
f 165//25 94//7 166//25
