# SSTK version 0.8.0
# 105
mtllib original-105.mtl
o #ID462
v -0.009551 -0.0577 -0.088013
v -0.009551 -0.049298 -0.189466
v -0.009551 -0.0577 -0.189466
v -0.009551 -0.049298 -0.030201
v -0.009551 -0.0577 -0.030201
v -0.009551 -0.0577 -0.030201
v -0.009551 -0.0577 -0.088013
v -0.009551 -0.049298 -0.030201
v -0.009551 -0.049298 -0.189466
v -0.009551 -0.0577 -0.189466
v 0.252653 -0.049298 -0.189466
v 0.216036 -0.049298 -0.159807
v 0.252653 -0.049298 -0.030201
v -0.009551 -0.049298 -0.189466
v 0.027066 -0.049298 -0.159807
v 0.027066 -0.049298 -0.072558
v 0.216036 -0.049298 -0.072558
v -0.009551 -0.049298 -0.030201
v -0.009551 -0.049298 -0.189466
v 0.027066 -0.049298 -0.072558
v -0.009551 -0.049298 -0.030201
v 0.216036 -0.049298 -0.072558
v 0.216036 -0.049298 -0.159807
v 0.252653 -0.049298 -0.030201
v 0.027066 -0.049298 -0.159807
v 0.252653 -0.049298 -0.189466
v -0.009551 -0.049298 -0.189466
v 0.252653 -0.0577 -0.189466
v -0.009551 -0.0577 -0.189466
v 0.252653 -0.049298 -0.189466
v 0.252653 -0.049298 -0.189466
v -0.009551 -0.049298 -0.189466
v 0.252653 -0.0577 -0.189466
v -0.009551 -0.0577 -0.189466
v -0.009551 -0.097489 -0.082367
v -0.009551 -0.0577 -0.088013
v -0.009551 -0.098505 -0.088013
v -0.009551 -0.0577 -0.030201
v -0.009551 -0.096 -0.07679
v -0.009551 -0.094047 -0.071308
v -0.009551 -0.091638 -0.065946
v -0.009551 -0.088783 -0.060729
v -0.009551 -0.085497 -0.055682
v -0.009551 -0.081795 -0.050828
v -0.009551 -0.077693 -0.04619
v -0.009551 -0.073211 -0.041788
v -0.009551 -0.06837 -0.037643
v -0.009551 -0.063191 -0.033775
v -0.009551 -0.063191 -0.033775
v -0.009551 -0.06837 -0.037643
v -0.009551 -0.0577 -0.030201
v -0.009551 -0.073211 -0.041788
v -0.009551 -0.077693 -0.04619
v -0.009551 -0.081795 -0.050828
v -0.009551 -0.085497 -0.055682
v -0.009551 -0.088783 -0.060729
v -0.009551 -0.091638 -0.065946
v -0.009551 -0.094047 -0.071308
v -0.009551 -0.096 -0.07679
v -0.009551 -0.097489 -0.082367
v -0.009551 -0.0577 -0.088013
v -0.009551 -0.098505 -0.088013
v 0.252653 -0.0577 -0.030201
v -0.009551 -0.0577 -0.030201
v 0.245652 -0.0577 -0.030201
v 0.252653 -0.049298 -0.030201
v -0.009551 -0.049298 -0.030201
v -0.009551 -0.049298 -0.030201
v 0.252653 -0.049298 -0.030201
v -0.009551 -0.0577 -0.030201
v 0.252653 -0.0577 -0.030201
v 0.245652 -0.0577 -0.030201
v 0.252653 -0.049298 -0.030201
v 0.252653 -0.0577 -0.189466
v 0.252653 -0.049298 -0.189466
v 0.252653 -0.0577 -0.030201
v 0.252653 -0.0577 -0.030201
v 0.252653 -0.049298 -0.030201
v 0.252653 -0.0577 -0.189466
v 0.252653 -0.049298 -0.189466
v -0.009551 -0.097489 -0.082367
v 0.245652 -0.098505 -0.088013
v 0.245652 -0.097489 -0.082367
v -0.009551 -0.098505 -0.088013
v -0.009551 -0.098505 -0.088013
v -0.009551 -0.097489 -0.082367
v 0.245652 -0.098505 -0.088013
v 0.245652 -0.097489 -0.082367
v -0.009551 -0.096 -0.07679
v 0.245652 -0.096 -0.07679
v -0.009551 -0.096 -0.07679
v 0.245652 -0.096 -0.07679
v -0.009551 -0.094047 -0.071308
v 0.245652 -0.094047 -0.071308
v -0.009551 -0.094047 -0.071308
v 0.245652 -0.094047 -0.071308
v -0.009551 -0.091638 -0.065946
v 0.245652 -0.091638 -0.065946
v -0.009551 -0.091638 -0.065946
v 0.245652 -0.091638 -0.065946
v -0.009551 -0.088783 -0.060729
v 0.245652 -0.088783 -0.060729
v -0.009551 -0.088783 -0.060729
v 0.245652 -0.088783 -0.060729
v -0.009551 -0.085497 -0.055682
v 0.245652 -0.085497 -0.055682
v -0.009551 -0.085497 -0.055682
v 0.245652 -0.085497 -0.055682
v -0.009551 -0.081795 -0.050828
v 0.245652 -0.081795 -0.050828
v -0.009551 -0.081795 -0.050828
v 0.245652 -0.081795 -0.050828
v -0.009551 -0.077693 -0.04619
v 0.245652 -0.077693 -0.04619
v -0.009551 -0.077693 -0.04619
v 0.245652 -0.077693 -0.04619
v -0.009551 -0.073211 -0.041788
v 0.245652 -0.073211 -0.041788
v -0.009551 -0.073211 -0.041788
v 0.245652 -0.073211 -0.041788
v -0.009551 -0.06837 -0.037643
v 0.245652 -0.06837 -0.037643
v -0.009551 -0.06837 -0.037643
v 0.245652 -0.06837 -0.037643
v 0.245652 -0.063191 -0.033775
v -0.009551 -0.063191 -0.033775
v -0.009551 -0.063191 -0.033775
v 0.245652 -0.063191 -0.033775
v 0.245652 -0.0577 -0.030201
v -0.009551 -0.0577 -0.030201
v -0.009551 -0.0577 -0.030201
v 0.245652 -0.0577 -0.030201
v 0.245652 -0.0577 -0.030201
v 0.245652 -0.098505 -0.088013
v 0.245652 -0.0577 -0.088013
v 0.245652 -0.097489 -0.082367
v 0.245652 -0.096 -0.07679
v 0.245652 -0.094047 -0.071308
v 0.245652 -0.091638 -0.065946
v 0.245652 -0.088783 -0.060729
v 0.245652 -0.085497 -0.055682
v 0.245652 -0.081795 -0.050828
v 0.245652 -0.077693 -0.04619
v 0.245652 -0.073211 -0.041788
v 0.245652 -0.06837 -0.037643
v 0.245652 -0.063191 -0.033775
v 0.245652 -0.063191 -0.033775
v 0.245652 -0.0577 -0.030201
v 0.245652 -0.06837 -0.037643
v 0.245652 -0.073211 -0.041788
v 0.245652 -0.077693 -0.04619
v 0.245652 -0.081795 -0.050828
v 0.245652 -0.085497 -0.055682
v 0.245652 -0.088783 -0.060729
v 0.245652 -0.091638 -0.065946
v 0.245652 -0.094047 -0.071308
v 0.245652 -0.096 -0.07679
v 0.245652 -0.097489 -0.082367
v 0.245652 -0.098505 -0.088013
v 0.245652 -0.0577 -0.088013
vn -1.0 0.0 0.0
vn 1.0 0.0 0.0
vn 0.0 1.0 0.0
vn 0.0 -1.0 0.0
vn 0.0 0.0 -1.0
vn 0.0 0.0 1.0
vn 0.0 -0.9759996439066196 0.2177721173478177
vn 0.0 -0.9841904054969407 0.1771136520084422
vn 0.0 0.9841904054969407 -0.1771136520084422
vn 0.0 0.9759996439066196 -0.2177721173478177
vn 0.0 -0.9548374436610059 0.2971286862336178
vn 0.0 0.9548374436610059 -0.2971286862336178
vn 0.0 -0.9277330389539805 0.3732444352340861
vn 0.0 0.9277330389539805 -0.3732444352340861
vn 0.0 -0.8952852736319141 0.4454932982861007
vn 0.0 0.8952852736319141 -0.4454932982861007
vn 0.0 -0.8581481702879075 0.51340210150672
vn 0.0 0.8581481702879075 -0.51340210150672
vn 0.0 -0.8169922892291733 0.5766485925935091
vn 0.0 0.8169922892291733 -0.5766485925935091
vn 0.0 -0.7724718387723944 0.6350490203941709
vn 0.0 0.7724718387723944 -0.6350490203941709
vn 0.0 -0.7251993189956735 0.6885389950672448
vn 0.0 0.7251993189956735 -0.6885389950672448
vn 0.0 -0.6757283946520343 0.737150687892906
vn 0.0 0.6757283946520343 -0.737150687892906
vn 0.0 -0.6245444450019771 0.7809892676709279
vn 0.0 0.6245444450019771 -0.7809892676709279
vn 0.0 -0.5720607926929986 0.8202112224686138
vn 0.0 0.5720607926929986 -0.8202112224686138
vn 0.0 -0.5454414673817095 0.838148916160182
vn 0.0 0.5454414673817095 -0.838148916160182
usemtl material_0_0
f 1//1 2//1 3//1
f 2//1 1//1 4//1
f 4//1 1//1 5//1
f 6//2 7//2 8//2
f 8//2 7//2 9//2
f 10//2 9//2 7//2
f 11//3 12//3 13//3
f 12//3 11//3 14//3
f 12//3 14//3 15//3
f 15//3 14//3 16//3
f 13//3 17//3 18//3
f 17//3 13//3 12//3
f 18//3 17//3 16//3
f 18//3 16//3 14//3
f 19//4 20//4 21//4
f 20//4 22//4 21//4
f 23//4 24//4 22//4
f 21//4 22//4 24//4
f 20//4 19//4 25//4
f 25//4 19//4 23//4
f 19//4 26//4 23//4
f 24//4 23//4 26//4
f 27//5 28//5 29//5
f 28//5 27//5 30//5
f 31//6 32//6 33//6
f 34//6 33//6 32//6
f 35//1 36//1 37//1
f 36//1 35//1 38//1
f 38//1 35//1 39//1
f 38//1 39//1 40//1
f 38//1 40//1 41//1
f 38//1 41//1 42//1
f 38//1 42//1 43//1
f 38//1 43//1 44//1
f 38//1 44//1 45//1
f 38//1 45//1 46//1
f 38//1 46//1 47//1
f 38//1 47//1 48//1
f 49//2 50//2 51//2
f 50//2 52//2 51//2
f 52//2 53//2 51//2
f 53//2 54//2 51//2
f 54//2 55//2 51//2
f 55//2 56//2 51//2
f 56//2 57//2 51//2
f 57//2 58//2 51//2
f 58//2 59//2 51//2
f 59//2 60//2 51//2
f 51//2 60//2 61//2
f 62//2 61//2 60//2
f 63//6 64//6 65//6
f 64//6 63//6 66//6
f 64//6 66//6 67//6
f 68//5 69//5 70//5
f 69//5 71//5 70//5
f 72//5 70//5 71//5
f 73//2 74//2 75//2
f 74//2 73//2 76//2
f 77//1 78//1 79//1
f 80//1 79//1 78//1
f 81//7 82//8 83//7
f 82//8 81//7 84//8
f 85//9 86//10 87//9
f 88//10 87//9 86//10
f 89//11 83//7 90//11
f 83//7 89//11 81//7
f 86//10 91//12 88//10
f 92//12 88//10 91//12
f 93//13 90//11 94//13
f 90//11 93//13 89//11
f 91//12 95//14 92//12
f 96//14 92//12 95//14
f 97//15 94//13 98//15
f 94//13 97//15 93//13
f 95//14 99//16 96//14
f 100//16 96//14 99//16
f 101//17 98//15 102//17
f 98//15 101//17 97//15
f 99//16 103//18 100//16
f 104//18 100//16 103//18
f 105//19 102//17 106//19
f 102//17 105//19 101//17
f 103//18 107//20 104//18
f 108//20 104//18 107//20
f 109//21 106//19 110//21
f 106//19 109//21 105//19
f 107//20 111//22 108//20
f 112//22 108//20 111//22
f 113//23 110//21 114//23
f 110//21 113//23 109//21
f 111//22 115//24 112//22
f 116//24 112//22 115//24
f 117//25 114//23 118//25
f 114//23 117//25 113//23
f 115//24 119//26 116//24
f 120//26 116//24 119//26
f 121//27 118//25 122//27
f 118//25 121//27 117//25
f 119//26 123//28 120//26
f 124//28 120//26 123//28
f 125//29 121//27 122//27
f 121//27 125//29 126//29
f 127//30 128//30 123//28
f 124//28 123//28 128//30
f 129//31 126//29 125//29
f 126//29 129//31 130//31
f 131//32 132//32 127//30
f 128//30 127//30 132//32
f 133//2 134//2 135//2
f 134//2 133//2 136//2
f 136//2 133//2 137//2
f 137//2 133//2 138//2
f 138//2 133//2 139//2
f 139//2 133//2 140//2
f 140//2 133//2 141//2
f 141//2 133//2 142//2
f 142//2 133//2 143//2
f 143//2 133//2 144//2
f 144//2 133//2 145//2
f 145//2 133//2 146//2
f 147//1 148//1 149//1
f 149//1 148//1 150//1
f 150//1 148//1 151//1
f 151//1 148//1 152//1
f 152//1 148//1 153//1
f 153//1 148//1 154//1
f 154//1 148//1 155//1
f 155//1 148//1 156//1
f 156//1 148//1 157//1
f 157//1 148//1 158//1
f 158//1 148//1 159//1
f 160//1 159//1 148//1
