# SSTK version 0.8.0
# 130
mtllib original-130.mtl
o #ID666
v 0.18657 0.432634 -0.402727
v 0.180585 0.438387 -0.399851
v 0.150658 0.432634 -0.402727
v 0.18657 0.461396 -0.388346
v 0.180585 0.455643 -0.391222
v 0.162629 0.455643 -0.391222
v 0.162629 0.461396 -0.388346
v 0.150658 0.438387 -0.399851
v 0.180585 0.438387 -0.399851
v 0.150658 0.432634 -0.402727
v 0.150658 0.438387 -0.399851
v 0.162629 0.461396 -0.388346
v 0.18657 0.461396 -0.388346
v 0.162629 0.455643 -0.391222
v 0.180585 0.455643 -0.391222
v 0.18657 0.432634 -0.402727
vn 0.0 -0.11408450116683304 0.9934710497007524
vn 0.0 -0.44721361727303627 0.8944271801133764
vn 0.0 -0.06472992519179853 0.9979028193089066
vn 0.0 0.44721361727303627 -0.8944271801133764
vn 0.0 0.06472992519179853 -0.9979028193089066
vn 0.0 0.11408450116683304 -0.9934710497007524
usemtl material_0_0
f 1//1 2//2 3//3
f 2//2 1//1 4//2
f 2//2 4//2 5//2
f 5//2 4//2 6//2
f 6//2 4//2 7//2
f 8//2 3//3 2//2
usemtl material_1_0
f 9//4 10//5 11//4
f 12//4 13//4 14//4
f 14//4 13//4 15//4
f 15//4 13//4 9//4
f 13//4 16//6 9//4
f 10//5 9//4 16//6
