# SSTK version 0.8.0
# 162
mtllib original-162.mtl
o #ID817
v 0.123582 0.376198 0.0452
v 0.112145 0.376198 0.0452
v 0.117863 0.375622 0.044716
v 0.12891 0.377889 0.046618
v 0.117863 0.377475 0.04627
v 0.122956 0.377988 0.046701
v 0.133486 0.380579 0.048875
v 0.127701 0.379494 0.047965
v 0.131776 0.381889 0.049975
v 0.136998 0.384084 0.051817
v 0.134903 0.385011 0.052594
v 0.139205 0.388167 0.055242
v 0.136869 0.388646 0.055644
v 0.139958 0.392547 0.058918
v 0.137539 0.392547 0.058918
v 0.139205 0.396928 0.062594
v 0.136869 0.396448 0.062191
v 0.134903 0.400084 0.065242
v 0.136998 0.40101 0.066019
v 0.131776 0.403205 0.067861
v 0.133486 0.404515 0.06896
v 0.127701 0.405601 0.069871
v 0.12891 0.407205 0.071217
v 0.122956 0.407106 0.071134
v 0.117863 0.40762 0.071565
v 0.123582 0.408896 0.072636
v 0.106816 0.377889 0.046618
v 0.112771 0.377988 0.046701
v 0.10224 0.380579 0.048875
v 0.108025 0.379494 0.047965
v 0.10395 0.381889 0.049975
v 0.098728 0.384084 0.051817
v 0.100823 0.385011 0.052594
v 0.096521 0.388167 0.055242
v 0.098858 0.388646 0.055644
v 0.095768 0.392547 0.058918
v 0.098187 0.392547 0.058918
v 0.098858 0.396448 0.062191
v 0.096521 0.396928 0.062594
v 0.100823 0.400084 0.065242
v 0.098728 0.40101 0.066019
v 0.10395 0.403205 0.067861
v 0.10224 0.404515 0.06896
v 0.108025 0.405601 0.069871
v 0.106816 0.407205 0.071217
v 0.112771 0.407106 0.071134
v 0.112145 0.408896 0.072636
v 0.117863 0.409473 0.07312
v 0.117863 0.409473 0.07312
v 0.123582 0.408896 0.072636
v 0.112145 0.408896 0.072636
v 0.117863 0.40762 0.071565
v 0.106816 0.407205 0.071217
v 0.112771 0.407106 0.071134
v 0.108025 0.405601 0.069871
v 0.10224 0.404515 0.06896
v 0.10395 0.403205 0.067861
v 0.098728 0.40101 0.066019
v 0.100823 0.400084 0.065242
v 0.096521 0.396928 0.062594
v 0.098858 0.396448 0.062191
v 0.095768 0.392547 0.058918
v 0.098187 0.392547 0.058918
v 0.098858 0.388646 0.055644
v 0.096521 0.388167 0.055242
v 0.100823 0.385011 0.052594
v 0.098728 0.384084 0.051817
v 0.10395 0.381889 0.049975
v 0.10224 0.380579 0.048875
v 0.108025 0.379494 0.047965
v 0.112771 0.377988 0.046701
v 0.106816 0.377889 0.046618
v 0.117863 0.377475 0.04627
v 0.112145 0.376198 0.0452
v 0.12891 0.407205 0.071217
v 0.122956 0.407106 0.071134
v 0.127701 0.405601 0.069871
v 0.133486 0.404515 0.06896
v 0.131776 0.403205 0.067861
v 0.136998 0.40101 0.066019
v 0.134903 0.400084 0.065242
v 0.139205 0.396928 0.062594
v 0.136869 0.396448 0.062191
v 0.137539 0.392547 0.058918
v 0.139958 0.392547 0.058918
v 0.136869 0.388646 0.055644
v 0.139205 0.388167 0.055242
v 0.134903 0.385011 0.052594
v 0.136998 0.384084 0.051817
v 0.131776 0.381889 0.049975
v 0.133486 0.380579 0.048875
v 0.127701 0.379494 0.047965
v 0.122956 0.377988 0.046701
v 0.12891 0.377889 0.046618
v 0.123582 0.376198 0.0452
v 0.117863 0.375622 0.044716
vn 0.0 -0.6427875875138863 0.7660444617240425
vn 0.0 0.6427875875138863 -0.7660444617240425
usemtl material_0_0
f 1//1 2//1 3//1
f 2//1 1//1 4//1
f 2//1 4//1 5//1
f 5//1 4//1 6//1
f 6//1 4//1 7//1
f 6//1 7//1 8//1
f 8//1 7//1 9//1
f 9//1 7//1 10//1
f 9//1 10//1 11//1
f 11//1 10//1 12//1
f 11//1 12//1 13//1
f 13//1 12//1 14//1
f 13//1 14//1 15//1
f 15//1 14//1 16//1
f 15//1 16//1 17//1
f 17//1 16//1 18//1
f 18//1 16//1 19//1
f 18//1 19//1 20//1
f 20//1 19//1 21//1
f 20//1 21//1 22//1
f 22//1 21//1 23//1
f 22//1 23//1 24//1
f 24//1 23//1 25//1
f 25//1 23//1 26//1
f 5//1 27//1 2//1
f 27//1 5//1 28//1
f 27//1 28//1 29//1
f 29//1 28//1 30//1
f 29//1 30//1 31//1
f 29//1 31//1 32//1
f 32//1 31//1 33//1
f 32//1 33//1 34//1
f 34//1 33//1 35//1
f 34//1 35//1 36//1
f 36//1 35//1 37//1
f 36//1 37//1 38//1
f 36//1 38//1 39//1
f 39//1 38//1 40//1
f 39//1 40//1 41//1
f 41//1 40//1 42//1
f 41//1 42//1 43//1
f 43//1 42//1 44//1
f 43//1 44//1 45//1
f 45//1 44//1 46//1
f 45//1 46//1 25//1
f 45//1 25//1 47//1
f 47//1 25//1 26//1
f 47//1 26//1 48//1
usemtl material_1_0
f 49//2 50//2 51//2
f 50//2 52//2 51//2
f 51//2 52//2 53//2
f 52//2 54//2 53//2
f 54//2 55//2 53//2
f 53//2 55//2 56//2
f 55//2 57//2 56//2
f 56//2 57//2 58//2
f 57//2 59//2 58//2
f 58//2 59//2 60//2
f 59//2 61//2 60//2
f 60//2 61//2 62//2
f 61//2 63//2 62//2
f 63//2 64//2 62//2
f 62//2 64//2 65//2
f 64//2 66//2 65//2
f 65//2 66//2 67//2
f 66//2 68//2 67//2
f 67//2 68//2 69//2
f 68//2 70//2 69//2
f 70//2 71//2 69//2
f 69//2 71//2 72//2
f 71//2 73//2 72//2
f 74//2 72//2 73//2
f 50//2 75//2 52//2
f 52//2 75//2 76//2
f 76//2 75//2 77//2
f 75//2 78//2 77//2
f 77//2 78//2 79//2
f 78//2 80//2 79//2
f 79//2 80//2 81//2
f 80//2 82//2 81//2
f 81//2 82//2 83//2
f 83//2 82//2 84//2
f 82//2 85//2 84//2
f 84//2 85//2 86//2
f 85//2 87//2 86//2
f 86//2 87//2 88//2
f 87//2 89//2 88//2
f 88//2 89//2 90//2
f 89//2 91//2 90//2
f 90//2 91//2 92//2
f 92//2 91//2 93//2
f 91//2 94//2 93//2
f 93//2 94//2 73//2
f 73//2 94//2 74//2
f 94//2 95//2 74//2
f 96//2 74//2 95//2
