# SSTK version 0.8.0
# 16
mtllib original-16.mtl
o #ID1129
v 0.042725 0.383264 0.064156
v 0.04729 0.383253 0.064156
v 0.042883 0.383253 0.064156
v 0.04756 0.383272 0.064156
v 0.042569 0.383298 0.064156
v 0.047825 0.383329 0.064156
v 0.042419 0.383353 0.064156
v 0.048081 0.383424 0.064156
v 0.042277 0.383429 0.064156
v 0.048324 0.383554 0.064156
v 0.042145 0.383525 0.064156
v 0.042025 0.383639 0.064156
v 0.048549 0.383717 0.064156
v 0.041921 0.383769 0.064156
v 0.048752 0.383911 0.064156
v 0.041833 0.383912 0.064156
v 0.04893 0.384132 0.064156
v 0.041762 0.384066 0.064156
v 0.041711 0.38423 0.064156
v 0.049081 0.384376 0.064156
v 0.04168 0.384399 0.064156
v 0.0492 0.38464 0.064156
v 0.04167 0.384571 0.064156
v 0.04167 0.395354 0.064156
v 0.049287 0.384918 0.064156
v 0.04934 0.385206 0.064156
v 0.049357 0.3855 0.064156
v 0.049357 0.394758 0.064156
v 0.049342 0.395016 0.064156
v 0.049295 0.39527 0.064156
v 0.049219 0.395515 0.064156
v 0.041681 0.395535 0.064156
v 0.049113 0.395747 0.064156
v 0.041713 0.395712 0.064156
v 0.041767 0.395883 0.064156
v 0.048981 0.395962 0.064156
v 0.04184 0.396046 0.064156
v 0.048824 0.396157 0.064156
v 0.041933 0.396196 0.064156
v 0.048645 0.396327 0.064156
v 0.042042 0.396332 0.064156
v 0.048447 0.396471 0.064156
v 0.042167 0.396451 0.064156
v 0.042306 0.396551 0.064156
v 0.048234 0.396586 0.064156
v 0.042455 0.396631 0.064156
v 0.048008 0.396669 0.064156
v 0.042612 0.396689 0.064156
v 0.047775 0.39672 0.064156
v 0.042775 0.396725 0.064156
v 0.047537 0.396736 0.064156
v 0.042941 0.396736 0.064156
v 0.042941 0.396736 0.064156
v 0.042775 0.396725 0.064156
v 0.047537 0.396736 0.064156
v 0.047775 0.39672 0.064156
v 0.042612 0.396689 0.064156
v 0.048008 0.396669 0.064156
v 0.042455 0.396631 0.064156
v 0.048234 0.396586 0.064156
v 0.042306 0.396551 0.064156
v 0.048447 0.396471 0.064156
v 0.042167 0.396451 0.064156
v 0.042042 0.396332 0.064156
v 0.048645 0.396327 0.064156
v 0.041933 0.396196 0.064156
v 0.048824 0.396157 0.064156
v 0.04184 0.396046 0.064156
v 0.048981 0.395962 0.064156
v 0.041767 0.395883 0.064156
v 0.049113 0.395747 0.064156
v 0.041713 0.395712 0.064156
v 0.041681 0.395535 0.064156
v 0.049219 0.395515 0.064156
v 0.04167 0.395354 0.064156
v 0.049295 0.39527 0.064156
v 0.049342 0.395016 0.064156
v 0.049357 0.394758 0.064156
v 0.049357 0.3855 0.064156
v 0.04934 0.385206 0.064156
v 0.049287 0.384918 0.064156
v 0.0492 0.38464 0.064156
v 0.04167 0.384571 0.064156
v 0.04168 0.384399 0.064156
v 0.049081 0.384376 0.064156
v 0.041711 0.38423 0.064156
v 0.04893 0.384132 0.064156
v 0.041762 0.384066 0.064156
v 0.041833 0.383912 0.064156
v 0.048752 0.383911 0.064156
v 0.041921 0.383769 0.064156
v 0.048549 0.383717 0.064156
v 0.042025 0.383639 0.064156
v 0.048324 0.383554 0.064156
v 0.042145 0.383525 0.064156
v 0.042277 0.383429 0.064156
v 0.048081 0.383424 0.064156
v 0.042419 0.383353 0.064156
v 0.047825 0.383329 0.064156
v 0.042569 0.383298 0.064156
v 0.04756 0.383272 0.064156
v 0.042725 0.383264 0.064156
v 0.04729 0.383253 0.064156
v 0.042883 0.383253 0.064156
v 0.042941 0.396736 0.064156
v 0.047537 0.396736 0.085475
v 0.047537 0.396736 0.064156
v 0.042941 0.396736 0.085475
v 0.042941 0.396736 0.085475
v 0.042941 0.396736 0.064156
v 0.047537 0.396736 0.085475
v 0.047537 0.396736 0.064156
v 0.047775 0.39672 0.085475
v 0.047775 0.39672 0.064156
v 0.047775 0.39672 0.085475
v 0.047775 0.39672 0.064156
v 0.048008 0.396669 0.085475
v 0.048008 0.396669 0.064156
v 0.048008 0.396669 0.085475
v 0.048008 0.396669 0.064156
v 0.048234 0.396586 0.085475
v 0.048234 0.396586 0.064156
v 0.048234 0.396586 0.085475
v 0.048234 0.396586 0.064156
v 0.048447 0.396471 0.085475
v 0.048447 0.396471 0.064156
v 0.048447 0.396471 0.085475
v 0.048447 0.396471 0.064156
v 0.048645 0.396327 0.085475
v 0.048645 0.396327 0.064156
v 0.048645 0.396327 0.085475
v 0.048645 0.396327 0.064156
v 0.048824 0.396157 0.085475
v 0.048824 0.396157 0.064156
v 0.048824 0.396157 0.085475
v 0.048824 0.396157 0.064156
v 0.048981 0.395962 0.064156
v 0.048981 0.395962 0.085475
v 0.048981 0.395962 0.085475
v 0.048981 0.395962 0.064156
v 0.049113 0.395747 0.064156
v 0.049113 0.395747 0.085475
v 0.049113 0.395747 0.085475
v 0.049113 0.395747 0.064156
v 0.049219 0.395515 0.064156
v 0.049219 0.395515 0.085475
v 0.049219 0.395515 0.085475
v 0.049219 0.395515 0.064156
v 0.049295 0.39527 0.064156
v 0.049295 0.39527 0.085475
v 0.049295 0.39527 0.085475
v 0.049295 0.39527 0.064156
v 0.049342 0.395016 0.085475
v 0.049342 0.395016 0.064156
v 0.049342 0.395016 0.085475
v 0.049342 0.395016 0.064156
v 0.049357 0.394758 0.064156
v 0.049357 0.394758 0.085475
v 0.049357 0.394758 0.085475
v 0.049357 0.394758 0.064156
v 0.049357 0.3855 0.085475
v 0.049357 0.3855 0.064156
v 0.049357 0.3855 0.085475
v 0.049357 0.3855 0.064156
v 0.04934 0.385206 0.064156
v 0.04934 0.385206 0.085475
v 0.04934 0.385206 0.085475
v 0.04934 0.385206 0.064156
v 0.049287 0.384918 0.064156
v 0.049287 0.384918 0.085475
v 0.049287 0.384918 0.085475
v 0.049287 0.384918 0.064156
v 0.0492 0.38464 0.064156
v 0.0492 0.38464 0.085475
v 0.0492 0.38464 0.085475
v 0.0492 0.38464 0.064156
v 0.049081 0.384376 0.085475
v 0.049081 0.384376 0.064156
v 0.049081 0.384376 0.085475
v 0.049081 0.384376 0.064156
v 0.04893 0.384132 0.064156
v 0.04893 0.384132 0.085475
v 0.04893 0.384132 0.085475
v 0.04893 0.384132 0.064156
v 0.048752 0.383911 0.064156
v 0.048752 0.383911 0.085475
v 0.048752 0.383911 0.085475
v 0.048752 0.383911 0.064156
v 0.048549 0.383717 0.085475
v 0.048549 0.383717 0.064156
v 0.048549 0.383717 0.064156
v 0.048549 0.383717 0.085475
v 0.048324 0.383554 0.085475
v 0.048324 0.383554 0.064156
v 0.048324 0.383554 0.064156
v 0.048324 0.383554 0.085475
v 0.048081 0.383424 0.085475
v 0.048081 0.383424 0.064156
v 0.048081 0.383424 0.064156
v 0.048081 0.383424 0.085475
v 0.047825 0.383329 0.085475
v 0.047825 0.383329 0.064156
v 0.047825 0.383329 0.064156
v 0.047825 0.383329 0.085475
v 0.04756 0.383272 0.085475
v 0.04756 0.383272 0.064156
v 0.04756 0.383272 0.064156
v 0.04756 0.383272 0.085475
v 0.04729 0.383253 0.085475
v 0.04729 0.383253 0.064156
v 0.04729 0.383253 0.064156
v 0.04729 0.383253 0.085475
v 0.042883 0.383253 0.085475
v 0.042883 0.383253 0.064156
v 0.042883 0.383253 0.064156
v 0.042883 0.383253 0.085475
v 0.04167 0.384571 0.085475
v 0.04167 0.395354 0.064156
v 0.04167 0.384571 0.064156
v 0.04167 0.395354 0.085475
v 0.04167 0.395354 0.085475
v 0.04167 0.384571 0.085475
v 0.04167 0.395354 0.064156
v 0.04167 0.384571 0.064156
v 0.041681 0.395535 0.064156
v 0.041681 0.395535 0.085475
v 0.041681 0.395535 0.085475
v 0.041681 0.395535 0.064156
v 0.041713 0.395712 0.064156
v 0.041713 0.395712 0.085475
v 0.041713 0.395712 0.085475
v 0.041713 0.395712 0.064156
v 0.041767 0.395883 0.064156
v 0.041767 0.395883 0.085475
v 0.041767 0.395883 0.085475
v 0.041767 0.395883 0.064156
v 0.04184 0.396046 0.064156
v 0.04184 0.396046 0.085475
v 0.04184 0.396046 0.085475
v 0.04184 0.396046 0.064156
v 0.041933 0.396196 0.064156
v 0.041933 0.396196 0.085475
v 0.041933 0.396196 0.085475
v 0.041933 0.396196 0.064156
v 0.042042 0.396332 0.064156
v 0.042042 0.396332 0.085475
v 0.042042 0.396332 0.085475
v 0.042042 0.396332 0.064156
v 0.042167 0.396451 0.085475
v 0.042167 0.396451 0.064156
v 0.042167 0.396451 0.085475
v 0.042167 0.396451 0.064156
v 0.042306 0.396551 0.085475
v 0.042306 0.396551 0.064156
v 0.042306 0.396551 0.085475
v 0.042306 0.396551 0.064156
v 0.042455 0.396631 0.085475
v 0.042455 0.396631 0.064156
v 0.042455 0.396631 0.085475
v 0.042455 0.396631 0.064156
v 0.042612 0.396689 0.085475
v 0.042612 0.396689 0.064156
v 0.042612 0.396689 0.085475
v 0.042612 0.396689 0.064156
v 0.042775 0.396725 0.085475
v 0.042775 0.396725 0.064156
v 0.042775 0.396725 0.085475
v 0.042775 0.396725 0.064156
vn 0.0 0.0 -1.0
vn 0.0 0.0 1.0
vn -0.03555386862497519 0.9993677613500439 0.0
vn 0.03555386862497519 0.9993677613500439 0.0
vn 0.03555386862497519 -0.9993677613500439 0.0
vn -0.03555386862497519 -0.9993677613500439 0.0
vn 0.1415500990404871 0.9899310932896431 0.0
vn -0.1415500990404871 -0.9899310932896431 0.0
vn 0.2794329982144175 0.9601651938645253 0.0
vn -0.2794329982144175 -0.9601651938645253 0.0
vn 0.41028269646134247 0.9119583921344272 0.0
vn -0.41028269646134247 -0.9119583921344272 0.0
vn 0.5312709005337121 0.8472020008510949 0.0
vn -0.5312709005337121 -0.8472020008510949 0.0
vn 0.6402348966417599 0.7681791959706504 0.0
vn -0.6402348966417599 -0.7681791959706504 0.0
vn 0.7356908646320083 0.6773174674382818 0.0
vn -0.7356908646320083 -0.6773174674382818 0.0
vn 0.8167559624231459 0.5769832734544743 0.0
vn -0.8167559624231459 -0.5769832734544743 0.0
vn 0.883014944643349 0.469344870576534 0.0
vn -0.883014944643349 -0.469344870576534 0.0
vn 0.9343694338667582 0.35630571291450575 0.0
vn -0.9343694338667582 -0.35630571291450575 0.0
vn 0.9708968832355139 0.2394978958645875 0.0
vn -0.9708968832355139 -0.2394978958645875 0.0
vn 0.9927352082083316 0.12031960099485055 0.0
vn -0.9927352082083316 -0.12031960099485055 0.0
vn 0.999546621865982 0.030108980658661053 0.0
vn -0.999546621865982 -0.030108980658661053 0.0
vn 0.999546621865982 -0.030108980658661053 0.0
vn -0.999546621865982 0.030108980658661053 0.0
vn 0.9927352082083316 -0.12031960099485055 0.0
vn -0.9927352082083316 0.12031960099485055 0.0
vn 0.9708968832355139 -0.2394978958645875 0.0
vn -0.9708968832355139 0.2394978958645875 0.0
vn 0.9343694338667582 -0.35630571291450575 0.0
vn -0.9343694338667582 0.35630571291450575 0.0
vn 0.883014944643349 -0.469344870576534 0.0
vn -0.883014944643349 0.469344870576534 0.0
vn 0.8167559624231459 -0.5769832734544743 0.0
vn -0.8167559624231459 0.5769832734544743 0.0
vn 0.7356908646320083 -0.6773174674382818 0.0
vn -0.7356908646320083 0.6773174674382818 0.0
vn 0.6402348966417599 -0.7681791959706504 0.0
vn -0.6402348966417599 0.7681791959706504 0.0
vn 0.5312709005337121 -0.8472020008510949 0.0
vn -0.5312709005337121 0.8472020008510949 0.0
vn 0.41028269646134247 -0.9119583921344272 0.0
vn -0.41028269646134247 0.9119583921344272 0.0
vn 0.2794329982144175 -0.9601651938645253 0.0
vn -0.2794329982144175 0.9601651938645253 0.0
vn 0.1415500990404871 -0.9899310932896431 0.0
vn -0.1415500990404871 0.9899310932896431 0.0
usemtl material_0_0
f 1//1 2//1 3//1
f 2//1 1//1 4//1
f 4//1 1//1 5//1
f 4//1 5//1 6//1
f 6//1 5//1 7//1
f 6//1 7//1 8//1
f 8//1 7//1 9//1
f 8//1 9//1 10//1
f 10//1 9//1 11//1
f 10//1 11//1 12//1
f 10//1 12//1 13//1
f 13//1 12//1 14//1
f 13//1 14//1 15//1
f 15//1 14//1 16//1
f 15//1 16//1 17//1
f 17//1 16//1 18//1
f 17//1 18//1 19//1
f 17//1 19//1 20//1
f 20//1 19//1 21//1
f 20//1 21//1 22//1
f 22//1 21//1 23//1
f 22//1 23//1 24//1
f 22//1 24//1 25//1
f 25//1 24//1 26//1
f 26//1 24//1 27//1
f 27//1 24//1 28//1
f 28//1 24//1 29//1
f 29//1 24//1 30//1
f 30//1 24//1 31//1
f 31//1 24//1 32//1
f 31//1 32//1 33//1
f 33//1 32//1 34//1
f 33//1 34//1 35//1
f 33//1 35//1 36//1
f 36//1 35//1 37//1
f 36//1 37//1 38//1
f 38//1 37//1 39//1
f 38//1 39//1 40//1
f 40//1 39//1 41//1
f 40//1 41//1 42//1
f 42//1 41//1 43//1
f 42//1 43//1 44//1
f 42//1 44//1 45//1
f 45//1 44//1 46//1
f 45//1 46//1 47//1
f 47//1 46//1 48//1
f 47//1 48//1 49//1
f 49//1 48//1 50//1
f 49//1 50//1 51//1
f 51//1 50//1 52//1
f 53//2 54//2 55//2
f 55//2 54//2 56//2
f 54//2 57//2 56//2
f 56//2 57//2 58//2
f 57//2 59//2 58//2
f 58//2 59//2 60//2
f 59//2 61//2 60//2
f 60//2 61//2 62//2
f 61//2 63//2 62//2
f 63//2 64//2 62//2
f 62//2 64//2 65//2
f 64//2 66//2 65//2
f 65//2 66//2 67//2
f 66//2 68//2 67//2
f 67//2 68//2 69//2
f 68//2 70//2 69//2
f 69//2 70//2 71//2
f 70//2 72//2 71//2
f 72//2 73//2 71//2
f 71//2 73//2 74//2
f 73//2 75//2 74//2
f 74//2 75//2 76//2
f 76//2 75//2 77//2
f 77//2 75//2 78//2
f 78//2 75//2 79//2
f 79//2 75//2 80//2
f 80//2 75//2 81//2
f 81//2 75//2 82//2
f 75//2 83//2 82//2
f 83//2 84//2 82//2
f 82//2 84//2 85//2
f 84//2 86//2 85//2
f 85//2 86//2 87//2
f 86//2 88//2 87//2
f 88//2 89//2 87//2
f 87//2 89//2 90//2
f 89//2 91//2 90//2
f 90//2 91//2 92//2
f 91//2 93//2 92//2
f 92//2 93//2 94//2
f 93//2 95//2 94//2
f 95//2 96//2 94//2
f 94//2 96//2 97//2
f 96//2 98//2 97//2
f 97//2 98//2 99//2
f 98//2 100//2 99//2
f 99//2 100//2 101//2
f 100//2 102//2 101//2
f 101//2 102//2 103//2
f 104//2 103//2 102//2
f 105//3 106//4 107//4
f 106//4 105//3 108//3
f 109//5 110//5 111//6
f 112//6 111//6 110//5
f 107//4 113//7 114//7
f 113//7 107//4 106//4
f 111//6 112//6 115//8
f 116//8 115//8 112//6
f 114//7 117//9 118//9
f 117//9 114//7 113//7
f 115//8 116//8 119//10
f 120//10 119//10 116//8
f 118//9 121//11 122//11
f 121//11 118//9 117//9
f 119//10 120//10 123//12
f 124//12 123//12 120//10
f 122//11 125//13 126//13
f 125//13 122//11 121//11
f 123//12 124//12 127//14
f 128//14 127//14 124//12
f 126//13 129//15 130//15
f 129//15 126//13 125//13
f 127//14 128//14 131//16
f 132//16 131//16 128//14
f 130//15 133//17 134//17
f 133//17 130//15 129//15
f 131//16 132//16 135//18
f 136//18 135//18 132//16
f 133//17 137//19 134//17
f 137//19 133//17 138//19
f 139//20 135//18 140//20
f 136//18 140//20 135//18
f 138//19 141//21 137//19
f 141//21 138//19 142//21
f 143//22 139//20 144//22
f 140//20 144//22 139//20
f 142//21 145//23 141//21
f 145//23 142//21 146//23
f 147//24 143//22 148//24
f 144//22 148//24 143//22
f 146//23 149//25 145//23
f 149//25 146//23 150//25
f 151//26 147//24 152//26
f 148//24 152//26 147//24
f 149//25 153//27 154//27
f 153//27 149//25 150//25
f 151//26 152//26 155//28
f 156//28 155//28 152//26
f 153//27 157//29 154//27
f 157//29 153//27 158//29
f 159//30 155//28 160//30
f 156//28 160//30 155//28
f 157//29 161//31 162//31
f 161//31 157//29 158//29
f 159//30 160//30 163//32
f 164//32 163//32 160//30
f 161//31 165//33 162//31
f 165//33 161//31 166//33
f 167//34 163//32 168//34
f 164//32 168//34 163//32
f 166//33 169//35 165//33
f 169//35 166//33 170//35
f 171//36 167//34 172//36
f 168//34 172//36 167//34
f 170//35 173//37 169//35
f 173//37 170//35 174//37
f 175//38 171//36 176//38
f 172//36 176//38 171//36
f 173//37 177//39 178//39
f 177//39 173//37 174//37
f 175//38 176//38 179//40
f 180//40 179//40 176//38
f 177//39 181//41 178//39
f 181//41 177//39 182//41
f 183//42 179//40 184//42
f 180//40 184//42 179//40
f 182//41 185//43 181//41
f 185//43 182//41 186//43
f 187//44 183//42 188//44
f 184//42 188//44 183//42
f 189//45 185//43 186//43
f 185//43 189//45 190//45
f 191//46 192//46 188//44
f 187//44 188//44 192//46
f 193//47 190//45 189//45
f 190//45 193//47 194//47
f 195//48 196//48 191//46
f 192//46 191//46 196//48
f 197//49 194//47 193//47
f 194//47 197//49 198//49
f 199//50 200//50 195//48
f 196//48 195//48 200//50
f 201//51 198//49 197//49
f 198//49 201//51 202//51
f 203//52 204//52 199//50
f 200//50 199//50 204//52
f 205//53 202//51 201//51
f 202//51 205//53 206//53
f 207//54 208//54 203//52
f 204//52 203//52 208//54
f 209//5 206//53 205//53
f 206//53 209//5 210//5
f 211//3 212//3 207//54
f 208//54 207//54 212//3
f 213//6 210//5 209//5
f 210//5 213//6 214//6
f 215//4 216//4 211//3
f 212//3 211//3 216//4
f 217//30 218//32 219//30
f 218//32 217//30 220//32
f 221//31 222//29 223//31
f 224//29 223//31 222//29
f 220//32 225//34 218//32
f 225//34 220//32 226//34
f 227//33 221//31 228//33
f 223//31 228//33 221//31
f 226//34 229//36 225//34
f 229//36 226//34 230//36
f 231//35 227//33 232//35
f 228//33 232//35 227//33
f 230//36 233//38 229//36
f 233//38 230//36 234//38
f 235//37 231//35 236//37
f 232//35 236//37 231//35
f 234//38 237//40 233//38
f 237//40 234//38 238//40
f 239//39 235//37 240//39
f 236//37 240//39 235//37
f 238//40 241//42 237//40
f 241//42 238//40 242//42
f 243//41 239//39 244//41
f 240//39 244//41 239//39
f 242//42 245//44 241//42
f 245//44 242//42 246//44
f 247//43 243//41 248//43
f 244//41 248//43 243//41
f 245//44 249//46 250//46
f 249//46 245//44 246//44
f 247//43 248//43 251//45
f 252//45 251//45 248//43
f 250//46 253//48 254//48
f 253//48 250//46 249//46
f 251//45 252//45 255//47
f 256//47 255//47 252//45
f 254//48 257//50 258//50
f 257//50 254//48 253//48
f 255//47 256//47 259//49
f 260//49 259//49 256//47
f 258//50 261//52 262//52
f 261//52 258//50 257//50
f 259//49 260//49 263//51
f 264//51 263//51 260//49
f 262//52 265//54 266//54
f 265//54 262//52 261//52
f 263//51 264//51 267//53
f 268//53 267//53 264//51
f 266//54 108//3 105//3
f 108//3 266//54 265//54
f 267//53 268//53 109//5
f 110//5 109//5 268//53
