# SSTK version 0.8.0
# 224
mtllib original-224.mtl
o #ID1427
v -0.103332 -0.26033 -0.46651
v 0.38321 -0.260162 -0.46651
v 0.380641 -0.26033 -0.46651
v -0.106071 -0.260151 -0.46651
v 0.385734 -0.25966 -0.46651
v -0.108764 -0.259615 -0.46651
v 0.388172 -0.258832 -0.46651
v -0.111364 -0.258733 -0.46651
v 0.390481 -0.257694 -0.46651
v -0.113827 -0.257518 -0.46651
v 0.392621 -0.256264 -0.46651
v -0.116109 -0.255993 -0.46651
v 0.394556 -0.254567 -0.46651
v -0.118173 -0.254183 -0.46651
v 0.396253 -0.252631 -0.46651
v -0.119984 -0.252118 -0.46651
v 0.397684 -0.250491 -0.46651
v -0.121509 -0.249836 -0.46651
v 0.398822 -0.248182 -0.46651
v -0.122723 -0.247373 -0.46651
v 0.399649 -0.245745 -0.46651
v -0.123606 -0.244773 -0.46651
v 0.400152 -0.24322 -0.46651
v -0.124142 -0.24208 -0.46651
v 0.40032 -0.240652 -0.46651
v -0.124321 -0.239341 -0.46651
v 0.40032 0.126516 -0.46651
v -0.124321 0.125065 -0.46651
v -0.124156 0.127582 -0.46651
v 0.400167 0.128844 -0.46651
v -0.123664 0.130057 -0.46651
v 0.399712 0.131133 -0.46651
v -0.122853 0.132446 -0.46651
v 0.398962 0.133342 -0.46651
v -0.121737 0.134709 -0.46651
v 0.39793 0.135435 -0.46651
v -0.120335 0.136807 -0.46651
v 0.396634 0.137375 -0.46651
v -0.118672 0.138704 -0.46651
v 0.395096 0.139129 -0.46651
v -0.116775 0.140367 -0.46651
v 0.393342 0.140667 -0.46651
v -0.114677 0.141769 -0.46651
v 0.391402 0.141963 -0.46651
v -0.112414 0.142885 -0.46651
v 0.389309 0.142995 -0.46651
v -0.110025 0.143696 -0.46651
v 0.3871 0.143745 -0.46651
v -0.107551 0.144188 -0.46651
v 0.384811 0.144201 -0.46651
v -0.105033 0.144353 -0.46651
v 0.382483 0.144353 -0.46651
v 0.382483 0.144353 -0.46651
v -0.105033 0.144353 -0.46651
v 0.384811 0.144201 -0.46651
v -0.107551 0.144188 -0.46651
v 0.3871 0.143745 -0.46651
v -0.110025 0.143696 -0.46651
v 0.389309 0.142995 -0.46651
v -0.112414 0.142885 -0.46651
v 0.391402 0.141963 -0.46651
v -0.114677 0.141769 -0.46651
v 0.393342 0.140667 -0.46651
v -0.116775 0.140367 -0.46651
v 0.395096 0.139129 -0.46651
v -0.118672 0.138704 -0.46651
v 0.396634 0.137375 -0.46651
v -0.120335 0.136807 -0.46651
v 0.39793 0.135435 -0.46651
v -0.121737 0.134709 -0.46651
v 0.398962 0.133342 -0.46651
v -0.122853 0.132446 -0.46651
v 0.399712 0.131133 -0.46651
v -0.123664 0.130057 -0.46651
v 0.400167 0.128844 -0.46651
v -0.124156 0.127582 -0.46651
v 0.40032 0.126516 -0.46651
v -0.124321 0.125065 -0.46651
v -0.124321 -0.239341 -0.46651
v 0.40032 -0.240652 -0.46651
v -0.124142 -0.24208 -0.46651
v 0.400152 -0.24322 -0.46651
v -0.123606 -0.244773 -0.46651
v 0.399649 -0.245745 -0.46651
v -0.122723 -0.247373 -0.46651
v 0.398822 -0.248182 -0.46651
v -0.121509 -0.249836 -0.46651
v 0.397684 -0.250491 -0.46651
v -0.119984 -0.252118 -0.46651
v 0.396253 -0.252631 -0.46651
v -0.118173 -0.254183 -0.46651
v 0.394556 -0.254567 -0.46651
v -0.116109 -0.255993 -0.46651
v 0.392621 -0.256264 -0.46651
v -0.113827 -0.257518 -0.46651
v 0.390481 -0.257694 -0.46651
v -0.111364 -0.258733 -0.46651
v 0.388172 -0.258832 -0.46651
v -0.108764 -0.259615 -0.46651
v 0.385734 -0.25966 -0.46651
v -0.106071 -0.260151 -0.46651
v 0.38321 -0.260162 -0.46651
v -0.103332 -0.26033 -0.46651
v 0.380641 -0.26033 -0.46651
vn 0.0 0.0 -1.0
vn 0.0 0.0 1.0
usemtl material_0_0
f 1//1 2//1 3//1
f 2//1 1//1 4//1
f 2//1 4//1 5//1
f 5//1 4//1 6//1
f 5//1 6//1 7//1
f 7//1 6//1 8//1
f 7//1 8//1 9//1
f 9//1 8//1 10//1
f 9//1 10//1 11//1
f 11//1 10//1 12//1
f 11//1 12//1 13//1
f 13//1 12//1 14//1
f 13//1 14//1 15//1
f 15//1 14//1 16//1
f 15//1 16//1 17//1
f 17//1 16//1 18//1
f 17//1 18//1 19//1
f 19//1 18//1 20//1
f 19//1 20//1 21//1
f 21//1 20//1 22//1
f 21//1 22//1 23//1
f 23//1 22//1 24//1
f 23//1 24//1 25//1
f 25//1 24//1 26//1
f 25//1 26//1 27//1
f 27//1 26//1 28//1
f 27//1 28//1 29//1
f 27//1 29//1 30//1
f 30//1 29//1 31//1
f 30//1 31//1 32//1
f 32//1 31//1 33//1
f 32//1 33//1 34//1
f 34//1 33//1 35//1
f 34//1 35//1 36//1
f 36//1 35//1 37//1
f 36//1 37//1 38//1
f 38//1 37//1 39//1
f 38//1 39//1 40//1
f 40//1 39//1 41//1
f 40//1 41//1 42//1
f 42//1 41//1 43//1
f 42//1 43//1 44//1
f 44//1 43//1 45//1
f 44//1 45//1 46//1
f 46//1 45//1 47//1
f 46//1 47//1 48//1
f 48//1 47//1 49//1
f 48//1 49//1 50//1
f 50//1 49//1 51//1
f 50//1 51//1 52//1
f 53//2 54//2 55//2
f 54//2 56//2 55//2
f 55//2 56//2 57//2
f 56//2 58//2 57//2
f 57//2 58//2 59//2
f 58//2 60//2 59//2
f 59//2 60//2 61//2
f 60//2 62//2 61//2
f 61//2 62//2 63//2
f 62//2 64//2 63//2
f 63//2 64//2 65//2
f 64//2 66//2 65//2
f 65//2 66//2 67//2
f 66//2 68//2 67//2
f 67//2 68//2 69//2
f 68//2 70//2 69//2
f 69//2 70//2 71//2
f 70//2 72//2 71//2
f 71//2 72//2 73//2
f 72//2 74//2 73//2
f 73//2 74//2 75//2
f 74//2 76//2 75//2
f 75//2 76//2 77//2
f 76//2 78//2 77//2
f 78//2 79//2 77//2
f 77//2 79//2 80//2
f 79//2 81//2 80//2
f 80//2 81//2 82//2
f 81//2 83//2 82//2
f 82//2 83//2 84//2
f 83//2 85//2 84//2
f 84//2 85//2 86//2
f 85//2 87//2 86//2
f 86//2 87//2 88//2
f 87//2 89//2 88//2
f 88//2 89//2 90//2
f 89//2 91//2 90//2
f 90//2 91//2 92//2
f 91//2 93//2 92//2
f 92//2 93//2 94//2
f 93//2 95//2 94//2
f 94//2 95//2 96//2
f 95//2 97//2 96//2
f 96//2 97//2 98//2
f 97//2 99//2 98//2
f 98//2 99//2 100//2
f 99//2 101//2 100//2
f 100//2 101//2 102//2
f 101//2 103//2 102//2
f 104//2 102//2 103//2
