# SSTK version 0.8.0
# 666
mtllib original-666.mtl
o #ID4074
v 0.141006 0.175091 0.549814
v 0.139881 0.165929 0.549814
v 0.137935 0.166502 0.549814
v 0.140546 0.166512 0.549814
v 0.140717 0.168315 0.549814
v 0.142379 0.172801 0.549814
v 0.149578 0.173734 0.549814
v 0.149258 0.171711 0.549814
v 0.141365 0.166929 0.549814
v 0.142435 0.168875 0.549814
v 0.142293 0.167139 0.549814
v 0.143284 0.167101 0.549814
v 0.143291 0.168947 0.549814
v 0.144058 0.166912 0.549814
v 0.144145 0.168881 0.549814
v 0.144732 0.166604 0.549814
v 0.145214 0.168612 0.549814
v 0.145307 0.166177 0.549814
v 0.146164 0.168161 0.549814
v 0.145782 0.165633 0.549814
v 0.146136 0.164991 0.549814
v 0.146349 0.164274 0.549814
v 0.146995 0.167528 0.549814
v 0.146419 0.163482 0.549814
v 0.146617 0.158618 0.549814
v 0.147355 0.159416 0.549814
v 0.147707 0.166714 0.549814
v 0.147935 0.16032 0.549814
v 0.148253 0.165769 0.549814
v 0.148358 0.16133 0.549814
v 0.148588 0.164742 0.549814
v 0.148622 0.162447 0.549814
v 0.148711 0.163635 0.549814
v 0.139235 0.162765 0.549814
v 0.137005 0.161865 0.549814
v 0.136983 0.162929 0.549814
v 0.137203 0.160884 0.549814
v 0.137578 0.159984 0.549814
v 0.138129 0.159167 0.549814
v 0.138835 0.158465 0.549814
v 0.139676 0.15791 0.549814
v 0.13942 0.161279 0.549814
v 0.139995 0.160143 0.549814
v 0.14065 0.157502 0.549814
v 0.14089 0.159373 0.549814
v 0.141759 0.157243 0.549814
v 0.142035 0.158983 0.549814
v 0.143139 0.157158 0.549814
v 0.142781 0.158938 0.549814
v 0.143491 0.159047 0.549814
v 0.144408 0.157359 0.549814
v 0.144166 0.15931 0.549814
v 0.144804 0.159725 0.549814
v 0.145568 0.157846 0.549814
v 0.145366 0.160275 0.549814
v 0.14581 0.16094 0.549814
v 0.146137 0.16172 0.549814
v 0.146346 0.162615 0.549814
v 0.146419 0.163482 0.549814
v 0.146346 0.162615 0.549814
v 0.146617 0.158618 0.549814
v 0.146137 0.16172 0.549814
v 0.14581 0.16094 0.549814
v 0.145568 0.157846 0.549814
v 0.145366 0.160275 0.549814
v 0.144804 0.159725 0.549814
v 0.144408 0.157359 0.549814
v 0.144166 0.15931 0.549814
v 0.143491 0.159047 0.549814
v 0.143139 0.157158 0.549814
v 0.142781 0.158938 0.549814
v 0.142035 0.158983 0.549814
v 0.141759 0.157243 0.549814
v 0.14089 0.159373 0.549814
v 0.14065 0.157502 0.549814
v 0.139995 0.160143 0.549814
v 0.139676 0.15791 0.549814
v 0.13942 0.161279 0.549814
v 0.139235 0.162765 0.549814
v 0.138835 0.158465 0.549814
v 0.138129 0.159167 0.549814
v 0.137578 0.159984 0.549814
v 0.137203 0.160884 0.549814
v 0.137005 0.161865 0.549814
v 0.136983 0.162929 0.549814
v 0.148711 0.163635 0.549814
v 0.148588 0.164742 0.549814
v 0.148622 0.162447 0.549814
v 0.148358 0.16133 0.549814
v 0.148253 0.165769 0.549814
v 0.147935 0.16032 0.549814
v 0.147707 0.166714 0.549814
v 0.147355 0.159416 0.549814
v 0.146995 0.167528 0.549814
v 0.146349 0.164274 0.549814
v 0.146164 0.168161 0.549814
v 0.146136 0.164991 0.549814
v 0.145782 0.165633 0.549814
v 0.145307 0.166177 0.549814
v 0.145214 0.168612 0.549814
v 0.144732 0.166604 0.549814
v 0.144145 0.168881 0.549814
v 0.144058 0.166912 0.549814
v 0.143291 0.168947 0.549814
v 0.143284 0.167101 0.549814
v 0.142435 0.168875 0.549814
v 0.142293 0.167139 0.549814
v 0.141365 0.166929 0.549814
v 0.140717 0.168315 0.549814
v 0.140546 0.166512 0.549814
v 0.149258 0.171711 0.549814
v 0.149578 0.173734 0.549814
v 0.142379 0.172801 0.549814
v 0.141006 0.175091 0.549814
v 0.139881 0.165929 0.549814
v 0.137935 0.166502 0.549814
vn 0.0 0.0 -1.0
vn 0.0 0.0 1.0
usemtl material_0_0
f 1//1 2//1 3//1
f 2//1 1//1 4//1
f 4//1 1//1 5//1
f 5//1 1//1 6//1
f 6//1 1//1 7//1
f 6//1 7//1 8//1
f 5//1 9//1 4//1
f 9//1 5//1 10//1
f 9//1 10//1 11//1
f 11//1 10//1 12//1
f 12//1 10//1 13//1
f 12//1 13//1 14//1
f 14//1 13//1 15//1
f 14//1 15//1 16//1
f 16//1 15//1 17//1
f 16//1 17//1 18//1
f 18//1 17//1 19//1
f 18//1 19//1 20//1
f 20//1 19//1 21//1
f 21//1 19//1 22//1
f 22//1 19//1 23//1
f 22//1 23//1 24//1
f 24//1 23//1 25//1
f 25//1 23//1 26//1
f 26//1 23//1 27//1
f 26//1 27//1 28//1
f 28//1 27//1 29//1
f 28//1 29//1 30//1
f 30//1 29//1 31//1
f 30//1 31//1 32//1
f 32//1 31//1 33//1
f 34//1 35//1 36//1
f 35//1 34//1 37//1
f 37//1 34//1 38//1
f 38//1 34//1 39//1
f 39//1 34//1 40//1
f 40//1 34//1 41//1
f 41//1 34//1 42//1
f 41//1 42//1 43//1
f 41//1 43//1 44//1
f 44//1 43//1 45//1
f 44//1 45//1 46//1
f 46//1 45//1 47//1
f 46//1 47//1 48//1
f 48//1 47//1 49//1
f 48//1 49//1 50//1
f 48//1 50//1 51//1
f 51//1 50//1 52//1
f 51//1 52//1 53//1
f 51//1 53//1 54//1
f 54//1 53//1 55//1
f 54//1 55//1 56//1
f 54//1 56//1 25//1
f 25//1 56//1 57//1
f 25//1 57//1 58//1
f 25//1 58//1 24//1
f 59//2 60//2 61//2
f 60//2 62//2 61//2
f 62//2 63//2 61//2
f 61//2 63//2 64//2
f 63//2 65//2 64//2
f 65//2 66//2 64//2
f 64//2 66//2 67//2
f 66//2 68//2 67//2
f 68//2 69//2 67//2
f 67//2 69//2 70//2
f 69//2 71//2 70//2
f 71//2 72//2 70//2
f 70//2 72//2 73//2
f 72//2 74//2 73//2
f 73//2 74//2 75//2
f 74//2 76//2 75//2
f 75//2 76//2 77//2
f 76//2 78//2 77//2
f 78//2 79//2 77//2
f 77//2 79//2 80//2
f 80//2 79//2 81//2
f 81//2 79//2 82//2
f 82//2 79//2 83//2
f 83//2 79//2 84//2
f 85//2 84//2 79//2
f 86//2 87//2 88//2
f 88//2 87//2 89//2
f 87//2 90//2 89//2
f 89//2 90//2 91//2
f 90//2 92//2 91//2
f 91//2 92//2 93//2
f 92//2 94//2 93//2
f 93//2 94//2 61//2
f 61//2 94//2 59//2
f 59//2 94//2 95//2
f 94//2 96//2 95//2
f 95//2 96//2 97//2
f 97//2 96//2 98//2
f 98//2 96//2 99//2
f 96//2 100//2 99//2
f 99//2 100//2 101//2
f 100//2 102//2 101//2
f 101//2 102//2 103//2
f 102//2 104//2 103//2
f 103//2 104//2 105//2
f 104//2 106//2 105//2
f 105//2 106//2 107//2
f 107//2 106//2 108//2
f 106//2 109//2 108//2
f 110//2 108//2 109//2
f 111//2 112//2 113//2
f 112//2 114//2 113//2
f 113//2 114//2 109//2
f 109//2 114//2 110//2
f 110//2 114//2 115//2
f 116//2 115//2 114//2
