# SSTK version 0.8.0
# 243
mtllib original-243.mtl
o #ID1358
v -0.172808 0.05945 -0.469077
v -0.17277 0.061348 -0.469077
v -0.17277 0.059501 -0.469077
v -0.17277 0.091433 -0.469077
v -0.172836 0.091534 -0.469077
v -0.172883 0.059376 -0.469077
v -0.172977 0.091694 -0.469077
v -0.172968 0.059314 -0.469077
v -0.173062 0.059267 -0.469077
v -0.17314 0.091831 -0.469077
v -0.173162 0.059233 -0.469077
v -0.173322 0.091943 -0.469077
v -0.173265 0.059216 -0.469077
v -0.173819 0.059208 -0.469077
v -0.173519 0.092025 -0.469077
v -0.173725 0.092078 -0.469077
v -0.174097 0.092115 -0.469077
v -0.17504 0.061478 -0.469077
v -0.196228 0.059208 -0.469077
v -0.196228 0.061478 -0.469077
v -0.217416 0.061478 -0.469077
v -0.218637 0.059208 -0.469077
v -0.217416 0.089845 -0.469077
v -0.21836 0.092115 -0.469077
v -0.218731 0.092078 -0.469077
v -0.219191 0.059216 -0.469077
v -0.218937 0.092025 -0.469077
v -0.219134 0.091943 -0.469077
v -0.219316 0.091831 -0.469077
v -0.219295 0.059233 -0.469077
v -0.219394 0.059267 -0.469077
v -0.219479 0.091694 -0.469077
v -0.219488 0.059314 -0.469077
v -0.21962 0.091534 -0.469077
v -0.219573 0.059376 -0.469077
v -0.219648 0.05945 -0.469077
v -0.219686 0.091433 -0.469077
v -0.219686 0.059501 -0.469077
v -0.219686 0.061348 -0.469077
v -0.17504 0.089845 -0.469077
v -0.195901 0.092115 -0.469077
v -0.195901 0.089845 -0.469077
v -0.196228 0.089845 -0.469077
v -0.196228 0.092115 -0.469077
v -0.196555 0.089845 -0.469077
v -0.196555 0.092115 -0.469077
vn 0.07703758696072058 -0.06682592736359666 -0.9947861607537897
vn 0.09756564914402104 -1.918920833707427e-09 -0.9952290912684908
vn 0.10575879711208634 -0.034925939046297975 -0.9937782728632876
vn 0.10608139648468373 0.03128842896315981 -0.9938650670653822
vn 0.08120718737441235 0.06152867801065017 -0.9947962678362835
vn 0.06593681740848038 -0.07779993694222992 -0.9947861609018421
vn 0.07113427774791202 0.07294037769072444 -0.9947962685050731
vn 0.05329132787169582 -0.08695130652741846 -0.9947861602710636
vn 0.03939735841792012 -0.09406563622261227 -0.9947861600523626
vn 0.05947365807215061 0.0827240573184776 -0.9947962677534963
vn 0.024580419006934032 -0.09897625600129668 -0.9947861598099408
vn 0.04648557850318794 0.09066132708074401 -0.994796267968061
vn 0.009187627654746075 -0.10156809618326491 -0.9947861626177681
vn 0.0006674508251957874 -0.09797921369862257 -0.9951882375673438
vn 0.03245993898371208 0.09657502697632597 -0.9947962688539276
vn 0.017709799410866284 0.10033319666231058 -0.9947962669071233
vn 0.005020754173938584 0.10039060347791282 -0.994935434468421
vn 0.0 -1.5143148833827528e-09 -1.0
vn 0.0 -0.09756667904935507 -0.995228990302875
vn -0.0006674508251953931 -0.09797921369862257 -0.9951882375673438
vn -0.00502075417393819 0.10039060347791282 -0.994935434468421
vn -0.017709799410865888 0.10033319666231058 -0.9947962669071233
vn -0.009187627654745682 -0.10156809618326491 -0.9947861626177681
vn -0.03245993898371168 0.09657502697632597 -0.9947962688539276
vn -0.04648557850318754 0.09066132708074401 -0.994796267968061
vn -0.05947365807215023 0.08272405731847762 -0.9947962677534965
vn -0.024580419006933637 -0.09897625600129668 -0.9947861598099408
vn -0.03939735841791973 -0.09406563622261227 -0.9947861600523629
vn -0.07113427774791162 0.07294037769072444 -0.9947962685050731
vn -0.053291327871695424 -0.08695130652741846 -0.9947861602710636
vn -0.08120718737441196 0.06152867801065018 -0.9947962678362836
vn -0.06593681740847997 -0.07779993694222989 -0.9947861609018421
vn -0.07703758696072018 -0.06682592736359666 -0.9947861607537897
vn -0.10608139648468333 0.03128842896315981 -0.9938650670653822
vn -0.10575879711208594 -0.034925939046297975 -0.9937782728632876
vn -0.09756564914402063 -1.9189128337074966e-09 -0.9952290912684908
vn -3.885772772528764e-09 0.09756563923920458 -0.995229092239493
vn 0.0 0.09756563923920458 -0.995229092239493
vn 3.885776166870951e-09 0.09756563923920458 -0.995229092239493
usemtl material_0_0
f 1//1 2//2 3//3
f 2//2 1//1 4//4
f 4//4 1//1 5//5
f 5//5 1//1 6//6
f 5//5 6//6 7//7
f 7//7 6//6 8//8
f 7//7 8//8 9//9
f 7//7 9//9 10//10
f 10//10 9//9 11//11
f 10//10 11//11 12//12
f 12//12 11//11 13//13
f 12//12 13//13 14//14
f 12//12 14//14 15//15
f 15//15 14//14 16//16
f 16//16 14//14 17//17
f 17//17 14//14 18//18
f 18//18 14//14 19//19
f 18//18 19//19 20//18
f 20//18 19//19 21//18
f 21//18 19//19 22//20
f 21//18 22//20 23//18
f 23//18 22//20 24//21
f 24//21 22//20 25//22
f 25//22 22//20 26//23
f 25//22 26//23 27//24
f 27//24 26//23 28//25
f 28//25 26//23 29//26
f 29//26 26//23 30//27
f 29//26 30//27 31//28
f 29//26 31//28 32//29
f 32//29 31//28 33//30
f 32//29 33//30 34//31
f 34//31 33//30 35//32
f 34//31 35//32 36//33
f 34//31 36//33 37//34
f 37//34 36//33 38//35
f 37//34 38//35 39//36
f 17//17 40//18 41//37
f 40//18 17//17 18//18
f 41//37 40//18 42//18
f 41//37 42//18 43//18
f 41//37 43//18 44//38
f 44//38 43//18 45//18
f 44//38 45//18 46//39
f 46//39 45//18 24//21
f 24//21 45//18 23//18
