# SSTK version 0.8.0
# 32
mtllib original-32.mtl
o #ID528
v -0.080314 -0.097829 0.04591
v -0.078042 -0.096086 0.047544
v -0.078042 -0.096086 0.04591
v -0.080314 -0.097829 0.047544
v -0.080314 -0.097829 0.047544
v -0.080314 -0.097829 0.04591
v -0.078042 -0.096086 0.047544
v -0.078042 -0.096086 0.04591
v -0.076299 -0.093815 0.04591
v -0.076299 -0.093815 0.047544
v -0.076299 -0.093815 0.047544
v -0.076299 -0.093815 0.04591
v -0.08296 -0.098925 0.04591
v -0.08296 -0.098925 0.047544
v -0.08296 -0.098925 0.047544
v -0.08296 -0.098925 0.04591
v -0.075203 -0.091169 0.04591
v -0.075203 -0.091169 0.047544
v -0.075203 -0.091169 0.047544
v -0.075203 -0.091169 0.04591
v -0.085798 -0.099299 0.04591
v -0.085798 -0.099299 0.047544
v -0.085798 -0.099299 0.047544
v -0.085798 -0.099299 0.04591
v -0.07483 -0.08833 0.04591
v -0.07483 -0.08833 0.047544
v -0.07483 -0.08833 0.047544
v -0.07483 -0.08833 0.04591
v -0.088637 -0.098925 0.04591
v -0.088637 -0.098925 0.047544
v -0.088637 -0.098925 0.047544
v -0.088637 -0.098925 0.04591
v -0.075203 -0.085491 0.04591
v -0.075203 -0.085491 0.047544
v -0.075203 -0.085491 0.047544
v -0.075203 -0.085491 0.04591
v -0.091283 -0.097829 0.04591
v -0.091283 -0.097829 0.047544
v -0.091283 -0.097829 0.047544
v -0.091283 -0.097829 0.04591
v -0.076299 -0.082846 0.04591
v -0.076299 -0.082846 0.047544
v -0.076299 -0.082846 0.047544
v -0.076299 -0.082846 0.04591
v -0.093555 -0.096086 0.04591
v -0.093555 -0.096086 0.047544
v -0.093555 -0.096086 0.047544
v -0.093555 -0.096086 0.04591
v -0.078042 -0.080574 0.04591
v -0.078042 -0.080574 0.047544
v -0.078042 -0.080574 0.047544
v -0.078042 -0.080574 0.04591
v -0.095298 -0.093815 0.04591
v -0.095298 -0.093815 0.047544
v -0.095298 -0.093815 0.047544
v -0.095298 -0.093815 0.04591
v -0.080314 -0.078831 0.047544
v -0.080314 -0.078831 0.04591
v -0.080314 -0.078831 0.04591
v -0.080314 -0.078831 0.047544
v -0.096394 -0.091169 0.04591
v -0.096394 -0.091169 0.047544
v -0.096394 -0.091169 0.047544
v -0.096394 -0.091169 0.04591
v -0.08296 -0.077735 0.047544
v -0.08296 -0.077735 0.04591
v -0.08296 -0.077735 0.04591
v -0.08296 -0.077735 0.047544
v -0.096767 -0.08833 0.04591
v -0.096767 -0.08833 0.047544
v -0.096767 -0.08833 0.047544
v -0.096767 -0.08833 0.04591
v -0.085798 -0.077361 0.047544
v -0.085798 -0.077361 0.04591
v -0.085798 -0.077361 0.04591
v -0.085798 -0.077361 0.047544
v -0.096394 -0.085491 0.04591
v -0.096394 -0.085491 0.047544
v -0.096394 -0.085491 0.047544
v -0.096394 -0.085491 0.04591
v -0.088637 -0.077735 0.047544
v -0.088637 -0.077735 0.04591
v -0.088637 -0.077735 0.04591
v -0.088637 -0.077735 0.047544
v -0.095298 -0.082846 0.04591
v -0.095298 -0.082846 0.047544
v -0.095298 -0.082846 0.047544
v -0.095298 -0.082846 0.04591
v -0.091283 -0.078831 0.047544
v -0.091283 -0.078831 0.04591
v -0.091283 -0.078831 0.04591
v -0.091283 -0.078831 0.047544
v -0.093555 -0.080574 0.04591
v -0.093555 -0.080574 0.047544
v -0.093555 -0.080574 0.047544
v -0.093555 -0.080574 0.04591
vt 0.6527476 0.5207013
vt 0.6543531 0.5221899
vt 0.655585 0.5241298
vt 0.650878 0.5197655
vt 0.6563594 0.5263889
vt 0.6488717 0.5194464
vt 0.6566236 0.5288132
vt 0.6468654 0.5197655
vt 0.6563594 0.5312375
vt 0.6449958 0.5207013
vt 0.655585 0.5334966
vt 0.6433903 0.5221899
vt 0.6543531 0.5354366
vt 0.6421584 0.5241298
vt 0.6527476 0.5369251
vt 0.641384 0.5263889
vt 0.650878 0.5378609
vt 0.6411198 0.5288132
vt 0.6488717 0.5381801
vt 0.641384 0.5312375
vt 0.6468654 0.5378609
vt 0.6421584 0.5334966
vt 0.6449958 0.5369251
vt 0.6433903 0.5354366
vn -0.5000000016387101 0.8660254028383291 4.8361264902204165e-09
vn -0.7071067811865475 0.7071067811865475 3.948680849042312e-09
vn -0.8660254028383291 0.5000000016387101 2.7921387870175983e-09
vn -0.25881900959356163 0.9659258358036645 5.393997763236759e-09
vn -0.9659258358036645 0.25881900959356163 1.4453177738815476e-09
vn 0.0 1.0 5.584277555733173e-09
vn -1.0 0.0 0.0
vn 0.25881900959356163 0.9659258358036645 5.393997763236759e-09
vn -0.9659258358036645 -0.25881900959356163 -1.4453177738815476e-09
vn 0.5000000016387101 0.8660254028383291 4.8361264902204165e-09
vn -0.8660254028383291 -0.5000000016387101 -2.7921387870175983e-09
vn 0.7071067811865475 0.7071067811865475 3.948680849042312e-09
vn -0.7071067811865475 -0.7071067811865475 -3.948680849042312e-09
vn 0.8660254028383291 0.5000000016387101 2.7921387870175983e-09
vn -0.5000000016387101 -0.8660254028383291 -4.8361264902204165e-09
vn 0.9659258358036645 0.25881900959356163 1.4453177738815476e-09
vn -0.25881900959356163 -0.9659258358036645 -5.393997763236759e-09
vn 1.0 0.0 0.0
vn 0.0 -1.0 -5.584277555733173e-09
vn 0.9659258358036645 -0.25881900959356163 -1.4453177738815476e-09
vn 0.25881900959356163 -0.9659258358036645 -5.393997763236759e-09
vn 0.8660254028383291 -0.5000000016387101 -2.7921387870175983e-09
vn 0.5000000016387101 -0.8660254028383291 -4.8361264902204165e-09
vn 0.7071067811865475 -0.7071067811865475 -3.948680849042312e-09
usemtl material_0_0
f 1//1 2//2 3//2
f 2//2 1//1 4//1
f 2//2 9//3 3//2
f 9//3 2//2 10//3
f 13//4 4//1 1//1
f 4//1 13//4 14//4
f 10//3 17//5 9//3
f 17//5 10//3 18//5
f 21//6 14//4 13//4
f 14//4 21//6 22//6
f 18//5 25//7 17//5
f 25//7 18//5 26//7
f 29//8 22//6 21//6
f 22//6 29//8 30//8
f 26//7 33//9 25//7
f 33//9 26//7 34//9
f 37//10 30//8 29//8
f 30//8 37//10 38//10
f 34//9 41//11 33//9
f 41//11 34//9 42//11
f 45//12 38//10 37//10
f 38//10 45//12 46//12
f 42//11 49//13 41//11
f 49//13 42//11 50//13
f 53//14 46//12 45//12
f 46//12 53//14 54//14
f 57//15 49//13 50//13
f 49//13 57//15 58//15
f 61//16 54//14 53//14
f 54//14 61//16 62//16
f 65//17 58//15 57//15
f 58//15 65//17 66//17
f 69//18 62//16 61//16
f 62//16 69//18 70//18
f 73//19 66//17 65//17
f 66//17 73//19 74//19
f 77//20 70//18 69//18
f 70//18 77//20 78//20
f 81//21 74//19 73//19
f 74//19 81//21 82//21
f 85//22 78//20 77//20
f 78//20 85//22 86//22
f 89//23 82//21 81//21
f 82//21 89//23 90//23
f 93//24 86//22 85//22
f 86//22 93//24 94//24
f 94//24 90//23 89//23
f 90//23 94//24 93//24
usemtl material_1_0
f 5/1/23 6/1/23 7/2/24
f 8/2/24 7/2/24 6/1/23
f 11/3/22 7/2/24 12/3/22
f 8/2/24 12/3/22 7/2/24
f 15/4/21 16/4/21 5/1/23
f 6/1/23 5/1/23 16/4/21
f 19/5/20 11/3/22 20/5/20
f 12/3/22 20/5/20 11/3/22
f 23/6/19 24/6/19 15/4/21
f 16/4/21 15/4/21 24/6/19
f 27/7/18 19/5/20 28/7/18
f 20/5/20 28/7/18 19/5/20
f 31/8/17 32/8/17 23/6/19
f 24/6/19 23/6/19 32/8/17
f 35/9/16 27/7/18 36/9/16
f 28/7/18 36/9/16 27/7/18
f 39/10/15 40/10/15 31/8/17
f 32/8/17 31/8/17 40/10/15
f 43/11/14 35/9/16 44/11/14
f 36/9/16 44/11/14 35/9/16
f 47/12/13 48/12/13 39/10/15
f 40/10/15 39/10/15 48/12/13
f 51/13/12 43/11/14 52/13/12
f 44/11/14 52/13/12 43/11/14
f 55/14/11 56/14/11 47/12/13
f 48/12/13 47/12/13 56/14/11
f 59/15/10 60/15/10 52/13/12
f 51/13/12 52/13/12 60/15/10
f 63/16/9 64/16/9 55/14/11
f 56/14/11 55/14/11 64/16/9
f 67/17/8 68/17/8 59/15/10
f 60/15/10 59/15/10 68/17/8
f 71/18/7 72/18/7 63/16/9
f 64/16/9 63/16/9 72/18/7
f 75/19/6 76/19/6 67/17/8
f 68/17/8 67/17/8 76/19/6
f 79/20/5 80/20/5 71/18/7
f 72/18/7 71/18/7 80/20/5
f 83/21/4 84/21/4 75/19/6
f 76/19/6 75/19/6 84/21/4
f 87/22/3 88/22/3 79/20/5
f 80/20/5 79/20/5 88/22/3
f 91/23/1 92/23/1 83/21/4
f 84/21/4 83/21/4 92/23/1
f 95/24/2 96/24/2 87/22/3
f 88/22/3 87/22/3 96/24/2
f 96/24/2 95/24/2 91/23/1
f 92/23/1 91/23/1 95/24/2
