# SSTK version 0.8.0
# 775
mtllib original-775.mtl
o #ID4684
v 0.359234 -0.010858 0.124158
v 0.358553 -0.016027 0.122568
v 0.359234 -0.010858 0.122568
v 0.358553 -0.016027 0.124158
v 0.358553 -0.016027 0.124158
v 0.359234 -0.010858 0.124158
v 0.358553 -0.016027 0.122568
v 0.359234 -0.010858 0.122568
v 0.358265 -0.003496 0.122457
v 0.358265 -0.003496 0.124158
v 0.358618 -0.00618 0.122568
v 0.359234 -0.010858 0.117531
v 0.359234 -0.010858 0.119441
v 0.359234 -0.010858 0.119441
v 0.358618 -0.00618 0.122568
v 0.359234 -0.010858 0.117531
v 0.358265 -0.003496 0.122457
v 0.358265 -0.003496 0.124158
v 0.358908 -0.013335 0.115875
v 0.358553 -0.016027 0.115986
v 0.359234 -0.010858 0.115875
v 0.358553 -0.016027 0.114285
v 0.359234 -0.010858 0.114285
v 0.358553 -0.016027 0.115986
v 0.358908 -0.013335 0.115875
v 0.358553 -0.016027 0.114285
v 0.359234 -0.010858 0.115875
v 0.359234 -0.010858 0.114285
v 0.358265 -0.003496 0.114285
v 0.358265 -0.003496 0.115875
v 0.358265 -0.003496 0.114285
v 0.358265 -0.003496 0.115875
vn 1.0 -1.2427129999999908e-09 0.0
vn 0.9914448610250888 -0.1305261948688555 0.0
vn 1.0 -1.2427069999999907e-09 0.0
vn 0.9914448610250888 0.1305261948688555 0.0
vn 1.0 -1.5159820000000089e-09 0.0
vn 1.0 0.0 0.0
vn 1.0 -1.6657760000000093e-09 0.0
vn -0.9914448610250888 0.1305261948688555 0.0
vn -1.0 1.2427129999999908e-09 0.0
vn -1.0 1.2427069999999907e-09 0.0
vn -1.0 0.0 0.0
vn -0.9914448610250888 -0.1305261948688555 0.0
vn -1.0 1.5159820000000089e-09 0.0
vn -1.0 1.6657760000000093e-09 0.0
usemtl material_0_0
f 5//8 6//9 7//8
f 8//10 7//8 6//9
f 14//11 15//12 16//13
f 17//12 16//13 15//12
f 8//10 6//9 15//12
f 15//12 6//9 17//12
f 18//12 17//12 6//9
f 24//8 25//8 26//8
f 25//8 27//14 26//8
f 28//11 26//8 27//14
f 24//8 14//11 25//8
f 16//13 25//8 14//11
f 28//11 27//14 31//12
f 32//12 31//12 27//14
usemtl material_1_0
f 1//1 2//2 3//3
f 2//2 1//1 4//2
f 1//1 9//4 10//4
f 9//4 1//1 11//4
f 11//4 1//1 3//3
f 11//4 12//5 9//4
f 12//5 11//4 13//6
f 13//6 19//2 12//5
f 19//2 13//6 20//2
f 21//7 22//2 23//6
f 22//2 21//7 19//2
f 22//2 19//2 20//2
f 21//7 29//4 30//4
f 29//4 21//7 23//6
