# SSTK version 0.8.0
# 436
mtllib original-436.mtl
o #ID2936
v 0.323525 0.240374 -0.446792
v 0.325821 0.240337 -0.446804
v 0.323529 0.240336 -0.446804
v 0.325819 0.240357 -0.446798
v 0.32456 0.231093 -0.448999
v 0.326427 0.231049 -0.44901
v 0.325758 0.241301 -0.446591
v 0.323421 0.241313 -0.446587
v 0.324565 0.231046 -0.449011
v 0.326429 0.231025 -0.449016
v 0.325408 0.2465 -0.444718
v 0.322824 0.2465 -0.444718
v 0.326432 0.23098 -0.449025
v 0.324574 0.230959 -0.449029
v 0.326675 0.227215 -0.449732
v 0.324987 0.227213 -0.449732
vn -0.0002963191070014859 0.24778960585482115 -0.9688138228913227
vn -1.0844539635124172e-05 0.25659819136648643 -0.9665181674804898
vn -0.0003032413073237301 0.24779780598468665 -0.968811723398249
vn 5.0379288315936216e-05 0.23351929219398673 -0.9723521674965027
vn -0.0002219928047321914 0.2768139059008054 -0.9609235204838804
vn -0.00021571910923398824 0.2767989118485463 -0.9609278411331034
vn -9.432645771992528e-05 0.21891389470837697 -0.9757441764141507
vn 0.00014983849245662207 0.3390510829310182 -0.9407679526385505
vn -0.00019900268980424524 0.19319099010200314 -0.9811611497309385
vn -5.8490432638074445e-05 0.1590623071741339 -0.9872685445284434
usemtl material_0_0
f 1//1 2//2 3//2
f 2//2 1//1 4//3
f 5//4 2//2 6//4
f 2//2 5//4 3//2
f 1//1 7//5 4//3
f 7//5 1//1 8//6
f 9//7 6//4 10//7
f 6//4 9//7 5//4
f 8//6 11//8 7//5
f 11//8 8//6 12//8
f 9//7 13//9 14//9
f 13//9 9//7 10//7
f 14//9 15//10 16//10
f 15//10 14//9 13//9
