# SSTK version 0.8.0
# 118
mtllib original-118.mtl
o #ID612
v 0.355344 -0.123476 -0.023003
v 0.354752 -0.12659 -0.033241
v 0.355344 -0.123476 -0.033241
v 0.354752 -0.12659 -0.023003
v 0.354752 -0.12659 -0.023003
v 0.355344 -0.123476 -0.023003
v 0.354752 -0.12659 -0.033241
v 0.355344 -0.123476 -0.033241
vn 0.9823993864162553 -0.18679252010978714 0.0
vn -0.9823993864162553 0.18679252010978714 0.0
usemtl material_0_0
f 1//1 2//1 3//1
f 2//1 1//1 4//1
usemtl material_1_0
f 5//2 6//2 7//2
f 8//2 7//2 6//2
