# SSTK version 0.8.0
# 418
mtllib original-418.mtl
o #ID2448
v -0.465766 0.073481 -0.401951
v -0.463332 0.098806 -0.401951
v -0.463332 0.073481 -0.401951
v -0.465766 0.098806 -0.401951
v -0.465766 0.098806 -0.401951
v -0.465766 0.073481 -0.401951
v -0.463332 0.098806 -0.401951
v -0.463332 0.073481 -0.401951
v -0.465766 0.098806 -0.401951
v -0.463332 0.086143 -0.417905
v -0.463332 0.098806 -0.401951
v -0.463564 0.086795 -0.417085
v -0.464471 0.089958 -0.413099
v -0.465175 0.093163 -0.409061
v -0.465175 0.093163 -0.409061
v -0.465766 0.098806 -0.401951
v -0.464471 0.089958 -0.413099
v -0.463564 0.086795 -0.417085
v -0.463332 0.086143 -0.417905
v -0.463332 0.098806 -0.401951
v -0.463332 0.098806 -0.401951
v -0.463332 0.086143 -0.417905
v -0.463332 0.073481 -0.401951
v -0.463332 0.073481 -0.401951
v -0.463332 0.086143 -0.417905
v -0.463332 0.098806 -0.401951
v -0.463564 0.085492 -0.417085
v -0.463332 0.073481 -0.401951
v -0.463332 0.086143 -0.417905
v -0.465766 0.073481 -0.401951
v -0.464471 0.082329 -0.413099
v -0.465175 0.079124 -0.409061
v -0.465175 0.079124 -0.409061
v -0.464471 0.082329 -0.413099
v -0.465766 0.073481 -0.401951
v -0.463564 0.085492 -0.417085
v -0.463332 0.073481 -0.401951
v -0.463332 0.086143 -0.417905
vn 0.0 0.0 -1.0
vn 0.0 -0.783279814235903 0.6216693112986752
vn -1.0 0.0 0.0
vn 0.0 0.7832798142359033 0.6216693112986749
vn 0.0 0.0 1.0
vn 0.0 0.783279814235903 -0.6216693112986752
vn 1.0 0.0 0.0
vn 0.0 -0.7832798142359033 -0.6216693112986749
usemtl material_0_0
f 5//5 6//5 7//5
f 8//5 7//5 6//5
f 15//6 16//6 17//6
f 17//6 16//6 18//6
f 18//6 16//6 19//6
f 20//6 19//6 16//6
f 24//7 25//7 26//7
f 33//8 34//8 35//8
f 34//8 36//8 35//8
f 35//8 36//8 37//8
f 38//8 37//8 36//8
usemtl material_1_0
f 1//1 2//1 3//1
f 2//1 1//1 4//1
f 9//2 10//2 11//2
f 10//2 9//2 12//2
f 12//2 9//2 13//2
f 13//2 9//2 14//2
f 21//3 22//3 23//3
f 27//4 28//4 29//4
f 28//4 27//4 30//4
f 30//4 27//4 31//4
f 30//4 31//4 32//4
