# SSTK version 0.8.0
# 260
mtllib original-260.mtl
o #ID2025
v -0.006377 -0.308798 -0.26734
v 0.003863 -0.308798 -0.273726
v 0.003863 -0.308798 -0.26734
v -0.020306 -0.308798 -0.261171
v -0.020398 -0.308798 -0.263846
v -0.02029 -0.308798 -0.261826
v -0.021334 -0.308798 -0.262588
v -0.020724 -0.308798 -0.265829
v -0.021211 -0.308798 -0.267592
v -0.021803 -0.308798 -0.26895
v -0.022681 -0.308798 -0.26371
v -0.022538 -0.308798 -0.269989
v -0.023454 -0.308798 -0.270797
v -0.024248 -0.308798 -0.26444
v -0.024543 -0.308798 -0.271315
v -0.025941 -0.308798 -0.264683
v -0.025796 -0.308798 -0.271488
v -0.027217 -0.308798 -0.271238
v -0.02735 -0.308798 -0.264533
v -0.028357 -0.308798 -0.270487
v -0.028646 -0.308798 -0.264083
v -0.029194 -0.308798 -0.269182
v -0.02983 -0.308798 -0.263332
v -0.029709 -0.308798 -0.267267
v -0.032495 -0.308798 -0.267558
v -0.0309 -0.308798 -0.262281
v -0.031788 -0.308798 -0.260985
v -0.032422 -0.308798 -0.259497
v -0.032803 -0.308798 -0.257819
v -0.060238 -0.308798 -0.250545
v -0.050821 -0.308798 -0.253709
v -0.048677 -0.308798 -0.250545
v -0.05284 -0.308798 -0.257523
v -0.054568 -0.308798 -0.261742
v -0.055842 -0.308798 -0.26612
v -0.05664 -0.308798 -0.270251
v -0.056938 -0.308798 -0.273726
v 0.006762 -0.308798 -0.264337
v 0.00995 -0.308798 -0.264337
v 0.006762 -0.308798 -0.247052
v 0.033988 -0.308798 -0.252481
v 0.033958 -0.308798 -0.256188
v 0.034296 -0.308798 -0.254275
v 0.033064 -0.308798 -0.250991
v 0.032943 -0.308798 -0.258215
v 0.031645 -0.308798 -0.249988
v 0.030967 -0.308798 -0.260669
v 0.029852 -0.308798 -0.249654
v 0.027743 -0.308798 -0.263864
v 0.027968 -0.308798 -0.250009
v 0.027183 -0.308798 -0.250452
v 0.025555 -0.308798 -0.26602
v 0.026503 -0.308798 -0.251073
v 0.025952 -0.308798 -0.251851
v 0.025557 -0.308798 -0.252765
v 0.025231 -0.308798 -0.255003
v 0.023951 -0.308798 -0.267904
v 0.022252 -0.308798 -0.254658
v 0.022817 -0.308798 -0.269664
v 0.022042 -0.308798 -0.271452
v 0.037307 -0.308798 -0.270578
v 0.032982 -0.308798 -0.262782
v 0.02573 -0.308798 -0.270578
v 0.034771 -0.308798 -0.260753
v 0.035924 -0.308798 -0.259083
v 0.036695 -0.308798 -0.257496
v 0.03713 -0.308798 -0.255936
v 0.037275 -0.308798 -0.254348
v 0.030303 -0.308798 -0.265447
v 0.026954 -0.308798 -0.268804
v -0.116386 -0.308798 -0.26734
v -0.106145 -0.308798 -0.273726
v -0.106145 -0.308798 -0.26734
v 0.074101 -0.308798 -0.241001
v 0.063905 -0.308798 -0.250809
v 0.074101 -0.308798 -0.279742
v 0.063283 -0.308798 -0.249674
v 0.062482 -0.308798 -0.248708
v 0.06153 -0.308798 -0.247936
v 0.060452 -0.308798 -0.247384
v 0.059247 -0.308798 -0.247053
v 0.057917 -0.308798 -0.246943
v -0.124624 -0.308798 -0.241001
v 0.06435 -0.308798 -0.252112
v 0.064616 -0.308798 -0.253584
v 0.065035 -0.308798 -0.265065
v 0.064907 -0.308798 -0.263243
v 0.056145 -0.308798 -0.247134
v 0.054564 -0.308798 -0.247707
v 0.029916 -0.308798 -0.246943
v 0.053174 -0.308798 -0.248662
v 0.031526 -0.308798 -0.247076
v 0.051976 -0.308798 -0.25
v 0.05087 -0.308798 -0.252019
v 0.032959 -0.308798 -0.247475
v 0.05008 -0.308798 -0.254567
v 0.034216 -0.308798 -0.24814
v 0.049606 -0.308798 -0.257641
v 0.049448 -0.308798 -0.261244
v 0.035294 -0.308798 -0.249072
v 0.036161 -0.308798 -0.2502
v 0.03678 -0.308798 -0.251455
v 0.037151 -0.308798 -0.252838
v 0.028319 -0.308798 -0.247066
v 0.026893 -0.308798 -0.247436
v 0.025638 -0.308798 -0.248053
v 0.024554 -0.308798 -0.248917
v 0.023662 -0.308798 -0.250016
v 0.02298 -0.308798 -0.251339
v 0.02251 -0.308798 -0.252886
v 0.021773 -0.308798 -0.272566
v 0.021704 -0.308798 -0.273726
v 0.004395 -0.308798 -0.247052
v -0.025506 -0.308798 -0.246943
v -0.023302 -0.308798 -0.247293
v -0.021296 -0.308798 -0.248344
v -0.019617 -0.308798 -0.250043
v -0.006377 -0.308798 -0.264337
v -0.018397 -0.308798 -0.252338
v -0.017964 -0.308798 -0.253779
v -0.017655 -0.308798 -0.25551
v -0.017407 -0.308798 -0.259843
v -0.027034 -0.308798 -0.247097
v -0.028427 -0.308798 -0.247561
v -0.029686 -0.308798 -0.248335
v -0.044958 -0.308798 -0.247398
v -0.030812 -0.308798 -0.249417
v -0.031738 -0.308798 -0.250753
v -0.0324 -0.308798 -0.252288
v -0.032797 -0.308798 -0.25402
v -0.03293 -0.308798 -0.255949
v -0.060238 -0.308798 -0.247398
v -0.078454 -0.308798 -0.247159
v -0.076904 -0.308798 -0.247807
v -0.075596 -0.308798 -0.248862
v -0.074537 -0.308798 -0.2503
v -0.073703 -0.308798 -0.252106
v -0.073071 -0.308798 -0.254266
v -0.072673 -0.308798 -0.257011
v -0.07254 -0.308798 -0.260571
v -0.080237 -0.308798 -0.246943
v -0.08147 -0.308798 -0.247041
v -0.082594 -0.308798 -0.247334
v -0.083608 -0.308798 -0.247823
v -0.084512 -0.308798 -0.248508
v -0.086001 -0.308798 -0.250402
v -0.103246 -0.308798 -0.247052
v -0.087072 -0.308798 -0.252956
v -0.087718 -0.308798 -0.256302
v -0.087934 -0.308798 -0.260571
v -0.100058 -0.308798 -0.264337
v -0.105613 -0.308798 -0.247052
v -0.116386 -0.308798 -0.264337
v 0.057644 -0.308798 -0.274181
v -0.124624 -0.308798 -0.279742
v 0.059657 -0.308798 -0.273894
v 0.061444 -0.308798 -0.273035
v 0.062939 -0.308798 -0.271636
v 0.064076 -0.308798 -0.269732
v 0.064795 -0.308798 -0.267487
v 0.055916 -0.308798 -0.273993
v 0.054355 -0.308798 -0.273428
v 0.037307 -0.308798 -0.273726
v 0.052961 -0.308798 -0.272487
v 0.051734 -0.308798 -0.27117
v 0.050734 -0.308798 -0.26942
v 0.05002 -0.308798 -0.267183
v 0.049591 -0.308798 -0.264457
v 0.006762 -0.308798 -0.273726
v 0.00995 -0.308798 -0.26734
v 0.006762 -0.308798 -0.26734
v -0.025861 -0.308798 -0.274181
v -0.024598 -0.308798 -0.274082
v -0.023419 -0.308798 -0.273785
v -0.022324 -0.308798 -0.27329
v -0.021312 -0.308798 -0.272598
v -0.020402 -0.308798 -0.271716
v -0.019611 -0.308798 -0.270653
v -0.018389 -0.308798 -0.267985
v -0.017653 -0.308798 -0.264435
v -0.027182 -0.308798 -0.274072
v -0.028377 -0.308798 -0.273746
v -0.029444 -0.308798 -0.273203
v -0.030385 -0.308798 -0.272443
v -0.053958 -0.308798 -0.273726
v -0.031175 -0.308798 -0.271486
v -0.03179 -0.308798 -0.270353
v -0.03223 -0.308798 -0.269044
v -0.044958 -0.308798 -0.249945
v -0.047202 -0.308798 -0.253102
v -0.049426 -0.308798 -0.25715
v -0.051388 -0.308798 -0.261708
v -0.052848 -0.308798 -0.266393
v -0.05356 -0.308798 -0.2699
v -0.078996 -0.308798 -0.274083
v -0.077868 -0.308798 -0.273787
v -0.076851 -0.308798 -0.273296
v -0.075946 -0.308798 -0.272607
v -0.074458 -0.308798 -0.270706
v -0.073394 -0.308798 -0.268149
v -0.072753 -0.308798 -0.264813
v -0.080237 -0.308798 -0.274181
v -0.081852 -0.308798 -0.274008
v -0.083284 -0.308798 -0.273489
v -0.084533 -0.308798 -0.272625
v -0.085599 -0.308798 -0.271415
v -0.08662 -0.308798 -0.269489
v -0.103246 -0.308798 -0.273726
v -0.08735 -0.308798 -0.267039
v -0.087788 -0.308798 -0.264067
v -0.100058 -0.308798 -0.26734
v -0.103246 -0.308798 -0.26734
v -0.103246 -0.308798 -0.264337
v 0.064525 -0.308798 -0.261597
v 0.061734 -0.308798 -0.253839
v 0.063889 -0.308798 -0.260127
v 0.062998 -0.308798 -0.258833
v 0.061925 -0.308798 -0.257779
v 0.060745 -0.308798 -0.257025
v 0.061267 -0.308798 -0.252174
v 0.060639 -0.308798 -0.251037
v 0.059458 -0.308798 -0.256573
v 0.059326 -0.308798 -0.249986
v 0.058062 -0.308798 -0.256422
v 0.05774 -0.308798 -0.249636
v 0.05644 -0.308798 -0.256641
v 0.05644 -0.308798 -0.249854
v 0.055309 -0.308798 -0.250509
v 0.05489 -0.308798 -0.257296
v 0.054085 -0.308798 -0.251896
v 0.053493 -0.308798 -0.258401
v 0.053151 -0.308798 -0.253802
v 0.05233 -0.308798 -0.25997
v 0.052551 -0.308798 -0.256427
vn 0.0 -1.0 0.0
usemtl material_0_0
f 1//1 2//1 3//1
f 4//1 5//1 6//1
f 5//1 4//1 7//1
f 5//1 7//1 8//1
f 8//1 7//1 9//1
f 9//1 7//1 10//1
f 10//1 7//1 11//1
f 10//1 11//1 12//1
f 12//1 11//1 13//1
f 13//1 11//1 14//1
f 13//1 14//1 15//1
f 15//1 14//1 16//1
f 15//1 16//1 17//1
f 17//1 16//1 18//1
f 18//1 16//1 19//1
f 18//1 19//1 20//1
f 20//1 19//1 21//1
f 20//1 21//1 22//1
f 22//1 21//1 23//1
f 22//1 23//1 24//1
f 24//1 23//1 25//1
f 25//1 23//1 26//1
f 25//1 26//1 27//1
f 25//1 27//1 28//1
f 25//1 28//1 29//1
f 30//1 31//1 32//1
f 31//1 30//1 33//1
f 33//1 30//1 34//1
f 34//1 30//1 35//1
f 35//1 30//1 36//1
f 36//1 30//1 37//1
f 38//1 39//1 40//1
f 41//1 42//1 43//1
f 42//1 41//1 44//1
f 42//1 44//1 45//1
f 45//1 44//1 46//1
f 45//1 46//1 47//1
f 47//1 46//1 48//1
f 47//1 48//1 49//1
f 49//1 48//1 50//1
f 49//1 50//1 51//1
f 49//1 51//1 52//1
f 52//1 51//1 53//1
f 52//1 53//1 54//1
f 52//1 54//1 55//1
f 52//1 55//1 56//1
f 52//1 56//1 57//1
f 57//1 56//1 58//1
f 57//1 58//1 59//1
f 59//1 58//1 60//1
f 61//1 62//1 63//1
f 62//1 61//1 64//1
f 64//1 61//1 65//1
f 65//1 61//1 66//1
f 66//1 61//1 67//1
f 67//1 61//1 68//1
f 63//1 62//1 69//1
f 63//1 69//1 70//1
f 71//1 72//1 73//1
f 74//1 75//1 76//1
f 75//1 74//1 77//1
f 77//1 74//1 78//1
f 78//1 74//1 79//1
f 79//1 74//1 80//1
f 80//1 74//1 81//1
f 81//1 74//1 82//1
f 82//1 74//1 83//1
f 76//1 75//1 84//1
f 76//1 84//1 85//1
f 76//1 85//1 86//1
f 86//1 85//1 87//1
f 82//1 83//1 88//1
f 88//1 83//1 89//1
f 89//1 83//1 90//1
f 89//1 90//1 91//1
f 91//1 90//1 92//1
f 91//1 92//1 93//1
f 93//1 92//1 94//1
f 94//1 92//1 95//1
f 94//1 95//1 96//1
f 96//1 95//1 97//1
f 96//1 97//1 98//1
f 98//1 97//1 99//1
f 99//1 97//1 100//1
f 99//1 100//1 101//1
f 99//1 101//1 102//1
f 99//1 102//1 103//1
f 99//1 103//1 68//1
f 99//1 68//1 61//1
f 90//1 83//1 104//1
f 104//1 83//1 105//1
f 105//1 83//1 40//1
f 105//1 40//1 106//1
f 106//1 40//1 107//1
f 107//1 40//1 108//1
f 108//1 40//1 109//1
f 109//1 40//1 110//1
f 110//1 40//1 58//1
f 58//1 40//1 60//1
f 60//1 40//1 111//1
f 111//1 40//1 112//1
f 112//1 40//1 39//1
f 40//1 83//1 113//1
f 113//1 83//1 114//1
f 113//1 114//1 115//1
f 113//1 115//1 116//1
f 113//1 116//1 117//1
f 113//1 117//1 118//1
f 118//1 117//1 1//1
f 1//1 117//1 119//1
f 1//1 119//1 120//1
f 1//1 120//1 121//1
f 1//1 121//1 122//1
f 114//1 83//1 123//1
f 123//1 83//1 124//1
f 124//1 83//1 125//1
f 125//1 83//1 126//1
f 125//1 126//1 127//1
f 127//1 126//1 128//1
f 128//1 126//1 129//1
f 129//1 126//1 130//1
f 130//1 126//1 131//1
f 126//1 83//1 132//1
f 132//1 83//1 133//1
f 132//1 133//1 30//1
f 30//1 133//1 134//1
f 30//1 134//1 135//1
f 30//1 135//1 136//1
f 30//1 136//1 137//1
f 30//1 137//1 138//1
f 30//1 138//1 139//1
f 30//1 139//1 140//1
f 133//1 83//1 141//1
f 141//1 83//1 142//1
f 142//1 83//1 143//1
f 143//1 83//1 144//1
f 144//1 83//1 145//1
f 145//1 83//1 146//1
f 146//1 83//1 147//1
f 146//1 147//1 148//1
f 148//1 147//1 149//1
f 149//1 147//1 150//1
f 150//1 147//1 151//1
f 147//1 83//1 152//1
f 152//1 83//1 153//1
f 76//1 154//1 155//1
f 154//1 76//1 156//1
f 156//1 76//1 157//1
f 157//1 76//1 158//1
f 158//1 76//1 159//1
f 159//1 76//1 160//1
f 160//1 76//1 86//1
f 155//1 154//1 161//1
f 155//1 161//1 162//1
f 155//1 162//1 163//1
f 163//1 162//1 164//1
f 163//1 164//1 165//1
f 163//1 165//1 166//1
f 163//1 166//1 167//1
f 163//1 167//1 168//1
f 163//1 168//1 99//1
f 163//1 99//1 61//1
f 155//1 163//1 112//1
f 155//1 112//1 169//1
f 169//1 112//1 170//1
f 170//1 112//1 39//1
f 169//1 170//1 171//1
f 155//1 169//1 2//1
f 155//1 2//1 172//1
f 172//1 2//1 173//1
f 173//1 2//1 174//1
f 174//1 2//1 1//1
f 174//1 1//1 175//1
f 175//1 1//1 176//1
f 176//1 1//1 177//1
f 177//1 1//1 178//1
f 178//1 1//1 179//1
f 179//1 1//1 180//1
f 180//1 1//1 122//1
f 155//1 172//1 181//1
f 155//1 181//1 182//1
f 155//1 182//1 183//1
f 155//1 183//1 184//1
f 155//1 184//1 185//1
f 185//1 184//1 186//1
f 185//1 186//1 187//1
f 185//1 187//1 188//1
f 185//1 188//1 25//1
f 185//1 25//1 29//1
f 185//1 29//1 131//1
f 185//1 131//1 189//1
f 189//1 131//1 126//1
f 185//1 189//1 190//1
f 185//1 190//1 191//1
f 185//1 191//1 192//1
f 185//1 192//1 193//1
f 185//1 193//1 194//1
f 155//1 185//1 37//1
f 155//1 37//1 195//1
f 195//1 37//1 196//1
f 196//1 37//1 197//1
f 197//1 37//1 198//1
f 198//1 37//1 199//1
f 199//1 37//1 30//1
f 199//1 30//1 200//1
f 200//1 30//1 201//1
f 201//1 30//1 140//1
f 155//1 195//1 202//1
f 155//1 202//1 203//1
f 155//1 203//1 204//1
f 155//1 204//1 205//1
f 155//1 205//1 206//1
f 155//1 206//1 207//1
f 155//1 207//1 208//1
f 208//1 207//1 209//1
f 208//1 209//1 210//1
f 208//1 210//1 150//1
f 208//1 150//1 211//1
f 211//1 150//1 151//1
f 208//1 211//1 212//1
f 155//1 208//1 72//1
f 155//1 72//1 71//1
f 155//1 71//1 153//1
f 155//1 153//1 83//1
f 213//1 151//1 147//1
f 85//1 214//1 87//1
f 214//1 85//1 215//1
f 214//1 215//1 216//1
f 216//1 215//1 217//1
f 217//1 215//1 218//1
f 218//1 215//1 219//1
f 219//1 215//1 220//1
f 219//1 220//1 221//1
f 219//1 221//1 222//1
f 222//1 221//1 223//1
f 222//1 223//1 224//1
f 224//1 223//1 225//1
f 224//1 225//1 226//1
f 226//1 225//1 227//1
f 226//1 227//1 228//1
f 226//1 228//1 229//1
f 229//1 228//1 230//1
f 229//1 230//1 231//1
f 231//1 230//1 232//1
f 231//1 232//1 233//1
f 233//1 232//1 234//1
