# SSTK version 0.8.0
# 403
mtllib original-403.mtl
o #ID2295
v -0.330108 -0.093193 -0.471328
v -0.330241 -0.093524 -0.471462
v -0.330372 -0.093508 -0.471462
v -0.337875 -0.102477 -0.471462
v -0.334823 -0.105 -0.471462
vn 0.04532897064780129 0.3590404051310855 -0.932220613322467
vn 0.023058559732989682 0.18264179788506957 -0.9829090886182453
vn 0.023058529748940914 0.1826417980114132 -0.9829090892981789
vn -1.5542679999999618e-07 1.5795559977795152e-07 -1.0
usemtl material_0_0
f 1//1 2//2 3//3
f 4//4 2//2 5//4
f 2//2 4//4 3//3
