# SSTK version 0.8.0
# 231
mtllib original-231.mtl
o #ID1469
v -0.196041 -0.155621 -0.46651
v -0.183466 -0.158288 -0.46651
v -0.196041 -0.158288 -0.46651
v -0.183466 -0.155621 -0.46651
v -0.196894 -0.145977 -0.46651
v -0.183466 -0.148659 -0.46651
v -0.196894 -0.148659 -0.46651
v -0.197421 -0.166025 -0.46651
v -0.180458 -0.168708 -0.46651
v -0.197421 -0.168708 -0.46651
v -0.183466 -0.166025 -0.46651
v -0.180458 -0.145977 -0.46651
v -0.196894 -0.145977 -0.46651
v -0.183466 -0.148659 -0.46651
v -0.180458 -0.145977 -0.46651
v -0.183466 -0.155621 -0.46651
v -0.183466 -0.158288 -0.46651
v -0.183466 -0.166025 -0.46651
v -0.180458 -0.168708 -0.46651
v -0.197421 -0.166025 -0.46651
v -0.197421 -0.168708 -0.46651
v -0.196894 -0.148659 -0.46651
v -0.196041 -0.155621 -0.46651
v -0.196041 -0.158288 -0.46651
vn -1.257443e-09 -1.2293412220446048e-09 -1.0
vn 1.257443e-09 1.2293412220446048e-09 1.0
usemtl material_0_0
f 1//1 2//1 3//1
f 2//1 1//1 4//1
f 5//1 6//1 7//1
f 8//1 9//1 10//1
f 9//1 8//1 11//1
f 9//1 11//1 12//1
f 12//1 11//1 2//1
f 12//1 2//1 4//1
f 12//1 4//1 6//1
f 12//1 6//1 5//1
usemtl material_1_0
f 13//2 14//2 15//2
f 14//2 16//2 15//2
f 16//2 17//2 15//2
f 17//2 18//2 15//2
f 15//2 18//2 19//2
f 18//2 20//2 19//2
f 21//2 19//2 20//2
f 22//2 14//2 13//2
f 16//2 23//2 17//2
f 24//2 17//2 23//2
