# SSTK version 0.8.0
# 218
mtllib original-218.mtl
o #ID1309
v 0.048358 0.208235 -0.455296
v 0.055526 0.208717 -0.455296
v 0.056807 0.208633 -0.455296
v 0.047635 0.209318 -0.455296
v 0.054804 0.20886 -0.455296
v 0.054106 0.209097 -0.455296
v 0.053446 0.209423 -0.455296
v 0.047058 0.210487 -0.455296
v 0.052833 0.209832 -0.455296
v 0.05228 0.210317 -0.455296
v 0.051794 0.210871 -0.455296
v 0.04664 0.21172 -0.455296
v 0.051385 0.211483 -0.455296
v 0.051059 0.212144 -0.455296
v 0.046385 0.212998 -0.455296
v 0.050823 0.212841 -0.455296
v 0.050679 0.213564 -0.455296
v 0.046274 0.214703 -0.455296
v 0.050595 0.214844 -0.455296
v 0.046274 0.28205 -0.455296
v 0.050595 0.281909 -0.455296
v 0.050654 0.28281 -0.455296
v 0.04636 0.283375 -0.455296
v 0.050724 0.283159 -0.455296
v 0.050838 0.283496 -0.455296
v 0.04654 0.28428 -0.455296
v 0.050995 0.283815 -0.455296
v 0.051193 0.284111 -0.455296
v 0.051428 0.284379 -0.455296
v 0.046837 0.285153 -0.455296
v 0.051696 0.284614 -0.455296
v 0.051992 0.284812 -0.455296
v 0.052311 0.284969 -0.455296
v 0.052648 0.285084 -0.455296
v 0.052997 0.285153 -0.455296
v 0.053898 0.285212 -0.455296
v 0.047245 0.285981 -0.455296
v 0.179473 0.285212 -0.455296
v 0.186374 0.28526 -0.455296
v 0.185976 0.286067 -0.455296
v 0.047757 0.286748 -0.455296
v 0.185476 0.286816 -0.455296
v 0.048366 0.287441 -0.455296
v 0.184883 0.287492 -0.455296
v 0.049059 0.28805 -0.455296
v 0.184206 0.288085 -0.455296
v 0.049826 0.288562 -0.455296
v 0.183458 0.288585 -0.455296
v 0.050654 0.28897 -0.455296
v 0.182651 0.288983 -0.455296
v 0.051527 0.289267 -0.455296
v 0.181799 0.289273 -0.455296
v 0.052432 0.289447 -0.455296
v 0.180916 0.289448 -0.455296
v 0.053757 0.289533 -0.455296
v 0.179614 0.289533 -0.455296
v 0.056665 0.204311 -0.455296
v 0.177041 0.204435 -0.455296
v 0.175158 0.204311 -0.455296
v 0.054961 0.204423 -0.455296
v 0.053683 0.204677 -0.455296
v 0.178496 0.204724 -0.455296
v 0.052449 0.205096 -0.455296
v 0.1799 0.205201 -0.455296
v 0.05128 0.205672 -0.455296
v 0.18123 0.205856 -0.455296
v 0.050197 0.206396 -0.455296
v 0.182463 0.20668 -0.455296
v 0.049218 0.207255 -0.455296
v 0.183577 0.207658 -0.455296
v 0.175016 0.208633 -0.455296
v 0.184555 0.208773 -0.455296
v 0.176476 0.208728 -0.455296
v 0.177375 0.208907 -0.455296
v 0.185379 0.210006 -0.455296
v 0.178242 0.209202 -0.455296
v 0.179064 0.209607 -0.455296
v 0.179826 0.210116 -0.455296
v 0.186035 0.211335 -0.455296
v 0.180515 0.21072 -0.455296
v 0.181119 0.211409 -0.455296
v 0.186511 0.212739 -0.455296
v 0.181628 0.212171 -0.455296
v 0.182034 0.212993 -0.455296
v 0.1868 0.214194 -0.455296
v 0.182328 0.21386 -0.455296
v 0.182507 0.214759 -0.455296
v 0.186924 0.216078 -0.455296
v 0.182603 0.216219 -0.455296
v 0.186924 0.282224 -0.455296
v 0.182603 0.282082 -0.455296
v 0.182545 0.282961 -0.455296
v 0.186839 0.283526 -0.455296
v 0.18248 0.283288 -0.455296
v 0.182373 0.283603 -0.455296
v 0.186663 0.284408 -0.455296
v 0.182225 0.283902 -0.455296
v 0.18204 0.284179 -0.455296
v 0.18182 0.28443 -0.455296
v 0.18157 0.28465 -0.455296
v 0.181293 0.284835 -0.455296
v 0.180994 0.284982 -0.455296
v 0.180678 0.285089 -0.455296
v 0.180351 0.285154 -0.455296
v 0.179473 0.285212 -0.455296
v 0.180351 0.285154 -0.455296
v 0.186374 0.28526 -0.455296
v 0.180678 0.285089 -0.455296
v 0.180994 0.284982 -0.455296
v 0.181293 0.284835 -0.455296
v 0.18157 0.28465 -0.455296
v 0.18182 0.28443 -0.455296
v 0.186663 0.284408 -0.455296
v 0.18204 0.284179 -0.455296
v 0.182225 0.283902 -0.455296
v 0.182373 0.283603 -0.455296
v 0.186839 0.283526 -0.455296
v 0.18248 0.283288 -0.455296
v 0.182545 0.282961 -0.455296
v 0.186924 0.282224 -0.455296
v 0.182603 0.282082 -0.455296
v 0.182603 0.216219 -0.455296
v 0.186924 0.216078 -0.455296
v 0.182507 0.214759 -0.455296
v 0.1868 0.214194 -0.455296
v 0.182328 0.21386 -0.455296
v 0.182034 0.212993 -0.455296
v 0.186511 0.212739 -0.455296
v 0.181628 0.212171 -0.455296
v 0.181119 0.211409 -0.455296
v 0.186035 0.211335 -0.455296
v 0.180515 0.21072 -0.455296
v 0.179826 0.210116 -0.455296
v 0.185379 0.210006 -0.455296
v 0.179064 0.209607 -0.455296
v 0.178242 0.209202 -0.455296
v 0.177375 0.208907 -0.455296
v 0.184555 0.208773 -0.455296
v 0.176476 0.208728 -0.455296
v 0.175016 0.208633 -0.455296
v 0.056807 0.208633 -0.455296
v 0.048358 0.208235 -0.455296
v 0.183577 0.207658 -0.455296
v 0.049218 0.207255 -0.455296
v 0.182463 0.20668 -0.455296
v 0.050197 0.206396 -0.455296
v 0.18123 0.205856 -0.455296
v 0.05128 0.205672 -0.455296
v 0.1799 0.205201 -0.455296
v 0.052449 0.205096 -0.455296
v 0.178496 0.204724 -0.455296
v 0.053683 0.204677 -0.455296
v 0.177041 0.204435 -0.455296
v 0.054961 0.204423 -0.455296
v 0.056665 0.204311 -0.455296
v 0.175158 0.204311 -0.455296
v 0.179614 0.289533 -0.455296
v 0.053757 0.289533 -0.455296
v 0.180916 0.289448 -0.455296
v 0.052432 0.289447 -0.455296
v 0.181799 0.289273 -0.455296
v 0.051527 0.289267 -0.455296
v 0.182651 0.288983 -0.455296
v 0.050654 0.28897 -0.455296
v 0.183458 0.288585 -0.455296
v 0.049826 0.288562 -0.455296
v 0.184206 0.288085 -0.455296
v 0.049059 0.28805 -0.455296
v 0.184883 0.287492 -0.455296
v 0.048366 0.287441 -0.455296
v 0.185476 0.286816 -0.455296
v 0.047757 0.286748 -0.455296
v 0.185976 0.286067 -0.455296
v 0.047245 0.285981 -0.455296
v 0.053898 0.285212 -0.455296
v 0.046837 0.285153 -0.455296
v 0.052997 0.285153 -0.455296
v 0.052648 0.285084 -0.455296
v 0.052311 0.284969 -0.455296
v 0.051992 0.284812 -0.455296
v 0.051696 0.284614 -0.455296
v 0.051428 0.284379 -0.455296
v 0.04654 0.28428 -0.455296
v 0.051193 0.284111 -0.455296
v 0.050995 0.283815 -0.455296
v 0.050838 0.283496 -0.455296
v 0.04636 0.283375 -0.455296
v 0.050724 0.283159 -0.455296
v 0.050654 0.28281 -0.455296
v 0.046274 0.28205 -0.455296
v 0.050595 0.281909 -0.455296
v 0.050595 0.214844 -0.455296
v 0.046274 0.214703 -0.455296
v 0.050679 0.213564 -0.455296
v 0.046385 0.212998 -0.455296
v 0.050823 0.212841 -0.455296
v 0.051059 0.212144 -0.455296
v 0.04664 0.21172 -0.455296
v 0.051385 0.211483 -0.455296
v 0.051794 0.210871 -0.455296
v 0.047058 0.210487 -0.455296
v 0.05228 0.210317 -0.455296
v 0.052833 0.209832 -0.455296
v 0.053446 0.209423 -0.455296
v 0.047635 0.209318 -0.455296
v 0.054106 0.209097 -0.455296
v 0.054804 0.20886 -0.455296
v 0.055526 0.208717 -0.455296
vn 0.0 0.0 -1.0
vn 0.0 0.0 1.0
usemtl material_0_0
f 1//1 2//1 3//1
f 2//1 1//1 4//1
f 2//1 4//1 5//1
f 5//1 4//1 6//1
f 6//1 4//1 7//1
f 7//1 4//1 8//1
f 7//1 8//1 9//1
f 9//1 8//1 10//1
f 10//1 8//1 11//1
f 11//1 8//1 12//1
f 11//1 12//1 13//1
f 13//1 12//1 14//1
f 14//1 12//1 15//1
f 14//1 15//1 16//1
f 16//1 15//1 17//1
f 17//1 15//1 18//1
f 17//1 18//1 19//1
f 19//1 18//1 20//1
f 19//1 20//1 21//1
f 21//1 20//1 22//1
f 22//1 20//1 23//1
f 22//1 23//1 24//1
f 24//1 23//1 25//1
f 25//1 23//1 26//1
f 25//1 26//1 27//1
f 27//1 26//1 28//1
f 28//1 26//1 29//1
f 29//1 26//1 30//1
f 29//1 30//1 31//1
f 31//1 30//1 32//1
f 32//1 30//1 33//1
f 33//1 30//1 34//1
f 34//1 30//1 35//1
f 35//1 30//1 36//1
f 36//1 30//1 37//1
f 36//1 37//1 38//1
f 38//1 37//1 39//1
f 39//1 37//1 40//1
f 40//1 37//1 41//1
f 40//1 41//1 42//1
f 42//1 41//1 43//1
f 42//1 43//1 44//1
f 44//1 43//1 45//1
f 44//1 45//1 46//1
f 46//1 45//1 47//1
f 46//1 47//1 48//1
f 48//1 47//1 49//1
f 48//1 49//1 50//1
f 50//1 49//1 51//1
f 50//1 51//1 52//1
f 52//1 51//1 53//1
f 52//1 53//1 54//1
f 54//1 53//1 55//1
f 54//1 55//1 56//1
f 57//1 58//1 59//1
f 58//1 57//1 60//1
f 58//1 60//1 61//1
f 58//1 61//1 62//1
f 62//1 61//1 63//1
f 62//1 63//1 64//1
f 64//1 63//1 65//1
f 64//1 65//1 66//1
f 66//1 65//1 67//1
f 66//1 67//1 68//1
f 68//1 67//1 69//1
f 68//1 69//1 70//1
f 70//1 69//1 1//1
f 70//1 1//1 71//1
f 70//1 71//1 72//1
f 71//1 1//1 3//1
f 72//1 71//1 73//1
f 72//1 73//1 74//1
f 72//1 74//1 75//1
f 75//1 74//1 76//1
f 75//1 76//1 77//1
f 75//1 77//1 78//1
f 75//1 78//1 79//1
f 79//1 78//1 80//1
f 79//1 80//1 81//1
f 79//1 81//1 82//1
f 82//1 81//1 83//1
f 82//1 83//1 84//1
f 82//1 84//1 85//1
f 85//1 84//1 86//1
f 85//1 86//1 87//1
f 85//1 87//1 88//1
f 88//1 87//1 89//1
f 88//1 89//1 90//1
f 90//1 89//1 91//1
f 90//1 91//1 92//1
f 90//1 92//1 93//1
f 93//1 92//1 94//1
f 93//1 94//1 95//1
f 93//1 95//1 96//1
f 96//1 95//1 97//1
f 96//1 97//1 98//1
f 96//1 98//1 99//1
f 96//1 99//1 39//1
f 39//1 99//1 100//1
f 39//1 100//1 101//1
f 39//1 101//1 102//1
f 39//1 102//1 103//1
f 39//1 103//1 104//1
f 39//1 104//1 38//1
usemtl material_1_0
f 105//2 106//2 107//2
f 106//2 108//2 107//2
f 108//2 109//2 107//2
f 109//2 110//2 107//2
f 110//2 111//2 107//2
f 111//2 112//2 107//2
f 107//2 112//2 113//2
f 112//2 114//2 113//2
f 114//2 115//2 113//2
f 115//2 116//2 113//2
f 113//2 116//2 117//2
f 116//2 118//2 117//2
f 118//2 119//2 117//2
f 117//2 119//2 120//2
f 119//2 121//2 120//2
f 121//2 122//2 120//2
f 120//2 122//2 123//2
f 122//2 124//2 123//2
f 123//2 124//2 125//2
f 124//2 126//2 125//2
f 126//2 127//2 125//2
f 125//2 127//2 128//2
f 127//2 129//2 128//2
f 129//2 130//2 128//2
f 128//2 130//2 131//2
f 130//2 132//2 131//2
f 132//2 133//2 131//2
f 131//2 133//2 134//2
f 133//2 135//2 134//2
f 135//2 136//2 134//2
f 136//2 137//2 134//2
f 134//2 137//2 138//2
f 137//2 139//2 138//2
f 139//2 140//2 138//2
f 141//2 142//2 140//2
f 138//2 140//2 143//2
f 140//2 142//2 143//2
f 142//2 144//2 143//2
f 143//2 144//2 145//2
f 144//2 146//2 145//2
f 145//2 146//2 147//2
f 146//2 148//2 147//2
f 147//2 148//2 149//2
f 148//2 150//2 149//2
f 149//2 150//2 151//2
f 150//2 152//2 151//2
f 151//2 152//2 153//2
f 152//2 154//2 153//2
f 154//2 155//2 153//2
f 156//2 153//2 155//2
f 157//2 158//2 159//2
f 158//2 160//2 159//2
f 159//2 160//2 161//2
f 160//2 162//2 161//2
f 161//2 162//2 163//2
f 162//2 164//2 163//2
f 163//2 164//2 165//2
f 164//2 166//2 165//2
f 165//2 166//2 167//2
f 166//2 168//2 167//2
f 167//2 168//2 169//2
f 168//2 170//2 169//2
f 169//2 170//2 171//2
f 170//2 172//2 171//2
f 171//2 172//2 173//2
f 172//2 174//2 173//2
f 173//2 174//2 107//2
f 107//2 174//2 105//2
f 105//2 174//2 175//2
f 174//2 176//2 175//2
f 175//2 176//2 177//2
f 177//2 176//2 178//2
f 178//2 176//2 179//2
f 179//2 176//2 180//2
f 180//2 176//2 181//2
f 181//2 176//2 182//2
f 176//2 183//2 182//2
f 182//2 183//2 184//2
f 184//2 183//2 185//2
f 185//2 183//2 186//2
f 183//2 187//2 186//2
f 186//2 187//2 188//2
f 188//2 187//2 189//2
f 187//2 190//2 189//2
f 189//2 190//2 191//2
f 191//2 190//2 192//2
f 190//2 193//2 192//2
f 192//2 193//2 194//2
f 193//2 195//2 194//2
f 194//2 195//2 196//2
f 196//2 195//2 197//2
f 195//2 198//2 197//2
f 197//2 198//2 199//2
f 199//2 198//2 200//2
f 198//2 201//2 200//2
f 200//2 201//2 202//2
f 202//2 201//2 203//2
f 203//2 201//2 204//2
f 201//2 205//2 204//2
f 204//2 205//2 206//2
f 206//2 205//2 207//2
f 207//2 205//2 208//2
f 205//2 142//2 208//2
f 141//2 208//2 142//2
