# SSTK version 0.8.0
# 281
mtllib original-281.mtl
o #ID2153
v 0.044327 -0.313466 -0.205965
v 0.039978 -0.313466 -0.221048
v 0.044327 -0.313466 -0.221048
v 0.044327 -0.313466 -0.190791
v 0.044038 -0.313466 -0.189575
v 0.043723 -0.313466 -0.188669
v 0.04332 -0.313466 -0.1878
v 0.042928 -0.313466 -0.187137
v 0.042832 -0.313466 -0.186975
v 0.042264 -0.313466 -0.186204
v 0.04224 -0.313466 -0.186178
v 0.041621 -0.313466 -0.185493
v 0.04091 -0.313466 -0.184851
v 0.040139 -0.313466 -0.184282
v 0.039978 -0.313466 -0.191301
v 0.039314 -0.313466 -0.183794
v 0.039857 -0.313466 -0.190794
v 0.039686 -0.313466 -0.190301
v 0.039467 -0.313466 -0.189828
v 0.039201 -0.313466 -0.189379
v 0.038445 -0.313466 -0.183391
v 0.038892 -0.313466 -0.188959
v 0.038542 -0.313466 -0.188572
v 0.038155 -0.313466 -0.188223
v 0.03754 -0.313466 -0.183077
v 0.037735 -0.313466 -0.187913
v 0.037287 -0.313466 -0.187648
v 0.036324 -0.313466 -0.182788
v 0.036813 -0.313466 -0.187428
v 0.036321 -0.313466 -0.187257
v 0.032255 -0.313466 -0.182788
v 0.035813 -0.313466 -0.187137
v 0.017592 -0.313466 -0.187137
v 0.017081 -0.313466 -0.182788
v 0.017084 -0.313466 -0.187257
v 0.016592 -0.313466 -0.187428
v 0.015865 -0.313466 -0.183077
v 0.016119 -0.313466 -0.187648
v 0.01567 -0.313466 -0.187913
v 0.01496 -0.313466 -0.183391
v 0.01525 -0.313466 -0.188223
v 0.014863 -0.313466 -0.188572
v 0.014091 -0.313466 -0.183794
v 0.014513 -0.313466 -0.188959
v 0.014204 -0.313466 -0.189379
v 0.013938 -0.313466 -0.189828
v 0.013266 -0.313466 -0.184282
v 0.013719 -0.313466 -0.190301
v 0.013548 -0.313466 -0.190794
v 0.013427 -0.313466 -0.191301
v 0.009078 -0.313466 -0.204412
v 0.013427 -0.313466 -0.204412
v 0.012495 -0.313466 -0.184851
v 0.011784 -0.313466 -0.185493
v 0.011141 -0.313466 -0.186204
v 0.010573 -0.313466 -0.186975
v 0.010085 -0.313466 -0.1878
v 0.009682 -0.313466 -0.188669
v 0.009368 -0.313466 -0.189575
v 0.009078 -0.313466 -0.190791
vn 0.0 -1.0 0.0
usemtl material_0_0
f 1//1 2//1 3//1
f 2//1 1//1 4//1
f 2//1 4//1 5//1
f 2//1 5//1 6//1
f 2//1 6//1 7//1
f 2//1 7//1 8//1
f 2//1 8//1 9//1
f 2//1 9//1 10//1
f 2//1 10//1 11//1
f 2//1 11//1 12//1
f 2//1 12//1 13//1
f 2//1 13//1 14//1
f 2//1 14//1 15//1
f 15//1 14//1 16//1
f 15//1 16//1 17//1
f 17//1 16//1 18//1
f 18//1 16//1 19//1
f 19//1 16//1 20//1
f 20//1 16//1 21//1
f 20//1 21//1 22//1
f 22//1 21//1 23//1
f 23//1 21//1 24//1
f 24//1 21//1 25//1
f 24//1 25//1 26//1
f 26//1 25//1 27//1
f 27//1 25//1 28//1
f 27//1 28//1 29//1
f 29//1 28//1 30//1
f 30//1 28//1 31//1
f 30//1 31//1 32//1
f 32//1 31//1 33//1
f 33//1 31//1 34//1
f 33//1 34//1 35//1
f 35//1 34//1 36//1
f 36//1 34//1 37//1
f 36//1 37//1 38//1
f 38//1 37//1 39//1
f 39//1 37//1 40//1
f 39//1 40//1 41//1
f 41//1 40//1 42//1
f 42//1 40//1 43//1
f 42//1 43//1 44//1
f 44//1 43//1 45//1
f 45//1 43//1 46//1
f 46//1 43//1 47//1
f 46//1 47//1 48//1
f 48//1 47//1 49//1
f 49//1 47//1 50//1
f 50//1 51//1 52//1
f 51//1 50//1 47//1
f 51//1 47//1 53//1
f 51//1 53//1 54//1
f 51//1 54//1 55//1
f 51//1 55//1 56//1
f 51//1 56//1 57//1
f 51//1 57//1 58//1
f 51//1 58//1 59//1
f 51//1 59//1 60//1
