# SSTK version 0.8.0
# 117
mtllib original-117.mtl
o #ID606
v 0.355939 -0.120345 -0.057196
v 0.355794 -0.121108 -0.059242
v 0.355939 -0.120345 -0.059242
v 0.355436 -0.122987 -0.059242
v 0.354061 -0.13022 -0.057196
v 0.354061 -0.13022 -0.059242
v 0.355436 -0.122987 -0.066497
v 0.355794 -0.121108 -0.066497
v 0.355436 -0.122987 -0.059242
v 0.355794 -0.121108 -0.059242
v 0.355436 -0.122987 -0.066497
v 0.355794 -0.121108 -0.066497
v 0.355939 -0.120345 -0.057196
v 0.354061 -0.13022 -0.057196
v 0.354061 -0.13022 -0.059242
v 0.355939 -0.120345 -0.059242
v 0.356999 -0.114309 -0.057196
v 0.356669 -0.116185 -0.067625
v 0.356999 -0.114309 -0.067625
v 0.356669 -0.116185 -0.059242
v 0.356999 -0.114309 -0.057196
v 0.356669 -0.116185 -0.059242
v 0.356669 -0.116185 -0.067625
v 0.356999 -0.114309 -0.067625
vn 0.9836872430321034 -0.17988720881680106 0.0
vn 0.9823993864162553 -0.18679252010978714 0.0
vn 0.984926569755349 -0.17297298109809384 0.0
vn -0.9823993864162553 0.18679252010978714 0.0
vn -0.9836872430321034 0.17988720881680106 0.0
vn -0.984926569755349 0.17297298109809384 0.0
usemtl material_0_0
f 1//1 2//2 3//1
f 2//2 1//1 4//2
f 4//2 5//2 6//2
f 5//2 4//2 1//1
f 2//2 7//2 8//2
f 7//2 2//2 4//2
f 17//3 18//3 19//3
f 18//3 17//3 20//3
f 20//3 17//3 3//1
f 3//1 17//3 1//1
usemtl material_1_0
f 9//4 10//4 11//4
f 12//4 11//4 10//4
f 13//5 9//4 14//4
f 15//4 14//4 9//4
f 9//4 13//5 10//4
f 16//5 10//4 13//5
f 13//5 21//6 16//5
f 16//5 21//6 22//6
f 22//6 21//6 23//6
f 24//6 23//6 21//6
