# SSTK version 0.8.0
# 606
mtllib original-606.mtl
o #ID3789
v -0.168543 0.26324 -0.243741
v -0.138136 0.277166 -0.096418
v -0.128983 0.263474 -0.241263
v -0.177696 0.276931 -0.098896
v -0.177696 0.276931 -0.098896
v -0.168543 0.26324 -0.243741
v -0.138136 0.277166 -0.096418
v -0.128983 0.263474 -0.241263
v -0.177236 0.266799 -0.198539
v -0.17436 0.262498 -0.244039
v -0.183514 0.27619 -0.099193
v -0.183514 0.27619 -0.099193
v -0.177236 0.266799 -0.198539
v -0.17436 0.262498 -0.244039
v -0.177772 0.276904 -0.097521
v -0.138278 0.277138 -0.095048
v -0.138278 0.277138 -0.095048
v -0.177772 0.276904 -0.097521
v -0.111218 0.248958 -0.238769
v -0.128983 0.263474 -0.241263
v -0.118358 0.259639 -0.125784
v -0.120372 0.26265 -0.093923
v -0.120372 0.26265 -0.093923
v -0.118358 0.259639 -0.125784
v -0.111218 0.248958 -0.238769
v -0.128983 0.263474 -0.241263
v -0.177841 0.276787 -0.09619
v -0.138448 0.277021 -0.093722
v -0.138448 0.277021 -0.093722
v -0.177841 0.276787 -0.09619
v -0.120614 0.262705 -0.092567
v -0.120614 0.262705 -0.092567
v -0.177899 0.276583 -0.094922
v -0.138642 0.276816 -0.092463
v -0.138642 0.276816 -0.092463
v -0.177899 0.276583 -0.094922
v -0.120938 0.262713 -0.091263
v -0.120938 0.262713 -0.091263
v -0.120472 0.255183 -0.092653
v -0.120614 0.262705 -0.092567
v -0.120614 0.254733 -0.091814
v -0.120372 0.255429 -0.09324
v -0.120372 0.26265 -0.093923
v -0.120372 0.26265 -0.093923
v -0.120372 0.255429 -0.09324
v -0.120614 0.262705 -0.092567
v -0.120472 0.255183 -0.092653
v -0.120614 0.254733 -0.091814
v -0.177947 0.276294 -0.093738
v -0.138857 0.276526 -0.091289
v -0.138857 0.276526 -0.091289
v -0.177947 0.276294 -0.093738
v -0.121338 0.262677 -0.090033
v -0.121338 0.262677 -0.090033
v -0.120938 0.262713 -0.091263
v -0.120938 0.253992 -0.090439
v -0.120938 0.262713 -0.091263
v -0.120938 0.253992 -0.090439
v -0.177984 0.275926 -0.092657
v -0.13909 0.276156 -0.090221
v -0.13909 0.276156 -0.090221
v -0.177984 0.275926 -0.092657
v -0.121808 0.262596 -0.088895
v -0.121808 0.262596 -0.088895
v -0.121158 0.253606 -0.089725
v -0.121338 0.262677 -0.090033
v -0.121338 0.253195 -0.089136
v -0.121338 0.262677 -0.090033
v -0.121158 0.253606 -0.089725
v -0.121338 0.253195 -0.089136
v -0.17801 0.275484 -0.091697
v -0.139338 0.275713 -0.089275
v -0.139338 0.275713 -0.089275
v -0.17801 0.275484 -0.091697
v -0.122341 0.262471 -0.087869
v -0.122341 0.262471 -0.087869
v -0.121808 0.252347 -0.087926
v -0.121808 0.252347 -0.087926
v -0.178023 0.274976 -0.090874
v -0.139596 0.275203 -0.088467
v -0.139596 0.275203 -0.088467
v -0.178023 0.274976 -0.090874
v -0.122928 0.262305 -0.086971
v -0.122928 0.262305 -0.086971
v -0.122155 0.251847 -0.087218
v -0.122341 0.251488 -0.086831
v -0.122155 0.251847 -0.087218
v -0.122341 0.251488 -0.086831
v -0.178023 0.274409 -0.0902
v -0.139859 0.274635 -0.08781
v -0.139859 0.274635 -0.08781
v -0.178023 0.274409 -0.0902
v -0.123559 0.2621 -0.086215
v -0.123559 0.2621 -0.086215
v -0.122928 0.250587 -0.085863
v -0.122928 0.250587 -0.085863
v -0.178012 0.273793 -0.089687
v -0.140125 0.274017 -0.087314
v -0.140125 0.274017 -0.087314
v -0.178012 0.273793 -0.089687
v -0.124224 0.261859 -0.085614
v -0.124224 0.261859 -0.085614
v -0.123474 0.249927 -0.085163
v -0.123559 0.249783 -0.085051
v -0.123474 0.249927 -0.085163
v -0.123559 0.249783 -0.085051
v -0.177988 0.273137 -0.089342
v -0.140388 0.27336 -0.086987
v -0.140388 0.27336 -0.086987
v -0.177988 0.273137 -0.089342
v -0.124913 0.261587 -0.085178
v -0.124913 0.261587 -0.085178
v -0.124224 0.248924 -0.084391
v -0.124224 0.248924 -0.084391
v -0.177978 0.272958 -0.089298
v -0.177952 0.272454 -0.089172
v -0.140644 0.272674 -0.086835
v -0.140455 0.27318 -0.086947
v -0.140455 0.27318 -0.086947
v -0.140644 0.272674 -0.086835
v -0.177952 0.272454 -0.089172
v -0.177978 0.272958 -0.089298
v -0.125614 0.261288 -0.084912
v -0.125614 0.261288 -0.084912
v -0.124913 0.248295 -0.083921
v -0.124913 0.248295 -0.083921
v -0.177905 0.271752 -0.089179
v -0.14089 0.271971 -0.086861
v -0.14089 0.271971 -0.086861
v -0.177905 0.271752 -0.089179
v -0.126316 0.260967 -0.084823
v -0.125798 0.261204 -0.084889
v -0.125798 0.261204 -0.084889
v -0.126316 0.260967 -0.084823
v -0.125614 0.247903 -0.083647
v -0.125614 0.247903 -0.083647
v -0.127007 0.260628 -0.084911
v -0.127007 0.260628 -0.084911
v -0.125798 0.247865 -0.083628
v -0.126316 0.247869 -0.083585
v -0.125798 0.247865 -0.083628
v -0.126316 0.247869 -0.083585
v -0.127007 0.247858 -0.083704
v -0.127007 0.247858 -0.083704
v -0.125614 0.247903 -0.083647
v -0.125798 0.247865 -0.083628
v -0.125614 0.247863 -0.083643
v -0.125614 0.247863 -0.083643
v -0.125798 0.247865 -0.083628
v -0.125614 0.247903 -0.083647
vt 0.2946103 0.7217758
vt 0.3442171 0.7217758
vt 0.2873149 0.7206815
vt -0.2173247 -0.14557
vt -0.1678002 -0.14557
vt -0.2173951 -0.1466513
vt -0.1677883 -0.1466513
vt 0.3664934 0.6991371
vt -0.2172161 -0.2880516
vt -0.1678185 -0.2880516
vt -0.2173247 -0.2891326
vt -0.1678002 -0.2891326
vt 0.3970048 -0.1250017
vt 0.4257216 -0.1250017
vt 0.3969125 -0.1260829
vt 0.425792 -0.1260829
vt -0.217071 -0.4259904
vt -0.167843 -0.4259904
vt -0.2172161 -0.427071
vt -0.1678185 -0.427071
vt 0.3971473 -0.2562826
vt 0.425613 -0.2562826
vt 0.3970048 -0.2573636
vt 0.4257216 -0.2573636
vt 0.9141716 0.04369209
vt 0.9050931 0.04369209
vt 0.9140793 0.04477336
vt 0.9047187 0.0441399
vt 0.9040585 0.04477336
vt -0.2168917 -0.5571809
vt -0.1678733 -0.5571809
vt -0.217071 -0.558261
vt -0.167843 -0.558261
vt 0.3973377 -0.3835238
vt 0.4254679 -0.3835238
vt 0.3971473 -0.3846044
vt 0.425613 -0.3846044
vt 0.9140793 0.00486355
vt 0.9040585 0.00486355
vt 0.9139368 0.005944527
vt 0.9029737 0.005944527
vt -0.2166811 -0.6795064
vt -0.1679088 -0.6795064
vt -0.2168917 -0.680586
vt -0.1678733 -0.680586
vt 0.3975729 -0.5046912
vt 0.4252886 -0.5046912
vt 0.3973377 -0.5057713
vt 0.4254679 -0.5057713
vt 0.9139368 -0.03407777
vt 0.9029737 -0.03407777
vt 0.9137464 -0.03299719
vt 0.902408 -0.03348171
vt 0.901827 -0.03299719
vt -0.2164426 -0.790973
vt -0.1679491 -0.790973
vt -0.2166811 -0.792052
vt -0.1679088 -0.792052
vt 0.3975729 -0.6189099
vt 0.3978492 -0.6178303
vt 0.4252886 -0.6189099
vt 0.425078 -0.6178303
vt 0.9137464 -0.0725125
vt 0.901827 -0.0725125
vt 0.9135111 -0.0714324
vt 0.9006272 -0.0714324
vt -0.2161802 -0.8897439
vt -0.1679934 -0.8897439
vt -0.2164426 -0.8908224
vt -0.1679491 -0.8908224
vt 0.3978492 -0.7221763
vt 0.3981621 -0.7210973
vt 0.425078 -0.7221763
vt 0.4248396 -0.7210973
vt 0.9135111 -0.1098245
vt 0.9006272 -0.1098245
vt 0.9132348 -0.108745
vt 0.8999212 -0.1091215
vt 0.8994291 -0.108745
vt -0.2158979 -0.9741747
vt -0.1680411 -0.9741747
vt -0.2161802 -0.9752528
vt -0.1679934 -0.9752528
vt 0.3981621 -0.8138697
vt 0.3985064 -0.8127912
vt 0.4248396 -0.8138697
vt 0.4245771 -0.8127912
vt 0.8994291 -0.1454103
vt 0.8981914 -0.1443313
vt 0.9132348 -0.1454103
vt 0.912922 -0.1443313
vt -0.2156004 -1.042847
vt -0.1680913 -1.042847
vt -0.2158979 -1.043924
vt -0.1680411 -1.043924
vt 0.3985064 -0.892464
vt 0.3988768 -0.8913859
vt 0.4245771 -0.892464
vt 0.4242948 -0.8913859
vt 0.8981914 -0.1786887
vt 0.8972872 -0.1777552
vt 0.912922 -0.1786887
vt 0.9125776 -0.1776102
vt 0.8970942 -0.1776102
vt -0.2152925 -1.094597
vt -0.1681433 -1.094597
vt -0.2156004 -1.095675
vt -0.1680913 -1.095675
vt 0.3988768 -0.956639
vt 0.3992671 -0.9555614
vt 0.4242948 -0.956639
vt 0.4239973 -0.9555614
vt 0.8970942 -0.2091111
vt 0.8959472 -0.2080331
vt 0.9125776 -0.2091111
vt 0.9122073 -0.2080331
vt -0.2152103 -1.129342
vt -0.2149791 -1.128547
vt -0.2152925 -1.129625
vt -0.1681962 -1.128547
vt -0.1681572 -1.129342
vt -0.1681433 -1.129625
vt 0.3992671 -1.005309
vt 0.3996711 -1.004232
vt 0.4239973 -1.005309
vt 0.4236894 -1.004232
vt 0.9122073 -0.2361722
vt 0.8959472 -0.2361722
vt 0.911817 -0.2350945
vt 0.895107 -0.2350945
vt 0.2146654 1.144121
vt 0.1682492 1.144121
vt 0.2149791 1.145198
vt 0.1681962 1.145198
vt 0.3997789 -1.037366
vt 0.4000822 -1.036571
vt 0.3996711 -1.037649
vt 0.4236894 -1.037649
vt 0.4236072 -1.037366
vt 0.423376 -1.036571
vt 0.911817 -0.2594197
vt 0.895107 -0.2594197
vt 0.911413 -0.2583423
vt 0.8945872 -0.2583423
vt -0.4000822 1.053109
vt -0.4004938 1.052032
vt -0.423376 1.053109
vt -0.4230623 1.052032
vt 0.911413 -0.2784641
vt 0.8945872 -0.2784641
vt 0.9113051 -0.2781815
vt 0.8945371 -0.2781815
vt 0.9110019 -0.2773869
vt 0.8945371 -0.2773869
vt -0.9110019 0.2929871
vt -0.8945371 0.2929871
vt -0.9105902 0.2919099
vt -0.8945371 0.2919099
vt 0.8945371 -0.2784641
vn -0.06043302247159591 0.9933773103156842 -0.09772087363979379
vn 0.3332134020918349 0.9428048463697801 -0.009372850582414815
vn 7.354100379300283e-09 0.9955619648161511 -0.09410831106445586
vn -0.06386835832783423 0.997087057215038 -0.041692123222052804
vn -0.1408450075245429 0.9847644677823663 -0.10198836624206
vn -0.1206442478213071 0.9875469886433865 -0.10097480224793604
vn 0.11202501037452495 0.9852338521034574 0.12947839093829716
vn -0.07313640931392848 0.9960676014566524 0.050003989451411573
vn 0.32383213110378506 0.9422243270008314 0.08570920879702174
vn 0.6351499917156852 0.7716917298745036 -0.03280795737105777
vn 0.6307921885716374 0.7756592155283143 0.02130718665155369
vn -0.08953673349019038 0.9887438314903649 0.11986996723808503
vn 0.3147335501986042 0.9360394250981933 0.15739436788280056
vn 0.6195192846920657 0.7771774282203567 0.11041331875921283
vn -0.11551692350964415 0.9741086442196044 0.19434039631407374
vn 0.3030640098648528 0.9238488452135974 0.2337851944031932
vn 0.607618223581784 0.7741417430805134 0.17749550977864678
vn 0.984423810973324 0.016545336740486558 0.17503146066036573
vn 0.9786245253652193 0.019353851178648112 0.20474244014921308
vn 0.9737445444938532 0.02142313803334874 0.2266332085667555
vn 0.9889549025792991 0.013948419441396936 0.14755894503369152
vn 0.9931313188469153 0.011011141122212405 0.11648578581343483
vn -0.1523665104393001 0.9493367616818605 0.2748529778189584
vn 0.2880266704305788 0.9038229454236465 0.316456506405539
vn 0.5915500501452827 0.7667970567588552 0.24918027995624067
vn 0.9623318304693579 0.025585938019168992 0.2706710325121156
vn 0.9552429341101479 0.027839346608944545 0.29450960529840536
vn -0.22753468582684064 0.9009141296391142 0.3695696115243756
vn 0.2684579057818722 0.8730930813866039 0.40698749865082656
vn 0.8056996944862169 0.4322069379540514 0.4050248944067509
vn 0.9502972125440595 0.029300069496300887 0.3099624392704747
vn 0.9396500861249842 0.032197926915375936 0.3406185684129121
vn 0.928605661875129 0.03492058421260876 0.36942127379416534
vn -0.27417804478569663 0.8565825051741394 0.43714163790136473
vn 0.2427044806469396 0.8273070004727121 0.5066139181297166
vn 0.7607781923355326 0.4218927984787783 0.4931764477937126
vn 0.8932509657366615 0.0423071708669226 0.4475631972177323
vn -0.23802055580438958 0.7977737996746661 0.5539884290914526
vn 0.20853661061694775 0.7601488933486951 0.6153747979671819
vn 0.7000793972183592 0.404949830790598 0.5881364400656066
vn 0.8844524367177135 0.043913788165211395 0.4645594325735729
vn 0.8424740715559685 0.05069961300950742 0.5363459592432805
vn -0.19796802635450397 0.7039632437374449 0.6820882728855239
vn 0.16328850143488247 0.6632590210029771 0.7303590461939405
vn 0.6180251989627906 0.37861954747783866 0.6889790212442463
vn 0.7747496279886578 0.05950168229452254 0.6294621225582665
vn -0.1549867891874315 0.5623040216985634 0.812276604586758
vn 0.10466019433462624 0.5277467711060454 0.842929172178174
vn 0.5079486117321391 0.3392527558439759 0.7917675009064595
vn 0.7578576646621338 0.061398132017034215 0.6495244641256213
vn 0.6756545227364014 0.06937837358033051 0.7339465969572947
vn -0.11183746891044222 0.3650711366808052 0.924237764706837
vn 0.03268812561764468 0.3491709527228116 0.9364887250886949
vn 0.36394704118098853 0.28292076047549247 0.8874110628719777
vn 0.5458803785198102 0.07884987965020393 0.8341446570147274
vn -0.08690379181911002 0.2362862374065474 0.9677895148118301
vn -0.07386466435732573 0.12229781915510154 0.9897410038940923
vn -0.047711139132870284 0.1356136475315525 0.9896123411749833
vn -0.015875457319387144 0.22191714433940846 0.9749362804322869
vn 0.18530530068879417 0.20737290468573086 0.9605511042827645
vn 0.3766713723411148 0.087176944743909 0.922235792822952
vn -0.059301156216151896 0.038043320037501556 0.9975149516032087
vn -0.08362378591786766 0.035437311790976776 0.9958670892050764
vn -0.017769179759884676 0.11520498182268545 0.9931827970791156
vn 0.05695026677134653 0.14985059935736506 0.9870671025755599
vn 0.1735054028724592 0.09268096158600636 0.9804621943418109
vn -0.11923589045911186 0.06680406449363806 0.9906159797790225
vn 0.08327231401036586 0.09378145656068115 0.9921042082990656
vn -0.0435173767903173 0.09401916010648315 0.9946188392797318
vn -0.09878181892014666 0.09364803925766083 0.990692786384368
vn 0.08327231401036586 0.0937814565607792 0.9921042082990564
vn 0.06386835832783423 -0.997087057215038 0.041692123222052804
vn 0.06043302247159591 -0.9933773103156842 0.09772087363979379
vn -0.3332134020918349 -0.9428048463697801 0.009372850582414815
vn -7.354100379300283e-09 -0.9955619648161511 0.09410831106445586
vn -0.11202501037452495 -0.9852338521034574 -0.12947839093829716
vn 0.1408450075245429 -0.9847644677823663 0.10198836624206
vn 0.1206442478213071 -0.9875469886433865 0.10097480224793604
vn -0.32383213110378506 -0.9422243270008314 -0.08570920879702174
vn 0.07313640931392848 -0.9960676014566524 -0.050003989451411573
vn -0.6307921885716374 -0.7756592155283143 -0.02130718665155369
vn -0.6351499917156852 -0.7716917298745036 0.03280795737105777
vn -0.3147335501986042 -0.9360394250981933 -0.15739436788280056
vn 0.08953673349019038 -0.9887438314903649 -0.11986996723808503
vn -0.6195192846920657 -0.7771774282203567 -0.11041331875921283
vn -0.3030640098648528 -0.9238488452135974 -0.2337851944031932
vn 0.11551692350964415 -0.9741086442196044 -0.19434039631407374
vn -0.607618223581784 -0.7741417430805134 -0.17749550977864678
vn -0.9931313188469153 -0.011011141122212405 -0.11648578581343483
vn -0.9889549025792991 -0.013948419441396936 -0.14755894503369152
vn -0.9786245253652193 -0.019353851178648112 -0.20474244014921308
vn -0.984423810973324 -0.016545336740486558 -0.17503146066036573
vn -0.9737445444938532 -0.02142313803334874 -0.2266332085667555
vn -0.2880266704305788 -0.9038229454236465 -0.316456506405539
vn 0.1523665104393001 -0.9493367616818605 -0.2748529778189584
vn -0.5915500501452827 -0.7667970567588552 -0.24918027995624067
vn -0.9623318304693579 -0.025585938019168992 -0.2706710325121156
vn -0.9552429341101479 -0.027839346608944545 -0.29450960529840536
vn -0.2684579057818722 -0.8730930813866039 -0.40698749865082656
vn 0.22753468582684064 -0.9009141296391142 -0.3695696115243756
vn -0.8056996944862169 -0.4322069379540514 -0.4050248944067509
vn -0.9396500861249842 -0.032197926915375936 -0.3406185684129121
vn -0.9502972125440595 -0.029300069496300887 -0.3099624392704747
vn -0.928605661875129 -0.03492058421260876 -0.36942127379416534
vn -0.2427044806469396 -0.8273070004727121 -0.5066139181297166
vn 0.27417804478569663 -0.8565825051741394 -0.43714163790136473
vn -0.7607781923355326 -0.4218927984787783 -0.4931764477937126
vn -0.8932509657366615 -0.0423071708669226 -0.4475631972177323
vn -0.20853661061694775 -0.7601488933486951 -0.6153747979671819
vn 0.23802055580438958 -0.7977737996746661 -0.5539884290914526
vn -0.7000793972183592 -0.404949830790598 -0.5881364400656066
vn -0.8844524367177135 -0.043913788165211395 -0.4645594325735729
vn -0.8424740715559685 -0.05069961300950742 -0.5363459592432805
vn -0.16328850143488247 -0.6632590210029771 -0.7303590461939405
vn 0.19796802635450397 -0.7039632437374449 -0.6820882728855239
vn -0.6180251989627906 -0.37861954747783866 -0.6889790212442463
vn -0.7747496279886578 -0.05950168229452254 -0.6294621225582665
vn -0.10466019433462624 -0.5277467711060454 -0.842929172178174
vn 0.1549867891874315 -0.5623040216985634 -0.812276604586758
vn -0.5079486117321391 -0.3392527558439759 -0.7917675009064595
vn -0.7578576646621338 -0.061398132017034215 -0.6495244641256213
vn -0.6756545227364014 -0.06937837358033051 -0.7339465969572947
vn -0.03268812561764468 -0.3491709527228116 -0.9364887250886949
vn 0.11183746891044222 -0.3650711366808052 -0.924237764706837
vn -0.36394704118098853 -0.28292076047549247 -0.8874110628719777
vn -0.5458803785198102 -0.07884987965020393 -0.8341446570147274
vn 0.015875457319387144 -0.22191714433940846 -0.9749362804322869
vn 0.047711139132870284 -0.1356136475315525 -0.9896123411749833
vn 0.07386466435732573 -0.12229781915510154 -0.9897410038940923
vn 0.08690379181911002 -0.2362862374065474 -0.9677895148118301
vn -0.18530530068879417 -0.20737290468573086 -0.9605511042827645
vn -0.3766713723411148 -0.087176944743909 -0.922235792822952
vn 0.08362378591786766 -0.035437311790976776 -0.9958670892050764
vn 0.059301156216151896 -0.038043320037501556 -0.9975149516032087
vn -0.05695026677134653 -0.14985059935736506 -0.9870671025755599
vn 0.017769179759884676 -0.11520498182268545 -0.9931827970791156
vn -0.1735054028724592 -0.09268096158600636 -0.9804621943418109
vn 0.11923589045911186 -0.06680406449363806 -0.9906159797790225
vn -0.08327231401036586 -0.09378145656068115 -0.9921042082990656
vn 0.0435173767903173 -0.09401916010648315 -0.9946188392797318
vn 0.09878181892014666 -0.09364803925766083 -0.990692786384368
vn -0.08327231401036586 -0.0937814565607792 -0.9921042082990564
usemtl material_0_0
f 1//1 2//2 3//3
f 2//2 1//1 4//4
f 9//5 1//1 10//6
f 1//1 9//5 4//4
f 4//4 9//5 11//7
f 15//8 2//2 4//4
f 2//2 15//8 16//9
f 2//2 19//10 20//10
f 19//10 2//2 21//10
f 21//10 2//2 22//11
f 27//12 16//9 15//8
f 16//9 27//12 28//13
f 16//9 22//11 2//2
f 22//11 16//9 31//14
f 33//15 28//13 27//12
f 28//13 33//15 34//16
f 28//13 31//14 16//9
f 31//14 28//13 37//17
f 39//18 40//19 41//20
f 40//19 39//18 42//21
f 40//19 42//21 43//22
f 49//23 34//16 33//15
f 34//16 49//23 50//24
f 34//16 37//17 28//13
f 37//17 34//16 53//25
f 41//20 55//26 56//27
f 55//26 41//20 40//19
f 59//28 50//24 49//23
f 50//24 59//28 60//29
f 50//24 53//25 34//16
f 53//25 50//24 63//30
f 65//31 66//32 67//33
f 66//32 65//31 56//27
f 66//32 56//27 55//26
f 71//34 60//29 59//28
f 60//29 71//34 72//35
f 75//36 50//24 60//29
f 50//24 75//36 63//30
f 67//33 63//30 77//37
f 63//30 67//33 66//32
f 79//38 72//35 71//34
f 72//35 79//38 80//39
f 83//40 60//29 72//35
f 60//29 83//40 75//36
f 85//41 75//36 86//42
f 75//36 85//41 77//37
f 75//36 77//37 63//30
f 89//43 80//39 79//38
f 80//39 89//43 90//44
f 93//45 72//35 80//39
f 72//35 93//45 83//40
f 95//46 75//36 83//40
f 75//36 95//46 86//42
f 97//47 90//44 89//43
f 90//44 97//47 98//48
f 101//49 80//39 90//44
f 80//39 101//49 93//45
f 103//50 93//45 104//51
f 93//45 103//50 83//40
f 83//40 103//50 95//46
f 107//52 98//48 97//47
f 98//48 107//52 108//53
f 111//54 90//44 98//48
f 90//44 111//54 101//49
f 113//55 93//45 101//49
f 93//45 113//55 104//51
f 115//56 108//53 107//52
f 108//53 115//56 116//57
f 108//53 116//57 117//58
f 108//53 117//58 118//59
f 123//60 98//48 108//53
f 98//48 123//60 111//54
f 113//55 111//54 125//61
f 111//54 113//55 101//49
f 127//62 117//58 116//57
f 117//58 127//62 128//63
f 131//64 118//59 117//58
f 118//59 131//64 108//53
f 108//53 131//64 123//60
f 123//60 131//64 132//65
f 125//61 123//60 135//66
f 123//60 125//61 111//54
f 137//67 117//58 128//63
f 117//58 137//67 131//64
f 139//68 131//64 140//69
f 131//64 139//68 132//65
f 132//65 139//68 135//66
f 132//65 135//66 123//60
f 140//69 137//67 143//70
f 137//67 140//69 131//64
f 145//71 146//71 147//71
usemtl material_1_0
f 5/1/72 6/1/73 7/2/74
f 8/2/75 7/2/74 6/1/73
f 12/3/76 13/3/77 5/1/72
f 5/1/72 13/3/77 6/1/73
f 14/3/78 6/1/73 13/3/77
f 17/4/79 18/5/80 7/6/74
f 5/7/72 7/6/74 18/5/80
f 23/8/81 7/2/74 24/8/82
f 24/8/82 7/2/74 25/8/82
f 26/2/82 25/8/82 7/2/74
f 29/9/83 30/10/84 17/11/79
f 18/12/80 17/11/79 30/10/84
f 32/13/85 17/14/79 23/15/81
f 7/16/74 23/15/81 17/14/79
f 35/17/86 36/18/87 29/19/83
f 30/20/84 29/19/83 36/18/87
f 38/21/88 29/22/83 32/23/85
f 17/24/79 32/23/85 29/22/83
f 44/25/89 45/26/90 46/27/91
f 45/26/90 47/28/92 46/27/91
f 48/29/93 46/27/91 47/28/92
f 51/30/94 52/31/95 35/32/86
f 36/33/87 35/32/86 52/31/95
f 54/34/96 35/35/86 38/36/88
f 29/37/83 38/36/88 35/35/86
f 46/38/91 48/39/93 57/40/97
f 58/41/98 57/40/97 48/39/93
f 61/42/99 62/43/100 51/44/94
f 52/45/95 51/44/94 62/43/100
f 64/46/101 51/47/94 54/48/96
f 35/49/86 54/48/96 51/47/94
f 57/50/97 58/51/98 68/52/102
f 58/51/98 69/53/103 68/52/102
f 70/54/104 68/52/102 69/53/103
f 73/55/105 74/56/106 61/57/99
f 62/58/100 61/57/99 74/56/106
f 64/59/101 76/60/107 51/61/94
f 61/62/99 51/61/94 76/60/107
f 68/63/102 70/64/104 64/65/101
f 78/66/108 64/65/101 70/64/104
f 81/67/109 82/68/110 73/69/105
f 74/70/106 73/69/105 82/68/110
f 76/71/107 84/72/111 61/73/99
f 73/74/105 61/73/99 84/72/111
f 64/75/101 78/76/108 76/77/107
f 78/76/108 87/78/112 76/77/107
f 88/79/113 76/77/107 87/78/112
f 91/80/114 92/81/115 81/82/109
f 82/83/110 81/82/109 92/81/115
f 84/84/111 94/85/116 73/86/105
f 81/87/109 73/86/105 94/85/116
f 88/88/113 96/89/117 76/90/107
f 84/91/111 76/90/107 96/89/117
f 99/92/118 100/93/119 91/94/114
f 92/95/115 91/94/114 100/93/119
f 94/96/116 102/97/120 81/98/109
f 91/99/114 81/98/109 102/97/120
f 96/100/117 105/101/121 84/102/111
f 84/102/111 105/101/121 94/103/116
f 106/104/122 94/103/116 105/101/121
f 109/105/123 110/106/124 99/107/118
f 100/108/119 99/107/118 110/106/124
f 102/109/120 112/110/125 91/111/114
f 99/112/118 91/111/114 112/110/125
f 106/113/122 114/114/126 94/115/116
f 102/116/120 94/115/116 114/114/126
f 119/117/127 120/118/128 109/119/123
f 120/118/128 121/120/129 109/119/123
f 121/120/129 122/121/130 109/119/123
f 110/122/124 109/119/123 122/121/130
f 112/123/125 124/124/131 99/125/118
f 109/126/123 99/125/118 124/124/131
f 102/127/120 114/128/126 112/129/125
f 126/130/132 112/129/125 114/128/126
f 129/131/133 130/132/134 120/133/128
f 121/134/129 120/133/128 130/132/134
f 133/135/135 134/136/136 124/137/131
f 124/137/131 134/136/136 109/138/123
f 109/138/123 134/136/136 119/139/127
f 120/140/128 119/139/127 134/136/136
f 112/141/125 126/142/132 124/143/131
f 136/144/137 124/143/131 126/142/132
f 134/145/136 138/146/138 120/147/128
f 129/148/133 120/147/128 138/146/138
f 124/149/131 136/150/137 133/151/135
f 136/150/137 141/152/139 133/151/135
f 133/151/135 141/152/139 134/153/136
f 142/154/140 134/153/136 141/152/139
f 134/155/136 142/156/140 138/157/138
f 144/158/141 138/157/138 142/156/140
f 148/159/142 149/152/142 150/150/142
