# SSTK version 0.8.0
# 303
mtllib original-303.mtl
o #ID1667
v -0.333627 -0.313466 -0.172805
v -0.333627 -0.312066 -0.179558
v -0.333627 -0.313466 -0.179558
v -0.333627 -0.312066 -0.172805
v -0.329366 -0.312066 -0.172805
v -0.333627 -0.313466 -0.172805
v -0.329366 -0.313466 -0.172805
v -0.333627 -0.312066 -0.172805
v -0.333627 -0.312066 -0.179558
v -0.335825 -0.313466 -0.179558
v -0.333627 -0.313466 -0.179558
v -0.335825 -0.312066 -0.179558
v -0.32774 -0.312066 -0.172713
v -0.32774 -0.313466 -0.172713
v -0.335825 -0.312066 -0.162947
v -0.335825 -0.313466 -0.179558
v -0.335825 -0.312066 -0.179558
v -0.335825 -0.313466 -0.162947
v -0.326386 -0.312066 -0.172438
v -0.326386 -0.313466 -0.172438
v -0.335825 -0.312066 -0.162947
v -0.329559 -0.313466 -0.162947
v -0.335825 -0.313466 -0.162947
v -0.329559 -0.312066 -0.162947
v -0.325304 -0.313466 -0.17198
v -0.325304 -0.312066 -0.17198
v -0.327032 -0.312066 -0.163106
v -0.327032 -0.313466 -0.163106
v -0.324494 -0.312066 -0.171338
v -0.324494 -0.313466 -0.171338
v -0.325908 -0.313466 -0.163402
v -0.325908 -0.312066 -0.163402
v -0.323904 -0.313466 -0.170563
v -0.323904 -0.312066 -0.170563
v -0.324981 -0.313466 -0.163882
v -0.324981 -0.312066 -0.163882
v -0.323483 -0.313466 -0.169708
v -0.323483 -0.312066 -0.169708
v -0.324235 -0.312066 -0.164569
v -0.324235 -0.313466 -0.164569
v -0.32323 -0.313466 -0.16877
v -0.32323 -0.312066 -0.16877
v -0.32365 -0.312066 -0.165485
v -0.32365 -0.313466 -0.165485
v -0.323146 -0.313466 -0.167751
v -0.323146 -0.312066 -0.167751
v -0.323272 -0.312066 -0.166567
v -0.323272 -0.313466 -0.166567
vn -1.0 0.0 0.0
vn -0.028167650366788404 0.0 0.9996032130164519
vn 0.0 0.0 1.0
vn -0.12804949721062805 0.0 0.9917677783957822
vn 1.0 0.0 0.0
vn -0.2961307078164812 0.0 0.9551474252114748
vn 0.0 0.0 -1.0
vn -0.031343858762930166 0.0 -0.999508660551698
vn -0.5102296127109933 0.0 0.8600382214255304
vn -0.1593595029238796 0.0 -0.9872206181132231
vn -0.7138247115762917 0.0 0.7003244113573536
vn -0.35956539556778666 0.0 -0.9331198884978186
vn -0.8502954906843284 0.0 0.5263055942338986
vn -0.573743518641716 0.0 -0.8190350266115746
vn -0.9357250734431637 0.0 0.3527301899891558
vn -0.7664488943592043 0.0 -0.6423052952728577
vn -0.9850722687766671 0.0 0.17214129454372523
vn -0.8995018794872106 0.0 -0.43691689003628087
vn -0.9999308359841976 0.0 -0.011761090423242677
vn -0.9756493364790756 0.0 -0.21933620820087898
usemtl material_0_0
f 1//1 2//1 3//1
f 2//1 1//1 4//1
f 5//2 6//3 7//2
f 6//3 5//2 8//3
f 9//3 10//3 11//3
f 10//3 9//3 12//3
f 13//4 7//2 14//4
f 7//2 13//4 5//2
f 15//5 16//5 17//5
f 16//5 15//5 18//5
f 19//6 14//4 20//6
f 14//4 19//6 13//4
f 21//7 22//8 23//7
f 22//8 21//7 24//8
f 25//9 19//6 20//6
f 19//6 25//9 26//9
f 22//8 27//10 28//10
f 27//10 22//8 24//8
f 29//11 25//9 30//11
f 25//9 29//11 26//9
f 27//10 31//12 28//10
f 31//12 27//10 32//12
f 33//13 29//11 30//11
f 29//11 33//13 34//13
f 32//12 35//14 31//12
f 35//14 32//12 36//14
f 37//15 34//13 33//13
f 34//13 37//15 38//15
f 35//14 39//16 40//16
f 39//16 35//14 36//14
f 41//17 38//15 37//15
f 38//15 41//17 42//17
f 40//16 43//18 44//18
f 43//18 40//16 39//16
f 45//19 42//17 41//17
f 42//17 45//19 46//19
f 44//18 47//20 48//20
f 47//20 44//18 43//18
f 48//20 46//19 45//19
f 46//19 48//20 47//20
