# SSTK version 0.8.0
# 308
mtllib original-308.mtl
o #ID1697
v -0.34468 -0.312066 -0.191428
v -0.344391 -0.312066 -0.195433
v -0.343655 -0.312066 -0.192068
v -0.34449 -0.312066 -0.194655
v -0.344788 -0.312066 -0.193977
v -0.346019 -0.312066 -0.191049
v -0.345269 -0.312066 -0.193447
v -0.345921 -0.312066 -0.193116
v -0.346921 -0.312066 -0.192942
v -0.347734 -0.312066 -0.190923
v -0.348448 -0.312066 -0.192884
v -0.353966 -0.312066 -0.190923
v -0.351768 -0.312066 -0.192884
v -0.351768 -0.312066 -0.199863
v -0.351768 -0.312066 -0.205574
v -0.341625 -0.312066 -0.201365
v -0.341546 -0.312066 -0.203845
v -0.341423 -0.312066 -0.202719
v -0.341915 -0.312066 -0.204889
v -0.342233 -0.312066 -0.200203
v -0.342466 -0.312066 -0.205777
v -0.343217 -0.312066 -0.199294
v -0.343134 -0.312066 -0.206435
v -0.343951 -0.312066 -0.206913
v -0.3437 -0.312066 -0.202719
v -0.343782 -0.312066 -0.203465
v -0.344029 -0.312066 -0.204118
v -0.344952 -0.312066 -0.207257
v -0.344403 -0.312066 -0.204652
v -0.344867 -0.312066 -0.205042
v -0.345439 -0.312066 -0.205314
v -0.346169 -0.312066 -0.207465
v -0.346136 -0.312066 -0.205495
v -0.347632 -0.312066 -0.205574
v -0.347632 -0.312066 -0.207535
v -0.353966 -0.312066 -0.207535
v -0.34239 -0.312066 -0.194052
v -0.342371 -0.312066 -0.196206
v -0.342227 -0.312066 -0.195172
v -0.342805 -0.312066 -0.197178
v -0.342879 -0.312066 -0.19298
v -0.34353 -0.312066 -0.198028
v -0.34455 -0.312066 -0.198696
v -0.344497 -0.312066 -0.196232
v -0.344816 -0.312066 -0.196883
v -0.344744 -0.312066 -0.200521
v -0.345496 -0.312066 -0.200141
v -0.345344 -0.312066 -0.197379
v -0.34608 -0.312066 -0.197711
v -0.346526 -0.312066 -0.199933
v -0.346921 -0.312066 -0.197855
v -0.347927 -0.312066 -0.199863
v -0.348176 -0.312066 -0.197903
v -0.351768 -0.312066 -0.197903
v -0.343819 -0.312066 -0.201851
v -0.344176 -0.312066 -0.201104
vn 0.0 -1.0 0.0
usemtl material_0_0
f 1//1 2//1 3//1
f 2//1 1//1 4//1
f 4//1 1//1 5//1
f 5//1 1//1 6//1
f 5//1 6//1 7//1
f 7//1 6//1 8//1
f 8//1 6//1 9//1
f 9//1 6//1 10//1
f 9//1 10//1 11//1
f 11//1 10//1 12//1
f 11//1 12//1 13//1
f 13//1 12//1 14//1
f 14//1 12//1 15//1
f 16//1 17//1 18//1
f 17//1 16//1 19//1
f 19//1 16//1 20//1
f 19//1 20//1 21//1
f 21//1 20//1 22//1
f 21//1 22//1 23//1
f 23//1 22//1 24//1
f 24//1 22//1 25//1
f 24//1 25//1 26//1
f 24//1 26//1 27//1
f 24//1 27//1 28//1
f 28//1 27//1 29//1
f 28//1 29//1 30//1
f 28//1 30//1 31//1
f 28//1 31//1 32//1
f 32//1 31//1 33//1
f 32//1 33//1 34//1
f 32//1 34//1 35//1
f 35//1 34//1 15//1
f 35//1 15//1 36//1
f 36//1 15//1 12//1
f 37//1 38//1 39//1
f 38//1 37//1 40//1
f 40//1 37//1 41//1
f 40//1 41//1 42//1
f 42//1 41//1 3//1
f 42//1 3//1 43//1
f 43//1 3//1 2//1
f 43//1 2//1 44//1
f 43//1 44//1 45//1
f 43//1 45//1 46//1
f 46//1 45//1 47//1
f 47//1 45//1 48//1
f 47//1 48//1 49//1
f 47//1 49//1 50//1
f 50//1 49//1 51//1
f 50//1 51//1 52//1
f 52//1 51//1 53//1
f 52//1 53//1 14//1
f 14//1 53//1 54//1
f 14//1 54//1 13//1
f 22//1 55//1 25//1
f 55//1 22//1 43//1
f 55//1 43//1 56//1
f 56//1 43//1 46//1
