# SSTK version 0.8.0
# 356
mtllib original-356.mtl
o #ID2499
v -0.32526 -0.026299 -0.447904
v -0.317199 -0.026817 -0.447889
v -0.321263 -0.027089 -0.447899
v -0.313343 -0.025503 -0.447876
v -0.328916 -0.024502 -0.447905
v -0.309959 -0.023236 -0.44786
v -0.331981 -0.021819 -0.447901
v -0.307277 -0.02017 -0.447843
v -0.334249 -0.018435 -0.447892
v -0.30548 -0.016515 -0.447825
v -0.335563 -0.014579 -0.44788
v -0.30469 -0.012518 -0.447808
v -0.335834 -0.010515 -0.447865
v -0.304961 -0.008454 -0.447792
v -0.335044 -0.006519 -0.447848
v -0.306275 -0.004598 -0.44778
v -0.333247 -0.002863 -0.44783
v -0.308543 -0.001214 -0.447772
v -0.330565 0.000203 -0.447813
v -0.311608 0.001469 -0.447768
v -0.327181 0.00247 -0.447797
v -0.315264 0.003266 -0.447769
v -0.323325 0.003784 -0.447784
v -0.31926 0.004056 -0.447774
v -0.31926 0.004056 -0.447774
v -0.323325 0.003784 -0.447784
v -0.315264 0.003266 -0.447769
v -0.327181 0.00247 -0.447797
v -0.311608 0.001469 -0.447768
v -0.330565 0.000203 -0.447813
v -0.308543 -0.001214 -0.447772
v -0.333247 -0.002863 -0.44783
v -0.306275 -0.004598 -0.44778
v -0.335044 -0.006519 -0.447848
v -0.304961 -0.008454 -0.447792
v -0.335834 -0.010515 -0.447865
v -0.30469 -0.012518 -0.447808
v -0.335563 -0.014579 -0.44788
v -0.30548 -0.016515 -0.447825
v -0.334249 -0.018435 -0.447892
v -0.307277 -0.02017 -0.447843
v -0.331981 -0.021819 -0.447901
v -0.309959 -0.023236 -0.44786
v -0.328916 -0.024502 -0.447905
v -0.313343 -0.025503 -0.447876
v -0.32526 -0.026299 -0.447904
v -0.317199 -0.026817 -0.447889
v -0.321263 -0.027089 -0.447899
vn 0.0021008080765627323 0.0038618161407414286 -0.999990336444068
vn -0.0021008080765627323 -0.0038618161407414286 0.999990336444068
usemtl material_0_0
f 25//2 26//2 27//2
f 26//2 28//2 27//2
f 27//2 28//2 29//2
f 28//2 30//2 29//2
f 29//2 30//2 31//2
f 30//2 32//2 31//2
f 31//2 32//2 33//2
f 32//2 34//2 33//2
f 33//2 34//2 35//2
f 34//2 36//2 35//2
f 35//2 36//2 37//2
f 36//2 38//2 37//2
f 37//2 38//2 39//2
f 38//2 40//2 39//2
f 39//2 40//2 41//2
f 40//2 42//2 41//2
f 41//2 42//2 43//2
f 42//2 44//2 43//2
f 43//2 44//2 45//2
f 44//2 46//2 45//2
f 45//2 46//2 47//2
f 48//2 47//2 46//2
usemtl material_1_0
f 1//1 2//1 3//1
f 2//1 1//1 4//1
f 4//1 1//1 5//1
f 4//1 5//1 6//1
f 6//1 5//1 7//1
f 6//1 7//1 8//1
f 8//1 7//1 9//1
f 8//1 9//1 10//1
f 10//1 9//1 11//1
f 10//1 11//1 12//1
f 12//1 11//1 13//1
f 12//1 13//1 14//1
f 14//1 13//1 15//1
f 14//1 15//1 16//1
f 16//1 15//1 17//1
f 16//1 17//1 18//1
f 18//1 17//1 19//1
f 18//1 19//1 20//1
f 20//1 19//1 21//1
f 20//1 21//1 22//1
f 22//1 21//1 23//1
f 22//1 23//1 24//1
