# SSTK version 0.8.0
# 369
mtllib original-369.mtl
o #ID2579
v 0.40629 -0.117514 -0.418214
v 0.40629 -0.074713 -0.418254
v 0.40629 -0.116706 -0.418254
v 0.40629 -0.073972 -0.418216
v 0.40629 -0.073239 -0.418103
v 0.40629 -0.118315 -0.418094
v 0.40629 -0.072521 -0.417915
v 0.40629 -0.119101 -0.417896
v 0.40629 -0.071827 -0.417655
v 0.40629 -0.119862 -0.417622
v 0.40629 -0.071163 -0.417325
v 0.40629 -0.120594 -0.417273
v 0.40629 -0.070535 -0.416929
v 0.40629 -0.121287 -0.416855
v 0.40629 -0.069952 -0.416471
v 0.40629 -0.121935 -0.41637
v 0.40629 -0.069418 -0.415956
v 0.40629 -0.122532 -0.415823
v 0.40629 -0.06894 -0.415389
v 0.40629 -0.123073 -0.41522
v 0.40629 -0.068523 -0.414776
v 0.40629 -0.123551 -0.414567
v 0.40629 -0.06817 -0.414124
v 0.40629 -0.123963 -0.413869
v 0.40629 -0.067885 -0.413438
v 0.40629 -0.124304 -0.413135
v 0.40629 -0.061668 -0.395986
v 0.40629 -0.1312 -0.396116
v 0.40629 -0.131404 -0.395467
v 0.40629 -0.061494 -0.395339
v 0.40629 -0.131499 -0.394793
v 0.40629 -0.061425 -0.394672
v 0.40629 -0.131484 -0.394112
v 0.40629 -0.061463 -0.394003
v 0.40629 -0.131358 -0.393443
v 0.40629 -0.061607 -0.393348
v 0.40629 -0.131126 -0.392803
v 0.40629 -0.061852 -0.392725
v 0.40629 -0.130793 -0.39221
v 0.40629 -0.062194 -0.392148
v 0.40629 -0.130368 -0.391678
v 0.40629 -0.062622 -0.391633
v 0.40629 -0.129862 -0.391222
v 0.40629 -0.063128 -0.391192
v 0.40629 -0.129289 -0.390855
v 0.40629 -0.063696 -0.390837
v 0.40629 -0.128664 -0.390585
v 0.40629 -0.064314 -0.390577
v 0.40629 -0.128004 -0.39042
v 0.40629 -0.064965 -0.390418
v 0.40629 -0.127325 -0.390365
v 0.40629 -0.065633 -0.390365
v 0.40629 -0.065633 -0.390365
v 0.40629 -0.127325 -0.390365
v 0.40629 -0.064965 -0.390418
v 0.40629 -0.128004 -0.39042
v 0.40629 -0.064314 -0.390577
v 0.40629 -0.128664 -0.390585
v 0.40629 -0.063696 -0.390837
v 0.40629 -0.129289 -0.390855
v 0.40629 -0.063128 -0.391192
v 0.40629 -0.129862 -0.391222
v 0.40629 -0.062622 -0.391633
v 0.40629 -0.130368 -0.391678
v 0.40629 -0.062194 -0.392148
v 0.40629 -0.130793 -0.39221
v 0.40629 -0.061852 -0.392725
v 0.40629 -0.131126 -0.392803
v 0.40629 -0.061607 -0.393348
v 0.40629 -0.131358 -0.393443
v 0.40629 -0.061463 -0.394003
v 0.40629 -0.131484 -0.394112
v 0.40629 -0.061425 -0.394672
v 0.40629 -0.131499 -0.394793
v 0.40629 -0.061494 -0.395339
v 0.40629 -0.131404 -0.395467
v 0.40629 -0.061668 -0.395986
v 0.40629 -0.1312 -0.396116
v 0.40629 -0.124304 -0.413135
v 0.40629 -0.067885 -0.413438
v 0.40629 -0.123963 -0.413869
v 0.40629 -0.06817 -0.414124
v 0.40629 -0.123551 -0.414567
v 0.40629 -0.068523 -0.414776
v 0.40629 -0.123073 -0.41522
v 0.40629 -0.06894 -0.415389
v 0.40629 -0.122532 -0.415823
v 0.40629 -0.069418 -0.415956
v 0.40629 -0.121935 -0.41637
v 0.40629 -0.069952 -0.416471
v 0.40629 -0.121287 -0.416855
v 0.40629 -0.070535 -0.416929
v 0.40629 -0.120594 -0.417273
v 0.40629 -0.071163 -0.417325
v 0.40629 -0.119862 -0.417622
v 0.40629 -0.071827 -0.417655
v 0.40629 -0.119101 -0.417896
v 0.40629 -0.072521 -0.417915
v 0.40629 -0.118315 -0.418094
v 0.40629 -0.073239 -0.418103
v 0.40629 -0.117514 -0.418214
v 0.40629 -0.073972 -0.418216
v 0.40629 -0.074713 -0.418254
v 0.40629 -0.116706 -0.418254
vn -1.0 0.0 0.0
vn 1.0 0.0 0.0
usemtl material_0_0
f 53//2 54//2 55//2
f 54//2 56//2 55//2
f 55//2 56//2 57//2
f 56//2 58//2 57//2
f 57//2 58//2 59//2
f 58//2 60//2 59//2
f 59//2 60//2 61//2
f 60//2 62//2 61//2
f 61//2 62//2 63//2
f 62//2 64//2 63//2
f 63//2 64//2 65//2
f 64//2 66//2 65//2
f 65//2 66//2 67//2
f 66//2 68//2 67//2
f 67//2 68//2 69//2
f 68//2 70//2 69//2
f 69//2 70//2 71//2
f 70//2 72//2 71//2
f 71//2 72//2 73//2
f 72//2 74//2 73//2
f 73//2 74//2 75//2
f 74//2 76//2 75//2
f 75//2 76//2 77//2
f 76//2 78//2 77//2
f 78//2 79//2 77//2
f 77//2 79//2 80//2
f 79//2 81//2 80//2
f 80//2 81//2 82//2
f 81//2 83//2 82//2
f 82//2 83//2 84//2
f 83//2 85//2 84//2
f 84//2 85//2 86//2
f 85//2 87//2 86//2
f 86//2 87//2 88//2
f 87//2 89//2 88//2
f 88//2 89//2 90//2
f 89//2 91//2 90//2
f 90//2 91//2 92//2
f 91//2 93//2 92//2
f 92//2 93//2 94//2
f 93//2 95//2 94//2
f 94//2 95//2 96//2
f 95//2 97//2 96//2
f 96//2 97//2 98//2
f 97//2 99//2 98//2
f 98//2 99//2 100//2
f 99//2 101//2 100//2
f 100//2 101//2 102//2
f 102//2 101//2 103//2
f 104//2 103//2 101//2
usemtl material_1_0
f 1//1 2//1 3//1
f 2//1 1//1 4//1
f 4//1 1//1 5//1
f 5//1 1//1 6//1
f 5//1 6//1 7//1
f 7//1 6//1 8//1
f 7//1 8//1 9//1
f 9//1 8//1 10//1
f 9//1 10//1 11//1
f 11//1 10//1 12//1
f 11//1 12//1 13//1
f 13//1 12//1 14//1
f 13//1 14//1 15//1
f 15//1 14//1 16//1
f 15//1 16//1 17//1
f 17//1 16//1 18//1
f 17//1 18//1 19//1
f 19//1 18//1 20//1
f 19//1 20//1 21//1
f 21//1 20//1 22//1
f 21//1 22//1 23//1
f 23//1 22//1 24//1
f 23//1 24//1 25//1
f 25//1 24//1 26//1
f 25//1 26//1 27//1
f 27//1 26//1 28//1
f 27//1 28//1 29//1
f 27//1 29//1 30//1
f 30//1 29//1 31//1
f 30//1 31//1 32//1
f 32//1 31//1 33//1
f 32//1 33//1 34//1
f 34//1 33//1 35//1
f 34//1 35//1 36//1
f 36//1 35//1 37//1
f 36//1 37//1 38//1
f 38//1 37//1 39//1
f 38//1 39//1 40//1
f 40//1 39//1 41//1
f 40//1 41//1 42//1
f 42//1 41//1 43//1
f 42//1 43//1 44//1
f 44//1 43//1 45//1
f 44//1 45//1 46//1
f 46//1 45//1 47//1
f 46//1 47//1 48//1
f 48//1 47//1 49//1
f 48//1 49//1 50//1
f 50//1 49//1 51//1
f 50//1 51//1 52//1
