# SSTK version 0.8.0
# 171
mtllib original-171.mtl
o #ID871
v 0.153815 0.376647 0.045576
v 0.146506 0.373187 0.042672
v 0.150349 0.373187 0.042672
v 0.151152 0.377825 0.046564
v 0.157962 0.384316 0.052011
v 0.154992 0.384926 0.052523
v 0.159377 0.392547 0.058918
v 0.156301 0.392547 0.058918
v 0.157962 0.400778 0.065824
v 0.154992 0.400168 0.065313
v 0.151152 0.40727 0.071272
v 0.153815 0.408448 0.07226
v 0.146506 0.411908 0.075163
v 0.150349 0.411908 0.075163
v 0.150349 0.411908 0.075163
v 0.153815 0.408448 0.07226
v 0.146506 0.411908 0.075163
v 0.151152 0.40727 0.071272
v 0.157962 0.400778 0.065824
v 0.154992 0.400168 0.065313
v 0.156301 0.392547 0.058918
v 0.159377 0.392547 0.058918
v 0.154992 0.384926 0.052523
v 0.157962 0.384316 0.052011
v 0.151152 0.377825 0.046564
v 0.153815 0.376647 0.045576
v 0.146506 0.373187 0.042672
v 0.150349 0.373187 0.042672
vn 0.0 -0.6427875875138863 0.7660444617240425
vn 0.0 0.6427875875138863 -0.7660444617240425
usemtl material_0_0
f 1//1 2//1 3//1
f 2//1 1//1 4//1
f 4//1 1//1 5//1
f 4//1 5//1 6//1
f 6//1 5//1 7//1
f 6//1 7//1 8//1
f 8//1 7//1 9//1
f 8//1 9//1 10//1
f 10//1 9//1 11//1
f 11//1 9//1 12//1
f 11//1 12//1 13//1
f 13//1 12//1 14//1
usemtl material_1_0
f 15//2 16//2 17//2
f 17//2 16//2 18//2
f 16//2 19//2 18//2
f 18//2 19//2 20//2
f 20//2 19//2 21//2
f 19//2 22//2 21//2
f 21//2 22//2 23//2
f 22//2 24//2 23//2
f 23//2 24//2 25//2
f 24//2 26//2 25//2
f 25//2 26//2 27//2
f 28//2 27//2 26//2
