# SSTK version 0.8.0
# 715
mtllib original-715.mtl
o #ID4383
v 0.170949 0.084023 0.535578
v 0.144503 0.094978 0.537562
v 0.144503 0.094978 0.535578
v 0.170949 0.084023 0.537562
v 0.170949 0.084023 0.537562
v 0.170949 0.084023 0.535578
v 0.144503 0.094978 0.537562
v 0.144503 0.094978 0.535578
v 0.193658 0.066598 0.535578
v 0.193658 0.066598 0.537562
v 0.193658 0.066598 0.537562
v 0.193658 0.066598 0.535578
v 0.116123 0.098714 0.537562
v 0.116123 0.098714 0.535578
v 0.116123 0.098714 0.537562
v 0.116123 0.098714 0.535578
v 0.211084 0.043888 0.537562
v 0.211084 0.043888 0.535578
v 0.211084 0.043888 0.537562
v 0.211084 0.043888 0.535578
v 0.087744 0.094978 0.535578
v 0.087744 0.094978 0.537562
v 0.087744 0.094978 0.537562
v 0.087744 0.094978 0.535578
v 0.222038 0.017443 0.537562
v 0.222038 0.017443 0.535578
v 0.222038 0.017443 0.537562
v 0.222038 0.017443 0.535578
v 0.061298 0.084023 0.535578
v 0.061298 0.084023 0.537562
v 0.061298 0.084023 0.537562
v 0.061298 0.084023 0.535578
v 0.225774 -0.010937 0.537562
v 0.225774 -0.010937 0.535578
v 0.225774 -0.010937 0.537562
v 0.225774 -0.010937 0.535578
v 0.038589 0.066598 0.535578
v 0.038589 0.066598 0.537562
v 0.038589 0.066598 0.537562
v 0.038589 0.066598 0.535578
v 0.222038 -0.039317 0.537562
v 0.222038 -0.039317 0.535578
v 0.222038 -0.039317 0.537562
v 0.222038 -0.039317 0.535578
v 0.021163 0.043888 0.537562
v 0.021163 0.043888 0.535578
v 0.021163 0.043888 0.537562
v 0.021163 0.043888 0.535578
v 0.211084 -0.065762 0.537562
v 0.211084 -0.065762 0.535578
v 0.211084 -0.065762 0.537562
v 0.211084 -0.065762 0.535578
v 0.010209 0.017443 0.537562
v 0.010209 0.017443 0.535578
v 0.010209 0.017443 0.537562
v 0.010209 0.017443 0.535578
v 0.193658 -0.088472 0.537562
v 0.193658 -0.088472 0.535578
v 0.193658 -0.088472 0.537562
v 0.193658 -0.088472 0.535578
v 0.006473 -0.010937 0.537562
v 0.006473 -0.010937 0.535578
v 0.006473 -0.010937 0.537562
v 0.006473 -0.010937 0.535578
v 0.170949 -0.105897 0.535578
v 0.170949 -0.105897 0.537562
v 0.170949 -0.105897 0.537562
v 0.170949 -0.105897 0.535578
v 0.010209 -0.039317 0.537562
v 0.010209 -0.039317 0.535578
v 0.010209 -0.039317 0.537562
v 0.010209 -0.039317 0.535578
v 0.144503 -0.116851 0.535578
v 0.144503 -0.116851 0.537562
v 0.144503 -0.116851 0.537562
v 0.144503 -0.116851 0.535578
v 0.021163 -0.065762 0.537562
v 0.021163 -0.065762 0.535578
v 0.021163 -0.065762 0.537562
v 0.021163 -0.065762 0.535578
v 0.116123 -0.120588 0.535578
v 0.116123 -0.120588 0.537562
v 0.116123 -0.120588 0.537562
v 0.116123 -0.120588 0.535578
v 0.038589 -0.088472 0.537562
v 0.038589 -0.088472 0.535578
v 0.038589 -0.088472 0.537562
v 0.038589 -0.088472 0.535578
v 0.087744 -0.116851 0.537562
v 0.087744 -0.116851 0.535578
v 0.087744 -0.116851 0.537562
v 0.087744 -0.116851 0.535578
v 0.061298 -0.105897 0.535578
v 0.061298 -0.105897 0.537562
v 0.061298 -0.105897 0.537562
v 0.061298 -0.105897 0.535578
vn -0.5000000016387101 -0.8660254028383291 0.0
vn -0.25881900959356163 -0.9659258358036645 0.0
vn 0.5000000016387101 0.8660254028383291 0.0
vn 0.25881900959356163 0.9659258358036645 0.0
vn -0.7071067811865475 -0.7071067811865475 0.0
vn 0.7071067811865475 0.7071067811865475 0.0
vn 0.0 -1.0 0.0
vn 0.0 1.0 0.0
vn -0.8660254028383291 -0.5000000016387101 0.0
vn 0.8660254028383291 0.5000000016387101 0.0
vn 0.25881900959356163 -0.9659258358036645 0.0
vn -0.25881900959356163 0.9659258358036645 0.0
vn -0.9659258358036645 -0.25881900959356163 0.0
vn 0.9659258358036645 0.25881900959356163 0.0
vn 0.5000000016387101 -0.8660254028383291 0.0
vn -0.5000000016387101 0.8660254028383291 0.0
vn -1.0 0.0 0.0
vn 1.0 0.0 0.0
vn 0.7071067811865475 -0.7071067811865475 0.0
vn -0.7071067811865475 0.7071067811865475 0.0
vn -0.9659258358036645 0.25881900959356163 0.0
vn 0.9659258358036645 -0.25881900959356163 0.0
vn 0.8660254028383291 -0.5000000016387101 0.0
vn -0.8660254028383291 0.5000000016387101 0.0
usemtl material_0_0
f 1//1 2//2 3//2
f 2//2 1//1 4//1
f 5//3 6//3 7//4
f 8//4 7//4 6//3
f 9//5 4//1 1//1
f 4//1 9//5 10//5
f 11//6 12//6 5//3
f 6//3 5//3 12//6
f 3//2 13//7 14//7
f 13//7 3//2 2//2
f 7//4 8//4 15//8
f 16//8 15//8 8//4
f 17//9 9//5 18//9
f 9//5 17//9 10//5
f 11//6 19//10 12//6
f 20//10 12//6 19//10
f 13//7 21//11 14//7
f 21//11 13//7 22//11
f 23//12 15//8 24//12
f 16//8 24//12 15//8
f 25//13 18//9 26//13
f 18//9 25//13 17//9
f 19//10 27//14 20//10
f 28//14 20//10 27//14
f 22//11 29//15 21//11
f 29//15 22//11 30//15
f 31//16 23//12 32//16
f 24//12 32//16 23//12
f 33//17 26//13 34//17
f 26//13 33//17 25//13
f 27//14 35//18 28//14
f 36//18 28//14 35//18
f 30//15 37//19 29//15
f 37//19 30//15 38//19
f 39//20 31//16 40//20
f 32//16 40//20 31//16
f 41//21 34//17 42//21
f 34//17 41//21 33//17
f 35//18 43//22 36//18
f 44//22 36//18 43//22
f 37//19 45//23 46//23
f 45//23 37//19 38//19
f 39//20 40//20 47//24
f 48//24 47//24 40//20
f 49//24 42//21 50//24
f 42//21 49//24 41//21
f 43//22 51//23 44//22
f 52//23 44//22 51//23
f 46//23 53//22 54//22
f 53//22 46//23 45//23
f 47//24 48//24 55//21
f 56//21 55//21 48//24
f 57//20 50//24 58//20
f 50//24 57//20 49//24
f 51//23 59//19 52//23
f 60//19 52//23 59//19
f 54//22 61//18 62//18
f 61//18 54//22 53//22
f 55//21 56//21 63//17
f 64//17 63//17 56//21
f 65//16 57//20 58//20
f 57//20 65//16 66//16
f 67//15 68//15 59//19
f 60//19 59//19 68//15
f 62//18 69//14 70//14
f 69//14 62//18 61//18
f 63//17 64//17 71//13
f 72//13 71//13 64//17
f 73//12 66//16 65//16
f 66//16 73//12 74//12
f 75//11 76//11 67//15
f 68//15 67//15 76//11
f 70//14 77//10 78//10
f 77//10 70//14 69//14
f 71//13 72//13 79//9
f 80//9 79//9 72//13
f 81//8 74//12 73//12
f 74//12 81//8 82//8
f 83//7 84//7 75//11
f 76//11 75//11 84//7
f 78//10 85//6 86//6
f 85//6 78//10 77//10
f 79//9 80//9 87//5
f 88//5 87//5 80//9
f 89//4 81//8 90//4
f 81//8 89//4 82//8
f 83//7 91//2 84//7
f 92//2 84//7 91//2
f 85//6 93//3 86//6
f 93//3 85//6 94//3
f 95//1 87//5 96//1
f 88//5 96//1 87//5
f 94//3 90//4 93//3
f 90//4 94//3 89//4
f 91//2 95//1 92//2
f 96//1 92//2 95//1
