# SSTK version 0.8.0
# 786
mtllib original-786.mtl
o #ID4863
v -0.11114 -0.071745 0.047543
v -0.119156 -0.010859 0.051102
v -0.119156 -0.010859 0.047543
v -0.11114 -0.071745 0.051102
v -0.11114 -0.071745 0.051102
v -0.11114 -0.071745 0.047543
v -0.119156 -0.010859 0.051102
v -0.119156 -0.010859 0.047543
v -0.087638 -0.128483 0.047543
v -0.087638 -0.128483 0.051102
v -0.087638 -0.128483 0.051102
v -0.087638 -0.128483 0.047543
v -0.11114 0.050028 0.051102
v -0.11114 0.050028 0.047543
v -0.11114 0.050028 0.051102
v -0.11114 0.050028 0.047543
v -0.050253 -0.177204 0.047543
v -0.050253 -0.177204 0.051102
v -0.050253 -0.177204 0.051102
v -0.050253 -0.177204 0.047543
v -0.087638 0.106766 0.051102
v -0.087638 0.106766 0.047543
v -0.087638 0.106766 0.051102
v -0.087638 0.106766 0.047543
v -0.001531 -0.21459 0.051102
v -0.001531 -0.21459 0.047543
v -0.001531 -0.21459 0.051102
v -0.001531 -0.21459 0.047543
v -0.050253 0.155487 0.051102
v -0.050253 0.155487 0.047543
v -0.050253 0.155487 0.051102
v -0.050253 0.155487 0.047543
v 0.055206 -0.238091 0.051102
v 0.055206 -0.238091 0.047543
v 0.055206 -0.238091 0.051102
v 0.055206 -0.238091 0.047543
v -0.001531 0.192872 0.047543
v -0.001531 0.192872 0.051102
v -0.001531 0.192872 0.051102
v -0.001531 0.192872 0.047543
v 0.116093 -0.246107 0.051102
v 0.116093 -0.246107 0.047543
v 0.116093 -0.246107 0.051102
v 0.116093 -0.246107 0.047543
v 0.055206 0.216374 0.047543
v 0.055206 0.216374 0.051102
v 0.055206 0.216374 0.051102
v 0.055206 0.216374 0.047543
v 0.17698 -0.238091 0.047543
v 0.17698 -0.238091 0.051102
v 0.17698 -0.238091 0.051102
v 0.17698 -0.238091 0.047543
v 0.116093 0.22439 0.047543
v 0.116093 0.22439 0.051102
v 0.116093 0.22439 0.051102
v 0.116093 0.22439 0.047543
v 0.233717 -0.21459 0.047543
v 0.233717 -0.21459 0.051102
v 0.233717 -0.21459 0.051102
v 0.233717 -0.21459 0.047543
v 0.17698 0.216374 0.051102
v 0.17698 0.216374 0.047543
v 0.17698 0.216374 0.051102
v 0.17698 0.216374 0.047543
v 0.282439 -0.177204 0.047543
v 0.282439 -0.177204 0.051102
v 0.282439 -0.177204 0.051102
v 0.282439 -0.177204 0.047543
v 0.233717 0.192872 0.051102
v 0.233717 0.192872 0.047543
v 0.233717 0.192872 0.051102
v 0.233717 0.192872 0.047543
v 0.319824 -0.128483 0.051102
v 0.319824 -0.128483 0.047543
v 0.319824 -0.128483 0.051102
v 0.319824 -0.128483 0.047543
v 0.282439 0.155487 0.051102
v 0.282439 0.155487 0.047543
v 0.282439 0.155487 0.051102
v 0.282439 0.155487 0.047543
v 0.343325 -0.071745 0.051102
v 0.343325 -0.071745 0.047543
v 0.343325 -0.071745 0.051102
v 0.343325 -0.071745 0.047543
v 0.319824 0.106766 0.047543
v 0.319824 0.106766 0.051102
v 0.319824 0.106766 0.051102
v 0.319824 0.106766 0.047543
v 0.351341 -0.010859 0.051102
v 0.351341 -0.010859 0.047543
v 0.351341 -0.010859 0.051102
v 0.351341 -0.010859 0.047543
v 0.343325 0.050028 0.047543
v 0.343325 0.050028 0.051102
v 0.343325 0.050028 0.051102
v 0.343325 0.050028 0.047543
vn -0.9659258358036645 -0.25881900959356147 -2.369455380452145e-09
vn -1.0 0.0 0.0
vn -0.8660254028383292 -0.50000000163871 -4.577434698582311e-09
vn -0.9659258358036644 0.25881900959356174 2.3694553804521447e-09
vn -0.7071067811865476 -0.7071067811865474 -6.47347021749766e-09
vn -0.866025402838329 0.5000000016387102 4.577434698582311e-09
vn -0.5000000016387102 -0.866025402838329 -7.928350240555121e-09
vn -0.7071067811865474 0.7071067811865476 6.47347021749766e-09
vn -0.25881900959356174 -0.9659258358036644 -8.842926010134575e-09
vn -0.50000000163871 0.8660254028383292 7.928350240555121e-09
vn 0.0 -1.0 -9.154869367160268e-09
vn -0.25881900959356147 0.9659258358036645 8.842926010134577e-09
vn 0.25881900959356147 -0.9659258358036645 -8.842926010134577e-09
vn 0.0 1.0 9.154869367160268e-09
vn 0.50000000163871 -0.8660254028383292 -7.928350240555121e-09
vn 0.25881900959356174 0.9659258358036644 8.842926010134575e-09
vn 0.7071067811865474 -0.7071067811865476 -6.47347021749766e-09
vn 0.5000000016387102 0.866025402838329 7.928350240555121e-09
vn 0.866025402838329 -0.5000000016387102 -4.577434698582311e-09
vn 0.7071067811865476 0.7071067811865474 6.47347021749766e-09
vn 0.9659258358036644 -0.25881900959356174 -2.3694553804521447e-09
vn 0.8660254028383292 0.50000000163871 4.577434698582311e-09
vn 1.0 0.0 0.0
vn 0.9659258358036645 0.25881900959356147 2.369455380452145e-09
usemtl material_0_0
f 1//1 2//2 3//2
f 2//2 1//1 4//1
f 9//3 4//1 1//1
f 4//1 9//3 10//3
f 3//2 13//4 14//4
f 13//4 3//2 2//2
f 17//5 10//3 9//3
f 10//3 17//5 18//5
f 14//4 21//6 22//6
f 21//6 14//4 13//4
f 25//7 17//5 26//7
f 17//5 25//7 18//5
f 22//6 29//8 30//8
f 29//8 22//6 21//6
f 33//9 26//7 34//9
f 26//7 33//9 25//7
f 29//8 37//10 30//8
f 37//10 29//8 38//10
f 41//11 34//9 42//11
f 34//9 41//11 33//9
f 38//10 45//12 37//10
f 45//12 38//10 46//12
f 49//13 41//11 42//11
f 41//11 49//13 50//13
f 46//12 53//14 45//12
f 53//14 46//12 54//14
f 57//15 50//13 49//13
f 50//13 57//15 58//15
f 53//14 61//16 62//16
f 61//16 53//14 54//14
f 65//17 58//15 57//15
f 58//15 65//17 66//17
f 62//16 69//18 70//18
f 69//18 62//16 61//16
f 73//19 65//17 74//19
f 65//17 73//19 66//17
f 70//18 77//20 78//20
f 77//20 70//18 69//18
f 81//21 74//19 82//21
f 74//19 81//21 73//19
f 77//20 85//22 78//20
f 85//22 77//20 86//22
f 89//23 82//21 90//23
f 82//21 89//23 81//21
f 86//22 93//24 85//22
f 93//24 86//22 94//24
f 94//24 90//23 93//24
f 90//23 94//24 89//23
usemtl material_1_0
f 5//24 6//24 7//23
f 8//23 7//23 6//24
f 11//22 12//22 5//24
f 6//24 5//24 12//22
f 7//23 8//23 15//21
f 16//21 15//21 8//23
f 19//20 20//20 11//22
f 12//22 11//22 20//20
f 15//21 16//21 23//19
f 24//19 23//19 16//21
f 19//20 27//18 20//20
f 28//18 20//20 27//18
f 23//19 24//19 31//17
f 32//17 31//17 24//19
f 27//18 35//16 28//18
f 36//16 28//18 35//16
f 39//15 31//17 40//15
f 32//17 40//15 31//17
f 35//16 43//14 36//16
f 44//14 36//16 43//14
f 47//13 39//15 48//13
f 40//15 48//13 39//15
f 51//12 52//12 43//14
f 44//14 43//14 52//12
f 55//11 47//13 56//11
f 48//13 56//11 47//13
f 59//10 60//10 51//12
f 52//12 51//12 60//10
f 55//11 56//11 63//9
f 64//9 63//9 56//11
f 67//8 68//8 59//10
f 60//10 59//10 68//8
f 63//9 64//9 71//7
f 72//7 71//7 64//9
f 67//8 75//6 68//8
f 76//6 68//8 75//6
f 71//7 72//7 79//5
f 80//5 79//5 72//7
f 75//6 83//4 76//6
f 84//4 76//6 83//4
f 87//3 79//5 88//3
f 80//5 88//3 79//5
f 83//4 91//2 84//4
f 92//2 84//4 91//2
f 95//1 87//3 96//1
f 88//3 96//1 87//3
f 91//2 95//1 92//2
f 96//1 92//2 95//1
