# SSTK version 0.8.0
# 411
mtllib original-411.mtl
o #ID2343
v -0.287126 -0.155915 -0.471078
v -0.286767 -0.155509 -0.471255
v -0.286729 -0.156381 -0.471255
v -0.287284 -0.155555 -0.471011
v -0.286686 -0.156431 -0.471271
v -0.286235 -0.155462 -0.471462
v -0.286177 -0.156765 -0.471462
v -0.287437 -0.154419 -0.471011
v -0.287058 -0.153339 -0.471255
v -0.287378 -0.154018 -0.471063
v -0.287082 -0.153367 -0.471242
v -0.286235 -0.161561 -0.471462
v -0.284197 -0.161011 -0.471462
v -0.281687 -0.161011 -0.471462
v -0.285105 -0.160963 -0.471462
v -0.285528 -0.160853 -0.471462
v -0.285875 -0.160688 -0.471462
v -0.286157 -0.160451 -0.471462
v -0.286184 -0.160413 -0.471462
v -0.286172 -0.156883 -0.471462
v -0.28595 -0.157944 -0.471462
v -0.286117 -0.158116 -0.471462
v -0.285493 -0.157714 -0.471462
v -0.284868 -0.157587 -0.471462
v -0.284018 -0.157545 -0.471462
v -0.283867 -0.156355 -0.471462
v -0.281687 -0.156355 -0.471462
v -0.284628 -0.156326 -0.471462
v -0.285139 -0.156238 -0.471462
v -0.285585 -0.156037 -0.471462
v -0.285906 -0.155736 -0.471462
v -0.286099 -0.155341 -0.471462
v -0.286591 -0.152801 -0.471462
v -0.286164 -0.154856 -0.471462
v -0.286103 -0.154384 -0.471462
v -0.285923 -0.153972 -0.471462
v -0.285631 -0.153651 -0.471462
v -0.285235 -0.15345 -0.471462
v -0.284628 -0.153344 -0.471462
v -0.283702 -0.153309 -0.471462
v -0.280353 -0.162201 -0.471462
v -0.280353 -0.152119 -0.471462
v -0.284197 -0.162201 -0.471462
v -0.285085 -0.162159 -0.471462
v -0.285823 -0.162032 -0.471462
v -0.286277 -0.161876 -0.471462
v -0.281687 -0.157545 -0.471462
v -0.286067 -0.156837 -0.471462
v -0.281687 -0.153309 -0.471462
v -0.285988 -0.152425 -0.471462
v -0.285176 -0.152196 -0.471462
v -0.284135 -0.152119 -0.471462
v -0.286611 -0.152814 -0.471454
v -0.287389 -0.155325 -0.47097
v -0.287477 -0.154698 -0.470968
v -0.286431 -0.161823 -0.4714
v -0.286781 -0.161619 -0.471255
v -0.286767 -0.161514 -0.471255
v -0.286384 -0.160127 -0.47138
v -0.286533 -0.159731 -0.471315
v -0.286583 -0.159278 -0.471288
v -0.286634 -0.158512 -0.471255
v -0.286511 -0.158751 -0.471307
v -0.286396 -0.158512 -0.471347
v -0.286294 -0.158298 -0.47139
v -0.286696 -0.157119 -0.471255
v -0.286927 -0.161534 -0.471182
v -0.286965 -0.161496 -0.471162
v -0.287272 -0.161193 -0.471011
v -0.287153 -0.158512 -0.471011
v -0.287198 -0.157497 -0.471011
v -0.286876 -0.157199 -0.471169
v -0.287332 -0.161134 -0.470977
v -0.287666 -0.160595 -0.470777
v -0.287738 -0.160393 -0.470733
v -0.287654 -0.158512 -0.470733
v -0.287671 -0.158129 -0.470733
v -0.287474 -0.157751 -0.470852
v -0.287891 -0.159961 -0.470621
v -0.287965 -0.159278 -0.470553
v -0.287851 -0.158512 -0.470605
v -0.287842 -0.158456 -0.470612
vn -0.42473661753775277 -0.018853050778459435 -0.9051206373732362
vn -0.39106391110347516 -0.034785440987663015 -0.9197059261132046
vn -0.39336861034830184 -0.017460690459336535 -0.9192150241816817
vn -0.453133408573257 -0.04030660076259868 -0.8905310168487937
vn -0.3615347132549638 -0.01604764058835559 -0.9322205341780443
vn -0.17819710684398232 -0.015850750608776977 -0.9838671377871978
vn -0.18391040243449497 -0.008163298108061033 -0.9829091130111579
vn -0.4520150806672767 -0.06051003741198078 -0.8899555619365251
vn -0.39027451180376493 -0.05224498158013794 -0.9192150278014519
vn -0.4213958138779482 -0.0564111118578034 -0.9051206298085952
vn -0.1781971066745085 0.015850810593703978 -0.983867136851494
vn 2.7228279999998956e-07 4.770096977795357e-08 -1.0
vn -0.18391040242098314 0.00816330710746096 -0.9829091129389438
vn -0.18391040244200152 -0.008163293108394164 -0.9829091130512766
vn -0.18391040232039446 -0.008163374102997372 -0.9829091124013476
vn -0.1824639000253274 -0.02442593000339072 -0.9829091001364352
vn -0.1824638998916218 0.024425959985491477 -0.9829090994161807
vn -0.35869101389050856 -0.048016961859483696 -0.9322205361007577
vn -0.48209900412049245 -0.06453732055159962 -0.8737365074678118
vn -0.358691013718276 0.04801697183642738 -0.9322205356531335
vn -0.3902745115998661 0.05224499155284243 -0.9192150273212082
vn -0.3910639109674418 0.03478545097556261 -0.9197059257932807
vn -0.36153471319694597 0.01604765058578027 -0.9322205340284447
vn -0.392608003109689 5.850307842122186e-09 -0.9197059072846181
vn -0.3615812944103058 5.387946709686398e-09 -0.9323405855869238
vn -0.42139581364023404 0.056411121825981174 -0.9051206292980064
vn -0.42314141768813707 0.037638781573374316 -0.905281537842535
vn -0.4555985948041394 0.020222969769367546 -0.8899555898505279
vn -0.45492259227728876 6.77883068718578e-09 -0.890530984882453
vn -0.4555985949884103 -0.020222949777547523 -0.8899555902104785
vn -0.4859210987445193 0.021568919944271903 -0.8737364977425155
vn -0.5156649983390714 0.02288919992627495 -0.8564844972413105
vn -0.5150876181362327 7.67566407993734e-09 -0.8571375301798085
vn -0.5156649985751345 -0.022889179936753695 -0.8564844976333953
vn -0.48592109884932716 -0.021568909948924495 -0.873736497930971
vn -0.5447983994235306 0.02418236997441164 -0.8382182991130532
vn -0.5449577878438746 8.12064863268009e-09 -0.8384634812967767
vn -0.5447983995552758 -0.02418235998025989 -0.8382182993157542
usemtl material_0_0
f 1//1 2//2 3//3
f 2//2 1//1 4//4
f 5//5 6//6 7//7
f 6//6 5//5 3//3
f 6//6 3//3 2//2
f 8//8 2//2 4//4
f 2//2 8//8 9//9
f 9//9 8//8 10//10
f 9//9 10//10 11//10
f 12//11 13//12 14//12
f 13//12 12//11 15//12
f 15//12 12//11 16//12
f 16//12 12//11 17//12
f 17//12 12//11 18//12
f 18//12 12//11 19//13
f 20//14 21//12 22//15
f 21//12 20//14 23//12
f 23//12 20//14 24//12
f 24//12 20//14 25//12
f 7//7 26//12 27//12
f 26//12 7//7 28//12
f 28//12 7//7 29//12
f 29//12 7//7 30//12
f 30//12 7//7 6//6
f 30//12 6//6 31//12
f 31//12 6//6 32//12
f 32//12 6//6 33//16
f 32//12 33//16 34//12
f 34//12 33//16 35//12
f 35//12 33//16 36//12
f 36//12 33//16 37//12
f 37//12 33//16 38//12
f 38//12 33//16 39//12
f 39//12 33//16 40//12
f 41//12 14//12 42//12
f 14//12 41//12 43//12
f 14//12 43//12 44//12
f 14//12 44//12 45//12
f 14//12 45//12 46//17
f 14//12 46//17 12//11
f 42//12 14//12 47//12
f 42//12 47//12 27//12
f 27//12 47//12 25//12
f 27//12 25//12 20//14
f 27//12 20//14 48//12
f 27//12 48//12 7//7
f 42//12 27//12 49//12
f 42//12 49//12 40//12
f 42//12 40//12 33//16
f 42//12 33//16 50//12
f 42//12 50//12 51//12
f 42//12 51//12 52//12
f 9//9 6//6 2//2
f 6//6 9//9 33//16
f 33//16 9//9 53//18
f 54//19 8//8 4//4
f 8//8 54//19 55//19
f 56//20 12//11 46//17
f 12//11 56//20 57//21
f 12//11 57//21 58//22
f 58//22 19//13 12//11
f 19//13 58//22 59//23
f 59//23 58//22 60//23
f 60//23 58//22 61//23
f 61//23 58//22 62//24
f 61//23 62//24 63//23
f 63//23 62//24 64//25
f 62//24 65//5 64//25
f 65//5 62//24 66//3
f 65//5 66//3 22//15
f 22//15 66//3 20//14
f 67//26 58//22 57//21
f 58//22 67//26 68//27
f 68//27 62//24 58//22
f 62//24 68//27 69//28
f 62//24 69//28 70//29
f 70//29 66//3 62//24
f 66//3 70//29 71//30
f 66//3 71//30 72//1
f 73//31 70//29 69//28
f 70//29 73//31 74//31
f 70//29 74//31 75//32
f 70//29 75//32 76//33
f 76//33 71//30 70//29
f 71//30 76//33 77//34
f 71//30 77//34 78//35
f 79//36 76//33 75//32
f 76//33 79//36 80//36
f 76//33 80//36 81//37
f 81//37 77//34 76//33
f 77//34 81//37 82//38
