# SSTK version 0.8.0
# 751
mtllib original-751.mtl
o #ID4786
v 0.06646 0.225748 0.105695
v 0.068424 0.226007 0.10576
v 0.067314 0.225861 0.105623
v 0.065685 0.225646 0.10591
v 0.069458 0.226143 0.10617
v 0.064987 0.225554 0.106269
v 0.070331 0.226258 0.106829
v 0.064367 0.225473 0.106771
v 0.063859 0.225406 0.107384
v 0.070959 0.22634 0.107712
v 0.063496 0.225358 0.108075
v 0.071337 0.22639 0.108725
v 0.063278 0.225329 0.108844
v 0.071464 0.226407 0.109773
v 0.063205 0.22532 0.10969
v 0.06328 0.22533 0.11055
v 0.071391 0.226397 0.110608
v 0.063505 0.225359 0.111333
v 0.071175 0.226369 0.111371
v 0.063878 0.225408 0.112038
v 0.070814 0.226321 0.112061
v 0.064402 0.225477 0.112664
v 0.070309 0.226255 0.112678
v 0.065038 0.225561 0.113179
v 0.069693 0.226174 0.113187
v 0.065749 0.225655 0.113546
v 0.069003 0.226083 0.11355
v 0.066535 0.225758 0.113767
v 0.068238 0.225982 0.113767
v 0.067397 0.225872 0.11384
v 0.067397 0.225872 0.11384
v 0.066535 0.225758 0.113767
v 0.068238 0.225982 0.113767
v 0.069003 0.226083 0.11355
v 0.065749 0.225655 0.113546
v 0.069693 0.226174 0.113187
v 0.065038 0.225561 0.113179
v 0.070309 0.226255 0.112678
v 0.064402 0.225477 0.112664
v 0.070814 0.226321 0.112061
v 0.063878 0.225408 0.112038
v 0.071175 0.226369 0.111371
v 0.063505 0.225359 0.111333
v 0.071391 0.226397 0.110608
v 0.06328 0.22533 0.11055
v 0.071464 0.226407 0.109773
v 0.063205 0.22532 0.10969
v 0.063278 0.225329 0.108844
v 0.071337 0.22639 0.108725
v 0.063496 0.225358 0.108075
v 0.070959 0.22634 0.107712
v 0.063859 0.225406 0.107384
v 0.070331 0.226258 0.106829
v 0.064367 0.225473 0.106771
v 0.064987 0.225554 0.106269
v 0.069458 0.226143 0.10617
v 0.065685 0.225646 0.10591
v 0.068424 0.226007 0.10576
v 0.06646 0.225748 0.105695
v 0.067314 0.225861 0.105623
vn -0.1305261948688555 0.9914448610250888 5.536675279864116e-09
vn 0.1305261948688555 -0.9914448610250888 -5.536675279864116e-09
usemtl material_0_0
f 31//2 32//2 33//2
f 33//2 32//2 34//2
f 32//2 35//2 34//2
f 34//2 35//2 36//2
f 35//2 37//2 36//2
f 36//2 37//2 38//2
f 37//2 39//2 38//2
f 38//2 39//2 40//2
f 39//2 41//2 40//2
f 40//2 41//2 42//2
f 41//2 43//2 42//2
f 42//2 43//2 44//2
f 43//2 45//2 44//2
f 44//2 45//2 46//2
f 45//2 47//2 46//2
f 47//2 48//2 46//2
f 46//2 48//2 49//2
f 48//2 50//2 49//2
f 49//2 50//2 51//2
f 50//2 52//2 51//2
f 51//2 52//2 53//2
f 52//2 54//2 53//2
f 54//2 55//2 53//2
f 53//2 55//2 56//2
f 55//2 57//2 56//2
f 56//2 57//2 58//2
f 57//2 59//2 58//2
f 60//2 58//2 59//2
usemtl material_1_0
f 1//1 2//1 3//1
f 2//1 1//1 4//1
f 2//1 4//1 5//1
f 5//1 4//1 6//1
f 5//1 6//1 7//1
f 7//1 6//1 8//1
f 7//1 8//1 9//1
f 7//1 9//1 10//1
f 10//1 9//1 11//1
f 10//1 11//1 12//1
f 12//1 11//1 13//1
f 12//1 13//1 14//1
f 14//1 13//1 15//1
f 14//1 15//1 16//1
f 14//1 16//1 17//1
f 17//1 16//1 18//1
f 17//1 18//1 19//1
f 19//1 18//1 20//1
f 19//1 20//1 21//1
f 21//1 20//1 22//1
f 21//1 22//1 23//1
f 23//1 22//1 24//1
f 23//1 24//1 25//1
f 25//1 24//1 26//1
f 25//1 26//1 27//1
f 27//1 26//1 28//1
f 27//1 28//1 29//1
f 29//1 28//1 30//1
