# SSTK version 0.8.0
# 736
mtllib original-736.mtl
o #ID4572
v 0.059409 -0.222519 0.221209
v 0.172825 -0.222519 0.221209
v 0.116117 -0.229985 0.221209
v 0.225668 -0.200631 0.221209
v 0.006566 -0.200631 0.221209
v 0.271046 -0.165812 0.221209
v -0.038812 -0.165812 0.221209
v 0.305865 -0.120434 0.22121
v -0.073631 -0.120434 0.22121
v 0.327754 -0.067591 0.22121
v -0.095519 -0.067591 0.22121
v 0.335219 -0.010883 0.22121
v -0.102985 -0.010883 0.22121
v 0.327754 0.045825 0.22121
v -0.095519 0.045825 0.22121
v 0.305865 0.098668 0.22121
v -0.073631 0.098668 0.22121
v 0.271046 0.144046 0.22121
v -0.038812 0.144046 0.22121
v 0.225668 0.178865 0.22121
v 0.006566 0.178865 0.22121
v 0.172825 0.200754 0.22121
v 0.059409 0.200754 0.22121
v 0.116117 0.208219 0.22121
v 0.116117 0.208219 0.22121
v 0.059409 0.200754 0.22121
v 0.172825 0.200754 0.22121
v 0.006566 0.178865 0.22121
v 0.225668 0.178865 0.22121
v -0.038812 0.144046 0.22121
v 0.271046 0.144046 0.22121
v -0.073631 0.098668 0.22121
v 0.305865 0.098668 0.22121
v -0.095519 0.045825 0.22121
v 0.327754 0.045825 0.22121
v -0.102985 -0.010883 0.22121
v 0.335219 -0.010883 0.22121
v -0.095519 -0.067591 0.22121
v 0.327754 -0.067591 0.22121
v -0.073631 -0.120434 0.22121
v 0.305865 -0.120434 0.22121
v -0.038812 -0.165812 0.221209
v 0.271046 -0.165812 0.221209
v 0.006566 -0.200631 0.221209
v 0.225668 -0.200631 0.221209
v 0.059409 -0.222519 0.221209
v 0.172825 -0.222519 0.221209
v 0.116117 -0.229985 0.221209
v 0.006566 -0.200631 0.222621
v 0.059409 -0.222519 0.221209
v 0.059409 -0.222519 0.222621
v 0.006566 -0.200631 0.221209
v 0.006566 -0.200631 0.221209
v 0.006566 -0.200631 0.222621
v 0.059409 -0.222519 0.221209
v 0.059409 -0.222519 0.222621
v -0.038812 -0.165812 0.222621
v -0.038812 -0.165812 0.221209
v -0.038812 -0.165812 0.221209
v -0.038812 -0.165812 0.222621
v -0.073631 -0.120434 0.22121
v -0.073631 -0.120434 0.222621
v -0.073631 -0.120434 0.222621
v -0.073631 -0.120434 0.22121
v -0.095519 -0.067591 0.22121
v -0.095519 -0.067591 0.222621
v -0.095519 -0.067591 0.222621
v -0.095519 -0.067591 0.22121
v -0.102985 -0.010883 0.22121
v -0.102985 -0.010883 0.222621
v -0.102985 -0.010883 0.222621
v -0.102985 -0.010883 0.22121
v -0.095519 0.045825 0.22121
v -0.095519 0.045825 0.222621
v -0.095519 0.045825 0.222621
v -0.095519 0.045825 0.22121
v -0.073631 0.098668 0.22121
v -0.073631 0.098668 0.222621
v -0.073631 0.098668 0.222621
v -0.073631 0.098668 0.22121
v -0.038812 0.144046 0.22121
v -0.038812 0.144046 0.222621
v -0.038812 0.144046 0.222621
v -0.038812 0.144046 0.22121
v 0.006566 0.178865 0.222621
v 0.006566 0.178865 0.22121
v 0.006566 0.178865 0.222621
v 0.006566 0.178865 0.22121
v 0.059409 0.200754 0.222621
v 0.059409 0.200754 0.22121
v 0.059409 0.200754 0.222621
v 0.059409 0.200754 0.22121
v 0.116117 0.208219 0.222621
v 0.116117 0.208219 0.22121
v 0.116117 0.208219 0.222621
v 0.116117 0.208219 0.22121
v 0.172825 0.200754 0.222621
v 0.172825 0.200754 0.22121
v 0.172825 0.200754 0.222621
v 0.172825 0.200754 0.22121
v 0.225668 0.178865 0.222621
v 0.225668 0.178865 0.22121
v 0.225668 0.178865 0.222621
v 0.225668 0.178865 0.22121
v 0.271046 0.144046 0.222621
v 0.271046 0.144046 0.22121
v 0.271046 0.144046 0.222621
v 0.271046 0.144046 0.22121
v 0.305865 0.098668 0.222621
v 0.305865 0.098668 0.22121
v 0.305865 0.098668 0.222621
v 0.305865 0.098668 0.22121
v 0.327754 0.045825 0.222621
v 0.327754 0.045825 0.22121
v 0.327754 0.045825 0.222621
v 0.327754 0.045825 0.22121
v 0.335219 -0.010883 0.222621
v 0.335219 -0.010883 0.22121
v 0.335219 -0.010883 0.222621
v 0.335219 -0.010883 0.22121
v 0.327754 -0.067591 0.222621
v 0.327754 -0.067591 0.22121
v 0.327754 -0.067591 0.222621
v 0.327754 -0.067591 0.22121
v 0.305865 -0.120434 0.222621
v 0.305865 -0.120434 0.22121
v 0.305865 -0.120434 0.222621
v 0.305865 -0.120434 0.22121
v 0.271046 -0.165812 0.222621
v 0.271046 -0.165812 0.221209
v 0.271046 -0.165812 0.222621
v 0.271046 -0.165812 0.221209
v 0.225668 -0.200631 0.222621
v 0.225668 -0.200631 0.221209
v 0.225668 -0.200631 0.221209
v 0.225668 -0.200631 0.222621
v 0.172825 -0.222519 0.222621
v 0.172825 -0.222519 0.221209
v 0.172825 -0.222519 0.221209
v 0.172825 -0.222519 0.222621
v 0.116117 -0.229985 0.222621
v 0.116117 -0.229985 0.221209
v 0.116117 -0.229985 0.221209
v 0.116117 -0.229985 0.222621
v 0.006566 -0.200631 0.224804
v 0.059409 -0.222519 0.222621
v 0.059409 -0.222519 0.224804
v 0.006566 -0.200631 0.222621
v 0.006566 -0.200631 0.222621
v 0.006566 -0.200631 0.224804
v 0.059409 -0.222519 0.222621
v 0.059409 -0.222519 0.224804
v -0.038812 -0.165812 0.224804
v -0.038812 -0.165812 0.222621
v -0.038812 -0.165812 0.222621
v -0.038812 -0.165812 0.224804
v -0.073631 -0.120434 0.222621
v -0.073631 -0.120434 0.224804
v -0.073631 -0.120434 0.224804
v -0.073631 -0.120434 0.222621
v -0.095519 -0.067591 0.222621
v -0.095519 -0.067591 0.224804
v -0.095519 -0.067591 0.224804
v -0.095519 -0.067591 0.222621
v -0.102985 -0.010883 0.224804
v -0.102985 -0.010883 0.224804
v -0.095519 0.045825 0.222621
v -0.095519 0.045825 0.224804
v -0.095519 0.045825 0.224804
v -0.095519 0.045825 0.222621
v -0.073631 0.098668 0.222621
v -0.073631 0.098668 0.224804
v -0.073631 0.098668 0.224804
v -0.073631 0.098668 0.222621
v -0.038812 0.144046 0.222621
v -0.038812 0.144046 0.224804
v -0.038812 0.144046 0.224804
v -0.038812 0.144046 0.222621
v 0.006566 0.178865 0.224804
v 0.006566 0.178865 0.222621
v 0.006566 0.178865 0.224804
v 0.006566 0.178865 0.222621
v 0.059409 0.200754 0.224804
v 0.059409 0.200754 0.222621
v 0.059409 0.200754 0.224804
v 0.059409 0.200754 0.222621
v 0.116117 0.208219 0.224804
v 0.116117 0.208219 0.222621
v 0.116117 0.208219 0.224804
v 0.116117 0.208219 0.222621
v 0.172825 0.200754 0.224804
v 0.172825 0.200754 0.222621
v 0.172825 0.200754 0.224804
v 0.172825 0.200754 0.222621
v 0.225668 0.178865 0.224804
v 0.225668 0.178865 0.222621
v 0.225668 0.178865 0.224804
v 0.225668 0.178865 0.222621
v 0.271046 0.144046 0.224804
v 0.271046 0.144046 0.222621
v 0.271046 0.144046 0.224804
v 0.271046 0.144046 0.222621
v 0.305865 0.098668 0.224804
v 0.305865 0.098668 0.222621
v 0.305865 0.098668 0.224804
v 0.305865 0.098668 0.222621
v 0.327754 0.045825 0.224804
v 0.327754 0.045825 0.222621
v 0.327754 0.045825 0.224804
v 0.327754 0.045825 0.222621
v 0.335219 -0.010883 0.224804
v 0.335219 -0.010883 0.222621
v 0.335219 -0.010883 0.224804
v 0.335219 -0.010883 0.222621
v 0.327754 -0.067591 0.224804
v 0.327754 -0.067591 0.222621
v 0.327754 -0.067591 0.224804
v 0.327754 -0.067591 0.222621
v 0.305865 -0.120434 0.224804
v 0.305865 -0.120434 0.222621
v 0.305865 -0.120434 0.224804
v 0.305865 -0.120434 0.222621
v 0.271046 -0.165812 0.224804
v 0.271046 -0.165812 0.222621
v 0.271046 -0.165812 0.224804
v 0.271046 -0.165812 0.222621
v 0.225668 -0.200631 0.224804
v 0.225668 -0.200631 0.222621
v 0.225668 -0.200631 0.222621
v 0.225668 -0.200631 0.224804
v 0.172825 -0.222519 0.224804
v 0.172825 -0.222519 0.222621
v 0.172825 -0.222519 0.222621
v 0.172825 -0.222519 0.224804
v 0.116117 -0.229985 0.224804
v 0.116117 -0.229985 0.222621
v 0.116117 -0.229985 0.222621
v 0.116117 -0.229985 0.224804
v 0.172825 -0.222519 0.224804
v 0.059409 -0.222519 0.224804
v 0.116117 -0.229985 0.224804
v 0.225668 -0.200631 0.224804
v 0.006566 -0.200631 0.224804
v 0.271046 -0.165812 0.224804
v -0.038812 -0.165812 0.224804
v 0.305865 -0.120434 0.224804
v -0.073631 -0.120434 0.224804
v 0.327754 -0.067591 0.224804
v -0.095519 -0.067591 0.224804
v 0.335219 -0.010883 0.224804
v -0.102985 -0.010883 0.224804
v 0.327754 0.045825 0.224804
v -0.095519 0.045825 0.224804
v 0.305865 0.098668 0.224804
v -0.073631 0.098668 0.224804
v 0.271046 0.144046 0.224804
v -0.038812 0.144046 0.224804
v 0.225668 0.178865 0.224804
v 0.006566 0.178865 0.224804
v 0.172825 0.200754 0.224804
v 0.059409 0.200754 0.224804
v 0.116117 0.208219 0.224804
v 0.116117 0.208219 0.224804
v 0.172825 0.200754 0.224804
v 0.059409 0.200754 0.224804
v 0.006566 0.178865 0.224804
v 0.225668 0.178865 0.224804
v -0.038812 0.144046 0.224804
v 0.271046 0.144046 0.224804
v -0.073631 0.098668 0.224804
v 0.305865 0.098668 0.224804
v -0.095519 0.045825 0.224804
v 0.327754 0.045825 0.224804
v -0.102985 -0.010883 0.224804
v 0.335219 -0.010883 0.224804
v -0.095519 -0.067591 0.224804
v 0.327754 -0.067591 0.224804
v -0.073631 -0.120434 0.224804
v 0.305865 -0.120434 0.224804
v -0.038812 -0.165812 0.224804
v 0.271046 -0.165812 0.224804
v 0.006566 -0.200631 0.224804
v 0.225668 -0.200631 0.224804
v 0.059409 -0.222519 0.224804
v 0.172825 -0.222519 0.224804
v 0.116117 -0.229985 0.224804
v 0.006566 -0.200631 0.224804
v 0.059409 -0.222519 0.22981
v 0.059409 -0.222519 0.224804
v 0.006566 -0.200631 0.22981
v 0.006566 -0.200631 0.22981
v 0.006566 -0.200631 0.224804
v 0.059409 -0.222519 0.22981
v 0.059409 -0.222519 0.224804
v -0.038812 -0.165812 0.224804
v -0.038812 -0.165812 0.22981
v -0.038812 -0.165812 0.22981
v -0.038812 -0.165812 0.224804
v -0.073631 -0.120434 0.224804
v -0.073631 -0.120434 0.22981
v -0.073631 -0.120434 0.22981
v -0.073631 -0.120434 0.224804
v -0.095519 -0.067591 0.224804
v -0.095519 -0.067591 0.22981
v -0.095519 -0.067591 0.22981
v -0.095519 -0.067591 0.224804
v -0.102985 -0.010883 0.224804
v -0.102985 -0.010883 0.22981
v -0.102985 -0.010883 0.22981
v -0.102985 -0.010883 0.224804
v -0.095519 0.045825 0.224804
v -0.095519 0.045825 0.22981
v -0.095519 0.045825 0.22981
v -0.095519 0.045825 0.224804
v -0.073631 0.098668 0.224804
v -0.073631 0.098668 0.22981
v -0.073631 0.098668 0.22981
v -0.073631 0.098668 0.224804
v -0.038812 0.144046 0.224804
v -0.038812 0.144046 0.22981
v -0.038812 0.144046 0.22981
v -0.038812 0.144046 0.224804
v 0.006566 0.178865 0.224804
v 0.006566 0.178865 0.22981
v 0.006566 0.178865 0.224804
v 0.006566 0.178865 0.22981
v 0.059409 0.200754 0.224804
v 0.059409 0.200754 0.22981
v 0.059409 0.200754 0.224804
v 0.059409 0.200754 0.22981
v 0.116117 0.208219 0.224804
v 0.116117 0.208219 0.22981
v 0.116117 0.208219 0.224804
v 0.116117 0.208219 0.22981
v 0.172825 0.200754 0.224804
v 0.172825 0.200754 0.22981
v 0.172825 0.200754 0.224804
v 0.172825 0.200754 0.22981
v 0.225668 0.178865 0.224804
v 0.225668 0.178865 0.22981
v 0.225668 0.178865 0.224804
v 0.225668 0.178865 0.22981
v 0.271046 0.144046 0.224804
v 0.271046 0.144046 0.22981
v 0.271046 0.144046 0.224804
v 0.271046 0.144046 0.22981
v 0.305865 0.098668 0.22981
v 0.305865 0.098668 0.224804
v 0.305865 0.098668 0.22981
v 0.305865 0.098668 0.224804
v 0.327754 0.045825 0.22981
v 0.327754 0.045825 0.224804
v 0.327754 0.045825 0.22981
v 0.327754 0.045825 0.224804
v 0.335219 -0.010883 0.22981
v 0.335219 -0.010883 0.224804
v 0.335219 -0.010883 0.22981
v 0.335219 -0.010883 0.224804
v 0.327754 -0.067591 0.22981
v 0.327754 -0.067591 0.224804
v 0.327754 -0.067591 0.22981
v 0.327754 -0.067591 0.224804
v 0.305865 -0.120434 0.22981
v 0.305865 -0.120434 0.224804
v 0.305865 -0.120434 0.22981
v 0.305865 -0.120434 0.224804
v 0.271046 -0.165812 0.22981
v 0.271046 -0.165812 0.224804
v 0.271046 -0.165812 0.22981
v 0.271046 -0.165812 0.224804
v 0.225668 -0.200631 0.224804
v 0.225668 -0.200631 0.22981
v 0.225668 -0.200631 0.22981
v 0.225668 -0.200631 0.224804
v 0.172825 -0.222519 0.224804
v 0.172825 -0.222519 0.22981
v 0.172825 -0.222519 0.22981
v 0.172825 -0.222519 0.224804
v 0.116117 -0.229985 0.224804
v 0.116117 -0.229985 0.22981
v 0.116117 -0.229985 0.22981
v 0.116117 -0.229985 0.224804
vn 0.0 0.0 -1.0
vn 0.0 0.0 1.0
vn -0.5000000016387101 -0.8660254028383291 0.0
vn -0.25881900959356163 -0.9659258358036645 0.0
vn 0.5000000016387101 0.8660254028383291 0.0
vn 0.25881900959356163 0.9659258358036645 0.0
vn -0.7071067811865475 -0.7071067811865475 0.0
vn 0.7071067811865475 0.7071067811865475 0.0
vn -0.8660254028383291 -0.5000000016387101 0.0
vn 0.8660254028383291 0.5000000016387101 0.0
vn -0.9659258358036645 -0.25881900959356163 0.0
vn 0.9659258358036645 0.25881900959356163 0.0
vn -1.0 0.0 0.0
vn 1.0 0.0 0.0
vn -0.9659258358036645 0.25881900959356163 0.0
vn 0.9659258358036645 -0.25881900959356163 0.0
vn -0.8660254028383291 0.5000000016387101 0.0
vn 0.8660254028383291 -0.5000000016387101 0.0
vn -0.7071067811865475 0.7071067811865475 0.0
vn 0.7071067811865475 -0.7071067811865475 0.0
vn -0.5000000016387101 0.8660254028383291 0.0
vn 0.5000000016387101 -0.8660254028383291 0.0
vn -0.25881900959356163 0.9659258358036645 0.0
vn 0.25881900959356163 -0.9659258358036645 0.0
vn 0.0 1.0 0.0
vn 0.0 -1.0 0.0
vn -0.5000000016387101 -0.8660254028383291 -1.7146518133233667e-09
vn -0.25881900959356163 -0.9659258358036645 -1.9124458564094076e-09
vn 0.5000000016387101 0.8660254028383291 1.7146518133233667e-09
vn 0.25881900959356163 0.9659258358036645 1.9124458564094076e-09
vn -0.7071067811865475 -0.7071067811865475 -1.40000580574186e-09
vn 0.7071067811865475 0.7071067811865475 1.40000580574186e-09
vn -0.7071067811865475 0.7071067811865475 1.3999858057423922e-09
vn 0.7071067811865475 -0.7071067811865475 -1.3999858057423922e-09
vn -0.5000000016387101 0.8660254028383291 1.7146188133232582e-09
vn 0.5000000016387101 -0.8660254028383291 -1.7146188133232582e-09
vn -0.25881900959356163 0.9659258358036645 1.9124088564080363e-09
vn 0.25881900959356163 -0.9659258358036645 -1.9124088564080363e-09
vn 0.0 1.0 1.9798707779553955e-09
vn 0.0 -1.0 -1.9798707779553955e-09
vn 0.25881900959356163 0.9659258358036645 1.912407856407999e-09
vn -0.25881900959356163 -0.9659258358036645 -1.912407856407999e-09
vn 0.5000000016387101 0.8660254028383291 1.714617813323255e-09
vn -0.5000000016387101 -0.8660254028383291 -1.714617813323255e-09
vn 0.7071067811865475 0.7071067811865475 1.3999858057423922e-09
vn -0.7071067811865475 -0.7071067811865475 -1.3999858057423922e-09
vn 0.7071067811865475 -0.7071067811865475 -1.40000580574186e-09
vn -0.7071067811865475 0.7071067811865475 1.40000580574186e-09
vn 0.5000000016387101 -0.8660254028383291 -1.7146518133233667e-09
vn -0.5000000016387101 0.8660254028383291 1.7146518133233667e-09
vn 0.25881900959356163 -0.9659258358036645 -1.9124458564094076e-09
vn -0.25881900959356163 0.9659258358036645 1.9124458564094076e-09
vn 0.0 -1.0 -1.9799097779553955e-09
vn 0.0 1.0 1.9799097779553955e-09
vn 0.5000000016387101 0.8660254028383291 1.7146458133233468e-09
vn 0.25881900959356163 0.9659258358036645 1.9124388564091485e-09
vn -0.5000000016387101 -0.8660254028383291 -1.7146458133233468e-09
vn -0.25881900959356163 -0.9659258358036645 -1.9124388564091485e-09
vn 0.7071067811865475 0.7071067811865475 1.4000028057419398e-09
vn -0.7071067811865475 -0.7071067811865475 -1.4000028057419398e-09
vn 0.7071067811865475 -0.7071067811865475 -1.4000028057419398e-09
vn -0.7071067811865475 0.7071067811865475 1.4000028057419398e-09
vn 0.5000000016387101 -0.8660254028383291 -1.7146458133233468e-09
vn -0.5000000016387101 0.8660254028383291 1.7146458133233468e-09
vn 0.25881900959356163 -0.9659258358036645 -1.9124398564091857e-09
vn -0.25881900959356163 0.9659258358036645 1.9124398564091857e-09
vn 0.0 -1.0 -1.979902777955395e-09
vn 0.0 1.0 1.979902777955395e-09
usemtl material_0_0
f 1//1 2//1 3//1
f 2//1 1//1 4//1
f 4//1 1//1 5//1
f 4//1 5//1 6//1
f 6//1 5//1 7//1
f 6//1 7//1 8//1
f 8//1 7//1 9//1
f 8//1 9//1 10//1
f 10//1 9//1 11//1
f 10//1 11//1 12//1
f 12//1 11//1 13//1
f 12//1 13//1 14//1
f 14//1 13//1 15//1
f 14//1 15//1 16//1
f 16//1 15//1 17//1
f 16//1 17//1 18//1
f 18//1 17//1 19//1
f 18//1 19//1 20//1
f 20//1 19//1 21//1
f 20//1 21//1 22//1
f 22//1 21//1 23//1
f 22//1 23//1 24//1
f 25//2 26//2 27//2
f 26//2 28//2 27//2
f 27//2 28//2 29//2
f 28//2 30//2 29//2
f 29//2 30//2 31//2
f 30//2 32//2 31//2
f 31//2 32//2 33//2
f 32//2 34//2 33//2
f 33//2 34//2 35//2
f 34//2 36//2 35//2
f 35//2 36//2 37//2
f 36//2 38//2 37//2
f 37//2 38//2 39//2
f 38//2 40//2 39//2
f 39//2 40//2 41//2
f 40//2 42//2 41//2
f 41//2 42//2 43//2
f 42//2 44//2 43//2
f 43//2 44//2 45//2
f 44//2 46//2 45//2
f 45//2 46//2 47//2
f 48//2 47//2 46//2
f 49//3 50//4 51//4
f 50//4 49//3 52//3
f 53//5 54//5 55//6
f 56//6 55//6 54//5
f 57//7 52//3 49//3
f 52//3 57//7 58//7
f 59//8 60//8 53//5
f 54//5 53//5 60//8
f 57//7 61//9 58//7
f 61//9 57//7 62//9
f 63//10 60//8 64//10
f 59//8 64//10 60//8
f 62//9 65//11 61//9
f 65//11 62//9 66//11
f 67//12 63//10 68//12
f 64//10 68//12 63//10
f 66//11 69//13 65//11
f 69//13 66//11 70//13
f 71//14 67//12 72//14
f 68//12 72//14 67//12
f 70//13 73//15 69//13
f 73//15 70//13 74//15
f 75//16 71//14 76//16
f 72//14 76//16 71//14
f 74//15 77//17 73//15
f 77//17 74//15 78//17
f 79//18 75//16 80//18
f 76//16 80//18 75//16
f 78//17 81//19 77//17
f 81//19 78//17 82//19
f 83//20 79//18 84//20
f 80//18 84//20 79//18
f 81//19 85//21 86//21
f 85//21 81//19 82//19
f 83//20 84//20 87//22
f 88//22 87//22 84//20
f 86//21 89//23 90//23
f 89//23 86//21 85//21
f 87//22 88//22 91//24
f 92//24 91//24 88//22
f 90//23 93//25 94//25
f 93//25 90//23 89//23
f 91//24 92//24 95//26
f 96//26 95//26 92//24
f 94//25 97//6 98//6
f 97//6 94//25 93//25
f 95//26 96//26 99//4
f 100//4 99//4 96//26
f 98//6 101//5 102//5
f 101//5 98//6 97//6
f 99//4 100//4 103//3
f 104//3 103//3 100//4
f 102//5 105//8 106//8
f 105//8 102//5 101//5
f 103//3 104//3 107//7
f 108//7 107//7 104//3
f 106//8 109//10 110//10
f 109//10 106//8 105//8
f 107//7 108//7 111//9
f 112//9 111//9 108//7
f 110//10 113//12 114//12
f 113//12 110//10 109//10
f 111//9 112//9 115//11
f 116//11 115//11 112//9
f 114//12 117//14 118//14
f 117//14 114//12 113//12
f 115//11 116//11 119//13
f 120//13 119//13 116//11
f 118//14 121//16 122//16
f 121//16 118//14 117//14
f 119//13 120//13 123//15
f 124//15 123//15 120//13
f 122//16 125//18 126//18
f 125//18 122//16 121//16
f 123//15 124//15 127//17
f 128//17 127//17 124//15
f 126//18 129//20 130//20
f 129//20 126//18 125//18
f 127//17 128//17 131//19
f 132//19 131//19 128//17
f 133//22 130//20 129//20
f 130//20 133//22 134//22
f 135//21 136//21 132//19
f 131//19 132//19 136//21
f 137//24 134//22 133//22
f 134//22 137//24 138//24
f 139//23 140//23 135//21
f 136//21 135//21 140//23
f 141//26 138//24 137//24
f 138//24 141//26 142//26
f 143//25 144//25 139//23
f 140//23 139//23 144//25
f 51//4 142//26 141//26
f 142//26 51//4 50//4
f 55//6 56//6 143//25
f 144//25 143//25 56//6
f 145//27 146//28 147//28
f 146//28 145//27 148//27
f 149//29 150//29 151//30
f 152//30 151//30 150//29
f 153//31 148//27 145//27
f 148//27 153//31 154//31
f 155//32 156//32 149//29
f 150//29 149//29 156//32
f 153//31 157//9 154//31
f 157//9 153//31 158//9
f 159//10 156//32 160//10
f 155//32 160//10 156//32
f 158//9 161//11 157//9
f 161//11 158//9 162//11
f 163//12 159//10 164//12
f 160//10 164//12 159//10
f 162//11 70//13 161//11
f 70//13 162//11 165//13
f 166//14 163//12 71//14
f 164//12 71//14 163//12
f 165//13 167//15 70//13
f 167//15 165//13 168//15
f 169//16 166//14 170//16
f 71//14 170//16 166//14
f 168//15 171//17 167//15
f 171//17 168//15 172//17
f 173//18 169//16 174//18
f 170//16 174//18 169//16
f 172//17 175//33 171//17
f 175//33 172//17 176//33
f 177//34 173//18 178//34
f 174//18 178//34 173//18
f 175//33 179//35 180//35
f 179//35 175//33 176//33
f 177//34 178//34 181//36
f 182//36 181//36 178//34
f 180//35 183//37 184//37
f 183//37 180//35 179//35
f 181//36 182//36 185//38
f 186//38 185//38 182//36
f 184//37 187//39 188//39
f 187//39 184//37 183//37
f 185//38 186//38 189//40
f 190//40 189//40 186//38
f 188//39 191//41 192//41
f 191//41 188//39 187//39
f 189//40 190//40 193//42
f 194//42 193//42 190//40
f 192//41 195//43 196//43
f 195//43 192//41 191//41
f 193//42 194//42 197//44
f 198//44 197//44 194//42
f 196//43 199//45 200//45
f 199//45 196//43 195//43
f 197//44 198//44 201//46
f 202//46 201//46 198//44
f 200//45 203//10 204//10
f 203//10 200//45 199//45
f 201//46 202//46 205//9
f 206//9 205//9 202//46
f 204//10 207//12 208//12
f 207//12 204//10 203//10
f 205//9 206//9 209//11
f 210//11 209//11 206//9
f 208//12 211//14 212//14
f 211//14 208//12 207//12
f 209//11 210//11 213//13
f 214//13 213//13 210//11
f 212//14 215//16 216//16
f 215//16 212//14 211//14
f 213//13 214//13 217//15
f 218//15 217//15 214//13
f 216//16 219//18 220//18
f 219//18 216//16 215//16
f 217//15 218//15 221//17
f 222//17 221//17 218//15
f 220//18 223//47 224//47
f 223//47 220//18 219//18
f 221//17 222//17 225//48
f 226//48 225//48 222//17
f 227//49 224//47 223//47
f 224//47 227//49 228//49
f 229//50 230//50 226//48
f 225//48 226//48 230//50
f 231//51 228//49 227//49
f 228//49 231//51 232//51
f 233//52 234//52 229//50
f 230//50 229//50 234//52
f 235//53 232//51 231//51
f 232//51 235//53 236//53
f 237//54 238//54 233//52
f 234//52 233//52 238//54
f 147//28 236//53 235//53
f 236//53 147//28 146//28
f 151//30 152//30 237//54
f 238//54 237//54 152//30
f 239//2 240//2 241//2
f 240//2 239//2 242//2
f 240//2 242//2 243//2
f 243//2 242//2 244//2
f 243//2 244//2 245//2
f 245//2 244//2 246//2
f 245//2 246//2 247//2
f 247//2 246//2 248//2
f 247//2 248//2 249//2
f 249//2 248//2 250//2
f 249//2 250//2 251//2
f 251//2 250//2 252//2
f 251//2 252//2 253//2
f 253//2 252//2 254//2
f 253//2 254//2 255//2
f 255//2 254//2 256//2
f 255//2 256//2 257//2
f 257//2 256//2 258//2
f 257//2 258//2 259//2
f 259//2 258//2 260//2
f 259//2 260//2 261//2
f 261//2 260//2 262//2
f 263//1 264//1 265//1
f 265//1 264//1 266//1
f 264//1 267//1 266//1
f 266//1 267//1 268//1
f 267//1 269//1 268//1
f 268//1 269//1 270//1
f 269//1 271//1 270//1
f 270//1 271//1 272//1
f 271//1 273//1 272//1
f 272//1 273//1 274//1
f 273//1 275//1 274//1
f 274//1 275//1 276//1
f 275//1 277//1 276//1
f 276//1 277//1 278//1
f 277//1 279//1 278//1
f 278//1 279//1 280//1
f 279//1 281//1 280//1
f 280//1 281//1 282//1
f 281//1 283//1 282//1
f 282//1 283//1 284//1
f 283//1 285//1 284//1
f 286//1 284//1 285//1
f 287//55 288//56 289//56
f 288//56 287//55 290//55
f 291//57 292//57 293//58
f 294//58 293//58 292//57
f 295//59 290//55 287//55
f 290//55 295//59 296//59
f 297//60 298//60 291//57
f 292//57 291//57 298//60
f 299//10 296//59 295//59
f 296//59 299//10 300//10
f 301//9 302//9 297//60
f 298//60 297//60 302//9
f 303//12 300//10 299//10
f 300//10 303//12 304//12
f 305//11 306//11 301//9
f 302//9 301//9 306//11
f 307//14 304//12 303//12
f 304//12 307//14 308//14
f 309//13 310//13 305//11
f 306//11 305//11 310//13
f 311//16 308//14 307//14
f 308//14 311//16 312//16
f 313//15 314//15 309//13
f 310//13 309//13 314//15
f 315//18 312//16 311//16
f 312//16 315//18 316//18
f 317//17 318//17 313//15
f 314//15 313//15 318//17
f 319//61 316//18 315//18
f 316//18 319//61 320//61
f 321//62 322//62 317//17
f 318//17 317//17 322//62
f 320//61 323//63 324//63
f 323//63 320//61 319//61
f 322//62 321//62 325//64
f 326//64 325//64 321//62
f 324//63 327//65 328//65
f 327//65 324//63 323//63
f 325//64 326//64 329//66
f 330//66 329//66 326//64
f 328//65 331//67 332//67
f 331//67 328//65 327//65
f 329//66 330//66 333//68
f 334//68 333//68 330//66
f 332//67 335//58 336//58
f 335//58 332//67 331//67
f 333//68 334//68 337//56
f 338//56 337//56 334//68
f 336//58 339//57 340//57
f 339//57 336//58 335//58
f 337//56 338//56 341//55
f 342//55 341//55 338//56
f 340//57 343//60 344//60
f 343//60 340//57 339//57
f 341//55 342//55 345//59
f 346//59 345//59 342//55
f 347//9 343//60 348//9
f 343//60 347//9 344//60
f 346//59 349//10 345//59
f 350//10 345//59 349//10
f 351//11 348//9 352//11
f 348//9 351//11 347//9
f 349//10 353//12 350//10
f 354//12 350//10 353//12
f 355//13 352//11 356//13
f 352//11 355//13 351//11
f 353//12 357//14 354//12
f 358//14 354//12 357//14
f 359//15 356//13 360//15
f 356//13 359//15 355//13
f 357//14 361//16 358//14
f 362//16 358//14 361//16
f 363//17 360//15 364//17
f 360//15 363//17 359//15
f 361//16 365//18 362//16
f 366//18 362//16 365//18
f 367//62 364//17 368//62
f 364//17 367//62 363//17
f 365//18 369//61 366//18
f 370//61 366//18 369//61
f 371//64 367//62 368//62
f 367//62 371//64 372//64
f 373//63 374//63 369//61
f 370//61 369//61 374//63
f 375//66 372//64 371//64
f 372//64 375//66 376//66
f 377//65 378//65 373//63
f 374//63 373//63 378//65
f 379//68 376//66 375//66
f 376//66 379//68 380//68
f 381//67 382//67 377//65
f 378//65 377//65 382//67
f 289//56 380//68 379//68
f 380//68 289//56 288//56
f 293//58 294//58 381//67
f 382//67 381//67 294//58
