# SSTK version 0.8.0
# 422
mtllib original-422.mtl
o #ID2382
v -0.469526 0.049359 -0.37231
v -0.469526 0.052379 -0.37231
v -0.469526 0.050869 -0.372509
v -0.469526 0.047952 -0.371727
v -0.469526 0.053786 -0.371727
v -0.469526 0.046744 -0.3708
v -0.469526 0.054995 -0.3708
v -0.469526 0.045816 -0.369592
v -0.469526 0.055922 -0.369592
v -0.469526 0.045234 -0.368185
v -0.469526 0.056505 -0.368185
v -0.469526 0.045035 -0.366674
v -0.469526 0.056704 -0.366674
v -0.469526 0.045234 -0.365164
v -0.469526 0.056505 -0.365164
v -0.469526 0.045816 -0.363757
v -0.469526 0.055922 -0.363757
v -0.469526 0.046744 -0.362549
v -0.469526 0.054995 -0.362549
v -0.469526 0.047952 -0.361622
v -0.469526 0.053786 -0.361622
v -0.469526 0.049359 -0.361039
v -0.469526 0.052379 -0.361039
v -0.469526 0.050869 -0.36084
v -0.469526 0.050869 -0.36084
v -0.469526 0.049359 -0.361039
v -0.469526 0.052379 -0.361039
v -0.469526 0.053786 -0.361622
v -0.469526 0.047952 -0.361622
v -0.469526 0.054995 -0.362549
v -0.469526 0.046744 -0.362549
v -0.469526 0.055922 -0.363757
v -0.469526 0.045816 -0.363757
v -0.469526 0.056505 -0.365164
v -0.469526 0.045234 -0.365164
v -0.469526 0.056704 -0.366674
v -0.469526 0.045035 -0.366674
v -0.469526 0.056505 -0.368185
v -0.469526 0.045234 -0.368185
v -0.469526 0.055922 -0.369592
v -0.469526 0.045816 -0.369592
v -0.469526 0.054995 -0.3708
v -0.469526 0.046744 -0.3708
v -0.469526 0.053786 -0.371727
v -0.469526 0.047952 -0.371727
v -0.469526 0.052379 -0.37231
v -0.469526 0.049359 -0.37231
v -0.469526 0.050869 -0.372509
v -0.469526 0.054995 -0.3708
v -0.468299 0.055922 -0.369592
v -0.468212 0.054995 -0.3708
v -0.469526 0.055922 -0.369592
v -0.469526 0.055922 -0.369592
v -0.469526 0.054995 -0.3708
v -0.468299 0.055922 -0.369592
v -0.468212 0.054995 -0.3708
v -0.468146 0.053786 -0.371727
v -0.469526 0.053786 -0.371727
v -0.468146 0.053786 -0.371727
v -0.469526 0.053786 -0.371727
v -0.468104 0.052379 -0.37231
v -0.469526 0.052379 -0.37231
v -0.468104 0.052379 -0.37231
v -0.469526 0.052379 -0.37231
v -0.468089 0.050869 -0.372509
v -0.469526 0.050869 -0.372509
v -0.468089 0.050869 -0.372509
v -0.469526 0.050869 -0.372509
v -0.469526 0.049359 -0.37231
v -0.468104 0.049359 -0.37231
v -0.469526 0.049359 -0.37231
v -0.468104 0.049359 -0.37231
v -0.468146 0.047952 -0.371727
v -0.469526 0.047952 -0.371727
v -0.468146 0.047952 -0.371727
v -0.469526 0.047952 -0.371727
v -0.469526 0.046744 -0.3708
v -0.468212 0.046744 -0.3708
v -0.469526 0.046744 -0.3708
v -0.468212 0.046744 -0.3708
v -0.468299 0.045816 -0.369592
v -0.469526 0.045816 -0.369592
v -0.469526 0.045816 -0.369592
v -0.468299 0.045816 -0.369592
v -0.4684 0.045234 -0.368185
v -0.469526 0.045234 -0.368185
v -0.469526 0.045234 -0.368185
v -0.4684 0.045234 -0.368185
v -0.468508 0.045035 -0.366674
v -0.469526 0.045035 -0.366674
v -0.469526 0.045035 -0.366674
v -0.468508 0.045035 -0.366674
v -0.468616 0.045234 -0.365164
v -0.469526 0.045234 -0.365164
v -0.469526 0.045234 -0.365164
v -0.468616 0.045234 -0.365164
v -0.468717 0.045816 -0.363757
v -0.469526 0.045816 -0.363757
v -0.469526 0.045816 -0.363757
v -0.468717 0.045816 -0.363757
v -0.468804 0.046744 -0.362549
v -0.469526 0.046744 -0.362549
v -0.469526 0.046744 -0.362549
v -0.468804 0.046744 -0.362549
v -0.46887 0.047952 -0.361622
v -0.469526 0.047952 -0.361622
v -0.469526 0.047952 -0.361622
v -0.46887 0.047952 -0.361622
v -0.468912 0.049359 -0.361039
v -0.469526 0.049359 -0.361039
v -0.469526 0.049359 -0.361039
v -0.468912 0.049359 -0.361039
v -0.468926 0.050869 -0.36084
v -0.469526 0.050869 -0.36084
v -0.469526 0.050869 -0.36084
v -0.468926 0.050869 -0.36084
v -0.468912 0.052379 -0.361039
v -0.469526 0.052379 -0.361039
v -0.469526 0.052379 -0.361039
v -0.468912 0.052379 -0.361039
v -0.46887 0.053786 -0.361622
v -0.469526 0.053786 -0.361622
v -0.469526 0.053786 -0.361622
v -0.46887 0.053786 -0.361622
v -0.468804 0.054995 -0.362549
v -0.469526 0.054995 -0.362549
v -0.469526 0.054995 -0.362549
v -0.468804 0.054995 -0.362549
v -0.469526 0.055922 -0.363757
v -0.468717 0.055922 -0.363757
v -0.469526 0.055922 -0.363757
v -0.468717 0.055922 -0.363757
v -0.469526 0.056505 -0.365164
v -0.468616 0.056505 -0.365164
v -0.469526 0.056505 -0.365164
v -0.468616 0.056505 -0.365164
v -0.469526 0.056704 -0.366674
v -0.468508 0.056704 -0.366674
v -0.469526 0.056704 -0.366674
v -0.468508 0.056704 -0.366674
v -0.469526 0.056505 -0.368185
v -0.4684 0.056505 -0.368185
v -0.469526 0.056505 -0.368185
v -0.4684 0.056505 -0.368185
vn -1.0 0.0 0.0
vn 1.0 0.0 0.0
vn 0.0 0.7071067811865474 -0.7071067811865476
vn 0.0 0.8634296221043813 -0.5044693129147553
vn 0.0 0.7041115643554371 -0.7100893640528204
vn 0.0 0.8660254028383287 -0.5000000016387102
vn 0.0 -0.8660254028383287 0.5000000016387102
vn 0.0 -0.7071067811865474 0.7071067811865476
vn 0.0 -0.8634296221043813 0.5044693129147553
vn 0.0 -0.7041115643554371 0.7100893640528204
vn 0.0 0.49740579746381725 -0.8675179955766821
vn 0.0 0.5000000016387098 -0.8660254028383292
vn 0.0 -0.49740579746381725 0.8675179955766821
vn 0.0 -0.5000000016387098 0.8660254028383292
vn 0.0 0.2573209020775046 -0.966326007801725
vn 0.0 0.2588190095935614 -0.9659258358036645
vn 0.0 -0.2573209020775046 0.966326007801725
vn 0.0 -0.2588190095935614 0.9659258358036645
vn 0.0 0.0 -1.0
vn 0.0 0.0 1.0
vn 0.0 -0.2588190095935618 -0.9659258358036644
vn 0.0 -0.25732090207750496 -0.9663260078017247
vn 0.0 0.2588190095935618 0.9659258358036644
vn 0.0 0.25732090207750496 0.9663260078017247
vn 0.0 -0.4974057974638176 -0.8675179955766817
vn 0.0 -0.5000000016387102 -0.8660254028383287
vn 0.0 0.4974057974638176 0.8675179955766817
vn 0.0 0.5000000016387102 0.8660254028383287
vn 0.0 -0.7071067811865476 -0.7071067811865474
vn 0.0 -0.7041115643554373 -0.7100893640528202
vn 0.0 0.7071067811865476 0.7071067811865474
vn 0.0 0.7041115643554373 0.7100893640528202
vn 0.0 -0.8634296221043816 -0.5044693129147548
vn 0.0 -0.8660254028383292 -0.5000000016387098
vn 0.0 0.8660254028383292 0.5000000016387098
vn 0.0 0.8634296221043816 0.5044693129147548
vn 0.0 -0.9644204242604543 -0.264373306650436
vn 0.0 -0.9659258358036645 -0.2588190095935614
vn 0.0 0.9659258358036645 0.2588190095935614
vn 0.0 0.9644204242604543 0.264373306650436
vn 0.0 -0.9999823111454317 -0.005947890066292754
vn 0.0 -1.0 0.0
vn 0.0 1.0 0.0
vn 0.0 0.9999823111454317 0.005947890066292754
vn 0.0 -0.9673947937577495 0.2532731983657194
vn 0.0 -0.9659258358036644 0.2588190095935618
vn 0.0 0.9659258358036644 -0.2588190095935618
vn 0.0 0.9673947937577495 -0.2532731983657194
vn 0.0 -0.868582895222959 0.4955438972746029
vn 0.0 0.868582895222959 -0.4955438972746029
vn 0.0 -0.7100644693084793 0.7041366695647001
vn 0.0 0.7100644693084793 -0.7041366695647001
vn 0.0 -0.5025631884072517 0.8645404800574332
vn 0.0 0.5025631884072517 -0.8645404800574332
vn 0.0 -0.26029941258303385 0.965527946674216
vn 0.0 0.26029941258303385 -0.965527946674216
vn 0.0 0.26029941258303424 0.9655279466742158
vn 0.0 -0.26029941258303424 -0.9655279466742158
vn 0.0 0.5025631884072521 0.864540480057433
vn 0.0 -0.5025631884072521 -0.864540480057433
vn 0.0 0.7100644693084796 0.7041366695646999
vn 0.0 -0.7100644693084796 -0.7041366695646999
vn 0.0 0.8685828952229592 0.49554389727460246
vn 0.0 -0.8685828952229592 -0.49554389727460246
vn 0.0 0.9673947937577497 0.25327319836571904
vn 0.0 -0.9673947937577497 -0.25327319836571904
vn 0.0 0.9999823111454317 -0.0059478900662931974
vn 0.0 -0.9999823111454317 0.0059478900662931974
vn 0.0 0.9644204242604543 -0.2643733066504364
vn 0.0 -0.9644204242604543 0.2643733066504364
usemtl material_0_0
f 1//1 2//1 3//1
f 2//1 1//1 4//1
f 2//1 4//1 5//1
f 5//1 4//1 6//1
f 5//1 6//1 7//1
f 7//1 6//1 8//1
f 7//1 8//1 9//1
f 9//1 8//1 10//1
f 9//1 10//1 11//1
f 11//1 10//1 12//1
f 11//1 12//1 13//1
f 13//1 12//1 14//1
f 13//1 14//1 15//1
f 15//1 14//1 16//1
f 15//1 16//1 17//1
f 17//1 16//1 18//1
f 17//1 18//1 19//1
f 19//1 18//1 20//1
f 19//1 20//1 21//1
f 21//1 20//1 22//1
f 21//1 22//1 23//1
f 23//1 22//1 24//1
f 25//2 26//2 27//2
f 27//2 26//2 28//2
f 26//2 29//2 28//2
f 28//2 29//2 30//2
f 29//2 31//2 30//2
f 30//2 31//2 32//2
f 31//2 33//2 32//2
f 32//2 33//2 34//2
f 33//2 35//2 34//2
f 34//2 35//2 36//2
f 35//2 37//2 36//2
f 36//2 37//2 38//2
f 37//2 39//2 38//2
f 38//2 39//2 40//2
f 39//2 41//2 40//2
f 40//2 41//2 42//2
f 41//2 43//2 42//2
f 42//2 43//2 44//2
f 43//2 45//2 44//2
f 44//2 45//2 46//2
f 45//2 47//2 46//2
f 48//2 46//2 47//2
f 49//3 50//4 51//5
f 50//4 49//3 52//6
f 53//7 54//8 55//9
f 56//10 55//9 54//8
f 49//3 57//11 58//12
f 57//11 49//3 51//5
f 56//10 54//8 59//13
f 60//14 59//13 54//8
f 58//12 61//15 62//16
f 61//15 58//12 57//11
f 59//13 60//14 63//17
f 64//18 63//17 60//14
f 62//16 65//19 66//19
f 65//19 62//16 61//15
f 63//17 64//18 67//20
f 68//20 67//20 64//18
f 69//21 65//19 70//22
f 65//19 69//21 66//19
f 68//20 71//23 67//20
f 72//24 67//20 71//23
f 69//21 73//25 74//26
f 73//25 69//21 70//22
f 72//24 71//23 75//27
f 76//28 75//27 71//23
f 77//29 73//25 78//30
f 73//25 77//29 74//26
f 76//28 79//31 75//27
f 80//32 75//27 79//31
f 81//33 77//29 78//30
f 77//29 81//33 82//34
f 83//35 84//36 79//31
f 80//32 79//31 84//36
f 85//37 82//34 81//33
f 82//34 85//37 86//38
f 87//39 88//40 83//35
f 84//36 83//35 88//40
f 89//41 86//38 85//37
f 86//38 89//41 90//42
f 91//43 92//44 87//39
f 88//40 87//39 92//44
f 93//45 90//42 89//41
f 90//42 93//45 94//46
f 95//47 96//48 91//43
f 92//44 91//43 96//48
f 97//49 94//46 93//45
f 94//46 97//49 98//7
f 99//6 100//50 95//47
f 96//48 95//47 100//50
f 101//51 98//7 97//49
f 98//7 101//51 102//8
f 103//3 104//52 99//6
f 100//50 99//6 104//52
f 105//53 102//8 101//51
f 102//8 105//53 106//14
f 107//12 108//54 103//3
f 104//52 103//3 108//54
f 109//55 106//14 105//53
f 106//14 109//55 110//18
f 111//16 112//56 107//12
f 108//54 107//12 112//56
f 113//20 110//18 109//55
f 110//18 113//20 114//20
f 115//19 116//19 111//16
f 112//56 111//16 116//19
f 117//57 114//20 113//20
f 114//20 117//57 118//23
f 119//21 120//58 115//19
f 116//19 115//19 120//58
f 121//59 118//23 117//57
f 118//23 121//59 122//28
f 123//26 124//60 119//21
f 120//58 119//21 124//60
f 125//61 122//28 121//59
f 122//28 125//61 126//31
f 127//29 128//62 123//26
f 124//60 123//26 128//62
f 129//35 125//61 130//63
f 125//61 129//35 126//31
f 127//29 131//34 128//62
f 132//64 128//62 131//34
f 133//39 130//63 134//65
f 130//63 133//39 129//35
f 131//34 135//38 132//64
f 136//66 132//64 135//38
f 137//43 134//65 138//67
f 134//65 137//43 133//39
f 135//38 139//42 136//66
f 140//68 136//66 139//42
f 141//47 138//67 142//69
f 138//67 141//47 137//43
f 139//42 143//46 140//68
f 144//70 140//68 143//46
f 52//6 142//69 50//4
f 142//69 52//6 141//47
f 143//46 53//7 144//70
f 55//9 144//70 53//7
