# SSTK version 0.8.0
# 27
mtllib original-27.mtl
o #ID488
v -0.119156 -0.010859 0.047544
v -0.11114 0.050028 0.040087
v -0.119156 -0.010859 0.040087
v -0.11114 0.050028 0.047544
v -0.11114 0.050028 0.047544
v -0.119156 -0.010859 0.047544
v -0.11114 0.050028 0.040087
v -0.119156 -0.010859 0.040087
v -0.11114 -0.071745 0.047544
v -0.11114 -0.071745 0.040087
v -0.11114 -0.071745 0.047544
v -0.11114 -0.071745 0.040087
v -0.087638 0.106766 0.040087
v -0.087638 0.106766 0.047544
v -0.087638 0.106766 0.047544
v -0.087638 0.106766 0.040087
v -0.087638 -0.128483 0.047544
v -0.087638 -0.128483 0.040087
v -0.087638 -0.128483 0.047544
v -0.087638 -0.128483 0.040087
v -0.050253 0.155487 0.040087
v -0.050253 0.155487 0.047544
v -0.050253 0.155487 0.047544
v -0.050253 0.155487 0.040087
v -0.050253 -0.177204 0.047544
v -0.050253 -0.177204 0.040087
v -0.050253 -0.177204 0.047544
v -0.050253 -0.177204 0.040087
v -0.001531 0.192873 0.047544
v -0.001531 0.192873 0.040087
v -0.001531 0.192873 0.047544
v -0.001531 0.192873 0.040087
v -0.001531 -0.21459 0.040087
v -0.001531 -0.21459 0.047544
v -0.001531 -0.21459 0.040087
v -0.001531 -0.21459 0.047544
v 0.055206 0.216374 0.047544
v 0.055206 0.216374 0.040087
v 0.055206 0.216374 0.047544
v 0.055206 0.216374 0.040087
v 0.055206 -0.238091 0.040087
v 0.055206 -0.238091 0.047544
v 0.055206 -0.238091 0.040087
v 0.055206 -0.238091 0.047544
v 0.116093 0.22439 0.047544
v 0.116093 0.22439 0.040087
v 0.116093 0.22439 0.047544
v 0.116093 0.22439 0.040087
v 0.116093 -0.246107 0.040087
v 0.116093 -0.246107 0.047544
v 0.116093 -0.246107 0.040087
v 0.116093 -0.246107 0.047544
v 0.17698 0.216374 0.047544
v 0.17698 0.216374 0.040087
v 0.17698 0.216374 0.047544
v 0.17698 0.216374 0.040087
v 0.17698 -0.238091 0.040087
v 0.17698 -0.238091 0.047544
v 0.17698 -0.238091 0.040087
v 0.17698 -0.238091 0.047544
v 0.233717 0.192873 0.047544
v 0.233717 0.192873 0.040087
v 0.233717 0.192873 0.047544
v 0.233717 0.192873 0.040087
v 0.233717 -0.21459 0.040087
v 0.233717 -0.21459 0.047544
v 0.233717 -0.21459 0.040087
v 0.233717 -0.21459 0.047544
v 0.282439 0.155487 0.047544
v 0.282439 0.155487 0.040087
v 0.282439 0.155487 0.047544
v 0.282439 0.155487 0.040087
v 0.282439 -0.177204 0.040087
v 0.282439 -0.177204 0.047544
v 0.282439 -0.177204 0.040087
v 0.282439 -0.177204 0.047544
v 0.319824 0.106766 0.047544
v 0.319824 0.106766 0.040087
v 0.319824 0.106766 0.047544
v 0.319824 0.106766 0.040087
v 0.319824 -0.128483 0.040087
v 0.319824 -0.128483 0.047544
v 0.319824 -0.128483 0.047544
v 0.319824 -0.128483 0.040087
v 0.343325 0.050028 0.047544
v 0.343325 0.050028 0.040087
v 0.343325 0.050028 0.047544
v 0.343325 0.050028 0.040087
v 0.343325 -0.071745 0.040087
v 0.343325 -0.071745 0.047544
v 0.343325 -0.071745 0.047544
v 0.343325 -0.071745 0.040087
v 0.351341 -0.010859 0.047544
v 0.351341 -0.010859 0.040087
v 0.351341 -0.010859 0.047544
v 0.351341 -0.010859 0.040087
vn -1.0 0.0 0.0
vn -0.9659258358036645 0.25881900959356163 1.7843266753363715e-09
vn -0.9659258358036645 -0.25881900959356163 -1.7843333420032852e-09
vn -0.8660254028383291 0.5000000016387101 3.447053233608472e-09
vn -0.8660254028383291 -0.5000000016387101 -3.4470832336085702e-09
vn -0.7071067811865475 0.7071067811865475 4.8748697132887985e-09
vn -0.7071067811865475 -0.7071067811865475 -4.87492193550963e-09
vn -0.5000000016387101 0.8660254028383291 5.970472049493699e-09
vn -0.5000000016387101 -0.8660254028383291 -5.97053538282724e-09
vn -0.25881900959356163 0.9659258358036645 6.659196699022373e-09
vn -0.25881900959356163 -0.9659258358036645 -6.6592678101361195e-09
vn 0.0 1.0 6.894106444622061e-09
vn 0.0 -1.0 -6.8941808890665055e-09
vn 0.25881900959356163 0.9659258358036645 6.659196699022373e-09
vn 0.25881900959356163 -0.9659258358036645 -6.6592666990249676e-09
vn 0.5000000016387101 0.8660254028383291 5.970472049493699e-09
vn 0.5000000016387101 -0.8660254028383291 -5.97053538282724e-09
vn 0.7071067811865475 0.7071067811865475 4.8748697132887985e-09
vn 0.7071067811865475 -0.7071067811865475 -4.87492193550963e-09
vn 0.8660254028383291 0.5000000016387101 3.447053233608472e-09
vn 0.8660254028383291 -0.5000000016387101 -3.4470832336085702e-09
vn 0.9659258358036645 0.25881900959356163 1.7843266753363715e-09
vn 0.9659258358036645 -0.25881900959356163 -1.7843333420032852e-09
vn 1.0 0.0 0.0
vn 0.9659258358036645 -0.25881900959356163 -1.7843266753363715e-09
vn 0.9659258358036645 0.25881900959356163 1.7843333420032852e-09
vn 0.8660254028383291 -0.5000000016387101 -3.447053233608472e-09
vn 0.8660254028383291 0.5000000016387101 3.4470832336085702e-09
vn 0.7071067811865475 -0.7071067811865475 -4.8748697132887985e-09
vn 0.7071067811865475 0.7071067811865475 4.87492193550963e-09
vn 0.5000000016387101 -0.8660254028383291 -5.970472049493699e-09
vn 0.5000000016387101 0.8660254028383291 5.97053538282724e-09
vn 0.25881900959356163 -0.9659258358036645 -6.659196699022373e-09
vn 0.25881900959356163 0.9659258358036645 6.6592678101361195e-09
vn 0.0 -1.0 -6.894106444622061e-09
vn 0.0 1.0 6.8941808890665055e-09
vn -0.25881900959356163 -0.9659258358036645 -6.659196699022373e-09
vn -0.25881900959356163 0.9659258358036645 6.6592666990249676e-09
vn -0.5000000016387101 -0.8660254028383291 -5.970472049493699e-09
vn -0.5000000016387101 0.8660254028383291 5.97053538282724e-09
vn -0.7071067811865475 -0.7071067811865475 -4.8748697132887985e-09
vn -0.7071067811865475 0.7071067811865475 4.87492193550963e-09
vn -0.8660254028383291 -0.5000000016387101 -3.447053233608472e-09
vn -0.8660254028383291 0.5000000016387101 3.4470832336085702e-09
vn -0.9659258358036645 -0.25881900959356163 -1.7843266753363715e-09
vn -0.9659258358036645 0.25881900959356163 1.7843333420032852e-09
usemtl material_0_0
f 5//25 6//24 7//25
f 8//24 7//25 6//24
f 6//24 11//26 8//24
f 12//26 8//24 11//26
f 15//27 5//25 16//27
f 7//25 16//27 5//25
f 11//26 19//28 12//26
f 20//28 12//26 19//28
f 23//29 15//27 24//29
f 16//27 24//29 15//27
f 19//28 27//30 20//28
f 28//30 20//28 27//30
f 23//29 24//29 31//31
f 32//31 31//31 24//29
f 28//30 27//30 35//32
f 36//32 35//32 27//30
f 31//31 32//31 39//33
f 40//33 39//33 32//31
f 35//32 36//32 43//34
f 44//34 43//34 36//32
f 39//33 40//33 47//35
f 48//35 47//35 40//33
f 43//34 44//34 51//36
f 52//36 51//36 44//34
f 47//35 48//35 55//37
f 56//37 55//37 48//35
f 51//36 52//36 59//38
f 60//38 59//38 52//36
f 55//37 56//37 63//39
f 64//39 63//39 56//37
f 59//38 60//38 67//40
f 68//40 67//40 60//38
f 63//39 64//39 71//41
f 72//41 71//41 64//39
f 67//40 68//40 75//42
f 76//42 75//42 68//40
f 71//41 72//41 79//43
f 80//43 79//43 72//41
f 83//44 84//44 76//42
f 75//42 76//42 84//44
f 79//43 80//43 87//45
f 88//45 87//45 80//43
f 91//46 92//46 83//44
f 84//44 83//44 92//46
f 87//45 88//45 95//1
f 96//1 95//1 88//45
f 95//1 96//1 91//46
f 92//46 91//46 96//1
usemtl material_1_0
f 1//1 2//2 3//1
f 2//2 1//1 4//2
f 9//3 3//1 10//3
f 3//1 9//3 1//1
f 4//2 13//4 2//2
f 13//4 4//2 14//4
f 17//5 10//3 18//5
f 10//3 17//5 9//3
f 14//4 21//6 13//4
f 21//6 14//4 22//6
f 25//7 18//5 26//7
f 18//5 25//7 17//5
f 21//6 29//8 30//8
f 29//8 21//6 22//6
f 25//7 33//9 34//9
f 33//9 25//7 26//7
f 30//8 37//10 38//10
f 37//10 30//8 29//8
f 34//9 41//11 42//11
f 41//11 34//9 33//9
f 38//10 45//12 46//12
f 45//12 38//10 37//10
f 42//11 49//13 50//13
f 49//13 42//11 41//11
f 46//12 53//14 54//14
f 53//14 46//12 45//12
f 50//13 57//15 58//15
f 57//15 50//13 49//13
f 54//14 61//16 62//16
f 61//16 54//14 53//14
f 58//15 65//17 66//17
f 65//17 58//15 57//15
f 62//16 69//18 70//18
f 69//18 62//16 61//16
f 66//17 73//19 74//19
f 73//19 66//17 65//17
f 70//18 77//20 78//20
f 77//20 70//18 69//18
f 81//21 74//19 73//19
f 74//19 81//21 82//21
f 78//20 85//22 86//22
f 85//22 78//20 77//20
f 89//23 82//21 81//21
f 82//21 89//23 90//23
f 86//22 93//24 94//24
f 93//24 86//22 85//22
f 94//24 90//23 89//23
f 90//23 94//24 93//24
