# SSTK version 0.8.0
# 258
mtllib original-258.mtl
o #ID2013
v -0.263946 -0.304131 -0.11696
v -0.253822 -0.304131 -0.131284
v -0.247466 -0.304131 -0.132652
v -0.263946 -0.304131 -0.126935
v -0.232089 -0.304131 -0.16174
v -0.232089 -0.304131 -0.143186
v -0.253822 -0.304131 -0.16174
v -0.253822 -0.304131 -0.131284
v -0.247466 -0.304131 -0.132652
v -0.253822 -0.304131 -0.16174
v -0.232089 -0.304131 -0.16174
v -0.232089 -0.304131 -0.143186
v -0.263946 -0.304131 -0.126935
v -0.263946 -0.304131 -0.11696
v -0.263946 -0.304131 -0.11696
v -0.263946 -0.29923 -0.126935
v -0.263946 -0.304131 -0.126935
v -0.263946 -0.29923 -0.11696
v -0.263946 -0.29923 -0.11696
v -0.263946 -0.304131 -0.11696
v -0.263946 -0.29923 -0.126935
v -0.263946 -0.304131 -0.126935
v -0.253822 -0.304131 -0.131284
v -0.263946 -0.308915 -0.126935
v -0.253822 -0.308915 -0.131284
v -0.263946 -0.304131 -0.126935
v -0.263946 -0.304131 -0.126935
v -0.253822 -0.304131 -0.131284
v -0.263946 -0.308915 -0.126935
v -0.253822 -0.308915 -0.131284
v -0.253822 -0.304131 -0.131284
v -0.253822 -0.308915 -0.16174
v -0.253822 -0.304131 -0.16174
v -0.253822 -0.308915 -0.131284
v -0.253822 -0.308915 -0.131284
v -0.253822 -0.304131 -0.131284
v -0.253822 -0.308915 -0.16174
v -0.253822 -0.304131 -0.16174
v -0.253822 -0.29923 -0.16174
v -0.232089 -0.304131 -0.16174
v -0.253822 -0.304131 -0.16174
v -0.232089 -0.29923 -0.16174
v -0.232089 -0.29923 -0.16174
v -0.253822 -0.29923 -0.16174
v -0.232089 -0.304131 -0.16174
v -0.253822 -0.304131 -0.16174
v -0.232089 -0.29923 -0.143186
v -0.232089 -0.304131 -0.16174
v -0.232089 -0.29923 -0.16174
v -0.232089 -0.304131 -0.143186
v -0.232089 -0.304131 -0.143186
v -0.232089 -0.29923 -0.143186
v -0.232089 -0.304131 -0.16174
v -0.232089 -0.29923 -0.16174
v -0.263946 -0.304131 -0.126935
v -0.276508 -0.308915 -0.121539
v -0.263946 -0.308915 -0.126935
v -0.276508 -0.29923 -0.121539
v -0.263946 -0.29923 -0.126935
v -0.263946 -0.29923 -0.126935
v -0.263946 -0.304131 -0.126935
v -0.276508 -0.29923 -0.121539
v -0.276508 -0.308915 -0.121539
v -0.263946 -0.308915 -0.126935
v -0.263946 -0.308915 -0.126935
v -0.253822 -0.308915 -0.16174
v -0.253822 -0.308915 -0.131284
v -0.279775 -0.308915 -0.17195
v -0.276508 -0.308915 -0.121539
v -0.308793 -0.308915 -0.121539
v -0.308793 -0.308915 -0.17195
v -0.308793 -0.308915 -0.17195
v -0.308793 -0.308915 -0.121539
v -0.279775 -0.308915 -0.17195
v -0.276508 -0.308915 -0.121539
v -0.263946 -0.308915 -0.126935
v -0.253822 -0.308915 -0.16174
v -0.253822 -0.308915 -0.131284
v -0.279775 -0.308915 -0.17195
v -0.253822 -0.308915 -0.16174
v -0.279775 -0.29923 -0.17195
v -0.279775 -0.29923 -0.17195
v -0.279775 -0.308915 -0.17195
v -0.253822 -0.308915 -0.16174
v -0.308793 -0.308915 -0.121539
v -0.294557 -0.29923 -0.121539
v -0.308793 -0.290245 -0.121539
v -0.294557 -0.290245 -0.121539
v -0.294557 -0.290245 -0.121539
v -0.294557 -0.29923 -0.121539
v -0.308793 -0.290245 -0.121539
v -0.308793 -0.308915 -0.121539
v -0.308793 -0.308915 -0.121539
v -0.308793 -0.290245 -0.17195
v -0.308793 -0.308915 -0.17195
v -0.308793 -0.290245 -0.121539
v -0.308793 -0.290245 -0.121539
v -0.308793 -0.308915 -0.121539
v -0.308793 -0.290245 -0.17195
v -0.308793 -0.308915 -0.17195
v -0.308793 -0.308915 -0.17195
v -0.294557 -0.29923 -0.17195
v -0.308793 -0.290245 -0.17195
v -0.294557 -0.290245 -0.17195
v -0.294557 -0.290245 -0.17195
v -0.308793 -0.290245 -0.17195
v -0.294557 -0.29923 -0.17195
v -0.308793 -0.308915 -0.17195
v -0.308793 -0.290245 -0.17195
v -0.294557 -0.290245 -0.121539
v -0.294557 -0.290245 -0.17195
v -0.308793 -0.290245 -0.121539
v -0.308793 -0.290245 -0.121539
v -0.308793 -0.290245 -0.17195
v -0.294557 -0.290245 -0.121539
v -0.294557 -0.290245 -0.17195
vn 0.0 -1.0 0.0
vn -1.0 0.0 0.0
vn 0.39467680614546524 0.0 0.9188200143068364
vn 1.0 0.0 0.0
vn 0.1862984982163326 0.0 -0.9824931905933696
vn 0.0 0.0 -1.0
vn 0.24790329567880637 0.0 -0.9687847831131465
vn 0.20146959365862377 0.0 0.9794947691698149
vn 0.36607401491376595 0.0 -0.9305857379118356
vn 0.0 0.0 1.0
vn 0.0 1.0 0.0
vn -0.39467680614546524 0.0 -0.9188200143068364
vn -0.1862984982163326 0.0 0.9824931905933696
vn -0.24790329567880637 0.0 0.9687847831131465
vn -0.20146959365862377 0.0 -0.9794947691698149
vn -0.36607401491376595 0.0 0.9305857379118356
usemtl material_0_0
f 8//11 9//11 10//11
f 10//11 9//11 11//11
f 12//11 11//11 9//11
f 13//11 14//11 8//11
f 9//11 8//11 14//11
f 19//4 20//4 21//4
f 22//4 21//4 20//4
f 27//12 28//12 29//12
f 30//12 29//12 28//12
f 35//2 36//2 37//2
f 38//2 37//2 36//2
f 43//10 44//13 45//10
f 46//14 45//10 44//13
f 51//2 52//2 53//2
f 54//2 53//2 52//2
f 60//12 61//12 62//15
f 62//15 61//12 63//15
f 64//12 63//15 61//12
f 72//11 73//11 74//11
f 73//11 75//11 74//11
f 75//11 76//11 74//11
f 74//11 76//11 77//11
f 78//11 77//11 76//11
f 44//13 82//13 46//14
f 82//13 83//13 46//14
f 84//16 46//14 83//13
f 89//6 90//6 91//6
f 91//6 90//6 92//6
f 90//6 62//15 92//6
f 63//15 92//6 62//15
f 97//4 98//4 99//4
f 100//4 99//4 98//4
f 105//10 106//10 107//10
f 106//10 108//10 107//10
f 107//10 108//10 82//13
f 83//13 82//13 108//10
f 113//1 114//1 115//1
f 116//1 115//1 114//1
usemtl material_1_0
f 1//1 2//1 3//1
f 2//1 1//1 4//1
f 3//1 5//1 6//1
f 5//1 3//1 7//1
f 7//1 3//1 2//1
f 15//2 16//2 17//2
f 16//2 15//2 18//2
f 23//3 24//3 25//3
f 24//3 23//3 26//3
f 31//4 32//4 33//4
f 32//4 31//4 34//4
f 39//5 40//6 41//7
f 40//6 39//5 42//6
f 47//4 48//4 49//4
f 48//4 47//4 50//4
f 55//3 56//8 57//3
f 56//8 55//3 58//8
f 58//8 55//3 59//3
f 65//1 66//1 67//1
f 66//1 65//1 68//1
f 68//1 65//1 69//1
f 68//1 69//1 70//1
f 68//1 70//1 71//1
f 79//5 41//7 80//9
f 41//7 79//5 81//5
f 41//7 81//5 39//5
f 58//8 85//10 56//8
f 85//10 58//8 86//10
f 85//10 86//10 87//10
f 87//10 86//10 88//10
f 93//2 94//2 95//2
f 94//2 93//2 96//2
f 101//6 81//5 79//5
f 81//5 101//6 102//6
f 102//6 101//6 103//6
f 102//6 103//6 104//6
f 109//11 110//11 111//11
f 110//11 109//11 112//11
