# SSTK version 0.8.0
# 759
mtllib original-759.mtl
o #ID4834
v 0.196623 0.216707 0.115297
v 0.205145 0.213177 0.115491
v 0.207385 0.212249 0.115491
v 0.203125 0.214014 0.115571
v 0.196115 0.216918 0.116719
v 0.201908 0.214518 0.115809
v 0.20118 0.21482 0.116217
v 0.200628 0.215048 0.116805
v 0.195946 0.216988 0.118437
v 0.200281 0.215192 0.117538
v 0.200165 0.21524 0.118382
v 0.200327 0.215173 0.119392
v 0.196019 0.216957 0.119592
v 0.200815 0.214971 0.120208
v 0.19624 0.216866 0.120635
v 0.201551 0.214666 0.120793
v 0.196607 0.216714 0.121567
v 0.202461 0.214289 0.121107
v 0.205407 0.213069 0.121246
v 0.207385 0.212249 0.112047
v 0.21148 0.210553 0.104397
v 0.207385 0.212249 0.104397
v 0.21148 0.210553 0.124676
v 0.204716 0.213355 0.112047
v 0.202264 0.214371 0.112119
v 0.200469 0.215114 0.112337
v 0.199399 0.215558 0.112695
v 0.198346 0.215994 0.113299
v 0.197393 0.216388 0.114161
v 0.207385 0.212249 0.121246
v 0.197121 0.216501 0.122387
v 0.198439 0.215955 0.123647
v 0.20004 0.215292 0.124372
v 0.201825 0.214553 0.1246
v 0.204909 0.213275 0.124676
v 0.204909 0.213275 0.124676
v 0.201825 0.214553 0.1246
v 0.21148 0.210553 0.124676
v 0.20004 0.215292 0.124372
v 0.198439 0.215955 0.123647
v 0.197121 0.216501 0.122387
v 0.196607 0.216714 0.121567
v 0.205407 0.213069 0.121246
v 0.207385 0.212249 0.121246
v 0.207385 0.212249 0.115491
v 0.196623 0.216707 0.115297
v 0.197393 0.216388 0.114161
v 0.198346 0.215994 0.113299
v 0.199399 0.215558 0.112695
v 0.200469 0.215114 0.112337
v 0.202264 0.214371 0.112119
v 0.204716 0.213355 0.112047
v 0.207385 0.212249 0.112047
v 0.21148 0.210553 0.104397
v 0.207385 0.212249 0.104397
v 0.202461 0.214289 0.121107
v 0.201551 0.214666 0.120793
v 0.19624 0.216866 0.120635
v 0.200815 0.214971 0.120208
v 0.196019 0.216957 0.119592
v 0.200327 0.215173 0.119392
v 0.195946 0.216988 0.118437
v 0.200165 0.21524 0.118382
v 0.200281 0.215192 0.117538
v 0.200628 0.215048 0.116805
v 0.196115 0.216918 0.116719
v 0.20118 0.21482 0.116217
v 0.201908 0.214518 0.115809
v 0.203125 0.214014 0.115571
v 0.205145 0.213177 0.115491
vn 0.3826834162342326 0.9238795391929063 5.159368112130846e-09
vn -0.3826834162342326 -0.9238795391929063 -5.159368112130846e-09
usemtl material_0_0
f 36//2 37//2 38//2
f 37//2 39//2 38//2
f 39//2 40//2 38//2
f 40//2 41//2 38//2
f 41//2 42//2 38//2
f 42//2 43//2 38//2
f 43//2 44//2 38//2
f 44//2 45//2 38//2
f 46//2 47//2 45//2
f 47//2 48//2 45//2
f 48//2 49//2 45//2
f 49//2 50//2 45//2
f 50//2 51//2 45//2
f 51//2 52//2 45//2
f 52//2 53//2 45//2
f 45//2 53//2 38//2
f 38//2 53//2 54//2
f 55//2 54//2 53//2
f 43//2 42//2 56//2
f 56//2 42//2 57//2
f 42//2 58//2 57//2
f 57//2 58//2 59//2
f 58//2 60//2 59//2
f 59//2 60//2 61//2
f 60//2 62//2 61//2
f 61//2 62//2 63//2
f 63//2 62//2 64//2
f 64//2 62//2 65//2
f 62//2 66//2 65//2
f 65//2 66//2 67//2
f 67//2 66//2 68//2
f 68//2 66//2 69//2
f 66//2 46//2 69//2
f 69//2 46//2 70//2
f 45//2 70//2 46//2
usemtl material_1_0
f 1//1 2//1 3//1
f 2//1 1//1 4//1
f 4//1 1//1 5//1
f 4//1 5//1 6//1
f 6//1 5//1 7//1
f 7//1 5//1 8//1
f 8//1 5//1 9//1
f 8//1 9//1 10//1
f 10//1 9//1 11//1
f 11//1 9//1 12//1
f 12//1 9//1 13//1
f 12//1 13//1 14//1
f 14//1 13//1 15//1
f 14//1 15//1 16//1
f 16//1 15//1 17//1
f 16//1 17//1 18//1
f 18//1 17//1 19//1
f 20//1 21//1 22//1
f 21//1 20//1 23//1
f 23//1 20//1 3//1
f 3//1 20//1 24//1
f 3//1 24//1 25//1
f 3//1 25//1 26//1
f 3//1 26//1 27//1
f 3//1 27//1 28//1
f 3//1 28//1 29//1
f 3//1 29//1 1//1
f 23//1 3//1 30//1
f 23//1 30//1 19//1
f 23//1 19//1 17//1
f 23//1 17//1 31//1
f 23//1 31//1 32//1
f 23//1 32//1 33//1
f 23//1 33//1 34//1
f 23//1 34//1 35//1
