# SSTK version 0.8.0
# 447
mtllib original-447.mtl
o #ID3002
v 0.333158 0.226915 -0.449736
v 0.335027 0.226973 -0.449692
v 0.33502 0.226796 -0.449738
v 0.333158 0.227043 -0.449703
v 0.333158 0.227043 -0.449703
v 0.333158 0.226915 -0.449736
v 0.335027 0.226973 -0.449692
v 0.33502 0.226796 -0.449738
v 0.333158 0.224865 -0.450008
v 0.334952 0.224862 -0.449995
v 0.333158 0.224865 -0.450008
v 0.334952 0.224862 -0.449995
v 0.335155 0.230538 -0.449021
v 0.333158 0.230675 -0.449021
v 0.333158 0.230675 -0.449021
v 0.335155 0.230538 -0.449021
vn 0.011289099533898207 0.19293569203411448 -0.9811464594906466
vn 0.013962550408349367 0.21922050641133242 -0.9755754285317221
vn -0.013962550408349367 -0.21922050641133242 0.9755754285317221
vn -0.011289099533898207 -0.19293569203411448 0.9811464594906466
vn 0.00734772708936105 0.13147080159891178 -0.9912928120558324
vn -0.00734772708936105 -0.13147080159891178 0.9912928120558324
vn 0.017044230683230844 0.24722320991012864 -0.968808638835425
vn -0.017044230683230844 -0.24722320991012864 0.968808638835425
usemtl material_0_0
f 1//1 2//2 3//1
f 2//2 1//1 4//2
f 5//3 6//4 7//3
f 8//4 7//3 6//4
f 9//5 3//1 10//5
f 3//1 9//5 1//1
f 6//4 11//6 8//4
f 12//6 8//4 11//6
f 4//2 13//7 2//2
f 13//7 4//2 14//7
f 15//8 5//3 16//8
f 7//3 16//8 5//3
