# SSTK version 0.8.0
# 548
mtllib original-548.mtl
o #ID3608
v -0.334816 0.256227 -0.440903
v -0.333777 0.253439 -0.442177
v -0.336065 0.253435 -0.442179
v -0.333413 0.254413 -0.441732
v -0.330957 0.253442 -0.442176
v -0.333158 0.253439 -0.442177
v -0.332126 0.256227 -0.440903
v -0.334816 0.256227 -0.440903
v -0.333413 0.254413 -0.441732
v -0.332126 0.256227 -0.440903
v -0.330957 0.253442 -0.442176
v -0.333158 0.253439 -0.442177
v -0.333777 0.253439 -0.442177
v -0.336065 0.253435 -0.442179
vn -0.00017766430766758188 0.41580201794505617 -0.9094551392499869
vn -0.0001699998915360672 0.3949042803385561 -0.9187222542587744
vn -0.00011455470149449327 0.3948560051513348 -0.9187430119860228
vn -0.00018917640532138097 0.41580051169613563 -0.9094558255822651
vn -7.518609616915874e-05 0.39480937988388604 -0.9187630531876826
vn -0.00013910190528927083 0.39496621501836554 -0.9186956349328792
vn -0.00017759780766680975 0.4158020179499678 -0.9094551392607299
vn 0.00017766430766758188 -0.41580201794505617 0.9094551392499869
vn 0.00018917640532138097 -0.41580051169613563 0.9094558255822651
vn 0.00017759780766680975 -0.4158020179499678 0.9094551392607299
vn 7.518609616915874e-05 -0.39480937988388604 0.9187630531876826
vn 0.00013910190528927083 -0.39496621501836554 0.9186956349328792
vn 0.0001699998915360672 -0.3949042803385561 0.9187222542587744
vn 0.00011455470149449327 -0.3948560051513348 0.9187430119860228
usemtl material_0_0
f 1//1 2//2 3//3
f 2//2 1//1 4//4
f 4//4 5//5 6//6
f 5//5 4//4 7//7
f 7//7 4//4 1//1
usemtl material_1_0
f 8//8 9//9 10//10
f 10//10 9//9 11//11
f 12//12 11//11 9//9
f 9//9 8//8 13//13
f 14//14 13//13 8//8
