# SSTK version 0.8.0
# 566
mtllib original-566.mtl
o #ID2777
v -0.396754 0.264214 -0.457313
v -0.392679 0.26318 -0.455892
v -0.394312 0.262433 -0.456707
v -0.394552 0.265221 -0.456214
v -0.394552 0.265221 -0.456214
v -0.396754 0.264214 -0.457313
v -0.392679 0.26318 -0.455892
v -0.394312 0.262433 -0.456707
v -0.39241 0.263294 -0.45569
v -0.390111 0.263507 -0.454255
v -0.391214 0.265941 -0.453973
v -0.393308 0.265747 -0.45528
v -0.393308 0.265747 -0.45528
v -0.391214 0.265941 -0.453973
v -0.390111 0.263507 -0.454255
v -0.39241 0.263294 -0.45569
v -0.397418 0.263915 -0.457683
v -0.394804 0.262212 -0.456981
v -0.397418 0.263915 -0.457683
v -0.394804 0.262212 -0.456981
v -0.387822 0.26375 -0.452943
v -0.388022 0.266276 -0.452145
v -0.388041 0.266279 -0.452154
v -0.388041 0.266279 -0.452154
v -0.388022 0.266276 -0.452145
v -0.387822 0.26375 -0.452943
v -0.398167 0.263615 -0.45837
v -0.395359 0.26199 -0.45749
v -0.398167 0.263615 -0.45837
v -0.395359 0.26199 -0.45749
v -0.387747 0.263755 -0.452889
v -0.381227 0.264238 -0.448183
v -0.382837 0.265085 -0.448986
v -0.383128 0.262695 -0.450075
v -0.382758 0.2625 -0.44989
v -0.387747 0.263755 -0.452889
v -0.383128 0.262695 -0.450075
v -0.381227 0.264238 -0.448183
v -0.382758 0.2625 -0.44989
v -0.382837 0.265085 -0.448986
v -0.398751 0.263102 -0.45904
v -0.396017 0.261723 -0.458068
v -0.39817 0.263614 -0.458372
v -0.39817 0.263614 -0.458372
v -0.398751 0.263102 -0.45904
v -0.396017 0.261723 -0.458068
v -0.380083 0.263957 -0.448218
v -0.381711 0.262243 -0.449923
v -0.380083 0.263957 -0.448218
v -0.381711 0.262243 -0.449923
v -0.404035 0.256657 -0.465141
v -0.402218 0.2547 -0.464976
v -0.402631 0.252967 -0.466023
v -0.39995 0.258567 -0.461848
v -0.401848 0.260386 -0.462124
v -0.396659 0.261454 -0.45857
v -0.396659 0.261454 -0.45857
v -0.401848 0.260386 -0.462124
v -0.39995 0.258567 -0.461848
v -0.404035 0.256657 -0.465141
v -0.402218 0.2547 -0.464976
v -0.402631 0.252967 -0.466023
v -0.378832 0.26362 -0.448204
v -0.380567 0.261935 -0.449909
v -0.378832 0.26362 -0.448204
v -0.380567 0.261935 -0.449909
v -0.404281 0.25622 -0.465548
v -0.402735 0.252485 -0.466349
v -0.404281 0.25622 -0.465548
v -0.402735 0.252485 -0.466349
v -0.377456 0.263221 -0.448132
v -0.379308 0.26157 -0.449843
v -0.377456 0.263221 -0.448132
v -0.379308 0.26157 -0.449843
v -0.404859 0.253965 -0.467006
v -0.403272 0.250148 -0.467819
v -0.403203 0.248298 -0.468665
v -0.40438 0.256048 -0.465695
v -0.40438 0.256048 -0.465695
v -0.404859 0.253965 -0.467006
v -0.403272 0.250148 -0.467819
v -0.403203 0.248298 -0.468665
v -0.376125 0.262593 -0.448161
v -0.377916 0.261138 -0.449718
v -0.377011 0.263083 -0.448092
v -0.377011 0.263083 -0.448092
v -0.376125 0.262593 -0.448161
v -0.377916 0.261138 -0.449718
v -0.400884 0.234287 -0.474016
v -0.399747 0.236474 -0.472126
v -0.398109 0.230869 -0.473767
v -0.403708 0.239696 -0.473306
v -0.401665 0.240149 -0.471644
v -0.404074 0.241011 -0.472908
v -0.403071 0.245195 -0.470118
v -0.405439 0.248849 -0.469962
v -0.405528 0.250952 -0.468977
v -0.405528 0.250952 -0.468977
v -0.405439 0.248849 -0.469962
v -0.403071 0.245195 -0.470118
v -0.404074 0.241011 -0.472908
v -0.401665 0.240149 -0.471644
v -0.403708 0.239696 -0.473306
v -0.399747 0.236474 -0.472126
v -0.400884 0.234287 -0.474016
v -0.398109 0.230869 -0.473767
v -0.377751 0.261084 -0.449697
v -0.374768 0.261803 -0.448213
v -0.376632 0.260433 -0.44974
v -0.374768 0.261803 -0.448213
v -0.377751 0.261084 -0.449697
v -0.376632 0.260433 -0.44974
v -0.405298 0.245374 -0.471574
v -0.405298 0.245374 -0.471574
v -0.392279 0.22579 -0.472453
v -0.393046 0.229071 -0.471369
v -0.391542 0.225436 -0.472148
v -0.397001 0.229532 -0.473696
v -0.395676 0.231155 -0.472061
v -0.399154 0.235351 -0.472284
v -0.399154 0.235351 -0.472284
v -0.395676 0.231155 -0.472061
v -0.397001 0.229532 -0.473696
v -0.393046 0.229071 -0.471369
v -0.392279 0.22579 -0.472453
v -0.391542 0.225436 -0.472148
v -0.373292 0.260906 -0.448212
v -0.375269 0.259604 -0.449739
v -0.373292 0.260906 -0.448212
v -0.375269 0.259604 -0.449739
v -0.387008 0.223342 -0.470438
v -0.387284 0.225919 -0.46942
v -0.385375 0.223035 -0.469617
v -0.391465 0.227849 -0.470997
v -0.391465 0.227849 -0.470997
v -0.387284 0.225919 -0.46942
v -0.387008 0.223342 -0.470438
v -0.385375 0.223035 -0.469617
v -0.373042 0.258178 -0.449638
v -0.371559 0.25752 -0.449407
v -0.372109 0.257248 -0.449781
v -0.372192 0.260201 -0.448162
v -0.372192 0.260201 -0.448162
v -0.373042 0.258178 -0.449638
v -0.371559 0.25752 -0.449407
v -0.372109 0.257248 -0.449781
v -0.386769 0.225689 -0.469242
v -0.381878 0.224849 -0.46698
v -0.379721 0.222562 -0.466792
v -0.381524 0.222374 -0.467836
v -0.381814 0.224855 -0.466943
v -0.381878 0.224849 -0.46698
v -0.381814 0.224855 -0.466943
v -0.379721 0.222562 -0.466792
v -0.381524 0.222374 -0.467836
v -0.386769 0.225689 -0.469242
v -0.371331 0.256429 -0.449856
v -0.371331 0.256429 -0.449856
v -0.376819 0.222886 -0.465184
v -0.377131 0.225378 -0.464348
v -0.372888 0.227212 -0.461455
v -0.367575 0.230979 -0.457244
v -0.36944 0.230226 -0.458495
v -0.368703 0.23144 -0.457635
v -0.368703 0.23144 -0.457635
v -0.36944 0.230226 -0.458495
v -0.367575 0.230979 -0.457244
v -0.372888 0.227212 -0.461455
v -0.376819 0.222886 -0.465184
v -0.377131 0.225378 -0.464348
v -0.376225 0.222931 -0.464774
v -0.371585 0.224885 -0.461234
v -0.3677 0.22828 -0.457899
v -0.367398 0.228766 -0.457592
v -0.367398 0.228766 -0.457592
v -0.3677 0.22828 -0.457899
v -0.371585 0.224885 -0.461234
v -0.376225 0.222931 -0.464774
v -0.367765 0.2329 -0.456871
v -0.367765 0.2329 -0.456871
vn 0.38300899319857046 0.2199893960934535 -0.8971670840682104
vn 0.43841701489371676 0.2670239090712227 -0.8581892291540404
vn 0.3744705175087177 0.20592420962817795 -0.904083542271268
vn 0.41334839309851623 0.2408794959781481 -0.8781344853382014
vn 0.4818076184478118 0.3131015119882655 -0.8184307313366903
vn 0.4636667045474182 0.30637780300480477 -0.8313518081534955
vn 0.4681814107292059 0.30805790705969216 -0.8281947189795482
vn 0.4676282213256313 0.39113081783705766 -0.7926793361492026
vn 0.42687350770149185 0.3043263054905409 -0.8515659153636331
vn 0.4933304310185958 0.29730021869301926 -0.8174580513984124
vn 0.4956856895831331 0.2970641937571766 -0.8161179828492278
vn 0.44985278459746825 0.30120988968685947 -0.840776471212613
vn 0.4904137221522973 0.4400791198786514 -0.7522132339779466
vn 0.4935671034112248 0.44975940310845347 -0.7443843051447154
vn 0.5455903125392069 0.2914375066980572 -0.7857451180586429
vn 0.2960701008955795 0.5238961015847279 -0.7986710024158921
vn 0.4035723957210813 0.4352351953853729 -0.804797891467046
vn 0.47774990921782634 0.3926450075757909 -0.7858657151626899
vn 0.4842032122092713 0.41730721052247643 -0.769026619391145
vn 0.48826930813004055 0.4335938072196533 -0.7573569126105457
vn 0.15740119381911966 0.617138375766013 -0.7709507697260591
vn 0.14715929549372858 0.6236569809025475 -0.7677213764910477
vn 0.4935918972089204 0.37524059787815306 -0.7845772955635057
vn 0.47169529045018216 0.37061469249663304 -0.8000926838015358
vn 0.5319637767675438 0.38284308328009226 -0.7552785670147162
vn 0.1962299006477098 0.5903779019487015 -0.7829098025842053
vn 0.18574789386950694 0.5979414802653152 -0.7797202742658202
vn 0.5336970908831354 0.3825446934651916 -0.7542061871162956
vn 0.511956107407713 0.37730170545934044 -0.7717152111662794
vn 0.2318294076269732 0.5626070185092507 -0.7935543261072039
vn 0.22127559046161277 0.57120027537763 -0.7904222659277663
vn 0.5075501899682274 0.37537369258070696 -0.7755561846710664
vn 0.5022699852303896 0.37490098897576646 -0.7792137770866582
vn 0.5299323870624507 0.3772220907906564 -0.7595229814573214
vn 0.26168688168832765 0.536432062462894 -0.8023469438553655
vn 0.2537270984067701 0.5437141965858525 -0.7999983949765661
vn 0.2435020904575782 0.5529308783316039 -0.7968526687727352
vn 0.5325888096119151 0.37742450681158185 -0.7575618136721234
vn 0.5302207021936635 0.37724430156075944 -0.7593107031414698
vn 0.5072735160440749 0.3753492118715655 -0.7757490245354333
vn 0.5317015163512123 0.3774916116088542 -0.7581514233151394
vn 0.5314934819542579 0.3775072871825348 -0.7582894742538776
vn 0.274340811599865 0.5246590221839899 -0.8058970340754872
vn 0.2911172033272528 0.5075017058003662 -0.8109826092689274
vn 0.28543289918542303 0.5133693985349308 -0.8093082976903718
vn 0.5087124086170897 0.37906760642103365 -0.7729938130937578
vn 0.49612188032889437 0.373357185196483 -0.7838797689193677
vn 0.480717022956678 0.36942221764178595 -0.795259937977699
vn 0.32088429576070454 0.47423649373472404 -0.8198371891688934
vn 0.31376259906125203 0.48257489855618146 -0.817725197553444
vn 0.4718904124157767 0.3671256096593391 -0.8015848210902743
vn 0.4656345802516533 0.36334898458975745 -0.8069460657760584
vn 0.4509872079644611 0.3544802062601416 -0.8191180144656733
vn 0.33238431753449477 0.46054502429544303 -0.8230546434191585
vn 0.31878079385920766 0.4417048914912752 -0.8386152838454438
vn 0.3445798999294972 0.4425485999094522 -0.827898199830608
vn 0.3209220075216658 0.4600688107829432 -0.827856119403023
vn 0.44208638381573717 0.3490736872208225 -0.8262609697515574
vn 0.43232099819900693 0.33956069858543414 -0.8353424965200719
vn 0.43752318211520547 0.3446256859126101 -0.8305459660494702
vn 0.31044269389035434 0.41647409180361067 -0.8545025831830221
vn 0.4498563019714187 0.30842340135161295 -0.8381553036730731
vn 0.42770300903328223 0.33506950707682037 -0.8395228177311042
vn 0.3895858023595732 0.21740560131674294 -0.8949624054204474
vn 0.4158897066331642 0.2858970045598669 -0.8633068137691696
vn 0.5505990185000669 0.17237810579188534 -0.8167781274436557
vn 0.5045775965522693 0.17326259881611297 -0.8458022942207135
vn 0.3367450970481514 0.211885798142646 -0.917445991957829
vn -0.41334839309851623 -0.2408794959781481 0.8781344853382014
vn -0.38300899319857046 -0.2199893960934535 0.8971670840682104
vn -0.43841701489371676 -0.2670239090712227 0.8581892291540404
vn -0.3744705175087177 -0.20592420962817795 0.904083542271268
vn -0.4818076184478118 -0.3131015119882655 0.8184307313366903
vn -0.4681814107292059 -0.30805790705969216 0.8281947189795482
vn -0.4636667045474182 -0.30637780300480477 0.8313518081534955
vn -0.4676282213256313 -0.39113081783705766 0.7926793361492026
vn -0.42687350770149185 -0.3043263054905409 0.8515659153636331
vn -0.44985278459746825 -0.30120988968685947 0.840776471212613
vn -0.4956856895831331 -0.2970641937571766 0.8161179828492278
vn -0.4933304310185958 -0.29730021869301926 0.8174580513984124
vn -0.4904137221522973 -0.4400791198786514 0.7522132339779466
vn -0.4935671034112248 -0.44975940310845347 0.7443843051447154
vn -0.5455903125392069 -0.2914375066980572 0.7857451180586429
vn -0.2960701008955795 -0.5238961015847279 0.7986710024158921
vn -0.4035723957210813 -0.4352351953853729 0.804797891467046
vn -0.48826930813004055 -0.4335938072196533 0.7573569126105457
vn -0.47774990921782634 -0.3926450075757909 0.7858657151626899
vn -0.4842032122092713 -0.41730721052247643 0.769026619391145
vn -0.15740119381911966 -0.617138375766013 0.7709507697260591
vn -0.14715929549372858 -0.6236569809025475 0.7677213764910477
vn -0.47169529045018216 -0.37061469249663304 0.8000926838015358
vn -0.4935918972089204 -0.37524059787815306 0.7845772955635057
vn -0.5319637767675438 -0.38284308328009226 0.7552785670147162
vn -0.1962299006477098 -0.5903779019487015 0.7829098025842053
vn -0.18574789386950694 -0.5979414802653152 0.7797202742658202
vn -0.5336970908831354 -0.3825446934651916 0.7542061871162956
vn -0.511956107407713 -0.37730170545934044 0.7717152111662794
vn -0.2318294076269732 -0.5626070185092507 0.7935543261072039
vn -0.22127559046161277 -0.57120027537763 0.7904222659277663
vn -0.5022699852303896 -0.37490098897576646 0.7792137770866582
vn -0.5075501899682274 -0.37537369258070696 0.7755561846710664
vn -0.5299323870624507 -0.3772220907906564 0.7595229814573214
vn -0.2435020904575782 -0.5529308783316039 0.7968526687727352
vn -0.26168688168832765 -0.536432062462894 0.8023469438553655
vn -0.2537270984067701 -0.5437141965858525 0.7999983949765661
vn -0.5325888096119151 -0.37742450681158185 0.7575618136721234
vn -0.5314934819542579 -0.3775072871825348 0.7582894742538776
vn -0.5317015163512123 -0.3774916116088542 0.7581514233151394
vn -0.5302207021936635 -0.37724430156075944 0.7593107031414698
vn -0.5072735160440749 -0.3753492118715655 0.7757490245354333
vn -0.2911172033272528 -0.5075017058003662 0.8109826092689274
vn -0.274340811599865 -0.5246590221839899 0.8058970340754872
vn -0.28543289918542303 -0.5133693985349308 0.8093082976903718
vn -0.5087124086170897 -0.37906760642103365 0.7729938130937578
vn -0.49612188032889437 -0.373357185196483 0.7838797689193677
vn -0.480717022956678 -0.36942221764178595 0.795259937977699
vn -0.32088429576070454 -0.47423649373472404 0.8198371891688934
vn -0.31376259906125203 -0.48257489855618146 0.817725197553444
vn -0.4718904124157767 -0.3671256096593391 0.8015848210902743
vn -0.4656345802516533 -0.36334898458975745 0.8069460657760584
vn -0.4509872079644611 -0.3544802062601416 0.8191180144656733
vn -0.3209220075216658 -0.4600688107829432 0.827856119403023
vn -0.33238431753449477 -0.46054502429544303 0.8230546434191585
vn -0.31878079385920766 -0.4417048914912752 0.8386152838454438
vn -0.3445798999294972 -0.4425485999094522 0.827898199830608
vn -0.44208638381573717 -0.3490736872208225 0.8262609697515574
vn -0.43752318211520547 -0.3446256859126101 0.8305459660494702
vn -0.43232099819900693 -0.33956069858543414 0.8353424965200719
vn -0.31044269389035434 -0.41647409180361067 0.8545025831830221
vn -0.4158897066331642 -0.2858970045598669 0.8633068137691696
vn -0.42770300903328223 -0.33506950707682037 0.8395228177311042
vn -0.3895858023595732 -0.21740560131674294 0.8949624054204474
vn -0.4498563019714187 -0.30842340135161295 0.8381553036730731
vn -0.5045775965522693 -0.17326259881611297 0.8458022942207135
vn -0.5505990185000669 -0.17237810579188534 0.8167781274436557
vn -0.3367450970481514 -0.211885798142646 0.917445991957829
usemtl material_0_0
f 1//1 2//2 3//3
f 2//2 1//1 4//4
f 4//4 9//5 2//2
f 9//5 4//4 10//6
f 10//6 4//4 11//7
f 11//7 4//4 12//5
f 17//8 3//3 18//9
f 3//3 17//8 1//1
f 11//7 21//10 10//6
f 21//10 11//7 22//11
f 22//11 11//7 23//12
f 27//13 18//9 28//14
f 18//9 27//13 17//8
f 22//11 31//15 21//10
f 31//15 22//11 32//16
f 32//16 22//11 33//15
f 34//15 32//16 35//17
f 32//16 34//15 31//15
f 41//18 28//14 42//19
f 28//14 41//18 27//13
f 27//13 41//18 43//20
f 35//17 47//21 48//22
f 47//21 35//17 32//16
f 51//23 52//24 53//25
f 52//24 51//23 54//24
f 54//24 51//23 55//24
f 54//24 55//24 56//24
f 56//24 55//24 41//18
f 56//24 41//18 42//19
f 48//22 63//26 64//27
f 63//26 48//22 47//21
f 67//28 53//25 68//29
f 53//25 67//28 51//23
f 64//27 71//30 72//31
f 71//30 64//27 63//26
f 75//32 76//33 77//34
f 76//33 75//32 68//29
f 68//29 75//32 67//28
f 67//28 75//32 78//33
f 72//31 83//35 84//36
f 83//35 72//31 71//30
f 83//35 71//30 85//37
f 89//38 90//39 91//40
f 90//39 89//38 92//38
f 90//39 92//38 93//38
f 93//38 92//38 94//41
f 93//38 94//41 95//38
f 95//38 94//41 96//42
f 95//38 96//42 77//34
f 77//34 96//42 75//32
f 75//32 96//42 97//38
f 107//43 108//44 109//45
f 108//44 107//43 84//36
f 108//44 84//36 83//35
f 96//42 94//41 113//46
f 115//33 116//47 117//48
f 116//47 115//33 118//33
f 116//47 118//33 119//33
f 119//33 118//33 91//40
f 119//33 91//40 120//33
f 120//33 91//40 90//39
f 109//45 127//49 128//50
f 127//49 109//45 108//44
f 131//51 132//52 133//53
f 132//52 131//51 117//48
f 132//52 117//48 134//51
f 134//51 117//48 116//47
f 139//54 140//55 141//56
f 140//55 139//54 142//57
f 142//57 139//54 128//50
f 142//57 128//50 127//49
f 133//53 147//58 148//58
f 147//58 133//53 132//52
f 133//53 149//59 150//58
f 149//59 133//53 151//60
f 151//60 133//53 148//58
f 140//55 157//61 141//56
f 151//60 159//62 149//59
f 159//62 151//60 160//63
f 159//62 160//63 161//63
f 159//62 161//63 162//64
f 162//64 161//63 163//63
f 162//64 163//63 164//65
f 162//64 171//66 159//62
f 171//66 162//64 172//66
f 172//66 162//64 173//66
f 173//66 162//64 174//67
f 179//68 162//64 164//65
usemtl material_1_0
f 5//69 6//70 7//71
f 8//72 7//71 6//70
f 13//73 5//69 14//74
f 14//74 5//69 15//75
f 15//75 5//69 16//73
f 7//71 16//73 5//69
f 6//70 19//76 8//72
f 20//77 8//72 19//76
f 24//78 14//74 25//79
f 25//79 14//74 26//80
f 15//75 26//80 14//74
f 19//76 29//81 20//77
f 30//82 20//77 29//81
f 36//83 37//83 38//84
f 39//85 38//84 37//83
f 40//83 25//79 38//84
f 38//84 25//79 36//83
f 26//80 36//83 25//79
f 44//86 45//87 29//81
f 29//81 45//87 30//82
f 46//88 30//82 45//87
f 38//84 39//85 49//89
f 50//90 49//89 39//85
f 46//88 45//87 57//91
f 45//87 58//91 57//91
f 57//91 58//91 59//91
f 58//91 60//92 59//91
f 59//91 60//92 61//91
f 62//93 61//91 60//92
f 49//89 50//90 65//94
f 66//95 65//94 50//90
f 60//92 69//96 62//93
f 70//97 62//93 69//96
f 65//94 66//95 73//98
f 74//99 73//98 66//95
f 79//100 80//101 69//96
f 69//96 80//101 70//97
f 70//97 80//101 81//100
f 82//102 81//100 80//101
f 86//103 73//98 87//104
f 73//98 74//99 87//104
f 88//105 87//104 74//99
f 98//106 99//107 80//101
f 80//101 99//107 82//102
f 82//102 99//107 100//106
f 99//107 101//108 100//106
f 100//106 101//108 102//106
f 101//108 103//106 102//106
f 102//106 103//106 104//109
f 103//106 105//106 104//109
f 106//110 104//109 105//106
f 87//104 88//105 110//111
f 88//105 111//112 110//111
f 112//113 110//111 111//112
f 114//114 101//108 99//107
f 104//109 106//110 121//100
f 121//100 106//110 122//100
f 106//110 123//100 122//100
f 122//100 123//100 124//115
f 123//100 125//100 124//115
f 126//116 124//115 125//100
f 110//111 112//113 129//117
f 130//118 129//117 112//113
f 124//115 126//116 135//119
f 135//119 126//116 136//120
f 126//116 137//119 136//120
f 138//121 136//120 137//119
f 129//117 130//118 143//122
f 130//118 144//123 143//122
f 143//122 144//123 145//124
f 146//125 145//124 144//123
f 152//126 138//121 153//127
f 153//127 138//121 154//128
f 155//126 154//128 138//121
f 136//120 138//121 156//126
f 152//126 156//126 138//121
f 146//125 158//129 145//124
f 165//130 166//131 167//132
f 166//131 168//131 167//132
f 167//132 168//131 169//133
f 168//131 170//131 169//133
f 170//131 153//127 169//133
f 154//128 169//133 153//127
f 175//134 167//132 176//135
f 176//135 167//132 177//135
f 177//135 167//132 178//135
f 169//133 178//135 167//132
f 165//130 167//132 180//136
