# SSTK version 0.8.0
# 511
mtllib original-511.mtl
o #ID3386
v 0.328423 0.227218 -0.449731
v 0.326675 0.227202 -0.449733
v 0.326675 0.227215 -0.449732
v 0.326675 0.227215 -0.449732
v 0.326675 0.227202 -0.449733
v 0.328423 0.227218 -0.449731
vn 0.005059091145353341 0.15891610456583705 -0.9872791283656326
vn -9.050874866039051e-06 0.13248069803916834 -0.9911855853295771
vn -5.8490432638074445e-05 0.1590623071741339 -0.9872685445284434
vn 5.8490432638074445e-05 -0.1590623071741339 0.9872685445284434
vn 9.050874866039051e-06 -0.13248069803916834 0.9911855853295771
vn -0.005059091145353341 -0.15891610456583705 0.9872791283656326
usemtl material_0_0
f 4//4 5//5 6//6
usemtl material_1_0
f 1//1 2//2 3//3
