# SSTK version 0.8.0
# 463
mtllib original-463.mtl
o #ID3098
v -0.127189 0.249019 -0.443745
v -0.126085 0.250089 -0.443367
v -0.114421 0.249019 -0.443745
v -0.127189 0.253715 -0.44209
v -0.126085 0.253716 -0.44209
v -0.117872 0.250089 -0.443368
v -0.103677 0.25009 -0.443368
v -0.109658 0.25009 -0.443368
v -0.117872 0.250089 -0.443368
v -0.126085 0.250089 -0.443367
v -0.117872 0.253727 -0.442086
v -0.109658 0.253738 -0.442083
v -0.109658 0.25009 -0.443368
v -0.101444 0.250312 -0.44329
v -0.101444 0.253749 -0.442079
v -0.100341 0.249032 -0.443764
v -0.101444 0.250092 -0.443372
v -0.100341 0.250422 -0.443252
v -0.100341 0.253751 -0.442079
v -0.101444 0.250092 -0.443372
vn -4.533385200206721e-05 0.33229801467519127 -0.9431744416531697
vn -0.0008095819205795188 0.33911320862023514 -0.9407452239136815
vn -0.00010843430041161674 0.37443340142134945 -0.9272538035198568
vn -0.0015737870443051582 0.3459104097380488 -0.9382662264140144
usemtl material_0_0
f 1//1 2//1 3//2
f 2//1 1//1 4//3
f 2//1 4//3 5//3
f 3//2 6//1 7//2
f 6//1 3//2 2//1
f 7//2 6//1 8//1
f 5//3 9//1 10//1
f 9//1 5//3 11//3
f 12//3 7//2 13//1
f 7//2 12//3 14//2
f 14//2 12//3 15//3
f 7//2 16//4 3//2
f 16//4 7//2 17//4
f 16//4 17//4 18//2
f 18//2 17//4 14//2
f 15//3 18//2 14//2
f 18//2 15//3 19//3
f 14//2 20//4 7//2
