# SSTK version 0.8.0
# 22
mtllib original-22.mtl
o #ID1165
v 0.049342 0.395016 0.087491
v 0.049357 0.394758 0.085475
v 0.049342 0.395016 0.085475
v 0.049357 0.394758 0.087491
v 0.049357 0.394758 0.087491
v 0.049342 0.395016 0.087491
v 0.049357 0.394758 0.085475
v 0.049342 0.395016 0.085475
v 0.049295 0.39527 0.087491
v 0.049295 0.39527 0.085475
v 0.049295 0.39527 0.087491
v 0.049295 0.39527 0.085475
v 0.049357 0.3855 0.087491
v 0.049357 0.3855 0.085475
v 0.049357 0.3855 0.087491
v 0.049357 0.3855 0.085475
v 0.049219 0.395515 0.087491
v 0.049219 0.395515 0.085475
v 0.049219 0.395515 0.087491
v 0.049219 0.395515 0.085475
v 0.04934 0.385206 0.085475
v 0.04934 0.385206 0.087491
v 0.04934 0.385206 0.087491
v 0.04934 0.385206 0.085475
v 0.049113 0.395747 0.087491
v 0.049113 0.395747 0.085475
v 0.049113 0.395747 0.087491
v 0.049113 0.395747 0.085475
v 0.049287 0.384918 0.085475
v 0.049287 0.384918 0.087491
v 0.049287 0.384918 0.087491
v 0.049287 0.384918 0.085475
v 0.048981 0.395962 0.087491
v 0.048981 0.395962 0.085475
v 0.048981 0.395962 0.087491
v 0.048981 0.395962 0.085475
v 0.0492 0.38464 0.087491
v 0.0492 0.38464 0.085475
v 0.0492 0.38464 0.087491
v 0.0492 0.38464 0.085475
v 0.048824 0.396157 0.087491
v 0.048824 0.396157 0.085475
v 0.048824 0.396157 0.087491
v 0.048824 0.396157 0.085475
v 0.049081 0.384376 0.085475
v 0.049081 0.384376 0.087491
v 0.049081 0.384376 0.087491
v 0.049081 0.384376 0.085475
v 0.048645 0.396327 0.087491
v 0.048645 0.396327 0.085475
v 0.048645 0.396327 0.085475
v 0.048645 0.396327 0.087491
v 0.04893 0.384132 0.085475
v 0.04893 0.384132 0.087491
v 0.04893 0.384132 0.087491
v 0.04893 0.384132 0.085475
v 0.048447 0.396471 0.087491
v 0.048447 0.396471 0.085475
v 0.048447 0.396471 0.085475
v 0.048447 0.396471 0.087491
v 0.048752 0.383911 0.085475
v 0.048752 0.383911 0.087491
v 0.048752 0.383911 0.087491
v 0.048752 0.383911 0.085475
v 0.048234 0.396586 0.087491
v 0.048234 0.396586 0.085475
v 0.048234 0.396586 0.085475
v 0.048234 0.396586 0.087491
v 0.048549 0.383717 0.085475
v 0.048549 0.383717 0.087491
v 0.048549 0.383717 0.087491
v 0.048549 0.383717 0.085475
v 0.048008 0.396669 0.087491
v 0.048008 0.396669 0.085475
v 0.048008 0.396669 0.085475
v 0.048008 0.396669 0.087491
v 0.048324 0.383554 0.085475
v 0.048324 0.383554 0.087491
v 0.048324 0.383554 0.087491
v 0.048324 0.383554 0.085475
v 0.047775 0.39672 0.087491
v 0.047775 0.39672 0.085475
v 0.047775 0.39672 0.085475
v 0.047775 0.39672 0.087491
v 0.048081 0.383424 0.085475
v 0.048081 0.383424 0.087491
v 0.048081 0.383424 0.087491
v 0.048081 0.383424 0.085475
v 0.047537 0.396736 0.087491
v 0.047537 0.396736 0.085475
v 0.047537 0.396736 0.085475
v 0.047537 0.396736 0.087491
v 0.047825 0.383329 0.085475
v 0.047825 0.383329 0.087491
v 0.047825 0.383329 0.087491
v 0.047825 0.383329 0.085475
v 0.042941 0.396736 0.085475
v 0.042941 0.396736 0.087491
v 0.042941 0.396736 0.087491
v 0.042941 0.396736 0.085475
v 0.04756 0.383272 0.085475
v 0.04756 0.383272 0.087491
v 0.04756 0.383272 0.087491
v 0.04756 0.383272 0.085475
v 0.042775 0.396725 0.085475
v 0.042775 0.396725 0.087491
v 0.042775 0.396725 0.087491
v 0.042775 0.396725 0.085475
v 0.04729 0.383253 0.085475
v 0.04729 0.383253 0.087491
v 0.04729 0.383253 0.087491
v 0.04729 0.383253 0.085475
v 0.042612 0.396689 0.085475
v 0.042612 0.396689 0.087491
v 0.042612 0.396689 0.087491
v 0.042612 0.396689 0.085475
v 0.042883 0.383253 0.087491
v 0.042883 0.383253 0.085475
v 0.042883 0.383253 0.085475
v 0.042883 0.383253 0.087491
v 0.042455 0.396631 0.087491
v 0.042455 0.396631 0.085475
v 0.042455 0.396631 0.085475
v 0.042455 0.396631 0.087491
v 0.042725 0.383264 0.085475
v 0.042725 0.383264 0.087491
v 0.042725 0.383264 0.087491
v 0.042725 0.383264 0.085475
v 0.042306 0.396551 0.085475
v 0.042306 0.396551 0.087491
v 0.042306 0.396551 0.087491
v 0.042306 0.396551 0.085475
v 0.042569 0.383298 0.087491
v 0.042569 0.383298 0.085475
v 0.042569 0.383298 0.085475
v 0.042569 0.383298 0.087491
v 0.042725 0.383264 0.085475
v 0.042883 0.383253 0.064156
v 0.042883 0.383253 0.085475
v 0.042725 0.383264 0.064156
v 0.042725 0.383264 0.064156
v 0.042725 0.383264 0.085475
v 0.042883 0.383253 0.064156
v 0.042883 0.383253 0.085475
v 0.042167 0.396451 0.085475
v 0.042167 0.396451 0.087491
v 0.042167 0.396451 0.087491
v 0.042167 0.396451 0.085475
v 0.042419 0.383353 0.087491
v 0.042419 0.383353 0.085475
v 0.042419 0.383353 0.085475
v 0.042419 0.383353 0.087491
v 0.042569 0.383298 0.085475
v 0.042569 0.383298 0.064156
v 0.042569 0.383298 0.064156
v 0.042569 0.383298 0.085475
v 0.042042 0.396332 0.085475
v 0.042042 0.396332 0.087491
v 0.042042 0.396332 0.087491
v 0.042042 0.396332 0.085475
v 0.042277 0.383429 0.085475
v 0.042277 0.383429 0.087491
v 0.042277 0.383429 0.087491
v 0.042277 0.383429 0.085475
v 0.042419 0.383353 0.085475
v 0.042419 0.383353 0.064156
v 0.042419 0.383353 0.064156
v 0.042419 0.383353 0.085475
v 0.041933 0.396196 0.087491
v 0.041933 0.396196 0.085475
v 0.041933 0.396196 0.087491
v 0.041933 0.396196 0.085475
v 0.042145 0.383525 0.085475
v 0.042145 0.383525 0.087491
v 0.042145 0.383525 0.087491
v 0.042145 0.383525 0.085475
v 0.042277 0.383429 0.085475
v 0.042277 0.383429 0.064156
v 0.042277 0.383429 0.064156
v 0.042277 0.383429 0.085475
v 0.04184 0.396046 0.087491
v 0.04184 0.396046 0.085475
v 0.04184 0.396046 0.087491
v 0.04184 0.396046 0.085475
v 0.042025 0.383639 0.087491
v 0.042025 0.383639 0.085475
v 0.042025 0.383639 0.085475
v 0.042025 0.383639 0.087491
v 0.042145 0.383525 0.085475
v 0.042145 0.383525 0.064156
v 0.042145 0.383525 0.064156
v 0.042145 0.383525 0.085475
v 0.041767 0.395883 0.087491
v 0.041767 0.395883 0.085475
v 0.041767 0.395883 0.087491
v 0.041767 0.395883 0.085475
v 0.041921 0.383769 0.085475
v 0.041921 0.383769 0.087491
v 0.041921 0.383769 0.087491
v 0.041921 0.383769 0.085475
v 0.042025 0.383639 0.085475
v 0.042025 0.383639 0.064156
v 0.042025 0.383639 0.064156
v 0.042025 0.383639 0.085475
v 0.041713 0.395712 0.087491
v 0.041713 0.395712 0.085475
v 0.041713 0.395712 0.087491
v 0.041713 0.395712 0.085475
v 0.041833 0.383912 0.085475
v 0.041833 0.383912 0.087491
v 0.041833 0.383912 0.087491
v 0.041833 0.383912 0.085475
v 0.041921 0.383769 0.064156
v 0.041921 0.383769 0.085475
v 0.041921 0.383769 0.085475
v 0.041921 0.383769 0.064156
v 0.041681 0.395535 0.087491
v 0.041681 0.395535 0.085475
v 0.041681 0.395535 0.087491
v 0.041681 0.395535 0.085475
v 0.041762 0.384066 0.085475
v 0.041762 0.384066 0.087491
v 0.041762 0.384066 0.087491
v 0.041762 0.384066 0.085475
v 0.041833 0.383912 0.064156
v 0.041833 0.383912 0.085475
v 0.041833 0.383912 0.085475
v 0.041833 0.383912 0.064156
v 0.04167 0.395354 0.087491
v 0.04167 0.395354 0.085475
v 0.04167 0.395354 0.087491
v 0.04167 0.395354 0.085475
v 0.041711 0.38423 0.085475
v 0.041711 0.38423 0.087491
v 0.041711 0.38423 0.087491
v 0.041711 0.38423 0.085475
v 0.041762 0.384066 0.085475
v 0.041762 0.384066 0.064156
v 0.041762 0.384066 0.085475
v 0.041762 0.384066 0.064156
v 0.04167 0.384571 0.087491
v 0.04167 0.384571 0.085475
v 0.04167 0.384571 0.087491
v 0.04167 0.384571 0.085475
v 0.04168 0.384399 0.085475
v 0.04168 0.384399 0.087491
v 0.04168 0.384399 0.087491
v 0.04168 0.384399 0.085475
v 0.041711 0.38423 0.064156
v 0.041711 0.38423 0.085475
v 0.041711 0.38423 0.085475
v 0.041711 0.38423 0.064156
v 0.04168 0.384399 0.064156
v 0.04168 0.384399 0.085475
v 0.04168 0.384399 0.085475
v 0.04168 0.384399 0.064156
v 0.04167 0.384571 0.064156
v 0.04167 0.384571 0.085475
v 0.04167 0.384571 0.085475
v 0.04167 0.384571 0.064156
vn 0.9927352082083316 0.12031960099485055 0.0
vn 0.999546621865982 0.030108980658661053 0.0
vn 0.9708968832355139 0.2394978958645875 0.0
vn 0.999546621865982 -0.030108980658661053 0.0
vn 0.9343694338667582 0.35630571291450575 0.0
vn 0.9927352082083316 -0.12031960099485055 0.0
vn 0.883014944643349 0.469344870576534 0.0
vn 0.9708968832355139 -0.2394978958645875 0.0
vn 0.8167559624231459 0.5769832734544743 0.0
vn 0.9343694338667582 -0.35630571291450575 0.0
vn 0.7356908646320083 0.6773174674382818 0.0
vn 0.883014944643349 -0.469344870576534 0.0
vn 0.6402348966417599 0.7681791959706504 0.0
vn 0.8167559624231459 -0.5769832734544743 0.0
vn 0.5312709005337121 0.8472020008510949 0.0
vn 0.7356908646320083 -0.6773174674382818 0.0
vn 0.41028269646134247 0.9119583921344272 0.0
vn 0.6402348966417599 -0.7681791959706504 0.0
vn 0.2794329982144175 0.9601651938645253 0.0
vn 0.5312709005337121 -0.8472020008510949 0.0
vn 0.1415500990404871 0.9899310932896431 0.0
vn 0.41028269646134247 -0.9119583921344272 0.0
vn 0.03555386862497519 0.9993677613500439 0.0
vn 0.2794329982144175 -0.9601651938645253 0.0
vn -0.03555386862497519 0.9993677613500439 0.0
vn 0.1415500990404871 -0.9899310932896431 0.0
vn -0.1415500990404871 0.9899310932896431 0.0
vn 0.03555386862497519 -0.9993677613500439 0.0
vn -0.2794329982144175 0.9601651938645253 0.0
vn -0.03555386862497519 -0.9993677613500439 0.0
vn -0.41028269646134247 0.9119583921344272 0.0
vn -0.1415500990404871 -0.9899310932896431 0.0
vn -0.5312709005337121 0.8472020008510949 0.0
vn -0.2794329982144175 -0.9601651938645253 0.0
vn -0.6402348966417599 0.7681791959706504 0.0
vn -0.41028269646134247 -0.9119583921344272 0.0
vn -0.7356908646320083 0.6773174674382818 0.0
vn -0.5312709005337121 -0.8472020008510949 0.0
vn -0.8167559624231459 0.5769832734544743 0.0
vn -0.6402348966417599 -0.7681791959706504 0.0
vn -0.883014944643349 0.469344870576534 0.0
vn -0.7356908646320083 -0.6773174674382818 0.0
vn -0.9343694338667582 0.35630571291450575 0.0
vn -0.8167559624231459 -0.5769832734544743 0.0
vn -0.9708968832355139 0.2394978958645875 0.0
vn -0.883014944643349 -0.469344870576534 0.0
vn -0.9927352082083316 0.12031960099485055 0.0
vn -0.9343694338667582 -0.35630571291450575 0.0
vn -0.999546621865982 0.030108980658661053 0.0
vn -0.9708968832355139 -0.2394978958645875 0.0
vn -0.999546621865982 -0.030108980658661053 0.0
vn -0.9927352082083316 -0.12031960099485055 0.0
usemtl material_0_0
f 5//51 6//52 7//51
f 8//52 7//51 6//52
f 6//52 11//50 8//52
f 12//50 8//52 11//50
f 5//51 7//51 15//49
f 16//49 15//49 7//51
f 11//50 19//48 12//50
f 20//48 12//50 19//48
f 23//47 15//49 24//47
f 16//49 24//47 15//49
f 19//48 27//46 20//48
f 28//46 20//48 27//46
f 31//45 23//47 32//45
f 24//47 32//45 23//47
f 27//46 35//44 28//46
f 36//44 28//46 35//44
f 31//45 32//45 39//43
f 40//43 39//43 32//45
f 35//44 43//42 36//44
f 44//42 36//44 43//42
f 47//41 39//43 48//41
f 40//43 48//41 39//43
f 51//40 44//42 52//40
f 43//42 52//40 44//42
f 55//39 47//41 56//39
f 48//41 56//39 47//41
f 59//38 51//40 60//38
f 52//40 60//38 51//40
f 63//37 55//39 64//37
f 56//39 64//37 55//39
f 67//36 59//38 68//36
f 60//38 68//36 59//38
f 71//35 63//37 72//35
f 64//37 72//35 63//37
f 75//34 67//36 76//34
f 68//36 76//34 67//36
f 79//33 71//35 80//33
f 72//35 80//33 71//35
f 83//32 75//34 84//32
f 76//34 84//32 75//34
f 87//31 79//33 88//31
f 80//33 88//31 79//33
f 91//30 83//32 92//30
f 84//32 92//30 83//32
f 95//29 87//31 96//29
f 88//31 96//29 87//31
f 99//28 100//28 92//30
f 91//30 92//30 100//28
f 103//27 95//29 104//27
f 96//29 104//27 95//29
f 107//26 108//26 99//28
f 100//28 99//28 108//26
f 111//25 103//27 112//25
f 104//27 112//25 103//27
f 115//24 116//24 107//26
f 108//26 107//26 116//24
f 119//23 120//23 112//25
f 111//25 112//25 120//23
f 123//22 116//24 124//22
f 115//24 124//22 116//24
f 127//21 120//23 128//21
f 119//23 128//21 120//23
f 131//20 132//20 124//22
f 123//22 124//22 132//20
f 135//19 136//19 128//21
f 127//21 128//21 136//19
f 141//21 142//21 143//23
f 144//23 143//23 142//21
f 147//18 148//18 131//20
f 132//20 131//20 148//18
f 151//17 152//17 135//19
f 136//19 135//19 152//17
f 155//19 156//19 141//21
f 142//21 141//21 156//19
f 159//16 160//16 147//18
f 148//18 147//18 160//16
f 163//15 152//17 164//15
f 151//17 164//15 152//17
f 167//17 168//17 155//19
f 156//19 155//19 168//17
f 159//16 171//14 160//16
f 172//14 160//16 171//14
f 175//13 163//15 176//13
f 164//15 176//13 163//15
f 179//15 180//15 167//17
f 168//17 167//17 180//15
f 171//14 183//12 172//14
f 184//12 172//14 183//12
f 187//11 188//11 176//13
f 175//13 176//13 188//11
f 191//13 192//13 179//15
f 180//15 179//15 192//13
f 183//12 195//10 184//12
f 196//10 184//12 195//10
f 199//9 188//11 200//9
f 187//11 200//9 188//11
f 203//11 204//11 191//13
f 192//13 191//13 204//11
f 195//10 207//8 196//10
f 208//8 196//10 207//8
f 211//7 199//9 212//7
f 200//9 212//7 199//9
f 215//9 204//11 216//9
f 203//11 216//9 204//11
f 207//8 219//6 208//8
f 220//6 208//8 219//6
f 223//5 211//7 224//5
f 212//7 224//5 211//7
f 227//7 215//9 228//7
f 216//9 228//7 215//9
f 219//6 231//4 220//6
f 232//4 220//6 231//4
f 235//3 223//5 236//3
f 224//5 236//3 223//5
f 227//7 228//7 239//5
f 240//5 239//5 228//7
f 231//4 243//2 232//4
f 244//2 232//4 243//2
f 247//1 235//3 248//1
f 236//3 248//1 235//3
f 251//3 239//5 252//3
f 240//5 252//3 239//5
f 243//2 247//1 244//2
f 248//1 244//2 247//1
f 255//1 251//3 256//1
f 252//3 256//1 251//3
f 259//2 255//1 260//2
f 256//1 260//2 255//1
usemtl material_1_0
f 1//1 2//2 3//1
f 2//2 1//1 4//2
f 9//3 3//1 10//3
f 3//1 9//3 1//1
f 2//2 13//4 14//4
f 13//4 2//2 4//2
f 17//5 10//3 18//5
f 10//3 17//5 9//3
f 13//4 21//6 14//4
f 21//6 13//4 22//6
f 25//7 18//5 26//7
f 18//5 25//7 17//5
f 22//6 29//8 21//6
f 29//8 22//6 30//8
f 33//9 26//7 34//9
f 26//7 33//9 25//7
f 29//8 37//10 38//10
f 37//10 29//8 30//8
f 41//11 34//9 42//11
f 34//9 41//11 33//9
f 37//10 45//12 38//10
f 45//12 37//10 46//12
f 42//11 49//13 41//11
f 49//13 42//11 50//13
f 46//12 53//14 45//12
f 53//14 46//12 54//14
f 50//13 57//15 49//13
f 57//15 50//13 58//15
f 54//14 61//16 53//14
f 61//16 54//14 62//16
f 58//15 65//17 57//15
f 65//17 58//15 66//17
f 62//16 69//18 61//16
f 69//18 62//16 70//18
f 66//17 73//19 65//17
f 73//19 66//17 74//19
f 70//18 77//20 69//18
f 77//20 70//18 78//20
f 74//19 81//21 73//19
f 81//21 74//19 82//21
f 78//20 85//22 77//20
f 85//22 78//20 86//22
f 82//21 89//23 81//21
f 89//23 82//21 90//23
f 86//22 93//24 85//22
f 93//24 86//22 94//24
f 97//25 89//23 90//23
f 89//23 97//25 98//25
f 94//24 101//26 93//24
f 101//26 94//24 102//26
f 105//27 98//25 97//25
f 98//25 105//27 106//27
f 102//26 109//28 101//26
f 109//28 102//26 110//28
f 113//29 106//27 105//27
f 106//27 113//29 114//29
f 117//30 109//28 110//28
f 109//28 117//30 118//30
f 113//29 121//31 114//29
f 121//31 113//29 122//31
f 117//30 125//32 118//30
f 125//32 117//30 126//32
f 129//33 121//31 122//31
f 121//31 129//33 130//33
f 133//34 125//32 126//32
f 125//32 133//34 134//34
f 137//32 138//30 139//30
f 138//30 137//32 140//32
f 145//35 130//33 129//33
f 130//33 145//35 146//35
f 149//36 134//34 133//34
f 134//34 149//36 150//36
f 153//34 140//32 137//32
f 140//32 153//34 154//34
f 157//37 146//35 145//35
f 146//35 157//37 158//37
f 149//36 161//38 150//36
f 161//38 149//36 162//38
f 165//36 154//34 153//34
f 154//34 165//36 166//36
f 169//39 157//37 170//39
f 157//37 169//39 158//37
f 162//38 173//40 161//38
f 173//40 162//38 174//40
f 177//38 166//36 165//36
f 166//36 177//38 178//38
f 181//41 170//39 182//41
f 170//39 181//41 169//39
f 185//42 173//40 174//40
f 173//40 185//42 186//42
f 189//40 178//38 177//38
f 178//38 189//40 190//40
f 193//43 182//41 194//43
f 182//41 193//43 181//41
f 185//42 197//44 186//42
f 197//44 185//42 198//44
f 201//42 190//40 189//40
f 190//40 201//42 202//42
f 205//45 194//43 206//45
f 194//43 205//45 193//43
f 198//44 209//46 197//44
f 209//46 198//44 210//46
f 201//42 213//44 202//42
f 213//44 201//42 214//44
f 217//47 206//45 218//47
f 206//45 217//47 205//45
f 210//46 221//48 209//46
f 221//48 210//46 222//48
f 214//44 225//46 213//44
f 225//46 214//44 226//46
f 229//49 218//47 230//49
f 218//47 229//49 217//47
f 222//48 233//50 221//48
f 233//50 222//48 234//50
f 225//46 237//48 238//48
f 237//48 225//46 226//46
f 241//51 230//49 242//51
f 230//49 241//51 229//49
f 234//50 245//52 233//50
f 245//52 234//50 246//52
f 237//48 249//50 238//48
f 249//50 237//48 250//50
f 246//52 242//51 245//52
f 242//51 246//52 241//51
f 250//50 253//52 249//50
f 253//52 250//50 254//52
f 254//52 257//51 253//52
f 257//51 254//52 258//51
