# SSTK version 0.8.0
# 571
mtllib original-571.mtl
o #ID2798
v 0.347126 0.26777 -0.431447
v 0.34706 0.267411 -0.431794
v 0.347096 0.267637 -0.431641
v 0.347286 0.268619 -0.430576
v 0.346898 0.266513 -0.432641
v 0.347292 0.268644 -0.430536
v 0.347292 0.238301 -0.400192
v 0.346831 0.266135 -0.432977
v 0.346667 0.265188 -0.433799
v 0.3466 0.264791 -0.434121
v 0.346455 0.263929 -0.434812
v 0.346455 0.233805 -0.404688
v 0.346637 0.265044 -0.433976
v 0.346868 0.266374 -0.432827
v 0.346478 0.26379 -0.434917
v 0.346548 0.263352 -0.435227
v 0.34672 0.26226 -0.43599
v 0.346752 0.262091 -0.436156
v 0.346791 0.261802 -0.436291
v 0.346964 0.260672 -0.437022
v 0.346996 0.260494 -0.437183
v 0.347036 0.260196 -0.437312
v 0.347209 0.259029 -0.43801
v 0.347241 0.258843 -0.438166
v 0.347281 0.258535 -0.43829
v 0.347292 0.258458 -0.438331
v 0.347292 0.22931 -0.409183
v 0.346509 0.26363 -0.435086
v 0.347366 0.268736 -0.430374
v 0.34773 0.269083 -0.429481
v 0.347803 0.269179 -0.429325
v 0.347898 0.269289 -0.429111
v 0.348259 0.26961 -0.4282
v 0.348332 0.269699 -0.428041
v 0.348428 0.269804 -0.427817
v 0.348786 0.270099 -0.426889
v 0.348858 0.27018 -0.426727
v 0.348955 0.270279 -0.426492
v 0.34931 0.270547 -0.42555
v 0.34938 0.270622 -0.425386
v 0.349479 0.270714 -0.42514
v 0.349746 0.270898 -0.424412
v 0.349746 0.24249 -0.396003
v 0.348481 0.255781 -0.439714
v 0.348722 0.255303 -0.440059
v 0.349008 0.254581 -0.440311
v 0.349746 0.252855 -0.441107
v 0.349746 0.225121 -0.413372
v 0.349894 0.270944 -0.424185
v 0.350016 0.271002 -0.424018
v 0.350787 0.271416 -0.423011
v 0.353498 0.272149 -0.418747
v 0.35365 0.272241 -0.41856
v 0.35365 0.246087 -0.392406
v 0.350624 0.251728 -0.441599
v 0.351131 0.251148 -0.441952
v 0.35365 0.247646 -0.443093
v 0.35365 0.221523 -0.41697
v 0.358737 0.248847 -0.389645
v 0.354894 0.272636 -0.417605
v 0.358737 0.273179 -0.413977
v 0.358737 0.218763 -0.41973
v 0.358737 0.243409 -0.444375
v 0.364661 0.250583 -0.38791
v 0.362602 0.273751 -0.412285
v 0.364661 0.273856 -0.411184
v 0.361284 0.273537 -0.412843
v 0.359162 0.273189 -0.413738
v 0.364661 0.217028 -0.421465
v 0.364661 0.240648 -0.445086
v 0.371019 0.251174 -0.387318
v 0.371019 0.273524 -0.409668
v 0.367682 0.240128 -0.445128
v 0.371019 0.216436 -0.422057
v 0.371019 0.239627 -0.445248
v 0.377377 0.250583 -0.38791
v 0.377377 0.272579 -0.409906
v 0.374652 0.239923 -0.444867
v 0.377377 0.217028 -0.421465
v 0.377377 0.240199 -0.444637
v 0.383301 0.248847 -0.389645
v 0.381991 0.271415 -0.411446
v 0.383301 0.270974 -0.411772
v 0.383301 0.218763 -0.41973
v 0.383301 0.242541 -0.443508
v 0.388388 0.246087 -0.392406
v 0.386991 0.268935 -0.413738
v 0.388388 0.268412 -0.414731
v 0.384121 0.270523 -0.41221
v 0.387853 0.246011 -0.442039
v 0.388388 0.221523 -0.41697
v 0.388388 0.246326 -0.441772
v 0.392292 0.24249 -0.396003
v 0.392026 0.265724 -0.418747
v 0.392292 0.265583 -0.419096
v 0.38945 0.267824 -0.416098
v 0.391932 0.250166 -0.439082
v 0.392292 0.225121 -0.413372
v 0.392292 0.250573 -0.438825
v 0.390687 0.248957 -0.440167
v 0.390419 0.248607 -0.440311
v 0.389245 0.247213 -0.44108
v 0.394746 0.238301 -0.400192
v 0.394723 0.262799 -0.424611
v 0.394746 0.262772 -0.424663
v 0.394517 0.262996 -0.424107
v 0.394477 0.263046 -0.424018
v 0.393083 0.264892 -0.421107
v 0.394038 0.254 -0.436291
v 0.39443 0.254673 -0.435624
v 0.394099 0.254138 -0.43622
v 0.393377 0.252763 -0.437312
v 0.393767 0.253463 -0.436677
v 0.393439 0.252909 -0.437244
v 0.394695 0.255181 -0.435227
v 0.394746 0.22931 -0.409183
v 0.394746 0.255291 -0.435165
v 0.393101 0.252197 -0.437687
v 0.392777 0.251625 -0.438223
v 0.392712 0.251472 -0.43829
v 0.395583 0.233805 -0.404688
v 0.395477 0.260113 -0.429861
v 0.395583 0.259652 -0.430534
v 0.395414 0.260336 -0.429405
v 0.395401 0.260394 -0.429325
v 0.39529 0.260854 -0.428593
v 0.395227 0.261065 -0.428124
v 0.395214 0.26112 -0.428041
v 0.395105 0.261549 -0.427294
v 0.395041 0.261747 -0.426812
v 0.395029 0.261799 -0.426727
v 0.394921 0.262196 -0.425966
v 0.394858 0.262382 -0.425472
v 0.394845 0.26243 -0.425386
v 0.394944 0.256373 -0.434121
v 0.395072 0.25703 -0.433398
v 0.394963 0.256503 -0.434047
v 0.394858 0.255862 -0.43453
v 0.394749 0.255311 -0.435154
v 0.395285 0.258141 -0.432228
v 0.395495 0.259192 -0.431021
v 0.395577 0.259625 -0.430576
v 0.395368 0.2586 -0.431794
v 0.395386 0.258716 -0.431716
v 0.395157 0.257516 -0.432977
v 0.395175 0.257639 -0.4329
vn 0.9914448622271578 -0.09229596463350966 -0.0922959374823295
vn 0.9708852153752663 -0.16938404354449696 -0.16938401447078397
vn 0.9659258391377511 -0.18301268267568022 -0.18301265329447075
vn 0.9999455292253329 -0.007380343713957852 -0.007380319026500169
vn 1.0 -8.503034079255127e-09 1.5953562597965743e-08
vn 0.9914448608518515 0.09229594777293186 0.09229596911647325
vn 0.9718533344466362 0.1665849485281865 0.1665849670553023
vn 0.9659258364106709 0.18301266624907944 0.18301268411437735
vn 0.9238795453294587 -0.27059804374536467 -0.2705980126368532
vn 0.8858556914419325 -0.32806989722292623 -0.32806986523616355
vn 0.866025412066066 -0.3535533966021719 -0.35355336429861367
vn 0.923879541297265 0.2705980280338079 0.270598042115182
vn 0.878812698246894 0.3374079385994762 0.33740794947669134
vn 0.8660254067977508 0.35355338187447904 0.35355339193099145
vn 0.7933533515308552 -0.43045934069228375 -0.43045930774641583
vn 0.7219636806444729 -0.4892690855608774 -0.4892690525106902
vn 0.7071067956790791 -0.5000000062644633 -0.49999997324000106
vn 0.7933533451165612 0.430459327200457 0.4304593330600379
vn 0.7270626904299989 0.4854790632716364 0.48547906577893346
vn 0.7071067882285561 0.49999999423935554 0.4999999958017402
vn 0.5000000176216197 -0.6123724442491991 -0.6123724127543971
vn 0.6087614460580937 -0.5609855338152442 -0.560985501277247
vn 0.5267001060717411 -0.6010769653228246 -0.6010769335304099
vn 0.50000000849663 0.6123724357461672 0.6123724287079526
vn 0.5188165931592038 0.6044953888640613 0.6044953825338657
vn 0.2588190220365451 -0.6830127201719055 -0.6830126923530928
vn 0.3826834310491818 -0.6532814977799623 -0.6532814678672552
vn 0.27862461012721046 -0.6791054280839585 -0.6791053999036994
vn 0.25881901185894124 0.6830127157704131 0.6830127006112595
vn 0.27179971437928385 0.6804869342442773 0.6804869194820459
vn 5.268312508440029e-09 -0.7071067923100656 -0.7071067700630292
vn 0.01124397543689819 -0.7070620923452673 -0.7070620698246423
vn 0.1305261935529892 0.7010573939581347 0.7010573750936483
vn -5.268316865973162e-09 0.7071067923100656 0.7071067700630292
vn 0.003956869739614469 0.7071012567187905 0.7071012345686938
vn -0.25881901185894124 -0.6830127157704131 -0.6830127006112595
vn -0.25786930458616286 -0.6831923018100201 -0.6831922866219841
vn -0.1305262039994777 0.7010573961778701 0.7010573709289359
vn -0.2588190220365451 0.6830127201719055 0.6830126923530928
vn -0.2644608216861518 0.6819312692185011 0.6819312412957259
vn -0.50000000849663 -0.6123724357461623 -0.6123724287079576
vn -0.3826834213146042 -0.6532814912720268 -0.6532814800775741
vn -0.49763420564347155 -0.6133352289389873 -0.6133352218126323
vn -0.5000000176216197 0.6123724442491919 0.6123724127544041
vn -0.5130872103809326 0.6069355620471608 0.6069355304033613
vn -0.7071067882285561 -0.4999999942393534 -0.4999999958017423
vn -0.6087614376988226 -0.5609855234626037 -0.5609855207010704
vn -0.7210276763397853 -0.489958716514893 -0.4899587187336589
vn -0.6087614460580938 0.5609855338152372 0.5609855012772542
vn -0.7071067956790791 0.5000000062644562 0.49999997324000817
vn -0.7113829864924006 0.4969578852183965 0.4969578521850841
vn -0.8660254067977508 -0.3535533818744819 -0.35355339193098867
vn -0.7933533451165612 -0.43045932720045904 -0.4304593330600358
vn -0.8808165474003791 -0.3347851568204256 -0.3347851678291598
vn -0.7933533515308552 0.43045934069228375 0.43045930774641583
vn -0.866025412066066 0.3535533966021648 0.3535533642986208
vn -0.8743001339120106 0.34321953465063376 0.3432195024698374
vn -0.9659258364106709 -0.18301266624908089 -0.18301268411437593
vn -0.923879541297265 -0.27059802803381144 -0.27059804211517846
vn -0.9721867552110836 -0.16560933977700618 -0.16560935834296608
vn -0.9238795453294587 0.27059804374536467 0.2705980126368532
vn -0.9659258391377511 0.18301268267568022 0.18301265329447075
vn -0.971575015971808 0.1673947401468284 0.16739471111883109
vn -1.0 8.503037192001663e-09 -1.5953559485219208e-08
vn -0.9914448608518515 -0.09229594777293258 -0.09229596911647256
vn -0.9998583440584071 0.011901521074031786 0.011901496246452602
vn -0.9914448622271578 0.09229596463350966 0.0922959374823295
usemtl material_0_0
f 1//1 2//1 3//1
f 2//1 1//1 4//1
f 2//1 4//1 5//1
f 5//1 4//1 6//2
f 5//1 6//2 7//3
f 5//1 7//3 8//1
f 8//1 7//3 9//1
f 9//1 7//3 10//1
f 10//1 7//3 11//4
f 11//4 7//3 12//5
f 10//1 13//1 9//1
f 8//1 14//1 5//1
f 12//5 15//6 11//4
f 15//6 12//5 16//6
f 16//6 12//5 17//6
f 17//6 12//5 18//6
f 18//6 12//5 19//6
f 19//6 12//5 20//6
f 20//6 12//5 21//6
f 21//6 12//5 22//6
f 22//6 12//5 23//6
f 23//6 12//5 24//6
f 24//6 12//5 25//6
f 25//6 12//5 26//7
f 26//7 12//5 27//8
f 16//6 28//6 15//6
f 29//9 7//3 6//2
f 7//3 29//9 30//9
f 7//3 30//9 31//9
f 7//3 31//9 32//9
f 7//3 32//9 33//9
f 7//3 33//9 34//9
f 7//3 34//9 35//9
f 7//3 35//9 36//9
f 7//3 36//9 37//9
f 7//3 37//9 38//9
f 7//3 38//9 39//9
f 7//3 39//9 40//9
f 7//3 40//9 41//9
f 7//3 41//9 42//10
f 7//3 42//10 43//11
f 27//8 44//12 26//7
f 44//12 27//8 45//12
f 45//12 27//8 46//12
f 46//12 27//8 47//13
f 47//13 27//8 48//14
f 49//15 43//11 42//10
f 43//11 49//15 50//15
f 43//11 50//15 51//15
f 43//11 51//15 52//15
f 43//11 52//15 53//16
f 43//11 53//16 54//17
f 48//14 55//18 47//13
f 55//18 48//14 56//18
f 56//18 48//14 57//19
f 57//19 48//14 58//20
f 59//21 60//22 61//23
f 60//22 59//21 54//17
f 60//22 54//17 53//16
f 57//19 62//24 63//25
f 62//24 57//19 58//20
f 64//26 65//27 66//28
f 65//27 64//26 59//21
f 65//27 59//21 67//27
f 67//27 59//21 68//27
f 68//27 59//21 61//23
f 63//25 69//29 70//30
f 69//29 63//25 62//24
f 71//31 66//28 72//32
f 66//28 71//31 64//26
f 73//33 74//34 75//35
f 74//34 73//33 69//29
f 69//29 73//33 70//30
f 76//36 72//32 77//37
f 72//32 76//36 71//31
f 78//38 79//39 80//40
f 79//39 78//38 74//34
f 74//34 78//38 75//35
f 81//41 82//42 83//43
f 82//42 81//41 76//36
f 82//42 76//36 77//37
f 80//40 84//44 85//45
f 84//44 80//40 79//39
f 86//46 87//47 88//48
f 87//47 86//46 81//41
f 87//47 81//41 89//47
f 89//47 81//41 83//43
f 90//49 91//50 92//51
f 91//50 90//49 84//44
f 84//44 90//49 85//45
f 93//52 94//53 95//54
f 94//53 93//52 96//53
f 96//53 93//52 88//48
f 88//48 93//52 86//46
f 97//55 98//56 99//57
f 98//56 97//55 100//55
f 98//56 100//55 101//55
f 98//56 101//55 102//55
f 98//56 102//55 92//51
f 98//56 92//51 91//50
f 103//58 104//59 105//60
f 104//59 103//58 106//59
f 106//59 103//58 107//59
f 107//59 103//58 108//59
f 108//59 103//58 95//54
f 95//54 103//58 93//52
f 109//61 110//61 111//61
f 112//61 113//61 114//61
f 115//61 116//62 117//63
f 116//62 115//61 110//61
f 116//62 110//61 109//61
f 116//62 109//61 113//61
f 116//62 113//61 112//61
f 116//62 112//61 118//61
f 116//62 118//61 119//61
f 116//62 119//61 120//61
f 116//62 120//61 99//57
f 116//62 99//57 98//56
f 121//64 122//65 123//66
f 122//65 121//64 124//65
f 124//65 121//64 125//65
f 125//65 121//64 126//65
f 126//65 121//64 127//65
f 127//65 121//64 128//65
f 128//65 121//64 129//65
f 129//65 121//64 130//65
f 130//65 121//64 131//65
f 131//65 121//64 132//65
f 132//65 121//64 133//65
f 133//65 121//64 134//65
f 134//65 121//64 105//60
f 105//60 121//64 103//58
f 135//67 136//67 137//67
f 136//67 135//67 138//67
f 117//63 138//67 139//67
f 138//67 117//63 116//62
f 138//67 116//62 140//67
f 140//67 116//62 141//67
f 141//67 116//62 142//67
f 142//67 116//62 123//66
f 123//66 116//62 121//64
f 143//67 141//67 144//67
f 141//67 143//67 140//67
f 145//67 140//67 146//67
f 140//67 145//67 136//67
f 140//67 136//67 138//67
