# SSTK version 0.8.0
# 769
mtllib original-769.mtl
o #ID4648
v 0.359234 -0.010858 0.100196
v 0.359231 -0.010881 0.098565
v 0.359234 -0.010858 0.098556
v 0.358553 -0.016027 0.102181
v 0.359053 -0.012232 0.099044
v 0.359231 -0.010881 0.094317
v 0.358553 -0.016027 0.10042
v 0.359234 -0.010858 0.094325
v 0.358553 -0.016027 0.090453
v 0.359234 -0.010858 0.092569
v 0.359053 -0.012232 0.093804
v 0.358553 -0.016027 0.092342
v 0.358553 -0.016027 0.092342
v 0.359053 -0.012232 0.093804
v 0.358553 -0.016027 0.090453
v 0.359053 -0.012232 0.099044
v 0.359231 -0.010881 0.094317
v 0.359234 -0.010858 0.094325
v 0.359234 -0.010858 0.092569
v 0.358553 -0.016027 0.10042
v 0.358553 -0.016027 0.102181
v 0.359231 -0.010881 0.098565
v 0.359234 -0.010858 0.100196
v 0.359234 -0.010858 0.098556
v 0.358265 -0.003496 0.097368
v 0.358438 -0.004812 0.096514
v 0.358265 -0.003496 0.095582
v 0.358596 -0.006013 0.096802
v 0.358753 -0.007206 0.097189
v 0.35878 -0.007411 0.095625
v 0.35878 -0.007411 0.095625
v 0.358438 -0.004812 0.096514
v 0.358265 -0.003496 0.095582
v 0.358753 -0.007206 0.097189
v 0.358596 -0.006013 0.096802
v 0.358265 -0.003496 0.097368
vn 1.0 0.0 0.0
vn 0.9914448610250888 -0.1305261948688555 0.0
vn 1.0 1.216514999999991e-07 0.0
vn 1.0 1.217850999999991e-07 0.0
vn 0.9914448610250888 0.1305261948688555 0.0
vn -0.9914448610250888 0.1305261948688555 0.0
vn -1.0 -1.217850999999991e-07 0.0
vn -1.0 0.0 0.0
vn -1.0 -1.216514999999991e-07 0.0
vn -0.9914448610250888 -0.1305261948688555 0.0
usemtl material_0_0
f 13//6 14//6 15//6
f 16//6 17//6 14//6
f 14//6 17//6 15//6
f 17//6 18//7 15//6
f 19//8 15//6 18//7
f 20//6 21//6 16//6
f 17//6 16//6 22//6
f 16//6 21//6 22//6
f 21//6 23//8 22//6
f 24//9 22//6 23//8
f 18//7 31//10 19//8
f 31//10 32//10 19//8
f 33//10 19//8 32//10
f 24//9 23//8 34//10
f 34//10 23//8 35//10
f 35//10 23//8 32//10
f 23//8 36//10 32//10
f 33//10 32//10 36//10
usemtl material_1_0
f 1//1 2//2 3//3
f 2//2 1//1 4//2
f 2//2 4//2 5//2
f 2//2 5//2 6//2
f 5//2 4//2 7//2
f 8//4 9//2 10//1
f 9//2 8//4 6//2
f 9//2 6//2 11//2
f 11//2 6//2 5//2
f 9//2 11//2 12//2
f 25//5 26//5 27//5
f 26//5 25//5 1//1
f 26//5 1//1 28//5
f 28//5 1//1 29//5
f 29//5 1//1 3//3
f 26//5 10//1 27//5
f 10//1 26//5 30//5
f 10//1 30//5 8//4
