# SSTK version 0.8.0
# 459
mtllib original-459.mtl
o #ID3074
v -0.330451 0.224094 -0.45014
v -0.3237 0.221455 -0.450496
v -0.331485 0.221386 -0.450505
v -0.32465 0.224094 -0.45014
v -0.32465 0.224094 -0.45014
v -0.330451 0.224094 -0.45014
v -0.3237 0.221455 -0.450496
v -0.331485 0.221386 -0.450505
vn -0.0002121596067590131 0.13344920425144485 -0.9910556315732014
vn 0.00014953849615468776 0.11397789706911163 -0.9934832744530436
vn -0.00018515759255871027 0.1142495954084282 -0.9934520600742022
vn -1.8101739596696476e-05 0.13348689702593558 -0.9910505779195703
vn 1.8101739596696476e-05 -0.13348689702593558 0.9910505779195703
vn 0.0002121596067590131 -0.13344920425144485 0.9910556315732014
vn -0.00014953849615468776 -0.11397789706911163 0.9934832744530436
vn 0.00018515759255871027 -0.1142495954084282 0.9934520600742022
usemtl material_0_0
f 1//1 2//2 3//3
f 2//2 1//1 4//4
f 5//5 6//6 7//7
f 8//8 7//7 6//6
