# SSTK version 0.8.0
# 457
mtllib original-457.mtl
o #ID3062
v -0.32966 0.226197 -0.449857
v -0.325179 0.225601 -0.449937
v -0.329883 0.225601 -0.449937
v -0.325404 0.226204 -0.449856
v -0.325404 0.226204 -0.449856
v -0.32966 0.226197 -0.449857
v -0.325179 0.225601 -0.449937
v -0.329883 0.225601 -0.449937
vn -5.532513097447226e-05 0.15706090276640072 -0.987588917394952
vn -1.8101739596696476e-05 0.13348689702593558 -0.9910505779195703
vn 5.532513097447226e-05 -0.15706090276640072 0.987588917394952
vn 1.8101739596696476e-05 -0.13348689702593558 0.9910505779195703
usemtl material_0_0
f 1//1 2//2 3//2
f 2//2 1//1 4//1
f 5//3 6//3 7//4
f 8//4 7//4 6//3
