# SSTK version 0.8.0
# 711
mtllib original-711.mtl
o #ID4351
v 0.079854 0.174438 0.549814
v 0.080753 0.157645 0.549814
v 0.077686 0.174032 0.549814
v 0.082559 0.159985 0.549814
v 0.090992 0.159561 0.549814
v 0.09063 0.161495 0.549814
v 0.09063 0.161495 0.549814
v 0.082559 0.159985 0.549814
v 0.090992 0.159561 0.549814
v 0.080753 0.157645 0.549814
v 0.079854 0.174438 0.549814
v 0.077686 0.174032 0.549814
vt 1.385971 0.5694165
vt 1.385122 0.5482539
vt 1.38802 0.568905
vt 1.383415 0.5512023
vt 1.375447 0.5506687
vt 1.375788 0.5531057
vn 3.793005e-09 3.561086532313319e-09 -1.0
vn -3.793005e-09 -3.561086532313319e-09 1.0
usemtl material_0_0
f 7//2 8//2 9//2
f 9//2 8//2 10//2
f 8//2 11//2 10//2
f 12//2 10//2 11//2
usemtl material_1_0
f 1/1/1 2/2/1 3/3/1
f 2/2/1 1/1/1 4/4/1
f 2/2/1 4/4/1 5/5/1
f 5/5/1 4/4/1 6/6/1
