# SSTK version 0.8.0
# 527
mtllib original-527.mtl
o #ID3482
v 0.387707 0.227816 -0.110921
v 0.387178 0.229051 -0.111182
v 0.3874 0.227816 -0.110755
v 0.388035 0.229051 -0.111644
v 0.388035 0.229051 -0.111644
v 0.387707 0.227816 -0.110921
v 0.387178 0.229051 -0.111182
v 0.3874 0.227816 -0.110755
v 0.385512 0.227816 -0.109816
v 0.385512 0.227816 -0.109816
v 0.388076 0.229241 -0.111795
v 0.388076 0.229241 -0.111795
v 0.379168 0.233817 -0.106017
v 0.382119 0.227816 -0.107364
v 0.380768 0.233817 -0.107173
v 0.380768 0.233817 -0.107173
v 0.379168 0.233817 -0.106017
v 0.382119 0.227816 -0.107364
v 0.389608 0.233817 -0.113098
v 0.389608 0.233817 -0.113098
v 0.381416 0.227816 -0.106631
v 0.378654 0.230979 -0.104661
v 0.378408 0.233817 -0.105224
v 0.378408 0.233817 -0.105224
v 0.378654 0.230979 -0.104661
v 0.381416 0.227816 -0.106631
v 0.380522 0.227816 -0.105514
v 0.380522 0.227816 -0.105514
v 0.377137 0.230979 -0.104029
v 0.377912 0.233817 -0.105017
v 0.377912 0.233817 -0.105017
v 0.377137 0.230979 -0.104029
v 0.378875 0.227816 -0.104155
v 0.378875 0.227816 -0.104155
v 0.376244 0.227816 -0.103058
v 0.376244 0.227816 -0.103058
vn 0.44246929757899833 0.36275719801514883 0.8201390955125515
vn 0.5121251206650198 0.20638130832779675 0.8337473336429604
vn 0.4287847125675043 0.36280071063354036 0.8273568242494895
vn 0.42663541664146726 0.4388996171198485 0.7907903308458014
vn 0.5047539777731465 0.23693258956666788 0.8301122634459865
vn 0.4971526166018402 0.2899077096811349 0.8177975273094082
vn 0.648489107419432 0.1513937017321114 0.7460173085352624
vn 0.5695609092042154 0.07780660125737003 0.8182582132232123
vn 0.5560631012017182 0.05008544010824075 0.8296296017929277
vn 0.7299048173733809 0.23857140567853763 0.6405643152468753
vn 0.5476268256339194 0.19849800929151357 0.8128366380481523
vn 0.553317620297879 0.2078252076238509 0.8066277295902958
vn 0.6931186083820566 0.22455270271557215 0.6849545082833262
vn 0.3777870893358093 0.19178619458625099 0.9058117744307049
vn 0.3762316002723465 0.21141780015304132 0.9020822006529992
vn 0.5088933125133457 0.17066930419664408 0.8437414207470365
vn 0.3791907895121252 0.17207749524058283 0.9091774748534515
vn -0.42663541664146726 -0.4388996171198485 -0.7907903308458014
vn -0.44246929757899833 -0.36275719801514883 -0.8201390955125515
vn -0.5121251206650198 -0.20638130832779675 -0.8337473336429604
vn -0.4287847125675043 -0.36280071063354036 -0.8273568242494895
vn -0.5047539777731465 -0.23693258956666788 -0.8301122634459865
vn -0.4971526166018402 -0.2899077096811349 -0.8177975273094082
vn -0.5695609092042154 -0.07780660125737003 -0.8182582132232123
vn -0.648489107419432 -0.1513937017321114 -0.7460173085352624
vn -0.5560631012017182 -0.05008544010824075 -0.8296296017929277
vn -0.553317620297879 -0.2078252076238509 -0.8066277295902958
vn -0.5476268256339194 -0.19849800929151357 -0.8128366380481523
vn -0.7299048173733809 -0.23857140567853763 -0.6405643152468753
vn -0.6931186083820566 -0.22455270271557215 -0.6849545082833262
vn -0.3762316002723465 -0.21141780015304132 -0.9020822006529992
vn -0.3777870893358093 -0.19178619458625099 -0.9058117744307049
vn -0.5088933125133457 -0.17066930419664408 -0.8437414207470365
vn -0.3791907895121252 -0.17207749524058283 -0.9091774748534515
usemtl material_0_0
f 1//1 2//2 3//3
f 2//2 1//1 4//4
f 2//2 9//5 3//3
f 11//6 2//2 4//4
f 9//5 13//7 14//7
f 13//7 9//5 2//2
f 13//7 2//2 15//8
f 11//6 15//8 2//2
f 15//8 11//6 19//9
f 13//7 21//10 14//7
f 21//10 13//7 22//11
f 22//11 13//7 23//12
f 22//11 27//13 21//10
f 23//12 29//14 22//11
f 29//14 23//12 30//15
f 22//11 33//16 27//13
f 33//16 29//14 35//17
f 29//14 33//16 22//11
usemtl material_1_0
f 5//18 6//19 7//20
f 8//21 7//20 6//19
f 8//21 10//22 7//20
f 5//18 7//20 12//23
f 16//24 7//20 17//25
f 7//20 10//22 17//25
f 18//25 17//25 10//22
f 20//26 12//23 16//24
f 7//20 16//24 12//23
f 24//27 17//25 25//28
f 25//28 17//25 26//29
f 18//25 26//29 17//25
f 26//29 28//30 25//28
f 31//31 24//27 32//32
f 25//28 32//32 24//27
f 28//30 34//33 25//28
f 25//28 34//33 32//32
f 36//34 32//32 34//33
