# SSTK version 0.8.0
# 773
mtllib original-773.mtl
o #ID4672
v 0.357425 -0.024601 0.137279
v 0.35723 -0.02608 0.134791
v 0.357425 -0.024601 0.130803
v 0.355775 -0.037132 0.137279
v 0.357419 -0.024646 0.128869
v 0.357401 -0.02478 0.127455
v 0.357355 -0.025129 0.125958
v 0.357283 -0.025678 0.124698
v 0.35597 -0.035653 0.134791
v 0.35597 -0.035653 0.130777
v 0.35595 -0.035799 0.124337
v 0.355886 -0.03629 0.12523
v 0.355838 -0.036654 0.126256
v 0.355803 -0.036918 0.127475
v 0.355782 -0.037079 0.128887
v 0.355775 -0.037132 0.130495
v 0.357221 -0.026144 0.128927
v 0.357157 -0.026632 0.123398
v 0.35723 -0.02608 0.130841
v 0.357196 -0.026336 0.127622
v 0.357126 -0.026869 0.126341
v 0.357001 -0.027819 0.122473
v 0.35701 -0.027751 0.125269
v 0.356933 -0.028336 0.124845
v 0.356817 -0.029216 0.12192
v 0.356841 -0.029034 0.124542
v 0.356612 -0.030772 0.1243
v 0.356609 -0.030798 0.121735
v 0.356439 -0.032086 0.124424
v 0.356431 -0.032144 0.12186
v 0.356294 -0.033187 0.124794
v 0.356276 -0.033328 0.122235
v 0.356176 -0.034082 0.125386
v 0.356143 -0.034336 0.122806
v 0.356085 -0.034773 0.126173
v 0.356035 -0.035153 0.123518
v 0.356036 -0.035145 0.126909
v 0.356 -0.035423 0.127859
v 0.355977 -0.035596 0.129118
v 0.35597 -0.035653 0.130777
v 0.355977 -0.035596 0.129118
v 0.35595 -0.035799 0.124337
v 0.356 -0.035423 0.127859
v 0.356035 -0.035153 0.123518
v 0.356036 -0.035145 0.126909
v 0.356085 -0.034773 0.126173
v 0.356143 -0.034336 0.122806
v 0.356176 -0.034082 0.125386
v 0.356276 -0.033328 0.122235
v 0.356294 -0.033187 0.124794
v 0.356431 -0.032144 0.12186
v 0.356439 -0.032086 0.124424
v 0.356609 -0.030798 0.121735
v 0.356612 -0.030772 0.1243
v 0.356817 -0.029216 0.12192
v 0.356841 -0.029034 0.124542
v 0.356933 -0.028336 0.124845
v 0.357001 -0.027819 0.122473
v 0.35701 -0.027751 0.125269
v 0.357126 -0.026869 0.126341
v 0.357157 -0.026632 0.123398
v 0.357196 -0.026336 0.127622
v 0.357221 -0.026144 0.128927
v 0.35723 -0.02608 0.134791
v 0.357283 -0.025678 0.124698
v 0.35723 -0.02608 0.130841
v 0.355775 -0.037132 0.130495
v 0.355775 -0.037132 0.137279
v 0.355782 -0.037079 0.128887
v 0.355803 -0.036918 0.127475
v 0.355838 -0.036654 0.126256
v 0.355886 -0.03629 0.12523
v 0.35597 -0.035653 0.134791
v 0.357355 -0.025129 0.125958
v 0.357401 -0.02478 0.127455
v 0.357419 -0.024646 0.128869
v 0.357425 -0.024601 0.130803
v 0.357425 -0.024601 0.137279
vn 0.9914448610250888 -0.1305261948688555 0.0
vn -0.9914448610250888 0.1305261948688555 0.0
usemtl material_0_0
f 40//2 41//2 42//2
f 41//2 43//2 42//2
f 42//2 43//2 44//2
f 43//2 45//2 44//2
f 45//2 46//2 44//2
f 44//2 46//2 47//2
f 46//2 48//2 47//2
f 47//2 48//2 49//2
f 48//2 50//2 49//2
f 49//2 50//2 51//2
f 50//2 52//2 51//2
f 51//2 52//2 53//2
f 52//2 54//2 53//2
f 53//2 54//2 55//2
f 54//2 56//2 55//2
f 56//2 57//2 55//2
f 55//2 57//2 58//2
f 57//2 59//2 58//2
f 59//2 60//2 58//2
f 58//2 60//2 61//2
f 60//2 62//2 61//2
f 62//2 63//2 61//2
f 64//2 65//2 66//2
f 66//2 65//2 63//2
f 61//2 63//2 65//2
f 67//2 68//2 69//2
f 69//2 68//2 70//2
f 70//2 68//2 71//2
f 71//2 68//2 72//2
f 72//2 68//2 42//2
f 42//2 68//2 40//2
f 40//2 68//2 73//2
f 73//2 68//2 64//2
f 65//2 64//2 74//2
f 74//2 64//2 75//2
f 75//2 64//2 76//2
f 76//2 64//2 77//2
f 68//2 78//2 64//2
f 77//2 64//2 78//2
usemtl material_1_0
f 1//1 2//1 3//1
f 2//1 1//1 4//1
f 3//1 2//1 5//1
f 5//1 2//1 6//1
f 6//1 2//1 7//1
f 7//1 2//1 8//1
f 2//1 4//1 9//1
f 9//1 4//1 10//1
f 10//1 4//1 11//1
f 11//1 4//1 12//1
f 12//1 4//1 13//1
f 13//1 4//1 14//1
f 14//1 4//1 15//1
f 15//1 4//1 16//1
f 8//1 17//1 18//1
f 17//1 8//1 19//1
f 19//1 8//1 2//1
f 18//1 17//1 20//1
f 18//1 20//1 21//1
f 18//1 21//1 22//1
f 22//1 21//1 23//1
f 22//1 23//1 24//1
f 22//1 24//1 25//1
f 25//1 24//1 26//1
f 25//1 26//1 27//1
f 25//1 27//1 28//1
f 28//1 27//1 29//1
f 28//1 29//1 30//1
f 30//1 29//1 31//1
f 30//1 31//1 32//1
f 32//1 31//1 33//1
f 32//1 33//1 34//1
f 34//1 33//1 35//1
f 34//1 35//1 36//1
f 36//1 35//1 37//1
f 36//1 37//1 38//1
f 36//1 38//1 11//1
f 11//1 38//1 39//1
f 11//1 39//1 10//1
