# SSTK version 0.8.0
# 646
mtllib original-646.mtl
o #ID4020
v 0.327539 0.111134 0.458276
v 0.351924 0.052263 0.498172
v 0.351924 0.052263 0.458276
v 0.327539 0.111134 0.498172
v 0.327539 0.111134 0.498172
v 0.327539 0.111134 0.458276
v 0.351924 0.052263 0.498172
v 0.351924 0.052263 0.458276
v 0.288748 0.161688 0.458276
v 0.288748 0.161688 0.498172
v 0.288748 0.161688 0.498172
v 0.288748 0.161688 0.458276
v 0.360242 -0.010913 0.498172
v 0.360242 -0.010913 0.458276
v 0.360242 -0.010913 0.498172
v 0.360242 -0.010913 0.458276
v 0.238194 0.200479 0.458276
v 0.238194 0.200479 0.498172
v 0.238194 0.200479 0.498172
v 0.238194 0.200479 0.458276
v 0.351924 -0.074089 0.498172
v 0.351924 -0.074089 0.458276
v 0.351924 -0.074089 0.498172
v 0.351924 -0.074089 0.458276
v 0.179324 0.224864 0.458276
v 0.179324 0.224864 0.498172
v 0.179324 0.224864 0.498172
v 0.179324 0.224864 0.458276
v 0.327539 -0.13296 0.498172
v 0.327539 -0.13296 0.458276
v 0.327539 -0.13296 0.498172
v 0.327539 -0.13296 0.458276
v 0.116147 0.233181 0.458276
v 0.120021 0.232671 0.474248
v 0.116147 0.233181 0.474248
v 0.120021 0.232671 0.498172
v 0.120021 0.232671 0.474248
v 0.120021 0.232671 0.498172
v 0.116147 0.233181 0.474248
v 0.116147 0.233181 0.458276
v 0.288748 -0.183514 0.498172
v 0.288748 -0.183514 0.458276
v 0.288748 -0.183514 0.498172
v 0.288748 -0.183514 0.458276
v 0.052971 0.224864 0.458276
v 0.112273 0.232671 0.474248
v 0.112273 0.232671 0.498172
v 0.052971 0.224864 0.498172
v 0.052971 0.224864 0.498172
v 0.052971 0.224864 0.458276
v 0.112273 0.232671 0.498172
v 0.112273 0.232671 0.474248
v 0.238194 -0.222305 0.498172
v 0.238194 -0.222305 0.458276
v 0.238194 -0.222305 0.458276
v 0.238194 -0.222305 0.498172
v -0.0059 0.200479 0.458276
v -0.0059 0.200479 0.498172
v -0.0059 0.200479 0.498172
v -0.0059 0.200479 0.458276
v 0.179324 -0.24669 0.498172
v 0.179324 -0.24669 0.458276
v 0.179324 -0.24669 0.458276
v 0.179324 -0.24669 0.498172
v -0.056453 0.161688 0.458276
v -0.056453 0.161688 0.498172
v -0.056453 0.161688 0.498172
v -0.056453 0.161688 0.458276
v 0.116147 -0.255007 0.498172
v 0.116147 -0.255007 0.458276
v 0.116147 -0.255007 0.458276
v 0.116147 -0.255007 0.498172
v -0.095245 0.111134 0.498172
v -0.095245 0.111134 0.458276
v -0.095245 0.111134 0.498172
v -0.095245 0.111134 0.458276
v 0.052971 -0.24669 0.498172
v 0.052971 -0.24669 0.458276
v 0.052971 -0.24669 0.458276
v 0.052971 -0.24669 0.498172
v -0.11963 0.052263 0.498172
v -0.11963 0.052263 0.458276
v -0.11963 0.052263 0.498172
v -0.11963 0.052263 0.458276
v -0.0059 -0.222305 0.498172
v -0.0059 -0.222305 0.458276
v -0.0059 -0.222305 0.458276
v -0.0059 -0.222305 0.498172
v -0.127947 -0.010913 0.498172
v -0.127947 -0.010913 0.458276
v -0.127947 -0.010913 0.498172
v -0.127947 -0.010913 0.458276
v -0.056453 -0.183514 0.498172
v -0.056453 -0.183514 0.458276
v -0.056453 -0.183514 0.458276
v -0.056453 -0.183514 0.498172
v -0.11963 -0.074089 0.498172
v -0.11963 -0.074089 0.458276
v -0.11963 -0.074089 0.498172
v -0.11963 -0.074089 0.458276
v -0.095245 -0.13296 0.458276
v -0.095245 -0.13296 0.498172
v -0.095245 -0.13296 0.498172
v -0.095245 -0.13296 0.458276
vn 0.866025402838329 0.50000000163871 3.2225712531190362e-09
vn 0.9659258358036645 0.2588190095935615 1.6681252156291984e-09
vn -0.866025402838329 -0.50000000163871 -3.2225712531190362e-09
vn -0.9659258358036645 -0.2588190095935615 -1.6681252156291984e-09
vn 0.7071067811865477 0.7071067811865475 4.557406193532163e-09
vn -0.7071067811865477 -0.7071067811865475 -4.557406193532163e-09
vn 1.0 0.0 0.0
vn -1.0 0.0 0.0
vn 0.5000000016387102 0.866025402838329 5.581660383858964e-09
vn -0.5000000016387102 -0.866025402838329 -5.581660383858964e-09
vn 0.9659258358036645 -0.25881900959356174 -1.6681271102346063e-09
vn -0.9659258358036645 0.25881900959356174 1.6681271102346063e-09
vn 0.25881900959356174 0.9659258358036645 6.225537622191131e-09
vn -0.25881900959356174 -0.9659258358036645 -6.225537622191131e-09
vn 0.866025402838329 -0.5000000016387102 -3.2225731586247903e-09
vn -0.866025402838329 0.5000000016387102 3.2225731586247903e-09
vn 0.0 1.0 6.445151390621046e-09
vn 0.13052619486885558 0.9914448610250886 6.390014143201184e-09
vn -0.13052619486885558 -0.9914448610250886 -6.390014143201184e-09
vn 0.0 -1.0 -6.445151390621046e-09
vn 0.7071067811865475 -0.7071067811865477 -4.557405116377705e-09
vn -0.7071067811865475 0.7071067811865477 4.557405116377705e-09
vn -0.2588190095935615 0.9659258358036645 6.225535593950405e-09
vn -0.13052619486885536 0.9914448610250886 6.390010128958885e-09
vn 0.2588190095935615 -0.9659258358036645 -6.225535593950405e-09
vn 0.13052619486885536 -0.9914448610250886 -6.390010128958885e-09
vn 0.50000000163871 -0.866025402838329 -5.581659329302474e-09
vn -0.50000000163871 0.866025402838329 5.581659329302474e-09
vn -0.50000000163871 0.866025402838329 5.581660329302572e-09
vn 0.50000000163871 -0.866025402838329 -5.581660329302572e-09
vn 0.2588190095935615 -0.9659258358036645 -6.225533593950141e-09
vn -0.2588190095935615 0.9659258358036645 6.225533593950141e-09
vn -0.7071067811865475 0.7071067811865477 4.5574061163777736e-09
vn 0.7071067811865475 -0.7071067811865477 -4.5574061163777736e-09
vn 0.0 -1.0 -6.445146390620571e-09
vn 0.0 1.0 6.445146390620571e-09
vn -0.866025402838329 0.5000000016387102 3.222572158624692e-09
vn 0.866025402838329 -0.5000000016387102 -3.222572158624692e-09
vn -0.25881900959356174 -0.9659258358036645 -6.225533622190602e-09
vn 0.25881900959356174 0.9659258358036645 6.225533622190602e-09
vn -0.9659258358036645 0.25881900959356174 1.6681261102344742e-09
vn 0.9659258358036645 -0.25881900959356174 -1.6681261102344742e-09
vn -0.5000000016387102 -0.866025402838329 -5.581659383858866e-09
vn 0.5000000016387102 0.866025402838329 5.581659383858866e-09
vn -0.7071067811865477 -0.7071067811865475 -4.557405193532094e-09
vn 0.7071067811865477 0.7071067811865475 4.557405193532094e-09
vn -0.9659258358036645 -0.2588190095935615 -1.6681262156293307e-09
vn 0.9659258358036645 0.2588190095935615 1.6681262156293307e-09
vn -0.866025402838329 -0.50000000163871 -3.2225722531191346e-09
vn 0.866025402838329 0.50000000163871 3.2225722531191346e-09
usemtl material_0_0
f 1//1 2//2 3//2
f 2//2 1//1 4//1
f 5//3 6//3 7//4
f 8//4 7//4 6//3
f 9//5 4//1 1//1
f 4//1 9//5 10//5
f 11//6 12//6 5//3
f 6//3 5//3 12//6
f 3//2 13//7 14//7
f 13//7 3//2 2//2
f 7//4 8//4 15//8
f 16//8 15//8 8//4
f 17//9 10//5 9//5
f 10//5 17//9 18//9
f 19//10 20//10 11//6
f 12//6 11//6 20//10
f 14//7 21//11 22//11
f 21//11 14//7 13//7
f 15//8 16//8 23//12
f 24//12 23//12 16//8
f 25//13 18//9 17//9
f 18//9 25//13 26//13
f 27//14 28//14 19//10
f 20//10 19//10 28//14
f 22//11 29//15 30//15
f 29//15 22//11 21//11
f 23//12 24//12 31//16
f 32//16 31//16 24//12
f 33//17 26//13 25//13
f 26//13 33//17 34//18
f 34//18 33//17 35//17
f 36//18 26//13 34//18
f 37//19 27//14 38//19
f 39//20 40//20 37//19
f 37//19 40//20 27//14
f 28//14 27//14 40//20
f 30//15 41//21 42//21
f 41//21 30//15 29//15
f 31//16 32//16 43//22
f 44//22 43//22 32//16
f 45//23 35//17 33//17
f 35//17 45//23 46//24
f 46//24 45//23 47//24
f 47//24 45//23 48//23
f 49//25 50//25 51//26
f 51//26 50//25 52//26
f 52//26 50//25 39//20
f 40//20 39//20 50//25
f 53//27 42//21 41//21
f 42//21 53//27 54//27
f 55//28 56//28 44//22
f 43//22 44//22 56//28
f 57//29 48//23 45//23
f 48//23 57//29 58//29
f 59//30 60//30 49//25
f 50//25 49//25 60//30
f 61//31 54//27 53//27
f 54//27 61//31 62//31
f 63//32 64//32 55//28
f 56//28 55//28 64//32
f 65//33 58//29 57//29
f 58//29 65//33 66//33
f 67//34 68//34 59//30
f 60//30 59//30 68//34
f 69//35 62//31 61//31
f 62//31 69//35 70//35
f 71//36 72//36 63//32
f 64//32 63//32 72//36
f 73//37 65//33 74//37
f 65//33 73//37 66//33
f 67//34 75//38 68//34
f 76//38 68//34 75//38
f 77//39 70//35 69//35
f 70//35 77//39 78//39
f 79//40 80//40 71//36
f 72//36 71//36 80//40
f 81//41 74//37 82//41
f 74//37 81//41 73//37
f 75//38 83//42 76//38
f 84//42 76//38 83//42
f 85//43 78//39 77//39
f 78//39 85//43 86//43
f 87//44 88//44 79//40
f 80//40 79//40 88//44
f 89//8 82//41 90//8
f 82//41 89//8 81//41
f 83//42 91//7 84//42
f 92//7 84//42 91//7
f 93//45 86//43 85//43
f 86//43 93//45 94//45
f 95//46 96//46 87//44
f 88//44 87//44 96//46
f 97//47 90//8 98//47
f 90//8 97//47 89//8
f 91//7 99//48 92//7
f 100//48 92//7 99//48
f 93//45 101//49 94//45
f 101//49 93//45 102//49
f 103//50 96//46 104//50
f 95//46 104//50 96//46
f 102//49 98//47 101//49
f 98//47 102//49 97//47
f 99//48 103//50 100//48
f 104//50 100//48 103//50
