# SSTK version 0.8.0
# 31
mtllib original-31.mtl
o #ID518
v -0.08296 -0.098925 0.04591
v -0.088637 -0.098925 0.04591
v -0.085798 -0.099299 0.04591
v -0.080314 -0.097829 0.04591
v -0.091283 -0.097829 0.04591
v -0.078042 -0.096086 0.04591
v -0.093555 -0.096086 0.04591
v -0.076299 -0.093815 0.04591
v -0.095298 -0.093815 0.04591
v -0.075203 -0.091169 0.04591
v -0.096394 -0.091169 0.04591
v -0.07483 -0.08833 0.04591
v -0.096767 -0.08833 0.04591
v -0.075203 -0.085491 0.04591
v -0.096394 -0.085491 0.04591
v -0.076299 -0.082846 0.04591
v -0.095298 -0.082846 0.04591
v -0.078042 -0.080574 0.04591
v -0.093555 -0.080574 0.04591
v -0.080314 -0.078831 0.04591
v -0.091283 -0.078831 0.04591
v -0.08296 -0.077735 0.04591
v -0.088637 -0.077735 0.04591
v -0.085798 -0.077361 0.04591
v -0.085798 -0.077361 0.04591
v -0.08296 -0.077735 0.04591
v -0.088637 -0.077735 0.04591
v -0.091283 -0.078831 0.04591
v -0.080314 -0.078831 0.04591
v -0.093555 -0.080574 0.04591
v -0.078042 -0.080574 0.04591
v -0.095298 -0.082846 0.04591
v -0.076299 -0.082846 0.04591
v -0.096394 -0.085491 0.04591
v -0.075203 -0.085491 0.04591
v -0.096767 -0.08833 0.04591
v -0.07483 -0.08833 0.04591
v -0.096394 -0.091169 0.04591
v -0.075203 -0.091169 0.04591
v -0.095298 -0.093815 0.04591
v -0.076299 -0.093815 0.04591
v -0.093555 -0.096086 0.04591
v -0.078042 -0.096086 0.04591
v -0.091283 -0.097829 0.04591
v -0.080314 -0.097829 0.04591
v -0.088637 -0.098925 0.04591
v -0.08296 -0.098925 0.04591
v -0.085798 -0.099299 0.04591
vt 0.6488717 0.53818
vt 0.650878 0.5378609
vt 0.6468654 0.5378609
vt 0.6449958 0.5369251
vt 0.6527476 0.5369251
vt 0.6433903 0.5354365
vt 0.6543531 0.5354365
vt 0.6421584 0.5334966
vt 0.655585 0.5334966
vt 0.641384 0.5312375
vt 0.6563594 0.5312375
vt 0.6411198 0.5288132
vt 0.6566236 0.5288132
vt 0.641384 0.5263889
vt 0.6563594 0.5263889
vt 0.6421584 0.5241298
vt 0.655585 0.5241298
vt 0.6433903 0.5221898
vt 0.6543531 0.5221898
vt 0.6449958 0.5207013
vt 0.6527476 0.5207013
vt 0.6468654 0.5197655
vt 0.650878 0.5197655
vt 0.6488717 0.5194463
vn 0.0 -5.584277477955395e-09 1.0
vn 0.0 5.584277477955395e-09 -1.0
usemtl material_0_0
f 25/1/2 26/2/2 27/3/2
f 27/3/2 26/2/2 28/4/2
f 26/2/2 29/5/2 28/4/2
f 28/4/2 29/5/2 30/6/2
f 29/5/2 31/7/2 30/6/2
f 30/6/2 31/7/2 32/8/2
f 31/7/2 33/9/2 32/8/2
f 32/8/2 33/9/2 34/10/2
f 33/9/2 35/11/2 34/10/2
f 34/10/2 35/11/2 36/12/2
f 35/11/2 37/13/2 36/12/2
f 36/12/2 37/13/2 38/14/2
f 37/13/2 39/15/2 38/14/2
f 38/14/2 39/15/2 40/16/2
f 39/15/2 41/17/2 40/16/2
f 40/16/2 41/17/2 42/18/2
f 41/17/2 43/19/2 42/18/2
f 42/18/2 43/19/2 44/20/2
f 43/19/2 45/21/2 44/20/2
f 44/20/2 45/21/2 46/22/2
f 45/21/2 47/23/2 46/22/2
f 48/24/2 46/22/2 47/23/2
usemtl material_1_0
f 1//1 2//1 3//1
f 2//1 1//1 4//1
f 2//1 4//1 5//1
f 5//1 4//1 6//1
f 5//1 6//1 7//1
f 7//1 6//1 8//1
f 7//1 8//1 9//1
f 9//1 8//1 10//1
f 9//1 10//1 11//1
f 11//1 10//1 12//1
f 11//1 12//1 13//1
f 13//1 12//1 14//1
f 13//1 14//1 15//1
f 15//1 14//1 16//1
f 15//1 16//1 17//1
f 17//1 16//1 18//1
f 17//1 18//1 19//1
f 19//1 18//1 20//1
f 19//1 20//1 21//1
f 21//1 20//1 22//1
f 21//1 22//1 23//1
f 23//1 22//1 24//1
