# SSTK version 0.8.0
# 255
mtllib original-255.mtl
o #ID1995
v -0.296505 0.221328 -0.009516
v -0.294557 0.221328 -0.179206
v -0.294557 0.221328 -0.024315
v -0.176812 0.221328 -0.221586
v -0.176812 0.221328 -0.251184
v -0.174864 0.221328 -0.236385
v -0.182525 0.221328 -0.207795
v -0.182525 0.221328 -0.264974
v -0.191611 0.221328 -0.195953
v -0.191611 0.221328 -0.276816
v -0.203453 0.221328 -0.186867
v -0.203453 0.221328 -0.285903
v -0.217244 0.221328 -0.291615
v -0.217244 0.221328 -0.181155
v -0.232043 0.221328 -0.179206
v -0.232043 0.221328 -0.293563
v -0.280987 0.221328 -0.293563
v -0.282684 0.221328 -0.306452
v -0.288396 0.221328 -0.320242
v -0.297482 0.221328 -0.332084
v -0.302217 0.221328 0.004274
v -0.309324 0.221328 -0.341171
v -0.311304 0.221328 0.016116
v -0.323115 0.221328 -0.346883
v -0.323146 0.221328 0.025203
v -0.337914 0.221328 -0.348831
v -0.336937 0.221328 0.030915
v -0.351736 0.221328 0.032863
v -0.352712 0.221328 -0.346883
v -0.366534 0.221328 0.030915
v -0.366503 0.221328 -0.341171
v -0.378345 0.221328 -0.332084
v -0.380325 0.221328 0.025203
v -0.387432 0.221328 -0.320242
v -0.392167 0.221328 0.016116
v -0.390517 0.221328 -0.113729
v -0.392167 0.221328 -0.064747
v -0.401254 0.221328 0.004274
v -0.401254 0.221328 -0.052904
v -0.406966 0.221328 -0.009516
v -0.406966 0.221328 -0.039114
v -0.408914 0.221328 -0.024315
v -0.393144 0.221328 -0.306452
v -0.395947 0.221328 -0.118348
v -0.395092 0.221328 -0.188629
v -0.39992 0.221328 -0.183383
v -0.400646 0.221328 -0.12371
v -0.403931 0.221328 -0.177489
v -0.404512 0.221328 -0.1297
v -0.40704 0.221328 -0.171074
v -0.407464 0.221328 -0.136189
v -0.40918 0.221328 -0.164273
v -0.409438 0.221328 -0.14304
v -0.410305 0.221328 -0.157233
v -0.410392 0.221328 -0.150105
v -0.395092 0.221328 -0.291653
v -0.395092 0.221328 -0.188629
v -0.393144 0.221328 -0.306452
v -0.395092 0.221328 -0.291653
v -0.410392 0.221328 -0.150105
v -0.409438 0.221328 -0.14304
v -0.410305 0.221328 -0.157233
v -0.40918 0.221328 -0.164273
v -0.407464 0.221328 -0.136189
v -0.40704 0.221328 -0.171074
v -0.404512 0.221328 -0.1297
v -0.403931 0.221328 -0.177489
v -0.400646 0.221328 -0.12371
v -0.39992 0.221328 -0.183383
v -0.395947 0.221328 -0.118348
v -0.390517 0.221328 -0.113729
v -0.387432 0.221328 -0.320242
v -0.408914 0.221328 -0.024315
v -0.406966 0.221328 -0.009516
v -0.406966 0.221328 -0.039114
v -0.401254 0.221328 -0.052904
v -0.401254 0.221328 0.004274
v -0.392167 0.221328 -0.064747
v -0.392167 0.221328 0.016116
v -0.380325 0.221328 0.025203
v -0.378345 0.221328 -0.332084
v -0.366534 0.221328 0.030915
v -0.366503 0.221328 -0.341171
v -0.352712 0.221328 -0.346883
v -0.351736 0.221328 0.032863
v -0.337914 0.221328 -0.348831
v -0.336937 0.221328 0.030915
v -0.323146 0.221328 0.025203
v -0.323115 0.221328 -0.346883
v -0.311304 0.221328 0.016116
v -0.309324 0.221328 -0.341171
v -0.302217 0.221328 0.004274
v -0.297482 0.221328 -0.332084
v -0.296505 0.221328 -0.009516
v -0.294557 0.221328 -0.179206
v -0.288396 0.221328 -0.320242
v -0.282684 0.221328 -0.306452
v -0.280987 0.221328 -0.293563
v -0.232043 0.221328 -0.293563
v -0.232043 0.221328 -0.179206
v -0.217244 0.221328 -0.291615
v -0.217244 0.221328 -0.181155
v -0.203453 0.221328 -0.186867
v -0.203453 0.221328 -0.285903
v -0.191611 0.221328 -0.276816
v -0.191611 0.221328 -0.195953
v -0.182525 0.221328 -0.264974
v -0.182525 0.221328 -0.207795
v -0.176812 0.221328 -0.251184
v -0.176812 0.221328 -0.221586
v -0.174864 0.221328 -0.236385
v -0.294557 0.221328 -0.024315
v -0.294557 -0.29923 -0.179206
v -0.232043 0.221328 -0.179206
v -0.232043 -0.29923 -0.179206
v -0.294557 0.221328 -0.179206
v -0.294557 0.221328 -0.179206
v -0.294557 -0.29923 -0.179206
v -0.232043 0.221328 -0.179206
v -0.232043 -0.29923 -0.179206
v -0.294557 -0.29923 -0.024315
v -0.294557 -0.290245 -0.121539
v -0.294557 -0.29923 -0.121539
v -0.294557 0.221328 -0.024315
v -0.294557 -0.29923 -0.179206
v -0.294557 0.221328 -0.179206
v -0.294557 -0.290245 -0.17195
v -0.294557 -0.29923 -0.17195
v -0.294557 -0.290245 -0.121539
v -0.294557 -0.290245 -0.17195
v -0.294557 0.221328 -0.024315
v -0.294557 -0.29923 -0.17195
v -0.294557 -0.29923 -0.179206
v -0.294557 0.221328 -0.179206
v -0.294557 -0.29923 -0.024315
v -0.294557 -0.29923 -0.121539
v -0.296505 0.221328 -0.009516
v -0.296505 -0.29923 -0.009516
v -0.296505 -0.29923 -0.009516
v -0.296505 0.221328 -0.009516
v -0.302217 0.221328 0.004274
v -0.302217 -0.29923 0.004274
v -0.302217 -0.29923 0.004274
v -0.302217 0.221328 0.004274
v -0.311304 0.221328 0.016116
v -0.311304 -0.29923 0.016116
v -0.311304 -0.29923 0.016116
v -0.311304 0.221328 0.016116
v -0.323146 -0.29923 0.025203
v -0.323146 0.221328 0.025203
v -0.323146 0.221328 0.025203
v -0.323146 -0.29923 0.025203
v -0.336937 -0.29923 0.030915
v -0.336937 0.221328 0.030915
v -0.336937 0.221328 0.030915
v -0.336937 -0.29923 0.030915
v -0.351736 -0.29923 0.032863
v -0.351736 0.221328 0.032863
v -0.351736 0.221328 0.032863
v -0.351736 -0.29923 0.032863
v -0.366534 -0.29923 0.030915
v -0.366534 0.221328 0.030915
v -0.366534 0.221328 0.030915
v -0.366534 -0.29923 0.030915
v -0.380325 -0.29923 0.025203
v -0.380325 0.221328 0.025203
v -0.380325 0.221328 0.025203
v -0.380325 -0.29923 0.025203
v -0.392167 -0.29923 0.016116
v -0.392167 0.221328 0.016116
v -0.392167 0.221328 0.016116
v -0.392167 -0.29923 0.016116
v -0.401254 -0.29923 0.004274
v -0.401254 0.221328 0.004274
v -0.401254 -0.29923 0.004274
v -0.401254 0.221328 0.004274
v -0.406966 -0.29923 -0.009516
v -0.406966 0.221328 -0.009516
v -0.406966 -0.29923 -0.009516
v -0.406966 0.221328 -0.009516
v -0.408914 -0.29923 -0.024315
v -0.408914 0.221328 -0.024315
v -0.408914 -0.29923 -0.024315
v -0.408914 0.221328 -0.024315
v -0.406966 -0.29923 -0.039114
v -0.406966 0.221328 -0.039114
v -0.406966 -0.29923 -0.039114
v -0.406966 0.221328 -0.039114
v -0.401254 -0.29923 -0.052904
v -0.401254 0.221328 -0.052904
v -0.401254 -0.29923 -0.052904
v -0.401254 0.221328 -0.052904
v -0.392167 -0.29923 -0.064747
v -0.392167 0.221328 -0.064747
v -0.392167 -0.29923 -0.064747
v -0.392167 0.221328 -0.064747
v -0.392167 0.221328 -0.064747
v -0.390517 -0.29923 -0.113729
v -0.390517 0.221328 -0.113729
v -0.392167 -0.29923 -0.064747
v -0.392167 -0.29923 -0.064747
v -0.392167 0.221328 -0.064747
v -0.390517 -0.29923 -0.113729
v -0.390517 0.221328 -0.113729
v -0.395947 0.221328 -0.118348
v -0.390517 -0.29923 -0.113729
v -0.395947 -0.29923 -0.118348
v -0.390517 0.221328 -0.113729
v -0.390517 0.221328 -0.113729
v -0.395947 0.221328 -0.118348
v -0.390517 -0.29923 -0.113729
v -0.395947 -0.29923 -0.118348
v -0.400646 -0.29923 -0.12371
v -0.400646 0.221328 -0.12371
v -0.400646 -0.29923 -0.12371
v -0.400646 0.221328 -0.12371
v -0.404512 -0.29923 -0.1297
v -0.404512 0.221328 -0.1297
v -0.404512 -0.29923 -0.1297
v -0.404512 0.221328 -0.1297
v -0.407464 -0.29923 -0.136189
v -0.407464 0.221328 -0.136189
v -0.407464 -0.29923 -0.136189
v -0.407464 0.221328 -0.136189
v -0.409438 -0.29923 -0.14304
v -0.409438 0.221328 -0.14304
v -0.409438 -0.29923 -0.14304
v -0.409438 0.221328 -0.14304
v -0.410392 -0.29923 -0.150105
v -0.410392 0.221328 -0.150105
v -0.410392 -0.29923 -0.150105
v -0.410392 0.221328 -0.150105
v -0.410305 -0.29923 -0.157233
v -0.410305 0.221328 -0.157233
v -0.410305 -0.29923 -0.157233
v -0.410305 0.221328 -0.157233
v -0.40918 -0.29923 -0.164273
v -0.40918 0.221328 -0.164273
v -0.40918 -0.29923 -0.164273
v -0.40918 0.221328 -0.164273
v -0.40704 -0.29923 -0.171074
v -0.40704 0.221328 -0.171074
v -0.40704 -0.29923 -0.171074
v -0.40704 0.221328 -0.171074
v -0.403931 -0.29923 -0.177489
v -0.403931 0.221328 -0.177489
v -0.403931 -0.29923 -0.177489
v -0.403931 0.221328 -0.177489
v -0.39992 -0.29923 -0.183383
v -0.39992 0.221328 -0.183383
v -0.39992 -0.29923 -0.183383
v -0.39992 0.221328 -0.183383
v -0.395092 -0.29923 -0.188629
v -0.395092 0.221328 -0.188629
v -0.395092 -0.29923 -0.188629
v -0.395092 0.221328 -0.188629
v -0.395092 0.221328 -0.188629
v -0.395092 -0.29923 -0.291653
v -0.395092 0.221328 -0.291653
v -0.395092 -0.29923 -0.188629
v -0.395092 -0.29923 -0.188629
v -0.395092 0.221328 -0.188629
v -0.395092 -0.29923 -0.291653
v -0.395092 0.221328 -0.291653
v -0.393144 -0.29923 -0.306452
v -0.393144 0.221328 -0.306452
v -0.393144 -0.29923 -0.306452
v -0.393144 0.221328 -0.306452
v -0.387432 -0.29923 -0.320242
v -0.387432 0.221328 -0.320242
v -0.387432 -0.29923 -0.320242
v -0.387432 0.221328 -0.320242
v -0.378345 -0.29923 -0.332084
v -0.378345 0.221328 -0.332084
v -0.378345 -0.29923 -0.332084
v -0.378345 0.221328 -0.332084
v -0.366503 0.221328 -0.341171
v -0.366503 -0.29923 -0.341171
v -0.366503 0.221328 -0.341171
v -0.366503 -0.29923 -0.341171
v -0.352712 0.221328 -0.346883
v -0.352712 -0.29923 -0.346883
v -0.352712 0.221328 -0.346883
v -0.352712 -0.29923 -0.346883
v -0.337914 -0.29923 -0.348831
v -0.337914 0.221328 -0.348831
v -0.337914 0.221328 -0.348831
v -0.337914 -0.29923 -0.348831
v -0.323115 0.221328 -0.346883
v -0.323115 -0.29923 -0.346883
v -0.323115 0.221328 -0.346883
v -0.323115 -0.29923 -0.346883
v -0.309324 0.221328 -0.341171
v -0.309324 -0.29923 -0.341171
v -0.309324 0.221328 -0.341171
v -0.309324 -0.29923 -0.341171
v -0.297482 0.221328 -0.332084
v -0.297482 -0.29923 -0.332084
v -0.297482 0.221328 -0.332084
v -0.297482 -0.29923 -0.332084
v -0.288396 0.221328 -0.320242
v -0.288396 -0.29923 -0.320242
v -0.288396 -0.29923 -0.320242
v -0.288396 0.221328 -0.320242
v -0.282684 0.221328 -0.306452
v -0.282684 -0.29923 -0.306452
v -0.282684 -0.29923 -0.306452
v -0.282684 0.221328 -0.306452
v -0.280987 0.221328 -0.293563
v -0.280987 -0.29923 -0.293563
v -0.280987 -0.29923 -0.293563
v -0.280987 0.221328 -0.293563
v -0.232043 0.221328 -0.293563
v -0.280987 -0.29923 -0.293563
v -0.232043 -0.29923 -0.293563
v -0.280987 0.221328 -0.293563
v -0.280987 0.221328 -0.293563
v -0.232043 0.221328 -0.293563
v -0.280987 -0.29923 -0.293563
v -0.232043 -0.29923 -0.293563
v -0.217244 0.221328 -0.291615
v -0.217244 -0.29923 -0.291615
v -0.217244 0.221328 -0.291615
v -0.217244 -0.29923 -0.291615
v -0.203453 0.221328 -0.285903
v -0.203453 -0.29923 -0.285903
v -0.203453 0.221328 -0.285903
v -0.203453 -0.29923 -0.285903
v -0.191611 0.221328 -0.276816
v -0.191611 -0.29923 -0.276816
v -0.191611 0.221328 -0.276816
v -0.191611 -0.29923 -0.276816
v -0.182525 0.221328 -0.264974
v -0.182525 -0.29923 -0.264974
v -0.182525 -0.29923 -0.264974
v -0.182525 0.221328 -0.264974
v -0.176812 0.221328 -0.251184
v -0.176812 -0.29923 -0.251184
v -0.176812 -0.29923 -0.251184
v -0.176812 0.221328 -0.251184
v -0.174864 0.221328 -0.236385
v -0.174864 -0.29923 -0.236385
v -0.174864 -0.29923 -0.236385
v -0.174864 0.221328 -0.236385
v -0.176812 0.221328 -0.221586
v -0.176812 -0.29923 -0.221586
v -0.176812 -0.29923 -0.221586
v -0.176812 0.221328 -0.221586
v -0.182525 0.221328 -0.207795
v -0.182525 -0.29923 -0.207795
v -0.182525 -0.29923 -0.207795
v -0.182525 0.221328 -0.207795
v -0.191611 0.221328 -0.195953
v -0.191611 -0.29923 -0.195953
v -0.191611 -0.29923 -0.195953
v -0.191611 0.221328 -0.195953
v -0.203453 -0.29923 -0.186867
v -0.203453 0.221328 -0.186867
v -0.203453 0.221328 -0.186867
v -0.203453 -0.29923 -0.186867
v -0.217244 -0.29923 -0.181155
v -0.217244 0.221328 -0.181155
v -0.217244 0.221328 -0.181155
v -0.217244 -0.29923 -0.181155
vn 0.0 -1.0 0.0
vn 0.0 1.0 0.0
vn 0.0 0.0 -1.0
vn -0.06540313151333016 0.0 -0.9978589230889554
vn 0.0 0.0 1.0
vn 0.06540313151333016 0.0 0.9978589230889554
vn -0.9978589230889554 0.0 -0.06540313151333016
vn -1.0 0.0 0.0
vn 1.0 0.0 0.0
vn 0.9978589230889554 0.0 0.06540313151333016
vn -0.9659258358036645 0.0 -0.25881900959356163
vn 0.9659258358036645 0.0 0.25881900959356163
vn -0.8660254028383291 0.0 -0.5000000016387101
vn 0.8660254028383291 0.0 0.5000000016387101
vn -0.7071067811865475 0.0 -0.7071067811865475
vn 0.7071067811865475 0.0 0.7071067811865475
vn -0.5000000016387101 0.0 -0.8660254028383291
vn 0.5000000016387101 0.0 0.8660254028383291
vn -0.25881900959356163 0.0 -0.9659258358036645
vn 0.25881900959356163 0.0 0.9659258358036645
vn 0.25881900959356163 0.0 -0.9659258358036645
vn -0.25881900959356163 0.0 0.9659258358036645
vn 0.5000000016387101 0.0 -0.8660254028383291
vn -0.5000000016387101 0.0 0.8660254028383291
vn 0.7071067811865475 0.0 -0.7071067811865475
vn -0.7071067811865475 0.0 0.7071067811865475
vn 0.8660254028383291 0.0 -0.5000000016387101
vn -0.8660254028383291 0.0 0.5000000016387101
vn 0.9659258358036645 0.0 -0.25881900959356163
vn -0.9659258358036645 0.0 0.25881900959356163
vn 0.7933533393698232 0.0 0.608761430209528
vn -0.7933533393698232 0.0 -0.608761430209528
vn 0.9994329745165533 0.0 0.03367089914146262
vn -0.9994329745165533 0.0 -0.03367089914146262
vn 0.7018727013858301 0.0 -0.7123024014064233
vn 0.64791740149827 0.0 -0.76171060176141
vn -0.64791740149827 0.0 0.76171060176141
vn -0.7018727013858301 0.0 0.7123024014064233
vn 0.7982446978579183 0.0 -0.6023332983836446
vn -0.7982446978579183 0.0 0.6023332983836446
vn 0.8775495873812889 0.0 -0.47948589310523987
vn -0.8775495873812889 0.0 0.47948589310523987
vn 0.9380918460195976 0.0 -0.3463866169925501
vn -0.9380918460195976 0.0 0.3463866169925501
vn 0.978576948889916 0.0 -0.20588141028587975
vn -0.978576948889916 0.0 0.20588141028587975
vn 0.9981393368086373 0.0 -0.06097429224856443
vn -0.9981393368086373 0.0 0.06097429224856443
vn 0.9963607462602981 0.0 0.08523651395746878
vn -0.9963607462602981 0.0 -0.08523651395746878
vn 0.9732792020182647 0.0 0.2296249004761674
vn -0.9732792020182647 0.0 -0.2296249004761674
vn 0.9293882150314929 0.0 0.36910370596971176
vn -0.9293882150314929 0.0 -0.36910370596971176
vn 0.8656262020207698 0.0 0.5006908011688427
vn -0.8656262020207698 0.0 -0.5006908011688427
vn 0.7833564019110762 0.0 0.6215728015163889
vn -0.7833564019110762 0.0 -0.6215728015163889
vn 0.7358162981681375 0.0 0.6771811983141135
vn -0.7358162981681375 0.0 -0.6771811983141135
vn -0.9914448610250888 0.0 0.1305261948688555
vn 0.9914448610250888 0.0 -0.1305261948688555
vn -0.06540313151333016 0.0 0.9978589230889554
vn 0.06540313151333016 0.0 -0.9978589230889554
usemtl material_0_0
f 1//1 2//1 3//1
f 4//1 5//1 6//1
f 5//1 4//1 7//1
f 5//1 7//1 8//1
f 8//1 7//1 9//1
f 8//1 9//1 10//1
f 10//1 9//1 11//1
f 10//1 11//1 12//1
f 12//1 11//1 13//1
f 13//1 11//1 14//1
f 13//1 14//1 15//1
f 13//1 15//1 16//1
f 16//1 15//1 2//1
f 16//1 2//1 17//1
f 17//1 2//1 18//1
f 18//1 2//1 19//1
f 19//1 2//1 20//1
f 20//1 2//1 1//1
f 20//1 1//1 21//1
f 20//1 21//1 22//1
f 22//1 21//1 23//1
f 22//1 23//1 24//1
f 24//1 23//1 25//1
f 24//1 25//1 26//1
f 26//1 25//1 27//1
f 26//1 27//1 28//1
f 26//1 28//1 29//1
f 29//1 28//1 30//1
f 29//1 30//1 31//1
f 31//1 30//1 32//1
f 32//1 30//1 33//1
f 32//1 33//1 34//1
f 34//1 33//1 35//1
f 34//1 35//1 36//1
f 36//1 35//1 37//1
f 37//1 35//1 38//1
f 37//1 38//1 39//1
f 39//1 38//1 40//1
f 39//1 40//1 41//1
f 41//1 40//1 42//1
f 36//1 43//1 34//1
f 43//1 36//1 44//1
f 43//1 44//1 45//1
f 45//1 44//1 46//1
f 46//1 44//1 47//1
f 46//1 47//1 48//1
f 48//1 47//1 49//1
f 48//1 49//1 50//1
f 50//1 49//1 51//1
f 50//1 51//1 52//1
f 52//1 51//1 53//1
f 52//1 53//1 54//1
f 54//1 53//1 55//1
f 56//1 43//1 45//1
f 57//2 58//2 59//2
f 60//2 61//2 62//2
f 62//2 61//2 63//2
f 61//2 64//2 63//2
f 63//2 64//2 65//2
f 64//2 66//2 65//2
f 65//2 66//2 67//2
f 66//2 68//2 67//2
f 67//2 68//2 69//2
f 68//2 70//2 69//2
f 69//2 70//2 57//2
f 57//2 70//2 58//2
f 70//2 71//2 58//2
f 72//2 58//2 71//2
f 73//2 74//2 75//2
f 75//2 74//2 76//2
f 74//2 77//2 76//2
f 76//2 77//2 78//2
f 77//2 79//2 78//2
f 78//2 79//2 71//2
f 71//2 79//2 72//2
f 79//2 80//2 72//2
f 72//2 80//2 81//2
f 80//2 82//2 81//2
f 81//2 82//2 83//2
f 83//2 82//2 84//2
f 82//2 85//2 84//2
f 84//2 85//2 86//2
f 85//2 87//2 86//2
f 87//2 88//2 86//2
f 86//2 88//2 89//2
f 88//2 90//2 89//2
f 89//2 90//2 91//2
f 90//2 92//2 91//2
f 91//2 92//2 93//2
f 92//2 94//2 93//2
f 94//2 95//2 93//2
f 93//2 95//2 96//2
f 96//2 95//2 97//2
f 97//2 95//2 98//2
f 98//2 95//2 99//2
f 95//2 100//2 99//2
f 99//2 100//2 101//2
f 100//2 102//2 101//2
f 102//2 103//2 101//2
f 101//2 103//2 104//2
f 104//2 103//2 105//2
f 103//2 106//2 105//2
f 105//2 106//2 107//2
f 106//2 108//2 107//2
f 107//2 108//2 109//2
f 108//2 110//2 109//2
f 111//2 109//2 110//2
f 112//2 95//2 94//2
f 113//3 114//4 115//4
f 114//4 113//3 116//3
f 117//5 118//5 119//6
f 120//6 119//6 118//5
f 121//7 122//8 123//8
f 122//8 121//7 124//7
f 125//8 124//7 126//8
f 124//7 125//8 127//8
f 127//8 125//8 128//8
f 124//7 127//8 122//8
f 129//9 130//9 131//10
f 132//9 133//9 130//9
f 130//9 133//9 131//10
f 134//9 131//10 133//9
f 131//10 135//10 129//9
f 136//9 129//9 135//10
f 121//7 137//11 124//7
f 137//11 121//7 138//11
f 139//12 135//10 140//12
f 131//10 140//12 135//10
f 138//11 141//13 137//11
f 141//13 138//11 142//13
f 143//14 139//12 144//14
f 140//12 144//14 139//12
f 142//13 145//15 141//13
f 145//15 142//13 146//15
f 147//16 143//14 148//16
f 144//14 148//16 143//14
f 149//17 145//15 146//15
f 145//15 149//17 150//17
f 151//18 152//18 148//16
f 147//16 148//16 152//18
f 153//19 150//17 149//17
f 150//17 153//19 154//19
f 155//20 156//20 151//18
f 152//18 151//18 156//20
f 157//3 154//19 153//19
f 154//19 157//3 158//3
f 159//5 160//5 155//20
f 156//20 155//20 160//5
f 161//21 158//3 157//3
f 158//3 161//21 162//21
f 163//22 164//22 159//5
f 160//5 159//5 164//22
f 165//23 162//21 161//21
f 162//21 165//23 166//23
f 167//24 168//24 163//22
f 164//22 163//22 168//24
f 169//25 166//23 165//23
f 166//23 169//25 170//25
f 171//26 172//26 167//24
f 168//24 167//24 172//26
f 170//25 173//27 174//27
f 173//27 170//25 169//25
f 172//26 171//26 175//28
f 176//28 175//28 171//26
f 174//27 177//29 178//29
f 177//29 174//27 173//27
f 175//28 176//28 179//30
f 180//30 179//30 176//28
f 178//29 181//9 182//9
f 181//9 178//29 177//29
f 179//30 180//30 183//8
f 184//8 183//8 180//30
f 182//9 185//12 186//12
f 185//12 182//9 181//9
f 183//8 184//8 187//11
f 188//11 187//11 184//8
f 186//12 189//14 190//14
f 189//14 186//12 185//12
f 187//11 188//11 191//13
f 192//13 191//13 188//11
f 190//14 193//31 194//31
f 193//31 190//14 189//14
f 191//13 192//13 195//32
f 196//32 195//32 192//13
f 197//33 198//33 199//33
f 198//33 197//33 200//33
f 201//34 202//34 203//34
f 204//34 203//34 202//34
f 205//35 206//36 207//35
f 206//36 205//35 208//36
f 209//37 210//38 211//37
f 212//38 211//37 210//38
f 205//35 213//39 214//39
f 213//39 205//35 207//35
f 212//38 210//38 215//40
f 216//40 215//40 210//38
f 214//39 217//41 218//41
f 217//41 214//39 213//39
f 215//40 216//40 219//42
f 220//42 219//42 216//40
f 218//41 221//43 222//43
f 221//43 218//41 217//41
f 219//42 220//42 223//44
f 224//44 223//44 220//42
f 222//43 225//45 226//45
f 225//45 222//43 221//43
f 223//44 224//44 227//46
f 228//46 227//46 224//44
f 226//45 229//47 230//47
f 229//47 226//45 225//45
f 227//46 228//46 231//48
f 232//48 231//48 228//46
f 230//47 233//49 234//49
f 233//49 230//47 229//47
f 231//48 232//48 235//50
f 236//50 235//50 232//48
f 234//49 237//51 238//51
f 237//51 234//49 233//49
f 235//50 236//50 239//52
f 240//52 239//52 236//50
f 238//51 241//53 242//53
f 241//53 238//51 237//51
f 239//52 240//52 243//54
f 244//54 243//54 240//52
f 242//53 245//55 246//55
f 245//55 242//53 241//53
f 243//54 244//54 247//56
f 248//56 247//56 244//54
f 246//55 249//57 250//57
f 249//57 246//55 245//55
f 247//56 248//56 251//58
f 252//58 251//58 248//56
f 250//57 253//59 254//59
f 253//59 250//57 249//57
f 251//58 252//58 255//60
f 256//60 255//60 252//58
f 257//9 258//10 259//10
f 258//10 257//9 260//9
f 261//8 262//8 263//7
f 264//7 263//7 262//8
f 259//10 265//12 266//12
f 265//12 259//10 258//10
f 263//7 264//7 267//11
f 268//11 267//11 264//7
f 266//12 269//14 270//14
f 269//14 266//12 265//12
f 267//11 268//11 271//13
f 272//13 271//13 268//11
f 270//14 273//16 274//16
f 273//16 270//14 269//14
f 271//13 272//13 275//15
f 276//15 275//15 272//13
f 277//18 273//16 278//18
f 273//16 277//18 274//16
f 276//15 279//17 275//15
f 280//17 275//15 279//17
f 281//20 278//18 282//20
f 278//18 281//20 277//18
f 279//17 283//19 280//17
f 284//19 280//17 283//19
f 285//5 281//20 282//20
f 281//20 285//5 286//5
f 287//3 288//3 283//19
f 284//19 283//19 288//3
f 289//22 285//5 290//22
f 285//5 289//22 286//5
f 287//3 291//21 288//3
f 292//21 288//3 291//21
f 293//24 290//22 294//24
f 290//22 293//24 289//22
f 291//21 295//23 292//21
f 296//23 292//21 295//23
f 297//26 294//24 298//26
f 294//24 297//26 293//24
f 295//23 299//25 296//23
f 300//25 296//23 299//25
f 298//26 301//28 297//26
f 301//28 298//26 302//28
f 303//27 300//25 304//27
f 299//25 304//27 300//25
f 302//28 305//30 301//28
f 305//30 302//28 306//30
f 307//29 303//27 308//29
f 304//27 308//29 303//27
f 306//30 309//61 305//30
f 309//61 306//30 310//61
f 311//62 307//29 312//62
f 308//29 312//62 307//29
f 313//63 314//5 315//63
f 314//5 313//63 316//5
f 317//3 318//64 319//3
f 320//64 319//3 318//64
f 321//22 315//63 322//22
f 315//63 321//22 313//63
f 318//64 323//21 320//64
f 324//21 320//64 323//21
f 325//24 322//22 326//24
f 322//22 325//24 321//22
f 323//21 327//23 324//21
f 328//23 324//21 327//23
f 329//26 326//24 330//26
f 326//24 329//26 325//24
f 327//23 331//25 328//23
f 332//25 328//23 331//25
f 330//26 333//28 329//26
f 333//28 330//26 334//28
f 335//27 332//25 336//27
f 331//25 336//27 332//25
f 334//28 337//30 333//28
f 337//30 334//28 338//30
f 339//29 335//27 340//29
f 336//27 340//29 335//27
f 338//30 341//8 337//30
f 341//8 338//30 342//8
f 343//9 339//29 344//9
f 340//29 344//9 339//29
f 342//8 345//11 341//8
f 345//11 342//8 346//11
f 347//12 343//9 348//12
f 344//9 348//12 343//9
f 346//11 349//13 345//11
f 349//13 346//11 350//13
f 351//14 347//12 352//14
f 348//12 352//14 347//12
f 350//13 353//15 349//13
f 353//15 350//13 354//15
f 355//16 351//14 356//16
f 352//14 356//16 351//14
f 357//17 353//15 354//15
f 353//15 357//17 358//17
f 359//18 360//18 356//16
f 355//16 356//16 360//18
f 361//19 358//17 357//17
f 358//17 361//19 362//19
f 363//20 364//20 359//18
f 360//18 359//18 364//20
f 115//4 362//19 361//19
f 362//19 115//4 114//4
f 119//6 120//6 363//20
f 364//20 363//20 120//6
