# SSTK version 0.8.0
# 319
mtllib original-319.mtl
o #ID1763
v -0.268193 -0.313466 -0.201798
v -0.267307 -0.312066 -0.203013
v -0.267307 -0.313466 -0.203013
v -0.268193 -0.312066 -0.201798
v -0.269131 -0.313466 -0.200804
v -0.269131 -0.312066 -0.200804
v -0.264417 -0.312066 -0.207535
v -0.264417 -0.313466 -0.207535
v -0.270457 -0.312066 -0.199977
v -0.270457 -0.313466 -0.199977
v -0.264417 -0.312066 -0.207535
v -0.267182 -0.313466 -0.207535
v -0.264417 -0.313466 -0.207535
v -0.267182 -0.312066 -0.207535
v -0.269339 -0.312066 -0.199757
v -0.270457 -0.313466 -0.199977
v -0.269339 -0.313466 -0.199757
v -0.270457 -0.312066 -0.199977
v -0.26938 -0.312066 -0.204079
v -0.267182 -0.313466 -0.207535
v -0.267182 -0.312066 -0.207535
v -0.26938 -0.313466 -0.204079
v -0.268377 -0.313466 -0.199427
v -0.268377 -0.312066 -0.199427
v -0.270967 -0.312066 -0.20179
v -0.270967 -0.313466 -0.20179
v -0.267572 -0.312066 -0.198987
v -0.267572 -0.313466 -0.198987
v -0.272083 -0.313466 -0.200679
v -0.272083 -0.312066 -0.200679
v -0.266921 -0.312066 -0.198436
v -0.266921 -0.313466 -0.198436
v -0.273085 -0.312066 -0.200237
v -0.273085 -0.313466 -0.200237
v -0.266421 -0.313466 -0.197795
v -0.266421 -0.312066 -0.197795
v -0.274309 -0.313466 -0.200158
v -0.274309 -0.312066 -0.200158
v -0.266063 -0.313466 -0.197085
v -0.266063 -0.312066 -0.197085
v -0.276859 -0.313466 -0.200158
v -0.276859 -0.312066 -0.200158
v -0.265848 -0.313466 -0.196305
v -0.265848 -0.312066 -0.196305
v -0.276859 -0.313466 -0.200158
v -0.276859 -0.312066 -0.207535
v -0.276859 -0.313466 -0.207535
v -0.276859 -0.312066 -0.200158
v -0.265777 -0.313466 -0.195456
v -0.265777 -0.312066 -0.195456
v -0.276859 -0.312066 -0.207535
v -0.279057 -0.313466 -0.207535
v -0.276859 -0.313466 -0.207535
v -0.279057 -0.312066 -0.207535
v -0.26595 -0.313466 -0.194144
v -0.26595 -0.312066 -0.194144
v -0.279057 -0.312066 -0.190923
v -0.279057 -0.313466 -0.207535
v -0.279057 -0.312066 -0.207535
v -0.279057 -0.313466 -0.190923
v -0.266468 -0.313466 -0.192952
v -0.266468 -0.312066 -0.192952
v -0.279057 -0.312066 -0.190923
v -0.271692 -0.313466 -0.190923
v -0.279057 -0.313466 -0.190923
v -0.271692 -0.312066 -0.190923
v -0.267275 -0.313466 -0.19199
v -0.267275 -0.312066 -0.19199
v -0.269737 -0.313466 -0.191035
v -0.269737 -0.312066 -0.191035
v -0.268315 -0.312066 -0.191371
v -0.268315 -0.313466 -0.191371
vn -0.7692050838966878 0.0 -0.6390019866224903
vn -0.8256200616803896 0.0 -0.5642264738124838
vn -0.633658326953326 0.0 -0.7736130329064471
vn -0.8426164247937358 0.0 -0.5385142158456195
vn -0.5293470081630179 0.0 -0.8484054130831922
vn 0.0 0.0 1.0
vn -0.25927449309241685 0.0 0.9658036742690879
vn -0.19276670330999227 0.0 0.9812446168489269
vn 0.8330000714804021 0.0 0.5532728810574804
vn 0.8437753752109726 0.0 0.5366964842325526
vn -0.4035418036616012 0.0 0.9149612083020471
vn 0.7667707473022843 0.0 0.6419210396002738
vn -0.5659812219710944 0.0 0.8244181320034797
vn 0.5637873095727449 0.0 0.8259200140235892
vn -0.7210567302876677 0.0 0.6928760291039499
vn 0.2376049908763713 0.0 0.9713618627013517
vn -0.8446911426842676 0.0 0.5352540270476686
vn 0.032356489731407485 0.0 0.9994763917033065
vn -0.9332300037234711 0.0 0.3592795014334803
vn -0.9844998345508795 0.0 0.17538550615512902
vn -1.0 0.0 0.0
vn -0.9997243981524634 0.0 -0.02347610995661507
vn -0.9636326676250988 0.0 -0.26723039102193413
vn 1.0 0.0 0.0
vn -0.8503245107880926 0.0 -0.52625870667666
vn 0.0 0.0 -1.0
vn -0.028588089343538316 0.0 -0.9995912770466167
vn -0.6478259119571269 0.0 -0.7617884140605689
vn -0.14399579983811056 0.0 -0.9895782988874517
vn -0.3750116923233419 0.0 -0.9270200810234819
usemtl material_0_0
f 1//1 2//2 3//2
f 2//2 1//1 4//1
f 5//3 4//1 1//1
f 4//1 5//3 6//3
f 3//2 7//4 8//4
f 7//4 3//2 2//2
f 9//5 5//3 10//5
f 5//3 9//5 6//3
f 11//6 12//6 13//6
f 12//6 11//6 14//6
f 15//7 16//8 17//7
f 16//8 15//7 18//8
f 19//9 20//10 21//10
f 20//10 19//9 22//9
f 23//11 15//7 17//7
f 15//7 23//11 24//11
f 25//12 22//9 19//9
f 22//9 25//12 26//12
f 27//13 23//11 28//13
f 23//11 27//13 24//11
f 25//12 29//14 26//12
f 29//14 25//12 30//14
f 31//15 28//13 32//15
f 28//13 31//15 27//13
f 29//14 33//16 34//16
f 33//16 29//14 30//14
f 35//17 31//15 32//15
f 31//15 35//17 36//17
f 33//16 37//18 34//16
f 37//18 33//16 38//18
f 39//19 36//17 35//17
f 36//17 39//19 40//19
f 38//18 41//6 37//18
f 41//6 38//18 42//6
f 43//20 40//19 39//19
f 40//19 43//20 44//20
f 45//21 46//21 47//21
f 46//21 45//21 48//21
f 49//22 44//20 43//20
f 44//20 49//22 50//22
f 51//6 52//6 53//6
f 52//6 51//6 54//6
f 55//23 50//22 49//22
f 50//22 55//23 56//23
f 57//24 58//24 59//24
f 58//24 57//24 60//24
f 61//25 56//23 55//23
f 56//23 61//25 62//25
f 63//26 64//27 65//26
f 64//27 63//26 66//27
f 67//28 62//25 61//25
f 62//25 67//28 68//28
f 66//27 69//29 64//27
f 69//29 66//27 70//29
f 71//30 67//28 72//30
f 67//28 71//30 68//28
f 70//29 72//30 69//29
f 72//30 70//29 71//30
