# SSTK version 0.8.0
# 687
mtllib original-687.mtl
o #ID4200
v 0.053362 -0.185784 0.549814
v 0.053405 -0.189075 0.549814
v 0.053169 -0.187542 0.549814
v 0.054004 -0.184135 0.549814
v 0.064379 -0.182316 0.549814
v 0.05505 -0.182708 0.549814
v 0.056431 -0.181601 0.549814
v 0.05805 -0.180889 0.549814
v 0.059799 -0.18062 0.549814
v 0.061558 -0.180814 0.549814
v 0.063206 -0.181455 0.549814
v 0.063206 -0.181455 0.549814
v 0.061558 -0.180814 0.549814
v 0.064379 -0.182316 0.549814
v 0.059799 -0.18062 0.549814
v 0.05805 -0.180889 0.549814
v 0.056431 -0.181601 0.549814
v 0.05505 -0.182708 0.549814
v 0.054004 -0.184135 0.549814
v 0.053405 -0.189075 0.549814
v 0.053362 -0.185784 0.549814
v 0.053169 -0.187542 0.549814
vn 0.0 0.0 -1.0
vn 0.0 0.0 1.0
usemtl material_0_0
f 1//1 2//1 3//1
f 2//1 1//1 4//1
f 2//1 4//1 5//1
f 5//1 4//1 6//1
f 5//1 6//1 7//1
f 5//1 7//1 8//1
f 5//1 8//1 9//1
f 5//1 9//1 10//1
f 5//1 10//1 11//1
usemtl material_1_0
f 12//2 13//2 14//2
f 13//2 15//2 14//2
f 15//2 16//2 14//2
f 16//2 17//2 14//2
f 17//2 18//2 14//2
f 18//2 19//2 14//2
f 14//2 19//2 20//2
f 19//2 21//2 20//2
f 22//2 20//2 21//2
