# SSTK version 0.8.0
# 159
mtllib original-159.mtl
o #ID799
v 0.121554 0.381994 0.050062
v 0.114172 0.381994 0.050062
v 0.117863 0.381622 0.04975
v 0.124994 0.383085 0.050978
v 0.110732 0.383085 0.050978
v 0.127948 0.384822 0.052435
v 0.117863 0.3839 0.051662
v 0.120785 0.384195 0.051909
v 0.123507 0.385058 0.052634
v 0.130215 0.387084 0.054334
v 0.125845 0.386433 0.053787
v 0.127639 0.388224 0.05529
v 0.13164 0.389719 0.056545
v 0.128767 0.390309 0.05704
v 0.132126 0.392547 0.058918
v 0.129151 0.392547 0.058918
v 0.13164 0.395375 0.061291
v 0.128767 0.394785 0.060796
v 0.127639 0.396871 0.062546
v 0.130215 0.39801 0.063502
v 0.125845 0.398662 0.064049
v 0.127948 0.400273 0.0654
v 0.123507 0.400036 0.065202
v 0.120785 0.4009 0.065926
v 0.124994 0.402009 0.066857
v 0.117863 0.401195 0.066174
v 0.107778 0.384822 0.052435
v 0.114941 0.384195 0.051909
v 0.112219 0.385058 0.052634
v 0.105511 0.387084 0.054334
v 0.109881 0.386433 0.053787
v 0.108087 0.388224 0.05529
v 0.104087 0.389719 0.056545
v 0.106959 0.390309 0.05704
v 0.103601 0.392547 0.058918
v 0.106575 0.392547 0.058918
v 0.106959 0.394785 0.060796
v 0.104087 0.395375 0.061291
v 0.108087 0.396871 0.062546
v 0.105511 0.39801 0.063502
v 0.109881 0.398662 0.064049
v 0.107778 0.400273 0.0654
v 0.112219 0.400036 0.065202
v 0.114941 0.4009 0.065926
v 0.110732 0.402009 0.066857
v 0.121554 0.403101 0.067773
v 0.114172 0.403101 0.067773
v 0.117863 0.403473 0.068086
v 0.117863 0.403473 0.068086
v 0.121554 0.403101 0.067773
v 0.114172 0.403101 0.067773
v 0.110732 0.402009 0.066857
v 0.124994 0.402009 0.066857
v 0.117863 0.401195 0.066174
v 0.114941 0.4009 0.065926
v 0.107778 0.400273 0.0654
v 0.112219 0.400036 0.065202
v 0.109881 0.398662 0.064049
v 0.105511 0.39801 0.063502
v 0.108087 0.396871 0.062546
v 0.104087 0.395375 0.061291
v 0.106959 0.394785 0.060796
v 0.103601 0.392547 0.058918
v 0.106575 0.392547 0.058918
v 0.106959 0.390309 0.05704
v 0.104087 0.389719 0.056545
v 0.108087 0.388224 0.05529
v 0.105511 0.387084 0.054334
v 0.109881 0.386433 0.053787
v 0.112219 0.385058 0.052634
v 0.107778 0.384822 0.052435
v 0.114941 0.384195 0.051909
v 0.117863 0.3839 0.051662
v 0.110732 0.383085 0.050978
v 0.120785 0.4009 0.065926
v 0.127948 0.400273 0.0654
v 0.123507 0.400036 0.065202
v 0.125845 0.398662 0.064049
v 0.130215 0.39801 0.063502
v 0.127639 0.396871 0.062546
v 0.13164 0.395375 0.061291
v 0.128767 0.394785 0.060796
v 0.129151 0.392547 0.058918
v 0.132126 0.392547 0.058918
v 0.128767 0.390309 0.05704
v 0.13164 0.389719 0.056545
v 0.127639 0.388224 0.05529
v 0.130215 0.387084 0.054334
v 0.125845 0.386433 0.053787
v 0.123507 0.385058 0.052634
v 0.127948 0.384822 0.052435
v 0.120785 0.384195 0.051909
v 0.124994 0.383085 0.050978
v 0.114172 0.381994 0.050062
v 0.121554 0.381994 0.050062
v 0.117863 0.381622 0.04975
vn 0.0 -0.6427875875138863 0.7660444617240425
vn 0.0 0.6427875875138863 -0.7660444617240425
usemtl material_0_0
f 49//2 50//2 51//2
f 51//2 50//2 52//2
f 50//2 53//2 52//2
f 53//2 54//2 52//2
f 54//2 55//2 52//2
f 52//2 55//2 56//2
f 55//2 57//2 56//2
f 57//2 58//2 56//2
f 56//2 58//2 59//2
f 58//2 60//2 59//2
f 59//2 60//2 61//2
f 60//2 62//2 61//2
f 61//2 62//2 63//2
f 62//2 64//2 63//2
f 64//2 65//2 63//2
f 63//2 65//2 66//2
f 65//2 67//2 66//2
f 66//2 67//2 68//2
f 67//2 69//2 68//2
f 69//2 70//2 68//2
f 68//2 70//2 71//2
f 70//2 72//2 71//2
f 72//2 73//2 71//2
f 74//2 71//2 73//2
f 54//2 53//2 75//2
f 53//2 76//2 75//2
f 75//2 76//2 77//2
f 77//2 76//2 78//2
f 76//2 79//2 78//2
f 78//2 79//2 80//2
f 79//2 81//2 80//2
f 80//2 81//2 82//2
f 82//2 81//2 83//2
f 81//2 84//2 83//2
f 83//2 84//2 85//2
f 84//2 86//2 85//2
f 85//2 86//2 87//2
f 86//2 88//2 87//2
f 87//2 88//2 89//2
f 89//2 88//2 90//2
f 88//2 91//2 90//2
f 90//2 91//2 92//2
f 92//2 91//2 73//2
f 73//2 91//2 74//2
f 91//2 93//2 74//2
f 74//2 93//2 94//2
f 93//2 95//2 94//2
f 96//2 94//2 95//2
usemtl material_1_0
f 1//1 2//1 3//1
f 2//1 1//1 4//1
f 2//1 4//1 5//1
f 5//1 4//1 6//1
f 5//1 6//1 7//1
f 7//1 6//1 8//1
f 8//1 6//1 9//1
f 9//1 6//1 10//1
f 9//1 10//1 11//1
f 11//1 10//1 12//1
f 12//1 10//1 13//1
f 12//1 13//1 14//1
f 14//1 13//1 15//1
f 14//1 15//1 16//1
f 16//1 15//1 17//1
f 16//1 17//1 18//1
f 18//1 17//1 19//1
f 19//1 17//1 20//1
f 19//1 20//1 21//1
f 21//1 20//1 22//1
f 21//1 22//1 23//1
f 23//1 22//1 24//1
f 24//1 22//1 25//1
f 24//1 25//1 26//1
f 7//1 27//1 5//1
f 27//1 7//1 28//1
f 27//1 28//1 29//1
f 27//1 29//1 30//1
f 30//1 29//1 31//1
f 30//1 31//1 32//1
f 30//1 32//1 33//1
f 33//1 32//1 34//1
f 33//1 34//1 35//1
f 35//1 34//1 36//1
f 35//1 36//1 37//1
f 35//1 37//1 38//1
f 38//1 37//1 39//1
f 38//1 39//1 40//1
f 40//1 39//1 41//1
f 40//1 41//1 42//1
f 42//1 41//1 43//1
f 42//1 43//1 44//1
f 42//1 44//1 45//1
f 45//1 44//1 26//1
f 45//1 26//1 25//1
f 45//1 25//1 46//1
f 45//1 46//1 47//1
f 47//1 46//1 48//1
