# SSTK version 0.8.0
# 250
mtllib original-250.mtl
o #ID1397
v -0.193737 -0.017748 -0.472219
v -0.19073 -0.017059 -0.471922
v -0.191627 -0.017748 -0.471922
v -0.194084 -0.017146 -0.472377
v -0.192159 -0.015669 -0.472377
v -0.19212 -0.015669 -0.472372
v -0.190041 -0.017748 -0.471657
v -0.195536 -0.017748 -0.472377
v -0.194937 -0.015669 -0.472694
v -0.189663 -0.015669 -0.471922
v -0.187214 -0.015685 -0.471386
v -0.188796 -0.017748 -0.471386
v -0.187685 -0.015669 -0.471491
v -0.187685 -0.015413 -0.471534
v -0.196361 -0.017748 -0.472436
v -0.196361 -0.015935 -0.47275
v -0.195718 -0.015669 -0.47275
v -0.185879 -0.012463 -0.471386
v -0.187685 -0.011979 -0.471895
v -0.185529 -0.016658 -0.470768
v -0.186365 -0.017748 -0.470768
v -0.196361 -0.015669 -0.472785
v -0.185424 -0.009005 -0.471386
v -0.187685 -0.011217 -0.471922
v -0.187393 -0.009005 -0.471922
v -0.185353 -0.016235 -0.470768
v -0.185353 -0.012604 -0.471213
v -0.185353 -0.016759 -0.470695
v -0.185353 -0.017748 -0.470474
v -0.187685 -0.009005 -0.471989
v -0.187685 -0.006792 -0.471922
v -0.185879 -0.005547 -0.471386
v -0.187685 -0.006031 -0.471895
v -0.185353 -0.009005 -0.471364
v -0.187685 -0.002597 -0.471534
v -0.187214 -0.002325 -0.471386
v -0.185353 -0.005406 -0.471213
v -0.187685 -0.001711 -0.471386
v -0.185353 -0.001774 -0.470768
v -0.185529 -0.001352 -0.470768
v -0.187685 -0.000131 -0.471078
v -0.186465 -0.000131 -0.470768
v -0.185353 -0.001251 -0.470695
v -0.185353 -0.000131 -0.470445
vn 0.11141101262742513 -0.1929695180663979 -0.9748591443703823
vn 0.1728979109202178 -0.17289791242422742 -0.9696456178825172
vn 0.14906540104099203 -0.19426580067010862 -0.9695567569268391
vn 0.10214990433460786 -0.17692880368701372 -0.978908369292199
vn 0.12291260761673768 -0.16018280923281325 -0.979404900189466
vn 0.16048110962216844 -0.15463411104830282 -0.9748508117423603
vn 0.18587690028008888 -0.18587690177663113 -0.9648313610824363
vn 0.07819220572814488 -0.18877270503299368 -0.9789028781232048
vn 0.09119735732633115 -0.15795840885198034 -0.9832253979071351
vn 0.19426579916623685 -0.14906540254486383 -0.9695567569969492
vn 0.24622000562260865 -0.14215520775230803 -0.9587322909655756
vn 0.22608191675163308 -0.17347871600241385 -0.9585364374983673
vn 0.2102222104970416 -0.1613091112218782 -0.9642541121771507
vn 0.2276517033651015 -0.13143480647760125 -0.9648313809164601
vn 0.07038145078795575 -0.1699158172121629 -0.9829420463313722
vn 0.06253820444111248 -0.15098060185704948 -0.9865565522807928
vn 0.2746227077904695 -0.07358495880361336 -0.9587322995517054
vn 0.2539125022227522 -0.06803566735447335 -0.9648313786266555
vn 0.28026250090636395 -0.1618097049704196 -0.9461873757153476
vn 0.25749491108099704 -0.1975828116095573 -0.9458633111205084
vn 0.05466787574356419 -0.13197990497280895 -0.9897437688841765
vn 0.28431040336010177 -2.371195955056215e-08 -0.9587322851251103
vn 0.2427717982336006 -0.031961527544007516 -0.9695567619997696
vn 0.24451460976578887 -2.3981847452452572e-08 -0.9696456082564824
vn 0.29985911933357634 -0.12420571360349128 -0.9458633354035558
vn 0.29216270555371887 -0.07828478816523665 -0.9531591920689089
vn 0.29579369532253647 -0.17077660171686831 -0.9398624591468034
vn 0.27303461681220986 -0.20950681598444393 -0.9389137298379816
vn 0.22282201745321736 -2.4110788231600558e-08 -0.9748591429217236
vn 0.24277179846638114 0.031961480119499654 -0.9695567635048347
vn 0.2746227083967123 0.07358491170577576 -0.9587323029929198
vn 0.25391250274100513 0.06803562012325642 -0.9648313818208044
vn 0.30246910453063097 -2.357413275907982e-08 -0.9531591896448554
vn 0.2276517033651015 0.1314347891075183 -0.9648313832827111
vn 0.2462200056226086 0.14215519049202835 -0.9587322935248282
vn 0.2921627062398755 0.07828474118914604 -0.9531591957168228
vn 0.22608191675163308 0.1734786987456602 -0.9585364406215447
vn 0.2998591193335763 0.12420569657489443 -0.9458633376396599
vn 0.28026250544128156 0.1618095905542264 -0.9461873939386688
vn 0.24184389950449703 0.18557328560172615 -0.9524043699728802
vn 0.2574949161686526 0.19758269848485274 -0.945863333366265
vn 0.2957937003739988 0.1707764877127723 -0.9398624782719791
vn 0.2730346168122098 0.20950679908096237 -0.9389137336097809
usemtl material_0_0
f 1//1 2//2 3//3
f 2//2 1//1 4//4
f 2//2 4//4 5//5
f 2//2 5//5 6//6
f 2//2 7//7 3//3
f 4//4 1//1 8//8
f 9//9 5//5 4//4
f 6//6 10//10 2//2
f 7//7 11//11 12//12
f 11//11 7//7 2//2
f 11//11 2//2 10//10
f 11//11 10//10 13//13
f 14//14 11//11 13//13
f 15//15 4//4 8//8
f 4//4 15//15 16//16
f 4//4 16//16 9//9
f 9//9 16//16 17//16
f 14//14 18//17 11//11
f 18//17 14//14 19//18
f 12//12 20//19 21//20
f 20//19 12//12 11//11
f 22//21 17//16 16//16
f 19//18 23//22 18//17
f 23//22 19//18 24//23
f 23//22 24//23 25//24
f 11//11 26//25 20//19
f 26//25 11//11 27//26
f 27//26 11//11 18//17
f 21//20 28//27 29//28
f 28//27 21//20 20//19
f 25//24 24//23 30//29
f 31//30 23//22 25//24
f 23//22 31//30 32//31
f 32//31 31//30 33//32
f 18//17 34//33 27//26
f 34//33 18//17 23//22
f 26//25 28//27 20//19
f 31//30 25//24 30//29
f 35//34 32//31 33//32
f 32//31 35//34 36//35
f 32//31 34//33 23//22
f 34//33 32//31 37//36
f 38//37 36//35 35//34
f 36//35 37//36 32//31
f 37//36 36//35 39//38
f 39//38 36//35 40//39
f 38//37 40//39 36//35
f 40//39 38//37 41//40
f 40//39 41//40 42//41
f 43//42 39//38 40//39
f 42//41 43//42 40//39
f 43//42 42//41 44//43
