# SSTK version 0.8.0
# 661
mtllib original-661.mtl
o #ID4467
v -0.029233 -0.049885 0.546663
v -0.022705 -0.048136 0.546663
v -0.027602 -0.010937 0.546663
v -0.014199 -0.086179 0.546663
v -0.008347 -0.0828 0.546663
v 0.009715 -0.117345 0.546663
v 0.014494 -0.112566 0.546663
v 0.040882 -0.141259 0.546663
v 0.044261 -0.135407 0.546663
v 0.077175 -0.156293 0.546663
v 0.078924 -0.149765 0.546663
v 0.116123 -0.161421 0.546663
v 0.116123 -0.154662 0.546663
v 0.153322 -0.149765 0.546663
v 0.155071 -0.156293 0.546663
v 0.187986 -0.135407 0.546663
v 0.191365 -0.141259 0.546663
v 0.217753 -0.112566 0.546663
v 0.222531 -0.117345 0.546663
v 0.240594 -0.0828 0.546663
v 0.246446 -0.086179 0.546663
v 0.254952 -0.048136 0.546663
v 0.26148 -0.049885 0.546663
v 0.259849 -0.010937 0.546663
v 0.26148 0.028011 0.546663
v 0.266607 -0.010937 0.546663
v -0.029233 0.028011 0.546663
v -0.03436 -0.010937 0.546663
v -0.022705 0.026262 0.546663
v -0.014199 0.064305 0.546663
v -0.008347 0.060926 0.546663
v 0.009715 0.095471 0.546663
v 0.014494 0.090693 0.546663
v 0.040882 0.119386 0.546663
v 0.044261 0.113533 0.546663
v 0.077175 0.134419 0.546663
v 0.078924 0.127891 0.546663
v 0.116123 0.139547 0.546663
v 0.116123 0.132789 0.546663
v 0.155071 0.134419 0.546663
v 0.153322 0.127891 0.546663
v 0.187986 0.113533 0.546663
v 0.191365 0.119386 0.546663
v 0.217753 0.090693 0.546663
v 0.222531 0.095471 0.546663
v 0.240594 0.060926 0.546663
v 0.246446 0.064305 0.546663
v 0.254952 0.026262 0.546663
v 0.259849 -0.010937 0.546663
v 0.254952 0.026262 0.546663
v 0.26148 0.028011 0.546663
v 0.246446 0.064305 0.546663
v 0.240594 0.060926 0.546663
v 0.222531 0.095471 0.546663
v 0.217753 0.090693 0.546663
v 0.191365 0.119386 0.546663
v 0.187986 0.113533 0.546663
v 0.155071 0.134419 0.546663
v 0.153322 0.127891 0.546663
v 0.116123 0.132789 0.546663
v 0.116123 0.139547 0.546663
v 0.078924 0.127891 0.546663
v 0.077175 0.134419 0.546663
v 0.044261 0.113533 0.546663
v 0.040882 0.119386 0.546663
v 0.014494 0.090693 0.546663
v 0.009715 0.095471 0.546663
v -0.008347 0.060926 0.546663
v -0.014199 0.064305 0.546663
v -0.022705 0.026262 0.546663
v -0.029233 0.028011 0.546663
v -0.027602 -0.010937 0.546663
v -0.029233 -0.049885 0.546663
v -0.03436 -0.010937 0.546663
v 0.266607 -0.010937 0.546663
v 0.26148 -0.049885 0.546663
v 0.254952 -0.048136 0.546663
v 0.246446 -0.086179 0.546663
v 0.240594 -0.0828 0.546663
v 0.222531 -0.117345 0.546663
v 0.217753 -0.112566 0.546663
v 0.191365 -0.141259 0.546663
v 0.187986 -0.135407 0.546663
v 0.155071 -0.156293 0.546663
v 0.153322 -0.149765 0.546663
v 0.116123 -0.161421 0.546663
v 0.116123 -0.154662 0.546663
v 0.078924 -0.149765 0.546663
v 0.077175 -0.156293 0.546663
v 0.044261 -0.135407 0.546663
v 0.040882 -0.141259 0.546663
v 0.014494 -0.112566 0.546663
v 0.009715 -0.117345 0.546663
v -0.008347 -0.0828 0.546663
v -0.014199 -0.086179 0.546663
v -0.022705 -0.048136 0.546663
v 0.116123 0.139547 0.549814
v 0.077175 0.134419 0.546663
v 0.116123 0.139547 0.546663
v 0.077175 0.134419 0.549814
v 0.077175 0.134419 0.549814
v 0.116123 0.139547 0.549814
v 0.077175 0.134419 0.546663
v 0.116123 0.139547 0.546663
v 0.040882 0.119386 0.546663
v 0.040882 0.119386 0.549814
v 0.040882 0.119386 0.549814
v 0.040882 0.119386 0.546663
v 0.009715 0.095471 0.546663
v 0.009715 0.095471 0.549814
v 0.009715 0.095471 0.549814
v 0.009715 0.095471 0.546663
v -0.014199 0.064305 0.549814
v -0.014199 0.064305 0.546663
v -0.014199 0.064305 0.549814
v -0.014199 0.064305 0.546663
v -0.029233 0.028011 0.549814
v -0.029233 0.028011 0.546663
v -0.029233 0.028011 0.549814
v -0.029233 0.028011 0.546663
v -0.03436 -0.010937 0.549814
v -0.03436 -0.010937 0.546663
v -0.03436 -0.010937 0.549814
v -0.03436 -0.010937 0.546663
v -0.029233 -0.049885 0.549814
v -0.029233 -0.049885 0.546663
v -0.029233 -0.049885 0.549814
v -0.029233 -0.049885 0.546663
v -0.014199 -0.086179 0.549814
v -0.014199 -0.086179 0.546663
v -0.014199 -0.086179 0.549814
v -0.014199 -0.086179 0.546663
v 0.009715 -0.117345 0.549814
v 0.009715 -0.117345 0.546663
v 0.009715 -0.117345 0.549814
v 0.009715 -0.117345 0.546663
v 0.040882 -0.141259 0.546663
v 0.040882 -0.141259 0.549814
v 0.040882 -0.141259 0.549814
v 0.040882 -0.141259 0.546663
v 0.077175 -0.156293 0.546663
v 0.077175 -0.156293 0.549814
v 0.077175 -0.156293 0.549814
v 0.077175 -0.156293 0.546663
v 0.116123 -0.161421 0.546663
v 0.116123 -0.161421 0.549814
v 0.116123 -0.161421 0.549814
v 0.116123 -0.161421 0.546663
v 0.155071 -0.156293 0.549814
v 0.155071 -0.156293 0.546663
v 0.155071 -0.156293 0.549814
v 0.155071 -0.156293 0.546663
v 0.191365 -0.141259 0.549814
v 0.191365 -0.141259 0.546663
v 0.191365 -0.141259 0.549814
v 0.191365 -0.141259 0.546663
v 0.222531 -0.117345 0.549814
v 0.222531 -0.117345 0.546663
v 0.222531 -0.117345 0.549814
v 0.222531 -0.117345 0.546663
v 0.246446 -0.086179 0.546663
v 0.246446 -0.086179 0.549814
v 0.246446 -0.086179 0.549814
v 0.246446 -0.086179 0.546663
v 0.26148 -0.049885 0.546663
v 0.26148 -0.049885 0.549814
v 0.26148 -0.049885 0.549814
v 0.26148 -0.049885 0.546663
v 0.266607 -0.010937 0.546663
v 0.266607 -0.010937 0.549814
v 0.266607 -0.010937 0.549814
v 0.266607 -0.010937 0.546663
v 0.26148 0.028011 0.546663
v 0.26148 0.028011 0.549814
v 0.26148 0.028011 0.549814
v 0.26148 0.028011 0.546663
v 0.246446 0.064305 0.546663
v 0.246446 0.064305 0.549814
v 0.246446 0.064305 0.549814
v 0.246446 0.064305 0.546663
v 0.222531 0.095471 0.546663
v 0.222531 0.095471 0.549814
v 0.222531 0.095471 0.549814
v 0.222531 0.095471 0.546663
v 0.191365 0.119386 0.549814
v 0.191365 0.119386 0.546663
v 0.191365 0.119386 0.549814
v 0.191365 0.119386 0.546663
v 0.155071 0.134419 0.549814
v 0.155071 0.134419 0.546663
v 0.155071 0.134419 0.549814
v 0.155071 0.134419 0.546663
vt 0.7425306 0.348205
vt 0.7379028 0.395084
vt 0.7440713 0.3972882
vt 0.7298654 0.4430265
vt 0.724335 0.4387682
vt 0.7072672 0.4823029
vt 0.7027516 0.4762807
vt 0.6778166 0.5124407
vt 0.6746236 0.5050651
vt 0.6435207 0.5313862
vt 0.6418678 0.5231597
vt 0.6067166 0.5293314
vt 0.6067166 0.5378481
vt 0.5715654 0.5231597
vt 0.5699125 0.5313862
vt 0.5388096 0.5050651
vt 0.5356166 0.5124407
vt 0.5106816 0.4762807
vt 0.506166 0.4823029
vt 0.4890982 0.4387682
vt 0.4835678 0.4430265
vt 0.4755304 0.395084
vt 0.4693619 0.3972882
vt 0.4709026 0.348205
vt 0.4693619 0.2991217
vt 0.4645166 0.348205
vt 0.7489166 0.348205
vt 0.7440713 0.2991217
vt 0.7379028 0.301326
vt 0.7298654 0.2533834
vt 0.724335 0.2576417
vt 0.7072672 0.214107
vt 0.7027516 0.2201292
vt 0.6778166 0.1839692
vt 0.6746236 0.1913449
vt 0.6435207 0.1650238
vt 0.6418678 0.1732503
vt 0.6067166 0.1585619
vt 0.6067166 0.1670785
vt 0.5715654 0.1732503
vt 0.5699125 0.1650238
vt 0.5388096 0.1913449
vt 0.5356166 0.1839692
vt 0.5106816 0.2201292
vt 0.506166 0.214107
vt 0.4890982 0.2576417
vt 0.4835678 0.2533834
vt 0.4755304 0.301326
vn 0.0 0.0 1.0
vn 0.0 -1.0 0.0
vn 0.25881900959356163 -0.9659258358036645 0.0
vn 0.5000000016387101 -0.8660254028383291 0.0
vn 0.7071067811865475 -0.7071067811865475 0.0
vn 0.8660254028383291 -0.5000000016387101 0.0
vn 0.9659258358036645 -0.25881900959356163 0.0
vn 1.0 0.0 0.0
vn 0.9659258358036645 0.25881900959356163 0.0
vn 0.8660254028383291 0.5000000016387101 0.0
vn 0.7071067811865475 0.7071067811865475 0.0
vn 0.5000000016387101 0.8660254028383291 0.0
vn 0.25881900959356163 0.9659258358036645 0.0
vn 0.0 1.0 0.0
vn -0.25881900959356163 0.9659258358036645 0.0
vn -0.5000000016387101 0.8660254028383291 0.0
vn -0.7071067811865475 0.7071067811865475 0.0
vn -0.8660254028383291 0.5000000016387101 0.0
vn -0.9659258358036645 0.25881900959356163 0.0
vn -1.0 0.0 0.0
vn -0.9659258358036645 -0.25881900959356163 0.0
vn -0.8660254028383291 -0.5000000016387101 0.0
vn -0.7071067811865475 -0.7071067811865475 0.0
vn -0.5000000016387101 -0.8660254028383291 0.0
vn -0.25881900959356163 -0.9659258358036645 0.0
vn 0.0 0.0 -1.0
usemtl material_0_0
f 1//1 2//1 3//1
f 2//1 1//1 4//1
f 2//1 4//1 5//1
f 5//1 4//1 6//1
f 5//1 6//1 7//1
f 7//1 6//1 8//1
f 7//1 8//1 9//1
f 9//1 8//1 10//1
f 9//1 10//1 11//1
f 11//1 10//1 12//1
f 11//1 12//1 13//1
f 13//1 12//1 14//1
f 14//1 12//1 15//1
f 14//1 15//1 16//1
f 16//1 15//1 17//1
f 16//1 17//1 18//1
f 18//1 17//1 19//1
f 18//1 19//1 20//1
f 20//1 19//1 21//1
f 20//1 21//1 22//1
f 22//1 21//1 23//1
f 22//1 23//1 24//1
f 24//1 23//1 25//1
f 25//1 23//1 26//1
f 1//1 27//1 28//1
f 27//1 1//1 3//1
f 27//1 3//1 29//1
f 27//1 29//1 30//1
f 30//1 29//1 31//1
f 30//1 31//1 32//1
f 32//1 31//1 33//1
f 32//1 33//1 34//1
f 34//1 33//1 35//1
f 34//1 35//1 36//1
f 36//1 35//1 37//1
f 36//1 37//1 38//1
f 38//1 37//1 39//1
f 38//1 39//1 40//1
f 40//1 39//1 41//1
f 40//1 41//1 42//1
f 40//1 42//1 43//1
f 43//1 42//1 44//1
f 43//1 44//1 45//1
f 45//1 44//1 46//1
f 45//1 46//1 47//1
f 47//1 46//1 48//1
f 47//1 48//1 25//1
f 25//1 48//1 24//1
f 97//2 98//3 99//2
f 98//3 97//2 100//3
f 100//3 105//4 98//3
f 105//4 100//3 106//4
f 106//4 109//5 105//4
f 109//5 106//4 110//5
f 109//5 113//6 114//6
f 113//6 109//5 110//5
f 114//6 117//7 118//7
f 117//7 114//6 113//6
f 118//7 121//8 122//8
f 121//8 118//7 117//7
f 122//8 125//9 126//9
f 125//9 122//8 121//8
f 126//9 129//10 130//10
f 129//10 126//9 125//9
f 130//10 133//11 134//11
f 133//11 130//10 129//10
f 133//11 137//12 134//11
f 137//12 133//11 138//12
f 138//12 141//13 137//12
f 141//13 138//12 142//13
f 142//13 145//14 141//13
f 145//14 142//13 146//14
f 145//14 149//15 150//15
f 149//15 145//14 146//14
f 150//15 153//16 154//16
f 153//16 150//15 149//15
f 154//16 157//17 158//17
f 157//17 154//16 153//16
f 157//17 161//18 158//17
f 161//18 157//17 162//18
f 162//18 165//19 161//18
f 165//19 162//18 166//19
f 166//19 169//20 165//19
f 169//20 166//19 170//20
f 170//20 173//21 169//20
f 173//21 170//20 174//21
f 174//21 177//22 173//21
f 177//22 174//21 178//22
f 178//22 181//23 177//22
f 181//23 178//22 182//23
f 181//23 185//24 186//24
f 185//24 181//23 182//23
f 186//24 189//25 190//25
f 189//25 186//24 185//24
f 190//25 97//2 99//2
f 97//2 190//25 189//25
usemtl material_1_0
f 49/1/26 50/2/26 51/3/26
f 51/3/26 50/2/26 52/4/26
f 50/2/26 53/5/26 52/4/26
f 52/4/26 53/5/26 54/6/26
f 53/5/26 55/7/26 54/6/26
f 54/6/26 55/7/26 56/8/26
f 55/7/26 57/9/26 56/8/26
f 56/8/26 57/9/26 58/10/26
f 57/9/26 59/11/26 58/10/26
f 59/11/26 60/12/26 58/10/26
f 58/10/26 60/12/26 61/13/26
f 60/12/26 62/14/26 61/13/26
f 61/13/26 62/14/26 63/15/26
f 62/14/26 64/16/26 63/15/26
f 63/15/26 64/16/26 65/17/26
f 64/16/26 66/18/26 65/17/26
f 65/17/26 66/18/26 67/19/26
f 66/18/26 68/20/26 67/19/26
f 67/19/26 68/20/26 69/21/26
f 68/20/26 70/22/26 69/21/26
f 69/21/26 70/22/26 71/23/26
f 70/22/26 72/24/26 71/23/26
f 72/24/26 73/25/26 71/23/26
f 74/26/26 71/23/26 73/25/26
f 75/27/26 76/28/26 51/3/26
f 51/3/26 76/28/26 49/1/26
f 49/1/26 76/28/26 77/29/26
f 76/28/26 78/30/26 77/29/26
f 77/29/26 78/30/26 79/31/26
f 78/30/26 80/32/26 79/31/26
f 79/31/26 80/32/26 81/33/26
f 80/32/26 82/34/26 81/33/26
f 81/33/26 82/34/26 83/35/26
f 82/34/26 84/36/26 83/35/26
f 83/35/26 84/36/26 85/37/26
f 84/36/26 86/38/26 85/37/26
f 85/37/26 86/38/26 87/39/26
f 87/39/26 86/38/26 88/40/26
f 86/38/26 89/41/26 88/40/26
f 88/40/26 89/41/26 90/42/26
f 89/41/26 91/43/26 90/42/26
f 90/42/26 91/43/26 92/44/26
f 91/43/26 93/45/26 92/44/26
f 92/44/26 93/45/26 94/46/26
f 93/45/26 95/47/26 94/46/26
f 94/46/26 95/47/26 96/48/26
f 95/47/26 73/25/26 96/48/26
f 72/24/26 96/48/26 73/25/26
f 101/15/15 102/13/14 103/15/15
f 104/13/14 103/15/15 102/13/14
f 107/17/16 101/15/15 108/17/16
f 103/15/15 108/17/16 101/15/15
f 111/19/17 107/17/16 112/19/17
f 108/17/16 112/19/17 107/17/16
f 111/19/17 112/19/17 115/21/18
f 116/21/18 115/21/18 112/19/17
f 115/21/18 116/21/18 119/23/19
f 120/23/19 119/23/19 116/21/18
f 119/23/19 120/23/19 123/26/20
f 124/26/20 123/26/20 120/23/19
f 123/26/20 124/26/20 127/25/21
f 128/25/21 127/25/21 124/26/20
f 127/25/21 128/25/21 131/47/22
f 132/47/22 131/47/22 128/25/21
f 131/47/22 132/47/22 135/45/23
f 136/45/23 135/45/23 132/47/22
f 139/43/24 135/45/23 140/43/24
f 136/45/23 140/43/24 135/45/23
f 143/41/25 139/43/24 144/41/25
f 140/43/24 144/41/25 139/43/24
f 147/38/2 143/41/25 148/38/2
f 144/41/25 148/38/2 143/41/25
f 147/38/2 148/38/2 151/36/3
f 152/36/3 151/36/3 148/38/2
f 151/36/3 152/36/3 155/34/4
f 156/34/4 155/34/4 152/36/3
f 155/34/4 156/34/4 159/32/5
f 160/32/5 159/32/5 156/34/4
f 163/30/6 159/32/5 164/30/6
f 160/32/5 164/30/6 159/32/5
f 167/28/7 163/30/6 168/28/7
f 164/30/6 168/28/7 163/30/6
f 171/27/8 167/28/7 172/27/8
f 168/28/7 172/27/8 167/28/7
f 175/3/9 171/27/8 176/3/9
f 172/27/8 176/3/9 171/27/8
f 179/4/10 175/3/9 180/4/10
f 176/3/9 180/4/10 175/3/9
f 183/6/11 179/4/10 184/6/11
f 180/4/10 184/6/11 179/4/10
f 183/6/11 184/6/11 187/8/12
f 188/8/12 187/8/12 184/6/11
f 187/8/12 188/8/12 191/10/13
f 192/10/13 191/10/13 188/8/12
f 191/10/13 192/10/13 102/13/14
f 104/13/14 102/13/14 192/10/13
