# SSTK version 0.8.0
# 410
mtllib original-410.mtl
o #ID2337
v -0.286384 -0.160127 -0.47138
v -0.286099 -0.158512 -0.471462
v -0.286184 -0.160413 -0.471462
v -0.286533 -0.159731 -0.471315
v -0.286583 -0.159278 -0.471288
v -0.286511 -0.158751 -0.471307
v -0.286396 -0.158512 -0.471347
v -0.284197 -0.161011 -0.471462
v -0.281687 -0.157545 -0.471462
v -0.281687 -0.161011 -0.471462
v -0.285105 -0.160963 -0.471462
v -0.285528 -0.160853 -0.471462
v -0.285875 -0.160688 -0.471462
v -0.286157 -0.160451 -0.471462
v -0.286117 -0.158116 -0.471462
v -0.28595 -0.157944 -0.471462
v -0.285493 -0.157714 -0.471462
v -0.284868 -0.157587 -0.471462
v -0.284018 -0.157545 -0.471462
v -0.286294 -0.158298 -0.47139
vn -0.36153471319694597 0.01604765058578027 -0.9322205340284447
vn -0.1789007061789708 -5.355167206805944e-08 -0.9838671339813434
vn -0.18391040242098314 0.00816330710746096 -0.9829091129389438
vn -0.3615812944103058 5.387946709686398e-09 -0.9323405855869238
vn 2.7007549999998854e-07 -1.0757890022204005e-07 -1.0
vn -0.18391040232039446 -0.008163374102997372 -0.9829091124013476
vn -0.3615347132549638 -0.01604764058835559 -0.9322205341780443
usemtl material_0_0
f 1//1 2//2 3//3
f 2//2 1//1 4//1
f 2//2 4//1 5//1
f 2//2 5//1 6//1
f 2//2 6//1 7//4
f 8//5 9//5 10//5
f 9//5 8//5 11//5
f 9//5 11//5 12//5
f 9//5 12//5 13//5
f 9//5 13//5 14//5
f 9//5 14//5 3//3
f 9//5 3//3 2//2
f 9//5 2//2 15//6
f 9//5 15//6 16//5
f 9//5 16//5 17//5
f 9//5 17//5 18//5
f 9//5 18//5 19//5
f 7//4 15//6 2//2
f 15//6 7//4 20//7
