# SSTK version 0.8.0
# 48
mtllib original-48.mtl
o #ID141
v -0.009467 0.10682 -0.225501
v -0.009551 -0.098505 -0.225501
v -0.009551 0.105533 -0.225501
v -0.009455 -0.099967 -0.225501
v -0.009215 0.108084 -0.225501
v -0.009169 -0.101404 -0.225501
v -0.008801 0.109305 -0.225501
v -0.008698 -0.102791 -0.225501
v -0.00823 0.110461 -0.225501
v -0.00805 -0.104106 -0.225501
v -0.007514 0.111534 -0.225501
v -0.007236 -0.105324 -0.225501
v -0.006664 0.112503 -0.225501
v -0.00627 -0.106426 -0.225501
v -0.005695 0.113353 -0.225501
v -0.005168 -0.107392 -0.225501
v -0.004623 0.114069 -0.225501
v -0.00395 -0.108206 -0.225501
v -0.003466 0.114639 -0.225501
v -0.002636 -0.108854 -0.225501
v -0.002245 0.115054 -0.225501
v -0.001248 -0.109325 -0.225501
v -0.000981 0.115305 -0.225501
v 0.000189 -0.109611 -0.225501
v 0.000306 0.11539 -0.225501
v 0.001651 -0.109707 -0.225501
v 0.018251 0.073356 -0.225501
v 0.237247 0.11539 -0.225501
v 0.214875 0.073356 -0.225501
v 0.214875 -0.054654 -0.225501
v 0.233024 -0.109707 -0.225501
v 0.234672 -0.109599 -0.225501
v 0.236292 -0.109276 -0.225501
v 0.237856 -0.108745 -0.225501
v 0.238344 0.115318 -0.225501
v 0.239338 -0.108015 -0.225501
v 0.239422 0.115103 -0.225501
v 0.240711 -0.107097 -0.225501
v 0.240463 0.11475 -0.225501
v 0.241449 0.114264 -0.225501
v 0.241953 -0.106008 -0.225501
v 0.242363 0.113653 -0.225501
v 0.243042 -0.104766 -0.225501
v 0.24319 0.112928 -0.225501
v 0.24396 -0.103393 -0.225501
v 0.243915 0.112101 -0.225501
v 0.244526 0.111187 -0.225501
v 0.24469 -0.101911 -0.225501
v 0.245012 0.110201 -0.225501
v 0.245221 -0.100347 -0.225501
v 0.245365 0.10916 -0.225501
v 0.245544 -0.098727 -0.225501
v 0.24558 0.108082 -0.225501
v 0.245652 -0.097079 -0.225501
v 0.245652 0.106985 -0.225501
v 0.018251 -0.054654 -0.225501
v 0.214875 -0.054654 -0.225501
v 0.018251 -0.054654 -0.225501
v 0.233024 -0.109707 -0.225501
v 0.018251 0.073356 -0.225501
v 0.001651 -0.109707 -0.225501
v 0.245652 0.106985 -0.225501
v 0.24558 0.108082 -0.225501
v 0.245652 -0.097079 -0.225501
v 0.245544 -0.098727 -0.225501
v 0.245365 0.10916 -0.225501
v 0.245221 -0.100347 -0.225501
v 0.245012 0.110201 -0.225501
v 0.24469 -0.101911 -0.225501
v 0.244526 0.111187 -0.225501
v 0.24396 -0.103393 -0.225501
v 0.243915 0.112101 -0.225501
v 0.24319 0.112928 -0.225501
v 0.243042 -0.104766 -0.225501
v 0.242363 0.113653 -0.225501
v 0.241953 -0.106008 -0.225501
v 0.241449 0.114264 -0.225501
v 0.240711 -0.107097 -0.225501
v 0.240463 0.11475 -0.225501
v 0.239422 0.115103 -0.225501
v 0.239338 -0.108015 -0.225501
v 0.238344 0.115318 -0.225501
v 0.237856 -0.108745 -0.225501
v 0.237247 0.11539 -0.225501
v 0.236292 -0.109276 -0.225501
v 0.234672 -0.109599 -0.225501
v 0.214875 0.073356 -0.225501
v 0.000306 0.11539 -0.225501
v 0.000189 -0.109611 -0.225501
v -0.000981 0.115305 -0.225501
v -0.001248 -0.109325 -0.225501
v -0.002245 0.115054 -0.225501
v -0.002636 -0.108854 -0.225501
v -0.003466 0.114639 -0.225501
v -0.00395 -0.108206 -0.225501
v -0.004623 0.114069 -0.225501
v -0.005168 -0.107392 -0.225501
v -0.005695 0.113353 -0.225501
v -0.00627 -0.106426 -0.225501
v -0.006664 0.112503 -0.225501
v -0.007236 -0.105324 -0.225501
v -0.007514 0.111534 -0.225501
v -0.00805 -0.104106 -0.225501
v -0.00823 0.110461 -0.225501
v -0.008698 -0.102791 -0.225501
v -0.008801 0.109305 -0.225501
v -0.009169 -0.101404 -0.225501
v -0.009215 0.108084 -0.225501
v -0.009455 -0.099967 -0.225501
v -0.009467 0.10682 -0.225501
v -0.009551 -0.098505 -0.225501
v -0.009551 0.105533 -0.225501
vt 0.6482587 0.3880643
vt 0.5093023 0.3880643
vt 0.661085 0.3410524
vt 0.5093023 0.4973773
vt 0.4975712 0.3410524
vt 0.6700093 0.5260946
vt 0.6699584 0.5270314
vt 0.6700093 0.3518358
vt 0.6699329 0.3504283
vt 0.6698069 0.5279522
vt 0.6697052 0.3490448
vt 0.6695571 0.5288412
vt 0.6693299 0.3477092
vt 0.6692135 0.5296832
vt 0.6688136 0.3464441
vt 0.6687818 0.5304638
vt 0.6682695 0.5311697
vt 0.6681651 0.3452713
vt 0.6676854 0.5317887
vt 0.6673954 0.3442108
vt 0.6670393 0.5323103
vt 0.6665178 0.3432807
vt 0.6663425 0.5327255
vt 0.6656068 0.5330273
vt 0.6655471 0.3424971
vt 0.6648447 0.5332105
vt 0.6645002 0.3418732
vt 0.6640694 0.5332719
vt 0.6633948 0.3414198
vt 0.6622499 0.3411446
vt 0.6482587 0.4973773
vt 0.4966205 0.5332719
vt 0.4965379 0.3411342
vt 0.4957112 0.5331999
vt 0.4955222 0.3413783
vt 0.4948176 0.5329851
vt 0.4945417 0.3417805
vt 0.4939548 0.5326312
vt 0.4936129 0.3423339
vt 0.4931376 0.5321442
vt 0.4927519 0.3430291
vt 0.4923799 0.5315325
vt 0.4919733 0.3438541
vt 0.4916949 0.5308066
vt 0.4912906 0.3447949
vt 0.4910941 0.5299788
vt 0.4907153 0.3458353
vt 0.4905879 0.5290633
vt 0.4902573 0.3469575
vt 0.4901849 0.5280759
vt 0.4899244 0.3481424
vt 0.489892 0.5270333
vt 0.4897224 0.3493696
vt 0.4897142 0.5259535
vt 0.4896546 0.3506182
vt 0.4896546 0.5248548
vn 0.0 5.5842748466548854e-09 -1.0
vn 0.0 -5.5842748466548854e-09 1.0
usemtl material_0_0
f 1//1 2//1 3//1
f 2//1 1//1 4//1
f 4//1 1//1 5//1
f 4//1 5//1 6//1
f 6//1 5//1 7//1
f 6//1 7//1 8//1
f 8//1 7//1 9//1
f 8//1 9//1 10//1
f 10//1 9//1 11//1
f 10//1 11//1 12//1
f 12//1 11//1 13//1
f 12//1 13//1 14//1
f 14//1 13//1 15//1
f 14//1 15//1 16//1
f 16//1 15//1 17//1
f 16//1 17//1 18//1
f 18//1 17//1 19//1
f 18//1 19//1 20//1
f 20//1 19//1 21//1
f 20//1 21//1 22//1
f 22//1 21//1 23//1
f 22//1 23//1 24//1
f 24//1 23//1 25//1
f 24//1 25//1 26//1
f 26//1 25//1 27//1
f 27//1 25//1 28//1
f 27//1 28//1 29//1
f 29//1 28//1 30//1
f 30//1 28//1 31//1
f 31//1 28//1 32//1
f 32//1 28//1 33//1
f 33//1 28//1 34//1
f 34//1 28//1 35//1
f 34//1 35//1 36//1
f 36//1 35//1 37//1
f 36//1 37//1 38//1
f 38//1 37//1 39//1
f 38//1 39//1 40//1
f 38//1 40//1 41//1
f 41//1 40//1 42//1
f 41//1 42//1 43//1
f 43//1 42//1 44//1
f 43//1 44//1 45//1
f 45//1 44//1 46//1
f 45//1 46//1 47//1
f 45//1 47//1 48//1
f 48//1 47//1 49//1
f 48//1 49//1 50//1
f 50//1 49//1 51//1
f 50//1 51//1 52//1
f 52//1 51//1 53//1
f 52//1 53//1 54//1
f 54//1 53//1 55//1
f 26//1 56//1 31//1
f 56//1 26//1 27//1
f 31//1 56//1 30//1
usemtl material_1_0
f 57/1/2 58/2/2 59/3/2
f 60/4/2 61/5/2 58/2/2
f 59/3/2 58/2/2 61/5/2
f 62/6/2 63/7/2 64/8/2
f 64/8/2 63/7/2 65/9/2
f 63/7/2 66/10/2 65/9/2
f 65/9/2 66/10/2 67/11/2
f 66/10/2 68/12/2 67/11/2
f 67/11/2 68/12/2 69/13/2
f 68/12/2 70/14/2 69/13/2
f 69/13/2 70/14/2 71/15/2
f 70/14/2 72/16/2 71/15/2
f 72/16/2 73/17/2 71/15/2
f 71/15/2 73/17/2 74/18/2
f 73/17/2 75/19/2 74/18/2
f 74/18/2 75/19/2 76/20/2
f 75/19/2 77/21/2 76/20/2
f 76/20/2 77/21/2 78/22/2
f 77/21/2 79/23/2 78/22/2
f 79/23/2 80/24/2 78/22/2
f 78/22/2 80/24/2 81/25/2
f 80/24/2 82/26/2 81/25/2
f 81/25/2 82/26/2 83/27/2
f 82/26/2 84/28/2 83/27/2
f 83/27/2 84/28/2 85/29/2
f 85/29/2 84/28/2 86/30/2
f 86/30/2 84/28/2 59/3/2
f 59/3/2 84/28/2 57/1/2
f 57/1/2 84/28/2 87/31/2
f 87/31/2 84/28/2 60/4/2
f 84/28/2 88/32/2 60/4/2
f 60/4/2 88/32/2 61/5/2
f 61/5/2 88/32/2 89/33/2
f 88/32/2 90/34/2 89/33/2
f 89/33/2 90/34/2 91/35/2
f 90/34/2 92/36/2 91/35/2
f 91/35/2 92/36/2 93/37/2
f 92/36/2 94/38/2 93/37/2
f 93/37/2 94/38/2 95/39/2
f 94/38/2 96/40/2 95/39/2
f 95/39/2 96/40/2 97/41/2
f 96/40/2 98/42/2 97/41/2
f 97/41/2 98/42/2 99/43/2
f 98/42/2 100/44/2 99/43/2
f 99/43/2 100/44/2 101/45/2
f 100/44/2 102/46/2 101/45/2
f 101/45/2 102/46/2 103/47/2
f 102/46/2 104/48/2 103/47/2
f 103/47/2 104/48/2 105/49/2
f 104/48/2 106/50/2 105/49/2
f 105/49/2 106/50/2 107/51/2
f 106/50/2 108/52/2 107/51/2
f 107/51/2 108/52/2 109/53/2
f 108/52/2 110/54/2 109/53/2
f 109/53/2 110/54/2 111/55/2
f 112/56/2 111/55/2 110/54/2
