# SSTK version 0.8.0
# 317
mtllib original-317.mtl
o #ID1751
v -0.283136 -0.313466 -0.197971
v -0.283136 -0.312066 -0.19992
v -0.283136 -0.313466 -0.19992
v -0.283136 -0.312066 -0.197971
v -0.292325 -0.313466 -0.197971
v -0.283136 -0.312066 -0.197971
v -0.283136 -0.313466 -0.197971
v -0.292325 -0.312066 -0.197971
v -0.283136 -0.312066 -0.19992
v -0.292325 -0.313466 -0.19992
v -0.283136 -0.313466 -0.19992
v -0.292325 -0.312066 -0.19992
v -0.292325 -0.313466 -0.192884
v -0.292325 -0.312066 -0.197971
v -0.292325 -0.313466 -0.197971
v -0.292325 -0.312066 -0.192884
v -0.292325 -0.313466 -0.19992
v -0.292325 -0.312066 -0.205574
v -0.292325 -0.313466 -0.205574
v -0.292325 -0.312066 -0.19992
v -0.282513 -0.312066 -0.192884
v -0.292325 -0.313466 -0.192884
v -0.282513 -0.313466 -0.192884
v -0.292325 -0.312066 -0.192884
v -0.292325 -0.313466 -0.205574
v -0.282128 -0.312066 -0.205574
v -0.282128 -0.313466 -0.205574
v -0.292325 -0.312066 -0.205574
v -0.282513 -0.313466 -0.190923
v -0.282513 -0.312066 -0.192884
v -0.282513 -0.313466 -0.192884
v -0.282513 -0.312066 -0.190923
v -0.282128 -0.313466 -0.205574
v -0.282128 -0.312066 -0.207535
v -0.282128 -0.313466 -0.207535
v -0.282128 -0.312066 -0.205574
v -0.294524 -0.313466 -0.190923
v -0.282513 -0.312066 -0.190923
v -0.282513 -0.313466 -0.190923
v -0.294524 -0.312066 -0.190923
v -0.282128 -0.312066 -0.207535
v -0.294524 -0.313466 -0.207535
v -0.282128 -0.313466 -0.207535
v -0.294524 -0.312066 -0.207535
v -0.294524 -0.312066 -0.190923
v -0.294524 -0.313466 -0.207535
v -0.294524 -0.312066 -0.207535
v -0.294524 -0.313466 -0.190923
vn -1.0 0.0 0.0
vn 0.0 0.0 -1.0
vn 0.0 0.0 1.0
vn 1.0 0.0 0.0
usemtl material_0_0
f 1//1 2//1 3//1
f 2//1 1//1 4//1
f 5//2 6//2 7//2
f 6//2 5//2 8//2
f 9//3 10//3 11//3
f 10//3 9//3 12//3
f 13//1 14//1 15//1
f 14//1 13//1 16//1
f 17//1 18//1 19//1
f 18//1 17//1 20//1
f 21//3 22//3 23//3
f 22//3 21//3 24//3
f 25//2 26//2 27//2
f 26//2 25//2 28//2
f 29//1 30//1 31//1
f 30//1 29//1 32//1
f 33//1 34//1 35//1
f 34//1 33//1 36//1
f 37//2 38//2 39//2
f 38//2 37//2 40//2
f 41//3 42//3 43//3
f 42//3 41//3 44//3
f 45//4 46//4 47//4
f 46//4 45//4 48//4
