# SSTK version 0.8.0
# 795
mtllib original-795.mtl
o #ID4917
v 0.216696 -0.037815 0.039856
v 0.216696 0.016098 0.039856
v 0.220244 -0.010859 0.039856
v 0.206291 0.041217 0.039856
v 0.206291 -0.062934 0.039856
v 0.189739 0.062788 0.039856
v 0.189739 -0.084505 0.039856
v 0.168169 0.079339 0.039856
v 0.168169 -0.101057 0.039856
v 0.143049 0.089744 0.039856
v 0.143049 -0.111461 0.039856
v 0.116093 0.093293 0.039856
v 0.116093 -0.11501 0.039856
v 0.089136 0.089744 0.039856
v 0.089136 -0.111461 0.039856
v 0.064017 0.079339 0.039856
v 0.064017 -0.101057 0.039856
v 0.042446 0.062788 0.039856
v 0.042446 -0.084505 0.039856
v 0.025895 0.041217 0.039856
v 0.025895 -0.062934 0.039856
v 0.01549 0.016098 0.039856
v 0.01549 -0.037815 0.039856
v 0.011941 -0.010859 0.039856
v 0.011941 -0.010859 0.039856
v 0.01549 -0.037815 0.039856
v 0.01549 0.016098 0.039856
v 0.025895 -0.062934 0.039856
v 0.025895 0.041217 0.039856
v 0.042446 -0.084505 0.039856
v 0.042446 0.062788 0.039856
v 0.064017 -0.101057 0.039856
v 0.064017 0.079339 0.039856
v 0.089136 -0.111461 0.039856
v 0.089136 0.089744 0.039856
v 0.116093 -0.11501 0.039856
v 0.116093 0.093293 0.039856
v 0.143049 -0.111461 0.039856
v 0.143049 0.089744 0.039856
v 0.168169 -0.101057 0.039856
v 0.168169 0.079339 0.039856
v 0.189739 -0.084505 0.039856
v 0.189739 0.062788 0.039856
v 0.206291 -0.062934 0.039856
v 0.206291 0.041217 0.039856
v 0.216696 -0.037815 0.039856
v 0.216696 0.016098 0.039856
v 0.220244 -0.010859 0.039856
vn 0.0 3.406485430930757e-09 -1.0
vn 0.0 -3.406485430930757e-09 1.0
usemtl material_0_0
f 1//1 2//1 3//1
f 2//1 1//1 4//1
f 4//1 1//1 5//1
f 4//1 5//1 6//1
f 6//1 5//1 7//1
f 6//1 7//1 8//1
f 8//1 7//1 9//1
f 8//1 9//1 10//1
f 10//1 9//1 11//1
f 10//1 11//1 12//1
f 12//1 11//1 13//1
f 12//1 13//1 14//1
f 14//1 13//1 15//1
f 14//1 15//1 16//1
f 16//1 15//1 17//1
f 16//1 17//1 18//1
f 18//1 17//1 19//1
f 18//1 19//1 20//1
f 20//1 19//1 21//1
f 20//1 21//1 22//1
f 22//1 21//1 23//1
f 22//1 23//1 24//1
usemtl material_1_0
f 25//2 26//2 27//2
f 26//2 28//2 27//2
f 27//2 28//2 29//2
f 28//2 30//2 29//2
f 29//2 30//2 31//2
f 30//2 32//2 31//2
f 31//2 32//2 33//2
f 32//2 34//2 33//2
f 33//2 34//2 35//2
f 34//2 36//2 35//2
f 35//2 36//2 37//2
f 36//2 38//2 37//2
f 37//2 38//2 39//2
f 38//2 40//2 39//2
f 39//2 40//2 41//2
f 40//2 42//2 41//2
f 41//2 42//2 43//2
f 42//2 44//2 43//2
f 43//2 44//2 45//2
f 44//2 46//2 45//2
f 45//2 46//2 47//2
f 48//2 47//2 46//2
