# SSTK version 0.8.0
# 272
mtllib original-272.mtl
o #ID2097
v 0.06199 -0.308798 -0.263956
v 0.061989 -0.308798 -0.266628
v 0.062072 -0.308798 -0.265265
v 0.061746 -0.308798 -0.262793
v 0.061742 -0.308798 -0.26784
v 0.061338 -0.308798 -0.261777
v 0.061329 -0.308798 -0.268902
v 0.060767 -0.308798 -0.260908
v 0.060751 -0.308798 -0.269814
v 0.060073 -0.308798 -0.260211
v 0.060059 -0.308798 -0.270546
v 0.059294 -0.308798 -0.259713
v 0.059302 -0.308798 -0.27107
v 0.058481 -0.308798 -0.271383
v 0.058431 -0.308798 -0.259415
v 0.057595 -0.308798 -0.271488
v 0.057483 -0.308798 -0.259315
v 0.056368 -0.308798 -0.271286
v 0.056538 -0.308798 -0.259415
v 0.055667 -0.308798 -0.259713
v 0.055196 -0.308798 -0.270678
v 0.054871 -0.308798 -0.260211
v 0.05418 -0.308798 -0.269684
v 0.05415 -0.308798 -0.260908
v 0.053417 -0.308798 -0.268322
v 0.053551 -0.308798 -0.261766
v 0.053123 -0.308798 -0.262747
v 0.05294 -0.308798 -0.266739
v 0.052867 -0.308798 -0.263853
v 0.052781 -0.308798 -0.265083
vn 0.0 -1.0 0.0
usemtl material_0_0
f 1//1 2//1 3//1
f 2//1 1//1 4//1
f 2//1 4//1 5//1
f 5//1 4//1 6//1
f 5//1 6//1 7//1
f 7//1 6//1 8//1
f 7//1 8//1 9//1
f 9//1 8//1 10//1
f 9//1 10//1 11//1
f 11//1 10//1 12//1
f 11//1 12//1 13//1
f 13//1 12//1 14//1
f 14//1 12//1 15//1
f 14//1 15//1 16//1
f 16//1 15//1 17//1
f 16//1 17//1 18//1
f 18//1 17//1 19//1
f 18//1 19//1 20//1
f 18//1 20//1 21//1
f 21//1 20//1 22//1
f 21//1 22//1 23//1
f 23//1 22//1 24//1
f 23//1 24//1 25//1
f 25//1 24//1 26//1
f 25//1 26//1 27//1
f 25//1 27//1 28//1
f 28//1 27//1 29//1
f 28//1 29//1 30//1
