# SSTK version 0.8.0
# 782
mtllib original-782.mtl
o #ID4726
v 0.35597 -0.035653 0.134791
v 0.35723 -0.02608 0.130841
v 0.35723 -0.02608 0.134791
v 0.357221 -0.026144 0.128927
v 0.357196 -0.026336 0.127622
v 0.357126 -0.026869 0.126341
v 0.35701 -0.027751 0.125269
v 0.356933 -0.028336 0.124845
v 0.356841 -0.029034 0.124542
v 0.356612 -0.030772 0.1243
v 0.356439 -0.032086 0.124424
v 0.356294 -0.033187 0.124794
v 0.356176 -0.034082 0.125386
v 0.356085 -0.034773 0.126173
v 0.356036 -0.035145 0.126909
v 0.356 -0.035423 0.127859
v 0.355977 -0.035596 0.129118
v 0.35597 -0.035653 0.130777
v 0.35597 -0.035653 0.130777
v 0.35597 -0.035653 0.134791
v 0.355977 -0.035596 0.129118
v 0.356 -0.035423 0.127859
v 0.356036 -0.035145 0.126909
v 0.356085 -0.034773 0.126173
v 0.356176 -0.034082 0.125386
v 0.356294 -0.033187 0.124794
v 0.356439 -0.032086 0.124424
v 0.356612 -0.030772 0.1243
v 0.356841 -0.029034 0.124542
v 0.356933 -0.028336 0.124845
v 0.35701 -0.027751 0.125269
v 0.357126 -0.026869 0.126341
v 0.357196 -0.026336 0.127622
v 0.357221 -0.026144 0.128927
v 0.35723 -0.02608 0.130841
v 0.35723 -0.02608 0.134791
vn 0.9914448610250888 -0.1305261948688555 0.0
vn -0.9914448610250888 0.1305261948688555 0.0
usemtl material_0_0
f 1//1 2//1 3//1
f 2//1 1//1 4//1
f 4//1 1//1 5//1
f 5//1 1//1 6//1
f 6//1 1//1 7//1
f 7//1 1//1 8//1
f 8//1 1//1 9//1
f 9//1 1//1 10//1
f 10//1 1//1 11//1
f 11//1 1//1 12//1
f 12//1 1//1 13//1
f 13//1 1//1 14//1
f 14//1 1//1 15//1
f 15//1 1//1 16//1
f 16//1 1//1 17//1
f 17//1 1//1 18//1
f 19//2 20//2 21//2
f 21//2 20//2 22//2
f 22//2 20//2 23//2
f 23//2 20//2 24//2
f 24//2 20//2 25//2
f 25//2 20//2 26//2
f 26//2 20//2 27//2
f 27//2 20//2 28//2
f 28//2 20//2 29//2
f 29//2 20//2 30//2
f 30//2 20//2 31//2
f 31//2 20//2 32//2
f 32//2 20//2 33//2
f 33//2 20//2 34//2
f 34//2 20//2 35//2
f 36//2 35//2 20//2
