# SSTK version 0.8.0
# 659
mtllib original-659.mtl
o #ID4451
v -0.020383 -0.010937 0.535578
v -0.015731 -0.046267 0.541296
v -0.015731 -0.046267 0.535578
v -0.020383 -0.010937 0.541296
v -0.020383 -0.010937 0.541296
v -0.020383 -0.010937 0.535578
v -0.015731 -0.046267 0.541296
v -0.015731 -0.046267 0.535578
v -0.015731 0.024394 0.535578
v -0.015731 0.024394 0.541296
v -0.015731 0.024394 0.541296
v -0.015731 0.024394 0.535578
v -0.002094 -0.07919 0.541296
v -0.002094 -0.07919 0.535578
v -0.002094 -0.07919 0.541296
v -0.002094 -0.07919 0.535578
v -0.002094 0.057316 0.535578
v -0.002094 0.057316 0.541296
v -0.002094 0.057316 0.541296
v -0.002094 0.057316 0.535578
v 0.019599 -0.107461 0.541296
v 0.019599 -0.107461 0.535578
v 0.019599 -0.107461 0.541296
v 0.019599 -0.107461 0.535578
v 0.019599 0.085587 0.535578
v 0.019599 0.085587 0.541296
v 0.019599 0.085587 0.541296
v 0.019599 0.085587 0.535578
v 0.04787 -0.129155 0.535578
v 0.04787 -0.129155 0.541296
v 0.04787 -0.129155 0.541296
v 0.04787 -0.129155 0.535578
v 0.04787 0.107281 0.541296
v 0.04787 0.107281 0.535578
v 0.04787 0.107281 0.541296
v 0.04787 0.107281 0.535578
v 0.080793 -0.142792 0.535578
v 0.080793 -0.142792 0.541296
v 0.080793 -0.142792 0.541296
v 0.080793 -0.142792 0.535578
v 0.080793 0.120918 0.541296
v 0.080793 0.120918 0.535578
v 0.080793 0.120918 0.541296
v 0.080793 0.120918 0.535578
v 0.116123 -0.147443 0.535578
v 0.116123 -0.147443 0.541296
v 0.116123 -0.147443 0.541296
v 0.116123 -0.147443 0.535578
v 0.116123 0.125569 0.541296
v 0.116123 0.125569 0.535578
v 0.116123 0.125569 0.541296
v 0.116123 0.125569 0.535578
v 0.151454 -0.142792 0.541296
v 0.151454 -0.142792 0.535578
v 0.151454 -0.142792 0.541296
v 0.151454 -0.142792 0.535578
v 0.151454 0.120918 0.535578
v 0.151454 0.120918 0.541296
v 0.151454 0.120918 0.541296
v 0.151454 0.120918 0.535578
v 0.184377 -0.129155 0.541296
v 0.184377 -0.129155 0.535578
v 0.184377 -0.129155 0.541296
v 0.184377 -0.129155 0.535578
v 0.184377 0.107281 0.535578
v 0.184377 0.107281 0.541296
v 0.184377 0.107281 0.541296
v 0.184377 0.107281 0.535578
v 0.212648 -0.107461 0.541296
v 0.212648 -0.107461 0.535578
v 0.212648 -0.107461 0.541296
v 0.212648 -0.107461 0.535578
v 0.212648 0.085587 0.535578
v 0.212648 0.085587 0.541296
v 0.212648 0.085587 0.541296
v 0.212648 0.085587 0.535578
v 0.234341 -0.07919 0.535578
v 0.234341 -0.07919 0.541296
v 0.234341 -0.07919 0.541296
v 0.234341 -0.07919 0.535578
v 0.234341 0.057316 0.541296
v 0.234341 0.057316 0.535578
v 0.234341 0.057316 0.541296
v 0.234341 0.057316 0.535578
v 0.247978 -0.046267 0.535578
v 0.247978 -0.046267 0.541296
v 0.247978 -0.046267 0.541296
v 0.247978 -0.046267 0.535578
v 0.247978 0.024394 0.541296
v 0.247978 0.024394 0.535578
v 0.247978 0.024394 0.541296
v 0.247978 0.024394 0.535578
v 0.25263 -0.010937 0.535578
v 0.25263 -0.010937 0.541296
v 0.25263 -0.010937 0.541296
v 0.25263 -0.010937 0.535578
vt 0.4777246 0.348205
vt 0.4821199 0.3036808
vt 0.4821199 0.3927292
vt 0.4950063 0.2621908
vt 0.4950063 0.4342192
vt 0.5155055 0.2265626
vt 0.5155055 0.4698474
vt 0.5422206 0.199224
vt 0.5422206 0.4971859
vt 0.573331 0.1820383
vt 0.573331 0.5143716
vt 0.6067166 0.1761766
vt 0.6067166 0.5202333
vt 0.6401022 0.1820383
vt 0.6401022 0.5143716
vt 0.6712126 0.199224
vt 0.6712126 0.4971859
vt 0.6979277 0.2265626
vt 0.6979277 0.4698474
vt 0.7184269 0.2621908
vt 0.7184269 0.4342192
vt 0.7313133 0.3036808
vt 0.7313133 0.3927292
vt 0.7357086 0.348205
vn 1.0 0.0 0.0
vn 0.9659258358036645 0.25881900959356163 0.0
vn 0.9659258358036645 -0.25881900959356163 0.0
vn 0.8660254028383291 0.5000000016387101 0.0
vn 0.8660254028383291 -0.5000000016387101 0.0
vn 0.7071067811865475 0.7071067811865475 0.0
vn 0.7071067811865475 -0.7071067811865475 0.0
vn 0.5000000016387101 0.8660254028383291 0.0
vn 0.5000000016387101 -0.8660254028383291 0.0
vn 0.25881900959356163 0.9659258358036645 0.0
vn 0.25881900959356163 -0.9659258358036645 0.0
vn 0.0 1.0 0.0
vn 0.0 -1.0 0.0
vn -0.25881900959356163 0.9659258358036645 0.0
vn -0.25881900959356163 -0.9659258358036645 0.0
vn -0.5000000016387101 0.8660254028383291 0.0
vn -0.5000000016387101 -0.8660254028383291 0.0
vn -0.7071067811865475 0.7071067811865475 0.0
vn -0.7071067811865475 -0.7071067811865475 0.0
vn -0.8660254028383291 0.5000000016387101 0.0
vn -0.8660254028383291 -0.5000000016387101 0.0
vn -0.9659258358036645 0.25881900959356163 0.0
vn -0.9659258358036645 -0.25881900959356163 0.0
vn -1.0 0.0 0.0
usemtl material_0_0
f 1//1 2//2 3//2
f 2//2 1//1 4//1
f 9//3 4//1 1//1
f 4//1 9//3 10//3
f 3//2 13//4 14//4
f 13//4 3//2 2//2
f 17//5 10//3 9//3
f 10//3 17//5 18//5
f 14//4 21//6 22//6
f 21//6 14//4 13//4
f 25//7 18//5 17//5
f 18//5 25//7 26//7
f 21//6 29//8 22//6
f 29//8 21//6 30//8
f 33//9 25//7 34//9
f 25//7 33//9 26//7
f 30//8 37//10 29//8
f 37//10 30//8 38//10
f 41//11 34//9 42//11
f 34//9 41//11 33//9
f 38//10 45//12 37//10
f 45//12 38//10 46//12
f 49//13 42//11 50//13
f 42//11 49//13 41//11
f 45//12 53//14 54//14
f 53//14 45//12 46//12
f 57//15 49//13 50//13
f 49//13 57//15 58//15
f 54//14 61//16 62//16
f 61//16 54//14 53//14
f 65//17 58//15 57//15
f 58//15 65//17 66//17
f 62//16 69//18 70//18
f 69//18 62//16 61//16
f 73//19 66//17 65//17
f 66//17 73//19 74//19
f 69//18 77//20 70//18
f 77//20 69//18 78//20
f 81//21 73//19 82//21
f 73//19 81//21 74//19
f 78//20 85//22 77//20
f 85//22 78//20 86//22
f 89//23 82//21 90//23
f 82//21 89//23 81//21
f 86//22 93//24 85//22
f 93//24 86//22 94//24
f 94//24 90//23 93//24
f 90//23 94//24 89//23
usemtl material_1_0
f 5/1/24 6/1/24 7/2/23
f 8/2/23 7/2/23 6/1/24
f 11/3/22 12/3/22 5/1/24
f 6/1/24 5/1/24 12/3/22
f 7/2/23 8/2/23 15/4/21
f 16/4/21 15/4/21 8/2/23
f 19/5/20 20/5/20 11/3/22
f 12/3/22 11/3/22 20/5/20
f 15/4/21 16/4/21 23/6/19
f 24/6/19 23/6/19 16/4/21
f 27/7/18 28/7/18 19/5/20
f 20/5/20 19/5/20 28/7/18
f 31/8/17 23/6/19 32/8/17
f 24/6/19 32/8/17 23/6/19
f 27/7/18 35/9/16 28/7/18
f 36/9/16 28/7/18 35/9/16
f 39/10/15 31/8/17 40/10/15
f 32/8/17 40/10/15 31/8/17
f 35/9/16 43/11/14 36/9/16
f 44/11/14 36/9/16 43/11/14
f 47/12/13 39/10/15 48/12/13
f 40/10/15 48/12/13 39/10/15
f 43/11/14 51/13/12 44/11/14
f 52/13/12 44/11/14 51/13/12
f 47/12/13 48/12/13 55/14/11
f 56/14/11 55/14/11 48/12/13
f 59/15/10 60/15/10 51/13/12
f 52/13/12 51/13/12 60/15/10
f 55/14/11 56/14/11 63/16/9
f 64/16/9 63/16/9 56/14/11
f 67/17/8 68/17/8 59/15/10
f 60/15/10 59/15/10 68/17/8
f 63/16/9 64/16/9 71/18/7
f 72/18/7 71/18/7 64/16/9
f 75/19/6 76/19/6 67/17/8
f 68/17/8 67/17/8 76/19/6
f 79/20/5 71/18/7 80/20/5
f 72/18/7 80/20/5 71/18/7
f 75/19/6 83/21/4 76/19/6
f 84/21/4 76/19/6 83/21/4
f 87/22/3 79/20/5 88/22/3
f 80/20/5 88/22/3 79/20/5
f 83/21/4 91/23/2 84/21/4
f 92/23/2 84/21/4 91/23/2
f 95/24/1 87/22/3 96/24/1
f 88/22/3 96/24/1 87/22/3
f 91/23/2 95/24/1 92/23/2
f 96/24/1 92/23/2 95/24/1
