# SSTK version 0.8.0
# 234
mtllib original-234.mtl
o #ID1487
v -0.235114 -0.169016 -0.46651
v -0.230646 -0.16882 -0.46651
v -0.233549 -0.169095 -0.46651
v -0.23652 -0.168779 -0.46651
v -0.229412 -0.168476 -0.46651
v -0.237769 -0.168384 -0.46651
v -0.228324 -0.167994 -0.46651
v -0.23886 -0.167832 -0.46651
v -0.227381 -0.167382 -0.46651
v -0.240571 -0.16638 -0.46651
v -0.226583 -0.166647 -0.46651
v -0.233286 -0.166382 -0.46651
v -0.234825 -0.166288 -0.46651
v -0.241193 -0.165513 -0.46651
v -0.236127 -0.166006 -0.46651
v -0.23719 -0.165536 -0.46651
v -0.238015 -0.164878 -0.46651
v -0.241658 -0.164552 -0.46651
v -0.238632 -0.163952 -0.46651
v -0.24224 -0.162184 -0.46651
v -0.239073 -0.16268 -0.46651
v -0.239338 -0.161061 -0.46651
v -0.242434 -0.15911 -0.46651
v -0.239426 -0.159094 -0.46651
v -0.242434 -0.145977 -0.46651
v -0.239426 -0.145977 -0.46651
v -0.225931 -0.165789 -0.46651
v -0.231497 -0.166192 -0.46651
v -0.230006 -0.165622 -0.46651
v -0.225424 -0.164808 -0.46651
v -0.228863 -0.164701 -0.46651
v -0.224773 -0.162341 -0.46651
v -0.228114 -0.163459 -0.46651
v -0.227702 -0.161666 -0.46651
v -0.224556 -0.15911 -0.46651
v -0.227564 -0.159094 -0.46651
v -0.224556 -0.145977 -0.46651
v -0.227564 -0.145977 -0.46651
v -0.227564 -0.145977 -0.46651
v -0.227564 -0.159094 -0.46651
v -0.224556 -0.145977 -0.46651
v -0.224556 -0.15911 -0.46651
v -0.227702 -0.161666 -0.46651
v -0.224773 -0.162341 -0.46651
v -0.228114 -0.163459 -0.46651
v -0.228863 -0.164701 -0.46651
v -0.225424 -0.164808 -0.46651
v -0.230006 -0.165622 -0.46651
v -0.225931 -0.165789 -0.46651
v -0.231497 -0.166192 -0.46651
v -0.233286 -0.166382 -0.46651
v -0.226583 -0.166647 -0.46651
v -0.239426 -0.145977 -0.46651
v -0.242434 -0.145977 -0.46651
v -0.239426 -0.159094 -0.46651
v -0.242434 -0.15911 -0.46651
v -0.239338 -0.161061 -0.46651
v -0.24224 -0.162184 -0.46651
v -0.239073 -0.16268 -0.46651
v -0.238632 -0.163952 -0.46651
v -0.241658 -0.164552 -0.46651
v -0.238015 -0.164878 -0.46651
v -0.241193 -0.165513 -0.46651
v -0.23719 -0.165536 -0.46651
v -0.236127 -0.166006 -0.46651
v -0.234825 -0.166288 -0.46651
v -0.240571 -0.16638 -0.46651
v -0.227381 -0.167382 -0.46651
v -0.23886 -0.167832 -0.46651
v -0.228324 -0.167994 -0.46651
v -0.237769 -0.168384 -0.46651
v -0.229412 -0.168476 -0.46651
v -0.23652 -0.168779 -0.46651
v -0.230646 -0.16882 -0.46651
v -0.235114 -0.169016 -0.46651
v -0.233549 -0.169095 -0.46651
vn -1.257446e-09 -1.229340222044605e-09 -1.0
vn 1.257446e-09 1.229340222044605e-09 1.0
usemtl material_0_0
f 1//1 2//1 3//1
f 2//1 1//1 4//1
f 2//1 4//1 5//1
f 5//1 4//1 6//1
f 5//1 6//1 7//1
f 7//1 6//1 8//1
f 7//1 8//1 9//1
f 9//1 8//1 10//1
f 9//1 10//1 11//1
f 11//1 10//1 12//1
f 12//1 10//1 13//1
f 13//1 10//1 14//1
f 13//1 14//1 15//1
f 15//1 14//1 16//1
f 16//1 14//1 17//1
f 17//1 14//1 18//1
f 17//1 18//1 19//1
f 19//1 18//1 20//1
f 19//1 20//1 21//1
f 21//1 20//1 22//1
f 22//1 20//1 23//1
f 22//1 23//1 24//1
f 24//1 23//1 25//1
f 24//1 25//1 26//1
f 12//1 27//1 11//1
f 27//1 12//1 28//1
f 27//1 28//1 29//1
f 27//1 29//1 30//1
f 30//1 29//1 31//1
f 30//1 31//1 32//1
f 32//1 31//1 33//1
f 32//1 33//1 34//1
f 32//1 34//1 35//1
f 35//1 34//1 36//1
f 35//1 36//1 37//1
f 37//1 36//1 38//1
usemtl material_1_0
f 39//2 40//2 41//2
f 41//2 40//2 42//2
f 40//2 43//2 42//2
f 42//2 43//2 44//2
f 43//2 45//2 44//2
f 45//2 46//2 44//2
f 44//2 46//2 47//2
f 46//2 48//2 47//2
f 47//2 48//2 49//2
f 48//2 50//2 49//2
f 50//2 51//2 49//2
f 52//2 49//2 51//2
f 53//2 54//2 55//2
f 54//2 56//2 55//2
f 55//2 56//2 57//2
f 56//2 58//2 57//2
f 57//2 58//2 59//2
f 59//2 58//2 60//2
f 58//2 61//2 60//2
f 60//2 61//2 62//2
f 61//2 63//2 62//2
f 62//2 63//2 64//2
f 64//2 63//2 65//2
f 65//2 63//2 66//2
f 63//2 67//2 66//2
f 66//2 67//2 51//2
f 51//2 67//2 52//2
f 52//2 67//2 68//2
f 67//2 69//2 68//2
f 68//2 69//2 70//2
f 69//2 71//2 70//2
f 70//2 71//2 72//2
f 71//2 73//2 72//2
f 72//2 73//2 74//2
f 73//2 75//2 74//2
f 76//2 74//2 75//2
