# SSTK version 0.8.0
# 293
mtllib original-293.mtl
o #ID1607
v -0.231814 -0.29923 -0.3756
v -0.23167 -0.29923 -0.364888
v -0.23167 -0.29923 -0.373399
v -0.23167 -0.29923 -0.356537
v -0.165498 -0.29923 -0.276394
v -0.165378 -0.29923 -0.212752
v -0.165378 -0.29923 -0.272893
v -0.165526 -0.29923 -0.209096
v -0.165858 -0.29923 -0.279879
v -0.165968 -0.29923 -0.205464
v -0.166457 -0.29923 -0.283331
v -0.166703 -0.29923 -0.201879
v -0.167291 -0.29923 -0.286734
v -0.167724 -0.29923 -0.198366
v -0.168357 -0.29923 -0.290072
v -0.169026 -0.29923 -0.194946
v -0.169649 -0.29923 -0.293328
v -0.1706 -0.29923 -0.191643
v -0.171162 -0.29923 -0.296489
v -0.172436 -0.29923 -0.188477
v -0.172888 -0.29923 -0.299538
v -0.174521 -0.29923 -0.185471
v -0.174819 -0.29923 -0.302461
v -0.176842 -0.29923 -0.182642
v -0.176946 -0.29923 -0.305245
v -0.179384 -0.29923 -0.18001
v -0.179259 -0.29923 -0.307876
v -0.181748 -0.29923 -0.310343
v -0.182131 -0.29923 -0.177592
v -0.185063 -0.29923 -0.175404
v -0.247466 -0.29923 -0.132652
v -0.232244 -0.29923 -0.377763
v -0.232953 -0.29923 -0.379852
v -0.233929 -0.29923 -0.38183
v -0.235154 -0.29923 -0.383664
v -0.236608 -0.29923 -0.385322
v -0.238267 -0.29923 -0.386776
v -0.240101 -0.29923 -0.388002
v -0.242079 -0.29923 -0.388977
v -0.244167 -0.29923 -0.389686
v -0.246331 -0.29923 -0.390117
v -0.248532 -0.29923 -0.390261
v -0.281869 -0.29923 -0.099894
v -0.356821 -0.29923 -0.390261
v -0.281869 -0.29923 -0.070607
v -0.281869 -0.29923 0.049111
v -0.281871 -0.29923 0.056805
v -0.282475 -0.29923 0.0611
v -0.28367 -0.29923 0.065269
v -0.285433 -0.29923 0.069232
v -0.287729 -0.29923 0.072912
v -0.290514 -0.29923 0.076237
v -0.293735 -0.29923 0.079142
v -0.297327 -0.29923 0.081572
v -0.301223 -0.29923 0.083479
v -0.305346 -0.29923 0.084826
v -0.309616 -0.29923 0.085588
v -0.315633 -0.29923 0.08581
v -0.369462 -0.29923 0.08405
v -0.359021 -0.29923 -0.390117
v -0.361185 -0.29923 -0.389686
v -0.363273 -0.29923 -0.388977
v -0.365251 -0.29923 -0.388002
v -0.367085 -0.29923 -0.386776
v -0.368744 -0.29923 -0.385322
v -0.370198 -0.29923 -0.383664
v -0.374905 -0.29923 0.077856
v -0.371423 -0.29923 -0.38183
v -0.372399 -0.29923 -0.379852
v -0.373108 -0.29923 -0.377763
v -0.373538 -0.29923 -0.3756
v -0.373682 -0.29923 -0.369184
v -0.373682 -0.29923 -0.373399
v -0.382113 -0.29923 -0.356537
v -0.382687 -0.29923 0.067772
v -0.387583 -0.29923 -0.356537
v -0.38981 -0.29923 0.057214
v -0.38837 -0.29923 -0.356496
v -0.389149 -0.29923 -0.356373
v -0.389911 -0.29923 -0.356169
v -0.396247 -0.29923 0.046223
v -0.390647 -0.29923 -0.355887
v -0.391349 -0.29923 -0.355529
v -0.392011 -0.29923 -0.3551
v -0.392624 -0.29923 -0.354605
v -0.393182 -0.29923 -0.354048
v -0.393678 -0.29923 -0.353436
v -0.394108 -0.29923 -0.352775
v -0.394467 -0.29923 -0.352073
v -0.394751 -0.29923 -0.351338
v -0.399226 -0.29923 -0.337631
v -0.401971 -0.29923 0.034845
v -0.399936 -0.29923 -0.335356
v -0.400586 -0.29923 -0.333063
v -0.401175 -0.29923 -0.330754
v -0.401703 -0.29923 -0.328431
v -0.40217 -0.29923 -0.326094
v -0.406959 -0.29923 0.023125
v -0.402575 -0.29923 -0.323745
v -0.402919 -0.29923 -0.321387
v -0.4032 -0.29923 -0.319021
v -0.403701 -0.29923 -0.274065
v -0.403419 -0.29923 -0.316648
v -0.403576 -0.29923 -0.31427
v -0.40367 -0.29923 -0.311889
v -0.403701 -0.29923 -0.309506
v -0.403785 -0.29923 -0.268217
v -0.404035 -0.29923 -0.262373
v -0.404452 -0.29923 -0.256539
v -0.405036 -0.29923 -0.25072
v -0.405786 -0.29923 -0.244919
v -0.4067 -0.29923 -0.239143
v -0.40778 -0.29923 -0.233394
v -0.41119 -0.29923 0.011112
v -0.409023 -0.29923 -0.227679
v -0.410429 -0.29923 -0.222002
v -0.411996 -0.29923 -0.216367
v -0.414647 -0.29923 -0.001147
v -0.413724 -0.29923 -0.210779
v -0.41561 -0.29923 -0.205243
v -0.417317 -0.29923 -0.013601
v -0.425776 -0.29923 -0.176747
v -0.419188 -0.29923 -0.0262
v -0.420317 -0.29923 -0.039657
v -0.423483 -0.29923 -0.100645
v -0.424534 -0.29923 -0.126014
v -0.425299 -0.29923 -0.151376
v -0.425299 -0.29923 -0.151376
v -0.425776 -0.29923 -0.176747
v -0.424534 -0.29923 -0.126014
v -0.423483 -0.29923 -0.100645
v -0.420317 -0.29923 -0.039657
v -0.419188 -0.29923 -0.0262
v -0.417317 -0.29923 -0.013601
v -0.41561 -0.29923 -0.205243
v -0.414647 -0.29923 -0.001147
v -0.413724 -0.29923 -0.210779
v -0.411996 -0.29923 -0.216367
v -0.41119 -0.29923 0.011112
v -0.410429 -0.29923 -0.222002
v -0.409023 -0.29923 -0.227679
v -0.40778 -0.29923 -0.233394
v -0.406959 -0.29923 0.023125
v -0.4067 -0.29923 -0.239143
v -0.405786 -0.29923 -0.244919
v -0.405036 -0.29923 -0.25072
v -0.404452 -0.29923 -0.256539
v -0.404035 -0.29923 -0.262373
v -0.403785 -0.29923 -0.268217
v -0.403701 -0.29923 -0.274065
v -0.403701 -0.29923 -0.309506
v -0.40367 -0.29923 -0.311889
v -0.403576 -0.29923 -0.31427
v -0.403419 -0.29923 -0.316648
v -0.4032 -0.29923 -0.319021
v -0.402919 -0.29923 -0.321387
v -0.402575 -0.29923 -0.323745
v -0.40217 -0.29923 -0.326094
v -0.401971 -0.29923 0.034845
v -0.401703 -0.29923 -0.328431
v -0.401175 -0.29923 -0.330754
v -0.400586 -0.29923 -0.333063
v -0.399936 -0.29923 -0.335356
v -0.399226 -0.29923 -0.337631
v -0.396247 -0.29923 0.046223
v -0.394751 -0.29923 -0.351338
v -0.394467 -0.29923 -0.352073
v -0.394108 -0.29923 -0.352775
v -0.393678 -0.29923 -0.353436
v -0.393182 -0.29923 -0.354048
v -0.392624 -0.29923 -0.354605
v -0.392011 -0.29923 -0.3551
v -0.391349 -0.29923 -0.355529
v -0.390647 -0.29923 -0.355887
v -0.389911 -0.29923 -0.356169
v -0.38981 -0.29923 0.057214
v -0.389149 -0.29923 -0.356373
v -0.38837 -0.29923 -0.356496
v -0.387583 -0.29923 -0.356537
v -0.382687 -0.29923 0.067772
v -0.382113 -0.29923 -0.356537
v -0.374905 -0.29923 0.077856
v -0.373682 -0.29923 -0.369184
v -0.373682 -0.29923 -0.373399
v -0.373538 -0.29923 -0.3756
v -0.373108 -0.29923 -0.377763
v -0.372399 -0.29923 -0.379852
v -0.371423 -0.29923 -0.38183
v -0.370198 -0.29923 -0.383664
v -0.369462 -0.29923 0.08405
v -0.368744 -0.29923 -0.385322
v -0.367085 -0.29923 -0.386776
v -0.365251 -0.29923 -0.388002
v -0.363273 -0.29923 -0.388977
v -0.361185 -0.29923 -0.389686
v -0.359021 -0.29923 -0.390117
v -0.356821 -0.29923 -0.390261
v -0.315633 -0.29923 0.08581
v -0.309616 -0.29923 0.085588
v -0.305346 -0.29923 0.084826
v -0.301223 -0.29923 0.083479
v -0.297327 -0.29923 0.081572
v -0.293735 -0.29923 0.079142
v -0.290514 -0.29923 0.076237
v -0.287729 -0.29923 0.072912
v -0.285433 -0.29923 0.069232
v -0.28367 -0.29923 0.065269
v -0.282475 -0.29923 0.0611
v -0.281871 -0.29923 0.056805
v -0.281869 -0.29923 0.049111
v -0.281869 -0.29923 -0.070607
v -0.281869 -0.29923 -0.099894
v -0.248532 -0.29923 -0.390261
v -0.247466 -0.29923 -0.132652
v -0.246331 -0.29923 -0.390117
v -0.244167 -0.29923 -0.389686
v -0.242079 -0.29923 -0.388977
v -0.240101 -0.29923 -0.388002
v -0.238267 -0.29923 -0.386776
v -0.236608 -0.29923 -0.385322
v -0.235154 -0.29923 -0.383664
v -0.233929 -0.29923 -0.38183
v -0.232953 -0.29923 -0.379852
v -0.232244 -0.29923 -0.377763
v -0.231814 -0.29923 -0.3756
v -0.23167 -0.29923 -0.356537
v -0.185063 -0.29923 -0.175404
v -0.182131 -0.29923 -0.177592
v -0.181748 -0.29923 -0.310343
v -0.179384 -0.29923 -0.18001
v -0.179259 -0.29923 -0.307876
v -0.176946 -0.29923 -0.305245
v -0.176842 -0.29923 -0.182642
v -0.174819 -0.29923 -0.302461
v -0.174521 -0.29923 -0.185471
v -0.172888 -0.29923 -0.299538
v -0.172436 -0.29923 -0.188477
v -0.171162 -0.29923 -0.296489
v -0.1706 -0.29923 -0.191643
v -0.169649 -0.29923 -0.293328
v -0.169026 -0.29923 -0.194946
v -0.168357 -0.29923 -0.290072
v -0.167724 -0.29923 -0.198366
v -0.167291 -0.29923 -0.286734
v -0.166703 -0.29923 -0.201879
v -0.166457 -0.29923 -0.283331
v -0.165968 -0.29923 -0.205464
v -0.165858 -0.29923 -0.279879
v -0.165526 -0.29923 -0.209096
v -0.165498 -0.29923 -0.276394
v -0.165378 -0.29923 -0.212752
v -0.165378 -0.29923 -0.272893
v -0.23167 -0.29923 -0.364888
v -0.23167 -0.29923 -0.373399
vn 0.0 1.0 0.0
vn 0.0 -1.0 0.0
usemtl material_0_0
f 128//2 129//2 130//2
f 130//2 129//2 131//2
f 131//2 129//2 132//2
f 132//2 129//2 133//2
f 133//2 129//2 134//2
f 129//2 135//2 134//2
f 134//2 135//2 136//2
f 135//2 137//2 136//2
f 137//2 138//2 136//2
f 136//2 138//2 139//2
f 138//2 140//2 139//2
f 140//2 141//2 139//2
f 141//2 142//2 139//2
f 139//2 142//2 143//2
f 142//2 144//2 143//2
f 144//2 145//2 143//2
f 145//2 146//2 143//2
f 146//2 147//2 143//2
f 147//2 148//2 143//2
f 148//2 149//2 143//2
f 149//2 150//2 143//2
f 151//2 152//2 150//2
f 152//2 153//2 150//2
f 153//2 154//2 150//2
f 154//2 155//2 150//2
f 150//2 155//2 143//2
f 155//2 156//2 143//2
f 156//2 157//2 143//2
f 157//2 158//2 143//2
f 143//2 158//2 159//2
f 158//2 160//2 159//2
f 160//2 161//2 159//2
f 161//2 162//2 159//2
f 162//2 163//2 159//2
f 163//2 164//2 159//2
f 159//2 164//2 165//2
f 164//2 166//2 165//2
f 166//2 167//2 165//2
f 167//2 168//2 165//2
f 168//2 169//2 165//2
f 169//2 170//2 165//2
f 170//2 171//2 165//2
f 171//2 172//2 165//2
f 172//2 173//2 165//2
f 173//2 174//2 165//2
f 174//2 175//2 165//2
f 165//2 175//2 176//2
f 175//2 177//2 176//2
f 177//2 178//2 176//2
f 178//2 179//2 176//2
f 176//2 179//2 180//2
f 179//2 181//2 180//2
f 180//2 181//2 182//2
f 181//2 183//2 182//2
f 184//2 185//2 183//2
f 183//2 185//2 182//2
f 185//2 186//2 182//2
f 186//2 187//2 182//2
f 187//2 188//2 182//2
f 188//2 189//2 182//2
f 182//2 189//2 190//2
f 189//2 191//2 190//2
f 191//2 192//2 190//2
f 192//2 193//2 190//2
f 193//2 194//2 190//2
f 194//2 195//2 190//2
f 195//2 196//2 190//2
f 196//2 197//2 190//2
f 190//2 197//2 198//2
f 198//2 197//2 199//2
f 199//2 197//2 200//2
f 200//2 197//2 201//2
f 201//2 197//2 202//2
f 202//2 197//2 203//2
f 203//2 197//2 204//2
f 204//2 197//2 205//2
f 205//2 197//2 206//2
f 206//2 197//2 207//2
f 207//2 197//2 208//2
f 208//2 197//2 209//2
f 209//2 197//2 210//2
f 210//2 197//2 211//2
f 211//2 197//2 212//2
f 197//2 213//2 212//2
f 212//2 213//2 214//2
f 213//2 215//2 214//2
f 215//2 216//2 214//2
f 216//2 217//2 214//2
f 217//2 218//2 214//2
f 218//2 219//2 214//2
f 219//2 220//2 214//2
f 220//2 221//2 214//2
f 221//2 222//2 214//2
f 222//2 223//2 214//2
f 223//2 224//2 214//2
f 224//2 225//2 214//2
f 225//2 226//2 214//2
f 214//2 226//2 227//2
f 227//2 226//2 228//2
f 226//2 229//2 228//2
f 228//2 229//2 230//2
f 229//2 231//2 230//2
f 231//2 232//2 230//2
f 230//2 232//2 233//2
f 232//2 234//2 233//2
f 233//2 234//2 235//2
f 234//2 236//2 235//2
f 235//2 236//2 237//2
f 236//2 238//2 237//2
f 237//2 238//2 239//2
f 238//2 240//2 239//2
f 239//2 240//2 241//2
f 240//2 242//2 241//2
f 241//2 242//2 243//2
f 242//2 244//2 243//2
f 243//2 244//2 245//2
f 244//2 246//2 245//2
f 245//2 246//2 247//2
f 246//2 248//2 247//2
f 247//2 248//2 249//2
f 248//2 250//2 249//2
f 249//2 250//2 251//2
f 252//2 251//2 250//2
f 226//2 225//2 253//2
f 254//2 253//2 225//2
usemtl material_1_0
f 1//1 2//1 3//1
f 2//1 1//1 4//1
f 5//1 6//1 7//1
f 6//1 5//1 8//1
f 8//1 5//1 9//1
f 8//1 9//1 10//1
f 10//1 9//1 11//1
f 10//1 11//1 12//1
f 12//1 11//1 13//1
f 12//1 13//1 14//1
f 14//1 13//1 15//1
f 14//1 15//1 16//1
f 16//1 15//1 17//1
f 16//1 17//1 18//1
f 18//1 17//1 19//1
f 18//1 19//1 20//1
f 20//1 19//1 21//1
f 20//1 21//1 22//1
f 22//1 21//1 23//1
f 22//1 23//1 24//1
f 24//1 23//1 25//1
f 24//1 25//1 26//1
f 26//1 25//1 27//1
f 26//1 27//1 28//1
f 26//1 28//1 29//1
f 29//1 28//1 4//1
f 29//1 4//1 30//1
f 30//1 4//1 31//1
f 31//1 4//1 1//1
f 31//1 1//1 32//1
f 31//1 32//1 33//1
f 31//1 33//1 34//1
f 31//1 34//1 35//1
f 31//1 35//1 36//1
f 31//1 36//1 37//1
f 31//1 37//1 38//1
f 31//1 38//1 39//1
f 31//1 39//1 40//1
f 31//1 40//1 41//1
f 31//1 41//1 42//1
f 31//1 42//1 43//1
f 43//1 42//1 44//1
f 43//1 44//1 45//1
f 45//1 44//1 46//1
f 46//1 44//1 47//1
f 47//1 44//1 48//1
f 48//1 44//1 49//1
f 49//1 44//1 50//1
f 50//1 44//1 51//1
f 51//1 44//1 52//1
f 52//1 44//1 53//1
f 53//1 44//1 54//1
f 54//1 44//1 55//1
f 55//1 44//1 56//1
f 56//1 44//1 57//1
f 57//1 44//1 58//1
f 58//1 44//1 59//1
f 59//1 44//1 60//1
f 59//1 60//1 61//1
f 59//1 61//1 62//1
f 59//1 62//1 63//1
f 59//1 63//1 64//1
f 59//1 64//1 65//1
f 59//1 65//1 66//1
f 59//1 66//1 67//1
f 67//1 66//1 68//1
f 67//1 68//1 69//1
f 67//1 69//1 70//1
f 67//1 70//1 71//1
f 67//1 71//1 72//1
f 72//1 71//1 73//1
f 67//1 72//1 74//1
f 67//1 74//1 75//1
f 75//1 74//1 76//1
f 75//1 76//1 77//1
f 77//1 76//1 78//1
f 77//1 78//1 79//1
f 77//1 79//1 80//1
f 77//1 80//1 81//1
f 81//1 80//1 82//1
f 81//1 82//1 83//1
f 81//1 83//1 84//1
f 81//1 84//1 85//1
f 81//1 85//1 86//1
f 81//1 86//1 87//1
f 81//1 87//1 88//1
f 81//1 88//1 89//1
f 81//1 89//1 90//1
f 81//1 90//1 91//1
f 81//1 91//1 92//1
f 92//1 91//1 93//1
f 92//1 93//1 94//1
f 92//1 94//1 95//1
f 92//1 95//1 96//1
f 92//1 96//1 97//1
f 92//1 97//1 98//1
f 98//1 97//1 99//1
f 98//1 99//1 100//1
f 98//1 100//1 101//1
f 98//1 101//1 102//1
f 102//1 101//1 103//1
f 102//1 103//1 104//1
f 102//1 104//1 105//1
f 102//1 105//1 106//1
f 98//1 102//1 107//1
f 98//1 107//1 108//1
f 98//1 108//1 109//1
f 98//1 109//1 110//1
f 98//1 110//1 111//1
f 98//1 111//1 112//1
f 98//1 112//1 113//1
f 98//1 113//1 114//1
f 114//1 113//1 115//1
f 114//1 115//1 116//1
f 114//1 116//1 117//1
f 114//1 117//1 118//1
f 118//1 117//1 119//1
f 118//1 119//1 120//1
f 118//1 120//1 121//1
f 121//1 120//1 122//1
f 121//1 122//1 123//1
f 123//1 122//1 124//1
f 124//1 122//1 125//1
f 125//1 122//1 126//1
f 126//1 122//1 127//1
