# SSTK version 0.8.0
# 353
mtllib original-353.mtl
o #ID2479
v -0.410054 -0.216574 -0.464227
v -0.396672 -0.22956 -0.466662
v -0.400123 -0.232196 -0.464227
v -0.406209 -0.214556 -0.466662
v -0.417362 -0.199294 -0.464227
v -0.41324 -0.197932 -0.466662
v -0.38492 -0.24248 -0.466662
v -0.387861 -0.245677 -0.464227
v -0.41378 -0.218528 -0.461688
v -0.403468 -0.23475 -0.461688
v -0.421833 -0.180883 -0.464227
v -0.417547 -0.180197 -0.466662
v -0.421356 -0.200614 -0.461688
v -0.371317 -0.252918 -0.466662
v -0.372786 -0.257245 -0.464227
v -0.390711 -0.248775 -0.461688
v -0.417381 -0.220418 -0.459048
v -0.406701 -0.237218 -0.459048
v -0.423338 -0.161899 -0.464227
v -0.418997 -0.161899 -0.466662
v -0.425986 -0.181548 -0.461688
v -0.425217 -0.20189 -0.459048
v -0.271966 -0.256962 -0.464386
v -0.272008 -0.257245 -0.464227
v -0.271607 -0.255478 -0.465221
v -0.271128 -0.254127 -0.465981
v -0.270796 -0.253451 -0.466362
v -0.270498 -0.252918 -0.466662
v -0.37421 -0.261438 -0.461688
v -0.393465 -0.25177 -0.459048
v -0.420853 -0.22224 -0.45631
v -0.409818 -0.239599 -0.45631
v -0.417547 -0.143602 -0.466662
v -0.421833 -0.142916 -0.464227
v -0.427544 -0.161899 -0.461688
v -0.430001 -0.18219 -0.459048
v -0.428939 -0.20312 -0.45631
v -0.271966 -0.256962 -0.464386
v -0.269656 -0.257245 -0.464227
v -0.269656 -0.252918 -0.466662
v -0.271607 -0.255478 -0.465221
v -0.271128 -0.254127 -0.465981
v -0.270796 -0.253451 -0.466362
v -0.272252 -0.26007 -0.462516
v -0.272171 -0.261438 -0.461688
v -0.272219 -0.258474 -0.463482
v -0.272191 -0.258222 -0.463635
v -0.375585 -0.265491 -0.459048
v -0.396121 -0.254658 -0.45631
v -0.424192 -0.223991 -0.453479
v -0.412815 -0.241888 -0.453479
v -0.41324 -0.125867 -0.466662
v -0.417362 -0.124505 -0.464227
v -0.425986 -0.142251 -0.461688
v -0.431609 -0.161899 -0.459048
v -0.433871 -0.18281 -0.45631
v -0.432518 -0.204302 -0.453479
v -0.272252 -0.26007 -0.462516
v -0.269656 -0.261438 -0.461688
v -0.272219 -0.258474 -0.463482
v -0.272191 -0.258222 -0.463635
v -0.271477 -0.265088 -0.45931
v -0.27134 -0.265491 -0.459048
v -0.271934 -0.26338 -0.460422
v -0.272052 -0.262771 -0.460819
v -0.272163 -0.261736 -0.461494
v -0.376912 -0.269398 -0.45631
v -0.398675 -0.257434 -0.453479
v -0.426291 -0.225093 -0.451563
v -0.414775 -0.243384 -0.451486
v -0.406209 -0.109242 -0.466662
v -0.410054 -0.107225 -0.464227
v -0.421356 -0.123185 -0.461688
v -0.430001 -0.141609 -0.459048
v -0.435529 -0.161899 -0.45631
v -0.437593 -0.183405 -0.453479
v -0.431362 -0.212941 -0.451614
v -0.432105 -0.211133 -0.45163
v -0.433415 -0.207973 -0.451649
v -0.434657 -0.205009 -0.451658
v -0.271477 -0.265088 -0.45931
v -0.269656 -0.265491 -0.459048
v -0.271934 -0.26338 -0.460422
v -0.272052 -0.262771 -0.460819
v -0.272163 -0.261736 -0.461494
v -0.269656 -0.269398 -0.45631
v -0.269656 -0.268683 -0.456811
v -0.270796 -0.266999 -0.457991
v -0.270936 -0.266751 -0.458164
v -0.378188 -0.273156 -0.453479
v -0.400401 -0.259311 -0.451419
v -0.396672 -0.094239 -0.466662
v -0.400123 -0.091603 -0.464227
v -0.41378 -0.105271 -0.461688
v -0.425217 -0.121909 -0.459048
v -0.433871 -0.140989 -0.45631
v -0.439298 -0.161899 -0.453479
v -0.43566 -0.200808 -0.451672
v -0.438089 -0.190783 -0.451676
v -0.439917 -0.183777 -0.451576
v -0.270796 -0.266999 -0.457991
v -0.269656 -0.268683 -0.456811
v -0.270936 -0.266751 -0.458164
v -0.269656 -0.273156 -0.453479
v -0.384931 -0.271306 -0.451339
v -0.379083 -0.275794 -0.451339
v -0.391938 -0.265853 -0.451388
v -0.392432 -0.265466 -0.451393
v -0.38492 -0.081319 -0.466662
v -0.387861 -0.078122 -0.464227
v -0.403468 -0.089049 -0.461688
v -0.417381 -0.103381 -0.459048
v -0.428939 -0.120679 -0.45631
v -0.437593 -0.140394 -0.453479
v -0.441777 -0.161899 -0.451475
v -0.269656 -0.275794 -0.451339
v -0.371317 -0.070881 -0.466662
v -0.372786 -0.066554 -0.464227
v -0.390711 -0.075024 -0.461688
v -0.406701 -0.08658 -0.459048
v -0.420853 -0.101559 -0.45631
v -0.432518 -0.119496 -0.453479
v -0.439917 -0.140022 -0.451576
v -0.272084 -0.070881 -0.466662
v -0.273059 -0.069672 -0.465981
v -0.273975 -0.068321 -0.465221
v -0.274825 -0.066837 -0.464386
v -0.274962 -0.066554 -0.464227
v -0.37421 -0.062361 -0.461688
v -0.393465 -0.072029 -0.459048
v -0.409818 -0.0842 -0.45631
v -0.424192 -0.099808 -0.453479
v -0.4344 -0.118875 -0.451877
v -0.275603 -0.065325 -0.463482
v -0.276303 -0.063729 -0.462516
v -0.276804 -0.062361 -0.461688
v -0.375585 -0.058308 -0.459048
v -0.396121 -0.069141 -0.45631
v -0.412815 -0.081911 -0.453479
v -0.43276 -0.115278 -0.451966
v -0.425709 -0.099012 -0.452094
v -0.276922 -0.062063 -0.461494
v -0.277453 -0.060419 -0.460422
v -0.277895 -0.058711 -0.45931
v -0.277975 -0.058308 -0.459048
v -0.376912 -0.0544 -0.45631
v -0.398675 -0.066365 -0.453479
v -0.424076 -0.096501 -0.45212
v -0.414064 -0.080958 -0.452209
v -0.278243 -0.057048 -0.458164
v -0.278243 -0.0544 -0.45631
v -0.378188 -0.050643 -0.453479
v -0.413773 -0.080641 -0.452211
v -0.407176 -0.073416 -0.452226
v -0.402892 -0.068694 -0.45222
v -0.400101 -0.065649 -0.452232
v -0.39972 -0.065228 -0.452231
v -0.278243 -0.050643 -0.453479
v -0.391938 -0.059203 -0.452197
v -0.383794 -0.052942 -0.45219
v -0.37874 -0.049016 -0.452159
v -0.278243 -0.048545 -0.451777
v -0.377933 -0.049011 -0.452155
vn -0.44595481274372534 -0.2339711066860218 -0.8639339246880094
vn -0.21106071189541792 -0.16117140908364846 -0.9640939543365006
vn -0.4001969915835913 -0.3056007935730124 -0.8639736818300591
vn -0.2348366083246233 -0.12320750436753077 -0.9641948341793335
vn -0.47822021379887697 -0.15803290455998437 -0.8639045249276629
vn -0.2515328937603317 -0.08312169793803603 -0.9642727760797003
vn -0.1800556940296432 -0.1957624935088312 -0.9639797680359836
vn -0.34082121421226885 -0.3705519154520414 -0.8640209360297343
vn -0.47047387958920156 -0.24683508929143283 -0.8471875632460475
vn -0.4222019996531505 -0.3224043997351369 -0.8472312993039782
vn -0.4973589119342086 -0.07958655190969256 -0.8638866207291012
vn -0.2614075967321632 -0.04183001947708627 -0.9643216879450867
vn -0.5045117134065489 -0.16672120443033533 -0.8471552225117229
vn -0.09276934824831284 -0.2732762948399492 -0.9574517819212268
vn -0.15634930334908106 -0.46056770986559326 -0.8737461187160831
vn -0.35956311078510655 -0.3909288117259219 -0.8472833254142892
vn -0.49514451307641516 -0.2597786068605688 -0.8290639218949897
vn -0.44434350881674173 -0.3393122067326924 -0.8291116164513778
vn -0.5036966111045157 -1.3597430491589525e-08 -0.8638806190451468
vn -0.26467260767052325 -1.5172440653841282e-08 -0.9643383279476582
vn -0.5247016925714015 -0.08396188881128824 -0.8471354880064625
vn -0.530965478424266 -0.17546309287007333 -0.8290285663124994
vn 1.2615700287472325e-08 -0.49039991117467935 -0.8714975198587008
vn 1.250063998288506e-08 -0.5042734993095868 -0.8635439988177
vn 1.2736409666814893e-08 -0.25347829336899547 -0.9673410746943093
vn -0.16514359038496723 -0.4864733716764219 -0.8579459500484492
vn -0.3784218006943945 -0.4114325007549685 -0.8291684015215032
vn -0.5199339067683281 -0.2727844035510175 -0.8094797105375399
vn -0.4665919189216722 -0.35630161444907665 -0.8095314328288762
vn -0.26140759706020367 0.041829989529578684 -0.9643216891552141
vn -0.4973589131217009 0.07958652209971193 -0.8638866227917136
vn -0.531387415385268 -1.3333700574151242e-08 -0.8471289245269368
vn -0.552212921246457 -0.08836419339982292 -0.8290070318961431
vn -0.5575461026014628 -0.18424700085968101 -0.8094414037767848
vn 1.2615890287476654e-08 -0.49039991117467935 -0.8714975198587008
vn 1.2500709982884964e-08 -0.5042734993095868 -0.8635439988177
vn 1.2736449666813845e-08 -0.25347829336899547 -0.9673410746943093
vn 1.2382240173338422e-08 -0.5180180072517109 -0.855369711974282
vn 1.225751963121604e-08 -0.5319889839943963 -0.8467512745243493
vn -0.17402979970907442 -0.5126499991430034 -0.8407755985944753
vn -0.3973719125739384 -0.4320357136707964 -0.8095929256177429
vn -0.5447996633189613 -0.28583028075521666 -0.7883491469209188
vn -0.488909390207717 -0.3733438925223589 -0.7884046842091765
vn -0.2515328943875668 0.0831216681453127 -0.9642727784842594
vn -0.4782202137988771 0.15803290455998403 -0.8639045249276631
vn -0.5247016938930497 0.08396185902277614 -0.8471354901402749
vn -0.5592487847600653 -1.3048279828499876e-08 -0.8289998774091526
vn -0.5798558171950436 -0.09278756275152243 -0.8094181240024839
vn -0.5842082001926339 -0.19305770006365808 -0.7883080002599328
vn 1.2382330173339683e-08 -0.5180180072517109 -0.855369711974282
vn 1.2257569631214537e-08 -0.5319889839943963 -0.8467512745243493
vn 1.2129420376288953e-08 -0.5458165169327736 -0.8379047259941761
vn 1.1994510031967527e-08 -0.5598692014921522 -0.8285810022083173
vn -0.18299880365998247 -0.5390707107814333 -0.822140016442829
vn -0.41638139144541114 -0.4527033906991729 -0.7884707838008048
vn -0.5565478914744293 -0.29222559552349414 -0.7777265880862669
vn -0.4994079875386022 -0.3816007904781676 -0.7777997805920757
vn -0.2348366083246233 0.12320750436753033 -0.9641948341793335
vn -0.44595481274372534 0.23397110668602142 -0.8639339246880094
vn -0.5045117134065489 0.16672120443033497 -0.8471552225117229
vn -0.5522128769314938 0.08836415630861706 -0.8290070653685102
vn -0.5872435111463693 -1.2739880421538693e-08 -0.8094103153632796
vn -0.6075833022803843 -0.09722446036490343 -0.7882829029585867
vn -0.5801702811955038 -0.24535059204768955 -0.7766630748267735
vn -0.5968719873962064 -0.197408895831433 -0.7776718835783618
vn 1.2129500376291433e-08 -0.5458165169327736 -0.8379047259941761
vn 1.1994580031967713e-08 -0.5598692014921522 -0.8285810022083173
vn 1.1710279916372556e-08 -0.5878764958017566 -0.8089506942229836
vn 1.1856069607388335e-08 -0.573762580999953 -0.8190216728782409
vn -0.1920382008731698 -0.5656984025721488 -0.8019393036463015
vn -0.42528320767945593 -0.46263110835385746 -0.7778860140465017
vn -0.21106069154718307 0.16117139354521054 -0.9640939613887849
vn -0.40019699158359123 0.3056007935730119 -0.8639736818300591
vn -0.47047387958920156 0.24683508929143239 -0.8471875632460477
vn -0.5309654784242661 0.175463092870073 -0.8290285663124997
vn -0.5798558182711118 0.0927875429237121 -0.8094181255045626
vn -0.6153237174961333 -1.240714052781711e-08 -0.7882745224138218
vn -0.6121241619657458 -0.1486556907632984 -0.7766630517421437
vn -0.620890597036237 -0.09886124952809527 -0.7776382962880165
vn 1.1856259607382045e-08 -0.573762580999953 -0.8190216728782409
vn 1.140374985432274e-08 -0.615962992131378 -0.7877750899365631
vn -0.38348368284842616 -0.4997346776490199 -0.7766630652632054
vn -0.195797900037137 -0.5767736001093969 -0.7930923001504258
vn -0.1800556940296432 0.1957624935088308 -0.9639797680359836
vn -0.3408211847646032 0.3705518834355806 -0.8640209613765144
vn -0.4222019996531505 0.32240439973513646 -0.8472312993039784
vn -0.49514451307641516 0.2597786068605685 -0.8290639218949899
vn -0.5575460677439901 0.18424688934066624 -0.809441453170952
vn -0.6075833034618233 0.09722444055395485 -0.7882829044913942
vn -0.6287257879787472 -1.1360819955448743e-08 -0.7776270851317507
vn 1.1242889348433544e-08 -0.6299162634940546 -0.7766630549895424
vn -0.09276934824831283 0.2732762948399487 -0.9574517819212269
vn -0.15634930334908106 0.4605677098655928 -0.8737461187160833
vn -0.35956311078510655 0.3909288117259215 -0.8472833254142894
vn -0.4443434719757069 0.33931217859992413 -0.8291116477087676
vn -0.5199338646807351 0.2727843814696742 -0.8094797450117959
vn -0.5842082001926339 0.1930577000636577 -0.7883080002599328
vn -0.6208905982638772 0.09886122972356587 -0.7776382978255821
vn 1.2452989687806914e-08 0.11730889705909743 -0.9930954751033649
vn 1.2615710287472554e-08 0.4903999111746789 -0.871497519858701
vn 1.2531089813245597e-08 0.5006463925387239 -0.8656518870989434
vn -0.16514359841876247 0.48647329534205463 -0.8579459917852317
vn -0.3784218006943945 0.4114325007549682 -0.8291684015215034
vn -0.46659188114959044 0.35630158560534125 -0.8095314672947594
vn -0.5447996788909822 0.2858301889251135 -0.7883491694543202
vn -0.5972287874258706 0.19632839586647727 -0.7776714836268076
vn 1.2382240173338425e-08 0.5180180072517105 -0.8553697119742824
vn 1.2282590048151558e-08 0.5292183020746996 -0.848485703326327
vn -0.17402979970907442 0.5126499991430029 -0.8407755985944755
vn -0.3973719125739383 0.43203571367079596 -0.809592925617743
vn -0.48890940846084874 0.37334380646092163 -0.7884047136437813
vn -0.5801702811955037 0.2453505920476892 -0.7766630748267737
vn -0.5568463001079781 0.29165680005655503 -0.777726500150809
vn 1.2129420376288953e-08 0.5458165169327731 -0.8379047259941763
vn 1.2009129937133106e-08 0.5583658970769961 -0.8295947956571336
vn -0.1829988036599825 0.539070710781433 -0.8221400164428294
vn -0.41638139144541114 0.4527033906991726 -0.788470783800805
vn -0.5315937006009692 0.3379387003820412 -0.7766631008780217
vn -0.4996901868307852 0.38123118995274347 -0.777799779501274
vn 1.1856069607388335e-08 0.5737625809999527 -0.8190216728782411
vn 1.1710289916372487e-08 0.5878764958017563 -0.8089506942229838
vn -0.1920382008731698 0.5656984025721483 -0.8019393036463017
vn -0.46599359519336697 0.42384479562812344 -0.7766630919888718
vn -0.425286602653882 0.46262800288690037 -0.77788600485418
vn 1.1403750556751529e-08 0.6159629300724133 -0.7877751384605934
vn -0.38348368284842616 0.4997346776490195 -0.7766630652632055
vn -0.19459829594458422 0.5771802879716003 -0.7930916834720212
vn 1.1242890056641397e-08 0.6299162031735018 -0.7766631039128093
usemtl material_0_0
f 1//1 2//2 3//3
f 2//2 1//1 4//4
f 5//5 4//4 1//1
f 4//4 5//5 6//6
f 3//3 7//7 8//8
f 7//7 3//3 2//2
f 9//9 3//3 10//10
f 3//3 9//9 1//1
f 11//11 6//6 5//5
f 6//6 11//11 12//12
f 13//13 1//1 9//9
f 1//1 13//13 5//5
f 8//8 14//14 15//15
f 14//14 8//8 7//7
f 10//10 8//8 16//16
f 8//8 10//10 3//3
f 17//17 10//10 18//18
f 10//10 17//17 9//9
f 19//19 12//12 11//11
f 12//12 19//19 20//20
f 21//21 5//5 13//13
f 5//5 21//21 11//11
f 22//22 9//9 17//17
f 9//9 22//22 13//13
f 15//15 23//23 24//24
f 23//23 15//15 14//14
f 23//23 14//14 25//23
f 25//23 14//14 26//23
f 26//23 14//14 27//23
f 27//23 14//14 28//25
f 16//16 15//15 29//26
f 15//15 16//16 8//8
f 18//18 16//16 30//27
f 16//16 18//18 10//10
f 31//28 18//18 32//29
f 18//18 31//28 17//17
f 19//19 33//30 20//20
f 33//30 19//19 34//31
f 35//32 11//11 21//21
f 11//11 35//32 19//19
f 36//33 13//13 22//22
f 13//13 36//33 21//21
f 37//34 17//17 31//28
f 17//17 37//34 22//22
f 38//35 39//36 24//24
f 39//36 38//35 40//37
f 40//37 38//35 41//35
f 40//37 41//35 42//35
f 40//37 42//35 43//35
f 40//37 43//35 28//25
f 29//26 44//38 45//39
f 44//38 29//26 15//15
f 44//38 15//15 46//38
f 46//38 15//15 47//38
f 47//38 15//15 24//24
f 30//27 29//26 48//40
f 29//26 30//27 16//16
f 32//29 30//27 49//41
f 30//27 32//29 18//18
f 50//42 32//29 51//43
f 32//29 50//42 31//28
f 34//31 52//44 33//30
f 52//44 34//31 53//45
f 35//32 34//31 19//19
f 34//31 35//32 54//46
f 55//47 21//21 36//33
f 21//21 55//47 35//32
f 56//48 22//22 37//34
f 22//22 56//48 36//33
f 57//49 31//28 50//42
f 31//28 57//49 37//34
f 58//50 59//51 45//39
f 59//51 58//50 39//36
f 39//36 58//50 60//50
f 39//36 60//50 61//50
f 39//36 61//50 24//24
f 48//40 62//52 63//53
f 62//52 48//40 29//26
f 62//52 29//26 64//52
f 64//52 29//26 65//52
f 65//52 29//26 66//52
f 66//52 29//26 45//39
f 49//41 48//40 67//54
f 48//40 49//41 30//27
f 51//43 49//41 68//55
f 49//41 51//43 32//29
f 69//56 51//43 70//57
f 51//43 69//56 50//42
f 53//45 71//58 52//44
f 71//58 53//45 72//59
f 54//46 53//45 34//31
f 53//45 54//46 73//60
f 55//47 54//46 35//32
f 54//46 55//47 74//61
f 75//62 36//33 56//48
f 36//33 75//62 55//47
f 76//63 37//34 57//49
f 37//34 76//63 56//48
f 77//64 50//42 69//56
f 50//42 77//64 57//49
f 57//49 77//64 78//64
f 57//49 78//64 79//64
f 57//49 79//64 80//65
f 81//66 82//67 63//53
f 82//67 81//66 59//51
f 59//51 81//66 83//66
f 59//51 83//66 84//66
f 59//51 84//66 85//66
f 59//51 85//66 45//39
f 48//40 86//68 67//54
f 86//68 48//40 87//69
f 87//69 48//40 88//69
f 88//69 48//40 89//69
f 89//69 48//40 63//53
f 68//55 67//54 90//70
f 67//54 68//55 49//41
f 70//57 68//55 91//71
f 68//55 70//57 51//43
f 72//59 92//72 71//58
f 92//72 72//59 93//73
f 73//60 72//59 53//45
f 72//59 73//60 94//74
f 74//61 73//60 54//46
f 73//60 74//61 95//75
f 75//62 74//61 55//47
f 74//61 75//62 96//76
f 97//77 56//48 76//63
f 56//48 97//77 75//62
f 98//78 57//49 80//65
f 57//49 98//78 76//63
f 76//63 98//78 99//78
f 76//63 99//78 100//79
f 101//80 82//67 102//80
f 82//67 101//80 103//80
f 82//67 103//80 63//53
f 67//54 104//81 90//70
f 104//81 67//54 86//68
f 105//82 90//70 106//83
f 90//70 105//82 68//55
f 68//55 105//82 107//82
f 68//55 107//82 108//82
f 68//55 108//82 91//71
f 93//73 109//84 92//72
f 109//84 93//73 110//85
f 94//74 93//73 72//59
f 93//73 94//74 111//86
f 95//75 94//74 73//60
f 94//74 95//75 112//87
f 96//76 95//75 74//61
f 95//75 96//76 113//88
f 97//77 96//76 75//62
f 96//76 97//77 114//89
f 115//90 76//63 100//79
f 76//63 115//90 97//77
f 90//70 116//91 106//83
f 116//91 90//70 104//81
f 110//85 117//92 109//84
f 117//92 110//85 118//93
f 111//86 110//85 93//73
f 110//85 111//86 119//94
f 112//87 111//86 94//74
f 111//86 112//87 120//95
f 113//88 112//87 95//75
f 112//87 113//88 121//96
f 114//89 113//88 96//76
f 113//88 114//89 122//97
f 115//90 114//89 97//77
f 114//89 115//90 123//98
f 118//93 124//99 117//92
f 124//99 118//93 125//100
f 125//100 118//93 126//100
f 126//100 118//93 127//100
f 127//100 118//93 128//101
f 119//94 118//93 110//85
f 118//93 119//94 129//102
f 120//95 119//94 111//86
f 119//94 120//95 130//103
f 121//96 120//95 112//87
f 120//95 121//96 131//104
f 122//97 121//96 113//88
f 121//96 122//97 132//105
f 123//98 122//97 114//89
f 122//97 123//98 133//106
f 129//102 128//101 118//93
f 128//101 129//102 134//107
f 134//107 129//102 135//107
f 135//107 129//102 136//108
f 130//103 129//102 119//94
f 129//102 130//103 137//109
f 131//104 130//103 120//95
f 130//103 131//104 138//110
f 132//105 131//104 121//96
f 131//104 132//105 139//111
f 133//106 132//105 122//97
f 132//105 133//106 140//112
f 132//105 140//112 141//113
f 137//109 136//108 129//102
f 136//108 137//109 142//114
f 142//114 137//109 143//114
f 143//114 137//109 144//114
f 144//114 137//109 145//115
f 138//110 137//109 130//103
f 137//109 138//110 146//116
f 139//111 138//110 131//104
f 138//110 139//111 147//117
f 141//113 139//111 132//105
f 139//111 141//113 148//118
f 139//111 148//118 149//119
f 146//116 145//115 137//109
f 145//115 146//116 150//120
f 150//120 146//116 151//121
f 147//117 146//116 138//110
f 146//116 147//117 152//122
f 149//119 147//117 139//111
f 147//117 149//119 153//123
f 147//117 153//123 154//123
f 147//117 154//123 155//123
f 147//117 155//123 156//123
f 147//117 156//123 157//124
f 152//122 151//121 146//116
f 151//121 152//122 158//125
f 157//124 152//122 147//117
f 152//122 157//124 159//126
f 152//122 159//126 160//126
f 152//122 160//126 161//127
f 161//127 158//125 152//122
f 158//125 161//127 162//128
f 162//128 161//127 163//128
