# SSTK version 0.8.0
# 19
mtllib original-19.mtl
o #ID1147
v 0.155583 0.379041 0.087491
v 0.158592 0.39107 0.085475
v 0.155583 0.379041 0.085475
v 0.158592 0.39107 0.087491
v 0.158592 0.39107 0.087491
v 0.155583 0.379041 0.087491
v 0.158592 0.39107 0.085475
v 0.155583 0.379041 0.085475
v 0.155583 0.379041 0.087491
v 0.161575 0.379041 0.085475
v 0.161575 0.379041 0.087491
v 0.155583 0.379041 0.085475
v 0.155583 0.379041 0.085475
v 0.155583 0.379041 0.087491
v 0.161575 0.379041 0.085475
v 0.161575 0.379041 0.087491
v 0.158592 0.39107 0.085475
v 0.161575 0.379041 0.087491
v 0.161575 0.379041 0.085475
v 0.158592 0.39107 0.087491
v 0.158592 0.39107 0.087491
v 0.158592 0.39107 0.085475
v 0.161575 0.379041 0.087491
v 0.161575 0.379041 0.085475
v 0.155583 0.379041 0.085475
v 0.161575 0.379041 0.064156
v 0.161575 0.379041 0.085475
v 0.155583 0.379041 0.064156
v 0.155583 0.379041 0.064156
v 0.155583 0.379041 0.085475
v 0.161575 0.379041 0.064156
v 0.161575 0.379041 0.085475
vn -0.9701098737259227 0.24266609342772627 0.0
vn 0.0 -1.0 0.0
vn 0.9706000313777474 0.2406981077813355 0.0
vn 0.9701098737259227 -0.24266609342772627 0.0
vn 0.0 1.0 0.0
vn -0.9706000313777474 -0.2406981077813355 0.0
usemtl material_0_0
f 5//4 6//4 7//4
f 8//4 7//4 6//4
f 13//5 14//5 15//5
f 16//5 15//5 14//5
f 21//6 22//6 23//6
f 24//6 23//6 22//6
f 29//5 30//5 31//5
f 32//5 31//5 30//5
usemtl material_1_0
f 1//1 2//1 3//1
f 2//1 1//1 4//1
f 9//2 10//2 11//2
f 10//2 9//2 12//2
f 17//3 18//3 19//3
f 18//3 17//3 20//3
f 25//2 26//2 27//2
f 26//2 25//2 28//2
