# SSTK version 0.8.0
# 152
mtllib original-152.mtl
o #ID1045
v 0.201357 0.372904 0.036495
v 0.19717 0.376112 0.039186
v 0.034369 0.372904 0.036495
v 0.201357 0.418041 0.074368
v 0.19717 0.414833 0.071677
v 0.038556 0.414833 0.071677
v 0.038556 0.376112 0.039186
v 0.034369 0.418041 0.074368
v 0.201357 0.418041 0.074368
v 0.038556 0.414833 0.071677
v 0.034369 0.418041 0.074368
v 0.038556 0.376112 0.039186
v 0.19717 0.376112 0.039186
v 0.034369 0.372904 0.036495
v 0.19717 0.414833 0.071677
v 0.201357 0.372904 0.036495
vn 0.0 -0.6427875875138863 0.7660444617240425
vn 0.0 0.6427875875138863 -0.7660444617240425
usemtl material_0_0
f 1//1 2//1 3//1
f 2//1 1//1 4//1
f 2//1 4//1 5//1
f 5//1 4//1 6//1
f 3//1 7//1 8//1
f 7//1 3//1 2//1
f 8//1 7//1 6//1
f 8//1 6//1 4//1
usemtl material_1_0
f 9//2 10//2 11//2
f 10//2 12//2 11//2
f 13//2 14//2 12//2
f 11//2 12//2 14//2
f 10//2 9//2 15//2
f 15//2 9//2 13//2
f 9//2 16//2 13//2
f 14//2 13//2 16//2
