# SSTK version 0.8.0
# 445
mtllib original-445.mtl
o #ID2990
v 0.341446 0.230449 -0.448909
v 0.413235 0.229604 -0.447432
v 0.413235 0.227401 -0.448291
v 0.341475 0.230787 -0.448776
v 0.446928 0.222832 -0.449021
v 0.413235 0.225641 -0.448863
v 0.430786 0.22498 -0.448685
v 0.341417 0.230106 -0.449021
v 0.429161 0.225087 -0.448686
v 0.4277 0.225358 -0.448631
v 0.416359 0.225596 -0.448808
v 0.426404 0.225794 -0.448518
v 0.416359 0.227269 -0.448264
v 0.425271 0.226395 -0.448348
v 0.424678 0.226915 -0.448193
v 0.44687 0.225973 -0.448002
v 0.433801 0.225228 -0.448537
v 0.435082 0.225573 -0.448396
v 0.436212 0.226066 -0.44821
v 0.436735 0.226404 -0.448089
v 0.413235 0.232251 -0.446804
v 0.342153 0.239028 -0.446804
v 0.423494 0.227916 -0.447833
v 0.416359 0.229553 -0.447374
v 0.422848 0.228805 -0.447502
v 0.422531 0.229451 -0.447258
v 0.446814 0.228519 -0.447011
v 0.437192 0.226686 -0.447967
v 0.43802 0.22742 -0.44766
v 0.438697 0.22828 -0.447308
v 0.439175 0.229177 -0.446946
v 0.446458 0.229057 -0.44681
v 0.422365 0.229823 -0.447174
v 0.416359 0.231953 -0.446804
v 0.422003 0.231415 -0.446804
v 0.44644 0.229086 -0.446804
v 0.439223 0.229278 -0.446921
v 0.439342 0.229762 -0.446804
vn 0.0223730296395612 0.33614439458457396 -0.9415446848313241
vn 0.022783579819890938 0.29779349764587865 -0.9543583924555934
vn 0.06308987225479684 0.2803519100196207 -0.9578217342320147
vn 0.021296749974806666 0.30890509963457546 -0.9508543988751714
vn 0.017044230683230844 0.24722320991012864 -0.968808638835425
vn 0.06421995146243209 0.33563460764315134 -0.9398006214013646
vn 0.021182650215348733 0.22219590225890531 -0.9747719099098031
vn 0.023430739789325694 0.36310469673519336 -0.9314536916249612
vn 0.06420194230663832 0.3632336130502058 -0.9294834333943497
vn 0.02312576003275732 0.3311269004690365 -0.9433028013361755
vn 0.02202728095173387 0.23105570998323582 -0.9726911420271166
vn 0.021516651038780123 0.22569941089630804 -0.9739593470207754
usemtl material_0_0
f 1//1 2//2 3//1
f 2//2 1//1 4//2
f 5//3 6//4 7//4
f 6//4 5//3 8//5
f 7//4 6//4 9//4
f 9//4 6//4 10//4
f 10//4 6//4 11//4
f 6//4 8//5 3//1
f 3//1 8//5 1//1
f 11//4 12//4 10//4
f 12//4 11//4 13//1
f 12//4 13//1 14//4
f 14//4 13//1 15//1
f 7//4 16//6 5//3
f 16//6 7//4 17//4
f 16//6 17//4 18//4
f 16//6 18//4 19//4
f 16//6 19//4 20//1
f 4//2 21//7 2//2
f 21//7 4//2 22//7
f 13//1 23//8 15//1
f 23//8 13//1 24//2
f 23//8 24//2 25//8
f 25//8 24//2 26//2
f 20//1 27//9 16//6
f 27//9 20//1 28//8
f 27//9 28//8 29//8
f 27//9 29//8 30//8
f 27//9 30//8 31//2
f 27//9 31//2 32//10
f 24//2 33//11 26//2
f 33//11 24//2 34//7
f 33//11 34//7 35//7
f 31//2 36//12 32//10
f 36//12 31//2 37//11
f 36//12 37//11 38//7
