# SSTK version 0.8.0
# 413
mtllib original-413.mtl
o #ID2355
v -0.266695 -0.152119 -0.470733
v -0.266441 -0.153027 -0.470643
v -0.266579 -0.153039 -0.470733
v -0.266207 -0.152148 -0.47042
v -0.266211 -0.152119 -0.47042
v -0.26656 -0.153479 -0.470733
v -0.2672 -0.152119 -0.471011
v -0.267078 -0.153081 -0.471011
v -0.266993 -0.15511 -0.471011
v -0.267668 -0.152549 -0.471255
v -0.267595 -0.153124 -0.471255
v -0.267568 -0.152119 -0.471183
v -0.267441 -0.156799 -0.471255
v -0.267806 -0.153142 -0.471337
v -0.267904 -0.158512 -0.471462
v -0.267896 -0.158512 -0.471459
v -0.26808 -0.154324 -0.471462
v -0.279163 -0.152119 -0.471462
v -0.275738 -0.160791 -0.471462
v -0.276398 -0.162201 -0.471462
v -0.27624 -0.158597 -0.471462
v -0.277822 -0.152119 -0.471462
v -0.275112 -0.162201 -0.471462
v -0.272987 -0.154519 -0.471462
v -0.275422 -0.159063 -0.471462
v -0.274954 -0.157222 -0.471462
v -0.27351 -0.152119 -0.471462
v -0.272671 -0.153336 -0.471462
v -0.271901 -0.152119 -0.471462
v -0.272375 -0.154519 -0.471462
v -0.269528 -0.160791 -0.471462
v -0.270236 -0.162201 -0.471462
v -0.269982 -0.158927 -0.471462
v -0.267906 -0.158549 -0.471462
v -0.268875 -0.162201 -0.471462
v -0.269102 -0.158728 -0.471462
vn 0.5121074829989735 0.06465372785361496 -0.8564845715662874
vn 0.5430898748752856 0.04557614789153167 -0.8384367612117898
vn 0.5147043086194621 0.043194030723345815 -0.8562790143396205
vn 0.5670680060404678 0.07159251076261074 -0.8205537087406242
vn 0.5607535123027623 0.0707953115532275 -0.8249506180991667
vn 0.5157203913379236 0.021601679637176466 -0.8564845856144241
vn 0.45245551234023124 0.057122641557957626 -0.8899556242725702
vn 0.4548579742798022 0.03817171784155873 -0.8897455496888417
vn 0.45564760925486064 0.019085440387652645 -0.8899556180762831
vn 0.39065478772360934 0.04932027845010197 -0.9192150711135159
vn 0.39285811161701834 0.03296868097490081 -0.9190079271755417
vn 0.4218063131881347 0.05325318166500601 -0.9051207282993727
vn 0.39341079982416605 0.016478569992634744 -0.9192150995891591
vn 0.3603483090104823 0.03024046075616024 -0.9323275233127795
vn 0.12665670310555402 0.0053051991300804 -0.9919324243216477
vn 0.36161209352828044 0.003947547929351097 -0.9323202833143981
vn 0.1839302992201764 0.007704177967335779 -0.9829090958326838
vn 2.4073589999999293e-07 2.1273109777954776e-08 -1.0
vn 0.17684950513067907 -0.007407579214905607 -0.9842100285534632
usemtl material_0_0
f 1//1 2//2 3//3
f 2//2 1//1 4//4
f 4//4 1//1 5//5
f 2//2 6//6 3//3
f 7//7 3//3 8//8
f 3//3 7//7 1//1
f 8//8 6//6 9//9
f 6//6 8//8 3//3
f 10//10 8//8 11//11
f 8//8 10//10 7//7
f 7//7 10//10 12//12
f 11//11 9//9 13//13
f 9//9 11//11 8//8
f 10//10 11//11 14//14
f 15//15 13//13 16//16
f 13//13 15//15 17//17
f 13//13 17//17 11//11
f 11//11 17//17 14//14
f 18//18 19//18 20//18
f 19//18 18//18 21//18
f 21//18 18//18 22//18
f 23//18 19//18 24//18
f 19//18 23//18 20//18
f 24//18 19//18 25//18
f 24//18 25//18 26//18
f 24//18 26//18 27//18
f 24//18 27//18 28//18
f 28//18 27//18 29//18
f 30//18 31//18 32//18
f 31//18 30//18 33//18
f 33//18 30//18 29//18
f 29//18 30//18 28//18
f 32//18 34//19 35//18
f 34//19 32//18 31//18
f 34//19 31//18 36//18
f 34//19 36//18 17//17
f 34//19 17//17 15//15
