# SSTK version 0.8.0
# 732
mtllib original-732.mtl
o #ID4553
v 0.332038 -0.068792 0.401071
v 0.332038 0.046881 0.401071
v 0.339653 -0.010956 0.401071
v 0.309714 0.100775 0.401071
v 0.309714 -0.122687 0.401071
v 0.274202 0.147056 0.401071
v 0.274202 -0.168968 0.401071
v 0.227921 0.182568 0.401071
v 0.227921 -0.20448 0.401071
v 0.174026 0.204892 0.401071
v 0.174026 -0.226804 0.401071
v 0.11619 0.212507 0.401071
v 0.11619 -0.234418 0.401071
v 0.058354 0.204892 0.401071
v 0.058354 -0.226804 0.401071
v 0.004459 0.182568 0.401071
v 0.004459 -0.20448 0.401071
v -0.041822 0.147056 0.401071
v -0.041822 -0.168968 0.401071
v -0.077334 0.100775 0.401071
v -0.077334 -0.122687 0.401071
v -0.099658 0.046881 0.401071
v -0.099658 -0.068792 0.401071
v -0.107272 -0.010956 0.401071
v -0.107272 -0.010956 0.401071
v -0.099658 -0.068792 0.401071
v -0.099658 0.046881 0.401071
v -0.077334 -0.122687 0.401071
v -0.077334 0.100775 0.401071
v -0.041822 -0.168968 0.401071
v -0.041822 0.147056 0.401071
v 0.004459 -0.20448 0.401071
v 0.004459 0.182568 0.401071
v 0.058354 -0.226804 0.401071
v 0.058354 0.204892 0.401071
v 0.11619 -0.234418 0.401071
v 0.11619 0.212507 0.401071
v 0.174026 -0.226804 0.401071
v 0.174026 0.204892 0.401071
v 0.227921 -0.20448 0.401071
v 0.227921 0.182568 0.401071
v 0.274202 -0.168968 0.401071
v 0.274202 0.147056 0.401071
v 0.309714 -0.122687 0.401071
v 0.309714 0.100775 0.401071
v 0.332038 -0.068792 0.401071
v 0.332038 0.046881 0.401071
v 0.339653 -0.010956 0.401071
vn 0.0 -2.624783819069243e-09 -1.0
vn 0.0 2.624783819069243e-09 1.0
usemtl material_0_0
f 1//1 2//1 3//1
f 2//1 1//1 4//1
f 4//1 1//1 5//1
f 4//1 5//1 6//1
f 6//1 5//1 7//1
f 6//1 7//1 8//1
f 8//1 7//1 9//1
f 8//1 9//1 10//1
f 10//1 9//1 11//1
f 10//1 11//1 12//1
f 12//1 11//1 13//1
f 12//1 13//1 14//1
f 14//1 13//1 15//1
f 14//1 15//1 16//1
f 16//1 15//1 17//1
f 16//1 17//1 18//1
f 18//1 17//1 19//1
f 18//1 19//1 20//1
f 20//1 19//1 21//1
f 20//1 21//1 22//1
f 22//1 21//1 23//1
f 22//1 23//1 24//1
f 25//2 26//2 27//2
f 26//2 28//2 27//2
f 27//2 28//2 29//2
f 28//2 30//2 29//2
f 29//2 30//2 31//2
f 30//2 32//2 31//2
f 31//2 32//2 33//2
f 32//2 34//2 33//2
f 33//2 34//2 35//2
f 34//2 36//2 35//2
f 35//2 36//2 37//2
f 36//2 38//2 37//2
f 37//2 38//2 39//2
f 38//2 40//2 39//2
f 39//2 40//2 41//2
f 40//2 42//2 41//2
f 41//2 42//2 43//2
f 42//2 44//2 43//2
f 43//2 44//2 45//2
f 44//2 46//2 45//2
f 45//2 46//2 47//2
f 48//2 47//2 46//2
