# SSTK version 0.8.0
# 299
mtllib original-299.mtl
o #ID1643
v -0.268257 -0.313466 -0.194382
v -0.268154 -0.313466 -0.19623
v -0.268043 -0.313466 -0.195456
v -0.268485 -0.313466 -0.196946
v -0.268899 -0.313466 -0.193518
v -0.269029 -0.313466 -0.197538
v -0.269388 -0.313466 -0.193186
v -0.269777 -0.313466 -0.197943
v -0.270002 -0.313466 -0.192949
v -0.270791 -0.313466 -0.198177
v -0.271601 -0.313466 -0.192759
v -0.272134 -0.313466 -0.198254
v -0.276859 -0.313466 -0.192759
v -0.276859 -0.313466 -0.198254
v -0.276859 -0.312066 -0.198254
v -0.272134 -0.313466 -0.198254
v -0.276859 -0.313466 -0.198254
v -0.272134 -0.312066 -0.198254
v -0.270791 -0.313466 -0.198177
v -0.270791 -0.312066 -0.198177
v -0.269777 -0.313466 -0.197943
v -0.269777 -0.312066 -0.197943
v -0.269029 -0.313466 -0.197538
v -0.269029 -0.312066 -0.197538
v -0.268485 -0.312066 -0.196946
v -0.268485 -0.313466 -0.196946
v -0.268154 -0.312066 -0.19623
v -0.268154 -0.313466 -0.19623
v -0.268043 -0.312066 -0.195456
v -0.268043 -0.313466 -0.195456
v -0.268257 -0.312066 -0.194382
v -0.268257 -0.313466 -0.194382
v -0.268899 -0.312066 -0.193518
v -0.268899 -0.313466 -0.193518
v -0.269388 -0.313466 -0.193186
v -0.269388 -0.312066 -0.193186
v -0.270002 -0.313466 -0.192949
v -0.270002 -0.312066 -0.192949
v -0.271601 -0.312066 -0.192759
v -0.271601 -0.313466 -0.192759
v -0.276859 -0.313466 -0.192759
v -0.276859 -0.312066 -0.192759
v -0.276859 -0.313466 -0.192759
v -0.276859 -0.312066 -0.198254
v -0.276859 -0.313466 -0.198254
v -0.276859 -0.312066 -0.192759
vn 0.0 -1.0 0.0
vn 0.0 0.0 -1.0
vn 0.02897190076454457 0.0 -0.999580226378098
vn 0.14174340476434172 0.0 -0.9899034332730703
vn 0.353638195817781 0.0 -0.9353822889379213
vn 0.6147703647630236 0.0 -0.7887061547934939
vn 0.8317900951705851 0.0 -0.5550902967771181
vn 0.9588770758864953 0.0 -0.2838216928625515
vn 0.9996219919125972 0.0 0.02749314977756774
vn 0.9140248945544134 0.0 0.40565809758316623
vn 0.6918161713539234 0.0 0.7220736701010493
vn 0.4639429023525571 0.0 0.885865104492036
vn 0.2411247097553152 0.0 0.970494139263816
vn 0.059033878803859845 0.0 0.9982559797734101
vn 0.0 0.0 1.0
vn -1.0 0.0 0.0
usemtl material_0_0
f 1//1 2//1 3//1
f 2//1 1//1 4//1
f 4//1 1//1 5//1
f 4//1 5//1 6//1
f 6//1 5//1 7//1
f 6//1 7//1 8//1
f 8//1 7//1 9//1
f 8//1 9//1 10//1
f 10//1 9//1 11//1
f 10//1 11//1 12//1
f 12//1 11//1 13//1
f 12//1 13//1 14//1
f 15//2 16//3 17//2
f 16//3 15//2 18//3
f 18//3 19//4 16//3
f 19//4 18//3 20//4
f 20//4 21//5 19//4
f 21//5 20//4 22//5
f 22//5 23//6 21//5
f 23//6 22//5 24//6
f 25//7 23//6 24//6
f 23//6 25//7 26//7
f 27//8 26//7 25//7
f 26//7 27//8 28//8
f 29//9 28//8 27//8
f 28//8 29//9 30//9
f 31//10 30//9 29//9
f 30//9 31//10 32//10
f 33//11 32//10 31//10
f 32//10 33//11 34//11
f 33//11 35//12 34//11
f 35//12 33//11 36//12
f 36//12 37//13 35//12
f 37//13 36//12 38//13
f 37//13 39//14 40//14
f 39//14 37//13 38//13
f 39//14 41//15 40//14
f 41//15 39//14 42//15
f 43//16 44//16 45//16
f 44//16 43//16 46//16
