# SSTK version 0.8.0
# 521
mtllib original-521.mtl
o #ID3446
v -0.261904 0.246486 -0.444587
v -0.254796 0.246486 -0.444587
v -0.25835 0.246031 -0.444745
v -0.262611 0.246771 -0.444488
v -0.251485 0.247821 -0.444125
v -0.261077 0.249488 -0.443548
v -0.263619 0.250512 -0.443193
v -0.263917 0.250735 -0.443116
v -0.25835 0.249139 -0.443669
v -0.248641 0.249945 -0.44339
v -0.255623 0.249488 -0.443548
v -0.253082 0.250513 -0.443194
v -0.246459 0.252712 -0.442433
v -0.250899 0.252142 -0.44263
v -0.249789 0.253551 -0.442142
v -0.2461 0.253556 -0.44214
v -0.280045 0.244841 -0.445134
v -0.274335 0.239425 -0.447014
v -0.274774 0.239417 -0.447016
v -0.265216 0.24782 -0.444123
v -0.277318 0.247029 -0.444381
v -0.266298 0.25277 -0.44241
v -0.265801 0.252141 -0.442628
v -0.274571 0.239202 -0.44708
v -0.270241 0.25271 -0.44243
v -0.270587 0.253523 -0.442151
v -0.266894 0.253528 -0.442149
vn -3.7646420085590966e-05 0.3271229007437296 -0.9449818021484623
vn -0.0006054986213939152 0.32695581155223896 -0.9450394333908169
vn -0.00010459999994566184 0.3718904998068082 -0.9282765995177742
vn -0.0011733510362604085 0.32678861009884325 -0.9450967292065993
vn -0.0007076083857077619 0.3044079938515827 -0.952541480760616
vn -0.0006038007952231732 0.3258113974224201 -0.9454345925204184
vn -0.00024147249339913354 0.2818580922951569 -0.9594560737724107
vn -3.42502283460872e-05 0.32483368431407256 -0.9457711543295595
vn -0.00010297150300256001 0.37076521081119285 -0.9287266270808656
vn -0.00010290599544512117 0.3707663835889448 -0.9287261588922386
usemtl material_0_0
f 1//1 2//1 3//1
f 2//1 1//1 4//2
f 2//1 4//2 5//1
f 5//1 4//2 6//1
f 6//1 4//2 7//1
f 7//1 4//2 8//2
f 5//1 6//1 9//1
f 9//1 10//1 5//1
f 10//1 9//1 11//1
f 10//1 11//1 12//1
f 10//1 12//1 13//1
f 13//1 12//1 14//1
f 13//1 14//1 15//3
f 13//1 15//3 16//3
f 17//4 18//5 19//5
f 18//5 17//4 20//4
f 20//4 17//4 21//6
f 20//4 21//6 22//6
f 20//4 22//6 23//4
f 20//4 23//4 8//2
f 8//2 4//2 20//4
f 18//5 24//7 19//5
f 25//8 22//6 21//6
f 22//6 25//8 26//9
f 22//6 26//9 27//10
