# SSTK version 0.8.0
# 504
mtllib original-504.mtl
o #ID3344
v 0.328423 0.254324 -0.441897
v 0.333155 0.253966 -0.441738
v 0.336723 0.253354 -0.441786
v 0.328423 0.254919 -0.441605
v 0.336723 0.255063 -0.440945
v 0.333155 0.255761 -0.440855
v 0.333155 0.255761 -0.440855
v 0.333155 0.253966 -0.441738
v 0.336723 0.255063 -0.440945
v 0.336723 0.253354 -0.441786
v 0.328423 0.254919 -0.441605
v 0.328423 0.254324 -0.441897
v 0.323099 0.25435 -0.441885
v 0.323428 0.255841 -0.441152
v 0.323428 0.255841 -0.441152
v 0.323099 0.25435 -0.441885
v 0.336723 0.253253 -0.441855
v 0.338275 0.252946 -0.441921
v 0.336723 0.253253 -0.441855
v 0.338275 0.252946 -0.441921
v 0.323092 0.254317 -0.441899
v 0.323092 0.254317 -0.441899
vn 0.027668569693156325 0.3933202956380885 -0.9189850898084808
vn 0.06353387072697277 0.44040410503922983 -0.8955488102471264
vn 0.07056061198559639 0.5045280141975667 -0.8605072242149269
vn 0.031772939380962366 0.4410728914065009 -0.8969086825253744
vn -9.5721421431108e-05 0.4285950064078209 -0.9034967135079626
vn -2.0109079041379057e-05 0.4412956789629708 -0.8973617572218217
vn 0.07720708133572667 0.5659328097909612 -0.8208283142007995
vn 0.06169017237159271 0.45614501753585934 -0.8877646341288743
vn -0.00011855199553624555 0.38113238564949165 -0.9245204651896848
vn -0.06353387072697277 -0.44040410503922983 0.8955488102471264
vn -0.07056061198559639 -0.5045280141975667 0.8605072242149269
vn -0.031772939380962366 -0.4410728914065009 0.8969086825253744
vn -0.027668569693156325 -0.3933202956380885 0.9189850898084808
vn 2.0109079041379057e-05 -0.4412956789629708 0.8973617572218217
vn 9.5721421431108e-05 -0.4285950064078209 0.9034967135079626
vn -0.07720708133572667 -0.5659328097909612 0.8208283142007995
vn -0.06169017237159271 -0.45614501753585934 0.8877646341288743
vn 0.00011855199553624555 -0.38113238564949165 0.9245204651896848
usemtl material_0_0
f 7//10 8//10 9//10
f 10//11 9//10 8//10
f 11//12 12//13 8//10
f 10//11 8//10 12//13
f 15//14 16//15 11//12
f 12//13 11//12 16//15
f 10//11 12//13 19//16
f 20//17 19//16 12//13
f 22//18 12//13 16//15
usemtl material_1_0
f 1//1 2//2 3//3
f 2//2 1//1 4//4
f 2//2 5//2 3//3
f 5//2 2//2 6//2
f 13//5 4//4 1//1
f 4//4 13//5 14//6
f 1//1 17//7 18//8
f 17//7 1//1 3//3
f 13//5 1//1 21//9
