# SSTK version 0.8.0
# 750
mtllib original-750.mtl
o #ID4780
v 0.157559 0.226823 0.124676
v 0.161668 0.226282 0.104397
v 0.157559 0.226823 0.104397
v 0.161363 0.226322 0.111134
v 0.161363 0.226322 0.124676
v 0.169843 0.225206 0.117621
v 0.169663 0.22523 0.124676
v 0.173647 0.224705 0.104397
v 0.169843 0.225206 0.104397
v 0.173647 0.224705 0.124676
v 0.169663 0.22523 0.124676
v 0.169843 0.225206 0.117621
v 0.173647 0.224705 0.124676
v 0.173647 0.224705 0.104397
v 0.169843 0.225206 0.104397
v 0.161363 0.226322 0.111134
v 0.161668 0.226282 0.104397
v 0.161363 0.226322 0.124676
v 0.157559 0.226823 0.124676
v 0.157559 0.226823 0.104397
vn 0.1305261948688555 0.9914448610250888 5.536681279863881e-09
vn -0.1305261948688555 -0.9914448610250888 -5.536681279863881e-09
usemtl material_0_0
f 11//2 12//2 13//2
f 13//2 12//2 14//2
f 15//2 14//2 12//2
f 11//2 16//2 12//2
f 17//2 12//2 16//2
f 18//2 19//2 16//2
f 16//2 19//2 17//2
f 20//2 17//2 19//2
usemtl material_1_0
f 1//1 2//1 3//1
f 2//1 1//1 4//1
f 4//1 1//1 5//1
f 4//1 6//1 2//1
f 6//1 4//1 7//1
f 6//1 8//1 9//1
f 8//1 6//1 10//1
f 10//1 6//1 7//1
