# SSTK version 0.8.0
# 371
mtllib original-371.mtl
o #ID2591
v 0.40629 -0.067885 -0.413438
v 0.45635 -0.061668 -0.395986
v 0.45635 -0.067885 -0.413438
v 0.40629 -0.061668 -0.395986
v 0.40629 -0.061668 -0.395986
v 0.40629 -0.067885 -0.413438
v 0.45635 -0.061668 -0.395986
v 0.45635 -0.067885 -0.413438
v 0.45635 -0.061494 -0.395339
v 0.40629 -0.061494 -0.395339
v 0.40629 -0.061494 -0.395339
v 0.45635 -0.061494 -0.395339
v 0.40629 -0.06817 -0.414124
v 0.45635 -0.06817 -0.414124
v 0.40629 -0.06817 -0.414124
v 0.45635 -0.06817 -0.414124
v 0.45635 -0.061425 -0.394672
v 0.40629 -0.061425 -0.394672
v 0.40629 -0.061425 -0.394672
v 0.45635 -0.061425 -0.394672
v 0.40629 -0.068523 -0.414776
v 0.45635 -0.068523 -0.414776
v 0.40629 -0.068523 -0.414776
v 0.45635 -0.068523 -0.414776
v 0.45635 -0.061463 -0.394003
v 0.40629 -0.061463 -0.394003
v 0.40629 -0.061463 -0.394003
v 0.45635 -0.061463 -0.394003
v 0.40629 -0.06894 -0.415389
v 0.45635 -0.06894 -0.415389
v 0.40629 -0.06894 -0.415389
v 0.45635 -0.06894 -0.415389
v 0.45635 -0.061607 -0.393348
v 0.40629 -0.061607 -0.393348
v 0.40629 -0.061607 -0.393348
v 0.45635 -0.061607 -0.393348
v 0.40629 -0.069418 -0.415956
v 0.45635 -0.069418 -0.415956
v 0.40629 -0.069418 -0.415956
v 0.45635 -0.069418 -0.415956
v 0.45635 -0.061852 -0.392725
v 0.40629 -0.061852 -0.392725
v 0.40629 -0.061852 -0.392725
v 0.45635 -0.061852 -0.392725
v 0.45635 -0.069952 -0.416471
v 0.40629 -0.069952 -0.416471
v 0.45635 -0.069952 -0.416471
v 0.40629 -0.069952 -0.416471
v 0.45635 -0.062194 -0.392148
v 0.40629 -0.062194 -0.392148
v 0.40629 -0.062194 -0.392148
v 0.45635 -0.062194 -0.392148
v 0.45635 -0.070535 -0.416929
v 0.40629 -0.070535 -0.416929
v 0.45635 -0.070535 -0.416929
v 0.40629 -0.070535 -0.416929
v 0.45635 -0.062622 -0.391633
v 0.40629 -0.062622 -0.391633
v 0.40629 -0.062622 -0.391633
v 0.45635 -0.062622 -0.391633
v 0.45635 -0.071163 -0.417325
v 0.40629 -0.071163 -0.417325
v 0.45635 -0.071163 -0.417325
v 0.40629 -0.071163 -0.417325
v 0.45635 -0.063128 -0.391192
v 0.40629 -0.063128 -0.391192
v 0.45635 -0.063128 -0.391192
v 0.40629 -0.063128 -0.391192
v 0.45635 -0.071827 -0.417655
v 0.40629 -0.071827 -0.417655
v 0.45635 -0.071827 -0.417655
v 0.40629 -0.071827 -0.417655
v 0.45635 -0.063696 -0.390837
v 0.40629 -0.063696 -0.390837
v 0.45635 -0.063696 -0.390837
v 0.40629 -0.063696 -0.390837
v 0.45635 -0.072521 -0.417915
v 0.40629 -0.072521 -0.417915
v 0.45635 -0.072521 -0.417915
v 0.40629 -0.072521 -0.417915
v 0.45635 -0.064314 -0.390577
v 0.40629 -0.064314 -0.390577
v 0.45635 -0.064314 -0.390577
v 0.40629 -0.064314 -0.390577
v 0.45635 -0.073239 -0.418103
v 0.40629 -0.073239 -0.418103
v 0.45635 -0.073239 -0.418103
v 0.40629 -0.073239 -0.418103
v 0.45635 -0.064965 -0.390418
v 0.40629 -0.064965 -0.390418
v 0.45635 -0.064965 -0.390418
v 0.40629 -0.064965 -0.390418
v 0.45635 -0.073972 -0.418216
v 0.40629 -0.073972 -0.418216
v 0.45635 -0.073972 -0.418216
v 0.40629 -0.073972 -0.418216
v 0.45635 -0.065633 -0.390365
v 0.40629 -0.065633 -0.390365
v 0.45635 -0.065633 -0.390365
v 0.40629 -0.065633 -0.390365
v 0.45635 -0.074713 -0.418254
v 0.40629 -0.074713 -0.418254
v 0.45635 -0.074713 -0.418254
v 0.40629 -0.074713 -0.418254
v 0.45635 -0.127325 -0.390365
v 0.40629 -0.127325 -0.390365
v 0.45635 -0.127325 -0.390365
v 0.40629 -0.127325 -0.390365
v 0.45635 -0.116706 -0.418254
v 0.40629 -0.116706 -0.418254
v 0.45635 -0.116706 -0.418254
v 0.40629 -0.116706 -0.418254
v 0.45635 -0.128004 -0.39042
v 0.40629 -0.128004 -0.39042
v 0.45635 -0.128004 -0.39042
v 0.40629 -0.128004 -0.39042
v 0.45635 -0.117514 -0.418214
v 0.40629 -0.117514 -0.418214
v 0.45635 -0.117514 -0.418214
v 0.40629 -0.117514 -0.418214
v 0.45635 -0.128664 -0.390585
v 0.40629 -0.128664 -0.390585
v 0.45635 -0.128664 -0.390585
v 0.40629 -0.128664 -0.390585
v 0.45635 -0.118315 -0.418094
v 0.40629 -0.118315 -0.418094
v 0.45635 -0.118315 -0.418094
v 0.40629 -0.118315 -0.418094
v 0.45635 -0.129289 -0.390855
v 0.40629 -0.129289 -0.390855
v 0.45635 -0.129289 -0.390855
v 0.40629 -0.129289 -0.390855
v 0.45635 -0.119101 -0.417896
v 0.40629 -0.119101 -0.417896
v 0.45635 -0.119101 -0.417896
v 0.40629 -0.119101 -0.417896
v 0.45635 -0.129862 -0.391222
v 0.40629 -0.129862 -0.391222
v 0.45635 -0.129862 -0.391222
v 0.40629 -0.129862 -0.391222
v 0.45635 -0.119862 -0.417622
v 0.40629 -0.119862 -0.417622
v 0.45635 -0.119862 -0.417622
v 0.40629 -0.119862 -0.417622
v 0.45635 -0.130368 -0.391678
v 0.40629 -0.130368 -0.391678
v 0.45635 -0.130368 -0.391678
v 0.40629 -0.130368 -0.391678
v 0.45635 -0.120594 -0.417273
v 0.40629 -0.120594 -0.417273
v 0.45635 -0.120594 -0.417273
v 0.40629 -0.120594 -0.417273
v 0.40629 -0.130793 -0.39221
v 0.45635 -0.130793 -0.39221
v 0.40629 -0.130793 -0.39221
v 0.45635 -0.130793 -0.39221
v 0.45635 -0.121287 -0.416855
v 0.40629 -0.121287 -0.416855
v 0.45635 -0.121287 -0.416855
v 0.40629 -0.121287 -0.416855
v 0.45635 -0.131126 -0.392803
v 0.40629 -0.131126 -0.392803
v 0.40629 -0.131126 -0.392803
v 0.45635 -0.131126 -0.392803
v 0.45635 -0.121935 -0.41637
v 0.40629 -0.121935 -0.41637
v 0.45635 -0.121935 -0.41637
v 0.40629 -0.121935 -0.41637
v 0.45635 -0.131358 -0.393443
v 0.40629 -0.131358 -0.393443
v 0.40629 -0.131358 -0.393443
v 0.45635 -0.131358 -0.393443
v 0.45635 -0.122532 -0.415823
v 0.40629 -0.122532 -0.415823
v 0.45635 -0.122532 -0.415823
v 0.40629 -0.122532 -0.415823
v 0.45635 -0.131484 -0.394112
v 0.40629 -0.131484 -0.394112
v 0.40629 -0.131484 -0.394112
v 0.45635 -0.131484 -0.394112
v 0.40629 -0.123073 -0.41522
v 0.45635 -0.123073 -0.41522
v 0.40629 -0.123073 -0.41522
v 0.45635 -0.123073 -0.41522
v 0.45635 -0.131499 -0.394793
v 0.40629 -0.131499 -0.394793
v 0.40629 -0.131499 -0.394793
v 0.45635 -0.131499 -0.394793
v 0.40629 -0.123551 -0.414567
v 0.45635 -0.123551 -0.414567
v 0.40629 -0.123551 -0.414567
v 0.45635 -0.123551 -0.414567
v 0.45635 -0.131404 -0.395467
v 0.40629 -0.131404 -0.395467
v 0.40629 -0.131404 -0.395467
v 0.45635 -0.131404 -0.395467
v 0.40629 -0.123963 -0.413869
v 0.45635 -0.123963 -0.413869
v 0.40629 -0.123963 -0.413869
v 0.45635 -0.123963 -0.413869
v 0.45635 -0.1312 -0.396116
v 0.40629 -0.1312 -0.396116
v 0.40629 -0.1312 -0.396116
v 0.45635 -0.1312 -0.396116
v 0.40629 -0.124304 -0.413135
v 0.45635 -0.124304 -0.413135
v 0.40629 -0.124304 -0.413135
v 0.45635 -0.124304 -0.413135
vn 0.0 0.9331163827377156 -0.3595744933480143
vn 0.0 0.9546358013066817 -0.29777590040758845
vn 0.0 0.9833387999121239 -0.18178229998375525
vn 0.0 0.9027835894044938 -0.43009509495219556
vn 0.0 0.9997266780472608 -0.023378819486630786
vn 0.0 0.854099288742762 -0.520109993144823
vn 0.0 0.9907612568981957 0.13561759410012944
vn 0.0 0.7964701067929262 -0.6046779051571711
vn 0.0 0.9566698983324765 0.2911746994924677
vn 0.0 0.7304996117786597 -0.6829131110113699
vn 0.0 0.8983171921073448 0.43934749613987295
vn 0.0 0.6568787341156119 -0.7539962391595009
vn 0.0 0.8171829195964676 0.5763784138218512
vn 0.0 0.5763784138218512 -0.8171829195964676
vn 0.0 0.715324712442741 0.6987922121551655
vn 0.0 0.489841816695051 -0.8718113297135408
vn 0.0 0.595325690825811 0.8034844876180068
vn 0.0 0.3981751949783337 -0.9173093884311694
vn 0.0 0.46022909548817886 0.8878001912965174
vn 0.0 0.30233850719223837 -0.9532006226753992
vn 0.0 0.3134609023587904 0.9496011071457389
vn 0.0 0.2033354086828317 -0.9791091418099342
vn 0.0 0.15874329839424034 0.9873198900128152
vn 0.0 0.10220289730933634 -0.9947635738111731
vn 0.0 0.039843880689931596 0.9992059173021177
vn 0.0 0.025592618855309602 -0.9996724552872941
vn 0.0 -0.040734749821631215 0.9991699956248531
vn 0.0 -0.024701309409617615 -0.9996948761064299
vn 0.0 -0.16226349414322078 0.986747464384091
vn 0.0 -0.09865457384788508 -0.9951217388133434
vn 0.0 -0.3202261136303573 0.9473411403233775
vn 0.0 -0.19634659124994022 -0.9805345563031059
vn 0.0 -0.46970118104011505 0.882825464364005
vn 0.0 -0.2921229880612786 -0.9563807609138474
vn 0.0 -0.6067267657659011 0.7949104551477791
vn 0.0 -0.3850493018777913 -0.9228960045007376
vn 0.0 -0.7276710097243443 0.6859263091664829
vn 0.0 -0.47421881045120434 -0.8804070194030967
vn 0.0 -0.8293283187364134 0.5587616126236963
vn 0.0 -0.5587616126236963 -0.8293283187364134
vn 0.0 -0.9090042201665998 0.41678690924657424
vn 0.0 -0.637852907952224 -0.7701582096016971
vn 0.0 -0.9645868898063905 0.26376529721256814
vn 0.0 -0.7107208974884476 -0.7034740975140562
vn 0.0 -0.9946031458582378 0.10375250478372432
vn 0.0 -0.7766547316741786 -0.6299265256901867
vn 0.0 -0.9982573792666916 -0.059010208774387146
vn 0.0 -0.8350111453360088 -0.550233029874295
vn 0.0 -0.9754527343473984 -0.22020890775394092
vn 0.0 -0.8852207296469592 -0.46517121557906554
vn 0.0 -0.9413231979288584 -0.3375064992574028
vn 0.0 -0.9172337960224479 -0.39834929827257204
vn 0.0 -0.9546358013066817 0.29777590040758845
vn 0.0 -0.9331163827377156 0.3595744933480143
vn 0.0 -0.9833387999121239 0.18178229998375525
vn 0.0 -0.9027835894044938 0.43009509495219556
vn 0.0 -0.9997266780472608 0.023378819486630786
vn 0.0 -0.854099288742762 0.520109993144823
vn 0.0 -0.9907612568981957 -0.13561759410012944
vn 0.0 -0.7964701067929262 0.6046779051571711
vn 0.0 -0.9566698983324765 -0.2911746994924677
vn 0.0 -0.7304996117786597 0.6829131110113699
vn 0.0 -0.8983171921073448 -0.43934749613987295
vn 0.0 -0.6568787341156119 0.7539962391595009
vn 0.0 -0.8171829195964676 -0.5763784138218512
vn 0.0 -0.5763784138218512 0.8171829195964676
vn 0.0 -0.715324712442741 -0.6987922121551655
vn 0.0 -0.489841816695051 0.8718113297135408
vn 0.0 -0.595325690825811 -0.8034844876180068
vn 0.0 -0.3981751949783337 0.9173093884311694
vn 0.0 -0.46022909548817886 -0.8878001912965174
vn 0.0 -0.30233850719223837 0.9532006226753992
vn 0.0 -0.3134609023587904 -0.9496011071457389
vn 0.0 -0.2033354086828317 0.9791091418099342
vn 0.0 -0.15874329839424034 -0.9873198900128152
vn 0.0 -0.10220289730933634 0.9947635738111731
vn 0.0 -0.039843880689931596 -0.9992059173021177
vn 0.0 -0.025592618855309602 0.9996724552872941
vn 0.0 0.040734749821631215 -0.9991699956248531
vn 0.0 0.024701309409617615 0.9996948761064299
vn 0.0 0.16226349414322078 -0.986747464384091
vn 0.0 0.09865457384788508 0.9951217388133434
vn 0.0 0.3202261136303573 -0.9473411403233775
vn 0.0 0.19634659124994022 0.9805345563031059
vn 0.0 0.46970118104011505 -0.882825464364005
vn 0.0 0.2921229880612786 0.9563807609138474
vn 0.0 0.6067267657659011 -0.7949104551477791
vn 0.0 0.3850493018777913 0.9228960045007376
vn 0.0 0.7276710097243443 -0.6859263091664829
vn 0.0 0.47421881045120434 0.8804070194030967
vn 0.0 0.8293283187364134 -0.5587616126236963
vn 0.0 0.5587616126236963 0.8293283187364134
vn 0.0 0.9090042201665998 -0.41678690924657424
vn 0.0 0.637852907952224 0.7701582096016971
vn 0.0 0.9645868898063905 -0.26376529721256814
vn 0.0 0.7107208974884476 0.7034740975140562
vn 0.0 0.9946031458582378 -0.10375250478372432
vn 0.0 0.7766547316741786 0.6299265256901867
vn 0.0 0.9982573792666916 0.059010208774387146
vn 0.0 0.8350111453360088 0.550233029874295
vn 0.0 0.9754527343473984 0.22020890775394092
vn 0.0 0.8852207296469592 0.46517121557906554
vn 0.0 0.9413231979288584 0.3375064992574028
vn 0.0 0.9172337960224479 0.39834929827257204
usemtl material_0_0
f 5//53 6//54 7//53
f 8//54 7//53 6//54
f 11//55 5//53 12//55
f 7//53 12//55 5//53
f 6//54 15//56 8//54
f 16//56 8//54 15//56
f 19//57 11//55 20//57
f 12//55 20//57 11//55
f 15//56 23//58 16//56
f 24//58 16//56 23//58
f 27//59 19//57 28//59
f 20//57 28//59 19//57
f 23//58 31//60 24//58
f 32//60 24//58 31//60
f 35//61 27//59 36//61
f 28//59 36//61 27//59
f 31//60 39//62 32//60
f 40//62 32//60 39//62
f 43//63 35//61 44//63
f 36//61 44//63 35//61
f 40//62 39//62 47//64
f 48//64 47//64 39//62
f 51//65 43//63 52//65
f 44//63 52//65 43//63
f 47//64 48//64 55//66
f 56//66 55//66 48//64
f 59//67 51//65 60//67
f 52//65 60//67 51//65
f 55//66 56//66 63//68
f 64//68 63//68 56//66
f 60//67 67//69 59//67
f 68//69 59//67 67//69
f 63//68 64//68 71//70
f 72//70 71//70 64//68
f 67//69 75//71 68//69
f 76//71 68//69 75//71
f 71//70 72//70 79//72
f 80//72 79//72 72//70
f 75//71 83//73 76//71
f 84//73 76//71 83//73
f 79//72 80//72 87//74
f 88//74 87//74 80//72
f 83//73 91//75 84//73
f 92//75 84//73 91//75
f 87//74 88//74 95//76
f 96//76 95//76 88//74
f 91//75 99//77 92//75
f 100//77 92//75 99//77
f 95//76 96//76 103//78
f 104//78 103//78 96//76
f 99//77 107//79 100//77
f 108//79 100//77 107//79
f 103//78 104//78 111//80
f 112//80 111//80 104//78
f 107//79 115//81 108//79
f 116//81 108//79 115//81
f 111//80 112//80 119//82
f 120//82 119//82 112//80
f 115//81 123//83 116//81
f 124//83 116//81 123//83
f 119//82 120//82 127//84
f 128//84 127//84 120//82
f 123//83 131//85 124//83
f 132//85 124//83 131//85
f 127//84 128//84 135//86
f 136//86 135//86 128//84
f 131//85 139//87 132//85
f 140//87 132//85 139//87
f 135//86 136//86 143//88
f 144//88 143//88 136//86
f 139//87 147//89 140//87
f 148//89 140//87 147//89
f 143//88 144//88 151//90
f 152//90 151//90 144//88
f 148//89 147//89 155//91
f 156//91 155//91 147//89
f 151//90 152//90 159//92
f 160//92 159//92 152//90
f 163//93 155//91 164//93
f 156//91 164//93 155//91
f 159//92 160//92 167//94
f 168//94 167//94 160//92
f 171//95 163//93 172//95
f 164//93 172//95 163//93
f 167//94 168//94 175//96
f 176//96 175//96 168//94
f 179//97 171//95 180//97
f 172//95 180//97 171//95
f 176//96 183//98 175//96
f 184//98 175//96 183//98
f 187//99 179//97 188//99
f 180//97 188//99 179//97
f 183//98 191//100 184//98
f 192//100 184//98 191//100
f 195//101 187//99 196//101
f 188//99 196//101 187//99
f 191//100 199//102 192//100
f 200//102 192//100 199//102
f 203//103 195//101 204//103
f 196//101 204//103 195//101
f 199//102 207//104 200//102
f 208//104 200//102 207//104
f 207//104 203//103 208//104
f 204//103 208//104 203//103
usemtl material_1_0
f 1//1 2//2 3//1
f 2//2 1//1 4//2
f 4//2 9//3 2//2
f 9//3 4//2 10//3
f 13//4 3//1 14//4
f 3//1 13//4 1//1
f 10//3 17//5 9//3
f 17//5 10//3 18//5
f 21//6 14//4 22//6
f 14//4 21//6 13//4
f 18//5 25//7 17//5
f 25//7 18//5 26//7
f 29//8 22//6 30//8
f 22//6 29//8 21//6
f 26//7 33//9 25//7
f 33//9 26//7 34//9
f 37//10 30//8 38//10
f 30//8 37//10 29//8
f 34//9 41//11 33//9
f 41//11 34//9 42//11
f 37//10 45//12 46//12
f 45//12 37//10 38//10
f 42//11 49//13 41//11
f 49//13 42//11 50//13
f 46//12 53//14 54//14
f 53//14 46//12 45//12
f 50//13 57//15 49//13
f 57//15 50//13 58//15
f 54//14 61//16 62//16
f 61//16 54//14 53//14
f 65//17 58//15 66//17
f 58//15 65//17 57//15
f 62//16 69//18 70//18
f 69//18 62//16 61//16
f 73//19 66//17 74//19
f 66//17 73//19 65//17
f 70//18 77//20 78//20
f 77//20 70//18 69//18
f 81//21 74//19 82//21
f 74//19 81//21 73//19
f 78//20 85//22 86//22
f 85//22 78//20 77//20
f 89//23 82//21 90//23
f 82//21 89//23 81//21
f 86//22 93//24 94//24
f 93//24 86//22 85//22
f 97//25 90//23 98//25
f 90//23 97//25 89//23
f 94//24 101//26 102//26
f 101//26 94//24 93//24
f 105//27 98//25 106//27
f 98//25 105//27 97//25
f 102//26 109//28 110//28
f 109//28 102//26 101//26
f 113//29 106//27 114//29
f 106//27 113//29 105//27
f 110//28 117//30 118//30
f 117//30 110//28 109//28
f 121//31 114//29 122//31
f 114//29 121//31 113//29
f 118//30 125//32 126//32
f 125//32 118//30 117//30
f 129//33 122//31 130//33
f 122//31 129//33 121//31
f 126//32 133//34 134//34
f 133//34 126//32 125//32
f 137//35 130//33 138//35
f 130//33 137//35 129//33
f 134//34 141//36 142//36
f 141//36 134//34 133//34
f 145//37 138//35 146//37
f 138//35 145//37 137//35
f 142//36 149//38 150//38
f 149//38 142//36 141//36
f 145//37 153//39 154//39
f 153//39 145//37 146//37
f 150//38 157//40 158//40
f 157//40 150//38 149//38
f 153//39 161//41 154//39
f 161//41 153//39 162//41
f 158//40 165//42 166//42
f 165//42 158//40 157//40
f 162//41 169//43 161//41
f 169//43 162//41 170//43
f 166//42 173//44 174//44
f 173//44 166//42 165//42
f 170//43 177//45 169//43
f 177//45 170//43 178//45
f 181//46 173//44 182//46
f 173//44 181//46 174//44
f 178//45 185//47 177//45
f 185//47 178//45 186//47
f 189//48 182//46 190//48
f 182//46 189//48 181//46
f 186//47 193//49 185//47
f 193//49 186//47 194//49
f 197//50 190//48 198//50
f 190//48 197//50 189//48
f 194//49 201//51 193//49
f 201//51 194//49 202//51
f 205//52 198//50 206//52
f 198//50 205//52 197//50
f 202//51 206//52 201//51
f 206//52 202//51 205//52
