# SSTK version 0.8.0
# 485
mtllib original-485.mtl
o #ID3230
v 0.421651 0.234012 -0.445678
v 0.424683 0.235246 -0.444868
v 0.424757 0.233769 -0.445647
v 0.42156 0.235321 -0.444988
v 0.424683 0.236147 -0.44439
v 0.42156 0.236314 -0.444462
v 0.424683 0.238447 -0.442996
v 0.42156 0.238539 -0.443113
v 0.424683 0.240859 -0.442127
v 0.42156 0.241296 -0.442119
vn 0.04333335961639708 0.4422118960853766 -0.8958631920694878
vn 0.04520266035112578 0.46783390363404576 -0.8826597068563351
vn 0.04623121203199881 0.4930620216715371 -0.8687649381847942
vn 0.04640929874444261 0.43042058835539915 -0.9014345756125849
vn 0.06169017237159271 0.45614501753585934 -0.8877646341288743
usemtl material_0_0
f 1//1 2//2 3//1
f 2//2 1//1 4//2
f 2//2 4//2 5//3
f 5//3 4//2 6//3
f 6//3 7//4 5//3
f 7//4 6//3 8//4
f 8//4 9//5 7//4
f 9//5 8//4 10//5
