# SSTK version 0.8.0
# 674
mtllib original-674.mtl
o #ID4122
v 0.21891 0.142783 0.549814
v 0.220094 0.140296 0.549814
v 0.217372 0.141038 0.549814
v 0.221022 0.142319 0.549814
v 0.221598 0.140074 0.549814
v 0.223077 0.142174 0.549814
v 0.222899 0.140032 0.549814
v 0.214565 0.126941 0.549814
v 0.212761 0.128532 0.549814
v 0.227577 0.141699 0.549814
v 0.224924 0.142318 0.549814
v 0.226414 0.142725 0.549814
v 0.226414 0.142725 0.549814
v 0.224924 0.142318 0.549814
v 0.227577 0.141699 0.549814
v 0.223077 0.142174 0.549814
v 0.222899 0.140032 0.549814
v 0.214565 0.126941 0.549814
v 0.212761 0.128532 0.549814
v 0.221598 0.140074 0.549814
v 0.221022 0.142319 0.549814
v 0.220094 0.140296 0.549814
v 0.21891 0.142783 0.549814
v 0.217372 0.141038 0.549814
vn 0.0 0.0 -1.0
vn 0.0 0.0 1.0
usemtl material_0_0
f 1//1 2//1 3//1
f 2//1 1//1 4//1
f 2//1 4//1 5//1
f 5//1 4//1 6//1
f 5//1 6//1 7//1
f 7//1 8//1 9//1
f 8//1 7//1 10//1
f 10//1 7//1 6//1
f 10//1 6//1 11//1
f 10//1 11//1 12//1
f 13//2 14//2 15//2
f 14//2 16//2 15//2
f 16//2 17//2 15//2
f 15//2 17//2 18//2
f 19//2 18//2 17//2
f 17//2 16//2 20//2
f 16//2 21//2 20//2
f 20//2 21//2 22//2
f 21//2 23//2 22//2
f 24//2 22//2 23//2
