# SSTK version 0.8.0
# 806
mtllib original-806.mtl
o #ID5003
v -0.338993 -0.262062 0.574275
v -0.360898 -0.262062 0.585755
v -0.353234 -0.262062 0.598647
v -0.354103 -0.262062 0.574275
v -0.336839 -0.262062 0.626226
v -0.361251 -0.262062 0.612368
v -0.352665 -0.262062 0.626226
v -0.369127 -0.262062 0.599657
v -0.384853 -0.262062 0.574275
v -0.367722 -0.262062 0.574275
v -0.369348 -0.262062 0.626226
v -0.384853 -0.262062 0.626226
v -0.361251 -0.262062 0.612368
v -0.369348 -0.262062 0.626226
v -0.369127 -0.262062 0.599657
v -0.384853 -0.262062 0.626226
v -0.367722 -0.262062 0.574275
v -0.360898 -0.262062 0.585755
v -0.384853 -0.262062 0.574275
v -0.353234 -0.262062 0.598647
v -0.336839 -0.262062 0.626226
v -0.352665 -0.262062 0.626226
v -0.354103 -0.262062 0.574275
v -0.338993 -0.262062 0.574275
vn 0.0 1.0 1.6502280873224296e-09
vn 0.0 -1.0 -1.6502280873224296e-09
usemtl material_0_0
f 13//2 14//2 15//2
f 16//2 15//2 14//2
f 17//2 18//2 19//2
f 18//2 20//2 19//2
f 19//2 20//2 15//2
f 15//2 20//2 13//2
f 20//2 21//2 13//2
f 22//2 13//2 21//2
f 23//2 24//2 18//2
f 20//2 18//2 24//2
usemtl material_1_0
f 1//1 2//1 3//1
f 2//1 1//1 4//1
f 5//1 6//1 7//1
f 6//1 5//1 3//1
f 6//1 3//1 8//1
f 8//1 3//1 9//1
f 9//1 3//1 2//1
f 9//1 2//1 10//1
f 11//1 8//1 12//1
f 8//1 11//1 6//1
