# SSTK version 0.8.0
# 698
mtllib original-698.mtl
o #ID4266
v 0.126525 -0.183048 0.549814
v 0.12573 -0.187453 0.549814
v 0.125516 -0.184095 0.549814
v 0.125945 -0.186595 0.549814
v 0.126324 -0.185882 0.549814
v 0.127431 -0.184854 0.549814
v 0.12773 -0.182324 0.549814
v 0.128908 -0.184334 0.549814
v 0.129131 -0.181922 0.549814
v 0.129787 -0.184303 0.549814
v 0.130249 -0.181826 0.549814
v 0.130581 -0.184507 0.549814
v 0.131258 -0.181915 0.549814
v 0.131238 -0.184914 0.549814
v 0.131706 -0.185492 0.549814
v 0.132157 -0.182187 0.549814
v 0.132049 -0.186391 0.549814
v 0.132335 -0.187759 0.549814
v 0.132947 -0.182644 0.549814
v 0.133926 -0.197693 0.549814
v 0.133618 -0.183292 0.549814
v 0.134158 -0.184142 0.549814
v 0.136584 -0.197267 0.549814
v 0.134569 -0.185192 0.549814
v 0.13485 -0.186443 0.549814
v 0.116135 -0.185567 0.549814
v 0.116483 -0.188715 0.549814
v 0.116383 -0.190162 0.549814
v 0.117114 -0.184571 0.549814
v 0.116884 -0.187619 0.549814
v 0.117593 -0.186755 0.549814
v 0.118347 -0.18383 0.549814
v 0.118522 -0.18615 0.549814
v 0.119807 -0.183416 0.549814
v 0.119584 -0.185827 0.549814
v 0.120896 -0.185845 0.549814
v 0.12143 -0.183342 0.549814
v 0.121865 -0.186376 0.549814
v 0.122796 -0.183683 0.549814
v 0.122533 -0.187411 0.549814
v 0.122946 -0.188943 0.549814
v 0.123892 -0.184402 0.549814
v 0.124587 -0.199188 0.549814
v 0.124703 -0.185464 0.549814
v 0.12726 -0.19876 0.549814
v 0.125792 -0.189599 0.549814
v 0.115083 -0.184538 0.549814
v 0.115218 -0.200689 0.549814
v 0.112692 -0.184921 0.549814
v 0.115437 -0.18675 0.549814
v 0.117891 -0.200261 0.549814
v 0.11658 -0.19208 0.549814
v 0.116135 -0.185567 0.549814
v 0.115437 -0.18675 0.549814
v 0.116383 -0.190162 0.549814
v 0.11658 -0.19208 0.549814
v 0.117891 -0.200261 0.549814
v 0.115218 -0.200689 0.549814
v 0.115083 -0.184538 0.549814
v 0.112692 -0.184921 0.549814
v 0.12573 -0.187453 0.549814
v 0.125516 -0.184095 0.549814
v 0.125792 -0.189599 0.549814
v 0.124703 -0.185464 0.549814
v 0.12726 -0.19876 0.549814
v 0.124587 -0.199188 0.549814
v 0.123892 -0.184402 0.549814
v 0.122946 -0.188943 0.549814
v 0.122796 -0.183683 0.549814
v 0.122533 -0.187411 0.549814
v 0.121865 -0.186376 0.549814
v 0.12143 -0.183342 0.549814
v 0.120896 -0.185845 0.549814
v 0.119807 -0.183416 0.549814
v 0.119584 -0.185827 0.549814
v 0.118522 -0.18615 0.549814
v 0.118347 -0.18383 0.549814
v 0.117593 -0.186755 0.549814
v 0.117114 -0.184571 0.549814
v 0.116884 -0.187619 0.549814
v 0.116483 -0.188715 0.549814
v 0.13485 -0.186443 0.549814
v 0.134569 -0.185192 0.549814
v 0.136584 -0.197267 0.549814
v 0.134158 -0.184142 0.549814
v 0.133926 -0.197693 0.549814
v 0.133618 -0.183292 0.549814
v 0.132947 -0.182644 0.549814
v 0.132335 -0.187759 0.549814
v 0.132157 -0.182187 0.549814
v 0.132049 -0.186391 0.549814
v 0.131706 -0.185492 0.549814
v 0.131258 -0.181915 0.549814
v 0.131238 -0.184914 0.549814
v 0.130581 -0.184507 0.549814
v 0.130249 -0.181826 0.549814
v 0.129787 -0.184303 0.549814
v 0.129131 -0.181922 0.549814
v 0.128908 -0.184334 0.549814
v 0.12773 -0.182324 0.549814
v 0.127431 -0.184854 0.549814
v 0.126525 -0.183048 0.549814
v 0.126324 -0.185882 0.549814
v 0.125945 -0.186595 0.549814
vn 0.0 0.0 -1.0
vn 0.0 0.0 1.0
usemtl material_0_0
f 1//1 2//1 3//1
f 2//1 1//1 4//1
f 4//1 1//1 5//1
f 5//1 1//1 6//1
f 6//1 1//1 7//1
f 6//1 7//1 8//1
f 8//1 7//1 9//1
f 8//1 9//1 10//1
f 10//1 9//1 11//1
f 10//1 11//1 12//1
f 12//1 11//1 13//1
f 12//1 13//1 14//1
f 14//1 13//1 15//1
f 15//1 13//1 16//1
f 15//1 16//1 17//1
f 17//1 16//1 18//1
f 18//1 16//1 19//1
f 18//1 19//1 20//1
f 20//1 19//1 21//1
f 20//1 21//1 22//1
f 20//1 22//1 23//1
f 23//1 22//1 24//1
f 23//1 24//1 25//1
f 26//1 27//1 28//1
f 27//1 26//1 29//1
f 27//1 29//1 30//1
f 30//1 29//1 31//1
f 31//1 29//1 32//1
f 31//1 32//1 33//1
f 33//1 32//1 34//1
f 33//1 34//1 35//1
f 35//1 34//1 36//1
f 36//1 34//1 37//1
f 36//1 37//1 38//1
f 38//1 37//1 39//1
f 38//1 39//1 40//1
f 40//1 39//1 41//1
f 41//1 39//1 42//1
f 41//1 42//1 43//1
f 43//1 42//1 44//1
f 43//1 44//1 45//1
f 45//1 44//1 46//1
f 46//1 44//1 3//1
f 46//1 3//1 2//1
f 47//1 48//1 49//1
f 48//1 47//1 50//1
f 48//1 50//1 51//1
f 51//1 50//1 52//1
f 52//1 50//1 28//1
f 28//1 50//1 26//1
f 53//2 54//2 55//2
f 55//2 54//2 56//2
f 56//2 54//2 57//2
f 57//2 54//2 58//2
f 54//2 59//2 58//2
f 60//2 58//2 59//2
f 61//2 62//2 63//2
f 62//2 64//2 63//2
f 63//2 64//2 65//2
f 65//2 64//2 66//2
f 64//2 67//2 66//2
f 66//2 67//2 68//2
f 67//2 69//2 68//2
f 68//2 69//2 70//2
f 70//2 69//2 71//2
f 69//2 72//2 71//2
f 71//2 72//2 73//2
f 72//2 74//2 73//2
f 73//2 74//2 75//2
f 75//2 74//2 76//2
f 74//2 77//2 76//2
f 76//2 77//2 78//2
f 77//2 79//2 78//2
f 78//2 79//2 80//2
f 80//2 79//2 81//2
f 79//2 53//2 81//2
f 55//2 81//2 53//2
f 82//2 83//2 84//2
f 83//2 85//2 84//2
f 84//2 85//2 86//2
f 85//2 87//2 86//2
f 87//2 88//2 86//2
f 86//2 88//2 89//2
f 88//2 90//2 89//2
f 89//2 90//2 91//2
f 91//2 90//2 92//2
f 90//2 93//2 92//2
f 92//2 93//2 94//2
f 94//2 93//2 95//2
f 93//2 96//2 95//2
f 95//2 96//2 97//2
f 96//2 98//2 97//2
f 97//2 98//2 99//2
f 98//2 100//2 99//2
f 99//2 100//2 101//2
f 100//2 102//2 101//2
f 101//2 102//2 103//2
f 103//2 102//2 104//2
f 104//2 102//2 61//2
f 62//2 61//2 102//2
