# SSTK version 0.8.0
# 331
mtllib original-331.mtl
o #ID1845
v 0.029658 -0.313466 -0.374395
v 0.028389 -0.313755 -0.379131
v 0.028389 -0.313466 -0.379131
v 0.029658 -0.313755 -0.374395
v 0.029658 -0.313755 -0.374395
v 0.029658 -0.313466 -0.374395
v 0.028389 -0.313755 -0.379131
v 0.028389 -0.313466 -0.379131
v 0.024922 -0.313755 -0.373126
v 0.029658 -0.313466 -0.374395
v 0.024922 -0.313466 -0.373126
v 0.029658 -0.313755 -0.374395
v 0.029658 -0.313755 -0.374395
v 0.024922 -0.313755 -0.373126
v 0.029658 -0.313466 -0.374395
v 0.024922 -0.313466 -0.373126
v 0.028389 -0.313755 -0.379131
v 0.031545 -0.313466 -0.379977
v 0.028389 -0.313466 -0.379131
v 0.031545 -0.313755 -0.379977
v 0.031545 -0.313755 -0.379977
v 0.028389 -0.313755 -0.379131
v 0.031545 -0.313466 -0.379977
v 0.028389 -0.313466 -0.379131
v 0.025767 -0.313466 -0.36997
v 0.024922 -0.313755 -0.373126
v 0.024922 -0.313466 -0.373126
v 0.025767 -0.313755 -0.36997
v 0.025767 -0.313755 -0.36997
v 0.025767 -0.313466 -0.36997
v 0.024922 -0.313755 -0.373126
v 0.024922 -0.313466 -0.373126
v 0.031545 -0.313755 -0.379977
v 0.032814 -0.313466 -0.375241
v 0.031545 -0.313466 -0.379977
v 0.032814 -0.313755 -0.375241
v 0.032814 -0.313755 -0.375241
v 0.031545 -0.313755 -0.379977
v 0.032814 -0.313466 -0.375241
v 0.031545 -0.313466 -0.379977
v 0.030504 -0.313466 -0.371239
v 0.025767 -0.313755 -0.36997
v 0.025767 -0.313466 -0.36997
v 0.030504 -0.313755 -0.371239
v 0.030504 -0.313755 -0.371239
v 0.030504 -0.313466 -0.371239
v 0.025767 -0.313755 -0.36997
v 0.025767 -0.313466 -0.36997
v 0.032814 -0.313466 -0.375241
v 0.03755 -0.313755 -0.37651
v 0.03755 -0.313466 -0.37651
v 0.032814 -0.313755 -0.375241
v 0.032814 -0.313755 -0.375241
v 0.032814 -0.313466 -0.375241
v 0.03755 -0.313755 -0.37651
v 0.03755 -0.313466 -0.37651
v 0.031772 -0.313466 -0.366503
v 0.030504 -0.313755 -0.371239
v 0.030504 -0.313466 -0.371239
v 0.031772 -0.313755 -0.366503
v 0.031772 -0.313755 -0.366503
v 0.031772 -0.313466 -0.366503
v 0.030504 -0.313755 -0.371239
v 0.030504 -0.313466 -0.371239
v 0.03755 -0.313755 -0.37651
v 0.03839 -0.313466 -0.373383
v 0.03755 -0.313466 -0.37651
v 0.03839 -0.313755 -0.373383
v 0.03839 -0.313755 -0.373383
v 0.03755 -0.313755 -0.37651
v 0.03839 -0.313466 -0.373383
v 0.03755 -0.313466 -0.37651
v 0.034901 -0.313466 -0.367339
v 0.031772 -0.313755 -0.366503
v 0.031772 -0.313466 -0.366503
v 0.034901 -0.313755 -0.367339
v 0.034901 -0.313755 -0.367339
v 0.034901 -0.313466 -0.367339
v 0.031772 -0.313755 -0.366503
v 0.031772 -0.313466 -0.366503
v 0.03839 -0.313755 -0.373383
v 0.033623 -0.313466 -0.372106
v 0.03839 -0.313466 -0.373383
v 0.033623 -0.313755 -0.372106
v 0.033623 -0.313755 -0.372106
v 0.03839 -0.313755 -0.373383
v 0.033623 -0.313466 -0.372106
v 0.03839 -0.313466 -0.373383
v 0.033623 -0.313755 -0.372106
v 0.034901 -0.313466 -0.367339
v 0.033623 -0.313466 -0.372106
v 0.034901 -0.313755 -0.367339
v 0.034901 -0.313755 -0.367339
v 0.033623 -0.313755 -0.372106
v 0.034901 -0.313466 -0.367339
v 0.033623 -0.313466 -0.372106
vt 0.7131807 0.7539559
vt 0.7122838 0.7499115
vt 0.7098336 0.7550395
vt 0.7145142 0.7491894
vt 0.7104313 0.7577346
vt 0.7154111 0.7532337
vt 0.7137783 0.7566509
vt 0.7187581 0.7521501
vt 0.7146751 0.7606952
vt 0.7193517 0.7548204
vt 0.7168859 0.7599813
vt 0.7159833 0.7559111
vn 0.9659258358036645 0.0 -0.25881900959356163
vn 0.25881900959356163 0.0 0.9659258358036645
vn -0.9659258358036645 0.0 0.25881900959356163
vn -0.25881900959356163 0.0 -0.9659258358036645
vn -0.965761107840913 0.0 0.2594330021063093
vn -0.25820498753372934 0.0 -0.9660901533566663
vn 0.965761107840913 0.0 -0.2594330021063093
vn 0.25820498753372934 0.0 0.9660901533566663
usemtl material_0_0
f 5/1/3 6/1/3 7/2/3
f 8/2/3 7/2/3 6/1/3
f 13/1/4 14/3/4 15/1/4
f 16/3/4 15/1/4 14/3/4
f 21/4/4 22/2/4 23/4/4
f 24/2/4 23/4/4 22/2/4
f 29/5/3 30/5/3 31/3/3
f 32/3/3 31/3/3 30/5/3
f 37/6/1 38/4/1 39/6/1
f 40/4/1 39/6/1 38/4/1
f 45/7/2 46/7/2 47/5/2
f 48/5/2 47/5/2 46/7/2
f 53/6/4 54/6/4 55/8/4
f 56/8/4 55/8/4 54/6/4
f 61/9/3 62/9/3 63/7/3
f 64/7/3 63/7/3 62/9/3
f 69/10/7 70/8/7 71/10/7
f 72/8/7 71/10/7 70/8/7
f 77/11/8 78/11/8 79/9/8
f 80/9/8 79/9/8 78/11/8
f 85/12/2 86/10/2 87/12/2
f 88/10/2 87/12/2 86/10/2
f 93/11/1 94/12/1 95/11/1
f 96/12/1 95/11/1 94/12/1
usemtl material_1_0
f 1//1 2//1 3//1
f 2//1 1//1 4//1
f 9//2 10//2 11//2
f 10//2 9//2 12//2
f 17//2 18//2 19//2
f 18//2 17//2 20//2
f 25//1 26//1 27//1
f 26//1 25//1 28//1
f 33//3 34//3 35//3
f 34//3 33//3 36//3
f 41//4 42//4 43//4
f 42//4 41//4 44//4
f 49//2 50//2 51//2
f 50//2 49//2 52//2
f 57//1 58//1 59//1
f 58//1 57//1 60//1
f 65//5 66//5 67//5
f 66//5 65//5 68//5
f 73//6 74//6 75//6
f 74//6 73//6 76//6
f 81//4 82//4 83//4
f 82//4 81//4 84//4
f 89//3 90//3 91//3
f 90//3 89//3 92//3
