# SSTK version 0.8.0
# 375
mtllib original-375.mtl
o #ID2615
v 0.449232 -0.040805 -0.383435
v 0.449232 -0.026306 -0.387154
v 0.449232 -0.026306 -0.389113
v 0.449232 -0.036839 -0.383238
v 0.449232 -0.039213 -0.382456
v 0.449232 -0.040805 -0.381467
v 0.449232 -0.036839 -0.381695
v 0.449232 -0.026306 -0.377926
v 0.449232 -0.026306 -0.37585
v 0.449232 -0.026306 -0.37585
v 0.449232 -0.040805 -0.381467
v 0.449232 -0.026306 -0.377926
v 0.449232 -0.036839 -0.381695
v 0.449232 -0.039213 -0.382456
v 0.449232 -0.040805 -0.383435
v 0.449232 -0.036839 -0.383238
v 0.449232 -0.026306 -0.387154
v 0.449232 -0.026306 -0.389113
vn -1.0 -1.490117e-08 0.0
vn 1.0 1.490117e-08 0.0
usemtl material_0_0
f 10//2 11//2 12//2
f 12//2 11//2 13//2
f 13//2 11//2 14//2
f 11//2 15//2 14//2
f 14//2 15//2 16//2
f 16//2 15//2 17//2
f 18//2 17//2 15//2
usemtl material_1_0
f 1//1 2//1 3//1
f 2//1 1//1 4//1
f 4//1 1//1 5//1
f 5//1 1//1 6//1
f 5//1 6//1 7//1
f 7//1 6//1 8//1
f 8//1 6//1 9//1
