# SSTK version 0.8.0
# 178
mtllib original-178.mtl
o #ID913
v 0.173136 0.381202 0.049398
v 0.164828 0.373187 0.042672
v 0.168802 0.373187 0.042672
v 0.169559 0.381936 0.050014
v 0.175086 0.392547 0.058918
v 0.171383 0.392547 0.058918
v 0.173136 0.403893 0.068438
v 0.169559 0.403158 0.067822
v 0.164828 0.411908 0.075163
v 0.168802 0.411908 0.075163
v 0.168802 0.411908 0.075163
v 0.173136 0.403893 0.068438
v 0.164828 0.411908 0.075163
v 0.169559 0.403158 0.067822
v 0.171383 0.392547 0.058918
v 0.175086 0.392547 0.058918
v 0.169559 0.381936 0.050014
v 0.173136 0.381202 0.049398
v 0.164828 0.373187 0.042672
v 0.168802 0.373187 0.042672
vn 0.0 -0.6427875875138863 0.7660444617240425
vn 0.0 0.6427875875138863 -0.7660444617240425
usemtl material_0_0
f 1//1 2//1 3//1
f 2//1 1//1 4//1
f 4//1 1//1 5//1
f 4//1 5//1 6//1
f 6//1 5//1 7//1
f 6//1 7//1 8//1
f 8//1 7//1 9//1
f 9//1 7//1 10//1
usemtl material_1_0
f 11//2 12//2 13//2
f 13//2 12//2 14//2
f 14//2 12//2 15//2
f 12//2 16//2 15//2
f 15//2 16//2 17//2
f 16//2 18//2 17//2
f 17//2 18//2 19//2
f 20//2 19//2 18//2
