# SSTK version 0.8.0
# 641
mtllib original-641.mtl
o group_72/ID4000#ID4000
v 0.116123 -0.250222 0.520875
v 0.054192 -0.242068 0.512006
v 0.116123 -0.250222 0.512006
v 0.054192 -0.242068 0.520875
v 0.054192 -0.242068 0.520875
v 0.116123 -0.250222 0.520875
v 0.054192 -0.242068 0.512006
v 0.116123 -0.250222 0.512006
v 0.178055 -0.242068 0.512006
v 0.178055 -0.242068 0.520875
v 0.178055 -0.242068 0.512006
v 0.178055 -0.242068 0.520875
v -0.003519 -0.218164 0.512006
v -0.003519 -0.218164 0.520875
v -0.003519 -0.218164 0.520875
v -0.003519 -0.218164 0.512006
v 0.235766 -0.218164 0.512006
v 0.235766 -0.218164 0.520875
v 0.235766 -0.218164 0.512006
v 0.235766 -0.218164 0.520875
v -0.053077 -0.180137 0.512006
v -0.053077 -0.180137 0.520875
v -0.053077 -0.180137 0.520875
v -0.053077 -0.180137 0.512006
v 0.285323 -0.180137 0.512006
v 0.285323 -0.180137 0.520875
v 0.285323 -0.180137 0.512006
v 0.285323 -0.180137 0.520875
v -0.091103 -0.130579 0.512006
v -0.091103 -0.130579 0.520875
v -0.091103 -0.130579 0.520875
v -0.091103 -0.130579 0.512006
v 0.32335 -0.130579 0.512006
v 0.32335 -0.130579 0.520875
v 0.32335 -0.130579 0.520875
v 0.32335 -0.130579 0.512006
v -0.115008 -0.072868 0.512006
v -0.115008 -0.072868 0.520875
v -0.115008 -0.072868 0.520875
v -0.115008 -0.072868 0.512006
v 0.347255 -0.072868 0.512006
v 0.347255 -0.072868 0.520875
v 0.347255 -0.072868 0.520875
v 0.347255 -0.072868 0.512006
v -0.123161 -0.010937 0.512006
v -0.123161 -0.010937 0.520875
v -0.123161 -0.010937 0.520875
v -0.123161 -0.010937 0.512006
v 0.355408 -0.010937 0.512006
v 0.355408 -0.010937 0.520875
v 0.355408 -0.010937 0.520875
v 0.355408 -0.010937 0.512006
v -0.115008 0.050995 0.512006
v -0.115008 0.050995 0.520875
v -0.115008 0.050995 0.520875
v -0.115008 0.050995 0.512006
v 0.347255 0.050995 0.512006
v 0.347255 0.050995 0.520875
v 0.347255 0.050995 0.520875
v 0.347255 0.050995 0.512006
v -0.091103 0.108706 0.512006
v -0.091103 0.108706 0.520875
v -0.091103 0.108706 0.520875
v -0.091103 0.108706 0.512006
v 0.32335 0.108706 0.512006
v 0.32335 0.108706 0.520875
v 0.32335 0.108706 0.520875
v 0.32335 0.108706 0.512006
v -0.053077 0.158263 0.512006
v -0.053077 0.158263 0.520875
v -0.053077 0.158263 0.520875
v -0.053077 0.158263 0.512006
v 0.285323 0.158263 0.512006
v 0.285323 0.158263 0.520875
v 0.285323 0.158263 0.520875
v 0.285323 0.158263 0.512006
v -0.003519 0.19629 0.512006
v -0.003519 0.19629 0.520875
v -0.003519 0.19629 0.512006
v -0.003519 0.19629 0.520875
v 0.235766 0.19629 0.520875
v 0.235766 0.19629 0.512006
v 0.235766 0.19629 0.512006
v 0.235766 0.19629 0.520875
v 0.054192 0.220194 0.520875
v 0.054192 0.220194 0.512006
v 0.054192 0.220194 0.520875
v 0.054192 0.220194 0.512006
v 0.178055 0.220194 0.512006
v 0.178055 0.220194 0.520875
v 0.178055 0.220194 0.520875
v 0.178055 0.220194 0.512006
v 0.116123 0.228348 0.520875
v 0.116123 0.228348 0.512006
v 0.116123 0.228348 0.520875
v 0.116123 0.228348 0.512006
vn 0.0 -1.0 -2.9467510580687886e-09
vn -0.25881900959356174 -0.9659258358036645 -2.846343175714883e-09
vn 0.25881900959356174 0.9659258358036645 2.846343175714883e-09
vn 0.0 1.0 2.9467510580687886e-09
vn 0.2588190095935615 -0.9659258358036645 -2.8463431474744204e-09
vn -0.2588190095935615 0.9659258358036645 2.8463431474744204e-09
vn -0.5000000016387102 -0.866025402838329 -2.5519620859311684e-09
vn 0.5000000016387102 0.866025402838329 2.5519620859311684e-09
vn 0.50000000163871 -0.866025402838329 -2.5519610313746776e-09
vn -0.50000000163871 0.866025402838329 2.5519610313746776e-09
vn -0.7071067811865477 -0.7071067811865475 -2.083668024199491e-09
vn 0.7071067811865477 0.7071067811865475 2.083668024199491e-09
vn 0.7071067811865475 -0.7071067811865477 -2.083667947045102e-09
vn -0.7071067811865475 0.7071067811865477 2.083667947045102e-09
vn -0.866025402838329 -0.50000000163871 -1.473376081110535e-09
vn 0.866025402838329 0.50000000163871 1.473376081110535e-09
vn 0.866025402838329 -0.5000000016387102 -1.4733749866159948e-09
vn -0.866025402838329 0.5000000016387102 1.4733749866159948e-09
vn -0.9659258358036645 -0.2588190095935615 0.0
vn 0.9659258358036645 0.2588190095935615 0.0
vn 0.9659258358036645 -0.25881900959356174 0.0
vn -0.9659258358036645 0.25881900959356174 0.0
vn -1.0 0.0 0.0
vn 1.0 0.0 0.0
usemtl material_0_0
f 1//1 2//2 3//1
f 2//2 1//1 4//2
f 5//3 6//4 7//3
f 8//4 7//3 6//4
f 1//1 9//5 10//5
f 9//5 1//1 3//1
f 8//4 6//4 11//6
f 12//6 11//6 6//4
f 4//2 13//7 2//2
f 13//7 4//2 14//7
f 15//8 5//3 16//8
f 7//3 16//8 5//3
f 10//5 17//9 18//9
f 17//9 10//5 9//5
f 11//6 12//6 19//10
f 20//10 19//10 12//6
f 14//7 21//11 13//7
f 21//11 14//7 22//11
f 23//12 15//8 24//12
f 16//8 24//12 15//8
f 18//9 25//13 26//13
f 25//13 18//9 17//9
f 19//10 20//10 27//14
f 28//14 27//14 20//10
f 22//11 29//15 21//11
f 29//15 22//11 30//15
f 31//16 23//12 32//16
f 24//12 32//16 23//12
f 33//17 26//13 25//13
f 26//13 33//17 34//17
f 35//18 36//18 28//14
f 27//14 28//14 36//18
f 30//15 37//19 29//15
f 37//19 30//15 38//19
f 39//20 31//16 40//20
f 32//16 40//20 31//16
f 41//21 34//17 33//17
f 34//17 41//21 42//21
f 43//22 44//22 35//18
f 36//18 35//18 44//22
f 38//19 45//23 37//19
f 45//23 38//19 46//23
f 47//24 39//20 48//24
f 40//20 48//24 39//20
f 49//24 42//21 41//21
f 42//21 49//24 50//24
f 51//23 52//23 43//22
f 44//22 43//22 52//23
f 46//23 53//22 45//23
f 53//22 46//23 54//22
f 55//21 47//24 56//21
f 48//24 56//21 47//24
f 57//20 50//24 49//24
f 50//24 57//20 58//20
f 59//19 60//19 51//23
f 52//23 51//23 60//19
f 54//22 61//18 53//22
f 61//18 54//22 62//18
f 63//17 55//21 64//17
f 56//21 64//17 55//21
f 65//16 58//20 57//20
f 58//20 65//16 66//16
f 67//15 68//15 59//19
f 60//19 59//19 68//15
f 62//18 69//14 61//18
f 69//14 62//18 70//14
f 71//13 63//17 72//13
f 64//17 72//13 63//17
f 73//12 66//16 65//16
f 66//16 73//12 74//12
f 75//11 76//11 67//15
f 68//15 67//15 76//11
f 77//10 70//14 78//10
f 70//14 77//10 69//14
f 72//13 79//9 71//13
f 80//9 71//13 79//9
f 73//12 81//8 74//12
f 81//8 73//12 82//8
f 83//7 76//11 84//7
f 75//11 84//7 76//11
f 77//10 85//6 86//6
f 85//6 77//10 78//10
f 80//9 79//9 87//5
f 88//5 87//5 79//9
f 89//3 81//8 82//8
f 81//8 89//3 90//3
f 91//2 92//2 84//7
f 83//7 84//7 92//2
f 86//6 93//4 94//4
f 93//4 86//6 85//6
f 87//5 88//5 95//1
f 96//1 95//1 88//5
f 94//4 90//3 89//3
f 90//3 94//4 93//4
f 95//1 96//1 91//2
f 92//2 91//2 96//1
