# SSTK version 0.8.0
# 248
mtllib original-248.mtl
o #ID1385
v -0.203243 0.007633 -0.470071
v -0.19895 0.00628 -0.470768
v -0.20288 0.00628 -0.47058
v -0.198784 0.006302 -0.470768
v -0.198784 0.00822 -0.470071
v -0.20651 0.00628 -0.470071
v -0.203731 0.009457 -0.469295
v -0.198784 0.010109 -0.469295
v -0.198618 0.00628 -0.470768
v -0.194326 0.007633 -0.470071
v -0.194689 0.00628 -0.47058
v -0.208341 0.007548 -0.469295
v -0.207609 0.00628 -0.469897
v -0.193837 0.009457 -0.469295
v -0.204211 0.011249 -0.468442
v -0.198784 0.011963 -0.468442
v -0.191058 0.00628 -0.470071
v -0.209994 0.00628 -0.469295
v -0.209268 0.009154 -0.468442
v -0.189228 0.007548 -0.469295
v -0.18996 0.00628 -0.469897
v -0.193357 0.011249 -0.468442
v -0.204682 0.013005 -0.467513
v -0.198784 0.013781 -0.467513
v -0.213014 0.00628 -0.468442
v -0.210177 0.010728 -0.467513
v -0.187575 0.00628 -0.469295
v -0.1883 0.009154 -0.468442
v -0.192887 0.013005 -0.467513
v -0.205142 0.014722 -0.46651
v -0.198784 0.015559 -0.46651
v -0.214896 0.007107 -0.467513
v -0.214069 0.00628 -0.468111
v -0.211066 0.012268 -0.46651
v -0.184554 0.00628 -0.468442
v -0.187391 0.010728 -0.467513
v -0.192427 0.014722 -0.46651
v -0.218518 0.002388 -0.467513
v -0.215228 0.003714 -0.468442
v -0.216943 0.001479 -0.468442
v -0.215228 0.00628 -0.467637
v -0.216154 0.008364 -0.46651
v -0.182672 0.007107 -0.467513
v -0.1835 0.00628 -0.468111
v -0.186502 0.012268 -0.46651
v -0.215228 0.000693 -0.469295
v -0.215337 0.000552 -0.469295
v -0.220794 -0.003107 -0.467513
v -0.219038 -0.003578 -0.468442
v -0.220057 0.003277 -0.46651
v -0.182037 0.00628 -0.467513
v -0.181415 0.008364 -0.46651
v -0.215228 0.000489 -0.469347
v -0.217246 -0.004058 -0.469295
v -0.22157 -0.009005 -0.467513
v -0.219752 -0.009005 -0.468442
v -0.222511 -0.002647 -0.46651
v -0.181753 0.00591 -0.467513
v -0.177511 0.003277 -0.46651
v -0.179051 0.002388 -0.467513
v -0.181753 0.00628 -0.467385
v -0.215228 -0.004078 -0.470071
v -0.215423 -0.004547 -0.470071
v -0.217898 -0.009005 -0.469295
v -0.219038 -0.014432 -0.468442
v -0.220794 -0.014902 -0.467513
v -0.223348 -0.009005 -0.46651
v -0.181753 0.002949 -0.468442
v -0.180625 0.001479 -0.468442
v -0.175057 -0.002647 -0.46651
v -0.176775 -0.003107 -0.467513
v -0.215228 -0.004599 -0.470144
v -0.216009 -0.009005 -0.470071
v -0.217246 -0.013952 -0.469295
v -0.216943 -0.019489 -0.468442
v -0.218518 -0.020398 -0.467513
v -0.222511 -0.015362 -0.46651
v -0.181753 0.000828 -0.469041
v -0.178531 -0.003578 -0.468442
v -0.17422 -0.009005 -0.46651
v -0.175998 -0.009005 -0.467513
v -0.215228 -0.009005 -0.470355
v -0.215423 -0.013463 -0.470071
v -0.215337 -0.018562 -0.469295
v -0.215228 -0.024098 -0.467697
v -0.214896 -0.025117 -0.467513
v -0.215228 -0.021724 -0.468442
v -0.213878 -0.024098 -0.468249
v -0.220057 -0.021287 -0.46651
v -0.181753 -0.000603 -0.469295
v -0.180322 -0.004058 -0.469295
v -0.177816 -0.009005 -0.468442
v -0.176775 -0.014902 -0.467513
v -0.175057 -0.015362 -0.46651
v -0.215228 -0.013411 -0.470144
v -0.215228 -0.018499 -0.469347
v -0.215228 -0.013932 -0.470071
v -0.215228 -0.018703 -0.469295
v -0.209268 -0.027164 -0.468442
v -0.210177 -0.028738 -0.467513
v -0.213263 -0.024098 -0.468442
v -0.216154 -0.026374 -0.46651
v -0.181753 -0.004441 -0.469904
v -0.179671 -0.009005 -0.469295
v -0.178531 -0.014432 -0.468442
v -0.179051 -0.020398 -0.467513
v -0.177511 -0.021287 -0.46651
v -0.208341 -0.025558 -0.469295
v -0.210243 -0.024098 -0.469295
v -0.204211 -0.029258 -0.468442
v -0.204682 -0.031014 -0.467513
v -0.211066 -0.030278 -0.46651
v -0.181753 -0.007529 -0.470071
v -0.181559 -0.009005 -0.470071
v -0.180322 -0.013952 -0.469295
v -0.180625 -0.019489 -0.468442
v -0.181891 -0.024098 -0.467513
v -0.181753 -0.024098 -0.467451
v -0.182672 -0.025117 -0.467513
v -0.181415 -0.026374 -0.46651
v -0.181753 -0.02392 -0.467513
v -0.207499 -0.024098 -0.469988
v -0.203731 -0.027467 -0.469295
v -0.198784 -0.029973 -0.468442
v -0.198784 -0.031791 -0.467513
v -0.205142 -0.032732 -0.46651
v -0.181753 -0.009005 -0.470142
v -0.181753 -0.013568 -0.469904
v -0.181753 -0.01048 -0.470071
v -0.181753 -0.018838 -0.469041
v -0.181753 -0.017407 -0.469295
v -0.181753 -0.020959 -0.468442
v -0.183691 -0.024098 -0.468249
v -0.187391 -0.028738 -0.467513
v -0.186502 -0.030278 -0.46651
v -0.203243 -0.025643 -0.470071
v -0.206972 -0.024098 -0.470071
v -0.198784 -0.028118 -0.469295
v -0.192887 -0.031014 -0.467513
v -0.193357 -0.029258 -0.468442
v -0.198784 -0.033569 -0.46651
v -0.1883 -0.027164 -0.468442
v -0.184305 -0.024098 -0.468442
v -0.192427 -0.032732 -0.46651
v -0.202829 -0.024098 -0.470652
v -0.198784 -0.02623 -0.470071
v -0.193837 -0.027467 -0.469295
v -0.189228 -0.025558 -0.469295
v -0.187326 -0.024098 -0.469295
v -0.198784 -0.024311 -0.470768
v -0.200402 -0.024098 -0.470768
v -0.194326 -0.025643 -0.470071
v -0.19007 -0.024098 -0.469988
v -0.198784 -0.024098 -0.470836
v -0.19474 -0.024098 -0.470652
v -0.197167 -0.024098 -0.470768
v -0.190597 -0.024098 -0.470071
vn -0.0937894523713121 0.35002708905539714 -0.9320324970468007
vn -0.04242159092993565 0.3222240761131658 -0.9457124580949485
vn -0.08840043308856445 0.32991489187945633 -0.939862504596242
vn 1.8304377576756533e-08 0.34155308487501734 -0.9398624847350588
vn 1.815189029386969e-08 0.3623746908390065 -0.9320325012784341
vn -0.13913699485605394 0.33590639595200267 -0.9315620160896229
vn -0.10365979256863055 0.38686358949581606 -0.9162920989111721
vn 1.784535581007416e-08 0.4005106850759982 -0.9162920883320745
vn 0.042421624986049164 0.3222240758397805 -0.9457124566604493
vn 0.09378948608364318 0.3500270883988201 -0.9320324939009427
vn 0.08840046693720752 0.3299148912961638 -0.9398625016172973
vn -0.20025529466642153 0.3468523943383236 -0.91629211144691
vn -0.1900274903236103 0.32913728685019994 -0.9249638908228792
vn 0.10365980622234268 0.38686358949581606 -0.9162920973665325
vn -0.11335299751877662 0.4230393076447281 -0.8989932380952469
vn 1.750845089730741e-08 0.4379625083197084 -0.8989932376310229
vn 0.13913700873730384 0.33590639595200267 -0.9315620140163358
vn -0.24469389299275462 0.31889129151635504 -0.9156600040009837
vn -0.21898129503276806 0.37928669490533495 -0.8989932121509924
vn 0.200255404309913 0.34685238739241897 -0.9162920901136562
vn 0.19002750410654126 0.3291372868502 -0.9249638879912707
vn 0.11335310962982915 0.42303930284944824 -0.8989932262158046
vn -0.12285279140039293 0.45849288445656644 -0.8801655904134341
vn 1.7141775106139766e-08 0.47466670168618075 -0.8801656220907301
vn -0.2676189028577723 0.3487677043603229 -0.8981877371843998
vn -0.23733339743348403 0.41107339899001 -0.8801656202701171
vn 0.2446940006495337 0.3188912837132783 -0.9156599779491421
vn 0.21898130842870867 0.379286694905335 -0.8989932088879414
vn 0.12285280451578223 0.45849288445656644 -0.8801655885827988
vn -0.12718809183845248 0.47467258591765077 -0.8709242937665386
vn 1.696179139324241e-08 0.4914172678179743 -0.8709242612824132
vn -0.33564008725320604 0.33564008588798816 -0.8801655892920172
vn -0.32176959665316995 0.3217695952719761 -0.8904654143919152
vn -0.24570859122453342 0.4255797881997242 -0.8709242975565289
vn 0.26761891624171047 0.3487677043603229 -0.8981877331965978
vn 0.23733341054887377 0.4110733989900101 -0.8801656167336008
vn 0.1271882031984523 0.4746725798803782 -0.8709242807941775
vn -0.411073400355228 0.23733339606826612 -0.8801656200006304
vn -0.34876770575349475 0.2676189014646004 -0.8981877370585306
vn -0.37928669629975614 0.21898129363834684 -0.8989932119023438
vn -0.3634797020511892 0.2789077986543203 -0.8888717264299613
vn -0.3474844775597111 0.34748447620882744 -0.8709242657366549
vn 0.33564010036859526 0.3356400858879882 -0.8801655842906282
vn 0.32176960992203746 0.3217695952719761 -0.8904654095972109
vn 0.24570860420221777 0.4255797881997242 -0.8709242938952133
vn -0.318891292936628 0.24469389157248167 -0.9156600038858966
vn -0.3468523957595771 0.20025529324516816 -0.9162921112195246
vn -0.45849288582178443 0.12285279003517507 -0.8801655898928255
vn -0.4230393090391493 0.11335299612435532 -0.8989932376148949
vn -0.42557978955060793 0.24570858987364963 -0.8709242972775321
vn 0.37802680784617154 0.2900701930802977 -0.8791786028083215
vn 0.34748449053739505 0.3474844762088275 -0.870924260558772
vn -0.329137288284904 0.1900274888889061 -0.9249638906071072
vn -0.3868635909170695 0.10365979114737713 -0.916292098471897
vn -0.47466670305139863 -2.1768833104214415e-08 -0.8801656213544783
vn -0.4379625097141297 -2.2234492317199238e-08 -0.8989932369517027
vn -0.4746725872685345 0.12718809048756868 -0.8709242932275583
vn 0.4255798025282923 0.24570858987364969 -0.8709242909359471
vn 0.4110734965724791 0.23733338631212064 -0.8801655776939349
vn 0.39241129970585253 0.30110778698224655 -0.8691072847938954
vn -0.3359063973969411 0.13913699341111546 -0.9315620157844154
vn -0.35002709082935385 0.09378944101360853 -0.9320324975235005
vn -0.40051068649725147 -2.266230915647616e-08 -0.9162920877108455
vn -0.42303930424386943 -0.11335311102425044 -0.8989932253838104
vn -0.45849288582178443 -0.12285280588100013 -0.8801655876810782
vn -0.49141726916885786 -2.1540274964933406e-08 -0.8709242605201796
vn 0.3487677191374329 0.2676189014646005 -0.8981877318615263
vn 0.37928670969569683 0.21898129363834687 -0.8989932062505746
vn 0.4746726002462188 0.12718809048756877 -0.8709242861544392
vn 0.45849289893717365 0.12285279003517513 -0.8801655830608012
vn -0.3299149827445276 0.08840041879243558 -0.9398624740450063
vn -0.3623746922846746 -2.3051628517019717e-08 -0.9320325007163575
vn -0.3868635909170695 -0.1036598076435961 -0.9162920966056854
vn -0.37928669629975614 -0.2189813098231299 -0.8989932079599727
vn -0.411073400355228 -0.23733341191409169 -0.8801656157278621
vn -0.4746725812312618 -0.12718820454933605 -0.8709242798606359
vn 0.36191992544166884 0.20895450260296303 -0.9084888460571463
vn 0.42303940453886163 0.11335299132907754 -0.8989931932802137
vn 0.49141728214654173 -2.1540274899017888e-08 -0.8709242531975474
vn 0.4746667936359356 -2.1768842007251337e-08 -0.8801655725029125
vn -0.34155308633283055 -2.3245280763346344e-08 -0.9398624842052785
vn -0.35002708984448827 -0.0937894875293114 -0.9320324932125423
vn -0.34685238881367236 -0.2002554057311664 -0.9162920892650416
vn -0.3634797020511891 -0.27890781465688386 -0.8888717214087194
vn -0.33564008725320604 -0.3356401017338132 -0.8801655832494109
vn -0.34876770575349475 -0.2676189176348823 -0.8981877322405254
vn -0.32176959665316995 -0.32176961130323123 -0.8904654085990223
vn -0.42557978955060793 -0.24570860555310156 -0.8709242928539832
vn 0.37135689144451617 0.15382098538796046 -0.9156599607009923
vn 0.3868636045707816 0.10365979114737717 -0.9162920927072241
vn 0.4379626039289516 -2.2234491284666287e-08 -0.8989931910530645
vn 0.45849289893717354 -0.12285280588100005 -0.8801655808490537
vn 0.4746725942089461 -0.127188204549336 -0.870924272787517
vn -0.3299149818695886 -0.08840046547855733 -0.9398624699609849
vn -0.3291372882849041 -0.19002750554124537 -0.9249638871859981
vn -0.3359063973969411 -0.13913701018224228 -0.9315620132794998
vn -0.3188912851335513 -0.24469400206980668 -0.9156599770749695
vn -0.21898129503276806 -0.379286711090118 -0.8989932053226058
vn -0.23733338767733847 -0.41107349793769704 -0.8801655766881961
vn -0.26761890285777234 -0.34876772053060484 -0.898187730905454
vn -0.34748447755971107 -0.3474844918882787 -0.8709242594808111
vn 0.36710490952343844 0.09836544237906514 -0.9249639047818886
vn 0.40051070015096346 -2.2662349102753593e-08 -0.9162920817428166
vn 0.42303939974358107 -0.11335310622896778 -0.8989931810491306
vn 0.41107349657247905 -0.23733340215794546 -0.8801655734211666
vn 0.4255798025282923 -0.2457086055531015 -0.8709242865123983
vn -0.20025529466642158 -0.3468524108345428 -0.916292105202446
vn -0.24469388518967844 -0.31889139783202347 -0.915659969060305
vn -0.11335299272349872 -0.4230394059332828 -0.8989931924482196
vn -0.12285279140039296 -0.45849290030239154 -0.8801655821590804
vn -0.24570858076767177 -0.4255798857673535 -0.8709242528299365
vn 0.3604720083240405 0.047457021796566794 -0.9315620013166236
vn 0.36237470617293527 -2.3051698468412992e-08 -0.9320324953165949
vn 0.38686360457078167 -0.10365980764359607 -0.9162920908410128
vn 0.37928670969569683 -0.21898130982312985 -0.8989932023082036
vn 0.3780268078461716 -0.29007020890835383 -0.8791785975861206
vn 0.39241129970585253 -0.3011078026289864 -0.869107279372982
vn 0.33564010036859526 -0.33564010173381315 -0.8801655782480219
vn 0.34748449053739494 -0.34748449188827857 -0.8709242543029283
vn -0.19002749032361027 -0.3291373035025391 -0.9249638848973442
vn -0.10365979256863055 -0.386863605992035 -0.9162920919463771
vn 1.7508450130502818e-08 -0.4379626053233728 -0.8989931903737443
vn 1.7141774292476718e-08 -0.47466679500115344 -0.8801655717666607
vn -0.12718809183845248 -0.47467260159710256 -0.8709242852208978
vn 0.34155310033776615 -2.3245320717531854e-08 -0.9398624791157797
vn 0.3671049084401251 -0.09836548874113185 -0.9249639002814574
vn 0.36047200781083244 -0.047457068500128326 -0.9315619991359679
vn 0.3619199178791868 -0.2089546145925012 -0.9084888233119999
vn 0.37135688573226605 -0.15382109950670267 -0.9156599438469403
vn 0.3487677191374329 -0.26761891763488227 -0.8981877270435211
vn 0.32176960992203746 -0.32176961130323123 -0.890465403804318
vn 0.2373334007927277 -0.411073497937697 -0.8801655731516799
vn 0.24570859374535553 -0.4255798857673535 -0.870924249168621
vn -0.0937894523713121 -0.3500271058349941 -0.9320324907451817
vn -0.13913699018235265 -0.3359065014398146 -0.9315619787504532
vn 1.7845355810074146e-08 -0.40051070157221685 -0.9162920811215877
vn 0.12285280451578226 -0.45849290030239154 -0.880165580328445
vn 0.11335310483454662 -0.42303940113800226 -0.8989931805687786
vn 1.6961791393242404e-08 -0.4914172834974255 -0.8709242524353141
vn 0.21898130842870867 -0.37928671109011797 -0.898993202059555
vn 0.26761891624171047 -0.34876772053060473 -0.8981877269176519
vn 0.12718820319845228 -0.4746725955598297 -0.8709242722485367
vn -0.08840043017210213 -0.3299149979156299 -0.9398624676492392
vn 1.815187029386973e-08 -0.3623747076186034 -0.9320324947545183
vn 0.10365980622234269 -0.38686360599203506 -0.9162920904017375
vn 0.200255404309913 -0.34685240388863775 -0.916292083869192
vn 0.24469399284645446 -0.3188913900289446 -0.9156599430084658
vn 1.8427621316607366e-08 -0.32361930087150736 -0.9461873747326355
vn -0.04236423401510789 -0.3217885165831585 -0.9458633211365813
vn 0.09378948608364318 -0.350027105178417 -0.9320324875993237
vn 0.19002750410654118 -0.3291373035025391 -0.9249638820657354
vn 1.856340515608283e-08 -0.30246910600906873 -0.9531591891756983
vn 0.0884004640207441 -0.3299149973323372 -0.9398624646702948
vn 0.0423642680735682 -0.32178851631051186 -0.9458633197038937
vn 0.13913700406360208 -0.3359065014398146 -0.9315619766771662
usemtl material_0_0
f 1//1 2//2 3//3
f 2//2 1//1 4//4
f 4//4 1//1 5//5
f 1//1 3//3 6//6
f 7//7 5//5 1//1
f 5//5 7//7 8//8
f 9//9 10//10 11//11
f 10//10 9//9 4//4
f 10//10 4//4 5//5
f 12//12 6//6 13//13
f 6//6 12//12 1//1
f 1//1 12//12 7//7
f 5//5 14//14 10//10
f 14//14 5//5 8//8
f 15//15 8//8 7//7
f 8//8 15//15 16//16
f 10//10 17//17 11//11
f 12//12 13//13 18//18
f 19//19 7//7 12//12
f 7//7 19//19 15//15
f 17//17 20//20 21//21
f 20//20 17//17 10//10
f 20//20 10//10 14//14
f 8//8 22//22 14//14
f 22//22 8//8 16//16
f 23//23 16//16 15//15
f 16//16 23//23 24//24
f 19//19 18//18 25//25
f 18//18 19//19 12//12
f 26//26 15//15 19//19
f 15//15 26//26 23//23
f 20//20 27//27 21//21
f 14//14 28//28 20//20
f 28//28 14//14 22//22
f 16//16 29//29 22//22
f 29//29 16//16 24//24
f 30//30 24//24 23//23
f 24//24 30//30 31//31
f 32//32 25//25 33//33
f 25//25 32//32 19//19
f 19//19 32//32 26//26
f 34//34 23//23 26//26
f 23//23 34//34 30//30
f 27//27 28//28 35//35
f 28//28 27//27 20//20
f 22//22 36//36 28//28
f 36//36 22//22 29//29
f 24//24 37//37 29//29
f 37//37 24//24 31//31
f 38//38 39//39 40//40
f 39//39 38//38 41//41
f 41//41 38//38 32//32
f 41//41 32//32 33//33
f 42//42 26//26 32//32
f 26//26 42//42 34//34
f 35//35 43//43 44//44
f 43//43 35//35 28//28
f 43//43 28//28 36//36
f 29//29 45//45 36//36
f 45//45 29//29 37//37
f 40//40 46//46 47//47
f 46//46 40//40 39//39
f 48//48 40//40 49//49
f 40//40 48//48 38//38
f 50//50 32//32 38//38
f 32//32 50//50 42//42
f 43//43 51//51 44//44
f 36//36 52//52 43//43
f 52//52 36//36 45//45
f 46//46 53//53 47//47
f 49//49 47//47 54//54
f 47//47 49//49 40//40
f 55//55 49//49 56//56
f 49//49 55//55 48//48
f 57//57 38//38 48//48
f 38//38 57//57 50//50
f 58//51 59//58 60//59
f 59//58 58//51 52//52
f 52//52 58//51 61//60
f 52//52 61//60 51//51
f 52//52 51//51 43//43
f 54//54 62//61 63//62
f 62//61 54//54 53//53
f 53//53 54//54 47//47
f 56//56 54//54 64//63
f 54//54 56//56 49//49
f 55//55 65//64 66//65
f 65//64 55//55 56//56
f 67//66 48//48 55//55
f 48//48 67//66 57//57
f 68//67 60//59 69//68
f 60//59 68//67 58//51
f 60//59 70//69 71//70
f 70//69 60//59 59//58
f 62//61 72//71 63//62
f 64//63 63//62 73//72
f 63//62 64//63 54//54
f 56//56 74//73 65//64
f 74//73 56//56 64//63
f 66//65 75//74 76//75
f 75//74 66//65 65//64
f 67//66 66//65 77//76
f 66//65 67//66 55//55
f 68//67 69//68 78//77
f 69//68 71//70 79//78
f 71//70 69//68 60//59
f 71//70 80//79 81//80
f 80//79 71//70 70//69
f 73//72 72//71 82//81
f 72//71 73//72 63//62
f 64//63 83//82 74//73
f 83//82 64//63 73//72
f 65//64 84//83 75//74
f 84//83 65//64 74//73
f 76//75 85//84 86//85
f 85//84 76//75 87//86
f 87//86 76//75 75//74
f 88//87 86//85 85//84
f 77//76 76//75 89//88
f 76//75 77//76 66//65
f 90//89 79//78 91//90
f 79//78 90//89 69//68
f 69//68 90//89 78//77
f 79//78 81//80 92//91
f 81//80 79//78 71//70
f 93//92 80//79 94//93
f 80//79 93//92 81//80
f 73//72 95//94 83//82
f 95//94 73//72 82//81
f 74//73 96//95 84//83
f 96//95 74//73 97//96
f 97//96 74//73 83//82
f 75//74 98//97 87//86
f 98//97 75//74 84//83
f 86//85 99//98 100//99
f 99//98 86//85 101//100
f 101//100 86//85 88//87
f 89//88 86//85 102//101
f 86//85 89//88 76//75
f 90//89 91//90 103//102
f 91//90 92//91 104//103
f 92//91 91//90 79//78
f 105//104 81//80 93//92
f 81//80 105//104 92//91
f 106//105 94//93 107//106
f 94//93 106//105 93//92
f 95//94 97//96 83//82
f 96//95 98//97 84//83
f 101//100 108//107 99//98
f 108//107 101//100 109//108
f 100//99 110//109 111//110
f 110//109 100//99 99//98
f 102//101 100//99 112//111
f 100//99 102//101 86//85
f 113//112 104//103 114//113
f 104//103 113//112 91//90
f 91//90 113//112 103//102
f 115//114 92//91 105//104
f 92//91 115//114 104//103
f 116//115 93//92 106//105
f 93//92 116//115 105//104
f 117//116 118//117 119//118
f 119//118 107//106 120//119
f 107//106 119//118 118//117
f 107//106 118//117 121//116
f 107//106 121//116 106//105
f 122//120 108//107 109//108
f 99//98 123//121 110//109
f 123//121 99//98 108//107
f 111//110 124//122 125//123
f 124//122 111//110 110//109
f 112//111 111//110 126//124
f 111//110 112//111 100//99
f 113//112 114//113 127//125
f 128//126 104//103 115//114
f 104//103 128//126 129//127
f 104//103 129//127 114//113
f 130//128 105//104 116//115
f 105//104 130//128 131//129
f 105//104 131//129 115//114
f 132//130 106//105 121//116
f 106//105 132//130 116//115
f 133//131 117//116 119//118
f 134//132 120//119 135//133
f 120//119 134//132 119//118
f 108//107 136//134 123//121
f 136//134 108//107 137//135
f 137//135 108//107 122//120
f 110//109 138//136 124//122
f 138//136 110//109 123//121
f 124//122 139//137 125//123
f 139//137 124//122 140//138
f 126//124 125//123 141//139
f 125//123 126//124 111//110
f 114//113 129//127 127//125
f 128//126 115//114 131//129
f 130//128 116//115 132//130
f 142//140 119//118 134//132
f 119//118 142//140 143//141
f 119//118 143//141 133//131
f 139//137 135//133 144//142
f 135//133 139//137 134//132
f 145//143 136//134 137//135
f 123//121 146//144 138//136
f 146//144 123//121 136//134
f 138//136 140//138 124//122
f 140//138 138//136 147//145
f 140//138 134//132 139//137
f 134//132 140//138 142//140
f 125//123 144//142 141//139
f 144//142 125//123 139//137
f 148//146 143//141 142//140
f 143//141 148//146 149//147
f 136//134 150//148 146//144
f 150//148 136//134 145//143
f 150//148 145//143 151//149
f 146//144 147//145 138//136
f 147//145 146//144 152//150
f 147//145 142//140 140//138
f 142//140 147//145 148//146
f 153//151 149//147 148//146
f 154//152 150//148 151//149
f 150//148 152//150 146//144
f 152//150 150//148 155//153
f 155//153 150//148 156//154
f 152//150 148//146 147//145
f 148//146 152//150 157//155
f 148//146 157//155 153//151
f 154//152 156//154 150//148
f 155//153 157//155 152//150
