# SSTK version 0.8.0
# 526
mtllib original-526.mtl
o #ID3476
v -0.346018 0.22133 -0.452446
v -0.34246 0.221869 -0.451583
v -0.342446 0.22133 -0.451654
v -0.346018 0.222117 -0.452338
v -0.346018 0.222117 -0.452338
v -0.346018 0.22133 -0.452446
v -0.34246 0.221869 -0.451583
v -0.342446 0.22133 -0.451654
v -0.346018 0.220457 -0.452531
v -0.342425 0.220203 -0.451759
v -0.346018 0.220457 -0.452531
v -0.342425 0.220203 -0.451759
v -0.336156 0.22133 -0.45051
v -0.337501 0.221585 -0.45072
v -0.337501 0.222348 -0.450616
v -0.337501 0.221585 -0.45072
v -0.336156 0.22133 -0.45051
v -0.337501 0.222348 -0.450616
v -0.336144 0.219839 -0.450652
v -0.336144 0.219839 -0.450652
vn 0.21517249383905 0.11377689674227033 -0.9699255722285
vn 0.19599859311382378 0.13312489532281574 -0.9715257658666039
vn 0.19646840038680208 0.1138542002241531 -0.9738775019173458
vn 0.2146519033567759 0.1331007020814592 -0.9675788151312202
vn 0.21561150715900262 0.09441005313472031 -0.9719045322703885
vn 0.19684789596869723 0.09447830806515226 -0.9758712800148609
vn 0.07467910631891567 0.06124113698130014 -0.9953253509383985
vn 0.17727400827012166 0.13310070620936482 -0.9751195454909174
vn 0.12822550518164952 0.06678443269878834 -0.9894938399858848
vn 0.08943222019267498 0.09487261020439566 -0.9914641021360348
vn -0.2146519033567759 -0.1331007020814592 0.9675788151312202
vn -0.21517249383905 -0.11377689674227033 0.9699255722285
vn -0.19599859311382378 -0.13312489532281574 0.9715257658666039
vn -0.19646840038680208 -0.1138542002241531 0.9738775019173458
vn -0.21561150715900262 -0.09441005313472031 0.9719045322703885
vn -0.19684789596869723 -0.09447830806515226 0.9758712800148609
vn -0.17727400827012166 -0.13310070620936482 0.9751195454909174
vn -0.07467910631891567 -0.06124113698130014 0.9953253509383985
vn -0.12822550518164952 -0.06678443269878834 0.9894938399858848
vn -0.08943222019267498 -0.09487261020439566 0.9914641021360348
usemtl material_0_0
f 1//1 2//2 3//3
f 2//2 1//1 4//4
f 9//5 3//3 10//6
f 3//3 9//5 1//1
f 2//2 13//7 3//3
f 13//7 2//2 14//8
f 15//9 13//7 14//8
f 10//6 13//7 19//10
f 13//7 10//6 3//3
usemtl material_1_0
f 5//11 6//12 7//13
f 8//14 7//13 6//12
f 6//12 11//15 8//14
f 12//16 8//14 11//15
f 16//17 17//18 18//19
f 16//17 7//13 17//18
f 8//14 17//18 7//13
f 8//14 12//16 17//18
f 20//20 17//18 12//16
