# SSTK version 0.8.0
# 12
mtllib original-12.mtl
o #ID1105
v 0.281478 0.362937 -0.418116
v -0.049292 0.366334 -0.421119
v -0.049292 0.362937 -0.418116
v 0.281478 0.366334 -0.421119
v 0.281478 0.366334 -0.421119
v 0.281478 0.362937 -0.418116
v -0.049292 0.366334 -0.421119
v -0.049292 0.362937 -0.418116
v -0.049292 0.367929 -0.422052
v 0.281478 0.367929 -0.422052
v 0.281478 0.367929 -0.422052
v -0.049292 0.367929 -0.422052
v 0.281478 0.360155 -0.414495
v -0.049292 0.360155 -0.414495
v -0.049292 0.360155 -0.414495
v 0.281478 0.360155 -0.414495
v -0.049292 0.368168 -0.422359
v 0.281478 0.367929 -0.422052
v 0.281478 0.368168 -0.422359
v -0.049292 0.367929 -0.422052
v -0.049292 0.367929 -0.422052
v -0.049292 0.368168 -0.422359
v 0.281478 0.367929 -0.422052
v 0.281478 0.368168 -0.422359
v 0.281478 0.358091 -0.410388
v -0.049292 0.358091 -0.410388
v -0.049292 0.358091 -0.410388
v 0.281478 0.358091 -0.410388
v -0.049292 0.368399 -0.422672
v 0.281478 0.368399 -0.422672
v -0.049292 0.368399 -0.422672
v 0.281478 0.368399 -0.422672
v -0.049292 0.356822 -0.405948
v 0.281478 0.356822 -0.405948
v -0.049292 0.356822 -0.405948
v 0.281478 0.356822 -0.405948
v -0.049292 0.368622 -0.422992
v 0.281478 0.368622 -0.422992
v -0.049292 0.368622 -0.422992
v 0.281478 0.368622 -0.422992
v 0.281478 0.356394 -0.401338
v -0.049292 0.356394 -0.401338
v -0.049292 0.356394 -0.401338
v 0.281478 0.356394 -0.401338
v -0.049292 0.368836 -0.423319
v 0.281478 0.368836 -0.423319
v -0.049292 0.368836 -0.423319
v 0.281478 0.368836 -0.423319
v 0.281478 0.356822 -0.396728
v -0.049292 0.356822 -0.396728
v -0.049292 0.356822 -0.396728
v 0.281478 0.356822 -0.396728
v -0.049292 0.369041 -0.423651
v 0.281478 0.369041 -0.423651
v -0.049292 0.369041 -0.423651
v 0.281478 0.369041 -0.423651
v 0.281478 0.358091 -0.392287
v -0.049292 0.358091 -0.392287
v -0.049292 0.358091 -0.392287
v 0.281478 0.358091 -0.392287
v -0.049292 0.369237 -0.423989
v 0.281478 0.369237 -0.423989
v -0.049292 0.369237 -0.423989
v 0.281478 0.369237 -0.423989
v 0.281478 0.360155 -0.388181
v -0.049292 0.360155 -0.388181
v -0.049292 0.360155 -0.388181
v 0.281478 0.360155 -0.388181
v -0.049292 0.369425 -0.424333
v 0.281478 0.369425 -0.424333
v -0.049292 0.369425 -0.424333
v 0.281478 0.369425 -0.424333
v 0.281478 0.362937 -0.384559
v -0.049292 0.362937 -0.384559
v -0.049292 0.362937 -0.384559
v 0.281478 0.362937 -0.384559
v -0.049292 0.369603 -0.424682
v 0.281478 0.369603 -0.424682
v -0.049292 0.369603 -0.424682
v 0.281478 0.369603 -0.424682
v -0.049292 0.366334 -0.381557
v 0.281478 0.366334 -0.381557
v 0.281478 0.366334 -0.381557
v -0.049292 0.366334 -0.381557
v -0.049292 0.369772 -0.425035
v 0.281478 0.369772 -0.425035
v -0.049292 0.369772 -0.425035
v 0.281478 0.369772 -0.425035
v -0.049292 0.366898 -0.381241
v 0.281478 0.366898 -0.381241
v 0.281478 0.366898 -0.381241
v -0.049292 0.366898 -0.381241
v -0.049292 0.369931 -0.425394
v 0.281478 0.369931 -0.425394
v -0.049292 0.369931 -0.425394
v 0.281478 0.369931 -0.425394
v -0.049292 0.367037 -0.381146
v 0.281478 0.367037 -0.381146
v -0.049292 0.367432 -0.380872
v 0.281478 0.367432 -0.380872
v 0.281478 0.367432 -0.380872
v -0.049292 0.367432 -0.380872
v 0.281478 0.367037 -0.381146
v -0.049292 0.367037 -0.381146
v -0.049292 0.370081 -0.425757
v 0.281478 0.370081 -0.425757
v -0.049292 0.370081 -0.425757
v 0.281478 0.370081 -0.425757
v -0.049292 0.36793 -0.380454
v 0.281478 0.36793 -0.380454
v 0.281478 0.36793 -0.380454
v -0.049292 0.36793 -0.380454
v 0.281478 0.370221 -0.426123
v -0.049292 0.370221 -0.426123
v -0.049292 0.370221 -0.426123
v 0.281478 0.370221 -0.426123
v 0.281478 0.368388 -0.379988
v -0.049292 0.368388 -0.379988
v -0.049292 0.368388 -0.379988
v 0.281478 0.368388 -0.379988
v 0.281478 0.368802 -0.37948
v -0.049292 0.368802 -0.37948
v -0.049292 0.368802 -0.37948
v 0.281478 0.368802 -0.37948
v 0.281478 0.369168 -0.378934
v -0.049292 0.369168 -0.378934
v -0.049292 0.369168 -0.378934
v 0.281478 0.369168 -0.378934
v 0.281478 0.369484 -0.378355
v -0.049292 0.369484 -0.378355
v -0.049292 0.369484 -0.378355
v 0.281478 0.369484 -0.378355
v 0.281478 0.369746 -0.377748
v -0.049292 0.369746 -0.377748
v -0.049292 0.369746 -0.377748
v 0.281478 0.369746 -0.377748
v 0.281478 0.369953 -0.377118
v -0.049292 0.369953 -0.377118
v -0.049292 0.369953 -0.377118
v 0.281478 0.369953 -0.377118
v 0.281478 0.370102 -0.376471
v -0.049292 0.370102 -0.376471
v -0.049292 0.370102 -0.376471
v 0.281478 0.370102 -0.376471
v 0.281478 0.370191 -0.375812
v -0.049292 0.370191 -0.375812
v -0.049292 0.370191 -0.375812
v 0.281478 0.370191 -0.375812
v 0.281478 0.370221 -0.375147
v 0.187618 0.370221 -0.375147
v 0.048108 0.370221 -0.375147
v -0.049292 0.370221 -0.375147
v -0.049292 0.370221 -0.375147
v 0.048108 0.370221 -0.375147
v 0.187618 0.370221 -0.375147
v 0.281478 0.370221 -0.375147
vn 0.0 0.7303702166331801 0.6830514963421143
vn 0.0 0.5855321950788479 0.8106491525476024
vn 0.0 -0.5855321950788479 -0.8106491525476024
vn 0.0 -0.7303702166331801 -0.6830514963421143
vn 0.0 0.5048220814075545 0.863223416111579
vn 0.0 -0.5048220814075545 -0.863223416111579
vn 0.0 0.8466492692916345 0.5321513081896364
vn 0.0 -0.8466492692916345 -0.5321513081896364
vn 0.0 0.7970988836352818 0.6038487970571665
vn 0.0 0.7888136515463011 0.6146324292894012
vn 0.0 -0.7888136515463011 -0.6146324292894012
vn 0.0 -0.7970988836352818 -0.6038487970571665
vn 0.0 0.9313703057335256 0.3640732805326962
vn 0.0 -0.9313703057335256 -0.3640732805326962
vn 0.0 0.8132316937176444 0.5819400418712667
vn 0.0 -0.8132316937176444 -0.5819400418712667
vn 0.0 0.982778018226498 0.18479006166673992
vn 0.0 -0.982778018226498 -0.18479006166673992
vn 0.0 0.8287329810362519 0.5596442138919755
vn 0.0 -0.8287329810362519 -0.5596442138919755
vn 0.0 1.0 -2.4112024442668265e-09
vn 0.0 1.0 -2.4111991109334937e-09
vn 0.0 -1.0 2.4111991109334937e-09
vn 0.0 -1.0 2.4112024442668265e-09
vn 0.0 0.8435954955604724 0.536979180108578
vn 0.0 -0.8435954955604724 -0.536979180108578
vn 0.0 0.9827780182264978 -0.18479006166674028
vn 0.0 -0.9827780182264978 0.18479006166674028
vn 0.0 0.8578125347665277 0.5139626982548678
vn 0.0 -0.8578125347665277 -0.5139626982548678
vn 0.0 0.9313703057335254 -0.36407328053269666
vn 0.0 -0.9313703057335254 0.36407328053269666
vn 0.0 0.8713778373585958 0.4906125401579708
vn 0.0 -0.8713778373585958 -0.4906125401579708
vn 0.0 0.8466492692916344 -0.5321513081896369
vn 0.0 -0.8466492692916344 0.5321513081896369
vn 0.0 0.8842856042051604 0.4669464318265153
vn 0.0 -0.8842856042051604 -0.4669464318265153
vn 0.0 0.7303702166331799 -0.6830514963421147
vn 0.0 -0.7303702166331799 0.6830514963421147
vn 0.0 0.896530575703358 0.4429818583520158
vn 0.0 -0.896530575703358 -0.4429818583520158
vn -0.002372498366086931 0.5793540457934514 -0.8150725494545025
vn 0.0 0.5773869937449805 -0.8164706115067055
vn 0.0 -0.5773869937449805 0.8164706115067055
vn 0.002372498366086931 -0.5793540457934514 0.8150725494545025
vn 0.0 0.908107989365215 0.41873605009727366
vn 0.0 -0.908107989365215 -0.41873605009727366
vn -0.005088864920890417 0.5261014156427143 -0.8504066109294711
vn 0.0 0.5286017880699967 -0.8488699250469427
vn 0.0 -0.5286017880699967 0.8488699250469427
vn 0.005088864920890417 -0.5261014156427143 0.8504066109294711
vn 0.0 0.9190133382553858 0.39422643760748977
vn 0.0 -0.9190133382553858 -0.39422643760748977
vn 0.0 0.5685985301519582 -0.8226151661068698
vn 0.0 0.6066850511099676 -0.7949422927229975
vn 0.0 -0.6066850511099676 0.7949422927229975
vn 0.0 -0.5685985301519582 0.8226151661068698
vn 0.0 0.9292426125820195 0.3694701164664649
vn 0.0 -0.9292426125820195 -0.3694701164664649
vn 0.0 0.6788475092891163 -0.7342792787025677
vn 0.0 -0.6788475092891163 0.7342792787025677
vn 0.0 0.9822292539163399 0.18768508931438968
vn 0.0 0.9822292743309831 0.1876849824765703
vn 0.0 -0.9822292743309831 -0.1876849824765703
vn 0.0 -0.9822292539163399 -0.18768508931438968
vn 0.0 0.7445488910279888 -0.667567935770579
vn 0.0 -0.7445488910279888 0.667567935770579
vn 0.0 0.8033441356399657 -0.5955150709536042
vn 0.0 -0.8033441356399657 0.5955150709536042
vn 0.0 0.8548756951631089 -0.518832868869534
vn 0.0 -0.8548756951631089 0.518832868869534
vn 0.0 0.8988642579027633 -0.4382271623997248
vn 0.0 -0.8988642579027633 0.4382271623997248
vn 0.0 0.935097333185331 -0.35439099518707023
vn 0.0 -0.935097333185331 0.35439099518707023
vn 0.0 0.9634189767619903 -0.26799976719183854
vn 0.0 -0.9634189767619903 0.26799976719183854
vn 0.0 0.9837193951821249 -0.17971130054204731
vn 0.0 -0.9837193951821249 0.17971130054204731
vn 0.0 0.995926581696756 -0.09016786495096102
vn 0.0 -0.995926581696756 0.09016786495096102
vn 0.0 0.999743729951487 -0.022637897929982203
vn 0.0 0.9995493463666458 -0.030018397325825407
vn 0.0 0.9997437302029423 -0.022637886825105855
vn 0.0 -0.9997437302029423 0.022637886825105855
vn 0.0 -0.9995493463666458 0.030018397325825407
vn 0.0 -0.999743729951487 0.022637897929982203
usemtl material_0_0
f 1//1 2//2 3//1
f 2//2 1//1 4//2
f 5//3 6//4 7//3
f 8//4 7//3 6//4
f 4//2 9//5 2//2
f 9//5 4//2 10//5
f 11//6 5//3 12//6
f 7//3 12//6 5//3
f 3//1 13//7 1//1
f 13//7 3//1 14//7
f 15//8 8//4 16//8
f 6//4 16//8 8//4
f 17//9 18//10 19//9
f 18//10 17//9 20//10
f 21//11 22//12 23//11
f 24//12 23//11 22//12
f 14//7 25//13 13//7
f 25//13 14//7 26//13
f 27//14 15//8 28//14
f 16//8 28//14 15//8
f 29//15 19//9 30//15
f 19//9 29//15 17//9
f 22//12 31//16 24//12
f 32//16 24//12 31//16
f 25//13 33//17 34//17
f 33//17 25//13 26//13
f 27//14 28//14 35//18
f 36//18 35//18 28//14
f 37//19 30//15 38//19
f 30//15 37//19 29//15
f 31//16 39//20 32//16
f 40//20 32//16 39//20
f 33//17 41//21 34//17
f 41//21 33//17 42//22
f 43//23 35//18 44//24
f 36//18 44//24 35//18
f 45//25 38//19 46//25
f 38//19 45//25 37//19
f 39//20 47//26 40//20
f 48//26 40//20 47//26
f 42//22 49//27 41//21
f 49//27 42//22 50//27
f 51//28 43//23 52//28
f 44//24 52//28 43//23
f 53//29 46//25 54//29
f 46//25 53//29 45//25
f 47//26 55//30 48//26
f 56//30 48//26 55//30
f 50//27 57//31 49//27
f 57//31 50//27 58//31
f 59//32 51//28 60//32
f 52//28 60//32 51//28
f 61//33 54//29 62//33
f 54//29 61//33 53//29
f 55//30 63//34 56//30
f 64//34 56//30 63//34
f 58//31 65//35 57//31
f 65//35 58//31 66//35
f 67//36 59//32 68//36
f 60//32 68//36 59//32
f 69//37 62//33 70//37
f 62//33 69//37 61//33
f 63//34 71//38 64//34
f 72//38 64//34 71//38
f 66//35 73//39 65//35
f 73//39 66//35 74//39
f 75//40 67//36 76//40
f 68//36 76//40 67//36
f 77//41 70//37 78//41
f 70//37 77//41 69//37
f 71//38 79//42 72//38
f 80//42 72//38 79//42
f 81//43 73//39 74//39
f 73//39 81//43 82//44
f 83//45 84//46 76//40
f 75//40 76//40 84//46
f 85//47 78//41 86//47
f 78//41 85//47 77//41
f 79//42 87//48 80//42
f 88//48 80//42 87//48
f 89//49 82//44 81//43
f 82//44 89//49 90//50
f 91//51 92//52 83//45
f 84//46 83//45 92//52
f 93//53 86//47 94//53
f 86//47 93//53 85//47
f 87//48 95//54 88//48
f 96//54 88//48 95//54
f 97//55 90//50 89//49
f 90//50 97//55 98//55
f 98//55 97//55 99//56
f 98//55 99//56 100//56
f 101//57 102//57 103//58
f 102//57 104//58 103//58
f 103//58 104//58 91//51
f 92//52 91//51 104//58
f 105//59 94//53 106//59
f 94//53 105//59 93//53
f 95//54 107//60 96//54
f 108//60 96//54 107//60
f 109//61 100//56 99//56
f 100//56 109//61 110//61
f 111//62 112//62 101//57
f 102//57 101//57 112//62
f 113//63 105//59 106//59
f 105//59 113//63 114//64
f 115//65 116//66 107//60
f 108//60 107//60 116//66
f 109//61 117//67 110//61
f 117//67 109//61 118//67
f 119//68 112//62 120//68
f 111//62 120//68 112//62
f 118//67 121//69 117//67
f 121//69 118//67 122//69
f 123//70 119//68 124//70
f 120//68 124//70 119//68
f 122//69 125//71 121//69
f 125//71 122//69 126//71
f 127//72 123//70 128//72
f 124//70 128//72 123//70
f 126//71 129//73 125//71
f 129//73 126//71 130//73
f 131//74 127//72 132//74
f 128//72 132//74 127//72
f 130//73 133//75 129//73
f 133//75 130//73 134//75
f 135//76 131//74 136//76
f 132//74 136//76 131//74
f 134//75 137//77 133//75
f 137//77 134//75 138//77
f 139//78 135//76 140//78
f 136//76 140//78 135//76
f 138//77 141//79 137//77
f 141//79 138//77 142//79
f 143//80 139//78 144//80
f 140//78 144//80 139//78
f 142//79 145//81 141//79
f 145//81 142//79 146//81
f 147//82 143//80 148//82
f 144//80 148//82 143//80
f 146//81 149//83 145//81
f 149//83 146//81 150//84
f 150//84 146//81 151//84
f 151//84 146//81 152//85
f 153//86 147//82 154//87
f 154//87 147//82 155//87
f 155//87 147//82 156//88
f 148//82 156//88 147//82
