# SSTK version 0.8.0
# 454
mtllib original-454.mtl
o #ID3044
v -0.336654 0.246053 -0.444994
v -0.330324 0.245886 -0.445054
v -0.336648 0.245886 -0.445053
v -0.331627 0.249168 -0.443897
v -0.335402 0.249188 -0.44389
v -0.335402 0.249188 -0.44389
v -0.336654 0.246053 -0.444994
v -0.331627 0.249168 -0.443897
v -0.330324 0.245886 -0.445054
v -0.336648 0.245886 -0.445053
vn 0.08458195790951287 0.33350839175716623 -0.9389451767934812
vn -0.0003274452871759077 0.32479418727973536 -0.9457846629592173
vn -2.485904062258148e-05 0.3528555088370788 -0.9356778234335548
vn -0.00011311490297566626 0.35305350928763024 -0.9356031246125187
vn 0.00011311490297566626 -0.35305350928763024 0.9356031246125187
vn -0.08458195790951287 -0.33350839175716623 0.9389451767934812
vn 2.485904062258148e-05 -0.3528555088370788 0.9356778234335548
vn 0.0003274452871759077 -0.32479418727973536 0.9457846629592173
usemtl material_0_0
f 1//1 2//2 3//1
f 2//2 1//1 4//3
f 4//3 1//1 5//4
f 6//5 7//6 8//7
f 8//7 7//6 9//8
f 10//6 9//8 7//6
