# SSTK version 0.8.0
# 226
mtllib original-226.mtl
o #ID1439
v -0.218681 0.098533 -0.46651
v -0.173776 0.098533 -0.46651
v -0.196228 0.098533 -0.46651
v -0.225608 0.052255 -0.46651
v -0.218681 0.05279 -0.46651
v -0.196228 0.05279 -0.46651
v -0.219771 0.052805 -0.46651
v -0.226699 0.053333 -0.46651
v -0.220846 0.052986 -0.46651
v -0.221881 0.05333 -0.46651
v -0.222852 0.053826 -0.46651
v -0.227613 0.054566 -0.46651
v -0.223735 0.054466 -0.46651
v -0.22451 0.055232 -0.46651
v -0.228328 0.055923 -0.46651
v -0.22516 0.056108 -0.46651
v -0.228827 0.057373 -0.46651
v -0.225668 0.057073 -0.46651
v -0.226023 0.058104 -0.46651
v -0.228993 0.058297 -0.46651
v -0.226104 0.058556 -0.46651
v -0.228993 0.061348 -0.46651
v -0.226104 0.061348 -0.46651
v -0.228993 0.088736 -0.46651
v -0.226104 0.092537 -0.46651
v -0.228993 0.092937 -0.46651
v -0.225871 0.093364 -0.46651
v -0.228594 0.094355 -0.46651
v -0.225388 0.094434 -0.46651
v -0.227932 0.095821 -0.46651
v -0.22475 0.095421 -0.46651
v -0.223973 0.096302 -0.46651
v -0.22706 0.097171 -0.46651
v -0.223073 0.097057 -0.46651
v -0.22207 0.09767 -0.46651
v -0.225996 0.098376 -0.46651
v -0.220988 0.098126 -0.46651
v -0.219849 0.098416 -0.46651
v -0.224764 0.09941 -0.46651
v -0.2187 0.049901 -0.46651
v -0.171578 0.050136 -0.46651
v -0.173106 0.0499 -0.46651
v -0.220032 0.049919 -0.46651
v -0.221545 0.050174 -0.46651
v -0.170102 0.050603 -0.46651
v -0.223 0.050656 -0.46651
v -0.168716 0.05129 -0.46651
v -0.224366 0.051356 -0.46651
v -0.167451 0.052182 -0.46651
v -0.173776 0.05279 -0.46651
v -0.172685 0.052805 -0.46651
v -0.166337 0.053256 -0.46651
v -0.17161 0.052986 -0.46651
v -0.170575 0.05333 -0.46651
v -0.165401 0.054488 -0.46651
v -0.169605 0.053826 -0.46651
v -0.168721 0.054466 -0.46651
v -0.167946 0.055232 -0.46651
v -0.164664 0.055849 -0.46651
v -0.167297 0.056108 -0.46651
v -0.164144 0.057307 -0.46651
v -0.166789 0.057073 -0.46651
v -0.166434 0.058104 -0.46651
v -0.163936 0.058399 -0.46651
v -0.166352 0.058556 -0.46651
v -0.163936 0.061348 -0.46651
v -0.166352 0.061348 -0.46651
v -0.166352 0.092537 -0.46651
v -0.163936 0.088736 -0.46651
v -0.163936 0.092883 -0.46651
v -0.166585 0.093364 -0.46651
v -0.164387 0.094429 -0.46651
v -0.167068 0.094434 -0.46651
v -0.16507 0.0959 -0.46651
v -0.167706 0.095421 -0.46651
v -0.168483 0.096302 -0.46651
v -0.165966 0.097253 -0.46651
v -0.169383 0.097057 -0.46651
v -0.170386 0.09767 -0.46651
v -0.167054 0.098456 -0.46651
v -0.171468 0.098126 -0.46651
v -0.172607 0.098416 -0.46651
v -0.168311 0.099483 -0.46651
v -0.223393 0.100248 -0.46651
v -0.169706 0.10031 -0.46651
v -0.221911 0.100873 -0.46651
v -0.171211 0.100919 -0.46651
v -0.220353 0.10127 -0.46651
v -0.172789 0.101295 -0.46651
v -0.218825 0.101423 -0.46651
v -0.174309 0.101423 -0.46651
v -0.174309 0.101423 -0.46651
v -0.218825 0.101423 -0.46651
v -0.172789 0.101295 -0.46651
v -0.220353 0.10127 -0.46651
v -0.171211 0.100919 -0.46651
v -0.221911 0.100873 -0.46651
v -0.169706 0.10031 -0.46651
v -0.223393 0.100248 -0.46651
v -0.168311 0.099483 -0.46651
v -0.224764 0.09941 -0.46651
v -0.218681 0.098533 -0.46651
v -0.173776 0.098533 -0.46651
v -0.167054 0.098456 -0.46651
v -0.172607 0.098416 -0.46651
v -0.171468 0.098126 -0.46651
v -0.170386 0.09767 -0.46651
v -0.165966 0.097253 -0.46651
v -0.169383 0.097057 -0.46651
v -0.168483 0.096302 -0.46651
v -0.16507 0.0959 -0.46651
v -0.167706 0.095421 -0.46651
v -0.167068 0.094434 -0.46651
v -0.164387 0.094429 -0.46651
v -0.166585 0.093364 -0.46651
v -0.163936 0.092883 -0.46651
v -0.166352 0.092537 -0.46651
v -0.163936 0.088736 -0.46651
v -0.163936 0.061348 -0.46651
v -0.166352 0.061348 -0.46651
v -0.166352 0.058556 -0.46651
v -0.163936 0.058399 -0.46651
v -0.166434 0.058104 -0.46651
v -0.164144 0.057307 -0.46651
v -0.166789 0.057073 -0.46651
v -0.167297 0.056108 -0.46651
v -0.164664 0.055849 -0.46651
v -0.167946 0.055232 -0.46651
v -0.165401 0.054488 -0.46651
v -0.168721 0.054466 -0.46651
v -0.169605 0.053826 -0.46651
v -0.170575 0.05333 -0.46651
v -0.166337 0.053256 -0.46651
v -0.17161 0.052986 -0.46651
v -0.172685 0.052805 -0.46651
v -0.196228 0.05279 -0.46651
v -0.225608 0.052255 -0.46651
v -0.173776 0.05279 -0.46651
v -0.167451 0.052182 -0.46651
v -0.224366 0.051356 -0.46651
v -0.168716 0.05129 -0.46651
v -0.223 0.050656 -0.46651
v -0.170102 0.050603 -0.46651
v -0.221545 0.050174 -0.46651
v -0.171578 0.050136 -0.46651
v -0.220032 0.049919 -0.46651
v -0.2187 0.049901 -0.46651
v -0.173106 0.0499 -0.46651
v -0.219849 0.098416 -0.46651
v -0.225996 0.098376 -0.46651
v -0.220988 0.098126 -0.46651
v -0.22207 0.09767 -0.46651
v -0.22706 0.097171 -0.46651
v -0.223073 0.097057 -0.46651
v -0.223973 0.096302 -0.46651
v -0.227932 0.095821 -0.46651
v -0.22475 0.095421 -0.46651
v -0.225388 0.094434 -0.46651
v -0.228594 0.094355 -0.46651
v -0.225871 0.093364 -0.46651
v -0.228993 0.092937 -0.46651
v -0.226104 0.092537 -0.46651
v -0.228993 0.088736 -0.46651
v -0.226104 0.061348 -0.46651
v -0.228993 0.061348 -0.46651
v -0.226104 0.058556 -0.46651
v -0.228993 0.058297 -0.46651
v -0.226023 0.058104 -0.46651
v -0.228827 0.057373 -0.46651
v -0.225668 0.057073 -0.46651
v -0.22516 0.056108 -0.46651
v -0.228328 0.055923 -0.46651
v -0.22451 0.055232 -0.46651
v -0.227613 0.054566 -0.46651
v -0.223735 0.054466 -0.46651
v -0.222852 0.053826 -0.46651
v -0.226699 0.053333 -0.46651
v -0.221881 0.05333 -0.46651
v -0.220846 0.052986 -0.46651
v -0.219771 0.052805 -0.46651
v -0.218681 0.05279 -0.46651
v -0.196228 0.098533 -0.46651
vn -1.257441e-09 -1.229340222044605e-09 -1.0
vn 1.257441e-09 1.229340222044605e-09 1.0
usemtl material_0_0
f 1//1 2//1 3//1
f 4//1 5//1 6//1
f 5//1 4//1 7//1
f 7//1 4//1 8//1
f 7//1 8//1 9//1
f 9//1 8//1 10//1
f 10//1 8//1 11//1
f 11//1 8//1 12//1
f 11//1 12//1 13//1
f 13//1 12//1 14//1
f 14//1 12//1 15//1
f 14//1 15//1 16//1
f 16//1 15//1 17//1
f 16//1 17//1 18//1
f 18//1 17//1 19//1
f 19//1 17//1 20//1
f 19//1 20//1 21//1
f 21//1 20//1 22//1
f 21//1 22//1 23//1
f 23//1 22//1 24//1
f 23//1 24//1 25//1
f 25//1 24//1 26//1
f 25//1 26//1 27//1
f 27//1 26//1 28//1
f 27//1 28//1 29//1
f 29//1 28//1 30//1
f 29//1 30//1 31//1
f 31//1 30//1 32//1
f 32//1 30//1 33//1
f 32//1 33//1 34//1
f 34//1 33//1 35//1
f 35//1 33//1 36//1
f 35//1 36//1 37//1
f 37//1 36//1 38//1
f 38//1 36//1 39//1
f 38//1 39//1 1//1
f 40//1 41//1 42//1
f 41//1 40//1 43//1
f 41//1 43//1 44//1
f 41//1 44//1 45//1
f 45//1 44//1 46//1
f 45//1 46//1 47//1
f 47//1 46//1 48//1
f 47//1 48//1 49//1
f 49//1 48//1 4//1
f 49//1 4//1 50//1
f 49//1 50//1 51//1
f 49//1 51//1 52//1
f 50//1 4//1 6//1
f 52//1 51//1 53//1
f 52//1 53//1 54//1
f 52//1 54//1 55//1
f 55//1 54//1 56//1
f 55//1 56//1 57//1
f 55//1 57//1 58//1
f 55//1 58//1 59//1
f 59//1 58//1 60//1
f 59//1 60//1 61//1
f 61//1 60//1 62//1
f 61//1 62//1 63//1
f 61//1 63//1 64//1
f 64//1 63//1 65//1
f 64//1 65//1 66//1
f 66//1 65//1 67//1
f 66//1 67//1 68//1
f 66//1 68//1 69//1
f 69//1 68//1 70//1
f 70//1 68//1 71//1
f 70//1 71//1 72//1
f 72//1 71//1 73//1
f 72//1 73//1 74//1
f 74//1 73//1 75//1
f 74//1 75//1 76//1
f 74//1 76//1 77//1
f 77//1 76//1 78//1
f 77//1 78//1 79//1
f 77//1 79//1 80//1
f 80//1 79//1 81//1
f 80//1 81//1 82//1
f 80//1 82//1 2//1
f 80//1 2//1 83//1
f 83//1 2//1 1//1
f 83//1 1//1 39//1
f 83//1 39//1 84//1
f 83//1 84//1 85//1
f 85//1 84//1 86//1
f 85//1 86//1 87//1
f 87//1 86//1 88//1
f 87//1 88//1 89//1
f 89//1 88//1 90//1
f 89//1 90//1 91//1
usemtl material_1_0
f 92//2 93//2 94//2
f 93//2 95//2 94//2
f 94//2 95//2 96//2
f 95//2 97//2 96//2
f 96//2 97//2 98//2
f 97//2 99//2 98//2
f 98//2 99//2 100//2
f 99//2 101//2 100//2
f 101//2 102//2 100//2
f 102//2 103//2 100//2
f 100//2 103//2 104//2
f 103//2 105//2 104//2
f 105//2 106//2 104//2
f 106//2 107//2 104//2
f 104//2 107//2 108//2
f 107//2 109//2 108//2
f 109//2 110//2 108//2
f 108//2 110//2 111//2
f 110//2 112//2 111//2
f 112//2 113//2 111//2
f 111//2 113//2 114//2
f 113//2 115//2 114//2
f 114//2 115//2 116//2
f 115//2 117//2 116//2
f 116//2 117//2 118//2
f 118//2 117//2 119//2
f 117//2 120//2 119//2
f 120//2 121//2 119//2
f 119//2 121//2 122//2
f 121//2 123//2 122//2
f 122//2 123//2 124//2
f 123//2 125//2 124//2
f 125//2 126//2 124//2
f 124//2 126//2 127//2
f 126//2 128//2 127//2
f 127//2 128//2 129//2
f 128//2 130//2 129//2
f 130//2 131//2 129//2
f 131//2 132//2 129//2
f 129//2 132//2 133//2
f 132//2 134//2 133//2
f 134//2 135//2 133//2
f 136//2 137//2 138//2
f 133//2 135//2 139//2
f 135//2 138//2 139//2
f 138//2 137//2 139//2
f 137//2 140//2 139//2
f 139//2 140//2 141//2
f 140//2 142//2 141//2
f 141//2 142//2 143//2
f 142//2 144//2 143//2
f 143//2 144//2 145//2
f 144//2 146//2 145//2
f 146//2 147//2 145//2
f 148//2 145//2 147//2
f 102//2 101//2 149//2
f 101//2 150//2 149//2
f 149//2 150//2 151//2
f 151//2 150//2 152//2
f 150//2 153//2 152//2
f 152//2 153//2 154//2
f 154//2 153//2 155//2
f 153//2 156//2 155//2
f 155//2 156//2 157//2
f 157//2 156//2 158//2
f 156//2 159//2 158//2
f 158//2 159//2 160//2
f 159//2 161//2 160//2
f 160//2 161//2 162//2
f 161//2 163//2 162//2
f 162//2 163//2 164//2
f 163//2 165//2 164//2
f 164//2 165//2 166//2
f 165//2 167//2 166//2
f 166//2 167//2 168//2
f 167//2 169//2 168//2
f 168//2 169//2 170//2
f 170//2 169//2 171//2
f 169//2 172//2 171//2
f 171//2 172//2 173//2
f 172//2 174//2 173//2
f 173//2 174//2 175//2
f 175//2 174//2 176//2
f 174//2 177//2 176//2
f 176//2 177//2 178//2
f 178//2 177//2 179//2
f 179//2 177//2 180//2
f 177//2 137//2 180//2
f 180//2 137//2 181//2
f 136//2 181//2 137//2
f 182//2 103//2 102//2
