# SSTK version 0.8.0
# 812
mtllib original-812.mtl
o #ID4943
v -0.524159 -0.298145 0.811315
v -0.410501 -0.298145 0.811315
v -0.46733 -0.298145 0.818796
v -0.46733 -0.298145 0.807027
v -0.521113 -0.298145 0.799946
v -0.577116 -0.298145 0.789379
v -0.565447 -0.298145 0.781582
v -0.577116 -0.298145 0.725098
v -0.565447 -0.298145 0.72548
v -0.565258 -0.298145 0.722605
v -0.576852 -0.298145 0.721078
v -0.564771 -0.298145 0.720154
v -0.576067 -0.298145 0.717127
v -0.563968 -0.298145 0.717788
v -0.562863 -0.298145 0.715547
v -0.574772 -0.298145 0.713313
v -0.561475 -0.298145 0.71347
v -0.559827 -0.298145 0.711591
v -0.57299 -0.298145 0.7097
v -0.557949 -0.298145 0.709944
v -0.555871 -0.298145 0.708555
v -0.570752 -0.298145 0.706351
v -0.55363 -0.298145 0.70745
v -0.551264 -0.298145 0.706647
v -0.548813 -0.298145 0.70616
v -0.568096 -0.298145 0.703322
v -0.545938 -0.298145 0.705971
v -0.387305 -0.298145 0.705971
v -0.363615 -0.298145 0.705796
v -0.366149 -0.298145 0.702907
v -0.565067 -0.298145 0.700666
v -0.369038 -0.298145 0.700373
v -0.561718 -0.298145 0.698428
v -0.372233 -0.298145 0.698238
v -0.558105 -0.298145 0.696646
v -0.37568 -0.298145 0.696538
v -0.554291 -0.298145 0.695352
v -0.379319 -0.298145 0.695303
v -0.55034 -0.298145 0.694566
v -0.383088 -0.298145 0.694554
v -0.54632 -0.298145 0.694302
v -0.386923 -0.298145 0.694302
v -0.413547 -0.298145 0.799946
v -0.357544 -0.298145 0.789379
v -0.369213 -0.298145 0.781582
v -0.357544 -0.298145 0.72368
v -0.369213 -0.298145 0.724062
v -0.36939 -0.298145 0.721372
v -0.357796 -0.298145 0.719846
v -0.369841 -0.298145 0.719103
v -0.358545 -0.298145 0.716077
v -0.370585 -0.298145 0.716913
v -0.371608 -0.298145 0.714838
v -0.359781 -0.298145 0.712438
v -0.372893 -0.298145 0.712915
v -0.374418 -0.298145 0.711176
v -0.36148 -0.298145 0.708991
v -0.376157 -0.298145 0.709651
v -0.378081 -0.298145 0.708366
v -0.380155 -0.298145 0.707342
v -0.382346 -0.298145 0.706599
v -0.384614 -0.298145 0.706148
v -0.387305 -0.298145 0.705971
v -0.384614 -0.298145 0.706148
v -0.363615 -0.298145 0.705796
v -0.382346 -0.298145 0.706599
v -0.380155 -0.298145 0.707342
v -0.378081 -0.298145 0.708366
v -0.36148 -0.298145 0.708991
v -0.376157 -0.298145 0.709651
v -0.374418 -0.298145 0.711176
v -0.359781 -0.298145 0.712438
v -0.372893 -0.298145 0.712915
v -0.371608 -0.298145 0.714838
v -0.358545 -0.298145 0.716077
v -0.370585 -0.298145 0.716913
v -0.369841 -0.298145 0.719103
v -0.357796 -0.298145 0.719846
v -0.36939 -0.298145 0.721372
v -0.357544 -0.298145 0.72368
v -0.369213 -0.298145 0.724062
v -0.369213 -0.298145 0.781582
v -0.357544 -0.298145 0.789379
v -0.413547 -0.298145 0.799946
v -0.46733 -0.298145 0.807027
v -0.410501 -0.298145 0.811315
v -0.386923 -0.298145 0.694302
v -0.54632 -0.298145 0.694302
v -0.383088 -0.298145 0.694554
v -0.55034 -0.298145 0.694566
v -0.379319 -0.298145 0.695303
v -0.554291 -0.298145 0.695352
v -0.37568 -0.298145 0.696538
v -0.558105 -0.298145 0.696646
v -0.372233 -0.298145 0.698238
v -0.561718 -0.298145 0.698428
v -0.369038 -0.298145 0.700373
v -0.565067 -0.298145 0.700666
v -0.366149 -0.298145 0.702907
v -0.568096 -0.298145 0.703322
v -0.545938 -0.298145 0.705971
v -0.548813 -0.298145 0.70616
v -0.570752 -0.298145 0.706351
v -0.551264 -0.298145 0.706647
v -0.55363 -0.298145 0.70745
v -0.555871 -0.298145 0.708555
v -0.57299 -0.298145 0.7097
v -0.557949 -0.298145 0.709944
v -0.559827 -0.298145 0.711591
v -0.574772 -0.298145 0.713313
v -0.561475 -0.298145 0.71347
v -0.562863 -0.298145 0.715547
v -0.576067 -0.298145 0.717127
v -0.563968 -0.298145 0.717788
v -0.564771 -0.298145 0.720154
v -0.576852 -0.298145 0.721078
v -0.565258 -0.298145 0.722605
v -0.577116 -0.298145 0.725098
v -0.565447 -0.298145 0.72548
v -0.565447 -0.298145 0.781582
v -0.577116 -0.298145 0.789379
v -0.521113 -0.298145 0.799946
v -0.524159 -0.298145 0.811315
v -0.46733 -0.298145 0.818796
v -0.577116 -0.258872 0.789379
v -0.577116 -0.298145 0.725098
v -0.577116 -0.298145 0.789379
v -0.577116 -0.258872 0.725098
v -0.577116 -0.258872 0.725098
v -0.577116 -0.258872 0.789379
v -0.577116 -0.298145 0.725098
v -0.577116 -0.298145 0.789379
v -0.576852 -0.298145 0.721078
v -0.576852 -0.258872 0.721078
v -0.576852 -0.258872 0.721078
v -0.576852 -0.298145 0.721078
v -0.576067 -0.298145 0.717127
v -0.576067 -0.258872 0.717127
v -0.576067 -0.258872 0.717127
v -0.576067 -0.298145 0.717127
v -0.574772 -0.298145 0.713313
v -0.574772 -0.258872 0.713313
v -0.574772 -0.258872 0.713313
v -0.574772 -0.298145 0.713313
v -0.57299 -0.298145 0.7097
v -0.57299 -0.258872 0.7097
v -0.57299 -0.258872 0.7097
v -0.57299 -0.298145 0.7097
v -0.570752 -0.298145 0.706351
v -0.570752 -0.258872 0.706351
v -0.570752 -0.258872 0.706351
v -0.570752 -0.298145 0.706351
v -0.568096 -0.298145 0.703322
v -0.568096 -0.258872 0.703322
v -0.568096 -0.258872 0.703322
v -0.568096 -0.298145 0.703322
v -0.565067 -0.258872 0.700666
v -0.565067 -0.298145 0.700666
v -0.565067 -0.258872 0.700666
v -0.565067 -0.298145 0.700666
v -0.561718 -0.258872 0.698428
v -0.561718 -0.298145 0.698428
v -0.561718 -0.258872 0.698428
v -0.561718 -0.298145 0.698428
v -0.558105 -0.258872 0.696646
v -0.558105 -0.298145 0.696646
v -0.558105 -0.258872 0.696646
v -0.558105 -0.298145 0.696646
v -0.554291 -0.258872 0.695352
v -0.554291 -0.298145 0.695352
v -0.554291 -0.258872 0.695352
v -0.554291 -0.298145 0.695352
v -0.55034 -0.258872 0.694566
v -0.55034 -0.298145 0.694566
v -0.55034 -0.258872 0.694566
v -0.55034 -0.298145 0.694566
v -0.54632 -0.258872 0.694302
v -0.54632 -0.298145 0.694302
v -0.54632 -0.258872 0.694302
v -0.54632 -0.298145 0.694302
v -0.386923 -0.258872 0.694302
v -0.386923 -0.298145 0.694302
v -0.386923 -0.258872 0.694302
v -0.386923 -0.298145 0.694302
v -0.383088 -0.258872 0.694554
v -0.383088 -0.298145 0.694554
v -0.383088 -0.258872 0.694554
v -0.383088 -0.298145 0.694554
v -0.379319 -0.258872 0.695303
v -0.379319 -0.298145 0.695303
v -0.379319 -0.258872 0.695303
v -0.379319 -0.298145 0.695303
v -0.37568 -0.258872 0.696538
v -0.37568 -0.298145 0.696538
v -0.37568 -0.258872 0.696538
v -0.37568 -0.298145 0.696538
v -0.372233 -0.258872 0.698238
v -0.372233 -0.298145 0.698238
v -0.372233 -0.258872 0.698238
v -0.372233 -0.298145 0.698238
v -0.369038 -0.258872 0.700373
v -0.369038 -0.298145 0.700373
v -0.369038 -0.258872 0.700373
v -0.369038 -0.298145 0.700373
v -0.366149 -0.258872 0.702907
v -0.366149 -0.298145 0.702907
v -0.366149 -0.258872 0.702907
v -0.366149 -0.298145 0.702907
v -0.363615 -0.258872 0.705796
v -0.363615 -0.298145 0.705796
v -0.363615 -0.258872 0.705796
v -0.363615 -0.298145 0.705796
v -0.36148 -0.258872 0.708991
v -0.36148 -0.298145 0.708991
v -0.36148 -0.258872 0.708991
v -0.36148 -0.298145 0.708991
v -0.359781 -0.258872 0.712438
v -0.359781 -0.298145 0.712438
v -0.359781 -0.258872 0.712438
v -0.359781 -0.298145 0.712438
v -0.358545 -0.258872 0.716077
v -0.358545 -0.298145 0.716077
v -0.358545 -0.258872 0.716077
v -0.358545 -0.298145 0.716077
v -0.357796 -0.258872 0.719846
v -0.357796 -0.298145 0.719846
v -0.357796 -0.258872 0.719846
v -0.357796 -0.298145 0.719846
v -0.357544 -0.258872 0.72368
v -0.357544 -0.298145 0.72368
v -0.357544 -0.258872 0.72368
v -0.357544 -0.298145 0.72368
v -0.357544 -0.258872 0.789379
v -0.357544 -0.298145 0.789379
v -0.357544 -0.258872 0.789379
v -0.357544 -0.298145 0.789379
v -0.410501 -0.258872 0.811315
v -0.357544 -0.298145 0.789379
v -0.357544 -0.258872 0.789379
v -0.410501 -0.298145 0.811315
v -0.410501 -0.298145 0.811315
v -0.410501 -0.258872 0.811315
v -0.357544 -0.298145 0.789379
v -0.357544 -0.258872 0.789379
v -0.46733 -0.258872 0.818796
v -0.46733 -0.298145 0.818796
v -0.46733 -0.298145 0.818796
v -0.46733 -0.258872 0.818796
v -0.524159 -0.258872 0.811315
v -0.524159 -0.298145 0.811315
v -0.524159 -0.298145 0.811315
v -0.524159 -0.258872 0.811315
v -0.577116 -0.258872 0.789379
v -0.577116 -0.298145 0.789379
v -0.577116 -0.298145 0.789379
v -0.577116 -0.258872 0.789379
v -0.410501 -0.258872 0.811315
v -0.413547 -0.258872 0.799946
v -0.46733 -0.258872 0.807027
v -0.357544 -0.258872 0.789379
v -0.369213 -0.258872 0.781582
v -0.357544 -0.258872 0.72368
v -0.369213 -0.258872 0.724062
v -0.36939 -0.258872 0.721372
v -0.357796 -0.258872 0.719846
v -0.369841 -0.258872 0.719103
v -0.358545 -0.258872 0.716077
v -0.370585 -0.258872 0.716913
v -0.371608 -0.258872 0.714838
v -0.359781 -0.258872 0.712438
v -0.372893 -0.258872 0.712915
v -0.374418 -0.258872 0.711176
v -0.36148 -0.258872 0.708991
v -0.376157 -0.258872 0.709651
v -0.378081 -0.258872 0.708366
v -0.363615 -0.258872 0.705796
v -0.380155 -0.258872 0.707342
v -0.382346 -0.258872 0.706599
v -0.384614 -0.258872 0.706148
v -0.387305 -0.258872 0.705971
v -0.524159 -0.258872 0.811315
v -0.46733 -0.258872 0.818796
v -0.521113 -0.258872 0.799946
v -0.577116 -0.258872 0.789379
v -0.565447 -0.258872 0.781582
v -0.577116 -0.258872 0.725098
v -0.565447 -0.258872 0.72548
v -0.565258 -0.258872 0.722605
v -0.576852 -0.258872 0.721078
v -0.564771 -0.258872 0.720154
v -0.576067 -0.258872 0.717127
v -0.563968 -0.258872 0.717788
v -0.562863 -0.258872 0.715547
v -0.574772 -0.258872 0.713313
v -0.561475 -0.258872 0.71347
v -0.559827 -0.258872 0.711591
v -0.57299 -0.258872 0.7097
v -0.557949 -0.258872 0.709944
v -0.555871 -0.258872 0.708555
v -0.570752 -0.258872 0.706351
v -0.55363 -0.258872 0.70745
v -0.551264 -0.258872 0.706647
v -0.548813 -0.258872 0.70616
v -0.568096 -0.258872 0.703322
v -0.545938 -0.258872 0.705971
v -0.366149 -0.258872 0.702907
v -0.565067 -0.258872 0.700666
v -0.369038 -0.258872 0.700373
v -0.561718 -0.258872 0.698428
v -0.372233 -0.258872 0.698238
v -0.558105 -0.258872 0.696646
v -0.37568 -0.258872 0.696538
v -0.554291 -0.258872 0.695352
v -0.379319 -0.258872 0.695303
v -0.55034 -0.258872 0.694566
v -0.383088 -0.258872 0.694554
v -0.54632 -0.258872 0.694302
v -0.386923 -0.258872 0.694302
v -0.386923 -0.258872 0.694302
v -0.383088 -0.258872 0.694554
v -0.54632 -0.258872 0.694302
v -0.55034 -0.258872 0.694566
v -0.379319 -0.258872 0.695303
v -0.554291 -0.258872 0.695352
v -0.37568 -0.258872 0.696538
v -0.558105 -0.258872 0.696646
v -0.372233 -0.258872 0.698238
v -0.561718 -0.258872 0.698428
v -0.369038 -0.258872 0.700373
v -0.565067 -0.258872 0.700666
v -0.366149 -0.258872 0.702907
v -0.568096 -0.258872 0.703322
v -0.363615 -0.258872 0.705796
v -0.387305 -0.258872 0.705971
v -0.545938 -0.258872 0.705971
v -0.548813 -0.258872 0.70616
v -0.570752 -0.258872 0.706351
v -0.551264 -0.258872 0.706647
v -0.55363 -0.258872 0.70745
v -0.555871 -0.258872 0.708555
v -0.57299 -0.258872 0.7097
v -0.557949 -0.258872 0.709944
v -0.559827 -0.258872 0.711591
v -0.574772 -0.258872 0.713313
v -0.561475 -0.258872 0.71347
v -0.562863 -0.258872 0.715547
v -0.576067 -0.258872 0.717127
v -0.563968 -0.258872 0.717788
v -0.564771 -0.258872 0.720154
v -0.576852 -0.258872 0.721078
v -0.565258 -0.258872 0.722605
v -0.577116 -0.258872 0.725098
v -0.565447 -0.258872 0.72548
v -0.565447 -0.258872 0.781582
v -0.577116 -0.258872 0.789379
v -0.521113 -0.258872 0.799946
v -0.524159 -0.258872 0.811315
v -0.46733 -0.258872 0.807027
v -0.410501 -0.258872 0.811315
v -0.46733 -0.258872 0.818796
v -0.384614 -0.258872 0.706148
v -0.382346 -0.258872 0.706599
v -0.380155 -0.258872 0.707342
v -0.378081 -0.258872 0.708366
v -0.36148 -0.258872 0.708991
v -0.376157 -0.258872 0.709651
v -0.374418 -0.258872 0.711176
v -0.359781 -0.258872 0.712438
v -0.372893 -0.258872 0.712915
v -0.371608 -0.258872 0.714838
v -0.358545 -0.258872 0.716077
v -0.370585 -0.258872 0.716913
v -0.369841 -0.258872 0.719103
v -0.357796 -0.258872 0.719846
v -0.36939 -0.258872 0.721372
v -0.357544 -0.258872 0.72368
v -0.369213 -0.258872 0.724062
v -0.369213 -0.258872 0.781582
v -0.357544 -0.258872 0.789379
v -0.413547 -0.258872 0.799946
vn 0.0 -1.0 -1.6502297673224294e-09
vn 0.0 1.0 1.6502297673224294e-09
vn -1.0 0.0 0.0
vn -0.9994645875820491 0.0 -0.03271907959347842
vn 0.9994645875820491 0.0 0.03271907959347842
vn 1.0 0.0 0.0
vn -0.9914448610250888 0.0 -0.1305261948688555
vn 0.9914448610250888 0.0 0.1305261948688555
vn -0.9659258358036645 1.3619338472934368e-09 -0.25881900959356163
vn 0.9659258358036645 -1.3619338472934368e-09 0.25881900959356163
vn -0.9238795391929063 2.0137214161667864e-09 -0.3826834162342326
vn 0.9238795391929063 -2.0137214161667864e-09 0.3826834162342326
vn -0.8660254028383291 2.631055355141431e-09 -0.5000000016387101
vn 0.8660254028383291 -2.631055355141431e-09 0.5000000016387101
vn -0.7933533393698232 3.2033694813809963e-09 -0.608761430209528
vn 0.7933533393698232 -3.2033694813809963e-09 0.608761430209528
vn -0.7071067811865475 3.720873787363371e-09 -0.7071067811865475
vn 0.7071067811865475 -3.720873787363371e-09 0.7071067811865475
vn -0.608761430209528 4.174712024570708e-09 -0.7933533393698232
vn 0.608761430209528 -4.174712024570708e-09 0.7933533393698232
vn -0.5000000016387101 4.5571205619984254e-09 -0.8660254028383291
vn 0.5000000016387101 -4.5571205619984254e-09 0.8660254028383291
vn -0.3826834162342326 4.861555581011219e-09 -0.9238795391929063
vn 0.3826834162342326 -4.861555581011219e-09 0.9238795391929063
vn -0.2588190095935616 5.082809300147198e-09 -0.9659258358036644
vn 0.2588190095935616 -5.082809300147198e-09 0.9659258358036644
vn -0.1305261948688555 5.2170922337842905e-09 -0.9914448610250888
vn 0.1305261948688555 -5.2170922337842905e-09 0.9914448610250888
vn -0.03271907959347842 5.259292745702752e-09 -0.9994645875820491
vn 0.03271907959347842 -5.259292745702752e-09 0.9994645875820491
vn 0.03271907959347842 5.259292745702752e-09 -0.9994645875820491
vn -0.03271907959347842 -5.259292745702752e-09 0.9994645875820491
vn 0.1305261948688555 5.2170922337842905e-09 -0.9914448610250888
vn -0.1305261948688555 -5.2170922337842905e-09 0.9914448610250888
vn 0.2588190095935616 5.082809300147198e-09 -0.9659258358036644
vn -0.2588190095935616 -5.082809300147198e-09 0.9659258358036644
vn 0.3826834162342326 4.861557366725581e-09 -0.9238795391929063
vn -0.3826834162342326 -4.861557366725581e-09 0.9238795391929063
vn 0.5000000016387101 4.557122347712717e-09 -0.8660254028383291
vn -0.5000000016387101 -4.557122347712717e-09 0.8660254028383291
vn 0.608761430209528 4.1747138102850834e-09 -0.7933533393698232
vn -0.608761430209528 -4.1747138102850834e-09 0.7933533393698232
vn 0.7071067811865475 3.720873787363371e-09 -0.7071067811865475
vn -0.7071067811865475 -3.720873787363371e-09 0.7071067811865475
vn 0.7933533393698232 3.20337126709537e-09 -0.608761430209528
vn -0.7933533393698232 -3.20337126709537e-09 0.608761430209528
vn 0.8660254028383291 2.631055355141431e-09 -0.5000000016387101
vn -0.8660254028383291 -2.631055355141431e-09 0.5000000016387101
vn 0.9238795391929063 2.013723201881148e-09 -0.3826834162342326
vn -0.9238795391929063 -2.013723201881148e-09 0.3826834162342326
vn 0.9659258358036645 1.3619352758649183e-09 -0.25881900959356163
vn -0.9659258358036645 -1.3619352758649183e-09 0.25881900959356163
vn 0.9914448610250888 0.0 -0.1305261948688555
vn -0.9914448610250888 0.0 0.1305261948688555
vn 0.9994645875820491 0.0 -0.03271907959347842
vn -0.9994645875820491 0.0 0.03271907959347842
vn 0.0 -5.262110693036714e-09 1.0
vn 0.0 5.262110693036714e-09 -1.0
usemtl material_0_0
f 1//1 2//1 3//1
f 2//1 1//1 4//1
f 4//1 1//1 5//1
f 5//1 1//1 6//1
f 5//1 6//1 7//1
f 7//1 6//1 8//1
f 7//1 8//1 9//1
f 9//1 8//1 10//1
f 10//1 8//1 11//1
f 10//1 11//1 12//1
f 12//1 11//1 13//1
f 12//1 13//1 14//1
f 14//1 13//1 15//1
f 15//1 13//1 16//1
f 15//1 16//1 17//1
f 17//1 16//1 18//1
f 18//1 16//1 19//1
f 18//1 19//1 20//1
f 20//1 19//1 21//1
f 21//1 19//1 22//1
f 21//1 22//1 23//1
f 23//1 22//1 24//1
f 24//1 22//1 25//1
f 25//1 22//1 26//1
f 25//1 26//1 27//1
f 27//1 26//1 28//1
f 28//1 26//1 29//1
f 29//1 26//1 30//1
f 30//1 26//1 31//1
f 30//1 31//1 32//1
f 32//1 31//1 33//1
f 32//1 33//1 34//1
f 34//1 33//1 35//1
f 34//1 35//1 36//1
f 36//1 35//1 37//1
f 36//1 37//1 38//1
f 38//1 37//1 39//1
f 38//1 39//1 40//1
f 40//1 39//1 41//1
f 40//1 41//1 42//1
f 2//1 43//1 44//1
f 43//1 2//1 4//1
f 44//1 43//1 45//1
f 44//1 45//1 46//1
f 46//1 45//1 47//1
f 46//1 47//1 48//1
f 46//1 48//1 49//1
f 49//1 48//1 50//1
f 49//1 50//1 51//1
f 51//1 50//1 52//1
f 51//1 52//1 53//1
f 51//1 53//1 54//1
f 54//1 53//1 55//1
f 54//1 55//1 56//1
f 54//1 56//1 57//1
f 57//1 56//1 58//1
f 57//1 58//1 59//1
f 57//1 59//1 29//1
f 29//1 59//1 60//1
f 29//1 60//1 61//1
f 29//1 61//1 62//1
f 29//1 62//1 28//1
f 63//2 64//2 65//2
f 64//2 66//2 65//2
f 66//2 67//2 65//2
f 67//2 68//2 65//2
f 65//2 68//2 69//2
f 68//2 70//2 69//2
f 70//2 71//2 69//2
f 69//2 71//2 72//2
f 71//2 73//2 72//2
f 73//2 74//2 72//2
f 72//2 74//2 75//2
f 74//2 76//2 75//2
f 76//2 77//2 75//2
f 75//2 77//2 78//2
f 77//2 79//2 78//2
f 78//2 79//2 80//2
f 79//2 81//2 80//2
f 81//2 82//2 80//2
f 80//2 82//2 83//2
f 82//2 84//2 83//2
f 85//2 86//2 84//2
f 83//2 84//2 86//2
f 87//2 88//2 89//2
f 88//2 90//2 89//2
f 89//2 90//2 91//2
f 90//2 92//2 91//2
f 91//2 92//2 93//2
f 92//2 94//2 93//2
f 93//2 94//2 95//2
f 94//2 96//2 95//2
f 95//2 96//2 97//2
f 96//2 98//2 97//2
f 97//2 98//2 99//2
f 98//2 100//2 99//2
f 99//2 100//2 65//2
f 65//2 100//2 63//2
f 63//2 100//2 101//2
f 101//2 100//2 102//2
f 100//2 103//2 102//2
f 102//2 103//2 104//2
f 104//2 103//2 105//2
f 105//2 103//2 106//2
f 103//2 107//2 106//2
f 106//2 107//2 108//2
f 108//2 107//2 109//2
f 107//2 110//2 109//2
f 109//2 110//2 111//2
f 111//2 110//2 112//2
f 110//2 113//2 112//2
f 112//2 113//2 114//2
f 114//2 113//2 115//2
f 113//2 116//2 115//2
f 115//2 116//2 117//2
f 116//2 118//2 117//2
f 117//2 118//2 119//2
f 119//2 118//2 120//2
f 118//2 121//2 120//2
f 120//2 121//2 122//2
f 121//2 123//2 122//2
f 122//2 123//2 85//2
f 85//2 123//2 86//2
f 124//2 86//2 123//2
f 125//3 126//4 127//3
f 126//4 125//3 128//4
f 129//5 130//6 131//5
f 132//6 131//5 130//6
f 128//4 133//7 126//4
f 133//7 128//4 134//7
f 135//8 129//5 136//8
f 131//5 136//8 129//5
f 134//7 137//9 133//7
f 137//9 134//7 138//9
f 139//10 135//8 140//10
f 136//8 140//10 135//8
f 138//9 141//11 137//9
f 141//11 138//9 142//11
f 143//12 139//10 144//12
f 140//10 144//12 139//10
f 142//11 145//13 141//11
f 145//13 142//11 146//13
f 147//14 143//12 148//14
f 144//12 148//14 143//12
f 146//13 149//15 145//13
f 149//15 146//13 150//15
f 151//16 147//14 152//16
f 148//14 152//16 147//14
f 150//15 153//17 149//15
f 153//17 150//15 154//17
f 155//18 151//16 156//18
f 152//16 156//18 151//16
f 153//17 157//19 158//19
f 157//19 153//17 154//17
f 155//18 156//18 159//20
f 160//20 159//20 156//18
f 158//19 161//21 162//21
f 161//21 158//19 157//19
f 159//20 160//20 163//22
f 164//22 163//22 160//20
f 162//21 165//23 166//23
f 165//23 162//21 161//21
f 163//22 164//22 167//24
f 168//24 167//24 164//22
f 166//23 169//25 170//25
f 169//25 166//23 165//23
f 167//24 168//24 171//26
f 172//26 171//26 168//24
f 170//25 173//27 174//27
f 173//27 170//25 169//25
f 171//26 172//26 175//28
f 176//28 175//28 172//26
f 174//27 177//29 178//29
f 177//29 174//27 173//27
f 175//28 176//28 179//30
f 180//30 179//30 176//28
f 178//29 181//31 182//31
f 181//31 178//29 177//29
f 179//30 180//30 183//32
f 184//32 183//32 180//30
f 182//31 185//33 186//33
f 185//33 182//31 181//31
f 183//32 184//32 187//34
f 188//34 187//34 184//32
f 186//33 189//35 190//35
f 189//35 186//33 185//33
f 187//34 188//34 191//36
f 192//36 191//36 188//34
f 190//35 193//37 194//37
f 193//37 190//35 189//35
f 191//36 192//36 195//38
f 196//38 195//38 192//36
f 194//37 197//39 198//39
f 197//39 194//37 193//37
f 195//38 196//38 199//40
f 200//40 199//40 196//38
f 198//39 201//41 202//41
f 201//41 198//39 197//39
f 199//40 200//40 203//42
f 204//42 203//42 200//40
f 202//41 205//43 206//43
f 205//43 202//41 201//41
f 203//42 204//42 207//44
f 208//44 207//44 204//42
f 206//43 209//45 210//45
f 209//45 206//43 205//43
f 207//44 208//44 211//46
f 212//46 211//46 208//44
f 210//45 213//47 214//47
f 213//47 210//45 209//45
f 211//46 212//46 215//48
f 216//48 215//48 212//46
f 214//47 217//49 218//49
f 217//49 214//47 213//47
f 215//48 216//48 219//50
f 220//50 219//50 216//48
f 218//49 221//51 222//51
f 221//51 218//49 217//49
f 219//50 220//50 223//52
f 224//52 223//52 220//50
f 222//51 225//53 226//53
f 225//53 222//51 221//51
f 223//52 224//52 227//54
f 228//54 227//54 224//52
f 226//53 229//55 230//55
f 229//55 226//53 225//53
f 227//54 228//54 231//56
f 232//56 231//56 228//54
f 230//55 233//6 234//6
f 233//6 230//55 229//55
f 231//56 232//56 235//3
f 236//3 235//3 232//56
f 237//26 238//24 239//24
f 238//24 237//26 240//26
f 241//25 242//25 243//23
f 244//23 243//23 242//25
f 245//57 240//26 237//26
f 240//26 245//57 246//57
f 247//58 248//58 241//25
f 242//25 241//25 248//58
f 249//36 246//57 245//57
f 246//57 249//36 250//36
f 251//35 252//35 247//58
f 248//58 247//58 252//35
f 253//38 250//36 249//36
f 250//36 253//38 254//38
f 255//37 256//37 251//35
f 252//35 251//35 256//37
f 257//2 258//2 259//2
f 258//2 257//2 260//2
f 258//2 260//2 261//2
f 261//2 260//2 262//2
f 261//2 262//2 263//2
f 263//2 262//2 264//2
f 264//2 262//2 265//2
f 264//2 265//2 266//2
f 266//2 265//2 267//2
f 266//2 267//2 268//2
f 268//2 267//2 269//2
f 269//2 267//2 270//2
f 269//2 270//2 271//2
f 271//2 270//2 272//2
f 272//2 270//2 273//2
f 272//2 273//2 274//2
f 274//2 273//2 275//2
f 275//2 273//2 276//2
f 275//2 276//2 277//2
f 277//2 276//2 278//2
f 278//2 276//2 279//2
f 279//2 276//2 280//2
f 257//2 281//2 282//2
f 281//2 257//2 259//2
f 281//2 259//2 283//2
f 281//2 283//2 284//2
f 284//2 283//2 285//2
f 284//2 285//2 286//2
f 286//2 285//2 287//2
f 286//2 287//2 288//2
f 286//2 288//2 289//2
f 289//2 288//2 290//2
f 289//2 290//2 291//2
f 291//2 290//2 292//2
f 291//2 292//2 293//2
f 291//2 293//2 294//2
f 294//2 293//2 295//2
f 294//2 295//2 296//2
f 294//2 296//2 297//2
f 297//2 296//2 298//2
f 297//2 298//2 299//2
f 297//2 299//2 300//2
f 300//2 299//2 301//2
f 300//2 301//2 302//2
f 300//2 302//2 303//2
f 300//2 303//2 304//2
f 304//2 303//2 305//2
f 304//2 305//2 280//2
f 304//2 280//2 276//2
f 304//2 276//2 306//2
f 304//2 306//2 307//2
f 307//2 306//2 308//2
f 307//2 308//2 309//2
f 309//2 308//2 310//2
f 309//2 310//2 311//2
f 311//2 310//2 312//2
f 311//2 312//2 313//2
f 313//2 312//2 314//2
f 313//2 314//2 315//2
f 315//2 314//2 316//2
f 315//2 316//2 317//2
f 317//2 316//2 318//2
f 319//1 320//1 321//1
f 321//1 320//1 322//1
f 320//1 323//1 322//1
f 322//1 323//1 324//1
f 323//1 325//1 324//1
f 324//1 325//1 326//1
f 325//1 327//1 326//1
f 326//1 327//1 328//1
f 327//1 329//1 328//1
f 328//1 329//1 330//1
f 329//1 331//1 330//1
f 330//1 331//1 332//1
f 331//1 333//1 332//1
f 333//1 334//1 332//1
f 334//1 335//1 332//1
f 335//1 336//1 332//1
f 332//1 336//1 337//1
f 336//1 338//1 337//1
f 338//1 339//1 337//1
f 339//1 340//1 337//1
f 337//1 340//1 341//1
f 340//1 342//1 341//1
f 342//1 343//1 341//1
f 341//1 343//1 344//1
f 343//1 345//1 344//1
f 345//1 346//1 344//1
f 344//1 346//1 347//1
f 346//1 348//1 347//1
f 348//1 349//1 347//1
f 347//1 349//1 350//1
f 349//1 351//1 350//1
f 350//1 351//1 352//1
f 351//1 353//1 352//1
f 353//1 354//1 352//1
f 352//1 354//1 355//1
f 354//1 356//1 355//1
f 355//1 356//1 357//1
f 356//1 358//1 357//1
f 358//1 359//1 357//1
f 360//1 357//1 359//1
f 334//1 333//1 361//1
f 361//1 333//1 362//1
f 362//1 333//1 363//1
f 363//1 333//1 364//1
f 333//1 365//1 364//1
f 364//1 365//1 366//1
f 366//1 365//1 367//1
f 365//1 368//1 367//1
f 367//1 368//1 369//1
f 369//1 368//1 370//1
f 368//1 371//1 370//1
f 370//1 371//1 372//1
f 372//1 371//1 373//1
f 371//1 374//1 373//1
f 373//1 374//1 375//1
f 374//1 376//1 375//1
f 375//1 376//1 377//1
f 377//1 376//1 378//1
f 376//1 379//1 378//1
f 378//1 379//1 380//1
f 379//1 359//1 380//1
f 358//1 380//1 359//1
