# SSTK version 0.8.0
# 235
mtllib original-235.mtl
o #ID1493
v -0.219455 -0.145977 -0.46651
v -0.216369 -0.168708 -0.46651
v -0.219455 -0.168708 -0.46651
v -0.216571 -0.163823 -0.46651
v -0.216571 -0.145977 -0.46651
v -0.20443 -0.150845 -0.46651
v -0.204631 -0.145977 -0.46651
v -0.201546 -0.168708 -0.46651
v -0.20443 -0.168708 -0.46651
v -0.201546 -0.145977 -0.46651
v -0.204631 -0.145977 -0.46651
v -0.20443 -0.150845 -0.46651
v -0.201546 -0.145977 -0.46651
v -0.201546 -0.168708 -0.46651
v -0.20443 -0.168708 -0.46651
v -0.216571 -0.163823 -0.46651
v -0.216369 -0.168708 -0.46651
v -0.216571 -0.145977 -0.46651
v -0.219455 -0.145977 -0.46651
v -0.219455 -0.168708 -0.46651
vn -1.257446e-09 -1.2293392220446048e-09 -1.0
vn 1.257446e-09 1.2293392220446048e-09 1.0
usemtl material_0_0
f 1//1 2//1 3//1
f 2//1 1//1 4//1
f 4//1 1//1 5//1
f 4//1 6//1 2//1
f 6//1 4//1 7//1
f 6//1 8//1 9//1
f 8//1 6//1 10//1
f 10//1 6//1 7//1
usemtl material_1_0
f 11//2 12//2 13//2
f 13//2 12//2 14//2
f 15//2 14//2 12//2
f 11//2 16//2 12//2
f 17//2 12//2 16//2
f 18//2 19//2 16//2
f 16//2 19//2 17//2
f 20//2 17//2 19//2
