# SSTK version 0.8.0
# 332
mtllib original-332.mtl
o #ID1853
v 0.020138 -0.313755 -0.366589
v 0.022252 -0.313466 -0.363834
v 0.020138 -0.313466 -0.366589
v 0.022252 -0.313755 -0.363834
v 0.022252 -0.313755 -0.363834
v 0.020138 -0.313755 -0.366589
v 0.022252 -0.313466 -0.363834
v 0.020138 -0.313466 -0.366589
v 0.018809 -0.313755 -0.369797
v 0.018809 -0.313466 -0.369797
v 0.018809 -0.313755 -0.369797
v 0.018809 -0.313466 -0.369797
v 0.031659 -0.313755 -0.386543
v 0.028389 -0.313755 -0.379131
v 0.028216 -0.313755 -0.386089
v 0.031545 -0.313755 -0.379977
v 0.032814 -0.313755 -0.375241
v 0.035102 -0.313755 -0.386089
v 0.03755 -0.313755 -0.37651
v 0.03831 -0.313755 -0.384761
v 0.03839 -0.313755 -0.373383
v 0.041065 -0.313755 -0.382646
v 0.034901 -0.313755 -0.367339
v 0.033623 -0.313755 -0.372106
v 0.035102 -0.313755 -0.360391
v 0.03831 -0.313755 -0.361719
v 0.041065 -0.313755 -0.363834
v 0.043179 -0.313755 -0.379891
v 0.043179 -0.313755 -0.366589
v 0.044508 -0.313755 -0.376683
v 0.044508 -0.313755 -0.369797
v 0.044961 -0.313755 -0.37324
v 0.024922 -0.313755 -0.373126
v 0.025007 -0.313755 -0.361719
v 0.022252 -0.313755 -0.363834
v 0.025767 -0.313755 -0.36997
v 0.028216 -0.313755 -0.360391
v 0.030504 -0.313755 -0.371239
v 0.031659 -0.313755 -0.359937
v 0.031772 -0.313755 -0.366503
v 0.018809 -0.313755 -0.376683
v 0.018809 -0.313755 -0.369797
v 0.018356 -0.313755 -0.37324
v 0.020138 -0.313755 -0.379891
v 0.020138 -0.313755 -0.366589
v 0.022252 -0.313755 -0.382646
v 0.025007 -0.313755 -0.384761
v 0.029658 -0.313755 -0.374395
v 0.028216 -0.313755 -0.386089
v 0.025007 -0.313755 -0.384761
v 0.028389 -0.313755 -0.379131
v 0.029658 -0.313755 -0.374395
v 0.024922 -0.313755 -0.373126
v 0.022252 -0.313755 -0.363834
v 0.022252 -0.313755 -0.382646
v 0.020138 -0.313755 -0.366589
v 0.020138 -0.313755 -0.379891
v 0.018809 -0.313755 -0.369797
v 0.018809 -0.313755 -0.376683
v 0.018356 -0.313755 -0.37324
v 0.034901 -0.313755 -0.367339
v 0.031772 -0.313755 -0.366503
v 0.035102 -0.313755 -0.360391
v 0.031659 -0.313755 -0.359937
v 0.030504 -0.313755 -0.371239
v 0.028216 -0.313755 -0.360391
v 0.025767 -0.313755 -0.36997
v 0.025007 -0.313755 -0.361719
v 0.044961 -0.313755 -0.37324
v 0.044508 -0.313755 -0.376683
v 0.044508 -0.313755 -0.369797
v 0.043179 -0.313755 -0.366589
v 0.043179 -0.313755 -0.379891
v 0.041065 -0.313755 -0.363834
v 0.041065 -0.313755 -0.382646
v 0.03839 -0.313755 -0.373383
v 0.03831 -0.313755 -0.361719
v 0.033623 -0.313755 -0.372106
v 0.03831 -0.313755 -0.384761
v 0.03755 -0.313755 -0.37651
v 0.035102 -0.313755 -0.386089
v 0.032814 -0.313755 -0.375241
v 0.031659 -0.313755 -0.386543
v 0.031545 -0.313755 -0.379977
v 0.025007 -0.313755 -0.361719
v 0.025007 -0.313466 -0.361719
v 0.025007 -0.313755 -0.361719
v 0.025007 -0.313466 -0.361719
v 0.018356 -0.313755 -0.37324
v 0.018356 -0.313466 -0.37324
v 0.018356 -0.313755 -0.37324
v 0.018356 -0.313466 -0.37324
v 0.018809 -0.313755 -0.376683
v 0.018809 -0.313466 -0.376683
v 0.018809 -0.313755 -0.376683
v 0.018809 -0.313466 -0.376683
v 0.020138 -0.313755 -0.379891
v 0.020138 -0.313466 -0.379891
v 0.020138 -0.313755 -0.379891
v 0.020138 -0.313466 -0.379891
v 0.022252 -0.313755 -0.382646
v 0.022252 -0.313466 -0.382646
v 0.022252 -0.313755 -0.382646
v 0.022252 -0.313466 -0.382646
v 0.025007 -0.313466 -0.384761
v 0.025007 -0.313755 -0.384761
v 0.025007 -0.313755 -0.384761
v 0.025007 -0.313466 -0.384761
v 0.028216 -0.313755 -0.386089
v 0.028216 -0.313466 -0.386089
v 0.028216 -0.313755 -0.386089
v 0.028216 -0.313466 -0.386089
v 0.031659 -0.313466 -0.386543
v 0.031659 -0.313755 -0.386543
v 0.031659 -0.313755 -0.386543
v 0.031659 -0.313466 -0.386543
v 0.035102 -0.313466 -0.386089
v 0.035102 -0.313755 -0.386089
v 0.035102 -0.313755 -0.386089
v 0.035102 -0.313466 -0.386089
v 0.03831 -0.313755 -0.384761
v 0.03831 -0.313466 -0.384761
v 0.03831 -0.313755 -0.384761
v 0.03831 -0.313466 -0.384761
v 0.041065 -0.313755 -0.382646
v 0.041065 -0.313466 -0.382646
v 0.041065 -0.313755 -0.382646
v 0.041065 -0.313466 -0.382646
v 0.043179 -0.313466 -0.379891
v 0.043179 -0.313755 -0.379891
v 0.043179 -0.313755 -0.379891
v 0.043179 -0.313466 -0.379891
v 0.044508 -0.313466 -0.376683
v 0.044508 -0.313755 -0.376683
v 0.044508 -0.313755 -0.376683
v 0.044508 -0.313466 -0.376683
v 0.044961 -0.313466 -0.37324
v 0.044961 -0.313755 -0.37324
v 0.044961 -0.313755 -0.37324
v 0.044961 -0.313466 -0.37324
v 0.044508 -0.313466 -0.369797
v 0.044508 -0.313755 -0.369797
v 0.044508 -0.313755 -0.369797
v 0.044508 -0.313466 -0.369797
v 0.043179 -0.313466 -0.366589
v 0.043179 -0.313755 -0.366589
v 0.043179 -0.313755 -0.366589
v 0.043179 -0.313466 -0.366589
v 0.041065 -0.313466 -0.363834
v 0.041065 -0.313755 -0.363834
v 0.041065 -0.313755 -0.363834
v 0.041065 -0.313466 -0.363834
v 0.03831 -0.313755 -0.361719
v 0.03831 -0.313466 -0.361719
v 0.03831 -0.313755 -0.361719
v 0.03831 -0.313466 -0.361719
v 0.035102 -0.313466 -0.360391
v 0.035102 -0.313755 -0.360391
v 0.035102 -0.313755 -0.360391
v 0.035102 -0.313466 -0.360391
v 0.031659 -0.313755 -0.359937
v 0.031659 -0.313466 -0.359937
v 0.031659 -0.313755 -0.359937
v 0.031659 -0.313466 -0.359937
v 0.028216 -0.313755 -0.360391
v 0.028216 -0.313466 -0.360391
v 0.028216 -0.313755 -0.360391
v 0.028216 -0.313466 -0.360391
vt 0.707947 0.7629749
vt 0.706453 0.7606222
vt 0.7055138 0.7578824
vt 0.7121615 0.7439696
vt 0.7098941 0.7451045
vt 0.7122838 0.7499115
vt 0.7131807 0.7539559
vt 0.7098336 0.7550395
vt 0.707947 0.7469097
vt 0.706453 0.7492624
vt 0.7055138 0.7520022
vt 0.7051935 0.7549423
vt 0.7168859 0.7599813
vt 0.7146751 0.7606952
vt 0.7170279 0.765915
vt 0.7145947 0.7663021
vt 0.7137783 0.7566509
vt 0.7121615 0.765915
vt 0.7104313 0.7577346
vt 0.7098941 0.7647802
vt 0.7239959 0.7549423
vt 0.7236755 0.7520022
vt 0.7236755 0.7578824
vt 0.7227364 0.7606222
vt 0.7227364 0.7492624
vt 0.7212423 0.7629749
vt 0.7212423 0.7469097
vt 0.7193517 0.7548204
vt 0.7192953 0.7647802
vt 0.7159833 0.7559111
vt 0.7192953 0.7451045
vt 0.7187581 0.7521501
vt 0.7170279 0.7439696
vt 0.7154111 0.7532337
vt 0.7145947 0.7435825
vt 0.7145142 0.7491894
vn -0.8660254028383291 0.0 0.5000000016387101
vn -0.7071067811865475 0.0 0.7071067811865475
vn -0.9659258358036645 0.0 0.25881900959356163
vn 0.0 -1.0 0.0
vn -0.5000000016387101 0.0 0.8660254028383291
vn -1.0 0.0 0.0
vn -0.9659258358036645 0.0 -0.25881900959356163
vn -0.8660254028383291 0.0 -0.5000000016387101
vn -0.7071067811865475 0.0 -0.7071067811865475
vn -0.5000000016387101 0.0 -0.8660254028383291
vn -0.25881900959356163 0.0 -0.9659258358036645
vn 0.0 0.0 -1.0
vn 0.25881900959356163 0.0 -0.9659258358036645
vn 0.5000000016387101 0.0 -0.8660254028383291
vn 0.7071067811865475 0.0 -0.7071067811865475
vn 0.8660254028383291 0.0 -0.5000000016387101
vn 0.9659258358036645 0.0 -0.25881900959356163
vn 1.0 0.0 0.0
vn 0.9659258358036645 0.0 0.25881900959356163
vn 0.8660254028383291 0.0 0.5000000016387101
vn 0.7071067811865475 0.0 0.7071067811865475
vn 0.5000000016387101 0.0 0.8660254028383291
vn 0.25881900959356163 0.0 0.9659258358036645
vn 0.0 0.0 1.0
vn -0.25881900959356163 0.0 0.9659258358036645
vn 0.0 1.0 0.0
usemtl material_0_0
f 5/1/15 6/2/16 7/1/15
f 8/2/16 7/1/15 6/2/16
f 6/2/16 11/3/17 8/2/16
f 12/3/17 8/2/16 11/3/17
f 49/4/26 50/5/26 51/6/26
f 51/6/26 50/5/26 52/7/26
f 52/7/26 50/5/26 53/8/26
f 53/8/26 50/5/26 54/1/26
f 50/5/26 55/9/26 54/1/26
f 54/1/26 55/9/26 56/2/26
f 55/9/26 57/10/26 56/2/26
f 56/2/26 57/10/26 58/3/26
f 57/10/26 59/11/26 58/3/26
f 60/12/26 58/3/26 59/11/26
f 61/13/26 62/14/26 63/15/26
f 63/15/26 62/14/26 64/16/26
f 62/14/26 65/17/26 64/16/26
f 64/16/26 65/17/26 66/18/26
f 65/17/26 67/19/26 66/18/26
f 66/18/26 67/19/26 68/20/26
f 67/19/26 53/8/26 68/20/26
f 54/1/26 68/20/26 53/8/26
f 69/21/26 70/22/26 71/23/26
f 71/23/26 70/22/26 72/24/26
f 70/22/26 73/25/26 72/24/26
f 72/24/26 73/25/26 74/26/26
f 73/25/26 75/27/26 74/26/26
f 75/27/26 76/28/26 74/26/26
f 74/26/26 76/28/26 77/29/26
f 77/29/26 76/28/26 63/15/26
f 63/15/26 76/28/26 61/13/26
f 78/30/26 61/13/26 76/28/26
f 75/27/26 79/31/26 76/28/26
f 76/28/26 79/31/26 80/32/26
f 79/31/26 81/33/26 80/32/26
f 80/32/26 81/33/26 82/34/26
f 81/33/26 83/35/26 82/34/26
f 82/34/26 83/35/26 84/36/26
f 84/36/26 83/35/26 51/6/26
f 49/4/26 51/6/26 83/35/26
f 5/1/15 7/1/15 87/20/14
f 88/20/14 87/20/14 7/1/15
f 11/3/17 91/12/18 12/3/17
f 92/12/18 12/3/17 91/12/18
f 91/12/18 95/11/19 92/12/18
f 96/11/19 92/12/18 95/11/19
f 95/11/19 99/10/20 96/11/19
f 100/10/20 96/11/19 99/10/20
f 99/10/20 103/9/21 100/10/20
f 104/9/21 100/10/20 103/9/21
f 107/5/22 108/5/22 103/9/21
f 104/9/21 103/9/21 108/5/22
f 107/5/22 111/4/23 108/5/22
f 112/4/23 108/5/22 111/4/23
f 115/35/24 116/35/24 111/4/23
f 112/4/23 111/4/23 116/35/24
f 119/33/25 120/33/25 115/35/24
f 116/35/24 115/35/24 120/33/25
f 119/33/25 123/31/5 120/33/25
f 124/31/5 120/33/25 123/31/5
f 123/31/5 127/27/2 124/31/5
f 128/27/2 124/31/5 127/27/2
f 131/25/1 132/25/1 127/27/2
f 128/27/2 127/27/2 132/25/1
f 135/22/3 136/22/3 131/25/1
f 132/25/1 131/25/1 136/22/3
f 139/21/6 140/21/6 135/22/3
f 136/22/3 135/22/3 140/21/6
f 143/23/7 144/23/7 139/21/6
f 140/21/6 139/21/6 144/23/7
f 147/24/8 148/24/8 143/23/7
f 144/23/7 143/23/7 148/24/8
f 151/26/9 152/26/9 147/24/8
f 148/24/8 147/24/8 152/26/9
f 151/26/9 155/29/10 152/26/9
f 156/29/10 152/26/9 155/29/10
f 159/15/11 160/15/11 155/29/10
f 156/29/10 155/29/10 160/15/11
f 159/15/11 163/16/12 160/15/11
f 164/16/12 160/15/11 163/16/12
f 163/16/12 167/18/13 164/16/12
f 168/18/13 164/16/12 167/18/13
f 167/18/13 87/20/14 168/18/13
f 88/20/14 168/18/13 87/20/14
usemtl material_1_0
f 1//1 2//2 3//1
f 2//2 1//1 4//2
f 9//3 3//1 10//3
f 3//1 9//3 1//1
f 13//4 14//4 15//4
f 14//4 13//4 16//4
f 16//4 13//4 17//4
f 17//4 13//4 18//4
f 17//4 18//4 19//4
f 19//4 18//4 20//4
f 19//4 20//4 21//4
f 21//4 20//4 22//4
f 21//4 23//4 24//4
f 23//4 21//4 25//4
f 25//4 21//4 26//4
f 26//4 21//4 27//4
f 27//4 21//4 22//4
f 27//4 22//4 28//4
f 27//4 28//4 29//4
f 29//4 28//4 30//4
f 29//4 30//4 31//4
f 31//4 30//4 32//4
f 33//4 34//4 35//4
f 34//4 33//4 36//4
f 34//4 36//4 37//4
f 37//4 36//4 38//4
f 37//4 38//4 39//4
f 39//4 38//4 40//4
f 39//4 40//4 25//4
f 25//4 40//4 23//4
f 41//4 42//4 43//4
f 42//4 41//4 44//4
f 42//4 44//4 45//4
f 45//4 44//4 46//4
f 45//4 46//4 35//4
f 35//4 46//4 47//4
f 35//4 47//4 33//4
f 33//4 47//4 48//4
f 48//4 47//4 14//4
f 14//4 47//4 15//4
f 2//2 85//5 86//5
f 85//5 2//2 4//2
f 89//6 10//3 90//6
f 10//3 89//6 9//3
f 93//7 90//6 94//7
f 90//6 93//7 89//6
f 97//8 94//7 98//8
f 94//7 97//8 93//7
f 101//9 98//8 102//9
f 98//8 101//9 97//8
f 105//10 101//9 102//9
f 101//9 105//10 106//10
f 109//11 105//10 110//11
f 105//10 109//11 106//10
f 113//12 109//11 110//11
f 109//11 113//12 114//12
f 117//13 114//12 113//12
f 114//12 117//13 118//13
f 121//14 117//13 122//14
f 117//13 121//14 118//13
f 125//15 122//14 126//15
f 122//14 125//15 121//14
f 129//16 125//15 126//15
f 125//15 129//16 130//16
f 133//17 130//16 129//16
f 130//16 133//17 134//17
f 137//18 134//17 133//17
f 134//17 137//18 138//18
f 141//19 138//18 137//18
f 138//18 141//19 142//19
f 145//20 142//19 141//19
f 142//19 145//20 146//20
f 149//21 146//20 145//20
f 146//20 149//21 150//21
f 153//22 149//21 154//22
f 149//21 153//22 150//21
f 157//23 153//22 154//22
f 153//22 157//23 158//23
f 161//24 157//23 162//24
f 157//23 161//24 158//23
f 165//25 162//24 166//25
f 162//24 165//25 161//24
f 85//5 166//25 86//5
f 166//25 85//5 165//25
