# SSTK version 0.8.0
# 505
mtllib original-505.mtl
o #ID3350
v 0.330575 0.230966 -0.448981
v 0.333158 0.239885 -0.446804
v 0.333158 0.230924 -0.448932
v 0.330575 0.240132 -0.446804
v 0.330575 0.23091 -0.449003
v 0.333158 0.230801 -0.44898
v 0.330575 0.230853 -0.449021
v 0.333158 0.230675 -0.449021
vn 0.022779048993443702 0.2973673868599861 -0.954491357823117
vn 0.021182650215348733 0.22219590225890531 -0.9747719099098031
vn 0.022783579819890938 0.29779349764587865 -0.9543583924555934
vn 0.021132770142270323 0.22167270149234777 -0.9748921065631819
vn 0.02239820985432816 0.3367839978096485 -0.941315493877941
vn 0.0223730296395612 0.33614439458457396 -0.9415446848313241
vn 0.017226349813355843 0.24986479729276312 -0.9681274895105263
vn 0.017044230683230844 0.24722320991012864 -0.968808638835425
usemtl material_0_0
f 1//1 2//2 3//3
f 2//2 1//1 4//4
f 5//5 3//3 6//6
f 3//3 5//5 1//1
f 7//7 6//6 8//8
f 6//6 7//7 5//5
