# SSTK version 0.8.0
# 672
mtllib original-672.mtl
o #ID4110
v 0.182955 0.157195 0.549814
v 0.181901 0.149734 0.549814
v 0.181675 0.155212 0.549814
v 0.182113 0.150807 0.549814
v 0.182553 0.151804 0.549814
v 0.18301 0.152469 0.549814
v 0.184264 0.158762 0.549814
v 0.183536 0.153001 0.549814
v 0.183937 0.154868 0.549814
v 0.185238 0.156794 0.549814
v 0.185603 0.159913 0.549814
v 0.186481 0.158059 0.549814
v 0.186972 0.160648 0.549814
v 0.187702 0.158794 0.549814
v 0.188177 0.160963 0.549814
v 0.18894 0.159128 0.549814
v 0.189379 0.160991 0.549814
v 0.189878 0.159081 0.549814
v 0.190579 0.160731 0.549814
v 0.190782 0.158724 0.549814
v 0.191776 0.160184 0.549814
v 0.191683 0.157939 0.549814
v 0.192179 0.156858 0.549814
v 0.192592 0.15963 0.549814
v 0.192209 0.155982 0.549814
v 0.193893 0.153945 0.549814
v 0.191964 0.154866 0.549814
v 0.193254 0.158997 0.549814
v 0.193764 0.158286 0.549814
v 0.194122 0.157497 0.549814
v 0.194203 0.154877 0.549814
v 0.194318 0.156653 0.549814
v 0.194345 0.15578 0.549814
v 0.184132 0.153399 0.549814
v 0.185195 0.155327 0.549814
v 0.184796 0.153664 0.549814
v 0.185485 0.153792 0.549814
v 0.186451 0.155437 0.549814
v 0.186158 0.15378 0.549814
v 0.186813 0.153627 0.549814
v 0.187658 0.155235 0.549814
v 0.187451 0.153334 0.549814
v 0.188025 0.152928 0.549814
v 0.188768 0.154759 0.549814
v 0.18848 0.152439 0.549814
v 0.188816 0.151869 0.549814
v 0.189612 0.154158 0.549814
v 0.189033 0.151218 0.549814
v 0.189114 0.150514 0.549814
v 0.189459 0.146001 0.549814
v 0.190405 0.147285 0.549814
v 0.190289 0.153426 0.549814
v 0.190798 0.152563 0.549814
v 0.190919 0.148365 0.549814
v 0.191139 0.151569 0.549814
v 0.191213 0.149438 0.549814
v 0.191287 0.150507 0.549814
v 0.180099 0.151636 0.549814
v 0.179892 0.148743 0.549814
v 0.179824 0.150104 0.549814
v 0.180247 0.147543 0.549814
v 0.180716 0.153338 0.549814
v 0.180831 0.146494 0.549814
v 0.181646 0.145597 0.549814
v 0.181944 0.14868 0.549814
v 0.182691 0.144852 0.549814
v 0.182269 0.147741 0.549814
v 0.182821 0.146964 0.549814
v 0.184073 0.14427 0.549814
v 0.183541 0.146396 0.549814
v 0.184142 0.146127 0.549814
v 0.185499 0.144097 0.549814
v 0.18477 0.146002 0.549814
v 0.185426 0.146018 0.549814
v 0.186109 0.146178 0.549814
v 0.186914 0.144337 0.549814
v 0.186777 0.146481 0.549814
v 0.187389 0.14693 0.549814
v 0.188265 0.144995 0.549814
v 0.187944 0.147525 0.549814
v 0.188442 0.148267 0.549814
v 0.188819 0.149039 0.549814
v 0.189042 0.149788 0.549814
v 0.189114 0.150514 0.549814
v 0.189042 0.149788 0.549814
v 0.189459 0.146001 0.549814
v 0.188819 0.149039 0.549814
v 0.188442 0.148267 0.549814
v 0.188265 0.144995 0.549814
v 0.187944 0.147525 0.549814
v 0.187389 0.14693 0.549814
v 0.186914 0.144337 0.549814
v 0.186777 0.146481 0.549814
v 0.186109 0.146178 0.549814
v 0.185499 0.144097 0.549814
v 0.185426 0.146018 0.549814
v 0.18477 0.146002 0.549814
v 0.184142 0.146127 0.549814
v 0.184073 0.14427 0.549814
v 0.183541 0.146396 0.549814
v 0.182821 0.146964 0.549814
v 0.182691 0.144852 0.549814
v 0.182269 0.147741 0.549814
v 0.181944 0.14868 0.549814
v 0.181901 0.149734 0.549814
v 0.181675 0.155212 0.549814
v 0.181646 0.145597 0.549814
v 0.180831 0.146494 0.549814
v 0.180716 0.153338 0.549814
v 0.180247 0.147543 0.549814
v 0.180099 0.151636 0.549814
v 0.179892 0.148743 0.549814
v 0.179824 0.150104 0.549814
v 0.191287 0.150507 0.549814
v 0.191139 0.151569 0.549814
v 0.191213 0.149438 0.549814
v 0.190919 0.148365 0.549814
v 0.190798 0.152563 0.549814
v 0.190405 0.147285 0.549814
v 0.190289 0.153426 0.549814
v 0.189612 0.154158 0.549814
v 0.189033 0.151218 0.549814
v 0.188816 0.151869 0.549814
v 0.188768 0.154759 0.549814
v 0.18848 0.152439 0.549814
v 0.188025 0.152928 0.549814
v 0.187658 0.155235 0.549814
v 0.187451 0.153334 0.549814
v 0.186813 0.153627 0.549814
v 0.186451 0.155437 0.549814
v 0.186158 0.15378 0.549814
v 0.185485 0.153792 0.549814
v 0.185195 0.155327 0.549814
v 0.184796 0.153664 0.549814
v 0.184132 0.153399 0.549814
v 0.183937 0.154868 0.549814
v 0.183536 0.153001 0.549814
v 0.194345 0.15578 0.549814
v 0.194318 0.156653 0.549814
v 0.194203 0.154877 0.549814
v 0.194122 0.157497 0.549814
v 0.193893 0.153945 0.549814
v 0.193764 0.158286 0.549814
v 0.193254 0.158997 0.549814
v 0.192592 0.15963 0.549814
v 0.192209 0.155982 0.549814
v 0.191964 0.154866 0.549814
v 0.192179 0.156858 0.549814
v 0.191776 0.160184 0.549814
v 0.191683 0.157939 0.549814
v 0.190782 0.158724 0.549814
v 0.190579 0.160731 0.549814
v 0.189878 0.159081 0.549814
v 0.189379 0.160991 0.549814
v 0.18894 0.159128 0.549814
v 0.188177 0.160963 0.549814
v 0.187702 0.158794 0.549814
v 0.186972 0.160648 0.549814
v 0.186481 0.158059 0.549814
v 0.185603 0.159913 0.549814
v 0.185238 0.156794 0.549814
v 0.184264 0.158762 0.549814
v 0.18301 0.152469 0.549814
v 0.182955 0.157195 0.549814
v 0.182553 0.151804 0.549814
v 0.182113 0.150807 0.549814
vn 0.0 0.0 -1.0
vn 0.0 0.0 1.0
usemtl material_0_0
f 1//1 2//1 3//1
f 2//1 1//1 4//1
f 4//1 1//1 5//1
f 5//1 1//1 6//1
f 6//1 1//1 7//1
f 6//1 7//1 8//1
f 8//1 7//1 9//1
f 9//1 7//1 10//1
f 10//1 7//1 11//1
f 10//1 11//1 12//1
f 12//1 11//1 13//1
f 12//1 13//1 14//1
f 14//1 13//1 15//1
f 14//1 15//1 16//1
f 16//1 15//1 17//1
f 16//1 17//1 18//1
f 18//1 17//1 19//1
f 18//1 19//1 20//1
f 20//1 19//1 21//1
f 20//1 21//1 22//1
f 22//1 21//1 23//1
f 23//1 21//1 24//1
f 23//1 24//1 25//1
f 25//1 26//1 27//1
f 26//1 25//1 24//1
f 26//1 24//1 28//1
f 26//1 28//1 29//1
f 26//1 29//1 30//1
f 26//1 30//1 31//1
f 31//1 30//1 32//1
f 31//1 32//1 33//1
f 9//1 34//1 8//1
f 34//1 9//1 35//1
f 34//1 35//1 36//1
f 36//1 35//1 37//1
f 37//1 35//1 38//1
f 37//1 38//1 39//1
f 39//1 38//1 40//1
f 40//1 38//1 41//1
f 40//1 41//1 42//1
f 42//1 41//1 43//1
f 43//1 41//1 44//1
f 43//1 44//1 45//1
f 45//1 44//1 46//1
f 46//1 44//1 47//1
f 46//1 47//1 48//1
f 48//1 47//1 49//1
f 49//1 47//1 50//1
f 50//1 47//1 51//1
f 51//1 47//1 52//1
f 51//1 52//1 53//1
f 51//1 53//1 54//1
f 54//1 53//1 55//1
f 54//1 55//1 56//1
f 56//1 55//1 57//1
f 58//1 59//1 60//1
f 59//1 58//1 61//1
f 61//1 58//1 62//1
f 61//1 62//1 63//1
f 63//1 62//1 3//1
f 63//1 3//1 64//1
f 64//1 3//1 65//1
f 64//1 65//1 66//1
f 65//1 3//1 2//1
f 66//1 65//1 67//1
f 66//1 67//1 68//1
f 66//1 68//1 69//1
f 69//1 68//1 70//1
f 69//1 70//1 71//1
f 69//1 71//1 72//1
f 72//1 71//1 73//1
f 72//1 73//1 74//1
f 72//1 74//1 75//1
f 72//1 75//1 76//1
f 76//1 75//1 77//1
f 76//1 77//1 78//1
f 76//1 78//1 79//1
f 79//1 78//1 80//1
f 79//1 80//1 81//1
f 79//1 81//1 50//1
f 50//1 81//1 82//1
f 50//1 82//1 83//1
f 50//1 83//1 49//1
f 84//2 85//2 86//2
f 85//2 87//2 86//2
f 87//2 88//2 86//2
f 86//2 88//2 89//2
f 88//2 90//2 89//2
f 90//2 91//2 89//2
f 89//2 91//2 92//2
f 91//2 93//2 92//2
f 93//2 94//2 92//2
f 92//2 94//2 95//2
f 94//2 96//2 95//2
f 96//2 97//2 95//2
f 97//2 98//2 95//2
f 95//2 98//2 99//2
f 98//2 100//2 99//2
f 100//2 101//2 99//2
f 99//2 101//2 102//2
f 101//2 103//2 102//2
f 103//2 104//2 102//2
f 105//2 106//2 104//2
f 102//2 104//2 107//2
f 104//2 106//2 107//2
f 107//2 106//2 108//2
f 106//2 109//2 108//2
f 108//2 109//2 110//2
f 109//2 111//2 110//2
f 110//2 111//2 112//2
f 113//2 112//2 111//2
f 114//2 115//2 116//2
f 116//2 115//2 117//2
f 115//2 118//2 117//2
f 117//2 118//2 119//2
f 118//2 120//2 119//2
f 120//2 121//2 119//2
f 119//2 121//2 86//2
f 86//2 121//2 84//2
f 84//2 121//2 122//2
f 122//2 121//2 123//2
f 121//2 124//2 123//2
f 123//2 124//2 125//2
f 125//2 124//2 126//2
f 124//2 127//2 126//2
f 126//2 127//2 128//2
f 128//2 127//2 129//2
f 127//2 130//2 129//2
f 129//2 130//2 131//2
f 131//2 130//2 132//2
f 130//2 133//2 132//2
f 132//2 133//2 134//2
f 134//2 133//2 135//2
f 133//2 136//2 135//2
f 137//2 135//2 136//2
f 138//2 139//2 140//2
f 139//2 141//2 140//2
f 140//2 141//2 142//2
f 141//2 143//2 142//2
f 143//2 144//2 142//2
f 144//2 145//2 142//2
f 145//2 146//2 142//2
f 147//2 142//2 146//2
f 146//2 145//2 148//2
f 145//2 149//2 148//2
f 148//2 149//2 150//2
f 150//2 149//2 151//2
f 149//2 152//2 151//2
f 151//2 152//2 153//2
f 152//2 154//2 153//2
f 153//2 154//2 155//2
f 154//2 156//2 155//2
f 155//2 156//2 157//2
f 156//2 158//2 157//2
f 157//2 158//2 159//2
f 158//2 160//2 159//2
f 159//2 160//2 161//2
f 160//2 162//2 161//2
f 161//2 162//2 136//2
f 136//2 162//2 137//2
f 137//2 162//2 163//2
f 162//2 164//2 163//2
f 163//2 164//2 165//2
f 165//2 164//2 166//2
f 166//2 164//2 105//2
f 106//2 105//2 164//2
