# SSTK version 0.8.0
# 15
mtllib original-15.mtl
o #ID1123
v 0.153973 0.372606 0.085475
v 0.163171 0.372606 0.087491
v 0.163171 0.372606 0.085475
v 0.153973 0.372606 0.087491
v 0.153973 0.372606 0.087491
v 0.153973 0.372606 0.085475
v 0.163171 0.372606 0.087491
v 0.163171 0.372606 0.085475
v 0.163171 0.372606 0.085475
v 0.164558 0.367013 0.087491
v 0.164558 0.367013 0.085475
v 0.163171 0.372606 0.087491
v 0.163171 0.372606 0.087491
v 0.163171 0.372606 0.085475
v 0.164558 0.367013 0.087491
v 0.164558 0.367013 0.085475
v 0.173382 0.367013 0.085475
v 0.163171 0.372606 0.085475
v 0.164558 0.367013 0.085475
v 0.163246 0.403863 0.085475
v 0.161575 0.379041 0.085475
v 0.155583 0.379041 0.085475
v 0.158592 0.39107 0.085475
v 0.154375 0.403863 0.085475
v 0.152574 0.367013 0.085475
v 0.143374 0.367013 0.085475
v 0.153973 0.372606 0.085475
v 0.158592 0.39107 0.085475
v 0.155583 0.379041 0.085475
v 0.154375 0.403863 0.085475
v 0.163171 0.372606 0.085475
v 0.153973 0.372606 0.085475
v 0.152574 0.367013 0.085475
v 0.143374 0.367013 0.085475
v 0.163246 0.403863 0.085475
v 0.161575 0.379041 0.085475
v 0.173382 0.367013 0.085475
v 0.164558 0.367013 0.085475
v 0.152574 0.367013 0.087491
v 0.153973 0.372606 0.085475
v 0.152574 0.367013 0.085475
v 0.153973 0.372606 0.087491
v 0.153973 0.372606 0.087491
v 0.152574 0.367013 0.087491
v 0.153973 0.372606 0.085475
v 0.152574 0.367013 0.085475
v 0.173382 0.367013 0.085475
v 0.164558 0.367013 0.087491
v 0.173382 0.367013 0.087491
v 0.164558 0.367013 0.085475
v 0.164558 0.367013 0.085475
v 0.173382 0.367013 0.085475
v 0.164558 0.367013 0.087491
v 0.173382 0.367013 0.087491
v 0.173382 0.367013 0.087491
v 0.163246 0.403863 0.085475
v 0.173382 0.367013 0.085475
v 0.163246 0.403863 0.087491
v 0.163246 0.403863 0.087491
v 0.173382 0.367013 0.087491
v 0.163246 0.403863 0.085475
v 0.173382 0.367013 0.085475
v 0.154375 0.403863 0.087491
v 0.163246 0.403863 0.085475
v 0.163246 0.403863 0.087491
v 0.154375 0.403863 0.085475
v 0.154375 0.403863 0.085475
v 0.154375 0.403863 0.087491
v 0.163246 0.403863 0.085475
v 0.163246 0.403863 0.087491
v 0.154375 0.403863 0.085475
v 0.143374 0.367013 0.087491
v 0.143374 0.367013 0.085475
v 0.154375 0.403863 0.087491
v 0.154375 0.403863 0.087491
v 0.154375 0.403863 0.085475
v 0.143374 0.367013 0.087491
v 0.143374 0.367013 0.085475
v 0.152574 0.367013 0.085475
v 0.143374 0.367013 0.087491
v 0.152574 0.367013 0.087491
v 0.143374 0.367013 0.085475
v 0.143374 0.367013 0.085475
v 0.152574 0.367013 0.085475
v 0.143374 0.367013 0.087491
v 0.152574 0.367013 0.087491
vn 0.0 1.0 0.0
vn 0.0 -1.0 0.0
vn 0.9706000313777474 0.2406981077813355 0.0
vn -0.9706000313777474 -0.2406981077813355 0.0
vn 0.0 0.0 1.0
vn 0.0 0.0 -1.0
vn -0.9701098737259227 0.24266609342772627 0.0
vn 0.9701098737259227 -0.24266609342772627 0.0
vn -0.9641956231776432 -0.26519200637477036 0.0
vn 0.9641956231776432 0.26519200637477036 0.0
vn 0.9582171099232869 -0.2860419029622471 0.0
vn -0.9582171099232869 0.2860419029622471 0.0
usemtl material_0_0
f 1//1 2//1 3//1
f 2//1 1//1 4//1
f 5//2 6//2 7//2
f 8//2 7//2 6//2
f 9//3 10//3 11//3
f 10//3 9//3 12//3
f 13//4 14//4 15//4
f 16//4 15//4 14//4
f 17//5 18//5 19//5
f 18//5 17//5 20//5
f 18//5 20//5 21//5
f 18//5 21//5 22//5
f 21//5 20//5 23//5
f 23//5 20//5 24//5
f 25//5 24//5 26//5
f 24//5 25//5 27//5
f 24//5 27//5 22//5
f 22//5 27//5 18//5
f 24//5 22//5 23//5
f 28//6 29//6 30//6
f 31//6 32//6 29//6
f 29//6 32//6 30//6
f 32//6 33//6 30//6
f 34//6 30//6 33//6
f 30//6 35//6 28//6
f 28//6 35//6 36//6
f 29//6 36//6 31//6
f 36//6 35//6 31//6
f 35//6 37//6 31//6
f 38//6 31//6 37//6
f 39//7 40//7 41//7
f 40//7 39//7 42//7
f 43//8 44//8 45//8
f 46//8 45//8 44//8
f 47//1 48//1 49//1
f 48//1 47//1 50//1
f 51//2 52//2 53//2
f 54//2 53//2 52//2
f 55//9 56//9 57//9
f 56//9 55//9 58//9
f 59//10 60//10 61//10
f 62//10 61//10 60//10
f 63//2 64//2 65//2
f 64//2 63//2 66//2
f 67//1 68//1 69//1
f 70//1 69//1 68//1
f 71//11 72//11 73//11
f 72//11 71//11 74//11
f 75//12 76//12 77//12
f 78//12 77//12 76//12
f 79//1 80//1 81//1
f 80//1 79//1 82//1
f 83//2 84//2 85//2
f 86//2 85//2 84//2
