# SSTK version 0.8.0
# 50
mtllib original-50.mtl
o #ID155
v 0.287432 -0.109781 0.018033
v 0.276714 -0.123749 0.023517
v 0.276714 -0.123749 0.018033
v 0.287432 -0.109781 0.023517
v 0.287432 -0.109781 0.023517
v 0.287432 -0.109781 0.018033
v 0.276714 -0.123749 0.023517
v 0.276714 -0.123749 0.018033
v 0.276714 -0.123749 0.001229
v 0.287432 -0.109781 0.001229
v 0.287432 -0.109781 0.001229
v 0.276714 -0.123749 0.001229
v 0.307197 -0.062065 0.018033
v 0.307197 -0.062065 0.023517
v 0.307197 -0.062065 0.023517
v 0.307197 -0.062065 0.018033
v 0.307197 -0.062065 0.001229
v 0.307197 -0.062065 0.001229
v 0.313938 -0.010859 0.018033
v 0.313938 -0.010859 0.023517
v 0.313938 -0.010859 0.023517
v 0.313938 -0.010859 0.018033
v 0.313938 -0.010859 0.001229
v 0.313938 -0.010859 0.001229
v 0.307197 0.040348 0.018033
v 0.307197 0.040348 0.023517
v 0.307197 0.040348 0.023517
v 0.307197 0.040348 0.018033
v 0.307197 0.040348 0.001229
v 0.307197 0.040348 0.001229
v 0.287432 0.088064 0.018033
v 0.287432 0.088064 0.023517
v 0.287432 0.088064 0.023517
v 0.287432 0.088064 0.018033
v 0.287432 0.088064 0.001229
v 0.287432 0.088064 0.001229
v 0.261993 0.121217 0.018033
v 0.261993 0.121217 0.023517
v 0.261993 0.121217 0.023517
v 0.261993 0.121217 0.018033
v 0.261993 0.121217 0.001229
v 0.261993 0.121217 0.001229
vt 0.6995359 0.3409887
vt 0.6919615 0.3290611
vt 0.7135039 0.3817359
vt 0.7182681 0.425463
vt 0.7135039 0.4691901
vt 0.6995359 0.5099372
vt 0.6815578 0.5382478
vn 0.8660254028383286 -0.5000000016387101 2.5792860787073612e-08
vn 0.6198501189804151 -0.7847202240288985 1.4604563516033266e-08
vn 0.7409384922954768 -0.6715728930167633 1.816330820538879e-08
vn 0.866025402838328 -0.5000000016387097 4.5736771963549255e-08
vn 0.7409384922954771 -0.6715728930167635 2.418152813556566e-09
vn 0.8660254028383291 -0.5000000016387101 5.848946277264597e-09
vn 0.965925835803664 -0.25881900959356163 2.914387065738523e-08
vn 0.9659258358036632 -0.2588190095935615 4.859400471167042e-08
vn 0.9659258358036644 -0.25881900959356163 9.69374771421152e-09
vn 1.0 0.0 3.0508788884067965e-08
vn 1.0 1.6365227311749555e-09 4.813964445572632e-08
vn 1.0 0.0 1.2877933331693178e-08
vn 0.9659258358036642 0.25881900959356136 2.9794575971710758e-08
vn 0.9659258358036635 0.25881900959356113 4.440463206881257e-08
vn 0.9659258358036644 0.2588190095935615 1.5184508763497405e-08
vn 0.8660254028383286 0.5000000016387097 2.704989494166891e-08
vn 0.8660254028383284 0.5000000016387095 3.7643506087499725e-08
vn 0.8660254028383289 0.5000000016387098 1.6456283795838093e-08
vn 0.7103954975322492 0.7038026975551509 2.290997805421691e-08
vn 0.7103954975322492 0.7038026975551509 2.9206078032345702e-08
vn 0.7103954975322493 0.7038026975551511 1.6613889187199188e-08
vn -0.866025402838328 0.5000000016387097 -4.5736771963549255e-08
vn -0.8660254028383286 0.5000000016387101 -2.5792860787073612e-08
vn -0.6198501189804151 0.7847202240288985 -1.4604563516033266e-08
vn -0.7409384922954768 0.6715728930167633 -1.816330820538879e-08
vn -0.8660254028383291 0.5000000016387101 -5.848946277264597e-09
vn -0.7409384922954771 0.6715728930167635 -2.418152813556566e-09
vn -0.9659258358036632 0.2588190095935615 -4.859400471167042e-08
vn -0.965925835803664 0.25881900959356163 -2.914387065738523e-08
vn -0.9659258358036644 0.25881900959356163 -9.69374771421152e-09
vn -1.0 -1.6365227311749555e-09 -4.813964445572632e-08
vn -1.0 0.0 -3.0508788884067965e-08
vn -1.0 0.0 -1.2877933331693178e-08
vn -0.9659258358036635 -0.25881900959356113 -4.440463206881257e-08
vn -0.9659258358036642 -0.25881900959356136 -2.9794575971710758e-08
vn -0.9659258358036644 -0.2588190095935615 -1.5184508763497405e-08
vn -0.8660254028383284 -0.5000000016387095 -3.7643506087499725e-08
vn -0.8660254028383286 -0.5000000016387097 -2.704989494166891e-08
vn -0.8660254028383289 -0.5000000016387098 -1.6456283795838093e-08
vn -0.7103954975322492 -0.7038026975551509 -2.9206078032345702e-08
vn -0.7103954975322492 -0.7038026975551509 -2.290997805421691e-08
vn -0.7103954975322493 -0.7038026975551511 -1.6613889187199188e-08
usemtl material_0_0
f 1//1 2//2 3//3
f 2//2 1//1 4//4
f 9//5 1//1 3//3
f 1//1 9//5 10//6
f 13//7 4//4 1//1
f 4//4 13//7 14//8
f 10//6 13//7 1//1
f 13//7 10//6 17//9
f 19//10 14//8 13//7
f 14//8 19//10 20//11
f 17//9 19//10 13//7
f 19//10 17//9 23//12
f 25//13 20//11 19//10
f 20//11 25//13 26//14
f 23//12 25//13 19//10
f 25//13 23//12 29//15
f 31//16 26//14 25//13
f 26//14 31//16 32//17
f 29//15 31//16 25//13
f 31//16 29//15 35//18
f 37//19 32//17 31//16
f 32//17 37//19 38//20
f 35//18 37//19 31//16
f 37//19 35//18 41//21
usemtl material_1_0
f 5/1/22 6/1/23 7/2/24
f 8/2/25 7/2/24 6/1/23
f 11/1/26 12/2/27 6/1/23
f 8/2/25 6/1/23 12/2/27
f 15/3/28 16/3/29 5/1/22
f 6/1/23 5/1/22 16/3/29
f 18/3/30 11/1/26 16/3/29
f 6/1/23 16/3/29 11/1/26
f 21/4/31 22/4/32 15/3/28
f 16/3/29 15/3/28 22/4/32
f 24/4/33 18/3/30 22/4/32
f 16/3/29 22/4/32 18/3/30
f 27/5/34 28/5/35 21/4/31
f 22/4/32 21/4/31 28/5/35
f 30/5/36 24/4/33 28/5/35
f 22/4/32 28/5/35 24/4/33
f 33/6/37 34/6/38 27/5/34
f 28/5/35 27/5/34 34/6/38
f 36/6/39 30/5/36 34/6/38
f 28/5/35 34/6/38 30/5/36
f 39/7/40 40/7/41 33/6/37
f 34/6/38 33/6/37 40/7/41
f 42/7/42 36/6/39 40/7/41
f 34/6/38 40/7/41 36/6/39
