# SSTK version 0.8.0
# 143
mtllib original-143.mtl
o group_25/ID745#ID745
v 0.146961 0.46012 -0.097599
v 0.161527 0.457904 -0.097599
v 0.18657 0.437708 -0.267779
v 0.18657 0.437708 -0.267779
v 0.161527 0.457904 -0.097599
v 0.146961 0.46012 -0.097599
v 0.049156 0.437708 -0.267779
v 0.117863 0.46012 -0.097599
v 0.088766 0.46012 -0.097599
v 0.088766 0.46012 -0.097599
v 0.049156 0.437708 -0.267779
v 0.117863 0.46012 -0.097599
v 0.146961 0.46012 -0.097599
v 0.161527 0.389026 -0.097599
v 0.161527 0.457904 -0.097599
v 0.161527 0.457904 -0.097599
v 0.161527 0.389026 -0.097599
v 0.146961 0.46012 -0.097599
v 0.18657 0.437205 -0.118374
v 0.185805 0.437832 -0.116179
v 0.184859 0.438609 -0.114035
v 0.183737 0.439533 -0.111953
v 0.182444 0.440598 -0.109944
v 0.180987 0.4418 -0.108017
v 0.179374 0.443132 -0.106183
v 0.177612 0.444587 -0.104451
v 0.17571 0.446159 -0.102829
v 0.173678 0.447839 -0.101326
v 0.171526 0.44962 -0.099948
v 0.169264 0.451491 -0.098704
v 0.166905 0.453444 -0.097599
v 0.166905 0.453444 -0.097599
v 0.169264 0.451491 -0.098704
v 0.171526 0.44962 -0.099948
v 0.173678 0.447839 -0.101326
v 0.17571 0.446159 -0.102829
v 0.177612 0.444587 -0.104451
v 0.179374 0.443132 -0.106183
v 0.180987 0.4418 -0.108017
v 0.182444 0.440598 -0.109944
v 0.183737 0.439533 -0.111953
v 0.184859 0.438609 -0.114035
v 0.185805 0.437832 -0.116179
v 0.18657 0.437205 -0.118374
v 0.047688 0.423216 -0.41827
v 0.188039 0.423216 -0.41827
v 0.047688 0.423216 -0.41827
v 0.188039 0.423216 -0.41827
v 0.074199 0.457904 -0.097599
v 0.074199 0.457904 -0.097599
v 0.117863 0.46012 -0.097599
v 0.074199 0.370221 -0.097599
v 0.117863 0.370221 -0.097599
v 0.074199 0.389026 -0.097599
v 0.088766 0.46012 -0.097599
v 0.088766 0.46012 -0.097599
v 0.117863 0.46012 -0.097599
v 0.074199 0.389026 -0.097599
v 0.074199 0.370221 -0.097599
v 0.117863 0.370221 -0.097599
v 0.117863 0.370221 -0.097599
v 0.161527 0.370221 -0.097599
v 0.117863 0.46012 -0.097599
v 0.146961 0.46012 -0.097599
v 0.146961 0.46012 -0.097599
v 0.117863 0.46012 -0.097599
v 0.117863 0.370221 -0.097599
v 0.161527 0.370221 -0.097599
v 0.166905 0.453444 -0.097599
v 0.166905 0.453444 -0.097599
v 0.169264 0.451491 -0.098704
v 0.169264 0.451491 -0.098704
v 0.171526 0.44962 -0.099948
v 0.171526 0.44962 -0.099948
v 0.173678 0.447839 -0.101326
v 0.173678 0.447839 -0.101326
v 0.166392 0.389026 -0.100203
v 0.17571 0.446159 -0.102829
v 0.17571 0.446159 -0.102829
v 0.166392 0.389026 -0.100203
v 0.171257 0.389026 -0.102808
v 0.177612 0.444587 -0.104451
v 0.177612 0.444587 -0.104451
v 0.171257 0.389026 -0.102808
v 0.179374 0.443132 -0.106183
v 0.179374 0.443132 -0.106183
v 0.180987 0.4418 -0.108017
v 0.180987 0.4418 -0.108017
v 0.180987 0.389026 -0.108017
v 0.182444 0.440598 -0.109944
v 0.182444 0.440598 -0.109944
v 0.180987 0.389026 -0.108017
v 0.183737 0.439533 -0.111953
v 0.183737 0.439533 -0.111953
v 0.183737 0.389026 -0.111953
v 0.184859 0.438609 -0.114035
v 0.184859 0.438609 -0.114035
v 0.183737 0.389026 -0.111953
v 0.18657 0.389026 -0.118374
v 0.185805 0.437832 -0.116179
v 0.185805 0.437832 -0.116179
v 0.18657 0.389026 -0.118374
v 0.18657 0.437205 -0.118374
v 0.18657 0.437205 -0.118374
v 0.18657 0.370221 -0.267779
v 0.18657 0.437708 -0.267779
v 0.18657 0.370221 -0.118374
v 0.18657 0.370221 -0.118374
v 0.18657 0.370221 -0.267779
v 0.18657 0.437708 -0.267779
v 0.047688 0.370221 -0.41827
v 0.188039 0.423216 -0.41827
v 0.188039 0.370221 -0.41827
v 0.047688 0.423216 -0.41827
v 0.047688 0.423216 -0.41827
v 0.047688 0.370221 -0.41827
v 0.188039 0.423216 -0.41827
v 0.188039 0.370221 -0.41827
v 0.049156 0.370221 -0.267779
v 0.047688 0.423216 -0.41827
v 0.047688 0.370221 -0.41827
v 0.049156 0.437708 -0.267779
v 0.049156 0.437708 -0.267779
v 0.049156 0.370221 -0.267779
v 0.047688 0.423216 -0.41827
v 0.047688 0.370221 -0.41827
v 0.188039 0.370221 -0.41827
v 0.188039 0.423216 -0.41827
v 0.188039 0.370221 -0.41827
v 0.188039 0.423216 -0.41827
v 0.068822 0.453444 -0.097599
v 0.066462 0.451491 -0.098704
v 0.064201 0.44962 -0.099948
v 0.062048 0.447839 -0.101326
v 0.060016 0.446159 -0.102829
v 0.058114 0.444587 -0.104451
v 0.056352 0.443132 -0.106183
v 0.054739 0.4418 -0.108017
v 0.053282 0.440598 -0.109944
v 0.05199 0.439533 -0.111953
v 0.050868 0.438609 -0.114035
v 0.049921 0.437832 -0.116179
v 0.049156 0.437205 -0.118374
v 0.049156 0.437205 -0.118374
v 0.049921 0.437832 -0.116179
v 0.050868 0.438609 -0.114035
v 0.05199 0.439533 -0.111953
v 0.053282 0.440598 -0.109944
v 0.054739 0.4418 -0.108017
v 0.056352 0.443132 -0.106183
v 0.058114 0.444587 -0.104451
v 0.060016 0.446159 -0.102829
v 0.062048 0.447839 -0.101326
v 0.064201 0.44962 -0.099948
v 0.066462 0.451491 -0.098704
v 0.068822 0.453444 -0.097599
v 0.088766 0.46012 -0.097599
v 0.074199 0.457904 -0.097599
v 0.074199 0.457904 -0.097599
v 0.088766 0.46012 -0.097599
v 0.069334 0.370221 -0.100203
v 0.069334 0.389026 -0.100203
v 0.069334 0.389026 -0.100203
v 0.069334 0.370221 -0.100203
v 0.183737 0.370221 -0.111953
v 0.18657 0.370221 -0.267779
v 0.18657 0.370221 -0.118374
v 0.047688 0.370221 -0.41827
v 0.188039 0.370221 -0.41827
v 0.180987 0.370221 -0.108017
v 0.171257 0.370221 -0.102808
v 0.166392 0.370221 -0.100203
v 0.161527 0.370221 -0.097599
v 0.117863 0.370221 -0.097599
v 0.074199 0.370221 -0.097599
v 0.069334 0.370221 -0.100203
v 0.064469 0.370221 -0.102808
v 0.054739 0.370221 -0.108017
v 0.05199 0.370221 -0.111953
v 0.049156 0.370221 -0.267779
v 0.049156 0.370221 -0.118374
v 0.049156 0.370221 -0.118374
v 0.05199 0.370221 -0.111953
v 0.049156 0.370221 -0.267779
v 0.047688 0.370221 -0.41827
v 0.054739 0.370221 -0.108017
v 0.064469 0.370221 -0.102808
v 0.069334 0.370221 -0.100203
v 0.074199 0.370221 -0.097599
v 0.117863 0.370221 -0.097599
v 0.161527 0.370221 -0.097599
v 0.166392 0.370221 -0.100203
v 0.171257 0.370221 -0.102808
v 0.180987 0.370221 -0.108017
v 0.183737 0.370221 -0.111953
v 0.18657 0.370221 -0.267779
v 0.188039 0.370221 -0.41827
v 0.18657 0.370221 -0.118374
v 0.166392 0.370221 -0.100203
v 0.166392 0.370221 -0.100203
v 0.171257 0.370221 -0.102808
v 0.180987 0.370221 -0.108017
v 0.171257 0.370221 -0.102808
v 0.180987 0.370221 -0.108017
v 0.183737 0.370221 -0.111953
v 0.183737 0.370221 -0.111953
v 0.049156 0.370221 -0.118374
v 0.049156 0.437205 -0.118374
v 0.049156 0.389026 -0.118374
v 0.049156 0.389026 -0.118374
v 0.049156 0.370221 -0.118374
v 0.049156 0.437205 -0.118374
v 0.049921 0.437832 -0.116179
v 0.049921 0.437832 -0.116179
v 0.050868 0.438609 -0.114035
v 0.050868 0.438609 -0.114035
v 0.05199 0.439533 -0.111953
v 0.05199 0.389026 -0.111953
v 0.05199 0.389026 -0.111953
v 0.05199 0.439533 -0.111953
v 0.054739 0.389026 -0.108017
v 0.053282 0.440598 -0.109944
v 0.053282 0.440598 -0.109944
v 0.054739 0.389026 -0.108017
v 0.054739 0.4418 -0.108017
v 0.054739 0.4418 -0.108017
v 0.064469 0.389026 -0.102808
v 0.056352 0.443132 -0.106183
v 0.056352 0.443132 -0.106183
v 0.064469 0.389026 -0.102808
v 0.058114 0.444587 -0.104451
v 0.058114 0.444587 -0.104451
v 0.060016 0.446159 -0.102829
v 0.060016 0.446159 -0.102829
v 0.062048 0.447839 -0.101326
v 0.062048 0.447839 -0.101326
v 0.064201 0.44962 -0.099948
v 0.064201 0.44962 -0.099948
v 0.066462 0.451491 -0.098704
v 0.066462 0.451491 -0.098704
v 0.068822 0.453444 -0.097599
v 0.068822 0.453444 -0.097599
v 0.064469 0.370221 -0.102808
v 0.064469 0.370221 -0.102808
v 0.054739 0.370221 -0.108017
v 0.064469 0.370221 -0.102808
v 0.054739 0.370221 -0.108017
v 0.064469 0.370221 -0.102808
v 0.05199 0.370221 -0.111953
v 0.05199 0.370221 -0.111953
v 0.171257 0.370221 -0.102808
v 0.171257 0.370221 -0.102808
vn 0.06375164801395644 0.9912361691201989 -0.1157004079656475
vn 0.3808311952363608 0.9230950884534355 -0.05350755468145478
vn 0.04218217836664644 0.9934680615315128 -0.10602770649722867
vn -0.04218217836664644 -0.9934680615315128 0.10602770649722867
vn -0.3808311952363608 -0.9230950884534355 0.05350755468145478
vn -0.06375164801395644 -0.9912361691201989 0.1157004079656475
vn -0.04218217836664644 0.9934680615315128 -0.10602770649722867
vn 0.0 0.9914397100583343 -0.13056531438114014
vn -0.06375164801395644 0.9912361691201989 -0.1157004079656475
vn 0.06375164801395644 -0.9912361691201989 0.1157004079656475
vn 0.04218217836664644 -0.9934680615315128 0.10602770649722867
vn 0.0 -0.9914397100583343 0.13056531438114014
vn 0.0 0.0 1.0
vn 0.2368352871623572 -0.010212149446450824 0.9714961444897284
vn 0.0 0.0 -1.0
vn -0.2368352871623572 0.010212149446450824 -0.9714961444897284
vn 0.6383732769455805 0.7697225722019896 0.0025925131656242945
vn -0.6383732769455805 -0.7697225722019896 -0.0025925131656242945
vn 0.0 0.995395569183504 -0.09585228661773396
vn 0.0 -0.995395569183504 0.09585228661773396
vn -0.3808311952363608 0.9230950884534355 -0.05350755468145478
vn 0.3808311952363608 -0.9230950884534355 0.05350755468145478
vn -0.24331037182947118 0.0 0.9699484846940092
vn -0.2368352871623572 -0.010212149446450824 0.9714961444897284
vn 0.2368352871623572 0.010212149446450824 -0.9714961444897284
vn 0.24331037182947118 0.0 -0.9699484846940092
vn 0.24331037182947118 0.0 0.9699484846940092
vn -0.24331037182947118 0.0 -0.9699484846940092
vn 0.1288146839000437 -0.010753648655950573 0.9916103752242188
vn -0.1288146839000437 0.010753648655950573 -0.9916103752242188
vn 0.4196358616187966 -0.035928156713898644 0.9069812077428019
vn -0.4196358616187966 0.035928156713898644 -0.9069812077428019
vn 0.4745892456459329 -0.04422068493546432 0.8790958872279309
vn -0.4745892456459329 0.04422068493546432 -0.8790958872279309
vn 0.5270722505562483 -0.051589845160444146 0.8482531052521368
vn -0.5270722505562483 0.051589845160444146 -0.8482531052521368
vn 0.4726171719786578 -0.019744218829370497 0.881046635867656
vn 0.582581276936594 -0.05175692795103071 0.8111228490013084
vn -0.582581276936594 0.05175692795103071 -0.8111228490013084
vn -0.4726171719786578 0.019744218829370497 -0.881046635867656
vn 0.47695926089413343 -0.010794349114971647 0.8788591158283028
vn 0.6435969402664498 -0.051024235264336054 0.7636619054891722
vn -0.6435969402664498 0.051024235264336054 -0.7636619054891722
vn -0.47695926089413343 0.010794349114971647 -0.8788591158283028
vn 0.6953232782655737 -0.05962702813617723 0.7162193492343412
vn -0.6953232782655737 0.05962702813617723 -0.7162193492343412
vn 0.7381159519794004 -0.0390051774623877 0.6735454235347986
vn -0.7381159519794004 0.0390051774623877 -0.6735454235347986
vn 0.6640951737326717 -2.728659892055186e-05 0.7476480451926657
vn 0.8141489452226386 -0.0013070689120579942 0.5806546189980101
vn -0.8141489452226386 0.0013070689120579942 -0.5806546189980101
vn -0.6640951737326717 2.728659892055186e-05 -0.7476480451926657
vn 0.8552852994574367 -0.0020650679986898776 0.5181532514866267
vn -0.8552852994574367 0.0020650679986898776 -0.5181532514866267
vn 0.8711572697337844 -0.000915158268204969 0.4910032320416259
vn 0.8948153284016466 -0.0015721308742063674 0.4464337089221284
vn -0.8948153284016466 0.0015721308742063674 -0.4464337089221284
vn -0.8711572697337844 0.000915158268204969 -0.4910032320416259
vn 0.9786197349644418 -0.0009317452332896487 0.20567582791603442
vn 0.9269100781960581 -0.0023524809446619083 0.3752761286998978
vn -0.9269100781960581 0.0023524809446619083 -0.3752761286998978
vn -0.9786197349644418 0.0009317452332896487 -0.20567582791603442
vn 0.9837430958733139 0.0 0.17958151720482854
vn -0.9837430958733139 0.0 -0.17958151720482854
vn 0.9999880924097019 0.0 0.004880065450964956
vn 0.9999888064787421 0.0 0.004731481503802539
vn 0.9784970060477372 0.0 0.20626102190092707
vn -0.9784970060477372 0.0 -0.20626102190092707
vn -0.9999880924097019 0.0 -0.004880065450964956
vn -0.9999888064787421 0.0 -0.004731481503802539
vn -0.9999880924097019 0.0 0.004880065450964956
vn -0.999952369932147 0.0 0.009760013682524762
vn -0.9999888064787421 0.0 0.004731481503802539
vn 0.9999888064787421 0.0 -0.004731481503802539
vn 0.9999880924097019 0.0 -0.004880065450964956
vn 0.999952369932147 0.0 -0.009760013682524762
vn 0.999952369932147 0.0 0.009760013682524762
vn -0.999952369932147 0.0 -0.009760013682524762
vn -0.6383732769455805 0.7697225722019896 0.0025925131656242945
vn 0.6383732769455805 -0.7697225722019896 -0.0025925131656242945
vn -0.47199706361559074 0.0 0.8816001202009106
vn -0.4726171719786578 -0.019744218829370497 0.881046635867656
vn 0.4726171719786578 0.019744218829370497 -0.881046635867656
vn 0.47199706361559074 0.0 -0.8816001202009106
vn 0.0 -1.0 0.0
vn 0.0 1.0 0.0
vn 0.47199706361559074 0.0 0.8816001202009106
vn -0.47199706361559074 0.0 -0.8816001202009106
vn 0.6640960742668309 0.0 0.7476472457940202
vn -0.6640960742668309 0.0 -0.7476472457940202
vn 0.8714509675740056 0.0 0.4904826307977981
vn -0.8714509675740056 0.0 -0.4904826307977981
vn -0.9784970060477372 0.0 0.20626102190092707
vn -0.9837430958733139 0.0 0.17958151720482854
vn -0.9786197349644418 -0.0009317452332896487 0.20567582791603442
vn 0.9786197349644418 0.0009317452332896487 -0.20567582791603442
vn 0.9784970060477372 0.0 -0.20626102190092707
vn 0.9837430958733139 0.0 -0.17958151720482854
vn -0.9269100781960581 -0.0023524809446619083 0.3752761286998978
vn 0.9269100781960581 0.0023524809446619083 -0.3752761286998978
vn -0.8948153284016466 -0.0015721308742063674 0.4464337089221284
vn 0.8948153284016466 0.0015721308742063674 -0.4464337089221284
vn -0.8552852994574367 -0.0020650679986898776 0.5181532514866267
vn -0.8711572697337844 -0.000915158268204969 0.4910032320416259
vn 0.8711572697337844 0.000915158268204969 -0.4910032320416259
vn 0.8552852994574367 0.0020650679986898776 -0.5181532514866267
vn -0.6640951737326717 -2.728659892055186e-05 0.7476480451926657
vn -0.8141489452226386 -0.0013070689120579942 0.5806546189980101
vn 0.8141489452226386 0.0013070689120579942 -0.5806546189980101
vn 0.6640951737326717 2.728659892055186e-05 -0.7476480451926657
vn -0.7381159519794004 -0.0390051774623877 0.6735454235347986
vn 0.7381159519794004 0.0390051774623877 -0.6735454235347986
vn -0.47695926089413343 -0.010794349114971647 0.8788591158283028
vn -0.6953232782655737 -0.05962702813617723 0.7162193492343412
vn 0.6953232782655737 0.05962702813617723 -0.7162193492343412
vn 0.47695926089413343 0.010794349114971647 -0.8788591158283028
vn -0.6435969402664498 -0.051024235264336054 0.7636619054891722
vn 0.6435969402664498 0.051024235264336054 -0.7636619054891722
vn -0.582581276936594 -0.05175692795103071 0.8111228490013084
vn 0.582581276936594 0.05175692795103071 -0.8111228490013084
vn -0.5270722505562483 -0.051589845160444146 0.8482531052521368
vn 0.5270722505562483 0.051589845160444146 -0.8482531052521368
vn -0.4745892456459329 -0.04422068493546432 0.8790958872279309
vn 0.4745892456459329 0.04422068493546432 -0.8790958872279309
vn -0.4196358616187966 -0.035928156713898644 0.9069812077428019
vn 0.4196358616187966 0.035928156713898644 -0.9069812077428019
vn -0.1288146839000437 -0.010753648655950573 0.9916103752242188
vn 0.1288146839000437 0.010753648655950573 -0.9916103752242188
vn -0.6640960742668309 0.0 0.7476472457940202
vn 0.6640960742668309 0.0 -0.7476472457940202
vn -0.8714509675740056 0.0 0.4904826307977981
vn 0.8714509675740056 0.0 -0.4904826307977981
usemtl material_0_0
f 1//1 2//2 3//3
f 4//4 5//5 6//6
f 7//7 1//1 3//3
f 1//1 7//7 8//8
f 8//8 7//7 9//9
f 10//10 11//11 12//12
f 12//12 11//11 6//6
f 4//4 6//6 11//11
f 13//13 14//14 15//13
f 16//15 17//16 18//15
f 2//2 19//17 3//3
f 19//17 2//2 20//17
f 20//17 2//2 21//17
f 21//17 2//2 22//17
f 22//17 2//2 23//17
f 23//17 2//2 24//17
f 24//17 2//2 25//17
f 25//17 2//2 26//17
f 26//17 2//2 27//17
f 27//17 2//2 28//17
f 28//17 2//2 29//17
f 29//17 2//2 30//17
f 30//17 2//2 31//17
f 32//18 5//5 33//18
f 33//18 5//5 34//18
f 34//18 5//5 35//18
f 35//18 5//5 36//18
f 36//18 5//5 37//18
f 37//18 5//5 38//18
f 38//18 5//5 39//18
f 39//18 5//5 40//18
f 40//18 5//5 41//18
f 41//18 5//5 42//18
f 42//18 5//5 43//18
f 43//18 5//5 44//18
f 4//4 44//18 5//5
f 45//19 3//3 46//19
f 3//3 45//19 7//7
f 11//11 47//20 4//4
f 48//20 4//4 47//20
f 7//7 49//21 9//9
f 10//10 50//22 11//11
f 51//13 52//23 53//13
f 52//23 51//13 54//24
f 54//24 51//13 55//13
f 56//15 57//15 58//25
f 58//25 57//15 59//26
f 60//15 59//26 57//15
f 14//14 61//13 62//27
f 61//13 14//14 63//13
f 63//13 14//14 64//13
f 65//15 17//16 66//15
f 66//15 17//16 67//15
f 68//28 67//15 17//16
f 15//13 14//14 69//29
f 70//30 17//16 16//15
f 69//29 14//14 71//31
f 72//32 17//16 70//30
f 71//31 14//14 73//33
f 74//34 17//16 72//32
f 73//33 14//14 75//35
f 76//36 17//16 74//34
f 75//35 77//37 78//38
f 79//39 80//40 76//36
f 78//38 81//41 82//42
f 83//43 84//44 79//39
f 82//42 81//41 85//45
f 86//46 84//44 83//43
f 81//41 87//47 85//45
f 86//46 88//48 84//44
f 89//49 90//50 87//47
f 88//48 91//51 92//52
f 89//49 93//53 90//50
f 91//51 94//54 92//52
f 95//55 96//56 93//53
f 94//54 97//57 98//58
f 96//56 99//59 100//60
f 101//61 102//62 97//57
f 100//60 99//59 103//63
f 104//64 102//62 101//61
f 103//63 105//65 106//66
f 105//65 103//63 107//67
f 107//67 103//63 99//59
f 102//62 104//64 108//68
f 108//68 104//64 109//69
f 110//70 109//69 104//64
f 111//15 112//15 113//15
f 112//15 111//15 114//15
f 115//13 116//13 117//13
f 118//13 117//13 116//13
f 119//71 120//72 121//72
f 120//72 119//71 122//73
f 123//74 124//75 125//76
f 126//76 125//76 124//75
f 106//66 127//77 128//77
f 127//77 106//66 105//65
f 109//69 110//70 129//78
f 130//78 129//78 110//70
f 7//7 131//79 49//21
f 131//79 7//7 132//79
f 132//79 7//7 133//79
f 133//79 7//7 134//79
f 134//79 7//7 135//79
f 135//79 7//7 136//79
f 136//79 7//7 137//79
f 137//79 7//7 138//79
f 138//79 7//7 139//79
f 139//79 7//7 140//79
f 140//79 7//7 141//79
f 141//79 7//7 142//79
f 142//79 7//7 143//79
f 144//80 11//11 145//80
f 145//80 11//11 146//80
f 146//80 11//11 147//80
f 147//80 11//11 148//80
f 148//80 11//11 149//80
f 149//80 11//11 150//80
f 150//80 11//11 151//80
f 151//80 11//11 152//80
f 152//80 11//11 153//80
f 153//80 11//11 154//80
f 154//80 11//11 155//80
f 155//80 11//11 156//80
f 50//22 156//80 11//11
f 157//13 158//13 54//24
f 58//25 159//15 160//15
f 54//24 161//81 52//23
f 161//81 54//24 162//82
f 163//83 58//25 164//84
f 59//26 164//84 58//25
f 165//85 166//85 167//85
f 166//85 168//85 169//85
f 168//85 166//85 165//85
f 168//85 165//85 170//85
f 168//85 170//85 171//85
f 168//85 171//85 172//85
f 168//85 172//85 173//85
f 168//85 173//85 174//85
f 168//85 174//85 175//85
f 168//85 175//85 176//85
f 168//85 176//85 177//85
f 168//85 177//85 178//85
f 168//85 178//85 179//85
f 168//85 179//85 180//85
f 180//85 179//85 181//85
f 182//86 183//86 184//86
f 184//86 183//86 185//86
f 183//86 186//86 185//86
f 186//86 187//86 185//86
f 187//86 188//86 185//86
f 188//86 189//86 185//86
f 189//86 190//86 185//86
f 190//86 191//86 185//86
f 191//86 192//86 185//86
f 192//86 193//86 185//86
f 193//86 194//86 185//86
f 194//86 195//86 185//86
f 195//86 196//86 185//86
f 197//86 185//86 196//86
f 198//86 196//86 195//86
f 77//37 62//27 199//87
f 62//27 77//37 14//14
f 17//16 80//40 68//28
f 200//88 68//28 80//40
f 75//35 14//14 77//37
f 80//40 17//16 76//36
f 78//38 77//37 81//41
f 84//44 80//40 79//39
f 89//49 201//87 202//89
f 201//87 89//49 81//41
f 81//41 89//49 87//47
f 88//48 92//52 84//44
f 84//44 92//52 203//88
f 204//90 203//88 92//52
f 89//49 95//55 93//53
f 95//55 89//49 205//91
f 205//91 89//49 202//89
f 204//90 92//52 206//92
f 206//92 92//52 98//58
f 94//54 98//58 92//52
f 95//55 99//59 96//56
f 97//57 102//62 98//58
f 95//55 107//67 99//59
f 107//67 95//55 205//91
f 206//92 98//58 108//68
f 102//62 108//68 98//58
f 207//93 122//73 119//71
f 122//73 207//93 208//94
f 208//94 207//93 209//95
f 210//96 211//97 212//98
f 212//98 211//97 123//74
f 124//75 123//74 211//97
f 213//99 208//94 209//95
f 210//96 212//98 214//100
f 215//101 213//99 209//95
f 210//96 214//100 216//102
f 217//103 215//101 218//104
f 219//105 216//102 220//106
f 221//107 222//108 217//103
f 220//106 223//109 224//110
f 225//111 222//108 221//107
f 224//110 223//109 226//112
f 227//113 228//114 225//111
f 226//112 229//115 230//116
f 231//117 228//114 227//113
f 230//116 229//115 232//118
f 233//119 231//117 227//113
f 230//116 232//118 234//120
f 235//121 233//119 162//82
f 163//83 234//120 236//122
f 237//123 235//121 54//24
f 58//25 236//122 238//124
f 239//125 237//123 54//24
f 58//25 238//124 240//126
f 241//127 239//125 54//24
f 58//25 240//126 242//128
f 158//13 241//127 54//24
f 58//25 242//128 159//15
f 235//121 162//82 54//24
f 58//25 163//83 236//122
f 162//82 243//81 161//81
f 243//81 162//82 227//113
f 230//116 163//83 244//84
f 164//84 244//84 163//83
f 227//113 245//129 246//81
f 245//129 227//113 221//107
f 221//107 227//113 225//111
f 226//112 230//116 224//110
f 224//110 230//116 247//130
f 248//84 247//130 230//116
f 245//129 218//104 249//131
f 218//104 245//129 217//103
f 217//103 245//129 221//107
f 224//110 247//130 220//106
f 220//106 247//130 219//105
f 250//132 219//105 247//130
f 249//131 209//95 207//93
f 209//95 249//131 218//104
f 219//105 250//132 210//96
f 211//97 210//96 250//132
f 81//41 199//87 251//87
f 199//87 81//41 77//37
f 80//40 84//44 200//88
f 252//88 200//88 84//44
f 218//104 215//101 209//95
f 210//96 216//102 219//105
f 233//119 227//113 162//82
f 163//83 230//116 234//120
