# SSTK version 0.8.0
# 677
mtllib original-677.mtl
o #ID4140
v 0.273569 0.08273 0.549814
v 0.262478 0.073549 0.549814
v 0.261275 0.075633 0.549814
v 0.268857 0.077232 0.549814
v 0.270387 0.078003 0.549814
v 0.27162 0.07838 0.549814
v 0.27292 0.079871 0.549814
v 0.272658 0.078394 0.549814
v 0.274645 0.080867 0.549814
v 0.273599 0.078079 0.549814
v 0.274124 0.079667 0.549814
v 0.274397 0.0775 0.549814
v 0.275262 0.07917 0.549814
v 0.275001 0.07672 0.549814
v 0.275402 0.075625 0.549814
v 0.276267 0.078381 0.549814
v 0.275601 0.071101 0.549814
v 0.276381 0.071194 0.549814
v 0.277074 0.0773 0.549814
v 0.276927 0.072584 0.549814
v 0.277551 0.073595 0.549814
v 0.27765 0.075975 0.549814
v 0.277801 0.074733 0.549814
v 0.277093 0.071106 0.549814
v 0.278321 0.072344 0.549814
v 0.278298 0.070513 0.549814
v 0.279198 0.069451 0.549814
v 0.27951 0.071838 0.549814
v 0.279502 0.068731 0.549814
v 0.279585 0.068007 0.549814
v 0.280494 0.071067 0.549814
v 0.280281 0.064478 0.549814
v 0.281022 0.065152 0.549814
v 0.281272 0.07003 0.549814
v 0.281556 0.06587 0.549814
v 0.281706 0.069132 0.549814
v 0.281883 0.066633 0.549814
v 0.281952 0.068267 0.549814
v 0.282011 0.067433 0.549814
v 0.27744 0.065519 0.549814
v 0.270893 0.058976 0.549814
v 0.269696 0.061048 0.549814
v 0.279331 0.063848 0.549814
v 0.278486 0.06619 0.549814
v 0.279123 0.066761 0.549814
v 0.279455 0.067332 0.549814
v 0.27348 0.07294 0.549814
v 0.266696 0.066245 0.549814
v 0.265492 0.068329 0.549814
v 0.273838 0.070369 0.549814
v 0.274622 0.073769 0.549814
v 0.275269 0.074653 0.549814
v 0.275402 0.075625 0.549814
v 0.275269 0.074653 0.549814
v 0.275601 0.071101 0.549814
v 0.274622 0.073769 0.549814
v 0.273838 0.070369 0.549814
v 0.27348 0.07294 0.549814
v 0.266696 0.066245 0.549814
v 0.265492 0.068329 0.549814
v 0.279585 0.068007 0.549814
v 0.279455 0.067332 0.549814
v 0.280281 0.064478 0.549814
v 0.279331 0.063848 0.549814
v 0.279123 0.066761 0.549814
v 0.278486 0.06619 0.549814
v 0.27744 0.065519 0.549814
v 0.270893 0.058976 0.549814
v 0.269696 0.061048 0.549814
v 0.282011 0.067433 0.549814
v 0.281952 0.068267 0.549814
v 0.281883 0.066633 0.549814
v 0.281706 0.069132 0.549814
v 0.281556 0.06587 0.549814
v 0.281272 0.07003 0.549814
v 0.281022 0.065152 0.549814
v 0.280494 0.071067 0.549814
v 0.27951 0.071838 0.549814
v 0.279502 0.068731 0.549814
v 0.279198 0.069451 0.549814
v 0.278321 0.072344 0.549814
v 0.278298 0.070513 0.549814
v 0.277093 0.071106 0.549814
v 0.276927 0.072584 0.549814
v 0.276381 0.071194 0.549814
v 0.277801 0.074733 0.549814
v 0.27765 0.075975 0.549814
v 0.277551 0.073595 0.549814
v 0.277074 0.0773 0.549814
v 0.276267 0.078381 0.549814
v 0.275262 0.07917 0.549814
v 0.275001 0.07672 0.549814
v 0.274397 0.0775 0.549814
v 0.274124 0.079667 0.549814
v 0.273599 0.078079 0.549814
v 0.27292 0.079871 0.549814
v 0.272658 0.078394 0.549814
v 0.274645 0.080867 0.549814
v 0.273569 0.08273 0.549814
v 0.27162 0.07838 0.549814
v 0.270387 0.078003 0.549814
v 0.268857 0.077232 0.549814
v 0.262478 0.073549 0.549814
v 0.261275 0.075633 0.549814
vn 0.0 0.0 -1.0
vn 0.0 0.0 1.0
usemtl material_0_0
f 1//1 2//1 3//1
f 2//1 1//1 4//1
f 4//1 1//1 5//1
f 5//1 1//1 6//1
f 6//1 1//1 7//1
f 6//1 7//1 8//1
f 7//1 1//1 9//1
f 7//1 10//1 8//1
f 10//1 7//1 11//1
f 10//1 11//1 12//1
f 12//1 11//1 13//1
f 12//1 13//1 14//1
f 14//1 13//1 15//1
f 15//1 13//1 16//1
f 15//1 16//1 17//1
f 17//1 16//1 18//1
f 18//1 16//1 19//1
f 18//1 19//1 20//1
f 20//1 19//1 21//1
f 21//1 19//1 22//1
f 21//1 22//1 23//1
f 20//1 24//1 18//1
f 24//1 20//1 25//1
f 24//1 25//1 26//1
f 26//1 25//1 27//1
f 27//1 25//1 28//1
f 27//1 28//1 29//1
f 29//1 28//1 30//1
f 30//1 28//1 31//1
f 30//1 31//1 32//1
f 32//1 31//1 33//1
f 33//1 31//1 34//1
f 33//1 34//1 35//1
f 35//1 34//1 36//1
f 35//1 36//1 37//1
f 37//1 36//1 38//1
f 37//1 38//1 39//1
f 40//1 41//1 42//1
f 41//1 40//1 43//1
f 43//1 40//1 44//1
f 43//1 44//1 45//1
f 43//1 45//1 46//1
f 43//1 46//1 32//1
f 32//1 46//1 30//1
f 47//1 48//1 49//1
f 48//1 47//1 50//1
f 50//1 47//1 51//1
f 50//1 51//1 17//1
f 17//1 51//1 52//1
f 17//1 52//1 15//1
f 53//2 54//2 55//2
f 54//2 56//2 55//2
f 55//2 56//2 57//2
f 56//2 58//2 57//2
f 57//2 58//2 59//2
f 60//2 59//2 58//2
f 61//2 62//2 63//2
f 63//2 62//2 64//2
f 62//2 65//2 64//2
f 65//2 66//2 64//2
f 66//2 67//2 64//2
f 64//2 67//2 68//2
f 69//2 68//2 67//2
f 70//2 71//2 72//2
f 71//2 73//2 72//2
f 72//2 73//2 74//2
f 73//2 75//2 74//2
f 74//2 75//2 76//2
f 75//2 77//2 76//2
f 76//2 77//2 63//2
f 63//2 77//2 61//2
f 77//2 78//2 61//2
f 61//2 78//2 79//2
f 79//2 78//2 80//2
f 78//2 81//2 80//2
f 80//2 81//2 82//2
f 82//2 81//2 83//2
f 81//2 84//2 83//2
f 85//2 83//2 84//2
f 86//2 87//2 88//2
f 87//2 89//2 88//2
f 88//2 89//2 84//2
f 84//2 89//2 85//2
f 89//2 90//2 85//2
f 85//2 90//2 55//2
f 55//2 90//2 53//2
f 90//2 91//2 53//2
f 53//2 91//2 92//2
f 92//2 91//2 93//2
f 91//2 94//2 93//2
f 93//2 94//2 95//2
f 94//2 96//2 95//2
f 97//2 95//2 96//2
f 98//2 99//2 96//2
f 97//2 96//2 100//2
f 96//2 99//2 100//2
f 100//2 99//2 101//2
f 101//2 99//2 102//2
f 102//2 99//2 103//2
f 104//2 103//2 99//2
