# SSTK version 0.8.0
# 352
mtllib original-352.mtl
o #ID2473
v -0.454059 -0.278342 -0.43919
v -0.451847 -0.035903 -0.44246
v -0.451847 -0.278342 -0.44246
v -0.454059 -0.035903 -0.43919
v -0.454059 -0.035903 -0.43919
v -0.454059 -0.278342 -0.43919
v -0.451847 -0.035903 -0.44246
v -0.451847 -0.278342 -0.44246
v -0.456102 -0.278342 -0.435783
v -0.456102 -0.035903 -0.435783
v -0.456102 -0.035903 -0.435783
v -0.456102 -0.278342 -0.435783
v -0.450663 -0.035903 -0.444016
v -0.45066 -0.035903 -0.444021
v -0.450663 -0.035903 -0.444016
v -0.45066 -0.035903 -0.444021
v -0.457969 -0.278342 -0.432249
v -0.457969 -0.035903 -0.432249
v -0.457969 -0.035903 -0.432249
v -0.457969 -0.278342 -0.432249
v -0.449473 -0.278342 -0.445582
v -0.45066 -0.035903 -0.444021
v -0.449473 -0.035795 -0.445582
v -0.449473 -0.278342 -0.445582
v -0.45066 -0.035903 -0.444021
v -0.449473 -0.035795 -0.445582
v -0.459654 -0.035903 -0.4286
v -0.459654 -0.278342 -0.4286
v -0.459654 -0.278342 -0.4286
v -0.459654 -0.035903 -0.4286
v -0.446944 -0.278342 -0.448544
v -0.447312 -0.035337 -0.448113
v -0.446944 -0.035183 -0.448544
v -0.449045 -0.035761 -0.446083
v -0.449045 -0.035761 -0.446083
v -0.447312 -0.035337 -0.448113
v -0.446944 -0.278342 -0.448544
v -0.446944 -0.035183 -0.448544
v -0.461151 -0.278342 -0.424848
v -0.461151 -0.035903 -0.424848
v -0.461151 -0.035903 -0.424848
v -0.461151 -0.278342 -0.424848
v -0.44427 -0.050761 -0.451339
v -0.445481 -0.034638 -0.450074
v -0.44427 -0.033983 -0.451339
v -0.44427 -0.278342 -0.451339
v -0.445481 -0.034638 -0.450074
v -0.44427 -0.278342 -0.451339
v -0.44427 -0.050761 -0.451339
v -0.44427 -0.033983 -0.451339
v -0.462456 -0.278342 -0.421005
v -0.462456 -0.035903 -0.421005
v -0.462456 -0.035903 -0.421005
v -0.462456 -0.278342 -0.421005
v -0.463563 -0.278342 -0.417085
v -0.463563 -0.035903 -0.417085
v -0.463563 -0.035903 -0.417085
v -0.463563 -0.278342 -0.417085
v -0.464471 -0.278342 -0.413099
v -0.464471 -0.035903 -0.413099
v -0.464471 -0.035903 -0.413099
v -0.464471 -0.278342 -0.413099
v -0.465175 -0.278342 -0.409061
v -0.465175 -0.035903 -0.409061
v -0.465175 -0.035903 -0.409061
v -0.465175 -0.278342 -0.409061
v -0.467319 -0.278342 -0.383254
v -0.467319 -0.035903 -0.383254
v -0.467319 -0.035903 -0.383254
v -0.467319 -0.278342 -0.383254
v -0.469171 -0.035903 -0.357418
v -0.469171 -0.278342 -0.357418
v -0.469171 -0.278342 -0.357418
v -0.469171 -0.035903 -0.357418
v -0.470732 -0.278342 -0.331557
v -0.470732 -0.035903 -0.331557
v -0.470732 -0.035903 -0.331557
v -0.470732 -0.278342 -0.331557
v -0.472 -0.278342 -0.305676
v -0.471864 -0.035903 -0.308445
v -0.471923 -0.035781 -0.307246
v -0.471981 -0.035418 -0.306067
v -0.472 -0.035212 -0.305676
v -0.472 -0.035212 -0.305676
v -0.472 -0.278342 -0.305676
v -0.471981 -0.035418 -0.306067
v -0.471923 -0.035781 -0.307246
v -0.471864 -0.035903 -0.308445
v -0.472976 -0.278342 -0.279778
v -0.472028 -0.034819 -0.304929
v -0.472069 -0.033995 -0.303851
v -0.472107 -0.03296 -0.302852
v -0.472141 -0.031732 -0.301949
v -0.472171 -0.030332 -0.301156
v -0.472196 -0.028783 -0.300489
v -0.472216 -0.027113 -0.299957
v -0.47223 -0.025349 -0.299571
v -0.472239 -0.023522 -0.299336
v -0.472242 -0.021664 -0.299258
v -0.472 0.187785 -0.305676
v -0.472976 0.206536 -0.279778
v -0.472 0.206536 -0.305676
v -0.472015 0.187573 -0.305271
v -0.472059 0.186699 -0.304129
v -0.472098 0.185602 -0.303069
v -0.472134 0.1843 -0.302111
v -0.472166 0.182815 -0.301271
v -0.472193 0.181173 -0.300563
v -0.472214 0.179401 -0.299999
v -0.47223 0.177531 -0.29959
v -0.472239 0.175594 -0.299341
v -0.472242 0.173623 -0.299258
v -0.472976 -0.278342 -0.279778
v -0.472242 -0.021664 -0.299258
v -0.472976 0.206536 -0.279778
v -0.472242 0.173623 -0.299258
v -0.472239 0.175594 -0.299341
v -0.47223 0.177531 -0.29959
v -0.472214 0.179401 -0.299999
v -0.472193 0.181173 -0.300563
v -0.472166 0.182815 -0.301271
v -0.472134 0.1843 -0.302111
v -0.472098 0.185602 -0.303069
v -0.472059 0.186699 -0.304129
v -0.472015 0.187573 -0.305271
v -0.472 0.187785 -0.305676
v -0.472 0.206536 -0.305676
v -0.472239 -0.023522 -0.299336
v -0.47223 -0.025349 -0.299571
v -0.472216 -0.027113 -0.299957
v -0.472196 -0.028783 -0.300489
v -0.472171 -0.030332 -0.301156
v -0.472141 -0.031732 -0.301949
v -0.472107 -0.03296 -0.302852
v -0.472069 -0.033995 -0.303851
v -0.472028 -0.034819 -0.304929
v -0.470732 0.188722 -0.331557
v -0.470732 0.206536 -0.331557
v -0.471837 0.188722 -0.308999
v -0.4719 0.188593 -0.307728
v -0.471961 0.188208 -0.306478
v -0.471961 0.188208 -0.306478
v -0.4719 0.188593 -0.307728
v -0.471837 0.188722 -0.308999
v -0.470732 0.188722 -0.331557
v -0.470732 0.206536 -0.331557
v -0.469171 0.206536 -0.357418
v -0.469171 0.188722 -0.357418
v -0.469171 0.206536 -0.357418
v -0.469171 0.188722 -0.357418
v -0.467319 0.206536 -0.383254
v -0.467319 0.188722 -0.383254
v -0.467319 0.206536 -0.383254
v -0.467319 0.188722 -0.383254
v -0.465175 0.206536 -0.409061
v -0.465175 0.188722 -0.409061
v -0.465175 0.206536 -0.409061
v -0.465175 0.188722 -0.409061
v -0.464471 0.188722 -0.413099
v -0.464471 0.206536 -0.413099
v -0.464471 0.188722 -0.413099
v -0.464471 0.206536 -0.413099
v -0.463563 0.206536 -0.417085
v -0.463563 0.188722 -0.417085
v -0.463563 0.206536 -0.417085
v -0.463563 0.188722 -0.417085
v -0.462456 0.188722 -0.421005
v -0.462456 0.206536 -0.421005
v -0.462456 0.188722 -0.421005
v -0.462456 0.206536 -0.421005
v -0.461151 0.188722 -0.424848
v -0.461151 0.206536 -0.424848
v -0.461151 0.188722 -0.424848
v -0.461151 0.206536 -0.424848
v -0.459654 0.188722 -0.4286
v -0.459654 0.206536 -0.4286
v -0.459654 0.188722 -0.4286
v -0.459654 0.206536 -0.4286
v -0.457969 0.206536 -0.432249
v -0.457969 0.188722 -0.432249
v -0.457969 0.206536 -0.432249
v -0.457969 0.188722 -0.432249
v -0.456102 0.206536 -0.435783
v -0.456102 0.188722 -0.435783
v -0.456102 0.206536 -0.435783
v -0.456102 0.188722 -0.435783
v -0.454059 0.188722 -0.43919
v -0.454059 0.206536 -0.43919
v -0.454059 0.188722 -0.43919
v -0.454059 0.206536 -0.43919
v -0.451847 0.188722 -0.44246
v -0.451847 0.206536 -0.44246
v -0.451847 0.188722 -0.44246
v -0.451847 0.206536 -0.44246
v -0.44956 0.188722 -0.445467
v -0.449473 0.206536 -0.445582
v -0.44956 0.188722 -0.445467
v -0.449473 0.206536 -0.445582
v -0.44956 0.188722 -0.445467
v -0.449473 0.188722 -0.445582
v -0.449473 0.188722 -0.445582
v -0.44956 0.188722 -0.445467
v -0.446944 0.206536 -0.448544
v -0.446944 0.188722 -0.448544
v -0.446944 0.206536 -0.448544
v -0.446944 0.188722 -0.448544
v -0.44427 0.206536 -0.451339
v -0.44427 0.188722 -0.451339
v -0.44427 0.206536 -0.451339
v -0.44427 0.188722 -0.451339
vn -0.8432863826345369 0.0 -0.5374644889322063
vn -0.8124130130966015 0.0 -0.58308240939965
vn 0.8432863826345369 0.0 0.5374644889322063
vn 0.8124130130966015 0.0 0.58308240939965
vn -0.8712610416650065 0.0 -0.490819923471743
vn 0.8712610416650065 0.0 0.490819923471743
vn -0.7959375866650806 0.0 -0.6053786898576521
vn 0.7959375866650806 0.0 0.6053786898576521
vn -0.896372078413272 0.0 -0.44330248932424327
vn 0.896372078413272 0.0 0.44330248932424327
vn -0.7786143912816017 0.0 -0.6275026929736485
vn -0.7780126353370546 0.0 -0.6282486285348271
vn 0.7786143912816017 0.0 0.6275026929736485
vn 0.7780126353370546 0.0 0.6282486285348271
vn -0.918659616916125 0.0 -0.39505000727441936
vn 0.918659616916125 0.0 0.39505000727441936
vn -0.7418759046053245 0.0 -0.6705372041624771
vn -0.7606764379081592 0.0 -0.6491312323493259
vn -0.7387110943281578 0.0 -0.6740221948248408
vn 0.7606764379081592 0.0 0.6491312323493259
vn 0.7418759046053245 0.0 0.6705372041624771
vn 0.7387110943281578 0.0 0.6740221948248408
vn -0.9381663809537919 0.0 -0.34618469297192284
vn 0.9381663809537919 0.0 0.34618469297192284
vn -0.6389440844624614 0.0 -0.7692531812936666
vn -0.7224732131347618 0.0 -0.6913989125698223
vn -0.5285425907238134 0.0 -0.8489067851012616
vn 0.7224732131347618 0.0 0.6913989125698223
vn 0.6389440844624614 0.0 0.7692531812936666
vn 0.5285425907238134 0.0 0.8489067851012616
vn -0.9549349352423282 0.0 -0.29681521095410657
vn 0.9549349352423282 0.0 0.29681521095410657
vn -0.969005919069523 0.0 -0.24703750486156723
vn 0.969005919069523 0.0 0.24703750486156723
vn -0.9804161242674465 0.0 -0.19693710487462474
vn 0.9804161242674465 0.0 0.19693710487462474
vn -0.9918504829185792 0.0 -0.12740729780582086
vn 0.9918504829185792 0.0 0.12740729780582086
vn -0.9970188167361054 0.0 -0.07715879129519888
vn 0.9970188167361054 0.0 0.07715879129519888
vn -0.9978278556073449 0.0 -0.06587541706924932
vn 0.9978278556073449 0.0 0.06587541706924932
vn -0.9985089497171237 0.0 -0.054588252718023623
vn 0.9985089497171237 0.0 0.054588252718023623
vn -0.9990622044572743 0.0 -0.04329794019317195
vn -0.9988015728373819 0.0 -0.04894300866898463
vn -0.9991360699097771 0.0 -0.04155855874841242
vn 0.9991360699097771 0.0 0.04155855874841242
vn 0.9990622044572743 0.0 0.04329794019317195
vn 0.9988015728373819 0.0 0.04894300866898463
vn -0.9994877042789521 0.0 -0.032005140137018655
vn -0.9992909315930828 0.0 -0.03765148119037042
vn 0.9994877042789521 0.0 0.032005140137018655
vn 0.9992909315930828 0.0 0.03765148119037042
vn -0.7237964935912453 -0.012761009887009579 -0.689895493891417
vn -0.7184965853994992 0.0 -0.6955304858661912
vn 0.7237964935912453 0.012761009887009579 0.689895493891417
vn 0.7184965853994992 0.0 0.6955304858661912
usemtl material_0_0
f 1//1 2//2 3//2
f 2//2 1//1 4//1
f 5//3 6//3 7//4
f 8//4 7//4 6//3
f 9//5 4//1 1//1
f 4//1 9//5 10//5
f 11//6 12//6 5//3
f 6//3 5//3 12//6
f 3//2 13//7 14//7
f 13//7 3//2 2//2
f 7//4 8//4 15//8
f 16//8 15//8 8//4
f 17//9 10//5 9//5
f 10//5 17//9 18//9
f 19//10 20//10 11//6
f 12//6 11//6 20//10
f 21//11 22//7 23//12
f 22//7 21//11 3//2
f 8//4 24//13 25//8
f 26//14 25//8 24//13
f 17//9 27//15 18//9
f 27//15 17//9 28//15
f 29//16 20//10 30//16
f 19//10 30//16 20//10
f 31//17 32//18 33//19
f 32//18 31//17 21//11
f 32//18 21//11 34//18
f 34//18 21//11 23//12
f 26//14 24//13 35//20
f 35//20 24//13 36//20
f 24//13 37//21 36//20
f 38//22 36//20 37//21
f 39//23 27//15 28//15
f 27//15 39//23 40//23
f 41//24 42//24 30//16
f 29//16 30//16 42//24
f 43//25 44//26 45//27
f 44//26 43//25 46//26
f 44//26 46//26 31//17
f 44//26 31//17 33//19
f 38//22 37//21 47//28
f 37//21 48//28 47//28
f 48//28 49//29 47//28
f 50//30 47//28 49//29
f 51//31 40//23 39//23
f 40//23 51//31 52//31
f 53//32 54//32 41//24
f 42//24 41//24 54//32
f 55//33 52//31 51//31
f 52//31 55//33 56//33
f 57//34 58//34 53//32
f 54//32 53//32 58//34
f 59//35 56//33 55//33
f 56//33 59//35 60//35
f 61//36 62//36 57//34
f 58//34 57//34 62//36
f 63//37 60//35 59//35
f 60//35 63//37 64//37
f 65//38 66//38 61//36
f 62//36 61//36 66//38
f 67//39 64//37 63//37
f 64//37 67//39 68//39
f 69//40 70//40 65//38
f 66//38 65//38 70//40
f 67//39 71//41 68//39
f 71//41 67//39 72//41
f 73//42 70//40 74//42
f 69//40 74//42 70//40
f 75//43 71//41 72//41
f 71//41 75//43 76//43
f 77//44 78//44 74//42
f 73//42 74//42 78//44
f 79//45 76//43 75//43
f 76//43 79//45 80//46
f 80//46 79//45 81//46
f 81//46 79//45 82//46
f 82//46 79//45 83//47
f 84//48 85//49 86//50
f 86//50 85//49 87//50
f 87//50 85//49 88//50
f 88//50 85//49 77//44
f 78//44 77//44 85//49
f 89//51 83//47 79//45
f 83//47 89//51 90//52
f 90//52 89//51 91//52
f 91//52 89//51 92//52
f 92//52 89//51 93//52
f 93//52 89//51 94//52
f 94//52 89//51 95//52
f 95//52 89//51 96//52
f 96//52 89//51 97//52
f 97//52 89//51 98//52
f 98//52 89//51 99//52
f 100//47 101//51 102//45
f 101//51 100//47 103//52
f 101//51 103//52 104//52
f 101//51 104//52 105//52
f 101//51 105//52 106//52
f 101//51 106//52 107//52
f 101//51 107//52 108//52
f 101//51 108//52 109//52
f 101//51 109//52 110//52
f 101//51 110//52 111//52
f 101//51 111//52 112//52
f 101//51 112//52 99//52
f 101//51 99//52 89//51
f 113//53 114//54 115//53
f 114//54 116//54 115//53
f 116//54 117//54 115//53
f 117//54 118//54 115//53
f 118//54 119//54 115//53
f 119//54 120//54 115//53
f 120//54 121//54 115//53
f 121//54 122//54 115//53
f 122//54 123//54 115//53
f 123//54 124//54 115//53
f 124//54 125//54 115//53
f 125//54 126//48 115//53
f 127//49 115//53 126//48
f 114//54 113//53 128//54
f 128//54 113//53 129//54
f 129//54 113//53 130//54
f 130//54 113//53 131//54
f 131//54 113//53 132//54
f 132//54 113//53 133//54
f 133//54 113//53 134//54
f 134//54 113//53 135//54
f 135//54 113//53 136//54
f 136//54 113//53 84//48
f 85//49 84//48 113//53
f 137//43 102//45 138//43
f 102//45 137//43 139//46
f 102//45 139//46 140//46
f 102//45 140//46 141//46
f 102//45 141//46 100//47
f 126//48 142//50 127//49
f 142//50 143//50 127//49
f 143//50 144//50 127//49
f 144//50 145//44 127//49
f 146//44 127//49 145//44
f 137//43 147//41 148//41
f 147//41 137//43 138//43
f 146//44 145//44 149//42
f 150//42 149//42 145//44
f 148//41 151//39 152//39
f 151//39 148//41 147//41
f 149//42 150//42 153//40
f 154//40 153//40 150//42
f 152//39 155//37 156//37
f 155//37 152//39 151//39
f 153//40 154//40 157//38
f 158//38 157//38 154//40
f 159//35 155//37 160//35
f 155//37 159//35 156//37
f 158//38 161//36 157//38
f 162//36 157//38 161//36
f 159//35 163//33 164//33
f 163//33 159//35 160//35
f 162//36 161//36 165//34
f 166//34 165//34 161//36
f 167//31 163//33 168//31
f 163//33 167//31 164//33
f 166//34 169//32 165//34
f 170//32 165//34 169//32
f 171//23 168//31 172//23
f 168//31 171//23 167//31
f 169//32 173//24 170//32
f 174//24 170//32 173//24
f 175//15 172//23 176//15
f 172//23 175//15 171//23
f 173//24 177//16 174//24
f 178//16 174//24 177//16
f 175//15 179//9 180//9
f 179//9 175//15 176//15
f 178//16 177//16 181//10
f 182//10 181//10 177//16
f 180//9 183//5 184//5
f 183//5 180//9 179//9
f 181//10 182//10 185//6
f 186//6 185//6 182//10
f 187//1 183//5 188//1
f 183//5 187//1 184//5
f 186//6 189//3 185//6
f 190//3 185//6 189//3
f 191//2 188//1 192//2
f 188//1 191//2 187//1
f 189//3 193//4 190//3
f 194//4 190//3 193//4
f 195//7 192//2 196//11
f 192//2 195//7 191//2
f 193//4 197//8 194//4
f 198//13 194//4 197//8
f 199//7 196//11 200//11
f 201//13 198//13 202//8
f 200//11 203//17 204//17
f 203//17 200//11 196//11
f 198//13 201//13 205//21
f 206//21 205//21 201//13
f 204//17 207//55 208//56
f 207//55 204//17 203//17
f 205//21 206//21 209//57
f 210//58 209//57 206//21
