# SSTK version 0.8.0
# 503
mtllib original-503.mtl
o #ID3338
v 0.339586 0.230528 -0.448925
v 0.341475 0.230787 -0.448776
v 0.341446 0.230449 -0.448909
v 0.339611 0.230817 -0.448811
v 0.339561 0.230234 -0.449021
v 0.341417 0.230106 -0.449021
v 0.342153 0.239028 -0.446804
v 0.340301 0.239204 -0.446804
vn 0.0223730296395612 0.33614439458457396 -0.9415446848313241
vn 0.022783579819890938 0.29779349764587865 -0.9543583924555934
vn 0.017044230683230844 0.24722320991012864 -0.968808638835425
vn 0.021182650215348733 0.22219590225890531 -0.9747719099098031
usemtl material_0_0
f 1//1 2//2 3//1
f 2//2 1//1 4//2
f 5//3 3//1 6//3
f 3//1 5//3 1//1
f 4//2 7//4 2//2
f 7//4 4//2 8//4
