# SSTK version 0.8.0
# 39
mtllib original-39.mtl
o #ID83
v 0.149342 0.036258 -0.232386
v 0.136622 0.033691 -0.232386
v 0.136622 0.036258 -0.232386
v 0.146774 0.033691 -0.232386
v 0.146774 -0.017653 -0.232386
v 0.136622 -0.020221 -0.232386
v 0.136622 -0.017653 -0.232386
v 0.149342 -0.020221 -0.232386
v 0.149342 0.036258 -0.232386
v 0.146774 -0.017653 -0.232386
v 0.149342 -0.020221 -0.232386
v 0.136622 -0.020221 -0.232386
v 0.136622 -0.017653 -0.232386
v 0.146774 0.033691 -0.232386
v 0.136622 0.033691 -0.232386
v 0.136622 0.036258 -0.232386
vn 0.0 5.584275789912395e-09 -1.0
vn 0.0 -5.584275789912395e-09 1.0
usemtl material_0_0
f 1//1 2//1 3//1
f 2//1 1//1 4//1
f 4//1 1//1 5//1
f 5//1 6//1 7//1
f 6//1 5//1 8//1
f 8//1 5//1 1//1
usemtl material_1_0
f 9//2 10//2 11//2
f 11//2 10//2 12//2
f 13//2 12//2 10//2
f 10//2 9//2 14//2
f 14//2 9//2 15//2
f 16//2 15//2 9//2
