# SSTK version 0.8.0
# 402
mtllib original-402.mtl
o #ID2289
v -0.337441 -0.091522 -0.470566
v -0.335857 -0.091711 -0.470733
v -0.337549 -0.091782 -0.470733
v -0.335857 -0.09123 -0.47042
v -0.337263 -0.091289 -0.47042
v -0.337628 -0.091974 -0.470838
v -0.335857 -0.092212 -0.471011
v -0.33767 -0.092288 -0.471011
v -0.337143 -0.091133 -0.470307
v -0.335857 -0.090772 -0.470075
v -0.336755 -0.090835 -0.470094
v -0.336686 -0.090807 -0.470075
v -0.334192 -0.091522 -0.470564
v -0.334083 -0.091785 -0.470733
v -0.334368 -0.091293 -0.47042
v -0.337692 -0.09246 -0.471091
v -0.335857 -0.092731 -0.471255
v -0.337647 -0.092806 -0.471255
v -0.334005 -0.091974 -0.470836
v -0.333963 -0.092292 -0.471011
v -0.336302 -0.090648 -0.469951
v -0.335857 -0.090589 -0.469917
v -0.33449 -0.091133 -0.470304
v -0.334879 -0.090835 -0.470092
v -0.334938 -0.090811 -0.470075
v -0.337628 -0.092945 -0.471309
v -0.335857 -0.093266 -0.471462
v -0.337468 -0.093333 -0.471462
v -0.333941 -0.09246 -0.47109
v -0.333987 -0.09281 -0.471255
v -0.335331 -0.090648 -0.469948
v -0.335817 -0.090584 -0.469911
v -0.336302 -0.094271 -0.471462
v -0.335331 -0.094271 -0.471462
v -0.335817 -0.094335 -0.471462
v -0.334879 -0.094084 -0.471462
v -0.336755 -0.094084 -0.471462
v -0.33449 -0.093786 -0.471462
v -0.337143 -0.093786 -0.471462
v -0.334192 -0.093397 -0.471462
v -0.337441 -0.093397 -0.471462
v -0.334167 -0.093337 -0.471462
v -0.334005 -0.092945 -0.471308
vn -0.022822110270658568 0.5448569064617242 -0.8382184099408423
vn 0.0 0.5165135935885269 -0.8562789893710262
vn -0.021601689632510163 0.5157203912265191 -0.8564845854294092
vn 0.0 0.5741258004971784 -0.818767100709032
vn -0.024015379393717416 0.5733451855255584 -0.8189618793248187
vn -0.020355679509420882 0.4859732882878706 -0.8737365789426377
vn 0.0 0.4564567901894654 -0.8897455808768765
vn -0.019085450384010504 0.4556476091678981 -0.8899556179064313
vn -0.025180219310563738 0.6011546835403403 -0.7987358781305529
vn 0.0 0.6290217203859084 -0.7773877251942894
vn -0.026315129358181803 0.6282494846771813 -0.7775667810353771
vn 0.022822110270658568 0.5448569064617242 -0.8382184099408423
vn 0.021601689632510163 0.5157203912265191 -0.8564845854294092
vn 0.024015379393717416 0.5733451855255584 -0.8189618793248187
vn -0.017792610213725347 0.4247822051024959 -0.9051207108723364
vn 0.0 0.3942390178622979 -0.919007941638684
vn -0.01647856999263495 0.3934107998241659 -0.9192150995891593
vn 0.020355679509420882 0.4859732882878706 -0.8737365789426377
vn 0.019085450384010504 0.4556476091678981 -0.8899556179064313
vn -0.02741889035808959 0.6546007085490583 -0.7554774098665042
vn 0.0 0.6548468808541862 -0.755761577903735
vn 0.025180219310563738 0.6011546835403403 -0.7987358781305529
vn 0.026315129358181803 0.6282494846771813 -0.7775667810353771
vn -0.015145019889460966 0.36157349736098143 -0.9322205931959968
vn 0.0 0.1886740920007043 -0.982039758364044
vn -0.0077041609683450914 0.18393029924426574 -0.9829090959614163
vn 0.017792610213725347 0.4247822051024959 -0.9051207108723364
vn 0.01647856999263495 0.3934107998241659 -0.9192150995891593
vn 0.02741889035808959 0.6546007085490583 -0.7554774098665042
vn 0.0 6.771665977795524e-08 -1.0
vn 0.007704199966030102 0.18393029918900147 -0.9829090956660885
vn 0.015145019889460966 0.36157349736098143 -0.9322205931959968
usemtl material_0_0
f 1//1 2//2 3//3
f 2//2 1//1 4//4
f 4//4 1//1 5//5
f 6//6 7//7 8//8
f 7//7 6//6 2//2
f 2//2 6//6 3//3
f 9//9 4//4 5//5
f 4//4 9//9 10//10
f 10//10 9//9 11//9
f 10//10 11//9 12//11
f 2//2 13//12 14//13
f 13//12 2//2 4//4
f 13//12 4//4 15//14
f 16//15 17//16 18//17
f 17//16 16//15 7//7
f 7//7 16//15 8//8
f 7//7 19//18 20//19
f 19//18 7//7 2//2
f 19//18 2//2 14//13
f 21//20 10//10 12//11
f 10//10 21//20 22//21
f 4//4 23//22 15//14
f 23//22 4//4 10//10
f 23//22 10//10 24//22
f 24//22 10//10 25//23
f 26//24 27//25 28//26
f 27//25 26//24 17//16
f 17//16 26//24 18//17
f 17//16 29//27 30//28
f 29//27 17//16 7//7
f 29//27 7//7 20//19
f 10//10 31//29 25//23
f 31//29 10//10 22//21
f 31//29 22//21 32//29
f 33//30 34//30 35//30
f 34//30 33//30 36//30
f 36//30 33//30 37//30
f 36//30 37//30 38//30
f 38//30 37//30 39//30
f 38//30 39//30 40//30
f 40//30 39//30 41//30
f 40//30 41//30 42//31
f 42//31 41//30 28//26
f 42//31 28//26 27//25
f 27//25 43//32 42//31
f 43//32 27//25 17//16
f 43//32 17//16 30//28
