# SSTK version 0.8.0
# 362
mtllib original-362.mtl
o #ID2535
v -0.424488 0.176034 -0.401402
v -0.424488 0.152463 -0.446678
v -0.424488 0.176034 -0.446678
v -0.424488 0.152463 -0.401402
v -0.424488 0.152463 -0.401402
v -0.424488 0.176034 -0.401402
v -0.424488 0.152463 -0.446678
v -0.424488 0.176034 -0.446678
v -0.424488 0.152463 -0.446678
v -0.417719 0.152463 -0.401402
v -0.417719 0.152463 -0.446678
v -0.424488 0.152463 -0.401402
v -0.424488 0.152463 -0.401402
v -0.424488 0.152463 -0.446678
v -0.417719 0.152463 -0.401402
v -0.417719 0.152463 -0.446678
v -0.417719 0.152463 -0.446678
v -0.424488 0.176034 -0.446678
v -0.424488 0.152463 -0.446678
v -0.417719 0.176034 -0.446678
v -0.417719 0.176034 -0.446678
v -0.417719 0.152463 -0.446678
v -0.424488 0.176034 -0.446678
v -0.424488 0.152463 -0.446678
v -0.424488 0.176034 -0.401402
v -0.417719 0.176034 -0.446678
v -0.417719 0.176034 -0.401402
v -0.424488 0.176034 -0.446678
v -0.424488 0.176034 -0.446678
v -0.424488 0.176034 -0.401402
v -0.417719 0.176034 -0.446678
v -0.417719 0.176034 -0.401402
v -0.424488 0.176034 -0.401402
v -0.417719 0.152463 -0.401402
v -0.424488 0.152463 -0.401402
v -0.417719 0.176034 -0.401402
v -0.417719 0.176034 -0.401402
v -0.424488 0.176034 -0.401402
v -0.417719 0.152463 -0.401402
v -0.424488 0.152463 -0.401402
vn 1.0 1.490117e-08 0.0
vn -1.490117e-08 1.0 0.0
vn 0.0 0.0 1.0
vn 1.490117e-08 -1.0 0.0
vn 0.0 0.0 -1.0
vn -1.0 -1.490117e-08 0.0
usemtl material_0_0
f 5//6 6//6 7//6
f 8//6 7//6 6//6
f 13//4 14//4 15//4
f 16//4 15//4 14//4
f 21//5 22//5 23//5
f 24//5 23//5 22//5
f 29//2 30//2 31//2
f 32//2 31//2 30//2
f 37//3 38//3 39//3
f 40//3 39//3 38//3
usemtl material_1_0
f 1//1 2//1 3//1
f 2//1 1//1 4//1
f 9//2 10//2 11//2
f 10//2 9//2 12//2
f 17//3 18//3 19//3
f 18//3 17//3 20//3
f 25//4 26//4 27//4
f 26//4 25//4 28//4
f 33//5 34//5 35//5
f 34//5 33//5 36//5
