# SSTK version 0.8.0
# 304
mtllib original-304.mtl
o #ID1673
v -0.308291 -0.312066 -0.162947
v -0.318103 -0.312066 -0.164907
v -0.308291 -0.312066 -0.164907
v -0.320302 -0.312066 -0.162947
v -0.318103 -0.312066 -0.171944
v -0.307906 -0.312066 -0.177598
v -0.320302 -0.312066 -0.179558
v -0.307906 -0.312066 -0.179558
v -0.318103 -0.312066 -0.177598
v -0.308914 -0.312066 -0.169995
v -0.308914 -0.312066 -0.171944
v -0.318103 -0.312066 -0.169995
vn 0.0 -1.0 0.0
usemtl material_0_0
f 1//1 2//1 3//1
f 2//1 1//1 4//1
f 2//1 4//1 5//1
f 6//1 7//1 8//1
f 7//1 6//1 9//1
f 7//1 9//1 5//1
f 7//1 5//1 4//1
f 10//1 5//1 11//1
f 5//1 10//1 12//1
f 5//1 12//1 2//1
