# SSTK version 0.8.0
# 754
mtllib original-754.mtl
o #ID4804
v 0.040691 0.218832 0.10373
v 0.04361 0.22004 0.103673
v 0.04229 0.219494 0.103576
v 0.044802 0.220534 0.103963
v 0.039271 0.218243 0.104192
v 0.045868 0.220976 0.104448
v 0.038029 0.217729 0.104961
v 0.046807 0.221365 0.105125
v 0.036965 0.217288 0.106038
v 0.04229 0.219494 0.105623
v 0.041426 0.219136 0.105708
v 0.04063 0.218806 0.105962
v 0.039904 0.218505 0.106386
v 0.036262 0.216997 0.107088
v 0.039247 0.218233 0.106979
v 0.038702 0.218008 0.107712
v 0.035761 0.216789 0.108231
v 0.038313 0.217846 0.108556
v 0.03546 0.216665 0.109467
v 0.03808 0.21775 0.10951
v 0.03536 0.216623 0.110797
v 0.038002 0.217718 0.110576
v 0.038077 0.217749 0.111584
v 0.035474 0.21667 0.112177
v 0.038301 0.217841 0.112481
v 0.035816 0.216812 0.113425
v 0.038675 0.217996 0.113265
v 0.039198 0.218213 0.113937
v 0.036387 0.217049 0.114542
v 0.039843 0.21848 0.114476
v 0.04058 0.218785 0.11486
v 0.037186 0.21738 0.115528
v 0.04141 0.219129 0.115091
v 0.042332 0.219511 0.115168
v 0.038151 0.217779 0.116333
v 0.045499 0.220823 0.116095
v 0.043628 0.220048 0.117049
v 0.039219 0.218222 0.116908
v 0.040391 0.218707 0.117253
v 0.042659 0.219647 0.117288
v 0.041668 0.219236 0.117368
v 0.036314 0.217019 0.123924
v 0.044406 0.22037 0.121545
v 0.036314 0.217019 0.121545
v 0.045368 0.220769 0.113994
v 0.048363 0.222009 0.113508
v 0.046025 0.221041 0.113204
v 0.046398 0.221196 0.123924
v 0.044503 0.220411 0.114622
v 0.043476 0.219985 0.115031
v 0.047588 0.221688 0.105963
v 0.043675 0.220067 0.105864
v 0.044842 0.220551 0.106585
v 0.048181 0.221934 0.106927
v 0.045708 0.22091 0.107783
v 0.048587 0.222102 0.108017
v 0.046191 0.22111 0.109455
v 0.048805 0.222193 0.109234
v 0.048805 0.222193 0.109234
v 0.046191 0.22111 0.109455
v 0.048587 0.222102 0.108017
v 0.045708 0.22091 0.107783
v 0.048181 0.221934 0.106927
v 0.044842 0.220551 0.106585
v 0.047588 0.221688 0.105963
v 0.043675 0.220067 0.105864
v 0.04229 0.219494 0.105623
v 0.046807 0.221365 0.105125
v 0.036314 0.217019 0.123924
v 0.044406 0.22037 0.121545
v 0.046398 0.221196 0.123924
v 0.045499 0.220823 0.116095
v 0.037186 0.21738 0.115528
v 0.042332 0.219511 0.115168
v 0.043476 0.219985 0.115031
v 0.044503 0.220411 0.114622
v 0.045368 0.220769 0.113994
v 0.048363 0.222009 0.113508
v 0.046025 0.221041 0.113204
v 0.036314 0.217019 0.121545
v 0.041668 0.219236 0.117368
v 0.040391 0.218707 0.117253
v 0.042659 0.219647 0.117288
v 0.043628 0.220048 0.117049
v 0.039219 0.218222 0.116908
v 0.038151 0.217779 0.116333
v 0.04141 0.219129 0.115091
v 0.04058 0.218785 0.11486
v 0.036387 0.217049 0.114542
v 0.039843 0.21848 0.114476
v 0.039198 0.218213 0.113937
v 0.035816 0.216812 0.113425
v 0.038675 0.217996 0.113265
v 0.038301 0.217841 0.112481
v 0.035474 0.21667 0.112177
v 0.038077 0.217749 0.111584
v 0.03536 0.216623 0.110797
v 0.038002 0.217718 0.110576
v 0.03808 0.21775 0.10951
v 0.03546 0.216665 0.109467
v 0.038313 0.217846 0.108556
v 0.035761 0.216789 0.108231
v 0.038702 0.218008 0.107712
v 0.036262 0.216997 0.107088
v 0.039247 0.218233 0.106979
v 0.039904 0.218505 0.106386
v 0.036965 0.217288 0.106038
v 0.04063 0.218806 0.105962
v 0.041426 0.219136 0.105708
v 0.038029 0.217729 0.104961
v 0.045868 0.220976 0.104448
v 0.039271 0.218243 0.104192
v 0.044802 0.220534 0.103963
v 0.040691 0.218832 0.10373
v 0.04361 0.22004 0.103673
v 0.04229 0.219494 0.103576
vn -0.3826834162342326 0.9238795391929063 5.159360112130507e-09
vn 0.3826834162342326 -0.9238795391929063 -5.159360112130507e-09
usemtl material_0_0
f 59//2 60//2 61//2
f 60//2 62//2 61//2
f 61//2 62//2 63//2
f 62//2 64//2 63//2
f 63//2 64//2 65//2
f 64//2 66//2 65//2
f 66//2 67//2 65//2
f 68//2 65//2 67//2
f 69//2 70//2 71//2
f 70//2 72//2 71//2
f 73//2 74//2 72//2
f 74//2 75//2 72//2
f 75//2 76//2 72//2
f 76//2 77//2 72//2
f 72//2 77//2 71//2
f 71//2 77//2 78//2
f 79//2 78//2 77//2
f 80//2 70//2 69//2
f 81//2 82//2 83//2
f 83//2 82//2 84//2
f 82//2 85//2 84//2
f 85//2 86//2 84//2
f 84//2 86//2 72//2
f 73//2 72//2 86//2
f 74//2 73//2 87//2
f 87//2 73//2 88//2
f 73//2 89//2 88//2
f 88//2 89//2 90//2
f 90//2 89//2 91//2
f 89//2 92//2 91//2
f 91//2 92//2 93//2
f 93//2 92//2 94//2
f 92//2 95//2 94//2
f 94//2 95//2 96//2
f 95//2 97//2 96//2
f 96//2 97//2 98//2
f 98//2 97//2 99//2
f 97//2 100//2 99//2
f 99//2 100//2 101//2
f 100//2 102//2 101//2
f 101//2 102//2 103//2
f 102//2 104//2 103//2
f 103//2 104//2 105//2
f 105//2 104//2 106//2
f 104//2 107//2 106//2
f 106//2 107//2 108//2
f 108//2 107//2 109//2
f 109//2 107//2 67//2
f 67//2 107//2 68//2
f 107//2 110//2 68//2
f 68//2 110//2 111//2
f 110//2 112//2 111//2
f 111//2 112//2 113//2
f 112//2 114//2 113//2
f 113//2 114//2 115//2
f 116//2 115//2 114//2
usemtl material_1_0
f 1//1 2//1 3//1
f 2//1 1//1 4//1
f 4//1 1//1 5//1
f 4//1 5//1 6//1
f 6//1 5//1 7//1
f 6//1 7//1 8//1
f 8//1 7//1 9//1
f 8//1 9//1 10//1
f 10//1 9//1 11//1
f 11//1 9//1 12//1
f 12//1 9//1 13//1
f 13//1 9//1 14//1
f 13//1 14//1 15//1
f 15//1 14//1 16//1
f 16//1 14//1 17//1
f 16//1 17//1 18//1
f 18//1 17//1 19//1
f 18//1 19//1 20//1
f 20//1 19//1 21//1
f 20//1 21//1 22//1
f 22//1 21//1 23//1
f 23//1 21//1 24//1
f 23//1 24//1 25//1
f 25//1 24//1 26//1
f 25//1 26//1 27//1
f 27//1 26//1 28//1
f 28//1 26//1 29//1
f 28//1 29//1 30//1
f 30//1 29//1 31//1
f 31//1 29//1 32//1
f 31//1 32//1 33//1
f 33//1 32//1 34//1
f 35//1 36//1 32//1
f 36//1 35//1 37//1
f 37//1 35//1 38//1
f 37//1 38//1 39//1
f 37//1 39//1 40//1
f 40//1 39//1 41//1
f 42//1 43//1 44//1
f 45//1 46//1 47//1
f 46//1 45//1 48//1
f 48//1 45//1 36//1
f 36//1 45//1 49//1
f 36//1 49//1 50//1
f 36//1 50//1 34//1
f 36//1 34//1 32//1
f 48//1 36//1 43//1
f 48//1 43//1 42//1
f 10//1 51//1 8//1
f 51//1 10//1 52//1
f 51//1 52//1 53//1
f 51//1 53//1 54//1
f 54//1 53//1 55//1
f 54//1 55//1 56//1
f 56//1 55//1 57//1
f 56//1 57//1 58//1
