# SSTK version 0.8.0
# 714
mtllib original-714.mtl
o #ID4377
v 0.116123 0.101846 0.537562
v 0.145314 0.098003 0.535578
v 0.116123 0.101846 0.535578
v 0.145314 0.098003 0.537562
v 0.145314 0.098003 0.537562
v 0.116123 0.101846 0.537562
v 0.145314 0.098003 0.535578
v 0.116123 0.101846 0.535578
v 0.086933 0.098003 0.535578
v 0.086933 0.098003 0.537562
v 0.086933 0.098003 0.537562
v 0.086933 0.098003 0.535578
v 0.007183 -0.040127 0.537562
v 0.006473 -0.010937 0.537562
v 0.00334 -0.010937 0.537562
v 0.010209 -0.039317 0.537562
v 0.01845 -0.067329 0.537562
v 0.021163 -0.065762 0.537562
v 0.036374 -0.090687 0.537562
v 0.038589 -0.088472 0.537562
v 0.059732 -0.10861 0.537562
v 0.061298 -0.105897 0.537562
v 0.086933 -0.119877 0.537562
v 0.087744 -0.116851 0.537562
v 0.116123 -0.12372 0.537562
v 0.116123 -0.120588 0.537562
v 0.145314 -0.119877 0.537562
v 0.144503 -0.116851 0.537562
v 0.170949 -0.105897 0.537562
v 0.172515 -0.10861 0.537562
v 0.193658 -0.088472 0.537562
v 0.195873 -0.090687 0.537562
v 0.211084 -0.065762 0.537562
v 0.213797 -0.067329 0.537562
v 0.222038 -0.039317 0.537562
v 0.225064 -0.040127 0.537562
v 0.225774 -0.010937 0.537562
v 0.228907 -0.010937 0.537562
v 0.007183 0.018253 0.537562
v 0.010209 0.017443 0.537562
v 0.01845 0.045455 0.537562
v 0.021163 0.043888 0.537562
v 0.036374 0.068813 0.537562
v 0.038589 0.066598 0.537562
v 0.059732 0.086736 0.537562
v 0.061298 0.084023 0.537562
v 0.086933 0.098003 0.537562
v 0.087744 0.094978 0.537562
v 0.116123 0.101846 0.537562
v 0.116123 0.098714 0.537562
v 0.145314 0.098003 0.537562
v 0.144503 0.094978 0.537562
v 0.170949 0.084023 0.537562
v 0.172515 0.086736 0.537562
v 0.193658 0.066598 0.537562
v 0.195873 0.068813 0.537562
v 0.211084 0.043888 0.537562
v 0.213797 0.045455 0.537562
v 0.222038 0.017443 0.537562
v 0.225064 0.018253 0.537562
v 0.228907 -0.010937 0.537562
v 0.225774 -0.010937 0.537562
v 0.225064 0.018253 0.537562
v 0.222038 0.017443 0.537562
v 0.213797 0.045455 0.537562
v 0.211084 0.043888 0.537562
v 0.195873 0.068813 0.537562
v 0.193658 0.066598 0.537562
v 0.172515 0.086736 0.537562
v 0.170949 0.084023 0.537562
v 0.145314 0.098003 0.537562
v 0.144503 0.094978 0.537562
v 0.116123 0.098714 0.537562
v 0.116123 0.101846 0.537562
v 0.087744 0.094978 0.537562
v 0.086933 0.098003 0.537562
v 0.061298 0.084023 0.537562
v 0.059732 0.086736 0.537562
v 0.038589 0.066598 0.537562
v 0.036374 0.068813 0.537562
v 0.021163 0.043888 0.537562
v 0.01845 0.045455 0.537562
v 0.010209 0.017443 0.537562
v 0.007183 0.018253 0.537562
v 0.006473 -0.010937 0.537562
v 0.00334 -0.010937 0.537562
v 0.225064 -0.040127 0.537562
v 0.222038 -0.039317 0.537562
v 0.213797 -0.067329 0.537562
v 0.211084 -0.065762 0.537562
v 0.195873 -0.090687 0.537562
v 0.193658 -0.088472 0.537562
v 0.172515 -0.10861 0.537562
v 0.170949 -0.105897 0.537562
v 0.145314 -0.119877 0.537562
v 0.144503 -0.116851 0.537562
v 0.116123 -0.120588 0.537562
v 0.116123 -0.12372 0.537562
v 0.087744 -0.116851 0.537562
v 0.086933 -0.119877 0.537562
v 0.061298 -0.105897 0.537562
v 0.059732 -0.10861 0.537562
v 0.038589 -0.088472 0.537562
v 0.036374 -0.090687 0.537562
v 0.021163 -0.065762 0.537562
v 0.01845 -0.067329 0.537562
v 0.010209 -0.039317 0.537562
v 0.007183 -0.040127 0.537562
v 0.172515 0.086736 0.535578
v 0.172515 0.086736 0.537562
v 0.172515 0.086736 0.537562
v 0.172515 0.086736 0.535578
v 0.059732 0.086736 0.535578
v 0.059732 0.086736 0.537562
v 0.059732 0.086736 0.537562
v 0.059732 0.086736 0.535578
v 0.036374 0.068813 0.535578
v 0.036374 0.068813 0.537562
v 0.036374 0.068813 0.537562
v 0.036374 0.068813 0.535578
v 0.01845 0.045455 0.537562
v 0.01845 0.045455 0.535578
v 0.01845 0.045455 0.537562
v 0.01845 0.045455 0.535578
v 0.007183 0.018253 0.537562
v 0.007183 0.018253 0.535578
v 0.007183 0.018253 0.537562
v 0.007183 0.018253 0.535578
v 0.00334 -0.010937 0.537562
v 0.00334 -0.010937 0.535578
v 0.00334 -0.010937 0.537562
v 0.00334 -0.010937 0.535578
v 0.007183 -0.040127 0.537562
v 0.007183 -0.040127 0.535578
v 0.007183 -0.040127 0.537562
v 0.007183 -0.040127 0.535578
v 0.01845 -0.067329 0.537562
v 0.01845 -0.067329 0.535578
v 0.01845 -0.067329 0.537562
v 0.01845 -0.067329 0.535578
v 0.036374 -0.090687 0.537562
v 0.036374 -0.090687 0.535578
v 0.036374 -0.090687 0.537562
v 0.036374 -0.090687 0.535578
v 0.059732 -0.10861 0.535578
v 0.059732 -0.10861 0.537562
v 0.059732 -0.10861 0.537562
v 0.059732 -0.10861 0.535578
v 0.086933 -0.119877 0.535578
v 0.086933 -0.119877 0.537562
v 0.086933 -0.119877 0.537562
v 0.086933 -0.119877 0.535578
v 0.116123 -0.12372 0.535578
v 0.116123 -0.12372 0.537562
v 0.116123 -0.12372 0.537562
v 0.116123 -0.12372 0.535578
v 0.145314 -0.119877 0.537562
v 0.145314 -0.119877 0.535578
v 0.145314 -0.119877 0.537562
v 0.145314 -0.119877 0.535578
v 0.172515 -0.10861 0.537562
v 0.172515 -0.10861 0.535578
v 0.172515 -0.10861 0.537562
v 0.172515 -0.10861 0.535578
v 0.195873 -0.090687 0.537562
v 0.195873 -0.090687 0.535578
v 0.195873 -0.090687 0.537562
v 0.195873 -0.090687 0.535578
v 0.213797 -0.067329 0.535578
v 0.213797 -0.067329 0.537562
v 0.213797 -0.067329 0.537562
v 0.213797 -0.067329 0.535578
v 0.225064 -0.040127 0.535578
v 0.225064 -0.040127 0.537562
v 0.225064 -0.040127 0.537562
v 0.225064 -0.040127 0.535578
v 0.228907 -0.010937 0.535578
v 0.228907 -0.010937 0.537562
v 0.228907 -0.010937 0.537562
v 0.228907 -0.010937 0.535578
v 0.225064 0.018253 0.535578
v 0.225064 0.018253 0.537562
v 0.225064 0.018253 0.537562
v 0.225064 0.018253 0.535578
v 0.213797 0.045455 0.535578
v 0.213797 0.045455 0.537562
v 0.213797 0.045455 0.537562
v 0.213797 0.045455 0.535578
v 0.195873 0.068813 0.535578
v 0.195873 0.068813 0.537562
v 0.195873 0.068813 0.537562
v 0.195873 0.068813 0.535578
vn 0.0 1.0 0.0
vn 0.25881900959356163 0.9659258358036645 0.0
vn -0.25881900959356163 -0.9659258358036645 0.0
vn 0.0 -1.0 0.0
vn -0.25881900959356163 0.9659258358036645 0.0
vn 0.25881900959356163 -0.9659258358036645 0.0
vn 0.0 0.0 1.0
vn 0.0 0.0 -1.0
vn 0.5000000016387101 0.8660254028383291 0.0
vn -0.5000000016387101 -0.8660254028383291 0.0
vn -0.5000000016387101 0.8660254028383291 0.0
vn 0.5000000016387101 -0.8660254028383291 0.0
vn -0.7071067811865475 0.7071067811865475 0.0
vn 0.7071067811865475 -0.7071067811865475 0.0
vn -0.8660254028383291 0.5000000016387101 0.0
vn 0.8660254028383291 -0.5000000016387101 0.0
vn -0.9659258358036645 0.25881900959356163 0.0
vn 0.9659258358036645 -0.25881900959356163 0.0
vn -1.0 0.0 0.0
vn 1.0 0.0 0.0
vn -0.9659258358036645 -0.25881900959356163 0.0
vn 0.9659258358036645 0.25881900959356163 0.0
vn -0.8660254028383291 -0.5000000016387101 0.0
vn 0.8660254028383291 0.5000000016387101 0.0
vn -0.7071067811865475 -0.7071067811865475 0.0
vn 0.7071067811865475 0.7071067811865475 0.0
usemtl material_0_0
f 1//1 2//2 3//1
f 2//2 1//1 4//2
f 5//3 6//4 7//3
f 8//4 7//3 6//4
f 9//5 1//1 3//1
f 1//1 9//5 10//5
f 11//6 12//6 6//4
f 8//4 6//4 12//6
f 13//7 14//7 15//7
f 14//7 13//7 16//7
f 16//7 13//7 17//7
f 16//7 17//7 18//7
f 18//7 17//7 19//7
f 18//7 19//7 20//7
f 20//7 19//7 21//7
f 20//7 21//7 22//7
f 22//7 21//7 23//7
f 22//7 23//7 24//7
f 24//7 23//7 25//7
f 24//7 25//7 26//7
f 26//7 25//7 27//7
f 26//7 27//7 28//7
f 28//7 27//7 29//7
f 29//7 27//7 30//7
f 29//7 30//7 31//7
f 31//7 30//7 32//7
f 31//7 32//7 33//7
f 33//7 32//7 34//7
f 33//7 34//7 35//7
f 35//7 34//7 36//7
f 35//7 36//7 37//7
f 37//7 36//7 38//7
f 14//7 39//7 15//7
f 39//7 14//7 40//7
f 39//7 40//7 41//7
f 41//7 40//7 42//7
f 41//7 42//7 43//7
f 43//7 42//7 44//7
f 43//7 44//7 45//7
f 45//7 44//7 46//7
f 45//7 46//7 47//7
f 47//7 46//7 48//7
f 47//7 48//7 49//7
f 49//7 48//7 50//7
f 49//7 50//7 51//7
f 51//7 50//7 52//7
f 51//7 52//7 53//7
f 51//7 53//7 54//7
f 54//7 53//7 55//7
f 54//7 55//7 56//7
f 56//7 55//7 57//7
f 56//7 57//7 58//7
f 58//7 57//7 59//7
f 58//7 59//7 60//7
f 60//7 59//7 37//7
f 60//7 37//7 38//7
f 61//8 62//8 63//8
f 62//8 64//8 63//8
f 63//8 64//8 65//8
f 64//8 66//8 65//8
f 65//8 66//8 67//8
f 66//8 68//8 67//8
f 67//8 68//8 69//8
f 68//8 70//8 69//8
f 69//8 70//8 71//8
f 70//8 72//8 71//8
f 72//8 73//8 71//8
f 71//8 73//8 74//8
f 73//8 75//8 74//8
f 74//8 75//8 76//8
f 75//8 77//8 76//8
f 76//8 77//8 78//8
f 77//8 79//8 78//8
f 78//8 79//8 80//8
f 79//8 81//8 80//8
f 80//8 81//8 82//8
f 81//8 83//8 82//8
f 82//8 83//8 84//8
f 83//8 85//8 84//8
f 86//8 84//8 85//8
f 61//8 87//8 62//8
f 62//8 87//8 88//8
f 87//8 89//8 88//8
f 88//8 89//8 90//8
f 89//8 91//8 90//8
f 90//8 91//8 92//8
f 91//8 93//8 92//8
f 92//8 93//8 94//8
f 93//8 95//8 94//8
f 94//8 95//8 96//8
f 96//8 95//8 97//8
f 95//8 98//8 97//8
f 97//8 98//8 99//8
f 98//8 100//8 99//8
f 99//8 100//8 101//8
f 100//8 102//8 101//8
f 101//8 102//8 103//8
f 102//8 104//8 103//8
f 103//8 104//8 105//8
f 104//8 106//8 105//8
f 105//8 106//8 107//8
f 106//8 108//8 107//8
f 107//8 108//8 85//8
f 86//8 85//8 108//8
f 4//2 109//9 2//2
f 109//9 4//2 110//9
f 111//10 5//3 112//10
f 7//3 112//10 5//3
f 113//11 10//5 9//5
f 10//5 113//11 114//11
f 115//12 116//12 11//6
f 12//6 11//6 116//12
f 117//13 114//11 113//11
f 114//11 117//13 118//13
f 119//14 120//14 115//12
f 116//12 115//12 120//14
f 121//15 117//13 122//15
f 117//13 121//15 118//13
f 119//14 123//16 120//14
f 124//16 120//14 123//16
f 125//17 122//15 126//17
f 122//15 125//17 121//15
f 123//16 127//18 124//16
f 128//18 124//16 127//18
f 129//19 126//17 130//19
f 126//17 129//19 125//17
f 127//18 131//20 128//18
f 132//20 128//18 131//20
f 133//21 130//19 134//21
f 130//19 133//21 129//19
f 131//20 135//22 132//20
f 136//22 132//20 135//22
f 137//23 134//21 138//23
f 134//21 137//23 133//21
f 135//22 139//24 136//22
f 140//24 136//22 139//24
f 141//25 138//23 142//25
f 138//23 141//25 137//23
f 139//24 143//26 140//24
f 144//26 140//24 143//26
f 145//10 141//25 142//25
f 141//25 145//10 146//10
f 147//9 148//9 143//26
f 144//26 143//26 148//9
f 149//3 146//10 145//10
f 146//10 149//3 150//3
f 151//2 152//2 147//9
f 148//9 147//9 152//2
f 153//4 150//3 149//3
f 150//3 153//4 154//4
f 155//1 156//1 151//2
f 152//2 151//2 156//1
f 157//6 153//4 158//6
f 153//4 157//6 154//4
f 155//1 159//5 156//1
f 160//5 156//1 159//5
f 161//12 158//6 162//12
f 158//6 161//12 157//6
f 159//5 163//11 160//5
f 164//11 160//5 163//11
f 165//14 162//12 166//14
f 162//12 165//14 161//12
f 163//11 167//13 164//11
f 168//13 164//11 167//13
f 169//16 165//14 166//14
f 165//14 169//16 170//16
f 171//15 172//15 167//13
f 168//13 167//13 172//15
f 173//18 170//16 169//16
f 170//16 173//18 174//18
f 175//17 176//17 171//15
f 172//15 171//15 176//17
f 177//20 174//18 173//18
f 174//18 177//20 178//20
f 179//19 180//19 175//17
f 176//17 175//17 180//19
f 181//22 178//20 177//20
f 178//20 181//22 182//22
f 183//21 184//21 179//19
f 180//19 179//19 184//21
f 185//24 182//22 181//22
f 182//22 185//24 186//24
f 187//23 188//23 183//21
f 184//21 183//21 188//23
f 189//26 186//24 185//24
f 186//24 189//26 190//26
f 191//25 192//25 187//23
f 188//23 187//23 192//25
f 110//9 189//26 109//9
f 189//26 110//9 190//26
f 191//25 111//10 192//25
f 112//10 192//25 111//10
