# SSTK version 0.8.0
# 115
mtllib original-115.mtl
o #ID594
v 0.352227 -0.139251 -0.045491
v 0.351634 -0.142148 -0.042415
v 0.351634 -0.142148 -0.046549
v 0.352281 -0.13899 -0.043561
v 0.352592 -0.137472 -0.044038
v 0.352905 -0.135944 -0.044394
v 0.352905 -0.135944 -0.044394
v 0.352227 -0.139251 -0.045491
v 0.352592 -0.137472 -0.044038
v 0.352281 -0.13899 -0.043561
v 0.351634 -0.142148 -0.042415
v 0.351634 -0.142148 -0.046549
v 0.351495 -0.142781 -0.04678
v 0.3513 -0.143671 -0.041863
v 0.3513 -0.143671 -0.047104
v 0.351495 -0.142781 -0.042186
v 0.351495 -0.142781 -0.042186
v 0.3513 -0.143671 -0.041863
v 0.351495 -0.142781 -0.04678
v 0.3513 -0.143671 -0.047104
vn 0.9796783075920461 -0.2005752069264404 0.0
vn 0.9782452259896557 -0.20745186870319457 0.0
vn -0.9796783075920461 0.2005752069264404 0.0
vn -0.9782452259896557 0.20745186870319457 0.0
vn 0.9767638722035119 -0.21431830989908757 0.0
vn -0.9767638722035119 0.21431830989908757 0.0
usemtl material_0_0
f 1//1 2//2 3//2
f 2//2 1//1 4//1
f 4//1 1//1 5//1
f 5//1 1//1 6//1
f 7//3 8//3 9//3
f 9//3 8//3 10//3
f 10//3 8//3 11//4
f 12//4 11//4 8//3
f 13//5 14//5 15//5
f 14//5 13//5 3//2
f 14//5 3//2 16//5
f 16//5 3//2 2//2
f 11//4 12//4 17//6
f 17//6 12//4 18//6
f 12//4 19//6 18//6
f 20//6 18//6 19//6
