# SSTK version 0.8.0
# 203
mtllib original-203.mtl
o #ID1212
v -0.359111 0.307013 -0.040107
v -0.35667 0.307123 -0.041596
v -0.355839 0.307137 -0.042586
v -0.35814 0.307067 -0.040477
v -0.35814 0.307067 -0.040477
v -0.359111 0.307013 -0.040107
v -0.35667 0.307123 -0.041596
v -0.355839 0.307137 -0.042586
v -0.354857 0.306782 -0.047626
v -0.354826 0.307031 -0.044934
v -0.354683 0.306927 -0.046243
v -0.355205 0.307101 -0.043723
v -0.354902 0.306766 -0.047738
v -0.364346 0.306409 -0.040579
v -0.355819 0.307137 -0.042611
v -0.359824 0.306961 -0.039835
v -0.361627 0.30678 -0.039704
v -0.363452 0.306547 -0.040116
v -0.363452 0.306547 -0.040116
v -0.364346 0.306409 -0.040579
v -0.361627 0.30678 -0.039704
v -0.359824 0.306961 -0.039835
v -0.355819 0.307137 -0.042611
v -0.355205 0.307101 -0.043723
v -0.354902 0.306766 -0.047738
v -0.354857 0.306782 -0.047626
v -0.354826 0.307031 -0.044934
v -0.354683 0.306927 -0.046243
v -0.355434 0.306514 -0.049056
v -0.356413 0.306177 -0.050535
v -0.35666 0.306106 -0.050808
v -0.367262 0.305704 -0.042772
v -0.365258 0.306218 -0.041048
v -0.366999 0.305781 -0.042477
v -0.366999 0.305781 -0.042477
v -0.367262 0.305704 -0.042772
v -0.365258 0.306218 -0.041048
v -0.35666 0.306106 -0.050808
v -0.356413 0.306177 -0.050535
v -0.355434 0.306514 -0.049056
v -0.357797 0.305683 -0.052062
v -0.359083 0.305263 -0.053154
v -0.359209 0.305228 -0.053229
v -0.369255 0.304847 -0.045614
v -0.368193 0.305356 -0.04381
v -0.369069 0.304961 -0.045158
v -0.369069 0.304961 -0.045158
v -0.369255 0.304847 -0.045614
v -0.368193 0.305356 -0.04381
v -0.359209 0.305228 -0.053229
v -0.359083 0.305263 -0.053154
v -0.357797 0.305683 -0.052062
v -0.360406 0.304816 -0.053947
v -0.361761 0.304422 -0.054442
v -0.363032 0.304117 -0.054622
v -0.369721 0.303863 -0.049551
v -0.369627 0.304565 -0.04652
v -0.369866 0.304206 -0.047897
v -0.369806 0.303917 -0.049237
v -0.369806 0.303917 -0.049237
v -0.369721 0.303863 -0.049551
v -0.369866 0.304206 -0.047897
v -0.369627 0.304565 -0.04652
v -0.363032 0.304117 -0.054622
v -0.361761 0.304422 -0.054442
v -0.360406 0.304816 -0.053947
v -0.363148 0.304084 -0.054638
v -0.364504 0.303776 -0.054553
v -0.36576 0.303564 -0.054205
v -0.366917 0.303448 -0.053593
v -0.367974 0.303428 -0.052717
v -0.368861 0.303503 -0.051647
v -0.369472 0.30367 -0.050486
v -0.369472 0.30367 -0.050486
v -0.368861 0.303503 -0.051647
v -0.367974 0.303428 -0.052717
v -0.366917 0.303448 -0.053593
v -0.36576 0.303564 -0.054205
v -0.364504 0.303776 -0.054553
v -0.363148 0.304084 -0.054638
vn -0.0901910581074417 0.993507380260963 -0.06934449080106224
vn -0.07423316755766085 0.996077089665574 -0.04816501092822776
vn 0.07423316755766085 -0.996077089665574 0.04816501092822776
vn 0.0901910581074417 -0.993507380260963 0.06934449080106224
vn -0.10608504442383801 0.9902324395995374 -0.09047474185838106
vn -0.12189616596128604 0.9862566583766631 -0.11153084116797933
vn 0.10608504442383801 -0.9902324395995374 0.09047474185838106
vn 0.12189616596128604 -0.9862566583766631 0.11153084116797933
vn -0.13762092225346614 0.9815814536065872 -0.1325078552150194
vn -0.15323946379524367 0.976213317205897 -0.15337935338762115
vn 0.13762092225346614 -0.9815814536065872 0.1325078552150194
vn 0.15323946379524367 -0.976213317205897 0.15337935338762115
vn -0.16874945231204858 0.970153643591464 -0.17414226991339657
vn -0.18413030282209195 0.9634111860589285 -0.1947688839603835
vn 0.16874945231204858 -0.970153643591464 0.17414226991339657
vn 0.18413030282209195 -0.9634111860589285 0.1947688839603835
vn -0.19938083134004714 0.9559871405173903 -0.21525768571536563
vn -0.21447996238192898 0.947892543347292 -0.23558028780704104
vn 0.19938083134004714 -0.9559871405173903 0.21525768571536563
vn 0.21447996238192898 -0.947892543347292 0.23558028780704104
vn -0.22942753869877372 0.9391282689095485 -0.2557363857990836
vn 0.22942753869877372 -0.9391282689095485 0.2557363857990836
usemtl material_0_0
f 1//1 2//2 3//1
f 2//2 1//1 4//2
f 5//3 6//4 7//3
f 8//4 7//3 6//4
f 9//5 10//5 11//5
f 10//5 9//5 12//5
f 12//5 9//5 13//6
f 12//5 13//6 14//6
f 12//5 14//6 15//5
f 15//5 14//6 3//1
f 3//1 14//6 1//1
f 1//1 14//6 16//5
f 16//5 14//6 17//5
f 17//5 14//6 18//5
f 19//7 20//8 21//7
f 21//7 20//8 22//7
f 22//7 20//8 6//4
f 6//4 20//8 8//4
f 8//4 20//8 23//7
f 23//7 20//8 24//7
f 20//8 25//8 24//7
f 25//8 26//7 24//7
f 24//7 26//7 27//7
f 28//7 27//7 26//7
f 29//9 14//6 13//6
f 14//6 29//9 30//9
f 14//6 30//9 31//10
f 14//6 31//10 32//10
f 14//6 32//10 33//9
f 33//9 32//10 34//9
f 35//11 36//12 37//11
f 37//11 36//12 20//8
f 36//12 38//12 20//8
f 38//12 39//11 20//8
f 39//11 40//11 20//8
f 25//8 20//8 40//11
f 41//13 32//10 31//10
f 32//10 41//13 42//13
f 32//10 42//13 43//14
f 32//10 43//14 44//14
f 32//10 44//14 45//13
f 45//13 44//14 46//13
f 47//15 48//16 49//15
f 49//15 48//16 36//12
f 48//16 50//16 36//12
f 50//16 51//15 36//12
f 51//15 52//15 36//12
f 38//12 36//12 52//15
f 53//17 44//14 43//14
f 44//14 53//17 54//17
f 44//14 54//17 55//18
f 44//14 55//18 56//18
f 44//14 56//18 57//17
f 57//17 56//18 58//17
f 58//17 56//18 59//17
f 60//19 61//20 62//19
f 62//19 61//20 63//19
f 63//19 61//20 48//16
f 61//20 64//20 48//16
f 64//20 65//19 48//16
f 65//19 66//19 48//16
f 50//16 48//16 66//19
f 67//21 56//18 55//18
f 56//18 67//21 68//21
f 56//18 68//21 69//21
f 56//18 69//21 70//21
f 56//18 70//21 71//21
f 56//18 71//21 72//21
f 56//18 72//21 73//21
f 74//22 75//22 61//20
f 75//22 76//22 61//20
f 76//22 77//22 61//20
f 77//22 78//22 61//20
f 78//22 79//22 61//20
f 79//22 80//22 61//20
f 64//20 61//20 80//22
