# SSTK version 0.8.0
# 528
mtllib original-528.mtl
o #ID3488
v 0.353711 0.249195 -0.101465
v 0.352172 0.251615 -0.102061
v 0.352409 0.249195 -0.101115
v 0.354292 0.251615 -0.102631
v 0.354292 0.251615 -0.102631
v 0.353711 0.249195 -0.101465
v 0.352172 0.251615 -0.102061
v 0.352409 0.249195 -0.101115
v 0.35274 0.24533 -0.099795
v 0.35274 0.24533 -0.099795
v 0.347426 0.249195 -0.099953
v 0.347221 0.251615 -0.100907
v 0.347221 0.251615 -0.100907
v 0.347426 0.249195 -0.099953
v 0.352609 0.244814 -0.099577
v 0.347751 0.244814 -0.098444
v 0.352609 0.244814 -0.099577
v 0.347751 0.244814 -0.098444
v 0.341852 0.249195 -0.098849
v 0.342435 0.251615 -0.099958
v 0.342435 0.251615 -0.099958
v 0.341852 0.249195 -0.098849
v 0.348041 0.240309 -0.097102
v 0.351416 0.240309 -0.097889
v 0.348041 0.240309 -0.097102
v 0.351416 0.240309 -0.097889
v 0.340747 0.244814 -0.097056
v 0.340747 0.244814 -0.097056
v 0.350147 0.235692 -0.096363
v 0.348293 0.235692 -0.095931
v 0.350147 0.235692 -0.096363
v 0.348293 0.235692 -0.095931
v 0.339561 0.240309 -0.095422
v 0.339561 0.240309 -0.095422
v 0.348508 0.230979 -0.094934
v 0.348806 0.230979 -0.095004
v 0.348508 0.230979 -0.094934
v 0.348806 0.230979 -0.095004
v 0.3383 0.235692 -0.093951
v 0.3383 0.235692 -0.093951
v 0.348541 0.230079 -0.094781
v 0.348541 0.230079 -0.094781
v 0.337091 0.230979 -0.092672
v 0.337075 0.231363 -0.092753
v 0.337075 0.231363 -0.092753
v 0.337091 0.230979 -0.092672
v 0.337246 0.226187 -0.091849
v 0.347387 0.226187 -0.093859
v 0.337246 0.226187 -0.091849
v 0.347387 0.226187 -0.093859
v 0.336966 0.230979 -0.092649
v 0.336966 0.230979 -0.092649
v 0.337368 0.22133 -0.091208
v 0.345903 0.22133 -0.0929
v 0.337368 0.22133 -0.091208
v 0.345903 0.22133 -0.0929
v 0.335559 0.226187 -0.091544
v 0.335559 0.226187 -0.091544
v 0.344361 0.216426 -0.09212
v 0.337455 0.216426 -0.090751
v 0.344361 0.216426 -0.09212
v 0.337455 0.216426 -0.090751
v 0.334089 0.22133 -0.090615
v 0.334089 0.22133 -0.090615
v 0.344254 0.216095 -0.09208
v 0.337458 0.216095 -0.090733
v 0.344254 0.216095 -0.09208
v 0.337458 0.216095 -0.090733
v 0.332561 0.216426 -0.089866
v 0.332561 0.216426 -0.089866
v 0.332456 0.216095 -0.089828
v 0.332456 0.216095 -0.089828
vn 0.24261149948909538 0.35311609925638887 0.903575498097201
vn 0.22561469386470293 0.3737930898351851 0.8996536755350927
vn 0.22758029773215893 0.3530812964815398 0.9074914909568336
vn 0.2405241027342852 0.3737488042487878 0.8958013101834961
vn 0.2294199986364354 0.3323508980246627 0.9148274945626953
vn 0.19719979797507264 0.3530813963744175 0.9145740906087827
vn 0.19549650448229502 0.37379390857025363 0.9066748207880138
vn 0.21577639878549607 0.3119636982441032 0.9252670947921062
vn 0.2002582949888226 0.3119351921942682 0.9287588767591375
vn 0.18185879707570968 0.3531160943218917 0.9177343852428266
vn 0.18029409620383482 0.3737487921305681 0.9098383808429845
vn 0.20286590266184307 0.2713702035607016 0.9408526123451106
vn 0.2185866989138405 0.2713931986514447 0.9373182953424558
vn 0.18468020598606452 0.31196371011172225 0.9319720302081357
vn 0.2209488904618896 0.231354490012692 0.9474474590997789
vn 0.20505780528834963 0.2313361059660555 0.9510178245263269
vn 0.18708551033397341 0.2713932149908473 0.9441105521494868
vn 0.20686321058410678 0.19177180981195907 0.959391049087014
vn 0.22289459971199344 0.1917861997521894 0.9557907987650036
vn 0.1891073029864629 0.23135450365364882 0.9543131150709183
vn 0.2076303925278204 0.17210089380645227 0.9629490653454955
vn 0.18279449482173366 0.1917725945673991 0.964266272683928
vn 0.18204110533836826 0.21142480620004755 0.9602919281606285
vn 0.18406990456201708 0.1526082037822656 0.9709938240652617
vn 0.19210380238898178 0.15261870189794963 0.9694347120557836
vn 0.17480289533788973 0.19178619488493395 0.9657442742429535
vn 0.18504220346455535 0.11376920213010724 0.9761229182760033
vn 0.1931187002768366 0.11377690016309996 0.9745563013970313
vn 0.17602269711435256 0.1526186974980288 0.97248318405749
vn 0.19383079481925455 0.07518145799053627 0.9781499738558261
vn 0.18572439580152086 0.0751763983005652 0.9797218778524419
vn 0.1769526942377382 0.11377689629498593 0.9776208681648962
vn 0.1940766915141515 0.05592486755473 0.9793909571769116
vn 0.18595999252547504 0.05592677775206458 0.98096436057086
vn 0.17760520625344284 0.07518146264712408 0.9812258345487602
vn 0.17783050407469644 0.055924871281427584 0.982470722511717
vn -0.2405241027342852 -0.3737488042487878 -0.8958013101834961
vn -0.24261149948909538 -0.35311609925638887 -0.903575498097201
vn -0.22561469386470293 -0.3737930898351851 -0.8996536755350927
vn -0.22758029773215893 -0.3530812964815398 -0.9074914909568336
vn -0.2294199986364354 -0.3323508980246627 -0.9148274945626953
vn -0.19549650448229502 -0.37379390857025363 -0.9066748207880138
vn -0.19719979797507264 -0.3530813963744175 -0.9145740906087827
vn -0.21577639878549607 -0.3119636982441032 -0.9252670947921062
vn -0.2002582949888226 -0.3119351921942682 -0.9287588767591375
vn -0.18029409620383482 -0.3737487921305681 -0.9098383808429845
vn -0.18185879707570968 -0.3531160943218917 -0.9177343852428266
vn -0.20286590266184307 -0.2713702035607016 -0.9408526123451106
vn -0.2185866989138405 -0.2713931986514447 -0.9373182953424558
vn -0.18468020598606452 -0.31196371011172225 -0.9319720302081357
vn -0.2209488904618896 -0.231354490012692 -0.9474474590997789
vn -0.20505780528834963 -0.2313361059660555 -0.9510178245263269
vn -0.18708551033397341 -0.2713932149908473 -0.9441105521494868
vn -0.20686321058410678 -0.19177180981195907 -0.959391049087014
vn -0.22289459971199344 -0.1917861997521894 -0.9557907987650036
vn -0.1891073029864629 -0.23135450365364882 -0.9543131150709183
vn -0.2076303925278204 -0.17210089380645227 -0.9629490653454955
vn -0.18204110533836826 -0.21142480620004755 -0.9602919281606285
vn -0.18279449482173366 -0.1917725945673991 -0.964266272683928
vn -0.18406990456201708 -0.1526082037822656 -0.9709938240652617
vn -0.19210380238898178 -0.15261870189794963 -0.9694347120557836
vn -0.17480289533788973 -0.19178619488493395 -0.9657442742429535
vn -0.18504220346455535 -0.11376920213010724 -0.9761229182760033
vn -0.1931187002768366 -0.11377690016309996 -0.9745563013970313
vn -0.17602269711435256 -0.1526186974980288 -0.97248318405749
vn -0.19383079481925455 -0.07518145799053627 -0.9781499738558261
vn -0.18572439580152086 -0.0751763983005652 -0.9797218778524419
vn -0.1769526942377382 -0.11377689629498593 -0.9776208681648962
vn -0.1940766915141515 -0.05592486755473 -0.9793909571769116
vn -0.18595999252547504 -0.05592677775206458 -0.98096436057086
vn -0.17760520625344284 -0.07518146264712408 -0.9812258345487602
vn -0.17783050407469644 -0.055924871281427584 -0.982470722511717
usemtl material_0_0
f 1//1 2//2 3//3
f 2//2 1//1 4//4
f 1//1 3//3 9//5
f 2//2 11//6 3//3
f 11//6 2//2 12//7
f 15//8 11//6 16//9
f 11//6 15//8 9//5
f 11//6 9//5 3//3
f 12//7 19//10 11//6
f 19//10 12//7 20//11
f 15//8 23//12 24//13
f 23//12 15//8 16//9
f 11//6 27//14 16//9
f 27//14 11//6 19//10
f 29//15 23//12 30//16
f 23//12 29//15 24//13
f 16//9 33//17 23//12
f 33//17 16//9 27//14
f 29//15 35//18 36//19
f 35//18 29//15 30//16
f 30//16 33//17 39//20
f 33//17 30//16 23//12
f 35//18 41//21 36//19
f 30//16 43//22 35//18
f 43//22 30//16 44//23
f 44//23 30//16 39//20
f 41//21 47//24 48//25
f 47//24 41//21 43//22
f 43//22 41//21 35//18
f 44//23 51//26 43//22
f 48//25 53//27 54//28
f 53//27 48//25 47//24
f 43//22 57//29 47//24
f 57//29 43//22 51//26
f 59//30 53//27 60//31
f 53//27 59//30 54//28
f 47//24 63//32 53//27
f 63//32 47//24 57//29
f 65//33 60//31 66//34
f 60//31 65//33 59//30
f 53//27 69//35 60//31
f 69//35 53//27 63//32
f 66//34 69//35 71//36
f 69//35 66//34 60//31
usemtl material_1_0
f 5//37 6//38 7//39
f 8//40 7//39 6//38
f 10//41 8//40 6//38
f 13//42 7//39 14//43
f 8//40 14//43 7//39
f 8//40 10//41 14//43
f 10//41 17//44 14//43
f 18//45 14//43 17//44
f 21//46 13//42 22//47
f 14//43 22//47 13//42
f 18//45 17//44 25//48
f 26//49 25//48 17//44
f 22//47 14//43 28//50
f 18//45 28//50 14//43
f 26//49 31//51 25//48
f 32//52 25//48 31//51
f 28//50 18//45 34//53
f 25//48 34//53 18//45
f 32//52 31//51 37//54
f 38//55 37//54 31//51
f 25//48 32//52 34//53
f 40//56 34//53 32//52
f 38//55 42//57 37//54
f 40//56 32//52 45//58
f 45//58 32//52 46//59
f 37//54 46//59 32//52
f 37//54 42//57 46//59
f 46//59 42//57 49//60
f 50//61 49//60 42//57
f 46//59 52//62 45//58
f 49//60 50//61 55//63
f 56//64 55//63 50//61
f 52//62 46//59 58//65
f 49//60 58//65 46//59
f 56//64 61//66 55//63
f 62//67 55//63 61//66
f 58//65 49//60 64//68
f 55//63 64//68 49//60
f 61//66 67//69 62//67
f 68//70 62//67 67//69
f 64//68 55//63 70//71
f 62//67 70//71 55//63
f 62//67 68//70 70//71
f 72//72 70//71 68//70
