# SSTK version 0.8.0
# 259
mtllib original-259.mtl
o #ID2019
v 0.169146 -0.247358 -0.255316
v 0.169146 -0.247358 -0.272531
v 0.170279 -0.247358 -0.263923
v 0.165824 -0.247358 -0.247295
v 0.165824 -0.247358 -0.280552
v 0.160539 -0.247358 -0.28744
v 0.160539 -0.247358 -0.240407
v 0.153651 -0.247358 -0.235122
v 0.153651 -0.247358 -0.292725
v 0.14563 -0.247358 -0.2318
v 0.14563 -0.247358 -0.296047
v 0.137022 -0.247358 -0.230667
v 0.137022 -0.247358 -0.29718
v 0.128415 -0.247358 -0.2318
v 0.128415 -0.247358 -0.296047
v 0.120394 -0.247358 -0.235122
v 0.120394 -0.247358 -0.292725
v 0.113506 -0.247358 -0.240407
v 0.113506 -0.247358 -0.28744
v 0.108221 -0.247358 -0.280552
v 0.108221 -0.247358 -0.247295
v 0.104899 -0.247358 -0.272531
v 0.104899 -0.247358 -0.255316
v 0.103765 -0.247358 -0.263923
vn 0.0 -1.0 0.0
usemtl material_0_0
f 1//1 2//1 3//1
f 2//1 1//1 4//1
f 2//1 4//1 5//1
f 5//1 4//1 6//1
f 6//1 4//1 7//1
f 6//1 7//1 8//1
f 6//1 8//1 9//1
f 9//1 8//1 10//1
f 9//1 10//1 11//1
f 11//1 10//1 12//1
f 11//1 12//1 13//1
f 13//1 12//1 14//1
f 13//1 14//1 15//1
f 15//1 14//1 16//1
f 15//1 16//1 17//1
f 17//1 16//1 18//1
f 17//1 18//1 19//1
f 19//1 18//1 20//1
f 20//1 18//1 21//1
f 20//1 21//1 22//1
f 22//1 21//1 23//1
f 22//1 23//1 24//1
