# SSTK version 0.8.0
# 113
mtllib original-113.mtl
o #ID582
v 0.356476 -0.117287 -0.016738
v 0.355939 -0.120345 -0.016776
v 0.356331 -0.118115 -0.016776
v 0.355939 -0.120345 0.018465
v 0.356619 -0.116474 -0.016628
v 0.356757 -0.115688 -0.016445
v 0.356887 -0.114944 -0.016194
v 0.357008 -0.114254 -0.015878
v 0.357118 -0.113631 -0.015503
v 0.357214 -0.113084 -0.015076
v 0.357295 -0.112623 -0.014604
v 0.357359 -0.112256 -0.014094
v 0.357406 -0.11199 -0.013556
v 0.357435 -0.111828 -0.012999
v 0.357444 -0.111773 -0.012432
v 0.357444 -0.111773 0.015027
v 0.357437 -0.111816 0.015475
v 0.357414 -0.111944 0.015917
v 0.357377 -0.112156 0.016342
v 0.357326 -0.112446 0.016746
v 0.357262 -0.112811 0.01712
v 0.357186 -0.113244 0.017458
v 0.357099 -0.113737 0.017755
v 0.357003 -0.114283 0.018004
v 0.3569 -0.114872 0.018203
v 0.356791 -0.115494 0.018348
v 0.356678 -0.116138 0.018436
v 0.356563 -0.116793 0.018465
v 0.356563 -0.116793 0.018465
v 0.356678 -0.116138 0.018436
v 0.355939 -0.120345 0.018465
v 0.356791 -0.115494 0.018348
v 0.3569 -0.114872 0.018203
v 0.357003 -0.114283 0.018004
v 0.357099 -0.113737 0.017755
v 0.357186 -0.113244 0.017458
v 0.357262 -0.112811 0.01712
v 0.357326 -0.112446 0.016746
v 0.357377 -0.112156 0.016342
v 0.357414 -0.111944 0.015917
v 0.357437 -0.111816 0.015475
v 0.357444 -0.111773 0.015027
v 0.357444 -0.111773 -0.012432
v 0.357435 -0.111828 -0.012999
v 0.357406 -0.11199 -0.013556
v 0.357359 -0.112256 -0.014094
v 0.357295 -0.112623 -0.014604
v 0.357214 -0.113084 -0.015076
v 0.357118 -0.113631 -0.015503
v 0.357008 -0.114254 -0.015878
v 0.356887 -0.114944 -0.016194
v 0.356757 -0.115688 -0.016445
v 0.356619 -0.116474 -0.016628
v 0.356476 -0.117287 -0.016738
v 0.355939 -0.120345 -0.016776
v 0.356331 -0.118115 -0.016776
v 0.353863 -0.131261 -0.016776
v 0.353863 -0.131261 0.018465
v 0.353863 -0.131261 0.018465
v 0.353863 -0.131261 -0.016776
v 0.351634 -0.142148 -0.016776
v 0.351634 -0.142148 0.018465
v 0.351634 -0.142148 0.018465
v 0.351634 -0.142148 -0.016776
v 0.349253 -0.153002 -0.016776
v 0.349253 -0.153002 0.018465
v 0.349253 -0.153002 0.018465
v 0.349253 -0.153002 -0.016776
v 0.346719 -0.163821 -0.016776
v 0.346719 -0.163821 0.018465
v 0.346719 -0.163821 0.018465
v 0.346719 -0.163821 -0.016776
v 0.344034 -0.174604 -0.016776
v 0.344034 -0.174604 0.018465
v 0.344034 -0.174604 0.018465
v 0.344034 -0.174604 -0.016776
v 0.341197 -0.185348 -0.016776
v 0.341197 -0.185348 0.018465
v 0.341197 -0.185348 0.018465
v 0.341197 -0.185348 -0.016776
v 0.338682 -0.194358 -0.016776
v 0.338423 -0.195286 -0.016734
v 0.338209 -0.196051 -0.016632
v 0.338209 -0.196051 0.018134
v 0.338383 -0.195429 0.018277
v 0.338675 -0.194384 0.018418
v 0.338972 -0.19332 0.018465
v 0.338972 -0.19332 0.018465
v 0.338675 -0.194384 0.018418
v 0.338383 -0.195429 0.018277
v 0.338209 -0.196051 0.018134
v 0.338209 -0.196051 -0.016632
v 0.338423 -0.195286 -0.016734
v 0.338682 -0.194358 -0.016776
v 0.338166 -0.196199 -0.016612
v 0.337906 -0.197081 -0.016409
v 0.33766 -0.197917 -0.016131
v 0.337432 -0.198691 -0.015782
v 0.337226 -0.199392 -0.015367
v 0.337045 -0.200006 -0.014894
v 0.336893 -0.200524 -0.014371
v 0.336772 -0.200936 -0.013807
v 0.336684 -0.201235 -0.013211
v 0.33663 -0.201417 -0.012594
v 0.336612 -0.201478 -0.011966
v 0.336612 -0.201478 0.012953
v 0.336633 -0.201408 0.013672
v 0.336694 -0.2012 0.01438
v 0.336795 -0.200857 0.015062
v 0.336934 -0.200384 0.015709
v 0.337109 -0.199791 0.016308
v 0.337316 -0.199087 0.016851
v 0.337552 -0.198284 0.017326
v 0.337813 -0.197397 0.017727
v 0.338095 -0.196439 0.018045
v 0.338095 -0.196439 0.018045
v 0.337813 -0.197397 0.017727
v 0.337552 -0.198284 0.017326
v 0.337316 -0.199087 0.016851
v 0.337109 -0.199791 0.016308
v 0.336934 -0.200384 0.015709
v 0.336795 -0.200857 0.015062
v 0.336694 -0.2012 0.01438
v 0.336633 -0.201408 0.013672
v 0.336612 -0.201478 0.012953
v 0.336612 -0.201478 -0.011966
v 0.33663 -0.201417 -0.012594
v 0.336684 -0.201235 -0.013211
v 0.336772 -0.200936 -0.013807
v 0.336893 -0.200524 -0.014371
v 0.337045 -0.200006 -0.014894
v 0.337226 -0.199392 -0.015367
v 0.337432 -0.198691 -0.015782
v 0.33766 -0.197917 -0.016131
v 0.337906 -0.197081 -0.016409
v 0.338166 -0.196199 -0.016612
vn 0.984926569755349 -0.17297298109809384 0.0
vn 0.9836872430321034 -0.17988720881680106 0.0
vn 0.9810630527259209 -0.19368863305856893 0.0
vn 0.9782452259896557 -0.20745186870319457 0.0
vn 0.9752343267784267 -0.22117415733541124 0.0
vn 0.9720309662360969 -0.23485272124912612 0.0
vn 0.9686357592148651 -0.24848494113374733 0.0
vn 0.9650493452232549 -0.2620682378392453 1.1130111972161493e-09
vn 0.9650493452232549 -0.2620682378392453 1.1130220680280153e-09
vn 0.963184693395562 -0.2688405594557808 1.1781887489896e-09
vn 0.9612724919128154 -0.2755997029964405 1.2433076553419527e-09
vn 0.9612724919128154 -0.2755997029964405 1.2433115576847337e-09
vn 0.9593128769379974 -0.2823451861479893 1.3083655182478412e-09
vn -0.984926569755349 0.17297298109809384 0.0
vn -0.9836872430321034 0.17988720881680106 0.0
vn -0.9810630527259209 0.19368863305856893 0.0
vn -0.9782452259896557 0.20745186870319457 0.0
vn -0.9752343267784267 0.22117415733541124 0.0
vn -0.9720309662360969 0.23485272124912612 0.0
vn -0.9686357592148651 0.24848494113374733 0.0
vn -0.9650493452232549 0.2620682378392453 -1.1130220680280153e-09
vn -0.9650493452232549 0.2620682378392453 -1.1130111972161493e-09
vn -0.963184693395562 0.2688405594557808 -1.1781887489896e-09
vn -0.9612724919128154 0.2755997029964405 -1.2433115576847337e-09
vn -0.9612724919128154 0.2755997029964405 -1.2433076553419527e-09
vn -0.9593128769379974 0.2823451861479893 -1.3083655182478412e-09
usemtl material_0_0
f 1//1 2//2 3//1
f 2//2 1//1 4//2
f 4//2 1//1 5//1
f 4//2 5//1 6//1
f 4//2 6//1 7//1
f 4//2 7//1 8//1
f 4//2 8//1 9//1
f 4//2 9//1 10//1
f 4//2 10//1 11//1
f 4//2 11//1 12//1
f 4//2 12//1 13//1
f 4//2 13//1 14//1
f 4//2 14//1 15//1
f 4//2 15//1 16//1
f 4//2 16//1 17//1
f 4//2 17//1 18//1
f 4//2 18//1 19//1
f 4//2 19//1 20//1
f 4//2 20//1 21//1
f 4//2 21//1 22//1
f 4//2 22//1 23//1
f 4//2 23//1 24//1
f 4//2 24//1 25//1
f 4//2 25//1 26//1
f 4//2 26//1 27//1
f 4//2 27//1 28//1
f 4//2 57//3 2//2
f 57//3 4//2 58//3
f 58//3 61//4 57//3
f 61//4 58//3 62//4
f 62//4 65//5 61//4
f 65//5 62//4 66//5
f 66//5 69//6 65//5
f 69//6 66//5 70//6
f 70//6 73//7 69//6
f 73//7 70//6 74//7
f 74//7 77//8 73//7
f 77//8 74//7 78//9
f 78//9 81//10 77//8
f 81//10 78//9 82//10
f 82//10 78//9 83//11
f 83//11 78//9 84//12
f 84//12 78//9 85//10
f 85//10 78//9 86//10
f 86//10 78//9 87//10
f 84//12 95//13 83//11
f 95//13 84//12 96//13
f 96//13 84//12 97//13
f 97//13 84//12 98//13
f 98//13 84//12 99//13
f 99//13 84//12 100//13
f 100//13 84//12 101//13
f 101//13 84//12 102//13
f 102//13 84//12 103//13
f 103//13 84//12 104//13
f 104//13 84//12 105//13
f 105//13 84//12 106//13
f 106//13 84//12 107//13
f 107//13 84//12 108//13
f 108//13 84//12 109//13
f 109//13 84//12 110//13
f 110//13 84//12 111//13
f 111//13 84//12 112//13
f 112//13 84//12 113//13
f 113//13 84//12 114//13
f 114//13 84//12 115//13
usemtl material_1_0
f 29//14 30//14 31//15
f 30//14 32//14 31//15
f 32//14 33//14 31//15
f 33//14 34//14 31//15
f 34//14 35//14 31//15
f 35//14 36//14 31//15
f 36//14 37//14 31//15
f 37//14 38//14 31//15
f 38//14 39//14 31//15
f 39//14 40//14 31//15
f 40//14 41//14 31//15
f 41//14 42//14 31//15
f 42//14 43//14 31//15
f 43//14 44//14 31//15
f 44//14 45//14 31//15
f 45//14 46//14 31//15
f 46//14 47//14 31//15
f 47//14 48//14 31//15
f 48//14 49//14 31//15
f 49//14 50//14 31//15
f 50//14 51//14 31//15
f 51//14 52//14 31//15
f 52//14 53//14 31//15
f 53//14 54//14 31//15
f 31//15 54//14 55//15
f 56//14 55//15 54//14
f 59//16 31//15 60//16
f 55//15 60//16 31//15
f 63//17 59//16 64//17
f 60//16 64//17 59//16
f 67//18 63//17 68//18
f 64//17 68//18 63//17
f 71//19 67//18 72//19
f 68//18 72//19 67//18
f 75//20 71//19 76//20
f 72//19 76//20 71//19
f 79//21 75//20 80//22
f 76//20 80//22 75//20
f 88//23 79//21 89//23
f 89//23 79//21 90//23
f 90//23 79//21 91//24
f 91//24 79//21 92//25
f 92//25 79//21 93//23
f 93//23 79//21 94//23
f 80//22 94//23 79//21
f 116//26 91//24 117//26
f 117//26 91//24 118//26
f 118//26 91//24 119//26
f 119//26 91//24 120//26
f 120//26 91//24 121//26
f 121//26 91//24 122//26
f 122//26 91//24 123//26
f 123//26 91//24 124//26
f 124//26 91//24 125//26
f 125//26 91//24 126//26
f 126//26 91//24 127//26
f 127//26 91//24 128//26
f 128//26 91//24 129//26
f 129//26 91//24 130//26
f 130//26 91//24 131//26
f 131//26 91//24 132//26
f 132//26 91//24 133//26
f 133//26 91//24 134//26
f 134//26 91//24 135//26
f 135//26 91//24 136//26
f 92//25 136//26 91//24
