# SSTK version 0.8.0
# 756
mtllib original-756.mtl
o #ID4816
v 0.138567 0.229324 0.124676
v 0.14457 0.228533 0.121246
v 0.138567 0.229324 0.121246
v 0.148665 0.227994 0.121246
v 0.154682 0.227202 0.121246
v 0.154682 0.227202 0.124676
v 0.14457 0.228533 0.104397
v 0.148665 0.227994 0.104397
v 0.14457 0.228533 0.121246
v 0.14457 0.228533 0.104397
v 0.148665 0.227994 0.121246
v 0.148665 0.227994 0.104397
v 0.154682 0.227202 0.124676
v 0.138567 0.229324 0.124676
v 0.154682 0.227202 0.121246
v 0.138567 0.229324 0.121246
vn 0.1305261948688555 0.9914448610250888 5.536677279864037e-09
vn -0.1305261948688555 -0.9914448610250888 -5.536677279864037e-09
usemtl material_0_0
f 9//2 10//2 11//2
f 12//2 11//2 10//2
f 13//2 14//2 15//2
f 15//2 14//2 11//2
f 11//2 14//2 9//2
f 16//2 9//2 14//2
usemtl material_1_0
f 1//1 2//1 3//1
f 2//1 1//1 4//1
f 4//1 1//1 5//1
f 5//1 1//1 6//1
f 7//1 4//1 8//1
f 4//1 7//1 2//1
