# SSTK version 0.8.0
# 172
mtllib original-172.mtl
o #ID877
v 0.081911 0.376647 0.045576
v 0.080386 0.373187 0.042672
v 0.085377 0.373187 0.042672
v 0.078452 0.375117 0.044292
v 0.073906 0.383525 0.051347
v 0.077764 0.384316 0.052011
v 0.072356 0.392547 0.058918
v 0.076349 0.392547 0.058918
v 0.073906 0.40157 0.066489
v 0.077764 0.400778 0.065824
v 0.081911 0.408448 0.07226
v 0.078452 0.409978 0.073544
v 0.085377 0.411908 0.075163
v 0.080386 0.411908 0.075163
v 0.080386 0.411908 0.075163
v 0.085377 0.411908 0.075163
v 0.078452 0.409978 0.073544
v 0.081911 0.408448 0.07226
v 0.073906 0.40157 0.066489
v 0.077764 0.400778 0.065824
v 0.076349 0.392547 0.058918
v 0.072356 0.392547 0.058918
v 0.077764 0.384316 0.052011
v 0.073906 0.383525 0.051347
v 0.081911 0.376647 0.045576
v 0.078452 0.375117 0.044292
v 0.080386 0.373187 0.042672
v 0.085377 0.373187 0.042672
vn 0.0 -0.6427875875138863 0.7660444617240425
vn 0.0 0.6427875875138863 -0.7660444617240425
usemtl material_0_0
f 15//2 16//2 17//2
f 16//2 18//2 17//2
f 17//2 18//2 19//2
f 18//2 20//2 19//2
f 20//2 21//2 19//2
f 19//2 21//2 22//2
f 21//2 23//2 22//2
f 22//2 23//2 24//2
f 23//2 25//2 24//2
f 24//2 25//2 26//2
f 26//2 25//2 27//2
f 28//2 27//2 25//2
usemtl material_1_0
f 1//1 2//1 3//1
f 2//1 1//1 4//1
f 4//1 1//1 5//1
f 5//1 1//1 6//1
f 5//1 6//1 7//1
f 7//1 6//1 8//1
f 7//1 8//1 9//1
f 9//1 8//1 10//1
f 9//1 10//1 11//1
f 9//1 11//1 12//1
f 12//1 11//1 13//1
f 12//1 13//1 14//1
