# SSTK version 0.8.0
# 594
mtllib original-594.mtl
o #ID3712
v -0.206121 -0.213791 -0.082804
v -0.206007 -0.21506 -0.082493
v -0.205981 -0.21506 -0.082792
v -0.206148 -0.213791 -0.082505
v -0.205586 -0.216087 -0.082455
v -0.20556 -0.216087 -0.082754
v -0.205699 -0.211519 -0.082766
v -0.205726 -0.211519 -0.082468
v -0.204078 -0.217582 -0.08232
v -0.204051 -0.217582 -0.082619
v -0.205165 -0.210571 -0.082719
v -0.205192 -0.210571 -0.08242
v -0.201852 -0.218548 -0.082423
v -0.201879 -0.218548 -0.082124
v -0.204409 -0.209776 -0.082651
v -0.204436 -0.209776 -0.082352
v -0.199245 -0.219254 -0.08219
v -0.199271 -0.219254 -0.081892
v -0.202228 -0.208669 -0.082457
v -0.202254 -0.208669 -0.082158
v -0.195681 -0.220243 -0.081571
v -0.195655 -0.220243 -0.08187
v -0.199158 -0.208281 -0.081881
v -0.199132 -0.208281 -0.08218
v -0.193985 -0.220888 -0.081721
v -0.194012 -0.220888 -0.081422
v -0.194713 -0.208823 -0.081485
v -0.194687 -0.208823 -0.081784
v -0.192535 -0.221739 -0.08129
v -0.192509 -0.221739 -0.081589
v -0.190691 -0.210165 -0.081126
v -0.190664 -0.210165 -0.081425
v -0.19126 -0.222837 -0.081478
v -0.191287 -0.222837 -0.081179
v -0.190664 -0.206609 -0.081425
v -0.190691 -0.210165 -0.081126
v -0.190664 -0.210165 -0.081425
v -0.190691 -0.206609 -0.081126
v -0.190275 -0.224223 -0.08139
v -0.190302 -0.224223 -0.081091
v -0.19464 -0.205349 -0.081779
v -0.190691 -0.206609 -0.081126
v -0.190664 -0.206609 -0.081425
v -0.194667 -0.205349 -0.081481
v -0.189661 -0.225971 -0.081034
v -0.189635 -0.225971 -0.081333
v -0.199346 -0.204866 -0.081898
v -0.199319 -0.204866 -0.082197
v -0.189448 -0.228155 -0.081015
v -0.189421 -0.228155 -0.081314
v -0.201486 -0.205002 -0.082089
v -0.201459 -0.205002 -0.082388
v -0.189679 -0.230437 -0.081035
v -0.189652 -0.230437 -0.081334
v -0.203497 -0.205408 -0.082269
v -0.203471 -0.205408 -0.082567
v -0.190346 -0.232382 -0.081396
v -0.190372 -0.232382 -0.081097
v -0.205304 -0.206097 -0.082731
v -0.205331 -0.206097 -0.082432
v -0.191474 -0.234001 -0.081196
v -0.191447 -0.234001 -0.081494
v -0.206938 -0.20708 -0.082576
v -0.206911 -0.20708 -0.082875
v -0.192929 -0.235302 -0.081325
v -0.192902 -0.235302 -0.081624
v -0.208277 -0.20836 -0.082695
v -0.208251 -0.20836 -0.082994
v -0.194683 -0.236297 -0.081783
v -0.19471 -0.236297 -0.081484
v -0.209307 -0.209941 -0.082787
v -0.20928 -0.209941 -0.083086
v -0.196763 -0.236998 -0.081969
v -0.196789 -0.236998 -0.08167
v -0.209963 -0.21184 -0.082846
v -0.209937 -0.21184 -0.083145
v -0.199096 -0.237413 -0.082177
v -0.199123 -0.237413 -0.081878
v -0.210182 -0.214074 -0.082865
v -0.210155 -0.214074 -0.083164
v -0.201668 -0.237551 -0.082105
v -0.201641 -0.237551 -0.082404
v -0.209974 -0.216175 -0.082847
v -0.209947 -0.216175 -0.083145
v -0.204139 -0.237398 -0.082627
v -0.204166 -0.237398 -0.082328
v -0.209349 -0.217865 -0.082791
v -0.209323 -0.217865 -0.08309
v -0.206605 -0.236986 -0.082546
v -0.206578 -0.236986 -0.082845
v -0.208382 -0.219213 -0.082705
v -0.208355 -0.219213 -0.083003
v -0.208704 -0.236397 -0.082733
v -0.208678 -0.236397 -0.083032
v -0.207145 -0.22029 -0.082594
v -0.207118 -0.22029 -0.082893
v -0.210155 -0.235738 -0.083164
v -0.210182 -0.235738 -0.082865
v -0.204025 -0.221762 -0.082316
v -0.203998 -0.221762 -0.082615
v -0.210182 -0.235738 -0.082865
v -0.210155 -0.232229 -0.083164
v -0.210155 -0.235738 -0.083164
v -0.210182 -0.232229 -0.082865
v -0.200422 -0.222716 -0.082295
v -0.200448 -0.222716 -0.081997
v -0.210155 -0.232229 -0.083164
v -0.208282 -0.233006 -0.082696
v -0.208255 -0.233006 -0.082995
v -0.210182 -0.232229 -0.082865
v -0.19781 -0.223422 -0.081761
v -0.197783 -0.223422 -0.08206
v -0.206074 -0.233607 -0.0828
v -0.206101 -0.233607 -0.082501
v -0.195593 -0.2244 -0.081563
v -0.195566 -0.2244 -0.081862
v -0.203799 -0.233995 -0.082597
v -0.203826 -0.233995 -0.082298
v -0.19403 -0.225918 -0.081725
v -0.194057 -0.225918 -0.081426
v -0.201668 -0.234137 -0.082105
v -0.201641 -0.234137 -0.082404
v -0.193626 -0.22696 -0.081388
v -0.193599 -0.22696 -0.081686
v -0.19851 -0.233854 -0.082125
v -0.198537 -0.233854 -0.081826
v -0.193482 -0.22825 -0.081375
v -0.193455 -0.22825 -0.081674
v -0.195921 -0.232912 -0.081593
v -0.195895 -0.232912 -0.081891
v -0.193646 -0.229824 -0.081389
v -0.19362 -0.229824 -0.081688
v -0.194886 -0.232132 -0.081801
v -0.194913 -0.232132 -0.081503
v -0.194139 -0.231111 -0.081433
v -0.194112 -0.231111 -0.081732
vn 0.995362672840814 -0.036901472505856396 0.08883372581452563
vn 0.9649675886864306 0.24783203924386707 0.08612103755135507
vn 0.9649675886864443 0.24783203924386707 0.08612103755120196
vn 0.9953626728407909 -0.036901472505856396 0.08883372581478356
vn 0.8270659473350616 0.557237349971765 0.0738136474860972
vn 0.8270659473350663 0.557237349971765 0.07381364748604387
vn 0.93584820604397 -0.34236263944079415 0.08352220279312256
vn 0.9358482060439252 -0.34236263944079426 0.08352220279362778
vn 0.5588182294048639 0.8277891350211003 0.049873183433897926
vn 0.5588182294048665 0.8277891350211003 0.04987318343386883
vn 0.7997741853582119 -0.5960423176712429 0.07137792361579195
vn 0.7997741853581558 -0.5960423176712429 0.07137792361641958
vn 0.3302212517530141 0.943443351965556 0.029471452673201098
vn 0.33022125175301614 0.943443351965556 0.029471452673177554
vn 0.5932564634416109 -0.8032704489283252 0.05294671343190006
vn 0.5932564634415687 -0.8032704489283251 0.05294671343237095
vn 0.2615210139981666 0.9649155392889244 0.02334012159640985
vn 0.26152101399817407 0.9649155392889244 0.02334012159632612
vn 0.2906818967425671 -0.9564679886224349 0.025942660748217848
vn 0.2906818967425452 -0.9564679886224351 0.025942660748464276
vn 0.3109391749760565 0.9500245971163676 0.027750573671416028
vn 0.31093917497605617 0.9500245971163676 0.027750573671419934
vn 0.0017797943690642934 -0.99999840354924 0.0001588426118194433
vn 0.001779794369073928 -0.99999840354924 0.00015884261171148983
vn 0.4279257838687335 0.9030066137584456 0.03819134730322212
vn 0.4279257838687293 0.9030066137584456 0.03819134730326883
vn -0.21817081943085082 -0.9757163343431612 -0.01947122093798055
vn -0.21817081943084515 -0.9757163343431612 -0.019471220938044227
vn 0.578884397289281 0.8137712709817202 0.051664040684226455
vn 0.5788843972892859 0.8137712709817202 0.051664040684171485
vn -0.31414901689500235 -0.9489595983645417 -0.02803704434691869
vn 0.738509502043698 0.6710138308887367 0.06591019759635854
vn 0.7385095020436812 0.6710138308887367 0.06591019759654727
vn 0.9960410677264975 2.701399036559341e-09 0.08889427091921544
vn 0.8806948066681951 0.4671174521745429 0.07859989428513314
vn 0.8806948066682062 0.4671174521745429 0.07859989428500892
vn 0.20185187035542 0.9792503712700622 0.018014793961187464
vn 0.2998050304680661 0.9536251953381246 0.0267568780384728
vn 0.20185187035542937 0.9792503712700622 0.018014793961082107
vn 0.9709219540318392 0.22316342000324804 0.08665245034878688
vn 0.9709219540317349 0.223163420003248 0.08665245034995543
vn 0.019654096211681977 0.9998053008978092 0.0017540805978098581
vn 0.019654096211673428 0.9998053008978092 0.0017540805979056398
vn 0.9960394817420798 -0.0017845375486679096 0.08889412937144107
vn 0.996039481741959 -0.0017845375486679096 0.08889412937279373
vn -0.1298355366189829 0.9914678325836495 -0.011587509773070685
vn -0.12983553661898659 0.9914678325836495 -0.011587509773029537
vn 0.9714937403020366 -0.22064092760678605 0.08670348100725978
vn 0.9714937403019926 -0.22064092760678605 0.0867034810077524
vn -0.2736127487238562 0.9615299072230613 -0.024419280320825323
vn -0.2736127487238485 0.9615299072230613 -0.024419280320911133
vn 0.8874037378577652 -0.4541389432724857 0.07919865048987121
vn 0.88740373785777 -0.4541389432724857 0.07919865048981778
vn -0.4356041651779573 0.8992984039364663 -0.03887662481413358
vn -0.43560416517798495 0.8992984039364663 -0.03887662481382424
vn 0.7480140320619376 -0.6603168304743955 0.06675845437613788
vn 0.7480140320619574 -0.6603168304743956 0.06675845437591747
vn -0.6060390577250403 0.7935938505887993 -0.05408752924092561
vn -0.6060390577250289 0.7935938505887993 -0.05408752924105316
vn 0.5768138083441205 -0.8152519351313472 0.05147924599434458
vn 0.5768138083441641 -0.815251935131347 0.051479245993855845
vn -0.7653232816874596 0.6400116707772288 -0.06830326329010453
vn -0.7653232816874549 0.6400116707772288 -0.06830326329015743
vn 0.4022808107768929 -0.9148120861214682 0.03590259554368126
vn 0.40228081077686706 -0.9148120861214682 0.03590259554397091
vn -0.8939974189342395 0.44091113652741615 -0.07978712067132142
vn -0.8939974189341711 0.44091113652741626 -0.0797871206720903
vn 0.24599441756503157 -0.9690225747522516 0.02195441065840473
vn 0.2459944175650273 -0.9690225747522514 0.021954410658452356
vn -0.9728953328276897 0.21432561870659966 -0.08682856976901214
vn -0.9728953328276133 0.21432561870659966 -0.08682856976986786
vn 0.11400136916870052 -0.9934284928783023 0.010174348392238049
vn 0.11400136916869795 -0.9934284928783023 0.010174348392267002
vn -0.9960409089790844 -0.0005645857991342901 -0.08889425674921102
vn -0.9960409089790496 -0.0005645857991342901 -0.08889425674960236
vn -0.0034177116317939175 -0.9999941130869698 -0.0003050223045939584
vn -0.003417711631789171 -0.9999941130869698 -0.0003050223046471426
vn -0.9704388261501042 -0.22527163214865945 -0.08660933234638836
vn -0.9704388261500423 -0.2252716321486594 -0.08660933234708
vn -0.11313699914254363 -0.9935280901297927 -0.010097204963091369
vn -0.11313699914254512 -0.9935280901297927 -0.010097204963074785
vn -0.8789105901292458 -0.4704925481337196 -0.0784406572467401
vn -0.8789105901292115 -0.4704925481337196 -0.0784406572471249
vn -0.21692545624835888 -0.9759961751549394 -0.019360075267667705
vn -0.21692545624836118 -0.9759961751549394 -0.019360075267641958
vn -0.7353054904018673 -0.674551179642134 -0.06562424725872935
vn -0.735305490401881 -0.674551179642134 -0.0656242472585764
vn -0.3371442339778002 -0.9409720499500137 -0.030089312195382762
vn -0.3371442339778032 -0.9409720499500137 -0.030089312195349483
vn -0.5432483405211562 -0.8381709731608937 -0.04848360827671758
vn -0.5432483405211415 -0.8381709731608937 -0.0484836082768836
vn -0.4045305903958099 -0.9138115490649265 -0.036103382522649496
vn -0.34101673180589737 -0.939564422523055 -0.030434923317509705
vn -0.34101673180587455 -0.939564422523055 -0.030434923317765556
vn -0.9960410677265494 -2.7014487389759233e-09 -0.08889427091863346
vn -0.2561513519782692 -0.9663663200303182 -0.02286089216906211
vn -0.25615135197828115 -0.9663663200303182 -0.02286089216892902
vn 0.375803146160127 0.9260923795457763 0.03353952717902065
vn 0.32016380541586875 0.9469311869461873 0.028573849763631295
vn 0.32016380541585426 0.9469311869461873 0.02857384976379385
vn -0.3295361489354714 -0.9436847780247217 -0.029410308893491062
vn -0.3295361489354517 -0.9436847780247217 -0.02941030889371183
vn 0.21547303892651062 0.9763204183406375 0.019230450513099
vn 0.21547303892652173 0.9763204183406375 0.019230450512974805
vn -0.5589095859488648 -0.8277269640255345 -0.04988133678581846
vn -0.5589095859488501 -0.8277269640255345 -0.04988133678598246
vn 0.11608090244584639 0.9931857307193479 0.010359941256253008
vn 0.11608090244585133 0.9931857307193477 0.01035994125619724
vn -0.8257962084947863 -0.5591322597848218 -0.07370032634631893
vn -0.8257962084947834 -0.5591322597848218 -0.07370032634635182
vn -0.012211933151596377 0.9999248375939971 -0.0010898859202408584
vn -0.012211933151599635 0.9999248375939973 -0.0010898859202043856
vn -0.9644579833472017 -0.24982353158046552 -0.08607555649842284
vn -0.9644579833471941 -0.24982353158046552 -0.08607555649850593
vn -0.2144924462847506 0.9765380374102718 -0.019142935450913785
vn -0.2144924462847512 0.9765380374102718 -0.0191429354509071
vn -0.9960347634518869 -0.003557896068279534 -0.08889370827517011
vn -0.9960347634518666 -0.003557896068279534 -0.08889370827539803
vn -0.47789509688852966 0.8773808577374731 -0.04265098880165491
vn -0.4778950968885491 0.8773808577374731 -0.04265098880143673
vn -0.9685116778628649 0.23348172573298315 -0.08643733910762288
vn -0.9685116778628945 0.23348172573298315 -0.08643733910729046
vn -0.7064226921290291 0.7049766772335289 -0.06304652727904901
vn -0.7064226921289742 0.7049766772335289 -0.06304652727966335
vn -0.86992021484794 0.48704323834740965 -0.07763828809924923
vn -0.8699202148480129 0.48704323834740976 -0.07763828809843522
usemtl material_0_0
f 1//1 2//2 3//3
f 2//2 1//1 4//4
f 3//3 5//5 6//6
f 5//5 3//3 2//2
f 7//7 4//4 1//1
f 4//4 7//7 8//8
f 6//6 9//9 10//10
f 9//9 6//6 5//5
f 11//11 8//8 7//7
f 8//8 11//11 12//12
f 9//9 13//13 10//10
f 13//13 9//9 14//14
f 15//15 12//12 11//11
f 12//12 15//15 16//16
f 14//14 17//17 13//13
f 17//17 14//14 18//18
f 19//19 16//16 15//15
f 16//16 19//19 20//20
f 17//17 21//21 22//22
f 21//21 17//17 18//18
f 23//23 19//19 24//24
f 19//19 23//23 20//20
f 21//21 25//25 22//22
f 25//25 21//21 26//26
f 27//27 24//24 28//28
f 24//24 27//27 23//23
f 25//25 29//29 30//30
f 29//29 25//25 26//26
f 31//31 28//28 32//31
f 28//28 31//31 27//27
f 29//29 33//32 30//30
f 33//32 29//29 34//33
f 35//34 36//34 37//34
f 36//34 35//34 38//34
f 39//35 34//33 40//36
f 34//33 39//35 33//32
f 41//37 42//38 43//38
f 42//38 41//37 44//39
f 39//35 45//40 46//41
f 45//40 39//35 40//36
f 47//42 41//37 48//43
f 41//37 47//42 44//39
f 46//41 49//44 50//45
f 49//44 46//41 45//40
f 51//46 48//43 52//47
f 48//43 51//46 47//42
f 50//45 53//48 54//49
f 53//48 50//45 49//44
f 55//50 52//47 56//51
f 52//47 55//50 51//46
f 57//52 53//48 58//53
f 53//48 57//52 54//49
f 59//54 55//50 56//51
f 55//50 59//54 60//55
f 57//52 61//56 62//57
f 61//56 57//52 58//53
f 63//58 59//54 64//59
f 59//54 63//58 60//55
f 62//57 65//60 66//61
f 65//60 62//57 61//56
f 67//62 64//59 68//63
f 64//59 67//62 63//58
f 65//60 69//64 66//61
f 69//64 65//60 70//65
f 71//66 68//63 72//67
f 68//63 71//66 67//62
f 70//65 73//68 69//64
f 73//68 70//65 74//69
f 75//70 72//67 76//71
f 72//67 75//70 71//66
f 74//69 77//72 73//68
f 77//72 74//69 78//73
f 79//74 76//71 80//75
f 76//71 79//74 75//70
f 77//72 81//76 82//77
f 81//76 77//72 78//73
f 83//78 80//75 84//79
f 80//75 83//78 79//74
f 81//76 85//80 82//77
f 85//80 81//76 86//81
f 87//82 84//79 88//83
f 84//79 87//82 83//78
f 85//80 89//84 90//85
f 89//84 85//80 86//81
f 91//86 88//83 92//87
f 88//83 91//86 87//82
f 90//85 93//88 94//89
f 93//88 90//85 89//84
f 95//90 92//87 96//91
f 92//87 95//90 91//86
f 93//88 97//92 94//89
f 97//92 93//88 98//92
f 99//93 96//91 100//94
f 96//91 99//93 95//90
f 101//95 102//95 103//95
f 102//95 101//95 104//95
f 105//96 99//93 100//94
f 99//93 105//96 106//97
f 107//98 108//99 109//100
f 108//99 107//98 110//98
f 111//101 105//96 112//102
f 105//96 111//101 106//97
f 108//99 113//103 109//100
f 113//103 108//99 114//104
f 115//105 112//102 116//106
f 112//102 115//105 111//101
f 114//104 117//107 113//103
f 117//107 114//104 118//108
f 119//109 115//105 116//106
f 115//105 119//109 120//110
f 117//107 121//111 122//112
f 121//111 117//107 118//108
f 123//113 119//109 124//114
f 119//109 123//113 120//110
f 121//111 125//115 122//112
f 125//115 121//111 126//116
f 127//117 124//114 128//118
f 124//114 127//117 123//113
f 125//115 129//119 130//120
f 129//119 125//115 126//116
f 131//121 128//118 132//122
f 128//118 131//121 127//117
f 129//119 133//123 130//120
f 133//123 129//119 134//124
f 135//125 132//122 136//126
f 132//122 135//125 131//121
f 134//124 136//126 133//123
f 136//126 134//124 135//125
