# SSTK version 0.8.0
# 219
mtllib original-219.mtl
o #ID1315
v 0.175158 0.204311 -0.456347
v 0.177041 0.204435 -0.455296
v 0.177041 0.204435 -0.456347
v 0.175158 0.204311 -0.455296
v 0.175158 0.204311 -0.455296
v 0.175158 0.204311 -0.456347
v 0.177041 0.204435 -0.455296
v 0.177041 0.204435 -0.456347
v 0.056665 0.204311 -0.456347
v 0.056665 0.204311 -0.455296
v 0.056665 0.204311 -0.455296
v 0.056665 0.204311 -0.456347
v 0.178496 0.204724 -0.455296
v 0.178496 0.204724 -0.456347
v 0.178496 0.204724 -0.455296
v 0.178496 0.204724 -0.456347
v 0.054961 0.204423 -0.456347
v 0.054961 0.204423 -0.455296
v 0.054961 0.204423 -0.455296
v 0.054961 0.204423 -0.456347
v 0.1799 0.205201 -0.455296
v 0.1799 0.205201 -0.456347
v 0.1799 0.205201 -0.455296
v 0.1799 0.205201 -0.456347
v 0.053683 0.204677 -0.456347
v 0.053683 0.204677 -0.455296
v 0.053683 0.204677 -0.455296
v 0.053683 0.204677 -0.456347
v 0.18123 0.205856 -0.455296
v 0.18123 0.205856 -0.456347
v 0.18123 0.205856 -0.455296
v 0.18123 0.205856 -0.456347
v 0.052449 0.205096 -0.456347
v 0.052449 0.205096 -0.455296
v 0.052449 0.205096 -0.455296
v 0.052449 0.205096 -0.456347
v 0.182463 0.20668 -0.455296
v 0.182463 0.20668 -0.456347
v 0.182463 0.20668 -0.455296
v 0.182463 0.20668 -0.456347
v 0.05128 0.205672 -0.456347
v 0.05128 0.205672 -0.455296
v 0.05128 0.205672 -0.455296
v 0.05128 0.205672 -0.456347
v 0.183577 0.207658 -0.455296
v 0.183577 0.207658 -0.456347
v 0.183577 0.207658 -0.455296
v 0.183577 0.207658 -0.456347
v 0.050197 0.206396 -0.456347
v 0.050197 0.206396 -0.455296
v 0.050197 0.206396 -0.455296
v 0.050197 0.206396 -0.456347
v 0.184555 0.208773 -0.456347
v 0.184555 0.208773 -0.455296
v 0.184555 0.208773 -0.455296
v 0.184555 0.208773 -0.456347
v 0.049218 0.207255 -0.456347
v 0.049218 0.207255 -0.455296
v 0.049218 0.207255 -0.455296
v 0.049218 0.207255 -0.456347
v 0.185379 0.210006 -0.455296
v 0.185379 0.210006 -0.456347
v 0.185379 0.210006 -0.455296
v 0.185379 0.210006 -0.456347
v 0.048358 0.208235 -0.455296
v 0.048358 0.208235 -0.456347
v 0.048358 0.208235 -0.455296
v 0.048358 0.208235 -0.456347
v 0.186035 0.211335 -0.455296
v 0.186035 0.211335 -0.456347
v 0.186035 0.211335 -0.455296
v 0.186035 0.211335 -0.456347
v 0.047635 0.209318 -0.455296
v 0.047635 0.209318 -0.456347
v 0.047635 0.209318 -0.455296
v 0.047635 0.209318 -0.456347
v 0.186511 0.212739 -0.455296
v 0.186511 0.212739 -0.456347
v 0.186511 0.212739 -0.455296
v 0.186511 0.212739 -0.456347
v 0.047058 0.210487 -0.455296
v 0.047058 0.210487 -0.456347
v 0.047058 0.210487 -0.455296
v 0.047058 0.210487 -0.456347
v 0.1868 0.214194 -0.455296
v 0.1868 0.214194 -0.456347
v 0.1868 0.214194 -0.455296
v 0.1868 0.214194 -0.456347
v 0.04664 0.21172 -0.456347
v 0.04664 0.21172 -0.455296
v 0.04664 0.21172 -0.455296
v 0.04664 0.21172 -0.456347
v 0.186924 0.216078 -0.455296
v 0.186924 0.216078 -0.456347
v 0.186924 0.216078 -0.455296
v 0.186924 0.216078 -0.456347
v 0.046385 0.212998 -0.455296
v 0.046385 0.212998 -0.456347
v 0.046385 0.212998 -0.455296
v 0.046385 0.212998 -0.456347
v 0.186924 0.282224 -0.455296
v 0.186924 0.282224 -0.456347
v 0.186924 0.282224 -0.455296
v 0.186924 0.282224 -0.456347
v 0.046274 0.214703 -0.455296
v 0.046274 0.214703 -0.456347
v 0.046274 0.214703 -0.455296
v 0.046274 0.214703 -0.456347
v 0.186839 0.283526 -0.456347
v 0.186839 0.283526 -0.455296
v 0.186839 0.283526 -0.455296
v 0.186839 0.283526 -0.456347
v 0.046274 0.28205 -0.455296
v 0.046274 0.28205 -0.456347
v 0.046274 0.28205 -0.455296
v 0.046274 0.28205 -0.456347
v 0.186663 0.284408 -0.456347
v 0.186663 0.284408 -0.455296
v 0.186663 0.284408 -0.455296
v 0.186663 0.284408 -0.456347
v 0.04636 0.283375 -0.455296
v 0.04636 0.283375 -0.456347
v 0.04636 0.283375 -0.455296
v 0.04636 0.283375 -0.456347
v 0.186374 0.28526 -0.456347
v 0.186374 0.28526 -0.455296
v 0.186374 0.28526 -0.455296
v 0.186374 0.28526 -0.456347
v 0.04654 0.28428 -0.455296
v 0.04654 0.28428 -0.456347
v 0.04654 0.28428 -0.455296
v 0.04654 0.28428 -0.456347
v 0.185976 0.286067 -0.456347
v 0.185976 0.286067 -0.455296
v 0.185976 0.286067 -0.455296
v 0.185976 0.286067 -0.456347
v 0.046837 0.285153 -0.455296
v 0.046837 0.285153 -0.456347
v 0.046837 0.285153 -0.455296
v 0.046837 0.285153 -0.456347
v 0.185476 0.286816 -0.456347
v 0.185476 0.286816 -0.455296
v 0.185476 0.286816 -0.455296
v 0.185476 0.286816 -0.456347
v 0.047245 0.285981 -0.455296
v 0.047245 0.285981 -0.456347
v 0.047245 0.285981 -0.455296
v 0.047245 0.285981 -0.456347
v 0.184883 0.287492 -0.456347
v 0.184883 0.287492 -0.455296
v 0.184883 0.287492 -0.455296
v 0.184883 0.287492 -0.456347
v 0.047757 0.286748 -0.455296
v 0.047757 0.286748 -0.456347
v 0.047757 0.286748 -0.455296
v 0.047757 0.286748 -0.456347
v 0.184206 0.288085 -0.455296
v 0.184206 0.288085 -0.456347
v 0.184206 0.288085 -0.456347
v 0.184206 0.288085 -0.455296
v 0.048366 0.287441 -0.456347
v 0.048366 0.287441 -0.455296
v 0.048366 0.287441 -0.455296
v 0.048366 0.287441 -0.456347
v 0.183458 0.288585 -0.455296
v 0.183458 0.288585 -0.456347
v 0.183458 0.288585 -0.456347
v 0.183458 0.288585 -0.455296
v 0.049059 0.28805 -0.456347
v 0.049059 0.28805 -0.455296
v 0.049059 0.28805 -0.456347
v 0.049059 0.28805 -0.455296
v 0.182651 0.288983 -0.455296
v 0.182651 0.288983 -0.456347
v 0.182651 0.288983 -0.456347
v 0.182651 0.288983 -0.455296
v 0.049826 0.288562 -0.456347
v 0.049826 0.288562 -0.455296
v 0.049826 0.288562 -0.456347
v 0.049826 0.288562 -0.455296
v 0.181799 0.289273 -0.455296
v 0.181799 0.289273 -0.456347
v 0.181799 0.289273 -0.456347
v 0.181799 0.289273 -0.455296
v 0.050654 0.28897 -0.456347
v 0.050654 0.28897 -0.455296
v 0.050654 0.28897 -0.456347
v 0.050654 0.28897 -0.455296
v 0.180916 0.289448 -0.455296
v 0.180916 0.289448 -0.456347
v 0.180916 0.289448 -0.456347
v 0.180916 0.289448 -0.455296
v 0.051527 0.289267 -0.456347
v 0.051527 0.289267 -0.455296
v 0.051527 0.289267 -0.456347
v 0.051527 0.289267 -0.455296
v 0.179614 0.289533 -0.455296
v 0.179614 0.289533 -0.456347
v 0.179614 0.289533 -0.456347
v 0.179614 0.289533 -0.455296
v 0.052432 0.289447 -0.456347
v 0.052432 0.289447 -0.455296
v 0.052432 0.289447 -0.456347
v 0.052432 0.289447 -0.455296
v 0.053757 0.289533 -0.455296
v 0.053757 0.289533 -0.456347
v 0.053757 0.289533 -0.456347
v 0.053757 0.289533 -0.455296
vn -0.03271907959347842 0.9994645875820491 0.0
vn -0.1305261948688555 0.9914448610250888 0.0
vn 0.03271907959347842 -0.9994645875820491 0.0
vn 0.1305261948688555 -0.9914448610250888 0.0
vn 0.03271907959347842 0.9994645875820491 0.0
vn -0.03271907959347842 -0.9994645875820491 0.0
vn -0.25881900959356163 0.9659258358036645 0.0
vn 0.25881900959356163 -0.9659258358036645 0.0
vn 0.1305261948688555 0.9914448610250888 0.0
vn -0.1305261948688555 -0.9914448610250888 0.0
vn -0.3826834162342326 0.9238795391929063 0.0
vn 0.3826834162342326 -0.9238795391929063 0.0
vn 0.25881900959356163 0.9659258358036645 0.0
vn -0.25881900959356163 -0.9659258358036645 0.0
vn -0.5000000016387101 0.8660254028383291 0.0
vn 0.5000000016387101 -0.8660254028383291 0.0
vn 0.3826834162342326 0.9238795391929063 0.0
vn -0.3826834162342326 -0.9238795391929063 0.0
vn -0.608761430209528 0.7933533393698232 0.0
vn 0.608761430209528 -0.7933533393698232 0.0
vn 0.5000000016387101 0.8660254028383291 0.0
vn -0.5000000016387101 -0.8660254028383291 0.0
vn -0.7071067811865475 0.7071067811865475 0.0
vn 0.7071067811865475 -0.7071067811865475 0.0
vn 0.608761430209528 0.7933533393698232 0.0
vn -0.608761430209528 -0.7933533393698232 0.0
vn -0.7933533393698232 0.608761430209528 0.0
vn 0.7933533393698232 -0.608761430209528 0.0
vn 0.7071067811865475 0.7071067811865475 0.0
vn -0.7071067811865475 -0.7071067811865475 0.0
vn -0.8660254028383291 0.5000000016387101 0.0
vn 0.8660254028383291 -0.5000000016387101 0.0
vn 0.7933533393698232 0.608761430209528 0.0
vn -0.7933533393698232 -0.608761430209528 0.0
vn -0.9238795391929063 0.3826834162342326 0.0
vn 0.9238795391929063 -0.3826834162342326 0.0
vn 0.8660254028383291 0.5000000016387101 0.0
vn -0.8660254028383291 -0.5000000016387101 0.0
vn -0.9659258358036645 0.25881900959356163 0.0
vn 0.9659258358036645 -0.25881900959356163 0.0
vn 0.9238795391929063 0.3826834162342326 0.0
vn -0.9238795391929063 -0.3826834162342326 0.0
vn -0.9914448610250888 0.1305261948688555 0.0
vn 0.9914448610250888 -0.1305261948688555 0.0
vn 0.9659258358036645 0.25881900959356163 0.0
vn -0.9659258358036645 -0.25881900959356163 0.0
vn -0.9994645875820491 0.03271907959347842 0.0
vn 0.9994645875820491 -0.03271907959347842 0.0
vn 0.9914448610250888 0.1305261948688555 0.0
vn -0.9914448610250888 -0.1305261948688555 0.0
vn -0.9994645875820491 -0.03271907959347842 0.0
vn 0.9994645875820491 0.03271907959347842 0.0
usemtl material_0_0
f 1//1 2//2 3//2
f 2//2 1//1 4//1
f 5//3 6//3 7//4
f 8//4 7//4 6//3
f 9//5 4//1 1//1
f 4//1 9//5 10//5
f 11//6 12//6 5//3
f 6//3 5//3 12//6
f 3//2 13//7 14//7
f 13//7 3//2 2//2
f 7//4 8//4 15//8
f 16//8 15//8 8//4
f 17//9 10//5 9//5
f 10//5 17//9 18//9
f 19//10 20//10 11//6
f 12//6 11//6 20//10
f 14//7 21//11 22//11
f 21//11 14//7 13//7
f 15//8 16//8 23//12
f 24//12 23//12 16//8
f 25//13 18//9 17//9
f 18//9 25//13 26//13
f 27//14 28//14 19//10
f 20//10 19//10 28//14
f 22//11 29//15 30//15
f 29//15 22//11 21//11
f 23//12 24//12 31//16
f 32//16 31//16 24//12
f 33//17 26//13 25//13
f 26//13 33//17 34//17
f 35//18 36//18 27//14
f 28//14 27//14 36//18
f 30//15 37//19 38//19
f 37//19 30//15 29//15
f 31//16 32//16 39//20
f 40//20 39//20 32//16
f 41//21 34//17 33//17
f 34//17 41//21 42//21
f 43//22 44//22 35//18
f 36//18 35//18 44//22
f 38//19 45//23 46//23
f 45//23 38//19 37//19
f 39//20 40//20 47//24
f 48//24 47//24 40//20
f 49//25 42//21 41//21
f 42//21 49//25 50//25
f 51//26 52//26 43//22
f 44//22 43//22 52//26
f 45//23 53//27 46//23
f 53//27 45//23 54//27
f 55//28 47//24 56//28
f 48//24 56//28 47//24
f 57//29 50//25 49//25
f 50//25 57//29 58//29
f 59//30 60//30 51//26
f 52//26 51//26 60//30
f 53//27 61//31 62//31
f 61//31 53//27 54//27
f 55//28 56//28 63//32
f 64//32 63//32 56//28
f 65//33 57//29 66//33
f 57//29 65//33 58//29
f 59//30 67//34 60//30
f 68//34 60//30 67//34
f 62//31 69//35 70//35
f 69//35 62//31 61//31
f 63//32 64//32 71//36
f 72//36 71//36 64//32
f 73//37 66//33 74//37
f 66//33 73//37 65//33
f 67//34 75//38 68//34
f 76//38 68//34 75//38
f 70//35 77//39 78//39
f 77//39 70//35 69//35
f 71//36 72//36 79//40
f 80//40 79//40 72//36
f 81//41 74//37 82//41
f 74//37 81//41 73//37
f 75//38 83//42 76//38
f 84//42 76//38 83//42
f 78//39 85//43 86//43
f 85//43 78//39 77//39
f 79//40 80//40 87//44
f 88//44 87//44 80//40
f 89//45 81//41 82//41
f 81//41 89//45 90//45
f 91//46 92//46 83//42
f 84//42 83//42 92//46
f 86//43 93//47 94//47
f 93//47 86//43 85//43
f 87//44 88//44 95//48
f 96//48 95//48 88//44
f 97//49 89//45 98//49
f 89//45 97//49 90//45
f 91//46 99//50 92//46
f 100//50 92//46 99//50
f 94//47 101//51 102//51
f 101//51 94//47 93//47
f 95//48 96//48 103//52
f 104//52 103//52 96//48
f 105//52 98//49 106//52
f 98//49 105//52 97//49
f 99//50 107//51 100//50
f 108//51 100//50 107//51
f 101//51 109//50 102//51
f 109//50 101//51 110//50
f 111//49 103//52 112//49
f 104//52 112//49 103//52
f 113//48 106//52 114//48
f 106//52 113//48 105//52
f 107//51 115//47 108//51
f 116//47 108//51 115//47
f 110//50 117//46 109//50
f 117//46 110//50 118//46
f 119//45 111//49 120//45
f 112//49 120//45 111//49
f 121//44 114//48 122//44
f 114//48 121//44 113//48
f 115//47 123//43 116//47
f 124//43 116//47 123//43
f 118//46 125//42 117//46
f 125//42 118//46 126//42
f 127//41 119//45 128//41
f 120//45 128//41 119//45
f 129//40 122//44 130//40
f 122//44 129//40 121//44
f 123//43 131//39 124//43
f 132//39 124//43 131//39
f 126//42 133//38 125//42
f 133//38 126//42 134//38
f 135//37 127//41 136//37
f 128//41 136//37 127//41
f 137//36 130//40 138//36
f 130//40 137//36 129//40
f 131//39 139//35 132//39
f 140//35 132//39 139//35
f 134//38 141//34 133//38
f 141//34 134//38 142//34
f 143//33 135//37 144//33
f 136//37 144//33 135//37
f 145//32 138//36 146//32
f 138//36 145//32 137//36
f 139//35 147//31 140//35
f 148//31 140//35 147//31
f 142//34 149//30 141//34
f 149//30 142//34 150//30
f 151//29 143//33 152//29
f 144//33 152//29 143//33
f 153//28 146//32 154//28
f 146//32 153//28 145//32
f 147//31 155//27 148//31
f 156//27 148//31 155//27
f 157//26 149//30 150//30
f 149//30 157//26 158//26
f 159//25 160//25 152//29
f 151//29 152//29 160//25
f 161//24 153//28 154//28
f 153//28 161//24 162//24
f 163//23 164//23 155//27
f 156//27 155//27 164//23
f 165//22 158//26 157//26
f 158//26 165//22 166//22
f 167//21 168//21 159//25
f 160//25 159//25 168//21
f 162//24 169//20 170//20
f 169//20 162//24 161//24
f 164//23 163//23 171//19
f 172//19 171//19 163//23
f 173//18 166//22 165//22
f 166//22 173//18 174//18
f 175//17 176//17 167//21
f 168//21 167//21 176//17
f 170//20 177//16 178//16
f 177//16 170//20 169//20
f 171//19 172//19 179//15
f 180//15 179//15 172//19
f 181//14 174//18 173//18
f 174//18 181//14 182//14
f 183//13 184//13 175//17
f 176//17 175//17 184//13
f 178//16 185//12 186//12
f 185//12 178//16 177//16
f 179//15 180//15 187//11
f 188//11 187//11 180//15
f 189//10 182//14 181//14
f 182//14 189//10 190//10
f 191//9 192//9 183//13
f 184//13 183//13 192//9
f 186//12 193//8 194//8
f 193//8 186//12 185//12
f 187//11 188//11 195//7
f 196//7 195//7 188//11
f 197//6 190//10 189//10
f 190//10 197//6 198//6
f 199//5 200//5 191//9
f 192//9 191//9 200//5
f 194//8 201//4 202//4
f 201//4 194//8 193//8
f 195//7 196//7 203//2
f 204//2 203//2 196//7
f 205//3 198//6 197//6
f 198//6 205//3 206//3
f 207//1 208//1 199//5
f 200//5 199//5 208//1
f 202//4 206//3 205//3
f 206//3 202//4 201//4
f 203//2 204//2 207//1
f 208//1 207//1 204//2
