# SSTK version 0.8.0
# 364
mtllib original-364.mtl
o #ID2547
v -0.432072 -0.012588 -0.348789
v -0.432072 -0.029625 -0.353469
v -0.432072 -0.012588 -0.353469
v -0.432072 -0.029625 -0.348789
v -0.432072 -0.029625 -0.348789
v -0.432072 -0.012588 -0.348789
v -0.432072 -0.029625 -0.353469
v -0.432072 -0.012588 -0.353469
v -0.417719 -0.029625 -0.353469
v -0.432072 -0.029625 -0.348789
v -0.417719 -0.029625 -0.348789
v -0.427521 -0.029625 -0.353469
v -0.432072 -0.029625 -0.353469
v -0.432072 -0.029625 -0.353469
v -0.427521 -0.029625 -0.353469
v -0.432072 -0.029625 -0.348789
v -0.417719 -0.029625 -0.353469
v -0.417719 -0.029625 -0.348789
v -0.427521 -0.029625 -0.353469
v -0.432072 -0.012588 -0.353469
v -0.432072 -0.029625 -0.353469
v -0.427521 -0.012588 -0.353469
v -0.427521 -0.012588 -0.353469
v -0.427521 -0.029625 -0.353469
v -0.432072 -0.012588 -0.353469
v -0.432072 -0.029625 -0.353469
v -0.432072 -0.012588 -0.348789
v -0.417719 -0.012588 -0.353469
v -0.417719 -0.012588 -0.348789
v -0.427521 -0.012588 -0.353469
v -0.432072 -0.012588 -0.353469
v -0.432072 -0.012588 -0.353469
v -0.432072 -0.012588 -0.348789
v -0.427521 -0.012588 -0.353469
v -0.417719 -0.012588 -0.353469
v -0.417719 -0.012588 -0.348789
v -0.432072 -0.012588 -0.348789
v -0.417719 -0.029625 -0.348789
v -0.432072 -0.029625 -0.348789
v -0.417719 -0.012588 -0.348789
v -0.417719 -0.012588 -0.348789
v -0.432072 -0.012588 -0.348789
v -0.417719 -0.029625 -0.348789
v -0.432072 -0.029625 -0.348789
v -0.427521 -0.029625 -0.371193
v -0.417719 -0.029625 -0.353469
v -0.417719 -0.029625 -0.371193
v -0.427521 -0.029625 -0.353469
v -0.427521 -0.029625 -0.353469
v -0.427521 -0.029625 -0.371193
v -0.417719 -0.029625 -0.353469
v -0.417719 -0.029625 -0.371193
v -0.427521 -0.012588 -0.353469
v -0.427521 -0.029625 -0.371193
v -0.427521 -0.012588 -0.371193
v -0.427521 -0.029625 -0.353469
v -0.427521 -0.029625 -0.353469
v -0.427521 -0.012588 -0.353469
v -0.427521 -0.029625 -0.371193
v -0.427521 -0.012588 -0.371193
v -0.417719 -0.012588 -0.371193
v -0.427521 -0.012588 -0.371193
v -0.427521 -0.012588 -0.371193
v -0.417719 -0.012588 -0.371193
v -0.417719 -0.029625 -0.371193
v -0.427521 -0.012588 -0.371193
v -0.427521 -0.029625 -0.371193
v -0.417719 -0.012588 -0.371193
v -0.417719 -0.012588 -0.371193
v -0.417719 -0.029625 -0.371193
v -0.427521 -0.012588 -0.371193
v -0.427521 -0.029625 -0.371193
vn 1.0 7.45058599999999e-09 -2.711731999999999e-08
vn -7.450586e-09 1.0 0.0
vn 2.7117319999999987e-08 0.0 1.0
vn 7.450586e-09 -1.0 0.0
vn -2.7117319999999987e-08 0.0 -1.0
vn 1.0 7.450586000000002e-09 7.161856999999998e-09
vn -7.161857e-09 0.0 1.0
vn -1.0 -7.45058599999999e-09 2.711731999999999e-08
vn -1.0 -7.450586000000002e-09 -7.161856999999998e-09
vn 7.161857e-09 0.0 -1.0
usemtl material_0_0
f 5//8 6//8 7//8
f 8//8 7//8 6//8
f 14//4 15//4 16//4
f 15//4 17//4 16//4
f 18//4 16//4 17//4
f 23//5 24//5 25//5
f 26//5 25//5 24//5
f 32//2 33//2 34//2
f 34//2 33//2 35//2
f 36//2 35//2 33//2
f 41//3 42//3 43//3
f 44//3 43//3 42//3
f 49//4 50//4 51//4
f 52//4 51//4 50//4
f 57//9 58//9 59//9
f 60//9 59//9 58//9
f 63//2 34//2 64//2
f 35//2 64//2 34//2
f 69//10 70//10 71//10
f 72//10 71//10 70//10
usemtl material_1_0
f 1//1 2//1 3//1
f 2//1 1//1 4//1
f 9//2 10//2 11//2
f 10//2 9//2 12//2
f 10//2 12//2 13//2
f 19//3 20//3 21//3
f 20//3 19//3 22//3
f 27//4 28//4 29//4
f 28//4 27//4 30//4
f 30//4 27//4 31//4
f 37//5 38//5 39//5
f 38//5 37//5 40//5
f 45//2 46//2 47//2
f 46//2 45//2 48//2
f 53//6 54//6 55//6
f 54//6 53//6 56//6
f 30//4 61//4 28//4
f 61//4 30//4 62//4
f 65//7 66//7 67//7
f 66//7 65//7 68//7
