# SSTK version 0.8.0
# 467
mtllib original-467.mtl
o #ID3122
v -0.337954 0.272116 -0.430576
v -0.07695 0.270799 -0.431794
v -0.337844 0.270792 -0.431794
v -0.338067 0.273367 -0.429325
v -0.338182 0.274542 -0.428041
v -0.075213 0.277044 -0.424828
v -0.338301 0.275641 -0.426727
v -0.338422 0.276661 -0.425386
vn 0.06467272693361052 0.6945399670691164 -0.7165414660259385
vn 0.0003701848228705232 0.7000020432470808 -0.7141407441205891
vn 0.06710722737110218 0.6640980739842328 -0.7446276708295196
vn 0.062167879594971776 0.7247406952782619 -0.6862113955292833
vn 0.059287471356592195 0.7544094172620942 -0.6537212149581875
vn 0.0003267404818621341 0.8012343555222504 -0.5983505667846413
vn 0.0559442909104549 0.7835931127524396 -0.6187504100697382
vn 0.05243333859497306 0.8120352782403433 -0.5812481844246167
usemtl material_0_0
f 1//1 2//2 3//3
f 4//4 2//2 1//1
f 5//5 2//2 4//4
f 5//5 6//6 2//2
f 7//7 6//6 5//5
f 8//8 6//6 7//7
