# SSTK version 0.8.0
# 692
mtllib original-692.mtl
o #ID4230
v 0.116387 0.173185 0.549814
v 0.118177 0.171669 0.549814
v 0.116063 0.172187 0.549814
v 0.116828 0.174054 0.549814
v 0.117386 0.174794 0.549814
v 0.118061 0.175404 0.549814
v 0.118832 0.175874 0.549814
v 0.118652 0.173016 0.549814
v 0.119398 0.173952 0.549814
v 0.119677 0.17619 0.549814
v 0.120372 0.174479 0.549814
v 0.120598 0.176353 0.549814
v 0.121528 0.174601 0.549814
v 0.121594 0.176363 0.549814
v 0.122659 0.174334 0.549814
v 0.122953 0.176121 0.549814
v 0.123533 0.173697 0.549814
v 0.12418 0.175581 0.549814
v 0.124074 0.172785 0.549814
v 0.124203 0.171697 0.549814
v 0.125192 0.17479 0.549814
v 0.124854 0.168708 0.549814
v 0.125659 0.169491 0.549814
v 0.125907 0.173793 0.549814
v 0.126177 0.170439 0.549814
v 0.126314 0.172673 0.549814
v 0.126398 0.171507 0.549814
v 0.12012 0.169062 0.549814
v 0.121285 0.16734 0.549814
v 0.119761 0.1672 0.549814
v 0.120463 0.169016 0.549814
v 0.121772 0.16911 0.549814
v 0.122624 0.167014 0.549814
v 0.122968 0.16957 0.549814
v 0.123184 0.166677 0.549814
v 0.123472 0.169943 0.549814
v 0.12367 0.166226 0.549814
v 0.123846 0.170423 0.549814
v 0.12377 0.168134 0.549814
v 0.12409 0.171007 0.549814
v 0.124058 0.165688 0.549814
v 0.125107 0.167497 0.549814
v 0.124322 0.165094 0.549814
v 0.124476 0.163734 0.549814
v 0.124834 0.159876 0.549814
v 0.125616 0.160665 0.549814
v 0.126074 0.1665 0.549814
v 0.126196 0.161555 0.549814
v 0.126634 0.165195 0.549814
v 0.126573 0.162545 0.549814
v 0.126748 0.163635 0.549814
v 0.117465 0.163973 0.549814
v 0.115429 0.162777 0.549814
v 0.115308 0.163826 0.549814
v 0.115719 0.161819 0.549814
v 0.116179 0.160952 0.549814
v 0.116808 0.160174 0.549814
v 0.117575 0.159524 0.549814
v 0.117861 0.162377 0.549814
v 0.11845 0.159039 0.549814
v 0.118549 0.161272 0.549814
v 0.119434 0.158718 0.549814
v 0.119491 0.160607 0.549814
v 0.120527 0.158562 0.549814
v 0.120653 0.160331 0.549814
v 0.121749 0.158582 0.549814
v 0.121382 0.16035 0.549814
v 0.122061 0.160503 0.549814
v 0.122875 0.158808 0.549814
v 0.12269 0.16079 0.549814
v 0.123269 0.161212 0.549814
v 0.123903 0.159239 0.549814
v 0.123759 0.161736 0.549814
v 0.124124 0.162331 0.549814
v 0.124363 0.162998 0.549814
v 0.124476 0.163734 0.549814
v 0.124363 0.162998 0.549814
v 0.124834 0.159876 0.549814
v 0.124124 0.162331 0.549814
v 0.123903 0.159239 0.549814
v 0.123759 0.161736 0.549814
v 0.123269 0.161212 0.549814
v 0.122875 0.158808 0.549814
v 0.12269 0.16079 0.549814
v 0.122061 0.160503 0.549814
v 0.121749 0.158582 0.549814
v 0.121382 0.16035 0.549814
v 0.120653 0.160331 0.549814
v 0.120527 0.158562 0.549814
v 0.119491 0.160607 0.549814
v 0.119434 0.158718 0.549814
v 0.118549 0.161272 0.549814
v 0.11845 0.159039 0.549814
v 0.117861 0.162377 0.549814
v 0.117575 0.159524 0.549814
v 0.117465 0.163973 0.549814
v 0.116808 0.160174 0.549814
v 0.116179 0.160952 0.549814
v 0.115719 0.161819 0.549814
v 0.115429 0.162777 0.549814
v 0.115308 0.163826 0.549814
v 0.126748 0.163635 0.549814
v 0.126634 0.165195 0.549814
v 0.126573 0.162545 0.549814
v 0.126196 0.161555 0.549814
v 0.126074 0.1665 0.549814
v 0.125616 0.160665 0.549814
v 0.125107 0.167497 0.549814
v 0.124322 0.165094 0.549814
v 0.124058 0.165688 0.549814
v 0.12377 0.168134 0.549814
v 0.12367 0.166226 0.549814
v 0.124203 0.171697 0.549814
v 0.12409 0.171007 0.549814
v 0.124854 0.168708 0.549814
v 0.123846 0.170423 0.549814
v 0.123472 0.169943 0.549814
v 0.123184 0.166677 0.549814
v 0.122968 0.16957 0.549814
v 0.122624 0.167014 0.549814
v 0.121772 0.16911 0.549814
v 0.121285 0.16734 0.549814
v 0.120463 0.169016 0.549814
v 0.12012 0.169062 0.549814
v 0.119761 0.1672 0.549814
v 0.126398 0.171507 0.549814
v 0.126314 0.172673 0.549814
v 0.126177 0.170439 0.549814
v 0.125907 0.173793 0.549814
v 0.125659 0.169491 0.549814
v 0.125192 0.17479 0.549814
v 0.12418 0.175581 0.549814
v 0.124074 0.172785 0.549814
v 0.123533 0.173697 0.549814
v 0.122953 0.176121 0.549814
v 0.122659 0.174334 0.549814
v 0.121594 0.176363 0.549814
v 0.121528 0.174601 0.549814
v 0.120598 0.176353 0.549814
v 0.120372 0.174479 0.549814
v 0.119677 0.17619 0.549814
v 0.119398 0.173952 0.549814
v 0.118832 0.175874 0.549814
v 0.118652 0.173016 0.549814
v 0.118177 0.171669 0.549814
v 0.118061 0.175404 0.549814
v 0.117386 0.174794 0.549814
v 0.116828 0.174054 0.549814
v 0.116387 0.173185 0.549814
v 0.116063 0.172187 0.549814
vn 0.0 0.0 -1.0
vn 0.0 0.0 1.0
usemtl material_0_0
f 1//1 2//1 3//1
f 2//1 1//1 4//1
f 2//1 4//1 5//1
f 2//1 5//1 6//1
f 2//1 6//1 7//1
f 2//1 7//1 8//1
f 8//1 7//1 9//1
f 9//1 7//1 10//1
f 9//1 10//1 11//1
f 11//1 10//1 12//1
f 11//1 12//1 13//1
f 13//1 12//1 14//1
f 13//1 14//1 15//1
f 15//1 14//1 16//1
f 15//1 16//1 17//1
f 17//1 16//1 18//1
f 17//1 18//1 19//1
f 19//1 18//1 20//1
f 20//1 18//1 21//1
f 20//1 21//1 22//1
f 22//1 21//1 23//1
f 23//1 21//1 24//1
f 23//1 24//1 25//1
f 25//1 24//1 26//1
f 25//1 26//1 27//1
f 28//1 29//1 30//1
f 29//1 28//1 31//1
f 29//1 31//1 32//1
f 29//1 32//1 33//1
f 33//1 32//1 34//1
f 33//1 34//1 35//1
f 35//1 34//1 36//1
f 35//1 36//1 37//1
f 37//1 36//1 38//1
f 37//1 38//1 39//1
f 39//1 38//1 22//1
f 22//1 38//1 40//1
f 22//1 40//1 20//1
f 39//1 41//1 37//1
f 41//1 39//1 42//1
f 41//1 42//1 43//1
f 43//1 42//1 44//1
f 44//1 42//1 45//1
f 45//1 42//1 46//1
f 46//1 42//1 47//1
f 46//1 47//1 48//1
f 48//1 47//1 49//1
f 48//1 49//1 50//1
f 50//1 49//1 51//1
f 52//1 53//1 54//1
f 53//1 52//1 55//1
f 55//1 52//1 56//1
f 56//1 52//1 57//1
f 57//1 52//1 58//1
f 58//1 52//1 59//1
f 58//1 59//1 60//1
f 60//1 59//1 61//1
f 60//1 61//1 62//1
f 62//1 61//1 63//1
f 62//1 63//1 64//1
f 64//1 63//1 65//1
f 64//1 65//1 66//1
f 66//1 65//1 67//1
f 66//1 67//1 68//1
f 66//1 68//1 69//1
f 69//1 68//1 70//1
f 69//1 70//1 71//1
f 69//1 71//1 72//1
f 72//1 71//1 73//1
f 72//1 73//1 74//1
f 72//1 74//1 45//1
f 45//1 74//1 75//1
f 45//1 75//1 44//1
f 76//2 77//2 78//2
f 77//2 79//2 78//2
f 78//2 79//2 80//2
f 79//2 81//2 80//2
f 81//2 82//2 80//2
f 80//2 82//2 83//2
f 82//2 84//2 83//2
f 84//2 85//2 83//2
f 83//2 85//2 86//2
f 85//2 87//2 86//2
f 87//2 88//2 86//2
f 86//2 88//2 89//2
f 88//2 90//2 89//2
f 89//2 90//2 91//2
f 90//2 92//2 91//2
f 91//2 92//2 93//2
f 92//2 94//2 93//2
f 93//2 94//2 95//2
f 94//2 96//2 95//2
f 95//2 96//2 97//2
f 97//2 96//2 98//2
f 98//2 96//2 99//2
f 99//2 96//2 100//2
f 101//2 100//2 96//2
f 102//2 103//2 104//2
f 104//2 103//2 105//2
f 103//2 106//2 105//2
f 105//2 106//2 107//2
f 106//2 108//2 107//2
f 107//2 108//2 78//2
f 78//2 108//2 76//2
f 76//2 108//2 109//2
f 109//2 108//2 110//2
f 108//2 111//2 110//2
f 112//2 110//2 111//2
f 113//2 114//2 115//2
f 114//2 116//2 115//2
f 115//2 116//2 111//2
f 111//2 116//2 112//2
f 116//2 117//2 112//2
f 112//2 117//2 118//2
f 117//2 119//2 118//2
f 118//2 119//2 120//2
f 119//2 121//2 120//2
f 120//2 121//2 122//2
f 121//2 123//2 122//2
f 123//2 124//2 122//2
f 125//2 122//2 124//2
f 126//2 127//2 128//2
f 127//2 129//2 128//2
f 128//2 129//2 130//2
f 129//2 131//2 130//2
f 130//2 131//2 115//2
f 115//2 131//2 113//2
f 131//2 132//2 113//2
f 113//2 132//2 133//2
f 133//2 132//2 134//2
f 132//2 135//2 134//2
f 134//2 135//2 136//2
f 135//2 137//2 136//2
f 136//2 137//2 138//2
f 137//2 139//2 138//2
f 138//2 139//2 140//2
f 139//2 141//2 140//2
f 140//2 141//2 142//2
f 141//2 143//2 142//2
f 142//2 143//2 144//2
f 144//2 143//2 145//2
f 143//2 146//2 145//2
f 146//2 147//2 145//2
f 147//2 148//2 145//2
f 148//2 149//2 145//2
f 150//2 145//2 149//2
