# SSTK version 0.8.0
# 244
mtllib original-244.mtl
o #ID1366
v -0.17504 0.061478 -0.469077
v -0.182275 0.064576 -0.469077
v -0.17504 0.089845 -0.469077
v -0.196228 0.061478 -0.469077
v -0.212381 0.075662 -0.469077
v -0.217416 0.061478 -0.469077
v -0.182275 0.086747 -0.469077
v -0.195901 0.089845 -0.469077
v -0.196228 0.089845 -0.469077
v -0.196555 0.089845 -0.469077
v -0.217416 0.089845 -0.469077
vn 0.0 -1.2296428833827528e-09 -1.0
usemtl material_0_0
f 1//1 2//1 3//1
f 2//1 1//1 4//1
f 2//1 4//1 5//1
f 5//1 4//1 6//1
f 3//1 7//1 8//1
f 7//1 3//1 2//1
f 8//1 7//1 5//1
f 8//1 5//1 9//1
f 9//1 5//1 10//1
f 10//1 5//1 11//1
f 11//1 5//1 6//1
