# SSTK version 0.8.0
# 637
mtllib original-637.mtl
o #ID3980
v 0.103048 0.235425 0.182483
v 0.106833 0.235923 0.182409
v 0.105121 0.235697 0.182284
v 0.10838 0.236126 0.182786
v 0.101205 0.235182 0.183082
v 0.109761 0.236308 0.183414
v 0.099594 0.23497 0.18408
v 0.110979 0.236469 0.184293
v 0.098214 0.234788 0.185477
v 0.105121 0.235697 0.184939
v 0.104 0.23555 0.185049
v 0.102968 0.235414 0.185378
v 0.102026 0.23529 0.185928
v 0.097303 0.234668 0.186838
v 0.101174 0.235178 0.186697
v 0.100468 0.235085 0.187648
v 0.096653 0.234583 0.188321
v 0.099963 0.235018 0.188742
v 0.096263 0.234531 0.189924
v 0.09966 0.234979 0.18998
v 0.096133 0.234514 0.191649
v 0.099559 0.234965 0.191362
v 0.099656 0.234978 0.19267
v 0.096281 0.234534 0.193438
v 0.099947 0.235016 0.193833
v 0.096725 0.234592 0.195057
v 0.100432 0.23508 0.19485
v 0.101111 0.23517 0.195721
v 0.097465 0.234689 0.196506
v 0.101947 0.23528 0.19642
v 0.102903 0.235405 0.196919
v 0.098501 0.234826 0.197784
v 0.103979 0.235547 0.197218
v 0.105175 0.235705 0.197318
v 0.099752 0.234991 0.198828
v 0.109283 0.236245 0.19852
v 0.106857 0.235926 0.199758
v 0.101138 0.235173 0.199574
v 0.102659 0.235373 0.200021
v 0.1056 0.23576 0.200067
v 0.104314 0.235591 0.20017
v 0.097371 0.234677 0.208674
v 0.107866 0.236059 0.205589
v 0.097371 0.234677 0.205589
v 0.110449 0.236399 0.208674
v 0.109113 0.236223 0.195795
v 0.112997 0.236734 0.195165
v 0.109965 0.236335 0.19477
v 0.107992 0.236075 0.196609
v 0.106659 0.2359 0.197141
v 0.111992 0.236602 0.185379
v 0.106917 0.235934 0.18525
v 0.108431 0.236133 0.186186
v 0.112762 0.236703 0.18663
v 0.109555 0.236281 0.18774
v 0.113288 0.236773 0.188044
v 0.11018 0.236364 0.189908
v 0.113571 0.23681 0.189621
v 0.113571 0.23681 0.189621
v 0.11018 0.236364 0.189908
v 0.113288 0.236773 0.188044
v 0.109555 0.236281 0.18774
v 0.112762 0.236703 0.18663
v 0.108431 0.236133 0.186186
v 0.111992 0.236602 0.185379
v 0.106917 0.235934 0.18525
v 0.105121 0.235697 0.184939
v 0.110979 0.236469 0.184293
v 0.107866 0.236059 0.205589
v 0.109283 0.236245 0.19852
v 0.110449 0.236399 0.208674
v 0.098501 0.234826 0.197784
v 0.105175 0.235705 0.197318
v 0.106659 0.2359 0.197141
v 0.107992 0.236075 0.196609
v 0.109113 0.236223 0.195795
v 0.112997 0.236734 0.195165
v 0.109965 0.236335 0.19477
v 0.097371 0.234677 0.208674
v 0.097371 0.234677 0.205589
v 0.104314 0.235591 0.20017
v 0.102659 0.235373 0.200021
v 0.1056 0.23576 0.200067
v 0.106857 0.235926 0.199758
v 0.101138 0.235173 0.199574
v 0.099752 0.234991 0.198828
v 0.103979 0.235547 0.197218
v 0.102903 0.235405 0.196919
v 0.097465 0.234689 0.196506
v 0.101947 0.23528 0.19642
v 0.101111 0.23517 0.195721
v 0.096725 0.234592 0.195057
v 0.100432 0.23508 0.19485
v 0.099947 0.235016 0.193833
v 0.096281 0.234534 0.193438
v 0.099656 0.234978 0.19267
v 0.096133 0.234514 0.191649
v 0.099559 0.234965 0.191362
v 0.09966 0.234979 0.18998
v 0.096263 0.234531 0.189924
v 0.099963 0.235018 0.188742
v 0.096653 0.234583 0.188321
v 0.100468 0.235085 0.187648
v 0.097303 0.234668 0.186838
v 0.101174 0.235178 0.186697
v 0.102026 0.23529 0.185928
v 0.098214 0.234788 0.185477
v 0.102968 0.235414 0.185378
v 0.104 0.23555 0.185049
v 0.099594 0.23497 0.18408
v 0.109761 0.236308 0.183414
v 0.101205 0.235182 0.183082
v 0.10838 0.236126 0.182786
v 0.103048 0.235425 0.182483
v 0.106833 0.235923 0.182409
v 0.105121 0.235697 0.182284
vn -0.13052619486885547 0.9914448610250887 1.4196704166645563e-08
vn 0.13052619486885547 -0.9914448610250887 -1.4196704166645563e-08
usemtl material_0_0
f 59//2 60//2 61//2
f 60//2 62//2 61//2
f 61//2 62//2 63//2
f 62//2 64//2 63//2
f 63//2 64//2 65//2
f 64//2 66//2 65//2
f 66//2 67//2 65//2
f 68//2 65//2 67//2
f 69//2 70//2 71//2
f 72//2 73//2 70//2
f 73//2 74//2 70//2
f 74//2 75//2 70//2
f 75//2 76//2 70//2
f 70//2 76//2 71//2
f 71//2 76//2 77//2
f 78//2 77//2 76//2
f 71//2 79//2 69//2
f 80//2 69//2 79//2
f 81//2 82//2 83//2
f 83//2 82//2 84//2
f 82//2 85//2 84//2
f 85//2 86//2 84//2
f 84//2 86//2 70//2
f 72//2 70//2 86//2
f 73//2 72//2 87//2
f 87//2 72//2 88//2
f 72//2 89//2 88//2
f 88//2 89//2 90//2
f 90//2 89//2 91//2
f 89//2 92//2 91//2
f 91//2 92//2 93//2
f 93//2 92//2 94//2
f 92//2 95//2 94//2
f 94//2 95//2 96//2
f 95//2 97//2 96//2
f 96//2 97//2 98//2
f 98//2 97//2 99//2
f 97//2 100//2 99//2
f 99//2 100//2 101//2
f 100//2 102//2 101//2
f 101//2 102//2 103//2
f 102//2 104//2 103//2
f 103//2 104//2 105//2
f 105//2 104//2 106//2
f 104//2 107//2 106//2
f 106//2 107//2 108//2
f 108//2 107//2 109//2
f 109//2 107//2 67//2
f 67//2 107//2 68//2
f 107//2 110//2 68//2
f 68//2 110//2 111//2
f 110//2 112//2 111//2
f 111//2 112//2 113//2
f 112//2 114//2 113//2
f 113//2 114//2 115//2
f 116//2 115//2 114//2
usemtl material_1_0
f 1//1 2//1 3//1
f 2//1 1//1 4//1
f 4//1 1//1 5//1
f 4//1 5//1 6//1
f 6//1 5//1 7//1
f 6//1 7//1 8//1
f 8//1 7//1 9//1
f 8//1 9//1 10//1
f 10//1 9//1 11//1
f 11//1 9//1 12//1
f 12//1 9//1 13//1
f 13//1 9//1 14//1
f 13//1 14//1 15//1
f 15//1 14//1 16//1
f 16//1 14//1 17//1
f 16//1 17//1 18//1
f 18//1 17//1 19//1
f 18//1 19//1 20//1
f 20//1 19//1 21//1
f 20//1 21//1 22//1
f 22//1 21//1 23//1
f 23//1 21//1 24//1
f 23//1 24//1 25//1
f 25//1 24//1 26//1
f 25//1 26//1 27//1
f 27//1 26//1 28//1
f 28//1 26//1 29//1
f 28//1 29//1 30//1
f 30//1 29//1 31//1
f 31//1 29//1 32//1
f 31//1 32//1 33//1
f 33//1 32//1 34//1
f 35//1 36//1 32//1
f 36//1 35//1 37//1
f 37//1 35//1 38//1
f 37//1 38//1 39//1
f 37//1 39//1 40//1
f 40//1 39//1 41//1
f 42//1 43//1 44//1
f 43//1 42//1 45//1
f 46//1 47//1 48//1
f 47//1 46//1 45//1
f 45//1 46//1 36//1
f 36//1 46//1 49//1
f 36//1 49//1 50//1
f 36//1 50//1 34//1
f 36//1 34//1 32//1
f 45//1 36//1 43//1
f 10//1 51//1 8//1
f 51//1 10//1 52//1
f 51//1 52//1 53//1
f 51//1 53//1 54//1
f 54//1 53//1 55//1
f 54//1 55//1 56//1
f 56//1 55//1 57//1
f 56//1 57//1 58//1
