# SSTK version 0.8.0
# 38
mtllib original-38.mtl
o #ID75
v 0.018251 0.073356 -0.220483
v 0.023099 0.068508 -0.220483
v 0.018251 -0.054654 -0.220483
v 0.214875 0.073356 -0.220483
v 0.210027 0.068508 -0.220483
v 0.210027 -0.049806 -0.220483
v 0.023099 -0.049806 -0.220483
v 0.214875 -0.054654 -0.220483
v 0.214875 0.073356 -0.220483
v 0.210027 -0.049806 -0.220483
v 0.214875 -0.054654 -0.220483
v 0.023099 -0.049806 -0.220483
v 0.023099 0.068508 -0.220483
v 0.018251 -0.054654 -0.220483
v 0.210027 0.068508 -0.220483
v 0.018251 0.073356 -0.220483
v 0.214875 0.073356 -0.220483
v 0.018251 0.073356 -0.225501
v 0.214875 0.073356 -0.225501
v 0.018251 0.073356 -0.220483
v 0.018251 0.073356 -0.220483
v 0.214875 0.073356 -0.220483
v 0.018251 0.073356 -0.225501
v 0.214875 0.073356 -0.225501
v 0.214875 -0.054654 -0.220483
v 0.214875 0.073356 -0.225501
v 0.214875 -0.054654 -0.225501
v 0.214875 0.073356 -0.220483
v 0.214875 0.073356 -0.220483
v 0.214875 -0.054654 -0.220483
v 0.214875 0.073356 -0.225501
v 0.214875 -0.054654 -0.225501
v 0.018251 -0.054654 -0.220483
v 0.214875 -0.054654 -0.225501
v 0.018251 -0.054654 -0.225501
v 0.214875 -0.054654 -0.220483
v 0.214875 -0.054654 -0.220483
v 0.018251 -0.054654 -0.220483
v 0.214875 -0.054654 -0.225501
v 0.018251 -0.054654 -0.225501
v 0.018251 0.073356 -0.225501
v 0.018251 -0.054654 -0.220483
v 0.018251 -0.054654 -0.225501
v 0.018251 0.073356 -0.220483
v 0.018251 0.073356 -0.220483
v 0.018251 0.073356 -0.225501
v 0.018251 -0.054654 -0.220483
v 0.018251 -0.054654 -0.225501
vt 0.6482587 0.4973773
vt 0.6448327 0.3922041
vt 0.6482587 0.3880643
vt 0.5127284 0.3922041
vt 0.5127284 0.4932375
vt 0.5093023 0.3880643
vt 0.6448327 0.4932375
vt 0.5093023 0.4973773
vn 0.0 5.584275155014055e-09 -1.0
vn 0.0 -1.0 -5.584275261586581e-09
vn -1.0 0.0 0.0
vn 0.0 1.0 5.584275261586581e-09
vn 1.0 0.0 0.0
vn 0.0 -5.584275155014055e-09 1.0
usemtl material_0_0
f 1//1 2//1 3//1
f 2//1 1//1 4//1
f 2//1 4//1 5//1
f 5//1 4//1 6//1
f 3//1 7//1 8//1
f 7//1 3//1 2//1
f 8//1 7//1 6//1
f 8//1 6//1 4//1
f 17//2 18//2 19//2
f 18//2 17//2 20//2
f 25//3 26//3 27//3
f 26//3 25//3 28//3
f 33//4 34//4 35//4
f 34//4 33//4 36//4
f 41//5 42//5 43//5
f 42//5 41//5 44//5
usemtl material_1_0
f 9/1/6 10/2/6 11/3/6
f 10/2/6 12/4/6 11/3/6
f 13/5/6 14/6/6 12/4/6
f 11/3/6 12/4/6 14/6/6
f 10/2/6 9/1/6 15/7/6
f 15/7/6 9/1/6 13/5/6
f 9/1/6 16/8/6 13/5/6
f 14/6/6 13/5/6 16/8/6
f 21/8/4 22/1/4 23/8/4
f 24/1/4 23/8/4 22/1/4
f 29/1/5 30/3/5 31/1/5
f 32/3/5 31/1/5 30/3/5
f 37/3/2 38/6/2 39/3/2
f 40/6/2 39/3/2 38/6/2
f 45/8/3 46/8/3 47/6/3
f 48/6/3 47/6/3 46/8/3
