# SSTK version 0.8.0
# 423
mtllib original-423.mtl
o #ID2388
v -0.467353 0.045234 -0.382785
v -0.467319 0.056567 -0.383254
v -0.467319 0.045172 -0.383254
v -0.467353 0.056505 -0.382785
v -0.467454 0.045816 -0.381378
v -0.467454 0.055922 -0.381378
v -0.46754 0.046744 -0.380169
v -0.46754 0.054995 -0.380169
v -0.467607 0.047952 -0.379242
v -0.467607 0.053786 -0.379242
v -0.467649 0.049359 -0.378659
v -0.467649 0.052379 -0.378659
v -0.467663 0.050869 -0.37846
v -0.467663 0.050869 -0.37846
v -0.467649 0.049359 -0.378659
v -0.467649 0.052379 -0.378659
v -0.467607 0.053786 -0.379242
v -0.467607 0.047952 -0.379242
v -0.46754 0.054995 -0.380169
v -0.46754 0.046744 -0.380169
v -0.467454 0.055922 -0.381378
v -0.467454 0.045816 -0.381378
v -0.467353 0.056505 -0.382785
v -0.467353 0.045234 -0.382785
v -0.467319 0.056567 -0.383254
v -0.467319 0.045172 -0.383254
v -0.466764 0.049359 -0.389931
v -0.466764 0.052379 -0.389931
v -0.466748 0.050869 -0.390129
v -0.466813 0.047952 -0.389348
v -0.466813 0.053786 -0.389348
v -0.46689 0.046744 -0.38842
v -0.46689 0.054995 -0.38842
v -0.46699 0.045816 -0.387212
v -0.46699 0.055922 -0.387212
v -0.467107 0.045234 -0.385805
v -0.467107 0.056505 -0.385805
v -0.467233 0.045035 -0.384295
v -0.467233 0.056704 -0.384295
v -0.467233 0.056704 -0.384295
v -0.467233 0.045035 -0.384295
v -0.467107 0.056505 -0.385805
v -0.467107 0.045234 -0.385805
v -0.46699 0.055922 -0.387212
v -0.46699 0.045816 -0.387212
v -0.46689 0.054995 -0.38842
v -0.46689 0.046744 -0.38842
v -0.466813 0.053786 -0.389348
v -0.466813 0.047952 -0.389348
v -0.466764 0.052379 -0.389931
v -0.466764 0.049359 -0.389931
v -0.466748 0.050869 -0.390129
v -0.467319 0.045172 -0.383254
v -0.468476 0.045035 -0.384295
v -0.467233 0.045035 -0.384295
v -0.467353 0.045234 -0.382785
v -0.468476 0.045234 -0.382785
v -0.468476 0.045234 -0.382785
v -0.467353 0.045234 -0.382785
v -0.468476 0.045035 -0.384295
v -0.467319 0.045172 -0.383254
v -0.467233 0.045035 -0.384295
v -0.467454 0.045816 -0.381378
v -0.468476 0.045816 -0.381378
v -0.468476 0.045816 -0.381378
v -0.467454 0.045816 -0.381378
v -0.46754 0.046744 -0.380169
v -0.468476 0.046744 -0.380169
v -0.468476 0.046744 -0.380169
v -0.46754 0.046744 -0.380169
v -0.468476 0.047952 -0.379242
v -0.467607 0.047952 -0.379242
v -0.467607 0.047952 -0.379242
v -0.468476 0.047952 -0.379242
v -0.467649 0.049359 -0.378659
v -0.468476 0.049359 -0.378659
v -0.468476 0.049359 -0.378659
v -0.467649 0.049359 -0.378659
v -0.467663 0.050869 -0.37846
v -0.468476 0.050869 -0.37846
v -0.468476 0.050869 -0.37846
v -0.467663 0.050869 -0.37846
v -0.468476 0.052379 -0.378659
v -0.467649 0.052379 -0.378659
v -0.467649 0.052379 -0.378659
v -0.468476 0.052379 -0.378659
v -0.468476 0.053786 -0.379242
v -0.467607 0.053786 -0.379242
v -0.467607 0.053786 -0.379242
v -0.468476 0.053786 -0.379242
v -0.46754 0.054995 -0.380169
v -0.468476 0.054995 -0.380169
v -0.468476 0.054995 -0.380169
v -0.46754 0.054995 -0.380169
v -0.468476 0.055922 -0.381378
v -0.467454 0.055922 -0.381378
v -0.468476 0.055922 -0.381378
v -0.467454 0.055922 -0.381378
v -0.468476 0.056505 -0.382785
v -0.467353 0.056505 -0.382785
v -0.468476 0.056505 -0.382785
v -0.467353 0.056505 -0.382785
v -0.468476 0.056704 -0.384295
v -0.467319 0.056567 -0.383254
v -0.467233 0.056704 -0.384295
v -0.468476 0.056704 -0.384295
v -0.467319 0.056567 -0.383254
v -0.467233 0.056704 -0.384295
v -0.468476 0.056505 -0.385805
v -0.467107 0.056505 -0.385805
v -0.468476 0.056505 -0.385805
v -0.467107 0.056505 -0.385805
v -0.468476 0.055922 -0.387212
v -0.46699 0.055922 -0.387212
v -0.468476 0.055922 -0.387212
v -0.46699 0.055922 -0.387212
v -0.468476 0.054995 -0.38842
v -0.46689 0.054995 -0.38842
v -0.468476 0.054995 -0.38842
v -0.46689 0.054995 -0.38842
v -0.466813 0.053786 -0.389348
v -0.468476 0.053786 -0.389348
v -0.466813 0.053786 -0.389348
v -0.468476 0.053786 -0.389348
v -0.468476 0.052379 -0.389931
v -0.466764 0.052379 -0.389931
v -0.468476 0.052379 -0.389931
v -0.466764 0.052379 -0.389931
v -0.468476 0.050869 -0.390129
v -0.466748 0.050869 -0.390129
v -0.468476 0.050869 -0.390129
v -0.466748 0.050869 -0.390129
v -0.468476 0.049359 -0.389931
v -0.466764 0.049359 -0.389931
v -0.468476 0.049359 -0.389931
v -0.466764 0.049359 -0.389931
v -0.466813 0.047952 -0.389348
v -0.468476 0.047952 -0.389348
v -0.466813 0.047952 -0.389348
v -0.468476 0.047952 -0.389348
v -0.468476 0.046744 -0.38842
v -0.46689 0.046744 -0.38842
v -0.468476 0.046744 -0.38842
v -0.46689 0.046744 -0.38842
v -0.46699 0.045816 -0.387212
v -0.468476 0.045816 -0.387212
v -0.468476 0.045816 -0.387212
v -0.46699 0.045816 -0.387212
v -0.467107 0.045234 -0.385805
v -0.468476 0.045234 -0.385805
v -0.468476 0.045234 -0.385805
v -0.467107 0.045234 -0.385805
v -0.468476 0.049359 -0.389931
v -0.468476 0.052379 -0.389931
v -0.468476 0.050869 -0.390129
v -0.468476 0.047952 -0.389348
v -0.468476 0.053786 -0.389348
v -0.468476 0.046744 -0.38842
v -0.468476 0.054995 -0.38842
v -0.468476 0.045816 -0.387212
v -0.468476 0.055922 -0.387212
v -0.468476 0.045234 -0.385805
v -0.468476 0.056505 -0.385805
v -0.468476 0.045035 -0.384295
v -0.468476 0.056704 -0.384295
v -0.468476 0.045234 -0.382785
v -0.468476 0.056505 -0.382785
v -0.468476 0.045816 -0.381378
v -0.468476 0.055922 -0.381378
v -0.468476 0.046744 -0.380169
v -0.468476 0.054995 -0.380169
v -0.468476 0.047952 -0.379242
v -0.468476 0.053786 -0.379242
v -0.468476 0.049359 -0.378659
v -0.468476 0.052379 -0.378659
v -0.468476 0.050869 -0.37846
v -0.468476 0.050869 -0.37846
v -0.468476 0.049359 -0.378659
v -0.468476 0.052379 -0.378659
v -0.468476 0.053786 -0.379242
v -0.468476 0.047952 -0.379242
v -0.468476 0.054995 -0.380169
v -0.468476 0.046744 -0.380169
v -0.468476 0.055922 -0.381378
v -0.468476 0.045816 -0.381378
v -0.468476 0.056505 -0.382785
v -0.468476 0.045234 -0.382785
v -0.468476 0.056704 -0.384295
v -0.468476 0.045035 -0.384295
v -0.468476 0.056505 -0.385805
v -0.468476 0.045234 -0.385805
v -0.468476 0.055922 -0.387212
v -0.468476 0.045816 -0.387212
v -0.468476 0.054995 -0.38842
v -0.468476 0.046744 -0.38842
v -0.468476 0.053786 -0.389348
v -0.468476 0.047952 -0.389348
v -0.468476 0.052379 -0.389931
v -0.468476 0.049359 -0.389931
v -0.468476 0.050869 -0.390129
vn -0.9974393810679226 0.0 -0.07151699864255875
vn -0.9969824356641503 0.0 -0.07762746277689696
vn 0.9974393810679226 0.0 0.07151699864255875
vn 0.9969824356641503 0.0 0.07762746277689696
vn -0.9965663403752759 0.0 -0.08279812335451534
vn 0.9965663403752759 0.0 0.08279812335451534
vn 0.0 -0.9914448610250888 0.13052619486885572
vn 0.0 -1.0 0.0
vn 0.0 -0.9999762764351676 -0.0068881468376779005
vn 0.0 -0.9673947937577495 0.2532731983657194
vn 0.0 -0.9659258358036644 0.2588190095935618
vn 0.0 0.9659258358036644 -0.2588190095935618
vn 0.0 0.9673947937577495 -0.2532731983657194
vn 0.0 1.0 0.0
vn 0.0 0.9914448610250888 -0.13052619486885572
vn 0.0 0.9999762764351676 0.0068881468376779005
vn 0.0 -0.868582895222959 0.4955438972746029
vn 0.0 -0.8660254028383287 0.5000000016387102
vn 0.0 0.8660254028383287 -0.5000000016387102
vn 0.0 0.868582895222959 -0.4955438972746029
vn 0.0 -0.7100644693084793 0.7041366695647001
vn 0.0 -0.7071067811865474 0.7071067811865476
vn 0.0 0.7071067811865474 -0.7071067811865476
vn 0.0 0.7100644693084793 -0.7041366695647001
vn 0.0 -0.5000000016387098 0.8660254028383292
vn 0.0 -0.5025631884072517 0.8645404800574332
vn 0.0 0.5025631884072517 -0.8645404800574332
vn 0.0 0.5000000016387098 -0.8660254028383292
vn 0.0 -0.26029941258303385 0.965527946674216
vn 0.0 -0.2588190095935614 0.9659258358036645
vn 0.0 0.2588190095935614 -0.9659258358036645
vn 0.0 0.26029941258303385 -0.965527946674216
vn 0.0 0.0 1.0
vn 0.0 0.0 -1.0
vn 0.0 0.2588190095935618 0.9659258358036644
vn 0.0 0.26029941258303424 0.9655279466742158
vn 0.0 -0.26029941258303424 -0.9655279466742158
vn 0.0 -0.2588190095935618 -0.9659258358036644
vn 0.0 0.5000000016387102 0.8660254028383287
vn 0.0 0.5025631884072521 0.864540480057433
vn 0.0 -0.5025631884072521 -0.864540480057433
vn 0.0 -0.5000000016387102 -0.8660254028383287
vn 0.0 0.7100644693084796 0.7041366695646999
vn 0.0 0.7071067811865476 0.7071067811865474
vn 0.0 -0.7071067811865476 -0.7071067811865474
vn 0.0 -0.7100644693084796 -0.7041366695646999
vn 0.0 0.8660254028383292 0.5000000016387098
vn 0.0 0.8685828952229592 0.49554389727460246
vn 0.0 -0.8660254028383292 -0.5000000016387098
vn 0.0 -0.8685828952229592 -0.49554389727460246
vn 0.0 0.9659258358036645 0.2588190095935614
vn 0.0 0.9673947937577497 0.25327319836571904
vn 0.0 -0.9659258358036645 -0.2588190095935614
vn 0.0 -0.9673947937577497 -0.25327319836571904
vn 0.0 0.9914448610250888 0.13052619486885528
vn 0.0 0.9999762764351676 -0.006888146837678344
vn 0.0 -0.9914448610250888 -0.13052619486885528
vn 0.0 -0.9999762764351676 0.006888146837678344
vn 0.0 0.9641790097638743 -0.26525240268611044
vn 0.0 -0.9641790097638743 0.26525240268611044
vn 0.0 0.8630153359828296 -0.5051777210630372
vn 0.0 -0.8630153359828296 0.5051777210630372
vn 0.0 0.7036336429549458 -0.7105629433779612
vn 0.0 -0.7036336429549458 0.7105629433779612
vn 0.0 0.4969915789524765 -0.8677553632506828
vn 0.0 -0.4969915789524765 0.8677553632506828
vn 0.0 0.2570815064388196 -0.9663897242040332
vn 0.0 -0.2570815064388196 0.9663897242040332
vn 0.0 -0.25708150643882 -0.966389724204033
vn 0.0 0.25708150643882 0.966389724204033
vn 0.0 -0.4969915789524769 -0.8677553632506826
vn 0.0 0.4969915789524769 0.8677553632506826
vn 0.0 -0.703633642954946 -0.710562943377961
vn 0.0 0.703633642954946 0.710562943377961
vn 0.0 -0.8630153359828299 -0.5051777210630367
vn 0.0 0.8630153359828299 0.5051777210630367
vn 0.0 -0.9641790097638745 -0.2652524026861101
vn 0.0 0.9641790097638745 0.2652524026861101
vn -1.0 0.0 0.0
vn 1.0 0.0 0.0
usemtl material_0_0
f 1//1 2//2 3//2
f 2//2 1//1 4//1
f 4//1 1//1 5//1
f 4//1 5//1 6//1
f 6//1 5//1 7//1
f 6//1 7//1 8//1
f 8//1 7//1 9//1
f 8//1 9//1 10//1
f 10//1 9//1 11//1
f 10//1 11//1 12//1
f 12//1 11//1 13//1
f 14//3 15//3 16//3
f 16//3 15//3 17//3
f 15//3 18//3 17//3
f 17//3 18//3 19//3
f 18//3 20//3 19//3
f 19//3 20//3 21//3
f 20//3 22//3 21//3
f 21//3 22//3 23//3
f 22//3 24//3 23//3
f 23//3 24//3 25//4
f 26//4 25//4 24//3
f 27//5 28//5 29//5
f 28//5 27//5 30//5
f 28//5 30//5 31//5
f 31//5 30//5 32//5
f 31//5 32//5 33//5
f 33//5 32//5 34//5
f 33//5 34//5 35//5
f 35//5 34//5 36//5
f 35//5 36//5 37//5
f 37//5 36//5 38//5
f 37//5 38//5 39//5
f 39//5 38//5 3//2
f 39//5 3//2 2//2
f 25//4 26//4 40//6
f 26//4 41//6 40//6
f 40//6 41//6 42//6
f 41//6 43//6 42//6
f 42//6 43//6 44//6
f 43//6 45//6 44//6
f 44//6 45//6 46//6
f 45//6 47//6 46//6
f 46//6 47//6 48//6
f 47//6 49//6 48//6
f 48//6 49//6 50//6
f 49//6 51//6 50//6
f 52//6 50//6 51//6
f 53//7 54//8 55//9
f 54//8 53//7 56//10
f 54//8 56//10 57//11
f 58//12 59//13 60//14
f 59//13 61//15 60//14
f 62//16 60//14 61//15
f 63//17 57//11 56//10
f 57//11 63//17 64//18
f 65//19 66//20 58//12
f 59//13 58//12 66//20
f 67//21 64//18 63//17
f 64//18 67//21 68//22
f 69//23 70//24 65//19
f 66//20 65//19 70//24
f 67//21 71//25 68//22
f 71//25 67//21 72//26
f 73//27 70//24 74//28
f 69//23 74//28 70//24
f 75//29 71//25 72//26
f 71//25 75//29 76//30
f 77//31 78//32 74//28
f 73//27 74//28 78//32
f 79//33 76//30 75//29
f 76//30 79//33 80//33
f 81//34 82//34 77//31
f 78//32 77//31 82//34
f 79//33 83//35 80//33
f 83//35 79//33 84//36
f 85//37 82//34 86//38
f 81//34 86//38 82//34
f 84//36 87//39 83//35
f 87//39 84//36 88//40
f 89//41 85//37 90//42
f 86//38 90//42 85//37
f 91//43 87//39 88//40
f 87//39 91//43 92//44
f 93//45 94//46 90//42
f 89//41 90//42 94//46
f 95//47 91//43 96//48
f 91//43 95//47 92//44
f 93//45 97//49 94//46
f 98//50 94//46 97//49
f 99//51 96//48 100//52
f 96//48 99//51 95//47
f 97//49 101//53 98//50
f 102//54 98//50 101//53
f 103//14 104//55 105//56
f 104//55 103//14 100//52
f 100//52 103//14 99//51
f 101//53 106//8 102//54
f 102//54 106//8 107//57
f 108//58 107//57 106//8
f 109//12 105//56 110//59
f 105//56 109//12 103//14
f 106//8 111//11 108//58
f 112//60 108//58 111//11
f 113//19 110//59 114//61
f 110//59 113//19 109//12
f 111//11 115//18 112//60
f 116//62 112//60 115//18
f 117//23 114//61 118//63
f 114//61 117//23 113//19
f 115//18 119//22 116//62
f 120//64 116//62 119//22
f 117//23 121//65 122//28
f 121//65 117//23 118//63
f 120//64 119//22 123//66
f 124//25 123//66 119//22
f 125//31 121//65 126//67
f 121//65 125//31 122//28
f 124//25 127//30 123//66
f 128//68 123//66 127//30
f 129//34 126//67 130//34
f 126//67 129//34 125//31
f 127//30 131//33 128//68
f 132//33 128//68 131//33
f 133//38 130//34 134//69
f 130//34 133//38 129//34
f 131//33 135//35 132//33
f 136//70 132//33 135//35
f 133//38 137//71 138//42
f 137//71 133//38 134//69
f 136//70 135//35 139//72
f 140//39 139//72 135//35
f 141//45 137//71 142//73
f 137//71 141//45 138//42
f 140//39 143//44 139//72
f 144//74 139//72 143//44
f 145//75 141//45 142//73
f 141//45 145//75 146//49
f 147//47 148//76 143//44
f 144//74 143//44 148//76
f 149//77 146//49 145//75
f 146//49 149//77 150//53
f 151//51 152//78 147//47
f 148//76 147//47 152//78
f 55//9 150//53 149//77
f 150//53 55//9 54//8
f 60//14 62//16 151//51
f 152//78 151//51 62//16
f 153//79 154//79 155//79
f 154//79 153//79 156//79
f 154//79 156//79 157//79
f 157//79 156//79 158//79
f 157//79 158//79 159//79
f 159//79 158//79 160//79
f 159//79 160//79 161//79
f 161//79 160//79 162//79
f 161//79 162//79 163//79
f 163//79 162//79 164//79
f 163//79 164//79 165//79
f 165//79 164//79 166//79
f 165//79 166//79 167//79
f 167//79 166//79 168//79
f 167//79 168//79 169//79
f 169//79 168//79 170//79
f 169//79 170//79 171//79
f 171//79 170//79 172//79
f 171//79 172//79 173//79
f 173//79 172//79 174//79
f 173//79 174//79 175//79
f 175//79 174//79 176//79
f 177//80 178//80 179//80
f 179//80 178//80 180//80
f 178//80 181//80 180//80
f 180//80 181//80 182//80
f 181//80 183//80 182//80
f 182//80 183//80 184//80
f 183//80 185//80 184//80
f 184//80 185//80 186//80
f 185//80 187//80 186//80
f 186//80 187//80 188//80
f 187//80 189//80 188//80
f 188//80 189//80 190//80
f 189//80 191//80 190//80
f 190//80 191//80 192//80
f 191//80 193//80 192//80
f 192//80 193//80 194//80
f 193//80 195//80 194//80
f 194//80 195//80 196//80
f 195//80 197//80 196//80
f 196//80 197//80 198//80
f 197//80 199//80 198//80
f 200//80 198//80 199//80
