# SSTK version 0.8.0
# 128
mtllib original-128.mtl
o #ID654
v 0.18657 0.423216 -0.402727
v 0.18657 0.461396 -0.276176
v 0.18657 0.423216 -0.276176
v 0.18657 0.461396 -0.388346
v 0.18657 0.432634 -0.402727
v 0.18657 0.432634 -0.402727
v 0.18657 0.423216 -0.402727
v 0.18657 0.461396 -0.388346
v 0.18657 0.461396 -0.276176
v 0.18657 0.423216 -0.276176
v 0.18657 0.423216 -0.276176
v 0.180585 0.438387 -0.276176
v 0.174599 0.423216 -0.276176
v 0.18657 0.461396 -0.276176
v 0.174599 0.432634 -0.276176
v 0.150658 0.432634 -0.276176
v 0.180585 0.455643 -0.276176
v 0.162629 0.455643 -0.276176
v 0.162629 0.461396 -0.276176
v 0.150658 0.438387 -0.276176
v 0.180585 0.438387 -0.276176
v 0.150658 0.432634 -0.276176
v 0.150658 0.438387 -0.276176
v 0.162629 0.461396 -0.276176
v 0.18657 0.461396 -0.276176
v 0.162629 0.455643 -0.276176
v 0.180585 0.455643 -0.276176
v 0.174599 0.432634 -0.276176
v 0.174599 0.423216 -0.276176
v 0.18657 0.423216 -0.276176
v 0.162629 0.461396 -0.276176
v 0.18657 0.461396 -0.388346
v 0.162629 0.461396 -0.388346
v 0.18657 0.461396 -0.276176
v 0.18657 0.461396 -0.276176
v 0.162629 0.461396 -0.276176
v 0.18657 0.461396 -0.388346
v 0.162629 0.461396 -0.388346
v 0.168916 0.432634 -0.278998
v 0.150658 0.432634 -0.276176
v 0.150658 0.432634 -0.278998
v 0.174599 0.432634 -0.276176
v 0.174599 0.432634 -0.31069
v 0.174599 0.432634 -0.31069
v 0.168916 0.432634 -0.278998
v 0.174599 0.432634 -0.276176
v 0.150658 0.432634 -0.276176
v 0.150658 0.432634 -0.278998
v 0.162629 0.461396 -0.388346
v 0.162629 0.455643 -0.276176
v 0.162629 0.461396 -0.276176
v 0.162629 0.455643 -0.391222
v 0.162629 0.455643 -0.391222
v 0.162629 0.461396 -0.388346
v 0.162629 0.455643 -0.276176
v 0.162629 0.461396 -0.276176
v 0.180585 0.455643 -0.391222
v 0.180585 0.438387 -0.276176
v 0.180585 0.455643 -0.276176
v 0.180585 0.438387 -0.399851
v 0.180585 0.438387 -0.399851
v 0.180585 0.455643 -0.391222
v 0.180585 0.438387 -0.276176
v 0.180585 0.455643 -0.276176
v 0.150658 0.432634 -0.31069
v 0.150658 0.432634 -0.31069
vn 1.0 0.0 0.0
vn 0.0 0.0 1.0
vn 0.0 1.0 0.0
vn 0.0 -1.0 0.0
vn -1.0 0.0 0.0
vn 0.0 0.0 -1.0
usemtl material_0_0
f 6//5 7//5 8//5
f 8//5 7//5 9//5
f 10//5 9//5 7//5
f 21//6 22//6 23//6
f 24//6 25//6 26//6
f 26//6 25//6 27//6
f 27//6 25//6 21//6
f 22//6 21//6 28//6
f 28//6 21//6 29//6
f 25//6 30//6 21//6
f 29//6 21//6 30//6
f 35//4 36//4 37//4
f 38//4 37//4 36//4
f 44//3 45//3 46//3
f 46//3 45//3 47//3
f 48//3 47//3 45//3
f 53//1 54//1 55//1
f 56//1 55//1 54//1
f 61//1 62//1 63//1
f 64//1 63//1 62//1
f 45//3 44//3 48//3
f 66//3 48//3 44//3
usemtl material_1_0
f 1//1 2//1 3//1
f 2//1 1//1 4//1
f 4//1 1//1 5//1
f 11//2 12//2 13//2
f 12//2 11//2 14//2
f 13//2 12//2 15//2
f 15//2 12//2 16//2
f 12//2 14//2 17//2
f 17//2 14//2 18//2
f 18//2 14//2 19//2
f 20//2 16//2 12//2
f 31//3 32//3 33//3
f 32//3 31//3 34//3
f 39//4 40//4 41//4
f 40//4 39//4 42//4
f 42//4 39//4 43//4
f 49//5 50//5 51//5
f 50//5 49//5 52//5
f 57//5 58//5 59//5
f 58//5 57//5 60//5
f 43//4 41//4 65//4
f 41//4 43//4 39//4
