# SSTK version 0.8.0
# 361
mtllib original-361.mtl
o #ID2529
v -0.425888 0.144629 -0.385247
v -0.425888 0.027938 -0.453861
v -0.425888 0.144629 -0.453861
v -0.425888 0.027938 -0.443026
v -0.425888 -0.02889 -0.443026
v -0.425888 0.027938 -0.396233
v -0.425888 0.027938 -0.385247
v -0.425888 -0.02889 -0.396233
v -0.425888 0.027938 -0.396233
v -0.425888 -0.02889 -0.443026
v -0.425888 -0.02889 -0.396233
v -0.425888 0.027938 -0.385247
v -0.425888 0.144629 -0.385247
v -0.425888 0.027938 -0.443026
v -0.425888 0.027938 -0.453861
v -0.425888 0.144629 -0.453861
v -0.425888 0.027938 -0.396233
v -0.417719 0.027938 -0.385247
v -0.417719 0.027938 -0.396233
v -0.425888 0.027938 -0.385247
v -0.425888 0.027938 -0.385247
v -0.425888 0.027938 -0.396233
v -0.417719 0.027938 -0.385247
v -0.417719 0.027938 -0.396233
v -0.425888 0.027938 -0.396233
v -0.417719 -0.02889 -0.396233
v -0.425888 -0.02889 -0.396233
v -0.417719 0.027938 -0.396233
v -0.417719 0.027938 -0.396233
v -0.425888 0.027938 -0.396233
v -0.417719 -0.02889 -0.396233
v -0.425888 -0.02889 -0.396233
v -0.425888 -0.02889 -0.443026
v -0.417719 -0.02889 -0.396233
v -0.417719 -0.02889 -0.443026
v -0.425888 -0.02889 -0.396233
v -0.425888 -0.02889 -0.396233
v -0.425888 -0.02889 -0.443026
v -0.417719 -0.02889 -0.396233
v -0.417719 -0.02889 -0.443026
v -0.417719 -0.02889 -0.443026
v -0.425888 0.027938 -0.443026
v -0.425888 -0.02889 -0.443026
v -0.417719 0.027938 -0.443026
v -0.417719 0.027938 -0.443026
v -0.417719 -0.02889 -0.443026
v -0.425888 0.027938 -0.443026
v -0.425888 -0.02889 -0.443026
v -0.425888 0.027938 -0.453861
v -0.417719 0.027938 -0.443026
v -0.417719 0.027938 -0.453861
v -0.425888 0.027938 -0.443026
v -0.425888 0.027938 -0.443026
v -0.425888 0.027938 -0.453861
v -0.417719 0.027938 -0.443026
v -0.417719 0.027938 -0.453861
v -0.417719 0.144629 -0.453861
v -0.425888 0.027938 -0.453861
v -0.417719 0.027938 -0.453861
v -0.425888 0.144629 -0.453861
v -0.425888 0.144629 -0.453861
v -0.417719 0.144629 -0.453861
v -0.425888 0.027938 -0.453861
v -0.417719 0.027938 -0.453861
v -0.425888 0.144629 -0.385247
v -0.417719 0.144629 -0.453861
v -0.417719 0.144629 -0.385247
v -0.425888 0.144629 -0.453861
v -0.425888 0.144629 -0.453861
v -0.425888 0.144629 -0.385247
v -0.417719 0.144629 -0.453861
v -0.417719 0.144629 -0.385247
v -0.425888 0.144629 -0.385247
v -0.417719 0.027938 -0.385247
v -0.425888 0.027938 -0.385247
v -0.417719 0.144629 -0.385247
v -0.417719 0.144629 -0.385247
v -0.425888 0.144629 -0.385247
v -0.417719 0.027938 -0.385247
v -0.425888 0.027938 -0.385247
vn 1.0 3.811574e-09 0.0
vn 0.0 1.0 0.0
vn 0.0 0.0 -1.0
vn -1.490117e-08 1.0 0.0
vn 0.0 0.0 1.0
vn 0.0 -1.0 0.0
vn -1.0 -3.811574e-09 0.0
vn 1.490117e-08 -1.0 0.0
usemtl material_0_0
f 9//7 10//7 11//7
f 12//7 13//7 9//7
f 9//7 13//7 10//7
f 10//7 13//7 14//7
f 14//7 13//7 15//7
f 16//7 15//7 13//7
f 21//6 22//6 23//6
f 24//6 23//6 22//6
f 29//5 30//5 31//5
f 32//5 31//5 30//5
f 37//8 38//8 39//8
f 40//8 39//8 38//8
f 45//3 46//3 47//3
f 48//3 47//3 46//3
f 53//6 54//6 55//6
f 56//6 55//6 54//6
f 61//3 62//3 63//3
f 64//3 63//3 62//3
f 69//2 70//2 71//2
f 72//2 71//2 70//2
f 77//5 78//5 79//5
f 80//5 79//5 78//5
usemtl material_1_0
f 1//1 2//1 3//1
f 2//1 1//1 4//1
f 4//1 1//1 5//1
f 5//1 1//1 6//1
f 6//1 1//1 7//1
f 8//1 5//1 6//1
f 17//2 18//2 19//2
f 18//2 17//2 20//2
f 25//3 26//3 27//3
f 26//3 25//3 28//3
f 33//4 34//4 35//4
f 34//4 33//4 36//4
f 41//5 42//5 43//5
f 42//5 41//5 44//5
f 49//2 50//2 51//2
f 50//2 49//2 52//2
f 57//5 58//5 59//5
f 58//5 57//5 60//5
f 65//6 66//6 67//6
f 66//6 65//6 68//6
f 73//3 74//3 75//3
f 74//3 73//3 76//3
