# SSTK version 0.8.0
# 609
mtllib original-609.mtl
o #ID3809
v -0.183514 0.27619 -0.099193
v -0.177236 0.266799 -0.198539
v -0.187418 0.265513 -0.19178
v -0.207774 0.288832 -0.099523
v -0.183358 0.271057 -0.089458
v -0.207774 0.288832 -0.099523
v -0.207774 0.288832 -0.099523
v -0.198684 0.259091 -0.089295
v -0.177984 0.275926 -0.092657
v -0.208375 0.269885 -0.088136
v -0.176705 0.241772 -0.086269
v -0.17801 0.275484 -0.091697
v -0.177947 0.276294 -0.093738
v -0.178023 0.274976 -0.090874
v -0.177899 0.276583 -0.094922
v -0.178023 0.274409 -0.0902
v -0.177841 0.276787 -0.09619
v -0.178012 0.273793 -0.089687
v -0.177772 0.276904 -0.097521
v -0.177988 0.273137 -0.089342
v -0.177696 0.276931 -0.098896
v -0.177952 0.272454 -0.089172
v -0.177978 0.272958 -0.089298
v -0.177905 0.271752 -0.089179
vn 0.11202501037452495 0.9852338521034574 0.12947839093829716
vn -0.1408450075245429 0.9847644677823663 -0.10198836624206
vn -0.03582059202167305 0.9929497034845621 -0.11299456419287252
vn 0.46003039523949807 0.8796420244162875 -0.12083850519021955
vn -0.10782590428700084 0.4971001825300458 0.8609674691260325
vn 0.4150877731045966 0.8074938003931943 0.419113234037799
vn 0.10317515809222134 0.3515190479231315 0.9304779662624258
vn -0.0004965519341594844 0.2328254848008605 0.9725184044857048
vn -0.22753468582684064 0.9009141296391142 0.3695696115243756
vn 0.550970508812331 0.41699273092285344 0.7228752041511604
vn -0.06279052081843708 0.09392261058850844 0.9935974505379876
vn -0.27417804478569663 0.8565825051741394 0.43714163790136473
vn -0.1523665104393001 0.9493367616818605 0.2748529778189584
vn -0.23802055580438958 0.7977737996746661 0.5539884290914526
vn -0.11551692350964415 0.9741086442196044 0.19434039631407374
vn -0.19796802635450397 0.7039632437374449 0.6820882728855239
vn -0.08953673349019038 0.9887438314903649 0.11986996723808503
vn -0.1549867891874315 0.5623040216985634 0.812276604586758
vn -0.07313640931392848 0.9960676014566524 0.050003989451411573
vn -0.11183746891044222 0.3650711366808052 0.924237764706837
vn -0.06386835832783423 0.997087057215038 -0.041692123222052804
vn -0.07386466435732573 0.12229781915510154 0.9897410038940923
vn -0.08690379181911002 0.2362862374065474 0.9677895148118301
vn -0.059301156216151896 0.038043320037501556 0.9975149516032087
usemtl material_0_0
f 1//1 2//2 3//3
f 4//4 1//1 3//3
f 5//5 1//1 6//6
f 5//5 7//7 8//8
f 9//9 1//1 5//5
f 8//8 7//7 10//10
f 11//11 5//5 8//8
f 12//12 9//9 5//5
f 9//9 13//13 1//1
f 14//14 12//12 5//5
f 13//13 15//15 1//1
f 16//16 14//14 5//5
f 15//15 17//17 1//1
f 18//18 16//16 5//5
f 17//17 19//19 1//1
f 20//20 18//18 5//5
f 19//19 21//21 1//1
f 22//22 20//20 5//5
f 20//20 22//22 23//23
f 24//24 22//22 5//5
