# SSTK version 0.8.0
# 551
mtllib original-551.mtl
o #ID3626
v -0.292414 0.276837 -0.159104
v -0.285735 0.278729 -0.150556
v -0.282534 0.276527 -0.159104
v -0.286634 0.279439 -0.147783
v -0.289373 0.278726 -0.151033
v -0.287305 0.280147 -0.14499
v -0.287305 0.280147 -0.14499
v -0.289373 0.278726 -0.151033
v -0.286634 0.279439 -0.147783
v -0.292414 0.276837 -0.159104
v -0.285735 0.278729 -0.150556
v -0.282534 0.276527 -0.159104
vn 0.030414461068221866 0.9706344340907874 -0.23862890838116527
vn -0.030414461068221866 -0.9706344340907874 0.23862890838116527
usemtl material_0_0
f 1//1 2//1 3//1
f 2//1 1//1 4//1
f 4//1 1//1 5//1
f 4//1 5//1 6//1
f 7//2 8//2 9//2
f 8//2 10//2 9//2
f 9//2 10//2 11//2
f 12//2 11//2 10//2
