# SSTK version 0.8.0
# 13
mtllib original-13.mtl
o #ID86
v -0.080611 -0.479196 0.055060
v -0.046469 -0.479196 0.055060
v -0.063540 -0.476949 0.055060
v -0.096519 -0.485785 0.055060
v -0.030561 -0.485785 0.055060
v -0.110179 -0.496267 0.055060
v -0.016901 -0.496267 0.055060
v -0.120661 -0.509927 0.055060
v -0.006419 -0.509927 0.055060
v -0.082242 -0.510901 0.055060
v -0.127250 -0.525835 0.055060
v -0.082242 -0.567322 0.055060
v -0.129497 -0.542906 0.055060
v -0.127250 -0.559977 0.055060
v -0.120661 -0.575885 0.055060
v -0.041714 -0.567322 0.055060
v -0.041714 -0.510901 0.055060
v 0.000170 -0.525835 0.055060
v 0.002417 -0.542906 0.055060
v 0.000170 -0.559977 0.055060
v -0.006419 -0.575885 0.055060
v -0.110179 -0.589545 0.055060
v -0.016901 -0.589545 0.055060
v -0.096519 -0.600026 0.055060
v -0.030561 -0.600026 0.055060
v -0.080611 -0.606616 0.055060
v -0.046469 -0.606616 0.055060
v -0.063540 -0.608863 0.055060
vn 0 0 1
vn 0 0 -1
usemtl material_0_2
f 1//1 2//1 3//1
f 3//2 2//2 1//2
f 2//1 1//1 4//1
f 4//2 1//2 2//2
f 2//1 4//1 5//1
f 5//2 4//2 2//2
f 5//1 4//1 6//1
f 6//2 4//2 5//2
f 5//1 6//1 7//1
f 7//2 6//2 5//2
f 7//1 6//1 8//1
f 8//2 6//2 7//2
f 7//1 8//1 9//1
f 9//2 8//2 7//2
f 9//1 8//1 10//1
f 10//2 8//2 9//2
f 10//1 8//1 11//1
f 11//2 8//2 10//2
f 10//1 11//1 12//1
f 12//2 11//2 10//2
f 12//1 11//1 13//1
f 13//2 11//2 12//2
f 12//1 13//1 14//1
f 14//2 13//2 12//2
f 12//1 14//1 15//1
f 15//2 14//2 12//2
f 12//1 15//1 16//1
f 16//2 15//2 12//2
f 9//1 17//1 18//1
f 18//2 17//2 9//2
f 17//1 9//1 10//1
f 10//2 9//2 17//2
f 18//1 17//1 16//1
f 16//2 17//2 18//2
f 18//1 16//1 19//1
f 19//2 16//2 18//2
f 19//1 16//1 20//1
f 20//2 16//2 19//2
f 20//1 16//1 21//1
f 21//2 16//2 20//2
f 21//1 16//1 15//1
f 15//2 16//2 21//2
f 21//1 15//1 22//1
f 22//2 15//2 21//2
f 21//1 22//1 23//1
f 23//2 22//2 21//2
f 23//1 22//1 24//1
f 24//2 22//2 23//2
f 23//1 24//1 25//1
f 25//2 24//2 23//2
f 25//1 24//1 26//1
f 26//2 24//2 25//2
f 25//1 26//1 27//1
f 27//2 26//2 25//2
f 27//1 26//1 28//1
f 28//2 26//2 27//2
