# SSTK version 0.8.0
# 19
mtllib original-19.mtl
o #ID122
v -0.328179 -0.254851 0.055060
v -0.292803 -0.254851 0.055060
v -0.310491 -0.252522 0.055060
v -0.344661 -0.261678 0.055060
v -0.276320 -0.261678 0.055060
v -0.358815 -0.272539 0.055060
v -0.262166 -0.272539 0.055060
v -0.369676 -0.286693 0.055060
v -0.251305 -0.286693 0.055060
v -0.376503 -0.303175 0.055060
v -0.244478 -0.303175 0.055060
v -0.378832 -0.320863 0.055060
v -0.242149 -0.320863 0.055060
v -0.376503 -0.338551 0.055060
v -0.244478 -0.338551 0.055060
v -0.369676 -0.355034 0.055060
v -0.251305 -0.355034 0.055060
v -0.358815 -0.369188 0.055060
v -0.262166 -0.369188 0.055060
v -0.344661 -0.380049 0.055060
v -0.276320 -0.380049 0.055060
v -0.328179 -0.386876 0.055060
v -0.292803 -0.386876 0.055060
v -0.310491 -0.389205 0.055060
vn 0 0 1
vn 0 0 -1
usemtl material_0_2
f 1//1 2//1 3//1
f 3//2 2//2 1//2
f 2//1 1//1 4//1
f 4//2 1//2 2//2
f 2//1 4//1 5//1
f 5//2 4//2 2//2
f 5//1 4//1 6//1
f 6//2 4//2 5//2
f 5//1 6//1 7//1
f 7//2 6//2 5//2
f 7//1 6//1 8//1
f 8//2 6//2 7//2
f 7//1 8//1 9//1
f 9//2 8//2 7//2
f 9//1 8//1 10//1
f 10//2 8//2 9//2
f 9//1 10//1 11//1
f 11//2 10//2 9//2
f 11//1 10//1 12//1
f 12//2 10//2 11//2
f 11//1 12//1 13//1
f 13//2 12//2 11//2
f 13//1 12//1 14//1
f 14//2 12//2 13//2
f 13//1 14//1 15//1
f 15//2 14//2 13//2
f 15//1 14//1 16//1
f 16//2 14//2 15//2
f 15//1 16//1 17//1
f 17//2 16//2 15//2
f 17//1 16//1 18//1
f 18//2 16//2 17//2
f 17//1 18//1 19//1
f 19//2 18//2 17//2
f 19//1 18//1 20//1
f 20//2 18//2 19//2
f 19//1 20//1 21//1
f 21//2 20//2 19//2
f 21//1 20//1 22//1
f 22//2 20//2 21//2
f 21//1 22//1 23//1
f 23//2 22//2 21//2
f 23//1 22//1 24//1
f 24//2 22//2 23//2
