# SSTK version 0.8.0
# 8
mtllib original-8.mtl
o Component_1_1/Component_1/mesh5/mesh5-geometry#mesh5-geometry
v -0.438039 -0.125352 -0.786323
v -0.463592 -0.153333 -0.803895
v -0.464213 -0.125946 -0.786323
v -0.437417 -0.152739 -0.803895
v -0.463777 -0.145146 -0.850818
v -0.438626 -0.099488 -0.762872
v -0.437603 -0.144552 -0.850818
v -0.462946 -0.181795 -0.815301
v -0.464476 -0.114357 -0.831063
v -0.463051 -0.177145 -0.863642
v -0.464800 -0.100082 -0.762872
v -0.438302 -0.113763 -0.831063
v -0.436877 -0.176551 -0.863642
v -0.436771 -0.181201 -0.815301
v -0.439169 -0.075569 -0.733926
v -0.438962 -0.084686 -0.804699
v -0.462698 -0.192699 -0.817197
v -0.462763 -0.189855 -0.865851
v -0.465136 -0.085280 -0.804699
v -0.436589 -0.189261 -0.865851
v -0.465343 -0.076163 -0.733926
v -0.436524 -0.192105 -0.817197
v -0.439658 -0.053986 -0.699956
v -0.439572 -0.057796 -0.772156
v -0.465746 -0.058390 -0.772156
v -0.465833 -0.054580 -0.699956
v -0.466262 -0.035684 -0.661517
v -0.440087 -0.035090 -0.661517
v -0.466297 -0.034125 -0.733966
v -0.440123 -0.033531 -0.733966
v -0.466622 -0.019784 -0.619237
v -0.440448 -0.019190 -0.619237
v -0.440605 -0.012287 -0.690752
v -0.466779 -0.012881 -0.690752
v -0.466909 -0.007140 -0.573805
v -0.440735 -0.006546 -0.573805
v -0.441010 0.005588 -0.643219
v -0.440943 0.002635 -0.525965
v -0.467185 0.004994 -0.643219
v -0.467118 0.002041 -0.525965
v -0.441333 0.019803 -0.592143
v -0.441070 0.008205 -0.476495
v -0.467244 0.007611 -0.476495
v -0.467507 0.019209 -0.592143
v -0.441112 0.010072 -0.426205
v -0.441567 0.030125 -0.538359
v -0.467286 0.009478 -0.426205
v -0.441112 0.010072 0.242431
v -0.467741 0.029531 -0.538359
v -0.467286 0.009478 0.242431
v -0.441709 0.036387 -0.482743
v -0.441755 0.038427 0.242431
v -0.467884 0.035793 -0.482743
v -0.467930 0.037833 0.242431
v -0.441755 0.038427 -0.427768
v -0.467930 0.037833 -0.427768
vn -0.013843385358183323 0.6100218555488948 -0.7922636533594787
vn -0.01044682074854392 0.4603490268257448 -0.8876765387441743
vn 0.013843385358183323 -0.6100218555488948 0.7922636533594787
vn 0.01044682074854392 -0.4603490268257448 0.8876765387441743
vn 0.9997426073566764 0.022687420207560316 0
vn -0.9997426073566764 -0.022687420207560316 0
vn -0.01644550150134733 0.7246865619726238 -0.6888823792032044
vn 0.01644550150134733 -0.7246865619726238 0.6888823792032044
vn -0.00623895574347759 0.2749254796316013 -0.9614452954175631
vn 0.00623895574347759 -0.2749254796316013 0.9614452954175631
vn -0.018381882059156966 0.8100150008162026 -0.5861209814233668
vn 0.018381882059156966 -0.8100150008162026 0.5861209814233668
vn -0.0038850019975526302 0.17119628371518725 -0.9852292825538571
vn 0.0038850019975526302 -0.17119628371518725 0.9852292825538571
vn -0.019801795852940753 0.8725848437261544 -0.4880610406295516
vn 0.019801795852940753 -0.8725848437261544 0.4880610406295516
vn -0.022648739697366402 0.9980381141282104 0.05836914713721617
vn 0.022648739697366402 -0.9980381141282104 -0.05836914713721617
vn -0.020833303034344726 0.9180391822807112 -0.39594195696091894
vn 0.020833303034344726 -0.9180391822807112 0.39594195696091894
vn -0.02157327853073668 0.9506469016853362 -0.30952392794339173
vn 0.02157327853073668 -0.9506469016853362 0.30952392794339173
vn -0.02209038921693023 0.973433872657684 -0.22790021997994686
vn 0.02209038921693023 -0.973433872657684 0.22790021997994686
vn -0.022431019320492566 0.9884440600110308 -0.14991727585956705
vn 0.022431019320492566 -0.9884440600110308 0.14991727585956705
vn -0.022624615670851788 0.9969750661065747 -0.07435619898527017
vn 0.022624615670851788 -0.9969750661065747 0.07435619898527017
vn -0.02268351987297655 0.999570735428063 -0.01854192012639791
vn 0.02268351987297655 -0.999570735428063 0.01854192012639791
vn -0.022687420207560316 0.9997426073566764 0
vn 0.022687420207560316 -0.9997426073566764 0
vn 0 0 -1
vn 0 0 1
usemtl material_0_0
f 1//1 2//2 3//1
f 2//2 1//1 4//2
f 3//3 2//4 1//3
f 4//4 1//3 2//4
f 5//5 3//5 2//5
f 2//6 3//6 5//6
f 3//1 6//7 1//1
f 1//3 6//8 3//3
f 1//6 7//6 4//6
f 4//5 7//5 1//5
f 4//2 8//9 2//2
f 2//4 8//10 4//4
f 9//5 3//5 5//5
f 5//6 3//6 9//6
f 5//5 2//5 10//5
f 10//6 2//6 5//6
f 6//7 3//1 11//7
f 11//8 3//3 6//8
f 6//6 12//6 1//6
f 1//5 12//5 6//5
f 1//6 12//6 7//6
f 7//5 12//5 1//5
f 4//6 7//6 13//6
f 13//5 7//5 4//5
f 8//9 4//2 14//9
f 14//10 4//4 8//10
f 10//5 2//5 8//5
f 8//6 2//6 10//6
f 9//5 11//5 3//5
f 3//6 11//6 9//6
f 7//4 9//3 5//4
f 5//2 9//1 7//2
f 13//10 5//4 10//10
f 10//9 5//2 13//9
f 11//7 15//11 6//7
f 6//8 15//12 11//8
f 6//6 16//6 12//6
f 12//5 16//5 6//5
f 9//3 7//4 12//3
f 12//1 7//2 9//1
f 5//4 13//10 7//4
f 7//2 13//9 5//2
f 4//6 13//6 14//6
f 14//5 13//5 4//5
f 14//9 17//13 8//9
f 8//10 17//14 14//10
f 10//5 8//5 18//5
f 18//6 8//6 10//6
f 19//5 11//5 9//5
f 9//6 11//6 19//6
f 10//10 20//14 13//10
f 13//9 20//13 10//9
f 15//11 11//7 21//11
f 21//12 11//8 15//12
f 15//6 16//6 6//6
f 6//5 16//5 15//5
f 19//8 12//3 16//8
f 16//7 12//1 19//7
f 12//3 19//8 9//3
f 9//1 19//7 12//1
f 14//6 13//6 20//6
f 20//5 13//5 14//5
f 17//13 14//9 22//13
f 22//14 14//10 17//14
f 18//5 8//5 17//5
f 17//6 8//6 18//6
f 20//14 10//10 18//14
f 18//13 10//9 20//13
f 19//5 21//5 11//5
f 11//6 21//6 19//6
f 21//11 23//15 15//11
f 15//12 23//16 21//12
f 15//6 24//6 16//6
f 16//5 24//5 15//5
f 16//8 25//12 19//8
f 19//7 25//11 16//7
f 14//6 20//6 22//6
f 22//5 20//5 14//5
f 20//17 17//17 22//17
f 22//18 17//18 20//18
f 17//17 20//17 18//17
f 18//18 20//18 17//18
f 25//5 21//5 19//5
f 19//6 21//6 25//6
f 23//15 21//11 26//15
f 26//16 21//12 23//16
f 23//6 24//6 15//6
f 15//5 24//5 23//5
f 25//12 16//8 24//12
f 24//11 16//7 25//11
f 25//5 26//5 21//5
f 21//6 26//6 25//6
f 27//19 23//15 26//15
f 26//16 23//16 27//20
f 28//6 24//6 23//6
f 23//5 24//5 28//5
f 24//12 29//16 25//12
f 25//11 29//15 24//11
f 25//5 27//5 26//5
f 26//6 27//6 25//6
f 23//15 27//19 28//19
f 28//20 27//20 23//16
f 28//6 30//6 24//6
f 24//5 30//5 28//5
f 29//16 24//12 30//16
f 30//15 24//11 29//15
f 29//5 27//5 25//5
f 25//6 27//6 29//6
f 31//21 28//19 27//19
f 27//20 28//20 31//22
f 32//6 30//6 28//6
f 28//5 30//5 32//5
f 33//20 29//16 30//16
f 30//15 29//15 33//19
f 29//5 31//5 27//5
f 27//6 31//6 29//6
f 28//19 31//21 32//21
f 32//22 31//22 28//20
f 32//6 33//6 30//6
f 30//5 33//5 32//5
f 29//16 33//20 34//20
f 34//19 33//19 29//15
f 34//5 31//5 29//5
f 29//6 31//6 34//6
f 35//23 32//21 31//21
f 31//22 32//22 35//24
f 36//6 33//6 32//6
f 32//5 33//5 36//5
f 37//22 34//20 33//20
f 33//19 34//19 37//21
f 34//5 35//5 31//5
f 31//6 35//6 34//6
f 32//21 35//23 36//23
f 36//24 35//24 32//22
f 38//6 33//6 36//6
f 36//5 33//5 38//5
f 34//20 37//22 39//22
f 39//21 37//21 34//19
f 38//6 37//6 33//6
f 33//5 37//5 38//5
f 34//5 40//5 35//5
f 35//6 40//6 34//6
f 40//25 36//23 35//23
f 35//24 36//24 40//26
f 36//23 40//25 38//25
f 38//26 40//26 36//24
f 41//24 39//22 37//22
f 37//21 39//21 41//23
f 39//5 40//5 34//5
f 34//6 40//6 39//6
f 42//6 37//6 38//6
f 38//5 37//5 42//5
f 43//27 38//25 40//25
f 40//26 38//26 43//28
f 39//22 41//24 44//24
f 44//23 41//23 39//21
f 37//6 45//6 41//6
f 41//5 45//5 37//5
f 39//5 43//5 40//5
f 40//6 43//6 39//6
f 45//6 37//6 42//6
f 42//5 37//5 45//5
f 38//25 43//27 42//27
f 42//28 43//28 38//26
f 46//26 44//24 41//24
f 41//23 44//23 46//25
f 44//5 47//5 39//5
f 39//6 47//6 44//6
f 48//6 41//6 45//6
f 45//5 41//5 48//5
f 39//5 47//5 43//5
f 43//6 47//6 39//6
f 42//27 47//29 45//29
f 45//30 47//30 42//28
f 47//29 42//27 43//27
f 43//28 42//28 47//30
f 44//24 46//26 49//26
f 49//25 46//25 44//23
f 48//6 46//6 41//6
f 41//5 46//5 48//5
f 44//5 50//5 47//5
f 47//6 50//6 44//6
f 45//29 50//31 48//31
f 48//32 50//32 45//30
f 50//31 45//29 47//29
f 47//30 45//30 50//32
f 51//28 49//26 46//26
f 46//25 49//25 51//27
f 49//5 50//5 44//5
f 44//6 50//6 49//6
f 48//6 51//6 46//6
f 46//5 51//5 48//5
f 50//33 52//33 48//33
f 48//34 52//34 50//34
f 49//26 51//28 53//28
f 53//27 51//27 49//25
f 53//5 50//5 49//5
f 49//6 50//6 53//6
f 52//6 51//6 48//6
f 48//5 51//5 52//5
f 52//33 50//33 54//33
f 54//34 50//34 52//34
f 55//30 53//28 51//28
f 51//27 53//27 55//29
f 56//5 50//5 53//5
f 53//6 50//6 56//6
f 51//6 52//6 55//6
f 55//5 52//5 51//5
f 50//5 56//5 54//5
f 54//6 56//6 50//6
f 56//30 52//32 54//32
f 54//31 52//31 56//29
f 53//28 55//30 56//30
f 56//29 55//29 53//27
f 52//32 56//30 55//30
f 55//29 56//29 52//31
